<?xml version="1.0" encoding="UTF-8" standalone="no"?>
<!-- Created with Inkscape (http://www.inkscape.org/) -->

<svg
   xmlns:dc="http://purl.org/dc/elements/1.1/"
   xmlns:cc="http://creativecommons.org/ns#"
   xmlns:rdf="http://www.w3.org/1999/02/22-rdf-syntax-ns#"
   xmlns:svg="http://www.w3.org/2000/svg"
   xmlns="http://www.w3.org/2000/svg"
   xmlns:xlink="http://www.w3.org/1999/xlink"
   xmlns:sodipodi="http://sodipodi.sourceforge.net/DTD/sodipodi-0.dtd"
   xmlns:inkscape="http://www.inkscape.org/namespaces/inkscape"
   inkscape:export-ydpi="90.000000"
   inkscape:export-xdpi="90.000000"
   width="480"
   height="300"
   id="svg11300"
   sodipodi:version="0.32"
   inkscape:version="0.48.4 r9939"
   sodipodi:docname="bokken.svg"
   inkscape:output_extension="org.inkscape.output.svg.inkscape"
   version="1.0"
   style="display:inline;enable-background:new"
   inkscape:export-filename="/home/sam/moka-next-template.png">
  <sodipodi:namedview
     stroke="#ef2929"
     fill="#f57900"
     id="base"
     pagecolor="#777777"
     bordercolor="#666666"
     borderopacity="0.25490196"
     inkscape:pageopacity="0"
     inkscape:pageshadow="2"
     inkscape:zoom="1"
     inkscape:cx="328.53397"
     inkscape:cy="136.39687"
     inkscape:current-layer="layer7"
     showgrid="false"
     inkscape:grid-bbox="true"
     inkscape:document-units="px"
     inkscape:showpageshadow="false"
     inkscape:window-width="1364"
     inkscape:window-height="700"
     inkscape:window-x="0"
     inkscape:window-y="28"
     width="400px"
     height="300px"
     inkscape:snap-nodes="true"
     inkscape:snap-bbox="true"
     gridtolerance="10000"
     inkscape:object-nodes="true"
     inkscape:snap-grids="true"
     showguides="true"
     inkscape:guide-bbox="true"
     inkscape:window-maximized="1"
     inkscape:bbox-nodes="true"
     inkscape:bbox-paths="true"
     inkscape:snap-bbox-edge-midpoints="true"
     inkscape:snap-bbox-midpoints="true">
    <inkscape:grid
       spacingy="1px"
       spacingx="1px"
       id="grid5883"
       type="xygrid"
       enabled="true"
       visible="true"
       empspacing="4"
       snapvisiblegridlinesonly="true"
       dotted="false"
       color="#000000"
       opacity="0.1254902"
       empcolor="#203ef3"
       empopacity="0.36470588" />
    <inkscape:grid
       type="xygrid"
       id="grid11592"
       empspacing="8"
       visible="true"
       enabled="false"
       spacingx="0.5px"
       spacingy="0.5px"
       color="#ff0000"
       opacity="0.1254902"
       empcolor="#ff0000"
       empopacity="0.25098039"
       snapvisiblegridlinesonly="true"
       dotted="true" />
  </sodipodi:namedview>
  <defs
     id="defs3">
    <linearGradient
       inkscape:collect="always"
       xlink:href="#outerBackgroundGradient-2"
       id="linearGradient4254"
       x1="35"
       y1="156"
       x2="253"
       y2="156"
       gradientUnits="userSpaceOnUse"
       gradientTransform="matrix(0,-1,1,0,-12,300)" />
    <linearGradient
       inkscape:collect="always"
       xlink:href="#outerBackgroundGradient-2"
       id="linearGradient4256"
       x1="417"
       y1="148"
       x2="431"
       y2="148"
       gradientUnits="userSpaceOnUse"
       gradientTransform="matrix(0,-1,1,0,276,572)" />
    <linearGradient
       inkscape:collect="always"
       xlink:href="#outerBackgroundGradient-2"
       id="linearGradient4260"
       x1="418"
       y1="68"
       x2="446"
       y2="68"
       gradientUnits="userSpaceOnUse"
       gradientTransform="matrix(0,-1,1,0,364,500)" />
    <linearGradient
       inkscape:collect="always"
       xlink:href="#outerBackgroundGradient-2"
       id="linearGradient4262"
       x1="292"
       y1="244"
       x2="332"
       y2="244"
       gradientUnits="userSpaceOnUse"
       gradientTransform="matrix(0,-1,1,0,68,556)" />
    <linearGradient
       inkscape:collect="always"
       xlink:href="#outerBackgroundGradient-2"
       id="linearGradient4264"
       x1="293"
       y1="76"
       x2="379"
       y2="76"
       gradientUnits="userSpaceOnUse"
       gradientTransform="matrix(0,-1,1,0,260,412)" />
    <linearGradient
       inkscape:collect="always"
       xlink:href="#outerBackgroundGradient-2"
       id="linearGradient4266"
       x1="291"
       y1="172"
       x2="349"
       y2="172"
       gradientUnits="userSpaceOnUse"
       gradientTransform="matrix(0,-1,1,0,148,492)" />
    <linearGradient
       inkscape:collect="always"
       xlink:href="#outerBackgroundGradient-2"
       id="linearGradient3870"
       gradientUnits="userSpaceOnUse"
       gradientTransform="matrix(0,-1,1,0,316,540)"
       x1="418"
       y1="112"
       x2="438"
       y2="112" />
    <linearGradient
       id="outerBackgroundGradient-2">
      <stop
         style="stop-color:#4e4e4e;stop-opacity:1"
         offset="0"
         id="stop3864-8-6-5" />
      <stop
         style="stop-color:#828282;stop-opacity:1"
         offset="1"
         id="stop3866-9-1-1" />
    </linearGradient>
  </defs>
  <metadata
     id="metadata4">
    <rdf:RDF>
      <cc:Work
         rdf:about="">
        <dc:format>image/svg+xml</dc:format>
        <dc:type
           rdf:resource="http://purl.org/dc/dcmitype/StillImage" />
        <dc:creator>
          <cc:Agent>
            <dc:title>Sam Hewitt</dc:title>
          </cc:Agent>
        </dc:creator>
        <dc:source />
        <cc:license
           rdf:resource="" />
        <dc:title />
        <dc:subject>
          <rdf:Bag />
        </dc:subject>
        <dc:date />
        <dc:rights>
          <cc:Agent>
            <dc:title />
          </cc:Agent>
        </dc:rights>
        <dc:publisher>
          <cc:Agent>
            <dc:title />
          </cc:Agent>
        </dc:publisher>
        <dc:identifier />
        <dc:relation />
        <dc:language />
        <dc:coverage />
        <dc:description />
        <dc:contributor>
          <cc:Agent>
            <dc:title />
          </cc:Agent>
        </dc:contributor>
      </cc:Work>
      <cc:Work
         rdf:about="">
        <dc:format>image/svg+xml</dc:format>
        <dc:type
           rdf:resource="http://purl.org/dc/dcmitype/StillImage" />
      </cc:Work>
    </rdf:RDF>
  </metadata>
  <g
     style="display:inline"
     inkscape:groupmode="layer"
     inkscape:label="Icon"
     id="layer1">
    <g
       style="display:none"
       inkscape:label="Baseplate"
       id="layer7"
       inkscape:groupmode="layer">
      <text
         y="19.745117"
         xml:space="preserve"
         x="15.006836"
         style="font-style:normal;font-variant:normal;font-weight:normal;font-stretch:normal;line-height:0%;font-family:'DejaVu Sans';-inkscape-font-specification:'DejaVu Sans';display:inline;fill:#000000;fill-opacity:1;stroke:none;enable-background:new"
         inkscape:label="context"
         id="context"><tspan
           style="font-style:normal;font-variant:normal;font-weight:normal;font-stretch:normal;font-size:18px;line-height:1.25;font-family:'DejaVu Sans';-inkscape-font-specification:'DejaVu Sans'"
           y="19.745117"
           x="15.006836"
           sodipodi:role="line"
           id="tspan3933">apps</tspan></text>
      <text
         y="19.745117"
         xml:space="preserve"
         x="122.48828"
         style="font-style:normal;font-variant:normal;font-weight:bold;font-stretch:normal;line-height:0%;font-family:'DejaVu Sans';-inkscape-font-specification:'DejaVu Sans Bold';text-align:start;writing-mode:lr-tb;text-anchor:start;display:inline;fill:#000000;fill-opacity:1;stroke:none;enable-background:new"
         inkscape:label="icon-name"
         id="icon-name"><tspan
           style="font-style:normal;font-variant:normal;font-weight:bold;font-stretch:normal;font-size:18px;line-height:1.25;font-family:'DejaVu Sans';-inkscape-font-specification:'DejaVu Sans Bold'"
           y="19.745117"
           x="122.48828"
           sodipodi:role="line"
           id="tspan3937">bokken</tspan></text>
      <rect
         style="fill:#eeeeec;fill-opacity:1;fill-rule:nonzero;stroke:none;stroke-width:2;marker:none;visibility:visible;display:inline;overflow:visible;enable-background:accumulate"
         id="rect16x16"
         width="16"
         height="16"
         x="416"
         y="140"
         inkscape:label="16x16" />
      <rect
         style="fill:#d4d4d4;fill-opacity:1;fill-rule:nonzero;stroke:none;stroke-width:2;marker:none;visibility:visible;display:inline;overflow:visible;enable-background:accumulate"
         id="rect24x24"
         width="24"
         height="24"
         x="416"
         y="100"
         inkscape:label="24x24" />
      <rect
         style="fill:#eeeeec;fill-opacity:1;fill-rule:nonzero;stroke:none;stroke-width:2;marker:none;visibility:visible;display:inline;overflow:visible;enable-background:accumulate"
         id="rect32x32"
         width="32"
         height="32"
         x="416"
         y="52"
         inkscape:label="32x32" />
      <rect
         inkscape:label="22x22"
         y="101"
         x="417"
         height="22"
         width="22"
         id="rect22x22"
         style="fill:#eeeeec;fill-opacity:1;fill-rule:nonzero;stroke:none;stroke-width:2;marker:none;visibility:visible;display:inline;overflow:visible;enable-background:accumulate" />
      <rect
         inkscape:label="48x48"
         y="220"
         x="288"
         height="48"
         width="48"
         id="rect48x48"
         style="fill:#eeeeec;fill-opacity:1;fill-rule:nonzero;stroke:none;stroke-width:2;marker:none;visibility:visible;display:inline;overflow:visible;enable-background:accumulate" />
      <rect
         style="fill:#eeeeec;fill-opacity:1;fill-rule:nonzero;stroke:none;stroke-width:2;marker:none;visibility:visible;display:inline;overflow:visible;enable-background:accumulate"
         id="rect256x256"
         width="256"
         height="256"
         x="16"
         y="28"
         inkscape:label="256x256" />
      <rect
         style="fill:#eeeeec;fill-opacity:1;fill-rule:nonzero;stroke:none;stroke-width:2;marker:none;visibility:visible;display:inline;overflow:visible;enable-background:accumulate"
         id="rect64x64"
         width="64"
         height="64"
         x="288"
         y="140"
         inkscape:label="64x64" />
      <rect
         style="fill:#eeeeec;fill-opacity:1;fill-rule:nonzero;stroke:none;stroke-width:2;marker:none;visibility:visible;display:inline;overflow:visible;enable-background:accumulate"
         id="rect96x96"
         width="96"
         height="96"
         x="288"
         y="28"
         inkscape:label="96x96" />
    </g>
    <g
       inkscape:groupmode="layer"
       id="layer4"
       inkscape:label="Shadow"
       style="display:inline"
       sodipodi:insensitive="true">
      <rect
         ry="50"
         y="47"
         x="34"
         height="220"
         width="220"
         id="rect4114"
         style="opacity:0.1;color:#bebebe;fill:#000000;fill-opacity:1;fill-rule:nonzero;stroke:none;stroke-width:0;marker:none;visibility:visible;display:inline;overflow:visible;enable-background:accumulate" />
      <rect
         style="opacity:0.1;color:#bebebe;fill:#000000;fill-opacity:1;fill-rule:nonzero;stroke:none;stroke-width:0;marker:none;visibility:visible;display:inline;overflow:visible;enable-background:accumulate"
         id="rect4120"
         width="30"
         height="30"
         x="417"
         y="54"
         ry="7" />
      <rect
         transform="scale(1,-1)"
         ry="9"
         y="-266"
         x="291"
         height="42"
         width="42"
         id="rect4122"
         style="opacity:0.1;color:#bebebe;fill:#000000;fill-opacity:1;fill-rule:nonzero;stroke:none;stroke-width:0;marker:none;visibility:visible;display:inline;overflow:visible;enable-background:accumulate" />
      <rect
         style="opacity:0.1;color:#bebebe;fill:#000000;fill-opacity:1;fill-rule:nonzero;stroke:none;stroke-width:0;marker:none;visibility:visible;display:inline;overflow:visible;enable-background:accumulate"
         id="rect4124"
         width="88"
         height="88"
         x="292"
         y="33"
         ry="18" />
      <rect
         ry="12.5"
         y="143"
         x="290"
         height="60"
         width="60"
         id="rect4126"
         style="opacity:0.1;color:#bebebe;fill:#000000;fill-opacity:1;fill-rule:nonzero;stroke:none;stroke-width:0;marker:none;visibility:visible;display:inline;overflow:visible;enable-background:accumulate" />
      <path
         id="path4268"
         d="m 422,101 c -2.77,0 -5,2.23 -5,5 l 0,12 c 0,2.77 2.23,5 5,5 l 12,0 c 2.77,0 5,-2.23 5,-5 l 0,-12 c 0,-2.77 -2.23,-5 -5,-5 z"
         style="opacity:0.1;color:#bebebe;fill:#000000;fill-opacity:1;fill-rule:nonzero;stroke:none;stroke-width:0;marker:none;visibility:visible;display:inline;overflow:visible;enable-background:accumulate"
         inkscape:connector-curvature="0"
         sodipodi:nodetypes="sssssssss" />
      <path
         id="path4270"
         d="m 419,140 c -1.662,0 -3,1.338 -3,3 l 0,10 c 0,1.662 1.338,3 3,3 l 10,0 c 1.662,0 3,-1.338 3,-3 l 0,-10 c 0,-1.662 -1.338,-3 -3,-3 z"
         style="opacity:0.1;color:#bebebe;fill:#000000;fill-opacity:1;fill-rule:nonzero;stroke:none;stroke-width:0;marker:none;visibility:visible;display:inline;overflow:visible;enable-background:accumulate"
         inkscape:connector-curvature="0"
         sodipodi:nodetypes="sssssssss" />
    </g>
    <g
       inkscape:groupmode="layer"
       id="layer2"
       inkscape:label="Background"
       style="display:inline">
      <path
         style="color:#bebebe;fill:url(#linearGradient4254);fill-opacity:1.0;fill-rule:nonzero;stroke:none;stroke-width:2;marker:none;visibility:visible;display:inline;overflow:visible;enable-background:accumulate"
         d="M 84 46.5 C 56.568735 46.5 34.5 68.568732 34.5 96 L 34.5 216 C 34.5 243.43127 56.568735 265.5 84 265.5 L 204 265.5 C 231.43127 265.5 253.5 243.43127 253.5 216 L 253.5 96 C 253.5 68.568732 231.43127 46.5 204 46.5 L 84 46.5 z "
         id="path4200" />
      <path
         style="color:#bebebe;fill:url(#linearGradient4256);fill-opacity:1.0;fill-rule:nonzero;stroke:none;stroke-width:2;marker:none;visibility:visible;display:inline;overflow:visible;enable-background:accumulate"
         d="M 419 140.5 C 417.6156 140.5 416.5 141.6156 416.5 143 L 416.5 153 C 416.5 154.3844 417.6156 155.5 419 155.5 L 429 155.5 C 430.3844 155.5 431.5 154.3844 431.5 153 L 431.5 143 C 431.5 141.6156 430.3844 140.5 429 140.5 L 419 140.5 z "
         id="path4202" />
      <path
         style="color:#bebebe;fill:url(#linearGradient3870);fill-opacity:1.0;fill-rule:nonzero;stroke:none;stroke-width:2;marker:none;visibility:visible;display:inline;overflow:visible;enable-background:accumulate"
         d="M 422 101.5 C 419.50301 101.5 417.5 103.50301 417.5 106 L 417.5 118 C 417.5 120.49699 419.50301 122.5 422 122.5 L 434 122.5 C 436.49699 122.5 438.5 120.49699 438.5 118 L 438.5 106 C 438.5 103.50301 436.49699 101.5 434 101.5 L 422 101.5 z "
         id="path4204" />
      <path
         style="color:#bebebe;fill:url(#linearGradient4260);fill-opacity:1.0;fill-rule:nonzero;stroke:none;stroke-width:2;marker:none;visibility:visible;display:inline;overflow:visible;enable-background:accumulate"
         d="M 424 53.5 C 420.39346 53.5 417.5 56.393464 417.5 60 L 417.5 76 C 417.5 79.606536 420.39346 82.5 424 82.5 L 440 82.5 C 443.60654 82.5 446.5 79.606536 446.5 76 L 446.5 60 C 446.5 56.393464 443.60654 53.5 440 53.5 L 424 53.5 z "
         id="path4206" />
      <path
         style="color:#bebebe;fill:url(#linearGradient4262);fill-opacity:1.0;fill-rule:nonzero;stroke:none;stroke-width:2;marker:none;visibility:visible;display:inline;overflow:visible;enable-background:accumulate"
         d="M 300 223.5 C 295.28469 223.5 291.5 227.28469 291.5 232 L 291.5 256 C 291.5 260.71531 295.28469 264.5 300 264.5 L 324 264.5 C 328.71531 264.5 332.5 260.71531 332.5 256 L 332.5 232 C 332.5 227.28469 328.71531 223.5 324 223.5 L 300 223.5 z "
         id="path4208" />
      <path
         style="color:#bebebe;fill:url(#linearGradient4264);fill-opacity:1.0;fill-rule:nonzero;stroke:none;stroke-width:2;marker:none;visibility:visible;display:inline;overflow:visible;enable-background:accumulate"
         d="M 310 32.5 C 300.29745 32.5 292.5 40.297452 292.5 50 L 292.5 102 C 292.5 111.70255 300.29745 119.5 310 119.5 L 362 119.5 C 371.70255 119.5 379.5 111.70255 379.5 102 L 379.5 50 C 379.5 40.297452 371.70255 32.5 362 32.5 L 310 32.5 z "
         id="path4210" />
      <path
         style="color:#bebebe;fill:url(#linearGradient4266);fill-opacity:1.0;fill-rule:nonzero;stroke:none;stroke-width:2;marker:none;visibility:visible;display:inline;overflow:visible;enable-background:accumulate"
         d="M 302.5 142.5 C 295.84498 142.5 290.5 147.84498 290.5 154.5 L 290.5 189.5 C 290.5 196.15502 295.84498 201.5 302.5 201.5 L 337.5 201.5 C 344.15502 201.5 349.5 196.15502 349.5 189.5 L 349.5 154.5 C 349.5 147.84498 344.15502 142.5 337.5 142.5 L 302.5 142.5 z "
         id="path4212" />
    </g>
    <g
       inkscape:groupmode="layer"
       id="layer6"
       inkscape:label="Symbols"
       style="display:inline">
      <path
         d="m 332.14737,62.788077 0,-13.578947 c -5e-5,-0.505211 0.29474,-0.757848 0.88421,-0.757895 0.63153,4.7e-5 1.53679,0.189526 2.71579,0.568421 1.221,0.336895 1.83152,0.736884 1.83158,1.2 -6e-5,0.294789 -0.25263,0.673726 -0.7579,1.136842 -0.50526,0.421105 -0.75794,0.8632 -0.75789,1.326316 l 0,10.105263 16.98947,0 c 0.71574,3.2e-5 1.45258,-0.547336 2.21053,-1.642105 0.79995,-1.094705 1.34731,-1.642068 1.6421,-1.642105 0.33685,3.7e-5 1.1789,0.568452 2.52632,1.705263 1.34726,1.094768 2.02095,1.789505 2.02105,2.084211 -10e-5,0.589505 -0.50526,0.884242 -1.51579,0.88421 l -22.92631,0 c -0.46316,3.2e-5 -0.69479,0.168474 -0.69474,0.505263 -5e-5,1.094763 1.15784,3.242132 3.47368,6.442105 1.81048,2.568443 3.26311,4.568443 4.3579,6 1.13679,1.38949 2.56837,3.052648 4.29474,4.989474 1.72626,1.894748 3.51573,3.5158 5.36842,4.863158 1.85258,1.347374 3.87363,2.547374 6.06315,3.6 3.32621,1.557895 5.36832,2.463158 6.12632,2.71579 -0.42105,0.336842 -1.17905,0.8 -2.27368,1.389473 -1.09485,0.547369 -1.89485,1.052632 -2.4,1.51579 -0.0421,0.0421 -0.14737,0.168421 -0.31579,0.378947 -0.16842,0.210526 -0.31579,0.357895 -0.44211,0.442105 -0.12631,0.08421 -0.29474,0.126316 -0.50526,0.126316 -1.55795,-5e-6 -4.21058,-1.957895 -7.9579,-5.873684 -3.70531,-3.915784 -6.67373,-7.347358 -8.90526,-10.294737 -2.06321,-2.736826 -4.44216,-6.421032 -7.13684,-11.052632 l 0,27.473685 c -5e-5,0.126315 0.0211,0.673679 0.0632,1.642105 0.0421,0.968411 0.0421,1.726311 0,2.273681 -0.0421,0.54737 -0.12632,1.19999 -0.25264,1.9579 -0.12631,0.79999 -0.4,1.38947 -0.82105,1.76842 -0.42105,0.37895 -0.96847,0.56841 -1.6421,0.56842 -0.84216,-10e-6 -1.26321,-0.65264 -1.26316,-1.95789 l -0.0632,-30.568426 c -0.46316,0.842127 -1.85268,2.842121 -4.16842,6 -6.23163,8.67369 -13.5369,15.242105 -21.91579,19.705263 0.33684,-0.421052 0.86311,-1.010531 1.57895,-1.768421 0.75784,-0.715789 1.19994,-1.136842 1.32631,-1.263158 l 3.28421,-3.6 c 3.41048,-3.789468 7.30521,-8.673673 11.68421,-14.652631 4.421,-5.978926 6.63153,-10.2105 6.63158,-12.694737 -5e-5,-0.421 -0.21052,-0.631547 -0.63158,-0.631579 l -22.23157,0 c -0.67374,3.2e-5 -1.01058,-0.273632 -1.01053,-0.821053 -5e-5,-0.378894 0.33684,-0.568389 1.01053,-0.568421 l 24.50526,0"
         style="font-size:12px;font-style:normal;font-variant:normal;font-weight:normal;font-stretch:normal;text-align:center;line-height:125%;letter-spacing:0px;word-spacing:0px;text-anchor:middle;opacity:0.2;fill:#000000;fill-opacity:1;stroke:none;display:inline;enable-background:new;font-family:Times New Roman;-inkscape-font-specification:Times New Roman"
         id="path3891"
         inkscape:connector-curvature="0" />
      <path
         inkscape:connector-curvature="0"
         id="path3893"
         style="font-size:12px;font-style:normal;font-variant:normal;font-weight:normal;font-stretch:normal;text-align:center;line-height:125%;letter-spacing:0px;word-spacing:0px;text-anchor:middle;opacity:0.2;fill:#000000;fill-opacity:1;stroke:none;display:inline;enable-background:new;font-family:Times New Roman;-inkscape-font-specification:Times New Roman"
         d="m 317.43157,163.02713 0,-9.05263 c -2e-5,-0.33681 0.19649,-0.50523 0.58948,-0.50526 0.42102,3e-5 1.02453,0.12635 1.81053,0.37895 0.814,0.22459 1.22101,0.49125 1.22105,0.8 -4e-5,0.19652 -0.16843,0.44916 -0.50526,0.7579 -0.33684,0.28074 -0.5053,0.57546 -0.50527,0.8842 l 0,6.73684 11.32631,0 c 0.47716,3e-5 0.96839,-0.36489 1.47369,-1.09472 0.5333,-0.72981 0.8982,-1.09471 1.09473,-1.09475 0.22457,3e-5 0.78593,0.37898 1.68421,1.13685 0.89818,0.72985 1.3473,1.193 1.34737,1.38947 -7e-5,0.393 -0.33684,0.5895 -1.01053,0.58948 l -15.2842,0 c -0.30878,2e-5 -0.4632,0.11232 -0.46316,0.33683 -4e-5,0.72984 0.77189,2.16142 2.31578,4.29474 1.20699,1.71229 2.17541,3.04563 2.90527,4 0.75786,0.92632 1.71225,2.0351 2.86316,3.32631 1.15084,1.26317 2.34382,2.34387 3.57895,3.24211 1.23505,0.89825 2.58242,1.69825 4.0421,2.4 2.21747,1.0386 3.57888,1.6421 4.08421,1.81053 -0.2807,0.22456 -0.78603,0.53333 -1.51579,0.92631 -0.7299,0.36491 -1.26323,0.70176 -1.6,1.01053 -0.0281,0.0281 -0.0982,0.11228 -0.21052,0.25263 -0.11228,0.14035 -0.21053,0.2386 -0.29474,0.29474 -0.0842,0.0561 -0.1965,0.0842 -0.33684,0.0842 -1.03864,-1e-5 -2.80705,-1.30527 -5.30527,-3.91579 -2.47021,-2.61053 -4.44915,-4.89823 -5.93684,-6.86315 -1.37547,-1.82455 -2.96144,-4.28068 -4.75789,-7.36842 l 0,18.3158 c -4e-5,0.0842 0.0141,0.44911 0.0421,1.09473 0.0281,0.64561 0.0281,1.15088 0,1.51579 -0.0281,0.36491 -0.0842,0.79999 -0.16843,1.30527 -0.0842,0.53332 -0.26666,0.92631 -0.54736,1.17894 -0.2807,0.25264 -0.64565,0.37894 -1.09474,0.37895 -0.56144,-1e-5 -0.84214,-0.43509 -0.8421,-1.30526 l -0.0421,-20.37895 c -0.30877,0.56142 -1.23512,1.89475 -2.77894,4 -4.15442,5.78246 -9.0246,10.1614 -14.61053,13.13684 0.22456,-0.2807 0.57541,-0.67369 1.05263,-1.17895 0.50523,-0.47719 0.79996,-0.75789 0.88421,-0.8421 l 2.18947,-2.4 c 2.27366,-2.52631 4.87014,-5.78245 7.78948,-9.76842 2.94734,-3.98595 4.42102,-6.80701 4.42105,-8.46317 -3e-5,-0.28067 -0.14035,-0.42103 -0.42105,-0.42105 l -14.82105,0 c -0.44916,2e-5 -0.67372,-0.18242 -0.67369,-0.54737 -3e-5,-0.2526 0.22456,-0.37893 0.67369,-0.37895 l 16.33684,0" />
      <path
         d="m 310.2021,238.38387 0,-6.33684 c -10e-6,-0.23577 0.13755,-0.35366 0.41264,-0.35368 0.29471,2e-5 0.71717,0.0884 1.26737,0.26526 0.5698,0.15722 0.85471,0.34388 0.85473,0.56 -2e-5,0.13758 -0.1179,0.31441 -0.35368,0.53053 -0.23579,0.19651 -0.35371,0.40283 -0.35369,0.61894 l 0,4.71579 7.92842,0 c 0.33401,3e-5 0.67788,-0.25541 1.03159,-0.76631 0.37331,-0.51087 0.62874,-0.7663 0.76631,-0.76632 0.1572,2e-5 0.55015,0.26528 1.17894,0.79579 0.62873,0.5109 0.94311,0.83511 0.94316,0.97265 -5e-5,0.2751 -0.23578,0.41264 -0.70737,0.41263 l -10.69894,0 c -0.21615,1e-5 -0.32424,0.0786 -0.32421,0.23579 -3e-5,0.51088 0.54032,1.51299 1.62104,3.00631 0.8449,1.19861 1.52279,2.13195 2.03369,2.80001 0.53051,0.64842 1.19858,1.42457 2.00422,2.32841 0.80558,0.88422 1.64067,1.64072 2.50526,2.26948 0.86454,0.62877 1.8077,1.18878 2.82947,1.68 1.55223,0.72703 2.50522,1.14947 2.85895,1.26737 -0.19649,0.1572 -0.55022,0.37334 -1.06105,0.64842 -0.51093,0.25544 -0.88426,0.49123 -1.12,0.70737 -0.0197,0.0197 -0.0687,0.0786 -0.14737,0.17684 -0.0786,0.0983 -0.14737,0.16702 -0.20632,0.20632 -0.0589,0.0393 -0.13755,0.0589 -0.23578,0.0589 -0.72705,-1e-5 -1.96494,-0.91369 -3.71369,-2.74105 -1.72915,-1.82738 -3.11441,-3.42877 -4.15579,-4.80422 -0.96283,-1.27718 -2.07301,-2.99648 -3.33053,-5.15789 l 0,12.82105 c -2e-5,0.0589 0.01,0.31439 0.0295,0.76631 0.0197,0.45193 0.0197,0.80562 0,1.06106 -0.0197,0.25543 -0.0589,0.55999 -0.1179,0.91369 -0.0589,0.37333 -0.18666,0.64842 -0.38315,0.82526 -0.19649,0.17685 -0.45195,0.26526 -0.76632,0.26526 -0.39301,-1e-5 -0.5895,-0.30456 -0.58947,-0.91368 l -0.0295,-14.26526 c -0.21614,0.39299 -0.86458,1.32632 -1.94526,2.8 -2.90809,4.04772 -6.31722,7.11298 -10.22737,9.19579 0.15719,-0.1965 0.40279,-0.47158 0.73684,-0.82527 0.35366,-0.33403 0.55997,-0.53052 0.61895,-0.58947 l 1.53263,-1.68 c 1.59156,-1.76841 3.4091,-4.04771 5.45264,-6.83789 2.06313,-2.79017 3.09471,-4.7649 3.09473,-5.92421 -2e-5,-0.19647 -0.0982,-0.29473 -0.29473,-0.29474 l -10.37474,0 c -0.31441,10e-6 -0.47161,-0.12769 -0.47158,-0.38316 -3e-5,-0.17682 0.15719,-0.26525 0.47158,-0.26526 l 11.43579,0"
         style="font-size:12px;font-style:normal;font-variant:normal;font-weight:normal;font-stretch:normal;text-align:center;line-height:125%;letter-spacing:0px;word-spacing:0px;text-anchor:middle;opacity:0.2;fill:#000000;fill-opacity:1;stroke:none;display:inline;enable-background:new;font-family:Times New Roman;-inkscape-font-specification:Times New Roman"
         id="path3895"
         inkscape:connector-curvature="0" />
      <path
         inkscape:connector-curvature="0"
         id="path3897"
         style="font-size:12px;font-style:normal;font-variant:normal;font-weight:normal;font-stretch:normal;text-align:center;line-height:125%;letter-spacing:0px;word-spacing:0px;text-anchor:middle;opacity:0.2;fill:#000000;fill-opacity:1;stroke:none;display:inline;enable-background:new;font-family:Times New Roman;-inkscape-font-specification:Times New Roman"
         d="m 133.72629,119.05132 0,-36.21051 c -6e-5,-1.34726 0.786,-2.02092 2.35794,-2.02103 1.68406,1.1e-4 4.09811,0.50514 7.24211,1.51577 3.256,0.8984 4.88406,1.96503 4.88417,3.2 -1.1e-4,0.78612 -0.67371,1.79663 -2.02102,3.0316 -1.34738,1.12292 -2.0212,2.30189 -2.02109,3.5368 l 0,26.94737 45.30526,0 c 1.90863,1.2e-4 3.8736,-1.45954 5.8948,-4.37891 2.1332,-2.91926 3.5928,-4.37886 4.37891,-4.37897 0.89829,1.1e-4 3.14372,1.51588 6.7368,4.54737 3.59274,2.91943 5.3892,4.772 5.38949,5.55794 -2.9e-4,1.572 -1.34732,2.35794 -4.04212,2.35789 l -61.1368,0 c -1.23514,5e-5 -1.8528,0.44914 -1.85263,1.34737 -1.7e-4,2.91931 3.08755,8.64566 9.26309,17.17891 4.828,6.84919 8.70166,12.18256 11.62109,15.99999 3.03148,3.70532 6.84902,8.14046 11.45268,13.30526 4.60332,5.05269 9.37526,9.37549 14.31577,12.96846 4.94023,3.59297 10.32972,6.79303 16.1684,9.6 8.86989,4.1544 14.31555,6.5684 16.33686,7.24211 -1.1228,0.89823 -3.14411,2.13332 -6.06314,3.70526 -2.9196,1.45966 -5.05292,2.80703 -6.4,4.04211 -0.11257,0.11257 -0.39257,0.44915 -0.84212,1.01052 -0.44914,0.56171 -0.84211,0.9544 -1.17897,1.17897 -0.33657,0.22457 -0.786,0.33657 -1.34731,0.33657 -4.15457,-6e-5 -11.22823,-5.22109 -21.22109,-15.66314 -9.88086,-10.44217 -17.79663,-19.59297 -23.74737,-27.45269 -5.50189,-7.29817 -11.84577,-17.12274 -19.0316,-29.47365 l 0,73.26314 c -1.1e-4,0.33657 0.0571,1.79651 0.16857,4.37891 0.11257,2.58246 0.11257,4.60354 0,6.0632 -0.11257,1.4596 -0.33657,3.19994 -0.67371,5.22109 -0.33657,2.13325 -1.06663,3.7052 -2.18943,4.71571 -1.1228,1.01057 -2.58257,1.51577 -4.37897,1.51583 -2.24577,-6e-5 -3.36857,-1.74034 -3.3684,-5.22103 l -0.16857,-81.51582 c -1.23509,2.24565 -4.94046,7.57896 -11.11578,15.99999 -16.61765,23.12983 -36.0984,40.6456 -58.44211,52.54737 0.89823,-1.1228 2.30166,-2.69474 4.21051,-4.71582 2.02092,-1.90875 3.19983,-3.03155 3.53686,-3.3684 l 8.75789,-9.6 c 9.09463,-10.1052 19.48057,-23.12978 31.15794,-39.07366 11.78931,-15.94382 17.68406,-27.22799 17.68417,-33.85262 -1.1e-4,-1.12269 -0.56114,-1.68417 -1.68417,-1.68423 l -59.28423,0 c -1.79663,6e-5 -2.69491,-0.72966 -2.69474,-2.18948 -1.7e-4,-1.0104 0.89823,-1.51572 2.69474,-1.51578 l 65.34737,0" />
      <path
         inkscape:connector-curvature="0"
         id="path3899"
         style="font-size:12px;font-style:normal;font-variant:normal;font-weight:normal;font-stretch:normal;text-align:center;line-height:125%;letter-spacing:0px;word-spacing:0px;text-anchor:middle;opacity:0.2;fill:#000000;fill-opacity:1;stroke:none;display:inline;enable-background:new;font-family:Times New Roman;-inkscape-font-specification:Times New Roman"
         d="m 430.71579,64.282817 0,-4.526316 c -2e-5,-0.168404 0.0982,-0.252616 0.29474,-0.252632 0.21051,1.6e-5 0.51226,0.06318 0.90526,0.189474 0.407,0.112298 0.61051,0.245628 0.61053,0.4 -2e-5,0.09826 -0.0842,0.224575 -0.25264,0.378947 -0.16842,0.140369 -0.25264,0.287734 -0.25263,0.442106 l 0,3.368421 5.66316,0 c 0.23858,1e-5 0.48419,-0.182446 0.73684,-0.547369 0.26665,-0.364901 0.44911,-0.547356 0.54737,-0.547368 0.11228,1.2e-5 0.39297,0.189484 0.84211,0.568421 0.44908,0.364923 0.67365,0.596502 0.67368,0.694737 -3e-5,0.196502 -0.16842,0.294747 -0.50526,0.294737 l -7.64211,0 c -0.15438,1e-5 -0.23159,0.05616 -0.23158,0.168421 -10e-6,0.364921 0.38595,1.08071 1.1579,2.147368 0.60349,0.856148 1.0877,1.522814 1.45263,2 0.37893,0.463163 0.85612,1.017549 1.43158,1.663158 0.57542,0.631583 1.17191,1.171933 1.78947,1.621053 0.61753,0.449124 1.29121,0.849124 2.02105,1.2 1.10874,0.519296 1.78944,0.821056 2.04211,0.905266 -0.14035,0.11228 -0.39302,0.26666 -0.75789,0.46315 -0.36495,0.18246 -0.63162,0.35088 -0.8,0.50527 -0.014,0.014 -0.0491,0.0561 -0.10527,0.12631 -0.0561,0.0702 -0.10526,0.1193 -0.14737,0.14737 -0.0421,0.0281 -0.0982,0.0421 -0.16842,0.0421 -0.51931,0 -1.40352,-0.65263 -2.65263,-1.957897 -1.2351,-1.305262 -2.22458,-2.44912 -2.96842,-3.431579 -0.68774,-0.912276 -1.48072,-2.140344 -2.37895,-3.684211 l 0,9.157897 c -10e-6,0.0421 0.007,0.22456 0.0211,0.54737 0.014,0.3228 0.014,0.57543 0,0.75789 -0.014,0.18246 -0.0421,0.4 -0.0842,0.65263 -0.0421,0.26667 -0.13334,0.46316 -0.27369,0.58948 -0.14035,0.12631 -0.32282,0.18947 -0.54736,0.18947 -0.28072,0 -0.42107,-0.21755 -0.42106,-0.65263 l -0.0211,-10.189475 c -0.15439,0.280709 -0.61756,0.947373 -1.38948,2 -2.07721,2.89123 -4.5123,5.080705 -7.30526,6.568425 0.11228,-0.14035 0.2877,-0.33685 0.52632,-0.58948 0.25261,-0.23859 0.39998,-0.37895 0.4421,-0.42105 l 1.09474,-1.2 c 1.13682,-1.263157 2.43507,-2.891225 3.89473,-4.884211 1.47367,-1.992975 2.21051,-3.4035 2.21053,-4.231579 -2e-5,-0.140333 -0.0702,-0.210516 -0.21053,-0.210526 l -7.41052,0 c -0.22458,1e-5 -0.33686,-0.09121 -0.33684,-0.273685 -2e-5,-0.126298 0.11228,-0.189463 0.33684,-0.189473 l 8.16842,0" />
      <path
         d="m 427.10108,109.70702 0,-3.16841 c 0,-0.11789 0.0688,-0.17684 0.20633,-0.17685 0.14735,1e-5 0.35858,0.0442 0.63368,0.13263 0.2849,0.0786 0.42736,0.17194 0.42738,0.28 -2e-5,0.0688 -0.059,0.15721 -0.17686,0.26527 -0.11789,0.0982 -0.17685,0.20141 -0.17684,0.30947 l 0,2.35789 3.96421,0 c 0.167,1e-5 0.33893,-0.12771 0.51579,-0.38315 0.18665,-0.25544 0.31438,-0.38315 0.38315,-0.38316 0.0786,1e-5 0.27508,0.13264 0.58947,0.39789 0.31437,0.25545 0.47155,0.41755 0.47159,0.48632 -3e-5,0.13755 -0.11791,0.20632 -0.35368,0.20632 l -5.34949,0 c -0.10806,0 -0.1621,0.0393 -0.1621,0.11788 0,0.25545 0.27017,0.7565 0.81053,1.50317 0.42244,0.5993 0.76139,1.06596 1.01684,1.39999 0.26525,0.32422 0.59928,0.71229 1.00211,1.16421 0.40279,0.44211 0.82033,0.82035 1.25262,1.13474 0.43228,0.31438 0.90385,0.59439 1.41473,0.84 0.77612,0.3635 1.25261,0.57473 1.42948,0.63368 -0.0982,0.0786 -0.27512,0.18666 -0.53052,0.32421 -0.25547,0.12772 -0.44214,0.24561 -0.56,0.35369 -0.01,0.01 -0.0344,0.0393 -0.0737,0.0884 -0.0393,0.0492 -0.0737,0.0835 -0.10316,0.10316 -0.0295,0.0197 -0.0688,0.0295 -0.1179,0.0295 -0.36351,0 -0.98246,-0.45684 -1.85683,-1.37053 -0.86457,-0.91368 -1.55721,-1.71438 -2.0779,-2.4021 -0.48141,-0.63859 -1.0365,-1.49824 -1.66526,-2.57895 l 0,6.41053 c -10e-6,0.0295 0.005,0.15719 0.0148,0.38315 0.01,0.22596 0.01,0.40281 0,0.53053 -0.01,0.12771 -0.0295,0.28 -0.059,0.45684 -0.0295,0.18667 -0.0933,0.32421 -0.19158,0.41263 -0.0982,0.0884 -0.22597,0.13263 -0.38315,0.13263 -0.19651,0 -0.29475,-0.15228 -0.29474,-0.45684 l -0.0148,-7.13262 c -0.10807,0.19649 -0.43229,0.66315 -0.97263,1.4 -1.45405,2.02385 -3.15861,3.55648 -5.11368,4.59789 0.0786,-0.0982 0.20139,-0.2358 0.36843,-0.41264 0.17683,-0.16701 0.27999,-0.26527 0.30947,-0.29474 l 0.76631,-0.83999 c 0.79577,-0.88421 1.70454,-2.02386 2.72631,-3.41895 1.03157,-1.39508 1.54735,-2.38245 1.54737,-2.9621 -2e-5,-0.0982 -0.0492,-0.14736 -0.14738,-0.14737 l -5.18735,0 c -0.15721,1e-5 -0.2358,-0.0639 -0.23579,-0.19158 -10e-6,-0.0884 0.0786,-0.13262 0.23579,-0.13263 l 5.71788,0"
         style="font-size:12px;font-style:normal;font-variant:normal;font-weight:normal;font-stretch:normal;text-align:center;line-height:125%;letter-spacing:0px;word-spacing:0px;text-anchor:middle;opacity:0.2;fill:#000000;fill-opacity:1;stroke:none;display:inline;enable-background:new;font-family:Times New Roman;-inkscape-font-specification:Times New Roman"
         id="path3901"
         inkscape:connector-curvature="0" />
      <path
         inkscape:connector-curvature="0"
         id="path3903"
         style="font-size:12px;font-style:normal;font-variant:normal;font-weight:normal;font-stretch:normal;text-align:center;line-height:125%;letter-spacing:0px;word-spacing:0px;text-anchor:middle;opacity:0.2;fill:#000000;fill-opacity:1;stroke:none;display:inline;enable-background:new;font-family:Times New Roman;-inkscape-font-specification:Times New Roman"
         d="m 423.35788,146.65649 0,-2.26314 c 0,-0.0842 0.0491,-0.12631 0.14738,-0.12632 0.10525,1e-5 0.25613,0.0316 0.45263,0.0947 0.20349,0.0561 0.30525,0.12281 0.30527,0.19999 -2e-5,0.0491 -0.0421,0.1123 -0.12633,0.18948 -0.0842,0.0701 -0.12632,0.14387 -0.12632,0.22105 l 0,1.6842 2.83157,0 c 0.11929,1e-5 0.24209,-0.0912 0.36842,-0.27367 0.13332,-0.18246 0.22456,-0.27368 0.27368,-0.27369 0.0561,1e-5 0.19648,0.0947 0.42105,0.28421 0.22455,0.18246 0.33682,0.29825 0.33685,0.34737 -2e-5,0.0983 -0.0842,0.14737 -0.25263,0.14737 l -3.82105,0 c -0.0772,0 -0.11579,0.0281 -0.11579,0.0842 0,0.18246 0.19298,0.54034 0.57895,1.07369 0.30174,0.42806 0.54385,0.76139 0.72631,0.99999 0.18947,0.23158 0.42806,0.50876 0.71579,0.83156 0.28771,0.31579 0.58595,0.58596 0.89473,0.81053 0.30877,0.22455 0.6456,0.42457 1.01052,0.59999 0.55437,0.25965 0.89471,0.41052 1.02105,0.45263 -0.0701,0.0561 -0.19651,0.13333 -0.37894,0.23158 -0.18248,0.0912 -0.31581,0.17544 -0.4,0.25264 -0.007,0.007 -0.0246,0.0281 -0.0526,0.0632 -0.0281,0.0351 -0.0526,0.0596 -0.0737,0.0737 -0.0211,0.0141 -0.0491,0.0211 -0.0842,0.0211 -0.25965,0 -0.70176,-0.32631 -1.3263,-0.97893 -0.61755,-0.65263 -1.11229,-1.22456 -1.48421,-1.71578 -0.34387,-0.45614 -0.74036,-1.07017 -1.18947,-1.8421 l 0,4.57893 c -10e-6,0.0211 0.004,0.11228 0.0106,0.27368 0.007,0.1614 0.007,0.28772 0,0.37895 -0.007,0.0912 -0.0211,0.2 -0.0421,0.32631 -0.0211,0.13334 -0.0666,0.23158 -0.13684,0.29473 -0.0702,0.0632 -0.16141,0.0947 -0.27368,0.0947 -0.14037,0 -0.21054,-0.10877 -0.21053,-0.32632 l -0.0106,-5.0947 c -0.0772,0.14035 -0.30878,0.47367 -0.69473,0.99999 -1.03861,1.4456 -2.25615,2.54033 -3.65262,3.28419 0.0561,-0.0701 0.14385,-0.16843 0.26316,-0.29473 0.12631,-0.11931 0.2,-0.18948 0.22105,-0.21053 l 0.54736,-0.59999 c 0.56841,-0.63159 1.21753,-1.44561 1.94736,-2.4421 0.73684,-0.99648 1.10525,-1.70174 1.10526,-2.11578 -10e-6,-0.0701 -0.0351,-0.10526 -0.10527,-0.10526 l -3.70524,0 c -0.11229,0 -0.16842,-0.0456 -0.16842,-0.13684 0,-0.0632 0.0562,-0.0947 0.16842,-0.0947 l 4.08419,0" />
      <path
         inkscape:connector-curvature="0"
         id="path3854"
         style="font-size:12px;font-style:normal;font-variant:normal;font-weight:normal;font-stretch:normal;text-align:center;line-height:125%;letter-spacing:0px;word-spacing:0px;text-anchor:middle;fill:#ffffff;fill-opacity:1;stroke:none;display:inline;enable-background:new;font-family:Times New Roman;-inkscape-font-specification:Times New Roman"
         d="m 332.14737,61.787897 0,-13.578947 c -5e-5,-0.505211 0.29474,-0.757848 0.88421,-0.757895 0.63153,4.7e-5 1.53679,0.189526 2.71579,0.568421 1.221,0.336895 1.83152,0.736884 1.83158,1.2 -6e-5,0.294789 -0.25263,0.673726 -0.7579,1.136842 -0.50526,0.421105 -0.75794,0.8632 -0.75789,1.326316 l 0,10.105263 16.98947,0 c 0.71574,3.2e-5 1.45258,-0.547336 2.21053,-1.642105 0.79995,-1.094705 1.34731,-1.642068 1.6421,-1.642105 0.33685,3.7e-5 1.1789,0.568452 2.52632,1.705263 1.34726,1.094768 2.02095,1.789505 2.02105,2.084211 -10e-5,0.589505 -0.50526,0.884242 -1.51579,0.88421 l -22.92631,0 c -0.46316,3.2e-5 -0.69479,0.168474 -0.69474,0.505263 -5e-5,1.094763 1.15784,3.242132 3.47368,6.442105 1.81048,2.568443 3.26311,4.568443 4.3579,6 1.13679,1.38949 2.56837,3.052648 4.29474,4.989474 1.72626,1.894748 3.51573,3.5158 5.36842,4.863158 1.85258,1.347374 3.87363,2.547374 6.06315,3.6 3.32621,1.557895 5.36832,2.463158 6.12632,2.71579 -0.42105,0.336842 -1.17905,0.8 -2.27368,1.389473 -1.09485,0.547369 -1.89485,1.052632 -2.4,1.51579 -0.0421,0.0421 -0.14737,0.168421 -0.31579,0.378947 -0.16842,0.210526 -0.31579,0.357895 -0.44211,0.442105 -0.12631,0.08421 -0.29474,0.126316 -0.50526,0.126316 -1.55795,-5e-6 -4.21058,-1.957895 -7.9579,-5.873684 -3.70531,-3.915784 -6.67373,-7.347358 -8.90526,-10.294737 -2.06321,-2.736826 -4.44216,-6.421032 -7.13684,-11.052632 l 0,27.473685 c -5e-5,0.126315 0.0211,0.673679 0.0632,1.642105 0.0421,0.968416 0.0421,1.72631 0,2.273681 -0.0421,0.54737 -0.12632,1.19999 -0.25264,1.9579 -0.12631,0.79999 -0.4,1.38947 -0.82105,1.76842 -0.42105,0.37895 -0.96847,0.56841 -1.6421,0.56842 -0.84216,-10e-6 -1.26321,-0.65264 -1.26316,-1.95789 l -0.0632,-30.568426 c -0.46316,0.842127 -1.85268,2.842121 -4.16842,6 -6.23163,8.67369 -13.5369,15.242105 -21.91579,19.705263 0.33684,-0.421052 0.86311,-1.010531 1.57895,-1.768421 0.75784,-0.715789 1.19994,-1.136842 1.32631,-1.263158 l 3.28421,-3.6 c 3.41048,-3.789468 7.30521,-8.673673 11.68421,-14.652631 4.421,-5.978926 6.63153,-10.2105 6.63158,-12.694737 -5e-5,-0.421 -0.21052,-0.631547 -0.63158,-0.631579 l -22.23157,0 c -0.67374,3.2e-5 -1.01058,-0.273632 -1.01053,-0.821053 -5e-5,-0.378894 0.33684,-0.568389 1.01053,-0.568421 l 24.50526,0" />
      <path
         d="m 317.43157,162.02695 0,-9.05263 c -2e-5,-0.33681 0.19649,-0.50523 0.58948,-0.50526 0.42102,3e-5 1.02453,0.12635 1.81053,0.37895 0.814,0.22459 1.22101,0.49125 1.22105,0.8 -4e-5,0.19652 -0.16843,0.44916 -0.50526,0.7579 -0.33684,0.28074 -0.5053,0.57546 -0.50527,0.8842 l 0,6.73684 11.32631,0 c 0.47716,3e-5 0.96839,-0.36489 1.47369,-1.09472 0.5333,-0.72981 0.8982,-1.09471 1.09473,-1.09475 0.22457,3e-5 0.78593,0.37898 1.68421,1.13685 0.89818,0.72985 1.3473,1.193 1.34737,1.38947 -7e-5,0.393 -0.33684,0.5895 -1.01053,0.58948 l -15.2842,0 c -0.30878,2e-5 -0.4632,0.11232 -0.46316,0.33683 -4e-5,0.72984 0.77189,2.16142 2.31578,4.29474 1.20699,1.71229 2.17541,3.04563 2.90527,4 0.75786,0.92632 1.71225,2.0351 2.86316,3.32631 1.15084,1.26317 2.34382,2.34387 3.57895,3.24211 1.23505,0.89825 2.58242,1.69825 4.0421,2.4 2.21747,1.0386 3.57888,1.6421 4.08421,1.81053 -0.2807,0.22456 -0.78603,0.53333 -1.51579,0.92631 -0.7299,0.36491 -1.26323,0.70176 -1.6,1.01053 -0.0281,0.0281 -0.0982,0.11228 -0.21052,0.25263 -0.11228,0.14035 -0.21053,0.2386 -0.29474,0.29474 -0.0842,0.0561 -0.1965,0.0842 -0.33684,0.0842 -1.03864,-1e-5 -2.80705,-1.30527 -5.30527,-3.91579 -2.47021,-2.61053 -4.44915,-4.89823 -5.93684,-6.86315 -1.37547,-1.82455 -2.96144,-4.28069 -4.75789,-7.36841 l 0,18.31578 c -4e-5,0.0842 0.0141,0.44912 0.0421,1.09473 0.0281,0.64561 0.0281,1.15088 0,1.51579 -0.0281,0.36491 -0.0842,0.79999 -0.16843,1.30527 -0.0842,0.53332 -0.26666,0.92631 -0.54736,1.17895 -0.2807,0.25264 -0.64565,0.37894 -1.09474,0.37895 -0.56144,-1e-5 -0.84214,-0.43509 -0.8421,-1.30526 l -0.0421,-20.37895 c -0.30877,0.56141 -1.23512,1.89475 -2.77894,4 -4.15442,5.78245 -9.0246,10.16139 -14.61053,13.13684 0.22456,-0.2807 0.57541,-0.67369 1.05263,-1.17895 0.50523,-0.47719 0.79996,-0.75789 0.88421,-0.8421 l 2.18947,-2.4 c 2.27366,-2.52631 4.87014,-5.78245 7.78948,-9.76842 2.94734,-3.98595 4.42102,-6.80701 4.42105,-8.46317 -3e-5,-0.28067 -0.14035,-0.42103 -0.42105,-0.42105 l -14.82105,0 c -0.44916,2e-5 -0.67372,-0.18242 -0.67369,-0.54737 -3e-5,-0.2526 0.22456,-0.37893 0.67369,-0.37895 l 16.33684,0"
         style="font-size:12px;font-style:normal;font-variant:normal;font-weight:normal;font-stretch:normal;text-align:center;line-height:125%;letter-spacing:0px;word-spacing:0px;text-anchor:middle;fill:#ffffff;fill-opacity:1;stroke:none;display:inline;enable-background:new;font-family:Times New Roman;-inkscape-font-specification:Times New Roman"
         id="path3857"
         inkscape:connector-curvature="0" />
      <path
         inkscape:connector-curvature="0"
         id="path3859"
         style="font-size:12px;font-style:normal;font-variant:normal;font-weight:normal;font-stretch:normal;text-align:center;line-height:125%;letter-spacing:0px;word-spacing:0px;text-anchor:middle;fill:#ffffff;fill-opacity:1;stroke:none;display:inline;enable-background:new;font-family:Times New Roman;-inkscape-font-specification:Times New Roman"
         d="m 310.2021,237.38369 0,-6.33684 c -10e-6,-0.23577 0.13755,-0.35366 0.41264,-0.35368 0.29471,2e-5 0.71717,0.0884 1.26737,0.26526 0.5698,0.15722 0.85471,0.34388 0.85473,0.56 -2e-5,0.13757 -0.1179,0.31441 -0.35368,0.53053 -0.23579,0.19651 -0.35371,0.40283 -0.35369,0.61894 l 0,4.71579 7.92842,0 c 0.33401,3e-5 0.67788,-0.25541 1.03159,-0.76631 0.37331,-0.51087 0.62874,-0.7663 0.76631,-0.76632 0.1572,2e-5 0.55015,0.26528 1.17894,0.79579 0.62873,0.5109 0.94311,0.83511 0.94316,0.97265 -5e-5,0.2751 -0.23578,0.41264 -0.70737,0.41263 l -10.69894,0 c -0.21615,1e-5 -0.32424,0.0786 -0.32421,0.23579 -3e-5,0.51088 0.54032,1.51299 1.62104,3.00631 0.8449,1.19861 1.52279,2.13195 2.03369,2.80001 0.53051,0.64842 1.19858,1.42457 2.00422,2.32841 0.80558,0.88422 1.64067,1.64072 2.50526,2.26948 0.86454,0.62877 1.8077,1.18878 2.82947,1.68 1.55223,0.72703 2.50522,1.14947 2.85895,1.26737 -0.19649,0.1572 -0.55022,0.37333 -1.06105,0.64842 -0.51093,0.25544 -0.88426,0.49123 -1.12,0.70737 -0.0197,0.0197 -0.0687,0.0786 -0.14737,0.17684 -0.0786,0.0983 -0.14737,0.16702 -0.20632,0.20632 -0.0589,0.0393 -0.13755,0.0589 -0.23578,0.0589 -0.72705,-1e-5 -1.96494,-0.91369 -3.71369,-2.74105 -1.72915,-1.82738 -3.11441,-3.42877 -4.15579,-4.80422 -0.96283,-1.27718 -2.07301,-2.99648 -3.33053,-5.15789 l 0,12.82105 c -2e-5,0.0589 0.01,0.31439 0.0295,0.76631 0.0197,0.45193 0.0197,0.80562 0,1.06106 -0.0197,0.25543 -0.0589,0.55999 -0.1179,0.91369 -0.0589,0.37333 -0.18666,0.64842 -0.38315,0.82526 -0.19649,0.17685 -0.45195,0.26526 -0.76632,0.26526 -0.39301,-1e-5 -0.5895,-0.30456 -0.58947,-0.91368 l -0.0295,-14.26526 c -0.21614,0.39299 -0.86458,1.32632 -1.94526,2.8 -2.90809,4.04772 -6.31722,7.11298 -10.22737,9.19579 0.15719,-0.1965 0.40279,-0.47158 0.73684,-0.82527 0.35366,-0.33403 0.55997,-0.53052 0.61895,-0.58947 l 1.53263,-1.68 c 1.59156,-1.76841 3.4091,-4.04771 5.45264,-6.83789 2.06313,-2.79017 3.09471,-4.7649 3.09473,-5.92421 -2e-5,-0.19647 -0.0982,-0.29473 -0.29473,-0.29474 l -10.37474,0 c -0.31441,1e-5 -0.47161,-0.12769 -0.47158,-0.38316 -3e-5,-0.17682 0.15719,-0.26525 0.47158,-0.26526 l 11.43579,0" />
      <path
         d="m 133.72629,118.05114 0,-36.21051 c -6e-5,-1.34726 0.786,-2.02092 2.35794,-2.02103 1.68406,1.1e-4 4.09811,0.50514 7.24211,1.51577 3.256,0.8984 4.88406,1.96503 4.88417,3.2 -1.1e-4,0.78612 -0.67371,1.79663 -2.02102,3.0316 -1.34738,1.12292 -2.0212,2.30189 -2.02109,3.5368 l 0,26.94737 45.30526,0 c 1.90863,1.2e-4 3.8736,-1.45954 5.8948,-4.37891 2.1332,-2.91926 3.5928,-4.37886 4.37891,-4.37897 0.89829,1.1e-4 3.14372,1.51588 6.7368,4.54737 3.59274,2.91943 5.3892,4.772 5.38949,5.55794 -2.9e-4,1.572 -1.34732,2.35794 -4.04212,2.35789 l -61.1368,0 c -1.23514,5e-5 -1.8528,0.44914 -1.85263,1.34737 -1.7e-4,2.91931 3.08755,8.64566 9.26309,17.17891 4.828,6.8492 8.70166,12.18256 11.62109,15.99999 3.03148,3.70532 6.84902,8.14046 11.45268,13.30526 4.60332,5.05269 9.37526,9.37549 14.31577,12.96846 4.94023,3.59297 10.32972,6.79303 16.1684,9.6 8.86989,4.1544 14.31555,6.5684 16.33686,7.24211 -1.1228,0.89823 -3.14411,2.13332 -6.06314,3.70526 -2.9196,1.45966 -5.05292,2.80703 -6.4,4.04211 -0.11257,0.11257 -0.39257,0.44915 -0.84212,1.01052 -0.44914,0.56171 -0.84211,0.9544 -1.17897,1.17897 -0.33657,0.22457 -0.786,0.33657 -1.34731,0.33657 -4.15457,-6e-5 -11.22823,-5.22109 -21.22109,-15.66314 -9.88086,-10.44217 -17.79663,-19.59297 -23.74737,-27.45269 -5.50189,-7.29817 -11.84577,-17.12274 -19.0316,-29.47365 l 0,73.26314 c -1.1e-4,0.33657 0.0571,1.79651 0.16857,4.37891 0.11257,2.58246 0.11257,4.60354 0,6.0632 -0.11257,1.4596 -0.33657,3.19994 -0.67371,5.22109 -0.33657,2.13325 -1.06663,3.7052 -2.18943,4.71571 -1.1228,1.01057 -2.58257,1.51577 -4.37897,1.51583 -2.24577,-6e-5 -3.36857,-1.74034 -3.3684,-5.22103 l -0.16857,-81.51582 c -1.23509,2.24565 -4.94046,7.57896 -11.11578,15.99999 -16.61765,23.12983 -36.0984,40.6456 -58.44211,52.54737 0.89823,-1.1228 2.30166,-2.69474 4.21051,-4.71582 2.02092,-1.90875 3.19983,-3.03155 3.53686,-3.3684 l 8.75789,-9.6 c 9.09463,-10.1052 19.48057,-23.12978 31.15794,-39.07366 11.78931,-15.94382 17.68406,-27.22799 17.68417,-33.85262 -1.1e-4,-1.12269 -0.56114,-1.68417 -1.68417,-1.68423 l -59.28423,0 c -1.79663,6e-5 -2.69491,-0.72966 -2.69474,-2.18948 -1.7e-4,-1.0104 0.89823,-1.51572 2.69474,-1.51578 l 65.34737,0"
         style="font-size:12px;font-style:normal;font-variant:normal;font-weight:normal;font-stretch:normal;text-align:center;line-height:125%;letter-spacing:0px;word-spacing:0px;text-anchor:middle;fill:#ffffff;fill-opacity:1;stroke:none;display:inline;enable-background:new;font-family:Times New Roman;-inkscape-font-specification:Times New Roman"
         id="path3861"
         inkscape:connector-curvature="0" />
      <path
         d="m 430.71579,63.282637 0,-4.526316 c -2e-5,-0.168404 0.0982,-0.252616 0.29474,-0.252632 0.21051,1.6e-5 0.51226,0.06318 0.90526,0.189474 0.407,0.112298 0.61051,0.245628 0.61053,0.4 -2e-5,0.09826 -0.0842,0.224575 -0.25264,0.378947 -0.16842,0.140369 -0.25264,0.287734 -0.25263,0.442106 l 0,3.368421 5.66316,0 c 0.23858,10e-6 0.48419,-0.182446 0.73684,-0.547369 0.26665,-0.364901 0.44911,-0.547356 0.54737,-0.547368 0.11228,1.2e-5 0.39297,0.189484 0.84211,0.568421 0.44908,0.364923 0.67365,0.596502 0.67368,0.694737 -3e-5,0.196502 -0.16842,0.294747 -0.50526,0.294737 l -7.64211,0 c -0.15438,10e-6 -0.23159,0.05616 -0.23158,0.168421 -10e-6,0.364921 0.38595,1.08071 1.1579,2.147368 0.60349,0.856148 1.0877,1.522814 1.45263,2 0.37893,0.463163 0.85612,1.017549 1.43158,1.663158 0.57542,0.631583 1.17191,1.171933 1.78947,1.621053 0.61753,0.449124 1.29121,0.849124 2.02105,1.2 1.10874,0.519296 1.78944,0.821056 2.04211,0.905266 -0.14035,0.11228 -0.39302,0.26666 -0.75789,0.46315 -0.36495,0.18246 -0.63162,0.35088 -0.8,0.50527 -0.014,0.014 -0.0491,0.0561 -0.10527,0.12631 -0.0561,0.0702 -0.10526,0.1193 -0.14737,0.14737 -0.0421,0.0281 -0.0982,0.0421 -0.16842,0.0421 -0.51931,0 -1.40352,-0.65263 -2.65263,-1.957897 -1.2351,-1.305262 -2.22458,-2.44912 -2.96842,-3.431579 -0.68774,-0.912276 -1.48072,-2.140344 -2.37895,-3.684211 l 0,9.157897 c -10e-6,0.0421 0.007,0.22456 0.0211,0.54737 0.014,0.3228 0.014,0.57543 0,0.75789 -0.014,0.18246 -0.0421,0.4 -0.0842,0.65263 -0.0421,0.26667 -0.13334,0.46316 -0.27369,0.58948 -0.14035,0.12631 -0.32282,0.18947 -0.54736,0.18947 -0.28072,0 -0.42107,-0.21755 -0.42106,-0.65263 l -0.0211,-10.189475 c -0.15439,0.280709 -0.61756,0.947373 -1.38948,2 -2.07721,2.89123 -4.5123,5.080705 -7.30526,6.568425 0.11228,-0.14035 0.2877,-0.33685 0.52632,-0.58948 0.25261,-0.23859 0.39998,-0.37895 0.4421,-0.42105 l 1.09474,-1.2 c 1.13682,-1.263157 2.43507,-2.891225 3.89473,-4.884211 1.47367,-1.992975 2.21051,-3.4035 2.21053,-4.231579 -2e-5,-0.140333 -0.0702,-0.210516 -0.21053,-0.210526 l -7.41052,0 c -0.22458,1e-5 -0.33686,-0.09121 -0.33684,-0.273685 -2e-5,-0.126298 0.11228,-0.189463 0.33684,-0.189473 l 8.16842,0"
         style="font-size:12px;font-style:normal;font-variant:normal;font-weight:normal;font-stretch:normal;text-align:center;line-height:125%;letter-spacing:0px;word-spacing:0px;text-anchor:middle;fill:#ffffff;fill-opacity:1;stroke:none;display:inline;enable-background:new;font-family:Times New Roman;-inkscape-font-specification:Times New Roman"
         id="path3863"
         inkscape:connector-curvature="0" />
      <path
         inkscape:connector-curvature="0"
         id="path3883"
         style="font-size:12px;font-style:normal;font-variant:normal;font-weight:normal;font-stretch:normal;text-align:center;line-height:125%;letter-spacing:0px;word-spacing:0px;text-anchor:middle;fill:#ffffff;fill-opacity:1;stroke:none;display:inline;enable-background:new;font-family:Times New Roman;-inkscape-font-specification:Times New Roman"
         d="m 427.10108,108.70684 0,-3.16841 c 0,-0.11789 0.0688,-0.17684 0.20633,-0.17685 0.14735,1e-5 0.35858,0.0442 0.63368,0.13263 0.2849,0.0786 0.42736,0.17194 0.42738,0.28 -2e-5,0.0688 -0.059,0.15721 -0.17686,0.26527 -0.11789,0.0982 -0.17685,0.20141 -0.17684,0.30947 l 0,2.35789 3.96421,0 c 0.167,1e-5 0.33893,-0.12771 0.51579,-0.38315 0.18665,-0.25544 0.31438,-0.38315 0.38315,-0.38316 0.0786,1e-5 0.27508,0.13264 0.58947,0.39789 0.31437,0.25545 0.47155,0.41755 0.47159,0.48632 -3e-5,0.13755 -0.11791,0.20632 -0.35368,0.20632 l -5.34949,0 c -0.10806,0 -0.1621,0.0393 -0.1621,0.11788 0,0.25545 0.27017,0.7565 0.81053,1.50317 0.42244,0.5993 0.76139,1.06596 1.01684,1.39999 0.26525,0.32422 0.59928,0.71229 1.00211,1.16421 0.40279,0.44211 0.82033,0.82035 1.25262,1.13474 0.43228,0.31438 0.90385,0.59439 1.41473,0.84 0.77612,0.3635 1.25261,0.57473 1.42948,0.63368 -0.0982,0.0786 -0.27512,0.18666 -0.53052,0.32421 -0.25547,0.12772 -0.44214,0.24561 -0.56,0.35369 -0.01,0.01 -0.0344,0.0393 -0.0737,0.0884 -0.0393,0.0492 -0.0737,0.0835 -0.10316,0.10316 -0.0295,0.0197 -0.0688,0.0295 -0.1179,0.0295 -0.36351,0 -0.98246,-0.45684 -1.85683,-1.37053 -0.86457,-0.91368 -1.55721,-1.71438 -2.0779,-2.4021 -0.48141,-0.63859 -1.0365,-1.49824 -1.66526,-2.57895 l 0,6.41053 c -10e-6,0.0295 0.005,0.15719 0.0148,0.38315 0.01,0.22596 0.01,0.40281 0,0.53053 -0.01,0.12771 -0.0295,0.28 -0.059,0.45684 -0.0295,0.18667 -0.0933,0.32421 -0.19158,0.41263 -0.0982,0.0884 -0.22597,0.13263 -0.38315,0.13263 -0.19651,0 -0.29475,-0.15228 -0.29474,-0.45684 l -0.0148,-7.13262 c -0.10807,0.19649 -0.43229,0.66315 -0.97263,1.4 -1.45405,2.02385 -3.15861,3.55648 -5.11368,4.59789 0.0786,-0.0982 0.20139,-0.2358 0.36843,-0.41264 0.17683,-0.16701 0.27999,-0.26527 0.30947,-0.29474 l 0.76631,-0.83999 c 0.79577,-0.88421 1.70454,-2.02386 2.72631,-3.41895 1.03157,-1.39508 1.54735,-2.38245 1.54737,-2.9621 -2e-5,-0.0982 -0.0492,-0.14736 -0.14738,-0.14737 l -5.18735,0 c -0.15721,1e-5 -0.2358,-0.0639 -0.23579,-0.19158 -10e-6,-0.0884 0.0786,-0.13262 0.23579,-0.13263 l 5.71788,0" />
      <path
         d="m 423.35788,145.65631 0,-2.26314 c 0,-0.0842 0.0491,-0.12631 0.14738,-0.12632 0.10525,1e-5 0.25613,0.0316 0.45263,0.0947 0.20349,0.0561 0.30525,0.12281 0.30527,0.19999 -2e-5,0.0491 -0.0421,0.1123 -0.12633,0.18948 -0.0842,0.0701 -0.12632,0.14387 -0.12632,0.22105 l 0,1.6842 2.83157,0 c 0.11929,1e-5 0.24209,-0.0912 0.36842,-0.27367 0.13332,-0.18246 0.22456,-0.27368 0.27368,-0.27369 0.0561,1e-5 0.19648,0.0947 0.42105,0.28421 0.22455,0.18246 0.33682,0.29825 0.33685,0.34737 -2e-5,0.0983 -0.0842,0.14737 -0.25263,0.14737 l -3.82105,0 c -0.0772,0 -0.11579,0.0281 -0.11579,0.0842 0,0.18246 0.19298,0.54035 0.57895,1.07369 0.30174,0.42806 0.54385,0.76139 0.72631,0.99998 0.18947,0.23159 0.42806,0.50877 0.71579,0.83157 0.28771,0.31579 0.58595,0.58596 0.89473,0.81053 0.30877,0.22455 0.6456,0.42457 1.01052,0.59999 0.55437,0.25965 0.89471,0.41052 1.02105,0.45263 -0.0701,0.0561 -0.19651,0.13333 -0.37894,0.23158 -0.18248,0.0912 -0.31581,0.17544 -0.4,0.25264 -0.007,0.007 -0.0246,0.0281 -0.0526,0.0632 -0.0281,0.0351 -0.0526,0.0596 -0.0737,0.0737 -0.0211,0.0141 -0.0491,0.0211 -0.0842,0.0211 -0.25965,0 -0.70176,-0.32631 -1.3263,-0.97893 -0.61755,-0.65263 -1.11229,-1.22456 -1.48421,-1.71578 -0.34387,-0.45614 -0.74036,-1.07017 -1.18947,-1.8421 l 0,4.57893 c -10e-6,0.0211 0.004,0.11228 0.0106,0.27368 0.007,0.1614 0.007,0.28772 0,0.37895 -0.007,0.0912 -0.0211,0.2 -0.0421,0.32631 -0.0211,0.13334 -0.0666,0.23158 -0.13684,0.29473 -0.0702,0.0632 -0.16141,0.0947 -0.27368,0.0947 -0.14037,0 -0.21054,-0.10877 -0.21053,-0.32632 l -0.0106,-5.0947 c -0.0772,0.14035 -0.30878,0.47367 -0.69473,0.99999 -1.03861,1.4456 -2.25615,2.54033 -3.65262,3.28419 0.0561,-0.0701 0.14385,-0.16843 0.26316,-0.29473 0.12631,-0.11931 0.2,-0.18948 0.22105,-0.21053 l 0.54736,-0.59999 c 0.56841,-0.63159 1.21753,-1.44561 1.94736,-2.4421 0.73684,-0.99648 1.10525,-1.70174 1.10526,-2.11578 -10e-6,-0.0701 -0.0351,-0.10526 -0.10527,-0.10526 l -3.70524,0 c -0.11229,0 -0.16842,-0.0456 -0.16842,-0.13684 0,-0.0632 0.0562,-0.0947 0.16842,-0.0947 l 4.08419,0"
         style="font-size:12px;font-style:normal;font-variant:normal;font-weight:normal;font-stretch:normal;text-align:center;line-height:125%;letter-spacing:0px;word-spacing:0px;text-anchor:middle;fill:#ffffff;fill-opacity:1;stroke:none;display:inline;enable-background:new;font-family:Times New Roman;-inkscape-font-specification:Times New Roman"
         id="path3885"
         inkscape:connector-curvature="0" />
    </g>
    <g
       inkscape:groupmode="layer"
       id="layer5"
       inkscape:label="Highlights"
       style="display:inline"
       sodipodi:insensitive="true">
      <path
         style="opacity:0.12999998;color:#bebebe;fill:#ffffff;fill-opacity:1;fill-rule:nonzero;stroke:none;stroke-width:0;marker:none;visibility:visible;display:inline;overflow:visible;enable-background:accumulate"
         d="M 84,47 C 56.836703,47 35,68.836703 35,96 l 0,1 C 35,69.836703 56.836703,48 84,48 l 120,0 c 27.1633,0 49,21.836703 49,49 l 0,-1 C 253,68.836703 231.1633,47 204,47 L 84,47 z"
         id="rect3894"
         inkscape:connector-curvature="0" />
      <path
         style="opacity:0.12999998;color:#bebebe;fill:#ffffff;fill-opacity:1;fill-rule:nonzero;stroke:none;stroke-width:0;marker:none;visibility:visible;display:inline;overflow:visible;enable-background:accumulate"
         d="m 419,141 c -1.1253,0 -2,0.8747 -2,2 l 0,1 c 0,-1.1253 0.8747,-2 2,-2 l 10,0 c 1.1253,0 2,0.8747 2,2 l 0,-1 c 0,-1.1253 -0.8747,-2 -2,-2 l -10,0 z"
         id="rect3896"
         inkscape:connector-curvature="0" />
      <path
         style="opacity:0.12999998;color:#bebebe;fill:#ffffff;fill-opacity:1;fill-rule:nonzero;stroke:none;stroke-width:0;marker:none;visibility:visible;display:inline;overflow:visible;enable-background:accumulate"
         d="m 422,102 c -2.2333,0 -4,1.7667 -4,4 l 0,1 c 0,-2.2333 1.7667,-4 4,-4 l 12,0 c 2.2333,0 4,1.7667 4,4 l 0,-1 c 0,-2.2333 -1.7667,-4 -4,-4 l -12,0 z"
         id="rect3898"
         inkscape:connector-curvature="0" />
      <path
         style="opacity:0.12999998;color:#bebebe;fill:#ffffff;fill-opacity:1;fill-rule:nonzero;stroke:none;stroke-width:0;marker:none;visibility:visible;display:inline;overflow:visible;enable-background:accumulate"
         d="m 424,54 c -3.3413,0 -6,2.658703 -6,6 l 0,1 c 0,-3.341297 2.6587,-6 6,-6 l 16,0 c 3.3413,0 6,2.658703 6,6 l 0,-1 c 0,-3.341297 -2.6587,-6 -6,-6 l -16,0 z"
         id="rect3900"
         inkscape:connector-curvature="0" />
      <path
         style="opacity:0.12999998;color:#bebebe;fill:#ffffff;fill-opacity:1;fill-rule:nonzero;stroke:none;stroke-width:0;marker:none;visibility:visible;display:inline;overflow:visible;enable-background:accumulate"
         d="m 300,224 c -4.4493,0 -8,3.5507 -8,8 l 0,1 c 0,-4.4493 3.5507,-8 8,-8 l 24,0 c 4.4493,0 8,3.5507 8,8 l 0,-1 c 0,-4.4493 -3.5507,-8 -8,-8 l -24,0 z"
         id="rect3902"
         inkscape:connector-curvature="0" />
      <path
         style="opacity:0.12999998;color:#bebebe;fill:#ffffff;fill-opacity:1;fill-rule:nonzero;stroke:none;stroke-width:0;marker:none;visibility:visible;display:inline;overflow:visible;enable-background:accumulate"
         d="m 310,33 c -9.4353,0 -17,7.564703 -17,17 l 0,1 c 0,-9.435297 7.5647,-17 17,-17 l 52,0 c 9.4353,0 17,7.564703 17,17 l 0,-1 c 0,-9.435297 -7.5647,-17 -17,-17 l -52,0 z"
         id="rect3904"
         inkscape:connector-curvature="0" />
      <path
         style="opacity:0.12999998;color:#bebebe;fill:#ffffff;fill-opacity:1;fill-rule:nonzero;stroke:none;stroke-width:0;marker:none;visibility:visible;display:inline;overflow:visible;enable-background:accumulate"
         d="m 302.5,143 c -6.3883,0 -11.5,5.1117 -11.5,11.5 l 0,1 c 0,-6.3883 5.1117,-11.5 11.5,-11.5 l 35,0 c 6.3883,0 11.5,5.1117 11.5,11.5 l 0,-1 c 0,-6.3883 -5.1117,-11.5 -11.5,-11.5 l -35,0 z"
         id="rect3906"
         inkscape:connector-curvature="0" />
      <path
         id="path4085"
         d="m 204,266 c 27.1633,0 49,-21.8367 49,-49 l 0,-1 c 0,27.1633 -21.8367,49 -49,49 L 84,265 C 56.8367,265 35,243.1633 35,216 l 0,1 c 0,27.1633 21.8367,49 49,49 l 120,0 z"
         style="opacity:0.41;color:#bebebe;fill:#000000;fill-opacity:1;fill-rule:nonzero;stroke:none;stroke-width:0;marker:none;visibility:visible;display:inline;overflow:visible;enable-background:accumulate"
         inkscape:connector-curvature="0" />
      <path
         id="path4087"
         d="m 429,156 c 1.1253,0 2,-0.8747 2,-2 l 0,-1 c 0,1.1253 -0.8747,2 -2,2 l -10,0 c -1.1253,0 -2,-0.8747 -2,-2 l 0,1 c 0,1.1253 0.8747,2 2,2 l 10,0 z"
         style="opacity:0.3;color:#bebebe;fill:#000000;fill-opacity:1;fill-rule:nonzero;stroke:none;stroke-width:0;marker:none;visibility:visible;display:inline;overflow:visible;enable-background:accumulate"
         inkscape:connector-curvature="0" />
      <path
         id="path4089"
         d="m 434,123 c 2.2333,0 4,-1.7667 4,-4 l 0,-1 c 0,2.2333 -1.7667,4 -4,4 l -12,0 c -2.2333,0 -4,-1.7667 -4,-4 l 0,1 c 0,2.2333 1.7667,4 4,4 l 12,0 z"
         style="opacity:0.3;color:#bebebe;fill:#000000;fill-opacity:1;fill-rule:nonzero;stroke:none;stroke-width:0;marker:none;visibility:visible;display:inline;overflow:visible;enable-background:accumulate"
         inkscape:connector-curvature="0" />
      <path
         id="path4091"
         d="m 440,83 c 3.3413,0 6,-2.6587 6,-6 l 0,-1 c 0,3.3413 -2.6587,6 -6,6 l -16,0 c -3.3413,0 -6,-2.6587 -6,-6 l 0,1 c 0,3.3413 2.6587,6 6,6 l 16,0 z"
         style="opacity:0.41;color:#bebebe;fill:#000000;fill-opacity:1;fill-rule:nonzero;stroke:none;stroke-width:0;marker:none;visibility:visible;display:inline;overflow:visible;enable-background:accumulate"
         inkscape:connector-curvature="0" />
      <path
         id="path4093"
         d="m 324,265 c 4.4493,0 8,-3.5507 8,-8 l 0,-1 c 0,4.4493 -3.5507,8 -8,8 l -24,0 c -4.4493,0 -8,-3.5507 -8,-8 l 0,1 c 0,4.4493 3.5507,8 8,8 l 24,0 z"
         style="opacity:0.41;color:#bebebe;fill:#000000;fill-opacity:1;fill-rule:nonzero;stroke:none;stroke-width:0;marker:none;visibility:visible;display:inline;overflow:visible;enable-background:accumulate"
         inkscape:connector-curvature="0" />
      <path
         id="path4095"
         d="m 362,120 c 9.4353,0 17,-7.5647 17,-17 l 0,-1 c 0,9.4353 -7.5647,17 -17,17 l -52,0 c -9.4353,0 -17,-7.5647 -17,-17 l 0,1 c 0,9.4353 7.5647,17 17,17 l 52,0 z"
         style="opacity:0.41;color:#bebebe;fill:#000000;fill-opacity:1;fill-rule:nonzero;stroke:none;stroke-width:0;marker:none;visibility:visible;display:inline;overflow:visible;enable-background:accumulate"
         inkscape:connector-curvature="0" />
      <path
         id="path4097"
         d="m 337.5,202 c 6.3883,0 11.5,-5.1117 11.5,-11.5 l 0,-1 c 0,6.3883 -5.1117,11.5 -11.5,11.5 l -35,0 c -6.3883,0 -11.5,-5.1117 -11.5,-11.5 l 0,1 c 0,6.3883 5.1117,11.5 11.5,11.5 l 35,0 z"
         style="opacity:0.41;color:#bebebe;fill:#000000;fill-opacity:1;fill-rule:nonzero;stroke:none;stroke-width:0;marker:none;visibility:visible;display:inline;overflow:visible;enable-background:accumulate"
         inkscape:connector-curvature="0" />
      <path
         inkscape:connector-curvature="0"
         id="path4280"
         d="M 84,265 C 56.836703,265 35,243.1633 35,216 l 0,-1 c 0,27.1633 21.836703,49 49,49 l 120,0 c 27.1633,0 49,-21.8367 49,-49 l 0,1 c 0,27.1633 -21.8367,49 -49,49 l -120,0 z"
         style="opacity:0.1;color:#bebebe;fill:#ffffff;fill-opacity:1;fill-rule:nonzero;stroke:none;stroke-width:0;marker:none;visibility:visible;display:inline;overflow:visible;enable-background:accumulate" />
      <path
         style="opacity:0.1;color:#bebebe;fill:#ffffff;fill-opacity:1;fill-rule:nonzero;stroke:none;stroke-width:0;marker:none;visibility:visible;display:inline;overflow:visible;enable-background:accumulate"
         d="m 300,264 c -4.4493,0 -8,-3.5507 -8,-8 l 0,-1 c 0,4.4493 3.5507,8 8,8 l 24,0 c 4.4493,0 8,-3.5507 8,-8 l 0,1 c 0,4.4493 -3.5507,8 -8,8 l -24,0 z"
         id="path4294"
         inkscape:connector-curvature="0" />
      <path
         style="opacity:0.1;color:#bebebe;fill:#ffffff;fill-opacity:1;fill-rule:nonzero;stroke:none;stroke-width:0;marker:none;visibility:visible;display:inline;overflow:visible;enable-background:accumulate"
         d="m 302.5,201 c -6.3883,0 -11.5,-5.1117 -11.5,-11.5 l 0,-1 c 0,6.3883 5.1117,11.5 11.5,11.5 l 35,0 c 6.3883,0 11.5,-5.1117 11.5,-11.5 l 0,1 c 0,6.3883 -5.1117,11.5 -11.5,11.5 l -35,0 z"
         id="path4296"
         inkscape:connector-curvature="0" />
      <path
         style="opacity:0.1;color:#bebebe;fill:#ffffff;fill-opacity:1;fill-rule:nonzero;stroke:none;stroke-width:0;marker:none;visibility:visible;display:inline;overflow:visible;enable-background:accumulate"
         d="m 310,119 c -9.4353,0 -17,-7.5647 -17,-17 l 0,-1 c 0,9.4353 7.5647,17 17,17 l 52,0 c 9.4353,0 17,-7.5647 17,-17 l 0,1 c 0,9.4353 -7.5647,17 -17,17 l -52,0 z"
         id="path4298"
         inkscape:connector-curvature="0" />
      <path
         style="opacity:0.1;color:#bebebe;fill:#ffffff;fill-opacity:1;fill-rule:nonzero;stroke:none;stroke-width:0;marker:none;visibility:visible;display:inline;overflow:visible;enable-background:accumulate"
         d="m 424,82 c -3.3413,0 -6,-2.658703 -6,-6 l 0,-1 c 0,3.341297 2.6587,6 6,6 l 16,0 c 3.3413,0 6,-2.658703 6,-6 l 0,1 c 0,3.341297 -2.6587,6 -6,6 l -16,0 z"
         id="path4300"
         inkscape:connector-curvature="0" />
      <path
         style="opacity:0.1;color:#bebebe;fill:#ffffff;fill-opacity:1;fill-rule:nonzero;stroke:none;stroke-width:0;marker:none;visibility:visible;display:inline;overflow:visible;enable-background:accumulate"
         d="m 422,122 c -2.2333,0 -4,-1.7667 -4,-4 l 0,-1 c 0,2.2333 1.7667,4 4,4 l 12,0 c 2.2333,0 4,-1.7667 4,-4 l 0,1 c 0,2.2333 -1.7667,4 -4,4 l -12,0 z"
         id="path4302"
         inkscape:connector-curvature="0" />
      <path
         style="opacity:0.1;color:#bebebe;fill:#ffffff;fill-opacity:1;fill-rule:nonzero;stroke:none;stroke-width:0;marker:none;visibility:visible;display:inline;overflow:visible;enable-background:accumulate"
         d="m 419,154.5 c -1.1253,0 -2,-0.8747 -2,-2 l 0,-1 c 0,1.1253 0.8747,2 2,2 l 10,0 c 1.1253,0 2,-0.8747 2,-2 l 0,1 c 0,1.1253 -0.8747,2 -2,2 l -10,0 z"
         id="path4304"
         inkscape:connector-curvature="0" />
    </g>
    <g
       inkscape:groupmode="layer"
       id="layer3"
       inkscape:label="Border"
       style="display:inline"
       sodipodi:insensitive="true">
      <path
         style="opacity:0.41;color:#bebebe;fill:#000000;fill-opacity:1;fill-rule:nonzero;stroke:none;stroke-width:0;marker:none;visibility:visible;display:inline;overflow:visible;enable-background:accumulate"
         d="m 422,101 c -2.77,0 -5,2.23 -5,5 l 0,12 c 0,2.77 2.23,5 5,5 l 12,0 c 2.77,0 5,-2.23 5,-5 l 0,-12 c 0,-2.77 -2.23,-5 -5,-5 l -12,0 z m 0,1 12,0 c 2.2333,0 4,1.7667 4,4 l 0,12 c 0,2.2333 -1.7667,4 -4,4 l -12,0 c -2.2333,0 -4,-1.7667 -4,-4 l 0,-12 c 0,-2.2333 1.7667,-4 4,-4 z"
         id="rect4099"
         inkscape:connector-curvature="0" />
      <path
         style="opacity:0.41;color:#bebebe;fill:#000000;fill-opacity:1;fill-rule:nonzero;stroke:none;stroke-width:0;marker:none;visibility:visible;display:inline;overflow:visible;enable-background:accumulate"
         d="m 424,53 c -3.878,0 -7,3.122 -7,7 l 0,16 c 0,3.878 3.122,7 7,7 l 16,0 c 3.878,0 7,-3.122 7,-7 l 0,-16 c 0,-3.878 -3.122,-7 -7,-7 l -16,0 z m 0,1 16,0 c 3.3413,0 6,2.658703 6,6 l 0,16 c 0,3.341297 -2.6587,6 -6,6 l -16,0 c -3.3413,0 -6,-2.658703 -6,-6 l 0,-16 c 0,-3.341297 2.6587,-6 6,-6 z"
         id="rect4151"
         inkscape:connector-curvature="0" />
      <path
         style="opacity:0.41;color:#bebebe;fill:#000000;fill-opacity:1;fill-rule:nonzero;stroke:none;stroke-width:0;marker:none;visibility:visible;display:inline;overflow:visible;enable-background:accumulate"
         d="m 419,140 c -1.662,0 -3,1.338 -3,3 l 0,10 c 0,1.662 1.338,3 3,3 l 10,0 c 1.662,0 3,-1.338 3,-3 l 0,-10 c 0,-1.662 -1.338,-3 -3,-3 l -10,0 z m 0,1 10,0 c 1.1253,0 2,0.8747 2,2 l 0,10 c 0,1.1253 -0.8747,2 -2,2 l -10,0 c -1.1253,0 -2,-0.8747 -2,-2 l 0,-10 c 0,-1.1253 0.8747,-2 2,-2 z"
         id="rect4095"
         inkscape:connector-curvature="0" />
      <path
         style="opacity:0.41;color:#bebebe;fill:#000000;fill-opacity:1;fill-rule:nonzero;stroke:none;stroke-width:0;marker:none;visibility:visible;display:inline;overflow:visible;enable-background:accumulate"
         d="m 300,223 c -4.986,0 -9,4.014 -9,9 l 0,24 c 0,4.986 4.014,9 9,9 l 24,0 c 4.986,0 9,-4.014 9,-9 l 0,-24 c 0,-4.986 -4.014,-9 -9,-9 l -24,0 z m 0,1 24,0 c 4.4493,0 8,3.5507 8,8 l 0,24 c 0,4.4493 -3.5507,8 -8,8 l -24,0 c -4.4493,0 -8,-3.5507 -8,-8 l 0,-24 c 0,-4.4493 3.5507,-8 8,-8 z"
         id="rect4783"
         inkscape:connector-curvature="0" />
      <path
         style="opacity:0.41;color:#bebebe;fill:#000000;fill-opacity:1;fill-rule:nonzero;stroke:none;stroke-width:0;marker:none;visibility:visible;display:inline;overflow:visible;enable-background:accumulate"
         d="m 302.5,142 c -6.925,0 -12.5,5.575 -12.5,12.5 l 0,35 c 0,6.925 5.575,12.5 12.5,12.5 l 35,0 c 6.925,0 12.5,-5.575 12.5,-12.5 l 0,-35 c 0,-6.925 -5.575,-12.5 -12.5,-12.5 l -35,0 z m 0,1 35,0 c 6.3883,0 11.5,5.1117 11.5,11.5 l 0,35 c 0,6.3883 -5.1117,11.5 -11.5,11.5 l -35,0 c -6.3883,0 -11.5,-5.1117 -11.5,-11.5 l 0,-35 c 0,-6.3883 5.1117,-11.5 11.5,-11.5 z"
         id="rect4515"
         inkscape:connector-curvature="0" />
      <path
         style="opacity:0.41;color:#bebebe;fill:#000000;fill-opacity:1;fill-rule:nonzero;stroke:none;stroke-width:0;marker:none;visibility:visible;display:inline;overflow:visible;enable-background:accumulate"
         d="m 310,32 c -9.972,0 -18,8.028 -18,18 l 0,52 c 0,9.972 8.028,18 18,18 l 52,0 c 9.972,0 18,-8.028 18,-18 l 0,-52 c 0,-9.972 -8.028,-18 -18,-18 l -52,0 z m 0,1 52,0 c 9.4353,0 17,7.564703 17,17 l 0,52 c 0,9.4353 -7.5647,17 -17,17 l -52,0 c -9.4353,0 -17,-7.5647 -17,-17 l 0,-52 c 0,-9.435297 7.5647,-17 17,-17 z"
         id="rect4511"
         inkscape:connector-curvature="0" />
      <path
         style="opacity:0.41;color:#bebebe;fill:#000000;fill-opacity:1;fill-rule:nonzero;stroke:none;stroke-width:0;marker:none;visibility:visible;display:inline;overflow:visible;enable-background:accumulate"
         d="M 84,46 C 56.3,46 34,68.3 34,96 l 0,120 c 0,27.7 22.3,50 50,50 l 120,0 c 27.7,0 50,-22.3 50,-50 L 254,96 C 254,68.3 231.7,46 204,46 L 84,46 z m 0,1 120,0 c 27.1633,0 49,21.836703 49,49 l 0,120 c 0,27.1633 -21.8367,49 -49,49 L 84,265 C 56.836703,265 35,243.1633 35,216 L 35,96 C 35,68.836703 56.836703,47 84,47 z"
         id="rect4040"
         inkscape:connector-curvature="0" />
    </g>
  </g>
</svg>
