<?xml version="1.0" encoding="UTF-8" standalone="no"?>
<!-- Created with Inkscape (http://www.inkscape.org/) -->

<svg
   xmlns:dc="http://purl.org/dc/elements/1.1/"
   xmlns:cc="http://creativecommons.org/ns#"
   xmlns:rdf="http://www.w3.org/1999/02/22-rdf-syntax-ns#"
   xmlns:svg="http://www.w3.org/2000/svg"
   xmlns="http://www.w3.org/2000/svg"
   xmlns:xlink="http://www.w3.org/1999/xlink"
   xmlns:sodipodi="http://sodipodi.sourceforge.net/DTD/sodipodi-0.dtd"
   xmlns:inkscape="http://www.inkscape.org/namespaces/inkscape"
   inkscape:export-ydpi="90.000000"
   inkscape:export-xdpi="90.000000"
   width="480"
   height="300"
   id="svg11300"
   sodipodi:version="0.32"
   inkscape:version="0.48.4 r9939"
   sodipodi:docname="gramps.svg"
   inkscape:output_extension="org.inkscape.output.svg.inkscape"
   version="1.0"
   style="display:inline;enable-background:new"
   inkscape:export-filename="/home/sam/moka-next-template.png">
  <sodipodi:namedview
     stroke="#ef2929"
     fill="#f57900"
     id="base"
     pagecolor="#777777"
     bordercolor="#666666"
     borderopacity="0.25490196"
     inkscape:pageopacity="0"
     inkscape:pageshadow="2"
     inkscape:zoom="1"
     inkscape:cx="175"
     inkscape:cy="210"
     inkscape:current-layer="layer7"
     showgrid="false"
     inkscape:grid-bbox="true"
     inkscape:document-units="px"
     inkscape:showpageshadow="false"
     inkscape:window-width="1364"
     inkscape:window-height="700"
     inkscape:window-x="0"
     inkscape:window-y="28"
     width="400px"
     height="300px"
     inkscape:snap-nodes="true"
     inkscape:snap-bbox="true"
     gridtolerance="10000"
     inkscape:object-nodes="true"
     inkscape:snap-grids="true"
     showguides="true"
     inkscape:guide-bbox="true"
     inkscape:window-maximized="1"
     inkscape:bbox-nodes="true"
     inkscape:bbox-paths="true"
     inkscape:snap-bbox-edge-midpoints="true"
     inkscape:snap-bbox-midpoints="true">
    <inkscape:grid
       spacingy="1px"
       spacingx="1px"
       id="grid5883"
       type="xygrid"
       enabled="true"
       visible="true"
       empspacing="4"
       snapvisiblegridlinesonly="true"
       dotted="false"
       color="#000000"
       opacity="0.1254902"
       empcolor="#203ef3"
       empopacity="0.36470588" />
    <inkscape:grid
       type="xygrid"
       id="grid11592"
       empspacing="8"
       visible="true"
       enabled="false"
       spacingx="0.5px"
       spacingy="0.5px"
       color="#ff0000"
       opacity="0.1254902"
       empcolor="#ff0000"
       empopacity="0.25098039"
       snapvisiblegridlinesonly="true"
       dotted="true" />
  </sodipodi:namedview>
  <defs
     id="defs3">
    <linearGradient
       inkscape:collect="always"
       xlink:href="#outerBackgroundGradient-4"
       id="linearGradient5576"
       gradientUnits="userSpaceOnUse"
       gradientTransform="matrix(0,-1,1,0,-12,300)"
       x1="35"
       y1="156"
       x2="253"
       y2="156" />
    <linearGradient
       inkscape:collect="always"
       xlink:href="#outerBackgroundGradient-4"
       id="linearGradient5578"
       gradientUnits="userSpaceOnUse"
       gradientTransform="matrix(0,-1,1,0,276,572)"
       x1="417"
       y1="148"
       x2="431"
       y2="148" />
    <linearGradient
       inkscape:collect="always"
       xlink:href="#outerBackgroundGradient-4"
       id="linearGradient5580"
       gradientUnits="userSpaceOnUse"
       gradientTransform="matrix(0,-1,1,0,316,540)"
       x1="418"
       y1="112"
       x2="438"
       y2="112" />
    <linearGradient
       inkscape:collect="always"
       xlink:href="#outerBackgroundGradient-4"
       id="linearGradient5582"
       gradientUnits="userSpaceOnUse"
       gradientTransform="matrix(0,-1,1,0,364,500)"
       x1="418"
       y1="68"
       x2="446"
       y2="68" />
    <linearGradient
       inkscape:collect="always"
       xlink:href="#outerBackgroundGradient-4"
       id="linearGradient5584"
       gradientUnits="userSpaceOnUse"
       gradientTransform="matrix(0,-1,1,0,68,556)"
       x1="292"
       y1="244"
       x2="332"
       y2="244" />
    <linearGradient
       inkscape:collect="always"
       xlink:href="#outerBackgroundGradient-4"
       id="linearGradient5586"
       gradientUnits="userSpaceOnUse"
       gradientTransform="matrix(0,-1,1,0,260,412)"
       x1="293"
       y1="76"
       x2="379"
       y2="76" />
    <linearGradient
       inkscape:collect="always"
       xlink:href="#outerBackgroundGradient-4"
       id="linearGradient5588"
       gradientUnits="userSpaceOnUse"
       gradientTransform="matrix(0,-1,1,0,148,492)"
       x1="291"
       y1="172"
       x2="349"
       y2="172" />
    <linearGradient
       id="outerBackgroundGradient-4">
      <stop
         style="stop-color:#917c53;stop-opacity:1"
         offset="0"
         id="stop3864-8-6-7" />
      <stop
         style="stop-color:#b39a69;stop-opacity:1"
         offset="1"
         id="stop3866-9-1-8" />
    </linearGradient>
  </defs>
  <metadata
     id="metadata4">
    <rdf:RDF>
      <cc:Work
         rdf:about="">
        <dc:format>image/svg+xml</dc:format>
        <dc:type
           rdf:resource="http://purl.org/dc/dcmitype/StillImage" />
        <dc:creator>
          <cc:Agent>
            <dc:title>Sam Hewitt</dc:title>
          </cc:Agent>
        </dc:creator>
        <dc:source />
        <cc:license
           rdf:resource="" />
        <dc:title />
        <dc:subject>
          <rdf:Bag />
        </dc:subject>
        <dc:date />
        <dc:rights>
          <cc:Agent>
            <dc:title />
          </cc:Agent>
        </dc:rights>
        <dc:publisher>
          <cc:Agent>
            <dc:title />
          </cc:Agent>
        </dc:publisher>
        <dc:identifier />
        <dc:relation />
        <dc:language />
        <dc:coverage />
        <dc:description />
        <dc:contributor>
          <cc:Agent>
            <dc:title />
          </cc:Agent>
        </dc:contributor>
      </cc:Work>
      <cc:Work
         rdf:about="">
        <dc:format>image/svg+xml</dc:format>
        <dc:type
           rdf:resource="http://purl.org/dc/dcmitype/StillImage" />
      </cc:Work>
    </rdf:RDF>
  </metadata>
  <g
     style="display:inline"
     inkscape:groupmode="layer"
     inkscape:label="Icon"
     id="layer1">
    <g
       style="display:none"
       inkscape:label="Baseplate"
       id="layer7"
       inkscape:groupmode="layer">
      <text
         y="19.745117"
         xml:space="preserve"
         x="15.006836"
         style="font-style:normal;font-variant:normal;font-weight:normal;font-stretch:normal;line-height:0%;font-family:'DejaVu Sans';-inkscape-font-specification:'DejaVu Sans';display:inline;fill:#000000;fill-opacity:1;stroke:none;enable-background:new"
         inkscape:label="context"
         id="context"><tspan
           style="font-style:normal;font-variant:normal;font-weight:normal;font-stretch:normal;font-size:18px;line-height:1.25;font-family:'DejaVu Sans';-inkscape-font-specification:'DejaVu Sans'"
           y="19.745117"
           x="15.006836"
           sodipodi:role="line"
           id="tspan3933">apps</tspan></text>
      <text
         y="19.745117"
         xml:space="preserve"
         x="122.48828"
         style="font-style:normal;font-variant:normal;font-weight:bold;font-stretch:normal;line-height:0%;font-family:'DejaVu Sans';-inkscape-font-specification:'DejaVu Sans Bold';text-align:start;writing-mode:lr-tb;text-anchor:start;display:inline;fill:#000000;fill-opacity:1;stroke:none;enable-background:new"
         inkscape:label="icon-name"
         id="icon-name"
         inkscape:transform-center-y="-8.7802734"><tspan
           style="font-style:normal;font-variant:normal;font-weight:bold;font-stretch:normal;font-size:18px;line-height:1.25;font-family:'DejaVu Sans';-inkscape-font-specification:'DejaVu Sans Bold'"
           y="19.745117"
           x="122.48828"
           sodipodi:role="line"
           id="tspan3937">gramps</tspan></text>
      <rect
         style="fill:#eeeeec;fill-opacity:1;fill-rule:nonzero;stroke:none;stroke-width:2;marker:none;visibility:visible;display:inline;overflow:visible;enable-background:accumulate"
         id="rect16x16"
         width="16"
         height="16"
         x="416"
         y="140"
         inkscape:label="16x16" />
      <rect
         style="fill:#d4d4d4;fill-opacity:1;fill-rule:nonzero;stroke:none;stroke-width:2;marker:none;visibility:visible;display:inline;overflow:visible;enable-background:accumulate"
         id="rect24x24"
         width="24"
         height="24"
         x="416"
         y="100"
         inkscape:label="24x24" />
      <rect
         style="fill:#eeeeec;fill-opacity:1;fill-rule:nonzero;stroke:none;stroke-width:2;marker:none;visibility:visible;display:inline;overflow:visible;enable-background:accumulate"
         id="rect32x32"
         width="32"
         height="32"
         x="416"
         y="52"
         inkscape:label="32x32" />
      <rect
         inkscape:label="22x22"
         y="101"
         x="417"
         height="22"
         width="22"
         id="rect22x22"
         style="fill:#eeeeec;fill-opacity:1;fill-rule:nonzero;stroke:none;stroke-width:2;marker:none;visibility:visible;display:inline;overflow:visible;enable-background:accumulate" />
      <rect
         inkscape:label="48x48"
         y="220"
         x="288"
         height="48"
         width="48"
         id="rect48x48"
         style="fill:#eeeeec;fill-opacity:1;fill-rule:nonzero;stroke:none;stroke-width:2;marker:none;visibility:visible;display:inline;overflow:visible;enable-background:accumulate" />
      <rect
         style="fill:#eeeeec;fill-opacity:1;fill-rule:nonzero;stroke:none;stroke-width:2;marker:none;visibility:visible;display:inline;overflow:visible;enable-background:accumulate"
         id="rect256x256"
         width="256"
         height="256"
         x="16"
         y="28"
         inkscape:label="256x256" />
      <rect
         style="fill:#eeeeec;fill-opacity:1;fill-rule:nonzero;stroke:none;stroke-width:2;marker:none;visibility:visible;display:inline;overflow:visible;enable-background:accumulate"
         id="rect64x64"
         width="64"
         height="64"
         x="288"
         y="140"
         inkscape:label="64x64" />
      <rect
         style="fill:#eeeeec;fill-opacity:1;fill-rule:nonzero;stroke:none;stroke-width:2;marker:none;visibility:visible;display:inline;overflow:visible;enable-background:accumulate"
         id="rect96x96"
         width="96"
         height="96"
         x="288"
         y="28"
         inkscape:label="96x96" />
    </g>
    <g
       inkscape:groupmode="layer"
       id="layer4"
       inkscape:label="Shadow"
       style="display:inline"
       sodipodi:insensitive="true">
      <rect
         ry="50"
         y="47"
         x="34"
         height="220"
         width="220"
         id="rect4114"
         style="opacity:0.1;color:#bebebe;fill:#000000;fill-opacity:1;fill-rule:nonzero;stroke:none;stroke-width:0;marker:none;visibility:visible;display:inline;overflow:visible;enable-background:accumulate" />
      <rect
         style="opacity:0.1;color:#bebebe;fill:#000000;fill-opacity:1;fill-rule:nonzero;stroke:none;stroke-width:0;marker:none;visibility:visible;display:inline;overflow:visible;enable-background:accumulate"
         id="rect4120"
         width="30"
         height="30"
         x="417"
         y="54"
         ry="7" />
      <rect
         transform="scale(1,-1)"
         ry="9"
         y="-266"
         x="291"
         height="42"
         width="42"
         id="rect4122"
         style="opacity:0.1;color:#bebebe;fill:#000000;fill-opacity:1;fill-rule:nonzero;stroke:none;stroke-width:0;marker:none;visibility:visible;display:inline;overflow:visible;enable-background:accumulate" />
      <rect
         style="opacity:0.1;color:#bebebe;fill:#000000;fill-opacity:1;fill-rule:nonzero;stroke:none;stroke-width:0;marker:none;visibility:visible;display:inline;overflow:visible;enable-background:accumulate"
         id="rect4124"
         width="88"
         height="88"
         x="292"
         y="33"
         ry="18" />
      <rect
         ry="12.5"
         y="143"
         x="290"
         height="60"
         width="60"
         id="rect4126"
         style="opacity:0.1;color:#bebebe;fill:#000000;fill-opacity:1;fill-rule:nonzero;stroke:none;stroke-width:0;marker:none;visibility:visible;display:inline;overflow:visible;enable-background:accumulate" />
      <path
         id="path4268"
         d="m 422,101 c -2.77,0 -5,2.23 -5,5 l 0,12 c 0,2.77 2.23,5 5,5 l 12,0 c 2.77,0 5,-2.23 5,-5 l 0,-12 c 0,-2.77 -2.23,-5 -5,-5 z"
         style="opacity:0.1;color:#bebebe;fill:#000000;fill-opacity:1;fill-rule:nonzero;stroke:none;stroke-width:0;marker:none;visibility:visible;display:inline;overflow:visible;enable-background:accumulate"
         inkscape:connector-curvature="0"
         sodipodi:nodetypes="sssssssss" />
      <path
         id="path4270"
         d="m 419,140 c -1.662,0 -3,1.338 -3,3 l 0,10 c 0,1.662 1.338,3 3,3 l 10,0 c 1.662,0 3,-1.338 3,-3 l 0,-10 c 0,-1.662 -1.338,-3 -3,-3 z"
         style="opacity:0.1;color:#bebebe;fill:#000000;fill-opacity:1;fill-rule:nonzero;stroke:none;stroke-width:0;marker:none;visibility:visible;display:inline;overflow:visible;enable-background:accumulate"
         inkscape:connector-curvature="0"
         sodipodi:nodetypes="sssssssss" />
    </g>
    <g
       inkscape:groupmode="layer"
       id="layer2"
       inkscape:label="Background"
       style="display:inline">
      <path
         style="color:#bebebe;fill:url(#linearGradient5576);fill-opacity:1.0;fill-rule:nonzero;stroke:none;stroke-width:2;marker:none;visibility:visible;display:inline;overflow:visible;enable-background:accumulate"
         d="M 84 46.5 C 56.568735 46.5 34.5 68.568732 34.5 96 L 34.5 216 C 34.5 243.43127 56.568735 265.5 84 265.5 L 204 265.5 C 231.43127 265.5 253.5 243.43127 253.5 216 L 253.5 96 C 253.5 68.568732 231.43127 46.5 204 46.5 L 84 46.5 z "
         id="path4200" />
      <path
         style="color:#bebebe;fill:url(#linearGradient5578);fill-opacity:1.0;fill-rule:nonzero;stroke:none;stroke-width:2;marker:none;visibility:visible;display:inline;overflow:visible;enable-background:accumulate"
         d="M 419 140.5 C 417.6156 140.5 416.5 141.6156 416.5 143 L 416.5 153 C 416.5 154.3844 417.6156 155.5 419 155.5 L 429 155.5 C 430.3844 155.5 431.5 154.3844 431.5 153 L 431.5 143 C 431.5 141.6156 430.3844 140.5 429 140.5 L 419 140.5 z "
         id="path4202" />
      <path
         style="color:#bebebe;fill:url(#linearGradient5580);fill-opacity:1.0;fill-rule:nonzero;stroke:none;stroke-width:2;marker:none;visibility:visible;display:inline;overflow:visible;enable-background:accumulate"
         d="M 422 101.5 C 419.50301 101.5 417.5 103.50301 417.5 106 L 417.5 118 C 417.5 120.49699 419.50301 122.5 422 122.5 L 434 122.5 C 436.49699 122.5 438.5 120.49699 438.5 118 L 438.5 106 C 438.5 103.50301 436.49699 101.5 434 101.5 L 422 101.5 z "
         id="path4204" />
      <path
         style="color:#bebebe;fill:url(#linearGradient5582);fill-opacity:1.0;fill-rule:nonzero;stroke:none;stroke-width:2;marker:none;visibility:visible;display:inline;overflow:visible;enable-background:accumulate"
         d="M 424 53.5 C 420.39346 53.5 417.5 56.393464 417.5 60 L 417.5 76 C 417.5 79.606536 420.39346 82.5 424 82.5 L 440 82.5 C 443.60654 82.5 446.5 79.606536 446.5 76 L 446.5 60 C 446.5 56.393464 443.60654 53.5 440 53.5 L 424 53.5 z "
         id="path4206" />
      <path
         style="color:#bebebe;fill:url(#linearGradient5584);fill-opacity:1.0;fill-rule:nonzero;stroke:none;stroke-width:2;marker:none;visibility:visible;display:inline;overflow:visible;enable-background:accumulate"
         d="M 300 223.5 C 295.28469 223.5 291.5 227.28469 291.5 232 L 291.5 256 C 291.5 260.71531 295.28469 264.5 300 264.5 L 324 264.5 C 328.71531 264.5 332.5 260.71531 332.5 256 L 332.5 232 C 332.5 227.28469 328.71531 223.5 324 223.5 L 300 223.5 z "
         id="path4208" />
      <path
         style="color:#bebebe;fill:url(#linearGradient5586);fill-opacity:1.0;fill-rule:nonzero;stroke:none;stroke-width:2;marker:none;visibility:visible;display:inline;overflow:visible;enable-background:accumulate"
         d="M 310 32.5 C 300.29745 32.5 292.5 40.297452 292.5 50 L 292.5 102 C 292.5 111.70255 300.29745 119.5 310 119.5 L 362 119.5 C 371.70255 119.5 379.5 111.70255 379.5 102 L 379.5 50 C 379.5 40.297452 371.70255 32.5 362 32.5 L 310 32.5 z "
         id="path4210" />
      <path
         style="color:#bebebe;fill:url(#linearGradient5588);fill-opacity:1.0;fill-rule:nonzero;stroke:none;stroke-width:2;marker:none;visibility:visible;display:inline;overflow:visible;enable-background:accumulate"
         d="M 302.5 142.5 C 295.84498 142.5 290.5 147.84498 290.5 154.5 L 290.5 189.5 C 290.5 196.15502 295.84498 201.5 302.5 201.5 L 337.5 201.5 C 344.15502 201.5 349.5 196.15502 349.5 189.5 L 349.5 154.5 C 349.5 147.84498 344.15502 142.5 337.5 142.5 L 302.5 142.5 z "
         id="path4212" />
    </g>
    <g
       inkscape:groupmode="layer"
       id="layer6"
       inkscape:label="Symbols"
       style="display:inline">
      <path
         inkscape:connector-curvature="0"
         id="path3945"
         d="m 327.10354,107.8374 c -0.47092,-0.0782 -1.27733,-0.3311 -1.79204,-0.56208 -0.78645,-0.35294 -0.92267,-0.47264 -0.85341,-0.74991 0.63968,-2.56122 0.94471,-6.27518 0.83994,-10.227103 -0.15533,-5.85935 -1.04668,-9.83885 -3.13264,-13.98589 -0.96171,-1.91195 -1.88018,-3.12709 -4.03125,-5.33336 -2.66992,-2.73844 -4.07527,-4.9759 -5.03022,-8.00861 -1.5268,-4.84878 -1.32211,-10.40995 0.60744,-16.50353 0.55834,-1.76327 1.62665,-4.46674 1.76508,-4.46674 0.23947,0 5.50264,3.31363 6.7352,4.2404 2.66709,2.00541 4.83446,4.42794 5.98183,6.68606 1.61071,3.17004 1.67509,7.23892 0.17416,11.00775 -0.46295,1.16246 -2.0687,4.24983 -2.16136,4.15565 -0.0219,-0.0223 0.12715,-0.66548 0.3313,-1.42929 1.14349,-4.27813 1.18972,-8.65698 0.12488,-11.82832 -1.20841,-3.59892 -3.9809,-6.65859 -7.54028,-8.32133 -0.62631,-0.29258 -1.50836,-0.63819 -1.96012,-0.76804 l -0.82137,-0.23608 -0.4672,1.13657 c -0.67951,1.65306 -1.25888,3.76214 -1.53025,5.5705 -0.69432,4.62692 0.23423,8.81865 2.80235,12.65061 0.67397,1.00566 3.61799,4.05579 3.91469,4.05579 0.0932,0 0.16942,-0.19954 0.16942,-0.44341 0,-2.16679 0.56986,-6.78307 1.18306,-9.5837 0.79842,-3.6466 0.84226,-3.6319 0.86003,0.2883 0.022,4.84523 0.37796,8.42066 1.22197,12.27248 0.75176,3.4308 2.18984,7.00674 3.37592,8.39461 0.46359,0.54246 0.47225,0.54528 0.47996,0.15654 0.0136,-0.68571 1.37675,-6.02126 2.06458,-8.08106 1.95261,-5.84742 4.31508,-10.00406 7.46319,-13.1311 5.2058,-5.17094 12.26034,-6.35557 19.94817,-3.34977 2.37461,0.92842 2.29504,0.8369 1.79575,2.06568 -1.46333,3.60126 -3.68351,7.22874 -6.14026,10.03236 -1.96707,2.24481 -5.03791,4.22967 -7.39071,4.77707 -1.22688,0.28544 -3.86824,0.29492 -4.98816,0.0179 l -0.79178,-0.19585 0.55424,-0.0958 c 0.30484,-0.0527 1.08869,-0.17507 1.7419,-0.27195 5.81289,-0.8621 10.74355,-5.2047 13.12747,-11.56179 0.34294,-0.9145 0.67203,-1.9253 0.73132,-2.24622 0.10566,-0.57199 0.0958,-0.58672 -0.50173,-0.74645 -2.57229,-0.68765 -2.83307,-0.72045 -5.67686,-0.71387 -2.63348,0.006 -2.95638,0.039 -4.24336,0.43282 -2.63752,0.80703 -4.56426,1.98888 -6.60393,4.05081 -2.08898,2.11176 -3.79629,4.82083 -4.99918,7.93241 -0.5802,1.50084 -1.35014,3.95886 -1.24005,3.95886 0.0319,0 0.24619,-0.37411 0.47612,-0.83136 1.80847,-3.59646 4.69473,-6.54051 7.39022,-7.53818 1.82985,-0.67728 4.17243,-0.57217 6.05309,0.27158 l 0.63342,0.28418 -1.11508,0.10442 c -8.04996,0.75383 -13.20751,7.51989 -14.99007,19.66513 -0.29099,1.98265 -0.34987,3.09521 -0.35618,6.73007 -0.008,4.447933 0.12255,6.023013 0.67945,8.215943 l 0.28208,1.11075 -0.88042,0.3946 c -0.7959,0.35672 -2.57386,0.75433 -3.17657,0.7104 -0.13064,-0.01 -0.62283,-0.0813 -1.09375,-0.15944 z"
         style="opacity:0.2;fill:#000000;fill-opacity:1;display:inline;enable-background:new" />
      <path
         style="opacity:0.2;fill:#000000;fill-opacity:1;display:inline;enable-background:new"
         d="m 314.069,193.89166 c -0.31395,-0.0521 -0.85155,-0.22073 -1.19469,-0.37472 -0.5243,-0.23529 -0.61512,-0.31509 -0.56894,-0.49994 0.42645,-1.70748 0.6298,-4.18345 0.55996,-6.81807 -0.10356,-3.90623 -0.69779,-6.55923 -2.08843,-9.32392 -0.64114,-1.27464 -1.25345,-2.08473 -2.6875,-3.55557 -1.77994,-1.82562 -2.71684,-3.31727 -3.35348,-5.33907 -1.01786,-3.23252 -0.8814,-6.93997 0.40496,-11.00235 0.37223,-1.17552 1.08444,-2.97783 1.17672,-2.97783 0.15965,0 3.66843,2.20908 4.49014,2.82693 1.77805,1.33694 3.22297,2.95197 3.98788,4.45737 1.07381,2.11336 1.11673,4.82596 0.11611,7.33851 -0.30864,0.77497 -1.37914,2.83322 -1.44091,2.77043 -0.0146,-0.0149 0.0848,-0.44365 0.22087,-0.95286 0.76232,-2.85208 0.79314,-5.77132 0.0833,-7.88554 -0.80561,-2.39928 -2.65393,-4.43906 -5.02685,-5.54756 -0.41754,-0.19505 -1.00557,-0.42546 -1.30675,-0.51202 l -0.54758,-0.15739 -0.31146,0.75771 c -0.45301,1.10204 -0.83926,2.5081 -1.02017,3.71367 -0.46288,3.08461 0.15615,5.8791 1.86823,8.43374 0.44932,0.67044 2.412,2.70386 2.6098,2.70386 0.0621,0 0.11294,-0.13303 0.11294,-0.29561 0,-1.44453 0.37991,-4.52204 0.78871,-6.38913 0.53228,-2.43107 0.5615,-2.42127 0.57335,0.1922 0.0147,3.23015 0.25197,5.61377 0.81465,8.18165 0.50117,2.2872 1.45989,4.67116 2.25061,5.59641 0.30906,0.36164 0.31483,0.36352 0.31997,0.10436 0.009,-0.45714 0.91784,-4.01418 1.37639,-5.38738 1.30174,-3.89828 2.87672,-6.66937 4.97546,-8.75406 3.47053,-3.44729 8.17356,-4.23705 13.29878,-2.23318 1.58307,0.61895 1.53002,0.55793 1.19716,1.37712 -0.97555,2.40083 -2.45567,4.81916 -4.0935,6.68824 -1.31138,1.49654 -3.35861,2.81978 -4.92714,3.18471 -0.81792,0.19029 -2.57883,0.1966 -3.32544,0.0119 l -0.52785,-0.13058 0.36949,-0.0639 c 0.20323,-0.0351 0.72579,-0.11672 1.16127,-0.1813 3.87525,-0.57473 7.16236,-3.46979 8.75164,-7.70785 0.22863,-0.60967 0.44802,-1.28354 0.48755,-1.49748 0.0704,-0.38133 0.0639,-0.39115 -0.33449,-0.49764 -1.71486,-0.45843 -1.88871,-0.4803 -3.78457,-0.47591 -1.75566,0.004 -1.97092,0.026 -2.82891,0.28855 -1.75835,0.53801 -3.04284,1.32592 -4.40262,2.70053 -1.39265,1.40784 -2.53086,3.21388 -3.33278,5.28828 -0.3868,1.00056 -0.9001,2.63924 -0.8267,2.63924 0.0213,0 0.16412,-0.24942 0.31741,-0.55424 1.20565,-2.39764 3.12982,-4.36034 4.92681,-5.02545 1.2199,-0.45152 2.78162,-0.38145 4.03539,0.18105 l 0.42228,0.18945 -0.74338,0.0696 c -5.36664,0.50256 -8.80501,5.01326 -9.99338,13.11008 -0.19399,1.32176 -0.23325,2.06347 -0.23745,4.48671 -0.005,2.96529 0.0817,4.01534 0.45296,5.4773 l 0.18806,0.7405 -0.58695,0.26306 c -0.5306,0.23782 -1.71591,0.50289 -2.11771,0.4736 -0.0871,-0.007 -0.41522,-0.0542 -0.72917,-0.10629 z"
         id="path3947"
         inkscape:connector-curvature="0" />
      <path
         inkscape:connector-curvature="0"
         id="path3949"
         d="m 307.84826,259.92445 c -0.21976,-0.0365 -0.59608,-0.15451 -0.83628,-0.2623 -0.36701,-0.1647 -0.43059,-0.22056 -0.39826,-0.34996 0.29851,-1.19524 0.44086,-2.92842 0.39197,-4.77266 -0.0725,-2.73436 -0.48845,-4.59147 -1.4619,-6.52676 -0.4488,-0.89225 -0.87742,-1.45931 -1.88126,-2.48891 -1.24596,-1.27793 -1.90179,-2.32208 -2.34744,-3.73735 -0.7125,-2.26277 -0.61698,-4.85799 0.28348,-7.70166 0.26056,-0.82286 0.7591,-2.08448 0.8237,-2.08448 0.11176,0 2.56791,1.54636 3.14311,1.97885 1.24463,0.93586 2.25608,2.06638 2.79152,3.12017 0.75167,1.47935 0.78171,3.37817 0.0813,5.13696 -0.21604,0.54248 -0.9654,1.98326 -1.00863,1.9393 -0.0102,-0.0104 0.0594,-0.31055 0.1546,-0.667 0.53363,-1.99646 0.5552,-4.03993 0.0583,-5.51989 -0.56392,-1.6795 -1.85775,-3.10735 -3.5188,-3.8833 -0.29228,-0.13653 -0.7039,-0.29782 -0.91472,-0.35841 l -0.38331,-0.11018 -0.21802,0.5304 c -0.31711,0.77143 -0.58749,1.75567 -0.71412,2.59958 -0.32402,2.15923 0.1093,4.11537 1.30776,5.90363 0.31452,0.4693 1.6884,1.8927 1.82686,1.8927 0.0435,0 0.0791,-0.0931 0.0791,-0.20693 0,-1.01117 0.26594,-3.16543 0.5521,-4.4724 0.3726,-1.70175 0.39305,-1.69489 0.40135,0.13454 0.0103,2.26111 0.17637,3.92965 0.57025,5.72717 0.35082,1.60104 1.02193,3.26982 1.57543,3.9175 0.21634,0.25314 0.22038,0.25446 0.22398,0.073 0.006,-0.32 0.64249,-2.80993 0.96348,-3.77118 0.91122,-2.7288 2.0137,-4.66856 3.48283,-6.12785 2.42937,-2.41311 5.7215,-2.96594 9.30916,-1.56323 1.10815,0.43327 1.07102,0.39055 0.83801,0.96399 -0.68288,1.68059 -1.71897,3.37342 -2.86545,4.68177 -0.91797,1.04758 -2.35103,1.97385 -3.44901,2.22931 -0.57254,0.1332 -1.80518,0.13762 -2.32781,0.008 l -0.3695,-0.0914 0.25865,-0.0447 c 0.14226,-0.0246 0.50805,-0.0817 0.81289,-0.12691 2.71268,-0.40232 5.01366,-2.42886 6.12616,-5.39551 0.16004,-0.42677 0.31361,-0.89848 0.34129,-1.04824 0.0493,-0.26693 0.0447,-0.2738 -0.23415,-0.34835 -1.2004,-0.3209 -1.3221,-0.33621 -2.6492,-0.33313 -1.22897,0.003 -1.37965,0.0182 -1.98024,0.20198 -1.23085,0.37662 -2.13,0.92815 -3.08184,1.89038 -0.97486,0.98549 -1.77161,2.24972 -2.33295,3.7018 -0.27077,0.70039 -0.63008,1.84747 -0.5787,1.84747 0.0149,0 0.11489,-0.17459 0.22219,-0.38797 0.84396,-1.67835 2.19088,-3.05224 3.44878,-3.51782 0.85393,-0.31606 1.94713,-0.26702 2.82477,0.12674 l 0.2956,0.13261 -0.52037,0.0487 c -3.75665,0.35179 -6.16352,3.50929 -6.99538,9.17708 -0.13579,0.92524 -0.16327,1.44443 -0.16621,3.14071 -0.004,2.0757 0.0572,2.81074 0.31707,3.83411 l 0.13164,0.51836 -0.41086,0.18414 c -0.37142,0.16647 -1.20114,0.35202 -1.4824,0.33152 -0.061,-0.005 -0.29066,-0.0379 -0.51042,-0.0744 z"
         style="opacity:0.2;fill:#000000;fill-opacity:1;display:inline;enable-background:new" />
      <path
         style="opacity:0.2;fill:#000000;fill-opacity:1;display:inline;enable-background:new"
         d="m 120.27546,237.56848 c -1.25579,-0.20858 -3.40622,-0.88293 -4.77881,-1.49888 -2.09723,-0.94116 -2.46055,-1.26036 -2.2758,-1.9998 1.70579,-6.83003 2.51923,-16.73405 2.23986,-27.2727 -0.41429,-15.62512 -2.79118,-26.23732 -8.35383,-37.29627 -2.5646,-5.09863 -5.01389,-8.33902 -10.750197,-14.22253 -7.11986,-7.30255 -10.86751,-13.26921 -13.41412,-21.35657 -4.07148,-12.93029 -3.52565,-27.76031 1.61991,-44.010066 1.48893,-4.70212 4.33777,-11.911471 4.70692,-11.911471 0.63864,0 14.673957,8.836461 17.960867,11.307861 7.11226,5.34785 12.89205,11.808046 15.95175,17.829776 4.29531,8.45354 4.46697,19.30409 0.46458,29.35445 -1.23453,3.09993 -5.51665,11.33306 -5.76368,11.08186 -0.0583,-0.0594 0.33943,-1.77459 0.88344,-3.81148 3.04936,-11.40849 3.17261,-23.08562 0.33315,-31.54265 -3.22244,-9.59727 -10.61586,-17.756516 -20.107697,-22.190576 -1.67019,-0.78018 -4.02234,-1.70185 -5.22704,-2.04808 l -2.19037,-0.62961 -1.24584,3.0309 c -1.81209,4.40823 -3.35713,10.032526 -4.08074,14.854936 -1.85157,12.33862 0.62458,23.51671 7.47301,33.73547 1.79728,2.68175 9.648127,10.81559 10.439337,10.81559 0.24857,0 0.452,-0.53202 0.452,-1.18248 0,-5.7782 1.51968,-18.08842 3.1549,-25.55692 2.12917,-9.72441 2.24603,-9.68521 2.29346,0.76881 0.0589,12.9208 1.00784,22.45544 3.25862,32.72713 2.00471,9.14892 5.83967,18.68493 9.00257,22.386 1.23625,1.44654 1.25933,1.45408 1.27991,0.41715 0.0343,-1.82859 3.67142,-16.05695 5.50567,-21.54988 5.20704,-15.59335 11.50701,-26.67784 19.90215,-35.01675 13.8823,-13.78939 32.69472,-16.94846 53.1959,-8.93286 6.33237,2.47586 6.1202,2.23174 4.7887,5.50858 -3.90223,9.6035 -9.82282,19.27694 -16.37422,26.75333 -5.24561,5.98625 -13.43464,11.27929 -19.70889,12.73908 -3.2717,0.76116 -10.31545,0.78641 -13.30195,0.0457 l -2.11146,-0.5223 1.47802,-0.25542 c 0.81293,-0.14057 2.90319,-0.46686 4.64515,-0.72521 15.50124,-2.29901 28.64987,-13.87939 35.00709,-30.8319 0.91453,-2.43872 1.79208,-5.13424 1.95026,-5.99002 0.28172,-1.52534 0.25543,-1.5646 -1.33802,-1.9906 -6.85952,-1.83374 -7.55496,-1.92123 -15.13849,-1.90363 -7.02277,0.0172 -7.88381,0.104 -11.3158,1.15419 -7.03353,2.15214 -12.17159,5.30378 -17.61075,10.80231 -5.5707,5.63145 -10.12362,12.85572 -13.33132,21.15343 -1.54728,4.00229 -3.60051,10.55711 -3.3069,10.55711 0.0851,0 0.65652,-0.99767 1.26967,-2.217 4.82269,-9.5907 12.51948,-17.4416 19.70758,-20.1021 4.87966,-1.80608 11.1266,-1.52585 16.14175,0.72424 l 1.68917,0.75778 -2.97358,0.27829 c -21.46686,2.01026 -35.22058,20.05335 -39.97413,52.44116 -0.77596,5.28715 -0.93299,8.25399 -0.94979,17.94715 -0.0228,11.8613 0.32687,16.06158 1.81186,21.90949 l 0.75223,2.96209 -2.3478,1.05225 c -2.12243,0.95127 -6.86375,2.01157 -8.47097,1.89442 -0.34857,-0.0286 -1.66093,-0.21657 -2.91672,-0.42515 z"
         id="path3951"
         inkscape:connector-curvature="0" />
      <path
         style="opacity:0.2;fill:#000000;fill-opacity:1;display:inline;enable-background:new"
         d="m 428.73802,80.94044 c -0.17268,-0.02871 -0.46836,-0.121407 -0.65709,-0.206096 -0.28836,-0.129414 -0.33831,-0.173304 -0.31291,-0.274966 0.23455,-0.939111 0.34639,-2.300897 0.30797,-3.749934 -0.057,-2.148415 -0.38377,-3.607564 -1.14862,-5.128142 -0.35263,-0.701045 -0.68941,-1.146596 -1.47812,-1.955559 -0.97898,-1.004091 -1.49427,-1.824491 -1.84441,-2.936481 -0.55984,-1.77788 -0.48478,-3.81697 0.22272,-6.051276 0.20472,-0.646531 0.59643,-1.6378 0.6472,-1.6378 0.0878,0 2.01762,1.214994 2.46956,1.554808 0.97793,0.735315 1.77263,1.623574 2.19334,2.451548 0.59058,1.162345 0.61419,2.654263 0.0638,4.036163 -0.16976,0.426234 -0.75853,1.558267 -0.7925,1.523734 -0.008,-0.0081 0.0466,-0.244009 0.12148,-0.524071 0.41927,-1.568643 0.43622,-3.174216 0.0458,-4.337037 -0.44309,-1.319601 -1.45967,-2.441477 -2.76477,-3.051146 -0.22965,-0.107282 -0.55307,-0.234002 -0.7187,-0.281614 l -0.30117,-0.08656 -0.17132,0.416741 c -0.24915,0.60612 -0.46158,1.379447 -0.56108,2.04251 -0.25459,1.696533 0.0859,3.233496 1.02753,4.638543 0.24711,0.368741 1.32658,1.487119 1.43537,1.487119 0.0342,0 0.0621,-0.07316 0.0621,-0.162583 0,-0.794487 0.20895,-2.487118 0.43378,-3.514013 0.29276,-1.337082 0.30883,-1.331692 0.31535,0.10571 0.008,1.776579 0.13858,3.087566 0.44805,4.499896 0.27565,1.257956 0.80295,2.56913 1.23784,3.078014 0.16998,0.198902 0.17315,0.199936 0.17598,0.0574 0.006,-0.251426 0.50481,-2.207789 0.75702,-2.963047 0.71595,-2.144047 1.58219,-3.668144 2.73648,-4.814722 1.90879,-1.896005 4.49545,-2.330368 7.31431,-1.228245 0.87069,0.340419 0.84152,0.306863 0.65845,0.757414 -0.53656,1.320458 -1.35062,2.650529 -2.25143,3.678521 -0.72126,0.823094 -1.84723,1.550874 -2.70992,1.751586 -0.44986,0.104665 -1.41835,0.108141 -1.82899,0.0066 l -0.29031,-0.07181 0.20321,-0.03512 c 0.11178,-0.01933 0.39919,-0.0642 0.6387,-0.09972 2.13139,-0.316103 3.93929,-1.908385 4.81339,-4.239311 0.12574,-0.335316 0.24641,-0.705941 0.26815,-0.823611 0.0387,-0.20973 0.0351,-0.215131 -0.18396,-0.273698 -0.94317,-0.252138 -1.0388,-0.264164 -2.08152,-0.261752 -0.9656,0.0022 -1.084,0.0143 -1.55589,0.158701 -0.96708,0.29591 -1.67356,0.729254 -2.42143,1.485292 -0.76596,0.77431 -1.39197,1.767632 -1.83303,2.908541 -0.21274,0.550307 -0.49505,1.451578 -0.45468,1.451578 0.0117,0 0.0903,-0.137173 0.17458,-0.304831 0.6631,-1.318698 1.72139,-2.398179 2.70973,-2.763991 0.67095,-0.248335 1.52989,-0.209795 2.21947,0.09958 l 0.23225,0.104203 -0.40887,0.03829 c -2.95164,0.276403 -4.84274,2.757284 -5.49633,7.210526 -0.1067,0.726966 -0.12829,1.134911 -0.1306,2.467689 -0.003,1.6309 0.0449,2.208431 0.24912,3.012496 l 0.1034,0.407274 -0.32281,0.144693 c -0.29183,0.13079 -0.94376,0.276584 -1.16475,0.26048 -0.0478,-0.0033 -0.22837,-0.02981 -0.40103,-0.05852 z"
         id="path3953"
         inkscape:connector-curvature="0" />
      <path
         inkscape:connector-curvature="0"
         id="path3955"
         d="m 425.92418,120.96216 c -0.10989,-0.0183 -0.29805,-0.0773 -0.41815,-0.13115 -0.1835,-0.0824 -0.21529,-0.11029 -0.19912,-0.17498 0.14926,-0.59762 0.22043,-1.46421 0.19598,-2.38632 -0.0363,-1.36718 -0.24422,-2.29572 -0.73094,-3.26337 -0.2244,-0.44612 -0.43872,-0.72965 -0.94062,-1.24444 -0.62299,-0.63897 -0.9509,-1.16104 -1.17372,-1.86867 -0.35626,-1.13138 -0.3085,-2.42899 0.14173,-3.85082 0.13028,-0.41143 0.37955,-1.04223 0.41186,-1.04223 0.0559,0 1.28394,0.77317 1.57153,0.98942 0.62232,0.46793 1.12804,1.03318 1.39577,1.56008 0.37582,0.73967 0.39085,1.68907 0.0406,2.56847 -0.10803,0.27123 -0.4827,0.99162 -0.50432,0.96964 -0.005,-0.005 0.0296,-0.15527 0.0773,-0.3335 0.26681,-0.99822 0.2776,-2.01995 0.0292,-2.75993 -0.28197,-0.83975 -0.92888,-1.55367 -1.7594,-1.94164 -0.14614,-0.0683 -0.35195,-0.14891 -0.45735,-0.17921 l -0.19166,-0.0551 -0.10902,0.2652 c -0.15855,0.38571 -0.29373,0.87783 -0.35705,1.29978 -0.16201,1.07961 0.0547,2.05768 0.65388,2.9518 0.15725,0.23466 0.84419,0.94635 0.91342,0.94635 0.0218,0 0.0395,-0.0466 0.0395,-0.10346 0,-0.50558 0.13297,-1.58271 0.27604,-2.23619 0.1863,-0.85087 0.19653,-0.84744 0.20068,0.0673 0.005,1.13055 0.0882,1.96481 0.28512,2.86357 0.17541,0.80052 0.51097,1.6349 0.78772,1.95874 0.10817,0.12657 0.11018,0.12723 0.11198,0.0365 0.004,-0.16 0.32125,-1.40496 0.48174,-1.88558 0.45561,-1.36439 1.00685,-2.33428 1.7414,-3.06392 1.21469,-1.20655 2.86074,-1.48296 4.65456,-0.78161 0.55408,0.21663 0.53552,0.19528 0.41902,0.48199 -0.34145,0.8403 -0.85949,1.68671 -1.43273,2.34088 -0.45899,0.52379 -1.17551,0.98692 -1.7245,1.11465 -0.28627,0.0666 -0.90258,0.0688 -1.1639,0.004 l -0.18474,-0.0457 0.12931,-0.0223 c 0.0711,-0.0123 0.25403,-0.0409 0.40645,-0.0635 1.35634,-0.20116 2.50682,-1.21443 3.06307,-2.69775 0.08,-0.21338 0.1568,-0.44923 0.17064,-0.52411 0.0246,-0.13347 0.0223,-0.1369 -0.11707,-0.17417 -0.6002,-0.16046 -0.66105,-0.16811 -1.3246,-0.16657 -0.61448,0.001 -0.68982,0.009 -0.99011,0.10099 -0.61542,0.1883 -1.065,0.46407 -1.54092,0.94518 -0.48742,0.49275 -0.88579,1.12486 -1.16647,1.85089 -0.13538,0.3502 -0.31503,0.92374 -0.28934,0.92374 0.007,0 0.0575,-0.0873 0.11109,-0.19399 0.42198,-0.83917 1.09544,-1.52611 1.72438,-1.7589 0.42697,-0.15803 0.97357,-0.13351 1.41239,0.0634 l 0.1478,0.0663 -0.26019,0.0244 c -1.87832,0.17589 -3.08175,1.75464 -3.49767,4.58852 -0.0679,0.46261 -0.0816,0.72221 -0.0831,1.57035 -0.002,1.03784 0.0286,1.40536 0.15853,1.91704 l 0.0658,0.25917 -0.20542,0.0921 c -0.18571,0.0832 -0.60058,0.17601 -0.74121,0.16576 -0.0304,-0.002 -0.14532,-0.019 -0.2552,-0.0372 z"
         style="opacity:0.2;fill:#000000;fill-opacity:1;display:inline;enable-background:new" />
      <path
         style="opacity:0.2;fill:#000000;fill-opacity:1;display:inline;enable-background:new"
         d="m 422.5173,154.97305 c -0.0785,-0.0131 -0.21289,-0.0552 -0.29868,-0.0937 -0.13107,-0.0589 -0.15378,-0.0788 -0.14223,-0.12498 0.10662,-0.42688 0.15745,-1.04588 0.13999,-1.70454 -0.0259,-0.97656 -0.17444,-1.63981 -0.52211,-2.331 -0.16028,-0.31866 -0.31337,-0.52118 -0.67187,-0.88889 -0.445,-0.45641 -0.67922,-0.82932 -0.83838,-1.33478 -0.25448,-0.80814 -0.22036,-1.73501 0.10123,-2.75061 0.0931,-0.29389 0.27111,-0.74446 0.29419,-0.74446 0.0399,0 0.91711,0.55227 1.12253,0.70673 0.44452,0.33424 0.80576,0.738 0.99699,1.11436 0.26845,0.52834 0.27918,1.20649 0.029,1.83464 -0.0772,0.19374 -0.34479,0.70832 -0.36023,0.69261 -0.004,-0.004 0.0211,-0.1109 0.0552,-0.23822 0.19058,-0.71302 0.19828,-1.44284 0.0208,-1.9714 -0.20141,-0.59983 -0.66349,-1.10977 -1.25672,-1.3869 -0.10439,-0.0488 -0.2514,-0.10636 -0.32669,-0.12801 l -0.1369,-0.0394 -0.0779,0.18944 c -0.11325,0.27551 -0.20981,0.62702 -0.25504,0.92842 -0.11572,0.77116 0.0391,1.46979 0.46706,2.10845 0.11233,0.16761 0.603,0.67597 0.65245,0.67597 0.0156,0 0.0282,-0.0333 0.0282,-0.0739 0,-0.36113 0.095,-1.13051 0.19717,-1.59729 0.13308,-0.60777 0.14038,-0.60533 0.14335,0.0481 0.004,0.80753 0.063,1.40344 0.20366,2.04542 0.12529,0.57181 0.36498,1.1678 0.56266,1.39912 0.0773,0.0904 0.0787,0.0909 0.08,0.0261 0.003,-0.11429 0.22946,-1.00355 0.3441,-1.34686 0.32544,-0.97457 0.71918,-1.66736 1.24387,-2.18853 0.86764,-0.86184 2.0434,-1.05928 3.32472,-0.5583 0.39577,0.15474 0.38252,0.13949 0.2993,0.34428 -0.24389,0.60022 -0.61393,1.20481 -1.02339,1.67207 -0.32785,0.37414 -0.83966,0.70495 -1.2318,0.79619 -0.20448,0.0476 -0.6447,0.0491 -0.83136,0.003 l -0.13196,-0.0326 0.0924,-0.0159 c 0.0508,-0.009 0.18146,-0.0292 0.29033,-0.0454 0.96882,-0.14369 1.7906,-0.86746 2.18793,-1.92698 0.0571,-0.15242 0.112,-0.32089 0.12189,-0.37437 0.0176,-0.0953 0.0159,-0.0978 -0.0836,-0.12441 -0.42872,-0.11462 -0.47218,-0.12008 -0.94615,-0.11898 -0.43892,7.1e-4 -0.49273,0.006 -0.70723,0.0721 -0.43959,0.1345 -0.76072,0.33148 -1.10067,0.67513 -0.34816,0.35197 -0.63271,0.80348 -0.8332,1.32208 -0.0967,0.25014 -0.22502,0.65982 -0.20667,0.65982 0.005,0 0.0411,-0.0624 0.0793,-0.13857 0.30142,-0.59941 0.78246,-1.09009 1.23171,-1.25637 0.30498,-0.11288 0.69542,-0.0954 1.00886,0.0453 l 0.10557,0.0474 -0.18585,0.0174 c -1.34167,0.12563 -2.20127,1.25332 -2.49836,3.27754 -0.0485,0.33044 -0.0583,0.51587 -0.0594,1.12169 -0.001,0.74133 0.0204,1.00384 0.11324,1.36933 l 0.047,0.18513 -0.14673,0.0658 c -0.13265,0.0594 -0.42899,0.12572 -0.52944,0.1184 -0.0217,-0.001 -0.1038,-0.0136 -0.18229,-0.0266 z"
         id="path3957"
         inkscape:connector-curvature="0" />
      <path
         style="fill:#ffffff;fill-opacity:1;display:inline;enable-background:new"
         d="m 327.10354,106.83722 c -0.47092,-0.0782 -1.27733,-0.3311 -1.79204,-0.56208 -0.78645,-0.35294 -0.92267,-0.47264 -0.85341,-0.74991 0.63968,-2.56122 0.94471,-6.275184 0.83994,-10.227104 -0.15533,-5.85935 -1.04668,-9.83885 -3.13264,-13.98589 -0.96171,-1.91195 -1.88018,-3.12709 -4.03125,-5.33336 -2.66992,-2.73844 -4.07527,-4.9759 -5.03022,-8.00861 -1.5268,-4.84878 -1.32211,-10.40995 0.60744,-16.50353 0.55834,-1.76327 1.62665,-4.46674 1.76508,-4.46674 0.23947,0 5.50264,3.31363 6.7352,4.2404 2.66709,2.00541 4.83446,4.42794 5.98183,6.68606 1.61071,3.17004 1.67509,7.23892 0.17416,11.00775 -0.46295,1.16246 -2.0687,4.24983 -2.16136,4.15565 -0.0219,-0.0223 0.12715,-0.66548 0.3313,-1.42929 1.14349,-4.27813 1.18972,-8.65698 0.12488,-11.82832 -1.20841,-3.59892 -3.9809,-6.65859 -7.54028,-8.32133 -0.62631,-0.29258 -1.50836,-0.63819 -1.96012,-0.76804 l -0.82137,-0.23608 -0.4672,1.13657 c -0.67951,1.65306 -1.25888,3.76214 -1.53025,5.5705 -0.69432,4.62692 0.23423,8.81865 2.80235,12.65061 0.67397,1.00566 3.61799,4.05579 3.91469,4.05579 0.0932,0 0.16942,-0.19954 0.16942,-0.44341 0,-2.16679 0.56986,-6.78307 1.18306,-9.5837 0.79842,-3.6466 0.84226,-3.6319 0.86003,0.2883 0.022,4.84523 0.37796,8.42066 1.22197,12.27248 0.75176,3.4308 2.18984,7.00674 3.37592,8.39461 0.46359,0.54246 0.47225,0.54528 0.47996,0.15654 0.0136,-0.68571 1.37675,-6.02126 2.06458,-8.08106 1.95261,-5.84742 4.31508,-10.00406 7.46319,-13.1311 5.2058,-5.17094 12.26034,-6.35557 19.94817,-3.34977 2.37461,0.92842 2.29504,0.8369 1.79575,2.06568 -1.46333,3.60126 -3.68351,7.22874 -6.14026,10.03236 -1.96707,2.24481 -5.03791,4.22967 -7.39071,4.77707 -1.22688,0.28544 -3.86824,0.29492 -4.98816,0.0179 l -0.79178,-0.19585 0.55424,-0.0958 c 0.30484,-0.0527 1.08869,-0.17507 1.7419,-0.27195 5.81289,-0.8621 10.74355,-5.2047 13.12747,-11.56179 0.34294,-0.9145 0.67203,-1.9253 0.73132,-2.24622 0.10566,-0.57199 0.0958,-0.58672 -0.50173,-0.74645 -2.57229,-0.68765 -2.83307,-0.72045 -5.67686,-0.71387 -2.63348,0.006 -2.95638,0.039 -4.24336,0.43282 -2.63752,0.80703 -4.56426,1.98888 -6.60393,4.05081 -2.08898,2.11176 -3.79629,4.82083 -4.99918,7.93241 -0.5802,1.50084 -1.35014,3.95886 -1.24005,3.95886 0.0319,0 0.24619,-0.37411 0.47612,-0.83136 1.80847,-3.59646 4.69473,-6.54051 7.39022,-7.53818 1.82985,-0.67728 4.17243,-0.57217 6.05309,0.27158 l 0.63342,0.28418 -1.11508,0.10442 c -8.04996,0.75383 -13.20751,7.51989 -14.99007,19.66513 -0.29099,1.98265 -0.34987,3.09521 -0.35618,6.73007 -0.008,4.447934 0.12255,6.023014 0.67945,8.215944 l 0.28208,1.11075 -0.88042,0.3946 c -0.7959,0.35672 -2.57386,0.75433 -3.17657,0.7104 -0.13064,-0.01 -0.62283,-0.0813 -1.09375,-0.15944 z"
         id="path3145"
         inkscape:connector-curvature="0" />
      <path
         inkscape:connector-curvature="0"
         id="path3933"
         d="m 314.069,192.89148 c -0.31395,-0.0521 -0.85155,-0.22073 -1.19469,-0.37472 -0.5243,-0.23529 -0.61512,-0.31509 -0.56894,-0.49994 0.42645,-1.70748 0.6298,-4.18345 0.55996,-6.81807 -0.10356,-3.90623 -0.69779,-6.55923 -2.08843,-9.32392 -0.64114,-1.27464 -1.25345,-2.08473 -2.6875,-3.55558 -1.77994,-1.82561 -2.71684,-3.31726 -3.35348,-5.33906 -1.01786,-3.23252 -0.8814,-6.93997 0.40496,-11.00235 0.37223,-1.17552 1.08444,-2.97783 1.17672,-2.97783 0.15965,0 3.66843,2.20908 4.49014,2.82693 1.77805,1.33694 3.22297,2.95197 3.98788,4.45737 1.07381,2.11336 1.11673,4.82595 0.11611,7.33851 -0.30864,0.77497 -1.37914,2.83322 -1.44091,2.77043 -0.0146,-0.0149 0.0848,-0.44365 0.22087,-0.95286 0.76232,-2.85208 0.79314,-5.77132 0.0833,-7.88554 -0.80561,-2.39928 -2.65393,-4.43906 -5.02685,-5.54756 -0.41754,-0.19505 -1.00557,-0.42546 -1.30675,-0.51202 l -0.54758,-0.15739 -0.31146,0.75771 c -0.45301,1.10204 -0.83926,2.5081 -1.02017,3.71367 -0.46288,3.08461 0.15615,5.8791 1.86823,8.43374 0.44932,0.67044 2.412,2.70386 2.6098,2.70386 0.0621,0 0.11294,-0.13303 0.11294,-0.29561 0,-1.44453 0.37991,-4.52204 0.78871,-6.38913 0.53228,-2.43107 0.5615,-2.42127 0.57335,0.1922 0.0147,3.23015 0.25197,5.61377 0.81465,8.18165 0.50117,2.2872 1.45989,4.67116 2.25061,5.59641 0.30906,0.36164 0.31483,0.36352 0.31997,0.10436 0.009,-0.45714 0.91784,-4.01418 1.37639,-5.38738 1.30174,-3.89828 2.87672,-6.66937 4.97546,-8.75406 3.47053,-3.44729 8.17356,-4.23705 13.29878,-2.23318 1.58307,0.61895 1.53002,0.55793 1.19716,1.37712 -0.97555,2.40083 -2.45567,4.81916 -4.0935,6.68824 -1.31138,1.49654 -3.35861,2.81978 -4.92714,3.18471 -0.81792,0.19029 -2.57883,0.1966 -3.32544,0.0119 l -0.52785,-0.13058 0.36949,-0.0639 c 0.20323,-0.0351 0.72579,-0.11672 1.16127,-0.1813 3.87525,-0.57473 7.16236,-3.46979 8.75164,-7.70785 0.22863,-0.60967 0.44802,-1.28354 0.48755,-1.49748 0.0704,-0.38133 0.0639,-0.39115 -0.33449,-0.49764 -1.71486,-0.45843 -1.88871,-0.4803 -3.78457,-0.47591 -1.75566,0.004 -1.97092,0.026 -2.82891,0.28855 -1.75835,0.53801 -3.04284,1.32592 -4.40262,2.70053 -1.39265,1.40784 -2.53086,3.21388 -3.33278,5.28828 -0.3868,1.00056 -0.9001,2.63924 -0.8267,2.63924 0.0213,0 0.16412,-0.24942 0.31741,-0.55424 1.20565,-2.39764 3.12982,-4.36034 4.92681,-5.02545 1.2199,-0.45152 2.78162,-0.38145 4.03539,0.18105 l 0.42228,0.18945 -0.74338,0.0696 c -5.36664,0.50256 -8.80501,5.01326 -9.99338,13.11008 -0.19399,1.32176 -0.23325,2.06347 -0.23745,4.48671 -0.005,2.96529 0.0817,4.01534 0.45296,5.4773 l 0.18806,0.7405 -0.58695,0.26306 c -0.5306,0.23782 -1.71591,0.50289 -2.11771,0.4736 -0.0871,-0.007 -0.41522,-0.0542 -0.72917,-0.10629 z"
         style="fill:#ffffff;fill-opacity:1;display:inline;enable-background:new" />
      <path
         style="fill:#ffffff;fill-opacity:1;display:inline;enable-background:new"
         d="m 307.84826,258.92427 c -0.21976,-0.0365 -0.59608,-0.15451 -0.83628,-0.2623 -0.36701,-0.1647 -0.43059,-0.22056 -0.39826,-0.34996 0.29851,-1.19524 0.44086,-2.92842 0.39197,-4.77266 -0.0725,-2.73436 -0.48845,-4.59147 -1.4619,-6.52676 -0.4488,-0.89225 -0.87742,-1.45931 -1.88126,-2.48891 -1.24596,-1.27793 -1.90179,-2.32208 -2.34744,-3.73735 -0.7125,-2.26277 -0.61698,-4.85799 0.28348,-7.70166 0.26056,-0.82286 0.7591,-2.08448 0.8237,-2.08448 0.11176,0 2.56791,1.54636 3.14311,1.97885 1.24463,0.93586 2.25608,2.06638 2.79152,3.12017 0.75167,1.47935 0.78171,3.37817 0.0813,5.13696 -0.21604,0.54248 -0.9654,1.98326 -1.00863,1.9393 -0.0102,-0.0104 0.0594,-0.31055 0.1546,-0.667 0.53363,-1.99646 0.5552,-4.03993 0.0583,-5.51989 -0.56392,-1.6795 -1.85775,-3.10735 -3.5188,-3.8833 -0.29228,-0.13653 -0.7039,-0.29782 -0.91472,-0.35841 l -0.38331,-0.11018 -0.21802,0.5304 c -0.31711,0.77143 -0.58749,1.75567 -0.71412,2.59958 -0.32402,2.15923 0.1093,4.11537 1.30776,5.90363 0.31452,0.4693 1.6884,1.8927 1.82686,1.8927 0.0435,0 0.0791,-0.0931 0.0791,-0.20693 0,-1.01117 0.26594,-3.16543 0.5521,-4.4724 0.3726,-1.70175 0.39305,-1.69489 0.40135,0.13454 0.0103,2.26111 0.17637,3.92965 0.57025,5.72717 0.35082,1.60104 1.02193,3.26982 1.57543,3.9175 0.21634,0.25314 0.22038,0.25446 0.22398,0.073 0.006,-0.32 0.64249,-2.80993 0.96348,-3.77118 0.91122,-2.7288 2.0137,-4.66856 3.48283,-6.12785 2.42937,-2.41311 5.7215,-2.96594 9.30916,-1.56323 1.10815,0.43327 1.07102,0.39055 0.83801,0.96399 -0.68288,1.68059 -1.71897,3.37342 -2.86545,4.68177 -0.91797,1.04758 -2.35103,1.97385 -3.44901,2.22931 -0.57254,0.1332 -1.80518,0.13762 -2.32781,0.008 l -0.3695,-0.0914 0.25865,-0.0447 c 0.14226,-0.0246 0.50805,-0.0817 0.81289,-0.12691 2.71268,-0.40232 5.01366,-2.42886 6.12616,-5.39551 0.16004,-0.42677 0.31361,-0.89848 0.34129,-1.04824 0.0493,-0.26693 0.0447,-0.2738 -0.23415,-0.34835 -1.2004,-0.3209 -1.3221,-0.33621 -2.6492,-0.33313 -1.22897,0.003 -1.37965,0.0182 -1.98024,0.20198 -1.23085,0.37662 -2.13,0.92815 -3.08184,1.89038 -0.97486,0.98549 -1.77161,2.24972 -2.33295,3.7018 -0.27077,0.70039 -0.63008,1.84747 -0.5787,1.84747 0.0149,0 0.11489,-0.17459 0.22219,-0.38797 0.84396,-1.67835 2.19088,-3.05224 3.44878,-3.51782 0.85393,-0.31606 1.94713,-0.26702 2.82477,0.12674 l 0.2956,0.13261 -0.52037,0.0487 c -3.75665,0.35179 -6.16352,3.50929 -6.99538,9.17708 -0.13579,0.92524 -0.16327,1.44443 -0.16621,3.14071 -0.004,2.0757 0.0572,2.81074 0.31707,3.83411 l 0.13164,0.51836 -0.41086,0.18414 c -0.37142,0.16647 -1.20114,0.35202 -1.4824,0.33152 -0.061,-0.005 -0.29066,-0.0379 -0.51042,-0.0744 z"
         id="path3935"
         inkscape:connector-curvature="0" />
      <path
         inkscape:connector-curvature="0"
         id="path3937"
         d="m 120.27546,236.5683 c -1.25579,-0.20858 -3.40622,-0.88293 -4.77881,-1.49888 -2.09723,-0.94116 -2.46055,-1.26036 -2.2758,-1.9998 1.70579,-6.83003 2.51923,-16.73405 2.23986,-27.2727 -0.41429,-15.62512 -2.79118,-26.23732 -8.35383,-37.29627 -2.5646,-5.09863 -5.01389,-8.33902 -10.750197,-14.22253 -7.11986,-7.30255 -10.86751,-13.26921 -13.41412,-21.35657 -4.07148,-12.93029 -3.52565,-27.76031 1.61991,-44.010067 1.48893,-4.70212 4.33777,-11.911471 4.70692,-11.911471 0.63864,0 14.673957,8.836461 17.960867,11.307861 7.11226,5.34785 12.89205,11.808047 15.95175,17.829777 4.29531,8.45354 4.46697,19.30409 0.46458,29.35445 -1.23453,3.09993 -5.51665,11.33306 -5.76368,11.08186 -0.0583,-0.0594 0.33943,-1.77459 0.88344,-3.81148 3.04936,-11.40849 3.17261,-23.08562 0.33315,-31.54265 -3.22244,-9.59727 -10.61586,-17.756517 -20.107697,-22.190577 -1.67019,-0.78018 -4.02234,-1.70185 -5.22704,-2.04808 l -2.19037,-0.62961 -1.24584,3.0309 c -1.81209,4.40823 -3.35713,10.03253 -4.08074,14.854937 -1.85157,12.33862 0.62458,23.51671 7.47301,33.73547 1.79728,2.68175 9.648127,10.81559 10.439337,10.81559 0.24857,0 0.452,-0.53201 0.452,-1.18248 0,-5.7782 1.51968,-18.08842 3.1549,-25.55692 2.12917,-9.72441 2.24603,-9.68521 2.29346,0.76881 0.0589,12.9208 1.00784,22.45544 3.25862,32.72713 2.00471,9.14892 5.83967,18.68494 9.00257,22.38601 1.23625,1.44654 1.25933,1.45408 1.27991,0.41715 0.0343,-1.82859 3.67142,-16.05695 5.50567,-21.54988 5.20704,-15.59336 11.50701,-26.67785 19.90215,-35.01676 13.8823,-13.78939 32.69472,-16.94846 53.1959,-8.93286 6.33237,2.47586 6.1202,2.23174 4.7887,5.50858 -3.90223,9.6035 -9.82282,19.27694 -16.37422,26.75333 -5.24561,5.98626 -13.43464,11.2793 -19.70889,12.73909 -3.2717,0.76116 -10.31545,0.78641 -13.30195,0.0457 l -2.11146,-0.5223 1.47802,-0.25543 c 0.81293,-0.14057 2.90319,-0.46686 4.64515,-0.72521 15.50124,-2.299 28.64987,-13.87939 35.00709,-30.8319 0.91453,-2.43872 1.79208,-5.13424 1.95026,-5.99002 0.28172,-1.52534 0.25543,-1.5646 -1.33802,-1.9906 -6.85952,-1.83374 -7.55496,-1.92123 -15.13849,-1.90363 -7.02277,0.0172 -7.88381,0.104 -11.3158,1.15419 -7.03353,2.15214 -12.17159,5.30378 -17.61075,10.80231 -5.5707,5.63145 -10.12362,12.85572 -13.33132,21.15344 -1.54728,4.00228 -3.60051,10.55711 -3.3069,10.55711 0.0851,0 0.65652,-0.99767 1.26967,-2.217 4.82269,-9.5907 12.51948,-17.44161 19.70758,-20.10211 4.87966,-1.80608 11.1266,-1.52585 16.14175,0.72424 l 1.68917,0.75778 -2.97358,0.27829 c -21.46686,2.01026 -35.22058,20.05335 -39.97413,52.44116 -0.77596,5.28715 -0.93299,8.25399 -0.94979,17.94715 -0.0228,11.8613 0.32687,16.06158 1.81186,21.90949 l 0.75223,2.96209 -2.3478,1.05225 c -2.12243,0.95127 -6.86375,2.01157 -8.47097,1.89442 -0.34857,-0.0286 -1.66093,-0.21657 -2.91672,-0.42515 z"
         style="fill:#ffffff;fill-opacity:1;display:inline;enable-background:new" />
      <path
         inkscape:connector-curvature="0"
         id="path3939"
         d="m 428.73802,79.940259 c -0.17268,-0.02871 -0.46836,-0.121407 -0.65709,-0.206096 -0.28836,-0.129414 -0.33831,-0.173304 -0.31291,-0.274966 0.23455,-0.939111 0.34639,-2.300897 0.30797,-3.749934 -0.057,-2.148415 -0.38377,-3.607564 -1.14862,-5.128142 -0.35263,-0.701045 -0.68941,-1.146596 -1.47812,-1.955559 -0.97898,-1.004091 -1.49427,-1.824491 -1.84441,-2.936481 -0.55984,-1.77788 -0.48478,-3.81697 0.22272,-6.051276 0.20472,-0.646531 0.59643,-1.6378 0.6472,-1.6378 0.0878,0 2.01762,1.214994 2.46956,1.554808 0.97793,0.735315 1.77263,1.623574 2.19334,2.451548 0.59058,1.162345 0.61419,2.654263 0.0638,4.036163 -0.16976,0.426234 -0.75853,1.558267 -0.7925,1.523734 -0.008,-0.0081 0.0466,-0.244009 0.12148,-0.524071 0.41927,-1.568643 0.43622,-3.174216 0.0458,-4.337037 -0.44309,-1.319601 -1.45967,-2.441477 -2.76477,-3.051146 -0.22965,-0.107282 -0.55307,-0.234002 -0.7187,-0.281614 l -0.30117,-0.08656 -0.17132,0.416741 c -0.24915,0.60612 -0.46158,1.379447 -0.56108,2.04251 -0.25459,1.696533 0.0859,3.233496 1.02753,4.638543 0.24711,0.368741 1.32658,1.487119 1.43537,1.487119 0.0342,0 0.0621,-0.07316 0.0621,-0.162583 0,-0.794487 0.20895,-2.487118 0.43378,-3.514013 0.29276,-1.337082 0.30883,-1.331692 0.31535,0.10571 0.008,1.776579 0.13858,3.087566 0.44805,4.499896 0.27565,1.257956 0.80295,2.56913 1.23784,3.078014 0.16998,0.198902 0.17315,0.199936 0.17598,0.0574 0.006,-0.251426 0.50481,-2.207789 0.75702,-2.963047 0.71595,-2.144047 1.58219,-3.668144 2.73648,-4.814722 1.90879,-1.896005 4.49545,-2.330368 7.31431,-1.228245 0.87069,0.340419 0.84152,0.306863 0.65845,0.757414 -0.53656,1.320458 -1.35062,2.650529 -2.25143,3.678521 -0.72126,0.823094 -1.84723,1.550874 -2.70992,1.751586 -0.44986,0.104665 -1.41835,0.108141 -1.82899,0.0066 l -0.29031,-0.07181 0.20321,-0.03512 c 0.11178,-0.01933 0.39919,-0.0642 0.6387,-0.09972 2.13139,-0.316103 3.93929,-1.908385 4.81339,-4.239311 0.12574,-0.335316 0.24641,-0.705941 0.26815,-0.823611 0.0387,-0.20973 0.0351,-0.215131 -0.18396,-0.273698 -0.94317,-0.252138 -1.0388,-0.264164 -2.08152,-0.261752 -0.9656,0.0022 -1.084,0.0143 -1.55589,0.158701 -0.96708,0.29591 -1.67356,0.729254 -2.42143,1.485292 -0.76596,0.77431 -1.39197,1.767632 -1.83303,2.908541 -0.21274,0.550307 -0.49505,1.451578 -0.45468,1.451578 0.0117,0 0.0903,-0.137173 0.17458,-0.304831 0.6631,-1.318698 1.72139,-2.398179 2.70973,-2.763991 0.67095,-0.248335 1.52989,-0.209795 2.21947,0.09958 l 0.23225,0.104203 -0.40887,0.03829 c -2.95164,0.276403 -4.84274,2.757284 -5.49633,7.210526 -0.1067,0.726966 -0.12829,1.134911 -0.1306,2.467689 -0.003,1.6309 0.0449,2.208431 0.24912,3.012496 l 0.1034,0.407274 -0.32281,0.144693 c -0.29183,0.13079 -0.94376,0.276584 -1.16475,0.26048 -0.0478,-0.0033 -0.22837,-0.02981 -0.40103,-0.05852 z"
         style="fill:#ffffff;fill-opacity:1;display:inline;enable-background:new" />
      <path
         style="fill:#ffffff;fill-opacity:1;display:inline;enable-background:new"
         d="m 425.92418,119.96198 c -0.10989,-0.0183 -0.29805,-0.0773 -0.41815,-0.13115 -0.1835,-0.0824 -0.21529,-0.11029 -0.19912,-0.17498 0.14926,-0.59762 0.22043,-1.46421 0.19598,-2.38632 -0.0363,-1.36718 -0.24422,-2.29572 -0.73094,-3.26337 -0.2244,-0.44612 -0.43872,-0.72965 -0.94062,-1.24444 -0.62299,-0.63897 -0.9509,-1.16104 -1.17372,-1.86867 -0.35626,-1.13138 -0.3085,-2.42899 0.14173,-3.85082 C 422.92962,106.6308 423.17889,106 423.2112,106 c 0.0559,0 1.28394,0.77317 1.57153,0.98942 0.62232,0.46793 1.12804,1.03318 1.39577,1.56008 0.37582,0.73967 0.39085,1.68907 0.0406,2.56847 -0.10803,0.27123 -0.4827,0.99162 -0.50432,0.96964 -0.005,-0.005 0.0296,-0.15527 0.0773,-0.3335 0.26681,-0.99822 0.2776,-2.01995 0.0292,-2.75993 -0.28197,-0.83975 -0.92888,-1.55367 -1.7594,-1.94164 -0.14614,-0.0683 -0.35195,-0.14891 -0.45735,-0.17921 l -0.19166,-0.0551 -0.10902,0.2652 c -0.15855,0.38571 -0.29373,0.87783 -0.35705,1.29978 -0.16201,1.07961 0.0547,2.05768 0.65388,2.9518 0.15725,0.23466 0.84419,0.94635 0.91342,0.94635 0.0218,0 0.0395,-0.0466 0.0395,-0.10346 0,-0.50558 0.13297,-1.58271 0.27604,-2.23619 0.1863,-0.85087 0.19653,-0.84744 0.20068,0.0673 0.005,1.13055 0.0882,1.96481 0.28512,2.86357 0.17541,0.80052 0.51097,1.6349 0.78772,1.95874 0.10817,0.12657 0.11018,0.12723 0.11198,0.0365 0.004,-0.16 0.32125,-1.40496 0.48174,-1.88558 0.45561,-1.36439 1.00685,-2.33428 1.7414,-3.06392 1.21469,-1.20655 2.86074,-1.48296 4.65456,-0.78161 0.55408,0.21663 0.53552,0.19528 0.41902,0.48199 -0.34145,0.8403 -0.85949,1.68671 -1.43273,2.34088 -0.45899,0.52379 -1.17551,0.98692 -1.7245,1.11465 -0.28627,0.0666 -0.90258,0.0688 -1.1639,0.004 l -0.18474,-0.0457 0.12931,-0.0223 c 0.0711,-0.0123 0.25403,-0.0409 0.40645,-0.0635 1.35634,-0.20116 2.50682,-1.21443 3.06307,-2.69775 0.08,-0.21338 0.1568,-0.44923 0.17064,-0.52411 0.0246,-0.13347 0.0223,-0.1369 -0.11707,-0.17417 -0.6002,-0.16046 -0.66105,-0.16811 -1.3246,-0.16657 -0.61448,0.001 -0.68982,0.009 -0.99011,0.10099 -0.61542,0.1883 -1.065,0.46407 -1.54092,0.94518 -0.48742,0.49275 -0.88579,1.12486 -1.16647,1.85089 -0.13538,0.3502 -0.31503,0.92374 -0.28934,0.92374 0.007,0 0.0575,-0.0873 0.11109,-0.19399 0.42198,-0.83917 1.09544,-1.52611 1.72438,-1.7589 0.42697,-0.15803 0.97357,-0.13351 1.41239,0.0634 l 0.1478,0.0663 -0.26019,0.0244 c -1.87832,0.17589 -3.08175,1.75464 -3.49767,4.58852 -0.0679,0.46261 -0.0816,0.72221 -0.0831,1.57035 -0.002,1.03784 0.0286,1.40536 0.15853,1.91704 l 0.0658,0.25917 -0.20542,0.0921 c -0.18571,0.0832 -0.60058,0.17601 -0.74121,0.16576 -0.0304,-0.002 -0.14532,-0.019 -0.2552,-0.0372 z"
         id="path3941"
         inkscape:connector-curvature="0" />
      <path
         inkscape:connector-curvature="0"
         id="path3943"
         d="m 422.5173,153.97287 c -0.0785,-0.0131 -0.21289,-0.0552 -0.29868,-0.0937 -0.13107,-0.0589 -0.15378,-0.0788 -0.14223,-0.12498 0.10662,-0.42688 0.15745,-1.04588 0.13999,-1.70454 -0.0259,-0.97656 -0.17444,-1.63981 -0.52211,-2.331 -0.16028,-0.31866 -0.31337,-0.52118 -0.67187,-0.88889 -0.445,-0.45641 -0.67922,-0.82932 -0.83838,-1.33478 -0.25448,-0.80814 -0.22036,-1.73501 0.10123,-2.75061 0.0931,-0.29389 0.27111,-0.74446 0.29419,-0.74446 0.0399,0 0.91711,0.55227 1.12253,0.70673 0.44452,0.33424 0.80576,0.738 0.99699,1.11436 0.26845,0.52834 0.27918,1.20649 0.029,1.83464 -0.0772,0.19374 -0.34479,0.70832 -0.36023,0.69261 -0.004,-0.004 0.0211,-0.1109 0.0552,-0.23822 0.19058,-0.71302 0.19828,-1.44284 0.0208,-1.9714 -0.20141,-0.59983 -0.66349,-1.10977 -1.25672,-1.3869 -0.10439,-0.0488 -0.2514,-0.10636 -0.32669,-0.12801 l -0.1369,-0.0394 -0.0779,0.18944 c -0.11325,0.27551 -0.20981,0.62702 -0.25504,0.92842 -0.11572,0.77116 0.0391,1.46979 0.46706,2.10845 0.11233,0.16761 0.603,0.67597 0.65245,0.67597 0.0156,0 0.0282,-0.0333 0.0282,-0.0739 0,-0.36113 0.095,-1.13052 0.19717,-1.5973 0.13308,-0.60777 0.14038,-0.60532 0.14335,0.0481 0.004,0.80754 0.063,1.40345 0.20366,2.04543 0.12529,0.57181 0.36498,1.1678 0.56266,1.39912 0.0773,0.0904 0.0787,0.0909 0.08,0.0261 0.003,-0.11429 0.22946,-1.00355 0.3441,-1.34686 0.32544,-0.97457 0.71918,-1.66736 1.24387,-2.18854 0.86764,-0.86183 2.0434,-1.05927 3.32472,-0.5583 0.39577,0.15474 0.38252,0.13949 0.2993,0.34428 -0.24389,0.60023 -0.61393,1.20482 -1.02339,1.67208 -0.32785,0.37414 -0.83966,0.70495 -1.2318,0.79619 -0.20448,0.0476 -0.6447,0.0491 -0.83136,0.003 l -0.13196,-0.0326 0.0924,-0.0159 c 0.0508,-0.009 0.18146,-0.0292 0.29033,-0.0454 0.96882,-0.14369 1.7906,-0.86746 2.18793,-1.92698 0.0571,-0.15243 0.112,-0.3209 0.12189,-0.37438 0.0176,-0.0953 0.0159,-0.0978 -0.0836,-0.12441 -0.42872,-0.11462 -0.47218,-0.12008 -0.94615,-0.11898 -0.43892,7.1e-4 -0.49273,0.006 -0.70723,0.0721 -0.43959,0.1345 -0.76072,0.33148 -1.10067,0.67514 -0.34816,0.35197 -0.63271,0.80348 -0.8332,1.32208 -0.0967,0.25014 -0.22502,0.65982 -0.20667,0.65982 0.005,0 0.0411,-0.0624 0.0793,-0.13857 0.30142,-0.59941 0.78246,-1.09009 1.23171,-1.25637 0.30498,-0.11288 0.69542,-0.0954 1.00886,0.0453 l 0.10557,0.0474 -0.18585,0.0174 c -1.34167,0.12563 -2.20127,1.25332 -2.49836,3.27754 -0.0485,0.33044 -0.0583,0.51587 -0.0594,1.12169 -0.001,0.74133 0.0204,1.00384 0.11324,1.36933 l 0.047,0.18513 -0.14673,0.0658 c -0.13265,0.0594 -0.42899,0.12572 -0.52944,0.1184 -0.0217,-0.001 -0.1038,-0.0136 -0.18229,-0.0266 z"
         style="fill:#ffffff;fill-opacity:1;display:inline;enable-background:new" />
    </g>
    <g
       inkscape:groupmode="layer"
       id="layer5"
       inkscape:label="Highlights"
       style="display:inline"
       sodipodi:insensitive="true">
      <path
         style="opacity:0.13000004;color:#bebebe;fill:#ffffff;fill-opacity:1;fill-rule:nonzero;stroke:none;stroke-width:0;marker:none;visibility:visible;display:inline;overflow:visible;enable-background:accumulate"
         d="M 84,47 C 56.836703,47 35,68.836703 35,96 l 0,1 C 35,69.836703 56.836703,48 84,48 l 120,0 c 27.1633,0 49,21.836703 49,49 l 0,-1 C 253,68.836703 231.1633,47 204,47 L 84,47 z"
         id="rect3894"
         inkscape:connector-curvature="0" />
      <path
         style="opacity:0.13000004;color:#bebebe;fill:#ffffff;fill-opacity:1;fill-rule:nonzero;stroke:none;stroke-width:0;marker:none;visibility:visible;display:inline;overflow:visible;enable-background:accumulate"
         d="m 419,141 c -1.1253,0 -2,0.8747 -2,2 l 0,1 c 0,-1.1253 0.8747,-2 2,-2 l 10,0 c 1.1253,0 2,0.8747 2,2 l 0,-1 c 0,-1.1253 -0.8747,-2 -2,-2 l -10,0 z"
         id="rect3896"
         inkscape:connector-curvature="0" />
      <path
         style="opacity:0.13000004;color:#bebebe;fill:#ffffff;fill-opacity:1;fill-rule:nonzero;stroke:none;stroke-width:0;marker:none;visibility:visible;display:inline;overflow:visible;enable-background:accumulate"
         d="m 422,102 c -2.2333,0 -4,1.7667 -4,4 l 0,1 c 0,-2.2333 1.7667,-4 4,-4 l 12,0 c 2.2333,0 4,1.7667 4,4 l 0,-1 c 0,-2.2333 -1.7667,-4 -4,-4 l -12,0 z"
         id="rect3898"
         inkscape:connector-curvature="0" />
      <path
         style="opacity:0.13000004;color:#bebebe;fill:#ffffff;fill-opacity:1;fill-rule:nonzero;stroke:none;stroke-width:0;marker:none;visibility:visible;display:inline;overflow:visible;enable-background:accumulate"
         d="m 424,54 c -3.3413,0 -6,2.658703 -6,6 l 0,1 c 0,-3.341297 2.6587,-6 6,-6 l 16,0 c 3.3413,0 6,2.658703 6,6 l 0,-1 c 0,-3.341297 -2.6587,-6 -6,-6 l -16,0 z"
         id="rect3900"
         inkscape:connector-curvature="0" />
      <path
         style="opacity:0.13000004;color:#bebebe;fill:#ffffff;fill-opacity:1;fill-rule:nonzero;stroke:none;stroke-width:0;marker:none;visibility:visible;display:inline;overflow:visible;enable-background:accumulate"
         d="m 300,224 c -4.4493,0 -8,3.5507 -8,8 l 0,1 c 0,-4.4493 3.5507,-8 8,-8 l 24,0 c 4.4493,0 8,3.5507 8,8 l 0,-1 c 0,-4.4493 -3.5507,-8 -8,-8 l -24,0 z"
         id="rect3902"
         inkscape:connector-curvature="0" />
      <path
         style="opacity:0.13000004;color:#bebebe;fill:#ffffff;fill-opacity:1;fill-rule:nonzero;stroke:none;stroke-width:0;marker:none;visibility:visible;display:inline;overflow:visible;enable-background:accumulate"
         d="m 310,33 c -9.4353,0 -17,7.564703 -17,17 l 0,1 c 0,-9.435297 7.5647,-17 17,-17 l 52,0 c 9.4353,0 17,7.564703 17,17 l 0,-1 c 0,-9.435297 -7.5647,-17 -17,-17 l -52,0 z"
         id="rect3904"
         inkscape:connector-curvature="0" />
      <path
         style="opacity:0.13000004;color:#bebebe;fill:#ffffff;fill-opacity:1;fill-rule:nonzero;stroke:none;stroke-width:0;marker:none;visibility:visible;display:inline;overflow:visible;enable-background:accumulate"
         d="m 302.5,143 c -6.3883,0 -11.5,5.1117 -11.5,11.5 l 0,1 c 0,-6.3883 5.1117,-11.5 11.5,-11.5 l 35,0 c 6.3883,0 11.5,5.1117 11.5,11.5 l 0,-1 c 0,-6.3883 -5.1117,-11.5 -11.5,-11.5 l -35,0 z"
         id="rect3906"
         inkscape:connector-curvature="0" />
      <path
         id="path4085"
         d="m 204,266 c 27.1633,0 49,-21.8367 49,-49 l 0,-1 c 0,27.1633 -21.8367,49 -49,49 L 84,265 C 56.8367,265 35,243.1633 35,216 l 0,1 c 0,27.1633 21.8367,49 49,49 l 120,0 z"
         style="opacity:0.41;color:#bebebe;fill:#000000;fill-opacity:1;fill-rule:nonzero;stroke:none;stroke-width:0;marker:none;visibility:visible;display:inline;overflow:visible;enable-background:accumulate"
         inkscape:connector-curvature="0" />
      <path
         id="path4087"
         d="m 429,156 c 1.1253,0 2,-0.8747 2,-2 l 0,-1 c 0,1.1253 -0.8747,2 -2,2 l -10,0 c -1.1253,0 -2,-0.8747 -2,-2 l 0,1 c 0,1.1253 0.8747,2 2,2 l 10,0 z"
         style="opacity:0.3;color:#bebebe;fill:#000000;fill-opacity:1;fill-rule:nonzero;stroke:none;stroke-width:0;marker:none;visibility:visible;display:inline;overflow:visible;enable-background:accumulate"
         inkscape:connector-curvature="0" />
      <path
         id="path4089"
         d="m 434,123 c 2.2333,0 4,-1.7667 4,-4 l 0,-1 c 0,2.2333 -1.7667,4 -4,4 l -12,0 c -2.2333,0 -4,-1.7667 -4,-4 l 0,1 c 0,2.2333 1.7667,4 4,4 l 12,0 z"
         style="opacity:0.3;color:#bebebe;fill:#000000;fill-opacity:1;fill-rule:nonzero;stroke:none;stroke-width:0;marker:none;visibility:visible;display:inline;overflow:visible;enable-background:accumulate"
         inkscape:connector-curvature="0" />
      <path
         id="path4091"
         d="m 440,83 c 3.3413,0 6,-2.6587 6,-6 l 0,-1 c 0,3.3413 -2.6587,6 -6,6 l -16,0 c -3.3413,0 -6,-2.6587 -6,-6 l 0,1 c 0,3.3413 2.6587,6 6,6 l 16,0 z"
         style="opacity:0.41;color:#bebebe;fill:#000000;fill-opacity:1;fill-rule:nonzero;stroke:none;stroke-width:0;marker:none;visibility:visible;display:inline;overflow:visible;enable-background:accumulate"
         inkscape:connector-curvature="0" />
      <path
         id="path4093"
         d="m 324,265 c 4.4493,0 8,-3.5507 8,-8 l 0,-1 c 0,4.4493 -3.5507,8 -8,8 l -24,0 c -4.4493,0 -8,-3.5507 -8,-8 l 0,1 c 0,4.4493 3.5507,8 8,8 l 24,0 z"
         style="opacity:0.41;color:#bebebe;fill:#000000;fill-opacity:1;fill-rule:nonzero;stroke:none;stroke-width:0;marker:none;visibility:visible;display:inline;overflow:visible;enable-background:accumulate"
         inkscape:connector-curvature="0" />
      <path
         id="path4095"
         d="m 362,120 c 9.4353,0 17,-7.5647 17,-17 l 0,-1 c 0,9.4353 -7.5647,17 -17,17 l -52,0 c -9.4353,0 -17,-7.5647 -17,-17 l 0,1 c 0,9.4353 7.5647,17 17,17 l 52,0 z"
         style="opacity:0.41;color:#bebebe;fill:#000000;fill-opacity:1;fill-rule:nonzero;stroke:none;stroke-width:0;marker:none;visibility:visible;display:inline;overflow:visible;enable-background:accumulate"
         inkscape:connector-curvature="0" />
      <path
         id="path4097"
         d="m 337.5,202 c 6.3883,0 11.5,-5.1117 11.5,-11.5 l 0,-1 c 0,6.3883 -5.1117,11.5 -11.5,11.5 l -35,0 c -6.3883,0 -11.5,-5.1117 -11.5,-11.5 l 0,1 c 0,6.3883 5.1117,11.5 11.5,11.5 l 35,0 z"
         style="opacity:0.41;color:#bebebe;fill:#000000;fill-opacity:1;fill-rule:nonzero;stroke:none;stroke-width:0;marker:none;visibility:visible;display:inline;overflow:visible;enable-background:accumulate"
         inkscape:connector-curvature="0" />
      <path
         inkscape:connector-curvature="0"
         id="path4280"
         d="M 84,265 C 56.836703,265 35,243.1633 35,216 l 0,-1 c 0,27.1633 21.836703,49 49,49 l 120,0 c 27.1633,0 49,-21.8367 49,-49 l 0,1 c 0,27.1633 -21.8367,49 -49,49 l -120,0 z"
         style="opacity:0.1;color:#bebebe;fill:#ffffff;fill-opacity:1;fill-rule:nonzero;stroke:none;stroke-width:0;marker:none;visibility:visible;display:inline;overflow:visible;enable-background:accumulate" />
      <path
         style="opacity:0.1;color:#bebebe;fill:#ffffff;fill-opacity:1;fill-rule:nonzero;stroke:none;stroke-width:0;marker:none;visibility:visible;display:inline;overflow:visible;enable-background:accumulate"
         d="m 300,264 c -4.4493,0 -8,-3.5507 -8,-8 l 0,-1 c 0,4.4493 3.5507,8 8,8 l 24,0 c 4.4493,0 8,-3.5507 8,-8 l 0,1 c 0,4.4493 -3.5507,8 -8,8 l -24,0 z"
         id="path4294"
         inkscape:connector-curvature="0" />
      <path
         style="opacity:0.1;color:#bebebe;fill:#ffffff;fill-opacity:1;fill-rule:nonzero;stroke:none;stroke-width:0;marker:none;visibility:visible;display:inline;overflow:visible;enable-background:accumulate"
         d="m 302.5,201 c -6.3883,0 -11.5,-5.1117 -11.5,-11.5 l 0,-1 c 0,6.3883 5.1117,11.5 11.5,11.5 l 35,0 c 6.3883,0 11.5,-5.1117 11.5,-11.5 l 0,1 c 0,6.3883 -5.1117,11.5 -11.5,11.5 l -35,0 z"
         id="path4296"
         inkscape:connector-curvature="0" />
      <path
         style="opacity:0.1;color:#bebebe;fill:#ffffff;fill-opacity:1;fill-rule:nonzero;stroke:none;stroke-width:0;marker:none;visibility:visible;display:inline;overflow:visible;enable-background:accumulate"
         d="m 310,119 c -9.4353,0 -17,-7.5647 -17,-17 l 0,-1 c 0,9.4353 7.5647,17 17,17 l 52,0 c 9.4353,0 17,-7.5647 17,-17 l 0,1 c 0,9.4353 -7.5647,17 -17,17 l -52,0 z"
         id="path4298"
         inkscape:connector-curvature="0" />
      <path
         style="opacity:0.1;color:#bebebe;fill:#ffffff;fill-opacity:1;fill-rule:nonzero;stroke:none;stroke-width:0;marker:none;visibility:visible;display:inline;overflow:visible;enable-background:accumulate"
         d="m 424,82 c -3.3413,0 -6,-2.658703 -6,-6 l 0,-1 c 0,3.341297 2.6587,6 6,6 l 16,0 c 3.3413,0 6,-2.658703 6,-6 l 0,1 c 0,3.341297 -2.6587,6 -6,6 l -16,0 z"
         id="path4300"
         inkscape:connector-curvature="0" />
      <path
         style="opacity:0.1;color:#bebebe;fill:#ffffff;fill-opacity:1;fill-rule:nonzero;stroke:none;stroke-width:0;marker:none;visibility:visible;display:inline;overflow:visible;enable-background:accumulate"
         d="m 422,122 c -2.2333,0 -4,-1.7667 -4,-4 l 0,-1 c 0,2.2333 1.7667,4 4,4 l 12,0 c 2.2333,0 4,-1.7667 4,-4 l 0,1 c 0,2.2333 -1.7667,4 -4,4 l -12,0 z"
         id="path4302"
         inkscape:connector-curvature="0" />
      <path
         style="opacity:0.1;color:#bebebe;fill:#ffffff;fill-opacity:1;fill-rule:nonzero;stroke:none;stroke-width:0;marker:none;visibility:visible;display:inline;overflow:visible;enable-background:accumulate"
         d="m 419,154.5 c -1.1253,0 -2,-0.8747 -2,-2 l 0,-1 c 0,1.1253 0.8747,2 2,2 l 10,0 c 1.1253,0 2,-0.8747 2,-2 l 0,1 c 0,1.1253 -0.8747,2 -2,2 l -10,0 z"
         id="path4304"
         inkscape:connector-curvature="0" />
    </g>
    <g
       inkscape:groupmode="layer"
       id="layer3"
       inkscape:label="Border"
       style="display:inline"
       sodipodi:insensitive="true">
      <path
         style="opacity:0.41;color:#bebebe;fill:#000000;fill-opacity:1;fill-rule:nonzero;stroke:none;stroke-width:0;marker:none;visibility:visible;display:inline;overflow:visible;enable-background:accumulate"
         d="m 422,101 c -2.77,0 -5,2.23 -5,5 l 0,12 c 0,2.77 2.23,5 5,5 l 12,0 c 2.77,0 5,-2.23 5,-5 l 0,-12 c 0,-2.77 -2.23,-5 -5,-5 l -12,0 z m 0,1 12,0 c 2.2333,0 4,1.7667 4,4 l 0,12 c 0,2.2333 -1.7667,4 -4,4 l -12,0 c -2.2333,0 -4,-1.7667 -4,-4 l 0,-12 c 0,-2.2333 1.7667,-4 4,-4 z"
         id="rect4099"
         inkscape:connector-curvature="0" />
      <path
         style="opacity:0.41;color:#bebebe;fill:#000000;fill-opacity:1;fill-rule:nonzero;stroke:none;stroke-width:0;marker:none;visibility:visible;display:inline;overflow:visible;enable-background:accumulate"
         d="m 424,53 c -3.878,0 -7,3.122 -7,7 l 0,16 c 0,3.878 3.122,7 7,7 l 16,0 c 3.878,0 7,-3.122 7,-7 l 0,-16 c 0,-3.878 -3.122,-7 -7,-7 l -16,0 z m 0,1 16,0 c 3.3413,0 6,2.658703 6,6 l 0,16 c 0,3.341297 -2.6587,6 -6,6 l -16,0 c -3.3413,0 -6,-2.658703 -6,-6 l 0,-16 c 0,-3.341297 2.6587,-6 6,-6 z"
         id="rect4151"
         inkscape:connector-curvature="0" />
      <path
         style="opacity:0.41;color:#bebebe;fill:#000000;fill-opacity:1;fill-rule:nonzero;stroke:none;stroke-width:0;marker:none;visibility:visible;display:inline;overflow:visible;enable-background:accumulate"
         d="m 419,140 c -1.662,0 -3,1.338 -3,3 l 0,10 c 0,1.662 1.338,3 3,3 l 10,0 c 1.662,0 3,-1.338 3,-3 l 0,-10 c 0,-1.662 -1.338,-3 -3,-3 l -10,0 z m 0,1 10,0 c 1.1253,0 2,0.8747 2,2 l 0,10 c 0,1.1253 -0.8747,2 -2,2 l -10,0 c -1.1253,0 -2,-0.8747 -2,-2 l 0,-10 c 0,-1.1253 0.8747,-2 2,-2 z"
         id="rect4095"
         inkscape:connector-curvature="0" />
      <path
         style="opacity:0.41;color:#bebebe;fill:#000000;fill-opacity:1;fill-rule:nonzero;stroke:none;stroke-width:0;marker:none;visibility:visible;display:inline;overflow:visible;enable-background:accumulate"
         d="m 300,223 c -4.986,0 -9,4.014 -9,9 l 0,24 c 0,4.986 4.014,9 9,9 l 24,0 c 4.986,0 9,-4.014 9,-9 l 0,-24 c 0,-4.986 -4.014,-9 -9,-9 l -24,0 z m 0,1 24,0 c 4.4493,0 8,3.5507 8,8 l 0,24 c 0,4.4493 -3.5507,8 -8,8 l -24,0 c -4.4493,0 -8,-3.5507 -8,-8 l 0,-24 c 0,-4.4493 3.5507,-8 8,-8 z"
         id="rect4783"
         inkscape:connector-curvature="0" />
      <path
         style="opacity:0.41;color:#bebebe;fill:#000000;fill-opacity:1;fill-rule:nonzero;stroke:none;stroke-width:0;marker:none;visibility:visible;display:inline;overflow:visible;enable-background:accumulate"
         d="m 302.5,142 c -6.925,0 -12.5,5.575 -12.5,12.5 l 0,35 c 0,6.925 5.575,12.5 12.5,12.5 l 35,0 c 6.925,0 12.5,-5.575 12.5,-12.5 l 0,-35 c 0,-6.925 -5.575,-12.5 -12.5,-12.5 l -35,0 z m 0,1 35,0 c 6.3883,0 11.5,5.1117 11.5,11.5 l 0,35 c 0,6.3883 -5.1117,11.5 -11.5,11.5 l -35,0 c -6.3883,0 -11.5,-5.1117 -11.5,-11.5 l 0,-35 c 0,-6.3883 5.1117,-11.5 11.5,-11.5 z"
         id="rect4515"
         inkscape:connector-curvature="0" />
      <path
         style="opacity:0.41;color:#bebebe;fill:#000000;fill-opacity:1;fill-rule:nonzero;stroke:none;stroke-width:0;marker:none;visibility:visible;display:inline;overflow:visible;enable-background:accumulate"
         d="m 310,32 c -9.972,0 -18,8.028 -18,18 l 0,52 c 0,9.972 8.028,18 18,18 l 52,0 c 9.972,0 18,-8.028 18,-18 l 0,-52 c 0,-9.972 -8.028,-18 -18,-18 l -52,0 z m 0,1 52,0 c 9.4353,0 17,7.564703 17,17 l 0,52 c 0,9.4353 -7.5647,17 -17,17 l -52,0 c -9.4353,0 -17,-7.5647 -17,-17 l 0,-52 c 0,-9.435297 7.5647,-17 17,-17 z"
         id="rect4511"
         inkscape:connector-curvature="0" />
      <path
         style="opacity:0.41;color:#bebebe;fill:#000000;fill-opacity:1;fill-rule:nonzero;stroke:none;stroke-width:0;marker:none;visibility:visible;display:inline;overflow:visible;enable-background:accumulate"
         d="M 84,46 C 56.3,46 34,68.3 34,96 l 0,120 c 0,27.7 22.3,50 50,50 l 120,0 c 27.7,0 50,-22.3 50,-50 L 254,96 C 254,68.3 231.7,46 204,46 L 84,46 z m 0,1 120,0 c 27.1633,0 49,21.836703 49,49 l 0,120 c 0,27.1633 -21.8367,49 -49,49 L 84,265 C 56.836703,265 35,243.1633 35,216 L 35,96 C 35,68.836703 56.836703,47 84,47 z"
         id="rect4040"
         inkscape:connector-curvature="0" />
    </g>
  </g>
</svg>
