<?xml version="1.0" encoding="UTF-8" standalone="no"?>
<!-- Created with Inkscape (http://www.inkscape.org/) -->

<svg
   xmlns:dc="http://purl.org/dc/elements/1.1/"
   xmlns:cc="http://creativecommons.org/ns#"
   xmlns:rdf="http://www.w3.org/1999/02/22-rdf-syntax-ns#"
   xmlns:svg="http://www.w3.org/2000/svg"
   xmlns="http://www.w3.org/2000/svg"
   xmlns:xlink="http://www.w3.org/1999/xlink"
   xmlns:sodipodi="http://sodipodi.sourceforge.net/DTD/sodipodi-0.dtd"
   xmlns:inkscape="http://www.inkscape.org/namespaces/inkscape"
   inkscape:export-ydpi="90.000000"
   inkscape:export-xdpi="90.000000"
   width="480"
   height="300"
   id="svg11300"
   sodipodi:version="0.32"
   inkscape:version="0.48.4 r9939"
   sodipodi:docname="gummi.svg"
   inkscape:output_extension="org.inkscape.output.svg.inkscape"
   version="1.0"
   style="display:inline;enable-background:new"
   inkscape:export-filename="/home/sam/moka-next-template.png">
  <sodipodi:namedview
     stroke="#ef2929"
     fill="#f57900"
     id="base"
     pagecolor="#777777"
     bordercolor="#666666"
     borderopacity="0.25490196"
     inkscape:pageopacity="0"
     inkscape:pageshadow="2"
     inkscape:zoom="1"
     inkscape:cx="175"
     inkscape:cy="210"
     inkscape:current-layer="layer7"
     showgrid="false"
     inkscape:grid-bbox="true"
     inkscape:document-units="px"
     inkscape:showpageshadow="false"
     inkscape:window-width="1364"
     inkscape:window-height="700"
     inkscape:window-x="0"
     inkscape:window-y="28"
     width="400px"
     height="300px"
     inkscape:snap-nodes="true"
     inkscape:snap-bbox="true"
     gridtolerance="10000"
     inkscape:object-nodes="true"
     inkscape:snap-grids="true"
     showguides="true"
     inkscape:guide-bbox="true"
     inkscape:window-maximized="1"
     inkscape:bbox-nodes="true"
     inkscape:bbox-paths="true"
     inkscape:snap-bbox-edge-midpoints="true"
     inkscape:snap-bbox-midpoints="true">
    <inkscape:grid
       spacingy="1px"
       spacingx="1px"
       id="grid5883"
       type="xygrid"
       enabled="true"
       visible="true"
       empspacing="4"
       snapvisiblegridlinesonly="true"
       dotted="false"
       color="#000000"
       opacity="0.1254902"
       empcolor="#203ef3"
       empopacity="0.36470588" />
    <inkscape:grid
       type="xygrid"
       id="grid11592"
       empspacing="8"
       visible="true"
       enabled="false"
       spacingx="0.5px"
       spacingy="0.5px"
       color="#ff0000"
       opacity="0.1254902"
       empcolor="#ff0000"
       empopacity="0.25098039"
       snapvisiblegridlinesonly="true"
       dotted="true" />
  </sodipodi:namedview>
  <defs
     id="defs3">
    <linearGradient
       inkscape:collect="always"
       xlink:href="#outerBackgroundGradient"
       id="linearGradient5576"
       gradientUnits="userSpaceOnUse"
       gradientTransform="matrix(0,-1,1,0,-12,300)"
       x1="35"
       y1="156"
       x2="253"
       y2="156" />
    <linearGradient
       inkscape:collect="always"
       xlink:href="#outerBackgroundGradient"
       id="linearGradient5578"
       gradientUnits="userSpaceOnUse"
       gradientTransform="matrix(0,-1,1,0,276,572)"
       x1="417"
       y1="148"
       x2="431"
       y2="148" />
    <linearGradient
       inkscape:collect="always"
       xlink:href="#outerBackgroundGradient"
       id="linearGradient5580"
       gradientUnits="userSpaceOnUse"
       gradientTransform="matrix(0,-1,1,0,316,540)"
       x1="418"
       y1="112"
       x2="438"
       y2="112" />
    <linearGradient
       inkscape:collect="always"
       xlink:href="#outerBackgroundGradient"
       id="linearGradient5582"
       gradientUnits="userSpaceOnUse"
       gradientTransform="matrix(0,-1,1,0,364,500)"
       x1="418"
       y1="68"
       x2="446"
       y2="68" />
    <linearGradient
       inkscape:collect="always"
       xlink:href="#outerBackgroundGradient"
       id="linearGradient5584"
       gradientUnits="userSpaceOnUse"
       gradientTransform="matrix(0,-1,1,0,68,556)"
       x1="292"
       y1="244"
       x2="332"
       y2="244" />
    <linearGradient
       inkscape:collect="always"
       xlink:href="#outerBackgroundGradient"
       id="linearGradient5586"
       gradientUnits="userSpaceOnUse"
       gradientTransform="matrix(0,-1,1,0,260,412)"
       x1="293"
       y1="76"
       x2="379"
       y2="76" />
    <linearGradient
       inkscape:collect="always"
       xlink:href="#outerBackgroundGradient"
       id="linearGradient5588"
       gradientUnits="userSpaceOnUse"
       gradientTransform="matrix(0,-1,1,0,148,492)"
       x1="291"
       y1="172"
       x2="349"
       y2="172" />
    <linearGradient
       id="outerBackgroundGradient">
      <stop
         style="stop-color:#7cab4d;stop-opacity:1;"
         offset="0"
         id="stop3864-8-6" />
      <stop
         style="stop-color:#aedc88;stop-opacity:1;"
         offset="1"
         id="stop3866-9-1" />
    </linearGradient>
    <linearGradient
       y2="21.383718"
       x2="78.822388"
       y1="81.38372"
       x1="78.822388"
       gradientTransform="matrix(4,0,0,4,-50.47172,-50.99999)"
       gradientUnits="userSpaceOnUse"
       id="linearGradient3381"
       xlink:href="#linearGradient5200"
       inkscape:collect="always" />
    <linearGradient
       id="linearGradient5200">
      <stop
         style="stop-color:#000000;stop-opacity:1;"
         offset="0"
         id="stop5202" />
      <stop
         style="stop-color:#1b1b1b;stop-opacity:1;"
         offset="1"
         id="stop5204" />
    </linearGradient>
    <linearGradient
       inkscape:collect="always"
       xlink:href="#linearGradient5200"
       id="linearGradient3922"
       gradientUnits="userSpaceOnUse"
       gradientTransform="matrix(1.5,0,0,1.5,263.07311,-2)"
       x1="78.822388"
       y1="81.38372"
       x2="78.822388"
       y2="21.383718" />
    <linearGradient
       inkscape:collect="always"
       xlink:href="#linearGradient5200"
       id="linearGradient3926"
       gradientUnits="userSpaceOnUse"
       gradientTransform="translate(271.38208,120)"
       x1="78.822388"
       y1="81.38372"
       x2="78.822388"
       y2="21.383718" />
    <linearGradient
       inkscape:collect="always"
       xlink:href="#linearGradient5200"
       id="linearGradient3930"
       gradientUnits="userSpaceOnUse"
       gradientTransform="matrix(0.7,0,0,0.7,277.96746,207.6)"
       x1="78.822388"
       y1="81.38372"
       x2="78.822388"
       y2="21.383718" />
    <linearGradient
       inkscape:collect="always"
       xlink:href="#linearGradient5200"
       id="linearGradient3934"
       gradientUnits="userSpaceOnUse"
       gradientTransform="matrix(0.5,0,0,0.5,407.69103,42)"
       x1="78.822388"
       y1="81.38372"
       x2="78.822388"
       y2="21.383718" />
    <linearGradient
       inkscape:collect="always"
       xlink:href="#linearGradient5200"
       id="linearGradient3938"
       gradientUnits="userSpaceOnUse"
       gradientTransform="matrix(0.35,0,0,0.35,410.98372,93.8)"
       x1="78.822388"
       y1="81.38372"
       x2="78.822388"
       y2="21.383718" />
    <linearGradient
       inkscape:collect="always"
       xlink:href="#linearGradient5200"
       id="linearGradient3942"
       gradientUnits="userSpaceOnUse"
       gradientTransform="matrix(0.3,0,0,0.3,409.41461,132.4)"
       x1="78.822388"
       y1="81.38372"
       x2="78.822388"
       y2="21.383718" />
  </defs>
  <metadata
     id="metadata4">
    <rdf:RDF>
      <cc:Work
         rdf:about="">
        <dc:format>image/svg+xml</dc:format>
        <dc:type
           rdf:resource="http://purl.org/dc/dcmitype/StillImage" />
        <dc:creator>
          <cc:Agent>
            <dc:title>Sam Hewitt</dc:title>
          </cc:Agent>
        </dc:creator>
        <dc:source />
        <cc:license
           rdf:resource="" />
        <dc:title />
        <dc:subject>
          <rdf:Bag />
        </dc:subject>
        <dc:date />
        <dc:rights>
          <cc:Agent>
            <dc:title />
          </cc:Agent>
        </dc:rights>
        <dc:publisher>
          <cc:Agent>
            <dc:title />
          </cc:Agent>
        </dc:publisher>
        <dc:identifier />
        <dc:relation />
        <dc:language />
        <dc:coverage />
        <dc:description />
        <dc:contributor>
          <cc:Agent>
            <dc:title />
          </cc:Agent>
        </dc:contributor>
      </cc:Work>
      <cc:Work
         rdf:about="">
        <dc:format>image/svg+xml</dc:format>
        <dc:type
           rdf:resource="http://purl.org/dc/dcmitype/StillImage" />
      </cc:Work>
    </rdf:RDF>
  </metadata>
  <g
     style="display:inline"
     inkscape:groupmode="layer"
     inkscape:label="Icon"
     id="layer1">
    <g
       style="display:none"
       inkscape:label="Baseplate"
       id="layer7"
       inkscape:groupmode="layer">
      <text
         y="19.745117"
         xml:space="preserve"
         x="15.006836"
         style="font-style:normal;font-variant:normal;font-weight:normal;font-stretch:normal;line-height:0%;font-family:'DejaVu Sans';-inkscape-font-specification:'DejaVu Sans';display:inline;fill:#000000;fill-opacity:1;stroke:none;enable-background:new"
         inkscape:label="context"
         id="context"><tspan
           style="font-style:normal;font-variant:normal;font-weight:normal;font-stretch:normal;font-size:18px;line-height:1.25;font-family:'DejaVu Sans';-inkscape-font-specification:'DejaVu Sans'"
           y="19.745117"
           x="15.006836"
           sodipodi:role="line"
           id="tspan3933">apps</tspan></text>
      <text
         y="19.745117"
         xml:space="preserve"
         x="122.48828"
         style="font-style:normal;font-variant:normal;font-weight:bold;font-stretch:normal;line-height:0%;font-family:'DejaVu Sans';-inkscape-font-specification:'DejaVu Sans Bold';text-align:start;writing-mode:lr-tb;text-anchor:start;display:inline;fill:#000000;fill-opacity:1;stroke:none;enable-background:new"
         inkscape:label="icon-name"
         id="icon-name"
         inkscape:transform-center-y="-8.7802734"><tspan
           style="font-style:normal;font-variant:normal;font-weight:bold;font-stretch:normal;font-size:18px;line-height:1.25;font-family:'DejaVu Sans';-inkscape-font-specification:'DejaVu Sans Bold'"
           y="19.745117"
           x="122.48828"
           sodipodi:role="line"
           id="tspan3937">gummi</tspan></text>
      <rect
         style="fill:#eeeeec;fill-opacity:1;fill-rule:nonzero;stroke:none;stroke-width:2;marker:none;visibility:visible;display:inline;overflow:visible;enable-background:accumulate"
         id="rect16x16"
         width="16"
         height="16"
         x="416"
         y="140"
         inkscape:label="16x16" />
      <rect
         style="fill:#d4d4d4;fill-opacity:1;fill-rule:nonzero;stroke:none;stroke-width:2;marker:none;visibility:visible;display:inline;overflow:visible;enable-background:accumulate"
         id="rect24x24"
         width="24"
         height="24"
         x="416"
         y="100"
         inkscape:label="24x24" />
      <rect
         style="fill:#eeeeec;fill-opacity:1;fill-rule:nonzero;stroke:none;stroke-width:2;marker:none;visibility:visible;display:inline;overflow:visible;enable-background:accumulate"
         id="rect32x32"
         width="32"
         height="32"
         x="416"
         y="52"
         inkscape:label="32x32" />
      <rect
         inkscape:label="22x22"
         y="101"
         x="417"
         height="22"
         width="22"
         id="rect22x22"
         style="fill:#eeeeec;fill-opacity:1;fill-rule:nonzero;stroke:none;stroke-width:2;marker:none;visibility:visible;display:inline;overflow:visible;enable-background:accumulate" />
      <rect
         inkscape:label="48x48"
         y="220"
         x="288"
         height="48"
         width="48"
         id="rect48x48"
         style="fill:#eeeeec;fill-opacity:1;fill-rule:nonzero;stroke:none;stroke-width:2;marker:none;visibility:visible;display:inline;overflow:visible;enable-background:accumulate" />
      <rect
         style="fill:#eeeeec;fill-opacity:1;fill-rule:nonzero;stroke:none;stroke-width:2;marker:none;visibility:visible;display:inline;overflow:visible;enable-background:accumulate"
         id="rect256x256"
         width="256"
         height="256"
         x="16"
         y="28"
         inkscape:label="256x256" />
      <rect
         style="fill:#eeeeec;fill-opacity:1;fill-rule:nonzero;stroke:none;stroke-width:2;marker:none;visibility:visible;display:inline;overflow:visible;enable-background:accumulate"
         id="rect64x64"
         width="64"
         height="64"
         x="288"
         y="140"
         inkscape:label="64x64" />
      <rect
         style="fill:#eeeeec;fill-opacity:1;fill-rule:nonzero;stroke:none;stroke-width:2;marker:none;visibility:visible;display:inline;overflow:visible;enable-background:accumulate"
         id="rect96x96"
         width="96"
         height="96"
         x="288"
         y="28"
         inkscape:label="96x96" />
    </g>
    <g
       inkscape:groupmode="layer"
       id="layer4"
       inkscape:label="Shadow"
       style="display:inline"
       sodipodi:insensitive="true">
      <rect
         ry="50"
         y="47"
         x="34"
         height="220"
         width="220"
         id="rect4114"
         style="opacity:0.1;color:#bebebe;fill:#000000;fill-opacity:1;fill-rule:nonzero;stroke:none;stroke-width:0;marker:none;visibility:visible;display:inline;overflow:visible;enable-background:accumulate" />
      <rect
         style="opacity:0.1;color:#bebebe;fill:#000000;fill-opacity:1;fill-rule:nonzero;stroke:none;stroke-width:0;marker:none;visibility:visible;display:inline;overflow:visible;enable-background:accumulate"
         id="rect4120"
         width="30"
         height="30"
         x="417"
         y="54"
         ry="7" />
      <rect
         transform="scale(1,-1)"
         ry="9"
         y="-266"
         x="291"
         height="42"
         width="42"
         id="rect4122"
         style="opacity:0.1;color:#bebebe;fill:#000000;fill-opacity:1;fill-rule:nonzero;stroke:none;stroke-width:0;marker:none;visibility:visible;display:inline;overflow:visible;enable-background:accumulate" />
      <rect
         style="opacity:0.1;color:#bebebe;fill:#000000;fill-opacity:1;fill-rule:nonzero;stroke:none;stroke-width:0;marker:none;visibility:visible;display:inline;overflow:visible;enable-background:accumulate"
         id="rect4124"
         width="88"
         height="88"
         x="292"
         y="33"
         ry="18" />
      <rect
         ry="12.5"
         y="143"
         x="290"
         height="60"
         width="60"
         id="rect4126"
         style="opacity:0.1;color:#bebebe;fill:#000000;fill-opacity:1;fill-rule:nonzero;stroke:none;stroke-width:0;marker:none;visibility:visible;display:inline;overflow:visible;enable-background:accumulate" />
      <path
         id="path4268"
         d="m 422,101 c -2.77,0 -5,2.23 -5,5 l 0,12 c 0,2.77 2.23,5 5,5 l 12,0 c 2.77,0 5,-2.23 5,-5 l 0,-12 c 0,-2.77 -2.23,-5 -5,-5 z"
         style="opacity:0.1;color:#bebebe;fill:#000000;fill-opacity:1;fill-rule:nonzero;stroke:none;stroke-width:0;marker:none;visibility:visible;display:inline;overflow:visible;enable-background:accumulate"
         inkscape:connector-curvature="0"
         sodipodi:nodetypes="sssssssss" />
      <path
         id="path4270"
         d="m 419,140 c -1.662,0 -3,1.338 -3,3 l 0,10 c 0,1.662 1.338,3 3,3 l 10,0 c 1.662,0 3,-1.338 3,-3 l 0,-10 c 0,-1.662 -1.338,-3 -3,-3 z"
         style="opacity:0.1;color:#bebebe;fill:#000000;fill-opacity:1;fill-rule:nonzero;stroke:none;stroke-width:0;marker:none;visibility:visible;display:inline;overflow:visible;enable-background:accumulate"
         inkscape:connector-curvature="0"
         sodipodi:nodetypes="sssssssss" />
    </g>
    <g
       inkscape:groupmode="layer"
       id="layer2"
       inkscape:label="Background"
       style="display:inline">
      <path
         style="color:#bebebe;fill:url(#linearGradient5576);fill-opacity:1.0;fill-rule:nonzero;stroke:none;stroke-width:2;marker:none;visibility:visible;display:inline;overflow:visible;enable-background:accumulate"
         d="M 84 46.5 C 56.568735 46.5 34.5 68.568732 34.5 96 L 34.5 216 C 34.5 243.43127 56.568735 265.5 84 265.5 L 204 265.5 C 231.43127 265.5 253.5 243.43127 253.5 216 L 253.5 96 C 253.5 68.568732 231.43127 46.5 204 46.5 L 84 46.5 z "
         id="path4200" />
      <path
         style="color:#bebebe;fill:url(#linearGradient5578);fill-opacity:1.0;fill-rule:nonzero;stroke:none;stroke-width:2;marker:none;visibility:visible;display:inline;overflow:visible;enable-background:accumulate"
         d="M 419 140.5 C 417.6156 140.5 416.5 141.6156 416.5 143 L 416.5 153 C 416.5 154.3844 417.6156 155.5 419 155.5 L 429 155.5 C 430.3844 155.5 431.5 154.3844 431.5 153 L 431.5 143 C 431.5 141.6156 430.3844 140.5 429 140.5 L 419 140.5 z "
         id="path4202" />
      <path
         style="color:#bebebe;fill:url(#linearGradient5580);fill-opacity:1.0;fill-rule:nonzero;stroke:none;stroke-width:2;marker:none;visibility:visible;display:inline;overflow:visible;enable-background:accumulate"
         d="M 422 101.5 C 419.50301 101.5 417.5 103.50301 417.5 106 L 417.5 118 C 417.5 120.49699 419.50301 122.5 422 122.5 L 434 122.5 C 436.49699 122.5 438.5 120.49699 438.5 118 L 438.5 106 C 438.5 103.50301 436.49699 101.5 434 101.5 L 422 101.5 z "
         id="path4204" />
      <path
         style="color:#bebebe;fill:url(#linearGradient5582);fill-opacity:1.0;fill-rule:nonzero;stroke:none;stroke-width:2;marker:none;visibility:visible;display:inline;overflow:visible;enable-background:accumulate"
         d="M 424 53.5 C 420.39346 53.5 417.5 56.393464 417.5 60 L 417.5 76 C 417.5 79.606536 420.39346 82.5 424 82.5 L 440 82.5 C 443.60654 82.5 446.5 79.606536 446.5 76 L 446.5 60 C 446.5 56.393464 443.60654 53.5 440 53.5 L 424 53.5 z "
         id="path4206" />
      <path
         style="color:#bebebe;fill:url(#linearGradient5584);fill-opacity:1.0;fill-rule:nonzero;stroke:none;stroke-width:2;marker:none;visibility:visible;display:inline;overflow:visible;enable-background:accumulate"
         d="M 300 223.5 C 295.28469 223.5 291.5 227.28469 291.5 232 L 291.5 256 C 291.5 260.71531 295.28469 264.5 300 264.5 L 324 264.5 C 328.71531 264.5 332.5 260.71531 332.5 256 L 332.5 232 C 332.5 227.28469 328.71531 223.5 324 223.5 L 300 223.5 z "
         id="path4208" />
      <path
         style="color:#bebebe;fill:url(#linearGradient5586);fill-opacity:1.0;fill-rule:nonzero;stroke:none;stroke-width:2;marker:none;visibility:visible;display:inline;overflow:visible;enable-background:accumulate"
         d="M 310 32.5 C 300.29745 32.5 292.5 40.297452 292.5 50 L 292.5 102 C 292.5 111.70255 300.29745 119.5 310 119.5 L 362 119.5 C 371.70255 119.5 379.5 111.70255 379.5 102 L 379.5 50 C 379.5 40.297452 371.70255 32.5 362 32.5 L 310 32.5 z "
         id="path4210" />
      <path
         style="color:#bebebe;fill:url(#linearGradient5588);fill-opacity:1.0;fill-rule:nonzero;stroke:none;stroke-width:2;marker:none;visibility:visible;display:inline;overflow:visible;enable-background:accumulate"
         d="M 302.5 142.5 C 295.84498 142.5 290.5 147.84498 290.5 154.5 L 290.5 189.5 C 290.5 196.15502 295.84498 201.5 302.5 201.5 L 337.5 201.5 C 344.15502 201.5 349.5 196.15502 349.5 189.5 L 349.5 154.5 C 349.5 147.84498 344.15502 142.5 337.5 142.5 L 302.5 142.5 z "
         id="path4212" />
    </g>
    <g
       inkscape:groupmode="layer"
       id="layer6"
       inkscape:label="Symbols"
       style="display:inline">
      <path
         id="path3921"
         style="font-size:59.53488541px;font-style:normal;font-variant:normal;font-weight:normal;font-stretch:normal;text-align:start;line-height:125%;writing-mode:lr-tb;text-anchor:start;opacity:0.1;fill:#ffffff;fill-opacity:1;stroke:none;display:inline;enable-background:new;font-family:Liberation Serif;-inkscape-font-specification:Liberation Serif"
         d="m 206.15117,227.53488 c -8.9924,2.94576 -18.33349,5.42635 -28.02328,7.44187 C 168.43788,236.99224 158.01155,238 146.84883,238 c -12.32569,0 -23.44969,-1.66669 -33.37209,-5 -9.84504,-3.41083 -18.25586,-8.41083 -25.23255,-15 -6.9768,-6.66664 -12.32561,-14.88368 -16.04651,-24.65115 -3.72099,-9.7674 -5.58141,-21.04646 -5.58141,-33.83722 0,-27.28672 6.82168,-47.6743 20.46511,-61.16279 C 100.80226,84.7831 120.87978,78.000154 147.31395,78 c 10.07741,1.54e-4 19.65106,0.620312 28.7209,1.860467 9.14719,1.240463 17.82934,2.945883 26.04655,5.116273 l 0,33.48838 -7.7907,0 -3.13952,-19.30233 c -5.34899,-3.7983 -11.7831,-6.70528 -19.30235,-8.72093 -7.44198,-2.09288 -15.31016,-3.13938 -23.60464,-3.13954 -9.0699,1.6e-4 -17.17065,1.27922 -24.30238,3.83722 -7.05429,2.48076 -13.02328,6.55052 -17.90696,12.2093 -4.88376,5.65904 -8.64344,13.10089 -11.27907,22.32558 -2.55815,9.14738 -3.83725,20.34892 -3.83719,33.60465 -6e-5,13.41091 1.51162,24.61247 4.53487,33.60466 3.02326,8.91475 7.09302,16.04654 12.20934,21.39534 5.19373,5.34885 11.16272,9.14728 17.90696,11.39538 6.82165,2.24803 13.99219,3.37208 21.51165,3.37208 3.79838,0 7.55803,-0.23253 11.27907,-0.69768 3.79835,-0.54264 7.32547,-1.20157 10.58141,-1.97677 3.33321,-0.77515 6.27891,-1.62789 8.8372,-2.55811 2.558,-0.93026 4.5735,-1.82168 6.04651,-2.67445 l 0,-44.30231 -20,-3.02325 0,-6.27907 57.55813,0 0,6.27907 -15.23256,3.02325 0,50.69767"
         inkscape:connector-curvature="0" />
      <path
         inkscape:connector-curvature="0"
         d="m 359.30669,103.07558 c -3.37215,1.10466 -6.87506,2.03488 -10.50873,2.7907 C 345.1642,106.62209 341.25433,107 337.06831,107 c -4.62213,0 -8.79363,-0.62501 -12.51453,-1.875 -3.69189,-1.27906 -6.84595,-3.15406 -9.46221,-5.625 -2.6163,-2.49999 -4.6221,-5.58138 -6.01744,-9.24418 -1.39537,-3.66278 -2.09303,-7.89242 -2.09303,-12.68896 0,-10.23252 2.55813,-17.87786 7.67442,-22.93605 5.14533,-5.08715 12.6744,-7.63075 22.58721,-7.63081 3.77903,6e-5 7.36915,0.23262 10.77034,0.69768 3.43019,0.46517 6.686,1.1047 9.76745,1.9186 l 0,12.55814 -2.92151,0 -1.17732,-7.23837 c -2.00587,-1.42437 -4.41866,-2.51448 -7.23838,-3.27035 -2.79074,-0.78483 -5.74131,-1.17727 -8.85174,-1.17733 -3.40121,6e-5 -6.43899,0.47971 -9.11339,1.43896 -2.64536,0.93028 -4.88373,2.45644 -6.71511,4.57848 -1.83141,2.12215 -3.24129,4.91284 -4.22965,8.3721 -0.95931,3.43026 -1.43897,7.63084 -1.43895,12.60174 -2e-5,5.02909 0.56686,9.22968 1.70058,12.60175 1.13372,3.34303 2.65988,6.01745 4.5785,8.02325 1.94765,2.00582 4.18602,3.43023 6.71511,4.27327 2.55812,0.84301 5.24707,1.26453 8.06687,1.26453 1.42439,0 2.83426,-0.0872 4.22965,-0.26163 1.42438,-0.20349 2.74705,-0.45059 3.96803,-0.74129 1.24995,-0.29068 2.35459,-0.61046 3.31395,-0.95929 0.95925,-0.34885 1.71506,-0.68313 2.26744,-1.00292 l 0,-16.61337 -7.5,-1.13372 0,-2.35465 21.5843,0 0,2.35465 -5.71221,1.13372 0,19.01163"
         style="font-size:59.53488541px;font-style:normal;font-variant:normal;font-weight:normal;font-stretch:normal;text-align:start;line-height:125%;writing-mode:lr-tb;text-anchor:start;opacity:0.1;fill:#ffffff;fill-opacity:1;stroke:none;display:inline;enable-background:new;font-family:Liberation Serif;-inkscape-font-specification:Liberation Serif"
         id="path3923" />
      <path
         id="path3925"
         style="font-size:59.53488541px;font-style:normal;font-variant:normal;font-weight:normal;font-stretch:normal;text-align:start;line-height:125%;writing-mode:lr-tb;text-anchor:start;opacity:0.1;fill:#ffffff;fill-opacity:1;stroke:none;display:inline;enable-background:new;font-family:Liberation Serif;-inkscape-font-specification:Liberation Serif"
         d="m 335.5378,190.38372 c -2.24811,0.73644 -4.58338,1.35659 -7.00582,1.86047 -2.42251,0.50387 -5.02909,0.75581 -7.81977,0.75581 -3.08142,0 -5.86242,-0.41667 -8.34302,-1.25 -2.46126,-0.85271 -4.56397,-2.10271 -6.30814,-3.75 -1.7442,-1.66666 -3.0814,-3.72092 -4.01164,-6.16279 -0.93024,-2.44185 -1.39535,-5.26161 -1.39535,-8.4593 0,-6.82168 1.70542,-11.91858 5.11629,-15.2907 3.43022,-3.39144 8.44959,-5.08717 15.05813,-5.08721 2.51935,4e-5 4.91278,0.15508 7.18023,0.46512 2.28679,0.31011 4.45733,0.73647 6.51164,1.27907 l 0,8.37209 -1.94768,0 -0.78487,-4.82558 c -1.33725,-0.94958 -2.94579,-1.67632 -4.82559,-2.18023 -1.86049,-0.52322 -3.82754,-0.78485 -5.90116,-0.78489 -2.26747,4e-5 -4.29266,0.31981 -6.07559,0.95931 -1.76358,0.62018 -3.25582,1.63762 -4.47674,3.05232 -1.22094,1.41476 -2.16086,3.27522 -2.81977,5.5814 -0.63954,2.28684 -0.95931,5.08722 -0.9593,8.40116 -10e-6,3.35272 0.37791,6.15312 1.13372,8.40116 0.75581,2.22869 1.77325,4.01164 3.05233,5.34884 1.29844,1.33721 2.79068,2.28682 4.47674,2.84884 1.70542,0.56201 3.49804,0.84302 5.37792,0.84302 0.94959,0 1.8895,-0.0581 2.81976,-0.17442 0.94959,-0.13566 1.83137,-0.30039 2.64535,-0.49419 0.83331,-0.19379 1.56973,-0.40697 2.2093,-0.63953 0.6395,-0.23256 1.14337,-0.45542 1.51162,-0.66861 l 0,-11.07558 -5,-0.75581 0,-1.56977 14.38954,0 0,1.56977 -3.80813,0.75581 0,12.67442"
         inkscape:connector-curvature="0" />
      <path
         inkscape:connector-curvature="0"
         d="m 322.87646,257.1686 c -1.57368,0.51551 -3.20837,0.94962 -4.90408,1.30233 -1.69575,0.35271 -3.52036,0.52907 -5.47384,0.52907 -2.15699,0 -4.10369,-0.29167 -5.84011,-0.875 -1.72287,-0.5969 -3.19477,-1.4719 -4.4157,-2.625 -1.22094,-1.16666 -2.15698,-2.60464 -2.80815,-4.31395 -0.65115,-1.7093 -0.97673,-3.68313 -0.97673,-5.92151 0,-4.77518 1.19378,-8.34301 3.58139,-10.70349 2.40116,-2.37401 5.91472,-3.56102 10.54069,-3.56105 1.76355,3e-5 3.43895,0.10856 5.02616,0.32558 1.60076,0.21708 3.12014,0.51553 4.55815,0.89535 l 0,5.86047 -1.36336,0 -0.54942,-3.37791 c -0.93608,-0.66471 -2.06205,-1.17342 -3.37792,-1.52616 -1.30234,-0.36625 -2.67927,-0.5494 -4.13081,-0.54942 -1.58723,2e-5 -3.00486,0.22386 -4.25291,0.67151 -1.23451,0.43413 -2.27907,1.14634 -3.13371,2.13663 -0.85467,0.99033 -1.51261,2.29265 -1.97384,3.90698 -0.44768,1.60079 -0.67152,3.56105 -0.67152,5.88081 0,2.3469 0.26455,4.30718 0.79361,5.88081 0.52907,1.56008 1.24127,2.80815 2.13664,3.74419 0.90891,0.93605 1.95347,1.60077 3.13372,1.99419 1.19378,0.3934 2.44862,0.59011 3.76454,0.59011 0.66471,0 1.32265,-0.0407 1.97383,-0.12209 0.66471,-0.095 1.28196,-0.21028 1.85175,-0.34594 0.5833,-0.13565 1.09881,-0.28488 1.54651,-0.44767 0.44765,-0.16279 0.80036,-0.31879 1.05813,-0.46802 l 0,-7.75291 -3.5,-0.52907 0,-1.09884 10.07268,0 0,1.09884 -2.66569,0.52907 0,8.87209"
         style="font-size:59.53488541px;font-style:normal;font-variant:normal;font-weight:normal;font-stretch:normal;text-align:start;line-height:125%;writing-mode:lr-tb;text-anchor:start;opacity:0.1;fill:#ffffff;fill-opacity:1;stroke:none;display:inline;enable-background:new;font-family:Liberation Serif;-inkscape-font-specification:Liberation Serif"
         id="path3927" />
      <path
         id="path3929"
         style="font-size:59.53488541px;font-style:normal;font-variant:normal;font-weight:normal;font-stretch:normal;text-align:start;line-height:125%;writing-mode:lr-tb;text-anchor:start;opacity:0.1;fill:#ffffff;fill-opacity:1;stroke:none;display:inline;enable-background:new;font-family:Liberation Serif;-inkscape-font-specification:Liberation Serif"
         d="m 439.76889,77.69186 c -1.12405,0.36822 -2.29168,0.67829 -3.50291,0.93023 C 435.05473,78.87403 433.75144,79 432.35611,79 c -1.54071,0 -2.93122,-0.20834 -4.17152,-0.625 -1.23063,-0.42635 -2.28197,-1.05135 -3.15407,-1.875 -0.87209,-0.83333 -1.5407,-1.86046 -2.0058,-3.08139 -0.46513,-1.22093 -0.69768,-2.63081 -0.69768,-4.229657 0,-3.41084 0.85271,-5.959286 2.55813,-7.64535 1.71511,-1.695716 4.22481,-2.543583 7.52907,-2.543603 1.25968,2e-5 2.45639,0.07754 3.59011,0.23256 1.1434,0.155057 2.22867,0.368233 3.25582,0.639533 l 0,4.186047 -0.97384,0 -0.39244,-2.41279 c -0.66862,-0.47479 -1.47288,-0.83816 -2.41279,-1.090117 -0.93025,-0.26161 -1.91377,-0.392423 -2.95058,-0.392443 -1.13374,2e-5 -2.14633,0.159903 -3.0378,0.479653 -0.88178,0.310094 -1.62791,0.818814 -2.23837,1.52616 -0.61047,0.707384 -1.08043,1.637614 -1.40988,2.7907 -0.31977,1.14342 -0.47966,2.543614 -0.47965,4.20058 0,1.676364 0.18895,3.07656 0.56687,4.200587 0.3779,1.11434 0.88663,2.00581 1.52616,2.67441 0.64921,0.66861 1.39534,1.14341 2.23837,1.42443 0.8527,0.281 1.74902,0.42151 2.68895,0.42151 0.4748,0 0.94476,-0.0291 1.40989,-0.0872 0.47479,-0.0678 0.91568,-0.1502 1.32267,-0.2471 0.41665,-0.0969 0.78487,-0.20349 1.10465,-0.31976 0.31975,-0.11629 0.57169,-0.22771 0.75582,-0.33431 l 0,-5.53779 -2.5,-0.377907 0,-0.784883 7.19476,0 0,0.784883 -1.90407,0.377907 0,6.33721"
         inkscape:connector-curvature="0" />
      <path
         inkscape:connector-curvature="0"
         d="m 433.43822,119.0843 c -0.78684,0.25775 -1.60418,0.47481 -2.45203,0.65116 -0.84788,0.17636 -1.76018,0.26454 -2.73692,0.26454 -1.0785,0 -2.05185,-0.14584 -2.92007,-0.4375 -0.86142,-0.29844 -1.59737,-0.73594 -2.20785,-1.3125 -0.61046,-0.58333 -1.07849,-1.30232 -1.40406,-2.15697 -0.32559,-0.85466 -0.48837,-1.84157 -0.48837,-2.96076 0,-2.38759 0.5969,-4.17151 1.79069,-5.35175 1.20058,-1.187 2.95738,-1.7805 5.27035,-1.78052 0.88177,2e-5 1.71947,0.0542 2.51308,0.16279 0.80039,0.10854 1.56007,0.25776 2.27907,0.44767 l 0,2.93024 -0.68169,0 -0.2747,-1.68896 c -0.46803,-0.33235 -1.03102,-0.58671 -1.68896,-0.76307 -0.65117,-0.18313 -1.33964,-0.2747 -2.06541,-0.27472 -0.79361,2e-5 -1.50243,0.11193 -2.12646,0.33576 -0.61724,0.21707 -1.13953,0.57317 -1.56685,1.06831 -0.42732,0.49517 -0.75631,1.14633 -0.98692,1.95349 -0.22384,0.8004 -0.33576,1.78053 -0.33576,2.94041 0,1.17345 0.13227,2.15359 0.39682,2.94041 0.26453,0.78004 0.62063,1.40406 1.06831,1.87208 0.45445,0.46803 0.97674,0.80039 1.56685,0.99711 0.59689,0.1967 1.22432,0.29506 1.88227,0.29506 0.33236,0 0.66133,-0.0204 0.98693,-0.0611 0.33235,-0.0474 0.64097,-0.10514 0.92586,-0.17297 0.29166,-0.0678 0.54941,-0.14245 0.77326,-0.22383 0.22382,-0.0814 0.40018,-0.1594 0.52907,-0.23402 l 0,-3.87645 -1.75,-0.26454 0,-0.54941 5.03634,0 0,0.54941 -1.33285,0.26454 0,4.43605"
         style="font-size:59.53488541px;font-style:normal;font-variant:normal;font-weight:normal;font-stretch:normal;text-align:start;line-height:125%;writing-mode:lr-tb;text-anchor:start;opacity:0.1;fill:#ffffff;fill-opacity:1;stroke:none;display:inline;enable-background:new;font-family:Liberation Serif;-inkscape-font-specification:Liberation Serif"
         id="path3931" />
      <path
         id="path3933"
         style="font-size:59.53488541px;font-style:normal;font-variant:normal;font-weight:normal;font-stretch:normal;text-align:start;line-height:125%;writing-mode:lr-tb;text-anchor:start;opacity:0.1;fill:#ffffff;fill-opacity:1;stroke:none;display:inline;enable-background:new;font-family:Liberation Serif;-inkscape-font-specification:Liberation Serif"
         d="m 428.66133,154.21511 c -0.67443,0.22093 -1.37501,0.40698 -2.10174,0.55814 -0.72676,0.15117 -1.50873,0.22675 -2.34593,0.22675 -0.92443,0 -1.75873,-0.12501 -2.50291,-0.375 -0.73837,-0.25581 -1.36919,-0.63081 -1.89245,-1.125 -0.52325,-0.5 -0.92442,-1.11627 -1.20348,-1.84883 -0.27907,-0.73257 -0.4186,-1.57849 -0.4186,-2.5378 0,-2.0465 0.51163,-3.57558 1.53488,-4.58721 1.02907,-1.01743 2.53489,-1.52614 4.51744,-1.52616 0.7558,2e-5 1.47383,0.0465 2.15407,0.13953 0.68604,0.093 1.33719,0.22094 1.95349,0.38372 l 0,2.51164 -0.58431,0 -0.23546,-1.44768 c -0.40117,-0.28488 -0.88373,-0.5029 -1.44768,-0.65406 -0.55814,-0.15697 -1.14826,-0.23546 -1.77035,-0.23548 -0.68023,2e-5 -1.28779,0.0959 -1.82268,0.2878 -0.52906,0.18606 -0.97674,0.49128 -1.34301,0.91569 -0.36628,0.42443 -0.64827,0.98257 -0.84593,1.67442 -0.19187,0.68606 -0.2878,1.52617 -0.2878,2.52035 0,1.00582 0.11338,1.84594 0.34013,2.52035 0.22674,0.66861 0.53197,1.20348 0.9157,1.60464 0.38953,0.40117 0.8372,0.68605 1.34301,0.85467 0.51162,0.1686 1.04942,0.25291 1.61338,0.25291 0.28488,0 0.56685,-0.0175 0.84594,-0.0524 0.28487,-0.0406 0.5494,-0.0901 0.79359,-0.14826 0.25,-0.0581 0.47092,-0.1221 0.6628,-0.19186 0.19184,-0.0698 0.34301,-0.13663 0.45348,-0.20059 l 0,-3.32267 -1.5,-0.22675 0,-0.47092 4.31687,0 0,0.47092 -1.14245,0.22675 0,3.80233"
         inkscape:connector-curvature="0" />
      <path
         inkscape:connector-curvature="0"
         d="m 206.15117,226.53488 c -8.9924,2.94576 -18.33349,5.42635 -28.02328,7.44187 C 168.43788,235.99224 158.01155,237 146.84883,237 c -12.32569,0 -23.44969,-1.66669 -33.37209,-5 -9.84504,-3.41083 -18.25586,-8.41083 -25.23255,-15 -6.9768,-6.66664 -12.32561,-14.88368 -16.04651,-24.65115 -3.72099,-9.7674 -5.58141,-21.04646 -5.58141,-33.83722 0,-27.28672 6.82168,-47.6743 20.46511,-61.16279 C 100.80226,83.7831 120.87978,77.000154 147.31395,77 c 10.07741,1.54e-4 19.65106,0.620312 28.7209,1.860467 9.14719,1.240463 17.82934,2.945883 26.04655,5.116273 l 0,33.48838 -7.7907,0 -3.13952,-19.30233 c -5.34899,-3.7983 -11.7831,-6.70528 -19.30235,-8.72093 -7.44198,-2.09288 -15.31016,-3.13938 -23.60464,-3.13954 -9.0699,1.6e-4 -17.17065,1.27922 -24.30238,3.83722 -7.05429,2.48076 -13.02328,6.55052 -17.90696,12.2093 -4.88376,5.65904 -8.64344,13.10089 -11.27907,22.32558 -2.55815,9.14738 -3.83725,20.34892 -3.83719,33.60465 -6e-5,13.41091 1.51162,24.61247 4.53487,33.60466 3.02326,8.91475 7.09302,16.04654 12.20934,21.39534 5.19373,5.34885 11.16272,9.14728 17.90696,11.39538 6.82165,2.24803 13.99219,3.37208 21.51165,3.37208 3.79838,0 7.55803,-0.23253 11.27907,-0.69768 3.79835,-0.54264 7.32547,-1.20157 10.58141,-1.97677 3.33321,-0.77515 6.27891,-1.62789 8.8372,-2.55811 2.558,-0.93026 4.5735,-1.82168 6.04651,-2.67445 l 0,-44.30231 -20,-3.02325 0,-6.27907 57.55813,0 0,6.27907 -15.23256,3.02325 0,50.69767"
         style="font-size:59.53488541px;font-style:normal;font-variant:normal;font-weight:normal;font-stretch:normal;text-align:start;line-height:125%;writing-mode:lr-tb;text-anchor:start;fill:url(#linearGradient3381);fill-opacity:1;stroke:none;display:inline;enable-background:new;font-family:Liberation Serif;-inkscape-font-specification:Liberation Serif"
         id="path4141" />
      <path
         id="path3920"
         style="font-size:59.53488541px;font-style:normal;font-variant:normal;font-weight:normal;font-stretch:normal;text-align:start;line-height:125%;writing-mode:lr-tb;text-anchor:start;fill:url(#linearGradient3922);fill-opacity:1;stroke:none;display:inline;enable-background:new;font-family:Liberation Serif;-inkscape-font-specification:Liberation Serif"
         d="m 359.30669,102.07558 c -3.37215,1.10466 -6.87506,2.03488 -10.50873,2.7907 C 345.1642,105.62209 341.25433,106 337.06831,106 c -4.62213,0 -8.79363,-0.62501 -12.51453,-1.875 -3.69189,-1.27906 -6.84595,-3.15406 -9.46221,-5.625 -2.6163,-2.49999 -4.6221,-5.58138 -6.01744,-9.24418 -1.39537,-3.66278 -2.09303,-7.89242 -2.09303,-12.68896 0,-10.23252 2.55813,-17.87786 7.67442,-22.93605 5.14533,-5.08715 12.6744,-7.63075 22.58721,-7.63081 3.77903,6e-5 7.36915,0.23262 10.77034,0.69768 3.43019,0.46517 6.686,1.1047 9.76745,1.9186 l 0,12.55814 -2.92151,0 -1.17732,-7.23837 c -2.00587,-1.42437 -4.41866,-2.51448 -7.23838,-3.27035 -2.79074,-0.78483 -5.74131,-1.17727 -8.85174,-1.17733 -3.40121,6e-5 -6.43899,0.47971 -9.11339,1.43896 -2.64536,0.93028 -4.88373,2.45644 -6.71511,4.57848 -1.83141,2.12215 -3.24129,4.91284 -4.22965,8.3721 -0.95931,3.43026 -1.43897,7.63084 -1.43895,12.60174 -2e-5,5.02909 0.56686,9.22968 1.70058,12.60175 1.13372,3.34303 2.65988,6.01745 4.5785,8.02325 1.94765,2.00582 4.18602,3.43023 6.71511,4.27327 2.55812,0.84301 5.24707,1.26453 8.06687,1.26453 1.42439,0 2.83426,-0.0872 4.22965,-0.26163 1.42438,-0.20349 2.74705,-0.45059 3.96803,-0.74129 1.24995,-0.29068 2.35459,-0.61046 3.31395,-0.95929 0.95925,-0.34885 1.71506,-0.68313 2.26744,-1.00292 l 0,-16.61337 -7.5,-1.13372 0,-2.35465 21.5843,0 0,2.35465 -5.71221,1.13372 0,19.01163"
         inkscape:connector-curvature="0" />
      <path
         inkscape:connector-curvature="0"
         d="m 335.5378,189.38372 c -2.24811,0.73644 -4.58338,1.35659 -7.00582,1.86047 -2.42251,0.50387 -5.02909,0.75581 -7.81977,0.75581 -3.08142,0 -5.86242,-0.41667 -8.34302,-1.25 -2.46126,-0.85271 -4.56397,-2.10271 -6.30814,-3.75 -1.7442,-1.66666 -3.0814,-3.72092 -4.01164,-6.16279 -0.93024,-2.44185 -1.39535,-5.26161 -1.39535,-8.4593 0,-6.82168 1.70542,-11.91858 5.11629,-15.2907 3.43022,-3.39144 8.44959,-5.08717 15.05813,-5.08721 2.51935,4e-5 4.91278,0.15508 7.18023,0.46512 2.28679,0.31011 4.45733,0.73647 6.51164,1.27907 l 0,8.37209 -1.94768,0 -0.78487,-4.82558 c -1.33725,-0.94958 -2.94579,-1.67632 -4.82559,-2.18023 -1.86049,-0.52322 -3.82754,-0.78485 -5.90116,-0.78489 -2.26747,4e-5 -4.29266,0.31981 -6.07559,0.95931 -1.76358,0.62018 -3.25582,1.63762 -4.47674,3.05232 -1.22094,1.41476 -2.16086,3.27522 -2.81977,5.5814 -0.63954,2.28684 -0.95931,5.08722 -0.9593,8.40116 -10e-6,3.35272 0.37791,6.15312 1.13372,8.40116 0.75581,2.22869 1.77325,4.01164 3.05233,5.34884 1.29844,1.33721 2.79068,2.28682 4.47674,2.84884 1.70542,0.56201 3.49804,0.84302 5.37792,0.84302 0.94959,0 1.8895,-0.0581 2.81976,-0.17442 0.94959,-0.13566 1.83137,-0.30039 2.64535,-0.49419 0.83331,-0.19379 1.56973,-0.40697 2.2093,-0.63953 0.6395,-0.23256 1.14337,-0.45542 1.51162,-0.66861 l 0,-11.07558 -5,-0.75581 0,-1.56977 14.38954,0 0,1.56977 -3.80813,0.75581 0,12.67442"
         style="font-size:59.53488541px;font-style:normal;font-variant:normal;font-weight:normal;font-stretch:normal;text-align:start;line-height:125%;writing-mode:lr-tb;text-anchor:start;fill:url(#linearGradient3926);fill-opacity:1;stroke:none;display:inline;enable-background:new;font-family:Liberation Serif;-inkscape-font-specification:Liberation Serif"
         id="path3924" />
      <path
         id="path3928"
         style="font-size:59.53488541px;font-style:normal;font-variant:normal;font-weight:normal;font-stretch:normal;text-align:start;line-height:125%;writing-mode:lr-tb;text-anchor:start;fill:url(#linearGradient3930);fill-opacity:1;stroke:none;display:inline;enable-background:new;font-family:Liberation Serif;-inkscape-font-specification:Liberation Serif"
         d="m 322.87646,256.1686 c -1.57368,0.51551 -3.20837,0.94962 -4.90408,1.30233 -1.69575,0.35271 -3.52036,0.52907 -5.47384,0.52907 -2.15699,0 -4.10369,-0.29167 -5.84011,-0.875 -1.72287,-0.5969 -3.19477,-1.4719 -4.4157,-2.625 -1.22094,-1.16666 -2.15698,-2.60464 -2.80815,-4.31395 -0.65115,-1.7093 -0.97673,-3.68313 -0.97673,-5.92151 0,-4.77518 1.19378,-8.34301 3.58139,-10.70349 2.40116,-2.37401 5.91472,-3.56102 10.54069,-3.56105 1.76355,3e-5 3.43895,0.10856 5.02616,0.32558 1.60076,0.21708 3.12014,0.51553 4.55815,0.89535 l 0,5.86047 -1.36336,0 -0.54942,-3.37791 c -0.93608,-0.66471 -2.06205,-1.17342 -3.37792,-1.52616 -1.30234,-0.36625 -2.67927,-0.5494 -4.13081,-0.54942 -1.58723,2e-5 -3.00486,0.22386 -4.25291,0.67151 -1.23451,0.43413 -2.27907,1.14634 -3.13371,2.13663 -0.85467,0.99033 -1.51261,2.29265 -1.97384,3.90698 -0.44768,1.60079 -0.67152,3.56105 -0.67152,5.88081 0,2.3469 0.26455,4.30718 0.79361,5.88081 0.52907,1.56008 1.24127,2.80815 2.13664,3.74419 0.90891,0.93605 1.95347,1.60077 3.13372,1.99419 1.19378,0.3934 2.44862,0.59011 3.76454,0.59011 0.66471,0 1.32265,-0.0407 1.97383,-0.12209 0.66471,-0.095 1.28196,-0.21028 1.85175,-0.34594 0.5833,-0.13565 1.09881,-0.28488 1.54651,-0.44767 0.44765,-0.16279 0.80036,-0.31879 1.05813,-0.46802 l 0,-7.75291 -3.5,-0.52907 0,-1.09884 10.07268,0 0,1.09884 -2.66569,0.52907 0,8.87209"
         inkscape:connector-curvature="0" />
      <path
         inkscape:connector-curvature="0"
         d="m 439.76889,76.69186 c -1.12405,0.36822 -2.29168,0.67829 -3.50291,0.93023 C 435.05473,77.87403 433.75144,78 432.35611,78 c -1.54071,0 -2.93122,-0.20834 -4.17152,-0.625 -1.23063,-0.42635 -2.28197,-1.05135 -3.15407,-1.875 -0.87209,-0.83333 -1.5407,-1.86046 -2.0058,-3.08139 -0.46513,-1.22093 -0.69768,-2.63081 -0.69768,-4.229657 0,-3.41084 0.85271,-5.959286 2.55813,-7.64535 1.71511,-1.695716 4.22481,-2.543583 7.52907,-2.543603 1.25968,2e-5 2.45639,0.07754 3.59011,0.23256 1.1434,0.155057 2.22867,0.368233 3.25582,0.639533 l 0,4.186047 -0.97384,0 -0.39244,-2.41279 c -0.66862,-0.47479 -1.47288,-0.83816 -2.41279,-1.090117 -0.93025,-0.26161 -1.91377,-0.392423 -2.95058,-0.392443 -1.13374,2e-5 -2.14633,0.159903 -3.0378,0.479653 -0.88178,0.310094 -1.62791,0.818814 -2.23837,1.52616 -0.61047,0.707384 -1.08043,1.637614 -1.40988,2.7907 -0.31977,1.14342 -0.47966,2.543614 -0.47965,4.20058 0,1.676364 0.18895,3.07656 0.56687,4.200587 0.3779,1.11434 0.88663,2.00581 1.52616,2.67441 0.64921,0.66861 1.39534,1.14341 2.23837,1.42443 0.8527,0.281 1.74902,0.42151 2.68895,0.42151 0.4748,0 0.94476,-0.0291 1.40989,-0.0872 0.47479,-0.0678 0.91568,-0.1502 1.32267,-0.2471 0.41665,-0.0969 0.78487,-0.20349 1.10465,-0.31976 0.31975,-0.11629 0.57169,-0.22771 0.75582,-0.33431 l 0,-5.53779 -2.5,-0.377907 0,-0.784883 7.19476,0 0,0.784883 -1.90407,0.377907 0,6.33721"
         style="font-size:59.53488541px;font-style:normal;font-variant:normal;font-weight:normal;font-stretch:normal;text-align:start;line-height:125%;writing-mode:lr-tb;text-anchor:start;fill:url(#linearGradient3934);fill-opacity:1;stroke:none;display:inline;enable-background:new;font-family:Liberation Serif;-inkscape-font-specification:Liberation Serif"
         id="path3932" />
      <path
         id="path3936"
         style="font-size:59.53488541px;font-style:normal;font-variant:normal;font-weight:normal;font-stretch:normal;text-align:start;line-height:125%;writing-mode:lr-tb;text-anchor:start;fill:url(#linearGradient3938);fill-opacity:1;stroke:none;display:inline;enable-background:new;font-family:Liberation Serif;-inkscape-font-specification:Liberation Serif"
         d="m 433.43822,118.0843 c -0.78684,0.25775 -1.60418,0.47481 -2.45203,0.65116 -0.84788,0.17636 -1.76018,0.26454 -2.73692,0.26454 -1.0785,0 -2.05185,-0.14584 -2.92007,-0.4375 -0.86142,-0.29844 -1.59737,-0.73594 -2.20785,-1.3125 -0.61046,-0.58333 -1.07849,-1.30232 -1.40406,-2.15697 -0.32559,-0.85466 -0.48837,-1.84157 -0.48837,-2.96076 0,-2.38759 0.5969,-4.17151 1.79069,-5.35175 1.20058,-1.187 2.95738,-1.7805 5.27035,-1.78052 0.88177,2e-5 1.71947,0.0542 2.51308,0.16279 0.80039,0.10854 1.56007,0.25776 2.27907,0.44767 l 0,2.93024 -0.68169,0 -0.2747,-1.68896 c -0.46803,-0.33235 -1.03102,-0.58671 -1.68896,-0.76307 -0.65117,-0.18313 -1.33964,-0.2747 -2.06541,-0.27472 -0.79361,2e-5 -1.50243,0.11193 -2.12646,0.33576 -0.61724,0.21707 -1.13953,0.57317 -1.56685,1.06831 -0.42732,0.49517 -0.75631,1.14633 -0.98692,1.95349 -0.22384,0.8004 -0.33576,1.78053 -0.33576,2.94041 0,1.17345 0.13227,2.15359 0.39682,2.94041 0.26453,0.78004 0.62063,1.40406 1.06831,1.87208 0.45445,0.46803 0.97674,0.80039 1.56685,0.99711 0.59689,0.1967 1.22432,0.29506 1.88227,0.29506 0.33236,0 0.66133,-0.0204 0.98693,-0.0611 0.33235,-0.0474 0.64097,-0.10514 0.92586,-0.17297 0.29166,-0.0678 0.54941,-0.14245 0.77326,-0.22383 0.22382,-0.0814 0.40018,-0.1594 0.52907,-0.23402 l 0,-3.87645 -1.75,-0.26454 0,-0.54941 5.03634,0 0,0.54941 -1.33285,0.26454 0,4.43605"
         inkscape:connector-curvature="0" />
      <path
         inkscape:connector-curvature="0"
         d="m 428.66133,153.21511 c -0.67443,0.22093 -1.37501,0.40698 -2.10174,0.55814 -0.72676,0.15117 -1.50873,0.22675 -2.34593,0.22675 -0.92443,0 -1.75873,-0.12501 -2.50291,-0.375 -0.73837,-0.25581 -1.36919,-0.63081 -1.89245,-1.125 -0.52325,-0.5 -0.92442,-1.11627 -1.20348,-1.84883 -0.27907,-0.73257 -0.4186,-1.57849 -0.4186,-2.5378 0,-2.0465 0.51163,-3.57558 1.53488,-4.58721 1.02907,-1.01743 2.53489,-1.52614 4.51744,-1.52616 0.7558,2e-5 1.47383,0.0465 2.15407,0.13953 0.68604,0.093 1.33719,0.22094 1.95349,0.38372 l 0,2.51164 -0.58431,0 -0.23546,-1.44768 c -0.40117,-0.28488 -0.88373,-0.5029 -1.44768,-0.65406 -0.55814,-0.15697 -1.14826,-0.23546 -1.77035,-0.23548 -0.68023,2e-5 -1.28779,0.0959 -1.82268,0.2878 -0.52906,0.18606 -0.97674,0.49128 -1.34301,0.91569 -0.36628,0.42443 -0.64827,0.98257 -0.84593,1.67442 -0.19187,0.68606 -0.2878,1.52617 -0.2878,2.52035 0,1.00582 0.11338,1.84594 0.34013,2.52035 0.22674,0.66861 0.53197,1.20348 0.9157,1.60464 0.38953,0.40117 0.8372,0.68605 1.34301,0.85467 0.51162,0.1686 1.04942,0.25291 1.61338,0.25291 0.28488,0 0.56685,-0.0175 0.84594,-0.0524 0.28487,-0.0406 0.5494,-0.0901 0.79359,-0.14826 0.25,-0.0581 0.47092,-0.1221 0.6628,-0.19186 0.19184,-0.0698 0.34301,-0.13663 0.45348,-0.20059 l 0,-3.32267 -1.5,-0.22675 0,-0.47092 4.31687,0 0,0.47092 -1.14245,0.22675 0,3.80233"
         style="font-size:59.53488541px;font-style:normal;font-variant:normal;font-weight:normal;font-stretch:normal;text-align:start;line-height:125%;writing-mode:lr-tb;text-anchor:start;fill:url(#linearGradient3942);fill-opacity:1;stroke:none;display:inline;enable-background:new;font-family:Liberation Serif;-inkscape-font-specification:Liberation Serif"
         id="path3940" />
    </g>
    <g
       inkscape:groupmode="layer"
       id="layer5"
       inkscape:label="Highlights"
       style="display:inline"
       sodipodi:insensitive="true">
      <path
         style="opacity:0.13000004;color:#bebebe;fill:#ffffff;fill-opacity:1;fill-rule:nonzero;stroke:none;stroke-width:0;marker:none;visibility:visible;display:inline;overflow:visible;enable-background:accumulate"
         d="M 84,47 C 56.836703,47 35,68.836703 35,96 l 0,1 C 35,69.836703 56.836703,48 84,48 l 120,0 c 27.1633,0 49,21.836703 49,49 l 0,-1 C 253,68.836703 231.1633,47 204,47 L 84,47 z"
         id="rect3894"
         inkscape:connector-curvature="0" />
      <path
         style="opacity:0.13000004;color:#bebebe;fill:#ffffff;fill-opacity:1;fill-rule:nonzero;stroke:none;stroke-width:0;marker:none;visibility:visible;display:inline;overflow:visible;enable-background:accumulate"
         d="m 419,141 c -1.1253,0 -2,0.8747 -2,2 l 0,1 c 0,-1.1253 0.8747,-2 2,-2 l 10,0 c 1.1253,0 2,0.8747 2,2 l 0,-1 c 0,-1.1253 -0.8747,-2 -2,-2 l -10,0 z"
         id="rect3896"
         inkscape:connector-curvature="0" />
      <path
         style="opacity:0.13000004;color:#bebebe;fill:#ffffff;fill-opacity:1;fill-rule:nonzero;stroke:none;stroke-width:0;marker:none;visibility:visible;display:inline;overflow:visible;enable-background:accumulate"
         d="m 422,102 c -2.2333,0 -4,1.7667 -4,4 l 0,1 c 0,-2.2333 1.7667,-4 4,-4 l 12,0 c 2.2333,0 4,1.7667 4,4 l 0,-1 c 0,-2.2333 -1.7667,-4 -4,-4 l -12,0 z"
         id="rect3898"
         inkscape:connector-curvature="0" />
      <path
         style="opacity:0.13000004;color:#bebebe;fill:#ffffff;fill-opacity:1;fill-rule:nonzero;stroke:none;stroke-width:0;marker:none;visibility:visible;display:inline;overflow:visible;enable-background:accumulate"
         d="m 424,54 c -3.3413,0 -6,2.658703 -6,6 l 0,1 c 0,-3.341297 2.6587,-6 6,-6 l 16,0 c 3.3413,0 6,2.658703 6,6 l 0,-1 c 0,-3.341297 -2.6587,-6 -6,-6 l -16,0 z"
         id="rect3900"
         inkscape:connector-curvature="0" />
      <path
         style="opacity:0.13000004;color:#bebebe;fill:#ffffff;fill-opacity:1;fill-rule:nonzero;stroke:none;stroke-width:0;marker:none;visibility:visible;display:inline;overflow:visible;enable-background:accumulate"
         d="m 300,224 c -4.4493,0 -8,3.5507 -8,8 l 0,1 c 0,-4.4493 3.5507,-8 8,-8 l 24,0 c 4.4493,0 8,3.5507 8,8 l 0,-1 c 0,-4.4493 -3.5507,-8 -8,-8 l -24,0 z"
         id="rect3902"
         inkscape:connector-curvature="0" />
      <path
         style="opacity:0.13000004;color:#bebebe;fill:#ffffff;fill-opacity:1;fill-rule:nonzero;stroke:none;stroke-width:0;marker:none;visibility:visible;display:inline;overflow:visible;enable-background:accumulate"
         d="m 310,33 c -9.4353,0 -17,7.564703 -17,17 l 0,1 c 0,-9.435297 7.5647,-17 17,-17 l 52,0 c 9.4353,0 17,7.564703 17,17 l 0,-1 c 0,-9.435297 -7.5647,-17 -17,-17 l -52,0 z"
         id="rect3904"
         inkscape:connector-curvature="0" />
      <path
         style="opacity:0.13000004;color:#bebebe;fill:#ffffff;fill-opacity:1;fill-rule:nonzero;stroke:none;stroke-width:0;marker:none;visibility:visible;display:inline;overflow:visible;enable-background:accumulate"
         d="m 302.5,143 c -6.3883,0 -11.5,5.1117 -11.5,11.5 l 0,1 c 0,-6.3883 5.1117,-11.5 11.5,-11.5 l 35,0 c 6.3883,0 11.5,5.1117 11.5,11.5 l 0,-1 c 0,-6.3883 -5.1117,-11.5 -11.5,-11.5 l -35,0 z"
         id="rect3906"
         inkscape:connector-curvature="0" />
      <path
         id="path4085"
         d="m 204,266 c 27.1633,0 49,-21.8367 49,-49 l 0,-1 c 0,27.1633 -21.8367,49 -49,49 L 84,265 C 56.8367,265 35,243.1633 35,216 l 0,1 c 0,27.1633 21.8367,49 49,49 l 120,0 z"
         style="opacity:0.41;color:#bebebe;fill:#000000;fill-opacity:1;fill-rule:nonzero;stroke:none;stroke-width:0;marker:none;visibility:visible;display:inline;overflow:visible;enable-background:accumulate"
         inkscape:connector-curvature="0" />
      <path
         id="path4087"
         d="m 429,156 c 1.1253,0 2,-0.8747 2,-2 l 0,-1 c 0,1.1253 -0.8747,2 -2,2 l -10,0 c -1.1253,0 -2,-0.8747 -2,-2 l 0,1 c 0,1.1253 0.8747,2 2,2 l 10,0 z"
         style="opacity:0.3;color:#bebebe;fill:#000000;fill-opacity:1;fill-rule:nonzero;stroke:none;stroke-width:0;marker:none;visibility:visible;display:inline;overflow:visible;enable-background:accumulate"
         inkscape:connector-curvature="0" />
      <path
         id="path4089"
         d="m 434,123 c 2.2333,0 4,-1.7667 4,-4 l 0,-1 c 0,2.2333 -1.7667,4 -4,4 l -12,0 c -2.2333,0 -4,-1.7667 -4,-4 l 0,1 c 0,2.2333 1.7667,4 4,4 l 12,0 z"
         style="opacity:0.3;color:#bebebe;fill:#000000;fill-opacity:1;fill-rule:nonzero;stroke:none;stroke-width:0;marker:none;visibility:visible;display:inline;overflow:visible;enable-background:accumulate"
         inkscape:connector-curvature="0" />
      <path
         id="path4091"
         d="m 440,83 c 3.3413,0 6,-2.6587 6,-6 l 0,-1 c 0,3.3413 -2.6587,6 -6,6 l -16,0 c -3.3413,0 -6,-2.6587 -6,-6 l 0,1 c 0,3.3413 2.6587,6 6,6 l 16,0 z"
         style="opacity:0.41;color:#bebebe;fill:#000000;fill-opacity:1;fill-rule:nonzero;stroke:none;stroke-width:0;marker:none;visibility:visible;display:inline;overflow:visible;enable-background:accumulate"
         inkscape:connector-curvature="0" />
      <path
         id="path4093"
         d="m 324,265 c 4.4493,0 8,-3.5507 8,-8 l 0,-1 c 0,4.4493 -3.5507,8 -8,8 l -24,0 c -4.4493,0 -8,-3.5507 -8,-8 l 0,1 c 0,4.4493 3.5507,8 8,8 l 24,0 z"
         style="opacity:0.41;color:#bebebe;fill:#000000;fill-opacity:1;fill-rule:nonzero;stroke:none;stroke-width:0;marker:none;visibility:visible;display:inline;overflow:visible;enable-background:accumulate"
         inkscape:connector-curvature="0" />
      <path
         id="path4095"
         d="m 362,120 c 9.4353,0 17,-7.5647 17,-17 l 0,-1 c 0,9.4353 -7.5647,17 -17,17 l -52,0 c -9.4353,0 -17,-7.5647 -17,-17 l 0,1 c 0,9.4353 7.5647,17 17,17 l 52,0 z"
         style="opacity:0.41;color:#bebebe;fill:#000000;fill-opacity:1;fill-rule:nonzero;stroke:none;stroke-width:0;marker:none;visibility:visible;display:inline;overflow:visible;enable-background:accumulate"
         inkscape:connector-curvature="0" />
      <path
         id="path4097"
         d="m 337.5,202 c 6.3883,0 11.5,-5.1117 11.5,-11.5 l 0,-1 c 0,6.3883 -5.1117,11.5 -11.5,11.5 l -35,0 c -6.3883,0 -11.5,-5.1117 -11.5,-11.5 l 0,1 c 0,6.3883 5.1117,11.5 11.5,11.5 l 35,0 z"
         style="opacity:0.41;color:#bebebe;fill:#000000;fill-opacity:1;fill-rule:nonzero;stroke:none;stroke-width:0;marker:none;visibility:visible;display:inline;overflow:visible;enable-background:accumulate"
         inkscape:connector-curvature="0" />
      <path
         inkscape:connector-curvature="0"
         id="path4280"
         d="M 84,265 C 56.836703,265 35,243.1633 35,216 l 0,-1 c 0,27.1633 21.836703,49 49,49 l 120,0 c 27.1633,0 49,-21.8367 49,-49 l 0,1 c 0,27.1633 -21.8367,49 -49,49 l -120,0 z"
         style="opacity:0.1;color:#bebebe;fill:#ffffff;fill-opacity:1;fill-rule:nonzero;stroke:none;stroke-width:0;marker:none;visibility:visible;display:inline;overflow:visible;enable-background:accumulate" />
      <path
         style="opacity:0.1;color:#bebebe;fill:#ffffff;fill-opacity:1;fill-rule:nonzero;stroke:none;stroke-width:0;marker:none;visibility:visible;display:inline;overflow:visible;enable-background:accumulate"
         d="m 300,264 c -4.4493,0 -8,-3.5507 -8,-8 l 0,-1 c 0,4.4493 3.5507,8 8,8 l 24,0 c 4.4493,0 8,-3.5507 8,-8 l 0,1 c 0,4.4493 -3.5507,8 -8,8 l -24,0 z"
         id="path4294"
         inkscape:connector-curvature="0" />
      <path
         style="opacity:0.1;color:#bebebe;fill:#ffffff;fill-opacity:1;fill-rule:nonzero;stroke:none;stroke-width:0;marker:none;visibility:visible;display:inline;overflow:visible;enable-background:accumulate"
         d="m 302.5,201 c -6.3883,0 -11.5,-5.1117 -11.5,-11.5 l 0,-1 c 0,6.3883 5.1117,11.5 11.5,11.5 l 35,0 c 6.3883,0 11.5,-5.1117 11.5,-11.5 l 0,1 c 0,6.3883 -5.1117,11.5 -11.5,11.5 l -35,0 z"
         id="path4296"
         inkscape:connector-curvature="0" />
      <path
         style="opacity:0.1;color:#bebebe;fill:#ffffff;fill-opacity:1;fill-rule:nonzero;stroke:none;stroke-width:0;marker:none;visibility:visible;display:inline;overflow:visible;enable-background:accumulate"
         d="m 310,119 c -9.4353,0 -17,-7.5647 -17,-17 l 0,-1 c 0,9.4353 7.5647,17 17,17 l 52,0 c 9.4353,0 17,-7.5647 17,-17 l 0,1 c 0,9.4353 -7.5647,17 -17,17 l -52,0 z"
         id="path4298"
         inkscape:connector-curvature="0" />
      <path
         style="opacity:0.1;color:#bebebe;fill:#ffffff;fill-opacity:1;fill-rule:nonzero;stroke:none;stroke-width:0;marker:none;visibility:visible;display:inline;overflow:visible;enable-background:accumulate"
         d="m 424,82 c -3.3413,0 -6,-2.658703 -6,-6 l 0,-1 c 0,3.341297 2.6587,6 6,6 l 16,0 c 3.3413,0 6,-2.658703 6,-6 l 0,1 c 0,3.341297 -2.6587,6 -6,6 l -16,0 z"
         id="path4300"
         inkscape:connector-curvature="0" />
      <path
         style="opacity:0.1;color:#bebebe;fill:#ffffff;fill-opacity:1;fill-rule:nonzero;stroke:none;stroke-width:0;marker:none;visibility:visible;display:inline;overflow:visible;enable-background:accumulate"
         d="m 422,122 c -2.2333,0 -4,-1.7667 -4,-4 l 0,-1 c 0,2.2333 1.7667,4 4,4 l 12,0 c 2.2333,0 4,-1.7667 4,-4 l 0,1 c 0,2.2333 -1.7667,4 -4,4 l -12,0 z"
         id="path4302"
         inkscape:connector-curvature="0" />
      <path
         style="opacity:0.1;color:#bebebe;fill:#ffffff;fill-opacity:1;fill-rule:nonzero;stroke:none;stroke-width:0;marker:none;visibility:visible;display:inline;overflow:visible;enable-background:accumulate"
         d="m 419,154.5 c -1.1253,0 -2,-0.8747 -2,-2 l 0,-1 c 0,1.1253 0.8747,2 2,2 l 10,0 c 1.1253,0 2,-0.8747 2,-2 l 0,1 c 0,1.1253 -0.8747,2 -2,2 l -10,0 z"
         id="path4304"
         inkscape:connector-curvature="0" />
    </g>
    <g
       inkscape:groupmode="layer"
       id="layer3"
       inkscape:label="Border"
       style="display:inline"
       sodipodi:insensitive="true">
      <path
         style="opacity:0.41;color:#bebebe;fill:#000000;fill-opacity:1;fill-rule:nonzero;stroke:none;stroke-width:0;marker:none;visibility:visible;display:inline;overflow:visible;enable-background:accumulate"
         d="m 422,101 c -2.77,0 -5,2.23 -5,5 l 0,12 c 0,2.77 2.23,5 5,5 l 12,0 c 2.77,0 5,-2.23 5,-5 l 0,-12 c 0,-2.77 -2.23,-5 -5,-5 l -12,0 z m 0,1 12,0 c 2.2333,0 4,1.7667 4,4 l 0,12 c 0,2.2333 -1.7667,4 -4,4 l -12,0 c -2.2333,0 -4,-1.7667 -4,-4 l 0,-12 c 0,-2.2333 1.7667,-4 4,-4 z"
         id="rect4099"
         inkscape:connector-curvature="0" />
      <path
         style="opacity:0.41;color:#bebebe;fill:#000000;fill-opacity:1;fill-rule:nonzero;stroke:none;stroke-width:0;marker:none;visibility:visible;display:inline;overflow:visible;enable-background:accumulate"
         d="m 424,53 c -3.878,0 -7,3.122 -7,7 l 0,16 c 0,3.878 3.122,7 7,7 l 16,0 c 3.878,0 7,-3.122 7,-7 l 0,-16 c 0,-3.878 -3.122,-7 -7,-7 l -16,0 z m 0,1 16,0 c 3.3413,0 6,2.658703 6,6 l 0,16 c 0,3.341297 -2.6587,6 -6,6 l -16,0 c -3.3413,0 -6,-2.658703 -6,-6 l 0,-16 c 0,-3.341297 2.6587,-6 6,-6 z"
         id="rect4151"
         inkscape:connector-curvature="0" />
      <path
         style="opacity:0.41;color:#bebebe;fill:#000000;fill-opacity:1;fill-rule:nonzero;stroke:none;stroke-width:0;marker:none;visibility:visible;display:inline;overflow:visible;enable-background:accumulate"
         d="m 419,140 c -1.662,0 -3,1.338 -3,3 l 0,10 c 0,1.662 1.338,3 3,3 l 10,0 c 1.662,0 3,-1.338 3,-3 l 0,-10 c 0,-1.662 -1.338,-3 -3,-3 l -10,0 z m 0,1 10,0 c 1.1253,0 2,0.8747 2,2 l 0,10 c 0,1.1253 -0.8747,2 -2,2 l -10,0 c -1.1253,0 -2,-0.8747 -2,-2 l 0,-10 c 0,-1.1253 0.8747,-2 2,-2 z"
         id="rect4095"
         inkscape:connector-curvature="0" />
      <path
         style="opacity:0.41;color:#bebebe;fill:#000000;fill-opacity:1;fill-rule:nonzero;stroke:none;stroke-width:0;marker:none;visibility:visible;display:inline;overflow:visible;enable-background:accumulate"
         d="m 300,223 c -4.986,0 -9,4.014 -9,9 l 0,24 c 0,4.986 4.014,9 9,9 l 24,0 c 4.986,0 9,-4.014 9,-9 l 0,-24 c 0,-4.986 -4.014,-9 -9,-9 l -24,0 z m 0,1 24,0 c 4.4493,0 8,3.5507 8,8 l 0,24 c 0,4.4493 -3.5507,8 -8,8 l -24,0 c -4.4493,0 -8,-3.5507 -8,-8 l 0,-24 c 0,-4.4493 3.5507,-8 8,-8 z"
         id="rect4783"
         inkscape:connector-curvature="0" />
      <path
         style="opacity:0.41;color:#bebebe;fill:#000000;fill-opacity:1;fill-rule:nonzero;stroke:none;stroke-width:0;marker:none;visibility:visible;display:inline;overflow:visible;enable-background:accumulate"
         d="m 302.5,142 c -6.925,0 -12.5,5.575 -12.5,12.5 l 0,35 c 0,6.925 5.575,12.5 12.5,12.5 l 35,0 c 6.925,0 12.5,-5.575 12.5,-12.5 l 0,-35 c 0,-6.925 -5.575,-12.5 -12.5,-12.5 l -35,0 z m 0,1 35,0 c 6.3883,0 11.5,5.1117 11.5,11.5 l 0,35 c 0,6.3883 -5.1117,11.5 -11.5,11.5 l -35,0 c -6.3883,0 -11.5,-5.1117 -11.5,-11.5 l 0,-35 c 0,-6.3883 5.1117,-11.5 11.5,-11.5 z"
         id="rect4515"
         inkscape:connector-curvature="0" />
      <path
         style="opacity:0.41;color:#bebebe;fill:#000000;fill-opacity:1;fill-rule:nonzero;stroke:none;stroke-width:0;marker:none;visibility:visible;display:inline;overflow:visible;enable-background:accumulate"
         d="m 310,32 c -9.972,0 -18,8.028 -18,18 l 0,52 c 0,9.972 8.028,18 18,18 l 52,0 c 9.972,0 18,-8.028 18,-18 l 0,-52 c 0,-9.972 -8.028,-18 -18,-18 l -52,0 z m 0,1 52,0 c 9.4353,0 17,7.564703 17,17 l 0,52 c 0,9.4353 -7.5647,17 -17,17 l -52,0 c -9.4353,0 -17,-7.5647 -17,-17 l 0,-52 c 0,-9.435297 7.5647,-17 17,-17 z"
         id="rect4511"
         inkscape:connector-curvature="0" />
      <path
         style="opacity:0.41;color:#bebebe;fill:#000000;fill-opacity:1;fill-rule:nonzero;stroke:none;stroke-width:0;marker:none;visibility:visible;display:inline;overflow:visible;enable-background:accumulate"
         d="M 84,46 C 56.3,46 34,68.3 34,96 l 0,120 c 0,27.7 22.3,50 50,50 l 120,0 c 27.7,0 50,-22.3 50,-50 L 254,96 C 254,68.3 231.7,46 204,46 L 84,46 z m 0,1 120,0 c 27.1633,0 49,21.836703 49,49 l 0,120 c 0,27.1633 -21.8367,49 -49,49 L 84,265 C 56.836703,265 35,243.1633 35,216 L 35,96 C 35,68.836703 56.836703,47 84,47 z"
         id="rect4040"
         inkscape:connector-curvature="0" />
    </g>
  </g>
</svg>
