<?xml version="1.0" encoding="UTF-8" standalone="no"?>
<!-- Created with Inkscape (http://www.inkscape.org/) -->

<svg
   xmlns:dc="http://purl.org/dc/elements/1.1/"
   xmlns:cc="http://creativecommons.org/ns#"
   xmlns:rdf="http://www.w3.org/1999/02/22-rdf-syntax-ns#"
   xmlns:svg="http://www.w3.org/2000/svg"
   xmlns="http://www.w3.org/2000/svg"
   xmlns:xlink="http://www.w3.org/1999/xlink"
   xmlns:sodipodi="http://sodipodi.sourceforge.net/DTD/sodipodi-0.dtd"
   xmlns:inkscape="http://www.inkscape.org/namespaces/inkscape"
   inkscape:export-ydpi="90.000000"
   inkscape:export-xdpi="90.000000"
   width="480"
   height="300"
   id="svg11300"
   sodipodi:version="0.32"
   inkscape:version="0.48.4 r9939"
   sodipodi:docname="counter-strike.svg"
   inkscape:output_extension="org.inkscape.output.svg.inkscape"
   version="1.0"
   style="display:inline;enable-background:new"
   inkscape:export-filename="/home/sam/moka-next-template.png">
  <sodipodi:namedview
     stroke="#ef2929"
     fill="#f57900"
     id="base"
     pagecolor="#777777"
     bordercolor="#666666"
     borderopacity="0.25490196"
     inkscape:pageopacity="0"
     inkscape:pageshadow="2"
     inkscape:zoom="1"
     inkscape:cx="334.23052"
     inkscape:cy="148.86294"
     inkscape:current-layer="layer7"
     showgrid="false"
     inkscape:grid-bbox="true"
     inkscape:document-units="px"
     inkscape:showpageshadow="false"
     inkscape:window-width="1364"
     inkscape:window-height="700"
     inkscape:window-x="0"
     inkscape:window-y="28"
     width="400px"
     height="300px"
     inkscape:snap-nodes="true"
     inkscape:snap-bbox="true"
     gridtolerance="10000"
     inkscape:object-nodes="true"
     inkscape:snap-grids="true"
     showguides="true"
     inkscape:guide-bbox="true"
     inkscape:window-maximized="1"
     inkscape:bbox-nodes="true"
     inkscape:bbox-paths="true"
     inkscape:snap-bbox-edge-midpoints="true"
     inkscape:snap-bbox-midpoints="true">
    <inkscape:grid
       spacingy="1px"
       spacingx="1px"
       id="grid5883"
       type="xygrid"
       enabled="true"
       visible="true"
       empspacing="4"
       snapvisiblegridlinesonly="true"
       dotted="false"
       color="#000000"
       opacity="0.1254902"
       empcolor="#203ef3"
       empopacity="0.36470588" />
    <inkscape:grid
       type="xygrid"
       id="grid11592"
       empspacing="8"
       visible="true"
       enabled="false"
       spacingx="0.5px"
       spacingy="0.5px"
       color="#ff0000"
       opacity="0.1254902"
       empcolor="#ff0000"
       empopacity="0.25098039"
       snapvisiblegridlinesonly="true"
       dotted="true" />
  </sodipodi:namedview>
  <defs
     id="defs3">
    <linearGradient
       id="outerBackgroundGradient">
      <stop
         style="stop-color:#00519e;stop-opacity:1;"
         offset="0"
         id="stop3864-8-6" />
      <stop
         style="stop-color:#256bad;stop-opacity:1;"
         offset="1"
         id="stop3866-9-1" />
    </linearGradient>
    <linearGradient
       inkscape:collect="always"
       xlink:href="#outerBackgroundGradient"
       id="linearGradient4254"
       x1="35"
       y1="156"
       x2="253"
       y2="156"
       gradientUnits="userSpaceOnUse"
       gradientTransform="matrix(0,-1,1,0,-12,300)" />
    <linearGradient
       inkscape:collect="always"
       xlink:href="#outerBackgroundGradient"
       id="linearGradient4256"
       x1="417"
       y1="148"
       x2="431"
       y2="148"
       gradientUnits="userSpaceOnUse"
       gradientTransform="matrix(0,-1,1,0,276,572)" />
    <linearGradient
       inkscape:collect="always"
       xlink:href="#outerBackgroundGradient"
       id="linearGradient4260"
       x1="418"
       y1="68"
       x2="446"
       y2="68"
       gradientUnits="userSpaceOnUse"
       gradientTransform="matrix(0,-1,1,0,364,500)" />
    <linearGradient
       inkscape:collect="always"
       xlink:href="#outerBackgroundGradient"
       id="linearGradient4262"
       x1="292"
       y1="244"
       x2="332"
       y2="244"
       gradientUnits="userSpaceOnUse"
       gradientTransform="matrix(0,-1,1,0,68,556)" />
    <linearGradient
       inkscape:collect="always"
       xlink:href="#outerBackgroundGradient"
       id="linearGradient4264"
       x1="293"
       y1="76"
       x2="379"
       y2="76"
       gradientUnits="userSpaceOnUse"
       gradientTransform="matrix(0,-1,1,0,260,412)" />
    <linearGradient
       inkscape:collect="always"
       xlink:href="#outerBackgroundGradient"
       id="linearGradient4266"
       x1="291"
       y1="172"
       x2="349"
       y2="172"
       gradientUnits="userSpaceOnUse"
       gradientTransform="matrix(0,-1,1,0,148,492)" />
    <linearGradient
       inkscape:collect="always"
       xlink:href="#outerBackgroundGradient"
       id="linearGradient3870"
       gradientUnits="userSpaceOnUse"
       gradientTransform="matrix(0,-1,1,0,316,540)"
       x1="418"
       y1="112"
       x2="438"
       y2="112" />
  </defs>
  <metadata
     id="metadata4">
    <rdf:RDF>
      <cc:Work
         rdf:about="">
        <dc:format>image/svg+xml</dc:format>
        <dc:type
           rdf:resource="http://purl.org/dc/dcmitype/StillImage" />
        <dc:creator>
          <cc:Agent>
            <dc:title>Sam Hewitt</dc:title>
          </cc:Agent>
        </dc:creator>
        <dc:source />
        <cc:license
           rdf:resource="" />
        <dc:title />
        <dc:subject>
          <rdf:Bag />
        </dc:subject>
        <dc:date />
        <dc:rights>
          <cc:Agent>
            <dc:title />
          </cc:Agent>
        </dc:rights>
        <dc:publisher>
          <cc:Agent>
            <dc:title />
          </cc:Agent>
        </dc:publisher>
        <dc:identifier />
        <dc:relation />
        <dc:language />
        <dc:coverage />
        <dc:description />
        <dc:contributor>
          <cc:Agent>
            <dc:title />
          </cc:Agent>
        </dc:contributor>
      </cc:Work>
      <cc:Work
         rdf:about="">
        <dc:format>image/svg+xml</dc:format>
        <dc:type
           rdf:resource="http://purl.org/dc/dcmitype/StillImage" />
      </cc:Work>
    </rdf:RDF>
  </metadata>
  <g
     style="display:inline"
     inkscape:groupmode="layer"
     inkscape:label="Icon"
     id="layer1">
    <g
       style="display:none"
       inkscape:label="Baseplate"
       id="layer7"
       inkscape:groupmode="layer">
      <text
         y="19.745117"
         xml:space="preserve"
         x="15.006836"
         style="font-style:normal;font-variant:normal;font-weight:normal;font-stretch:normal;line-height:0%;font-family:'DejaVu Sans';-inkscape-font-specification:'DejaVu Sans';display:inline;fill:#000000;fill-opacity:1;stroke:none;enable-background:new"
         inkscape:label="context"
         id="context"><tspan
           style="font-style:normal;font-variant:normal;font-weight:normal;font-stretch:normal;font-size:18px;line-height:1.25;font-family:'DejaVu Sans';-inkscape-font-specification:'DejaVu Sans'"
           y="19.745117"
           x="15.006836"
           sodipodi:role="line"
           id="tspan3933">apps</tspan></text>
      <text
         y="19.745117"
         xml:space="preserve"
         x="122.48828"
         style="font-style:normal;font-variant:normal;font-weight:bold;font-stretch:normal;line-height:0%;font-family:'DejaVu Sans';-inkscape-font-specification:'DejaVu Sans Bold';text-align:start;writing-mode:lr-tb;text-anchor:start;display:inline;fill:#000000;fill-opacity:1;stroke:none;enable-background:new"
         inkscape:label="icon-name"
         id="icon-name"><tspan
           style="font-style:normal;font-variant:normal;font-weight:bold;font-stretch:normal;font-size:18px;line-height:1.25;font-family:'DejaVu Sans';-inkscape-font-specification:'DejaVu Sans Bold'"
           y="19.745117"
           x="122.48828"
           sodipodi:role="line"
           id="tspan3937">counter-strike</tspan></text>
      <rect
         style="fill:#eeeeec;fill-opacity:1;fill-rule:nonzero;stroke:none;stroke-width:2;marker:none;visibility:visible;display:inline;overflow:visible;enable-background:accumulate"
         id="rect16x16"
         width="16"
         height="16"
         x="416"
         y="140"
         inkscape:label="16x16" />
      <rect
         style="fill:#d4d4d4;fill-opacity:1;fill-rule:nonzero;stroke:none;stroke-width:2;marker:none;visibility:visible;display:inline;overflow:visible;enable-background:accumulate"
         id="rect24x24"
         width="24"
         height="24"
         x="416"
         y="100"
         inkscape:label="24x24" />
      <rect
         style="fill:#eeeeec;fill-opacity:1;fill-rule:nonzero;stroke:none;stroke-width:2;marker:none;visibility:visible;display:inline;overflow:visible;enable-background:accumulate"
         id="rect32x32"
         width="32"
         height="32"
         x="416"
         y="52"
         inkscape:label="32x32" />
      <rect
         inkscape:label="22x22"
         y="101"
         x="417"
         height="22"
         width="22"
         id="rect22x22"
         style="fill:#eeeeec;fill-opacity:1;fill-rule:nonzero;stroke:none;stroke-width:2;marker:none;visibility:visible;display:inline;overflow:visible;enable-background:accumulate" />
      <rect
         inkscape:label="48x48"
         y="220"
         x="288"
         height="48"
         width="48"
         id="rect48x48"
         style="fill:#eeeeec;fill-opacity:1;fill-rule:nonzero;stroke:none;stroke-width:2;marker:none;visibility:visible;display:inline;overflow:visible;enable-background:accumulate" />
      <rect
         style="fill:#eeeeec;fill-opacity:1;fill-rule:nonzero;stroke:none;stroke-width:2;marker:none;visibility:visible;display:inline;overflow:visible;enable-background:accumulate"
         id="rect256x256"
         width="256"
         height="256"
         x="16"
         y="28"
         inkscape:label="256x256" />
      <rect
         style="fill:#eeeeec;fill-opacity:1;fill-rule:nonzero;stroke:none;stroke-width:2;marker:none;visibility:visible;display:inline;overflow:visible;enable-background:accumulate"
         id="rect64x64"
         width="64"
         height="64"
         x="288"
         y="140"
         inkscape:label="64x64" />
      <rect
         style="fill:#eeeeec;fill-opacity:1;fill-rule:nonzero;stroke:none;stroke-width:2;marker:none;visibility:visible;display:inline;overflow:visible;enable-background:accumulate"
         id="rect96x96"
         width="96"
         height="96"
         x="288"
         y="28"
         inkscape:label="96x96" />
    </g>
    <g
       inkscape:groupmode="layer"
       id="layer4"
       inkscape:label="Shadow"
       style="display:inline"
       sodipodi:insensitive="true">
      <rect
         ry="50"
         y="47"
         x="34"
         height="220"
         width="220"
         id="rect4114"
         style="opacity:0.1;color:#bebebe;fill:#000000;fill-opacity:1;fill-rule:nonzero;stroke:none;stroke-width:0;marker:none;visibility:visible;display:inline;overflow:visible;enable-background:accumulate" />
      <rect
         style="opacity:0.1;color:#bebebe;fill:#000000;fill-opacity:1;fill-rule:nonzero;stroke:none;stroke-width:0;marker:none;visibility:visible;display:inline;overflow:visible;enable-background:accumulate"
         id="rect4120"
         width="30"
         height="30"
         x="417"
         y="54"
         ry="7" />
      <rect
         transform="scale(1,-1)"
         ry="9"
         y="-266"
         x="291"
         height="42"
         width="42"
         id="rect4122"
         style="opacity:0.1;color:#bebebe;fill:#000000;fill-opacity:1;fill-rule:nonzero;stroke:none;stroke-width:0;marker:none;visibility:visible;display:inline;overflow:visible;enable-background:accumulate" />
      <rect
         style="opacity:0.1;color:#bebebe;fill:#000000;fill-opacity:1;fill-rule:nonzero;stroke:none;stroke-width:0;marker:none;visibility:visible;display:inline;overflow:visible;enable-background:accumulate"
         id="rect4124"
         width="88"
         height="88"
         x="292"
         y="33"
         ry="18" />
      <rect
         ry="12.5"
         y="143"
         x="290"
         height="60"
         width="60"
         id="rect4126"
         style="opacity:0.1;color:#bebebe;fill:#000000;fill-opacity:1;fill-rule:nonzero;stroke:none;stroke-width:0;marker:none;visibility:visible;display:inline;overflow:visible;enable-background:accumulate" />
      <path
         id="path4268"
         d="m 422,101 c -2.77,0 -5,2.23 -5,5 l 0,12 c 0,2.77 2.23,5 5,5 l 12,0 c 2.77,0 5,-2.23 5,-5 l 0,-12 c 0,-2.77 -2.23,-5 -5,-5 z"
         style="opacity:0.1;color:#bebebe;fill:#000000;fill-opacity:1;fill-rule:nonzero;stroke:none;stroke-width:0;marker:none;visibility:visible;display:inline;overflow:visible;enable-background:accumulate"
         inkscape:connector-curvature="0"
         sodipodi:nodetypes="sssssssss" />
      <path
         id="path4270"
         d="m 419,140 c -1.662,0 -3,1.338 -3,3 l 0,10 c 0,1.662 1.338,3 3,3 l 10,0 c 1.662,0 3,-1.338 3,-3 l 0,-10 c 0,-1.662 -1.338,-3 -3,-3 z"
         style="opacity:0.1;color:#bebebe;fill:#000000;fill-opacity:1;fill-rule:nonzero;stroke:none;stroke-width:0;marker:none;visibility:visible;display:inline;overflow:visible;enable-background:accumulate"
         inkscape:connector-curvature="0"
         sodipodi:nodetypes="sssssssss" />
    </g>
    <g
       inkscape:groupmode="layer"
       id="layer2"
       inkscape:label="Background"
       style="display:inline">
      <path
         style="color:#bebebe;fill:url(#linearGradient4254);fill-opacity:1;fill-rule:nonzero;stroke:none;stroke-width:2;marker:none;visibility:visible;display:inline;overflow:visible;enable-background:accumulate"
         d="M 84 46.5 C 56.568735 46.5 34.5 68.568732 34.5 96 L 34.5 216 C 34.5 243.43127 56.568735 265.5 84 265.5 L 204 265.5 C 231.43127 265.5 253.5 243.43127 253.5 216 L 253.5 96 C 253.5 68.568732 231.43127 46.5 204 46.5 L 84 46.5 z "
         id="path4200" />
      <path
         style="color:#bebebe;fill:url(#linearGradient4256);fill-opacity:1;fill-rule:nonzero;stroke:none;stroke-width:2;marker:none;visibility:visible;display:inline;overflow:visible;enable-background:accumulate"
         d="M 419 140.5 C 417.6156 140.5 416.5 141.6156 416.5 143 L 416.5 153 C 416.5 154.3844 417.6156 155.5 419 155.5 L 429 155.5 C 430.3844 155.5 431.5 154.3844 431.5 153 L 431.5 143 C 431.5 141.6156 430.3844 140.5 429 140.5 L 419 140.5 z "
         id="path4202" />
      <path
         style="color:#bebebe;fill:url(#linearGradient3870);fill-opacity:1;fill-rule:nonzero;stroke:none;stroke-width:2;marker:none;visibility:visible;display:inline;overflow:visible;enable-background:accumulate"
         d="M 422 101.5 C 419.50301 101.5 417.5 103.50301 417.5 106 L 417.5 118 C 417.5 120.49699 419.50301 122.5 422 122.5 L 434 122.5 C 436.49699 122.5 438.5 120.49699 438.5 118 L 438.5 106 C 438.5 103.50301 436.49699 101.5 434 101.5 L 422 101.5 z "
         id="path4204" />
      <path
         style="color:#bebebe;fill:url(#linearGradient4260);fill-opacity:1;fill-rule:nonzero;stroke:none;stroke-width:2;marker:none;visibility:visible;display:inline;overflow:visible;enable-background:accumulate"
         d="M 424 53.5 C 420.39346 53.5 417.5 56.393464 417.5 60 L 417.5 76 C 417.5 79.606536 420.39346 82.5 424 82.5 L 440 82.5 C 443.60654 82.5 446.5 79.606536 446.5 76 L 446.5 60 C 446.5 56.393464 443.60654 53.5 440 53.5 L 424 53.5 z "
         id="path4206" />
      <path
         style="color:#bebebe;fill:url(#linearGradient4262);fill-opacity:1;fill-rule:nonzero;stroke:none;stroke-width:2;marker:none;visibility:visible;display:inline;overflow:visible;enable-background:accumulate"
         d="M 300 223.5 C 295.28469 223.5 291.5 227.28469 291.5 232 L 291.5 256 C 291.5 260.71531 295.28469 264.5 300 264.5 L 324 264.5 C 328.71531 264.5 332.5 260.71531 332.5 256 L 332.5 232 C 332.5 227.28469 328.71531 223.5 324 223.5 L 300 223.5 z "
         id="path4208" />
      <path
         style="color:#bebebe;fill:url(#linearGradient4264);fill-opacity:1;fill-rule:nonzero;stroke:none;stroke-width:2;marker:none;visibility:visible;display:inline;overflow:visible;enable-background:accumulate"
         d="M 310 32.5 C 300.29745 32.5 292.5 40.297452 292.5 50 L 292.5 102 C 292.5 111.70255 300.29745 119.5 310 119.5 L 362 119.5 C 371.70255 119.5 379.5 111.70255 379.5 102 L 379.5 50 C 379.5 40.297452 371.70255 32.5 362 32.5 L 310 32.5 z "
         id="path4210" />
      <path
         style="color:#bebebe;fill:url(#linearGradient4266);fill-opacity:1;fill-rule:nonzero;stroke:none;stroke-width:2;marker:none;visibility:visible;display:inline;overflow:visible;enable-background:accumulate"
         d="M 302.5 142.5 C 295.84498 142.5 290.5 147.84498 290.5 154.5 L 290.5 189.5 C 290.5 196.15502 295.84498 201.5 302.5 201.5 L 337.5 201.5 C 344.15502 201.5 349.5 196.15502 349.5 189.5 L 349.5 154.5 C 349.5 147.84498 344.15502 142.5 337.5 142.5 L 302.5 142.5 z "
         id="path4212" />
    </g>
    <g
       inkscape:groupmode="layer"
       id="layer6"
       inkscape:label="Symbols"
       style="display:inline">
      <path
         id="path3877"
         d="m 188.58301,93.000615 c -6.75756,0.0222 -13.98129,0.48003 -20.21462,0.48003 -13.9111,0 -27.55637,-0.49268 -39.62915,0.40003 -18.65241,1.37915 -32.495316,9.524195 -42.055998,19.814585 -9.766362,10.51227 -17.361095,25.39456 -17.361095,43.65609 0,19.03645 7.374117,33.25988 17.361095,43.65608 9.50094,9.88968 23.577318,18.62873 41.255938,19.81459 32.60574,2.18523 54.30361,-16.05628 63.8707,-39.20247 6.2122,-15.03083 13.72119,-33.09635 20.2146,-48.90975 1.96206,-4.77757 5.83265,-10.86198 6.48041,-16.58772 1.29041,-11.41138 -4.81261,-17.975552 -12.53413,-21.014665 -4.33442,-1.70603 -10.6302,-2.12899 -17.38775,-2.1068 z m -54.9368,12.640805 c 15.56942,0.052 26.82144,6.21811 34.72218,13.30751 9.91487,8.8967 19.08771,27.03211 15.761,46.90962 -2.71607,16.22735 -11.81718,29.11108 -26.66836,37.17567 -16.16077,8.77681 -36.47858,7.47858 -50.9632,-1.20007 -13.978102,-8.37525 -27.134009,-24.60621 -25.068253,-50.13649 1.09838,-13.57485 6.999851,-22.99787 14.560919,-30.72194 7.045164,-7.19751 16.942694,-13.48791 30.721944,-14.96095 2.40431,-0.2571 4.70956,-0.38077 6.93377,-0.37335 z m -2.64016,12.9608 c -1.05059,0.0529 -2.2284,0.30748 -3.49356,0.80006 -3.28837,1.21894 -2.43879,5.63875 -2.16013,8.64055 -0.18621,0.27997 -0.54808,0.18667 -0.82673,0.18667 -3.56703,0.18754 -5.16893,3.93066 -5.92037,6.93378 0.18621,2.72181 -0.19524,5.72178 -0.66671,8.34719 -0.47146,2.62673 -1.39966,4.69416 -1.49343,7.22712 -0.18621,2.25169 0.66625,4.8963 0.48003,6.96044 -1.97302,5.81738 -3.39817,9.64857 -4.42694,15.84101 -0.75012,1.40646 -3.36358,4.40931 -4.40029,5.06697 -0.27864,0.46752 0.17152,1.50511 -0.29335,2.16014 -0.84387,1.21894 -2.15673,1.88617 -2.90685,3.20021 0.18621,0.27997 -1.11376,0.54325 -1.01339,1.01339 0.0924,0.46752 0.73475,1.69084 1.01339,1.97346 0.0924,0.18753 1.04007,-0.28262 1.04007,0 0.37902,1.12386 1.22382,3.46434 2.16013,4.02692 4.13226,0.4675 4.12726,0.4675 5.81371,0 0.93633,-2.72182 -3.17129,-1.48752 -2.80018,-5.14699 5.63381,-1.12385 7.40227,-2.73072 9.65394,-8.64054 1.02877,-4.31583 2.42904,-8.53919 4.58697,-12.66747 0.37109,-0.27997 0.27572,-1.02413 0.93338,-1.30675 2.53033,4.22073 7.14218,7.21781 9.38725,11.6274 0.56524,5.72229 1.68848,8.83455 3.65357,9.86729 0.47147,0.18753 -0.006,1.97176 0.37336,2.34682 0,0.56259 0.19865,1.20909 -0.08,1.86678 -0.19281,0.47013 -0.08,1.02461 -0.08,1.49343 l 0,0.56003 c 0.0924,0.84785 0.27619,0.86638 1.12007,1.5201 2.43787,1.594 5.70679,4.11676 8.98723,2.24014 1.50156,-2.44185 -1.66857,-5.52513 -3.92025,-7.12045 -0.75011,-0.56259 -2.07834,-1.96789 -1.89345,-2.90685 1.22291,-1.22027 2.07156,-6.56572 1.6001,-10.694 -0.18621,-0.93634 -0.36769,-1.89007 -0.74671,-2.64017 -1.12254,-2.1566 -3.6558,-5.15055 -5.8137,-7.30713 0.27866,-0.27999 0.6552,-0.66586 1.12007,-0.85339 0,-2.06283 -0.85224,-2.71337 -1.97346,-4.2136 -0.94426,-1.50156 -3.09171,-4.42136 -4.69363,-5.36034 0,0 -0.006,-0.08 -1.6001,-0.08 -0.0924,-1.03141 0.20138,-1.88833 0.48003,-3.01352 0,-0.84388 0.66718,-0.3622 0.85339,-2.24013 0.47146,-1.59401 0.26102,-0.67281 0.64005,-2.2668 0.37109,-0.75014 0.5867,-1.49991 0.5867,-2.72018 1.40118,0.47014 4.21743,0.37506 5.44034,0 l 0.26668,0.18667 c 0.37902,0.0951 0.46807,-0.46627 0.74672,-0.56004 2.15922,-1.12781 2.91341,-3.09267 4.69362,-3.2802 0,0 0.94695,-0.47014 2.34681,0 0.56524,0 1.04007,0.10922 1.04007,-0.45336 0.0924,-0.84388 0.0872,-1.51491 0.56003,-2.08013 0.3711,2.25168 1.40096,4.78791 3.28022,7.22712 l 1.86678,-1.30675 c -1.7802,-2.15659 -2.8994,-4.59821 -3.09353,-7.4138 0.0924,0.18753 0.18715,0.37252 0.37335,0.56004 0.65768,0 1.03535,-1.40052 1.78679,-1.30676 0.0924,-0.18753 0.29513,-1.05042 0.48002,-1.70676 l 7.01379,0 2.53349,-0.56004 0,-1.30675 -1.86679,-0.18669 0,-1.49341 -0.48003,0 0,-1.70678 -1.12007,0 0,1.60011 -2.90686,-0.1867 0,-1.04005 -1.12006,0 0,0.96005 -2.98685,-0.29335 0,-1.41342 -1.14674,0 0,1.33342 -4.40028,-0.29336 0,-0.45335 -3.28021,0 0,-0.85339 -1.78677,0 0,0.45336 c -0.19282,0.0924 -0.37382,0.28091 -0.56004,0.37335 l -0.18668,0 c -3.10347,-2.43919 -3.29356,2.53993 -5.36034,1.41344 -0.1862,-1.03275 -0.0799,-1.9546 -0.0799,-3.17354 3.56702,-0.0951 2.25552,-1.04787 1.22675,-2.26681 -0.3711,-0.47016 -0.57428,-1.21129 -0.66672,-1.68011 -0.63291,-2.32166 -2.74195,-3.97193 -5.89369,-3.81358 z m 6.32039,14.45426 c 0.44686,1.6e-4 0.69337,0.16001 0.69337,0.16001 1.12387,-0.19017 2.16011,0.0942 3.94692,0 -0.28657,3.09556 -2.52242,1.77779 -4.96031,3.46689 -0.65767,-0.0924 -1.4234,-0.10668 -2.45348,-0.10668 -0.18622,-2.06415 0.56228,-2.42511 0.93338,-2.80017 0.75078,-0.56324 1.39325,-0.72021 1.84012,-0.72005 z"
         style="fill:#000000;fill-opacity:1;display:inline;enable-background:new;opacity:0.2"
         inkscape:connector-curvature="0" />
      <path
         style="fill:#000000;fill-opacity:1;display:inline;enable-background:new;opacity:0.2"
         d="m 354.11185,52.000131 c -2.74526,0.009 -5.67989,0.195012 -8.21218,0.195012 -5.65139,0 -11.19478,-0.20015 -16.09936,0.162511 -7.57753,0.560283 -13.20121,3.869209 -17.08524,8.049675 -3.96759,4.27061 -7.05295,10.316543 -7.05295,17.735291 0,7.733558 2.99573,13.511829 7.05295,17.735285 3.85976,4.017684 9.57829,7.567925 16.76022,8.049675 13.24609,0.88775 22.06085,-6.522862 25.94747,-15.926004 2.52372,-6.106271 5.57424,-13.44539 8.21219,-19.869593 0.79709,-1.940887 2.36952,-4.412676 2.63267,-6.738758 0.52423,-4.635873 -1.95512,-7.302569 -5.09199,-8.537206 -1.76086,-0.693076 -4.31852,-0.864902 -7.06378,-0.855888 z m -22.31807,5.135325 c 6.32507,0.02112 10.89621,2.526111 14.10589,5.406174 4.02791,3.614287 7.75438,10.981799 6.4029,19.057035 -1.10341,6.592357 -4.80074,11.826385 -10.83402,15.102618 -6.56532,3.565577 -14.81943,3.038177 -20.70381,-0.487528 -5.6786,-3.40244 -11.02319,-9.996267 -10.18398,-20.367952 0.44623,-5.514781 2.84369,-9.342881 5.91538,-12.480788 2.8621,-2.923984 6.88297,-5.479461 12.48078,-6.077883 0.97676,-0.104447 1.91327,-0.154693 2.81686,-0.151676 z m -1.07257,5.265331 c -0.4268,0.02146 -0.90528,0.124905 -1.41927,0.325021 -1.33588,0.495196 -0.99074,2.290742 -0.87755,3.510221 -0.0756,0.113739 -0.22265,0.07584 -0.33585,0.07584 -1.44911,0.07619 -2.09988,1.596827 -2.40516,2.816845 0.0756,1.105736 -0.0793,2.324471 -0.27084,3.39105 -0.19154,1.067104 -0.56862,1.907003 -0.60671,2.936018 -0.0756,0.914742 0.27065,1.989117 0.19501,2.827674 -0.80154,2.363312 -1.3805,3.919737 -1.79844,6.435409 -0.30474,0.571381 -1.36646,1.791287 -1.78761,2.058462 -0.11321,0.189925 0.0697,0.611446 -0.11919,0.877555 -0.34281,0.495197 -0.87616,0.766262 -1.1809,1.300089 0.0756,0.11373 -0.45247,0.220694 -0.41169,0.411685 0.0376,0.189934 0.29849,0.686905 0.41169,0.80172 0.0376,0.07621 0.42253,-0.114815 0.42253,0 0.15398,0.456566 0.49718,1.407383 0.87756,1.635936 1.67872,0.189926 1.67669,0.189926 2.36182,0 0.38037,-1.105741 -1.28834,-0.604301 -1.13757,-2.090967 2.28872,-0.456558 3.00716,-1.109355 3.9219,-3.510223 0.41793,-1.753299 0.9868,-3.469034 1.86345,-5.146159 0.15076,-0.113729 0.11202,-0.416051 0.3792,-0.530866 1.02794,1.714678 2.90151,2.932238 3.81358,4.723635 0.22961,2.324682 0.68594,3.589035 1.48425,4.00859 0.19153,0.07621 -0.003,0.801021 0.15168,0.953391 0,0.228555 0.0807,0.491198 -0.0325,0.758383 -0.0783,0.190991 -0.0325,0.416244 -0.0325,0.606703 l 0,0.227513 c 0.0376,0.344447 0.1122,0.351975 0.45503,0.617542 0.99039,0.647567 2.31839,1.672436 3.65106,0.910063 0.61001,-0.992002 -0.67786,-2.244589 -1.5926,-2.892688 -0.30473,-0.228555 -0.84433,-0.799459 -0.76921,-1.180907 0.4968,-0.495739 0.84157,-2.667325 0.65004,-4.344439 -0.0756,-0.380392 -0.14937,-0.767843 -0.30336,-1.072573 -0.45603,-0.876112 -1.48516,-2.092403 -2.3618,-2.968525 0.1132,-0.11374 0.26616,-0.270504 0.45502,-0.346688 0,-0.838025 -0.34622,-1.102304 -0.80172,-1.711774 -0.38361,-0.610002 -1.256,-1.796177 -1.90679,-2.177635 0,0 -0.003,-0.03245 -0.65004,-0.03245 -0.0375,-0.419012 0.0818,-0.767144 0.19502,-1.224244 0,-0.342827 0.27104,-0.147148 0.34669,-0.910053 0.19152,-0.647567 0.10603,-0.273336 0.26001,-0.920893 0.15076,-0.30474 0.23835,-0.609341 0.23835,-1.105071 0.56924,0.190991 1.71333,0.15237 2.21014,0 l 0.10834,0.07585 c 0.15398,0.03861 0.19015,-0.189428 0.30335,-0.227516 0.87719,-0.458176 1.18357,-1.2564 1.90679,-1.332585 0,0 0.38469,-0.190995 0.9534,0 0.22961,0 0.42252,0.04438 0.42252,-0.184179 0.0376,-0.342829 0.0355,-0.61543 0.22752,-0.845052 0.15075,0.914744 0.56914,1.945093 1.33257,2.93602 l 0.75838,-0.530867 c -0.7232,-0.876112 -1.17787,-1.868029 -1.25673,-3.011859 0.0376,0.07619 0.076,0.151334 0.15167,0.227514 0.26718,0 0.4206,-0.56896 0.72588,-0.530866 0.0376,-0.07619 0.1199,-0.426732 0.195,-0.693377 l 2.84936,0 1.02923,-0.227515 0,-0.530867 -0.75839,-0.07583 0,-0.606704 -0.19501,0 0,-0.693379 -0.45503,0 0,0.650042 -1.18091,-0.07583 0,-0.422527 -0.45503,0 0,0.390025 -1.2134,-0.119175 0,-0.574202 -0.46586,0 0,0.5417 -1.78762,-0.119173 0,-0.184179 -1.33258,0 0,-0.346688 -0.72588,0 0,0.184178 c -0.0783,0.03756 -0.15186,0.114119 -0.22752,0.151676 l -0.0758,0 c -1.26078,-0.990926 -1.33801,1.031842 -2.17763,0.574203 -0.0756,-0.419549 -0.0325,-0.794051 -0.0325,-1.289248 1.4491,-0.03863 0.91631,-0.425696 0.49837,-0.920892 -0.15077,-0.190998 -0.23329,-0.492086 -0.27085,-0.682542 -0.25712,-0.943177 -1.11393,-1.613597 -2.39432,-1.549265 z m 2.56766,5.872038 c 0.18154,6.7e-5 0.28168,0.065 0.28168,0.065 0.45657,-0.07726 0.87755,0.03826 1.60343,0 -0.11641,1.257571 -1.02473,0.722231 -2.01512,1.408422 -0.26718,-0.03756 -0.57825,-0.04333 -0.99673,-0.04333 -0.0756,-0.83856 0.22842,-0.985202 0.37919,-1.137572 0.305,-0.228818 0.566,-0.292584 0.74755,-0.292519 z"
         id="path3879"
         inkscape:connector-curvature="0" />
      <path
         inkscape:connector-curvature="0"
         id="path3881"
         d="m 331.84236,156.00002 c -1.79497,0.006 -3.71378,0.12751 -5.36951,0.12751 -3.69513,0 -7.31965,-0.13086 -10.52649,0.10626 -4.95455,0.36634 -8.63157,2.52987 -11.17113,5.26325 -2.59419,2.79232 -4.61154,6.74543 -4.61154,11.59615 0,5.05656 1.95876,8.83466 4.61154,11.59614 2.52369,2.62695 6.26273,4.94826 10.9586,5.26325 8.66091,0.58046 14.42441,-4.26494 16.96567,-10.41315 1.65011,-3.99256 3.64468,-8.79121 5.3695,-12.99165 0.52118,-1.26905 1.54931,-2.88522 1.72137,-4.40611 0.34276,-3.03116 -1.27836,-4.77477 -3.32939,-5.58203 -1.15133,-0.45316 -2.82365,-0.56551 -4.61862,-0.55962 z m -14.59259,3.35772 c 4.13563,0.0138 7.12445,1.65168 9.22308,3.5348 2.63364,2.36319 5.07017,7.18041 4.18652,12.46038 -0.72146,4.31038 -3.13894,7.73262 -7.08378,9.87478 -4.29271,2.33134 -9.68963,1.9865 -13.53711,-0.31877 -3.71293,-2.22468 -7.20746,-6.53601 -6.65875,-13.3175 0.29176,-3.60583 1.85933,-6.10881 3.86774,-8.16052 1.87137,-1.91183 4.50041,-3.58272 8.16052,-3.974 0.63864,-0.0682 1.25098,-0.10114 1.84178,-0.0992 z m -0.70129,3.44271 c -0.27907,0.0141 -0.59192,0.0817 -0.92798,0.21252 -0.87347,0.32378 -0.6478,1.49779 -0.57379,2.29514 -0.0495,0.0744 -0.14558,0.0496 -0.21959,0.0496 -0.9475,0.0498 -1.37299,1.04407 -1.57261,1.84178 0.0495,0.72299 -0.0519,1.51985 -0.17709,2.21722 -0.12522,0.69773 -0.37179,1.2469 -0.39668,1.9197 -0.0495,0.59811 0.17696,1.30058 0.12751,1.84888 -0.52409,1.54523 -0.90265,2.5629 -1.17592,4.20776 -0.19925,0.37359 -0.89345,1.17123 -1.16882,1.34593 -0.074,0.12417 0.0455,0.39979 -0.0779,0.57378 -0.22416,0.32378 -0.57288,0.50101 -0.77214,0.85005 0.0495,0.0744 -0.29584,0.14431 -0.26918,0.26918 0.0245,0.12419 0.19517,0.44913 0.26918,0.52421 0.0245,0.0498 0.27627,-0.0751 0.27627,0 0.10068,0.29853 0.32508,0.92021 0.57379,1.06964 1.09763,0.12419 1.0963,0.12419 1.54426,0 0.24872,-0.72298 -0.84237,-0.39512 -0.74379,-1.36717 1.49648,-0.29852 1.96621,-0.72534 2.56433,-2.29515 0.27326,-1.14638 0.6452,-2.26821 1.2184,-3.36479 0.0986,-0.0744 0.0732,-0.27202 0.24793,-0.34709 0.67212,1.12112 1.89714,1.91722 2.4935,3.08851 0.15013,1.51999 0.4485,2.34668 0.97047,2.621 0.12523,0.0499 -0.002,0.52375 0.0992,0.62338 0,0.14943 0.0528,0.32117 -0.0213,0.49586 -0.0512,0.12488 -0.0213,0.27216 -0.0213,0.3967 l 0,0.14875 c 0.0245,0.22521 0.0734,0.23013 0.29751,0.40378 0.64757,0.42341 1.51588,1.09352 2.38724,0.59503 0.39886,-0.64861 -0.44321,-1.46761 -1.04132,-1.89136 -0.19925,-0.14944 -0.55206,-0.52273 -0.50295,-0.77214 0.32484,-0.32413 0.55026,-1.74402 0.42504,-2.84059 -0.0495,-0.24872 -0.0977,-0.50205 -0.19835,-0.7013 -0.29818,-0.57285 -0.97107,-1.36811 -1.54426,-1.94096 0.074,-0.0744 0.17403,-0.17687 0.29751,-0.22666 0,-0.54795 -0.22638,-0.72076 -0.5242,-1.11925 -0.25082,-0.39885 -0.82124,-1.17443 -1.24674,-1.42384 0,0 -0.002,-0.0212 -0.42503,-0.0212 -0.0245,-0.27397 0.0535,-0.50159 0.1275,-0.80047 0,-0.22416 0.17722,-0.0962 0.22669,-0.59504 0.12523,-0.4234 0.0693,-0.17871 0.17001,-0.60212 0.0986,-0.19925 0.15584,-0.39841 0.15584,-0.72255 0.3722,0.12488 1.12026,0.0996 1.44509,0 l 0.0709,0.0496 c 0.10068,0.0252 0.12433,-0.12384 0.19834,-0.14875 0.57355,-0.29959 0.77388,-0.82149 1.24675,-0.87131 0,0 0.25153,-0.12488 0.62337,0 0.15014,0 0.27627,0.0291 0.27627,-0.12042 0.0245,-0.22415 0.0232,-0.4024 0.14875,-0.55253 0.0986,0.5981 0.37213,1.27178 0.87131,1.91969 l 0.49586,-0.3471 c -0.47286,-0.57283 -0.77014,-1.22139 -0.82172,-1.96928 0.0245,0.0499 0.0497,0.099 0.0992,0.14875 0.17468,0 0.27501,-0.37201 0.4746,-0.3471 0.0245,-0.0499 0.0785,-0.27901 0.12752,-0.45337 l 1.86302,0 0.67296,-0.14876 0,-0.3471 -0.49586,-0.0496 0,-0.3967 -0.12751,0 0,-0.45336 -0.29752,0 0,0.42503 -0.77213,-0.0496 0,-0.27626 -0.29751,0 0,0.25502 -0.7934,-0.078 0,-0.37544 -0.30458,0 0,0.35419 -1.16884,-0.0779 0,-0.12042 -0.8713,0 0,-0.22668 -0.47461,0 0,0.12042 c -0.0512,0.0245 -0.0993,0.0747 -0.14876,0.0992 l -0.0496,0 c -0.82435,-0.64791 -0.87484,0.67467 -1.42384,0.37545 -0.0494,-0.27432 -0.0213,-0.51919 -0.0213,-0.84298 0.94749,-0.0253 0.59912,-0.27833 0.32584,-0.60212 -0.0986,-0.12488 -0.15254,-0.32174 -0.17709,-0.44628 -0.16811,-0.61669 -0.72834,-1.05504 -1.56552,-1.01298 z m 1.67886,3.83941 c 0.11869,5e-5 0.18418,0.0425 0.18418,0.0425 0.29851,-0.0505 0.57377,0.025 1.04838,0 -0.0761,0.82226 -0.67001,0.47223 -1.31757,0.92089 -0.1747,-0.0245 -0.37809,-0.0283 -0.6517,-0.0283 -0.0495,-0.54828 0.14935,-0.64416 0.24792,-0.7438 0.19942,-0.1496 0.37009,-0.1913 0.48879,-0.19126 z"
         style="fill:#000000;fill-opacity:1;display:inline;enable-background:new;opacity:0.2" />
      <path
         style="fill:#000000;fill-opacity:1;display:inline;enable-background:new;opacity:0.2"
         d="m 320.35806,233.00173 c -1.26685,0.005 -2.62109,0.09 -3.78967,0.09 -2.60793,0 -5.16604,-0.0924 -7.42935,0.075 -3.49681,0.25856 -6.09196,1.78554 -7.88432,3.71469 C 299.4238,238.85217 298,241.64219 298,245.0657 c 0,3.56881 1.38244,6.2353 3.25472,8.18431 1.78116,1.85403 4.42009,3.49235 7.73433,3.71466 6.11266,0.40968 10.1804,-3.0101 11.97396,-7.34935 1.16462,-2.81786 2.57235,-6.20464 3.78967,-9.16921 0.36783,-0.89566 1.09347,-2.03631 1.21489,-3.10973 0.24193,-2.13931 -0.90223,-3.36991 -2.34979,-3.93966 -0.81258,-0.31984 -1.99286,-0.39912 -3.25972,-0.39496 z m -10.29911,2.36979 c 2.91884,0.01 5.02828,1.16572 6.50944,2.49478 1.85876,1.66789 3.57841,5.06776 2.95475,8.79424 -0.50919,3.04218 -2.2154,5.45751 -4.99957,6.9694 -3.02969,1.6454 -6.83871,1.40203 -9.55417,-0.22498 -2.6205,-1.57012 -5.08686,-4.61297 -4.69959,-9.39918 0.2059,-2.54491 1.31228,-4.31145 2.72975,-5.75952 1.32077,-1.34932 3.17629,-2.52859 5.75951,-2.80475 0.45074,-0.0482 0.88292,-0.0713 1.29988,-0.07 z m -0.49495,2.42979 c -0.19695,0.01 -0.41776,0.0576 -0.65495,0.14999 -0.61647,0.22852 -0.4572,1.0571 -0.40496,1.61986 -0.035,0.0525 -0.10275,0.035 -0.15498,0.035 -0.66872,0.0351 -0.96903,0.73688 -1.1099,1.29988 0.0349,0.51027 -0.0366,1.07267 -0.125,1.56487 -0.0883,0.49243 -0.2624,0.88003 -0.27997,1.35488 -0.0349,0.42212 0.12489,0.91791 0.09,1.30488 -0.36989,1.0906 -0.63706,1.80884 -0.82993,2.96974 -0.14063,0.26368 -0.63057,0.82664 -0.82493,0.94993 -0.0522,0.0877 0.0322,0.28216 -0.0549,0.40496 -0.1582,0.22851 -0.40433,0.3536 -0.54495,0.59996 0.0349,0.0525 -0.2088,0.10184 -0.18999,0.18997 0.0173,0.0877 0.13775,0.31699 0.18999,0.36997 0.0173,0.0351 0.19498,-0.0529 0.19498,0 0.0711,0.21069 0.22943,0.64947 0.40496,0.75494 0.77468,0.0877 0.77374,0.0877 1.08991,0 0.17553,-0.51027 -0.59452,-0.27887 -0.52496,-0.96492 1.05618,-0.2107 1.38772,-0.51193 1.80984,-1.61986 0.19288,-0.80909 0.45538,-1.60086 0.85994,-2.3748 0.0695,-0.0525 0.0518,-0.19199 0.17498,-0.24497 0.47436,0.79127 1.33896,1.35314 1.75984,2.17981 0.10597,1.07277 0.31655,1.65623 0.68495,1.84984 0.0883,0.0351 -8.8e-4,0.36965 0.07,0.43996 0,0.10547 0.0373,0.22667 -0.015,0.34997 -0.0361,0.0881 -0.015,0.19209 -0.015,0.27998 l 0,0.10499 c 0.0173,0.15895 0.0519,0.16242 0.20999,0.28497 0.45703,0.29884 1.06986,0.77178 1.68486,0.41997 0.28149,-0.45778 -0.31282,-1.03581 -0.73495,-1.33489 -0.14062,-0.10547 -0.38963,-0.36892 -0.35497,-0.54495 0.22926,-0.22876 0.38836,-1.23089 0.29998,-2.00483 -0.0349,-0.17553 -0.0689,-0.35433 -0.13999,-0.49496 -0.21045,-0.4043 -0.68537,-0.96557 -1.08991,-1.36987 0.0522,-0.0525 0.12284,-0.12483 0.20998,-0.15999 0,-0.38673 -0.15976,-0.50868 -0.36996,-0.78994 -0.17703,-0.2815 -0.57961,-0.82887 -0.87993,-1.00491 0,0 -8.7e-4,-0.015 -0.29997,-0.015 -0.0173,-0.19337 0.0378,-0.35402 0.09,-0.56495 0,-0.1582 0.12507,-0.0679 0.15999,-0.41997 0.0883,-0.29882 0.0489,-0.12613 0.11998,-0.42496 0.0695,-0.14063 0.10999,-0.28119 0.10999,-0.50996 0.26269,0.0882 0.79067,0.0704 1.01992,0 l 0.05,0.035 c 0.0711,0.0179 0.0878,-0.0874 0.13999,-0.10499 0.4048,-0.21144 0.54619,-0.5798 0.87993,-0.61495 0,0 0.17753,-0.0882 0.43996,0 0.10596,0 0.19498,0.0205 0.19498,-0.085 0.0173,-0.15821 0.0164,-0.284 0.10499,-0.38997 0.0695,0.42213 0.26265,0.8976 0.61495,1.35489 l 0.34997,-0.24498 c -0.33374,-0.4043 -0.54356,-0.86203 -0.57995,-1.38988 0.0173,0.0351 0.0351,0.0698 0.07,0.10499 0.1233,0 0.1941,-0.26256 0.33498,-0.24498 0.0173,-0.0352 0.0553,-0.19692 0.09,-0.31997 l 1.31488,0 0.47495,-0.10499 0,-0.24499 -0.34997,-0.035 0,-0.27997 -0.09,0 0,-0.31998 -0.21,0 0,0.29998 -0.54494,-0.035 0,-0.19497 -0.20998,0 0,0.17998 -0.55996,-0.0549 0,-0.26497 -0.21498,0 0,0.24998 -0.82494,-0.0549 0,-0.085 -0.61493,0 0,-0.15998 -0.33498,0 0,0.085 c -0.0361,0.0173 -0.0701,0.0527 -0.10499,0.07 l -0.035,0 c -0.58181,-0.45728 -0.61745,0.47617 -1.00491,0.26498 -0.0349,-0.19361 -0.015,-0.36643 -0.015,-0.59495 0.66872,-0.0179 0.42286,-0.19645 0.22999,-0.42496 -0.0696,-0.0882 -0.10766,-0.22708 -0.125,-0.31498 -0.11864,-0.43524 -0.51403,-0.74462 -1.10489,-0.71493 z m 1.1849,2.70977 c 0.0837,0 0.12999,0.03 0.12999,0.03 0.2107,-0.0356 0.40496,0.0177 0.73993,0 -0.0537,0.58034 -0.47288,0.33329 -0.92991,0.64995 -0.1233,-0.0173 -0.26685,-0.02 -0.45997,-0.02 -0.0349,-0.38697 0.10541,-0.45465 0.17499,-0.52496 0.14075,-0.10558 0.26119,-0.13501 0.34497,-0.13498 z"
         id="path3883"
         inkscape:connector-curvature="0" />
      <path
         inkscape:connector-curvature="0"
         id="path3885"
         d="m 437.57288,60.999901 c -0.8447,0.0028 -1.74767,0.06001 -2.52683,0.06001 -1.73889,0 -3.44455,-0.06158 -4.95364,0.05 -2.33156,0.172394 -4.06192,1.190525 -5.257,2.476822 -1.2208,1.314032 -2.17014,3.17432 -2.17014,5.45701 0,2.379555 0.92176,4.157485 2.17014,5.45701 1.18761,1.23621 2.94716,2.328591 5.15699,2.476823 4.07572,0.273154 6.78795,-2.007034 7.98383,-4.900309 0.77653,-1.878853 1.71516,-4.137041 2.52683,-6.113719 0.24526,-0.597196 0.72909,-1.357747 0.81005,-2.073464 0.16131,-1.426422 -0.60157,-2.246944 -1.56676,-2.626832 -0.5418,-0.213255 -1.32878,-0.266124 -2.17347,-0.263351 z m -6.8671,1.580101 c 1.94618,0.0065 3.35268,0.777264 4.34027,1.663438 1.23936,1.112088 2.38597,3.379014 1.97012,5.863702 -0.3395,2.028419 -1.47714,3.638886 -3.33354,4.646961 -2.0201,1.097099 -4.55982,0.934821 -6.3704,-0.15001 -1.74726,-1.046907 -3.39175,-3.075776 -3.13353,-6.267062 0.1373,-1.696855 0.87498,-2.874732 1.82011,-3.840242 0.88065,-0.899688 2.11784,-1.685988 3.84024,-1.870118 0.30055,-0.03214 0.5887,-0.0476 0.86673,-0.04667 z m -0.33002,1.620102 c -0.13132,0.0066 -0.27855,0.03843 -0.4367,0.100006 -0.41104,0.152368 -0.30484,0.704843 -0.27002,1.080068 -0.0232,0.035 -0.0685,0.02334 -0.10333,0.02334 -0.44588,0.02344 -0.64612,0.491331 -0.74005,0.866721 0.0233,0.340226 -0.0244,0.715223 -0.0833,1.043399 -0.059,0.328341 -0.17496,0.58677 -0.18669,0.903391 -0.0233,0.281459 0.0832,0.612036 0.06,0.870055 -0.24663,0.72717 -0.42478,1.206069 -0.55337,1.980124 -0.0938,0.175808 -0.42045,0.551164 -0.55003,0.633373 -0.0349,0.05844 0.0215,0.188138 -0.0367,0.270017 -0.10549,0.152367 -0.2696,0.235771 -0.36336,0.400025 0.0232,0.035 -0.13923,0.06791 -0.12667,0.126675 0.0115,0.05844 0.0918,0.211355 0.12667,0.246682 0.0115,0.02344 0.13001,-0.03533 0.13001,0 0.0473,0.140483 0.15297,0.433042 0.27001,0.503366 0.51654,0.05844 0.51591,0.05844 0.72671,0 0.11704,-0.340228 -0.39641,-0.185941 -0.35001,-0.643375 0.70422,-0.140481 0.92528,-0.34134 1.20674,-1.080068 0.12859,-0.539477 0.30362,-1.067397 0.57336,-1.583433 0.0464,-0.035 0.0345,-0.128017 0.11668,-0.163343 0.31629,0.527591 0.89277,0.902226 1.17341,1.453424 0.0707,0.715286 0.21106,1.104319 0.4567,1.233411 0.0589,0.02344 -7.5e-4,0.24647 0.0467,0.293353 0,0.07032 0.0249,0.151137 -0.01,0.233348 -0.0241,0.05877 -0.01,0.128075 -0.01,0.186678 l 0,0.07 c 0.0115,0.105981 0.0345,0.108297 0.14002,0.190012 0.30473,0.19925 0.71335,0.514596 1.1234,0.280017 0.18769,-0.305229 -0.20858,-0.690641 -0.49003,-0.890055 -0.0938,-0.07032 -0.25979,-0.245987 -0.23668,-0.363357 0.15286,-0.152533 0.25894,-0.820715 0.20001,-1.336751 -0.0233,-0.117042 -0.046,-0.236257 -0.0933,-0.330021 -0.14032,-0.269574 -0.45697,-0.643817 -0.72671,-0.913391 0.0348,-0.035 0.0819,-0.08323 0.14,-0.106673 0,-0.257854 -0.10652,-0.339171 -0.24667,-0.5267 -0.11803,-0.187695 -0.38647,-0.55267 -0.58671,-0.670042 0,0 -7.4e-4,-0.01 -0.20001,-0.01 -0.0115,-0.128927 0.0252,-0.236043 0.06,-0.376691 0,-0.105485 0.0834,-0.04527 0.10667,-0.280017 0.0589,-0.199251 0.0327,-0.08411 0.08,-0.283352 0.0464,-0.09376 0.0733,-0.187488 0.0733,-0.340021 0.17515,0.05877 0.52718,0.04689 0.68004,0 l 0.0334,0.02334 c 0.0473,0.01189 0.0585,-0.05828 0.0933,-0.07 0.2699,-0.140978 0.36417,-0.386585 0.5867,-0.410026 0,0 0.11837,-0.05877 0.29335,0 0.0707,0 0.13001,0.01365 0.13001,-0.05667 0.0115,-0.105486 0.0109,-0.189364 0.07,-0.260017 0.0464,0.28146 0.17512,0.59849 0.41002,0.903391 l 0.23336,-0.163344 c -0.22253,-0.269573 -0.36243,-0.574777 -0.38669,-0.926725 0.0115,0.02344 0.0234,0.04656 0.0467,0.07 0.0822,0 0.12942,-0.175065 0.22335,-0.163344 0.0115,-0.02344 0.0369,-0.131302 0.06,-0.213347 l 0.87673,0 0.31669,-0.07 0,-0.163343 -0.23335,-0.02334 0,-0.186679 -0.06,0 0,-0.213346 -0.14001,0 0,0.200013 -0.36335,-0.02334 0,-0.130008 -0.14002,0 0,0.120007 -0.37335,-0.03667 0,-0.176679 -0.14334,0 0,0.166678 -0.55004,-0.03667 0,-0.05667 -0.41002,0 0,-0.106674 -0.22335,0 0,0.05667 c -0.0241,0.01156 -0.0468,0.03512 -0.07,0.04667 l -0.0233,0 c -0.38793,-0.3049 -0.41169,0.31749 -0.67004,0.176679 -0.0233,-0.129093 -0.01,-0.244324 -0.01,-0.396693 0.44588,-0.01189 0.28195,-0.130983 0.15335,-0.283351 -0.0464,-0.05877 -0.0718,-0.151411 -0.0833,-0.210013 -0.0791,-0.290208 -0.34274,-0.496491 -0.73671,-0.476697 z m 0.79005,1.80678 c 0.0558,2.1e-5 0.0867,0.02 0.0867,0.02 0.14048,-0.02377 0.27002,0.01177 0.49336,0 -0.0358,0.386945 -0.3153,0.222225 -0.62004,0.433361 -0.0822,-0.01156 -0.17792,-0.01333 -0.30668,-0.01333 -0.0233,-0.258018 0.0703,-0.303138 0.11667,-0.350022 0.0939,-0.07041 0.17416,-0.09002 0.23002,-0.09 z"
         style="fill:#000000;fill-opacity:1;display:inline;enable-background:new;opacity:0.2" />
      <path
         style="fill:#000000;fill-opacity:1;display:inline;enable-background:new;opacity:0.2"
         d="m 432.17965,106.99988 c -0.63352,0.002 -1.31075,0.045 -1.89512,0.045 -1.30417,0 -2.58341,-0.0462 -3.71523,0.0375 -1.74866,0.12929 -3.04644,0.8929 -3.94276,1.85761 -0.91558,0.98553 -1.62759,2.38075 -1.62759,4.09276 0,1.78467 0.69132,3.11811 1.62759,4.09276 0.89072,0.92716 2.21038,1.74644 3.86775,1.85762 3.05679,0.20487 5.09096,-1.50528 5.98787,-3.67524 0.5824,-1.40913 1.28637,-3.10277 1.89513,-4.58528 0.18394,-0.4479 0.54681,-1.01831 0.60754,-1.5551 0.12097,-1.06982 -0.45118,-1.68521 -1.17507,-1.97013 -0.40636,-0.15994 -0.99659,-0.19959 -1.63011,-0.19751 z m -5.15032,1.18508 c 1.45963,0.005 2.5145,0.58295 3.2552,1.24758 0.92952,0.83406 1.78947,2.53426 1.47759,4.39778 -0.25463,1.52131 -1.10786,2.72916 -2.50016,3.48521 -1.51507,0.82283 -3.41986,0.70112 -4.77779,-0.1125 -1.31045,-0.78519 -2.54382,-2.30684 -2.35015,-4.7003 0.10297,-1.27264 0.65624,-2.15605 1.36508,-2.88018 0.66049,-0.67476 1.58838,-1.26449 2.88018,-1.40259 0.22541,-0.0241 0.44152,-0.0357 0.65005,-0.035 z m -0.24752,1.21508 c -0.0985,0.005 -0.20891,0.0288 -0.32752,0.075 -0.30828,0.11427 -0.22864,0.52863 -0.20252,0.81004 -0.0174,0.0263 -0.0514,0.0175 -0.0775,0.0175 -0.33442,0.0176 -0.48459,0.3685 -0.55504,0.65004 0.0174,0.25516 -0.0183,0.53641 -0.0625,0.78254 -0.0442,0.24627 -0.13123,0.44008 -0.14001,0.67755 -0.0174,0.2111 0.0625,0.45903 0.045,0.65254 -0.18497,0.54538 -0.31857,0.90455 -0.41502,1.4851 -0.0704,0.13185 -0.31534,0.41337 -0.41253,0.47503 -0.0262,0.0438 0.0161,0.14109 -0.0275,0.20251 -0.0791,0.11428 -0.2022,0.17683 -0.27252,0.30001 0.0174,0.0263 -0.10442,0.0509 -0.095,0.095 0.009,0.0438 0.0689,0.15851 0.095,0.18501 0.009,0.0176 0.0975,-0.0265 0.0975,0 0.0355,0.10536 0.11474,0.32478 0.20252,0.37752 0.3874,0.0438 0.38693,0.0438 0.54503,0 0.0878,-0.25517 -0.2973,-0.13946 -0.26251,-0.48253 0.52816,-0.10536 0.69396,-0.25601 0.90506,-0.81006 0.0964,-0.4046 0.22771,-0.80054 0.43002,-1.18757 0.0348,-0.0262 0.0258,-0.096 0.0875,-0.1225 0.23722,0.39569 0.66958,0.67666 0.88006,1.09007 0.0529,0.53646 0.15829,0.82823 0.34252,0.92505 0.0442,0.0176 -5.6e-4,0.18486 0.035,0.22001 0,0.0528 0.0186,0.11336 -0.008,0.17502 -0.0181,0.0441 -0.008,0.0961 -0.008,0.14 l 0,0.0525 c 0.009,0.0795 0.0259,0.0812 0.105,0.14252 0.22855,0.14943 0.53502,0.38594 0.84255,0.21001 0.14078,-0.22893 -0.15643,-0.51798 -0.36752,-0.66755 -0.0704,-0.0528 -0.19484,-0.18449 -0.17751,-0.27252 0.11465,-0.11439 0.19421,-0.61553 0.15001,-1.00255 -0.0174,-0.0878 -0.0345,-0.1772 -0.07,-0.24753 -0.10524,-0.20217 -0.34273,-0.48286 -0.54503,-0.68503 0.0262,-0.0263 0.0614,-0.0624 0.105,-0.08 0,-0.19339 -0.0799,-0.25438 -0.18501,-0.39502 -0.0885,-0.14078 -0.28985,-0.41451 -0.44003,-0.50254 0,0 -5.6e-4,-0.008 -0.15001,-0.008 -0.009,-0.0967 0.0189,-0.17703 0.045,-0.28251 0,-0.0791 0.0626,-0.034 0.08,-0.21002 0.0442,-0.14944 0.0245,-0.0631 0.06,-0.21251 0.0348,-0.0704 0.055,-0.14061 0.055,-0.25502 0.13137,0.0441 0.39539,0.0352 0.51004,0 l 0.025,0.0175 c 0.0355,0.009 0.0438,-0.0437 0.07,-0.0525 0.20242,-0.10574 0.27313,-0.28994 0.44002,-0.30752 0,0 0.0888,-0.0441 0.22002,0 0.0529,0 0.0975,0.0102 0.0975,-0.0425 0.009,-0.0791 0.008,-0.14201 0.0525,-0.195 0.0348,0.21109 0.13134,0.44886 0.30752,0.67754 l 0.17501,-0.12251 c -0.16689,-0.20218 -0.27181,-0.43109 -0.29001,-0.69504 0.009,0.0176 0.0175,0.0349 0.035,0.0525 0.0617,0 0.0971,-0.13129 0.16751,-0.1225 0.009,-0.0176 0.0277,-0.0985 0.045,-0.16001 l 0.65754,0 0.23752,-0.0525 0,-0.12251 -0.17502,-0.0175 0,-0.14001 -0.045,0 0,-0.16001 -0.10501,0 0,0.15001 -0.27252,-0.0175 0,-0.0975 -0.105,0 0,0.09 -0.28002,-0.0275 0,-0.13251 -0.10751,0 0,0.12501 -0.41253,-0.0275 0,-0.0425 -0.30752,0 0,-0.08 -0.16751,0 0,0.0425 c -0.018,0.009 -0.035,0.0263 -0.0525,0.035 l -0.0175,0 c -0.29095,-0.22868 -0.30877,0.23811 -0.50253,0.1325 -0.0174,-0.0968 -0.008,-0.18324 -0.008,-0.29752 0.33441,-0.009 0.21145,-0.0982 0.115,-0.21251 -0.0347,-0.0441 -0.0538,-0.11355 -0.0625,-0.15751 -0.0593,-0.21765 -0.25706,-0.37237 -0.55253,-0.35752 z m 0.59254,1.35508 c 0.0419,10e-6 0.065,0.015 0.065,0.015 0.10536,-0.0178 0.20251,0.009 0.37002,0 -0.0269,0.2902 -0.23647,0.16667 -0.46502,0.32501 -0.0617,-0.009 -0.13345,-0.01 -0.23002,-0.01 -0.0174,-0.19351 0.0527,-0.22735 0.0875,-0.26252 0.0704,-0.0528 0.13062,-0.0676 0.17252,-0.0675 z"
         id="path3887"
         inkscape:connector-curvature="0" />
      <path
         inkscape:connector-curvature="0"
         id="path3889"
         d="m 427,144.9998 c -0.45245,0.002 -0.93611,0.0322 -1.35346,0.0322 -0.93141,0 -1.84502,-0.033 -2.65334,0.0267 -1.24886,0.0923 -2.1757,0.63769 -2.81583,1.32668 -0.6539,0.70384 -1.1624,1.70027 -1.1624,2.92296 0,1.27457 0.49373,2.22689 1.1624,2.92296 0.63613,0.66215 1.5786,1.24727 2.76226,1.32667 2.18309,0.14631 3.63586,-1.07503 4.27642,-2.62478 0.41593,-1.00637 0.91869,-2.21594 1.35345,-3.27471 0.13137,-0.31988 0.39052,-0.72725 0.43389,-1.11062 0.0864,-0.76404 -0.32223,-1.20354 -0.83921,-1.40702 -0.29021,-0.11422 -0.71174,-0.14255 -1.16418,-0.14105 z m -3.67826,0.84635 c 1.04244,0.003 1.79581,0.41633 2.3248,0.89099 0.66384,0.59567 1.278,1.80991 1.05527,3.1408 -0.18185,1.08649 -0.79121,1.94912 -1.78556,2.48907 -1.08204,0.58765 -2.4424,0.50072 -3.41221,-0.0803 -0.93589,-0.56076 -1.81674,-1.64749 -1.67843,-3.35685 0.0735,-0.9089 0.46868,-1.53981 0.97492,-2.05697 0.47171,-0.48191 1.13438,-0.90307 2.05697,-1.0017 0.16097,-0.0172 0.31532,-0.0255 0.46424,-0.025 z m -0.17677,0.86778 c -0.0703,0.003 -0.1492,0.0206 -0.23391,0.0536 -0.22017,0.0816 -0.16329,0.37754 -0.14463,0.57853 -0.0125,0.0188 -0.0367,0.0125 -0.0553,0.0125 -0.23883,0.0126 -0.34609,0.26317 -0.3964,0.46425 0.0125,0.18223 -0.0131,0.3831 -0.0447,0.55888 -0.0316,0.17587 -0.0937,0.31429 -0.1,0.48388 -0.0125,0.15076 0.0446,0.32783 0.0322,0.46604 -0.1321,0.38949 -0.22752,0.64601 -0.29641,1.06061 -0.0503,0.0942 -0.2252,0.29523 -0.29461,0.33926 -0.0187,0.0313 0.0115,0.10078 -0.0197,0.14464 -0.0565,0.0816 -0.1444,0.12628 -0.19462,0.21426 0.0125,0.0188 -0.0746,0.0363 -0.0678,0.0678 0.006,0.0313 0.0492,0.11321 0.0678,0.13213 0.006,0.0126 0.0697,-0.0189 0.0697,0 0.0253,0.0753 0.0819,0.23195 0.14463,0.26962 0.27667,0.0313 0.27634,0.0313 0.38926,0 0.0627,-0.18224 -0.21234,-0.0996 -0.18749,-0.34462 0.3772,-0.0753 0.49561,-0.18283 0.64637,-0.57852 0.0689,-0.28896 0.16263,-0.57173 0.30712,-0.84814 0.0248,-0.0188 0.0185,-0.0686 0.0625,-0.0875 0.1694,0.28259 0.47819,0.48327 0.62851,0.7785 0.0378,0.38313 0.11305,0.59152 0.24462,0.66066 0.0316,0.0126 -4e-4,0.13202 0.025,0.15713 0,0.0377 0.0133,0.0809 -0.005,0.12499 -0.0129,0.0315 -0.005,0.0686 -0.005,0.1 l 0,0.0375 c 0.006,0.0567 0.0185,0.058 0.075,0.10177 0.16322,0.10673 0.3821,0.27564 0.60173,0.14999 0.10054,-0.16349 -0.11171,-0.36993 -0.26247,-0.47675 -0.0503,-0.0377 -0.13915,-0.13175 -0.12678,-0.19462 0.0819,-0.0817 0.1387,-0.4396 0.10714,-0.71601 -0.0125,-0.0627 -0.0246,-0.12655 -0.05,-0.17677 -0.0752,-0.1444 -0.24478,-0.34485 -0.38926,-0.48925 0.0187,-0.0188 0.0438,-0.0446 0.075,-0.0572 0,-0.13812 -0.0571,-0.18168 -0.13214,-0.28212 -0.0632,-0.10054 -0.207,-0.29603 -0.31425,-0.3589 0,0 -4e-4,-0.005 -0.10714,-0.005 -0.006,-0.0691 0.0135,-0.12643 0.0322,-0.20178 0,-0.0565 0.0447,-0.0242 0.0572,-0.14998 0.0316,-0.10672 0.0175,-0.0451 0.0428,-0.15177 0.0248,-0.0502 0.0392,-0.10043 0.0392,-0.18213 0.0938,0.0315 0.28237,0.0251 0.36426,0 l 0.0178,0.0125 c 0.0254,0.007 0.0313,-0.0312 0.05,-0.0375 0.14457,-0.0755 0.19507,-0.20707 0.31426,-0.21962 0,0 0.0634,-0.0315 0.15713,0 0.0378,0 0.0697,0.008 0.0697,-0.0303 0.006,-0.0565 0.006,-0.10143 0.0375,-0.13927 0.0248,0.15076 0.0938,0.32057 0.21962,0.48388 l 0.12499,-0.0875 c -0.11919,-0.14439 -0.19413,-0.30787 -0.20713,-0.49638 0.006,0.0126 0.0125,0.0249 0.025,0.0375 0.044,0 0.0693,-0.0938 0.11964,-0.0875 0.006,-0.0126 0.0197,-0.0703 0.0322,-0.11428 l 0.4696,0 0.16963,-0.0375 0,-0.0875 -0.12499,-0.0125 0,-0.1 -0.0322,0 0,-0.11428 -0.075,0 0,0.10714 -0.19463,-0.0125 0,-0.0697 -0.075,0 0,0.0643 -0.19998,-0.0197 0,-0.0946 -0.0768,0 0,0.0893 -0.29462,-0.0197 0,-0.0303 -0.21962,0 0,-0.0572 -0.11964,0 0,0.0303 c -0.0129,0.006 -0.025,0.0188 -0.0375,0.025 l -0.0125,0 c -0.20778,-0.16332 -0.22051,0.17006 -0.35889,0.0946 -0.0125,-0.0692 -0.005,-0.13086 -0.005,-0.21248 0.23884,-0.007 0.15102,-0.0702 0.0822,-0.15177 -0.0248,-0.0315 -0.0384,-0.0811 -0.0447,-0.11249 -0.0423,-0.15545 -0.18358,-0.26594 -0.39461,-0.25534 z m 0.42318,0.96777 c 0.0299,1e-5 0.0464,0.0108 0.0464,0.0108 0.0752,-0.0127 0.14464,0.007 0.26427,0 -0.0192,0.20727 -0.16889,0.11904 -0.33212,0.23213 -0.044,-0.006 -0.0953,-0.007 -0.16427,-0.007 -0.0125,-0.1382 0.0377,-0.16238 0.0625,-0.18748 0.0503,-0.0377 0.0933,-0.0482 0.1232,-0.0482 z"
         style="fill:#000000;fill-opacity:1;display:inline;enable-background:new;opacity:0.2" />
      <path
         inkscape:connector-curvature="0"
         style="fill:#ffffff;fill-opacity:1;display:inline;enable-background:new"
         d="m 188.58301,92.000816 c -6.75756,0.0222 -13.98129,0.48003 -20.21462,0.48003 -13.9111,0 -27.55637,-0.49268 -39.62915,0.40003 -18.65241,1.37915 -32.495316,9.524194 -42.055998,19.814584 -9.766362,10.51227 -17.361095,25.39456 -17.361095,43.65609 0,19.03645 7.374117,33.25988 17.361095,43.65608 9.50094,9.88968 23.577318,18.62873 41.255938,19.81459 32.60574,2.18523 54.30361,-16.05628 63.8707,-39.20247 6.2122,-15.03083 13.72119,-33.09635 20.2146,-48.90975 1.96206,-4.77757 5.83265,-10.86198 6.48041,-16.58772 1.29041,-11.41138 -4.81261,-17.975551 -12.53413,-21.014664 -4.33442,-1.70603 -10.6302,-2.12899 -17.38775,-2.1068 z m -54.9368,12.640804 c 15.56942,0.052 26.82144,6.21811 34.72218,13.30751 9.91487,8.8967 19.08771,27.03211 15.761,46.90962 -2.71607,16.22735 -11.81718,29.11108 -26.66836,37.17567 -16.16077,8.77681 -36.47858,7.47858 -50.9632,-1.20007 -13.978102,-8.37525 -27.134009,-24.60621 -25.068253,-50.13649 1.09838,-13.57485 6.999851,-22.99787 14.560919,-30.72194 7.045164,-7.19751 16.942694,-13.48791 30.721944,-14.96095 2.40431,-0.2571 4.70956,-0.38077 6.93377,-0.37335 z m -2.64016,12.9608 c -1.05059,0.0529 -2.2284,0.30748 -3.49356,0.80006 -3.28837,1.21894 -2.43879,5.63875 -2.16013,8.64055 -0.18621,0.27997 -0.54808,0.18667 -0.82673,0.18667 -3.56703,0.18754 -5.16893,3.93066 -5.92037,6.93378 0.18621,2.72181 -0.19524,5.72178 -0.66671,8.34719 -0.47146,2.62673 -1.39966,4.69416 -1.49343,7.22712 -0.18621,2.25169 0.66625,4.8963 0.48003,6.96044 -1.97302,5.81738 -3.39817,9.64857 -4.42694,15.84101 -0.75012,1.40646 -3.36358,4.40931 -4.40029,5.06697 -0.27864,0.46752 0.17152,1.50511 -0.29335,2.16014 -0.84387,1.21894 -2.15673,1.88617 -2.90685,3.20021 0.18621,0.27997 -1.11376,0.54325 -1.01339,1.01339 0.0924,0.46752 0.73475,1.69084 1.01339,1.97346 0.0924,0.18753 1.04007,-0.28262 1.04007,0 0.37902,1.12386 1.22382,3.46434 2.16013,4.02692 4.13226,0.4675 4.12726,0.4675 5.81371,0 0.93633,-2.72182 -3.17129,-1.48752 -2.80018,-5.14699 5.63381,-1.12385 7.40227,-2.73072 9.65394,-8.64054 1.02877,-4.31583 2.42904,-8.53919 4.58697,-12.66747 0.37109,-0.27997 0.27572,-1.02413 0.93338,-1.30675 2.53033,4.22073 7.14218,7.21781 9.38725,11.6274 0.56524,5.72229 1.68848,8.83455 3.65357,9.86729 0.47147,0.18753 -0.006,1.97176 0.37336,2.34682 0,0.56259 0.19865,1.20909 -0.08,1.86678 -0.19281,0.47013 -0.08,1.02461 -0.08,1.49343 l 0,0.56003 c 0.0924,0.84785 0.27619,0.86638 1.12007,1.5201 2.43787,1.594 5.70679,4.11676 8.98723,2.24014 1.50156,-2.44185 -1.66857,-5.52513 -3.92025,-7.12045 -0.75011,-0.56259 -2.07834,-1.96789 -1.89345,-2.90685 1.22291,-1.22027 2.07156,-6.56572 1.6001,-10.694 -0.18621,-0.93634 -0.36769,-1.89007 -0.74671,-2.64017 -1.12254,-2.1566 -3.6558,-5.15055 -5.8137,-7.30713 0.27866,-0.27999 0.6552,-0.66586 1.12007,-0.85339 0,-2.06283 -0.85224,-2.71337 -1.97346,-4.2136 -0.94426,-1.50156 -3.09171,-4.42136 -4.69363,-5.36034 0,0 -0.006,-0.08 -1.6001,-0.08 -0.0924,-1.03141 0.20138,-1.88833 0.48003,-3.01352 0,-0.84388 0.66718,-0.3622 0.85339,-2.24013 0.47146,-1.59401 0.26102,-0.67281 0.64005,-2.2668 0.37109,-0.75014 0.5867,-1.49991 0.5867,-2.72018 1.40118,0.47014 4.21743,0.37506 5.44034,0 l 0.26668,0.18667 c 0.37902,0.0951 0.46807,-0.46627 0.74672,-0.56004 2.15922,-1.12781 2.91341,-3.09267 4.69362,-3.2802 0,0 0.94695,-0.47014 2.34681,0 0.56524,0 1.04007,0.10922 1.04007,-0.45336 0.0924,-0.84388 0.0872,-1.51491 0.56003,-2.08013 0.3711,2.25168 1.40096,4.78791 3.28022,7.22712 l 1.86678,-1.30675 c -1.7802,-2.15659 -2.8994,-4.59821 -3.09353,-7.4138 0.0924,0.18753 0.18715,0.37252 0.37335,0.56004 0.65768,0 1.03535,-1.40052 1.78679,-1.30676 0.0924,-0.18753 0.29513,-1.05042 0.48002,-1.70676 l 7.01379,0 2.53349,-0.56004 0,-1.30675 -1.86679,-0.18669 0,-1.49341 -0.48003,0 0,-1.70678 -1.12007,0 0,1.60011 -2.90686,-0.1867 0,-1.04005 -1.12006,0 0,0.96005 -2.98685,-0.29335 0,-1.41342 -1.14674,0 0,1.33342 -4.40028,-0.29336 0,-0.45335 -3.28021,0 0,-0.85339 -1.78677,0 0,0.45336 c -0.19282,0.0924 -0.37382,0.28091 -0.56004,0.37335 l -0.18668,0 c -3.10347,-2.43919 -3.29356,2.53993 -5.36034,1.41344 -0.1862,-1.03275 -0.0799,-1.9546 -0.0799,-3.17354 3.56702,-0.0951 2.25552,-1.04787 1.22675,-2.26681 -0.3711,-0.47016 -0.57428,-1.21129 -0.66672,-1.68011 -0.63291,-2.32166 -2.74195,-3.97193 -5.89369,-3.81358 z m 6.32039,14.45426 c 0.44686,1.6e-4 0.69337,0.16001 0.69337,0.16001 1.12387,-0.19017 2.16011,0.0942 3.94692,0 -0.28657,3.09556 -2.52242,1.77779 -4.96031,3.46689 -0.65767,-0.0924 -1.4234,-0.10668 -2.45348,-0.10668 -0.18622,-2.06415 0.56228,-2.42511 0.93338,-2.80017 0.75078,-0.56324 1.39325,-0.72021 1.84012,-0.72005 z"
         id="path7" />
      <path
         inkscape:connector-curvature="0"
         id="path4096"
         d="m 354.11185,51.000332 c -2.74526,0.009 -5.67989,0.195012 -8.21218,0.195012 -5.65139,0 -11.19478,-0.20015 -16.09936,0.162511 -7.57753,0.560283 -13.20121,3.869209 -17.08524,8.049675 -3.96759,4.27061 -7.05295,10.316543 -7.05295,17.735291 0,7.733558 2.99573,13.511829 7.05295,17.735285 3.85976,4.017684 9.57829,7.567924 16.76022,8.049674 13.24609,0.88775 22.06085,-6.522861 25.94747,-15.926003 2.52372,-6.106271 5.57424,-13.44539 8.21219,-19.869593 0.79709,-1.940887 2.36952,-4.412676 2.63267,-6.738758 0.52423,-4.635873 -1.95512,-7.302569 -5.09199,-8.537206 -1.76086,-0.693076 -4.31852,-0.864902 -7.06378,-0.855888 z m -22.31807,5.135325 c 6.32507,0.02112 10.89621,2.526111 14.10589,5.406174 4.02791,3.614287 7.75438,10.981799 6.4029,19.057035 -1.10341,6.592357 -4.80074,11.826385 -10.83402,15.102618 -6.56532,3.565581 -14.81943,3.038177 -20.70381,-0.487528 -5.6786,-3.40244 -11.02319,-9.996267 -10.18398,-20.367952 0.44623,-5.514781 2.84369,-9.342881 5.91538,-12.480788 2.8621,-2.923984 6.88297,-5.479461 12.48078,-6.077883 0.97676,-0.104447 1.91327,-0.154693 2.81686,-0.151676 z m -1.07257,5.265331 c -0.4268,0.02146 -0.90528,0.124905 -1.41927,0.325021 -1.33588,0.495196 -0.99074,2.290742 -0.87755,3.510221 -0.0756,0.113739 -0.22265,0.07584 -0.33585,0.07584 -1.44911,0.07619 -2.09988,1.596827 -2.40516,2.816845 0.0756,1.105736 -0.0793,2.324471 -0.27084,3.39105 -0.19154,1.067104 -0.56862,1.907003 -0.60671,2.936018 -0.0756,0.914742 0.27065,1.989117 0.19501,2.827674 -0.80154,2.363312 -1.3805,3.919737 -1.79844,6.435409 -0.30474,0.571381 -1.36646,1.791287 -1.78761,2.058462 -0.11321,0.189925 0.0697,0.611446 -0.11919,0.877555 -0.34281,0.495197 -0.87616,0.766262 -1.1809,1.300089 0.0756,0.11373 -0.45247,0.220694 -0.41169,0.411685 0.0376,0.189934 0.29849,0.686905 0.41169,0.80172 0.0376,0.07621 0.42253,-0.114815 0.42253,0 0.15398,0.456566 0.49718,1.407383 0.87756,1.635936 1.67872,0.189926 1.67669,0.189926 2.36182,0 0.38037,-1.105741 -1.28834,-0.604301 -1.13757,-2.090967 2.28872,-0.456558 3.00716,-1.109355 3.9219,-3.510223 0.41793,-1.753299 0.9868,-3.469034 1.86345,-5.146159 0.15076,-0.113729 0.11202,-0.416051 0.3792,-0.530866 1.02794,1.714678 2.90151,2.932238 3.81358,4.723635 0.22961,2.324682 0.68594,3.589035 1.48425,4.00859 0.19153,0.07621 -0.003,0.801021 0.15168,0.953391 0,0.228555 0.0807,0.491198 -0.0325,0.758383 -0.0783,0.190991 -0.0325,0.416244 -0.0325,0.606703 l 0,0.227513 c 0.0376,0.344447 0.1122,0.351975 0.45503,0.617542 0.99039,0.647567 2.31839,1.672436 3.65106,0.910063 0.61001,-0.992002 -0.67786,-2.244589 -1.5926,-2.892688 -0.30473,-0.228555 -0.84433,-0.799459 -0.76921,-1.180907 0.4968,-0.495739 0.84157,-2.667325 0.65004,-4.344439 -0.0756,-0.380392 -0.14937,-0.767843 -0.30336,-1.072573 -0.45603,-0.876112 -1.48516,-2.092403 -2.3618,-2.968525 0.1132,-0.11374 0.26616,-0.270504 0.45502,-0.346688 0,-0.838025 -0.34622,-1.102304 -0.80172,-1.711774 -0.38361,-0.610002 -1.256,-1.796177 -1.90679,-2.177635 0,0 -0.003,-0.03245 -0.65004,-0.03245 -0.0375,-0.419012 0.0818,-0.767144 0.19502,-1.224244 0,-0.342827 0.27104,-0.147148 0.34669,-0.910053 0.19152,-0.647567 0.10603,-0.273336 0.26001,-0.920893 0.15076,-0.30474 0.23835,-0.609341 0.23835,-1.105071 0.56924,0.190991 1.71333,0.15237 2.21014,0 l 0.10834,0.07585 c 0.15398,0.03861 0.19015,-0.189428 0.30335,-0.227516 0.87719,-0.458176 1.18357,-1.2564 1.90679,-1.332585 0,0 0.38469,-0.190995 0.9534,0 0.22961,0 0.42252,0.04438 0.42252,-0.184179 0.0376,-0.342829 0.0355,-0.61543 0.22752,-0.845052 0.15075,0.914744 0.56914,1.945093 1.33257,2.93602 l 0.75838,-0.530867 c -0.7232,-0.876112 -1.17787,-1.868029 -1.25673,-3.011859 0.0376,0.07619 0.076,0.151334 0.15167,0.227514 0.26718,0 0.4206,-0.56896 0.72588,-0.530866 0.0376,-0.07619 0.1199,-0.426732 0.195,-0.693377 l 2.84936,0 1.02923,-0.227515 0,-0.530867 -0.75839,-0.07583 0,-0.606704 -0.19501,0 0,-0.693379 -0.45503,0 0,0.650042 -1.18091,-0.07583 0,-0.422527 -0.45503,0 0,0.390025 -1.2134,-0.119175 0,-0.574202 -0.46586,0 0,0.5417 -1.78762,-0.119173 0,-0.184179 -1.33258,0 0,-0.346688 -0.72588,0 0,0.184178 c -0.0783,0.03756 -0.15186,0.114119 -0.22752,0.151676 l -0.0758,0 c -1.26078,-0.990926 -1.33801,1.031842 -2.17763,0.574203 -0.0756,-0.419549 -0.0325,-0.794051 -0.0325,-1.289248 1.4491,-0.03863 0.91631,-0.425696 0.49837,-0.920892 -0.15077,-0.190998 -0.23329,-0.492086 -0.27085,-0.682542 -0.25712,-0.943177 -1.11393,-1.613597 -2.39432,-1.549265 z m 2.56766,5.872038 c 0.18154,6.7e-5 0.28168,0.065 0.28168,0.065 0.45657,-0.07726 0.87755,0.03826 1.60343,0 -0.11641,1.257571 -1.02473,0.722231 -2.01512,1.408422 -0.26718,-0.03756 -0.57825,-0.04333 -0.99673,-0.04333 -0.0756,-0.83856 0.22842,-0.985202 0.37919,-1.137572 0.305,-0.228818 0.566,-0.292584 0.74755,-0.292519 z"
         style="fill:#ffffff;fill-opacity:1;display:inline;enable-background:new" />
      <path
         style="fill:#ffffff;fill-opacity:1;display:inline;enable-background:new"
         d="m 331.84236,155.00022 c -1.79497,0.006 -3.71378,0.12751 -5.36951,0.12751 -3.69513,0 -7.31965,-0.13086 -10.52649,0.10626 -4.95455,0.36634 -8.63157,2.52987 -11.17113,5.26325 -2.59419,2.79232 -4.61154,6.74543 -4.61154,11.59615 0,5.05656 1.95876,8.83466 4.61154,11.59614 2.52369,2.62695 6.26273,4.94826 10.9586,5.26325 8.66091,0.58046 14.42441,-4.26494 16.96567,-10.41315 1.65011,-3.99256 3.64468,-8.79121 5.3695,-12.99165 0.52118,-1.26905 1.54931,-2.88522 1.72137,-4.40611 0.34276,-3.03116 -1.27836,-4.77477 -3.32939,-5.58203 -1.15133,-0.45316 -2.82365,-0.56551 -4.61862,-0.55962 z m -14.59259,3.35772 c 4.13563,0.0138 7.12445,1.65168 9.22308,3.5348 2.63364,2.36319 5.07017,7.18041 4.18652,12.46038 -0.72146,4.31038 -3.13894,7.73262 -7.08378,9.87478 -4.29271,2.33134 -9.68963,1.9865 -13.53711,-0.31877 -3.71293,-2.22468 -7.20746,-6.53601 -6.65875,-13.3175 0.29176,-3.60583 1.85933,-6.10881 3.86774,-8.16052 1.87137,-1.91183 4.50041,-3.58272 8.16052,-3.974 0.63864,-0.0682 1.25098,-0.10114 1.84178,-0.0992 z m -0.70129,3.44271 c -0.27907,0.0141 -0.59192,0.0817 -0.92798,0.21252 -0.87347,0.32378 -0.6478,1.49779 -0.57379,2.29514 -0.0495,0.0744 -0.14558,0.0496 -0.21959,0.0496 -0.9475,0.0498 -1.37299,1.04407 -1.57261,1.84178 0.0495,0.72299 -0.0519,1.51985 -0.17709,2.21722 -0.12522,0.69773 -0.37179,1.2469 -0.39668,1.9197 -0.0495,0.59811 0.17696,1.30058 0.12751,1.84888 -0.52409,1.54523 -0.90265,2.5629 -1.17592,4.20776 -0.19925,0.37359 -0.89345,1.17123 -1.16882,1.34593 -0.074,0.12417 0.0455,0.39979 -0.0779,0.57378 -0.22416,0.32378 -0.57288,0.50101 -0.77214,0.85005 0.0495,0.0744 -0.29584,0.14431 -0.26918,0.26918 0.0245,0.12419 0.19517,0.44913 0.26918,0.52421 0.0245,0.0498 0.27627,-0.0751 0.27627,0 0.10068,0.29853 0.32508,0.92021 0.57379,1.06964 1.09763,0.12419 1.0963,0.12419 1.54426,0 0.24872,-0.72298 -0.84237,-0.39512 -0.74379,-1.36717 1.49648,-0.29852 1.96621,-0.72534 2.56433,-2.29515 0.27326,-1.14638 0.6452,-2.26821 1.2184,-3.36479 0.0986,-0.0744 0.0732,-0.27202 0.24793,-0.34709 0.67212,1.12112 1.89714,1.91722 2.4935,3.08851 0.15013,1.51999 0.4485,2.34668 0.97047,2.621 0.12523,0.0499 -0.002,0.52375 0.0992,0.62338 0,0.14943 0.0528,0.32117 -0.0213,0.49586 -0.0512,0.12488 -0.0213,0.27216 -0.0213,0.3967 l 0,0.14875 c 0.0245,0.22521 0.0734,0.23013 0.29751,0.40378 0.64757,0.42341 1.51588,1.09352 2.38724,0.59503 0.39886,-0.64861 -0.44321,-1.46761 -1.04132,-1.89136 -0.19925,-0.14944 -0.55206,-0.52273 -0.50295,-0.77214 0.32484,-0.32413 0.55026,-1.74402 0.42504,-2.84059 -0.0495,-0.24872 -0.0977,-0.50205 -0.19835,-0.7013 -0.29818,-0.57285 -0.97107,-1.36811 -1.54426,-1.94096 0.074,-0.0744 0.17403,-0.17687 0.29751,-0.22666 0,-0.54795 -0.22638,-0.72076 -0.5242,-1.11925 -0.25082,-0.39885 -0.82124,-1.17443 -1.24674,-1.42384 0,0 -0.002,-0.0212 -0.42503,-0.0212 -0.0245,-0.27397 0.0535,-0.50159 0.1275,-0.80047 0,-0.22416 0.17722,-0.0962 0.22669,-0.59504 0.12523,-0.4234 0.0693,-0.17871 0.17001,-0.60212 0.0986,-0.19925 0.15584,-0.39841 0.15584,-0.72255 0.3722,0.12488 1.12026,0.0996 1.44509,0 l 0.0709,0.0496 c 0.10068,0.0252 0.12433,-0.12384 0.19834,-0.14875 0.57355,-0.29959 0.77388,-0.82149 1.24675,-0.87131 0,0 0.25153,-0.12488 0.62337,0 0.15014,0 0.27627,0.0291 0.27627,-0.12042 0.0245,-0.22415 0.0232,-0.4024 0.14875,-0.55253 0.0986,0.5981 0.37213,1.27178 0.87131,1.91969 l 0.49586,-0.3471 c -0.47286,-0.57283 -0.77014,-1.22139 -0.82172,-1.96928 0.0245,0.0499 0.0497,0.099 0.0992,0.14875 0.17468,0 0.27501,-0.37201 0.4746,-0.3471 0.0245,-0.0499 0.0785,-0.27901 0.12752,-0.45337 l 1.86302,0 0.67296,-0.14876 0,-0.3471 -0.49586,-0.0496 0,-0.3967 -0.12751,0 0,-0.45336 -0.29752,0 0,0.42503 -0.77213,-0.0496 0,-0.27626 -0.29751,0 0,0.25502 -0.7934,-0.078 0,-0.37544 -0.30458,0 0,0.35419 -1.16884,-0.0779 0,-0.12042 -0.8713,0 0,-0.22668 -0.47461,0 0,0.12042 c -0.0512,0.0245 -0.0993,0.0747 -0.14876,0.0992 l -0.0496,0 c -0.82435,-0.64791 -0.87484,0.67467 -1.42384,0.37545 -0.0494,-0.27432 -0.0213,-0.51919 -0.0213,-0.84298 0.94749,-0.0253 0.59912,-0.27833 0.32584,-0.60212 -0.0986,-0.12488 -0.15254,-0.32174 -0.17709,-0.44628 -0.16811,-0.61669 -0.72834,-1.05504 -1.56552,-1.01298 z m 1.67886,3.83941 c 0.11869,5e-5 0.18418,0.0425 0.18418,0.0425 0.29851,-0.0505 0.57377,0.025 1.04838,0 -0.0761,0.82226 -0.67001,0.47223 -1.31757,0.92089 -0.1747,-0.0245 -0.37809,-0.0283 -0.6517,-0.0283 -0.0495,-0.54828 0.14935,-0.64416 0.24792,-0.7438 0.19942,-0.1496 0.37009,-0.1913 0.48879,-0.19126 z"
         id="path4104"
         inkscape:connector-curvature="0" />
      <path
         inkscape:connector-curvature="0"
         id="path4112"
         d="m 320.35806,232.00193 c -1.26685,0.005 -2.62109,0.09 -3.78967,0.09 -2.60793,0 -5.16604,-0.0924 -7.42935,0.075 -3.49681,0.25856 -6.09196,1.78554 -7.88432,3.71469 C 299.4238,237.85237 298,240.64239 298,244.0659 c 0,3.56881 1.38244,6.2353 3.25472,8.18431 1.78116,1.85403 4.42009,3.49235 7.73433,3.71466 6.11266,0.40968 10.1804,-3.0101 11.97396,-7.34935 1.16462,-2.81786 2.57235,-6.20464 3.78967,-9.16921 0.36783,-0.89566 1.09347,-2.03631 1.21489,-3.10973 0.24193,-2.13931 -0.90223,-3.36991 -2.34979,-3.93966 -0.81258,-0.31984 -1.99286,-0.39912 -3.25972,-0.39496 z m -10.29911,2.36979 c 2.91884,0.01 5.02828,1.16572 6.50944,2.49478 1.85876,1.66789 3.57841,5.06776 2.95475,8.79424 -0.50919,3.04218 -2.2154,5.45751 -4.99957,6.9694 -3.02969,1.6454 -6.83871,1.40203 -9.55417,-0.22498 -2.6205,-1.57012 -5.08686,-4.61297 -4.69959,-9.39918 0.2059,-2.54491 1.31228,-4.31145 2.72975,-5.75952 1.32077,-1.34932 3.17629,-2.52859 5.75951,-2.80475 0.45074,-0.0482 0.88292,-0.0713 1.29988,-0.07 z m -0.49495,2.42979 c -0.19695,0.01 -0.41776,0.0576 -0.65495,0.14999 -0.61647,0.22852 -0.4572,1.0571 -0.40496,1.61986 -0.035,0.0525 -0.10275,0.035 -0.15498,0.035 -0.66872,0.0351 -0.96903,0.73688 -1.1099,1.29988 0.0349,0.51027 -0.0366,1.07267 -0.125,1.56487 -0.0883,0.49243 -0.2624,0.88003 -0.27997,1.35488 -0.0349,0.42212 0.12489,0.91791 0.09,1.30488 -0.36989,1.0906 -0.63706,1.80884 -0.82993,2.96974 -0.14063,0.26368 -0.63057,0.82664 -0.82493,0.94993 -0.0522,0.0877 0.0322,0.28216 -0.0549,0.40496 -0.1582,0.22851 -0.40433,0.3536 -0.54495,0.59996 0.0349,0.0525 -0.2088,0.10184 -0.18999,0.18997 0.0173,0.0877 0.13775,0.31699 0.18999,0.36997 0.0173,0.0351 0.19498,-0.0529 0.19498,0 0.0711,0.21069 0.22943,0.64947 0.40496,0.75494 0.77468,0.0877 0.77374,0.0877 1.08991,0 0.17553,-0.51027 -0.59452,-0.27887 -0.52496,-0.96492 1.05618,-0.2107 1.38772,-0.51193 1.80984,-1.61986 0.19288,-0.80909 0.45538,-1.60086 0.85994,-2.3748 0.0695,-0.0525 0.0518,-0.19199 0.17498,-0.24497 0.47436,0.79127 1.33896,1.35314 1.75984,2.17981 0.10597,1.07277 0.31655,1.65623 0.68495,1.84984 0.0883,0.0351 -8.8e-4,0.36965 0.07,0.43996 0,0.10547 0.0373,0.22667 -0.015,0.34997 -0.0361,0.0881 -0.015,0.19209 -0.015,0.27998 l 0,0.10499 c 0.0173,0.15895 0.0519,0.16242 0.20999,0.28497 0.45703,0.29884 1.06986,0.77178 1.68486,0.41997 0.28149,-0.45778 -0.31282,-1.03581 -0.73495,-1.33489 -0.14062,-0.10547 -0.38963,-0.36892 -0.35497,-0.54495 0.22926,-0.22876 0.38836,-1.23089 0.29998,-2.00483 -0.0349,-0.17553 -0.0689,-0.35433 -0.13999,-0.49496 -0.21045,-0.4043 -0.68537,-0.96557 -1.08991,-1.36987 0.0522,-0.0525 0.12284,-0.12483 0.20998,-0.15999 0,-0.38673 -0.15976,-0.50868 -0.36996,-0.78994 -0.17703,-0.2815 -0.57961,-0.82887 -0.87993,-1.00491 0,0 -8.7e-4,-0.015 -0.29997,-0.015 -0.0173,-0.19337 0.0378,-0.35402 0.09,-0.56495 0,-0.1582 0.12507,-0.0679 0.15999,-0.41997 0.0883,-0.29882 0.0489,-0.12613 0.11998,-0.42496 0.0695,-0.14063 0.10999,-0.28119 0.10999,-0.50996 0.26269,0.0882 0.79067,0.0704 1.01992,0 l 0.05,0.035 c 0.0711,0.0179 0.0878,-0.0874 0.13999,-0.10499 0.4048,-0.21144 0.54619,-0.5798 0.87993,-0.61495 0,0 0.17753,-0.0882 0.43996,0 0.10596,0 0.19498,0.0205 0.19498,-0.085 0.0173,-0.15821 0.0164,-0.284 0.10499,-0.38997 0.0695,0.42213 0.26265,0.8976 0.61495,1.35489 l 0.34997,-0.24498 c -0.33374,-0.4043 -0.54356,-0.86203 -0.57995,-1.38988 0.0173,0.0351 0.0351,0.0698 0.07,0.10499 0.1233,0 0.1941,-0.26256 0.33498,-0.24498 0.0173,-0.0352 0.0553,-0.19692 0.09,-0.31997 l 1.31488,0 0.47495,-0.10499 0,-0.24499 -0.34997,-0.035 0,-0.27997 -0.09,0 0,-0.31998 -0.21,0 0,0.29998 -0.54494,-0.035 0,-0.19497 -0.20998,0 0,0.17998 -0.55996,-0.0549 0,-0.26497 -0.21498,0 0,0.24998 -0.82494,-0.0549 0,-0.085 -0.61493,0 0,-0.15998 -0.33498,0 0,0.085 c -0.0361,0.0173 -0.0701,0.0527 -0.10499,0.07 l -0.035,0 c -0.58181,-0.45728 -0.61745,0.47617 -1.00491,0.26498 -0.0349,-0.19361 -0.015,-0.36643 -0.015,-0.59495 0.66872,-0.0179 0.42286,-0.19645 0.22999,-0.42496 -0.0696,-0.0882 -0.10766,-0.22708 -0.125,-0.31498 -0.11864,-0.43524 -0.51403,-0.74462 -1.10489,-0.71493 z m 1.1849,2.70977 c 0.0837,0 0.12999,0.03 0.12999,0.03 0.2107,-0.0356 0.40496,0.0177 0.73993,0 -0.0537,0.58034 -0.47288,0.33329 -0.92991,0.64995 -0.1233,-0.0173 -0.26685,-0.02 -0.45997,-0.02 -0.0349,-0.38697 0.10541,-0.45465 0.17499,-0.52496 0.14075,-0.10558 0.26119,-0.13501 0.34497,-0.13498 z"
         style="fill:#ffffff;fill-opacity:1;display:inline;enable-background:new" />
      <path
         style="fill:#ffffff;fill-opacity:1;display:inline;enable-background:new"
         d="m 437.57288,60.000102 c -0.8447,0.0028 -1.74767,0.06001 -2.52683,0.06001 -1.73889,0 -3.44455,-0.06158 -4.95364,0.05 -2.33156,0.172394 -4.06192,1.190525 -5.257,2.476822 -1.2208,1.314032 -2.17014,3.17432 -2.17014,5.45701 0,2.379555 0.92176,4.157485 2.17014,5.45701 1.18761,1.23621 2.94716,2.328591 5.15699,2.476823 4.07572,0.273154 6.78795,-2.007034 7.98383,-4.900309 0.77653,-1.878853 1.71516,-4.137041 2.52683,-6.113719 0.24526,-0.597196 0.72909,-1.357747 0.81005,-2.073464 0.16131,-1.426422 -0.60157,-2.246944 -1.56676,-2.626832 -0.5418,-0.213255 -1.32878,-0.266124 -2.17347,-0.263351 z m -6.8671,1.580101 c 1.94618,0.0065 3.35268,0.777264 4.34027,1.663438 1.23936,1.112088 2.38597,3.379014 1.97012,5.863702 -0.3395,2.028419 -1.47714,3.638886 -3.33354,4.646961 -2.0201,1.097099 -4.55982,0.934821 -6.3704,-0.15001 -1.74726,-1.046907 -3.39175,-3.075776 -3.13353,-6.267062 0.1373,-1.696855 0.87498,-2.874732 1.82011,-3.840242 0.88065,-0.899688 2.11784,-1.685988 3.84024,-1.870118 0.30055,-0.03214 0.5887,-0.0476 0.86673,-0.04667 z m -0.33002,1.620102 c -0.13132,0.0066 -0.27855,0.03843 -0.4367,0.100006 -0.41104,0.152368 -0.30484,0.704843 -0.27002,1.080068 -0.0232,0.035 -0.0685,0.02334 -0.10333,0.02334 -0.44588,0.02344 -0.64612,0.491331 -0.74005,0.866721 0.0233,0.340226 -0.0244,0.715223 -0.0833,1.043399 -0.059,0.328341 -0.17496,0.58677 -0.18669,0.903391 -0.0233,0.281459 0.0832,0.612036 0.06,0.870055 -0.24663,0.72717 -0.42478,1.206069 -0.55337,1.980124 -0.0938,0.175808 -0.42045,0.551164 -0.55003,0.633373 -0.0349,0.05844 0.0215,0.188138 -0.0367,0.270017 -0.10549,0.152367 -0.2696,0.235771 -0.36336,0.400025 0.0232,0.035 -0.13923,0.06791 -0.12667,0.126675 0.0115,0.05844 0.0918,0.211355 0.12667,0.246682 0.0115,0.02344 0.13001,-0.03533 0.13001,0 0.0473,0.140483 0.15297,0.433042 0.27001,0.503366 0.51654,0.05844 0.51591,0.05844 0.72671,0 0.11704,-0.340228 -0.39641,-0.185941 -0.35001,-0.643375 0.70422,-0.140481 0.92528,-0.34134 1.20674,-1.080068 0.12859,-0.539477 0.30362,-1.067397 0.57336,-1.583433 0.0464,-0.035 0.0345,-0.128017 0.11668,-0.163343 0.31629,0.527591 0.89277,0.902226 1.17341,1.453424 0.0707,0.715286 0.21106,1.104319 0.4567,1.233411 0.0589,0.02344 -7.5e-4,0.24647 0.0467,0.293353 0,0.07032 0.0249,0.151137 -0.01,0.233348 -0.0241,0.05877 -0.01,0.128075 -0.01,0.186678 l 0,0.07 c 0.0115,0.105981 0.0345,0.108297 0.14002,0.190012 0.30473,0.19925 0.71335,0.514596 1.1234,0.280017 0.18769,-0.305229 -0.20858,-0.690641 -0.49003,-0.890055 -0.0938,-0.07032 -0.25979,-0.245987 -0.23668,-0.363357 0.15286,-0.152533 0.25894,-0.820715 0.20001,-1.336751 -0.0233,-0.117042 -0.046,-0.236257 -0.0933,-0.330021 -0.14032,-0.269574 -0.45697,-0.643817 -0.72671,-0.913391 0.0348,-0.035 0.0819,-0.08323 0.14,-0.106673 0,-0.257854 -0.10652,-0.339171 -0.24667,-0.5267 -0.11803,-0.187695 -0.38647,-0.55267 -0.58671,-0.670042 0,0 -7.4e-4,-0.01 -0.20001,-0.01 -0.0115,-0.128927 0.0252,-0.236043 0.06,-0.376691 0,-0.105485 0.0834,-0.04527 0.10667,-0.280017 0.0589,-0.199251 0.0327,-0.08411 0.08,-0.283352 0.0464,-0.09376 0.0733,-0.187488 0.0733,-0.340021 0.17515,0.05877 0.52718,0.04689 0.68004,0 l 0.0334,0.02334 c 0.0473,0.01189 0.0585,-0.05828 0.0933,-0.07 0.2699,-0.140978 0.36417,-0.386585 0.5867,-0.410026 0,0 0.11837,-0.05877 0.29335,0 0.0707,0 0.13001,0.01365 0.13001,-0.05667 0.0115,-0.105486 0.0109,-0.189364 0.07,-0.260017 0.0464,0.28146 0.17512,0.59849 0.41002,0.903391 l 0.23336,-0.163344 c -0.22253,-0.269573 -0.36243,-0.574777 -0.38669,-0.926725 0.0115,0.02344 0.0234,0.04656 0.0467,0.07 0.0822,0 0.12942,-0.175065 0.22335,-0.163344 0.0115,-0.02344 0.0369,-0.131302 0.06,-0.213347 l 0.87673,0 0.31669,-0.07 0,-0.163343 -0.23335,-0.02334 0,-0.186679 -0.06,0 0,-0.213346 -0.14001,0 0,0.200013 -0.36335,-0.02334 0,-0.130008 -0.14002,0 0,0.120007 -0.37335,-0.03667 0,-0.176679 -0.14334,0 0,0.166678 -0.55004,-0.03667 0,-0.05667 -0.41002,0 0,-0.106674 -0.22335,0 0,0.05667 c -0.0241,0.01156 -0.0468,0.03512 -0.07,0.04667 l -0.0233,0 c -0.38793,-0.3049 -0.41169,0.31749 -0.67004,0.176679 -0.0233,-0.129093 -0.01,-0.244324 -0.01,-0.396693 0.44588,-0.01189 0.28195,-0.130983 0.15335,-0.283351 -0.0464,-0.05877 -0.0718,-0.151411 -0.0833,-0.210013 -0.0791,-0.290208 -0.34274,-0.496491 -0.73671,-0.476697 z m 0.79005,1.80678 c 0.0558,2.1e-5 0.0867,0.02 0.0867,0.02 0.14048,-0.02377 0.27002,0.01177 0.49336,0 -0.0358,0.386945 -0.3153,0.222225 -0.62004,0.433361 -0.0822,-0.01156 -0.17792,-0.01333 -0.30668,-0.01333 -0.0233,-0.258018 0.0703,-0.303138 0.11667,-0.350022 0.0939,-0.07041 0.17416,-0.09002 0.23002,-0.09 z"
         id="path4120"
         inkscape:connector-curvature="0" />
      <path
         inkscape:connector-curvature="0"
         id="path4129"
         d="m 432.17965,106.00008 c -0.63352,0.002 -1.31075,0.045 -1.89512,0.045 -1.30417,0 -2.58341,-0.0462 -3.71523,0.0375 -1.74866,0.12929 -3.04644,0.8929 -3.94276,1.85761 -0.91558,0.98553 -1.62759,2.38075 -1.62759,4.09276 0,1.78467 0.69132,3.11811 1.62759,4.09276 0.89072,0.92716 2.21038,1.74644 3.86775,1.85762 3.05679,0.20487 5.09096,-1.50528 5.98787,-3.67524 0.5824,-1.40913 1.28637,-3.10277 1.89513,-4.58528 0.18394,-0.4479 0.54681,-1.01831 0.60754,-1.5551 0.12097,-1.06982 -0.45118,-1.68521 -1.17507,-1.97013 -0.40636,-0.15994 -0.99659,-0.19959 -1.63011,-0.19751 z m -5.15032,1.18508 c 1.45963,0.005 2.5145,0.58295 3.2552,1.24758 0.92952,0.83406 1.78947,2.53426 1.47759,4.39778 -0.25463,1.52131 -1.10786,2.72916 -2.50016,3.48521 -1.51507,0.82283 -3.41986,0.70112 -4.77779,-0.1125 -1.31045,-0.78519 -2.54382,-2.30684 -2.35015,-4.7003 0.10297,-1.27264 0.65624,-2.15605 1.36508,-2.88018 0.66049,-0.67476 1.58838,-1.26449 2.88018,-1.40259 0.22541,-0.0241 0.44152,-0.0357 0.65005,-0.035 z m -0.24752,1.21508 c -0.0985,0.005 -0.20891,0.0288 -0.32752,0.075 -0.30828,0.11427 -0.22864,0.52863 -0.20252,0.81004 -0.0174,0.0263 -0.0514,0.0175 -0.0775,0.0175 -0.33442,0.0176 -0.48459,0.3685 -0.55504,0.65004 0.0174,0.25516 -0.0183,0.53641 -0.0625,0.78254 -0.0442,0.24627 -0.13123,0.44008 -0.14001,0.67755 -0.0174,0.2111 0.0625,0.45903 0.045,0.65254 -0.18497,0.54538 -0.31857,0.90455 -0.41502,1.4851 -0.0704,0.13185 -0.31534,0.41337 -0.41253,0.47503 -0.0262,0.0438 0.0161,0.14109 -0.0275,0.20251 -0.0791,0.11428 -0.2022,0.17683 -0.27252,0.30001 0.0174,0.0263 -0.10442,0.0509 -0.095,0.095 0.009,0.0438 0.0689,0.15851 0.095,0.18501 0.009,0.0176 0.0975,-0.0265 0.0975,0 0.0355,0.10536 0.11474,0.32478 0.20252,0.37752 0.3874,0.0438 0.38693,0.0438 0.54503,0 0.0878,-0.25517 -0.2973,-0.13946 -0.26251,-0.48253 0.52816,-0.10536 0.69396,-0.25601 0.90506,-0.81006 0.0964,-0.4046 0.22771,-0.80054 0.43002,-1.18757 0.0348,-0.0262 0.0258,-0.096 0.0875,-0.1225 0.23722,0.39569 0.66958,0.67666 0.88006,1.09007 0.0529,0.53646 0.15829,0.82823 0.34252,0.92505 0.0442,0.0176 -5.6e-4,0.18486 0.035,0.22001 0,0.0528 0.0186,0.11336 -0.008,0.17502 -0.0181,0.0441 -0.008,0.0961 -0.008,0.14 l 0,0.0525 c 0.009,0.0795 0.0259,0.0812 0.105,0.14252 0.22855,0.14943 0.53502,0.38594 0.84255,0.21001 0.14078,-0.22893 -0.15643,-0.51798 -0.36752,-0.66755 -0.0704,-0.0528 -0.19484,-0.18449 -0.17751,-0.27252 0.11465,-0.11439 0.19421,-0.61553 0.15001,-1.00255 -0.0174,-0.0878 -0.0345,-0.1772 -0.07,-0.24753 -0.10524,-0.20217 -0.34273,-0.48286 -0.54503,-0.68503 0.0262,-0.0263 0.0614,-0.0624 0.105,-0.08 0,-0.19339 -0.0799,-0.25438 -0.18501,-0.39502 -0.0885,-0.14078 -0.28985,-0.41451 -0.44003,-0.50254 0,0 -5.6e-4,-0.008 -0.15001,-0.008 -0.009,-0.0967 0.0189,-0.17703 0.045,-0.28251 0,-0.0791 0.0626,-0.034 0.08,-0.21002 0.0442,-0.14944 0.0245,-0.0631 0.06,-0.21251 0.0348,-0.0704 0.055,-0.14061 0.055,-0.25502 0.13137,0.0441 0.39539,0.0352 0.51004,0 l 0.025,0.0175 c 0.0355,0.009 0.0438,-0.0437 0.07,-0.0525 0.20242,-0.10574 0.27313,-0.28994 0.44002,-0.30752 0,0 0.0888,-0.0441 0.22002,0 0.0529,0 0.0975,0.0102 0.0975,-0.0425 0.009,-0.0791 0.008,-0.14201 0.0525,-0.195 0.0348,0.21109 0.13134,0.44886 0.30752,0.67754 l 0.17501,-0.12251 c -0.16689,-0.20218 -0.27181,-0.43109 -0.29001,-0.69504 0.009,0.0176 0.0175,0.0349 0.035,0.0525 0.0617,0 0.0971,-0.13129 0.16751,-0.1225 0.009,-0.0176 0.0277,-0.0985 0.045,-0.16001 l 0.65754,0 0.23752,-0.0525 0,-0.12251 -0.17502,-0.0175 0,-0.14001 -0.045,0 0,-0.16001 -0.10501,0 0,0.15001 -0.27252,-0.0175 0,-0.0975 -0.105,0 0,0.09 -0.28002,-0.0275 0,-0.13251 -0.10751,0 0,0.12501 -0.41253,-0.0275 0,-0.0425 -0.30752,0 0,-0.08 -0.16751,0 0,0.0425 c -0.018,0.009 -0.035,0.0263 -0.0525,0.035 l -0.0175,0 c -0.29095,-0.22868 -0.30877,0.23811 -0.50253,0.1325 -0.0174,-0.0968 -0.008,-0.18324 -0.008,-0.29752 0.33441,-0.009 0.21145,-0.0982 0.115,-0.21251 -0.0347,-0.0441 -0.0538,-0.11355 -0.0625,-0.15751 -0.0593,-0.21765 -0.25706,-0.37237 -0.55253,-0.35752 z m 0.59254,1.35508 c 0.0419,1e-5 0.065,0.015 0.065,0.015 0.10536,-0.0178 0.20251,0.009 0.37002,0 -0.0269,0.2902 -0.23647,0.16667 -0.46502,0.32501 -0.0617,-0.009 -0.13345,-0.01 -0.23002,-0.01 -0.0174,-0.19351 0.0527,-0.22735 0.0875,-0.26252 0.0704,-0.0528 0.13062,-0.0676 0.17252,-0.0675 z"
         style="fill:#ffffff;fill-opacity:1;display:inline;enable-background:new" />
      <path
         style="fill:#ffffff;fill-opacity:1;display:inline;enable-background:new"
         d="m 427,144 c -0.45245,0.002 -0.93611,0.0322 -1.35346,0.0322 -0.93141,0 -1.84502,-0.033 -2.65334,0.0267 -1.24886,0.0923 -2.1757,0.63769 -2.81583,1.32668 -0.6539,0.70384 -1.1624,1.70027 -1.1624,2.92296 0,1.27457 0.49373,2.22689 1.1624,2.92296 0.63613,0.66215 1.5786,1.24727 2.76226,1.32667 2.18309,0.14631 3.63586,-1.07503 4.27642,-2.62478 0.41593,-1.00637 0.91869,-2.21594 1.35345,-3.27471 0.13137,-0.31988 0.39052,-0.72725 0.43389,-1.11062 0.0864,-0.76404 -0.32223,-1.20354 -0.83921,-1.40702 -0.29021,-0.11422 -0.71174,-0.14255 -1.16418,-0.14105 z m -3.67826,0.84635 c 1.04244,0.003 1.79581,0.41633 2.3248,0.89099 0.66384,0.59567 1.278,1.80991 1.05527,3.1408 -0.18185,1.08649 -0.79121,1.94912 -1.78556,2.48907 -1.08204,0.58765 -2.4424,0.50072 -3.41221,-0.0803 -0.93589,-0.56076 -1.81674,-1.64749 -1.67843,-3.35685 0.0735,-0.9089 0.46868,-1.53981 0.97492,-2.05697 0.47171,-0.48191 1.13438,-0.90307 2.05697,-1.0017 0.16097,-0.0172 0.31532,-0.0255 0.46424,-0.025 z m -0.17677,0.86778 c -0.0703,0.003 -0.1492,0.0206 -0.23391,0.0536 -0.22017,0.0816 -0.16329,0.37754 -0.14463,0.57853 -0.0125,0.0188 -0.0367,0.0125 -0.0553,0.0125 -0.23883,0.0126 -0.34609,0.26317 -0.3964,0.46425 0.0125,0.18223 -0.0131,0.3831 -0.0447,0.55888 -0.0316,0.17587 -0.0937,0.31429 -0.1,0.48388 -0.0125,0.15076 0.0446,0.32783 0.0322,0.46604 -0.1321,0.38949 -0.22752,0.64601 -0.29641,1.06061 -0.0503,0.0942 -0.2252,0.29523 -0.29461,0.33926 -0.0187,0.0313 0.0115,0.10078 -0.0197,0.14464 -0.0565,0.0816 -0.1444,0.12628 -0.19462,0.21426 0.0125,0.0188 -0.0746,0.0363 -0.0678,0.0678 0.006,0.0313 0.0492,0.11321 0.0678,0.13213 0.006,0.0126 0.0697,-0.0189 0.0697,0 0.0253,0.0753 0.0819,0.23195 0.14463,0.26962 0.27667,0.0313 0.27634,0.0313 0.38926,0 0.0627,-0.18224 -0.21234,-0.0996 -0.18749,-0.34462 0.3772,-0.0753 0.49561,-0.18283 0.64637,-0.57852 0.0689,-0.28896 0.16263,-0.57173 0.30712,-0.84814 0.0248,-0.0188 0.0185,-0.0686 0.0625,-0.0875 0.1694,0.28259 0.47819,0.48327 0.62851,0.7785 0.0378,0.38313 0.11305,0.59152 0.24462,0.66066 0.0316,0.0126 -4e-4,0.13202 0.025,0.15713 0,0.0377 0.0133,0.0809 -0.005,0.12499 -0.0129,0.0315 -0.005,0.0686 -0.005,0.1 l 0,0.0375 c 0.006,0.0567 0.0185,0.058 0.075,0.10177 0.16322,0.10673 0.3821,0.27564 0.60173,0.14999 0.10054,-0.16349 -0.11171,-0.36993 -0.26247,-0.47675 -0.0503,-0.0377 -0.13915,-0.13175 -0.12678,-0.19462 0.0819,-0.0817 0.1387,-0.4396 0.10714,-0.71601 -0.0125,-0.0627 -0.0246,-0.12655 -0.05,-0.17677 -0.0752,-0.1444 -0.24478,-0.34485 -0.38926,-0.48925 0.0187,-0.0188 0.0438,-0.0446 0.075,-0.0572 0,-0.13812 -0.0571,-0.18168 -0.13214,-0.28212 -0.0632,-0.10054 -0.207,-0.29603 -0.31425,-0.3589 0,0 -4e-4,-0.005 -0.10714,-0.005 -0.006,-0.0691 0.0135,-0.12643 0.0322,-0.20178 0,-0.0565 0.0447,-0.0242 0.0572,-0.14998 0.0316,-0.10672 0.0175,-0.0451 0.0428,-0.15177 0.0248,-0.0502 0.0392,-0.10043 0.0392,-0.18213 0.0938,0.0315 0.28237,0.0251 0.36426,0 l 0.0178,0.0125 c 0.0254,0.007 0.0313,-0.0312 0.05,-0.0375 0.14457,-0.0755 0.19507,-0.20707 0.31426,-0.21962 0,0 0.0634,-0.0315 0.15713,0 0.0378,0 0.0697,0.008 0.0697,-0.0303 0.006,-0.0565 0.006,-0.10143 0.0375,-0.13927 0.0248,0.15076 0.0938,0.32057 0.21962,0.48388 l 0.12499,-0.0875 c -0.11919,-0.14439 -0.19413,-0.30787 -0.20713,-0.49638 0.006,0.0126 0.0125,0.0249 0.025,0.0375 0.044,0 0.0693,-0.0938 0.11964,-0.0875 0.006,-0.0126 0.0197,-0.0703 0.0322,-0.11428 l 0.4696,0 0.16963,-0.0375 0,-0.0875 -0.12499,-0.0125 0,-0.1 -0.0322,0 0,-0.11428 -0.075,0 0,0.10714 -0.19463,-0.0125 0,-0.0697 -0.075,0 0,0.0643 -0.19998,-0.0197 0,-0.0946 -0.0768,0 0,0.0893 -0.29462,-0.0197 0,-0.0303 -0.21962,0 0,-0.0572 -0.11964,0 0,0.0303 c -0.0129,0.006 -0.025,0.0188 -0.0375,0.025 l -0.0125,0 c -0.20778,-0.16332 -0.22051,0.17006 -0.35889,0.0946 -0.0125,-0.0692 -0.005,-0.13086 -0.005,-0.21248 0.23884,-0.007 0.15102,-0.0702 0.0822,-0.15177 -0.0248,-0.0315 -0.0384,-0.0811 -0.0447,-0.11249 -0.0423,-0.15545 -0.18358,-0.26594 -0.39461,-0.25534 z m 0.42318,0.96777 c 0.0299,10e-6 0.0464,0.0108 0.0464,0.0108 0.0752,-0.0127 0.14464,0.007 0.26427,0 -0.0192,0.20727 -0.16889,0.11904 -0.33212,0.23213 -0.044,-0.006 -0.0953,-0.007 -0.16427,-0.007 -0.0125,-0.1382 0.0377,-0.16238 0.0625,-0.18748 0.0503,-0.0377 0.0933,-0.0482 0.1232,-0.0482 z"
         id="path4137"
         inkscape:connector-curvature="0" />
    </g>
    <g
       inkscape:groupmode="layer"
       id="layer5"
       inkscape:label="Highlights"
       style="display:inline"
       sodipodi:insensitive="true">
      <path
         style="opacity:0.12999998;color:#bebebe;fill:#ffffff;fill-opacity:1;fill-rule:nonzero;stroke:none;stroke-width:0;marker:none;visibility:visible;display:inline;overflow:visible;enable-background:accumulate"
         d="M 84,47 C 56.836703,47 35,68.836703 35,96 l 0,1 C 35,69.836703 56.836703,48 84,48 l 120,0 c 27.1633,0 49,21.836703 49,49 l 0,-1 C 253,68.836703 231.1633,47 204,47 L 84,47 z"
         id="rect3894"
         inkscape:connector-curvature="0" />
      <path
         style="opacity:0.12999998;color:#bebebe;fill:#ffffff;fill-opacity:1;fill-rule:nonzero;stroke:none;stroke-width:0;marker:none;visibility:visible;display:inline;overflow:visible;enable-background:accumulate"
         d="m 419,141 c -1.1253,0 -2,0.8747 -2,2 l 0,1 c 0,-1.1253 0.8747,-2 2,-2 l 10,0 c 1.1253,0 2,0.8747 2,2 l 0,-1 c 0,-1.1253 -0.8747,-2 -2,-2 l -10,0 z"
         id="rect3896"
         inkscape:connector-curvature="0" />
      <path
         style="opacity:0.12999998;color:#bebebe;fill:#ffffff;fill-opacity:1;fill-rule:nonzero;stroke:none;stroke-width:0;marker:none;visibility:visible;display:inline;overflow:visible;enable-background:accumulate"
         d="m 422,102 c -2.2333,0 -4,1.7667 -4,4 l 0,1 c 0,-2.2333 1.7667,-4 4,-4 l 12,0 c 2.2333,0 4,1.7667 4,4 l 0,-1 c 0,-2.2333 -1.7667,-4 -4,-4 l -12,0 z"
         id="rect3898"
         inkscape:connector-curvature="0" />
      <path
         style="opacity:0.12999998;color:#bebebe;fill:#ffffff;fill-opacity:1;fill-rule:nonzero;stroke:none;stroke-width:0;marker:none;visibility:visible;display:inline;overflow:visible;enable-background:accumulate"
         d="m 424,54 c -3.3413,0 -6,2.658703 -6,6 l 0,1 c 0,-3.341297 2.6587,-6 6,-6 l 16,0 c 3.3413,0 6,2.658703 6,6 l 0,-1 c 0,-3.341297 -2.6587,-6 -6,-6 l -16,0 z"
         id="rect3900"
         inkscape:connector-curvature="0" />
      <path
         style="opacity:0.12999998;color:#bebebe;fill:#ffffff;fill-opacity:1;fill-rule:nonzero;stroke:none;stroke-width:0;marker:none;visibility:visible;display:inline;overflow:visible;enable-background:accumulate"
         d="m 300,224 c -4.4493,0 -8,3.5507 -8,8 l 0,1 c 0,-4.4493 3.5507,-8 8,-8 l 24,0 c 4.4493,0 8,3.5507 8,8 l 0,-1 c 0,-4.4493 -3.5507,-8 -8,-8 l -24,0 z"
         id="rect3902"
         inkscape:connector-curvature="0" />
      <path
         style="opacity:0.12999998;color:#bebebe;fill:#ffffff;fill-opacity:1;fill-rule:nonzero;stroke:none;stroke-width:0;marker:none;visibility:visible;display:inline;overflow:visible;enable-background:accumulate"
         d="m 310,33 c -9.4353,0 -17,7.564703 -17,17 l 0,1 c 0,-9.435297 7.5647,-17 17,-17 l 52,0 c 9.4353,0 17,7.564703 17,17 l 0,-1 c 0,-9.435297 -7.5647,-17 -17,-17 l -52,0 z"
         id="rect3904"
         inkscape:connector-curvature="0" />
      <path
         style="opacity:0.12999998;color:#bebebe;fill:#ffffff;fill-opacity:1;fill-rule:nonzero;stroke:none;stroke-width:0;marker:none;visibility:visible;display:inline;overflow:visible;enable-background:accumulate"
         d="m 302.5,143 c -6.3883,0 -11.5,5.1117 -11.5,11.5 l 0,1 c 0,-6.3883 5.1117,-11.5 11.5,-11.5 l 35,0 c 6.3883,0 11.5,5.1117 11.5,11.5 l 0,-1 c 0,-6.3883 -5.1117,-11.5 -11.5,-11.5 l -35,0 z"
         id="rect3906"
         inkscape:connector-curvature="0" />
      <path
         id="path4085"
         d="m 204,266 c 27.1633,0 49,-21.8367 49,-49 l 0,-1 c 0,27.1633 -21.8367,49 -49,49 L 84,265 C 56.8367,265 35,243.1633 35,216 l 0,1 c 0,27.1633 21.8367,49 49,49 l 120,0 z"
         style="opacity:0.5;color:#bebebe;fill:#000000;fill-opacity:1;fill-rule:nonzero;stroke:none;stroke-width:0;marker:none;visibility:visible;display:inline;overflow:visible;enable-background:accumulate"
         inkscape:connector-curvature="0" />
      <path
         id="path4087"
         d="m 429,156 c 1.1253,0 2,-0.8747 2,-2 l 0,-1 c 0,1.1253 -0.8747,2 -2,2 l -10,0 c -1.1253,0 -2,-0.8747 -2,-2 l 0,1 c 0,1.1253 0.8747,2 2,2 l 10,0 z"
         style="opacity:0.3;color:#bebebe;fill:#000000;fill-opacity:1;fill-rule:nonzero;stroke:none;stroke-width:0;marker:none;visibility:visible;display:inline;overflow:visible;enable-background:accumulate"
         inkscape:connector-curvature="0" />
      <path
         id="path4089"
         d="m 434,123 c 2.2333,0 4,-1.7667 4,-4 l 0,-1 c 0,2.2333 -1.7667,4 -4,4 l -12,0 c -2.2333,0 -4,-1.7667 -4,-4 l 0,1 c 0,2.2333 1.7667,4 4,4 l 12,0 z"
         style="opacity:0.3;color:#bebebe;fill:#000000;fill-opacity:1;fill-rule:nonzero;stroke:none;stroke-width:0;marker:none;visibility:visible;display:inline;overflow:visible;enable-background:accumulate"
         inkscape:connector-curvature="0" />
      <path
         id="path4091"
         d="m 440,83 c 3.3413,0 6,-2.6587 6,-6 l 0,-1 c 0,3.3413 -2.6587,6 -6,6 l -16,0 c -3.3413,0 -6,-2.6587 -6,-6 l 0,1 c 0,3.3413 2.6587,6 6,6 l 16,0 z"
         style="opacity:0.5;color:#bebebe;fill:#000000;fill-opacity:1;fill-rule:nonzero;stroke:none;stroke-width:0;marker:none;visibility:visible;display:inline;overflow:visible;enable-background:accumulate"
         inkscape:connector-curvature="0" />
      <path
         id="path4093"
         d="m 324,265 c 4.4493,0 8,-3.5507 8,-8 l 0,-1 c 0,4.4493 -3.5507,8 -8,8 l -24,0 c -4.4493,0 -8,-3.5507 -8,-8 l 0,1 c 0,4.4493 3.5507,8 8,8 l 24,0 z"
         style="opacity:0.5;color:#bebebe;fill:#000000;fill-opacity:1;fill-rule:nonzero;stroke:none;stroke-width:0;marker:none;visibility:visible;display:inline;overflow:visible;enable-background:accumulate"
         inkscape:connector-curvature="0" />
      <path
         id="path4095"
         d="m 362,120 c 9.4353,0 17,-7.5647 17,-17 l 0,-1 c 0,9.4353 -7.5647,17 -17,17 l -52,0 c -9.4353,0 -17,-7.5647 -17,-17 l 0,1 c 0,9.4353 7.5647,17 17,17 l 52,0 z"
         style="opacity:0.5;color:#bebebe;fill:#000000;fill-opacity:1;fill-rule:nonzero;stroke:none;stroke-width:0;marker:none;visibility:visible;display:inline;overflow:visible;enable-background:accumulate"
         inkscape:connector-curvature="0" />
      <path
         id="path4097"
         d="m 337.5,202 c 6.3883,0 11.5,-5.1117 11.5,-11.5 l 0,-1 c 0,6.3883 -5.1117,11.5 -11.5,11.5 l -35,0 c -6.3883,0 -11.5,-5.1117 -11.5,-11.5 l 0,1 c 0,6.3883 5.1117,11.5 11.5,11.5 l 35,0 z"
         style="opacity:0.5;color:#bebebe;fill:#000000;fill-opacity:1;fill-rule:nonzero;stroke:none;stroke-width:0;marker:none;visibility:visible;display:inline;overflow:visible;enable-background:accumulate"
         inkscape:connector-curvature="0" />
      <path
         inkscape:connector-curvature="0"
         id="path4280"
         d="M 84,265 C 56.836703,265 35,243.1633 35,216 l 0,-1 c 0,27.1633 21.836703,49 49,49 l 120,0 c 27.1633,0 49,-21.8367 49,-49 l 0,1 c 0,27.1633 -21.8367,49 -49,49 l -120,0 z"
         style="opacity:0.1;color:#bebebe;fill:#ffffff;fill-opacity:1;fill-rule:nonzero;stroke:none;stroke-width:0;marker:none;visibility:visible;display:inline;overflow:visible;enable-background:accumulate" />
      <path
         style="opacity:0.1;color:#bebebe;fill:#ffffff;fill-opacity:1;fill-rule:nonzero;stroke:none;stroke-width:0;marker:none;visibility:visible;display:inline;overflow:visible;enable-background:accumulate"
         d="m 300,264 c -4.4493,0 -8,-3.5507 -8,-8 l 0,-1 c 0,4.4493 3.5507,8 8,8 l 24,0 c 4.4493,0 8,-3.5507 8,-8 l 0,1 c 0,4.4493 -3.5507,8 -8,8 l -24,0 z"
         id="path4294"
         inkscape:connector-curvature="0" />
      <path
         style="opacity:0.1;color:#bebebe;fill:#ffffff;fill-opacity:1;fill-rule:nonzero;stroke:none;stroke-width:0;marker:none;visibility:visible;display:inline;overflow:visible;enable-background:accumulate"
         d="m 302.5,201 c -6.3883,0 -11.5,-5.1117 -11.5,-11.5 l 0,-1 c 0,6.3883 5.1117,11.5 11.5,11.5 l 35,0 c 6.3883,0 11.5,-5.1117 11.5,-11.5 l 0,1 c 0,6.3883 -5.1117,11.5 -11.5,11.5 l -35,0 z"
         id="path4296"
         inkscape:connector-curvature="0" />
      <path
         style="opacity:0.1;color:#bebebe;fill:#ffffff;fill-opacity:1;fill-rule:nonzero;stroke:none;stroke-width:0;marker:none;visibility:visible;display:inline;overflow:visible;enable-background:accumulate"
         d="m 310,119 c -9.4353,0 -17,-7.5647 -17,-17 l 0,-1 c 0,9.4353 7.5647,17 17,17 l 52,0 c 9.4353,0 17,-7.5647 17,-17 l 0,1 c 0,9.4353 -7.5647,17 -17,17 l -52,0 z"
         id="path4298"
         inkscape:connector-curvature="0" />
      <path
         style="opacity:0.1;color:#bebebe;fill:#ffffff;fill-opacity:1;fill-rule:nonzero;stroke:none;stroke-width:0;marker:none;visibility:visible;display:inline;overflow:visible;enable-background:accumulate"
         d="m 424,82 c -3.3413,0 -6,-2.658703 -6,-6 l 0,-1 c 0,3.341297 2.6587,6 6,6 l 16,0 c 3.3413,0 6,-2.658703 6,-6 l 0,1 c 0,3.341297 -2.6587,6 -6,6 l -16,0 z"
         id="path4300"
         inkscape:connector-curvature="0" />
      <path
         style="opacity:0.1;color:#bebebe;fill:#ffffff;fill-opacity:1;fill-rule:nonzero;stroke:none;stroke-width:0;marker:none;visibility:visible;display:inline;overflow:visible;enable-background:accumulate"
         d="m 422,122 c -2.2333,0 -4,-1.7667 -4,-4 l 0,-1 c 0,2.2333 1.7667,4 4,4 l 12,0 c 2.2333,0 4,-1.7667 4,-4 l 0,1 c 0,2.2333 -1.7667,4 -4,4 l -12,0 z"
         id="path4302"
         inkscape:connector-curvature="0" />
      <path
         style="opacity:0.1;color:#bebebe;fill:#ffffff;fill-opacity:1;fill-rule:nonzero;stroke:none;stroke-width:0;marker:none;visibility:visible;display:inline;overflow:visible;enable-background:accumulate"
         d="m 419,154.5 c -1.1253,0 -2,-0.8747 -2,-2 l 0,-1 c 0,1.1253 0.8747,2 2,2 l 10,0 c 1.1253,0 2,-0.8747 2,-2 l 0,1 c 0,1.1253 -0.8747,2 -2,2 l -10,0 z"
         id="path4304"
         inkscape:connector-curvature="0" />
    </g>
    <g
       inkscape:groupmode="layer"
       id="layer3"
       inkscape:label="Border"
       style="display:inline"
       sodipodi:insensitive="true">
      <path
         style="opacity:0.41000001;color:#bebebe;fill:#000000;fill-opacity:1;fill-rule:nonzero;stroke:none;stroke-width:0;marker:none;visibility:visible;display:inline;overflow:visible;enable-background:accumulate"
         d="m 422,101 c -2.77,0 -5,2.23 -5,5 l 0,12 c 0,2.77 2.23,5 5,5 l 12,0 c 2.77,0 5,-2.23 5,-5 l 0,-12 c 0,-2.77 -2.23,-5 -5,-5 l -12,0 z m 0,1 12,0 c 2.2333,0 4,1.7667 4,4 l 0,12 c 0,2.2333 -1.7667,4 -4,4 l -12,0 c -2.2333,0 -4,-1.7667 -4,-4 l 0,-12 c 0,-2.2333 1.7667,-4 4,-4 z"
         id="rect4099"
         inkscape:connector-curvature="0" />
      <path
         style="opacity:0.41000001;color:#bebebe;fill:#000000;fill-opacity:1;fill-rule:nonzero;stroke:none;stroke-width:0;marker:none;visibility:visible;display:inline;overflow:visible;enable-background:accumulate"
         d="m 424,53 c -3.878,0 -7,3.122 -7,7 l 0,16 c 0,3.878 3.122,7 7,7 l 16,0 c 3.878,0 7,-3.122 7,-7 l 0,-16 c 0,-3.878 -3.122,-7 -7,-7 l -16,0 z m 0,1 16,0 c 3.3413,0 6,2.658703 6,6 l 0,16 c 0,3.341297 -2.6587,6 -6,6 l -16,0 c -3.3413,0 -6,-2.658703 -6,-6 l 0,-16 c 0,-3.341297 2.6587,-6 6,-6 z"
         id="rect4151"
         inkscape:connector-curvature="0" />
      <path
         style="opacity:0.41000001;color:#bebebe;fill:#000000;fill-opacity:1;fill-rule:nonzero;stroke:none;stroke-width:0;marker:none;visibility:visible;display:inline;overflow:visible;enable-background:accumulate"
         d="m 419,140 c -1.662,0 -3,1.338 -3,3 l 0,10 c 0,1.662 1.338,3 3,3 l 10,0 c 1.662,0 3,-1.338 3,-3 l 0,-10 c 0,-1.662 -1.338,-3 -3,-3 l -10,0 z m 0,1 10,0 c 1.1253,0 2,0.8747 2,2 l 0,10 c 0,1.1253 -0.8747,2 -2,2 l -10,0 c -1.1253,0 -2,-0.8747 -2,-2 l 0,-10 c 0,-1.1253 0.8747,-2 2,-2 z"
         id="rect4095"
         inkscape:connector-curvature="0" />
      <path
         style="opacity:0.41000001;color:#bebebe;fill:#000000;fill-opacity:1;fill-rule:nonzero;stroke:none;stroke-width:0;marker:none;visibility:visible;display:inline;overflow:visible;enable-background:accumulate"
         d="m 300,223 c -4.986,0 -9,4.014 -9,9 l 0,24 c 0,4.986 4.014,9 9,9 l 24,0 c 4.986,0 9,-4.014 9,-9 l 0,-24 c 0,-4.986 -4.014,-9 -9,-9 l -24,0 z m 0,1 24,0 c 4.4493,0 8,3.5507 8,8 l 0,24 c 0,4.4493 -3.5507,8 -8,8 l -24,0 c -4.4493,0 -8,-3.5507 -8,-8 l 0,-24 c 0,-4.4493 3.5507,-8 8,-8 z"
         id="rect4783"
         inkscape:connector-curvature="0" />
      <path
         style="opacity:0.41000001;color:#bebebe;fill:#000000;fill-opacity:1;fill-rule:nonzero;stroke:none;stroke-width:0;marker:none;visibility:visible;display:inline;overflow:visible;enable-background:accumulate"
         d="m 302.5,142 c -6.925,0 -12.5,5.575 -12.5,12.5 l 0,35 c 0,6.925 5.575,12.5 12.5,12.5 l 35,0 c 6.925,0 12.5,-5.575 12.5,-12.5 l 0,-35 c 0,-6.925 -5.575,-12.5 -12.5,-12.5 l -35,0 z m 0,1 35,0 c 6.3883,0 11.5,5.1117 11.5,11.5 l 0,35 c 0,6.3883 -5.1117,11.5 -11.5,11.5 l -35,0 c -6.3883,0 -11.5,-5.1117 -11.5,-11.5 l 0,-35 c 0,-6.3883 5.1117,-11.5 11.5,-11.5 z"
         id="rect4515"
         inkscape:connector-curvature="0" />
      <path
         style="opacity:0.41000001;color:#bebebe;fill:#000000;fill-opacity:1;fill-rule:nonzero;stroke:none;stroke-width:0;marker:none;visibility:visible;display:inline;overflow:visible;enable-background:accumulate"
         d="m 310,32 c -9.972,0 -18,8.028 -18,18 l 0,52 c 0,9.972 8.028,18 18,18 l 52,0 c 9.972,0 18,-8.028 18,-18 l 0,-52 c 0,-9.972 -8.028,-18 -18,-18 l -52,0 z m 0,1 52,0 c 9.4353,0 17,7.564703 17,17 l 0,52 c 0,9.4353 -7.5647,17 -17,17 l -52,0 c -9.4353,0 -17,-7.5647 -17,-17 l 0,-52 c 0,-9.435297 7.5647,-17 17,-17 z"
         id="rect4511"
         inkscape:connector-curvature="0" />
      <path
         style="opacity:0.41000001;color:#bebebe;fill:#000000;fill-opacity:1;fill-rule:nonzero;stroke:none;stroke-width:0;marker:none;visibility:visible;display:inline;overflow:visible;enable-background:accumulate"
         d="M 84,46 C 56.3,46 34,68.3 34,96 l 0,120 c 0,27.7 22.3,50 50,50 l 120,0 c 27.7,0 50,-22.3 50,-50 L 254,96 C 254,68.3 231.7,46 204,46 L 84,46 z m 0,1 120,0 c 27.1633,0 49,21.836703 49,49 l 0,120 c 0,27.1633 -21.8367,49 -49,49 L 84,265 C 56.836703,265 35,243.1633 35,216 L 35,96 C 35,68.836703 56.836703,47 84,47 z"
         id="rect4040"
         inkscape:connector-curvature="0" />
    </g>
  </g>
</svg>
