<?xml version="1.0" encoding="UTF-8" standalone="no"?>
<!-- Created with Inkscape (http://www.inkscape.org/) -->

<svg
   xmlns:dc="http://purl.org/dc/elements/1.1/"
   xmlns:cc="http://creativecommons.org/ns#"
   xmlns:rdf="http://www.w3.org/1999/02/22-rdf-syntax-ns#"
   xmlns:svg="http://www.w3.org/2000/svg"
   xmlns="http://www.w3.org/2000/svg"
   xmlns:xlink="http://www.w3.org/1999/xlink"
   xmlns:sodipodi="http://sodipodi.sourceforge.net/DTD/sodipodi-0.dtd"
   xmlns:inkscape="http://www.inkscape.org/namespaces/inkscape"
   inkscape:export-ydpi="90.000000"
   inkscape:export-xdpi="90.000000"
   width="480"
   height="300"
   id="svg11300"
   sodipodi:version="0.32"
   inkscape:version="0.48.4 r9939"
   sodipodi:docname="vocal.svg"
   inkscape:output_extension="org.inkscape.output.svg.inkscape"
   version="1.0"
   style="display:inline;enable-background:new"
   inkscape:export-filename="/home/sam/moka-next-template.png">
  <sodipodi:namedview
     stroke="#ef2929"
     fill="#f57900"
     id="base"
     pagecolor="#777777"
     bordercolor="#666666"
     borderopacity="0.25490196"
     inkscape:pageopacity="0"
     inkscape:pageshadow="2"
     inkscape:zoom="1"
     inkscape:cx="437.2063"
     inkscape:cy="225.95509"
     inkscape:current-layer="layer7"
     showgrid="false"
     inkscape:grid-bbox="true"
     inkscape:document-units="px"
     inkscape:showpageshadow="false"
     inkscape:window-width="1364"
     inkscape:window-height="700"
     inkscape:window-x="0"
     inkscape:window-y="28"
     width="400px"
     height="300px"
     inkscape:snap-nodes="true"
     inkscape:snap-bbox="true"
     gridtolerance="10000"
     inkscape:object-nodes="true"
     inkscape:snap-grids="true"
     showguides="true"
     inkscape:guide-bbox="true"
     inkscape:window-maximized="1"
     inkscape:bbox-nodes="true"
     inkscape:bbox-paths="true"
     inkscape:snap-bbox-edge-midpoints="true"
     inkscape:snap-bbox-midpoints="true">
    <inkscape:grid
       spacingy="1px"
       spacingx="1px"
       id="grid5883"
       type="xygrid"
       enabled="true"
       visible="true"
       empspacing="4"
       snapvisiblegridlinesonly="true"
       dotted="false"
       color="#000000"
       opacity="0.1254902"
       empcolor="#203ef3"
       empopacity="0.36470588" />
    <inkscape:grid
       type="xygrid"
       id="grid11592"
       empspacing="8"
       visible="true"
       enabled="false"
       spacingx="0.5px"
       spacingy="0.5px"
       color="#ff0000"
       opacity="0.1254902"
       empcolor="#ff0000"
       empopacity="0.25098039"
       snapvisiblegridlinesonly="true"
       dotted="true" />
  </sodipodi:namedview>
  <defs
     id="defs3">
    <linearGradient
       inkscape:collect="always"
       xlink:href="#outerBackgroundGradient-31"
       id="linearGradient4567"
       gradientUnits="userSpaceOnUse"
       gradientTransform="matrix(0,-1,1,0,-12,300)"
       x1="35"
       y1="156"
       x2="253"
       y2="156" />
    <linearGradient
       inkscape:collect="always"
       xlink:href="#outerBackgroundGradient-31"
       id="linearGradient4569"
       gradientUnits="userSpaceOnUse"
       gradientTransform="matrix(0,-1,1,0,276,572)"
       x1="417"
       y1="148"
       x2="431"
       y2="148" />
    <linearGradient
       inkscape:collect="always"
       xlink:href="#outerBackgroundGradient-31"
       id="linearGradient4571"
       gradientUnits="userSpaceOnUse"
       gradientTransform="matrix(0,-1,1,0,316,540)"
       x1="418"
       y1="112"
       x2="438"
       y2="112" />
    <linearGradient
       inkscape:collect="always"
       xlink:href="#outerBackgroundGradient-31"
       id="linearGradient4573"
       gradientUnits="userSpaceOnUse"
       gradientTransform="matrix(0,-1,1,0,364,500)"
       x1="418"
       y1="68"
       x2="446"
       y2="68" />
    <linearGradient
       inkscape:collect="always"
       xlink:href="#outerBackgroundGradient-31"
       id="linearGradient4575"
       gradientUnits="userSpaceOnUse"
       gradientTransform="matrix(0,-1,1,0,68,556)"
       x1="292"
       y1="244"
       x2="332"
       y2="244" />
    <linearGradient
       inkscape:collect="always"
       xlink:href="#outerBackgroundGradient-31"
       id="linearGradient4577"
       gradientUnits="userSpaceOnUse"
       gradientTransform="matrix(0,-1,1,0,260,412)"
       x1="293"
       y1="76"
       x2="379"
       y2="76" />
    <linearGradient
       inkscape:collect="always"
       xlink:href="#outerBackgroundGradient-31"
       id="linearGradient4579"
       gradientUnits="userSpaceOnUse"
       gradientTransform="matrix(0,-1,1,0,148,492)"
       x1="291"
       y1="172"
       x2="349"
       y2="172" />
    <linearGradient
       id="outerBackgroundGradient-31">
      <stop
         style="stop-color:#a33fab;stop-opacity:1"
         offset="0"
         id="stop3864-8-6-29" />
      <stop
         style="stop-color:#fc93dc;stop-opacity:1"
         offset="1"
         id="stop3866-9-1-15" />
    </linearGradient>
  </defs>
  <metadata
     id="metadata4">
    <rdf:RDF>
      <cc:Work
         rdf:about="">
        <dc:format>image/svg+xml</dc:format>
        <dc:type
           rdf:resource="http://purl.org/dc/dcmitype/StillImage" />
        <dc:creator>
          <cc:Agent>
            <dc:title>Sam Hewitt</dc:title>
          </cc:Agent>
        </dc:creator>
        <dc:source />
        <cc:license
           rdf:resource="" />
        <dc:title />
        <dc:subject>
          <rdf:Bag />
        </dc:subject>
        <dc:date />
        <dc:rights>
          <cc:Agent>
            <dc:title />
          </cc:Agent>
        </dc:rights>
        <dc:publisher>
          <cc:Agent>
            <dc:title />
          </cc:Agent>
        </dc:publisher>
        <dc:identifier />
        <dc:relation />
        <dc:language />
        <dc:coverage />
        <dc:description />
        <dc:contributor>
          <cc:Agent>
            <dc:title />
          </cc:Agent>
        </dc:contributor>
      </cc:Work>
      <cc:Work
         rdf:about="">
        <dc:format>image/svg+xml</dc:format>
        <dc:type
           rdf:resource="http://purl.org/dc/dcmitype/StillImage" />
      </cc:Work>
    </rdf:RDF>
  </metadata>
  <g
     style="display:inline"
     inkscape:groupmode="layer"
     inkscape:label="Icon"
     id="layer1">
    <g
       style="display:none"
       inkscape:label="Baseplate"
       id="layer7"
       inkscape:groupmode="layer">
      <text
         y="19.745117"
         xml:space="preserve"
         x="15.006836"
         style="font-style:normal;font-variant:normal;font-weight:normal;font-stretch:normal;line-height:0%;font-family:'DejaVu Sans';-inkscape-font-specification:'DejaVu Sans';display:inline;fill:#000000;fill-opacity:1;stroke:none;enable-background:new"
         inkscape:label="context"
         id="context"><tspan
           style="font-style:normal;font-variant:normal;font-weight:normal;font-stretch:normal;font-size:18px;line-height:1.25;font-family:'DejaVu Sans';-inkscape-font-specification:'DejaVu Sans'"
           y="19.745117"
           x="15.006836"
           sodipodi:role="line"
           id="tspan3933">apps</tspan></text>
      <text
         y="19.745117"
         xml:space="preserve"
         x="122.48828"
         style="font-style:normal;font-variant:normal;font-weight:bold;font-stretch:normal;line-height:0%;font-family:'DejaVu Sans';-inkscape-font-specification:'DejaVu Sans Bold';text-align:start;writing-mode:lr-tb;text-anchor:start;display:inline;fill:#000000;fill-opacity:1;stroke:none;enable-background:new"
         inkscape:label="icon-name"
         id="icon-name"><tspan
           style="font-style:normal;font-variant:normal;font-weight:bold;font-stretch:normal;font-size:18px;line-height:1.25;font-family:'DejaVu Sans';-inkscape-font-specification:'DejaVu Sans Bold';fill:#000000;fill-opacity:1"
           y="19.745117"
           x="122.48828"
           sodipodi:role="line"
           id="tspan3937">vocal</tspan></text>
      <rect
         style="fill:#eeeeec;fill-opacity:1;fill-rule:nonzero;stroke:none;stroke-width:2;marker:none;visibility:visible;display:inline;overflow:visible;enable-background:accumulate"
         id="rect16x16"
         width="16"
         height="16"
         x="416"
         y="140"
         inkscape:label="16x16" />
      <rect
         style="fill:#d4d4d4;fill-opacity:1;fill-rule:nonzero;stroke:none;stroke-width:2;marker:none;visibility:visible;display:inline;overflow:visible;enable-background:accumulate"
         id="rect24x24"
         width="24"
         height="24"
         x="416"
         y="100"
         inkscape:label="24x24" />
      <rect
         style="fill:#eeeeec;fill-opacity:1;fill-rule:nonzero;stroke:none;stroke-width:2;marker:none;visibility:visible;display:inline;overflow:visible;enable-background:accumulate"
         id="rect32x32"
         width="32"
         height="32"
         x="416"
         y="52"
         inkscape:label="32x32" />
      <rect
         inkscape:label="22x22"
         y="101"
         x="417"
         height="22"
         width="22"
         id="rect22x22"
         style="fill:#eeeeec;fill-opacity:1;fill-rule:nonzero;stroke:none;stroke-width:2;marker:none;visibility:visible;display:inline;overflow:visible;enable-background:accumulate" />
      <rect
         inkscape:label="48x48"
         y="220"
         x="288"
         height="48"
         width="48"
         id="rect48x48"
         style="fill:#eeeeec;fill-opacity:1;fill-rule:nonzero;stroke:none;stroke-width:2;marker:none;visibility:visible;display:inline;overflow:visible;enable-background:accumulate" />
      <rect
         style="fill:#eeeeec;fill-opacity:1;fill-rule:nonzero;stroke:none;stroke-width:2;marker:none;visibility:visible;display:inline;overflow:visible;enable-background:accumulate"
         id="rect256x256"
         width="256"
         height="256"
         x="16"
         y="28"
         inkscape:label="256x256" />
      <rect
         style="fill:#eeeeec;fill-opacity:1;fill-rule:nonzero;stroke:none;stroke-width:2;marker:none;visibility:visible;display:inline;overflow:visible;enable-background:accumulate"
         id="rect64x64"
         width="64"
         height="64"
         x="288"
         y="140"
         inkscape:label="64x64" />
      <rect
         style="fill:#eeeeec;fill-opacity:1;fill-rule:nonzero;stroke:none;stroke-width:2;marker:none;visibility:visible;display:inline;overflow:visible;enable-background:accumulate"
         id="rect96x96"
         width="96"
         height="96"
         x="288"
         y="28"
         inkscape:label="96x96" />
    </g>
    <g
       inkscape:groupmode="layer"
       id="layer4"
       inkscape:label="Shadow"
       style="display:inline"
       sodipodi:insensitive="true">
      <rect
         ry="50"
         y="47"
         x="34"
         height="220"
         width="220"
         id="rect4114"
         style="opacity:0.1;color:#bebebe;fill:#000000;fill-opacity:1;fill-rule:nonzero;stroke:none;stroke-width:0;marker:none;visibility:visible;display:inline;overflow:visible;enable-background:accumulate" />
      <rect
         style="opacity:0.1;color:#bebebe;fill:#000000;fill-opacity:1;fill-rule:nonzero;stroke:none;stroke-width:0;marker:none;visibility:visible;display:inline;overflow:visible;enable-background:accumulate"
         id="rect4120"
         width="30"
         height="30"
         x="417"
         y="54"
         ry="7" />
      <rect
         transform="scale(1,-1)"
         ry="9"
         y="-266"
         x="291"
         height="42"
         width="42"
         id="rect4122"
         style="opacity:0.1;color:#bebebe;fill:#000000;fill-opacity:1;fill-rule:nonzero;stroke:none;stroke-width:0;marker:none;visibility:visible;display:inline;overflow:visible;enable-background:accumulate" />
      <rect
         style="opacity:0.1;color:#bebebe;fill:#000000;fill-opacity:1;fill-rule:nonzero;stroke:none;stroke-width:0;marker:none;visibility:visible;display:inline;overflow:visible;enable-background:accumulate"
         id="rect4124"
         width="88"
         height="88"
         x="292"
         y="33"
         ry="18" />
      <rect
         ry="12.5"
         y="143"
         x="290"
         height="60"
         width="60"
         id="rect4126"
         style="opacity:0.1;color:#bebebe;fill:#000000;fill-opacity:1;fill-rule:nonzero;stroke:none;stroke-width:0;marker:none;visibility:visible;display:inline;overflow:visible;enable-background:accumulate" />
      <path
         id="path4268"
         d="m 422,101 c -2.77,0 -5,2.23 -5,5 l 0,12 c 0,2.77 2.23,5 5,5 l 12,0 c 2.77,0 5,-2.23 5,-5 l 0,-12 c 0,-2.77 -2.23,-5 -5,-5 z"
         style="opacity:0.1;color:#bebebe;fill:#000000;fill-opacity:1;fill-rule:nonzero;stroke:none;stroke-width:0;marker:none;visibility:visible;display:inline;overflow:visible;enable-background:accumulate"
         inkscape:connector-curvature="0"
         sodipodi:nodetypes="sssssssss" />
      <path
         id="path4270"
         d="m 419,140 c -1.662,0 -3,1.338 -3,3 l 0,10 c 0,1.662 1.338,3 3,3 l 10,0 c 1.662,0 3,-1.338 3,-3 l 0,-10 c 0,-1.662 -1.338,-3 -3,-3 z"
         style="opacity:0.1;color:#bebebe;fill:#000000;fill-opacity:1;fill-rule:nonzero;stroke:none;stroke-width:0;marker:none;visibility:visible;display:inline;overflow:visible;enable-background:accumulate"
         inkscape:connector-curvature="0"
         sodipodi:nodetypes="sssssssss" />
    </g>
    <g
       inkscape:groupmode="layer"
       id="layer2"
       inkscape:label="Background"
       style="display:inline">
      <path
         style="color:#bebebe;fill:url(#linearGradient4567);fill-opacity:1.0;fill-rule:nonzero;stroke:none;stroke-width:2;marker:none;visibility:visible;display:inline;overflow:visible;enable-background:accumulate"
         d="M 84 46.5 C 56.568735 46.5 34.5 68.568732 34.5 96 L 34.5 216 C 34.5 243.43127 56.568735 265.5 84 265.5 L 204 265.5 C 231.43127 265.5 253.5 243.43127 253.5 216 L 253.5 96 C 253.5 68.568732 231.43127 46.5 204 46.5 L 84 46.5 z "
         id="path4200" />
      <path
         style="color:#bebebe;fill:url(#linearGradient4569);fill-opacity:1.0;fill-rule:nonzero;stroke:none;stroke-width:2;marker:none;visibility:visible;display:inline;overflow:visible;enable-background:accumulate"
         d="M 419 140.5 C 417.6156 140.5 416.5 141.6156 416.5 143 L 416.5 153 C 416.5 154.3844 417.6156 155.5 419 155.5 L 429 155.5 C 430.3844 155.5 431.5 154.3844 431.5 153 L 431.5 143 C 431.5 141.6156 430.3844 140.5 429 140.5 L 419 140.5 z "
         id="path4202" />
      <path
         style="color:#bebebe;fill:url(#linearGradient4571);fill-opacity:1.0;fill-rule:nonzero;stroke:none;stroke-width:2;marker:none;visibility:visible;display:inline;overflow:visible;enable-background:accumulate"
         d="M 422 101.5 C 419.50301 101.5 417.5 103.50301 417.5 106 L 417.5 118 C 417.5 120.49699 419.50301 122.5 422 122.5 L 434 122.5 C 436.49699 122.5 438.5 120.49699 438.5 118 L 438.5 106 C 438.5 103.50301 436.49699 101.5 434 101.5 L 422 101.5 z "
         id="path4204" />
      <path
         style="color:#bebebe;fill:url(#linearGradient4573);fill-opacity:1.0;fill-rule:nonzero;stroke:none;stroke-width:2;marker:none;visibility:visible;display:inline;overflow:visible;enable-background:accumulate"
         d="M 424 53.5 C 420.39346 53.5 417.5 56.393464 417.5 60 L 417.5 76 C 417.5 79.606536 420.39346 82.5 424 82.5 L 440 82.5 C 443.60654 82.5 446.5 79.606536 446.5 76 L 446.5 60 C 446.5 56.393464 443.60654 53.5 440 53.5 L 424 53.5 z "
         id="path4206" />
      <path
         style="color:#bebebe;fill:url(#linearGradient4575);fill-opacity:1.0;fill-rule:nonzero;stroke:none;stroke-width:2;marker:none;visibility:visible;display:inline;overflow:visible;enable-background:accumulate"
         d="M 300 223.5 C 295.28469 223.5 291.5 227.28469 291.5 232 L 291.5 256 C 291.5 260.71531 295.28469 264.5 300 264.5 L 324 264.5 C 328.71531 264.5 332.5 260.71531 332.5 256 L 332.5 232 C 332.5 227.28469 328.71531 223.5 324 223.5 L 300 223.5 z "
         id="path4208" />
      <path
         style="color:#bebebe;fill:url(#linearGradient4577);fill-opacity:1.0;fill-rule:nonzero;stroke:none;stroke-width:2;marker:none;visibility:visible;display:inline;overflow:visible;enable-background:accumulate"
         d="M 310 32.5 C 300.29745 32.5 292.5 40.297452 292.5 50 L 292.5 102 C 292.5 111.70255 300.29745 119.5 310 119.5 L 362 119.5 C 371.70255 119.5 379.5 111.70255 379.5 102 L 379.5 50 C 379.5 40.297452 371.70255 32.5 362 32.5 L 310 32.5 z "
         id="path4210" />
      <path
         style="color:#bebebe;fill:url(#linearGradient4579);fill-opacity:1.0;fill-rule:nonzero;stroke:none;stroke-width:2;marker:none;visibility:visible;display:inline;overflow:visible;enable-background:accumulate"
         d="M 302.5 142.5 C 295.84498 142.5 290.5 147.84498 290.5 154.5 L 290.5 189.5 C 290.5 196.15502 295.84498 201.5 302.5 201.5 L 337.5 201.5 C 344.15502 201.5 349.5 196.15502 349.5 189.5 L 349.5 154.5 C 349.5 147.84498 344.15502 142.5 337.5 142.5 L 302.5 142.5 z "
         id="path4212" />
    </g>
    <g
       inkscape:groupmode="layer"
       id="layer6"
       inkscape:label="Symbols"
       style="display:inline">
      <path
         style="font-size:medium;font-style:normal;font-variant:normal;font-weight:normal;font-stretch:normal;text-indent:0;text-align:start;text-decoration:none;line-height:normal;letter-spacing:normal;word-spacing:normal;text-transform:none;direction:ltr;block-progression:tb;writing-mode:lr-tb;text-anchor:start;baseline-shift:baseline;opacity:0.2;color:#000000;fill:#000000;fill-opacity:1;stroke:none;stroke-width:0.87197804;marker:none;visibility:visible;display:inline;overflow:visible;enable-background:accumulate;font-family:Sans;-inkscape-font-specification:Sans"
         d="m 143.99999,76.866091 c -44.242967,0 -80.133895,35.890929 -80.133895,80.133909 0,44.24297 35.890928,80.1339 80.133895,80.1339 44.24298,0 80.13391,-35.89093 80.13391,-80.1339 0,-44.24298 -35.89093,-80.133909 -80.13391,-80.133909 z m 0,2.006931 c 43.1621,0 78.12698,34.964878 78.12698,78.126978 0,43.16209 -34.96488,78.12697 -78.12698,78.12697 -43.16209,0 -78.126964,-34.96488 -78.126964,-78.12697 0,-43.1621 34.964874,-78.126978 78.126964,-78.126978 z"
         id="path4087-6"
         inkscape:connector-curvature="0" />
      <path
         style="font-size:medium;font-style:normal;font-variant:normal;font-weight:normal;font-stretch:normal;text-indent:0;text-align:start;text-decoration:none;line-height:normal;letter-spacing:normal;word-spacing:normal;text-transform:none;direction:ltr;block-progression:tb;writing-mode:lr-tb;text-anchor:start;baseline-shift:baseline;opacity:0.2;color:#000000;fill:#000000;fill-opacity:1;stroke:none;stroke-width:1.18432844;marker:none;visibility:visible;display:inline;overflow:visible;enable-background:accumulate;font-family:Sans;-inkscape-font-specification:Sans"
         d="m 143.99999,97.736025 c -32.71703,0 -59.263543,26.546515 -59.263543,59.263555 0,32.71703 26.546513,59.26355 59.263543,59.26355 32.71704,0 59.26355,-26.54652 59.26355,-59.26355 0,-32.71704 -26.54651,-59.263555 -59.26355,-59.263555 z m 0,2.005356 c 31.63616,0 57.2582,25.622039 57.2582,57.258199 0,31.63615 -25.62204,57.25819 -57.2582,57.25819 -31.63615,0 -57.258187,-25.62204 -57.258187,-57.25819 0,-31.63616 25.622037,-57.258199 57.258187,-57.258199 z"
         id="path4089-8"
         inkscape:connector-curvature="0" />
      <path
         id="path4091-4"
         d="m 143.99999,120.47825 c -7.68396,0 -13.91304,6.22908 -13.91304,13.91304 l 10.43478,0 c 0.96049,0 1.73913,0.77864 1.73913,1.73913 0,0.9605 -0.77864,1.73913 -1.73913,1.73913 l -10.43478,0 0,3.47826 10.43478,0 c 0.96049,0 1.73913,0.77865 1.73913,1.73914 0,0.96051 -0.77864,1.73913 -1.73913,1.73913 l -10.43478,0 0,3.47826 10.43478,0 c 0.96049,0 1.73913,0.77865 1.73913,1.73913 0,0.96051 -0.77864,1.73913 -1.73913,1.73913 l -10.43478,0 0,3.47827 10.43478,0 c 0.96049,0 1.73913,0.77864 1.73913,1.73913 0,0.9605 -0.77864,1.73913 -1.73913,1.73913 l -10.43478,0 0,3.47826 c 0,7.68396 6.22908,13.91304 13.91304,13.91304 7.68397,0 13.91304,-6.22908 13.91304,-13.91304 l 0,-3.47826 -10.43478,0 c -0.9605,0 -1.73913,-0.77863 -1.73913,-1.73913 0,-0.96049 0.77863,-1.73913 1.73913,-1.73913 l 10.43478,0 0,-3.47827 -10.43478,0 c -0.9605,0 -1.73913,-0.77862 -1.73913,-1.73913 0,-0.96048 0.77863,-1.73913 1.73913,-1.73913 l 10.43478,0 0,-3.47826 -10.43478,0 c -0.9605,0 -1.73913,-0.77862 -1.73913,-1.73913 0,-0.96049 0.77863,-1.73914 1.73913,-1.73914 l 10.43478,0 0,-3.47826 -10.43478,0 c -0.9605,0 -1.73913,-0.77862 -1.73913,-1.73913 0,-0.96049 0.77863,-1.73913 1.73913,-1.73913 l 10.43478,0 c 0,-7.68396 -6.22907,-13.91304 -13.91304,-13.91304 z m -20,39.13044 c -1.44073,0 -2.60869,1.16797 -2.60869,2.6087 0,11.30647 8.29123,20.66756 19.13043,22.33695 l 0,5.48913 -3.47826,0 c -0.9605,0 -1.73913,0.77862 -1.73913,1.73914 0,0.96052 0.77863,1.73913 1.73913,1.73913 l 13.91304,0 c 0.96049,0 1.73913,-0.77861 1.73913,-1.73913 0,-0.96052 -0.77864,-1.73914 -1.73913,-1.73914 l -3.47826,0 0,-5.48913 c 10.8392,-1.66939 19.13045,-11.03048 19.13045,-22.33695 0,-1.44073 -1.16797,-2.6087 -2.6087,-2.6087 -1.44074,0 -2.6087,1.16797 -2.6087,2.6087 0,9.60495 -7.78635,17.3913 -17.39131,17.3913 -0.60031,0 -1.20883,-0.0496 -1.79348,-0.10869 -0.58464,-0.0591 -1.11871,-0.15644 -1.68478,-0.27174 -7.92492,-1.62157 -13.91304,-8.60654 -13.91304,-17.01087 0,-1.44073 -1.16797,-2.6087 -2.6087,-2.6087 z"
         style="opacity:0.2;fill:#000000;fill-opacity:1;fill-rule:nonzero;stroke:none;display:inline;enable-background:new"
         inkscape:connector-curvature="0" />
      <path
         style="font-size:medium;font-style:normal;font-variant:normal;font-weight:normal;font-stretch:normal;text-indent:0;text-align:start;text-decoration:none;line-height:normal;letter-spacing:normal;word-spacing:normal;text-transform:none;direction:ltr;block-progression:tb;writing-mode:lr-tb;text-anchor:start;baseline-shift:baseline;opacity:0.2;color:#000000;fill:#000000;fill-opacity:1;stroke:none;stroke-width:1.16453302;marker:none;visibility:visible;display:inline;overflow:visible;enable-background:accumulate;font-family:Sans;-inkscape-font-specification:Sans"
         d="m 335.99999,46.864519 c -16.63199,0 -30.13547,13.503478 -30.13547,30.135471 0,16.631993 13.50348,30.13547 30.13547,30.13547 16.632,0 30.13548,-13.503477 30.13548,-30.13547 0,-16.631993 -13.50348,-30.135471 -30.13548,-30.135471 z m 0,1.019722 c 16.09156,0 29.11575,13.024196 29.11575,29.115749 0,16.091553 -13.02419,29.11575 -29.11575,29.11575 -16.09155,0 -29.11575,-13.024197 -29.11575,-29.11575 0,-16.091553 13.0242,-29.115749 29.11575,-29.115749 z"
         id="path4095-8"
         inkscape:connector-curvature="0" />
      <path
         style="font-size:medium;font-style:normal;font-variant:normal;font-weight:normal;font-stretch:normal;text-indent:0;text-align:start;text-decoration:none;line-height:normal;letter-spacing:normal;word-spacing:normal;text-transform:none;direction:ltr;block-progression:tb;writing-mode:lr-tb;text-anchor:start;baseline-shift:baseline;opacity:0.2;color:#000000;fill:#000000;fill-opacity:1;stroke:none;stroke-width:1.58167911;marker:none;visibility:visible;display:inline;overflow:visible;enable-background:accumulate;font-family:Sans;-inkscape-font-specification:Sans"
         d="m 336,54.693635 c -12.3168,0 -22.3062,9.989399 -22.3062,22.306199 0,12.3168 9.9894,22.3062 22.3062,22.3062 12.3168,0 22.3062,-9.9894 22.3062,-22.3062 0,-12.3168 -9.9894,-22.306199 -22.3062,-22.306199 z m 0,0.987874 c 11.77636,0 21.31832,9.541965 21.31832,21.318325 0,11.77636 -9.54196,21.318325 -21.31832,21.318325 -11.77636,0 -21.31833,-9.541965 -21.31833,-21.318325 0,-11.77636 9.54197,-21.318325 21.31833,-21.318325 z"
         id="path4097-5"
         inkscape:connector-curvature="0" />
      <path
         inkscape:connector-curvature="0"
         style="opacity:0.2;fill:#000000;fill-opacity:1;fill-rule:nonzero;stroke:none;display:inline;enable-background:new"
         d="m 336,63.32663 c -2.8768,0 -5.2089,2.332102 -5.2089,5.208899 l 3.90667,0 c 0.3596,0 0.65112,0.291513 0.65112,0.651112 0,0.3596 -0.29152,0.651112 -0.65112,0.651112 l -3.90667,0 0,1.302225 3.90667,0 c 0.3596,0 0.65112,0.291516 0.65112,0.651112 0,0.359603 -0.29152,0.651113 -0.65112,0.651113 l -3.90667,0 0,1.302224 3.90667,0 c 0.3596,0 0.65112,0.291516 0.65112,0.651113 0,0.359602 -0.29152,0.651112 -0.65112,0.651112 l -3.90667,0 0,1.302224 3.90667,0 c 0.3596,0 0.65112,0.291517 0.65112,0.651113 0,0.359603 -0.29152,0.651112 -0.65112,0.651112 l -3.90667,0 0,1.302225 c 0,2.876796 2.3321,5.208898 5.2089,5.208898 2.87679,0 5.2089,-2.332102 5.2089,-5.208898 l 0,-1.302225 -3.90668,0 c -0.3596,0 -0.65111,-0.291509 -0.65111,-0.651112 0,-0.359596 0.29151,-0.651113 0.65111,-0.651113 l 3.90668,0 0,-1.302224 -3.90668,0 c -0.3596,0 -0.65111,-0.29151 -0.65111,-0.651112 0,-0.359597 0.29151,-0.651113 0.65111,-0.651113 l 3.90668,0 0,-1.302224 -3.90668,0 c -0.3596,0 -0.65111,-0.29151 -0.65111,-0.651113 0,-0.359596 0.29151,-0.651112 0.65111,-0.651112 l 3.90668,0 0,-1.302225 -3.90668,0 c -0.3596,0 -0.65111,-0.291509 -0.65111,-0.651112 0,-0.359596 0.29151,-0.651112 0.65111,-0.651112 l 3.90668,0 c 0,-2.876797 -2.33211,-5.208899 -5.2089,-5.208899 z m -7.48779,14.650027 c -0.5394,0 -0.97667,0.437274 -0.97667,0.976669 0,4.233024 3.10415,7.737721 7.16223,8.362723 l 0,2.055074 -1.30222,0 c -0.3596,0 -0.65111,0.291504 -0.65111,0.651113 0,0.35961 0.29151,0.651113 0.65111,0.651113 l 5.2089,0 c 0.35959,0 0.65111,-0.291503 0.65111,-0.651113 0,-0.359609 -0.29152,-0.651113 -0.65111,-0.651113 l -1.30223,0 0,-2.055074 c 4.05809,-0.625002 7.16224,-4.129699 7.16224,-8.362723 0,-0.539395 -0.43728,-0.976669 -0.97667,-0.976669 -0.5394,0 -0.97667,0.437274 -0.97667,0.976669 0,3.595995 -2.91513,6.511123 -6.51112,6.511123 -0.22475,0 -0.45258,-0.01856 -0.67146,-0.04069 -0.21889,-0.02214 -0.41884,-0.05857 -0.63077,-0.101736 -2.967,-0.607097 -5.2089,-3.222199 -5.2089,-6.368692 0,-0.539395 -0.43727,-0.976669 -0.97666,-0.976669 z"
         id="path4099" />
      <path
         style="font-size:medium;font-style:normal;font-variant:normal;font-weight:normal;font-stretch:normal;text-indent:0;text-align:start;text-decoration:none;line-height:normal;letter-spacing:normal;word-spacing:normal;text-transform:none;direction:ltr;block-progression:tb;writing-mode:lr-tb;text-anchor:start;baseline-shift:baseline;opacity:0.2;color:#000000;fill:#000000;fill-opacity:1;stroke:none;stroke-width:1.75411344;marker:none;visibility:visible;display:inline;overflow:visible;enable-background:accumulate;font-family:Sans;-inkscape-font-specification:Sans"
         d="m 320,152.83312 c -11.13259,0 -20.16688,9.0343 -20.16688,20.16689 0,11.13258 9.03429,20.16688 20.16688,20.16688 11.13259,0 20.16689,-9.0343 20.16689,-20.16688 0,-11.13259 -9.0343,-20.16689 -20.16689,-20.16689 z m 0,0.99766 c 10.59215,0 19.16923,8.57708 19.16923,19.16923 0,10.59214 -8.57708,19.16922 -19.16923,19.16922 -10.59214,0 -19.16923,-8.57708 -19.16923,-19.16922 0,-10.59215 8.57709,-19.16923 19.16923,-19.16923 z"
         id="path4103"
         inkscape:connector-curvature="0" />
      <path
         style="font-size:medium;font-style:normal;font-variant:normal;font-weight:normal;font-stretch:normal;text-indent:0;text-align:start;text-decoration:none;line-height:normal;letter-spacing:normal;word-spacing:normal;text-transform:none;direction:ltr;block-progression:tb;writing-mode:lr-tb;text-anchor:start;baseline-shift:baseline;opacity:0.2;color:#000000;fill:#000000;fill-opacity:1;stroke:none;stroke-width:2.38245249;marker:none;visibility:visible;display:inline;overflow:visible;enable-background:accumulate;font-family:Sans;-inkscape-font-specification:Sans"
         d="m 320,158.02058 c -8.26779,0 -14.97931,6.71153 -14.97931,14.97932 0,8.26778 6.71152,14.97931 14.97931,14.97931 8.26779,0 14.97931,-6.71153 14.97931,-14.97931 0,-8.26779 -6.71152,-14.97932 -14.97931,-14.97932 z m 0,0.99688 c 7.72735,0 13.98244,6.25509 13.98244,13.98244 0,7.72734 -6.25509,13.98244 -13.98244,13.98244 -7.72735,0 -13.98244,-6.2551 -13.98244,-13.98244 0,-7.72735 6.25509,-13.98244 13.98244,-13.98244 z"
         id="path4105"
         inkscape:connector-curvature="0" />
      <path
         id="path4107"
         d="m 320,163.92244 c -1.90987,0 -3.45812,1.54825 -3.45812,3.45812 l 2.59359,0 c 0.23873,0 0.43226,0.19353 0.43226,0.43226 0,0.23874 -0.19353,0.43227 -0.43226,0.43227 l -2.59359,0 0,0.86453 2.59359,0 c 0.23873,0 0.43226,0.19353 0.43226,0.43226 0,0.23874 -0.19353,0.43227 -0.43226,0.43227 l -2.59359,0 0,0.86453 2.59359,0 c 0.23873,0 0.43226,0.19353 0.43226,0.43226 0,0.23874 -0.19353,0.43227 -0.43226,0.43227 l -2.59359,0 0,0.86453 2.59359,0 c 0.23873,0 0.43226,0.19353 0.43226,0.43226 0,0.23874 -0.19353,0.43227 -0.43226,0.43227 l -2.59359,0 0,0.86453 c 0,1.90986 1.54825,3.45812 3.45812,3.45812 1.90987,0 3.45812,-1.54826 3.45812,-3.45812 l 0,-0.86453 -2.59359,0 c -0.23874,0 -0.43227,-0.19353 -0.43227,-0.43227 0,-0.23873 0.19353,-0.43226 0.43227,-0.43226 l 2.59359,0 0,-0.86453 -2.59359,0 c -0.23874,0 -0.43227,-0.19353 -0.43227,-0.43227 0,-0.23873 0.19353,-0.43226 0.43227,-0.43226 l 2.59359,0 0,-0.86453 -2.59359,0 c -0.23874,0 -0.43227,-0.19353 -0.43227,-0.43227 0,-0.23873 0.19353,-0.43226 0.43227,-0.43226 l 2.59359,0 0,-0.86453 -2.59359,0 c -0.23874,0 -0.43227,-0.19353 -0.43227,-0.43227 0,-0.23873 0.19353,-0.43226 0.43227,-0.43226 l 2.59359,0 c 0,-1.90987 -1.54825,-3.45812 -3.45812,-3.45812 z m -4.97105,9.72596 c -0.35809,0 -0.6484,0.2903 -0.6484,0.6484 0,2.81025 2.06081,5.13697 4.75492,5.5519 l 0,1.36434 -0.86453,0 c -0.23874,0 -0.43227,0.19352 -0.43227,0.43226 0,0.23874 0.19353,0.43227 0.43227,0.43227 l 3.45812,0 c 0.23873,0 0.43226,-0.19353 0.43226,-0.43227 0,-0.23874 -0.19353,-0.43226 -0.43226,-0.43226 l -0.86453,0 0,-1.36434 c 2.69411,-0.41493 4.75491,-2.74165 4.75491,-5.5519 0,-0.3581 -0.2903,-0.6484 -0.64839,-0.6484 -0.3581,0 -0.6484,0.2903 -0.6484,0.6484 0,2.38733 -1.93532,4.32265 -4.32265,4.32265 -0.14921,0 -0.30046,-0.0123 -0.44577,-0.027 -0.14532,-0.0147 -0.27806,-0.0389 -0.41876,-0.0675 -1.96976,-0.40305 -3.45812,-2.13918 -3.45812,-4.22809 0,-0.3581 -0.2903,-0.6484 -0.6484,-0.6484 z"
         style="opacity:0.2;fill:#000000;fill-opacity:1;fill-rule:nonzero;stroke:none;display:inline;enable-background:new"
         inkscape:connector-curvature="0" />
      <path
         style="font-size:medium;font-style:normal;font-variant:normal;font-weight:normal;font-stretch:normal;text-indent:0;text-align:start;text-decoration:none;line-height:normal;letter-spacing:normal;word-spacing:normal;text-transform:none;direction:ltr;block-progression:tb;writing-mode:lr-tb;text-anchor:start;baseline-shift:baseline;opacity:0.2;color:#000000;fill:#000000;fill-opacity:1;stroke:none;stroke-width:2.21106625;marker:none;visibility:visible;display:inline;overflow:visible;enable-background:accumulate;font-family:Sans;-inkscape-font-specification:Sans"
         d="m 312,228.902 c -8.8877,0 -16.098,7.2103 -16.098,16.098 0,8.8877 7.2103,16.09801 16.098,16.09801 8.8877,0 16.098,-7.21031 16.098,-16.09801 0,-8.8877 -7.2103,-16.098 -16.098,-16.098 z m 0,0.98934 c 8.34726,0 15.10866,6.7614 15.10866,15.10866 0,8.34726 -6.7614,15.10866 -15.10866,15.10866 -8.34726,0 -15.10866,-6.7614 -15.10866,-15.10866 0,-8.34726 6.7614,-15.10866 15.10866,-15.10866 z"
         id="path4111"
         inkscape:connector-curvature="0" />
      <path
         style="font-size:medium;font-style:normal;font-variant:normal;font-weight:normal;font-stretch:normal;text-indent:0;text-align:start;text-decoration:none;line-height:normal;letter-spacing:normal;word-spacing:normal;text-transform:none;direction:ltr;block-progression:tb;writing-mode:lr-tb;text-anchor:start;baseline-shift:baseline;opacity:0.2;color:#000000;fill:#000000;fill-opacity:1;stroke:none;stroke-width:3.00308967;marker:none;visibility:visible;display:inline;overflow:visible;enable-background:accumulate;font-family:Sans;-inkscape-font-specification:Sans"
         d="m 312,233.01227 c -6.61496,0 -11.98765,5.37269 -11.98765,11.98765 0,6.61496 5.37269,11.98766 11.98765,11.98766 6.61496,0 11.98765,-5.3727 11.98765,-11.98766 0,-6.61496 -5.37269,-11.98765 -11.98765,-11.98765 z m 0,0.99897 c 6.07452,0 10.98868,4.91416 10.98868,10.98868 0,6.07452 -4.91416,10.98868 -10.98868,10.98868 -6.07452,0 -10.98868,-4.91416 -10.98868,-10.98868 0,-6.07452 4.91416,-10.98868 10.98868,-10.98868 z"
         id="path4113"
         inkscape:connector-curvature="0" />
      <path
         inkscape:connector-curvature="0"
         style="opacity:0.2;fill:#000000;fill-opacity:1;fill-rule:nonzero;stroke:none;display:inline;enable-background:new"
         d="m 312,237.79846 c -1.51516,0 -2.74345,1.22828 -2.74345,2.74345 l 2.05759,0 c 0.18939,0 0.34293,0.15353 0.34293,0.34293 0,0.18939 -0.15354,0.34293 -0.34293,0.34293 l -2.05759,0 0,0.68586 2.05759,0 c 0.18939,0 0.34293,0.15353 0.34293,0.34293 0,0.18939 -0.15354,0.34293 -0.34293,0.34293 l -2.05759,0 0,0.68586 2.05759,0 c 0.18939,0 0.34293,0.15354 0.34293,0.34293 0,0.1894 -0.15354,0.34293 -0.34293,0.34293 l -2.05759,0 0,0.68586 2.05759,0 c 0.18939,0 0.34293,0.15354 0.34293,0.34293 0,0.1894 -0.15354,0.34293 -0.34293,0.34293 l -2.05759,0 0,0.68586 c 0,1.51516 1.22829,2.74345 2.74345,2.74345 1.51516,0 2.74344,-1.22829 2.74344,-2.74345 l 0,-0.68586 -2.05758,0 c -0.1894,0 -0.34293,-0.15353 -0.34293,-0.34293 0,-0.18939 0.15353,-0.34293 0.34293,-0.34293 l 2.05758,0 0,-0.68586 -2.05758,0 c -0.1894,0 -0.34293,-0.15353 -0.34293,-0.34293 0,-0.18939 0.15353,-0.34293 0.34293,-0.34293 l 2.05758,0 0,-0.68586 -2.05758,0 c -0.1894,0 -0.34293,-0.15354 -0.34293,-0.34293 0,-0.1894 0.15353,-0.34293 0.34293,-0.34293 l 2.05758,0 0,-0.68586 -2.05758,0 c -0.1894,0 -0.34293,-0.15354 -0.34293,-0.34293 0,-0.1894 0.15353,-0.34293 0.34293,-0.34293 l 2.05758,0 c 0,-1.51517 -1.22828,-2.74345 -2.74344,-2.74345 z m -3.9437,7.71594 c -0.28409,0 -0.5144,0.2303 -0.5144,0.51439 0,2.22947 1.63491,4.07534 3.77224,4.40451 l 0,1.08238 -0.68586,0 c -0.1894,0 -0.34293,0.15353 -0.34293,0.34293 0,0.1894 0.15353,0.34293 0.34293,0.34293 l 2.74344,0 c 0.18939,0 0.34293,-0.15353 0.34293,-0.34293 0,-0.1894 -0.15354,-0.34293 -0.34293,-0.34293 l -0.68586,0 0,-1.08238 c 2.13733,-0.32917 3.77223,-2.17504 3.77223,-4.40451 0,-0.28409 -0.2303,-0.51439 -0.51439,-0.51439 -0.28409,0 -0.5144,0.2303 -0.5144,0.51439 0,1.89396 -1.53535,3.42931 -3.4293,3.42931 -0.11837,0 -0.23837,-0.01 -0.35365,-0.0214 -0.11528,-0.0117 -0.22059,-0.0308 -0.33221,-0.0536 -1.56268,-0.31975 -2.74345,-1.69708 -2.74345,-3.35429 0,-0.28409 -0.2303,-0.51439 -0.51439,-0.51439 z"
         id="path4115" />
      <path
         style="font-size:medium;font-style:normal;font-variant:normal;font-weight:normal;font-stretch:normal;text-indent:0;text-align:start;text-decoration:none;line-height:normal;letter-spacing:normal;word-spacing:normal;text-transform:none;direction:ltr;block-progression:tb;writing-mode:lr-tb;text-anchor:start;baseline-shift:baseline;opacity:0.2;color:#000000;fill:#000000;fill-opacity:1;stroke:none;stroke-width:3.1892972;marker:none;visibility:visible;display:inline;overflow:visible;enable-background:accumulate;font-family:Sans;-inkscape-font-specification:Sans"
         d="m 432,57.682841 c -6.24452,0 -11.31715,5.072627 -11.31715,11.317149 0,6.244522 5.07263,11.317149 11.31715,11.317149 6.24452,0 11.31715,-5.072627 11.31715,-11.317149 0,-6.244522 -5.07263,-11.317149 -11.31715,-11.317149 z m 0,0.999436 c 5.70408,0 10.31771,4.613631 10.31771,10.317713 0,5.704082 -4.61363,10.317712 -10.31771,10.317712 -5.70408,0 -10.31771,-4.61363 -10.31771,-10.317712 0,-5.704082 4.61363,-10.317713 10.31771,-10.317713 z"
         id="path4119"
         inkscape:connector-curvature="0" />
      <path
         style="font-size:medium;font-style:normal;font-variant:normal;font-weight:normal;font-stretch:normal;text-indent:0;text-align:start;text-decoration:none;line-height:normal;letter-spacing:normal;word-spacing:normal;text-transform:none;direction:ltr;block-progression:tb;writing-mode:lr-tb;text-anchor:start;baseline-shift:baseline;opacity:0.2;color:#000000;fill:#000000;fill-opacity:1;stroke:none;stroke-width:4.3317318;marker:none;visibility:visible;display:inline;overflow:visible;enable-background:accumulate;font-family:Sans;-inkscape-font-specification:Sans"
         d="m 432,60.537671 c -4.66888,0 -8.46226,3.79338 -8.46226,8.462262 0,4.668882 3.79338,8.462262 8.46226,8.462262 4.66889,0 8.46227,-3.79338 8.46227,-8.462262 0,-4.668882 -3.79338,-8.462262 -8.46227,-8.462262 z m 0,0.99556 c 4.12844,0 7.4667,3.33826 7.4667,7.466702 0,4.128442 -3.33826,7.466702 -7.4667,7.466702 -4.12844,0 -7.4667,-3.33826 -7.4667,-7.466702 0,-4.128442 3.33826,-7.466702 7.4667,-7.466702 z"
         id="path4121"
         inkscape:connector-curvature="0" />
      <path
         id="path4123"
         d="m 432,63.99999 c -1.05197,0 -1.90476,0.85279 -1.90476,1.904762 l 1.42857,0 c 0.1315,0 0.2381,0.106599 0.2381,0.238095 0,0.131497 -0.1066,0.238096 -0.2381,0.238096 l -1.42857,0 0,0.47619 1.42857,0 c 0.1315,0 0.2381,0.1066 0.2381,0.238095 0,0.131498 -0.1066,0.238095 -0.2381,0.238095 l -1.42857,0 0,0.476191 1.42857,0 c 0.1315,0 0.2381,0.1066 0.2381,0.238095 0,0.131498 -0.1066,0.238095 -0.2381,0.238095 l -1.42857,0 0,0.476191 1.42857,0 c 0.1315,0 0.2381,0.1066 0.2381,0.238095 0,0.131498 -0.1066,0.238095 -0.2381,0.238095 l -1.42857,0 0,0.476191 c 0,1.051971 0.85279,1.904762 1.90476,1.904762 1.05197,0 1.90476,-0.852791 1.90476,-1.904762 l 0,-0.476191 -1.42857,0 c -0.1315,0 -0.23809,-0.106597 -0.23809,-0.238095 0,-0.131495 0.10659,-0.238095 0.23809,-0.238095 l 1.42857,0 0,-0.476191 -1.42857,0 c -0.1315,0 -0.23809,-0.106597 -0.23809,-0.238095 0,-0.131495 0.10659,-0.238095 0.23809,-0.238095 l 1.42857,0 0,-0.476191 -1.42857,0 c -0.1315,0 -0.23809,-0.106597 -0.23809,-0.238095 0,-0.131495 0.10659,-0.238095 0.23809,-0.238095 l 1.42857,0 0,-0.47619 -1.42857,0 c -0.1315,0 -0.23809,-0.106598 -0.23809,-0.238096 0,-0.131495 0.10659,-0.238095 0.23809,-0.238095 l 1.42857,0 c 0,-1.051972 -0.85279,-1.904762 -1.90476,-1.904762 z m -2.73809,5.357143 c -0.19725,0 -0.35715,0.1599 -0.35715,0.357143 0,1.547909 1.13511,2.829488 2.61905,3.058035 l 0,0.751488 -0.47619,0 c -0.1315,0 -0.2381,0.106596 -0.2381,0.238095 0,0.1315 0.1066,0.238096 0.2381,0.238096 l 1.90476,0 c 0.1315,0 0.2381,-0.106596 0.2381,-0.238096 0,-0.131499 -0.1066,-0.238095 -0.2381,-0.238095 l -0.47619,0 0,-0.751488 c 1.48394,-0.228547 2.61905,-1.510126 2.61905,-3.058035 0,-0.197243 -0.1599,-0.357143 -0.35714,-0.357143 -0.19725,0 -0.35715,0.1599 -0.35715,0.357143 0,1.314964 -1.06598,2.380952 -2.38095,2.380952 -0.0822,0 -0.16549,-0.0068 -0.24554,-0.01488 -0.08,-0.0081 -0.15315,-0.02142 -0.23065,-0.0372 -1.08496,-0.222 -1.90476,-1.178276 -1.90476,-2.328869 0,-0.197243 -0.1599,-0.357143 -0.35714,-0.357143 z"
         style="opacity:0.2;fill:#000000;fill-opacity:1;fill-rule:nonzero;stroke:none;display:inline;enable-background:new"
         inkscape:connector-curvature="0" />
      <path
         id="path4125"
         d="m 424,144 c -1.05197,0 -1.90476,0.85279 -1.90476,1.90476 l 1.42857,0 c 0.1315,0 0.2381,0.1066 0.2381,0.2381 0,0.13149 -0.1066,0.23809 -0.2381,0.23809 l -1.42857,0 0,0.47619 1.42857,0 c 0.1315,0 0.2381,0.1066 0.2381,0.2381 0,0.1315 -0.1066,0.23809 -0.2381,0.23809 l -1.42857,0 0,0.47619 1.42857,0 c 0.1315,0 0.2381,0.1066 0.2381,0.2381 0,0.1315 -0.1066,0.23809 -0.2381,0.23809 l -1.42857,0 0,0.47619 1.42857,0 c 0.1315,0 0.2381,0.1066 0.2381,0.2381 0,0.1315 -0.1066,0.23809 -0.2381,0.23809 l -1.42857,0 0,0.4762 c 0,1.05197 0.85279,1.90476 1.90476,1.90476 1.05197,0 1.90476,-0.85279 1.90476,-1.90476 l 0,-0.4762 -1.42857,0 c -0.1315,0 -0.23809,-0.10659 -0.23809,-0.23809 0,-0.1315 0.10659,-0.2381 0.23809,-0.2381 l 1.42857,0 0,-0.47619 -1.42857,0 c -0.1315,0 -0.23809,-0.10659 -0.23809,-0.23809 0,-0.1315 0.10659,-0.2381 0.23809,-0.2381 l 1.42857,0 0,-0.47619 -1.42857,0 c -0.1315,0 -0.23809,-0.10659 -0.23809,-0.23809 0,-0.1315 0.10659,-0.2381 0.23809,-0.2381 l 1.42857,0 0,-0.47619 -1.42857,0 c -0.1315,0 -0.23809,-0.1066 -0.23809,-0.23809 0,-0.1315 0.10659,-0.2381 0.23809,-0.2381 l 1.42857,0 C 425.90476,144.85279 425.05197,144 424,144 z m -2.73809,5.35714 c -0.19725,0 -0.35715,0.1599 -0.35715,0.35715 0,1.5479 1.13511,2.82948 2.61905,3.05803 l 0,0.75149 -0.47619,0 c -0.1315,0 -0.2381,0.10659 -0.2381,0.23809 0,0.1315 0.1066,0.2381 0.2381,0.2381 l 1.90476,0 c 0.1315,0 0.2381,-0.1066 0.2381,-0.2381 0,-0.1315 -0.1066,-0.23809 -0.2381,-0.23809 l -0.47619,0 0,-0.75149 c 1.48394,-0.22855 2.61905,-1.51013 2.61905,-3.05803 0,-0.19725 -0.1599,-0.35715 -0.35714,-0.35715 -0.19725,0 -0.35715,0.1599 -0.35715,0.35715 0,1.31496 -1.06598,2.38095 -2.38095,2.38095 -0.0822,0 -0.16549,-0.007 -0.24554,-0.0149 -0.08,-0.008 -0.15315,-0.0214 -0.23065,-0.0372 -1.08496,-0.222 -1.90476,-1.17827 -1.90476,-2.32886 0,-0.19725 -0.1599,-0.35715 -0.35714,-0.35715 z"
         style="opacity:0.2;fill:#000000;fill-opacity:1;fill-rule:nonzero;stroke:none;display:inline;enable-background:new"
         inkscape:connector-curvature="0" />
      <path
         inkscape:connector-curvature="0"
         style="opacity:0.2;fill:#000000;fill-opacity:1;fill-rule:nonzero;stroke:none;display:inline;enable-background:new"
         d="m 427.99999,105.99999 c -1.47275,0 -2.66666,1.1939 -2.66666,2.66667 l 2,0 c 0.1841,0 0.33334,0.14924 0.33334,0.33334 0,0.18408 -0.14924,0.33332 -0.33334,0.33332 l -2,0 0,0.66666 2,0 c 0.1841,0 0.33334,0.14924 0.33334,0.33334 0,0.1841 -0.14924,0.33333 -0.33334,0.33333 l -2,0 0,0.66667 2,0 c 0.1841,0 0.33334,0.14924 0.33334,0.33334 0,0.1841 -0.14924,0.33333 -0.33334,0.33333 l -2,0 0,0.66666 2,0 c 0.1841,0 0.33334,0.14924 0.33334,0.33334 0,0.1841 -0.14924,0.33332 -0.33334,0.33332 l -2,0 0,0.66668 c 0,1.47277 1.19391,2.66667 2.66666,2.66667 1.47277,0 2.66667,-1.1939 2.66667,-2.66667 l 0,-0.66668 -2,0 c -0.1841,0 -0.33333,-0.14922 -0.33333,-0.33332 0,-0.1841 0.14923,-0.33334 0.33333,-0.33334 l 2,0 0,-0.66666 -2,0 c -0.1841,0 -0.33333,-0.14923 -0.33333,-0.33333 0,-0.1841 0.14923,-0.33334 0.33333,-0.33334 l 2,0 0,-0.66667 -2,0 c -0.1841,0 -0.33333,-0.14923 -0.33333,-0.33333 0,-0.1841 0.14923,-0.33334 0.33333,-0.33334 l 2,0 0,-0.66666 -2,0 c -0.1841,0 -0.33333,-0.14924 -0.33333,-0.33332 0,-0.1841 0.14923,-0.33334 0.33333,-0.33334 l 2,0 c 0,-1.47277 -1.1939,-2.66667 -2.66667,-2.66667 z m -3.83332,7.49999 c -0.27615,0 -0.50001,0.22386 -0.50001,0.50001 0,2.16706 1.58916,3.96128 3.66667,4.28125 l 0,1.05209 -0.66666,0 c -0.1841,0 -0.33334,0.14922 -0.33334,0.33332 0,0.1841 0.14924,0.33334 0.33334,0.33334 l 2.66666,0 c 0.1841,0 0.33334,-0.14924 0.33334,-0.33334 0,-0.1841 -0.14924,-0.33332 -0.33334,-0.33332 l -0.66667,0 0,-1.05209 c 2.07752,-0.31997 3.66667,-2.11419 3.66667,-4.28125 0,-0.27615 -0.22386,-0.50001 -0.5,-0.50001 -0.27615,0 -0.50001,0.22386 -0.50001,0.50001 0,1.84095 -1.49236,3.33333 -3.33332,3.33333 -0.11508,0 -0.23168,-0.01 -0.34375,-0.0208 -0.11201,-0.0112 -0.21441,-0.0299 -0.32291,-0.0521 -1.51895,-0.3108 -2.66667,-1.64957 -2.66667,-3.26041 0,-0.27615 -0.22386,-0.50001 -0.5,-0.50001 z"
         id="path4127" />
      <g
         style="display:inline;enable-background:new"
         id="g3852"
         transform="matrix(1.7391304,0,0,1.7391304,-471.65216,15.130437)">
        <path
           transform="matrix(1.3188406,0,0,1.3188406,267.61594,-11.978262)"
           d="M 100,70.5 C 100,89.553824 84.553824,105 65.5,105 46.446176,105 31,89.553824 31,70.5 31,51.446176 46.446176,36 65.5,36 84.553824,36 100,51.446176 100,70.5 z"
           sodipodi:ry="34.5"
           sodipodi:rx="34.5"
           sodipodi:cy="70.5"
           sodipodi:cx="65.5"
           id="path9391"
           style="fill:none;stroke:#ffffff;stroke-width:0.87197804;stroke-linecap:round;stroke-linejoin:round;stroke-miterlimit:4;stroke-opacity:1;stroke-dasharray:none;stroke-dashoffset:0"
           sodipodi:type="arc" />
        <path
           sodipodi:type="arc"
           style="fill:none;stroke:#ffffff;stroke-width:1.18432844;stroke-linecap:round;stroke-linejoin:round;stroke-miterlimit:4;stroke-opacity:1;stroke-dasharray:none;stroke-dashoffset:0"
           id="path9393"
           sodipodi:cx="65.5"
           sodipodi:cy="70.5"
           sodipodi:rx="34.5"
           sodipodi:ry="34.5"
           d="M 100,70.5 C 100,89.553824 84.553824,105 65.5,105 46.446176,105 31,89.553824 31,70.5 31,51.446176 46.446176,36 65.5,36 84.553824,36 100,51.446176 100,70.5 z"
           transform="matrix(0.97101449,0,0,0.97101449,290.39855,12.543238)" />
        <path
           id="path14921"
           d="m 354,59.999998 c -4.41828,0 -8,3.58172 -8,8 l 6,0 c 0.55228,0 1,0.447715 1,1 0,0.552285 -0.44772,1 -1,1 l -6,0 0,2 6,0 c 0.55228,0 1,0.44772 1,1 0,0.55229 -0.44772,1 -1,1 l -6,0 0,2 6,0 c 0.55228,0 1,0.44772 1,1 0,0.55229 -0.44772,1 -1,1 l -6,0 0,2 6,0 c 0.55228,0 1,0.44772 1,1 0,0.55229 -0.44772,1 -1,1 l -6,0 0,2 c 0,4.41828 3.58172,8 8,8 4.41828,0 8,-3.58172 8,-8 l 0,-2 -6,0 c -0.55229,0 -1,-0.44771 -1,-1 0,-0.55228 0.44771,-1 1,-1 l 6,0 0,-2 -6,0 c -0.55229,0 -1,-0.44771 -1,-1 0,-0.55228 0.44771,-1 1,-1 l 6,0 0,-2 -6,0 c -0.55229,0 -1,-0.44771 -1,-1 0,-0.55228 0.44771,-1 1,-1 l 6,0 0,-2 -6,0 c -0.55229,0 -1,-0.44771 -1,-1 0,-0.55228 0.44771,-1 1,-1 l 6,0 c 0,-4.41828 -3.58172,-8 -8,-8 z m -11.5,22.5 c -0.82842,0 -1.5,0.67158 -1.5,1.5 0,6.50122 4.76746,11.88385 11,12.84375 l 0,3.15625 -2,0 c -0.55229,0 -1,0.447702 -1,1.000002 0,0.5523 0.44771,1 1,1 l 8,0 c 0.55228,0 1,-0.4477 1,-1 0,-0.5523 -0.44772,-1.000002 -1,-1.000002 l -2,0 0,-3.15625 c 6.23254,-0.9599 11,-6.34253 11,-12.84375 0,-0.82842 -0.67158,-1.5 -1.5,-1.5 -0.82842,0 -1.5,0.67158 -1.5,1.5 0,5.52285 -4.47715,10 -10,10 -0.34518,0 -0.69508,-0.0285 -1.03125,-0.0625 -0.33617,-0.034 -0.64326,-0.08995 -0.96875,-0.15625 -4.55683,-0.9324 -8,-4.94876 -8,-9.78125 0,-0.82842 -0.67158,-1.5 -1.5,-1.5 z"
           style="fill:#ffffff;fill-opacity:1;fill-rule:nonzero;stroke:none"
           inkscape:connector-curvature="0" />
      </g>
      <g
         style="display:inline;enable-background:new"
         transform="matrix(0.65111231,0,0,0.65111231,105.50623,23.259903)"
         id="g3857">
        <path
           sodipodi:type="arc"
           style="fill:none;stroke:#ffffff;stroke-width:1.16453302;stroke-linecap:round;stroke-linejoin:round;stroke-miterlimit:4;stroke-opacity:1;stroke-dasharray:none;stroke-dashoffset:0"
           id="path3859"
           sodipodi:cx="65.5"
           sodipodi:cy="70.5"
           sodipodi:rx="34.5"
           sodipodi:ry="34.5"
           d="M 100,70.5 C 100,89.553824 84.553824,105 65.5,105 46.446176,105 31,89.553824 31,70.5 31,51.446176 46.446176,36 65.5,36 84.553824,36 100,51.446176 100,70.5 z"
           transform="matrix(1.3188406,0,0,1.3188406,267.61594,-11.978262)" />
        <path
           transform="matrix(0.97101449,0,0,0.97101449,290.39855,12.543238)"
           d="M 100,70.5 C 100,89.553824 84.553824,105 65.5,105 46.446176,105 31,89.553824 31,70.5 31,51.446176 46.446176,36 65.5,36 84.553824,36 100,51.446176 100,70.5 z"
           sodipodi:ry="34.5"
           sodipodi:rx="34.5"
           sodipodi:cy="70.5"
           sodipodi:cx="65.5"
           id="path3861"
           style="fill:none;stroke:#ffffff;stroke-width:1.58167911;stroke-linecap:round;stroke-linejoin:round;stroke-miterlimit:4;stroke-opacity:1;stroke-dasharray:none;stroke-dashoffset:0"
           sodipodi:type="arc" />
        <path
           inkscape:connector-curvature="0"
           style="fill:#ffffff;fill-opacity:1;fill-rule:nonzero;stroke:none"
           d="m 354,59.999998 c -4.41828,0 -8,3.58172 -8,8 l 6,0 c 0.55228,0 1,0.447715 1,1 0,0.552285 -0.44772,1 -1,1 l -6,0 0,2 6,0 c 0.55228,0 1,0.44772 1,1 0,0.55229 -0.44772,1 -1,1 l -6,0 0,2 6,0 c 0.55228,0 1,0.44772 1,1 0,0.55229 -0.44772,1 -1,1 l -6,0 0,2 6,0 c 0.55228,0 1,0.44772 1,1 0,0.55229 -0.44772,1 -1,1 l -6,0 0,2 c 0,4.41828 3.58172,8 8,8 4.41828,0 8,-3.58172 8,-8 l 0,-2 -6,0 c -0.55229,0 -1,-0.44771 -1,-1 0,-0.55228 0.44771,-1 1,-1 l 6,0 0,-2 -6,0 c -0.55229,0 -1,-0.44771 -1,-1 0,-0.55228 0.44771,-1 1,-1 l 6,0 0,-2 -6,0 c -0.55229,0 -1,-0.44771 -1,-1 0,-0.55228 0.44771,-1 1,-1 l 6,0 0,-2 -6,0 c -0.55229,0 -1,-0.44771 -1,-1 0,-0.55228 0.44771,-1 1,-1 l 6,0 c 0,-4.41828 -3.58172,-8 -8,-8 z m -11.5,22.5 c -0.82842,0 -1.5,0.67158 -1.5,1.5 0,6.50122 4.76746,11.88385 11,12.84375 l 0,3.15625 -2,0 c -0.55229,0 -1,0.447702 -1,1.000002 0,0.5523 0.44771,1 1,1 l 8,0 c 0.55228,0 1,-0.4477 1,-1 0,-0.5523 -0.44772,-1.000002 -1,-1.000002 l -2,0 0,-3.15625 c 6.23254,-0.9599 11,-6.34253 11,-12.84375 0,-0.82842 -0.67158,-1.5 -1.5,-1.5 -0.82842,0 -1.5,0.67158 -1.5,1.5 0,5.52285 -4.47715,10 -10,10 -0.34518,0 -0.69508,-0.0285 -1.03125,-0.0625 -0.33617,-0.034 -0.64326,-0.08995 -0.96875,-0.15625 -4.55683,-0.9324 -8,-4.94876 -8,-9.78125 0,-0.82842 -0.67158,-1.5 -1.5,-1.5 z"
           id="path3863" />
      </g>
      <g
         style="display:inline;enable-background:new"
         id="g3865"
         transform="matrix(0.43226497,0,0,0.43226497,166.9782,136.98654)">
        <path
           transform="matrix(1.3188406,0,0,1.3188406,267.61594,-11.978262)"
           d="M 100,70.5 C 100,89.553824 84.553824,105 65.5,105 46.446176,105 31,89.553824 31,70.5 31,51.446176 46.446176,36 65.5,36 84.553824,36 100,51.446176 100,70.5 z"
           sodipodi:ry="34.5"
           sodipodi:rx="34.5"
           sodipodi:cy="70.5"
           sodipodi:cx="65.5"
           id="path3867"
           style="fill:none;stroke:#ffffff;stroke-width:1.75411344;stroke-linecap:round;stroke-linejoin:round;stroke-miterlimit:4;stroke-opacity:1;stroke-dasharray:none;stroke-dashoffset:0"
           sodipodi:type="arc" />
        <path
           sodipodi:type="arc"
           style="fill:none;stroke:#ffffff;stroke-width:2.38245249;stroke-linecap:round;stroke-linejoin:round;stroke-miterlimit:4;stroke-opacity:1;stroke-dasharray:none;stroke-dashoffset:0"
           id="path3869"
           sodipodi:cx="65.5"
           sodipodi:cy="70.5"
           sodipodi:rx="34.5"
           sodipodi:ry="34.5"
           d="M 100,70.5 C 100,89.553824 84.553824,105 65.5,105 46.446176,105 31,89.553824 31,70.5 31,51.446176 46.446176,36 65.5,36 84.553824,36 100,51.446176 100,70.5 z"
           transform="matrix(0.97101449,0,0,0.97101449,290.39855,12.543238)" />
        <path
           id="path3871"
           d="m 354,59.999998 c -4.41828,0 -8,3.58172 -8,8 l 6,0 c 0.55228,0 1,0.447715 1,1 0,0.552285 -0.44772,1 -1,1 l -6,0 0,2 6,0 c 0.55228,0 1,0.44772 1,1 0,0.55229 -0.44772,1 -1,1 l -6,0 0,2 6,0 c 0.55228,0 1,0.44772 1,1 0,0.55229 -0.44772,1 -1,1 l -6,0 0,2 6,0 c 0.55228,0 1,0.44772 1,1 0,0.55229 -0.44772,1 -1,1 l -6,0 0,2 c 0,4.41828 3.58172,8 8,8 4.41828,0 8,-3.58172 8,-8 l 0,-2 -6,0 c -0.55229,0 -1,-0.44771 -1,-1 0,-0.55228 0.44771,-1 1,-1 l 6,0 0,-2 -6,0 c -0.55229,0 -1,-0.44771 -1,-1 0,-0.55228 0.44771,-1 1,-1 l 6,0 0,-2 -6,0 c -0.55229,0 -1,-0.44771 -1,-1 0,-0.55228 0.44771,-1 1,-1 l 6,0 0,-2 -6,0 c -0.55229,0 -1,-0.44771 -1,-1 0,-0.55228 0.44771,-1 1,-1 l 6,0 c 0,-4.41828 -3.58172,-8 -8,-8 z m -11.5,22.5 c -0.82842,0 -1.5,0.67158 -1.5,1.5 0,6.50122 4.76746,11.88385 11,12.84375 l 0,3.15625 -2,0 c -0.55229,0 -1,0.447702 -1,1.000002 0,0.5523 0.44771,1 1,1 l 8,0 c 0.55228,0 1,-0.4477 1,-1 0,-0.5523 -0.44772,-1.000002 -1,-1.000002 l -2,0 0,-3.15625 c 6.23254,-0.9599 11,-6.34253 11,-12.84375 0,-0.82842 -0.67158,-1.5 -1.5,-1.5 -0.82842,0 -1.5,0.67158 -1.5,1.5 0,5.52285 -4.47715,10 -10,10 -0.34518,0 -0.69508,-0.0285 -1.03125,-0.0625 -0.33617,-0.034 -0.64326,-0.08995 -0.96875,-0.15625 -4.55683,-0.9324 -8,-4.94876 -8,-9.78125 0,-0.82842 -0.67158,-1.5 -1.5,-1.5 z"
           style="fill:#ffffff;fill-opacity:1;fill-rule:nonzero;stroke:none"
           inkscape:connector-curvature="0" />
      </g>
      <g
         style="display:inline;enable-background:new"
         transform="matrix(0.34293039,0,0,0.34293039,190.60264,216.22265)"
         id="g3873">
        <path
           sodipodi:type="arc"
           style="fill:none;stroke:#ffffff;stroke-width:2.21106625;stroke-linecap:round;stroke-linejoin:round;stroke-miterlimit:4;stroke-opacity:1;stroke-dasharray:none;stroke-dashoffset:0"
           id="path3875"
           sodipodi:cx="65.5"
           sodipodi:cy="70.5"
           sodipodi:rx="34.5"
           sodipodi:ry="34.5"
           d="M 100,70.5 C 100,89.553824 84.553824,105 65.5,105 46.446176,105 31,89.553824 31,70.5 31,51.446176 46.446176,36 65.5,36 84.553824,36 100,51.446176 100,70.5 z"
           transform="matrix(1.3188406,0,0,1.3188406,267.61594,-11.978262)" />
        <path
           transform="matrix(0.97101449,0,0,0.97101449,290.39855,12.543238)"
           d="M 100,70.5 C 100,89.553824 84.553824,105 65.5,105 46.446176,105 31,89.553824 31,70.5 31,51.446176 46.446176,36 65.5,36 84.553824,36 100,51.446176 100,70.5 z"
           sodipodi:ry="34.5"
           sodipodi:rx="34.5"
           sodipodi:cy="70.5"
           sodipodi:cx="65.5"
           id="path3877"
           style="fill:none;stroke:#ffffff;stroke-width:3.00308967;stroke-linecap:round;stroke-linejoin:round;stroke-miterlimit:4;stroke-opacity:1;stroke-dasharray:none;stroke-dashoffset:0"
           sodipodi:type="arc" />
        <path
           inkscape:connector-curvature="0"
           style="fill:#ffffff;fill-opacity:1;fill-rule:nonzero;stroke:none"
           d="m 354,59.999998 c -4.41828,0 -8,3.58172 -8,8 l 6,0 c 0.55228,0 1,0.447715 1,1 0,0.552285 -0.44772,1 -1,1 l -6,0 0,2 6,0 c 0.55228,0 1,0.44772 1,1 0,0.55229 -0.44772,1 -1,1 l -6,0 0,2 6,0 c 0.55228,0 1,0.44772 1,1 0,0.55229 -0.44772,1 -1,1 l -6,0 0,2 6,0 c 0.55228,0 1,0.44772 1,1 0,0.55229 -0.44772,1 -1,1 l -6,0 0,2 c 0,4.41828 3.58172,8 8,8 4.41828,0 8,-3.58172 8,-8 l 0,-2 -6,0 c -0.55229,0 -1,-0.44771 -1,-1 0,-0.55228 0.44771,-1 1,-1 l 6,0 0,-2 -6,0 c -0.55229,0 -1,-0.44771 -1,-1 0,-0.55228 0.44771,-1 1,-1 l 6,0 0,-2 -6,0 c -0.55229,0 -1,-0.44771 -1,-1 0,-0.55228 0.44771,-1 1,-1 l 6,0 0,-2 -6,0 c -0.55229,0 -1,-0.44771 -1,-1 0,-0.55228 0.44771,-1 1,-1 l 6,0 c 0,-4.41828 -3.58172,-8 -8,-8 z m -11.5,22.5 c -0.82842,0 -1.5,0.67158 -1.5,1.5 0,6.50122 4.76746,11.88385 11,12.84375 l 0,3.15625 -2,0 c -0.55229,0 -1,0.447702 -1,1.000002 0,0.5523 0.44771,1 1,1 l 8,0 c 0.55228,0 1,-0.4477 1,-1 0,-0.5523 -0.44772,-1.000002 -1,-1.000002 l -2,0 0,-3.15625 c 6.23254,-0.9599 11,-6.34253 11,-12.84375 0,-0.82842 -0.67158,-1.5 -1.5,-1.5 -0.82842,0 -1.5,0.67158 -1.5,1.5 0,5.52285 -4.47715,10 -10,10 -0.34518,0 -0.69508,-0.0285 -1.03125,-0.0625 -0.33617,-0.034 -0.64326,-0.08995 -0.96875,-0.15625 -4.55683,-0.9324 -8,-4.94876 -8,-9.78125 0,-0.82842 -0.67158,-1.5 -1.5,-1.5 z"
           id="path3879" />
      </g>
      <g
         style="display:inline;enable-background:new"
         id="g4017"
         transform="matrix(0.23774573,0,0,0.23774573,347.83801,48.742596)">
        <path
           transform="matrix(1.3188406,0,0,1.3188406,267.61594,-11.978262)"
           d="M 100,70.5 C 100,89.553824 84.553824,105 65.5,105 46.446176,105 31,89.553824 31,70.5 31,51.446176 46.446176,36 65.5,36 84.553824,36 100,51.446176 100,70.5 z"
           sodipodi:ry="34.5"
           sodipodi:rx="34.5"
           sodipodi:cy="70.5"
           sodipodi:cx="65.5"
           id="path4019"
           style="fill:none;stroke:#ffffff;stroke-width:3.1892972;stroke-linecap:round;stroke-linejoin:round;stroke-miterlimit:4;stroke-opacity:1;stroke-dasharray:none;stroke-dashoffset:0"
           sodipodi:type="arc" />
        <path
           sodipodi:type="arc"
           style="fill:none;stroke:#ffffff;stroke-width:4.3317318;stroke-linecap:round;stroke-linejoin:round;stroke-miterlimit:4;stroke-opacity:1;stroke-dasharray:none;stroke-dashoffset:0"
           id="path4021"
           sodipodi:cx="65.5"
           sodipodi:cy="70.5"
           sodipodi:rx="34.5"
           sodipodi:ry="34.5"
           d="M 100,70.5 C 100,89.553824 84.553824,105 65.5,105 46.446176,105 31,89.553824 31,70.5 31,51.446176 46.446176,36 65.5,36 84.553824,36 100,51.446176 100,70.5 z"
           transform="matrix(0.97101449,0,0,0.97101449,290.39855,12.543238)" />
        <path
           id="path4023"
           d="m 354.00001,59.969128 c -4.42477,0 -8.01176,3.586985 -8.01176,8.01176 l 6.00882,0 c 0.55309,0 1.00147,0.448374 1.00147,1.001471 0,0.553096 -0.44838,1.00147 -1.00147,1.00147 l -6.00882,0 0,2.00294 6.00882,0 c 0.55309,0 1.00147,0.448378 1.00147,1.00147 0,0.553102 -0.44838,1.00147 -1.00147,1.00147 l -6.00882,0 0,2.00294 6.00882,0 c 0.55309,0 1.00147,0.448378 1.00147,1.00147 0,0.553102 -0.44838,1.00147 -1.00147,1.00147 l -6.00882,0 0,2.00294 6.00882,0 c 0.55309,0 1.00147,0.448378 1.00147,1.00147 0,0.553102 -0.44838,1.00147 -1.00147,1.00147 l -6.00882,0 0,2.00294 c 0,4.424775 3.58699,8.011761 8.01176,8.011761 4.42478,0 8.01176,-3.586986 8.01176,-8.011761 l 0,-2.00294 -6.00882,0 c -0.5531,0 -1.00147,-0.448368 -1.00147,-1.00147 0,-0.553092 0.44837,-1.00147 1.00147,-1.00147 l 6.00882,0 0,-2.00294 -6.00882,0 c -0.5531,0 -1.00147,-0.448368 -1.00147,-1.00147 0,-0.553092 0.44837,-1.00147 1.00147,-1.00147 l 6.00882,0 0,-2.00294 -6.00882,0 c -0.5531,0 -1.00147,-0.448368 -1.00147,-1.00147 0,-0.553092 0.44837,-1.00147 1.00147,-1.00147 l 6.00882,0 0,-2.00294 -6.00882,0 c -0.5531,0 -1.00147,-0.448369 -1.00147,-1.00147 0,-0.553092 0.44837,-1.001471 1.00147,-1.001471 l 6.00882,0 c 0,-4.424775 -3.58698,-8.01176 -8.01176,-8.01176 z m -11.5169,22.533076 c -0.82964,0 -1.50221,0.672567 -1.50221,1.502205 0,6.510777 4.77447,11.90132 11.01617,12.862631 l 0,3.16089 -2.00294,0 c -0.5531,0 -1.00147,0.44836 -1.00147,1.00147 0,0.55311 0.44837,1.00147 1.00147,1.00147 l 8.01176,0 c 0.55309,0 1.00147,-0.44836 1.00147,-1.00147 0,-0.55311 -0.44838,-1.00147 -1.00147,-1.00147 l -2.00294,0 0,-3.16089 c 6.2417,-0.961311 11.01617,-6.351854 11.01617,-12.862631 0,-0.829638 -0.67257,-1.502205 -1.5022,-1.502205 -0.82964,0 -1.50221,0.672567 -1.50221,1.502205 0,5.530969 -4.48373,10.014701 -10.0147,10.014701 -0.34569,0 -0.6961,-0.02854 -1.03277,-0.06259 -0.33666,-0.03405 -0.6442,-0.09008 -0.97017,-0.15648 -4.56353,-0.933771 -8.01176,-4.956035 -8.01176,-9.795629 0,-0.829638 -0.67257,-1.502205 -1.5022,-1.502205 z"
           style="fill:#ffffff;fill-opacity:1;fill-rule:nonzero;stroke:none"
           inkscape:connector-curvature="0" />
      </g>
      <path
         inkscape:connector-curvature="0"
         style="fill:#ffffff;fill-opacity:1;fill-rule:nonzero;stroke:none;display:inline;enable-background:new"
         d="m 424,143.00001 c -1.05197,0 -1.90476,0.85279 -1.90476,1.90476 l 1.42857,0 c 0.1315,0 0.2381,0.1066 0.2381,0.2381 0,0.13149 -0.1066,0.23809 -0.2381,0.23809 l -1.42857,0 0,0.47619 1.42857,0 c 0.1315,0 0.2381,0.1066 0.2381,0.2381 0,0.1315 -0.1066,0.23809 -0.2381,0.23809 l -1.42857,0 0,0.47619 1.42857,0 c 0.1315,0 0.2381,0.1066 0.2381,0.2381 0,0.1315 -0.1066,0.23809 -0.2381,0.23809 l -1.42857,0 0,0.47619 1.42857,0 c 0.1315,0 0.2381,0.1066 0.2381,0.2381 0,0.1315 -0.1066,0.23809 -0.2381,0.23809 l -1.42857,0 0,0.4762 c 0,1.05197 0.85279,1.90476 1.90476,1.90476 1.05197,0 1.90476,-0.85279 1.90476,-1.90476 l 0,-0.4762 -1.42857,0 c -0.1315,0 -0.23809,-0.10659 -0.23809,-0.23809 0,-0.1315 0.10659,-0.2381 0.23809,-0.2381 l 1.42857,0 0,-0.47619 -1.42857,0 c -0.1315,0 -0.23809,-0.10659 -0.23809,-0.23809 0,-0.1315 0.10659,-0.2381 0.23809,-0.2381 l 1.42857,0 0,-0.47619 -1.42857,0 c -0.1315,0 -0.23809,-0.10659 -0.23809,-0.23809 0,-0.1315 0.10659,-0.2381 0.23809,-0.2381 l 1.42857,0 0,-0.47619 -1.42857,0 c -0.1315,0 -0.23809,-0.1066 -0.23809,-0.23809 0,-0.1315 0.10659,-0.2381 0.23809,-0.2381 l 1.42857,0 c 0,-1.05197 -0.85279,-1.90476 -1.90476,-1.90476 z m -2.73809,5.35714 c -0.19725,0 -0.35715,0.1599 -0.35715,0.35715 0,1.5479 1.13511,2.82948 2.61905,3.05803 l 0,0.75149 -0.47619,0 c -0.1315,0 -0.2381,0.10659 -0.2381,0.23809 0,0.1315 0.1066,0.2381 0.2381,0.2381 l 1.90476,0 c 0.1315,0 0.2381,-0.1066 0.2381,-0.2381 0,-0.1315 -0.1066,-0.23809 -0.2381,-0.23809 l -0.47619,0 0,-0.75149 c 1.48394,-0.22855 2.61905,-1.51013 2.61905,-3.05803 0,-0.19725 -0.1599,-0.35715 -0.35714,-0.35715 -0.19725,0 -0.35715,0.1599 -0.35715,0.35715 0,1.31496 -1.06598,2.38095 -2.38095,2.38095 -0.0822,0 -0.16549,-0.007 -0.24554,-0.0149 -0.08,-0.008 -0.15315,-0.0214 -0.23065,-0.0372 -1.08496,-0.222 -1.90476,-1.17827 -1.90476,-2.32886 0,-0.19725 -0.1599,-0.35715 -0.35714,-0.35715 z"
         id="path4063" />
      <path
         id="path4083"
         d="m 427.99999,105 c -1.47275,0 -2.66666,1.1939 -2.66666,2.66667 l 2,0 c 0.1841,0 0.33334,0.14924 0.33334,0.33334 0,0.18408 -0.14924,0.33332 -0.33334,0.33332 l -2,0 0,0.66666 2,0 c 0.1841,0 0.33334,0.14924 0.33334,0.33334 0,0.1841 -0.14924,0.33333 -0.33334,0.33333 l -2,0 0,0.66667 2,0 c 0.1841,0 0.33334,0.14924 0.33334,0.33334 0,0.1841 -0.14924,0.33333 -0.33334,0.33333 l -2,0 0,0.66666 2,0 c 0.1841,0 0.33334,0.14924 0.33334,0.33334 0,0.1841 -0.14924,0.33332 -0.33334,0.33332 l -2,0 0,0.66668 c 0,1.47277 1.19391,2.66667 2.66666,2.66667 1.47277,0 2.66667,-1.1939 2.66667,-2.66667 l 0,-0.66668 -2,0 c -0.1841,0 -0.33333,-0.14922 -0.33333,-0.33332 0,-0.1841 0.14923,-0.33334 0.33333,-0.33334 l 2,0 0,-0.66666 -2,0 c -0.1841,0 -0.33333,-0.14923 -0.33333,-0.33333 0,-0.1841 0.14923,-0.33334 0.33333,-0.33334 l 2,0 0,-0.66667 -2,0 c -0.1841,0 -0.33333,-0.14923 -0.33333,-0.33333 0,-0.1841 0.14923,-0.33334 0.33333,-0.33334 l 2,0 0,-0.66666 -2,0 c -0.1841,0 -0.33333,-0.14924 -0.33333,-0.33332 0,-0.1841 0.14923,-0.33334 0.33333,-0.33334 l 2,0 c 0,-1.47277 -1.1939,-2.66667 -2.66667,-2.66667 z m -3.83332,7.49999 c -0.27615,0 -0.50001,0.22386 -0.50001,0.50001 0,2.16706 1.58916,3.96128 3.66667,4.28125 l 0,1.05209 -0.66666,0 c -0.1841,0 -0.33334,0.14922 -0.33334,0.33332 0,0.1841 0.14924,0.33334 0.33334,0.33334 l 2.66666,0 c 0.1841,0 0.33334,-0.14924 0.33334,-0.33334 0,-0.1841 -0.14924,-0.33332 -0.33334,-0.33332 l -0.66667,0 0,-1.05209 c 2.07752,-0.31997 3.66667,-2.11419 3.66667,-4.28125 0,-0.27615 -0.22386,-0.50001 -0.5,-0.50001 -0.27615,0 -0.50001,0.22386 -0.50001,0.50001 0,1.84095 -1.49236,3.33333 -3.33332,3.33333 -0.11508,0 -0.23168,-0.01 -0.34375,-0.0208 -0.11201,-0.0112 -0.21441,-0.0299 -0.32291,-0.0521 -1.51895,-0.3108 -2.66667,-1.64957 -2.66667,-3.26041 0,-0.27615 -0.22386,-0.50001 -0.5,-0.50001 z"
         style="fill:#ffffff;fill-opacity:1;fill-rule:nonzero;stroke:none;display:inline;enable-background:new"
         inkscape:connector-curvature="0" />
    </g>
    <g
       inkscape:groupmode="layer"
       id="layer5"
       inkscape:label="Highlights"
       style="display:inline"
       sodipodi:insensitive="true">
      <path
         style="opacity:0.12999998;color:#bebebe;fill:#ffffff;fill-opacity:1;fill-rule:nonzero;stroke:none;stroke-width:0;marker:none;visibility:visible;display:inline;overflow:visible;enable-background:accumulate"
         d="M 84,47 C 56.836703,47 35,68.836703 35,96 l 0,1 C 35,69.836703 56.836703,48 84,48 l 120,0 c 27.1633,0 49,21.836703 49,49 l 0,-1 C 253,68.836703 231.1633,47 204,47 L 84,47 z"
         id="rect3894"
         inkscape:connector-curvature="0" />
      <path
         style="opacity:0.12999998;color:#bebebe;fill:#ffffff;fill-opacity:1;fill-rule:nonzero;stroke:none;stroke-width:0;marker:none;visibility:visible;display:inline;overflow:visible;enable-background:accumulate"
         d="m 419,141 c -1.1253,0 -2,0.8747 -2,2 l 0,1 c 0,-1.1253 0.8747,-2 2,-2 l 10,0 c 1.1253,0 2,0.8747 2,2 l 0,-1 c 0,-1.1253 -0.8747,-2 -2,-2 l -10,0 z"
         id="rect3896"
         inkscape:connector-curvature="0" />
      <path
         style="opacity:0.12999998;color:#bebebe;fill:#ffffff;fill-opacity:1;fill-rule:nonzero;stroke:none;stroke-width:0;marker:none;visibility:visible;display:inline;overflow:visible;enable-background:accumulate"
         d="m 422,102 c -2.2333,0 -4,1.7667 -4,4 l 0,1 c 0,-2.2333 1.7667,-4 4,-4 l 12,0 c 2.2333,0 4,1.7667 4,4 l 0,-1 c 0,-2.2333 -1.7667,-4 -4,-4 l -12,0 z"
         id="rect3898"
         inkscape:connector-curvature="0" />
      <path
         style="opacity:0.12999998;color:#bebebe;fill:#ffffff;fill-opacity:1;fill-rule:nonzero;stroke:none;stroke-width:0;marker:none;visibility:visible;display:inline;overflow:visible;enable-background:accumulate"
         d="m 424,54 c -3.3413,0 -6,2.658703 -6,6 l 0,1 c 0,-3.341297 2.6587,-6 6,-6 l 16,0 c 3.3413,0 6,2.658703 6,6 l 0,-1 c 0,-3.341297 -2.6587,-6 -6,-6 l -16,0 z"
         id="rect3900"
         inkscape:connector-curvature="0" />
      <path
         style="opacity:0.12999998;color:#bebebe;fill:#ffffff;fill-opacity:1;fill-rule:nonzero;stroke:none;stroke-width:0;marker:none;visibility:visible;display:inline;overflow:visible;enable-background:accumulate"
         d="m 300,224 c -4.4493,0 -8,3.5507 -8,8 l 0,1 c 0,-4.4493 3.5507,-8 8,-8 l 24,0 c 4.4493,0 8,3.5507 8,8 l 0,-1 c 0,-4.4493 -3.5507,-8 -8,-8 l -24,0 z"
         id="rect3902"
         inkscape:connector-curvature="0" />
      <path
         style="opacity:0.12999998;color:#bebebe;fill:#ffffff;fill-opacity:1;fill-rule:nonzero;stroke:none;stroke-width:0;marker:none;visibility:visible;display:inline;overflow:visible;enable-background:accumulate"
         d="m 310,33 c -9.4353,0 -17,7.564703 -17,17 l 0,1 c 0,-9.435297 7.5647,-17 17,-17 l 52,0 c 9.4353,0 17,7.564703 17,17 l 0,-1 c 0,-9.435297 -7.5647,-17 -17,-17 l -52,0 z"
         id="rect3904"
         inkscape:connector-curvature="0" />
      <path
         style="opacity:0.12999998;color:#bebebe;fill:#ffffff;fill-opacity:1;fill-rule:nonzero;stroke:none;stroke-width:0;marker:none;visibility:visible;display:inline;overflow:visible;enable-background:accumulate"
         d="m 302.5,143 c -6.3883,0 -11.5,5.1117 -11.5,11.5 l 0,1 c 0,-6.3883 5.1117,-11.5 11.5,-11.5 l 35,0 c 6.3883,0 11.5,5.1117 11.5,11.5 l 0,-1 c 0,-6.3883 -5.1117,-11.5 -11.5,-11.5 l -35,0 z"
         id="rect3906"
         inkscape:connector-curvature="0" />
      <path
         id="path4085"
         d="m 204,266 c 27.1633,0 49,-21.8367 49,-49 l 0,-1 c 0,27.1633 -21.8367,49 -49,49 L 84,265 C 56.8367,265 35,243.1633 35,216 l 0,1 c 0,27.1633 21.8367,49 49,49 l 120,0 z"
         style="opacity:0.5;color:#bebebe;fill:#000000;fill-opacity:1;fill-rule:nonzero;stroke:none;stroke-width:0;marker:none;visibility:visible;display:inline;overflow:visible;enable-background:accumulate"
         inkscape:connector-curvature="0" />
      <path
         id="path4087"
         d="m 429,156 c 1.1253,0 2,-0.8747 2,-2 l 0,-1 c 0,1.1253 -0.8747,2 -2,2 l -10,0 c -1.1253,0 -2,-0.8747 -2,-2 l 0,1 c 0,1.1253 0.8747,2 2,2 l 10,0 z"
         style="opacity:0.3;color:#bebebe;fill:#000000;fill-opacity:1;fill-rule:nonzero;stroke:none;stroke-width:0;marker:none;visibility:visible;display:inline;overflow:visible;enable-background:accumulate"
         inkscape:connector-curvature="0" />
      <path
         id="path4089"
         d="m 434,123 c 2.2333,0 4,-1.7667 4,-4 l 0,-1 c 0,2.2333 -1.7667,4 -4,4 l -12,0 c -2.2333,0 -4,-1.7667 -4,-4 l 0,1 c 0,2.2333 1.7667,4 4,4 l 12,0 z"
         style="opacity:0.3;color:#bebebe;fill:#000000;fill-opacity:1;fill-rule:nonzero;stroke:none;stroke-width:0;marker:none;visibility:visible;display:inline;overflow:visible;enable-background:accumulate"
         inkscape:connector-curvature="0" />
      <path
         id="path4091"
         d="m 440,83 c 3.3413,0 6,-2.6587 6,-6 l 0,-1 c 0,3.3413 -2.6587,6 -6,6 l -16,0 c -3.3413,0 -6,-2.6587 -6,-6 l 0,1 c 0,3.3413 2.6587,6 6,6 l 16,0 z"
         style="opacity:0.5;color:#bebebe;fill:#000000;fill-opacity:1;fill-rule:nonzero;stroke:none;stroke-width:0;marker:none;visibility:visible;display:inline;overflow:visible;enable-background:accumulate"
         inkscape:connector-curvature="0" />
      <path
         id="path4093"
         d="m 324,265 c 4.4493,0 8,-3.5507 8,-8 l 0,-1 c 0,4.4493 -3.5507,8 -8,8 l -24,0 c -4.4493,0 -8,-3.5507 -8,-8 l 0,1 c 0,4.4493 3.5507,8 8,8 l 24,0 z"
         style="opacity:0.5;color:#bebebe;fill:#000000;fill-opacity:1;fill-rule:nonzero;stroke:none;stroke-width:0;marker:none;visibility:visible;display:inline;overflow:visible;enable-background:accumulate"
         inkscape:connector-curvature="0" />
      <path
         id="path4095"
         d="m 362,120 c 9.4353,0 17,-7.5647 17,-17 l 0,-1 c 0,9.4353 -7.5647,17 -17,17 l -52,0 c -9.4353,0 -17,-7.5647 -17,-17 l 0,1 c 0,9.4353 7.5647,17 17,17 l 52,0 z"
         style="opacity:0.5;color:#bebebe;fill:#000000;fill-opacity:1;fill-rule:nonzero;stroke:none;stroke-width:0;marker:none;visibility:visible;display:inline;overflow:visible;enable-background:accumulate"
         inkscape:connector-curvature="0" />
      <path
         id="path4097"
         d="m 337.5,202 c 6.3883,0 11.5,-5.1117 11.5,-11.5 l 0,-1 c 0,6.3883 -5.1117,11.5 -11.5,11.5 l -35,0 c -6.3883,0 -11.5,-5.1117 -11.5,-11.5 l 0,1 c 0,6.3883 5.1117,11.5 11.5,11.5 l 35,0 z"
         style="opacity:0.5;color:#bebebe;fill:#000000;fill-opacity:1;fill-rule:nonzero;stroke:none;stroke-width:0;marker:none;visibility:visible;display:inline;overflow:visible;enable-background:accumulate"
         inkscape:connector-curvature="0" />
      <path
         inkscape:connector-curvature="0"
         id="path4280"
         d="M 84,265 C 56.836703,265 35,243.1633 35,216 l 0,-1 c 0,27.1633 21.836703,49 49,49 l 120,0 c 27.1633,0 49,-21.8367 49,-49 l 0,1 c 0,27.1633 -21.8367,49 -49,49 l -120,0 z"
         style="opacity:0.1;color:#bebebe;fill:#ffffff;fill-opacity:1;fill-rule:nonzero;stroke:none;stroke-width:0;marker:none;visibility:visible;display:inline;overflow:visible;enable-background:accumulate" />
      <path
         style="opacity:0.1;color:#bebebe;fill:#ffffff;fill-opacity:1;fill-rule:nonzero;stroke:none;stroke-width:0;marker:none;visibility:visible;display:inline;overflow:visible;enable-background:accumulate"
         d="m 300,264 c -4.4493,0 -8,-3.5507 -8,-8 l 0,-1 c 0,4.4493 3.5507,8 8,8 l 24,0 c 4.4493,0 8,-3.5507 8,-8 l 0,1 c 0,4.4493 -3.5507,8 -8,8 l -24,0 z"
         id="path4294"
         inkscape:connector-curvature="0" />
      <path
         style="opacity:0.1;color:#bebebe;fill:#ffffff;fill-opacity:1;fill-rule:nonzero;stroke:none;stroke-width:0;marker:none;visibility:visible;display:inline;overflow:visible;enable-background:accumulate"
         d="m 302.5,201 c -6.3883,0 -11.5,-5.1117 -11.5,-11.5 l 0,-1 c 0,6.3883 5.1117,11.5 11.5,11.5 l 35,0 c 6.3883,0 11.5,-5.1117 11.5,-11.5 l 0,1 c 0,6.3883 -5.1117,11.5 -11.5,11.5 l -35,0 z"
         id="path4296"
         inkscape:connector-curvature="0" />
      <path
         style="opacity:0.1;color:#bebebe;fill:#ffffff;fill-opacity:1;fill-rule:nonzero;stroke:none;stroke-width:0;marker:none;visibility:visible;display:inline;overflow:visible;enable-background:accumulate"
         d="m 310,119 c -9.4353,0 -17,-7.5647 -17,-17 l 0,-1 c 0,9.4353 7.5647,17 17,17 l 52,0 c 9.4353,0 17,-7.5647 17,-17 l 0,1 c 0,9.4353 -7.5647,17 -17,17 l -52,0 z"
         id="path4298"
         inkscape:connector-curvature="0" />
      <path
         style="opacity:0.1;color:#bebebe;fill:#ffffff;fill-opacity:1;fill-rule:nonzero;stroke:none;stroke-width:0;marker:none;visibility:visible;display:inline;overflow:visible;enable-background:accumulate"
         d="m 424,82 c -3.3413,0 -6,-2.658703 -6,-6 l 0,-1 c 0,3.341297 2.6587,6 6,6 l 16,0 c 3.3413,0 6,-2.658703 6,-6 l 0,1 c 0,3.341297 -2.6587,6 -6,6 l -16,0 z"
         id="path4300"
         inkscape:connector-curvature="0" />
      <path
         style="opacity:0.1;color:#bebebe;fill:#ffffff;fill-opacity:1;fill-rule:nonzero;stroke:none;stroke-width:0;marker:none;visibility:visible;display:inline;overflow:visible;enable-background:accumulate"
         d="m 422,122 c -2.2333,0 -4,-1.7667 -4,-4 l 0,-1 c 0,2.2333 1.7667,4 4,4 l 12,0 c 2.2333,0 4,-1.7667 4,-4 l 0,1 c 0,2.2333 -1.7667,4 -4,4 l -12,0 z"
         id="path4302"
         inkscape:connector-curvature="0" />
      <path
         style="opacity:0.1;color:#bebebe;fill:#ffffff;fill-opacity:1;fill-rule:nonzero;stroke:none;stroke-width:0;marker:none;visibility:visible;display:inline;overflow:visible;enable-background:accumulate"
         d="m 419,154.5 c -1.1253,0 -2,-0.8747 -2,-2 l 0,-1 c 0,1.1253 0.8747,2 2,2 l 10,0 c 1.1253,0 2,-0.8747 2,-2 l 0,1 c 0,1.1253 -0.8747,2 -2,2 l -10,0 z"
         id="path4304"
         inkscape:connector-curvature="0" />
    </g>
    <g
       inkscape:groupmode="layer"
       id="layer3"
       inkscape:label="Border"
       style="display:inline"
       sodipodi:insensitive="true">
      <path
         style="opacity:0.41000001;color:#bebebe;fill:#000000;fill-opacity:1;fill-rule:nonzero;stroke:none;stroke-width:0;marker:none;visibility:visible;display:inline;overflow:visible;enable-background:accumulate"
         d="m 422,101 c -2.77,0 -5,2.23 -5,5 l 0,12 c 0,2.77 2.23,5 5,5 l 12,0 c 2.77,0 5,-2.23 5,-5 l 0,-12 c 0,-2.77 -2.23,-5 -5,-5 l -12,0 z m 0,1 12,0 c 2.2333,0 4,1.7667 4,4 l 0,12 c 0,2.2333 -1.7667,4 -4,4 l -12,0 c -2.2333,0 -4,-1.7667 -4,-4 l 0,-12 c 0,-2.2333 1.7667,-4 4,-4 z"
         id="rect4099"
         inkscape:connector-curvature="0" />
      <path
         style="opacity:0.41000001;color:#bebebe;fill:#000000;fill-opacity:1;fill-rule:nonzero;stroke:none;stroke-width:0;marker:none;visibility:visible;display:inline;overflow:visible;enable-background:accumulate"
         d="m 424,53 c -3.878,0 -7,3.122 -7,7 l 0,16 c 0,3.878 3.122,7 7,7 l 16,0 c 3.878,0 7,-3.122 7,-7 l 0,-16 c 0,-3.878 -3.122,-7 -7,-7 l -16,0 z m 0,1 16,0 c 3.3413,0 6,2.658703 6,6 l 0,16 c 0,3.341297 -2.6587,6 -6,6 l -16,0 c -3.3413,0 -6,-2.658703 -6,-6 l 0,-16 c 0,-3.341297 2.6587,-6 6,-6 z"
         id="rect4151"
         inkscape:connector-curvature="0" />
      <path
         style="opacity:0.41000001;color:#bebebe;fill:#000000;fill-opacity:1;fill-rule:nonzero;stroke:none;stroke-width:0;marker:none;visibility:visible;display:inline;overflow:visible;enable-background:accumulate"
         d="m 419,140 c -1.662,0 -3,1.338 -3,3 l 0,10 c 0,1.662 1.338,3 3,3 l 10,0 c 1.662,0 3,-1.338 3,-3 l 0,-10 c 0,-1.662 -1.338,-3 -3,-3 l -10,0 z m 0,1 10,0 c 1.1253,0 2,0.8747 2,2 l 0,10 c 0,1.1253 -0.8747,2 -2,2 l -10,0 c -1.1253,0 -2,-0.8747 -2,-2 l 0,-10 c 0,-1.1253 0.8747,-2 2,-2 z"
         id="rect4095"
         inkscape:connector-curvature="0" />
      <path
         style="opacity:0.41000001;color:#bebebe;fill:#000000;fill-opacity:1;fill-rule:nonzero;stroke:none;stroke-width:0;marker:none;visibility:visible;display:inline;overflow:visible;enable-background:accumulate"
         d="m 300,223 c -4.986,0 -9,4.014 -9,9 l 0,24 c 0,4.986 4.014,9 9,9 l 24,0 c 4.986,0 9,-4.014 9,-9 l 0,-24 c 0,-4.986 -4.014,-9 -9,-9 l -24,0 z m 0,1 24,0 c 4.4493,0 8,3.5507 8,8 l 0,24 c 0,4.4493 -3.5507,8 -8,8 l -24,0 c -4.4493,0 -8,-3.5507 -8,-8 l 0,-24 c 0,-4.4493 3.5507,-8 8,-8 z"
         id="rect4783"
         inkscape:connector-curvature="0" />
      <path
         style="opacity:0.41000001;color:#bebebe;fill:#000000;fill-opacity:1;fill-rule:nonzero;stroke:none;stroke-width:0;marker:none;visibility:visible;display:inline;overflow:visible;enable-background:accumulate"
         d="m 302.5,142 c -6.925,0 -12.5,5.575 -12.5,12.5 l 0,35 c 0,6.925 5.575,12.5 12.5,12.5 l 35,0 c 6.925,0 12.5,-5.575 12.5,-12.5 l 0,-35 c 0,-6.925 -5.575,-12.5 -12.5,-12.5 l -35,0 z m 0,1 35,0 c 6.3883,0 11.5,5.1117 11.5,11.5 l 0,35 c 0,6.3883 -5.1117,11.5 -11.5,11.5 l -35,0 c -6.3883,0 -11.5,-5.1117 -11.5,-11.5 l 0,-35 c 0,-6.3883 5.1117,-11.5 11.5,-11.5 z"
         id="rect4515"
         inkscape:connector-curvature="0" />
      <path
         style="opacity:0.41000001;color:#bebebe;fill:#000000;fill-opacity:1;fill-rule:nonzero;stroke:none;stroke-width:0;marker:none;visibility:visible;display:inline;overflow:visible;enable-background:accumulate"
         d="m 310,32 c -9.972,0 -18,8.028 -18,18 l 0,52 c 0,9.972 8.028,18 18,18 l 52,0 c 9.972,0 18,-8.028 18,-18 l 0,-52 c 0,-9.972 -8.028,-18 -18,-18 l -52,0 z m 0,1 52,0 c 9.4353,0 17,7.564703 17,17 l 0,52 c 0,9.4353 -7.5647,17 -17,17 l -52,0 c -9.4353,0 -17,-7.5647 -17,-17 l 0,-52 c 0,-9.435297 7.5647,-17 17,-17 z"
         id="rect4511"
         inkscape:connector-curvature="0" />
      <path
         style="opacity:0.41000001;color:#bebebe;fill:#000000;fill-opacity:1;fill-rule:nonzero;stroke:none;stroke-width:0;marker:none;visibility:visible;display:inline;overflow:visible;enable-background:accumulate"
         d="M 84,46 C 56.3,46 34,68.3 34,96 l 0,120 c 0,27.7 22.3,50 50,50 l 120,0 c 27.7,0 50,-22.3 50,-50 L 254,96 C 254,68.3 231.7,46 204,46 L 84,46 z m 0,1 120,0 c 27.1633,0 49,21.836703 49,49 l 0,120 c 0,27.1633 -21.8367,49 -49,49 L 84,265 C 56.836703,265 35,243.1633 35,216 L 35,96 C 35,68.836703 56.836703,47 84,47 z"
         id="rect4040"
         inkscape:connector-curvature="0" />
    </g>
  </g>
</svg>
