<?xml version="1.0" encoding="UTF-8" standalone="no"?>
<!-- Created with Inkscape (http://www.inkscape.org/) -->

<svg
   xmlns:dc="http://purl.org/dc/elements/1.1/"
   xmlns:cc="http://creativecommons.org/ns#"
   xmlns:rdf="http://www.w3.org/1999/02/22-rdf-syntax-ns#"
   xmlns:svg="http://www.w3.org/2000/svg"
   xmlns="http://www.w3.org/2000/svg"
   xmlns:xlink="http://www.w3.org/1999/xlink"
   xmlns:sodipodi="http://sodipodi.sourceforge.net/DTD/sodipodi-0.dtd"
   xmlns:inkscape="http://www.inkscape.org/namespaces/inkscape"
   inkscape:export-ydpi="90.000000"
   inkscape:export-xdpi="90.000000"
   width="480"
   height="300"
   id="svg11300"
   sodipodi:version="0.32"
   inkscape:version="0.48.4 r9939"
   sodipodi:docname="skype.svg"
   inkscape:output_extension="org.inkscape.output.svg.inkscape"
   version="1.0"
   style="display:inline;enable-background:new"
   inkscape:export-filename="/home/sam/moka-next-template.png">
  <sodipodi:namedview
     stroke="#ef2929"
     fill="#f57900"
     id="base"
     pagecolor="#777777"
     bordercolor="#666666"
     borderopacity="0.25490196"
     inkscape:pageopacity="0"
     inkscape:pageshadow="2"
     inkscape:zoom="1"
     inkscape:cx="245.14139"
     inkscape:cy="96.542176"
     inkscape:current-layer="layer7"
     showgrid="false"
     inkscape:grid-bbox="true"
     inkscape:document-units="px"
     inkscape:showpageshadow="false"
     inkscape:window-width="1364"
     inkscape:window-height="700"
     inkscape:window-x="0"
     inkscape:window-y="28"
     width="400px"
     height="300px"
     inkscape:snap-nodes="true"
     inkscape:snap-bbox="true"
     gridtolerance="10000"
     inkscape:object-nodes="true"
     inkscape:snap-grids="true"
     showguides="true"
     inkscape:guide-bbox="true"
     inkscape:window-maximized="1"
     inkscape:bbox-nodes="true"
     inkscape:bbox-paths="true"
     inkscape:snap-bbox-edge-midpoints="true"
     inkscape:snap-bbox-midpoints="true">
    <inkscape:grid
       spacingy="1px"
       spacingx="1px"
       id="grid5883"
       type="xygrid"
       enabled="true"
       visible="true"
       empspacing="4"
       snapvisiblegridlinesonly="true"
       dotted="false"
       color="#000000"
       opacity="0.1254902"
       empcolor="#203ef3"
       empopacity="0.36470588" />
    <inkscape:grid
       type="xygrid"
       id="grid11592"
       empspacing="8"
       visible="true"
       enabled="false"
       spacingx="0.5px"
       spacingy="0.5px"
       color="#ff0000"
       opacity="0.1254902"
       empcolor="#ff0000"
       empopacity="0.25098039"
       snapvisiblegridlinesonly="true"
       dotted="true" />
  </sodipodi:namedview>
  <defs
     id="defs3">
    <linearGradient
       inkscape:collect="always"
       xlink:href="#outerBackgroundGradient-5"
       id="linearGradient4254"
       x1="35"
       y1="156"
       x2="253"
       y2="156"
       gradientUnits="userSpaceOnUse"
       gradientTransform="matrix(0,-1,1,0,-12,300)" />
    <linearGradient
       inkscape:collect="always"
       xlink:href="#outerBackgroundGradient-5"
       id="linearGradient4256"
       x1="417"
       y1="148"
       x2="431"
       y2="148"
       gradientUnits="userSpaceOnUse"
       gradientTransform="matrix(0,-1,1,0,276,572)" />
    <linearGradient
       inkscape:collect="always"
       xlink:href="#outerBackgroundGradient-5"
       id="linearGradient4260"
       x1="418"
       y1="68"
       x2="446"
       y2="68"
       gradientUnits="userSpaceOnUse"
       gradientTransform="matrix(0,-1,1,0,364,500)" />
    <linearGradient
       inkscape:collect="always"
       xlink:href="#outerBackgroundGradient-5"
       id="linearGradient4262"
       x1="292"
       y1="244"
       x2="332"
       y2="244"
       gradientUnits="userSpaceOnUse"
       gradientTransform="matrix(0,-1,1,0,68,556)" />
    <linearGradient
       inkscape:collect="always"
       xlink:href="#outerBackgroundGradient-5"
       id="linearGradient4264"
       x1="293"
       y1="76"
       x2="379"
       y2="76"
       gradientUnits="userSpaceOnUse"
       gradientTransform="matrix(0,-1,1,0,260,412)" />
    <linearGradient
       inkscape:collect="always"
       xlink:href="#outerBackgroundGradient-5"
       id="linearGradient4266"
       x1="291"
       y1="172"
       x2="349"
       y2="172"
       gradientUnits="userSpaceOnUse"
       gradientTransform="matrix(0,-1,1,0,148,492)" />
    <linearGradient
       inkscape:collect="always"
       xlink:href="#outerBackgroundGradient-5"
       id="linearGradient3870"
       gradientUnits="userSpaceOnUse"
       gradientTransform="matrix(0,-1,1,0,316,540)"
       x1="418"
       y1="112"
       x2="438"
       y2="112" />
    <linearGradient
       id="outerBackgroundGradient-5">
      <stop
         style="stop-color:#0a94c8;stop-opacity:1"
         offset="0"
         id="stop3864-8-6-6" />
      <stop
         style="stop-color:#00aff0;stop-opacity:1"
         offset="1"
         id="stop3866-9-1-2" />
    </linearGradient>
  </defs>
  <metadata
     id="metadata4">
    <rdf:RDF>
      <cc:Work
         rdf:about="">
        <dc:format>image/svg+xml</dc:format>
        <dc:type
           rdf:resource="http://purl.org/dc/dcmitype/StillImage" />
        <dc:creator>
          <cc:Agent>
            <dc:title>Sam Hewitt</dc:title>
          </cc:Agent>
        </dc:creator>
        <dc:source />
        <cc:license
           rdf:resource="" />
        <dc:title />
        <dc:subject>
          <rdf:Bag />
        </dc:subject>
        <dc:date />
        <dc:rights>
          <cc:Agent>
            <dc:title />
          </cc:Agent>
        </dc:rights>
        <dc:publisher>
          <cc:Agent>
            <dc:title />
          </cc:Agent>
        </dc:publisher>
        <dc:identifier />
        <dc:relation />
        <dc:language />
        <dc:coverage />
        <dc:description />
        <dc:contributor>
          <cc:Agent>
            <dc:title />
          </cc:Agent>
        </dc:contributor>
      </cc:Work>
      <cc:Work
         rdf:about="">
        <dc:format>image/svg+xml</dc:format>
        <dc:type
           rdf:resource="http://purl.org/dc/dcmitype/StillImage" />
      </cc:Work>
    </rdf:RDF>
  </metadata>
  <g
     style="display:inline"
     inkscape:groupmode="layer"
     inkscape:label="Icon"
     id="layer1">
    <g
       style="display:none"
       inkscape:label="Baseplate"
       id="layer7"
       inkscape:groupmode="layer">
      <text
         y="19.745117"
         xml:space="preserve"
         x="15.006836"
         style="font-style:normal;font-variant:normal;font-weight:normal;font-stretch:normal;line-height:0%;font-family:'DejaVu Sans';-inkscape-font-specification:'DejaVu Sans';display:inline;fill:#000000;fill-opacity:1;stroke:none;enable-background:new"
         inkscape:label="context"
         id="context"><tspan
           style="font-style:normal;font-variant:normal;font-weight:normal;font-stretch:normal;font-size:18px;line-height:1.25;font-family:'DejaVu Sans';-inkscape-font-specification:'DejaVu Sans'"
           y="19.745117"
           x="15.006836"
           sodipodi:role="line"
           id="tspan3933">apps</tspan></text>
      <text
         y="19.745117"
         xml:space="preserve"
         x="122.48828"
         style="font-style:normal;font-variant:normal;font-weight:bold;font-stretch:normal;line-height:0%;font-family:'DejaVu Sans';-inkscape-font-specification:'DejaVu Sans Bold';text-align:start;writing-mode:lr-tb;text-anchor:start;display:inline;fill:#000000;fill-opacity:1;stroke:none;enable-background:new"
         inkscape:label="icon-name"
         id="icon-name"><tspan
           style="font-style:normal;font-variant:normal;font-weight:bold;font-stretch:normal;font-size:18px;line-height:1.25;font-family:'DejaVu Sans';-inkscape-font-specification:'DejaVu Sans Bold'"
           y="19.745117"
           x="122.48828"
           sodipodi:role="line"
           id="tspan3937">skype</tspan></text>
      <rect
         style="fill:#eeeeec;fill-opacity:1;fill-rule:nonzero;stroke:none;stroke-width:2;marker:none;visibility:visible;display:inline;overflow:visible;enable-background:accumulate"
         id="rect16x16"
         width="16"
         height="16"
         x="416"
         y="140"
         inkscape:label="16x16" />
      <rect
         style="fill:#d4d4d4;fill-opacity:1;fill-rule:nonzero;stroke:none;stroke-width:2;marker:none;visibility:visible;display:inline;overflow:visible;enable-background:accumulate"
         id="rect24x24"
         width="24"
         height="24"
         x="416"
         y="100"
         inkscape:label="24x24" />
      <rect
         style="fill:#eeeeec;fill-opacity:1;fill-rule:nonzero;stroke:none;stroke-width:2;marker:none;visibility:visible;display:inline;overflow:visible;enable-background:accumulate"
         id="rect32x32"
         width="32"
         height="32"
         x="416"
         y="52"
         inkscape:label="32x32" />
      <rect
         inkscape:label="22x22"
         y="101"
         x="417"
         height="22"
         width="22"
         id="rect22x22"
         style="fill:#eeeeec;fill-opacity:1;fill-rule:nonzero;stroke:none;stroke-width:2;marker:none;visibility:visible;display:inline;overflow:visible;enable-background:accumulate" />
      <rect
         inkscape:label="48x48"
         y="220"
         x="288"
         height="48"
         width="48"
         id="rect48x48"
         style="fill:#eeeeec;fill-opacity:1;fill-rule:nonzero;stroke:none;stroke-width:2;marker:none;visibility:visible;display:inline;overflow:visible;enable-background:accumulate" />
      <rect
         style="fill:#eeeeec;fill-opacity:1;fill-rule:nonzero;stroke:none;stroke-width:2;marker:none;visibility:visible;display:inline;overflow:visible;enable-background:accumulate"
         id="rect256x256"
         width="256"
         height="256"
         x="16"
         y="28"
         inkscape:label="256x256" />
      <rect
         style="fill:#eeeeec;fill-opacity:1;fill-rule:nonzero;stroke:none;stroke-width:2;marker:none;visibility:visible;display:inline;overflow:visible;enable-background:accumulate"
         id="rect64x64"
         width="64"
         height="64"
         x="288"
         y="140"
         inkscape:label="64x64" />
      <rect
         style="fill:#eeeeec;fill-opacity:1;fill-rule:nonzero;stroke:none;stroke-width:2;marker:none;visibility:visible;display:inline;overflow:visible;enable-background:accumulate"
         id="rect96x96"
         width="96"
         height="96"
         x="288"
         y="28"
         inkscape:label="96x96" />
    </g>
    <g
       inkscape:groupmode="layer"
       id="layer4"
       inkscape:label="Shadow"
       style="display:inline"
       sodipodi:insensitive="true">
      <rect
         ry="50"
         y="47"
         x="34"
         height="220"
         width="220"
         id="rect4114"
         style="opacity:0.1;color:#bebebe;fill:#000000;fill-opacity:1;fill-rule:nonzero;stroke:none;stroke-width:0;marker:none;visibility:visible;display:inline;overflow:visible;enable-background:accumulate" />
      <rect
         style="opacity:0.1;color:#bebebe;fill:#000000;fill-opacity:1;fill-rule:nonzero;stroke:none;stroke-width:0;marker:none;visibility:visible;display:inline;overflow:visible;enable-background:accumulate"
         id="rect4120"
         width="30"
         height="30"
         x="417"
         y="54"
         ry="7" />
      <rect
         transform="scale(1,-1)"
         ry="9"
         y="-266"
         x="291"
         height="42"
         width="42"
         id="rect4122"
         style="opacity:0.1;color:#bebebe;fill:#000000;fill-opacity:1;fill-rule:nonzero;stroke:none;stroke-width:0;marker:none;visibility:visible;display:inline;overflow:visible;enable-background:accumulate" />
      <rect
         style="opacity:0.1;color:#bebebe;fill:#000000;fill-opacity:1;fill-rule:nonzero;stroke:none;stroke-width:0;marker:none;visibility:visible;display:inline;overflow:visible;enable-background:accumulate"
         id="rect4124"
         width="88"
         height="88"
         x="292"
         y="33"
         ry="18" />
      <rect
         ry="12.5"
         y="143"
         x="290"
         height="60"
         width="60"
         id="rect4126"
         style="opacity:0.1;color:#bebebe;fill:#000000;fill-opacity:1;fill-rule:nonzero;stroke:none;stroke-width:0;marker:none;visibility:visible;display:inline;overflow:visible;enable-background:accumulate" />
      <path
         id="path4268"
         d="m 422,101 c -2.77,0 -5,2.23 -5,5 l 0,12 c 0,2.77 2.23,5 5,5 l 12,0 c 2.77,0 5,-2.23 5,-5 l 0,-12 c 0,-2.77 -2.23,-5 -5,-5 z"
         style="opacity:0.1;color:#bebebe;fill:#000000;fill-opacity:1;fill-rule:nonzero;stroke:none;stroke-width:0;marker:none;visibility:visible;display:inline;overflow:visible;enable-background:accumulate"
         inkscape:connector-curvature="0"
         sodipodi:nodetypes="sssssssss" />
      <path
         id="path4270"
         d="m 419,140 c -1.662,0 -3,1.338 -3,3 l 0,10 c 0,1.662 1.338,3 3,3 l 10,0 c 1.662,0 3,-1.338 3,-3 l 0,-10 c 0,-1.662 -1.338,-3 -3,-3 z"
         style="opacity:0.1;color:#bebebe;fill:#000000;fill-opacity:1;fill-rule:nonzero;stroke:none;stroke-width:0;marker:none;visibility:visible;display:inline;overflow:visible;enable-background:accumulate"
         inkscape:connector-curvature="0"
         sodipodi:nodetypes="sssssssss" />
    </g>
    <g
       inkscape:groupmode="layer"
       id="layer2"
       inkscape:label="Background"
       style="display:inline">
      <path
         style="color:#bebebe;fill:url(#linearGradient4254);fill-opacity:1.0;fill-rule:nonzero;stroke:none;stroke-width:2;marker:none;visibility:visible;display:inline;overflow:visible;enable-background:accumulate"
         d="M 84 46.5 C 56.568735 46.5 34.5 68.568732 34.5 96 L 34.5 216 C 34.5 243.43127 56.568735 265.5 84 265.5 L 204 265.5 C 231.43127 265.5 253.5 243.43127 253.5 216 L 253.5 96 C 253.5 68.568732 231.43127 46.5 204 46.5 L 84 46.5 z "
         id="path4200" />
      <path
         style="color:#bebebe;fill:url(#linearGradient4256);fill-opacity:1.0;fill-rule:nonzero;stroke:none;stroke-width:2;marker:none;visibility:visible;display:inline;overflow:visible;enable-background:accumulate"
         d="M 419 140.5 C 417.6156 140.5 416.5 141.6156 416.5 143 L 416.5 153 C 416.5 154.3844 417.6156 155.5 419 155.5 L 429 155.5 C 430.3844 155.5 431.5 154.3844 431.5 153 L 431.5 143 C 431.5 141.6156 430.3844 140.5 429 140.5 L 419 140.5 z "
         id="path4202" />
      <path
         style="color:#bebebe;fill:url(#linearGradient3870);fill-opacity:1.0;fill-rule:nonzero;stroke:none;stroke-width:2;marker:none;visibility:visible;display:inline;overflow:visible;enable-background:accumulate"
         d="M 422 101.5 C 419.50301 101.5 417.5 103.50301 417.5 106 L 417.5 118 C 417.5 120.49699 419.50301 122.5 422 122.5 L 434 122.5 C 436.49699 122.5 438.5 120.49699 438.5 118 L 438.5 106 C 438.5 103.50301 436.49699 101.5 434 101.5 L 422 101.5 z "
         id="path4204" />
      <path
         style="color:#bebebe;fill:url(#linearGradient4260);fill-opacity:1.0;fill-rule:nonzero;stroke:none;stroke-width:2;marker:none;visibility:visible;display:inline;overflow:visible;enable-background:accumulate"
         d="M 424 53.5 C 420.39346 53.5 417.5 56.393464 417.5 60 L 417.5 76 C 417.5 79.606536 420.39346 82.5 424 82.5 L 440 82.5 C 443.60654 82.5 446.5 79.606536 446.5 76 L 446.5 60 C 446.5 56.393464 443.60654 53.5 440 53.5 L 424 53.5 z "
         id="path4206" />
      <path
         style="color:#bebebe;fill:url(#linearGradient4262);fill-opacity:1.0;fill-rule:nonzero;stroke:none;stroke-width:2;marker:none;visibility:visible;display:inline;overflow:visible;enable-background:accumulate"
         d="M 300 223.5 C 295.28469 223.5 291.5 227.28469 291.5 232 L 291.5 256 C 291.5 260.71531 295.28469 264.5 300 264.5 L 324 264.5 C 328.71531 264.5 332.5 260.71531 332.5 256 L 332.5 232 C 332.5 227.28469 328.71531 223.5 324 223.5 L 300 223.5 z "
         id="path4208" />
      <path
         style="color:#bebebe;fill:url(#linearGradient4264);fill-opacity:1.0;fill-rule:nonzero;stroke:none;stroke-width:2;marker:none;visibility:visible;display:inline;overflow:visible;enable-background:accumulate"
         d="M 310 32.5 C 300.29745 32.5 292.5 40.297452 292.5 50 L 292.5 102 C 292.5 111.70255 300.29745 119.5 310 119.5 L 362 119.5 C 371.70255 119.5 379.5 111.70255 379.5 102 L 379.5 50 C 379.5 40.297452 371.70255 32.5 362 32.5 L 310 32.5 z "
         id="path4210" />
      <path
         style="color:#bebebe;fill:url(#linearGradient4266);fill-opacity:1.0;fill-rule:nonzero;stroke:none;stroke-width:2;marker:none;visibility:visible;display:inline;overflow:visible;enable-background:accumulate"
         d="M 302.5 142.5 C 295.84498 142.5 290.5 147.84498 290.5 154.5 L 290.5 189.5 C 290.5 196.15502 295.84498 201.5 302.5 201.5 L 337.5 201.5 C 344.15502 201.5 349.5 196.15502 349.5 189.5 L 349.5 154.5 C 349.5 147.84498 344.15502 142.5 337.5 142.5 L 302.5 142.5 z "
         id="path4212" />
    </g>
    <g
       inkscape:groupmode="layer"
       id="layer6"
       inkscape:label="Symbols"
       style="display:inline">
      <path
         inkscape:connector-curvature="0"
         style="opacity:0.2;fill:#000000;fill-opacity:1;fill-rule:nonzero;stroke:none;display:inline;enable-background:new"
         d="M 112.06772,87.072341 C 91.065064,87.072341 74,104.12248 74,125.10732 c 0,6.48137 1.595475,12.56087 4.46215,17.90281 -0.957049,4.50121 -1.394435,9.21689 -1.394435,14.00194 0,36.93253 29.967615,66.8746 66.932285,66.8746 4.78911,0 9.50874,-0.43683 14.01394,-1.39326 5.36471,2.88997 11.40008,4.45837 17.91834,4.45837 21.00266,0 38.06772,-17.05043 38.06772,-38.03526 0,-6.51255 -1.56975,-12.54253 -4.46215,-17.90282 0.95705,-4.5012 1.39443,-9.21689 1.39443,-14.00163 0,-36.93285 -29.96761,-66.87462 -66.93228,-66.87462 -4.79025,0 -9.50772,0.575837 -14.01394,1.532256 -5.3469,-2.86461 -11.43042,-4.597364 -17.91834,-4.597364 z m 30.60758,25.704899 c 21.89775,0 33.18724,11.55812 33.18724,18.3207 0,6.76259 -3.27052,7.87172 -8.6454,7.87172 -10.43299,0 -6.14782,-12.53903 -25.7271,-12.53903 -6.4848,0 -14.50199,2.90075 -14.50199,10.44929 0,6.05649 7.07247,8.28407 19.73107,11.35471 19.03081,5.09482 33.39642,10.25054 33.39642,27.65533 0,16.90647 -13.9389,25.35665 -35.83665,25.35665 -21.89778,0 -35.83668,-13.09097 -35.83668,-19.85356 0,-6.7623 2.64303,-8.49825 8.01795,-8.49825 10.43295,0 8.93664,14.21057 28.51593,14.21057 6.4848,0 16.03586,-2.90074 16.03586,-10.44899 0,-6.05648 -0.41576,-8.19692 -14.29283,-11.91218 -14.82568,-2.0198 -38.83466,-6.82612 -38.83466,-25.21707 0,-16.90647 12.89307,-26.74989 34.79084,-26.74989 z"
         id="path3080" />
      <path
         id="path3082"
         d="m 322.31474,47.037896 c -9.00114,0 -16.31474,7.3072 -16.31474,16.3007 0,2.77773 0.68377,5.38323 1.91235,7.672639 -0.41016,1.929091 -0.59762,3.950091 -0.59762,6.00083 0,15.82823 12.84327,28.660545 28.68527,28.660545 2.05248,0 4.07517,-0.18721 6.00597,-0.59711 2.29917,1.23856 4.88575,1.91073 7.67929,1.91073 9.00114,0 16.31474,-7.30733 16.31474,-16.300835 0,-2.79109 -0.67275,-5.37537 -1.91235,-7.67263 0.41016,-1.92909 0.59761,-3.9501 0.59761,-6.0007 0,-15.82837 -12.84326,-28.66055 -28.68526,-28.66055 -2.05296,0 -4.07474,0.24678 -6.00597,0.65668 -2.29153,-1.22769 -4.89876,-1.9703 -7.67929,-1.9703 z m 13.11753,11.01638 c 9.38475,0 14.2231,4.95348 14.2231,7.85173 0,2.89826 -1.40165,3.3736 -3.70517,3.3736 -4.47128,0 -2.63478,-5.37387 -11.0259,-5.37387 -2.7792,0 -6.21514,1.24318 -6.21514,4.47826 0,2.59564 3.03106,3.55032 8.45618,4.86631 8.15606,2.18349 14.31275,4.39309 14.31275,11.85228 0,7.24563 -5.97382,10.867144 -15.35857,10.867144 -9.38476,0 -15.35857,-5.610424 -15.35857,-8.508674 0,-2.89813 1.13272,-3.64211 3.43626,-3.64211 4.47127,0 3.82999,6.09025 12.22111,6.09025 2.7792,0 6.87252,-1.24318 6.87252,-4.47814 0,-2.59564 -0.17819,-3.51297 -6.1255,-5.10522 -6.35387,-0.86563 -16.64343,-2.92548 -16.64343,-10.80732 0,-7.24563 5.5256,-11.46424 14.91036,-11.46424 z"
         style="opacity:0.2;fill:#000000;fill-opacity:1;fill-rule:nonzero;stroke:none;display:inline;enable-background:new"
         inkscape:connector-curvature="0" />
      <path
         inkscape:connector-curvature="0"
         style="opacity:0.2;fill:#000000;fill-opacity:1;fill-rule:nonzero;stroke:none;display:inline;enable-background:new"
         d="m 310.87649,153.02928 c -6.00076,0 -10.87649,4.87147 -10.87649,10.86713 0,1.85182 0.45585,3.58882 1.2749,5.1151 -0.27344,1.28607 -0.39841,2.6334 -0.39841,4.00055 0,10.55215 8.56218,19.10703 19.12351,19.10703 1.36832,0 2.71678,-0.12479 4.00398,-0.39806 1.53278,0.8257 3.25717,1.27382 5.11953,1.27382 6.00076,0 10.87649,-4.87156 10.87649,-10.86724 0,-1.86071 -0.4485,-3.58358 -1.2749,-5.11508 0.27344,-1.28605 0.39841,-2.6334 0.39841,-4.00047 0,-10.55225 -8.56218,-19.10703 -19.12351,-19.10703 -1.36864,0 -2.71649,0.16452 -4.00398,0.43778 -1.52769,-0.81846 -3.26584,-1.31353 -5.11953,-1.31353 z m 8.74502,7.34425 c 6.2565,0 9.48207,3.30232 9.48207,5.23449 0,1.93217 -0.93443,2.24907 -2.47011,2.24907 -2.98086,0 -1.75652,-3.58258 -7.3506,-3.58258 -1.8528,0 -4.14343,0.82878 -4.14343,2.9855 0,1.73043 2.02071,2.36688 5.63745,3.24421 5.43738,1.45566 9.54184,2.92873 9.54184,7.90152 0,4.83042 -3.98255,7.24476 -10.23905,7.24476 -6.25651,0 -10.23905,-3.74028 -10.23905,-5.67245 0,-1.93208 0.75515,-2.42807 2.29084,-2.42807 2.98085,0 2.55333,4.06017 8.14741,4.06017 1.8528,0 4.58168,-0.82878 4.58168,-2.98543 0,-1.73043 -0.11879,-2.34198 -4.08367,-3.40348 -4.23591,-0.57709 -11.09562,-1.95032 -11.09562,-7.20488 0,-4.83042 3.68374,-7.64283 9.94024,-7.64283 z"
         id="path3084" />
      <path
         id="path3086"
         d="m 305.61354,231.02412 c -4.20053,0 -7.61354,3.41003 -7.61354,7.60699 0,1.29627 0.31909,2.51217 0.89243,3.58057 -0.19141,0.90024 -0.27889,1.84337 -0.27889,2.80038 0,7.3865 5.99353,13.37493 13.38646,13.37493 0.95782,0 1.90175,-0.0874 2.80279,-0.27866 1.07294,0.57799 2.28001,0.89167 3.58367,0.89167 4.20053,0 7.61354,-3.41009 7.61354,-7.60706 0,-1.3025 -0.31395,-2.50851 -0.89243,-3.58055 0.19141,-0.90024 0.27889,-1.84338 0.27889,-2.80033 0,-7.38658 -5.99353,-13.37493 -13.38646,-13.37493 -0.95805,0 -1.90154,0.11518 -2.80279,0.30646 -1.06938,-0.57293 -2.28608,-0.91947 -3.58367,-0.91947 z m 6.12152,5.14098 c 4.37955,0 6.63745,2.31163 6.63745,3.66415 0,1.35252 -0.65411,1.57436 -1.72908,1.57436 -2.0866,0 -1.22957,-2.50782 -5.14542,-2.50782 -1.29696,0 -2.9004,0.58014 -2.9004,2.08986 0,1.2113 1.4145,1.65682 3.94621,2.27095 3.80617,1.01896 6.67929,2.05011 6.67929,5.53106 0,3.38129 -2.78778,5.07132 -7.16733,5.07132 -4.37956,0 -7.16734,-2.61819 -7.16734,-3.9707 0,-1.35247 0.52861,-1.69965 1.60359,-1.69965 2.08659,0 1.78733,2.84212 5.70319,2.84212 1.29696,0 3.20717,-0.58017 3.20717,-2.0898 0,-1.2113 -0.0832,-1.63939 -2.85857,-2.38244 -2.96513,-0.40397 -7.76693,-1.36522 -7.76693,-5.04342 0,-3.3813 2.57862,-5.34998 6.95817,-5.34998 z"
         style="opacity:0.2;fill:#000000;fill-opacity:1;fill-rule:nonzero;stroke:none;display:inline;enable-background:new"
         inkscape:connector-curvature="0" />
      <path
         inkscape:connector-curvature="0"
         style="opacity:0.2;fill:#000000;fill-opacity:1;fill-rule:nonzero;stroke:none;display:inline;enable-background:new"
         d="m 427.43825,59.020674 c -3.00038,0 -5.43825,2.435733 -5.43825,5.433566 0,0.925911 0.22792,1.79441 0.63745,2.557547 -0.13672,0.643029 -0.19921,1.316697 -0.19921,2.000276 0,5.276079 4.28109,9.553519 9.56176,9.553519 0.68416,0 1.35839,-0.0624 2.00199,-0.19904 0.76639,0.412851 1.62858,0.63691 2.55976,0.63691 3.00038,0 5.43825,-2.435779 5.43825,-5.43361 0,-0.930366 -0.22425,-1.791793 -0.63745,-2.557546 0.13672,-0.64303 0.1992,-1.3167 0.1992,-2.000233 0,-5.276123 -4.28108,-9.553517 -9.56175,-9.553517 -0.68432,0 -1.35825,0.08226 -2.00199,0.218893 -0.76384,-0.40923 -1.63292,-0.656766 -2.55976,-0.656766 z m 4.37251,3.672127 c 3.12825,0 4.74103,1.65116 4.74103,2.617243 0,0.966087 -0.46722,1.124533 -1.23506,1.124533 -1.49042,0 -0.87826,-1.79129 -3.6753,-1.79129 -0.9264,0 -2.07171,0.414394 -2.07171,1.492754 0,0.865213 1.01035,1.18344 2.81873,1.622103 2.71868,0.72783 4.77091,1.464363 4.77091,3.95076 0,2.415209 -1.99127,3.622379 -5.11952,3.622379 -3.12825,0 -5.11952,-1.870141 -5.11952,-2.836223 0,-0.966044 0.37757,-1.214037 1.14542,-1.214037 1.49042,0 1.27666,2.030079 4.0737,2.030079 0.9264,0 2.29084,-0.414389 2.29084,-1.492709 0,-0.865213 -0.0594,-1.17099 -2.04183,-1.70174 -2.11796,-0.288543 -5.54781,-0.97516 -5.54781,-3.60244 0,-2.41521 1.84186,-3.821413 4.97012,-3.821413 z"
         id="path3088" />
      <path
         id="path3090"
         d="m 424.80678,106.01809 c -2.10027,0 -3.80678,1.70501 -3.80678,3.80349 0,0.64814 0.15955,1.25609 0.44621,1.79029 -0.0957,0.45011 -0.13944,0.92169 -0.13944,1.40019 0,3.69325 2.99676,6.68747 6.69323,6.68747 0.47891,0 0.95087,-0.0437 1.40139,-0.13934 0.53647,0.289 1.14001,0.44584 1.79183,0.44584 2.10027,0 3.80678,-1.70504 3.80678,-3.80353 0,-0.65125 -0.15698,-1.25425 -0.44622,-1.79028 0.0957,-0.45012 0.13944,-0.92169 0.13944,-1.40016 0,-3.69329 -2.99675,-6.68746 -6.69322,-6.68746 -0.47903,0 -0.95078,0.0576 -1.40139,0.15322 -0.53469,-0.28646 -1.14305,-0.45973 -1.79184,-0.45973 z m 3.06075,2.57048 c 2.18978,0 3.31872,1.15582 3.31872,1.83208 0,0.67625 -0.32705,0.78717 -0.86454,0.78717 -1.04329,0 -0.61478,-1.2539 -2.57271,-1.2539 -0.64848,0 -1.45019,0.29007 -1.45019,1.04492 0,0.60565 0.70724,0.82841 1.97311,1.13548 1.90307,0.50948 3.33963,1.02505 3.33963,2.76552 0,1.69065 -1.39389,2.53568 -3.58366,2.53568 -2.18978,0 -3.58366,-1.30911 -3.58366,-1.98536 0,-0.67624 0.26429,-0.84983 0.80179,-0.84983 1.04329,0 0.89366,1.42105 2.85159,1.42105 0.64848,0 1.60358,-0.29007 1.60358,-1.04489 0,-0.60565 -0.0416,-0.8197 -1.42927,-1.19122 -1.48258,-0.20198 -3.88347,-0.68261 -3.88347,-2.52171 0,-1.69065 1.2893,-2.67499 3.47908,-2.67499 z"
         style="opacity:0.2;fill:#000000;fill-opacity:1;fill-rule:nonzero;stroke:none;display:inline;enable-background:new"
         inkscape:connector-curvature="0" />
      <path
         inkscape:connector-curvature="0"
         style="opacity:0.2;fill:#000000;fill-opacity:1;fill-rule:nonzero;stroke:none;display:inline;enable-background:new"
         d="m 421.71912,144.01636 c -1.50019,0 -2.71912,1.21784 -2.71912,2.71676 0,0.46297 0.11397,0.89721 0.31872,1.27879 -0.0683,0.32149 -0.0996,0.65835 -0.0996,1.00013 0,2.63803 2.14055,4.77676 4.78088,4.77676 0.34207,0 0.67919,-0.0312 1.00099,-0.0995 0.38319,0.20643 0.81429,0.31846 1.27988,0.31846 1.5002,0 2.71913,-1.21788 2.71913,-2.71681 0,-0.46517 -0.11213,-0.89589 -0.31873,-1.27877 0.0683,-0.32151 0.0996,-0.65834 0.0996,-1.00011 0,-2.63807 -2.14054,-4.77676 -4.78087,-4.77676 -0.34217,0 -0.67913,0.0412 -1.00099,0.10944 -0.38193,-0.20462 -0.81647,-0.32837 -1.27989,-0.32837 z m 2.18625,1.83605 c 1.56414,0 2.37052,0.82559 2.37052,1.30862 0,0.48304 -0.23361,0.56228 -0.61752,0.56228 -0.74521,0 -0.43914,-0.89565 -1.83765,-0.89565 -0.4632,0 -1.03585,0.2072 -1.03585,0.74637 0,0.43261 0.50516,0.59173 1.40935,0.81106 1.35935,0.36392 2.38545,0.73217 2.38545,1.97537 0,1.2076 -0.99563,1.8112 -2.55975,1.8112 -1.56413,0 -2.55975,-0.93508 -2.55975,-1.41811 0,-0.48304 0.18877,-0.60703 0.5727,-0.60703 0.7452,0 0.63833,1.01504 2.03685,1.01504 0.4632,0 1.14541,-0.2072 1.14541,-0.74635 0,-0.4326 -0.0297,-0.5855 -1.02091,-0.85087 -1.05898,-0.14428 -2.7739,-0.48758 -2.7739,-1.80123 0,-1.2076 0.92093,-1.9107 2.48505,-1.9107 z"
         id="path3092" />
      <path
         id="path3818"
         d="M 112.06772,86.072281 C 91.065064,86.072281 74,103.12242 74,124.10726 c 0,6.48137 1.595475,12.56087 4.46215,17.90281 -0.957049,4.50121 -1.394435,9.21689 -1.394435,14.00194 0,36.93253 29.967615,66.8746 66.932285,66.8746 4.78911,0 9.50874,-0.43683 14.01394,-1.39326 5.36471,2.88997 11.40008,4.45837 17.91834,4.45837 21.00266,0 38.06772,-17.05043 38.06772,-38.03526 0,-6.51255 -1.56975,-12.54253 -4.46215,-17.90281 0.95705,-4.50122 1.39443,-9.2169 1.39443,-14.00164 0,-36.93285 -29.96761,-66.87462 -66.93228,-66.87462 -4.79025,0 -9.50772,0.575837 -14.01394,1.532256 -5.3469,-2.86461 -11.43042,-4.597364 -17.91834,-4.597364 z m 30.60758,25.704899 c 21.89775,0 33.18724,11.55812 33.18724,18.3207 0,6.76259 -3.27052,7.87172 -8.6454,7.87172 -10.43299,0 -6.14782,-12.53903 -25.7271,-12.53903 -6.4848,0 -14.50199,2.90075 -14.50199,10.44929 0,6.05649 7.07247,8.28407 19.73107,11.35471 19.03081,5.09482 33.39642,10.25054 33.39642,27.65533 0,16.90647 -13.9389,25.35665 -35.83665,25.35665 -21.89778,0 -35.83668,-13.09097 -35.83668,-19.85356 0,-6.76229 2.64303,-8.49824 8.01795,-8.49824 10.43295,0 8.93664,14.21056 28.51593,14.21056 6.4848,0 16.03586,-2.90074 16.03586,-10.44899 0,-6.05648 -0.41576,-8.19692 -14.29283,-11.91218 -14.82568,-2.0198 -38.83466,-6.82612 -38.83466,-25.21707 0,-16.90647 12.89307,-26.74989 34.79084,-26.74989 z"
         style="fill:#ffffff;fill-opacity:1;fill-rule:nonzero;stroke:none;display:inline;enable-background:new"
         inkscape:connector-curvature="0" />
      <path
         inkscape:connector-curvature="0"
         style="fill:#ffffff;fill-opacity:1;fill-rule:nonzero;stroke:none;display:inline;enable-background:new"
         d="m 322.31474,46.037836 c -9.00114,0 -16.31474,7.3072 -16.31474,16.3007 0,2.77773 0.68377,5.38323 1.91235,7.672639 -0.41016,1.929091 -0.59762,3.950091 -0.59762,6.00083 0,15.82823 12.84327,28.660545 28.68527,28.660545 2.05248,0 4.07517,-0.18721 6.00597,-0.59711 2.29917,1.23856 4.88575,1.91073 7.67929,1.91073 9.00114,0 16.31474,-7.30733 16.31474,-16.300835 0,-2.79109 -0.67275,-5.37537 -1.91235,-7.67263 0.41016,-1.92909 0.59761,-3.9501 0.59761,-6.0007 0,-15.82837 -12.84326,-28.66055 -28.68526,-28.66055 -2.05296,0 -4.07474,0.24678 -6.00597,0.65668 -2.29153,-1.22769 -4.89876,-1.9703 -7.67929,-1.9703 z m 13.11753,11.01638 c 9.38475,0 14.2231,4.95348 14.2231,7.85173 0,2.89826 -1.40165,3.3736 -3.70517,3.3736 -4.47128,0 -2.63478,-5.37387 -11.0259,-5.37387 -2.7792,0 -6.21514,1.24318 -6.21514,4.47826 0,2.59564 3.03106,3.55032 8.45618,4.86631 8.15606,2.18349 14.31275,4.39309 14.31275,11.85228 0,7.24563 -5.97382,10.86714 -15.35857,10.86714 -9.38476,0 -15.35857,-5.61042 -15.35857,-8.50867 0,-2.89813 1.13272,-3.64211 3.43626,-3.64211 4.47127,0 3.82999,6.09025 12.22111,6.09025 2.7792,0 6.87252,-1.24318 6.87252,-4.47814 0,-2.59564 -0.17819,-3.51297 -6.1255,-5.10522 -6.35387,-0.86563 -16.64343,-2.92548 -16.64343,-10.80732 0,-7.24563 5.5256,-11.46424 14.91036,-11.46424 z"
         id="path3073" />
      <path
         id="path3075"
         d="m 310.87649,152.02922 c -6.00076,0 -10.87649,4.87147 -10.87649,10.86713 0,1.85182 0.45585,3.58882 1.2749,5.1151 -0.27344,1.28606 -0.39841,2.63339 -0.39841,4.00055 0,10.55215 8.56218,19.10703 19.12351,19.10703 1.36832,0 2.71678,-0.1248 4.00398,-0.39807 1.53278,0.82571 3.25717,1.27382 5.11953,1.27382 6.00076,0 10.87649,-4.87156 10.87649,-10.86723 0,-1.86072 -0.4485,-3.58358 -1.2749,-5.11508 0.27344,-1.28606 0.39841,-2.6334 0.39841,-4.00047 0,-10.55225 -8.56218,-19.10703 -19.12351,-19.10703 -1.36864,0 -2.71649,0.16452 -4.00398,0.43778 -1.52769,-0.81846 -3.26584,-1.31353 -5.11953,-1.31353 z m 8.74502,7.34425 c 6.2565,0 9.48207,3.30232 9.48207,5.23449 0,1.93217 -0.93443,2.24907 -2.47011,2.24907 -2.98086,0 -1.75652,-3.58258 -7.3506,-3.58258 -1.8528,0 -4.14343,0.82878 -4.14343,2.9855 0,1.73043 2.02071,2.36688 5.63745,3.24421 5.43738,1.45566 9.54184,2.92873 9.54184,7.90152 0,4.83042 -3.98255,7.24476 -10.23905,7.24476 -6.25651,0 -10.23905,-3.74028 -10.23905,-5.67245 0,-1.93208 0.75515,-2.42807 2.29084,-2.42807 2.98085,0 2.55333,4.06017 8.14741,4.06017 1.8528,0 4.58168,-0.82879 4.58168,-2.98543 0,-1.73043 -0.11879,-2.34198 -4.08367,-3.40348 -4.23591,-0.57709 -11.09562,-1.95032 -11.09562,-7.20488 0,-4.83042 3.68374,-7.64283 9.94024,-7.64283 z"
         style="fill:#ffffff;fill-opacity:1;fill-rule:nonzero;stroke:none;display:inline;enable-background:new"
         inkscape:connector-curvature="0" />
      <path
         inkscape:connector-curvature="0"
         style="fill:#ffffff;fill-opacity:1;fill-rule:nonzero;stroke:none;display:inline;enable-background:new"
         d="m 305.61354,230.02406 c -4.20053,0 -7.61354,3.41003 -7.61354,7.60699 0,1.29627 0.31909,2.51217 0.89243,3.58057 -0.19141,0.90024 -0.27889,1.84337 -0.27889,2.80038 0,7.3865 5.99353,13.37494 13.38646,13.37494 0.95782,0 1.90175,-0.0874 2.80279,-0.27867 1.07294,0.57799 2.28001,0.89167 3.58367,0.89167 4.20053,0 7.61354,-3.41009 7.61354,-7.60706 0,-1.3025 -0.31395,-2.50851 -0.89243,-3.58055 0.19141,-0.90023 0.27889,-1.84337 0.27889,-2.80033 0,-7.38658 -5.99353,-13.37493 -13.38646,-13.37493 -0.95805,0 -1.90154,0.11518 -2.80279,0.30646 -1.06938,-0.57293 -2.28608,-0.91947 -3.58367,-0.91947 z m 6.12152,5.14098 c 4.37955,0 6.63745,2.31164 6.63745,3.66416 0,1.35252 -0.65411,1.57435 -1.72908,1.57435 -2.0866,0 -1.22957,-2.50781 -5.14542,-2.50781 -1.29696,0 -2.9004,0.58014 -2.9004,2.08985 0,1.2113 1.4145,1.65682 3.94621,2.27095 3.80617,1.01896 6.67929,2.05011 6.67929,5.53106 0,3.38129 -2.78778,5.07133 -7.16733,5.07133 -4.37956,0 -7.16734,-2.61819 -7.16734,-3.97071 0,-1.35246 0.52861,-1.69965 1.60359,-1.69965 2.08659,0 1.78733,2.84212 5.70319,2.84212 1.29696,0 3.20717,-0.58016 3.20717,-2.0898 0,-1.2113 -0.0832,-1.63939 -2.85857,-2.38244 -2.96513,-0.40396 -7.76693,-1.36522 -7.76693,-5.04342 0,-3.38129 2.57862,-5.34998 6.95817,-5.34998 z"
         id="path3077" />
      <path
         id="path3079"
         d="m 427.43825,58.020614 c -3.00038,0 -5.43825,2.435733 -5.43825,5.433566 0,0.925911 0.22792,1.79441 0.63745,2.557547 -0.13672,0.643029 -0.19921,1.316697 -0.19921,2.000276 0,5.276079 4.28109,9.553519 9.56176,9.553519 0.68416,0 1.35839,-0.0624 2.00199,-0.19904 0.76639,0.412851 1.62858,0.63691 2.55976,0.63691 3.00038,0 5.43825,-2.435779 5.43825,-5.43361 0,-0.930366 -0.22425,-1.791793 -0.63745,-2.557546 0.13672,-0.64303 0.1992,-1.3167 0.1992,-2.000233 0,-5.276123 -4.28108,-9.553517 -9.56175,-9.553517 -0.68432,0 -1.35825,0.08226 -2.00199,0.218893 -0.76384,-0.40923 -1.63292,-0.656766 -2.55976,-0.656766 z m 4.37251,3.672127 c 3.12825,0 4.74103,1.65116 4.74103,2.617243 0,0.966087 -0.46722,1.124533 -1.23506,1.124533 -1.49042,0 -0.87826,-1.79129 -3.6753,-1.79129 -0.9264,0 -2.07171,0.414394 -2.07171,1.492754 0,0.865213 1.01035,1.18344 2.81873,1.622103 2.71868,0.72783 4.77091,1.464363 4.77091,3.95076 0,2.415209 -1.99127,3.622379 -5.11952,3.622379 -3.12825,0 -5.11952,-1.870141 -5.11952,-2.836223 0,-0.966044 0.37757,-1.214037 1.14542,-1.214037 1.49042,0 1.27666,2.030079 4.0737,2.030079 0.9264,0 2.29084,-0.414389 2.29084,-1.492709 0,-0.865213 -0.0594,-1.17099 -2.04183,-1.70174 -2.11796,-0.288543 -5.54781,-0.97516 -5.54781,-3.60244 0,-2.41521 1.84186,-3.821413 4.97012,-3.821413 z"
         style="fill:#ffffff;fill-opacity:1;fill-rule:nonzero;stroke:none;display:inline;enable-background:new"
         inkscape:connector-curvature="0" />
      <path
         inkscape:connector-curvature="0"
         style="fill:#ffffff;fill-opacity:1;fill-rule:nonzero;stroke:none;display:inline;enable-background:new"
         d="m 424.80678,105.01803 c -2.10027,0 -3.80678,1.70501 -3.80678,3.80349 0,0.64814 0.15955,1.25609 0.44621,1.79029 -0.0957,0.45011 -0.13944,0.92169 -0.13944,1.40019 0,3.69325 2.99676,6.68747 6.69323,6.68747 0.47891,0 0.95087,-0.0437 1.40139,-0.13934 0.53647,0.289 1.14001,0.44584 1.79183,0.44584 2.10027,0 3.80678,-1.70504 3.80678,-3.80353 0,-0.65125 -0.15698,-1.25425 -0.44622,-1.79028 0.0957,-0.45012 0.13944,-0.92169 0.13944,-1.40016 0,-3.69329 -2.99675,-6.68746 -6.69322,-6.68746 -0.47903,0 -0.95078,0.0576 -1.40139,0.15322 -0.53469,-0.28646 -1.14305,-0.45973 -1.79184,-0.45973 z m 3.06075,2.57048 c 2.18978,0 3.31872,1.15582 3.31872,1.83208 0,0.67625 -0.32705,0.78717 -0.86454,0.78717 -1.04329,0 -0.61478,-1.2539 -2.57271,-1.2539 -0.64848,0 -1.45019,0.29007 -1.45019,1.04492 0,0.60565 0.70724,0.82841 1.97311,1.13548 1.90307,0.50948 3.33963,1.02505 3.33963,2.76552 0,1.69065 -1.39389,2.53568 -3.58366,2.53568 -2.18978,0 -3.58366,-1.30911 -3.58366,-1.98536 0,-0.67624 0.26429,-0.84983 0.80179,-0.84983 1.04329,0 0.89366,1.42105 2.85159,1.42105 0.64848,0 1.60358,-0.29007 1.60358,-1.04489 0,-0.60565 -0.0416,-0.8197 -1.42927,-1.19122 -1.48258,-0.20198 -3.88347,-0.68261 -3.88347,-2.52171 0,-1.69065 1.2893,-2.67499 3.47908,-2.67499 z"
         id="path3081" />
      <path
         id="path3083"
         d="m 421.71912,143.0163 c -1.50019,0 -2.71912,1.21784 -2.71912,2.71676 0,0.46297 0.11397,0.89721 0.31872,1.27879 -0.0683,0.32149 -0.0996,0.65835 -0.0996,1.00013 0,2.63803 2.14055,4.77676 4.78088,4.77676 0.34207,0 0.67919,-0.0312 1.00099,-0.0995 0.38319,0.20643 0.81429,0.31846 1.27988,0.31846 1.5002,0 2.71913,-1.21788 2.71913,-2.71681 0,-0.46517 -0.11213,-0.89589 -0.31873,-1.27877 0.0683,-0.32151 0.0996,-0.65834 0.0996,-1.00011 0,-2.63807 -2.14054,-4.77676 -4.78087,-4.77676 -0.34217,0 -0.67913,0.0412 -1.00099,0.10944 -0.38193,-0.20462 -0.81647,-0.32837 -1.27989,-0.32837 z m 2.18625,1.83605 c 1.56414,0 2.37052,0.82559 2.37052,1.30862 0,0.48304 -0.23361,0.56229 -0.61752,0.56229 -0.74521,0 -0.43914,-0.89566 -1.83765,-0.89566 -0.4632,0 -1.03585,0.2072 -1.03585,0.74637 0,0.43261 0.50516,0.59173 1.40935,0.81106 1.35935,0.36392 2.38545,0.73217 2.38545,1.97537 0,1.2076 -0.99563,1.8112 -2.55975,1.8112 -1.56413,0 -2.55975,-0.93508 -2.55975,-1.41811 0,-0.48304 0.18877,-0.60703 0.5727,-0.60703 0.7452,0 0.63833,1.01504 2.03685,1.01504 0.4632,0 1.14541,-0.2072 1.14541,-0.74635 0,-0.4326 -0.0297,-0.5855 -1.02091,-0.85087 -1.05898,-0.14428 -2.7739,-0.48758 -2.7739,-1.80123 0,-1.2076 0.92093,-1.9107 2.48505,-1.9107 z"
         style="fill:#ffffff;fill-opacity:1;fill-rule:nonzero;stroke:none;display:inline;enable-background:new"
         inkscape:connector-curvature="0" />
    </g>
    <g
       inkscape:groupmode="layer"
       id="layer5"
       inkscape:label="Highlights"
       style="display:inline"
       sodipodi:insensitive="true">
      <path
         style="opacity:0.12999998;color:#bebebe;fill:#ffffff;fill-opacity:1;fill-rule:nonzero;stroke:none;stroke-width:0;marker:none;visibility:visible;display:inline;overflow:visible;enable-background:accumulate"
         d="M 84,47 C 56.836703,47 35,68.836703 35,96 l 0,1 C 35,69.836703 56.836703,48 84,48 l 120,0 c 27.1633,0 49,21.836703 49,49 l 0,-1 C 253,68.836703 231.1633,47 204,47 L 84,47 z"
         id="rect3894"
         inkscape:connector-curvature="0" />
      <path
         style="opacity:0.12999998;color:#bebebe;fill:#ffffff;fill-opacity:1;fill-rule:nonzero;stroke:none;stroke-width:0;marker:none;visibility:visible;display:inline;overflow:visible;enable-background:accumulate"
         d="m 419,141 c -1.1253,0 -2,0.8747 -2,2 l 0,1 c 0,-1.1253 0.8747,-2 2,-2 l 10,0 c 1.1253,0 2,0.8747 2,2 l 0,-1 c 0,-1.1253 -0.8747,-2 -2,-2 l -10,0 z"
         id="rect3896"
         inkscape:connector-curvature="0" />
      <path
         style="opacity:0.12999998;color:#bebebe;fill:#ffffff;fill-opacity:1;fill-rule:nonzero;stroke:none;stroke-width:0;marker:none;visibility:visible;display:inline;overflow:visible;enable-background:accumulate"
         d="m 422,102 c -2.2333,0 -4,1.7667 -4,4 l 0,1 c 0,-2.2333 1.7667,-4 4,-4 l 12,0 c 2.2333,0 4,1.7667 4,4 l 0,-1 c 0,-2.2333 -1.7667,-4 -4,-4 l -12,0 z"
         id="rect3898"
         inkscape:connector-curvature="0" />
      <path
         style="opacity:0.12999998;color:#bebebe;fill:#ffffff;fill-opacity:1;fill-rule:nonzero;stroke:none;stroke-width:0;marker:none;visibility:visible;display:inline;overflow:visible;enable-background:accumulate"
         d="m 424,54 c -3.3413,0 -6,2.658703 -6,6 l 0,1 c 0,-3.341297 2.6587,-6 6,-6 l 16,0 c 3.3413,0 6,2.658703 6,6 l 0,-1 c 0,-3.341297 -2.6587,-6 -6,-6 l -16,0 z"
         id="rect3900"
         inkscape:connector-curvature="0" />
      <path
         style="opacity:0.12999998;color:#bebebe;fill:#ffffff;fill-opacity:1;fill-rule:nonzero;stroke:none;stroke-width:0;marker:none;visibility:visible;display:inline;overflow:visible;enable-background:accumulate"
         d="m 300,224 c -4.4493,0 -8,3.5507 -8,8 l 0,1 c 0,-4.4493 3.5507,-8 8,-8 l 24,0 c 4.4493,0 8,3.5507 8,8 l 0,-1 c 0,-4.4493 -3.5507,-8 -8,-8 l -24,0 z"
         id="rect3902"
         inkscape:connector-curvature="0" />
      <path
         style="opacity:0.12999998;color:#bebebe;fill:#ffffff;fill-opacity:1;fill-rule:nonzero;stroke:none;stroke-width:0;marker:none;visibility:visible;display:inline;overflow:visible;enable-background:accumulate"
         d="m 310,33 c -9.4353,0 -17,7.564703 -17,17 l 0,1 c 0,-9.435297 7.5647,-17 17,-17 l 52,0 c 9.4353,0 17,7.564703 17,17 l 0,-1 c 0,-9.435297 -7.5647,-17 -17,-17 l -52,0 z"
         id="rect3904"
         inkscape:connector-curvature="0" />
      <path
         style="opacity:0.12999998;color:#bebebe;fill:#ffffff;fill-opacity:1;fill-rule:nonzero;stroke:none;stroke-width:0;marker:none;visibility:visible;display:inline;overflow:visible;enable-background:accumulate"
         d="m 302.5,143 c -6.3883,0 -11.5,5.1117 -11.5,11.5 l 0,1 c 0,-6.3883 5.1117,-11.5 11.5,-11.5 l 35,0 c 6.3883,0 11.5,5.1117 11.5,11.5 l 0,-1 c 0,-6.3883 -5.1117,-11.5 -11.5,-11.5 l -35,0 z"
         id="rect3906"
         inkscape:connector-curvature="0" />
      <path
         id="path4085"
         d="m 204,266 c 27.1633,0 49,-21.8367 49,-49 l 0,-1 c 0,27.1633 -21.8367,49 -49,49 L 84,265 C 56.8367,265 35,243.1633 35,216 l 0,1 c 0,27.1633 21.8367,49 49,49 l 120,0 z"
         style="opacity:0.5;color:#bebebe;fill:#000000;fill-opacity:1;fill-rule:nonzero;stroke:none;stroke-width:0;marker:none;visibility:visible;display:inline;overflow:visible;enable-background:accumulate"
         inkscape:connector-curvature="0" />
      <path
         id="path4087"
         d="m 429,156 c 1.1253,0 2,-0.8747 2,-2 l 0,-1 c 0,1.1253 -0.8747,2 -2,2 l -10,0 c -1.1253,0 -2,-0.8747 -2,-2 l 0,1 c 0,1.1253 0.8747,2 2,2 l 10,0 z"
         style="opacity:0.3;color:#bebebe;fill:#000000;fill-opacity:1;fill-rule:nonzero;stroke:none;stroke-width:0;marker:none;visibility:visible;display:inline;overflow:visible;enable-background:accumulate"
         inkscape:connector-curvature="0" />
      <path
         id="path4089"
         d="m 434,123 c 2.2333,0 4,-1.7667 4,-4 l 0,-1 c 0,2.2333 -1.7667,4 -4,4 l -12,0 c -2.2333,0 -4,-1.7667 -4,-4 l 0,1 c 0,2.2333 1.7667,4 4,4 l 12,0 z"
         style="opacity:0.3;color:#bebebe;fill:#000000;fill-opacity:1;fill-rule:nonzero;stroke:none;stroke-width:0;marker:none;visibility:visible;display:inline;overflow:visible;enable-background:accumulate"
         inkscape:connector-curvature="0" />
      <path
         id="path4091"
         d="m 440,83 c 3.3413,0 6,-2.6587 6,-6 l 0,-1 c 0,3.3413 -2.6587,6 -6,6 l -16,0 c -3.3413,0 -6,-2.6587 -6,-6 l 0,1 c 0,3.3413 2.6587,6 6,6 l 16,0 z"
         style="opacity:0.5;color:#bebebe;fill:#000000;fill-opacity:1;fill-rule:nonzero;stroke:none;stroke-width:0;marker:none;visibility:visible;display:inline;overflow:visible;enable-background:accumulate"
         inkscape:connector-curvature="0" />
      <path
         id="path4093"
         d="m 324,265 c 4.4493,0 8,-3.5507 8,-8 l 0,-1 c 0,4.4493 -3.5507,8 -8,8 l -24,0 c -4.4493,0 -8,-3.5507 -8,-8 l 0,1 c 0,4.4493 3.5507,8 8,8 l 24,0 z"
         style="opacity:0.5;color:#bebebe;fill:#000000;fill-opacity:1;fill-rule:nonzero;stroke:none;stroke-width:0;marker:none;visibility:visible;display:inline;overflow:visible;enable-background:accumulate"
         inkscape:connector-curvature="0" />
      <path
         id="path4095"
         d="m 362,120 c 9.4353,0 17,-7.5647 17,-17 l 0,-1 c 0,9.4353 -7.5647,17 -17,17 l -52,0 c -9.4353,0 -17,-7.5647 -17,-17 l 0,1 c 0,9.4353 7.5647,17 17,17 l 52,0 z"
         style="opacity:0.5;color:#bebebe;fill:#000000;fill-opacity:1;fill-rule:nonzero;stroke:none;stroke-width:0;marker:none;visibility:visible;display:inline;overflow:visible;enable-background:accumulate"
         inkscape:connector-curvature="0" />
      <path
         id="path4097"
         d="m 337.5,202 c 6.3883,0 11.5,-5.1117 11.5,-11.5 l 0,-1 c 0,6.3883 -5.1117,11.5 -11.5,11.5 l -35,0 c -6.3883,0 -11.5,-5.1117 -11.5,-11.5 l 0,1 c 0,6.3883 5.1117,11.5 11.5,11.5 l 35,0 z"
         style="opacity:0.5;color:#bebebe;fill:#000000;fill-opacity:1;fill-rule:nonzero;stroke:none;stroke-width:0;marker:none;visibility:visible;display:inline;overflow:visible;enable-background:accumulate"
         inkscape:connector-curvature="0" />
      <path
         inkscape:connector-curvature="0"
         id="path4280"
         d="M 84,265 C 56.836703,265 35,243.1633 35,216 l 0,-1 c 0,27.1633 21.836703,49 49,49 l 120,0 c 27.1633,0 49,-21.8367 49,-49 l 0,1 c 0,27.1633 -21.8367,49 -49,49 l -120,0 z"
         style="opacity:0.1;color:#bebebe;fill:#ffffff;fill-opacity:1;fill-rule:nonzero;stroke:none;stroke-width:0;marker:none;visibility:visible;display:inline;overflow:visible;enable-background:accumulate" />
      <path
         style="opacity:0.1;color:#bebebe;fill:#ffffff;fill-opacity:1;fill-rule:nonzero;stroke:none;stroke-width:0;marker:none;visibility:visible;display:inline;overflow:visible;enable-background:accumulate"
         d="m 300,264 c -4.4493,0 -8,-3.5507 -8,-8 l 0,-1 c 0,4.4493 3.5507,8 8,8 l 24,0 c 4.4493,0 8,-3.5507 8,-8 l 0,1 c 0,4.4493 -3.5507,8 -8,8 l -24,0 z"
         id="path4294"
         inkscape:connector-curvature="0" />
      <path
         style="opacity:0.1;color:#bebebe;fill:#ffffff;fill-opacity:1;fill-rule:nonzero;stroke:none;stroke-width:0;marker:none;visibility:visible;display:inline;overflow:visible;enable-background:accumulate"
         d="m 302.5,201 c -6.3883,0 -11.5,-5.1117 -11.5,-11.5 l 0,-1 c 0,6.3883 5.1117,11.5 11.5,11.5 l 35,0 c 6.3883,0 11.5,-5.1117 11.5,-11.5 l 0,1 c 0,6.3883 -5.1117,11.5 -11.5,11.5 l -35,0 z"
         id="path4296"
         inkscape:connector-curvature="0" />
      <path
         style="opacity:0.1;color:#bebebe;fill:#ffffff;fill-opacity:1;fill-rule:nonzero;stroke:none;stroke-width:0;marker:none;visibility:visible;display:inline;overflow:visible;enable-background:accumulate"
         d="m 310,119 c -9.4353,0 -17,-7.5647 -17,-17 l 0,-1 c 0,9.4353 7.5647,17 17,17 l 52,0 c 9.4353,0 17,-7.5647 17,-17 l 0,1 c 0,9.4353 -7.5647,17 -17,17 l -52,0 z"
         id="path4298"
         inkscape:connector-curvature="0" />
      <path
         style="opacity:0.1;color:#bebebe;fill:#ffffff;fill-opacity:1;fill-rule:nonzero;stroke:none;stroke-width:0;marker:none;visibility:visible;display:inline;overflow:visible;enable-background:accumulate"
         d="m 424,82 c -3.3413,0 -6,-2.658703 -6,-6 l 0,-1 c 0,3.341297 2.6587,6 6,6 l 16,0 c 3.3413,0 6,-2.658703 6,-6 l 0,1 c 0,3.341297 -2.6587,6 -6,6 l -16,0 z"
         id="path4300"
         inkscape:connector-curvature="0" />
      <path
         style="opacity:0.1;color:#bebebe;fill:#ffffff;fill-opacity:1;fill-rule:nonzero;stroke:none;stroke-width:0;marker:none;visibility:visible;display:inline;overflow:visible;enable-background:accumulate"
         d="m 422,122 c -2.2333,0 -4,-1.7667 -4,-4 l 0,-1 c 0,2.2333 1.7667,4 4,4 l 12,0 c 2.2333,0 4,-1.7667 4,-4 l 0,1 c 0,2.2333 -1.7667,4 -4,4 l -12,0 z"
         id="path4302"
         inkscape:connector-curvature="0" />
      <path
         style="opacity:0.1;color:#bebebe;fill:#ffffff;fill-opacity:1;fill-rule:nonzero;stroke:none;stroke-width:0;marker:none;visibility:visible;display:inline;overflow:visible;enable-background:accumulate"
         d="m 419,154.5 c -1.1253,0 -2,-0.8747 -2,-2 l 0,-1 c 0,1.1253 0.8747,2 2,2 l 10,0 c 1.1253,0 2,-0.8747 2,-2 l 0,1 c 0,1.1253 -0.8747,2 -2,2 l -10,0 z"
         id="path4304"
         inkscape:connector-curvature="0" />
    </g>
    <g
       inkscape:groupmode="layer"
       id="layer3"
       inkscape:label="Border"
       style="display:inline"
       sodipodi:insensitive="true">
      <path
         style="opacity:0.41000001;color:#bebebe;fill:#000000;fill-opacity:1;fill-rule:nonzero;stroke:none;stroke-width:0;marker:none;visibility:visible;display:inline;overflow:visible;enable-background:accumulate"
         d="m 422,101 c -2.77,0 -5,2.23 -5,5 l 0,12 c 0,2.77 2.23,5 5,5 l 12,0 c 2.77,0 5,-2.23 5,-5 l 0,-12 c 0,-2.77 -2.23,-5 -5,-5 l -12,0 z m 0,1 12,0 c 2.2333,0 4,1.7667 4,4 l 0,12 c 0,2.2333 -1.7667,4 -4,4 l -12,0 c -2.2333,0 -4,-1.7667 -4,-4 l 0,-12 c 0,-2.2333 1.7667,-4 4,-4 z"
         id="rect4099"
         inkscape:connector-curvature="0" />
      <path
         style="opacity:0.41000001;color:#bebebe;fill:#000000;fill-opacity:1;fill-rule:nonzero;stroke:none;stroke-width:0;marker:none;visibility:visible;display:inline;overflow:visible;enable-background:accumulate"
         d="m 424,53 c -3.878,0 -7,3.122 -7,7 l 0,16 c 0,3.878 3.122,7 7,7 l 16,0 c 3.878,0 7,-3.122 7,-7 l 0,-16 c 0,-3.878 -3.122,-7 -7,-7 l -16,0 z m 0,1 16,0 c 3.3413,0 6,2.658703 6,6 l 0,16 c 0,3.341297 -2.6587,6 -6,6 l -16,0 c -3.3413,0 -6,-2.658703 -6,-6 l 0,-16 c 0,-3.341297 2.6587,-6 6,-6 z"
         id="rect4151"
         inkscape:connector-curvature="0" />
      <path
         style="opacity:0.41000001;color:#bebebe;fill:#000000;fill-opacity:1;fill-rule:nonzero;stroke:none;stroke-width:0;marker:none;visibility:visible;display:inline;overflow:visible;enable-background:accumulate"
         d="m 419,140 c -1.662,0 -3,1.338 -3,3 l 0,10 c 0,1.662 1.338,3 3,3 l 10,0 c 1.662,0 3,-1.338 3,-3 l 0,-10 c 0,-1.662 -1.338,-3 -3,-3 l -10,0 z m 0,1 10,0 c 1.1253,0 2,0.8747 2,2 l 0,10 c 0,1.1253 -0.8747,2 -2,2 l -10,0 c -1.1253,0 -2,-0.8747 -2,-2 l 0,-10 c 0,-1.1253 0.8747,-2 2,-2 z"
         id="rect4095"
         inkscape:connector-curvature="0" />
      <path
         style="opacity:0.41000001;color:#bebebe;fill:#000000;fill-opacity:1;fill-rule:nonzero;stroke:none;stroke-width:0;marker:none;visibility:visible;display:inline;overflow:visible;enable-background:accumulate"
         d="m 300,223 c -4.986,0 -9,4.014 -9,9 l 0,24 c 0,4.986 4.014,9 9,9 l 24,0 c 4.986,0 9,-4.014 9,-9 l 0,-24 c 0,-4.986 -4.014,-9 -9,-9 l -24,0 z m 0,1 24,0 c 4.4493,0 8,3.5507 8,8 l 0,24 c 0,4.4493 -3.5507,8 -8,8 l -24,0 c -4.4493,0 -8,-3.5507 -8,-8 l 0,-24 c 0,-4.4493 3.5507,-8 8,-8 z"
         id="rect4783"
         inkscape:connector-curvature="0" />
      <path
         style="opacity:0.41000001;color:#bebebe;fill:#000000;fill-opacity:1;fill-rule:nonzero;stroke:none;stroke-width:0;marker:none;visibility:visible;display:inline;overflow:visible;enable-background:accumulate"
         d="m 302.5,142 c -6.925,0 -12.5,5.575 -12.5,12.5 l 0,35 c 0,6.925 5.575,12.5 12.5,12.5 l 35,0 c 6.925,0 12.5,-5.575 12.5,-12.5 l 0,-35 c 0,-6.925 -5.575,-12.5 -12.5,-12.5 l -35,0 z m 0,1 35,0 c 6.3883,0 11.5,5.1117 11.5,11.5 l 0,35 c 0,6.3883 -5.1117,11.5 -11.5,11.5 l -35,0 c -6.3883,0 -11.5,-5.1117 -11.5,-11.5 l 0,-35 c 0,-6.3883 5.1117,-11.5 11.5,-11.5 z"
         id="rect4515"
         inkscape:connector-curvature="0" />
      <path
         style="opacity:0.41000001;color:#bebebe;fill:#000000;fill-opacity:1;fill-rule:nonzero;stroke:none;stroke-width:0;marker:none;visibility:visible;display:inline;overflow:visible;enable-background:accumulate"
         d="m 310,32 c -9.972,0 -18,8.028 -18,18 l 0,52 c 0,9.972 8.028,18 18,18 l 52,0 c 9.972,0 18,-8.028 18,-18 l 0,-52 c 0,-9.972 -8.028,-18 -18,-18 l -52,0 z m 0,1 52,0 c 9.4353,0 17,7.564703 17,17 l 0,52 c 0,9.4353 -7.5647,17 -17,17 l -52,0 c -9.4353,0 -17,-7.5647 -17,-17 l 0,-52 c 0,-9.435297 7.5647,-17 17,-17 z"
         id="rect4511"
         inkscape:connector-curvature="0" />
      <path
         style="opacity:0.41000001;color:#bebebe;fill:#000000;fill-opacity:1;fill-rule:nonzero;stroke:none;stroke-width:0;marker:none;visibility:visible;display:inline;overflow:visible;enable-background:accumulate"
         d="M 84,46 C 56.3,46 34,68.3 34,96 l 0,120 c 0,27.7 22.3,50 50,50 l 120,0 c 27.7,0 50,-22.3 50,-50 L 254,96 C 254,68.3 231.7,46 204,46 L 84,46 z m 0,1 120,0 c 27.1633,0 49,21.836703 49,49 l 0,120 c 0,27.1633 -21.8367,49 -49,49 L 84,265 C 56.836703,265 35,243.1633 35,216 L 35,96 C 35,68.836703 56.836703,47 84,47 z"
         id="rect4040"
         inkscape:connector-curvature="0" />
    </g>
  </g>
</svg>
