<?xml version="1.0" encoding="UTF-8" standalone="no"?>
<!-- Created with Inkscape (http://www.inkscape.org/) -->

<svg
   xmlns:dc="http://purl.org/dc/elements/1.1/"
   xmlns:cc="http://creativecommons.org/ns#"
   xmlns:rdf="http://www.w3.org/1999/02/22-rdf-syntax-ns#"
   xmlns:svg="http://www.w3.org/2000/svg"
   xmlns="http://www.w3.org/2000/svg"
   xmlns:xlink="http://www.w3.org/1999/xlink"
   xmlns:sodipodi="http://sodipodi.sourceforge.net/DTD/sodipodi-0.dtd"
   xmlns:inkscape="http://www.inkscape.org/namespaces/inkscape"
   inkscape:export-ydpi="90.000000"
   inkscape:export-xdpi="90.000000"
   width="480"
   height="300"
   id="svg11300"
   sodipodi:version="0.32"
   inkscape:version="0.48.4 r9939"
   sodipodi:docname="aisleriot.svg"
   inkscape:output_extension="org.inkscape.output.svg.inkscape"
   version="1.0"
   style="display:inline;enable-background:new"
   inkscape:export-filename="/home/sam/moka2-template.png">
  <sodipodi:namedview
     stroke="#ef2929"
     fill="#f57900"
     id="base"
     pagecolor="#ffffff"
     bordercolor="#666666"
     borderopacity="0.25490196"
     inkscape:pageopacity="0"
     inkscape:pageshadow="2"
     inkscape:zoom="1"
     inkscape:cx="415.05744"
     inkscape:cy="171.74767"
     inkscape:current-layer="layer6"
     showgrid="false"
     inkscape:grid-bbox="true"
     inkscape:document-units="px"
     inkscape:showpageshadow="false"
     inkscape:window-width="1364"
     inkscape:window-height="701"
     inkscape:window-x="0"
     inkscape:window-y="27"
     width="400px"
     height="300px"
     inkscape:snap-nodes="true"
     inkscape:snap-bbox="true"
     gridtolerance="10000"
     inkscape:object-nodes="true"
     inkscape:snap-grids="true"
     showguides="true"
     inkscape:guide-bbox="true"
     inkscape:window-maximized="1"
     inkscape:bbox-nodes="true"
     inkscape:bbox-paths="true"
     inkscape:snap-bbox-edge-midpoints="true"
     inkscape:snap-bbox-midpoints="true">
    <inkscape:grid
       spacingy="1px"
       spacingx="1px"
       id="grid5883"
       type="xygrid"
       enabled="true"
       visible="true"
       empspacing="4"
       snapvisiblegridlinesonly="true"
       dotted="false"
       color="#000000"
       opacity="0.1254902"
       empcolor="#203ef3"
       empopacity="0.36470588" />
    <inkscape:grid
       type="xygrid"
       id="grid11592"
       empspacing="8"
       visible="true"
       enabled="false"
       spacingx="0.5px"
       spacingy="0.5px"
       color="#ff0000"
       opacity="0.1254902"
       empcolor="#ff0000"
       empopacity="0.25098039"
       snapvisiblegridlinesonly="true"
       dotted="true" />
  </sodipodi:namedview>
  <defs
     id="defs3">
    <linearGradient
       id="outerBackgroundGradient">
      <stop
         style="stop-color:#d43f3f;stop-opacity:1"
         offset="0"
         id="stop3864-8-6" />
      <stop
         style="stop-color:#ee5656;stop-opacity:1"
         offset="1"
         id="stop3866-9-1" />
    </linearGradient>
    <linearGradient
       inkscape:collect="always"
       xlink:href="#outerBackgroundGradient"
       id="linearGradient4097"
       gradientUnits="userSpaceOnUse"
       x1="264"
       y1="280.00003"
       x2="264"
       y2="40.00005"
       gradientTransform="matrix(0.06666667,0,0,0.06666667,414.4,137.33333)" />
    <linearGradient
       inkscape:collect="always"
       xlink:href="#outerBackgroundGradient"
       id="linearGradient4101"
       gradientUnits="userSpaceOnUse"
       gradientTransform="matrix(0.0875,0,0,0.0875,414.9,97.5)"
       x1="286.85715"
       y1="302.85715"
       x2="286.85715"
       y2="28.571428" />
    <linearGradient
       inkscape:collect="always"
       xlink:href="#outerBackgroundGradient"
       id="linearGradient4153"
       gradientUnits="userSpaceOnUse"
       gradientTransform="matrix(0.11931818,0,0,0.11931818,414.13636,48.22727)"
       x1="283.80957"
       y1="299.80954"
       x2="283.80957"
       y2="31.61907" />
    <linearGradient
       inkscape:collect="always"
       xlink:href="#outerBackgroundGradient"
       id="linearGradient4869"
       gradientUnits="userSpaceOnUse"
       gradientTransform="matrix(0.175,0,0,-0.175,286.79999,-215.99997)"
       x1="281.14291"
       y1="297.14304"
       x2="281.14291"
       y2="22.857315" />
    <clipPath
       clipPathUnits="userSpaceOnUse"
       id="clipPath4891">
      <rect
         ry="9"
         y="223"
         x="307"
         height="42"
         width="42"
         id="rect4893"
         style="color:#bebebe;fill:url(#linearGradient4895);fill-opacity:1;fill-rule:nonzero;stroke:none;stroke-width:0;marker:none;visibility:visible;display:inline;overflow:visible;enable-background:accumulate"
         transform="matrix(0,1,-1,0,0,0)" />
    </clipPath>
    <linearGradient
       inkscape:collect="always"
       xlink:href="#outerBackgroundGradient"
       id="linearGradient4895"
       gradientUnits="userSpaceOnUse"
       gradientTransform="matrix(0.175,0,0,0.175,302.79999,215.99997)"
       x1="144.00006"
       y1="280.00018"
       x2="144.00006"
       y2="40.000172" />
    <clipPath
       clipPathUnits="userSpaceOnUse"
       id="clipPath4044">
      <rect
         ry="4"
         y="85"
         x="433"
         height="22"
         width="22"
         id="rect4046"
         style="color:#bebebe;fill:url(#linearGradient4048);fill-opacity:1;fill-rule:nonzero;stroke:none;stroke-width:0;marker:none;visibility:visible;display:inline;overflow:visible;enable-background:accumulate" />
    </clipPath>
    <linearGradient
       inkscape:collect="always"
       xlink:href="#outerBackgroundGradient"
       id="linearGradient4048"
       gradientUnits="userSpaceOnUse"
       gradientTransform="matrix(0.0875,0,0,0.0875,430.9,81.499996)"
       x1="149.71428"
       y1="291.42862"
       x2="149.71428"
       y2="40.000046" />
    <clipPath
       clipPathUnits="userSpaceOnUse"
       id="clipPath4089">
      <rect
         style="color:#bebebe;fill:url(#linearGradient4093);fill-opacity:1;fill-rule:nonzero;stroke:none;stroke-width:0;marker:none;visibility:visible;display:inline;overflow:visible;enable-background:accumulate"
         id="rect4091"
         width="30"
         height="30"
         x="433"
         y="37"
         ry="6" />
    </clipPath>
    <linearGradient
       inkscape:collect="always"
       xlink:href="#outerBackgroundGradient"
       id="linearGradient4093"
       gradientUnits="userSpaceOnUse"
       gradientTransform="matrix(0.11931818,0,0,0.11931818,430.13636,32.227267)"
       x1="149.71432"
       y1="291.42862"
       x2="149.71432"
       y2="40.00005" />
    <clipPath
       clipPathUnits="userSpaceOnUse"
       id="clipPath3855">
      <rect
         style="color:#bebebe;fill:url(#linearGradient3859);fill-opacity:1;fill-rule:nonzero;stroke:none;stroke-width:0;marker:none;visibility:visible;display:inline;overflow:visible;enable-background:accumulate"
         id="rect3857"
         width="16"
         height="16"
         x="304"
         y="212"
         ry="3"
         transform="matrix(0,1,-1,0,0,0)" />
    </clipPath>
    <linearGradient
       inkscape:collect="always"
       xlink:href="#outerBackgroundGradient"
       id="linearGradient3859"
       gradientUnits="userSpaceOnUse"
       gradientTransform="matrix(0.06666667,0,0,0.06666667,302.4,209.33333)"
       x1="144"
       y1="280.00003"
       x2="144"
       y2="40.00005" />
    <clipPath
       clipPathUnits="userSpaceOnUse"
       id="clipPath3862">
      <rect
         ry="50"
         y="46"
         x="34"
         height="220"
         width="220"
         id="rect3864"
         style="color:#bebebe;fill:url(#linearGradient3866);fill-opacity:1;fill-rule:nonzero;stroke:none;stroke-width:0;marker:none;visibility:visible;display:inline;overflow:visible;enable-background:accumulate" />
    </clipPath>
    <linearGradient
       inkscape:collect="always"
       xlink:href="#outerBackgroundGradient"
       id="linearGradient3866"
       gradientUnits="userSpaceOnUse"
       gradientTransform="translate(0,-4)"
       x1="144"
       y1="280"
       x2="144"
       y2="40" />
    <linearGradient
       inkscape:collect="always"
       xlink:href="#outerBackgroundGradient"
       id="linearGradient3876"
       gradientUnits="userSpaceOnUse"
       gradientTransform="translate(0,-4)"
       x1="272"
       y1="288"
       x2="272"
       y2="32" />
    <clipPath
       clipPathUnits="userSpaceOnUse"
       id="clipPath4187">
      <rect
         ry="12.5"
         y="142"
         x="290"
         height="60"
         width="60"
         id="rect4189"
         style="color:#bebebe;fill:url(#linearGradient4191);fill-opacity:1;fill-rule:nonzero;stroke:none;stroke-width:0;marker:none;visibility:visible;display:inline;overflow:visible;enable-background:accumulate" />
    </clipPath>
    <linearGradient
       inkscape:collect="always"
       xlink:href="#outerBackgroundGradient"
       id="linearGradient4191"
       gradientUnits="userSpaceOnUse"
       x1="352"
       y1="204"
       x2="352"
       y2="140" />
    <linearGradient
       inkscape:collect="always"
       xlink:href="#outerBackgroundGradient"
       id="linearGradient4197"
       gradientUnits="userSpaceOnUse"
       x1="384"
       y1="124"
       x2="384"
       y2="28" />
    <linearGradient
       inkscape:collect="always"
       xlink:href="#outerBackgroundGradient"
       id="linearGradient4199"
       gradientUnits="userSpaceOnUse"
       x1="352"
       y1="204"
       x2="352"
       y2="140" />
    <clipPath
       clipPathUnits="userSpaceOnUse"
       id="clipPath4346">
      <rect
         style="color:#bebebe;fill:url(#linearGradient4350);fill-opacity:1;fill-rule:nonzero;stroke:none;stroke-width:0;marker:none;visibility:visible;display:inline;overflow:visible;enable-background:accumulate"
         id="rect4348"
         width="88"
         height="88"
         x="292"
         y="32"
         ry="18" />
    </clipPath>
    <linearGradient
       inkscape:collect="always"
       xlink:href="#outerBackgroundGradient"
       id="linearGradient4350"
       gradientUnits="userSpaceOnUse"
       x1="384"
       y1="124"
       x2="384"
       y2="28" />
    <clipPath
       clipPathUnits="userSpaceOnUse"
       id="clipPath3871">
      <rect
         ry="5"
         y="101"
         x="417"
         height="22"
         width="22"
         id="rect3873"
         style="color:#bebebe;fill:url(#linearGradient3875);fill-opacity:1;fill-rule:nonzero;stroke:none;stroke-width:0;marker:none;visibility:visible;display:inline;overflow:visible;enable-background:accumulate" />
    </clipPath>
    <linearGradient
       inkscape:collect="always"
       xlink:href="#outerBackgroundGradient"
       id="linearGradient3875"
       gradientUnits="userSpaceOnUse"
       gradientTransform="matrix(0.0875,0,0,0.0875,414.9,97.5)"
       x1="286.85715"
       y1="302.85715"
       x2="286.85715"
       y2="28.571428" />
    <clipPath
       clipPathUnits="userSpaceOnUse"
       id="clipPath3881">
      <rect
         style="color:#bebebe;fill:url(#linearGradient3885);fill-opacity:1;fill-rule:nonzero;stroke:none;stroke-width:0;marker:none;visibility:visible;display:inline;overflow:visible;enable-background:accumulate"
         id="rect3883"
         width="30"
         height="30"
         x="417"
         y="53"
         ry="7" />
    </clipPath>
    <linearGradient
       inkscape:collect="always"
       xlink:href="#outerBackgroundGradient"
       id="linearGradient3885"
       gradientUnits="userSpaceOnUse"
       gradientTransform="matrix(0.11931818,0,0,0.11931818,414.13636,48.22727)"
       x1="283.80957"
       y1="299.80954"
       x2="283.80957"
       y2="31.61907" />
  </defs>
  <metadata
     id="metadata4">
    <rdf:RDF>
      <cc:Work
         rdf:about="">
        <dc:format>image/svg+xml</dc:format>
        <dc:type
           rdf:resource="http://purl.org/dc/dcmitype/StillImage" />
        <dc:creator>
          <cc:Agent>
            <dc:title>Sam Hewitt</dc:title>
          </cc:Agent>
        </dc:creator>
        <dc:source />
        <cc:license
           rdf:resource="" />
        <dc:title />
        <dc:subject>
          <rdf:Bag />
        </dc:subject>
        <dc:date />
        <dc:rights>
          <cc:Agent>
            <dc:title />
          </cc:Agent>
        </dc:rights>
        <dc:publisher>
          <cc:Agent>
            <dc:title />
          </cc:Agent>
        </dc:publisher>
        <dc:identifier />
        <dc:relation />
        <dc:language />
        <dc:coverage />
        <dc:description />
        <dc:contributor>
          <cc:Agent>
            <dc:title />
          </cc:Agent>
        </dc:contributor>
      </cc:Work>
      <cc:Work
         rdf:about="">
        <dc:format>image/svg+xml</dc:format>
        <dc:type
           rdf:resource="http://purl.org/dc/dcmitype/StillImage" />
      </cc:Work>
    </rdf:RDF>
  </metadata>
  <g
     style="display:inline"
     inkscape:groupmode="layer"
     inkscape:label="Icon"
     id="layer1">
    <g
       style="display:none"
       inkscape:label="Baseplate"
       id="layer7"
       inkscape:groupmode="layer">
      <text
         y="19.745117"
         xml:space="preserve"
         x="15.006836"
         style="font-size:18px;font-style:normal;font-variant:normal;font-weight:normal;font-stretch:normal;fill:#000000;fill-opacity:1;stroke:none;display:inline;enable-background:new;font-family:DejaVu Sans;-inkscape-font-specification:DejaVu Sans"
         inkscape:label="context"
         id="context"><tspan
           style="font-style:normal;font-variant:normal;font-weight:normal;font-stretch:normal;font-family:DejaVu Sans;-inkscape-font-specification:DejaVu Sans"
           y="19.745117"
           x="15.006836"
           sodipodi:role="line"
           id="tspan3933">apps</tspan></text>
      <text
         y="19.745117"
         xml:space="preserve"
         x="122.48828"
         style="font-size:18px;font-style:normal;font-variant:normal;font-weight:bold;font-stretch:normal;text-align:start;line-height:125%;writing-mode:lr-tb;text-anchor:start;fill:#000000;fill-opacity:1;stroke:none;display:inline;enable-background:new;font-family:DejaVu Sans;-inkscape-font-specification:DejaVu Sans Bold"
         sodipodi:linespacing="125%"
         inkscape:label="icon-name"
         id="icon-name"><tspan
           style="font-size:18px;font-style:normal;font-variant:normal;font-weight:bold;font-stretch:normal;font-family:DejaVu Sans;-inkscape-font-specification:DejaVu Sans Bold"
           y="19.745117"
           x="122.48828"
           sodipodi:role="line"
           id="tspan3937">aisleriot</tspan></text>
      <rect
         style="fill:#eeeeec;fill-opacity:1;fill-rule:nonzero;stroke:none;stroke-width:2;marker:none;visibility:visible;display:inline;overflow:visible;enable-background:accumulate"
         id="rect16x16"
         width="16"
         height="16"
         x="416"
         y="140"
         inkscape:label="16x16" />
      <rect
         style="fill:#d4d4d4;fill-opacity:1;fill-rule:nonzero;stroke:none;stroke-width:2;marker:none;visibility:visible;display:inline;overflow:visible;enable-background:accumulate"
         id="rect24x24"
         width="24"
         height="24"
         x="416"
         y="100"
         inkscape:label="24x24" />
      <rect
         style="fill:#eeeeec;fill-opacity:1;fill-rule:nonzero;stroke:none;stroke-width:2;marker:none;visibility:visible;display:inline;overflow:visible;enable-background:accumulate"
         id="rect32x32"
         width="32"
         height="32"
         x="416"
         y="52"
         inkscape:label="32x32" />
      <rect
         inkscape:label="22x22"
         y="101"
         x="417"
         height="22"
         width="22"
         id="rect22x22"
         style="fill:#eeeeec;fill-opacity:1;fill-rule:nonzero;stroke:none;stroke-width:2;marker:none;visibility:visible;display:inline;overflow:visible;enable-background:accumulate" />
      <rect
         inkscape:label="48x48"
         y="220"
         x="288"
         height="48"
         width="48"
         id="rect48x48"
         style="fill:#eeeeec;fill-opacity:1;fill-rule:nonzero;stroke:none;stroke-width:2;marker:none;visibility:visible;display:inline;overflow:visible;enable-background:accumulate" />
      <rect
         style="fill:#eeeeec;fill-opacity:1;fill-rule:nonzero;stroke:none;stroke-width:2;marker:none;visibility:visible;display:inline;overflow:visible;enable-background:accumulate"
         id="rect256x256"
         width="256"
         height="256"
         x="16"
         y="28"
         inkscape:label="256x256" />
      <rect
         style="fill:#eeeeec;fill-opacity:1;fill-rule:nonzero;stroke:none;stroke-width:2;marker:none;visibility:visible;display:inline;overflow:visible;enable-background:accumulate"
         id="rect64x64"
         width="64"
         height="64"
         x="288"
         y="140"
         inkscape:label="64x64" />
      <rect
         style="fill:#eeeeec;fill-opacity:1;fill-rule:nonzero;stroke:none;stroke-width:2;marker:none;visibility:visible;display:inline;overflow:visible;enable-background:accumulate"
         id="rect96x96"
         width="96"
         height="96"
         x="288"
         y="28"
         inkscape:label="96x96" />
    </g>
    <g
       inkscape:groupmode="layer"
       id="layer4"
       inkscape:label="Shadow"
       style="display:inline"
       sodipodi:insensitive="true">
      <rect
         style="opacity:0.0;color:#bebebe;fill:#000000;fill-opacity:1;stroke:#000000;stroke-width:1;stroke-miterlimit:4;stroke-opacity:1;stroke-dasharray:none;marker:none;visibility:visible;display:inline;overflow:visible;enable-background:accumulate"
         id="rect4156"
         width="42"
         height="42"
         x="-266.5"
         y="291"
         ry="9"
         transform="matrix(0,-1,1,0,0,0)" />
      <rect
         transform="matrix(0,-1,1,0,0,0)"
         ry="9"
         y="291"
         x="-266.5"
         height="42"
         width="40"
         id="rect4183"
         style="opacity:0.1;color:#bebebe;fill:#000000;fill-opacity:1;stroke:none;stroke-width:1;marker:none;visibility:visible;display:inline;overflow:visible;enable-background:accumulate" />
      <rect
         ry="9"
         y="237"
         x="291"
         height="29"
         width="42"
         id="rect4144"
         style="opacity:0.1;color:#bebebe;fill:#000000;fill-opacity:1;fill-rule:nonzero;stroke:none;stroke-width:0;marker:none;visibility:visible;display:inline;overflow:visible;enable-background:accumulate" />
      <rect
         style="opacity:0.0;color:#bebebe;fill:#000000;fill-opacity:1;fill-rule:nonzero;stroke:#000000;stroke-width:1;stroke-miterlimit:4;stroke-opacity:1;stroke-dasharray:none;marker:none;visibility:visible;display:inline;overflow:visible;enable-background:accumulate"
         id="rect4340"
         width="88"
         height="88"
         x="292"
         y="33.5"
         ry="18" />
      <rect
         ry="18"
         y="52.5"
         x="292"
         height="69"
         width="88"
         id="rect4338"
         style="opacity:0.1;color:#bebebe;fill:#000000;fill-opacity:1;fill-rule:nonzero;stroke:none;stroke-width:0;marker:none;visibility:visible;display:inline;overflow:visible;enable-background:accumulate" />
      <rect
         style="opacity:0.1;color:#bebebe;fill:#000000;fill-opacity:1;fill-rule:nonzero;stroke:none;stroke-width:0;marker:none;visibility:visible;display:inline;overflow:visible;enable-background:accumulate"
         id="rect4335"
         width="88"
         height="76.5"
         x="292"
         y="44.5"
         ry="18" />
      <rect
         style="opacity:0.0;color:#bebebe;fill:#000000;fill-opacity:1;fill-rule:nonzero;stroke:#000000;stroke-width:1;stroke-miterlimit:4;stroke-opacity:1;stroke-dasharray:none;marker:none;visibility:visible;display:inline;overflow:visible;enable-background:accumulate"
         id="rect4214"
         width="60"
         height="60"
         x="290"
         y="143.5"
         ry="12.5" />
      <rect
         ry="12.5"
         y="151.5"
         x="290"
         height="52"
         width="60"
         id="rect4206"
         style="opacity:0.1;color:#bebebe;fill:#000000;fill-opacity:1;fill-rule:nonzero;stroke:none;stroke-width:0;marker:none;visibility:visible;display:inline;overflow:visible;enable-background:accumulate" />
      <rect
         style="opacity:0.1;color:#bebebe;fill:#000000;fill-opacity:1;fill-rule:nonzero;stroke:none;stroke-width:0;marker:none;visibility:visible;display:inline;overflow:visible;enable-background:accumulate"
         id="rect4212"
         width="60"
         height="54.5"
         x="290"
         y="148.5"
         ry="12.5" />
      <rect
         style="opacity:0.2;color:#bebebe;fill:#000000;fill-opacity:1;fill-rule:nonzero;stroke:none;stroke-width:0;marker:none;visibility:visible;display:inline;overflow:visible;enable-background:accumulate"
         id="rect4058"
         width="30"
         height="30"
         x="417"
         y="54"
         ry="7" />
      <rect
         ry="50"
         y="48"
         x="34"
         height="220"
         width="220"
         id="rect3872"
         style="opacity:0.0;color:#bebebe;fill:#000000;fill-opacity:1;fill-rule:nonzero;stroke:#000000;stroke-width:2;stroke-miterlimit:4;stroke-opacity:1;stroke-dasharray:none;marker:none;visibility:visible;display:inline;overflow:visible;enable-background:accumulate" />
      <rect
         style="opacity:0.1;color:#bebebe;fill:#000000;fill-opacity:1;fill-rule:nonzero;stroke:none;stroke-width:0;marker:none;visibility:visible;display:inline;overflow:visible;enable-background:accumulate"
         id="rect3870"
         width="220"
         height="220"
         x="34"
         y="48"
         ry="50" />
      <rect
         ry="50"
         y="47"
         x="34"
         height="220"
         width="220"
         id="rect3868"
         style="opacity:0.1;color:#bebebe;fill:#000000;fill-opacity:1;fill-rule:nonzero;stroke:none;stroke-width:0;marker:none;visibility:visible;display:inline;overflow:visible;enable-background:accumulate" />
    </g>
    <g
       inkscape:groupmode="layer"
       id="layer2"
       inkscape:label="Background"
       style="display:inline">
      <rect
         style="color:#bebebe;fill:url(#linearGradient3876);fill-opacity:1;fill-rule:nonzero;stroke:none;stroke-width:0;marker:none;visibility:visible;display:inline;overflow:visible;enable-background:accumulate"
         id="rect4040"
         width="220"
         height="220"
         x="34"
         y="46"
         ry="50" />
      <rect
         ry="3"
         y="140"
         x="416"
         height="16"
         width="16"
         id="rect4095"
         style="color:#bebebe;fill:url(#linearGradient4097);fill-opacity:1;fill-rule:nonzero;stroke:none;stroke-width:0;marker:none;visibility:visible;display:inline;overflow:visible;enable-background:accumulate" />
      <rect
         style="color:#bebebe;fill:url(#linearGradient4101);fill-opacity:1;fill-rule:nonzero;stroke:none;stroke-width:0;marker:none;visibility:visible;display:inline;overflow:visible;enable-background:accumulate"
         id="rect4099"
         width="22"
         height="22"
         x="417"
         y="101"
         ry="5" />
      <rect
         ry="7"
         y="53"
         x="417"
         height="30"
         width="30"
         id="rect4151"
         style="color:#bebebe;fill:url(#linearGradient4153);fill-opacity:1;fill-rule:nonzero;stroke:none;stroke-width:0;marker:none;visibility:visible;display:inline;overflow:visible;enable-background:accumulate" />
      <rect
         style="color:#bebebe;fill:url(#linearGradient4869);fill-opacity:1;fill-rule:nonzero;stroke:none;stroke-width:0;marker:none;visibility:visible;display:inline;overflow:visible;enable-background:accumulate"
         id="rect4783"
         width="42"
         height="42"
         x="291"
         y="-265"
         ry="9"
         transform="scale(1,-1)" />
      <rect
         ry="18"
         y="32"
         x="292"
         height="88"
         width="88"
         id="rect4511"
         style="color:#bebebe;fill:url(#linearGradient4197);fill-opacity:1;fill-rule:nonzero;stroke:none;stroke-width:0;marker:none;visibility:visible;display:inline;overflow:visible;enable-background:accumulate" />
      <rect
         style="color:#bebebe;fill:url(#linearGradient4199);fill-opacity:1;fill-rule:nonzero;stroke:none;stroke-width:0;marker:none;visibility:visible;display:inline;overflow:visible;enable-background:accumulate"
         id="rect4515"
         width="60"
         height="60"
         x="290"
         y="142"
         ry="12.5" />
    </g>
    <g
       inkscape:groupmode="layer"
       id="layer6"
       inkscape:label="Symbols"
       style="display:inline">
      <path
         id="path4172"
         d="m 88,77 c -4.432,0 -8,3.568 -8,8 l 0,144 c 0,4.432 3.568,8 8,8 l 67,0 14.25,0 5.5,0 25.25,0 c 4.432,0 8,-3.568 8,-8 l 0,-25.25 0,-5.5 0,-10.25 0,-103 c 0,-4.432 -3.568,-8 -8,-8 L 88,77 z m 40.0625,47.59375 c 5.87999,6e-5 10.51494,3.41193 13.875,10.21875 1.21651,2.69389 1.84833,4.73704 1.90625,6.15625 l 0.125,0 c 1.01376,-4.69241 2.86642,-8.58811 5.53125,-11.6875 3.12825,-3.12825 6.65205,-4.68744 10.5625,-4.6875 6.05382,6e-5 10.91271,3.23045 14.5625,9.71875 0.92678,2.40416 1.37494,4.66676 1.375,6.78125 -6e-5,7.24146 -3.00643,14.14353 -9.03125,20.71875 l -23,27.59375 -0.25,0 -24.40625,-29.9375 C 114.44646,153.53078 112,147.40837 112,141.09375 c 0,-6.11173 2.89217,-10.97069 8.65625,-14.5625 2.43315,-1.30335 4.88613,-1.93744 7.40625,-1.9375 z"
         style="opacity:0.2;color:#000000;fill:#000000;fill-opacity:1;fill-rule:nonzero;stroke:none;stroke-width:20;marker:none;visibility:visible;display:inline;overflow:visible;enable-background:new"
         inkscape:connector-curvature="0" />
      <path
         id="path4174"
         d="m 316,49 c -1.108,0 -2,0.892 -2,2 l 0,52 c 0,1.108 0.892,2 2,2 l 29.375,0 10.625,0 c 1.108,0 2,-0.892 2,-2 L 358,92.375 358,51 c 0,-1.108 -0.892,-2 -2,-2 l -40,0 z m 14.03125,15.84375 c 2.20501,2.9e-5 3.92747,1.291162 5.1875,3.84375 0.45619,1.010205 0.69701,1.780276 0.71875,2.3125 L 336,71 c 0.38016,-1.759654 1.06316,-3.243975 2.0625,-4.40625 1.17309,-1.173094 2.50234,-1.749971 3.96875,-1.75 2.27018,2.9e-5 4.06884,1.223143 5.4375,3.65625 0.34756,0.901579 0.53122,1.738326 0.53125,2.53125 -3e-5,2.715558 -1.11569,5.315546 -3.375,7.78125 L 336,89.15625 l -0.0937,0 L 326.75,77.9375 C 324.92516,75.710763 324,73.39922 324,71.03125 c 0,-2.291903 1.08842,-4.090566 3.25,-5.4375 0.91242,-0.488773 1.83623,-0.749971 2.78125,-0.75 z"
         style="opacity:0.2;color:#000000;fill:#000000;fill-opacity:1;fill-rule:nonzero;stroke:none;stroke-width:20;marker:none;visibility:visible;display:inline;overflow:visible;enable-background:new"
         inkscape:connector-curvature="0" />
      <path
         id="path4176"
         d="m 302,231 c -0.554,0 -1,0.446 -1,1 l 0,26 c 0,0.554 0.446,1 1,1 l 14.6875,0 5.3125,0 c 0.554,0 1,-0.446 1,-1 l 0,-5.3125 L 323,232 c 0,-0.554 -0.446,-1 -1,-1 l -20,0 z m 7.5,8.9375 c 0.91875,1e-5 1.66249,0.53018 2.1875,1.59375 0.19008,0.42092 0.2722,0.747 0.28125,0.96875 l 0.0312,0 c 0.1584,-0.73319 0.42737,-1.35947 0.84375,-1.84375 0.48879,-0.48879 1.04524,-0.71874 1.65625,-0.71875 0.94591,1e-5 1.71097,0.51745 2.28125,1.53125 0.14481,0.37565 0.21874,0.70086 0.21875,1.03125 -10e-6,1.13148 -0.46487,2.22262 -1.40625,3.25 L 312,250.0625 l -0.0312,0 -3.84375,-4.6875 C 307.36468,244.44719 307,243.48666 307,242.5 c 0,-0.95496 0.44311,-1.68878 1.34375,-2.25 0.38018,-0.20365 0.76248,-0.31249 1.15625,-0.3125 z"
         style="opacity:0.2;color:#000000;fill:#000000;fill-opacity:1;fill-rule:nonzero;stroke:none;stroke-width:20;marker:none;visibility:visible;display:inline;overflow:visible;enable-background:new"
         inkscape:connector-curvature="0" />
      <path
         id="path4178"
         d="m 306,153 c -1.108,0 -2,0.892 -2,2 l 0,36 c 0,1.108 0.892,2 2,2 l 21.6875,0 6.3125,0 c 1.108,0 2,-0.892 2,-2 l 0,-6.3125 L 336,155 c 0,-1.108 -0.892,-2 -2,-2 l -28,0 z m 10.03125,11.90625 c 1.47001,2e-5 2.59749,0.82953 3.4375,2.53125 0.30413,0.67347 0.48551,1.20769 0.5,1.5625 L 320,169 c 0.25344,-1.1731 0.70878,-2.16265 1.375,-2.9375 0.78207,-0.78207 1.64739,-1.15623 2.625,-1.15625 1.51345,2e-5 2.74381,0.81543 3.65625,2.4375 0.23171,0.60105 0.34373,1.15888 0.34375,1.6875 -2e-5,1.81037 -0.74379,3.5437 -2.25,5.1875 l -5.75,6.875 -0.0625,0 -6.125,-7.46875 C 312.59594,172.1405 312,170.6099 312,169.03125 c 0,-1.52793 0.7152,-2.7583 2.15625,-3.65625 0.60828,-0.32585 1.24499,-0.46873 1.875,-0.46875 z"
         style="opacity:0.2;color:#000000;fill:#000000;fill-opacity:1;fill-rule:nonzero;stroke:none;stroke-width:20;marker:none;visibility:visible;display:inline;overflow:visible;enable-background:new"
         inkscape:connector-curvature="0" />
      <path
         d="m 428.01902,60.896825 c 1.47,1.4e-5 2.625,0.850895 3.46502,2.552599 0.30412,0.673474 0.46345,1.187631 0.47793,1.542433 l 0.0326,0 c 0.25344,-1.173102 0.71328,-2.147067 1.37949,-2.921915 0.78206,-0.782063 1.66188,-1.173103 2.6395,-1.173118 1.51345,1.5e-5 2.72639,0.811055 3.63884,2.433131 0.23169,0.60104 0.34756,1.165869 0.34758,1.694492 -2e-5,1.810365 -0.75314,3.53745 -2.25934,5.181255 l -5.74607,6.897475 -0.0653,0 -6.10453,-7.484035 c -1.21645,-1.484491 -1.82472,-3.016039 -1.82472,-4.594695 0,-1.527932 0.72053,-2.740872 2.16154,-3.638824 0.60829,-0.325838 1.22743,-0.488784 1.85746,-0.488798"
         style="font-size:69.2307663px;font-style:normal;font-variant:normal;font-weight:normal;font-stretch:normal;line-height:125%;letter-spacing:0px;word-spacing:0px;opacity:0.2;fill:#000000;fill-opacity:1;stroke:none;font-family:Open Sans;-inkscape-font-specification:Open Sans"
         id="path4180"
         inkscape:connector-curvature="0" />
      <path
         inkscape:connector-curvature="0"
         id="path4182"
         style="font-size:69.2307663px;font-style:normal;font-variant:normal;font-weight:normal;font-stretch:normal;line-height:125%;letter-spacing:0px;word-spacing:0px;opacity:0.2;fill:#000000;fill-opacity:1;stroke:none;font-family:Open Sans;-inkscape-font-specification:Open Sans"
         d="m 425.51185,107.9355 c 0.91875,10e-6 1.64063,0.53181 2.16564,1.59538 0.19008,0.42092 0.28966,0.74227 0.29871,0.96402 l 0.0204,0 c 0.1584,-0.73319 0.4458,-1.34192 0.86218,-1.8262 0.48879,-0.48879 1.03868,-0.73319 1.64969,-0.7332 0.94591,10e-6 1.704,0.50691 2.27428,1.52071 0.14481,0.37565 0.21723,0.72867 0.21724,1.05906 -1e-5,1.13148 -0.47071,2.21092 -1.41209,3.2383 l -3.5913,4.31093 -0.0408,0 -3.81534,-4.67754 c -0.76028,-0.9278 -1.14045,-1.88502 -1.14045,-2.87169 0,-0.95496 0.45033,-1.71305 1.35097,-2.27427 0.38018,-0.20365 0.76714,-0.30549 1.16091,-0.3055" />
      <path
         d="m 422.00948,144.94839 c 0.735,1e-5 1.3125,0.42545 1.73251,1.27631 0.15207,0.33674 0.23173,0.59382 0.23897,0.77122 l 0.0163,0 c 0.12672,-0.58656 0.35664,-1.07354 0.68975,-1.46097 0.39103,-0.39103 0.83094,-0.58655 1.31975,-0.58656 0.75673,1e-5 1.3632,0.40553 1.81943,1.21657 0.11585,0.30052 0.17378,0.58294 0.17379,0.84725 -10e-6,0.90519 -0.37657,1.76874 -1.12967,2.59065 l -2.87305,3.44875 -0.0326,0 -3.05228,-3.74204 c -0.60822,-0.74224 -0.91236,-1.50802 -0.91236,-2.29736 0,-0.76397 0.36026,-1.37044 1.08078,-1.81942 0.30414,-0.16292 0.61371,-0.24439 0.92873,-0.2444"
         style="font-size:69.2307663px;font-style:normal;font-variant:normal;font-weight:normal;font-stretch:normal;line-height:125%;letter-spacing:0px;word-spacing:0px;opacity:0.2;fill:#000000;fill-opacity:1;stroke:none;font-family:Open Sans;-inkscape-font-specification:Open Sans"
         id="path4184"
         inkscape:connector-curvature="0" />
      <path
         style="color:#000000;fill:#ffffff;fill-opacity:1;fill-rule:nonzero;stroke:none;stroke-width:20;marker:none;visibility:visible;display:inline;overflow:visible;enable-background:new"
         d="M 88 76 C 83.568 76 80 79.568 80 84 L 80 228 C 80 232.432 83.568 236 88 236 L 155 236 L 169.25 236 L 174.75 236 L 200 236 C 204.432 236 208 232.432 208 228 L 208 202.75 L 208 197.25 L 208 187 L 208 84 C 208 79.568 204.432 76 200 76 L 88 76 z M 128.0625 123.59375 C 133.94249 123.59381 138.57744 127.00568 141.9375 133.8125 C 143.15401 136.50639 143.78583 138.54954 143.84375 139.96875 L 143.96875 139.96875 C 144.98251 135.27634 146.83517 131.38064 149.5 128.28125 C 152.62825 125.153 156.15205 123.59381 160.0625 123.59375 C 166.11632 123.59381 170.97521 126.8242 174.625 133.3125 C 175.55178 135.71666 175.99994 137.97926 176 140.09375 C 175.99994 147.33521 172.99357 154.23728 166.96875 160.8125 L 143.96875 188.40625 L 143.71875 188.40625 L 119.3125 158.46875 C 114.44646 152.53078 112 146.40837 112 140.09375 C 112 133.98202 114.89217 129.12306 120.65625 125.53125 C 123.0894 124.2279 125.54238 123.59381 128.0625 123.59375 z "
         id="path3922" />
      <path
         style="color:#000000;fill:#ffffff;fill-opacity:1;fill-rule:nonzero;stroke:none;stroke-width:20;marker:none;visibility:visible;display:inline;overflow:visible;enable-background:new"
         d="M 316 48 C 314.892 48 314 48.892 314 50 L 314 102 C 314 103.108 314.892 104 316 104 L 345.375 104 L 356 104 C 357.108 104 358 103.108 358 102 L 358 91.375 L 358 50 C 358 48.892 357.108 48 356 48 L 316 48 z M 330.03125 63.84375 C 332.23626 63.843779 333.95872 65.134912 335.21875 67.6875 C 335.67494 68.697705 335.91576 69.467776 335.9375 70 L 336 70 C 336.38016 68.240346 337.06316 66.756025 338.0625 65.59375 C 339.23559 64.420656 340.56484 63.843779 342.03125 63.84375 C 344.30143 63.843779 346.10009 65.066893 347.46875 67.5 C 347.81631 68.401579 347.99997 69.238326 348 70.03125 C 347.99997 72.746808 346.88431 75.346796 344.625 77.8125 L 336 88.15625 L 335.90625 88.15625 L 326.75 76.9375 C 324.92516 74.710763 324 72.39922 324 70.03125 C 324 67.739347 325.08842 65.940684 327.25 64.59375 C 328.16242 64.104977 329.08623 63.843779 330.03125 63.84375 z "
         id="path3871" />
      <path
         style="color:#000000;fill:#ffffff;fill-opacity:1;fill-rule:nonzero;stroke:none;stroke-width:20;marker:none;visibility:visible;display:inline;overflow:visible;enable-background:new"
         d="M 302 230 C 301.446 230 301 230.446 301 231 L 301 257 C 301 257.554 301.446 258 302 258 L 316.6875 258 L 322 258 C 322.554 258 323 257.554 323 257 L 323 251.6875 L 323 231 C 323 230.446 322.554 230 322 230 L 302 230 z M 309.5 238.9375 C 310.41875 238.93751 311.16249 239.46768 311.6875 240.53125 C 311.87758 240.95217 311.9597 241.27825 311.96875 241.5 L 312 241.5 C 312.1584 240.76681 312.42737 240.14053 312.84375 239.65625 C 313.33254 239.16746 313.88899 238.93751 314.5 238.9375 C 315.44591 238.93751 316.21097 239.45495 316.78125 240.46875 C 316.92606 240.8444 316.99999 241.16961 317 241.5 C 316.99999 242.63148 316.53513 243.72262 315.59375 244.75 L 312 249.0625 L 311.96875 249.0625 L 308.125 244.375 C 307.36468 243.44719 307 242.48666 307 241.5 C 307 240.54504 307.44311 239.81122 308.34375 239.25 C 308.72393 239.04635 309.10623 238.93751 309.5 238.9375 z "
         id="rect3833" />
      <path
         style="color:#000000;fill:#ffffff;fill-opacity:1;fill-rule:nonzero;stroke:none;stroke-width:20;marker:none;visibility:visible;display:inline;overflow:visible;enable-background:new"
         d="M 306 152 C 304.892 152 304 152.892 304 154 L 304 190 C 304 191.108 304.892 192 306 192 L 327.6875 192 L 334 192 C 335.108 192 336 191.108 336 190 L 336 183.6875 L 336 154 C 336 152.892 335.108 152 334 152 L 306 152 z M 316.03125 163.90625 C 317.50126 163.90627 318.62874 164.73578 319.46875 166.4375 C 319.77288 167.11097 319.95426 167.64519 319.96875 168 L 320 168 C 320.25344 166.8269 320.70878 165.83735 321.375 165.0625 C 322.15707 164.28043 323.02239 163.90627 324 163.90625 C 325.51345 163.90627 326.74381 164.72168 327.65625 166.34375 C 327.88796 166.9448 327.99998 167.50263 328 168.03125 C 327.99998 169.84162 327.25621 171.57495 325.75 173.21875 L 320 180.09375 L 319.9375 180.09375 L 313.8125 172.625 C 312.59594 171.1405 312 169.6099 312 168.03125 C 312 166.50332 312.7152 165.27295 314.15625 164.375 C 314.76453 164.04915 315.40124 163.90627 316.03125 163.90625 z "
         id="rect3939" />
      <path
         inkscape:connector-curvature="0"
         id="path4126"
         style="font-size:69.23076629999999909px;font-style:normal;font-variant:normal;font-weight:normal;font-stretch:normal;line-height:125%;letter-spacing:0px;word-spacing:0px;fill:#ffffff;fill-opacity:1;stroke:none;font-family:Open Sans;-inkscape-font-specification:Open Sans"
         d="m 428.01902,59.896825 c 1.47,1.4e-5 2.625,0.850895 3.46502,2.552599 0.30412,0.673474 0.46345,1.187631 0.47793,1.542433 l 0.0326,0 c 0.25344,-1.173102 0.71328,-2.147067 1.37949,-2.921915 0.78206,-0.782063 1.66188,-1.173103 2.6395,-1.173118 1.51345,1.5e-5 2.72639,0.811055 3.63884,2.433131 0.23169,0.60104 0.34756,1.165869 0.34758,1.694492 -2e-5,1.810365 -0.75314,3.53745 -2.25934,5.181255 l -5.74607,6.897475 -0.0653,0 -6.10453,-7.484035 c -1.21645,-1.484491 -1.82472,-3.016039 -1.82472,-4.594695 0,-1.527932 0.72053,-2.740872 2.16154,-3.638824 0.60829,-0.325838 1.22743,-0.488784 1.85746,-0.488798" />
      <path
         d="m 425.51185,106.9355 c 0.91875,10e-6 1.64063,0.53181 2.16564,1.59538 0.19008,0.42092 0.28966,0.74227 0.29871,0.96402 l 0.0204,0 c 0.1584,-0.73319 0.4458,-1.34192 0.86218,-1.8262 0.48879,-0.48879 1.03868,-0.73319 1.64969,-0.7332 0.94591,10e-6 1.704,0.50691 2.27428,1.52071 0.14481,0.37565 0.21723,0.72867 0.21724,1.05906 -1e-5,1.13148 -0.47071,2.21092 -1.41209,3.2383 l -3.5913,4.31093 -0.0408,0 -3.81534,-4.67754 c -0.76028,-0.9278 -1.14045,-1.88502 -1.14045,-2.87169 0,-0.95496 0.45033,-1.71305 1.35097,-2.27427 0.38018,-0.20365 0.76714,-0.30549 1.16091,-0.3055"
         style="font-size:69.2307663px;font-style:normal;font-variant:normal;font-weight:normal;font-stretch:normal;line-height:125%;letter-spacing:0px;word-spacing:0px;fill:#ffffff;fill-opacity:1;stroke:none;font-family:Open Sans;-inkscape-font-specification:Open Sans"
         id="path4168"
         inkscape:connector-curvature="0" />
      <path
         inkscape:connector-curvature="0"
         id="path4170"
         style="font-size:69.2307663px;font-style:normal;font-variant:normal;font-weight:normal;font-stretch:normal;line-height:125%;letter-spacing:0px;word-spacing:0px;fill:#ffffff;fill-opacity:1;stroke:none;font-family:Open Sans;-inkscape-font-specification:Open Sans"
         d="m 422.00948,143.94839 c 0.735,1e-5 1.3125,0.42545 1.73251,1.27631 0.15207,0.33674 0.23173,0.59382 0.23897,0.77122 l 0.0163,0 c 0.12672,-0.58656 0.35664,-1.07354 0.68975,-1.46097 0.39103,-0.39103 0.83094,-0.58655 1.31975,-0.58656 0.75673,1e-5 1.3632,0.40553 1.81943,1.21657 0.11585,0.30052 0.17378,0.58294 0.17379,0.84725 -10e-6,0.90519 -0.37657,1.76874 -1.12967,2.59065 l -2.87305,3.44875 -0.0326,0 -3.05228,-3.74204 c -0.60822,-0.74224 -0.91236,-1.50802 -0.91236,-2.29736 0,-0.76397 0.36026,-1.37044 1.08078,-1.81942 0.30414,-0.16292 0.61371,-0.24439 0.92873,-0.2444" />
    </g>
    <g
       inkscape:groupmode="layer"
       id="layer5"
       inkscape:label="Highlights"
       style="display:inline"
       sodipodi:insensitive="true">
      <rect
         ry="9"
         y="307"
         x="-265"
         height="42"
         width="42"
         id="rect4884"
         style="opacity:0.20;color:#bebebe;fill:none;stroke:#000000;stroke-width:2;stroke-miterlimit:4;stroke-opacity:1;stroke-dasharray:none;marker:none;visibility:visible;display:inline;overflow:visible;enable-background:accumulate"
         transform="matrix(0,1,1,0,-16,488)"
         clip-path="url(#clipPath4891)" />
      <rect
         style="opacity:0.20;color:#bebebe;fill:none;stroke:#000000;stroke-width:2;stroke-miterlimit:4;stroke-opacity:1;stroke-dasharray:none;marker:none;visibility:visible;display:inline;overflow:visible;enable-background:accumulate"
         id="rect5311"
         width="16"
         height="16"
         x="-228"
         y="304"
         ry="3"
         clip-path="url(#clipPath3855)"
         transform="matrix(0,-1,1,0,112,-72)" />
      <rect
         ry="50"
         y="46"
         x="34"
         height="220"
         width="220"
         id="rect3858"
         style="opacity:0.20;color:#bebebe;fill:none;stroke:#000000;stroke-width:2;stroke-miterlimit:4;stroke-opacity:1;stroke-dasharray:none;marker:none;visibility:visible;display:inline;overflow:visible;enable-background:accumulate"
         clip-path="url(#clipPath3862)" />
      <rect
         ry="12.5"
         y="142"
         x="290"
         height="60"
         width="60"
         id="rect4175"
         style="opacity:0.20;color:#bebebe;fill:none;stroke:#000000;stroke-width:2;stroke-miterlimit:4;stroke-opacity:1;stroke-dasharray:none;marker:none;visibility:visible;display:inline;overflow:visible;enable-background:accumulate"
         clip-path="url(#clipPath4187)" />
      <rect
         style="opacity:0.20;color:#bebebe;fill:none;stroke:#000000;stroke-width:2;stroke-miterlimit:4;stroke-opacity:1;stroke-dasharray:none;marker:none;visibility:visible;display:inline;overflow:visible;enable-background:accumulate"
         id="rect4342"
         width="88"
         height="88"
         x="292"
         y="32"
         ry="18"
         clip-path="url(#clipPath4346)" />
      <rect
         ry="5"
         y="101"
         x="417"
         height="22"
         width="22"
         id="rect3866"
         style="opacity:0.20;color:#bebebe;fill:none;stroke:#000000;stroke-width:2;stroke-miterlimit:4;stroke-opacity:1;stroke-dasharray:none;marker:none;visibility:visible;display:inline;overflow:visible;enable-background:accumulate"
         clip-path="url(#clipPath3871)" />
      <rect
         style="opacity:0.20;color:#bebebe;fill:none;stroke:#000000;stroke-width:2;stroke-miterlimit:4;stroke-opacity:1;stroke-dasharray:none;marker:none;visibility:visible;display:inline;overflow:visible;enable-background:accumulate"
         id="rect3877"
         width="30"
         height="30"
         x="417"
         y="53"
         ry="7"
         clip-path="url(#clipPath3881)" />
    </g>
  </g>
</svg>
