<?xml version="1.0" encoding="UTF-8" standalone="no"?>
<!-- Created with Inkscape (http://www.inkscape.org/) -->

<svg
   xmlns:dc="http://purl.org/dc/elements/1.1/"
   xmlns:cc="http://creativecommons.org/ns#"
   xmlns:rdf="http://www.w3.org/1999/02/22-rdf-syntax-ns#"
   xmlns:svg="http://www.w3.org/2000/svg"
   xmlns="http://www.w3.org/2000/svg"
   xmlns:xlink="http://www.w3.org/1999/xlink"
   xmlns:sodipodi="http://sodipodi.sourceforge.net/DTD/sodipodi-0.dtd"
   xmlns:inkscape="http://www.inkscape.org/namespaces/inkscape"
   inkscape:export-ydpi="90.000000"
   inkscape:export-xdpi="90.000000"
   width="480"
   height="300"
   id="svg11300"
   sodipodi:version="0.32"
   inkscape:version="0.48.4 r9939"
   sodipodi:docname="rubymine.svg"
   inkscape:output_extension="org.inkscape.output.svg.inkscape"
   version="1.0"
   style="display:inline;enable-background:new"
   inkscape:export-filename="/home/sam/moka2-template.png">
  <sodipodi:namedview
     stroke="#ef2929"
     fill="#f57900"
     id="base"
     pagecolor="#ffffff"
     bordercolor="#666666"
     borderopacity="0.25490196"
     inkscape:pageopacity="0"
     inkscape:pageshadow="2"
     inkscape:zoom="1"
     inkscape:cx="382.94358"
     inkscape:cy="183.63969"
     inkscape:current-layer="layer7"
     showgrid="false"
     inkscape:grid-bbox="true"
     inkscape:document-units="px"
     inkscape:showpageshadow="false"
     inkscape:window-width="1364"
     inkscape:window-height="701"
     inkscape:window-x="0"
     inkscape:window-y="27"
     width="400px"
     height="300px"
     inkscape:snap-nodes="true"
     inkscape:snap-bbox="true"
     gridtolerance="10000"
     inkscape:object-nodes="true"
     inkscape:snap-grids="true"
     showguides="true"
     inkscape:guide-bbox="true"
     inkscape:window-maximized="1"
     inkscape:bbox-nodes="true"
     inkscape:bbox-paths="true"
     inkscape:snap-bbox-edge-midpoints="true"
     inkscape:snap-bbox-midpoints="true">
    <inkscape:grid
       spacingy="1px"
       spacingx="1px"
       id="grid5883"
       type="xygrid"
       enabled="true"
       visible="true"
       empspacing="4"
       snapvisiblegridlinesonly="true"
       dotted="false"
       color="#000000"
       opacity="0.1254902"
       empcolor="#203ef3"
       empopacity="0.36470588" />
    <inkscape:grid
       type="xygrid"
       id="grid11592"
       empspacing="8"
       visible="true"
       enabled="false"
       spacingx="0.5px"
       spacingy="0.5px"
       color="#ff0000"
       opacity="0.1254902"
       empcolor="#ff0000"
       empopacity="0.25098039"
       snapvisiblegridlinesonly="true"
       dotted="true" />
  </sodipodi:namedview>
  <defs
     id="defs3">
    <linearGradient
       id="outerBackgroundGradient">
      <stop
         style="stop-color:#de6b27;stop-opacity:1;"
         offset="0"
         id="stop3864-8-6" />
      <stop
         style="stop-color:#f69335;stop-opacity:1;"
         offset="1"
         id="stop3866-9-1" />
    </linearGradient>
    <linearGradient
       inkscape:collect="always"
       xlink:href="#outerBackgroundGradient"
       id="linearGradient4097"
       gradientUnits="userSpaceOnUse"
       x1="264"
       y1="280.00003"
       x2="264"
       y2="40.00005"
       gradientTransform="matrix(0.06666667,0,0,0.06666667,414.4,137.33333)" />
    <linearGradient
       inkscape:collect="always"
       xlink:href="#outerBackgroundGradient"
       id="linearGradient4101"
       gradientUnits="userSpaceOnUse"
       gradientTransform="matrix(0.0875,0,0,0.0875,414.9,97.5)"
       x1="286.85715"
       y1="302.85715"
       x2="286.85715"
       y2="28.571428" />
    <linearGradient
       inkscape:collect="always"
       xlink:href="#outerBackgroundGradient"
       id="linearGradient4153"
       gradientUnits="userSpaceOnUse"
       gradientTransform="matrix(0.11931818,0,0,0.11931818,414.13636,48.22727)"
       x1="283.80957"
       y1="299.80954"
       x2="283.80957"
       y2="31.61907" />
    <linearGradient
       inkscape:collect="always"
       xlink:href="#outerBackgroundGradient"
       id="linearGradient4869"
       gradientUnits="userSpaceOnUse"
       gradientTransform="matrix(0.175,0,0,-0.175,286.79999,-215.99997)"
       x1="281.14291"
       y1="297.14304"
       x2="281.14291"
       y2="22.857315" />
    <clipPath
       clipPathUnits="userSpaceOnUse"
       id="clipPath4891">
      <rect
         ry="9"
         y="223"
         x="307"
         height="42"
         width="42"
         id="rect4893"
         style="color:#bebebe;fill:url(#linearGradient4895);fill-opacity:1;fill-rule:nonzero;stroke:none;stroke-width:0;marker:none;visibility:visible;display:inline;overflow:visible;enable-background:accumulate"
         transform="matrix(0,1,-1,0,0,0)" />
    </clipPath>
    <linearGradient
       inkscape:collect="always"
       xlink:href="#outerBackgroundGradient"
       id="linearGradient4895"
       gradientUnits="userSpaceOnUse"
       gradientTransform="matrix(0.175,0,0,0.175,302.79999,215.99997)"
       x1="144.00006"
       y1="280.00018"
       x2="144.00006"
       y2="40.000172" />
    <clipPath
       clipPathUnits="userSpaceOnUse"
       id="clipPath4044">
      <rect
         ry="4"
         y="85"
         x="433"
         height="22"
         width="22"
         id="rect4046"
         style="color:#bebebe;fill:url(#linearGradient4048);fill-opacity:1;fill-rule:nonzero;stroke:none;stroke-width:0;marker:none;visibility:visible;display:inline;overflow:visible;enable-background:accumulate" />
    </clipPath>
    <linearGradient
       inkscape:collect="always"
       xlink:href="#outerBackgroundGradient"
       id="linearGradient4048"
       gradientUnits="userSpaceOnUse"
       gradientTransform="matrix(0.0875,0,0,0.0875,430.9,81.499996)"
       x1="149.71428"
       y1="291.42862"
       x2="149.71428"
       y2="40.000046" />
    <clipPath
       clipPathUnits="userSpaceOnUse"
       id="clipPath4089">
      <rect
         style="color:#bebebe;fill:url(#linearGradient4093);fill-opacity:1;fill-rule:nonzero;stroke:none;stroke-width:0;marker:none;visibility:visible;display:inline;overflow:visible;enable-background:accumulate"
         id="rect4091"
         width="30"
         height="30"
         x="433"
         y="37"
         ry="6" />
    </clipPath>
    <linearGradient
       inkscape:collect="always"
       xlink:href="#outerBackgroundGradient"
       id="linearGradient4093"
       gradientUnits="userSpaceOnUse"
       gradientTransform="matrix(0.11931818,0,0,0.11931818,430.13636,32.227267)"
       x1="149.71432"
       y1="291.42862"
       x2="149.71432"
       y2="40.00005" />
    <clipPath
       clipPathUnits="userSpaceOnUse"
       id="clipPath3855">
      <rect
         style="color:#bebebe;fill:url(#linearGradient3859);fill-opacity:1;fill-rule:nonzero;stroke:none;stroke-width:0;marker:none;visibility:visible;display:inline;overflow:visible;enable-background:accumulate"
         id="rect3857"
         width="16"
         height="16"
         x="304"
         y="212"
         ry="3"
         transform="matrix(0,1,-1,0,0,0)" />
    </clipPath>
    <linearGradient
       inkscape:collect="always"
       xlink:href="#outerBackgroundGradient"
       id="linearGradient3859"
       gradientUnits="userSpaceOnUse"
       gradientTransform="matrix(0.06666667,0,0,0.06666667,302.4,209.33333)"
       x1="144"
       y1="280.00003"
       x2="144"
       y2="40.00005" />
    <clipPath
       clipPathUnits="userSpaceOnUse"
       id="clipPath3862">
      <rect
         ry="50"
         y="46"
         x="34"
         height="220"
         width="220"
         id="rect3864"
         style="color:#bebebe;fill:url(#linearGradient3866);fill-opacity:1;fill-rule:nonzero;stroke:none;stroke-width:0;marker:none;visibility:visible;display:inline;overflow:visible;enable-background:accumulate" />
    </clipPath>
    <linearGradient
       inkscape:collect="always"
       xlink:href="#outerBackgroundGradient"
       id="linearGradient3866"
       gradientUnits="userSpaceOnUse"
       gradientTransform="translate(0,-4)"
       x1="144"
       y1="280"
       x2="144"
       y2="40" />
    <linearGradient
       inkscape:collect="always"
       xlink:href="#outerBackgroundGradient"
       id="linearGradient3876"
       gradientUnits="userSpaceOnUse"
       gradientTransform="translate(0,-4)"
       x1="272"
       y1="288"
       x2="272"
       y2="32" />
    <clipPath
       clipPathUnits="userSpaceOnUse"
       id="clipPath4187">
      <rect
         ry="12.5"
         y="142"
         x="290"
         height="60"
         width="60"
         id="rect4189"
         style="color:#bebebe;fill:url(#linearGradient4191);fill-opacity:1;fill-rule:nonzero;stroke:none;stroke-width:0;marker:none;visibility:visible;display:inline;overflow:visible;enable-background:accumulate" />
    </clipPath>
    <linearGradient
       inkscape:collect="always"
       xlink:href="#outerBackgroundGradient"
       id="linearGradient4191"
       gradientUnits="userSpaceOnUse"
       x1="352"
       y1="204"
       x2="352"
       y2="140" />
    <linearGradient
       inkscape:collect="always"
       xlink:href="#outerBackgroundGradient"
       id="linearGradient4197"
       gradientUnits="userSpaceOnUse"
       x1="384"
       y1="124"
       x2="384"
       y2="28" />
    <linearGradient
       inkscape:collect="always"
       xlink:href="#outerBackgroundGradient"
       id="linearGradient4199"
       gradientUnits="userSpaceOnUse"
       x1="352"
       y1="204"
       x2="352"
       y2="140" />
    <clipPath
       clipPathUnits="userSpaceOnUse"
       id="clipPath4346">
      <rect
         style="color:#bebebe;fill:url(#linearGradient4350);fill-opacity:1;fill-rule:nonzero;stroke:none;stroke-width:0;marker:none;visibility:visible;display:inline;overflow:visible;enable-background:accumulate"
         id="rect4348"
         width="88"
         height="88"
         x="292"
         y="32"
         ry="18" />
    </clipPath>
    <linearGradient
       inkscape:collect="always"
       xlink:href="#outerBackgroundGradient"
       id="linearGradient4350"
       gradientUnits="userSpaceOnUse"
       x1="384"
       y1="124"
       x2="384"
       y2="28" />
    <clipPath
       clipPathUnits="userSpaceOnUse"
       id="clipPath3871">
      <rect
         ry="5"
         y="101"
         x="417"
         height="22"
         width="22"
         id="rect3873"
         style="color:#bebebe;fill:url(#linearGradient3875);fill-opacity:1;fill-rule:nonzero;stroke:none;stroke-width:0;marker:none;visibility:visible;display:inline;overflow:visible;enable-background:accumulate" />
    </clipPath>
    <linearGradient
       inkscape:collect="always"
       xlink:href="#outerBackgroundGradient"
       id="linearGradient3875"
       gradientUnits="userSpaceOnUse"
       gradientTransform="matrix(0.0875,0,0,0.0875,414.9,97.5)"
       x1="286.85715"
       y1="302.85715"
       x2="286.85715"
       y2="28.571428" />
    <clipPath
       clipPathUnits="userSpaceOnUse"
       id="clipPath3881">
      <rect
         style="color:#bebebe;fill:url(#linearGradient3885);fill-opacity:1;fill-rule:nonzero;stroke:none;stroke-width:0;marker:none;visibility:visible;display:inline;overflow:visible;enable-background:accumulate"
         id="rect3883"
         width="30"
         height="30"
         x="417"
         y="53"
         ry="7" />
    </clipPath>
    <linearGradient
       inkscape:collect="always"
       xlink:href="#outerBackgroundGradient"
       id="linearGradient3885"
       gradientUnits="userSpaceOnUse"
       gradientTransform="matrix(0.11931818,0,0,0.11931818,414.13636,48.22727)"
       x1="283.80957"
       y1="299.80954"
       x2="283.80957"
       y2="31.61907" />
  </defs>
  <metadata
     id="metadata4">
    <rdf:RDF>
      <cc:Work
         rdf:about="">
        <dc:format>image/svg+xml</dc:format>
        <dc:type
           rdf:resource="http://purl.org/dc/dcmitype/StillImage" />
        <dc:creator>
          <cc:Agent>
            <dc:title>Sam Hewitt</dc:title>
          </cc:Agent>
        </dc:creator>
        <dc:source />
        <cc:license
           rdf:resource="" />
        <dc:title></dc:title>
        <dc:subject>
          <rdf:Bag />
        </dc:subject>
        <dc:date />
        <dc:rights>
          <cc:Agent>
            <dc:title />
          </cc:Agent>
        </dc:rights>
        <dc:publisher>
          <cc:Agent>
            <dc:title />
          </cc:Agent>
        </dc:publisher>
        <dc:identifier />
        <dc:relation />
        <dc:language />
        <dc:coverage />
        <dc:description />
        <dc:contributor>
          <cc:Agent>
            <dc:title />
          </cc:Agent>
        </dc:contributor>
      </cc:Work>
      <cc:Work
         rdf:about="">
        <dc:format>image/svg+xml</dc:format>
        <dc:type
           rdf:resource="http://purl.org/dc/dcmitype/StillImage" />
      </cc:Work>
    </rdf:RDF>
  </metadata>
  <g
     style="display:inline"
     inkscape:groupmode="layer"
     inkscape:label="Icon"
     id="layer1">
    <g
       style="display:none"
       inkscape:label="Baseplate"
       id="layer7"
       inkscape:groupmode="layer">
      <text
         y="19.745117"
         xml:space="preserve"
         x="15.006836"
         style="font-size:18px;font-style:normal;font-variant:normal;font-weight:normal;font-stretch:normal;fill:#000000;fill-opacity:1;stroke:none;display:inline;enable-background:new;font-family:DejaVu Sans;-inkscape-font-specification:DejaVu Sans"
         inkscape:label="context"
         id="context"><tspan
           style="font-style:normal;font-variant:normal;font-weight:normal;font-stretch:normal;font-family:DejaVu Sans;-inkscape-font-specification:DejaVu Sans"
           y="19.745117"
           x="15.006836"
           sodipodi:role="line"
           id="tspan3933">apps</tspan></text>
      <text
         y="19.745117"
         xml:space="preserve"
         x="122.48828"
         style="font-size:18px;font-style:normal;font-variant:normal;font-weight:bold;font-stretch:normal;text-align:start;line-height:125%;writing-mode:lr-tb;text-anchor:start;fill:#000000;fill-opacity:1;stroke:none;display:inline;enable-background:new;font-family:DejaVu Sans;-inkscape-font-specification:DejaVu Sans Bold"
         sodipodi:linespacing="125%"
         inkscape:label="icon-name"
         id="icon-name"><tspan
           style="font-size:18px;font-style:normal;font-variant:normal;font-weight:bold;font-stretch:normal;font-family:DejaVu Sans;-inkscape-font-specification:DejaVu Sans Bold"
           y="19.745117"
           x="122.48828"
           sodipodi:role="line"
           id="tspan3937">aptanastudio</tspan></text>
      <rect
         style="fill:#eeeeec;fill-opacity:1;fill-rule:nonzero;stroke:none;stroke-width:2;marker:none;visibility:visible;display:inline;overflow:visible;enable-background:accumulate"
         id="rect16x16"
         width="16"
         height="16"
         x="416"
         y="140"
         inkscape:label="16x16" />
      <rect
         style="fill:#d4d4d4;fill-opacity:1;fill-rule:nonzero;stroke:none;stroke-width:2;marker:none;visibility:visible;display:inline;overflow:visible;enable-background:accumulate"
         id="rect24x24"
         width="24"
         height="24"
         x="416"
         y="100"
         inkscape:label="24x24" />
      <rect
         style="fill:#eeeeec;fill-opacity:1;fill-rule:nonzero;stroke:none;stroke-width:2;marker:none;visibility:visible;display:inline;overflow:visible;enable-background:accumulate"
         id="rect32x32"
         width="32"
         height="32"
         x="416"
         y="52"
         inkscape:label="32x32" />
      <rect
         inkscape:label="22x22"
         y="101"
         x="417"
         height="22"
         width="22"
         id="rect22x22"
         style="fill:#eeeeec;fill-opacity:1;fill-rule:nonzero;stroke:none;stroke-width:2;marker:none;visibility:visible;display:inline;overflow:visible;enable-background:accumulate" />
      <rect
         inkscape:label="48x48"
         y="220"
         x="288"
         height="48"
         width="48"
         id="rect48x48"
         style="fill:#eeeeec;fill-opacity:1;fill-rule:nonzero;stroke:none;stroke-width:2;marker:none;visibility:visible;display:inline;overflow:visible;enable-background:accumulate" />
      <rect
         style="fill:#eeeeec;fill-opacity:1;fill-rule:nonzero;stroke:none;stroke-width:2;marker:none;visibility:visible;display:inline;overflow:visible;enable-background:accumulate"
         id="rect256x256"
         width="256"
         height="256"
         x="16"
         y="28"
         inkscape:label="256x256" />
      <rect
         style="fill:#eeeeec;fill-opacity:1;fill-rule:nonzero;stroke:none;stroke-width:2;marker:none;visibility:visible;display:inline;overflow:visible;enable-background:accumulate"
         id="rect64x64"
         width="64"
         height="64"
         x="288"
         y="140"
         inkscape:label="64x64" />
      <rect
         style="fill:#eeeeec;fill-opacity:1;fill-rule:nonzero;stroke:none;stroke-width:2;marker:none;visibility:visible;display:inline;overflow:visible;enable-background:accumulate"
         id="rect96x96"
         width="96"
         height="96"
         x="288"
         y="28"
         inkscape:label="96x96" />
    </g>
    <g
       inkscape:groupmode="layer"
       id="layer4"
       inkscape:label="Shadow"
       style="display:inline"
       sodipodi:insensitive="true">
      <rect
         style="opacity:0.1;color:#bebebe;fill:#000000;fill-opacity:1;stroke:#000000;stroke-width:1;stroke-miterlimit:4;stroke-opacity:1;stroke-dasharray:none;marker:none;visibility:visible;display:inline;overflow:visible;enable-background:accumulate"
         id="rect4156"
         width="42"
         height="42"
         x="-266.5"
         y="291"
         ry="9"
         transform="matrix(0,-1,1,0,0,0)" />
      <rect
         transform="matrix(0,-1,1,0,0,0)"
         ry="9"
         y="291"
         x="-266.5"
         height="42"
         width="40"
         id="rect4183"
         style="opacity:0.3;color:#bebebe;fill:#000000;fill-opacity:1;stroke:none;stroke-width:1;marker:none;visibility:visible;display:inline;overflow:visible;enable-background:accumulate" />
      <rect
         ry="9"
         y="237"
         x="291"
         height="29"
         width="42"
         id="rect4144"
         style="opacity:0.3;color:#bebebe;fill:#000000;fill-opacity:1;fill-rule:nonzero;stroke:none;stroke-width:0;marker:none;visibility:visible;display:inline;overflow:visible;enable-background:accumulate" />
      <rect
         style="opacity:0.05;color:#bebebe;fill:#000000;fill-opacity:1;fill-rule:nonzero;stroke:#000000;stroke-width:1;stroke-miterlimit:4;stroke-opacity:1;stroke-dasharray:none;marker:none;visibility:visible;display:inline;overflow:visible;enable-background:accumulate"
         id="rect4340"
         width="88"
         height="88"
         x="292"
         y="33.5"
         ry="18" />
      <rect
         ry="18"
         y="52.5"
         x="292"
         height="69"
         width="88"
         id="rect4338"
         style="opacity:0.3;color:#bebebe;fill:#000000;fill-opacity:1;fill-rule:nonzero;stroke:none;stroke-width:0;marker:none;visibility:visible;display:inline;overflow:visible;enable-background:accumulate" />
      <rect
         style="opacity:0.3;color:#bebebe;fill:#000000;fill-opacity:1;fill-rule:nonzero;stroke:none;stroke-width:0;marker:none;visibility:visible;display:inline;overflow:visible;enable-background:accumulate"
         id="rect4335"
         width="88"
         height="76.5"
         x="292"
         y="44.5"
         ry="18" />
      <rect
         style="opacity:0.05;color:#bebebe;fill:#000000;fill-opacity:1;fill-rule:nonzero;stroke:#000000;stroke-width:1;stroke-miterlimit:4;stroke-opacity:1;stroke-dasharray:none;marker:none;visibility:visible;display:inline;overflow:visible;enable-background:accumulate"
         id="rect4214"
         width="60"
         height="60"
         x="290"
         y="143.5"
         ry="12.5" />
      <rect
         ry="12.5"
         y="151.5"
         x="290"
         height="52"
         width="60"
         id="rect4206"
         style="opacity:0.3;color:#bebebe;fill:#000000;fill-opacity:1;fill-rule:nonzero;stroke:none;stroke-width:0;marker:none;visibility:visible;display:inline;overflow:visible;enable-background:accumulate" />
      <rect
         style="opacity:0.3;color:#bebebe;fill:#000000;fill-opacity:1;fill-rule:nonzero;stroke:none;stroke-width:0;marker:none;visibility:visible;display:inline;overflow:visible;enable-background:accumulate"
         id="rect4212"
         width="60"
         height="54.5"
         x="290"
         y="148.5"
         ry="12.5" />
      <rect
         style="opacity:0.5;color:#bebebe;fill:#000000;fill-opacity:1;fill-rule:nonzero;stroke:none;stroke-width:0;marker:none;visibility:visible;display:inline;overflow:visible;enable-background:accumulate"
         id="rect4058"
         width="30"
         height="30"
         x="417"
         y="54"
         ry="7" />
      <rect
         ry="50"
         y="48"
         x="34"
         height="220"
         width="220"
         id="rect3872"
         style="opacity:0.05;color:#bebebe;fill:#000000;fill-opacity:1;fill-rule:nonzero;stroke:#000000;stroke-width:2;stroke-miterlimit:4;stroke-opacity:1;stroke-dasharray:none;marker:none;visibility:visible;display:inline;overflow:visible;enable-background:accumulate" />
      <rect
         style="opacity:0.3;color:#bebebe;fill:#000000;fill-opacity:1;fill-rule:nonzero;stroke:none;stroke-width:0;marker:none;visibility:visible;display:inline;overflow:visible;enable-background:accumulate"
         id="rect3870"
         width="220"
         height="220"
         x="34"
         y="48"
         ry="50" />
      <rect
         ry="50"
         y="47"
         x="34"
         height="220"
         width="220"
         id="rect3868"
         style="opacity:0.3;color:#bebebe;fill:#000000;fill-opacity:1;fill-rule:nonzero;stroke:none;stroke-width:0;marker:none;visibility:visible;display:inline;overflow:visible;enable-background:accumulate" />
    </g>
    <g
       inkscape:groupmode="layer"
       id="layer2"
       inkscape:label="Background"
       style="display:inline">
      <rect
         style="color:#bebebe;fill:url(#linearGradient3876);fill-opacity:1;fill-rule:nonzero;stroke:none;stroke-width:0;marker:none;visibility:visible;display:inline;overflow:visible;enable-background:accumulate"
         id="rect4040"
         width="220"
         height="220"
         x="34"
         y="46"
         ry="50" />
      <rect
         ry="3"
         y="140"
         x="416"
         height="16"
         width="16"
         id="rect4095"
         style="color:#bebebe;fill:url(#linearGradient4097);fill-opacity:1;fill-rule:nonzero;stroke:none;stroke-width:0;marker:none;visibility:visible;display:inline;overflow:visible;enable-background:accumulate" />
      <rect
         style="color:#bebebe;fill:url(#linearGradient4101);fill-opacity:1;fill-rule:nonzero;stroke:none;stroke-width:0;marker:none;visibility:visible;display:inline;overflow:visible;enable-background:accumulate"
         id="rect4099"
         width="22"
         height="22"
         x="417"
         y="101"
         ry="5" />
      <rect
         ry="7"
         y="53"
         x="417"
         height="30"
         width="30"
         id="rect4151"
         style="color:#bebebe;fill:url(#linearGradient4153);fill-opacity:1;fill-rule:nonzero;stroke:none;stroke-width:0;marker:none;visibility:visible;display:inline;overflow:visible;enable-background:accumulate" />
      <rect
         style="color:#bebebe;fill:url(#linearGradient4869);fill-opacity:1;fill-rule:nonzero;stroke:none;stroke-width:0;marker:none;visibility:visible;display:inline;overflow:visible;enable-background:accumulate"
         id="rect4783"
         width="42"
         height="42"
         x="291"
         y="-265"
         ry="9"
         transform="scale(1,-1)" />
      <rect
         ry="18"
         y="32"
         x="292"
         height="88"
         width="88"
         id="rect4511"
         style="color:#bebebe;fill:url(#linearGradient4197);fill-opacity:1;fill-rule:nonzero;stroke:none;stroke-width:0;marker:none;visibility:visible;display:inline;overflow:visible;enable-background:accumulate" />
      <rect
         style="color:#bebebe;fill:url(#linearGradient4199);fill-opacity:1;fill-rule:nonzero;stroke:none;stroke-width:0;marker:none;visibility:visible;display:inline;overflow:visible;enable-background:accumulate"
         id="rect4515"
         width="60"
         height="60"
         x="290"
         y="142"
         ry="12.5" />
    </g>
    <g
       inkscape:groupmode="layer"
       id="layer6"
       inkscape:label="Symbols"
       style="display:inline">
      <path
         sodipodi:nodetypes="sssssssssssssssssssssssssssssssssssssssscsssss"
         inkscape:connector-curvature="0"
         id="path4314"
         d="m 339.85438,105.73991 c 0.85136,-1.01179 1.06029,-1.69159 1.06029,-3.44981 0,-2.65199 1.13935,-4.25747 3.76768,-5.30912 2.32341,-0.92965 3.99464,-0.54791 6.28693,1.43607 2.63713,2.28241 4.17465,2.24304 6.58631,-0.16862 2.40731,-2.40731 2.45004,-3.95033 0.18199,-6.57086 -1.87739,-2.16915 -2.24664,-3.11244 -1.9118,-4.88383 0.63048,-3.33548 2.98434,-5.18623 6.59607,-5.18623 2.86205,0 3.88532,-1.22359 3.88532,-4.64591 0,-3.74139 -0.65599,-4.44738 -4.45614,-4.7957 -3.247,-0.29762 -4.14693,-0.85263 -5.41679,-3.34071 -1.3389,-2.62336 -1.00574,-4.13721 1.53614,-6.97995 2.01845,-2.25738 1.88303,-3.60031 -0.61494,-6.09829 -2.49797,-2.49797 -3.84091,-2.63339 -6.09829,-0.61493 -2.74648,2.4558 -4.41965,2.86222 -7.12671,1.73114 -2.21209,-0.92427 -2.91953,-2.01147 -3.28519,-5.04869 C 340.37782,47.9318 339.39177,47 335.75045,47 c -2.43772,0 -2.78039,0.1071 -3.6767,1.14912 -0.7312,0.85007 -0.98843,1.63334 -0.98843,3.00978 0,2.63878 -1.01808,4.52248 -2.98722,5.52706 -2.84657,1.45221 -4.94074,1.05858 -7.56048,-1.42111 -2.00165,-1.89466 -3.70417,-1.75118 -6.00405,0.50599 -0.99048,0.97208 -1.88191,2.19133 -1.98095,2.70944 -0.2362,1.23557 0.55572,3.0224 1.88157,4.24547 1.55087,1.43066 2.08986,3.36442 1.46721,5.26401 -1.06306,3.24322 -2.11454,3.99622 -6.02398,4.31398 -3.21943,0.26168 -4.18459,1.32999 -4.18459,4.63177 0,1.40647 0.11448,2.85556 0.25441,3.2202 0.40343,1.05134 2.39859,1.86135 4.58469,1.86135 2.38364,0 3.79292,0.9295 5.00168,3.29885 1.26809,2.48567 1.06296,3.70722 -1.03532,6.16542 -1.3696,1.60453 -1.84299,2.50365 -1.84299,3.50042 0,2.43491 4.03129,5.91045 6.01806,5.18842 0.40679,-0.14784 1.63912,-0.97536 2.73851,-1.83894 2.2138,-1.73895 4.10226,-2.0325 6.51255,-1.01233 2.15175,0.91074 2.88866,2.06798 3.19373,5.01537 0.39656,3.83132 1.27587,4.66573 4.91683,4.66573 2.57817,0 2.82863,-0.0826 3.8194,-1.26009 z M 333.59661,89.366 c -4.01097,-0.80779 -7.1047,-3.18403 -9.14393,-7.02331 -0.76176,-1.43419 -0.93417,-2.40201 -0.93349,-5.2403 8.2e-4,-2.97451 0.1593,-3.78308 1.08955,-5.555 1.30696,-2.48947 3.84417,-4.87446 6.42645,-6.0409 2.93342,-1.32505 7.35816,-1.21897 10.35715,0.2483 5.57285,2.72654 8.41723,8.94652 6.73594,14.72994 -1.80794,6.21908 -8.23784,10.14883 -14.53166,8.88127 z"
         style="opacity:0.2;fill:#000000;fill-opacity:1" />
      <path
         style="opacity:0.2;fill:#000000;fill-opacity:1"
         d="m 322.56959,192.15994 c 0.56757,-0.67453 0.70686,-1.12773 0.70686,-2.29987 0,-1.768 0.75956,-2.83832 2.51178,-3.53942 1.54894,-0.61976 2.6631,-0.36527 4.19129,0.95738 1.75809,1.52161 2.7831,1.49536 4.39087,-0.11241 1.60488,-1.60487 1.63336,-2.63355 0.12133,-4.38057 -1.25159,-1.4461 -1.49776,-2.07496 -1.27453,-3.25589 0.42032,-2.22365 1.98956,-3.45749 4.39738,-3.45749 1.90803,0 2.59021,-0.81572 2.59021,-3.09727 0,-2.49426 -0.43733,-2.96492 -2.97076,-3.19713 -2.16467,-0.19842 -2.76462,-0.56842 -3.61119,-2.22714 -0.8926,-1.74891 -0.6705,-2.75814 1.02409,-4.6533 1.34563,-1.50492 1.25535,-2.40021 -0.40996,-4.06553 -1.66531,-1.66531 -2.56061,-1.75559 -4.06553,-0.40995 -1.83098,1.6372 -2.94643,1.90814 -4.75114,1.15409 -1.47472,-0.61618 -1.94635,-1.34098 -2.19012,-3.36579 C 322.91855,153.6212 322.26118,153 319.83363,153 c -1.62514,0 -1.85359,0.0714 -2.45113,0.76608 -0.48747,0.56671 -0.65895,1.08889 -0.65895,2.00652 0,1.75919 -0.67872,3.01499 -1.99148,3.68471 -1.89772,0.96814 -3.29383,0.70572 -5.04032,-0.94741 -1.33444,-1.26311 -2.46945,-1.16745 -4.0027,0.33733 -0.66032,0.64805 -1.25461,1.46088 -1.32064,1.80629 -0.15746,0.82371 0.37048,2.01493 1.25438,2.83031 1.03392,0.95378 1.39324,2.24295 0.97814,3.50934 -0.7087,2.16215 -1.40969,2.66415 -4.01598,2.87599 -2.14629,0.17445 -2.78973,0.88666 -2.78973,3.08785 0,0.93764 0.0763,1.9037 0.16961,2.1468 0.26895,0.70089 1.59906,1.2409 3.05646,1.2409 1.58909,0 2.52861,0.61966 3.33445,2.19923 0.84539,1.65711 0.70864,2.47148 -0.69021,4.11028 -0.91307,1.06969 -1.22866,1.6691 -1.22866,2.33361 0,1.62328 2.68752,3.9403 4.01204,3.45895 0.27119,-0.0986 1.09274,-0.65024 1.82567,-1.22596 1.47587,-1.1593 2.73484,-1.355 4.3417,-0.67489 1.4345,0.60716 1.92577,1.37866 2.12915,3.34358 0.26438,2.55422 0.85058,3.11049 3.27789,3.11049 1.71878,0 1.88575,-0.0551 2.54627,-0.84006 z M 318.39774,181.244 c -2.67398,-0.53853 -4.73647,-2.12269 -6.09595,-4.68221 -0.50784,-0.95612 -0.62278,-1.60134 -0.62233,-3.49353 5.5e-4,-1.98301 0.1062,-2.52205 0.72637,-3.70333 0.8713,-1.65965 2.56278,-3.24964 4.2843,-4.02727 1.95561,-0.88337 4.90544,-0.81265 6.90476,0.16553 3.71524,1.8177 5.61149,5.96435 4.49063,9.81996 -1.20529,4.14606 -5.49189,6.76589 -9.68777,5.92085 z"
         id="path4316"
         inkscape:connector-curvature="0"
         sodipodi:nodetypes="sssssssssssssssssssssssssssssssssssssssscsssss" />
      <path
         sodipodi:nodetypes="sssssssssssssssssssssssssssssssssssssssscsssss"
         inkscape:connector-curvature="0"
         id="path4318"
         d="m 313.79873,258.41196 c 0.3973,-0.47217 0.4948,-0.78941 0.4948,-1.60991 0,-1.2376 0.53169,-1.98683 1.75825,-2.4776 1.08426,-0.43383 1.86417,-0.25568 2.9339,0.67017 1.23066,1.06513 1.94817,1.04675 3.07361,-0.0787 1.12342,-1.12341 1.14335,-1.84348 0.0849,-3.0664 -0.87611,-1.01227 -1.04843,-1.45247 -0.89217,-2.27912 0.29422,-1.55655 1.39269,-2.42024 3.07816,-2.42024 1.33563,0 1.81315,-0.57101 1.81315,-2.16809 0,-1.74598 -0.30613,-2.07544 -2.07953,-2.23799 -1.51527,-0.1389 -1.93523,-0.3979 -2.52783,-1.559 -0.62482,-1.22424 -0.46935,-1.9307 0.71686,-3.25731 0.94194,-1.05344 0.87874,-1.68015 -0.28697,-2.84587 -1.16572,-1.16572 -1.79243,-1.22891 -2.84587,-0.28697 -1.28169,1.14604 -2.0625,1.3357 -3.3258,0.80787 -1.03231,-0.43133 -1.36245,-0.93869 -1.53309,-2.35606 C 314.043,231.43484 313.58284,231 311.88356,231 c -1.1376,0 -1.29752,0.05 -1.71579,0.53626 -0.34123,0.39669 -0.46127,0.76222 -0.46127,1.40456 0,1.23143 -0.4751,2.11049 -1.39404,2.5793 -1.3284,0.67769 -2.30568,0.494 -3.52822,-0.66319 -0.93411,-0.88418 -1.72861,-0.81722 -2.80189,0.23613 -0.46222,0.45364 -0.87823,1.02262 -0.92445,1.2644 -0.11022,0.5766 0.25934,1.41045 0.87807,1.98122 0.72374,0.66765 0.97527,1.57007 0.6847,2.45654 -0.49609,1.5135 -0.98679,1.8649 -2.81119,2.01319 -1.5024,0.12212 -1.95281,0.62066 -1.95281,2.1615 0,0.65634 0.0534,1.33259 0.11873,1.50276 0.18826,0.49062 1.11934,0.86863 2.13952,0.86863 1.11236,0 1.77003,0.43376 2.33411,1.53946 0.59178,1.15997 0.49605,1.73003 -0.48314,2.87719 -0.63915,0.74879 -0.86007,1.16837 -0.86007,1.63353 0,1.1363 1.88127,2.75821 2.80843,2.42127 0.18984,-0.069 0.76492,-0.45517 1.27797,-0.85818 1.03311,-0.81151 1.91439,-0.9485 3.03919,-0.47242 1.00415,0.42501 1.34804,0.96506 1.49041,2.34051 0.18506,1.78795 0.5954,2.17734 2.29452,2.17734 1.20315,0 1.32002,-0.0386 1.78239,-0.58804 z m -2.9203,-7.64116 c -1.87178,-0.37697 -3.31553,-1.48588 -4.26716,-3.27755 -0.35549,-0.66928 -0.43595,-1.12094 -0.43563,-2.44547 3.8e-4,-1.38811 0.0743,-1.76543 0.50846,-2.59233 0.60991,-1.16175 1.79394,-2.27475 2.99901,-2.81909 1.36892,-0.61836 3.4338,-0.56885 4.83333,0.11587 2.60067,1.27239 3.92804,4.17505 3.14344,6.87397 -0.8437,2.90225 -3.84432,4.73613 -6.78144,4.1446 z"
         style="opacity:0.2;fill:#000000;fill-opacity:1" />
      <path
         style="opacity:0.2;fill:#000000;fill-opacity:1"
         d="m 154.27846,233.63977 c 2.27028,-2.69811 2.82742,-4.51091 2.82742,-9.19948 0,-7.072 3.03823,-11.35332 10.04715,-14.15772 6.19577,-2.47903 10.6524,-1.46103 16.76514,3.82954 7.03234,6.08646 11.1324,5.98143 17.56349,-0.44971 6.41954,-6.41949 6.53342,-10.53417 0.48514,-17.52229 -5.00634,-5.7844 -5.99103,-8.29982 -5.09812,-13.02354 1.68126,-8.89457 7.95823,-13.82994 17.58949,-13.82994 7.63217,0 10.36086,-3.26292 10.36086,-12.38909 0,-9.97703 -1.74932,-11.85965 -11.88303,-12.78851 -8.65869,-0.79372 -11.05846,-2.27372 -14.44474,-8.90857 -3.5704,-6.99566 -2.682,-11.03257 4.09634,-18.6132 5.38251,-6.01966 5.02137,-9.60086 -1.63983,-16.26212 -6.66126,-6.66125 -10.24246,-7.02234 -16.26211,-1.63983 -7.32395,6.5488 -11.78572,7.63258 -19.00458,4.6164 -5.89891,-2.46474 -7.78542,-5.36394 -8.76051,-13.4632 C 155.67428,79.4848 153.0448,77 143.33463,77 c -6.50057,0 -7.4144,0.285714 -9.80452,3.06434 -1.94988,2.2668 -2.63583,4.35555 -2.63583,8.02606 0,7.03674 -2.71485,12.05994 -7.96594,14.73886 -7.59086,3.87251 -13.17531,2.82285 -20.16126,-3.78966 -5.33777,-5.05246 -9.87777,-4.66983 -16.0108,1.34931 -2.64125,2.59223 -5.01845,5.84355 -5.28257,7.22515 -0.62983,3.29485 1.48195,8.05971 5.01755,11.32125 4.13565,3.81515 5.57297,8.97183 3.91257,14.03738 -2.8348,8.64857 -5.6388,10.65657 -16.06395,11.50394 -8.58514,0.69783 -11.15891,3.54663 -11.15891,12.35143 0,3.75051 0.30514,7.6148 0.67846,8.5872 1.07577,2.80354 6.39623,4.9636 12.22583,4.9636 6.35634,0 10.11445,2.47863 13.33777,8.79691 3.3816,6.6284 2.83457,9.88589 -2.7608,16.44109 -3.65229,4.2788 -4.91469,6.6764 -4.91469,9.33445 0,6.49315 10.75012,15.7612 16.04817,13.83583 1.0848,-0.39428 4.37097,-2.60097 7.30269,-4.90388 5.90348,-4.6372 10.93937,-5.42 17.3668,-2.69955 5.738,2.42863 7.70308,5.51463 8.51663,13.37435 1.05748,10.21685 3.40228,12.44194 13.11154,12.44194 6.87514,0 7.54297,-0.22057 10.18509,-3.36023 z M 137.59103,189.976 c -10.69589,-2.15411 -18.94589,-8.49074 -24.38377,-18.72886 -2.03138,-3.82445 -2.49115,-6.40537 -2.48932,-13.97411 0.002,-7.93206 0.42457,-10.08817 2.90549,-14.81332 3.4852,-6.63857 10.25108,-12.99857 17.1372,-16.10908 7.8224,-3.53349 19.62171,-3.25057 27.61903,0.66211 14.86097,7.2708 22.44594,23.85743 17.96251,39.27983 -4.82114,16.58429 -21.96754,27.0636 -38.75109,23.68343 z"
         id="path4320"
         inkscape:connector-curvature="0"
         sodipodi:nodetypes="sssssssssssssssssssssssssssssssssssssssscsssss" />
      <path
         style="opacity:0.2;fill:#000000;fill-opacity:1"
         d="m 433.28477,78.57997 c 0.28379,-0.33726 0.35343,-0.56386 0.35343,-1.14994 0,-0.88399 0.37979,-1.41915 1.2559,-1.7697 0.77447,-0.30989 1.33154,-0.18264 2.09564,0.47869 0.87904,0.7608 1.39155,0.74768 2.19544,-0.0562 0.80243,-0.80244 0.81668,-1.31678 0.0607,-2.19029 -0.6258,-0.72305 -0.74888,-1.037477 -0.63727,-1.62794 0.21016,-1.111827 0.99478,-1.728743 2.19869,-1.728743 0.95402,0 1.29511,-0.407864 1.29511,-1.548637 0,-1.24713 -0.21866,-1.48246 -1.48538,-1.598567 -1.08233,-0.09921 -1.38231,-0.28421 -1.8056,-1.11357 -0.4463,-0.874453 -0.33524,-1.37907 0.51205,-2.32665 0.67282,-0.75246 0.62768,-1.200103 -0.20498,-2.032763 -0.83266,-0.832657 -1.2803,-0.877797 -2.03276,-0.204977 -0.9155,0.8186 -1.47322,0.954074 -2.37557,0.577047 -0.73741,-0.3081 -0.97322,-0.6705 -1.09511,-1.682907 C 433.45925,59.3106 433.13057,59 431.9168,59 c -0.81258,0 -0.9268,0.0357 -1.22557,0.38304 -0.24373,0.283357 -0.32948,0.544447 -0.32948,1.00326 0,0.879593 -0.33936,1.507493 -0.99574,1.842353 -0.94885,0.48407 -1.64691,0.35286 -2.52016,-0.473703 -0.66721,-0.631553 -1.23472,-0.583727 -2.00135,0.168663 -0.33016,0.324027 -0.6273,0.730444 -0.66031,0.903147 -0.0787,0.411857 0.18524,1.007467 0.62719,1.415157 0.51695,0.476886 0.69662,1.121473 0.48907,1.75467 -0.35436,1.081073 -0.70485,1.332073 -2.008,1.437993 -1.07314,0.08723 -1.39486,0.44333 -1.39486,1.543923 0,0.468824 0.0382,0.951854 0.0848,1.0734 0.13448,0.350447 0.79953,0.62045 1.52823,0.62045 0.79455,0 1.26431,0.309834 1.66723,1.099617 0.4227,0.828557 0.35432,1.23574 -0.34511,2.05514 -0.45653,0.53484 -0.61433,0.83455 -0.61433,1.16681 0,0.81163 1.34377,1.97015 2.00602,1.72947 0.1356,-0.0493 0.54638,-0.32512 0.91284,-0.61298 0.73793,-0.57965 1.36742,-0.6775 2.17085,-0.33744 0.71725,0.30358 0.96289,0.68932 1.06458,1.67179 0.13218,1.2771 0.42529,1.55524 1.63894,1.55524 0.85939,0 0.94288,-0.0275 1.27313,-0.42003 z M 431.19885,73.122 c -1.33699,-0.269263 -2.36823,-1.061343 -3.04798,-2.341103 -0.25392,-0.478064 -0.31139,-0.80067 -0.31116,-1.746767 2.7e-4,-0.991503 0.0531,-1.261027 0.36318,-1.851667 0.43566,-0.829823 1.28139,-1.62482 2.14215,-2.013633 0.97781,-0.441683 2.45272,-0.406323 3.45239,0.08277 1.85761,0.908846 2.80574,2.982173 2.24531,4.90998 -0.60265,2.073026 -2.74595,3.382943 -4.84389,2.960423 z"
         id="path4322"
         inkscape:connector-curvature="0"
         sodipodi:nodetypes="sssssssssssssssssssssssssssssssssssssssscsssss" />
      <path
         sodipodi:nodetypes="sssssssssssssssssssssssssssssssssssssssscsssss"
         inkscape:connector-curvature="0"
         id="path4324"
         d="m 428.89934,119.70598 c 0.19865,-0.23608 0.2474,-0.3947 0.2474,-0.80496 0,-0.61879 0.26585,-0.9934 0.87913,-1.23879 0.54213,-0.21692 0.93208,-0.12785 1.46695,0.33508 0.61532,0.53256 0.97408,0.52338 1.5368,-0.0393 0.5617,-0.5617 0.57168,-0.92174 0.0425,-1.5332 -0.43806,-0.50613 -0.52421,-0.72623 -0.44609,-1.13956 0.14712,-0.77828 0.69635,-1.21012 1.53909,-1.21012 0.66781,0 0.90657,-0.2855 0.90657,-1.08404 0,-0.87299 -0.15306,-1.03772 -1.03976,-1.119 -0.75763,-0.0695 -0.96762,-0.19895 -1.26392,-0.7795 -0.31241,-0.61212 -0.23467,-0.96535 0.35843,-1.62865 0.47098,-0.52673 0.43938,-0.84008 -0.14348,-1.42294 -0.58286,-0.58286 -0.89621,-0.61446 -1.42294,-0.14348 -0.64085,0.57302 -1.03125,0.66785 -1.66289,0.40393 -0.51619,-0.21567 -0.68126,-0.46935 -0.76658,-1.17803 C 429.02147,106.21742 428.7914,106 427.94176,106 c -0.56881,0 -0.64876,0.025 -0.8579,0.26813 -0.17061,0.19835 -0.23064,0.38111 -0.23064,0.70228 0,0.61571 -0.23755,1.05525 -0.69702,1.28965 -0.66419,0.33885 -1.15283,0.247 -1.76411,-0.33159 -0.46704,-0.44209 -0.8643,-0.40861 -1.40094,0.11806 -0.23111,0.22682 -0.43911,0.51131 -0.46222,0.6322 -0.0551,0.2883 0.12967,0.70523 0.43903,0.99061 0.36187,0.33382 0.48764,0.78503 0.34235,1.22827 -0.24805,0.75675 -0.49339,0.93245 -1.4056,1.0066 -0.7512,0.0611 -0.9764,0.31033 -0.9764,1.08074 0,0.32818 0.0267,0.6663 0.0594,0.75138 0.0941,0.24532 0.55967,0.43432 1.06976,0.43432 0.55619,0 0.88502,0.21688 1.16706,0.76973 0.29589,0.57999 0.24803,0.86502 -0.24157,1.4386 -0.31958,0.37439 -0.43004,0.58418 -0.43004,0.81676 0,0.56815 0.94064,1.37911 1.40422,1.21063 0.0949,-0.0345 0.38246,-0.22758 0.63899,-0.42908 0.51655,-0.40576 0.95719,-0.47425 1.51959,-0.23621 0.50208,0.21251 0.67402,0.48252 0.74521,1.17025 0.0925,0.89397 0.2977,1.08867 1.14726,1.08867 0.60157,0 0.66001,-0.0192 0.89119,-0.29402 z m -1.46015,-3.82058 c -0.93589,-0.18848 -1.65776,-0.74294 -2.13358,-1.63877 -0.17775,-0.33465 -0.21798,-0.56047 -0.21782,-1.22274 1.9e-4,-0.69405 0.0372,-0.88272 0.25423,-1.29617 0.30496,-0.58087 0.89697,-1.13737 1.49951,-1.40954 0.68446,-0.30918 1.7169,-0.28442 2.41667,0.0579 1.30033,0.63619 1.96402,2.08752 1.57172,3.43699 -0.42186,1.45112 -1.92217,2.36806 -3.39073,2.07229 z"
         style="opacity:0.2;fill:#000000;fill-opacity:1" />
      <path
         style="opacity:0.2;fill:#000000;fill-opacity:1"
         d="m 424.64237,153.79 c 0.1419,-0.16862 0.17672,-0.28192 0.17672,-0.57497 0,-0.44199 0.18989,-0.70957 0.62795,-0.88485 0.38723,-0.15494 0.66577,-0.0913 1.04782,0.23935 0.43951,0.38039 0.69576,0.37384 1.09771,-0.0281 0.40122,-0.40122 0.40835,-0.65839 0.0304,-1.09515 -0.31291,-0.36152 -0.37444,-0.51874 -0.31865,-0.81397 0.1051,-0.55591 0.49741,-0.86437 1.09936,-0.86437 0.47701,0 0.64755,-0.20393 0.64755,-0.77431 0,-0.62357 -0.10932,-0.74123 -0.74268,-0.79929 -0.54117,-0.0496 -0.69116,-0.14211 -0.9028,-0.55679 -0.22315,-0.43722 -0.16762,-0.68953 0.25601,-1.16332 0.33641,-0.37623 0.31385,-0.60005 -0.10248,-1.01638 -0.41632,-0.41633 -0.64016,-0.4389 -1.01639,-0.10249 -0.45775,0.4093 -0.73661,0.47704 -1.18778,0.28852 -0.36871,-0.15405 -0.4866,-0.33525 -0.54755,-0.84145 -0.078,-0.64711 -0.24229,-0.80241 -0.84917,-0.80241 -0.4063,0 -0.4634,0.0179 -0.61279,0.19152 -0.12186,0.14167 -0.16474,0.27222 -0.16474,0.50163 0,0.43979 -0.16968,0.75375 -0.49787,0.92118 -0.47442,0.24203 -0.82345,0.17643 -1.26008,-0.23686 -0.3336,-0.31577 -0.61736,-0.29186 -1.00067,0.0843 -0.16508,0.162 -0.31365,0.36522 -0.33016,0.45157 -0.0394,0.20593 0.0926,0.50373 0.31359,0.70757 0.25848,0.23845 0.34832,0.56074 0.24454,0.87734 -0.17719,0.54054 -0.35242,0.66604 -1.00401,0.719 -0.53656,0.0436 -0.69743,0.22167 -0.69743,0.77195 0,0.23441 0.0191,0.47594 0.0424,0.5367 0.0672,0.17523 0.39977,0.31023 0.76412,0.31023 0.39728,0 0.63216,0.15492 0.83361,0.54981 0.21135,0.41428 0.17717,0.61787 -0.17255,1.02757 -0.22827,0.26743 -0.30716,0.41727 -0.30716,0.5834 0,0.40582 0.67187,0.98508 1.00301,0.86473 0.0678,-0.0246 0.27319,-0.16255 0.45642,-0.30648 0.36897,-0.28983 0.68371,-0.33875 1.08542,-0.16871 0.35863,0.15179 0.48145,0.34465 0.5323,0.83589 0.0661,0.63854 0.21264,0.77761 0.81947,0.77761 0.42969,0 0.47143,-0.0137 0.63656,-0.21 z m -1.04296,-2.72898 c -0.66849,-0.13463 -1.18412,-0.53068 -1.52399,-1.17056 -0.12696,-0.23903 -0.15571,-0.40033 -0.15558,-0.87338 1.3e-4,-0.49575 0.0266,-0.63051 0.18159,-0.92583 0.21783,-0.41492 0.64069,-0.81241 1.07108,-1.00683 0.4889,-0.22084 1.22636,-0.20314 1.72619,0.0414 0.92881,0.45441 1.40287,1.49108 1.12266,2.45498 -0.30133,1.03652 -1.37298,1.69148 -2.42195,1.48021 z"
         id="path4326"
         inkscape:connector-curvature="0"
         sodipodi:nodetypes="sssssssssssssssssssssssssssssssssssssssscsssss" />
      <path
         style="fill:#ffffff;fill-opacity:1"
         d="m 339.85438,104.73991 c 0.85136,-1.01179 1.06029,-1.69159 1.06029,-3.44981 0,-2.65199 1.13935,-4.25747 3.76768,-5.30912 2.32341,-0.92965 3.99464,-0.54791 6.28693,1.43607 2.63713,2.28241 4.17465,2.24304 6.58631,-0.16862 2.40731,-2.40731 2.45004,-3.95033 0.18199,-6.57086 -1.87739,-2.16915 -2.24664,-3.11244 -1.9118,-4.88383 0.63048,-3.33548 2.98434,-5.18623 6.59607,-5.18623 2.86205,0 3.88532,-1.22359 3.88532,-4.64591 0,-3.74139 -0.65599,-4.44738 -4.45614,-4.7957 -3.247,-0.29762 -4.14693,-0.85263 -5.41679,-3.34071 -1.3389,-2.62336 -1.00574,-4.13721 1.53614,-6.97995 2.01845,-2.25738 1.88303,-3.60031 -0.61494,-6.09829 -2.49797,-2.49797 -3.84091,-2.63339 -6.09829,-0.61493 -2.74648,2.4558 -4.41965,2.86222 -7.12671,1.73114 -2.21209,-0.92427 -2.91953,-2.01147 -3.28519,-5.04869 C 340.37782,46.9318 339.39177,46 335.75045,46 c -2.43772,0 -2.78039,0.1071 -3.6767,1.14912 -0.7312,0.85007 -0.98843,1.63334 -0.98843,3.00978 0,2.63878 -1.01808,4.52248 -2.98722,5.52706 -2.84657,1.45221 -4.94074,1.05858 -7.56048,-1.42111 -2.00165,-1.89466 -3.70417,-1.75118 -6.00405,0.50599 -0.99048,0.97208 -1.88191,2.19133 -1.98095,2.70944 -0.2362,1.23557 0.55572,3.0224 1.88157,4.24547 1.55087,1.43066 2.08986,3.36442 1.46721,5.26401 -1.06306,3.24322 -2.11454,3.99622 -6.02398,4.31398 -3.21943,0.26168 -4.18459,1.32999 -4.18459,4.63177 0,1.40647 0.11448,2.85556 0.25441,3.2202 0.40343,1.05134 2.39859,1.86135 4.58469,1.86135 2.38364,0 3.79292,0.9295 5.00168,3.29885 1.26809,2.48567 1.06296,3.70722 -1.03532,6.16542 -1.3696,1.60453 -1.84299,2.50365 -1.84299,3.50042 0,2.43491 4.03129,5.91045 6.01806,5.18842 0.40679,-0.14784 1.63912,-0.97536 2.73851,-1.83894 2.2138,-1.73895 4.10226,-2.0325 6.51255,-1.01233 2.15175,0.91074 2.88866,2.06798 3.19373,5.01537 0.39656,3.83132 1.27587,4.66573 4.91683,4.66573 2.57817,0 2.82863,-0.0826 3.8194,-1.26009 z M 333.59661,88.366 c -4.01097,-0.80779 -7.1047,-3.18403 -9.14393,-7.02331 -0.76176,-1.43419 -0.93417,-2.40201 -0.93349,-5.2403 8.2e-4,-2.97451 0.1593,-3.78308 1.08955,-5.555 1.30696,-2.48947 3.84417,-4.87446 6.42645,-6.0409 2.93342,-1.32505 7.35816,-1.21897 10.35715,0.2483 5.57285,2.72654 8.41723,8.94652 6.73594,14.72994 -1.80794,6.21908 -8.23784,10.14883 -14.53166,8.88127 z"
         id="path4300"
         inkscape:connector-curvature="0"
         sodipodi:nodetypes="sssssssssssssssssssssssssssssssssssssssscsssss" />
      <path
         sodipodi:nodetypes="sssssssssssssssssssssssssssssssssssssssscsssss"
         inkscape:connector-curvature="0"
         id="path4302"
         d="m 322.56959,191.15994 c 0.56757,-0.67453 0.70686,-1.12773 0.70686,-2.29987 0,-1.768 0.75956,-2.83832 2.51178,-3.53942 1.54894,-0.61976 2.6631,-0.36527 4.19129,0.95738 1.75809,1.52161 2.7831,1.49536 4.39087,-0.11241 1.60488,-1.60487 1.63336,-2.63355 0.12133,-4.38057 -1.25159,-1.4461 -1.49776,-2.07496 -1.27453,-3.25589 0.42032,-2.22365 1.98956,-3.45749 4.39738,-3.45749 1.90803,0 2.59021,-0.81572 2.59021,-3.09727 0,-2.49426 -0.43733,-2.96492 -2.97076,-3.19713 -2.16467,-0.19842 -2.76462,-0.56842 -3.61119,-2.22714 -0.8926,-1.74891 -0.6705,-2.75814 1.02409,-4.6533 1.34563,-1.50492 1.25535,-2.40021 -0.40996,-4.06553 -1.66531,-1.66531 -2.56061,-1.75559 -4.06553,-0.40995 -1.83098,1.6372 -2.94643,1.90814 -4.75114,1.15409 -1.47472,-0.61618 -1.94635,-1.34098 -2.19012,-3.36579 C 322.91855,152.6212 322.26118,152 319.83363,152 c -1.62514,0 -1.85359,0.0714 -2.45113,0.76608 -0.48747,0.56671 -0.65895,1.08889 -0.65895,2.00652 0,1.75919 -0.67872,3.01499 -1.99148,3.68471 -1.89772,0.96814 -3.29383,0.70572 -5.04032,-0.94741 -1.33444,-1.26311 -2.46945,-1.16745 -4.0027,0.33733 -0.66032,0.64805 -1.25461,1.46088 -1.32064,1.80629 -0.15746,0.82371 0.37048,2.01493 1.25438,2.83031 1.03392,0.95378 1.39324,2.24295 0.97814,3.50934 -0.7087,2.16215 -1.40969,2.66415 -4.01598,2.87599 -2.14629,0.17445 -2.78973,0.88666 -2.78973,3.08785 0,0.93764 0.0763,1.9037 0.16961,2.1468 0.26895,0.70089 1.59906,1.2409 3.05646,1.2409 1.58909,0 2.52861,0.61966 3.33445,2.19923 0.84539,1.65711 0.70864,2.47148 -0.69021,4.11028 -0.91307,1.06969 -1.22866,1.6691 -1.22866,2.33361 0,1.62328 2.68752,3.9403 4.01204,3.45895 0.27119,-0.0986 1.09274,-0.65024 1.82567,-1.22596 1.47587,-1.1593 2.73484,-1.355 4.3417,-0.67489 1.4345,0.60716 1.92577,1.37866 2.12915,3.34358 0.26438,2.55422 0.85058,3.11049 3.27789,3.11049 1.71878,0 1.88575,-0.0551 2.54627,-0.84006 z M 318.39774,180.244 c -2.67398,-0.53853 -4.73647,-2.12269 -6.09595,-4.68221 -0.50784,-0.95612 -0.62278,-1.60134 -0.62233,-3.49353 5.5e-4,-1.98301 0.1062,-2.52205 0.72637,-3.70333 0.8713,-1.65965 2.56278,-3.24964 4.2843,-4.02727 1.95561,-0.88337 4.90544,-0.81265 6.90476,0.16553 3.71524,1.8177 5.61149,5.96435 4.49063,9.81996 -1.20529,4.14606 -5.49189,6.76589 -9.68777,5.92085 z"
         style="fill:#ffffff;fill-opacity:1" />
      <path
         style="fill:#ffffff;fill-opacity:1"
         d="m 313.79873,257.41196 c 0.3973,-0.47217 0.4948,-0.78941 0.4948,-1.60991 0,-1.2376 0.53169,-1.98683 1.75825,-2.4776 1.08426,-0.43383 1.86417,-0.25568 2.9339,0.67017 1.23066,1.06513 1.94817,1.04675 3.07361,-0.0787 1.12342,-1.12341 1.14335,-1.84348 0.0849,-3.0664 -0.87611,-1.01227 -1.04843,-1.45247 -0.89217,-2.27912 0.29422,-1.55655 1.39269,-2.42024 3.07816,-2.42024 1.33563,0 1.81315,-0.57101 1.81315,-2.16809 0,-1.74598 -0.30613,-2.07544 -2.07953,-2.23799 -1.51527,-0.1389 -1.93523,-0.3979 -2.52783,-1.559 -0.62482,-1.22424 -0.46935,-1.9307 0.71686,-3.25731 0.94194,-1.05344 0.87874,-1.68015 -0.28697,-2.84587 -1.16572,-1.16572 -1.79243,-1.22891 -2.84587,-0.28697 -1.28169,1.14604 -2.0625,1.3357 -3.3258,0.80787 -1.03231,-0.43133 -1.36245,-0.93869 -1.53309,-2.35606 C 314.043,230.43484 313.58284,230 311.88356,230 c -1.1376,0 -1.29752,0.05 -1.71579,0.53626 -0.34123,0.39669 -0.46127,0.76222 -0.46127,1.40456 0,1.23143 -0.4751,2.11049 -1.39404,2.5793 -1.3284,0.67769 -2.30568,0.494 -3.52822,-0.66319 -0.93411,-0.88418 -1.72861,-0.81722 -2.80189,0.23613 -0.46222,0.45364 -0.87823,1.02262 -0.92445,1.2644 -0.11022,0.5766 0.25934,1.41045 0.87807,1.98122 0.72374,0.66765 0.97527,1.57007 0.6847,2.45654 -0.49609,1.5135 -0.98679,1.8649 -2.81119,2.01319 -1.5024,0.12212 -1.95281,0.62066 -1.95281,2.1615 0,0.65634 0.0534,1.33259 0.11873,1.50276 0.18826,0.49062 1.11934,0.86863 2.13952,0.86863 1.11236,0 1.77003,0.43376 2.33411,1.53946 0.59178,1.15997 0.49605,1.73003 -0.48314,2.87719 -0.63915,0.74879 -0.86007,1.16837 -0.86007,1.63353 0,1.1363 1.88127,2.75821 2.80843,2.42127 0.18984,-0.069 0.76492,-0.45517 1.27797,-0.85818 1.03311,-0.81151 1.91439,-0.9485 3.03919,-0.47242 1.00415,0.42501 1.34804,0.96506 1.49041,2.34051 0.18506,1.78795 0.5954,2.17734 2.29452,2.17734 1.20315,0 1.32002,-0.0386 1.78239,-0.58804 z m -2.9203,-7.64116 c -1.87178,-0.37697 -3.31553,-1.48588 -4.26716,-3.27755 -0.35549,-0.66928 -0.43595,-1.12094 -0.43563,-2.44547 3.8e-4,-1.38811 0.0743,-1.76543 0.50846,-2.59233 0.60991,-1.16175 1.79394,-2.27475 2.99901,-2.81909 1.36892,-0.61836 3.4338,-0.56885 4.83333,0.11587 2.60067,1.27239 3.92804,4.17505 3.14344,6.87397 -0.8437,2.90225 -3.84432,4.73613 -6.78144,4.1446 z"
         id="path4304"
         inkscape:connector-curvature="0"
         sodipodi:nodetypes="sssssssssssssssssssssssssssssssssssssssscsssss" />
      <path
         sodipodi:nodetypes="sssssssssssssssssssssssssssssssssssssssscsssss"
         inkscape:connector-curvature="0"
         id="path4306"
         d="m 154.27846,232.63977 c 2.27028,-2.69811 2.82742,-4.51091 2.82742,-9.19948 0,-7.072 3.03823,-11.35332 10.04715,-14.15772 6.19577,-2.47903 10.6524,-1.46103 16.76514,3.82954 7.03234,6.08646 11.1324,5.98143 17.56349,-0.44971 6.41954,-6.41949 6.53342,-10.53417 0.48514,-17.52229 -5.00634,-5.7844 -5.99103,-8.29982 -5.09812,-13.02354 1.68126,-8.89457 7.95823,-13.82994 17.58949,-13.82994 7.63217,0 10.36086,-3.26292 10.36086,-12.38909 0,-9.97703 -1.74932,-11.85965 -11.88303,-12.78851 -8.65869,-0.79372 -11.05846,-2.27372 -14.44474,-8.90857 -3.5704,-6.99566 -2.682,-11.03257 4.09634,-18.6132 5.38251,-6.01966 5.02137,-9.60086 -1.63983,-16.26212 -6.66126,-6.66125 -10.24246,-7.02234 -16.26211,-1.63983 -7.32395,6.5488 -11.78572,7.63258 -19.00458,4.6164 -5.89891,-2.46474 -7.78542,-5.36394 -8.76051,-13.4632 C 155.67428,78.4848 153.0448,76 143.33463,76 c -6.50057,0 -7.4144,0.285714 -9.80452,3.06434 -1.94988,2.2668 -2.63583,4.35555 -2.63583,8.02606 0,7.03674 -2.71485,12.05994 -7.96594,14.73886 -7.59086,3.87251 -13.17531,2.82285 -20.16126,-3.78966 -5.33777,-5.05246 -9.87777,-4.66983 -16.0108,1.34931 -2.64125,2.59223 -5.01845,5.84355 -5.28257,7.22515 -0.62983,3.29485 1.48195,8.05971 5.01755,11.32125 4.13565,3.81515 5.57297,8.97183 3.91257,14.03738 -2.8348,8.64857 -5.6388,10.65657 -16.06395,11.50394 -8.58514,0.69783 -11.15891,3.54663 -11.15891,12.35143 0,3.75051 0.30514,7.6148 0.67846,8.5872 1.07577,2.80354 6.39623,4.9636 12.22583,4.9636 6.35634,0 10.11445,2.47863 13.33777,8.79691 3.3816,6.6284 2.83457,9.88589 -2.7608,16.44109 -3.65229,4.2788 -4.91469,6.6764 -4.91469,9.33445 0,6.49315 10.75012,15.7612 16.04817,13.83583 1.0848,-0.39428 4.37097,-2.60097 7.30269,-4.90388 5.90348,-4.6372 10.93937,-5.42 17.3668,-2.69955 5.738,2.42863 7.70308,5.51463 8.51663,13.37435 1.05748,10.21685 3.40228,12.44194 13.11154,12.44194 6.87514,0 7.54297,-0.22057 10.18509,-3.36023 z M 137.59103,188.976 c -10.69589,-2.15411 -18.94589,-8.49074 -24.38377,-18.72886 -2.03138,-3.82445 -2.49115,-6.40537 -2.48932,-13.97411 0.002,-7.93206 0.42457,-10.08817 2.90549,-14.81332 3.4852,-6.63857 10.25108,-12.99857 17.1372,-16.10908 7.8224,-3.53349 19.62171,-3.25057 27.61903,0.66211 14.86097,7.2708 22.44594,23.85743 17.96251,39.27983 -4.82114,16.58429 -21.96754,27.0636 -38.75109,23.68343 z"
         style="fill:#ffffff;fill-opacity:1" />
      <path
         sodipodi:nodetypes="sssssssssssssssssssssssssssssssssssssssscsssss"
         inkscape:connector-curvature="0"
         id="path4308"
         d="m 433.28477,77.57997 c 0.28379,-0.33726 0.35343,-0.56386 0.35343,-1.14994 0,-0.88399 0.37979,-1.41915 1.2559,-1.7697 0.77447,-0.30989 1.33154,-0.18264 2.09564,0.47869 0.87904,0.7608 1.39155,0.74768 2.19544,-0.0562 0.80243,-0.80244 0.81668,-1.31678 0.0607,-2.19029 -0.6258,-0.72305 -0.74888,-1.037477 -0.63727,-1.62794 0.21016,-1.111827 0.99478,-1.728743 2.19869,-1.728743 0.95402,0 1.29511,-0.407864 1.29511,-1.548637 0,-1.24713 -0.21866,-1.48246 -1.48538,-1.598567 -1.08233,-0.09921 -1.38231,-0.28421 -1.8056,-1.11357 -0.4463,-0.874453 -0.33524,-1.37907 0.51205,-2.32665 0.67282,-0.75246 0.62768,-1.200103 -0.20498,-2.032763 -0.83266,-0.832657 -1.2803,-0.877797 -2.03276,-0.204977 -0.9155,0.8186 -1.47322,0.954074 -2.37557,0.577047 -0.73741,-0.3081 -0.97322,-0.6705 -1.09511,-1.682907 C 433.45925,58.3106 433.13057,58 431.9168,58 c -0.81258,0 -0.9268,0.0357 -1.22557,0.38304 -0.24373,0.283357 -0.32948,0.544447 -0.32948,1.00326 0,0.879593 -0.33936,1.507493 -0.99574,1.842353 -0.94885,0.48407 -1.64691,0.35286 -2.52016,-0.473703 -0.66721,-0.631553 -1.23472,-0.583727 -2.00135,0.168663 -0.33016,0.324027 -0.6273,0.730444 -0.66031,0.903147 -0.0787,0.411857 0.18524,1.007467 0.62719,1.415157 0.51695,0.476886 0.69662,1.121473 0.48907,1.75467 -0.35436,1.081073 -0.70485,1.332073 -2.008,1.437993 -1.07314,0.08723 -1.39486,0.44333 -1.39486,1.543923 0,0.468824 0.0382,0.951854 0.0848,1.0734 0.13448,0.350447 0.79953,0.62045 1.52823,0.62045 0.79455,0 1.26431,0.309834 1.66723,1.099617 0.4227,0.828557 0.35432,1.23574 -0.34511,2.05514 -0.45653,0.53484 -0.61433,0.83455 -0.61433,1.16681 0,0.81163 1.34377,1.97015 2.00602,1.72947 0.1356,-0.0493 0.54638,-0.32512 0.91284,-0.61298 0.73793,-0.57965 1.36742,-0.6775 2.17085,-0.33744 0.71725,0.30358 0.96289,0.68932 1.06458,1.67179 0.13218,1.2771 0.42529,1.55524 1.63894,1.55524 0.85939,0 0.94288,-0.0275 1.27313,-0.42003 z M 431.19885,72.122 c -1.33699,-0.269263 -2.36823,-1.061343 -3.04798,-2.341103 -0.25392,-0.478064 -0.31139,-0.80067 -0.31116,-1.746767 2.7e-4,-0.991503 0.0531,-1.261027 0.36318,-1.851667 0.43566,-0.829823 1.28139,-1.62482 2.14215,-2.013633 0.97781,-0.441683 2.45272,-0.406323 3.45239,0.08277 1.85761,0.908846 2.80574,2.982173 2.24531,4.90998 -0.60265,2.073026 -2.74595,3.382943 -4.84389,2.960423 z"
         style="fill:#ffffff;fill-opacity:1" />
      <path
         style="fill:#ffffff;fill-opacity:1"
         d="m 428.89934,118.70598 c 0.19865,-0.23608 0.2474,-0.3947 0.2474,-0.80496 0,-0.61879 0.26585,-0.9934 0.87913,-1.23879 0.54213,-0.21692 0.93208,-0.12785 1.46695,0.33508 0.61532,0.53256 0.97408,0.52338 1.5368,-0.0393 0.5617,-0.5617 0.57168,-0.92174 0.0425,-1.5332 -0.43806,-0.50613 -0.52421,-0.72623 -0.44609,-1.13956 0.14712,-0.77828 0.69635,-1.21012 1.53909,-1.21012 0.66781,0 0.90657,-0.2855 0.90657,-1.08404 0,-0.87299 -0.15306,-1.03772 -1.03976,-1.119 -0.75763,-0.0695 -0.96762,-0.19895 -1.26392,-0.7795 -0.31241,-0.61212 -0.23467,-0.96535 0.35843,-1.62865 0.47098,-0.52673 0.43938,-0.84008 -0.14348,-1.42294 -0.58286,-0.58286 -0.89621,-0.61446 -1.42294,-0.14348 -0.64085,0.57302 -1.03125,0.66785 -1.66289,0.40393 -0.51619,-0.21567 -0.68126,-0.46935 -0.76658,-1.17803 C 429.02147,105.21742 428.7914,105 427.94176,105 c -0.56881,0 -0.64876,0.025 -0.8579,0.26813 -0.17061,0.19835 -0.23064,0.38111 -0.23064,0.70228 0,0.61571 -0.23755,1.05525 -0.69702,1.28965 -0.66419,0.33885 -1.15283,0.247 -1.76411,-0.33159 -0.46704,-0.44209 -0.8643,-0.40861 -1.40094,0.11806 -0.23111,0.22682 -0.43911,0.51131 -0.46222,0.6322 -0.0551,0.2883 0.12967,0.70523 0.43903,0.99061 0.36187,0.33382 0.48764,0.78503 0.34235,1.22827 -0.24805,0.75675 -0.49339,0.93245 -1.4056,1.0066 -0.7512,0.0611 -0.9764,0.31033 -0.9764,1.08074 0,0.32818 0.0267,0.6663 0.0594,0.75138 0.0941,0.24532 0.55967,0.43432 1.06976,0.43432 0.55619,0 0.88502,0.21688 1.16706,0.76973 0.29589,0.57999 0.24803,0.86502 -0.24157,1.4386 -0.31958,0.37439 -0.43004,0.58418 -0.43004,0.81676 0,0.56815 0.94064,1.37911 1.40422,1.21063 0.0949,-0.0345 0.38246,-0.22758 0.63899,-0.42908 0.51655,-0.40576 0.95719,-0.47425 1.51959,-0.23621 0.50208,0.21251 0.67402,0.48252 0.74521,1.17025 0.0925,0.89397 0.2977,1.08867 1.14726,1.08867 0.60157,0 0.66001,-0.0192 0.89119,-0.29402 z m -1.46015,-3.82058 c -0.93589,-0.18848 -1.65776,-0.74294 -2.13358,-1.63877 -0.17775,-0.33465 -0.21798,-0.56047 -0.21782,-1.22274 1.9e-4,-0.69405 0.0372,-0.88272 0.25423,-1.29617 0.30496,-0.58087 0.89697,-1.13737 1.49951,-1.40954 0.68446,-0.30918 1.7169,-0.28442 2.41667,0.0579 1.30033,0.63619 1.96402,2.08752 1.57172,3.43699 -0.42186,1.45112 -1.92217,2.36806 -3.39073,2.07229 z"
         id="path4310"
         inkscape:connector-curvature="0"
         sodipodi:nodetypes="sssssssssssssssssssssssssssssssssssssssscsssss" />
      <path
         sodipodi:nodetypes="sssssssssssssssssssssssssssssssssssssssscsssss"
         inkscape:connector-curvature="0"
         id="path4312"
         d="m 424.64237,152.79 c 0.1419,-0.16862 0.17672,-0.28192 0.17672,-0.57497 0,-0.44199 0.18989,-0.70957 0.62795,-0.88485 0.38723,-0.15494 0.66577,-0.0913 1.04782,0.23935 0.43951,0.38039 0.69576,0.37384 1.09771,-0.0281 0.40122,-0.40122 0.40835,-0.65839 0.0304,-1.09515 -0.31291,-0.36152 -0.37444,-0.51874 -0.31865,-0.81397 0.1051,-0.55591 0.49741,-0.86437 1.09936,-0.86437 0.47701,0 0.64755,-0.20393 0.64755,-0.77431 0,-0.62357 -0.10932,-0.74123 -0.74268,-0.79929 -0.54117,-0.0496 -0.69116,-0.14211 -0.9028,-0.55679 -0.22315,-0.43722 -0.16762,-0.68953 0.25601,-1.16332 0.33641,-0.37623 0.31385,-0.60005 -0.10248,-1.01638 -0.41632,-0.41633 -0.64016,-0.4389 -1.01639,-0.10249 -0.45775,0.4093 -0.73661,0.47704 -1.18778,0.28852 -0.36871,-0.15405 -0.4866,-0.33525 -0.54755,-0.84145 -0.078,-0.64711 -0.24229,-0.80241 -0.84917,-0.80241 -0.4063,0 -0.4634,0.0179 -0.61279,0.19152 -0.12186,0.14167 -0.16474,0.27222 -0.16474,0.50163 0,0.43979 -0.16968,0.75375 -0.49787,0.92118 -0.47442,0.24203 -0.82345,0.17643 -1.26008,-0.23686 -0.3336,-0.31577 -0.61736,-0.29186 -1.00067,0.0843 -0.16508,0.162 -0.31365,0.36522 -0.33016,0.45157 -0.0394,0.20593 0.0926,0.50373 0.31359,0.70757 0.25848,0.23845 0.34832,0.56074 0.24454,0.87734 -0.17719,0.54054 -0.35242,0.66604 -1.00401,0.719 -0.53656,0.0436 -0.69743,0.22167 -0.69743,0.77195 0,0.23441 0.0191,0.47594 0.0424,0.5367 0.0672,0.17523 0.39977,0.31023 0.76412,0.31023 0.39728,0 0.63216,0.15492 0.83361,0.54981 0.21135,0.41428 0.17717,0.61787 -0.17255,1.02757 -0.22827,0.26743 -0.30716,0.41727 -0.30716,0.5834 0,0.40582 0.67187,0.98508 1.00301,0.86473 0.0678,-0.0246 0.27319,-0.16255 0.45642,-0.30648 0.36897,-0.28983 0.68371,-0.33875 1.08542,-0.16871 0.35863,0.15179 0.48145,0.34465 0.5323,0.83589 0.0661,0.63854 0.21264,0.77761 0.81947,0.77761 0.42969,0 0.47143,-0.0137 0.63656,-0.21 z m -1.04296,-2.72898 c -0.66849,-0.13463 -1.18412,-0.53068 -1.52399,-1.17056 -0.12696,-0.23903 -0.15571,-0.40033 -0.15558,-0.87338 1.3e-4,-0.49575 0.0266,-0.63051 0.18159,-0.92583 0.21783,-0.41492 0.64069,-0.81241 1.07108,-1.00683 0.4889,-0.22084 1.22636,-0.20314 1.72619,0.0414 0.92881,0.45441 1.40287,1.49108 1.12266,2.45498 -0.30133,1.03652 -1.37298,1.69148 -2.42195,1.48021 z"
         style="fill:#ffffff;fill-opacity:1" />
    </g>
    <g
       inkscape:groupmode="layer"
       id="layer5"
       inkscape:label="Highlights"
       style="display:inline"
       sodipodi:insensitive="true">
      <rect
         ry="9"
         y="307"
         x="-265"
         height="42"
         width="42"
         id="rect4884"
         style="opacity:0.1;color:#bebebe;fill:none;stroke:#000000;stroke-width:2;stroke-miterlimit:4;stroke-opacity:1;stroke-dasharray:none;marker:none;visibility:visible;display:inline;overflow:visible;enable-background:accumulate"
         transform="matrix(0,1,1,0,-16,488)"
         clip-path="url(#clipPath4891)" />
      <rect
         style="opacity:0.1;color:#bebebe;fill:none;stroke:#000000;stroke-width:2;stroke-miterlimit:4;stroke-opacity:1;stroke-dasharray:none;marker:none;visibility:visible;display:inline;overflow:visible;enable-background:accumulate"
         id="rect5311"
         width="16"
         height="16"
         x="-228"
         y="304"
         ry="3"
         clip-path="url(#clipPath3855)"
         transform="matrix(0,-1,1,0,112,-72)" />
      <rect
         ry="50"
         y="46"
         x="34"
         height="220"
         width="220"
         id="rect3858"
         style="opacity:0.1;color:#bebebe;fill:none;stroke:#000000;stroke-width:2;stroke-miterlimit:4;stroke-opacity:1;stroke-dasharray:none;marker:none;visibility:visible;display:inline;overflow:visible;enable-background:accumulate"
         clip-path="url(#clipPath3862)" />
      <rect
         ry="12.5"
         y="142"
         x="290"
         height="60"
         width="60"
         id="rect4175"
         style="opacity:0.1;color:#bebebe;fill:none;stroke:#000000;stroke-width:2;stroke-miterlimit:4;stroke-opacity:1;stroke-dasharray:none;marker:none;visibility:visible;display:inline;overflow:visible;enable-background:accumulate"
         clip-path="url(#clipPath4187)" />
      <rect
         style="opacity:0.1;color:#bebebe;fill:none;stroke:#000000;stroke-width:2;stroke-miterlimit:4;stroke-opacity:1;stroke-dasharray:none;marker:none;visibility:visible;display:inline;overflow:visible;enable-background:accumulate"
         id="rect4342"
         width="88"
         height="88"
         x="292"
         y="32"
         ry="18"
         clip-path="url(#clipPath4346)" />
      <rect
         ry="5"
         y="101"
         x="417"
         height="22"
         width="22"
         id="rect3866"
         style="opacity:0.1;color:#bebebe;fill:none;stroke:#000000;stroke-width:2;stroke-miterlimit:4;stroke-opacity:1;stroke-dasharray:none;marker:none;visibility:visible;display:inline;overflow:visible;enable-background:accumulate"
         clip-path="url(#clipPath3871)" />
      <rect
         style="opacity:0.1;color:#bebebe;fill:none;stroke:#000000;stroke-width:2;stroke-miterlimit:4;stroke-opacity:1;stroke-dasharray:none;marker:none;visibility:visible;display:inline;overflow:visible;enable-background:accumulate"
         id="rect3877"
         width="30"
         height="30"
         x="417"
         y="53"
         ry="7"
         clip-path="url(#clipPath3881)" />
    </g>
  </g>
</svg>
