<?xml version="1.0" encoding="UTF-8" standalone="no"?>
<!-- Created with Inkscape (http://www.inkscape.org/) -->

<svg
   xmlns:dc="http://purl.org/dc/elements/1.1/"
   xmlns:cc="http://creativecommons.org/ns#"
   xmlns:rdf="http://www.w3.org/1999/02/22-rdf-syntax-ns#"
   xmlns:svg="http://www.w3.org/2000/svg"
   xmlns="http://www.w3.org/2000/svg"
   xmlns:xlink="http://www.w3.org/1999/xlink"
   xmlns:sodipodi="http://sodipodi.sourceforge.net/DTD/sodipodi-0.dtd"
   xmlns:inkscape="http://www.inkscape.org/namespaces/inkscape"
   inkscape:export-ydpi="90.000000"
   inkscape:export-xdpi="90.000000"
   width="480"
   height="300"
   id="svg11300"
   sodipodi:version="0.32"
   inkscape:version="0.48.4 r9939"
   sodipodi:docname="ardour.svg"
   inkscape:output_extension="org.inkscape.output.svg.inkscape"
   version="1.0"
   style="display:inline;enable-background:new"
   inkscape:export-filename="/home/sam/moka2-template.png">
  <sodipodi:namedview
     stroke="#ef2929"
     fill="#f57900"
     id="base"
     pagecolor="#ffffff"
     bordercolor="#666666"
     borderopacity="0.25490196"
     inkscape:pageopacity="0"
     inkscape:pageshadow="2"
     inkscape:zoom="1"
     inkscape:cx="337.87642"
     inkscape:cy="161.85057"
     inkscape:current-layer="layer7"
     showgrid="false"
     inkscape:grid-bbox="true"
     inkscape:document-units="px"
     inkscape:showpageshadow="false"
     inkscape:window-width="1366"
     inkscape:window-height="702"
     inkscape:window-x="0"
     inkscape:window-y="27"
     width="400px"
     height="300px"
     inkscape:snap-nodes="true"
     inkscape:snap-bbox="true"
     gridtolerance="10000"
     inkscape:object-nodes="true"
     inkscape:snap-grids="true"
     showguides="true"
     inkscape:guide-bbox="true"
     inkscape:window-maximized="1"
     inkscape:bbox-nodes="true"
     inkscape:bbox-paths="true"
     inkscape:snap-bbox-edge-midpoints="true"
     inkscape:snap-bbox-midpoints="true">
    <inkscape:grid
       spacingy="1px"
       spacingx="1px"
       id="grid5883"
       type="xygrid"
       enabled="true"
       visible="true"
       empspacing="4"
       snapvisiblegridlinesonly="true"
       dotted="false"
       color="#000000"
       opacity="0.1254902"
       empcolor="#203ef3"
       empopacity="0.36470588" />
    <inkscape:grid
       type="xygrid"
       id="grid11592"
       empspacing="8"
       visible="true"
       enabled="false"
       spacingx="0.5px"
       spacingy="0.5px"
       color="#ff0000"
       opacity="0.1254902"
       empcolor="#ff0000"
       empopacity="0.25098039"
       snapvisiblegridlinesonly="true"
       dotted="true" />
  </sodipodi:namedview>
  <defs
     id="defs3">
    <linearGradient
       id="outerBackgroundGradient">
      <stop
         style="stop-color:#cc0000;stop-opacity:1;"
         offset="0"
         id="stop3864-8-6" />
      <stop
         style="stop-color:#ef2929;stop-opacity:1;"
         offset="1"
         id="stop3866-9-1" />
    </linearGradient>
    <linearGradient
       inkscape:collect="always"
       xlink:href="#outerBackgroundGradient"
       id="linearGradient4097"
       gradientUnits="userSpaceOnUse"
       x1="264"
       y1="280.00003"
       x2="264"
       y2="40.00005"
       gradientTransform="matrix(0.06666667,0,0,0.06666667,414.4,137.33333)" />
    <linearGradient
       inkscape:collect="always"
       xlink:href="#outerBackgroundGradient"
       id="linearGradient4101"
       gradientUnits="userSpaceOnUse"
       gradientTransform="matrix(0.0875,0,0,0.0875,414.9,97.5)"
       x1="286.85715"
       y1="302.85715"
       x2="286.85715"
       y2="28.571428" />
    <linearGradient
       inkscape:collect="always"
       xlink:href="#outerBackgroundGradient"
       id="linearGradient4153"
       gradientUnits="userSpaceOnUse"
       gradientTransform="matrix(0.11931818,0,0,0.11931818,414.13636,48.22727)"
       x1="283.80957"
       y1="299.80954"
       x2="283.80957"
       y2="31.61907" />
    <linearGradient
       inkscape:collect="always"
       xlink:href="#outerBackgroundGradient"
       id="linearGradient4869"
       gradientUnits="userSpaceOnUse"
       gradientTransform="matrix(0.175,0,0,-0.175,286.79999,-215.99997)"
       x1="281.14291"
       y1="297.14304"
       x2="281.14291"
       y2="22.857315" />
    <clipPath
       clipPathUnits="userSpaceOnUse"
       id="clipPath4891">
      <rect
         ry="9"
         y="223"
         x="307"
         height="42"
         width="42"
         id="rect4893"
         style="color:#bebebe;fill:url(#linearGradient4895);fill-opacity:1;fill-rule:nonzero;stroke:none;stroke-width:0;marker:none;visibility:visible;display:inline;overflow:visible;enable-background:accumulate"
         transform="matrix(0,1,-1,0,0,0)" />
    </clipPath>
    <linearGradient
       inkscape:collect="always"
       xlink:href="#outerBackgroundGradient"
       id="linearGradient4895"
       gradientUnits="userSpaceOnUse"
       gradientTransform="matrix(0.175,0,0,0.175,302.79999,215.99997)"
       x1="144.00006"
       y1="280.00018"
       x2="144.00006"
       y2="40.000172" />
    <clipPath
       clipPathUnits="userSpaceOnUse"
       id="clipPath4044">
      <rect
         ry="4"
         y="85"
         x="433"
         height="22"
         width="22"
         id="rect4046"
         style="color:#bebebe;fill:url(#linearGradient4048);fill-opacity:1;fill-rule:nonzero;stroke:none;stroke-width:0;marker:none;visibility:visible;display:inline;overflow:visible;enable-background:accumulate" />
    </clipPath>
    <linearGradient
       inkscape:collect="always"
       xlink:href="#outerBackgroundGradient"
       id="linearGradient4048"
       gradientUnits="userSpaceOnUse"
       gradientTransform="matrix(0.0875,0,0,0.0875,430.9,81.499996)"
       x1="149.71428"
       y1="291.42862"
       x2="149.71428"
       y2="40.000046" />
    <clipPath
       clipPathUnits="userSpaceOnUse"
       id="clipPath4089">
      <rect
         style="color:#bebebe;fill:url(#linearGradient4093);fill-opacity:1;fill-rule:nonzero;stroke:none;stroke-width:0;marker:none;visibility:visible;display:inline;overflow:visible;enable-background:accumulate"
         id="rect4091"
         width="30"
         height="30"
         x="433"
         y="37"
         ry="6" />
    </clipPath>
    <linearGradient
       inkscape:collect="always"
       xlink:href="#outerBackgroundGradient"
       id="linearGradient4093"
       gradientUnits="userSpaceOnUse"
       gradientTransform="matrix(0.11931818,0,0,0.11931818,430.13636,32.227267)"
       x1="149.71432"
       y1="291.42862"
       x2="149.71432"
       y2="40.00005" />
    <clipPath
       clipPathUnits="userSpaceOnUse"
       id="clipPath3855">
      <rect
         style="color:#bebebe;fill:url(#linearGradient3859);fill-opacity:1;fill-rule:nonzero;stroke:none;stroke-width:0;marker:none;visibility:visible;display:inline;overflow:visible;enable-background:accumulate"
         id="rect3857"
         width="16"
         height="16"
         x="304"
         y="212"
         ry="3"
         transform="matrix(0,1,-1,0,0,0)" />
    </clipPath>
    <linearGradient
       inkscape:collect="always"
       xlink:href="#outerBackgroundGradient"
       id="linearGradient3859"
       gradientUnits="userSpaceOnUse"
       gradientTransform="matrix(0.06666667,0,0,0.06666667,302.4,209.33333)"
       x1="144"
       y1="280.00003"
       x2="144"
       y2="40.00005" />
    <clipPath
       clipPathUnits="userSpaceOnUse"
       id="clipPath3862">
      <rect
         ry="50"
         y="46"
         x="34"
         height="220"
         width="220"
         id="rect3864"
         style="color:#bebebe;fill:url(#linearGradient3866);fill-opacity:1;fill-rule:nonzero;stroke:none;stroke-width:0;marker:none;visibility:visible;display:inline;overflow:visible;enable-background:accumulate" />
    </clipPath>
    <linearGradient
       inkscape:collect="always"
       xlink:href="#outerBackgroundGradient"
       id="linearGradient3866"
       gradientUnits="userSpaceOnUse"
       gradientTransform="translate(0,-4)"
       x1="144"
       y1="280"
       x2="144"
       y2="40" />
    <linearGradient
       inkscape:collect="always"
       xlink:href="#outerBackgroundGradient"
       id="linearGradient3876"
       gradientUnits="userSpaceOnUse"
       gradientTransform="translate(0,-4)"
       x1="272"
       y1="288"
       x2="272"
       y2="32" />
    <clipPath
       clipPathUnits="userSpaceOnUse"
       id="clipPath4187">
      <rect
         ry="12.5"
         y="142"
         x="290"
         height="60"
         width="60"
         id="rect4189"
         style="color:#bebebe;fill:url(#linearGradient4191);fill-opacity:1;fill-rule:nonzero;stroke:none;stroke-width:0;marker:none;visibility:visible;display:inline;overflow:visible;enable-background:accumulate" />
    </clipPath>
    <linearGradient
       inkscape:collect="always"
       xlink:href="#outerBackgroundGradient"
       id="linearGradient4191"
       gradientUnits="userSpaceOnUse"
       x1="352"
       y1="204"
       x2="352"
       y2="140" />
    <linearGradient
       inkscape:collect="always"
       xlink:href="#outerBackgroundGradient"
       id="linearGradient4197"
       gradientUnits="userSpaceOnUse"
       x1="384"
       y1="124"
       x2="384"
       y2="28" />
    <linearGradient
       inkscape:collect="always"
       xlink:href="#outerBackgroundGradient"
       id="linearGradient4199"
       gradientUnits="userSpaceOnUse"
       x1="352"
       y1="204"
       x2="352"
       y2="140" />
    <clipPath
       clipPathUnits="userSpaceOnUse"
       id="clipPath4346">
      <rect
         style="color:#bebebe;fill:url(#linearGradient4350);fill-opacity:1;fill-rule:nonzero;stroke:none;stroke-width:0;marker:none;visibility:visible;display:inline;overflow:visible;enable-background:accumulate"
         id="rect4348"
         width="88"
         height="88"
         x="292"
         y="32"
         ry="18" />
    </clipPath>
    <linearGradient
       inkscape:collect="always"
       xlink:href="#outerBackgroundGradient"
       id="linearGradient4350"
       gradientUnits="userSpaceOnUse"
       x1="384"
       y1="124"
       x2="384"
       y2="28" />
    <clipPath
       clipPathUnits="userSpaceOnUse"
       id="clipPath3871">
      <rect
         ry="5"
         y="101"
         x="417"
         height="22"
         width="22"
         id="rect3873"
         style="color:#bebebe;fill:url(#linearGradient3875);fill-opacity:1;fill-rule:nonzero;stroke:none;stroke-width:0;marker:none;visibility:visible;display:inline;overflow:visible;enable-background:accumulate" />
    </clipPath>
    <linearGradient
       inkscape:collect="always"
       xlink:href="#outerBackgroundGradient"
       id="linearGradient3875"
       gradientUnits="userSpaceOnUse"
       gradientTransform="matrix(0.0875,0,0,0.0875,414.9,97.5)"
       x1="286.85715"
       y1="302.85715"
       x2="286.85715"
       y2="28.571428" />
    <clipPath
       clipPathUnits="userSpaceOnUse"
       id="clipPath3881">
      <rect
         style="color:#bebebe;fill:url(#linearGradient3885);fill-opacity:1;fill-rule:nonzero;stroke:none;stroke-width:0;marker:none;visibility:visible;display:inline;overflow:visible;enable-background:accumulate"
         id="rect3883"
         width="30"
         height="30"
         x="417"
         y="53"
         ry="7" />
    </clipPath>
    <linearGradient
       inkscape:collect="always"
       xlink:href="#outerBackgroundGradient"
       id="linearGradient3885"
       gradientUnits="userSpaceOnUse"
       gradientTransform="matrix(0.11931818,0,0,0.11931818,414.13636,48.22727)"
       x1="283.80957"
       y1="299.80954"
       x2="283.80957"
       y2="31.61907" />
    <linearGradient
       inkscape:collect="always"
       xlink:href="#linearGradient3516"
       id="linearGradient3432"
       gradientUnits="userSpaceOnUse"
       x1="257.98196"
       y1="249.59889"
       x2="78.435265"
       y2="137.8308"
       gradientTransform="matrix(0.893789,0,0,0.893789,404.5495,-99.643506)" />
    <linearGradient
       id="linearGradient3516">
      <stop
         id="stop3520"
         offset="0"
         style="stop-color:#487ec5;stop-opacity:1" />
      <stop
         style="stop-color:#729fcf;stop-opacity:1"
         offset="1"
         id="stop3522" />
    </linearGradient>
    <linearGradient
       y2="123.27946"
       x2="234.03302"
       y1="332.17181"
       x1="234.03302"
       gradientTransform="matrix(1.2255115,0,0,1.2255115,-14.810152,-99.07999)"
       gradientUnits="userSpaceOnUse"
       id="linearGradient3450"
       xlink:href="#linearGradient3516"
       inkscape:collect="always" />
    <linearGradient
       inkscape:collect="always"
       xlink:href="#linearGradient3516"
       id="linearGradient3094"
       gradientUnits="userSpaceOnUse"
       gradientTransform="matrix(0.45956681,0,0,0.45956681,276.44618,-19.65497)"
       x1="234.03302"
       y1="332.17181"
       x2="234.03302"
       y2="123.27946" />
    <linearGradient
       inkscape:collect="always"
       xlink:href="#linearGradient3516"
       id="linearGradient3098"
       gradientUnits="userSpaceOnUse"
       gradientTransform="matrix(0.30637784,0,0,0.30637784,280.29742,108.22982)"
       x1="234.03302"
       y1="332.17181"
       x2="234.03302"
       y2="123.27946" />
    <clipPath
       clipPathUnits="userSpaceOnUse"
       id="clipPath3106">
      <rect
         ry="50"
         y="46"
         x="34"
         height="220"
         width="220"
         id="rect3108"
         style="color:#bebebe;fill:url(#linearGradient3110);fill-opacity:1;fill-rule:nonzero;stroke:none;stroke-width:0;marker:none;visibility:visible;display:inline;overflow:visible;enable-background:accumulate" />
    </clipPath>
    <linearGradient
       inkscape:collect="always"
       xlink:href="#outerBackgroundGradient"
       id="linearGradient3110"
       gradientUnits="userSpaceOnUse"
       gradientTransform="translate(0,-4)"
       x1="272"
       y1="288"
       x2="272"
       y2="32" />
    <clipPath
       clipPathUnits="userSpaceOnUse"
       id="clipPath3115">
      <rect
         style="color:#bebebe;fill:url(#linearGradient3119);fill-opacity:1;fill-rule:nonzero;stroke:none;stroke-width:0;marker:none;visibility:visible;display:inline;overflow:visible;enable-background:accumulate"
         id="rect3117"
         width="88"
         height="88"
         x="292"
         y="32"
         ry="18" />
    </clipPath>
    <linearGradient
       inkscape:collect="always"
       xlink:href="#outerBackgroundGradient"
       id="linearGradient3119"
       gradientUnits="userSpaceOnUse"
       x1="384"
       y1="124"
       x2="384"
       y2="28" />
    <linearGradient
       inkscape:collect="always"
       xlink:href="#linearGradient3516"
       id="linearGradient3123"
       gradientUnits="userSpaceOnUse"
       gradientTransform="matrix(0.22978327,0,0,0.22978327,282.22311,196.17251)"
       x1="234.03302"
       y1="332.17181"
       x2="234.03302"
       y2="123.27946" />
    <clipPath
       clipPathUnits="userSpaceOnUse"
       id="clipPath3128">
      <rect
         ry="12.5"
         y="142"
         x="290"
         height="60"
         width="60"
         id="rect3130"
         style="color:#bebebe;fill:url(#linearGradient3132);fill-opacity:1;fill-rule:nonzero;stroke:none;stroke-width:0;marker:none;visibility:visible;display:inline;overflow:visible;enable-background:accumulate" />
    </clipPath>
    <linearGradient
       inkscape:collect="always"
       xlink:href="#outerBackgroundGradient"
       id="linearGradient3132"
       gradientUnits="userSpaceOnUse"
       x1="352"
       y1="204"
       x2="352"
       y2="140" />
    <linearGradient
       inkscape:collect="always"
       xlink:href="#linearGradient3516"
       id="linearGradient3136"
       gradientUnits="userSpaceOnUse"
       gradientTransform="matrix(0.15318891,0,0,0.15318891,412.14875,36.11491)"
       x1="234.03302"
       y1="332.17181"
       x2="234.03302"
       y2="123.27946" />
    <linearGradient
       inkscape:collect="always"
       xlink:href="#linearGradient3516"
       id="linearGradient3140"
       gradientUnits="userSpaceOnUse"
       gradientTransform="matrix(0.11489172,0,0,0.11489172,413.11159,88.086246)"
       x1="234.03302"
       y1="332.17181"
       x2="234.03302"
       y2="123.27946" />
    <linearGradient
       inkscape:collect="always"
       xlink:href="#linearGradient3516"
       id="linearGradient3144"
       gradientUnits="userSpaceOnUse"
       gradientTransform="matrix(0.07659448,0,0,0.07659448,414.07425,132.0575)"
       x1="234.03302"
       y1="332.17181"
       x2="234.03302"
       y2="123.27946" />
    <clipPath
       clipPathUnits="userSpaceOnUse"
       id="clipPath3149">
      <rect
         transform="scale(1,-1)"
         ry="9"
         y="-265"
         x="291"
         height="42"
         width="42"
         id="rect3151"
         style="color:#bebebe;fill:url(#linearGradient3153);fill-opacity:1;fill-rule:nonzero;stroke:none;stroke-width:0;marker:none;visibility:visible;display:inline;overflow:visible;enable-background:accumulate" />
    </clipPath>
    <linearGradient
       inkscape:collect="always"
       xlink:href="#outerBackgroundGradient"
       id="linearGradient3153"
       gradientUnits="userSpaceOnUse"
       gradientTransform="matrix(0.175,0,0,-0.175,286.79999,-215.99997)"
       x1="281.14291"
       y1="297.14304"
       x2="281.14291"
       y2="22.857315" />
    <clipPath
       clipPathUnits="userSpaceOnUse"
       id="clipPath3158">
      <rect
         style="color:#bebebe;fill:url(#linearGradient3162);fill-opacity:1;fill-rule:nonzero;stroke:none;stroke-width:0;marker:none;visibility:visible;display:inline;overflow:visible;enable-background:accumulate"
         id="rect3160"
         width="30"
         height="30"
         x="417"
         y="53"
         ry="7" />
    </clipPath>
    <linearGradient
       inkscape:collect="always"
       xlink:href="#outerBackgroundGradient"
       id="linearGradient3162"
       gradientUnits="userSpaceOnUse"
       gradientTransform="matrix(0.11931818,0,0,0.11931818,414.13636,48.22727)"
       x1="283.80957"
       y1="299.80954"
       x2="283.80957"
       y2="31.61907" />
    <clipPath
       clipPathUnits="userSpaceOnUse"
       id="clipPath3167">
      <rect
         ry="5"
         y="101"
         x="417"
         height="22"
         width="22"
         id="rect3169"
         style="color:#bebebe;fill:url(#linearGradient3171);fill-opacity:1;fill-rule:nonzero;stroke:none;stroke-width:0;marker:none;visibility:visible;display:inline;overflow:visible;enable-background:accumulate" />
    </clipPath>
    <linearGradient
       inkscape:collect="always"
       xlink:href="#outerBackgroundGradient"
       id="linearGradient3171"
       gradientUnits="userSpaceOnUse"
       gradientTransform="matrix(0.0875,0,0,0.0875,414.9,97.5)"
       x1="286.85715"
       y1="302.85715"
       x2="286.85715"
       y2="28.571428" />
    <linearGradient
       inkscape:collect="always"
       xlink:href="#outerBackgroundGradient"
       id="linearGradient3959"
       gradientUnits="userSpaceOnUse"
       gradientTransform="translate(0,-4)"
       x1="272"
       y1="288"
       x2="272"
       y2="32" />
    <linearGradient
       inkscape:collect="always"
       xlink:href="#outerBackgroundGradient"
       id="linearGradient3964"
       gradientUnits="userSpaceOnUse"
       x1="384"
       y1="124"
       x2="384"
       y2="28" />
    <linearGradient
       inkscape:collect="always"
       xlink:href="#outerBackgroundGradient"
       id="linearGradient3969"
       gradientUnits="userSpaceOnUse"
       x1="352"
       y1="204"
       x2="352"
       y2="140" />
    <linearGradient
       inkscape:collect="always"
       xlink:href="#outerBackgroundGradient"
       id="linearGradient3974"
       gradientUnits="userSpaceOnUse"
       gradientTransform="matrix(0.175,0,0,0.175,286.79999,215.99997)"
       x1="281.14291"
       y1="297.14304"
       x2="281.14291"
       y2="22.857315" />
    <linearGradient
       inkscape:collect="always"
       xlink:href="#outerBackgroundGradient"
       id="linearGradient3979"
       gradientUnits="userSpaceOnUse"
       gradientTransform="matrix(0.11931818,0,0,0.11931818,414.13636,48.22727)"
       x1="283.80957"
       y1="299.80954"
       x2="283.80957"
       y2="31.61907" />
    <linearGradient
       inkscape:collect="always"
       xlink:href="#outerBackgroundGradient"
       id="linearGradient3984"
       gradientUnits="userSpaceOnUse"
       gradientTransform="matrix(0.0875,0,0,0.0875,414.9,97.5)"
       x1="286.85715"
       y1="302.85715"
       x2="286.85715"
       y2="28.571428" />
  </defs>
  <metadata
     id="metadata4">
    <rdf:RDF>
      <cc:Work
         rdf:about="">
        <dc:format>image/svg+xml</dc:format>
        <dc:type
           rdf:resource="http://purl.org/dc/dcmitype/StillImage" />
        <dc:creator>
          <cc:Agent>
            <dc:title>Sam Hewitt</dc:title>
          </cc:Agent>
        </dc:creator>
        <dc:source />
        <cc:license
           rdf:resource="" />
        <dc:title />
        <dc:subject>
          <rdf:Bag />
        </dc:subject>
        <dc:date />
        <dc:rights>
          <cc:Agent>
            <dc:title />
          </cc:Agent>
        </dc:rights>
        <dc:publisher>
          <cc:Agent>
            <dc:title />
          </cc:Agent>
        </dc:publisher>
        <dc:identifier />
        <dc:relation />
        <dc:language />
        <dc:coverage />
        <dc:description />
        <dc:contributor>
          <cc:Agent>
            <dc:title />
          </cc:Agent>
        </dc:contributor>
      </cc:Work>
      <cc:Work
         rdf:about="">
        <dc:format>image/svg+xml</dc:format>
        <dc:type
           rdf:resource="http://purl.org/dc/dcmitype/StillImage" />
      </cc:Work>
    </rdf:RDF>
  </metadata>
  <g
     style="display:inline"
     inkscape:groupmode="layer"
     inkscape:label="Icon"
     id="layer1">
    <g
       style="display:none"
       inkscape:label="Baseplate"
       id="layer7"
       inkscape:groupmode="layer">
      <text
         y="19.745117"
         xml:space="preserve"
         x="15.006836"
         style="font-size:18px;font-style:normal;font-variant:normal;font-weight:normal;font-stretch:normal;fill:#000000;fill-opacity:1;stroke:none;display:inline;enable-background:new;font-family:DejaVu Sans;-inkscape-font-specification:DejaVu Sans"
         inkscape:label="context"
         id="context"><tspan
           style="font-style:normal;font-variant:normal;font-weight:normal;font-stretch:normal;font-family:DejaVu Sans;-inkscape-font-specification:DejaVu Sans"
           y="19.745117"
           x="15.006836"
           sodipodi:role="line"
           id="tspan3933">apps</tspan></text>
      <text
         y="19.745117"
         xml:space="preserve"
         x="122.48828"
         style="font-size:18px;font-style:normal;font-variant:normal;font-weight:bold;font-stretch:normal;text-align:start;line-height:125%;writing-mode:lr-tb;text-anchor:start;fill:#000000;fill-opacity:1;stroke:none;display:inline;enable-background:new;font-family:DejaVu Sans;-inkscape-font-specification:DejaVu Sans Bold"
         sodipodi:linespacing="125%"
         inkscape:label="icon-name"
         id="icon-name"><tspan
           style="font-size:18px;font-style:normal;font-variant:normal;font-weight:bold;font-stretch:normal;font-family:DejaVu Sans;-inkscape-font-specification:DejaVu Sans Bold"
           y="19.745117"
           x="122.48828"
           sodipodi:role="line"
           id="tspan3937">ardour</tspan></text>
      <rect
         style="fill:#eeeeec;fill-opacity:1;fill-rule:nonzero;stroke:none;stroke-width:2;marker:none;visibility:visible;display:inline;overflow:visible;enable-background:accumulate"
         id="rect16x16"
         width="16"
         height="16"
         x="416"
         y="140"
         inkscape:label="16x16" />
      <rect
         style="fill:#d4d4d4;fill-opacity:1;fill-rule:nonzero;stroke:none;stroke-width:2;marker:none;visibility:visible;display:inline;overflow:visible;enable-background:accumulate"
         id="rect24x24"
         width="24"
         height="24"
         x="416"
         y="100"
         inkscape:label="24x24" />
      <rect
         style="fill:#eeeeec;fill-opacity:1;fill-rule:nonzero;stroke:none;stroke-width:2;marker:none;visibility:visible;display:inline;overflow:visible;enable-background:accumulate"
         id="rect32x32"
         width="32"
         height="32"
         x="416"
         y="52"
         inkscape:label="32x32" />
      <rect
         inkscape:label="22x22"
         y="101"
         x="417"
         height="22"
         width="22"
         id="rect22x22"
         style="fill:#eeeeec;fill-opacity:1;fill-rule:nonzero;stroke:none;stroke-width:2;marker:none;visibility:visible;display:inline;overflow:visible;enable-background:accumulate" />
      <rect
         inkscape:label="48x48"
         y="220"
         x="288"
         height="48"
         width="48"
         id="rect48x48"
         style="fill:#eeeeec;fill-opacity:1;fill-rule:nonzero;stroke:none;stroke-width:2;marker:none;visibility:visible;display:inline;overflow:visible;enable-background:accumulate" />
      <rect
         style="fill:#eeeeec;fill-opacity:1;fill-rule:nonzero;stroke:none;stroke-width:2;marker:none;visibility:visible;display:inline;overflow:visible;enable-background:accumulate"
         id="rect256x256"
         width="256"
         height="256"
         x="16"
         y="28"
         inkscape:label="256x256" />
      <rect
         style="fill:#eeeeec;fill-opacity:1;fill-rule:nonzero;stroke:none;stroke-width:2;marker:none;visibility:visible;display:inline;overflow:visible;enable-background:accumulate"
         id="rect64x64"
         width="64"
         height="64"
         x="288"
         y="140"
         inkscape:label="64x64" />
      <rect
         style="fill:#eeeeec;fill-opacity:1;fill-rule:nonzero;stroke:none;stroke-width:2;marker:none;visibility:visible;display:inline;overflow:visible;enable-background:accumulate"
         id="rect96x96"
         width="96"
         height="96"
         x="288"
         y="28"
         inkscape:label="96x96" />
    </g>
    <g
       inkscape:groupmode="layer"
       id="layer4"
       inkscape:label="Shadow"
       style="display:inline"
       sodipodi:insensitive="true">
      <rect
         style="opacity:0.0;color:#bebebe;fill:#000000;fill-opacity:1;stroke:#000000;stroke-width:1;stroke-miterlimit:4;stroke-opacity:1;stroke-dasharray:none;marker:none;visibility:visible;display:inline;overflow:visible;enable-background:accumulate"
         id="rect4156"
         width="42"
         height="42"
         x="-266.5"
         y="291"
         ry="9"
         transform="matrix(0,-1,1,0,0,0)" />
      <rect
         transform="matrix(0,-1,1,0,0,0)"
         ry="9"
         y="291"
         x="-266.5"
         height="42"
         width="40"
         id="rect4183"
         style="opacity:0.1;color:#bebebe;fill:#000000;fill-opacity:1;stroke:none;stroke-width:1;marker:none;visibility:visible;display:inline;overflow:visible;enable-background:accumulate" />
      <rect
         ry="9"
         y="237"
         x="291"
         height="29"
         width="42"
         id="rect4144"
         style="opacity:0.1;color:#bebebe;fill:#000000;fill-opacity:1;fill-rule:nonzero;stroke:none;stroke-width:0;marker:none;visibility:visible;display:inline;overflow:visible;enable-background:accumulate" />
      <rect
         style="opacity:0.0;color:#bebebe;fill:#000000;fill-opacity:1;fill-rule:nonzero;stroke:#000000;stroke-width:1;stroke-miterlimit:4;stroke-opacity:1;stroke-dasharray:none;marker:none;visibility:visible;display:inline;overflow:visible;enable-background:accumulate"
         id="rect4340"
         width="88"
         height="88"
         x="292"
         y="33.5"
         ry="18" />
      <rect
         ry="18"
         y="52.5"
         x="292"
         height="69"
         width="88"
         id="rect4338"
         style="opacity:0.1;color:#bebebe;fill:#000000;fill-opacity:1;fill-rule:nonzero;stroke:none;stroke-width:0;marker:none;visibility:visible;display:inline;overflow:visible;enable-background:accumulate" />
      <rect
         style="opacity:0.1;color:#bebebe;fill:#000000;fill-opacity:1;fill-rule:nonzero;stroke:none;stroke-width:0;marker:none;visibility:visible;display:inline;overflow:visible;enable-background:accumulate"
         id="rect4335"
         width="88"
         height="76.5"
         x="292"
         y="44.5"
         ry="18" />
      <rect
         style="opacity:0.0;color:#bebebe;fill:#000000;fill-opacity:1;fill-rule:nonzero;stroke:#000000;stroke-width:1;stroke-miterlimit:4;stroke-opacity:1;stroke-dasharray:none;marker:none;visibility:visible;display:inline;overflow:visible;enable-background:accumulate"
         id="rect4214"
         width="60"
         height="60"
         x="290"
         y="143.5"
         ry="12.5" />
      <rect
         ry="12.5"
         y="151.5"
         x="290"
         height="52"
         width="60"
         id="rect4206"
         style="opacity:0.1;color:#bebebe;fill:#000000;fill-opacity:1;fill-rule:nonzero;stroke:none;stroke-width:0;marker:none;visibility:visible;display:inline;overflow:visible;enable-background:accumulate" />
      <rect
         style="opacity:0.1;color:#bebebe;fill:#000000;fill-opacity:1;fill-rule:nonzero;stroke:none;stroke-width:0;marker:none;visibility:visible;display:inline;overflow:visible;enable-background:accumulate"
         id="rect4212"
         width="60"
         height="54.5"
         x="290"
         y="148.5"
         ry="12.5" />
      <rect
         style="opacity:0.2;color:#bebebe;fill:#000000;fill-opacity:1;fill-rule:nonzero;stroke:none;stroke-width:0;marker:none;visibility:visible;display:inline;overflow:visible;enable-background:accumulate"
         id="rect4058"
         width="30"
         height="30"
         x="417"
         y="54"
         ry="7" />
      <rect
         ry="50"
         y="48"
         x="34"
         height="220"
         width="220"
         id="rect3872"
         style="opacity:0.0;color:#bebebe;fill:#000000;fill-opacity:1;fill-rule:nonzero;stroke:#000000;stroke-width:2;stroke-miterlimit:4;stroke-opacity:1;stroke-dasharray:none;marker:none;visibility:visible;display:inline;overflow:visible;enable-background:accumulate" />
      <rect
         style="opacity:0.1;color:#bebebe;fill:#000000;fill-opacity:1;fill-rule:nonzero;stroke:none;stroke-width:0;marker:none;visibility:visible;display:inline;overflow:visible;enable-background:accumulate"
         id="rect3870"
         width="220"
         height="220"
         x="34"
         y="48"
         ry="50" />
      <rect
         ry="50"
         y="47"
         x="34"
         height="220"
         width="220"
         id="rect3868"
         style="opacity:0.1;color:#bebebe;fill:#000000;fill-opacity:1;fill-rule:nonzero;stroke:none;stroke-width:0;marker:none;visibility:visible;display:inline;overflow:visible;enable-background:accumulate" />
    </g>
    <g
       inkscape:groupmode="layer"
       id="layer2"
       inkscape:label="Background"
       style="display:inline">
      <path
         style="color:#bebebe;fill:url(#linearGradient3959);fill-opacity:1;fill-rule:nonzero;stroke:none;stroke-width:0;marker:none;visibility:visible;display:inline;overflow:visible;enable-background:accumulate"
         d="M 124.28125 111.3125 C 116.80224 111.3125 122.01831 197.94315 115.59375 197.96875 C 109.89276 197.99073 114.16663 119.03125 105.84375 119.03125 C 99.344258 119.03125 104.79251 198.5625 99.15625 198.5625 C 93.302036 199.1164 95.019479 133.1875 89.28125 133.1875 C 83.536316 133.1875 87.835271 201.4375 81.34375 201.4375 C 73.907554 201.4375 78.469722 152.82386 71.28125 153.40625 C 65.109315 153.90632 69.869431 205.50832 63.6875 205.3125 C 57.309744 205.11666 59.665448 175.4375 55 175.4375 C 49.636669 175.4375 53.264542 210.22709 47.78125 210.03125 C 42.493523 209.8424 42.996915 194.83995 40.1875 194.78125 C 37.650696 194.72818 36.627279 209.08732 34 211.875 L 34 216 C 34 243.7 56.3 266 84 266 L 204 266 C 231.7 266 254 243.7 254 216 L 254 214.65625 C 253.72057 214.85164 253.41982 214.96875 253.0625 214.96875 C 248.97331 214.96875 251.26289 189.0625 246.40625 189.0625 C 241.55405 189.0625 242.97787 213.5625 238.0625 213.5625 C 233.00866 213.5625 237.16623 174.6875 230.5625 174.6875 C 224.15376 174.6875 227.82495 210.25 220.5625 210.25 C 213.5756 210.25 218.68206 159.46875 212.5 159.46875 C 206.04129 159.46875 209.0109 206.0358 202.375 206.3125 C 195.73334 206.58944 201.15641 145.125 193.9375 145.125 C 187.10782 145.125 189.46962 204.375 184.3125 204.375 C 178.74835 204.375 183.43296 130.1783 175.375 129.71875 C 168.5013 129.32675 171.9517 202.09375 166.1875 202.09375 C 160.14639 202.09375 165.69972 118.80391 157.25 118.25 C 148.52456 117.67804 155.66715 199.71875 149 199.71875 C 142.68927 199.71875 147.60117 116.59375 140.375 116.59375 C 132.87189 116.59375 140.03029 198.31814 133.21875 198.5625 C 126.75278 198.79448 132.03553 111.3125 124.28125 111.3125 z "
         id="rect4040" />
      <path
         style="color:#bebebe;fill:url(#linearGradient4097);fill-opacity:1;fill-rule:nonzero;stroke:none;stroke-width:0;marker:none;visibility:visible;display:inline;overflow:visible;enable-background:accumulate"
         d="M 422.78125 145.21875 C 422.31378 145.21875 422.62029 150.624 422.21875 150.625 C 421.86244 150.62638 422.14518 145.6875 421.625 145.6875 C 421.21872 145.6875 421.53977 150.65625 421.1875 150.65625 C 420.82162 150.69086 420.95239 146.5625 420.59375 146.5625 C 420.23469 146.5625 420.49947 150.84375 420.09375 150.84375 C 419.62899 150.84375 419.91803 147.80735 419.46875 147.84375 C 419.08304 147.87501 419.35512 151.10605 418.96875 151.09375 C 418.57014 151.08151 418.72909 149.21875 418.4375 149.21875 C 418.10229 149.21875 418.34271 151.3873 418 151.375 C 417.66952 151.3632 417.67558 150.4405 417.5 150.4375 C 417.32442 150.43382 417.2707 151.53125 417.0625 151.53125 C 416.95256 151.53125 416.79718 151.4375 416.6875 151.4375 C 416.52128 151.4375 416.38334 151.96175 416.0625 151.96875 L 416 151.96875 L 416 153 C 416 154.662 417.338 156 419 156 L 429 156 C 430.662 156 432 154.662 432 153 L 432 151.125 C 431.82405 151.125 431.84717 151.79175 431.65625 151.78125 C 431.44124 151.76938 431.53033 150.75 431.25 150.75 C 430.97002 150.75 431.07672 151.6875 430.8125 151.6875 C 430.55693 151.6875 430.70979 150.0625 430.40625 150.0625 C 430.10299 150.0625 430.18221 151.59375 429.875 151.59375 C 429.55913 151.59375 429.81898 149.15625 429.40625 149.15625 C 429.0057 149.15625 429.23515 151.375 428.78125 151.375 C 428.34455 151.375 428.66762 148.21875 428.28125 148.21875 C 427.87757 148.21875 428.07099 151.13895 427.65625 151.15625 C 427.24115 151.17357 427.57618 147.3125 427.125 147.3125 C 426.69814 147.3125 426.85358 151.03125 426.53125 151.03125 C 426.18349 151.03125 426.47237 146.37245 425.96875 146.34375 C 425.53914 146.31925 425.73526 150.875 425.375 150.875 C 424.99743 150.875 425.3406 145.6596 424.8125 145.625 C 424.26717 145.58926 424.7292 150.71875 424.3125 150.71875 C 423.91808 150.71875 424.23289 145.53125 423.78125 145.53125 C 423.31228 145.53125 423.73823 150.64095 423.3125 150.65625 C 422.90838 150.67074 423.26589 145.21875 422.78125 145.21875 z "
         id="rect4095" />
      <path
         style="color:#bebebe;fill:url(#linearGradient3984);fill-opacity:1;fill-rule:nonzero;stroke:none;stroke-width:0;marker:none;visibility:visible;display:inline;overflow:visible;enable-background:accumulate"
         d="M 426.15625 107.8125 C 425.4551 107.8125 425.94606 115.9355 425.34375 115.9375 C 424.80928 115.93957 425.21777 108.53125 424.4375 108.53125 C 423.82814 108.53125 424.30965 116 423.78125 116 C 423.23242 116.05192 423.41295 109.875 422.875 109.875 C 422.33641 109.875 422.73358 116.25 422.125 116.25 C 421.42786 116.25 421.86142 111.6954 421.1875 111.75 C 420.60887 111.79688 421.04831 116.6434 420.46875 116.625 C 419.87084 116.60664 420.09363 113.8125 419.65625 113.8125 C 419.15343 113.8125 419.48281 117.0809 418.96875 117.0625 C 418.47303 117.0448 418.54463 115.63 418.28125 115.625 C 418.01788 115.61949 417.90605 117.28125 417.59375 117.28125 C 417.42884 117.28125 417.19578 117.15625 417.03125 117.15625 C 417.0219 117.15625 417.00921 117.15411 417 117.15625 L 417 118 C 417 120.77 419.23 123 422 123 L 434 123 C 436.77 123 439 120.77 439 118 L 439 116.1875 C 438.96318 116.14606 438.92756 116.125 438.875 116.125 C 438.45503 116.125 438.61508 117.53125 438.21875 117.53125 C 437.83539 117.53125 438.04906 115.09375 437.59375 115.09375 C 437.13886 115.09375 437.27331 117.40625 436.8125 117.40625 C 436.3387 117.40625 436.7441 113.75 436.125 113.75 C 435.52418 113.75 435.86835 117.09375 435.1875 117.09375 C 434.53248 117.09375 435.01706 112.3125 434.4375 112.3125 C 433.83199 112.3125 434.09086 116.69275 433.46875 116.71875 C 432.84609 116.74472 433.36427 110.96875 432.6875 110.96875 C 432.04722 110.96875 432.26474 116.53125 431.78125 116.53125 C 431.25961 116.53125 431.69294 109.57435 430.9375 109.53125 C 430.29309 109.4945 430.63415 116.3125 430.09375 116.3125 C 429.5274 116.3125 430.04215 108.52065 429.25 108.46875 C 428.43196 108.41514 429.09379 116.09375 428.46875 116.09375 C 427.87712 116.09375 428.33371 108.3125 427.65625 108.3125 C 426.95285 108.3125 427.63859 115.9771 427 116 C 426.39382 116.02174 426.88322 107.8125 426.15625 107.8125 z "
         id="rect4099" />
      <path
         style="color:#bebebe;fill:url(#linearGradient3979);fill-opacity:1;fill-rule:nonzero;stroke:none;stroke-width:0;marker:none;visibility:visible;display:inline;overflow:visible;enable-background:accumulate"
         d="M 429.53125 62.40625 C 428.59638 62.40625 429.24057 73.247 428.4375 73.25 C 427.72487 73.25275 428.25911 63.375 427.21875 63.375 C 426.40631 63.375 427.11078 73.3125 426.40625 73.3125 C 425.67447 73.38173 425.87352 65.15625 425.15625 65.15625 C 424.43813 65.15625 424.96769 73.6875 424.15625 73.6875 C 423.22672 73.6875 423.80481 67.6147 422.90625 67.6875 C 422.13475 67.75001 422.74149 74.18075 421.96875 74.15625 C 421.17153 74.13177 421.45818 70.4375 420.875 70.4375 C 420.20458 70.4375 420.65416 74.7745 419.96875 74.75 C 419.30779 74.7264 419.38243 72.85075 419.03125 72.84375 C 418.68009 72.8364 418.54141 75.03125 418.125 75.03125 C 417.90513 75.03125 417.59438 74.875 417.375 74.875 C 417.25033 74.875 417.1276 75.03303 417 75.21875 L 417 76 C 417 79.878 420.122 83 424 83 L 440 83 C 443.878 83 447 79.878 447 76 L 447 74.875 C 446.90366 74.277633 446.85041 73.5 446.5 73.5 C 445.94004 73.5 446.15344 75.375 445.625 75.375 C 445.11385 75.375 445.41958 72.125 444.8125 72.125 C 444.20598 72.125 444.36442 75.1875 443.75 75.1875 C 443.11827 75.1875 443.63796 70.34375 442.8125 70.34375 C 442.0114 70.34375 442.4703 74.78125 441.5625 74.78125 C 440.68913 74.78125 441.33525 68.4375 440.5625 68.4375 C 439.75516 68.4375 440.14198 74.24665 439.3125 74.28125 C 438.48228 74.31587 439.15237 66.625 438.25 66.625 C 437.3963 66.625 437.67589 74.03125 437.03125 74.03125 C 436.33573 74.03125 436.94475 64.77625 435.9375 64.71875 C 435.07829 64.66975 435.50178 73.75 434.78125 73.75 C 434.02612 73.75 434.71246 63.35045 433.65625 63.28125 C 432.5655 63.20977 433.45839 73.46875 432.625 73.46875 C 431.83616 73.46875 432.46578 63.0625 431.5625 63.0625 C 430.62467 63.0625 431.5077 73.282 430.65625 73.3125 C 429.848 73.34149 430.50054 62.40625 429.53125 62.40625 z "
         id="rect4151" />
      <path
         style="color:#bebebe;fill:url(#linearGradient3974);fill-opacity:1;fill-rule:nonzero;stroke:none;stroke-width:0;marker:none;visibility:visible;display:inline;overflow:visible;enable-background:accumulate"
         d="M 308.3125 235.625 C 306.91019 235.625 307.89211 251.87 306.6875 251.875 C 305.61856 251.87913 306.40429 237.0625 304.84375 237.0625 C 303.62514 237.0625 304.65054 251.96875 303.59375 251.96875 C 302.49608 252.0726 302.82591 239.71875 301.75 239.71875 C 300.67282 239.71875 301.46716 252.53125 300.25 252.53125 C 298.85571 252.53125 299.72284 243.3908 298.375 243.5 C 297.21776 243.59376 298.09662 253.2867 296.9375 253.25 C 295.74167 253.21328 296.18727 247.65625 295.3125 247.65625 C 294.30687 247.65625 294.99686 254.1617 293.96875 254.125 C 292.9773 254.08959 293.05802 251.29225 292.53125 251.28125 C 292.0045 251.27023 291.84336 254.5625 291.21875 254.5625 C 291.1544 254.5625 291.07342 254.54633 291 254.53125 L 291 256 C 291 260.986 295.014 265 300 265 L 324 265 C 328.986 265 333 260.986 333 256 L 333 254.15625 C 332.89689 254.64857 332.73475 255.0625 332.4375 255.0625 C 331.67078 255.0625 332.09812 250.1875 331.1875 250.1875 C 330.27772 250.1875 330.54663 254.78125 329.625 254.78125 C 328.6774 254.78125 329.45694 247.5 328.21875 247.5 C 327.0171 247.5 327.70545 254.15625 326.34375 254.15625 C 325.0337 254.15625 326.00288 244.65625 324.84375 244.65625 C 323.63274 244.65625 324.18172 253.3856 322.9375 253.4375 C 321.69218 253.48942 322.72855 241.96875 321.375 241.96875 C 320.09444 241.96875 320.52945 253.0625 319.5625 253.0625 C 318.51922 253.0625 319.38587 239.1487 317.875 239.0625 C 316.58618 238.989 317.23704 252.65625 316.15625 252.65625 C 315.02355 252.65625 316.05307 237.01011 314.46875 236.90625 C 312.83268 236.79902 314.18758 252.1875 312.9375 252.1875 C 311.75424 252.1875 312.66741 236.625 311.3125 236.625 C 309.9057 236.625 311.24592 251.92295 309.96875 251.96875 C 308.75638 252.01224 309.76643 235.625 308.3125 235.625 z "
         id="rect4783" />
      <path
         style="color:#bebebe;fill:url(#linearGradient3964);fill-opacity:1;fill-rule:nonzero;stroke:none;stroke-width:0;marker:none;visibility:visible;display:inline;overflow:visible;enable-background:accumulate"
         d="M 328.59375 59.25 C 325.78912 59.25 327.75296 91.74 325.34375 91.75 C 323.20588 91.75825 324.80858 62.125 321.6875 62.125 C 319.25018 62.125 321.3011 91.96875 319.1875 91.96875 C 316.99217 92.17646 317.62058 67.4375 315.46875 67.4375 C 313.3144 67.4375 314.93432 93.03125 312.5 93.03125 C 309.71142 93.03125 311.41443 74.81285 308.71875 75.03125 C 306.40427 75.21877 308.19323 94.5734 305.875 94.5 C 303.48334 94.42656 304.37454 83.28125 302.625 83.28125 C 300.61375 83.28125 301.96248 96.3234 299.90625 96.25 C 297.92335 96.17918 298.11603 90.55325 297.0625 90.53125 C 296.00898 90.50921 295.65546 97.125 294.40625 97.125 C 293.74665 97.125 292.78316 96.625 292.125 96.625 C 292.08448 96.625 292.03986 96.64625 292 96.65625 L 292 102 C 292 111.972 300.028 120 310 120 L 362 120 C 371.972 120 380 111.972 380 102 L 380 92.75 C 379.86007 92.607072 379.69417 92.5 379.5 92.5 C 377.82014 92.5 378.49156 98.125 376.90625 98.125 C 375.3728 98.125 376.22749 88.40625 374.40625 88.40625 C 372.58668 88.40625 373.12451 97.59375 371.28125 97.59375 C 369.38606 97.59375 370.94515 83 368.46875 83 C 366.06547 83 367.44217 96.34375 364.71875 96.34375 C 362.09866 96.34375 364.00577 77.3125 361.6875 77.3125 C 359.26548 77.3125 360.36346 94.77124 357.875 94.875 C 355.38437 94.97885 357.42584 71.9375 354.71875 71.9375 C 352.15762 71.9375 353.05892 94.15625 351.125 94.15625 C 349.03844 94.15625 350.77173 66.32859 347.75 66.15625 C 345.17236 66.00925 346.47408 93.28125 344.3125 93.28125 C 342.04709 93.28125 344.13739 62.05147 340.96875 61.84375 C 337.69671 61.62927 340.37518 92.40625 337.875 92.40625 C 335.50848 92.40625 337.33481 61.21875 334.625 61.21875 C 331.81133 61.21875 334.52308 91.87715 331.96875 91.96875 C 329.54401 92.05574 331.5016 59.25 328.59375 59.25 z "
         id="rect4511" />
      <path
         style="color:#bebebe;fill:url(#linearGradient3969);fill-opacity:1;fill-rule:nonzero;stroke:none;stroke-width:0;marker:none;visibility:visible;display:inline;overflow:visible;enable-background:accumulate"
         d="M 315.0625 160.8125 C 313.19275 160.8125 314.51239 182.493 312.90625 182.5 C 311.481 182.5055 312.54947 162.75 310.46875 162.75 C 308.84387 162.75 310.19031 182.625 308.78125 182.625 C 307.31769 182.76347 307.74705 166.28125 306.3125 166.28125 C 304.87627 166.28125 305.96663 183.34375 304.34375 183.34375 C 302.4847 183.34375 303.60962 171.19815 301.8125 171.34375 C 300.26952 171.46876 301.45174 184.3614 299.90625 184.3125 C 298.31181 184.26354 298.91636 176.84375 297.75 176.84375 C 296.40917 176.84375 297.30832 185.5489 295.9375 185.5 C 294.61557 185.45279 294.73361 181.7022 294.03125 181.6875 C 293.32891 181.67281 293.11406 186.09375 292.28125 186.09375 C 291.84152 186.09375 291.18878 185.75 290.75 185.75 C 290.49661 185.75 290.26027 186.0888 290 186.46875 L 290 189.5 C 290 196.425 295.575 202 302.5 202 L 337.5 202 C 344.425 202 350 196.425 350 189.5 L 350 185.78125 C 349.80733 184.58652 349.70084 183 349 183 C 347.88009 183 348.30687 186.75 347.25 186.75 C 346.2277 186.75 346.80791 180.25 345.59375 180.25 C 344.38071 180.25 344.72884 186.375 343.5 186.375 C 342.23654 186.375 343.27593 176.65625 341.625 176.65625 C 340.02281 176.65625 340.94061 185.5625 339.125 185.5625 C 337.37827 185.5625 338.67052 172.875 337.125 172.875 C 335.51033 172.875 336.25272 184.4933 334.59375 184.5625 C 332.93333 184.63173 334.27348 169.28125 332.46875 169.28125 C 330.76133 169.28125 331.35178 184.09375 330.0625 184.09375 C 328.67146 184.09375 329.85824 165.55239 327.84375 165.4375 C 326.12532 165.3395 326.9723 183.53125 325.53125 183.53125 C 324.02098 183.53125 325.42492 162.70098 323.3125 162.5625 C 321.13114 162.41952 322.91678 182.9375 321.25 182.9375 C 319.67232 182.9375 320.90029 162.15625 319.09375 162.15625 C 317.21798 162.15625 319.01539 182.5639 317.3125 182.625 C 315.69601 182.68299 317.00107 160.8125 315.0625 160.8125 z "
         id="rect4515" />
    </g>
    <g
       inkscape:groupmode="layer"
       id="layer6"
       inkscape:label="Symbols"
       style="display:inline">
      <path
         clip-path="url(#clipPath3106)"
         id="path3173"
         d="M 16 28 L 16 219.5625 L 17.1875 219.5625 C 22.320918 219.45034 24.371701 211.03125 27.03125 211.03125 C 28.786353 211.03125 31.334821 212.34375 33.09375 212.34375 C 36.42498 212.34375 37.378099 194.72248 40.1875 194.78125 C 42.996915 194.83995 42.493523 209.8424 47.78125 210.03125 C 53.264542 210.22709 49.636669 175.4375 55 175.4375 C 59.665448 175.4375 57.309744 205.11666 63.6875 205.3125 C 69.869431 205.50832 65.109315 153.90632 71.28125 153.40625 C 78.469722 152.82386 73.907554 201.4375 81.34375 201.4375 C 87.835271 201.4375 83.536316 133.1875 89.28125 133.1875 C 95.019479 133.1875 93.302036 199.1164 99.15625 198.5625 C 104.79251 198.5625 99.344258 119.03125 105.84375 119.03125 C 114.16663 119.03125 109.89276 197.99073 115.59375 197.96875 C 122.01831 197.94315 116.80224 111.3125 124.28125 111.3125 C 132.03553 111.3125 126.75278 198.79448 133.21875 198.5625 C 140.03029 198.31814 132.87189 116.59375 140.375 116.59375 C 147.60117 116.59375 142.68927 199.71875 149 199.71875 C 155.66715 199.71875 148.52456 117.67804 157.25 118.25 C 165.69972 118.80391 160.14639 202.09375 166.1875 202.09375 C 171.9517 202.09375 168.5013 129.32675 175.375 129.71875 C 183.43296 130.1783 178.74835 204.375 184.3125 204.375 C 189.46962 204.375 187.10782 145.125 193.9375 145.125 C 201.15641 145.125 195.73334 206.58944 202.375 206.3125 C 209.0109 206.0358 206.04129 159.46875 212.5 159.46875 C 218.68206 159.46875 213.5756 210.25 220.5625 210.25 C 227.82495 210.25 224.15376 174.6875 230.5625 174.6875 C 237.16623 174.6875 233.00866 213.5625 238.0625 213.5625 C 242.97787 213.5625 241.55405 189.0625 246.40625 189.0625 C 251.26289 189.0625 248.97331 214.96875 253.0625 214.96875 C 257.29001 214.96875 255.55163 200.03125 260.03125 200.03125 C 264.51665 200.03125 262.93484 216.18509 266.375 216.375 C 269.42977 216.54361 269.02862 206.1875 271.84375 206.1875 C 271.9002 206.1875 271.94664 206.20998 272 206.21875 L 272 28 L 16 28 z "
         style="display:inline;enable-background:new;fill:none;fill-opacity:1;fill-rule:evenodd;stroke:#000000;stroke-opacity:1;opacity:0.1;stroke-width:2;stroke-miterlimit:4;stroke-dasharray:none" />
      <path
         clip-path="url(#clipPath3115)"
         inkscape:connector-curvature="0"
         style="display:inline;enable-background:new;fill:none;fill-opacity:1;fill-rule:evenodd;stroke:#000000;stroke-opacity:1;opacity:0.1;stroke-width:2;stroke-miterlimit:4;stroke-dasharray:none"
         d="m 287.99999,28.00002 0,71.83594 0.44531,0 c 1.92503,-0.0421 2.69408,-3.19922 3.69141,-3.19922 0.65816,0 1.61384,0.49219 2.27344,0.49219 1.24921,0 1.60663,-6.60798 2.66015,-6.58594 1.05353,0.022 0.86476,5.64793 2.84766,5.71875 2.05623,0.0734 0.69578,-12.97266 2.70703,-12.97266 1.74954,0 0.86615,11.12969 3.25781,11.20313 2.31823,0.0734 0.53318,-19.27732 2.84766,-19.46484 2.69568,-0.2184 0.98486,18.01171 3.77344,18.01171 2.43432,0 0.82221,-25.59375 2.97656,-25.59375 2.15183,0 1.50779,24.72334 3.70312,24.51563 2.1136,0 0.0705,-29.82422 2.50782,-29.82422 3.12108,0 1.51838,29.60981 3.65625,29.60156 2.40921,-0.01 0.45318,-32.49609 3.25781,-32.49609 2.90785,0 0.92682,32.80574 3.35156,32.71875 2.55433,-0.0916 -0.13007,-30.73828 2.6836,-30.73828 2.70981,0 0.86785,31.17187 3.23437,31.17187 2.50018,0 -0.17829,-30.76526 3.09375,-30.55078 3.16864,0.20772 1.08615,31.44141 3.35156,31.44141 2.16158,0 0.86768,-27.28763 3.44532,-27.14063 3.02173,0.17234 1.265,27.9961 3.35156,27.9961 1.93392,0 1.04824,-22.21875 3.60937,-22.21875 2.70709,0 0.67344,23.04916 3.16407,22.94531 2.48846,-0.10376 1.37485,-17.56641 3.79687,-17.56641 2.31827,0 0.40335,19.04297 3.02344,19.04297 2.72342,0 1.34672,-13.33594 3.75,-13.33594 2.4764,0 0.91731,14.57813 2.8125,14.57813 1.84326,0 1.30933,-9.1875 3.1289,-9.1875 1.82124,0 0.96265,9.71484 2.4961,9.71484 1.58531,0 0.93342,-5.60156 2.61328,-5.60156 1.68202,0 1.08885,6.05769 2.37891,6.12891 1.14553,0.0632 0.9951,-3.82032 2.05078,-3.82032 0.0212,0 0.0386,0.008 0.0586,0.0117 L 384,28 288,28 z"
         id="path3175" />
      <path
         clip-path="url(#clipPath3128)"
         id="path3177"
         d="m 287.99996,139.99982 0,47.89062 0.29687,0 c 1.28336,-0.0281 1.79606,-2.13282 2.46094,-2.13282 0.43878,0 1.0759,0.32813 1.51563,0.32813 0.83281,0 1.07109,-4.40532 1.77343,-4.39063 0.70236,0.0147 0.57651,3.76529 1.89844,3.8125 1.37082,0.0489 0.46386,-8.64843 1.80469,-8.64843 1.16636,0 0.57743,7.41979 2.17187,7.46875 1.54549,0.0489 0.35546,-12.85155 1.89844,-12.97656 1.79712,-0.1456 0.65658,12.0078 2.51563,12.0078 1.62288,0 0.54814,-17.06249 1.98437,-17.06249 1.43455,0 1.00519,16.48222 2.46875,16.34375 1.40906,0 0.047,-19.88281 1.67188,-19.88281 2.08072,0 1.01225,19.73987 2.4375,19.73437 1.60614,-0.007 0.30212,-21.66406 2.17187,-21.66406 1.93857,0 0.61788,21.87049 2.23437,21.8125 1.70289,-0.0611 -0.0867,-20.49219 1.78907,-20.49219 1.80654,0 0.57857,20.78125 2.15625,20.78125 1.66678,0 -0.11886,-20.51017 2.0625,-20.36719 2.11242,0.13848 0.7241,20.96094 2.23437,20.96094 1.44105,0 0.57845,-18.19175 2.29688,-18.09375 2.01449,0.11489 0.84333,18.66406 2.23437,18.66406 1.28928,0 0.69883,-14.81249 2.40625,-14.81249 1.80473,0 0.44896,15.3661 2.10938,15.29687 1.65897,-0.0692 0.91657,-11.71094 2.53124,-11.71094 1.54552,0 0.2689,12.69531 2.01563,12.69531 1.81561,0 0.89781,-8.89062 2.5,-8.89062 1.65093,0 0.61154,9.71875 1.875,9.71875 1.22884,0 0.87289,-6.125 2.08593,-6.125 1.21416,0 0.64177,6.47656 1.66407,6.47656 1.05687,0 0.62228,-3.73438 1.74219,-3.73438 1.12134,0 0.7259,4.03846 1.58594,4.08594 0.76368,0.0421 0.6634,-2.54688 1.36718,-2.54688 0.0141,0 0.0257,0.005 0.0391,0.008 L 351.99999,140 288,140 z"
         style="display:inline;enable-background:new;fill:none;fill-opacity:1;fill-rule:evenodd;stroke:#000000;stroke-opacity:1;opacity:0.1;stroke-width:2;stroke-miterlimit:4;stroke-dasharray:none"
         inkscape:connector-curvature="0" />
      <path
         clip-path="url(#clipPath3149)"
         inkscape:connector-curvature="0"
         style="fill:none;fill-opacity:1;fill-rule:evenodd;stroke:#000000;display:inline;enable-background:new;stroke-opacity:1;opacity:0.1;stroke-width:2;stroke-miterlimit:4;stroke-dasharray:none"
         d="m 288.00001,220 0,35.91795 0.22265,0 c 0.96252,-0.0211 1.34705,-1.59961 1.84571,-1.59961 0.32908,0 0.80692,0.24609 1.13672,0.24609 0.62461,0 0.80332,-3.30399 1.33007,-3.29297 0.52677,0.011 0.43238,2.82397 1.42383,2.85938 1.02811,0.0367 0.34789,-6.48632 1.35352,-6.48632 0.87477,0 0.43307,5.56484 1.6289,5.60156 1.15912,0.0367 0.26659,-9.63866 1.42383,-9.73242 1.34784,-0.1092 0.49243,9.00585 1.88672,9.00585 1.21716,0 0.4111,-12.79686 1.48828,-12.79686 1.07591,0 0.75389,12.36165 1.85156,12.2578 1.05679,0 0.0353,-14.9121 1.25391,-14.9121 1.56054,0 0.75918,14.8049 1.82812,14.80077 1.20461,-0.005 0.22659,-16.24804 1.6289,-16.24804 1.45393,0 0.46341,16.40286 1.67578,16.35937 1.27717,-0.0458 -0.065,-15.36913 1.3418,-15.36913 1.35491,0 0.43393,15.58593 1.61719,15.58593 1.25008,0 -0.0892,-15.38262 1.54687,-15.27539 1.58432,0.10386 0.54308,15.7207 1.67578,15.7207 1.08079,0 0.43384,-13.64381 1.72266,-13.57031 1.51087,0.0862 0.6325,13.99804 1.67578,13.99804 0.96695,0 0.52412,-11.10936 1.80468,-11.10936 1.35355,0 0.33672,11.52457 1.58204,11.47265 1.24422,-0.0519 0.68742,-8.7832 1.89843,-8.7832 1.15913,0 0.20167,9.52147 1.51172,9.52147 1.3617,0 0.67335,-6.66796 1.875,-6.66796 1.23819,0 0.45865,7.28906 1.40625,7.28906 0.92163,0 0.65466,-4.59375 1.56444,-4.59375 0.91062,0 0.48133,4.85742 1.24805,4.85742 0.79266,0 0.46671,-2.80078 1.30665,-2.80078 0.841,0 0.54442,3.02884 1.18945,3.06445 0.57276,0.0316 0.49755,-1.91016 1.02539,-1.91016 0.0106,0 0.0193,0.004 0.0293,0.006 l 0,-33.41599 -47.99997,0 z"
         id="path3179" />
      <path
         clip-path="url(#clipPath3158)"
         id="path3181"
         d="m 416.00002,51.99991 0,23.94531 0.14843,0 c 0.64168,-0.0141 0.89804,-1.06641 1.23048,-1.06641 0.21938,0 0.53794,0.16406 0.75781,0.16406 0.41641,0 0.53555,-2.20266 0.88671,-2.19531 0.35118,0.007 0.28826,1.88265 0.94922,1.90625 0.68541,0.0245 0.23193,-4.32421 0.90235,-4.32421 0.58318,0 0.28872,3.70989 1.08594,3.73437 0.77274,0.0245 0.17772,-6.42577 0.94922,-6.48828 0.89856,-0.0728 0.32828,6.0039 1.25781,6.0039 0.81144,0 0.27407,-8.53124 0.99219,-8.53124 0.71727,0 0.50259,8.2411 1.23437,8.17187 0.70453,0 0.0235,-9.94141 0.83594,-9.94141 1.04036,0 0.50612,9.86994 1.21875,9.86719 0.80307,-0.003 0.15106,-10.83203 1.08593,-10.83203 0.96929,0 0.30894,10.93524 1.11719,10.90625 0.85145,-0.0305 -0.0433,-10.24609 0.89453,-10.24609 0.90328,0 0.28929,10.39062 1.07813,10.39062 0.83339,0 -0.0595,-10.25508 1.03125,-10.1836 1.05621,0.0692 0.36205,10.48048 1.11718,10.48048 0.72053,0 0.28923,-9.09588 1.14844,-9.04688 1.00725,0.0575 0.42167,9.33203 1.11719,9.33203 0.64464,0 0.34942,-7.40624 1.20312,-7.40624 0.90237,0 0.22448,7.68305 1.0547,7.64843 0.82948,-0.0346 0.45828,-5.85547 1.26562,-5.85547 0.77275,0 0.13444,6.34765 1.00781,6.34765 0.9078,0 0.4489,-4.44531 1.25,-4.44531 0.82546,0 0.30577,4.85938 0.9375,4.85938 0.61442,0 0.43644,-3.0625 1.04296,-3.0625 0.60708,0 0.32089,3.23828 0.83204,3.23828 0.52844,0 0.31114,-1.86719 0.8711,-1.86719 0.56066,0 0.36294,2.01923 0.79296,2.04297 0.38184,0.0211 0.3317,-1.27344 0.6836,-1.27344 0.007,0 0.0129,0.003 0.0195,0.004 L 447.99999,52 416,52 z"
         style="fill:none;fill-opacity:1;fill-rule:evenodd;stroke:#000000;display:inline;enable-background:new;stroke-opacity:1;opacity:0.1;stroke-width:2;stroke-miterlimit:4;stroke-dasharray:none"
         inkscape:connector-curvature="0" />
      <path
         clip-path="url(#clipPath3167)"
         inkscape:connector-curvature="0"
         style="fill:none;fill-opacity:1;fill-rule:evenodd;stroke:#000000;display:inline;enable-background:new;stroke-opacity:1;opacity:0.1;stroke-width:2;stroke-miterlimit:4;stroke-dasharray:none"
         d="m 416.00005,100 0,17.95899 0.11132,0 c 0.48126,-0.0106 0.67353,-0.79981 0.92286,-0.79981 0.16453,0 0.40345,0.12305 0.56836,0.12305 0.3123,0 0.40166,-1.652 0.66503,-1.64649 0.26338,0.005 0.21619,1.41199 0.71191,1.42969 0.51406,0.0184 0.17395,-3.24316 0.67677,-3.24316 0.43738,0 0.21654,2.78242 0.81445,2.80078 0.57956,0.0184 0.13329,-4.81933 0.71192,-4.86621 0.67392,-0.0546 0.24621,4.50293 0.94335,4.50293 0.60858,0 0.20556,-6.39844 0.74415,-6.39844 0.53795,0 0.37694,6.18083 0.92577,6.12891 0.5284,0 0.0176,-7.45606 0.62696,-7.45606 0.78027,0 0.37959,7.40246 0.91406,7.40039 0.60231,-0.002 0.1133,-8.12402 0.81445,-8.12402 0.72697,0 0.23171,8.20143 0.83789,8.17969 0.63859,-0.0229 -0.0325,-7.68457 0.6709,-7.68457 0.67746,0 0.21697,7.79297 0.8086,7.79297 0.62504,0 -0.0446,-7.69132 0.77344,-7.63771 0.79215,0.0519 0.27153,7.86037 0.83788,7.86037 0.5404,0 0.21692,-6.82192 0.86133,-6.78517 0.75544,0.0431 0.31625,6.99903 0.83789,6.99903 0.48349,0 0.26207,-5.55468 0.90235,-5.55468 0.67677,0 0.16836,5.76229 0.79102,5.73632 0.62211,-0.026 0.34371,-4.3916 0.94922,-4.3916 0.57956,0 0.10083,4.76074 0.75585,4.76074 0.68085,0 0.33668,-3.33399 0.9375,-3.33399 0.6191,0 0.22933,3.64454 0.70313,3.64454 0.46081,0 0.32733,-2.29688 0.78222,-2.29688 0.45531,0 0.24067,2.42871 0.62403,2.42871 0.39633,0 0.23335,-1.40039 0.65332,-1.40039 0.4205,0 0.27221,1.51442 0.59472,1.53223 0.28638,0.0158 0.24878,-0.95508 0.5127,-0.95508 0.005,0 0.01,0.002 0.0146,0.003 l 0,-16.70801 -24,0 z"
         id="path3183" />
      <path
         style="display:inline;enable-background:new;fill:url(#linearGradient3450);fill-opacity:1;fill-rule:evenodd;stroke:none"
         d="M 16 28 L 16 219.5625 L 17.1875 219.5625 C 22.320918 219.45034 24.371701 211.03125 27.03125 211.03125 C 28.786353 211.03125 31.334821 212.34375 33.09375 212.34375 C 36.42498 212.34375 37.378099 194.72248 40.1875 194.78125 C 42.996915 194.83995 42.493523 209.8424 47.78125 210.03125 C 53.264542 210.22709 49.636669 175.4375 55 175.4375 C 59.665448 175.4375 57.309744 205.11666 63.6875 205.3125 C 69.869431 205.50832 65.109315 153.90632 71.28125 153.40625 C 78.469722 152.82386 73.907554 201.4375 81.34375 201.4375 C 87.835271 201.4375 83.536316 133.1875 89.28125 133.1875 C 95.019479 133.1875 93.302036 199.1164 99.15625 198.5625 C 104.79251 198.5625 99.344258 119.03125 105.84375 119.03125 C 114.16663 119.03125 109.89276 197.99073 115.59375 197.96875 C 122.01831 197.94315 116.80224 111.3125 124.28125 111.3125 C 132.03553 111.3125 126.75278 198.79448 133.21875 198.5625 C 140.03029 198.31814 132.87189 116.59375 140.375 116.59375 C 147.60117 116.59375 142.68927 199.71875 149 199.71875 C 155.66715 199.71875 148.52456 117.67804 157.25 118.25 C 165.69972 118.80391 160.14639 202.09375 166.1875 202.09375 C 171.9517 202.09375 168.5013 129.32675 175.375 129.71875 C 183.43296 130.1783 178.74835 204.375 184.3125 204.375 C 189.46962 204.375 187.10782 145.125 193.9375 145.125 C 201.15641 145.125 195.73334 206.58944 202.375 206.3125 C 209.0109 206.0358 206.04129 159.46875 212.5 159.46875 C 218.68206 159.46875 213.5756 210.25 220.5625 210.25 C 227.82495 210.25 224.15376 174.6875 230.5625 174.6875 C 237.16623 174.6875 233.00866 213.5625 238.0625 213.5625 C 242.97787 213.5625 241.55405 189.0625 246.40625 189.0625 C 251.26289 189.0625 248.97331 214.96875 253.0625 214.96875 C 257.29001 214.96875 255.55163 200.03125 260.03125 200.03125 C 264.51665 200.03125 262.93484 216.18509 266.375 216.375 C 269.42977 216.54361 269.02862 206.1875 271.84375 206.1875 C 271.9002 206.1875 271.94664 206.20998 272 206.21875 L 272 28 L 16 28 z "
         id="path3444"
         clip-path="url(#clipPath3106)" />
      <path
         id="path3092"
         d="m 287.99999,28.00002 0,71.83594 0.44531,0 c 1.92503,-0.0421 2.69408,-3.19922 3.69141,-3.19922 0.65816,0 1.61384,0.49219 2.27344,0.49219 1.24921,0 1.60663,-6.60798 2.66015,-6.58594 1.05353,0.022 0.86476,5.64793 2.84766,5.71875 2.05623,0.0734 0.69578,-12.97266 2.70703,-12.97266 1.74954,0 0.86615,11.12969 3.25781,11.20313 2.31823,0.0734 0.53318,-19.27732 2.84766,-19.46484 2.69568,-0.2184 0.98486,18.01171 3.77344,18.01171 2.43432,0 0.82221,-25.59375 2.97656,-25.59375 2.15183,0 1.50779,24.72334 3.70312,24.51563 2.1136,0 0.0705,-29.82422 2.50782,-29.82422 3.12108,0 1.51838,29.60981 3.65625,29.60156 2.40921,-0.01 0.45318,-32.49609 3.25781,-32.49609 2.90785,0 0.92682,32.80574 3.35156,32.71875 2.55433,-0.0916 -0.13007,-30.73828 2.6836,-30.73828 2.70981,0 0.86785,31.17187 3.23437,31.17187 2.50018,0 -0.17829,-30.76526 3.09375,-30.55078 3.16864,0.20772 1.08615,31.44141 3.35156,31.44141 2.16158,0 0.86768,-27.28763 3.44532,-27.14063 3.02173,0.17234 1.265,27.9961 3.35156,27.9961 1.93392,0 1.04824,-22.21875 3.60937,-22.21875 2.70709,0 0.67344,23.04916 3.16407,22.94531 2.48846,-0.10376 1.37485,-17.56641 3.79687,-17.56641 2.31827,0 0.40335,19.04297 3.02344,19.04297 2.72342,0 1.34672,-13.33594 3.75,-13.33594 2.4764,0 0.91731,14.57813 2.8125,14.57813 1.84326,0 1.30933,-9.1875 3.1289,-9.1875 1.82124,0 0.96265,9.71484 2.4961,9.71484 1.58531,0 0.93342,-5.60156 2.61328,-5.60156 1.68202,0 1.08885,6.05769 2.37891,6.12891 1.14553,0.0632 0.9951,-3.82032 2.05078,-3.82032 0.0212,0 0.0386,0.008 0.0586,0.0117 L 384,28 288,28 z"
         style="display:inline;enable-background:new;fill:url(#linearGradient3094);fill-opacity:1;fill-rule:evenodd;stroke:none"
         inkscape:connector-curvature="0"
         clip-path="url(#clipPath3115)" />
      <path
         inkscape:connector-curvature="0"
         style="display:inline;enable-background:new;fill:url(#linearGradient3098);fill-opacity:1;fill-rule:evenodd;stroke:none"
         d="m 287.99996,139.99982 0,47.89062 0.29687,0 c 1.28336,-0.0281 1.79606,-2.13282 2.46094,-2.13282 0.43878,0 1.0759,0.32813 1.51563,0.32813 0.83281,0 1.07109,-4.40532 1.77343,-4.39063 0.70236,0.0147 0.57651,3.76529 1.89844,3.8125 1.37082,0.0489 0.46386,-8.64843 1.80469,-8.64843 1.16636,0 0.57743,7.41979 2.17187,7.46875 1.54549,0.0489 0.35546,-12.85155 1.89844,-12.97656 1.79712,-0.1456 0.65658,12.0078 2.51563,12.0078 1.62288,0 0.54814,-17.06249 1.98437,-17.06249 1.43455,0 1.00519,16.48222 2.46875,16.34375 1.40906,0 0.047,-19.88281 1.67188,-19.88281 2.08072,0 1.01225,19.73987 2.4375,19.73437 1.60614,-0.007 0.30212,-21.66406 2.17187,-21.66406 1.93857,0 0.61788,21.87049 2.23437,21.8125 1.70289,-0.0611 -0.0867,-20.49219 1.78907,-20.49219 1.80654,0 0.57857,20.78125 2.15625,20.78125 1.66678,0 -0.11886,-20.51017 2.0625,-20.36719 2.11242,0.13848 0.7241,20.96094 2.23437,20.96094 1.44105,0 0.57845,-18.19175 2.29688,-18.09375 2.01449,0.11489 0.84333,18.66406 2.23437,18.66406 1.28928,0 0.69883,-14.81249 2.40625,-14.81249 1.80473,0 0.44896,15.3661 2.10938,15.29687 1.65897,-0.0692 0.91657,-11.71094 2.53124,-11.71094 1.54552,0 0.2689,12.69531 2.01563,12.69531 1.81561,0 0.89781,-8.89062 2.5,-8.89062 1.65093,0 0.61154,9.71875 1.875,9.71875 1.22884,0 0.87289,-6.125 2.08593,-6.125 1.21416,0 0.64177,6.47656 1.66407,6.47656 1.05687,0 0.62228,-3.73438 1.74219,-3.73438 1.12134,0 0.7259,4.03846 1.58594,4.08594 0.76368,0.0421 0.6634,-2.54688 1.36718,-2.54688 0.0141,0 0.0257,0.005 0.0391,0.008 L 351.99999,140 288,140 z"
         id="path3096"
         clip-path="url(#clipPath3128)" />
      <path
         id="path3121"
         d="m 288.00001,220 0,35.91795 0.22265,0 c 0.96252,-0.0211 1.34705,-1.59961 1.84571,-1.59961 0.32908,0 0.80692,0.24609 1.13672,0.24609 0.62461,0 0.80332,-3.30399 1.33007,-3.29297 0.52677,0.011 0.43238,2.82397 1.42383,2.85938 1.02811,0.0367 0.34789,-6.48632 1.35352,-6.48632 0.87477,0 0.43307,5.56484 1.6289,5.60156 1.15912,0.0367 0.26659,-9.63866 1.42383,-9.73242 1.34784,-0.1092 0.49243,9.00585 1.88672,9.00585 1.21716,0 0.4111,-12.79686 1.48828,-12.79686 1.07591,0 0.75389,12.36165 1.85156,12.2578 1.05679,0 0.0353,-14.9121 1.25391,-14.9121 1.56054,0 0.75918,14.8049 1.82812,14.80077 1.20461,-0.005 0.22659,-16.24804 1.6289,-16.24804 1.45393,0 0.46341,16.40286 1.67578,16.35937 1.27717,-0.0458 -0.065,-15.36913 1.3418,-15.36913 1.35491,0 0.43393,15.58593 1.61719,15.58593 1.25008,0 -0.0892,-15.38262 1.54687,-15.27539 1.58432,0.10386 0.54308,15.7207 1.67578,15.7207 1.08079,0 0.43384,-13.64381 1.72266,-13.57031 1.51087,0.0862 0.6325,13.99804 1.67578,13.99804 0.96695,0 0.52412,-11.10936 1.80468,-11.10936 1.35355,0 0.33672,11.52457 1.58204,11.47265 1.24422,-0.0519 0.68742,-8.7832 1.89843,-8.7832 1.15913,0 0.20167,9.52147 1.51172,9.52147 1.3617,0 0.67335,-6.66796 1.875,-6.66796 1.23819,0 0.45865,7.28906 1.40625,7.28906 0.92163,0 0.65466,-4.59375 1.56444,-4.59375 0.91062,0 0.48133,4.85742 1.24805,4.85742 0.79266,0 0.46671,-2.80078 1.30665,-2.80078 0.841,0 0.54442,3.02884 1.18945,3.06445 0.57276,0.0316 0.49755,-1.91016 1.02539,-1.91016 0.0106,0 0.0193,0.004 0.0293,0.006 l 0,-33.41599 -47.99997,0 z"
         style="fill:url(#linearGradient3123);fill-opacity:1;fill-rule:evenodd;stroke:none;display:inline;enable-background:new"
         inkscape:connector-curvature="0"
         clip-path="url(#clipPath3149)" />
      <path
         inkscape:connector-curvature="0"
         style="fill:url(#linearGradient3136);fill-opacity:1;fill-rule:evenodd;stroke:none;display:inline;enable-background:new"
         d="m 416.00002,51.99991 0,23.94531 0.14843,0 c 0.64168,-0.0141 0.89804,-1.06641 1.23048,-1.06641 0.21938,0 0.53794,0.16406 0.75781,0.16406 0.41641,0 0.53555,-2.20266 0.88671,-2.19531 0.35118,0.007 0.28826,1.88265 0.94922,1.90625 0.68541,0.0245 0.23193,-4.32421 0.90235,-4.32421 0.58318,0 0.28872,3.70989 1.08594,3.73437 0.77274,0.0245 0.17772,-6.42577 0.94922,-6.48828 0.89856,-0.0728 0.32828,6.0039 1.25781,6.0039 0.81144,0 0.27407,-8.53124 0.99219,-8.53124 0.71727,0 0.50259,8.2411 1.23437,8.17187 0.70453,0 0.0235,-9.94141 0.83594,-9.94141 1.04036,0 0.50612,9.86994 1.21875,9.86719 0.80307,-0.003 0.15106,-10.83203 1.08593,-10.83203 0.96929,0 0.30894,10.93524 1.11719,10.90625 0.85145,-0.0305 -0.0433,-10.24609 0.89453,-10.24609 0.90328,0 0.28929,10.39062 1.07813,10.39062 0.83339,0 -0.0595,-10.25508 1.03125,-10.1836 1.05621,0.0692 0.36205,10.48048 1.11718,10.48048 0.72053,0 0.28923,-9.09588 1.14844,-9.04688 1.00725,0.0575 0.42167,9.33203 1.11719,9.33203 0.64464,0 0.34942,-7.40624 1.20312,-7.40624 0.90237,0 0.22448,7.68305 1.0547,7.64843 0.82948,-0.0346 0.45828,-5.85547 1.26562,-5.85547 0.77275,0 0.13444,6.34765 1.00781,6.34765 0.9078,0 0.4489,-4.44531 1.25,-4.44531 0.82546,0 0.30577,4.85938 0.9375,4.85938 0.61442,0 0.43644,-3.0625 1.04296,-3.0625 0.60708,0 0.32089,3.23828 0.83204,3.23828 0.52844,0 0.31114,-1.86719 0.8711,-1.86719 0.56066,0 0.36294,2.01923 0.79296,2.04297 0.38184,0.0211 0.3317,-1.27344 0.6836,-1.27344 0.007,0 0.0129,0.003 0.0195,0.004 L 447.99999,52 416,52 z"
         id="path3134"
         clip-path="url(#clipPath3158)" />
      <path
         id="path3138"
         d="m 416.00005,100 0,17.95899 0.11132,0 c 0.48126,-0.0106 0.67353,-0.79981 0.92286,-0.79981 0.16453,0 0.40345,0.12305 0.56836,0.12305 0.3123,0 0.40166,-1.652 0.66503,-1.64649 0.26338,0.005 0.21619,1.41199 0.71191,1.42969 0.51406,0.0184 0.17395,-3.24316 0.67677,-3.24316 0.43738,0 0.21654,2.78242 0.81445,2.80078 0.57956,0.0184 0.13329,-4.81933 0.71192,-4.86621 0.67392,-0.0546 0.24621,4.50293 0.94335,4.50293 0.60858,0 0.20556,-6.39844 0.74415,-6.39844 0.53795,0 0.37694,6.18083 0.92577,6.12891 0.5284,0 0.0176,-7.45606 0.62696,-7.45606 0.78027,0 0.37959,7.40246 0.91406,7.40039 0.60231,-0.002 0.1133,-8.12402 0.81445,-8.12402 0.72697,0 0.23171,8.20143 0.83789,8.17969 0.63859,-0.0229 -0.0325,-7.68457 0.6709,-7.68457 0.67746,0 0.21697,7.79297 0.8086,7.79297 0.62504,0 -0.0446,-7.69132 0.77344,-7.63771 0.79215,0.0519 0.27153,7.86037 0.83788,7.86037 0.5404,0 0.21692,-6.82192 0.86133,-6.78517 0.75544,0.0431 0.31625,6.99903 0.83789,6.99903 0.48349,0 0.26207,-5.55468 0.90235,-5.55468 0.67677,0 0.16836,5.76229 0.79102,5.73632 0.62211,-0.026 0.34371,-4.3916 0.94922,-4.3916 0.57956,0 0.10083,4.76074 0.75585,4.76074 0.68085,0 0.33668,-3.33399 0.9375,-3.33399 0.6191,0 0.22933,3.64454 0.70313,3.64454 0.46081,0 0.32733,-2.29688 0.78222,-2.29688 0.45531,0 0.24067,2.42871 0.62403,2.42871 0.39633,0 0.23335,-1.40039 0.65332,-1.40039 0.4205,0 0.27221,1.51442 0.59472,1.53223 0.28638,0.0158 0.24878,-0.95508 0.5127,-0.95508 0.005,0 0.01,0.002 0.0146,0.003 l 0,-16.70801 -24,0 z"
         style="fill:url(#linearGradient3140);fill-opacity:1;fill-rule:evenodd;stroke:none;display:inline;enable-background:new"
         inkscape:connector-curvature="0"
         clip-path="url(#clipPath3167)" />
      <path
         inkscape:connector-curvature="0"
         style="fill:url(#linearGradient3144);fill-opacity:1;fill-rule:evenodd;stroke:none;display:inline;enable-background:new"
         d="m 416,143 -1.1e-4,8.97266 0.0742,0 c 0.32084,-0.007 0.44902,-0.53321 0.61524,-0.53321 0.10968,0 0.26896,0.082 0.3789,0.082 0.2082,0 0.26778,-1.10134 0.44336,-1.09766 0.17558,0.003 0.14412,0.94132 0.4746,0.95312 0.34271,0.0123 0.11597,-2.1621 0.45118,-2.1621 0.29159,0 0.14436,1.85494 0.54297,1.86718 0.38637,0.0123 0.0889,-3.21288 0.47461,-3.24414 0.44928,-0.0364 0.16414,3.00196 0.6289,3.00196 0.40572,0 0.13704,-4.26563 0.4961,-4.26563 0.35864,0 0.2513,4.12055 0.61718,4.08594 0.35227,0 0.0117,-4.97071 0.41798,-4.97071 0.52018,0 0.25306,4.93498 0.60937,4.9336 0.40154,-0.001 0.0755,-5.41602 0.54297,-5.41602 0.48464,0 0.15447,5.46762 0.55859,5.45313 0.42573,-0.0153 -0.0217,-5.12305 0.44727,-5.12305 0.45164,0 0.14464,5.19532 0.53906,5.19532 0.4167,0 -0.0297,-5.12755 0.51563,-5.09181 0.5281,0.0346 0.18102,5.24025 0.55859,5.24025 0.36026,0 0.14461,-4.54795 0.57422,-4.52345 0.50362,0.0287 0.21083,4.66602 0.55859,4.66602 0.32233,0 0.17471,-3.70312 0.60157,-3.70312 0.45118,0 0.11224,3.84153 0.52734,3.82421 0.41474,-0.0173 0.22914,-2.92773 0.63282,-2.92773 0.38637,0 0.0672,3.17383 0.5039,3.17383 0.4539,0 0.22445,-2.22266 0.625,-2.22266 0.41273,0 0.15288,2.42969 0.46875,2.42969 0.30721,0 0.21822,-1.53125 0.52148,-1.53125 0.30354,0 0.16045,1.61914 0.41602,1.61914 0.26422,0 0.15557,-0.9336 0.43555,-0.9336 0.28033,0 0.18147,1.00962 0.39648,1.02149 0.19092,0.0105 0.16585,-0.63672 0.3418,-0.63672 0.003,0 0.007,10e-4 0.01,0.002 L 432,143 c 0,-3 -3,-3 -3,-3 l -10,0 c -3,0 -3,3 -3,3 z"
         id="path3142"
         sodipodi:nodetypes="cccssccsccsscscscsscscsscssssssscscccccc" />
    </g>
    <g
       inkscape:groupmode="layer"
       id="layer5"
       inkscape:label="Highlights"
       style="display:inline"
       sodipodi:insensitive="true">
      <rect
         ry="9"
         y="307"
         x="-265"
         height="42"
         width="42"
         id="rect4884"
         style="opacity:0.15;color:#bebebe;fill:none;stroke:#000000;stroke-width:2;stroke-miterlimit:4;stroke-opacity:1;stroke-dasharray:none;marker:none;visibility:visible;display:inline;overflow:visible;enable-background:accumulate"
         transform="matrix(0,1,1,0,-16,488)"
         clip-path="url(#clipPath4891)" />
      <rect
         style="opacity:0.15;color:#bebebe;fill:none;stroke:#000000;stroke-width:2;stroke-miterlimit:4;stroke-opacity:1;stroke-dasharray:none;marker:none;visibility:visible;display:inline;overflow:visible;enable-background:accumulate"
         id="rect5311"
         width="16"
         height="16"
         x="-228"
         y="304"
         ry="3"
         clip-path="url(#clipPath3855)"
         transform="matrix(0,-1,1,0,112,-72)" />
      <rect
         ry="50"
         y="46"
         x="34"
         height="220"
         width="220"
         id="rect3858"
         style="opacity:0.15;color:#bebebe;fill:none;stroke:#000000;stroke-width:2;stroke-miterlimit:4;stroke-opacity:1;stroke-dasharray:none;marker:none;visibility:visible;display:inline;overflow:visible;enable-background:accumulate"
         clip-path="url(#clipPath3862)" />
      <rect
         ry="12.5"
         y="142"
         x="290"
         height="60"
         width="60"
         id="rect4175"
         style="opacity:0.15;color:#bebebe;fill:none;stroke:#000000;stroke-width:2;stroke-miterlimit:4;stroke-opacity:1;stroke-dasharray:none;marker:none;visibility:visible;display:inline;overflow:visible;enable-background:accumulate"
         clip-path="url(#clipPath4187)" />
      <rect
         style="opacity:0.15;color:#bebebe;fill:none;stroke:#000000;stroke-width:2;stroke-miterlimit:4;stroke-opacity:1;stroke-dasharray:none;marker:none;visibility:visible;display:inline;overflow:visible;enable-background:accumulate"
         id="rect4342"
         width="88"
         height="88"
         x="292"
         y="32"
         ry="18"
         clip-path="url(#clipPath4346)" />
      <rect
         ry="5"
         y="101"
         x="417"
         height="22"
         width="22"
         id="rect3866"
         style="opacity:0.15;color:#bebebe;fill:none;stroke:#000000;stroke-width:2;stroke-miterlimit:4;stroke-opacity:1;stroke-dasharray:none;marker:none;visibility:visible;display:inline;overflow:visible;enable-background:accumulate"
         clip-path="url(#clipPath3871)" />
      <rect
         style="opacity:0.15;color:#bebebe;fill:none;stroke:#000000;stroke-width:2;stroke-miterlimit:4;stroke-opacity:1;stroke-dasharray:none;marker:none;visibility:visible;display:inline;overflow:visible;enable-background:accumulate"
         id="rect3877"
         width="30"
         height="30"
         x="417"
         y="53"
         ry="7"
         clip-path="url(#clipPath3881)" />
    </g>
  </g>
</svg>
