<?xml version="1.0" encoding="UTF-8" standalone="no"?>
<!-- Created with Inkscape (http://www.inkscape.org/) -->

<svg
   xmlns:dc="http://purl.org/dc/elements/1.1/"
   xmlns:cc="http://creativecommons.org/ns#"
   xmlns:rdf="http://www.w3.org/1999/02/22-rdf-syntax-ns#"
   xmlns:svg="http://www.w3.org/2000/svg"
   xmlns="http://www.w3.org/2000/svg"
   xmlns:xlink="http://www.w3.org/1999/xlink"
   xmlns:sodipodi="http://sodipodi.sourceforge.net/DTD/sodipodi-0.dtd"
   xmlns:inkscape="http://www.inkscape.org/namespaces/inkscape"
   inkscape:export-ydpi="90.000000"
   inkscape:export-xdpi="90.000000"
   width="480"
   height="300"
   id="svg11300"
   sodipodi:version="0.32"
   inkscape:version="0.48.4 r9939"
   sodipodi:docname="venom.svg"
   inkscape:output_extension="org.inkscape.output.svg.inkscape"
   version="1.0"
   style="display:inline;enable-background:new"
   inkscape:export-filename="/home/sam/moka-next-template.png">
  <sodipodi:namedview
     stroke="#ef2929"
     fill="#f57900"
     id="base"
     pagecolor="#777777"
     bordercolor="#666666"
     borderopacity="0.25490196"
     inkscape:pageopacity="0"
     inkscape:pageshadow="2"
     inkscape:zoom="1"
     inkscape:cx="430.25553"
     inkscape:cy="177.89733"
     inkscape:current-layer="layer7"
     showgrid="false"
     inkscape:grid-bbox="true"
     inkscape:document-units="px"
     inkscape:showpageshadow="false"
     inkscape:window-width="1364"
     inkscape:window-height="700"
     inkscape:window-x="0"
     inkscape:window-y="28"
     width="400px"
     height="300px"
     inkscape:snap-nodes="true"
     inkscape:snap-bbox="true"
     gridtolerance="10000"
     inkscape:object-nodes="true"
     inkscape:snap-grids="true"
     showguides="true"
     inkscape:guide-bbox="true"
     inkscape:window-maximized="1"
     inkscape:bbox-nodes="true"
     inkscape:bbox-paths="true"
     inkscape:snap-bbox-edge-midpoints="true"
     inkscape:snap-bbox-midpoints="true">
    <inkscape:grid
       spacingy="1px"
       spacingx="1px"
       id="grid5883"
       type="xygrid"
       enabled="true"
       visible="true"
       empspacing="4"
       snapvisiblegridlinesonly="true"
       dotted="false"
       color="#000000"
       opacity="0.1254902"
       empcolor="#203ef3"
       empopacity="0.36470588" />
    <inkscape:grid
       type="xygrid"
       id="grid11592"
       empspacing="8"
       visible="true"
       enabled="false"
       spacingx="0.5px"
       spacingy="0.5px"
       color="#ff0000"
       opacity="0.1254902"
       empcolor="#ff0000"
       empopacity="0.25098039"
       snapvisiblegridlinesonly="true"
       dotted="true" />
  </sodipodi:namedview>
  <defs
     id="defs3">
    <linearGradient
       id="outerBackgroundGradient">
      <stop
         style="stop-color:#6bc260;stop-opacity:1;"
         offset="0"
         id="stop3864-8-6" />
      <stop
         style="stop-color:#87de7d;stop-opacity:1;"
         offset="1"
         id="stop3866-9-1" />
    </linearGradient>
    <linearGradient
       inkscape:collect="always"
       xlink:href="#outerBackgroundGradient"
       id="linearGradient4254"
       x1="35"
       y1="156"
       x2="253"
       y2="156"
       gradientUnits="userSpaceOnUse"
       gradientTransform="matrix(0,-1,1,0,-12,300)" />
    <linearGradient
       inkscape:collect="always"
       xlink:href="#outerBackgroundGradient"
       id="linearGradient4256"
       x1="417"
       y1="148"
       x2="431"
       y2="148"
       gradientUnits="userSpaceOnUse"
       gradientTransform="matrix(0,-1,1,0,276,572)" />
    <linearGradient
       inkscape:collect="always"
       xlink:href="#outerBackgroundGradient"
       id="linearGradient4260"
       x1="418"
       y1="68"
       x2="446"
       y2="68"
       gradientUnits="userSpaceOnUse"
       gradientTransform="matrix(0,-1,1,0,364,500)" />
    <linearGradient
       inkscape:collect="always"
       xlink:href="#outerBackgroundGradient"
       id="linearGradient4262"
       x1="292"
       y1="244"
       x2="332"
       y2="244"
       gradientUnits="userSpaceOnUse"
       gradientTransform="matrix(0,-1,1,0,68,556)" />
    <linearGradient
       inkscape:collect="always"
       xlink:href="#outerBackgroundGradient"
       id="linearGradient4264"
       x1="293"
       y1="76"
       x2="379"
       y2="76"
       gradientUnits="userSpaceOnUse"
       gradientTransform="matrix(0,-1,1,0,260,412)" />
    <linearGradient
       inkscape:collect="always"
       xlink:href="#outerBackgroundGradient"
       id="linearGradient4266"
       x1="291"
       y1="172"
       x2="349"
       y2="172"
       gradientUnits="userSpaceOnUse"
       gradientTransform="matrix(0,-1,1,0,148,492)" />
    <linearGradient
       inkscape:collect="always"
       xlink:href="#outerBackgroundGradient"
       id="linearGradient3870"
       gradientUnits="userSpaceOnUse"
       gradientTransform="matrix(0,-1,1,0,316,540)"
       x1="418"
       y1="112"
       x2="438"
       y2="112" />
  </defs>
  <metadata
     id="metadata4">
    <rdf:RDF>
      <cc:Work
         rdf:about="">
        <dc:format>image/svg+xml</dc:format>
        <dc:type
           rdf:resource="http://purl.org/dc/dcmitype/StillImage" />
        <dc:creator>
          <cc:Agent>
            <dc:title>Sam Hewitt</dc:title>
          </cc:Agent>
        </dc:creator>
        <dc:source />
        <cc:license
           rdf:resource="" />
        <dc:title />
        <dc:subject>
          <rdf:Bag />
        </dc:subject>
        <dc:date />
        <dc:rights>
          <cc:Agent>
            <dc:title />
          </cc:Agent>
        </dc:rights>
        <dc:publisher>
          <cc:Agent>
            <dc:title />
          </cc:Agent>
        </dc:publisher>
        <dc:identifier />
        <dc:relation />
        <dc:language />
        <dc:coverage />
        <dc:description />
        <dc:contributor>
          <cc:Agent>
            <dc:title />
          </cc:Agent>
        </dc:contributor>
      </cc:Work>
      <cc:Work
         rdf:about="">
        <dc:format>image/svg+xml</dc:format>
        <dc:type
           rdf:resource="http://purl.org/dc/dcmitype/StillImage" />
      </cc:Work>
    </rdf:RDF>
  </metadata>
  <g
     style="display:inline"
     inkscape:groupmode="layer"
     inkscape:label="Icon"
     id="layer1">
    <g
       style="display:none"
       inkscape:label="Baseplate"
       id="layer7"
       inkscape:groupmode="layer">
      <text
         y="19.745117"
         xml:space="preserve"
         x="15.006836"
         style="font-style:normal;font-variant:normal;font-weight:normal;font-stretch:normal;line-height:0%;font-family:'DejaVu Sans';-inkscape-font-specification:'DejaVu Sans';display:inline;fill:#000000;fill-opacity:1;stroke:none;enable-background:new"
         inkscape:label="context"
         id="context"><tspan
           style="font-style:normal;font-variant:normal;font-weight:normal;font-stretch:normal;font-size:18px;line-height:1.25;font-family:'DejaVu Sans';-inkscape-font-specification:'DejaVu Sans'"
           y="19.745117"
           x="15.006836"
           sodipodi:role="line"
           id="tspan3933">apps</tspan></text>
      <text
         y="19.745117"
         xml:space="preserve"
         x="122.48828"
         style="font-style:normal;font-variant:normal;font-weight:bold;font-stretch:normal;line-height:0%;font-family:'DejaVu Sans';-inkscape-font-specification:'DejaVu Sans Bold';text-align:start;writing-mode:lr-tb;text-anchor:start;display:inline;fill:#000000;fill-opacity:1;stroke:none;enable-background:new"
         inkscape:label="icon-name"
         id="icon-name"><tspan
           style="font-style:normal;font-variant:normal;font-weight:bold;font-stretch:normal;font-size:18px;line-height:1.25;font-family:'DejaVu Sans';-inkscape-font-specification:'DejaVu Sans Bold'"
           y="19.745117"
           x="122.48828"
           sodipodi:role="line"
           id="tspan3937">venom</tspan></text>
      <rect
         style="fill:#eeeeec;fill-opacity:1;fill-rule:nonzero;stroke:none;stroke-width:2;marker:none;visibility:visible;display:inline;overflow:visible;enable-background:accumulate"
         id="rect16x16"
         width="16"
         height="16"
         x="416"
         y="140"
         inkscape:label="16x16" />
      <rect
         style="fill:#d4d4d4;fill-opacity:1;fill-rule:nonzero;stroke:none;stroke-width:2;marker:none;visibility:visible;display:inline;overflow:visible;enable-background:accumulate"
         id="rect24x24"
         width="24"
         height="24"
         x="416"
         y="100"
         inkscape:label="24x24" />
      <rect
         style="fill:#eeeeec;fill-opacity:1;fill-rule:nonzero;stroke:none;stroke-width:2;marker:none;visibility:visible;display:inline;overflow:visible;enable-background:accumulate"
         id="rect32x32"
         width="32"
         height="32"
         x="416"
         y="52"
         inkscape:label="32x32" />
      <rect
         inkscape:label="22x22"
         y="101"
         x="417"
         height="22"
         width="22"
         id="rect22x22"
         style="fill:#eeeeec;fill-opacity:1;fill-rule:nonzero;stroke:none;stroke-width:2;marker:none;visibility:visible;display:inline;overflow:visible;enable-background:accumulate" />
      <rect
         inkscape:label="48x48"
         y="220"
         x="288"
         height="48"
         width="48"
         id="rect48x48"
         style="fill:#eeeeec;fill-opacity:1;fill-rule:nonzero;stroke:none;stroke-width:2;marker:none;visibility:visible;display:inline;overflow:visible;enable-background:accumulate" />
      <rect
         style="fill:#eeeeec;fill-opacity:1;fill-rule:nonzero;stroke:none;stroke-width:2;marker:none;visibility:visible;display:inline;overflow:visible;enable-background:accumulate"
         id="rect256x256"
         width="256"
         height="256"
         x="16"
         y="28"
         inkscape:label="256x256" />
      <rect
         style="fill:#eeeeec;fill-opacity:1;fill-rule:nonzero;stroke:none;stroke-width:2;marker:none;visibility:visible;display:inline;overflow:visible;enable-background:accumulate"
         id="rect64x64"
         width="64"
         height="64"
         x="288"
         y="140"
         inkscape:label="64x64" />
      <rect
         style="fill:#eeeeec;fill-opacity:1;fill-rule:nonzero;stroke:none;stroke-width:2;marker:none;visibility:visible;display:inline;overflow:visible;enable-background:accumulate"
         id="rect96x96"
         width="96"
         height="96"
         x="288"
         y="28"
         inkscape:label="96x96" />
    </g>
    <g
       inkscape:groupmode="layer"
       id="layer4"
       inkscape:label="Shadow"
       style="display:inline"
       sodipodi:insensitive="true">
      <rect
         ry="50"
         y="47"
         x="34"
         height="220"
         width="220"
         id="rect4114"
         style="opacity:0.1;color:#bebebe;fill:#000000;fill-opacity:1;fill-rule:nonzero;stroke:none;stroke-width:0;marker:none;visibility:visible;display:inline;overflow:visible;enable-background:accumulate" />
      <rect
         style="opacity:0.1;color:#bebebe;fill:#000000;fill-opacity:1;fill-rule:nonzero;stroke:none;stroke-width:0;marker:none;visibility:visible;display:inline;overflow:visible;enable-background:accumulate"
         id="rect4120"
         width="30"
         height="30"
         x="417"
         y="54"
         ry="7" />
      <rect
         transform="scale(1,-1)"
         ry="9"
         y="-266"
         x="291"
         height="42"
         width="42"
         id="rect4122"
         style="opacity:0.1;color:#bebebe;fill:#000000;fill-opacity:1;fill-rule:nonzero;stroke:none;stroke-width:0;marker:none;visibility:visible;display:inline;overflow:visible;enable-background:accumulate" />
      <rect
         style="opacity:0.1;color:#bebebe;fill:#000000;fill-opacity:1;fill-rule:nonzero;stroke:none;stroke-width:0;marker:none;visibility:visible;display:inline;overflow:visible;enable-background:accumulate"
         id="rect4124"
         width="88"
         height="88"
         x="292"
         y="33"
         ry="18" />
      <rect
         ry="12.5"
         y="143"
         x="290"
         height="60"
         width="60"
         id="rect4126"
         style="opacity:0.1;color:#bebebe;fill:#000000;fill-opacity:1;fill-rule:nonzero;stroke:none;stroke-width:0;marker:none;visibility:visible;display:inline;overflow:visible;enable-background:accumulate" />
      <path
         id="path4268"
         d="m 422,101 c -2.77,0 -5,2.23 -5,5 l 0,12 c 0,2.77 2.23,5 5,5 l 12,0 c 2.77,0 5,-2.23 5,-5 l 0,-12 c 0,-2.77 -2.23,-5 -5,-5 z"
         style="opacity:0.1;color:#bebebe;fill:#000000;fill-opacity:1;fill-rule:nonzero;stroke:none;stroke-width:0;marker:none;visibility:visible;display:inline;overflow:visible;enable-background:accumulate"
         inkscape:connector-curvature="0"
         sodipodi:nodetypes="sssssssss" />
      <path
         id="path4270"
         d="m 419,140 c -1.662,0 -3,1.338 -3,3 l 0,10 c 0,1.662 1.338,3 3,3 l 10,0 c 1.662,0 3,-1.338 3,-3 l 0,-10 c 0,-1.662 -1.338,-3 -3,-3 z"
         style="opacity:0.1;color:#bebebe;fill:#000000;fill-opacity:1;fill-rule:nonzero;stroke:none;stroke-width:0;marker:none;visibility:visible;display:inline;overflow:visible;enable-background:accumulate"
         inkscape:connector-curvature="0"
         sodipodi:nodetypes="sssssssss" />
    </g>
    <g
       inkscape:groupmode="layer"
       id="layer2"
       inkscape:label="Background"
       style="display:inline">
      <path
         style="color:#bebebe;fill:url(#linearGradient4254);fill-opacity:1;fill-rule:nonzero;stroke:none;stroke-width:2;marker:none;visibility:visible;display:inline;overflow:visible;enable-background:accumulate"
         d="M 84 46.5 C 56.568735 46.5 34.5 68.568732 34.5 96 L 34.5 216 C 34.5 243.43127 56.568735 265.5 84 265.5 L 204 265.5 C 231.43127 265.5 253.5 243.43127 253.5 216 L 253.5 96 C 253.5 68.568732 231.43127 46.5 204 46.5 L 84 46.5 z "
         id="path4200" />
      <path
         style="color:#bebebe;fill:url(#linearGradient4256);fill-opacity:1;fill-rule:nonzero;stroke:none;stroke-width:2;marker:none;visibility:visible;display:inline;overflow:visible;enable-background:accumulate"
         d="M 419 140.5 C 417.6156 140.5 416.5 141.6156 416.5 143 L 416.5 153 C 416.5 154.3844 417.6156 155.5 419 155.5 L 429 155.5 C 430.3844 155.5 431.5 154.3844 431.5 153 L 431.5 143 C 431.5 141.6156 430.3844 140.5 429 140.5 L 419 140.5 z "
         id="path4202" />
      <path
         style="color:#bebebe;fill:url(#linearGradient3870);fill-opacity:1;fill-rule:nonzero;stroke:none;stroke-width:2;marker:none;visibility:visible;display:inline;overflow:visible;enable-background:accumulate"
         d="M 422 101.5 C 419.50301 101.5 417.5 103.50301 417.5 106 L 417.5 118 C 417.5 120.49699 419.50301 122.5 422 122.5 L 434 122.5 C 436.49699 122.5 438.5 120.49699 438.5 118 L 438.5 106 C 438.5 103.50301 436.49699 101.5 434 101.5 L 422 101.5 z "
         id="path4204" />
      <path
         style="color:#bebebe;fill:url(#linearGradient4260);fill-opacity:1;fill-rule:nonzero;stroke:none;stroke-width:2;marker:none;visibility:visible;display:inline;overflow:visible;enable-background:accumulate"
         d="M 424 53.5 C 420.39346 53.5 417.5 56.393464 417.5 60 L 417.5 76 C 417.5 79.606536 420.39346 82.5 424 82.5 L 440 82.5 C 443.60654 82.5 446.5 79.606536 446.5 76 L 446.5 60 C 446.5 56.393464 443.60654 53.5 440 53.5 L 424 53.5 z "
         id="path4206" />
      <path
         style="color:#bebebe;fill:url(#linearGradient4262);fill-opacity:1;fill-rule:nonzero;stroke:none;stroke-width:2;marker:none;visibility:visible;display:inline;overflow:visible;enable-background:accumulate"
         d="M 300 223.5 C 295.28469 223.5 291.5 227.28469 291.5 232 L 291.5 256 C 291.5 260.71531 295.28469 264.5 300 264.5 L 324 264.5 C 328.71531 264.5 332.5 260.71531 332.5 256 L 332.5 232 C 332.5 227.28469 328.71531 223.5 324 223.5 L 300 223.5 z "
         id="path4208" />
      <path
         style="color:#bebebe;fill:url(#linearGradient4264);fill-opacity:1;fill-rule:nonzero;stroke:none;stroke-width:2;marker:none;visibility:visible;display:inline;overflow:visible;enable-background:accumulate"
         d="M 310 32.5 C 300.29745 32.5 292.5 40.297452 292.5 50 L 292.5 102 C 292.5 111.70255 300.29745 119.5 310 119.5 L 362 119.5 C 371.70255 119.5 379.5 111.70255 379.5 102 L 379.5 50 C 379.5 40.297452 371.70255 32.5 362 32.5 L 310 32.5 z "
         id="path4210" />
      <path
         style="color:#bebebe;fill:url(#linearGradient4266);fill-opacity:1;fill-rule:nonzero;stroke:none;stroke-width:2;marker:none;visibility:visible;display:inline;overflow:visible;enable-background:accumulate"
         d="M 302.5 142.5 C 295.84498 142.5 290.5 147.84498 290.5 154.5 L 290.5 189.5 C 290.5 196.15502 295.84498 201.5 302.5 201.5 L 337.5 201.5 C 344.15502 201.5 349.5 196.15502 349.5 189.5 L 349.5 154.5 C 349.5 147.84498 344.15502 142.5 337.5 142.5 L 302.5 142.5 z "
         id="path4212" />
    </g>
    <g
       inkscape:groupmode="layer"
       id="layer6"
       inkscape:label="Symbols"
       style="display:inline">
      <path
         inkscape:connector-curvature="0"
         id="path3925"
         d="m 336,47 c -8.31,0 -15,6.69 -15,15 l 0,8 -8,0 c -0.554,0 -1,0.446 -1,1 l 0,35 c 0,0.554 0.446,1 1,1 l 46,0 c 0.554,0 1,-0.446 1,-1 l 0,-35 c 0,-0.554 -0.446,-1 -1,-1 l -8,0 0,-8 c 0,-8.31 -6.69,-15 -15,-15 z m 0,6 c 5.52285,0 10,4.029437 10,9 0,1.553301 -0.45653,3.019151 -1.09375,4.28125 -0.63722,1.262098 -1.28655,2.482016 -2.15625,3.65625 -1.28275,1.70604 -3.6719,4.16513 -5.15625,5.28125 C 337.00661,75.66024 336.4972,76 336.4375,76 c -0.0598,0 0.19586,-0.66222 0.59375,-1.46875 0.49698,-1.007417 1.04016,-2.935536 1.15625,-3.75 C 337.47922,70.92445 336.75632,71 336,71 c -5.52285,0 -10,-4.029437 -10,-9 0,-4.970563 4.47715,-9 10,-9 z m 0,27 c 2.76142,0 5,2.238576 5,5 0,2.115941 -1.33069,3.894926 -3.1875,4.625 C 343,92 343,96 343,98 c 0,0 0,1 -1,1 l -12,0 c -1,0 -1,-1 -1,-1 0,-2 0,-6 5.1875,-8.375 C 332.33069,88.894926 331,87.115941 331,85 c 0,-2.761424 2.23858,-5 5,-5 z"
         style="fill:#000000;fill-opacity:1;stroke:none;display:inline;enable-background:new;opacity:0.2" />
      <path
         sodipodi:nodetypes="sscsssssssscsssscccsccsssssccssccss"
         style="fill:#000000;fill-opacity:1;stroke:none;display:inline;enable-background:new;opacity:0.2"
         d="m 312,230 c -4.155,0 -7,2.2825 -7,6.4375 l 0,4.5625 -4.5,0.0625 c -0.27697,0.004 -0.5,0.223 -0.5,0.5 l 0,16.9375 c 0,0.277 0.223,0.5 0.5,0.5 l 23,0 c 0.277,0 0.5,-0.223 0.5,-0.5 l 0,-16.9375 c 0,-0.277 -0.22303,-0.49567 -0.5,-0.5 L 319,241 l 0,-4.5625 C 319,232.2825 316.155,230 312,230 z m 0,2 c 2.76143,0 5,2.01472 5,4.5 0,0.77665 -0.22826,1.50957 -0.54688,2.14062 -0.31861,0.63105 -0.64327,1.24101 -1.07812,1.82813 -0.64138,0.85302 -1.83595,2.08256 -2.57813,2.64062 -0.29357,0.22075 -0.54827,0.39063 -0.57812,0.39063 -0.0299,0 0.0979,-0.33111 0.29687,-0.73438 0.24849,-0.5037 0.52008,-1.46776 0.57813,-1.875 C 312.73961,240.96222 312.37816,241 312,241 c -2.76143,0 -5,-2.01472 -5,-4.5 0,-2.48528 2.23857,-4.5 5,-4.5 z m 0,13.5 c 1.38071,0 2.5,1.11929 2.5,2.5 0,1.05797 -0.66535,1.94746 -1.59375,2.3125 C 315.5,251.5 315.5,253.5 315.5,254.5 c 0,0 0,0.5 -0.5,0.5 l -6,0 c -0.5,0 -0.5,-0.5 -0.5,-0.5 0,-1 0,-3 2.59375,-4.1875 C 310.16534,249.94746 309.5,249.05797 309.5,248 c 0,-1.38071 1.11929,-2.5 2.5,-2.5 z"
         id="path3927"
         inkscape:connector-curvature="0" />
      <path
         sodipodi:nodetypes="sscsssssssscssssscssscsssssccssccss"
         style="fill:#000000;fill-opacity:1;stroke:none;display:inline;enable-background:new;opacity:0.2"
         d="m 144,83 c -20.775,0 -37,15.69467 -37,36.46967 L 107,140 86.5,140.0303 c -1.384998,0.002 -2.5,1.115 -2.5,2.5 L 84,229.5 c 0,1.385 1.115,2.5 2.5,2.5 l 115,0 c 1.385,0 2.5,-1.115 2.5,-2.5 l 0,-86.96967 c 0,-1.385 -1.115,-2.49694 -2.5,-2.5 L 181,140 181,119.46967 C 181,98.69467 164.775,83 144,83 z m 0,14 c 13.80713,0 25,10.07359 25,22.5 0,3.88325 -1.14132,7.54788 -2.73438,10.70312 -1.59305,3.15525 -3.21637,6.20504 -5.39062,9.14063 -3.20688,4.2651 -9.17975,10.41282 -12.89063,13.20312 -1.46785,1.10373 -2.74137,1.95313 -2.89062,1.95313 -0.1495,0 0.48965,-1.65555 1.48437,-3.67188 1.24245,-2.51854 2.60041,-7.33884 2.89063,-9.375 C 147.69805,141.81112 145.8908,142 144,142 130.19287,142 119,131.92641 119,119.5 119,107.07359 130.19287,97 144,97 z m 0,67.5 c 6.90355,0 12.5,5.59644 12.5,12.5 0,5.28985 -3.32673,9.73731 -7.96875,11.5625 C 161.5,194.5 161.5,204.5 161.5,209.5 c 0,0 0,2.5 -2.5,2.5 l -30,0 c -2.5,0 -2.5,-2.5 -2.5,-2.5 0,-5 0,-15 12.96875,-20.9375 C 134.82672,186.73731 131.5,182.28985 131.5,177 c 0,-6.90356 5.59645,-12.5 12.5,-12.5 z"
         id="path3929"
         inkscape:connector-curvature="0" />
      <path
         inkscape:connector-curvature="0"
         id="path3931"
         d="m 320,152 c -6.2325,0 -11,3.65859 -11,9.89108 l 0,7.10892 -6.25,0.10892 c -0.41544,0.007 -0.75,0.3345 -0.75,0.75 l 0,24.43397 c 0,0.41551 0.3345,0.75 0.75,0.75 l 34.5,0 c 0.4155,0 0.75,-0.33449 0.75,-0.75 l 0,-24.43397 c 0,-0.4155 -0.33454,-0.74424 -0.75,-0.75 L 331,169 l 0,-7.10892 C 331,155.65858 326.2325,152 320,152 z m 0,3.25005 c 4.14215,0 7.5,3.02208 7.5,6.75 0,1.16497 -0.34239,2.26436 -0.82032,3.21093 -0.47791,0.94658 -0.9649,1.86152 -1.61718,2.74219 -0.96207,1.27953 -2.75393,3.12384 -3.86719,3.96094 -0.44036,0.33112 -0.82241,0.58594 -0.86719,0.58594 -0.0448,0 0.14685,-0.49667 0.44531,-1.10157 0.37273,-0.75555 0.78012,-2.20164 0.86719,-2.8125 -0.5312,0.1074 -1.07338,0.16407 -1.64062,0.16407 -4.14215,0 -7.5,-3.02208 -7.5,-6.75 0,-3.72792 3.35785,-6.75 7.5,-6.75 z m 0,20.25 c 2.07107,0 3.75,1.67894 3.75,3.75 0,1.58695 -0.99802,2.92119 -2.39063,3.46875 3.89063,1.78125 3.89063,4.78125 3.89063,6.28125 0,0 0,0.75 -0.75,0.75 l -9,0 c -0.75,0 -0.75,-0.75 -0.75,-0.75 0,-1.5 0,-4.5 3.89062,-6.28125 -1.39261,-0.54756 -2.39062,-1.8818 -2.39062,-3.46875 0,-2.07106 1.67893,-3.75 3.75,-3.75 z"
         style="fill:#000000;fill-opacity:1;stroke:none;display:inline;enable-background:new;opacity:0.2"
         sodipodi:nodetypes="sscsssssssscsssscccsccsssssccssccss" />
      <path
         sodipodi:nodetypes="sscsssssssscssssscssccsssssccssccss"
         style="fill:#000000;fill-opacity:1;stroke:none;display:inline;enable-background:new;opacity:0.2"
         d="m 432,59 c -2.77,0 -5,2.23 -5,5 l 0,3 -2.66667,0 C 424.14867,67 424,67.148666 424,67.333333 l 0,11.333337 C 424,78.85133 424.14867,79 424.33333,79 l 15.33334,0 C 439.85133,79 440,78.85133 440,78.66667 l 0,-11.333337 C 440,67.148666 439.85133,67 439.66667,67 L 437,67 l 0,-3 c 0,-2.77 -2.23,-5 -5,-5 z m 0,2 c 1.84095,0 3.33333,1.343146 3.33333,3 0,0.517767 -0.15217,1.006384 -0.36458,1.427083 -0.21241,0.4207 -0.42885,0.827339 -0.71875,1.21875 -0.42758,0.56868 -1.22397,1.388377 -1.71875,1.760417 -0.19571,0.147163 -0.36552,0.260417 -0.38542,0.260417 -0.0199,0 0.0653,-0.22074 0.19792,-0.489584 0.16566,-0.335805 0.34672,-0.978512 0.38542,-1.25 C 432.49307,66.974817 432.25211,67 432,67 c -1.84095,0 -3.33333,-1.343146 -3.33333,-3 0,-1.656854 1.49238,-3 3.33333,-3 z m 0,9 c 0.92047,0 1.66667,0.746192 1.66667,1.666667 0,0.705313 -0.44357,1.298308 -1.0625,1.541663 1.72916,0.79167 1.72916,2.125 1.72916,2.79167 0,0 0,0.33333 -0.33333,0.33333 l -4,0 c -0.33333,0 -0.33333,-0.33333 -0.33333,-0.33333 0,-0.66667 0,-2 1.72916,-2.79167 -0.61893,-0.243355 -1.0625,-0.83635 -1.0625,-1.541663 C 430.33333,70.746192 431.07953,70 432,70 z"
         id="path3933"
         inkscape:connector-curvature="0" />
      <path
         inkscape:connector-curvature="0"
         id="path3935"
         d="m 424,144 c -1.385,0 -2.5,1.115 -2.5,2.5 l 0,1.5 -1.33334,0 C 420.07436,148 420,148.0743 420,148.16667 l 0,5.66666 c 0,0.0923 0.0743,0.16667 0.16666,0.16667 l 7.66668,0 C 427.92564,154 428,153.9257 428,153.83333 l 0,-5.66666 C 428,148.07437 427.9257,148 427.83334,148 l -1.33334,0 0,-1.5 c 0,-1.385 -1.115,-2.5 -2.5,-2.5 z m 0,1 c 0.92047,0 1.66666,0.67157 1.66666,1.5 0,0.25888 -0.0761,0.50319 -0.18229,0.71354 -0.1062,0.21035 -0.21442,0.41367 -0.35937,0.60938 -0.21379,0.28434 -0.61199,0.69419 -0.85938,0.8802 -0.0978,0.0736 -0.18276,0.13021 -0.19271,0.13021 -0.01,0 0.0327,-0.11037 0.099,-0.24479 0.0828,-0.1679 0.17336,-0.48925 0.19272,-0.625 -0.1181,0.0239 -0.23858,0.0365 -0.36463,0.0365 -0.92048,0 -1.66666,-0.67157 -1.66666,-1.5 0,-0.82843 0.74618,-1.5 1.66666,-1.5 z m 0,4.5 c 0.46023,0 0.83334,0.3731 0.83334,0.83333 0,0.35266 -0.22179,0.64916 -0.53125,0.77083 0.86457,0.39584 0.86457,1.0625 0.86457,1.39584 0,0 0,0.16666 -0.16666,0.16666 l -2,0 c -0.16666,0 -0.16666,-0.16666 -0.16666,-0.16666 0,-0.33334 0,-1 0.86457,-1.39584 -0.30946,-0.12167 -0.53125,-0.41817 -0.53125,-0.77083 0,-0.46023 0.3731,-0.83333 0.83334,-0.83333 z"
         style="fill:#000000;fill-opacity:1;stroke:none;display:inline;enable-background:new;opacity:0.2"
         sodipodi:nodetypes="sscsssssssscssssscssccsssssccssccss" />
      <path
         inkscape:connector-curvature="0"
         id="path3937"
         d="m 428,105.50005 c -2.0775,0 -3.5,1.14125 -3.5,3.21875 l 0,2.28125 -2.25,0.0312 c -0.13849,0.002 -0.25,0.11151 -0.25,0.25 l 0,8.46875 c 0,0.13851 0.1115,0.25 0.25,0.25 l 11.5,0 c 0.1385,0 0.25,-0.11149 0.25,-0.25 l 0,-8.46875 c 0,-0.13849 -0.11152,-0.24784 -0.25,-0.25 l -2.25,-0.0312 0,-2.28125 c 0,-2.0775 -1.4225,-3.21875 -3.5,-3.21875 z m 0,1 c 1.38071,0 2.5,1.00737 2.5,2.25 0,0.38832 -0.11413,0.75478 -0.27344,1.07032 -0.1593,0.31551 -0.32163,0.62049 -0.53906,0.91405 -0.32069,0.42652 -0.91798,1.04128 -1.28907,1.32032 -0.14678,0.11037 -0.27413,0.19531 -0.28906,0.19531 -0.0149,0 0.0489,-0.16555 0.14844,-0.36718 0.12425,-0.25186 0.26004,-0.73388 0.28906,-0.9375 -0.17706,0.0358 -0.35779,0.0547 -0.54687,0.0547 -1.38072,0 -2.5,-1.00737 -2.5,-2.25 0,-1.24264 1.11928,-2.25 2.5,-2.25 z m 0,6.75 c 0.69035,0 1.25,0.55964 1.25,1.25 0,0.52898 -0.33268,0.97373 -0.79688,1.15625 1.29688,0.59375 1.29688,1.59375 1.29688,2.09375 0,0 0,0.25 -0.25,0.25 l -3,0 c -0.25,0 -0.25,-0.25 -0.25,-0.25 0,-0.5 0,-1.5 1.29687,-2.09375 -0.4642,-0.18252 -0.79687,-0.62727 -0.79687,-1.15625 0,-0.69036 0.55964,-1.25 1.25,-1.25 z"
         style="fill:#000000;fill-opacity:1;stroke:none;display:inline;enable-background:new;opacity:0.2"
         sodipodi:nodetypes="sscsssssssscsssscccsccsssssccssccss" />
      <path
         style="fill:#ffffff;fill-opacity:1;stroke:none;display:inline;enable-background:new"
         d="m 336,46 c -8.31,0 -15,6.69 -15,15 l 0,8 -8,0 c -0.554,0 -1,0.446 -1,1 l 0,35 c 0,0.554 0.446,1 1,1 l 46,0 c 0.554,0 1,-0.446 1,-1 l 0,-35 c 0,-0.554 -0.446,-1 -1,-1 l -8,0 0,-8 c 0,-8.31 -6.69,-15 -15,-15 z m 0,6 c 5.52285,0 10,4.029437 10,9 0,1.553301 -0.45653,3.019151 -1.09375,4.28125 -0.63722,1.262098 -1.28655,2.482016 -2.15625,3.65625 -1.28275,1.70604 -3.6719,4.16513 -5.15625,5.28125 C 337.00661,74.66024 336.4972,75 336.4375,75 c -0.0598,0 0.19586,-0.66222 0.59375,-1.46875 0.49698,-1.007417 1.04016,-2.935536 1.15625,-3.75 C 337.47922,69.92445 336.75632,70 336,70 c -5.52285,0 -10,-4.029437 -10,-9 0,-4.970563 4.47715,-9 10,-9 z m 0,27 c 2.76142,0 5,2.238576 5,5 0,2.115941 -1.33069,3.894926 -3.1875,4.625 C 343,91 343,95 343,97 c 0,0 0,1 -1,1 l -12,0 c -1,0 -1,-1 -1,-1 0,-2 0,-6 5.1875,-8.375 C 332.33069,87.894926 331,86.115941 331,84 c 0,-2.761424 2.23858,-5 5,-5 z"
         id="rect3867"
         inkscape:connector-curvature="0" />
      <path
         inkscape:connector-curvature="0"
         id="path3891"
         d="m 312,229 c -4.155,0 -7,2.2825 -7,6.4375 l 0,4.5625 -4.5,0.0625 c -0.27697,0.004 -0.5,0.223 -0.5,0.5 l 0,16.9375 c 0,0.277 0.223,0.5 0.5,0.5 l 23,0 c 0.277,0 0.5,-0.223 0.5,-0.5 l 0,-16.9375 c 0,-0.277 -0.22303,-0.49567 -0.5,-0.5 L 319,240 l 0,-4.5625 C 319,231.2825 316.155,229 312,229 z m 0,2 c 2.76143,0 5,2.01472 5,4.5 0,0.77665 -0.22826,1.50957 -0.54688,2.14062 -0.31861,0.63105 -0.64327,1.24101 -1.07812,1.82813 -0.64138,0.85302 -1.83595,2.08256 -2.57813,2.64062 -0.29357,0.22075 -0.54827,0.39063 -0.57812,0.39063 -0.0299,0 0.0979,-0.33111 0.29687,-0.73438 0.24849,-0.5037 0.52008,-1.46776 0.57813,-1.875 C 312.73961,239.96222 312.37816,240 312,240 c -2.76143,0 -5,-2.01472 -5,-4.5 0,-2.48528 2.23857,-4.5 5,-4.5 z m 0,13.5 c 1.38071,0 2.5,1.11929 2.5,2.5 0,1.05797 -0.66535,1.94746 -1.59375,2.3125 C 315.5,250.5 315.5,252.5 315.5,253.5 c 0,0 0,0.5 -0.5,0.5 l -6,0 c -0.5,0 -0.5,-0.5 -0.5,-0.5 0,-1 0,-3 2.59375,-4.1875 C 310.16534,248.94746 309.5,248.05797 309.5,247 c 0,-1.38071 1.11929,-2.5 2.5,-2.5 z"
         style="fill:#ffffff;fill-opacity:1;stroke:none;display:inline;enable-background:new"
         sodipodi:nodetypes="sscsssssssscsssscccsccsssssccssccss" />
      <path
         inkscape:connector-curvature="0"
         id="path3893"
         d="m 144,82 c -20.775,0 -37,15.69467 -37,36.46967 L 107,139 86.5,139.0303 c -1.384998,0.002 -2.5,1.115 -2.5,2.5 L 84,228.5 c 0,1.385 1.115,2.5 2.5,2.5 l 115,0 c 1.385,0 2.5,-1.115 2.5,-2.5 l 0,-86.96967 c 0,-1.385 -1.115,-2.49694 -2.5,-2.5 L 181,139 181,118.46967 C 181,97.69467 164.775,82 144,82 z m 0,14 c 13.80713,0 25,10.07359 25,22.5 0,3.88325 -1.14132,7.54788 -2.73438,10.70312 -1.59305,3.15525 -3.21637,6.20504 -5.39062,9.14063 -3.20688,4.2651 -9.17975,10.41282 -12.89063,13.20312 -1.46785,1.10373 -2.74137,1.95313 -2.89062,1.95313 -0.1495,0 0.48965,-1.65555 1.48437,-3.67188 1.24245,-2.51854 2.60041,-7.33884 2.89063,-9.375 C 147.69805,140.81112 145.8908,141 144,141 130.19287,141 119,130.92641 119,118.5 119,106.07359 130.19287,96 144,96 z m 0,67.5 c 6.90355,0 12.5,5.59644 12.5,12.5 0,5.28985 -3.32673,9.73731 -7.96875,11.5625 C 161.5,193.5 161.5,203.5 161.5,208.5 c 0,0 0,2.5 -2.5,2.5 l -30,0 c -2.5,0 -2.5,-2.5 -2.5,-2.5 0,-5 0,-15 12.96875,-20.9375 C 134.82672,185.73731 131.5,181.28985 131.5,176 c 0,-6.90356 5.59645,-12.5 12.5,-12.5 z"
         style="fill:#ffffff;fill-opacity:1;stroke:none;display:inline;enable-background:new"
         sodipodi:nodetypes="sscsssssssscssssscssscsssssccssccss" />
      <path
         sodipodi:nodetypes="sscsssssssscsssscccsccsssssccssccss"
         style="fill:#ffffff;fill-opacity:1;stroke:none;display:inline;enable-background:new"
         d="m 320,151 c -6.2325,0 -11,3.65859 -11,9.89108 l 0,7.10892 -6.25,0.10892 c -0.41544,0.007 -0.75,0.3345 -0.75,0.75 l 0,24.43397 c 0,0.41551 0.3345,0.75 0.75,0.75 l 34.5,0 c 0.4155,0 0.75,-0.33449 0.75,-0.75 l 0,-24.43397 c 0,-0.4155 -0.33454,-0.74424 -0.75,-0.75 L 331,168 l 0,-7.10892 C 331,154.65858 326.2325,151 320,151 z m 0,3.25005 c 4.14215,0 7.5,3.02208 7.5,6.75 0,1.16497 -0.34239,2.26436 -0.82032,3.21093 -0.47791,0.94658 -0.9649,1.86152 -1.61718,2.74219 -0.96207,1.27953 -2.75393,3.12384 -3.86719,3.96094 -0.44036,0.33112 -0.82241,0.58594 -0.86719,0.58594 -0.0448,0 0.14685,-0.49667 0.44531,-1.10157 0.37273,-0.75555 0.78012,-2.20164 0.86719,-2.8125 -0.5312,0.1074 -1.07338,0.16407 -1.64062,0.16407 -4.14215,0 -7.5,-3.02208 -7.5,-6.75 0,-3.72792 3.35785,-6.75 7.5,-6.75 z m 0,20.25 c 2.07107,0 3.75,1.67894 3.75,3.75 0,1.58695 -0.99802,2.92119 -2.39063,3.46875 3.89063,1.78125 3.89063,4.78125 3.89063,6.28125 0,0 0,0.75 -0.75,0.75 l -9,0 c -0.75,0 -0.75,-0.75 -0.75,-0.75 0,-1.5 0,-4.5 3.89062,-6.28125 -1.39261,-0.54756 -2.39062,-1.8818 -2.39062,-3.46875 0,-2.07106 1.67893,-3.75 3.75,-3.75 z"
         id="path3897"
         inkscape:connector-curvature="0" />
      <path
         inkscape:connector-curvature="0"
         id="path3899"
         d="m 432,58 c -2.77,0 -5,2.23 -5,5 l 0,3 -2.66667,0 C 424.14867,66 424,66.148666 424,66.333333 l 0,11.333337 C 424,77.85133 424.14867,78 424.33333,78 l 15.33334,0 C 439.85133,78 440,77.85133 440,77.66667 l 0,-11.333337 C 440,66.148666 439.85133,66 439.66667,66 L 437,66 l 0,-3 c 0,-2.77 -2.23,-5 -5,-5 z m 0,2 c 1.84095,0 3.33333,1.343146 3.33333,3 0,0.517767 -0.15217,1.006384 -0.36458,1.427083 -0.21241,0.4207 -0.42885,0.827339 -0.71875,1.21875 -0.42758,0.56868 -1.22397,1.388377 -1.71875,1.760417 -0.19571,0.147163 -0.36552,0.260417 -0.38542,0.260417 -0.0199,0 0.0653,-0.22074 0.19792,-0.489584 0.16566,-0.335805 0.34672,-0.978512 0.38542,-1.25 C 432.49307,65.974817 432.25211,66 432,66 c -1.84095,0 -3.33333,-1.343146 -3.33333,-3 0,-1.656854 1.49238,-3 3.33333,-3 z m 0,9 c 0.92047,0 1.66667,0.746192 1.66667,1.666667 0,0.705313 -0.44357,1.298308 -1.0625,1.541663 1.72916,0.79167 1.72916,2.125 1.72916,2.79167 0,0 0,0.33333 -0.33333,0.33333 l -4,0 c -0.33333,0 -0.33333,-0.33333 -0.33333,-0.33333 0,-0.66667 0,-2 1.72916,-2.79167 -0.61893,-0.243355 -1.0625,-0.83635 -1.0625,-1.541663 C 430.33333,69.746192 431.07953,69 432,69 z"
         style="fill:#ffffff;fill-opacity:1;stroke:none;display:inline;enable-background:new"
         sodipodi:nodetypes="sscsssssssscssssscssccsssssccssccss" />
      <path
         sodipodi:nodetypes="sscsssssssscssssscssccsssssccssccss"
         style="fill:#ffffff;fill-opacity:1;stroke:none;display:inline;enable-background:new"
         d="m 424,143 c -1.385,0 -2.5,1.115 -2.5,2.5 l 0,1.5 -1.33334,0 C 420.07436,147 420,147.0743 420,147.16667 l 0,5.66666 c 0,0.0923 0.0743,0.16667 0.16666,0.16667 l 7.66668,0 C 427.92564,153 428,152.9257 428,152.83333 l 0,-5.66666 C 428,147.07437 427.9257,147 427.83334,147 l -1.33334,0 0,-1.5 c 0,-1.385 -1.115,-2.5 -2.5,-2.5 z m 0,1 c 0.92047,0 1.66666,0.67157 1.66666,1.5 0,0.25888 -0.0761,0.50319 -0.18229,0.71354 -0.1062,0.21035 -0.21442,0.41367 -0.35937,0.60938 -0.21379,0.28434 -0.61199,0.69419 -0.85938,0.8802 -0.0978,0.0736 -0.18276,0.13021 -0.19271,0.13021 -0.01,0 0.0327,-0.11037 0.099,-0.24479 0.0828,-0.1679 0.17336,-0.48925 0.19272,-0.625 -0.1181,0.0239 -0.23858,0.0365 -0.36463,0.0365 -0.92048,0 -1.66666,-0.67157 -1.66666,-1.5 0,-0.82843 0.74618,-1.5 1.66666,-1.5 z m 0,4.5 c 0.46023,0 0.83334,0.3731 0.83334,0.83333 0,0.35266 -0.22179,0.64916 -0.53125,0.77083 0.86457,0.39584 0.86457,1.0625 0.86457,1.39584 0,0 0,0.16666 -0.16666,0.16666 l -2,0 c -0.16666,0 -0.16666,-0.16666 -0.16666,-0.16666 0,-0.33334 0,-1 0.86457,-1.39584 -0.30946,-0.12167 -0.53125,-0.41817 -0.53125,-0.77083 0,-0.46023 0.3731,-0.83333 0.83334,-0.83333 z"
         id="path3901"
         inkscape:connector-curvature="0" />
      <path
         sodipodi:nodetypes="sscsssssssscsssscccsccsssssccssccss"
         style="fill:#ffffff;fill-opacity:1;stroke:none;display:inline;enable-background:new"
         d="m 428,104.50005 c -2.0775,0 -3.5,1.14125 -3.5,3.21875 l 0,2.28125 -2.25,0.0312 c -0.13849,0.002 -0.25,0.11151 -0.25,0.25 l 0,8.46875 c 0,0.13851 0.1115,0.25 0.25,0.25 l 11.5,0 c 0.1385,0 0.25,-0.11149 0.25,-0.25 l 0,-8.46875 c 0,-0.13849 -0.11152,-0.24784 -0.25,-0.25 l -2.25,-0.0312 0,-2.28125 c 0,-2.0775 -1.4225,-3.21875 -3.5,-3.21875 z m 0,1 c 1.38071,0 2.5,1.00737 2.5,2.25 0,0.38832 -0.11413,0.75478 -0.27344,1.07032 -0.1593,0.31551 -0.32163,0.62049 -0.53906,0.91405 -0.32069,0.42652 -0.91798,1.04128 -1.28907,1.32032 -0.14678,0.11037 -0.27413,0.19531 -0.28906,0.19531 -0.0149,0 0.0489,-0.16555 0.14844,-0.36718 0.12425,-0.25186 0.26004,-0.73388 0.28906,-0.9375 -0.17706,0.0358 -0.35779,0.0547 -0.54687,0.0547 -1.38072,0 -2.5,-1.00737 -2.5,-2.25 0,-1.24264 1.11928,-2.25 2.5,-2.25 z m 0,6.75 c 0.69035,0 1.25,0.55964 1.25,1.25 0,0.52898 -0.33268,0.97373 -0.79688,1.15625 1.29688,0.59375 1.29688,1.59375 1.29688,2.09375 0,0 0,0.25 -0.25,0.25 l -3,0 c -0.25,0 -0.25,-0.25 -0.25,-0.25 0,-0.5 0,-1.5 1.29687,-2.09375 -0.4642,-0.18252 -0.79687,-0.62727 -0.79687,-1.15625 0,-0.69036 0.55964,-1.25 1.25,-1.25 z"
         id="path3905"
         inkscape:connector-curvature="0" />
    </g>
    <g
       inkscape:groupmode="layer"
       id="layer5"
       inkscape:label="Highlights"
       style="display:inline"
       sodipodi:insensitive="true">
      <path
         style="opacity:0.12999998;color:#bebebe;fill:#ffffff;fill-opacity:1;fill-rule:nonzero;stroke:none;stroke-width:0;marker:none;visibility:visible;display:inline;overflow:visible;enable-background:accumulate"
         d="M 84,47 C 56.836703,47 35,68.836703 35,96 l 0,1 C 35,69.836703 56.836703,48 84,48 l 120,0 c 27.1633,0 49,21.836703 49,49 l 0,-1 C 253,68.836703 231.1633,47 204,47 L 84,47 z"
         id="rect3894"
         inkscape:connector-curvature="0" />
      <path
         style="opacity:0.12999998;color:#bebebe;fill:#ffffff;fill-opacity:1;fill-rule:nonzero;stroke:none;stroke-width:0;marker:none;visibility:visible;display:inline;overflow:visible;enable-background:accumulate"
         d="m 419,141 c -1.1253,0 -2,0.8747 -2,2 l 0,1 c 0,-1.1253 0.8747,-2 2,-2 l 10,0 c 1.1253,0 2,0.8747 2,2 l 0,-1 c 0,-1.1253 -0.8747,-2 -2,-2 l -10,0 z"
         id="rect3896"
         inkscape:connector-curvature="0" />
      <path
         style="opacity:0.12999998;color:#bebebe;fill:#ffffff;fill-opacity:1;fill-rule:nonzero;stroke:none;stroke-width:0;marker:none;visibility:visible;display:inline;overflow:visible;enable-background:accumulate"
         d="m 422,102 c -2.2333,0 -4,1.7667 -4,4 l 0,1 c 0,-2.2333 1.7667,-4 4,-4 l 12,0 c 2.2333,0 4,1.7667 4,4 l 0,-1 c 0,-2.2333 -1.7667,-4 -4,-4 l -12,0 z"
         id="rect3898"
         inkscape:connector-curvature="0" />
      <path
         style="opacity:0.12999998;color:#bebebe;fill:#ffffff;fill-opacity:1;fill-rule:nonzero;stroke:none;stroke-width:0;marker:none;visibility:visible;display:inline;overflow:visible;enable-background:accumulate"
         d="m 424,54 c -3.3413,0 -6,2.658703 -6,6 l 0,1 c 0,-3.341297 2.6587,-6 6,-6 l 16,0 c 3.3413,0 6,2.658703 6,6 l 0,-1 c 0,-3.341297 -2.6587,-6 -6,-6 l -16,0 z"
         id="rect3900"
         inkscape:connector-curvature="0" />
      <path
         style="opacity:0.12999998;color:#bebebe;fill:#ffffff;fill-opacity:1;fill-rule:nonzero;stroke:none;stroke-width:0;marker:none;visibility:visible;display:inline;overflow:visible;enable-background:accumulate"
         d="m 300,224 c -4.4493,0 -8,3.5507 -8,8 l 0,1 c 0,-4.4493 3.5507,-8 8,-8 l 24,0 c 4.4493,0 8,3.5507 8,8 l 0,-1 c 0,-4.4493 -3.5507,-8 -8,-8 l -24,0 z"
         id="rect3902"
         inkscape:connector-curvature="0" />
      <path
         style="opacity:0.12999998;color:#bebebe;fill:#ffffff;fill-opacity:1;fill-rule:nonzero;stroke:none;stroke-width:0;marker:none;visibility:visible;display:inline;overflow:visible;enable-background:accumulate"
         d="m 310,33 c -9.4353,0 -17,7.564703 -17,17 l 0,1 c 0,-9.435297 7.5647,-17 17,-17 l 52,0 c 9.4353,0 17,7.564703 17,17 l 0,-1 c 0,-9.435297 -7.5647,-17 -17,-17 l -52,0 z"
         id="rect3904"
         inkscape:connector-curvature="0" />
      <path
         style="opacity:0.12999998;color:#bebebe;fill:#ffffff;fill-opacity:1;fill-rule:nonzero;stroke:none;stroke-width:0;marker:none;visibility:visible;display:inline;overflow:visible;enable-background:accumulate"
         d="m 302.5,143 c -6.3883,0 -11.5,5.1117 -11.5,11.5 l 0,1 c 0,-6.3883 5.1117,-11.5 11.5,-11.5 l 35,0 c 6.3883,0 11.5,5.1117 11.5,11.5 l 0,-1 c 0,-6.3883 -5.1117,-11.5 -11.5,-11.5 l -35,0 z"
         id="rect3906"
         inkscape:connector-curvature="0" />
      <path
         id="path4085"
         d="m 204,266 c 27.1633,0 49,-21.8367 49,-49 l 0,-1 c 0,27.1633 -21.8367,49 -49,49 L 84,265 C 56.8367,265 35,243.1633 35,216 l 0,1 c 0,27.1633 21.8367,49 49,49 l 120,0 z"
         style="opacity:0.5;color:#bebebe;fill:#000000;fill-opacity:1;fill-rule:nonzero;stroke:none;stroke-width:0;marker:none;visibility:visible;display:inline;overflow:visible;enable-background:accumulate"
         inkscape:connector-curvature="0" />
      <path
         id="path4087"
         d="m 429,156 c 1.1253,0 2,-0.8747 2,-2 l 0,-1 c 0,1.1253 -0.8747,2 -2,2 l -10,0 c -1.1253,0 -2,-0.8747 -2,-2 l 0,1 c 0,1.1253 0.8747,2 2,2 l 10,0 z"
         style="opacity:0.3;color:#bebebe;fill:#000000;fill-opacity:1;fill-rule:nonzero;stroke:none;stroke-width:0;marker:none;visibility:visible;display:inline;overflow:visible;enable-background:accumulate"
         inkscape:connector-curvature="0" />
      <path
         id="path4089"
         d="m 434,123 c 2.2333,0 4,-1.7667 4,-4 l 0,-1 c 0,2.2333 -1.7667,4 -4,4 l -12,0 c -2.2333,0 -4,-1.7667 -4,-4 l 0,1 c 0,2.2333 1.7667,4 4,4 l 12,0 z"
         style="opacity:0.3;color:#bebebe;fill:#000000;fill-opacity:1;fill-rule:nonzero;stroke:none;stroke-width:0;marker:none;visibility:visible;display:inline;overflow:visible;enable-background:accumulate"
         inkscape:connector-curvature="0" />
      <path
         id="path4091"
         d="m 440,83 c 3.3413,0 6,-2.6587 6,-6 l 0,-1 c 0,3.3413 -2.6587,6 -6,6 l -16,0 c -3.3413,0 -6,-2.6587 -6,-6 l 0,1 c 0,3.3413 2.6587,6 6,6 l 16,0 z"
         style="opacity:0.5;color:#bebebe;fill:#000000;fill-opacity:1;fill-rule:nonzero;stroke:none;stroke-width:0;marker:none;visibility:visible;display:inline;overflow:visible;enable-background:accumulate"
         inkscape:connector-curvature="0" />
      <path
         id="path4093"
         d="m 324,265 c 4.4493,0 8,-3.5507 8,-8 l 0,-1 c 0,4.4493 -3.5507,8 -8,8 l -24,0 c -4.4493,0 -8,-3.5507 -8,-8 l 0,1 c 0,4.4493 3.5507,8 8,8 l 24,0 z"
         style="opacity:0.5;color:#bebebe;fill:#000000;fill-opacity:1;fill-rule:nonzero;stroke:none;stroke-width:0;marker:none;visibility:visible;display:inline;overflow:visible;enable-background:accumulate"
         inkscape:connector-curvature="0" />
      <path
         id="path4095"
         d="m 362,120 c 9.4353,0 17,-7.5647 17,-17 l 0,-1 c 0,9.4353 -7.5647,17 -17,17 l -52,0 c -9.4353,0 -17,-7.5647 -17,-17 l 0,1 c 0,9.4353 7.5647,17 17,17 l 52,0 z"
         style="opacity:0.5;color:#bebebe;fill:#000000;fill-opacity:1;fill-rule:nonzero;stroke:none;stroke-width:0;marker:none;visibility:visible;display:inline;overflow:visible;enable-background:accumulate"
         inkscape:connector-curvature="0" />
      <path
         id="path4097"
         d="m 337.5,202 c 6.3883,0 11.5,-5.1117 11.5,-11.5 l 0,-1 c 0,6.3883 -5.1117,11.5 -11.5,11.5 l -35,0 c -6.3883,0 -11.5,-5.1117 -11.5,-11.5 l 0,1 c 0,6.3883 5.1117,11.5 11.5,11.5 l 35,0 z"
         style="opacity:0.5;color:#bebebe;fill:#000000;fill-opacity:1;fill-rule:nonzero;stroke:none;stroke-width:0;marker:none;visibility:visible;display:inline;overflow:visible;enable-background:accumulate"
         inkscape:connector-curvature="0" />
      <path
         inkscape:connector-curvature="0"
         id="path4280"
         d="M 84,265 C 56.836703,265 35,243.1633 35,216 l 0,-1 c 0,27.1633 21.836703,49 49,49 l 120,0 c 27.1633,0 49,-21.8367 49,-49 l 0,1 c 0,27.1633 -21.8367,49 -49,49 l -120,0 z"
         style="opacity:0.1;color:#bebebe;fill:#ffffff;fill-opacity:1;fill-rule:nonzero;stroke:none;stroke-width:0;marker:none;visibility:visible;display:inline;overflow:visible;enable-background:accumulate" />
      <path
         style="opacity:0.1;color:#bebebe;fill:#ffffff;fill-opacity:1;fill-rule:nonzero;stroke:none;stroke-width:0;marker:none;visibility:visible;display:inline;overflow:visible;enable-background:accumulate"
         d="m 300,264 c -4.4493,0 -8,-3.5507 -8,-8 l 0,-1 c 0,4.4493 3.5507,8 8,8 l 24,0 c 4.4493,0 8,-3.5507 8,-8 l 0,1 c 0,4.4493 -3.5507,8 -8,8 l -24,0 z"
         id="path4294"
         inkscape:connector-curvature="0" />
      <path
         style="opacity:0.1;color:#bebebe;fill:#ffffff;fill-opacity:1;fill-rule:nonzero;stroke:none;stroke-width:0;marker:none;visibility:visible;display:inline;overflow:visible;enable-background:accumulate"
         d="m 302.5,201 c -6.3883,0 -11.5,-5.1117 -11.5,-11.5 l 0,-1 c 0,6.3883 5.1117,11.5 11.5,11.5 l 35,0 c 6.3883,0 11.5,-5.1117 11.5,-11.5 l 0,1 c 0,6.3883 -5.1117,11.5 -11.5,11.5 l -35,0 z"
         id="path4296"
         inkscape:connector-curvature="0" />
      <path
         style="opacity:0.1;color:#bebebe;fill:#ffffff;fill-opacity:1;fill-rule:nonzero;stroke:none;stroke-width:0;marker:none;visibility:visible;display:inline;overflow:visible;enable-background:accumulate"
         d="m 310,119 c -9.4353,0 -17,-7.5647 -17,-17 l 0,-1 c 0,9.4353 7.5647,17 17,17 l 52,0 c 9.4353,0 17,-7.5647 17,-17 l 0,1 c 0,9.4353 -7.5647,17 -17,17 l -52,0 z"
         id="path4298"
         inkscape:connector-curvature="0" />
      <path
         style="opacity:0.1;color:#bebebe;fill:#ffffff;fill-opacity:1;fill-rule:nonzero;stroke:none;stroke-width:0;marker:none;visibility:visible;display:inline;overflow:visible;enable-background:accumulate"
         d="m 424,82 c -3.3413,0 -6,-2.658703 -6,-6 l 0,-1 c 0,3.341297 2.6587,6 6,6 l 16,0 c 3.3413,0 6,-2.658703 6,-6 l 0,1 c 0,3.341297 -2.6587,6 -6,6 l -16,0 z"
         id="path4300"
         inkscape:connector-curvature="0" />
      <path
         style="opacity:0.1;color:#bebebe;fill:#ffffff;fill-opacity:1;fill-rule:nonzero;stroke:none;stroke-width:0;marker:none;visibility:visible;display:inline;overflow:visible;enable-background:accumulate"
         d="m 422,122 c -2.2333,0 -4,-1.7667 -4,-4 l 0,-1 c 0,2.2333 1.7667,4 4,4 l 12,0 c 2.2333,0 4,-1.7667 4,-4 l 0,1 c 0,2.2333 -1.7667,4 -4,4 l -12,0 z"
         id="path4302"
         inkscape:connector-curvature="0" />
      <path
         style="opacity:0.1;color:#bebebe;fill:#ffffff;fill-opacity:1;fill-rule:nonzero;stroke:none;stroke-width:0;marker:none;visibility:visible;display:inline;overflow:visible;enable-background:accumulate"
         d="m 419,154.5 c -1.1253,0 -2,-0.8747 -2,-2 l 0,-1 c 0,1.1253 0.8747,2 2,2 l 10,0 c 1.1253,0 2,-0.8747 2,-2 l 0,1 c 0,1.1253 -0.8747,2 -2,2 l -10,0 z"
         id="path4304"
         inkscape:connector-curvature="0" />
    </g>
    <g
       inkscape:groupmode="layer"
       id="layer3"
       inkscape:label="Border"
       style="display:inline"
       sodipodi:insensitive="true">
      <path
         style="opacity:0.41000001;color:#bebebe;fill:#000000;fill-opacity:1;fill-rule:nonzero;stroke:none;stroke-width:0;marker:none;visibility:visible;display:inline;overflow:visible;enable-background:accumulate"
         d="m 422,101 c -2.77,0 -5,2.23 -5,5 l 0,12 c 0,2.77 2.23,5 5,5 l 12,0 c 2.77,0 5,-2.23 5,-5 l 0,-12 c 0,-2.77 -2.23,-5 -5,-5 l -12,0 z m 0,1 12,0 c 2.2333,0 4,1.7667 4,4 l 0,12 c 0,2.2333 -1.7667,4 -4,4 l -12,0 c -2.2333,0 -4,-1.7667 -4,-4 l 0,-12 c 0,-2.2333 1.7667,-4 4,-4 z"
         id="rect4099"
         inkscape:connector-curvature="0" />
      <path
         style="opacity:0.41000001;color:#bebebe;fill:#000000;fill-opacity:1;fill-rule:nonzero;stroke:none;stroke-width:0;marker:none;visibility:visible;display:inline;overflow:visible;enable-background:accumulate"
         d="m 424,53 c -3.878,0 -7,3.122 -7,7 l 0,16 c 0,3.878 3.122,7 7,7 l 16,0 c 3.878,0 7,-3.122 7,-7 l 0,-16 c 0,-3.878 -3.122,-7 -7,-7 l -16,0 z m 0,1 16,0 c 3.3413,0 6,2.658703 6,6 l 0,16 c 0,3.341297 -2.6587,6 -6,6 l -16,0 c -3.3413,0 -6,-2.658703 -6,-6 l 0,-16 c 0,-3.341297 2.6587,-6 6,-6 z"
         id="rect4151"
         inkscape:connector-curvature="0" />
      <path
         style="opacity:0.41000001;color:#bebebe;fill:#000000;fill-opacity:1;fill-rule:nonzero;stroke:none;stroke-width:0;marker:none;visibility:visible;display:inline;overflow:visible;enable-background:accumulate"
         d="m 419,140 c -1.662,0 -3,1.338 -3,3 l 0,10 c 0,1.662 1.338,3 3,3 l 10,0 c 1.662,0 3,-1.338 3,-3 l 0,-10 c 0,-1.662 -1.338,-3 -3,-3 l -10,0 z m 0,1 10,0 c 1.1253,0 2,0.8747 2,2 l 0,10 c 0,1.1253 -0.8747,2 -2,2 l -10,0 c -1.1253,0 -2,-0.8747 -2,-2 l 0,-10 c 0,-1.1253 0.8747,-2 2,-2 z"
         id="rect4095"
         inkscape:connector-curvature="0" />
      <path
         style="opacity:0.41000001;color:#bebebe;fill:#000000;fill-opacity:1;fill-rule:nonzero;stroke:none;stroke-width:0;marker:none;visibility:visible;display:inline;overflow:visible;enable-background:accumulate"
         d="m 300,223 c -4.986,0 -9,4.014 -9,9 l 0,24 c 0,4.986 4.014,9 9,9 l 24,0 c 4.986,0 9,-4.014 9,-9 l 0,-24 c 0,-4.986 -4.014,-9 -9,-9 l -24,0 z m 0,1 24,0 c 4.4493,0 8,3.5507 8,8 l 0,24 c 0,4.4493 -3.5507,8 -8,8 l -24,0 c -4.4493,0 -8,-3.5507 -8,-8 l 0,-24 c 0,-4.4493 3.5507,-8 8,-8 z"
         id="rect4783"
         inkscape:connector-curvature="0" />
      <path
         style="opacity:0.41000001;color:#bebebe;fill:#000000;fill-opacity:1;fill-rule:nonzero;stroke:none;stroke-width:0;marker:none;visibility:visible;display:inline;overflow:visible;enable-background:accumulate"
         d="m 302.5,142 c -6.925,0 -12.5,5.575 -12.5,12.5 l 0,35 c 0,6.925 5.575,12.5 12.5,12.5 l 35,0 c 6.925,0 12.5,-5.575 12.5,-12.5 l 0,-35 c 0,-6.925 -5.575,-12.5 -12.5,-12.5 l -35,0 z m 0,1 35,0 c 6.3883,0 11.5,5.1117 11.5,11.5 l 0,35 c 0,6.3883 -5.1117,11.5 -11.5,11.5 l -35,0 c -6.3883,0 -11.5,-5.1117 -11.5,-11.5 l 0,-35 c 0,-6.3883 5.1117,-11.5 11.5,-11.5 z"
         id="rect4515"
         inkscape:connector-curvature="0" />
      <path
         style="opacity:0.41000001;color:#bebebe;fill:#000000;fill-opacity:1;fill-rule:nonzero;stroke:none;stroke-width:0;marker:none;visibility:visible;display:inline;overflow:visible;enable-background:accumulate"
         d="m 310,32 c -9.972,0 -18,8.028 -18,18 l 0,52 c 0,9.972 8.028,18 18,18 l 52,0 c 9.972,0 18,-8.028 18,-18 l 0,-52 c 0,-9.972 -8.028,-18 -18,-18 l -52,0 z m 0,1 52,0 c 9.4353,0 17,7.564703 17,17 l 0,52 c 0,9.4353 -7.5647,17 -17,17 l -52,0 c -9.4353,0 -17,-7.5647 -17,-17 l 0,-52 c 0,-9.435297 7.5647,-17 17,-17 z"
         id="rect4511"
         inkscape:connector-curvature="0" />
      <path
         style="opacity:0.41000001;color:#bebebe;fill:#000000;fill-opacity:1;fill-rule:nonzero;stroke:none;stroke-width:0;marker:none;visibility:visible;display:inline;overflow:visible;enable-background:accumulate"
         d="M 84,46 C 56.3,46 34,68.3 34,96 l 0,120 c 0,27.7 22.3,50 50,50 l 120,0 c 27.7,0 50,-22.3 50,-50 L 254,96 C 254,68.3 231.7,46 204,46 L 84,46 z m 0,1 120,0 c 27.1633,0 49,21.836703 49,49 l 0,120 c 0,27.1633 -21.8367,49 -49,49 L 84,265 C 56.836703,265 35,243.1633 35,216 L 35,96 C 35,68.836703 56.836703,47 84,47 z"
         id="rect4040"
         inkscape:connector-curvature="0" />
    </g>
  </g>
</svg>
