<?xml version="1.0" encoding="UTF-8" standalone="no"?>
<!-- Created with Inkscape (http://www.inkscape.org/) -->

<svg
   xmlns:dc="http://purl.org/dc/elements/1.1/"
   xmlns:cc="http://creativecommons.org/ns#"
   xmlns:rdf="http://www.w3.org/1999/02/22-rdf-syntax-ns#"
   xmlns:svg="http://www.w3.org/2000/svg"
   xmlns="http://www.w3.org/2000/svg"
   xmlns:xlink="http://www.w3.org/1999/xlink"
   xmlns:sodipodi="http://sodipodi.sourceforge.net/DTD/sodipodi-0.dtd"
   xmlns:inkscape="http://www.inkscape.org/namespaces/inkscape"
   inkscape:export-ydpi="90.000000"
   inkscape:export-xdpi="90.000000"
   width="480"
   height="300"
   id="svg11300"
   sodipodi:version="0.32"
   inkscape:version="0.48.4 r9939"
   sodipodi:docname="vocal.svg"
   inkscape:output_extension="org.inkscape.output.svg.inkscape"
   version="1.0"
   style="display:inline;enable-background:new"
   inkscape:export-filename="/home/sam/moka2-template.png">
  <sodipodi:namedview
     stroke="#ef2929"
     fill="#f57900"
     id="base"
     pagecolor="#ffffff"
     bordercolor="#666666"
     borderopacity="0.25490196"
     inkscape:pageopacity="0"
     inkscape:pageshadow="2"
     inkscape:zoom="1"
     inkscape:cx="441.59995"
     inkscape:cy="163.90635"
     inkscape:current-layer="layer7"
     showgrid="false"
     inkscape:grid-bbox="true"
     inkscape:document-units="px"
     inkscape:showpageshadow="false"
     inkscape:window-width="1364"
     inkscape:window-height="701"
     inkscape:window-x="0"
     inkscape:window-y="27"
     width="400px"
     height="300px"
     inkscape:snap-nodes="true"
     inkscape:snap-bbox="true"
     gridtolerance="10000"
     inkscape:object-nodes="true"
     inkscape:snap-grids="true"
     showguides="true"
     inkscape:guide-bbox="true"
     inkscape:window-maximized="1"
     inkscape:bbox-nodes="true"
     inkscape:bbox-paths="true"
     inkscape:snap-bbox-edge-midpoints="true"
     inkscape:snap-bbox-midpoints="true">
    <inkscape:grid
       spacingy="1px"
       spacingx="1px"
       id="grid5883"
       type="xygrid"
       enabled="true"
       visible="true"
       empspacing="4"
       snapvisiblegridlinesonly="true"
       dotted="false"
       color="#000000"
       opacity="0.1254902"
       empcolor="#203ef3"
       empopacity="0.36470588" />
    <inkscape:grid
       type="xygrid"
       id="grid11592"
       empspacing="8"
       visible="true"
       enabled="false"
       spacingx="0.5px"
       spacingy="0.5px"
       color="#ff0000"
       opacity="0.1254902"
       empcolor="#ff0000"
       empopacity="0.25098039"
       snapvisiblegridlinesonly="true"
       dotted="true" />
  </sodipodi:namedview>
  <defs
     id="defs3">
    <linearGradient
       id="outerBackgroundGradient">
      <stop
         style="stop-color:#a33fab;stop-opacity:1"
         offset="0"
         id="stop3864-8-6" />
      <stop
         style="stop-color:#fc93dc;stop-opacity:1"
         offset="1"
         id="stop3866-9-1" />
    </linearGradient>
    <linearGradient
       inkscape:collect="always"
       xlink:href="#outerBackgroundGradient"
       id="linearGradient4097"
       gradientUnits="userSpaceOnUse"
       x1="264"
       y1="280.00003"
       x2="264"
       y2="40.00005"
       gradientTransform="matrix(0.06666667,0,0,0.06666667,414.4,137.33333)" />
    <linearGradient
       inkscape:collect="always"
       xlink:href="#outerBackgroundGradient"
       id="linearGradient4101"
       gradientUnits="userSpaceOnUse"
       gradientTransform="matrix(0.0875,0,0,0.0875,414.9,97.5)"
       x1="286.85715"
       y1="302.85715"
       x2="286.85715"
       y2="28.571428" />
    <linearGradient
       inkscape:collect="always"
       xlink:href="#outerBackgroundGradient"
       id="linearGradient4153"
       gradientUnits="userSpaceOnUse"
       gradientTransform="matrix(0.11931818,0,0,0.11931818,414.13636,48.22727)"
       x1="283.80957"
       y1="299.80954"
       x2="283.80957"
       y2="31.61907" />
    <linearGradient
       inkscape:collect="always"
       xlink:href="#outerBackgroundGradient"
       id="linearGradient4869"
       gradientUnits="userSpaceOnUse"
       gradientTransform="matrix(0.175,0,0,-0.175,286.79999,-215.99997)"
       x1="281.14291"
       y1="297.14304"
       x2="281.14291"
       y2="22.857315" />
    <clipPath
       clipPathUnits="userSpaceOnUse"
       id="clipPath4891">
      <rect
         ry="9"
         y="223"
         x="307"
         height="42"
         width="42"
         id="rect4893"
         style="color:#bebebe;fill:url(#linearGradient4895);fill-opacity:1;fill-rule:nonzero;stroke:none;stroke-width:0;marker:none;visibility:visible;display:inline;overflow:visible;enable-background:accumulate"
         transform="matrix(0,1,-1,0,0,0)" />
    </clipPath>
    <linearGradient
       inkscape:collect="always"
       xlink:href="#outerBackgroundGradient"
       id="linearGradient4895"
       gradientUnits="userSpaceOnUse"
       gradientTransform="matrix(0.175,0,0,0.175,302.79999,215.99997)"
       x1="144.00006"
       y1="280.00018"
       x2="144.00006"
       y2="40.000172" />
    <clipPath
       clipPathUnits="userSpaceOnUse"
       id="clipPath4044">
      <rect
         ry="4"
         y="85"
         x="433"
         height="22"
         width="22"
         id="rect4046"
         style="color:#bebebe;fill:url(#linearGradient4048);fill-opacity:1;fill-rule:nonzero;stroke:none;stroke-width:0;marker:none;visibility:visible;display:inline;overflow:visible;enable-background:accumulate" />
    </clipPath>
    <linearGradient
       inkscape:collect="always"
       xlink:href="#outerBackgroundGradient"
       id="linearGradient4048"
       gradientUnits="userSpaceOnUse"
       gradientTransform="matrix(0.0875,0,0,0.0875,430.9,81.499996)"
       x1="149.71428"
       y1="291.42862"
       x2="149.71428"
       y2="40.000046" />
    <clipPath
       clipPathUnits="userSpaceOnUse"
       id="clipPath4089">
      <rect
         style="color:#bebebe;fill:url(#linearGradient4093);fill-opacity:1;fill-rule:nonzero;stroke:none;stroke-width:0;marker:none;visibility:visible;display:inline;overflow:visible;enable-background:accumulate"
         id="rect4091"
         width="30"
         height="30"
         x="433"
         y="37"
         ry="6" />
    </clipPath>
    <linearGradient
       inkscape:collect="always"
       xlink:href="#outerBackgroundGradient"
       id="linearGradient4093"
       gradientUnits="userSpaceOnUse"
       gradientTransform="matrix(0.11931818,0,0,0.11931818,430.13636,32.227267)"
       x1="149.71432"
       y1="291.42862"
       x2="149.71432"
       y2="40.00005" />
    <clipPath
       clipPathUnits="userSpaceOnUse"
       id="clipPath3855">
      <rect
         style="color:#bebebe;fill:url(#linearGradient3859);fill-opacity:1;fill-rule:nonzero;stroke:none;stroke-width:0;marker:none;visibility:visible;display:inline;overflow:visible;enable-background:accumulate"
         id="rect3857"
         width="16"
         height="16"
         x="304"
         y="212"
         ry="3"
         transform="matrix(0,1,-1,0,0,0)" />
    </clipPath>
    <linearGradient
       inkscape:collect="always"
       xlink:href="#outerBackgroundGradient"
       id="linearGradient3859"
       gradientUnits="userSpaceOnUse"
       gradientTransform="matrix(0.06666667,0,0,0.06666667,302.4,209.33333)"
       x1="144"
       y1="280.00003"
       x2="144"
       y2="40.00005" />
    <clipPath
       clipPathUnits="userSpaceOnUse"
       id="clipPath3862">
      <rect
         ry="50"
         y="46"
         x="34"
         height="220"
         width="220"
         id="rect3864"
         style="color:#bebebe;fill:url(#linearGradient3866);fill-opacity:1;fill-rule:nonzero;stroke:none;stroke-width:0;marker:none;visibility:visible;display:inline;overflow:visible;enable-background:accumulate" />
    </clipPath>
    <linearGradient
       inkscape:collect="always"
       xlink:href="#outerBackgroundGradient"
       id="linearGradient3866"
       gradientUnits="userSpaceOnUse"
       gradientTransform="translate(0,-4)"
       x1="144"
       y1="280"
       x2="144"
       y2="40" />
    <linearGradient
       inkscape:collect="always"
       xlink:href="#outerBackgroundGradient"
       id="linearGradient3876"
       gradientUnits="userSpaceOnUse"
       gradientTransform="translate(0,-4)"
       x1="272"
       y1="288"
       x2="272"
       y2="32" />
    <clipPath
       clipPathUnits="userSpaceOnUse"
       id="clipPath4187">
      <rect
         ry="12.5"
         y="142"
         x="290"
         height="60"
         width="60"
         id="rect4189"
         style="color:#bebebe;fill:url(#linearGradient4191);fill-opacity:1;fill-rule:nonzero;stroke:none;stroke-width:0;marker:none;visibility:visible;display:inline;overflow:visible;enable-background:accumulate" />
    </clipPath>
    <linearGradient
       inkscape:collect="always"
       xlink:href="#outerBackgroundGradient"
       id="linearGradient4191"
       gradientUnits="userSpaceOnUse"
       x1="352"
       y1="204"
       x2="352"
       y2="140" />
    <linearGradient
       inkscape:collect="always"
       xlink:href="#outerBackgroundGradient"
       id="linearGradient4197"
       gradientUnits="userSpaceOnUse"
       x1="384"
       y1="124"
       x2="384"
       y2="28" />
    <linearGradient
       inkscape:collect="always"
       xlink:href="#outerBackgroundGradient"
       id="linearGradient4199"
       gradientUnits="userSpaceOnUse"
       x1="352"
       y1="204"
       x2="352"
       y2="140" />
    <clipPath
       clipPathUnits="userSpaceOnUse"
       id="clipPath4346">
      <rect
         style="color:#bebebe;fill:url(#linearGradient4350);fill-opacity:1;fill-rule:nonzero;stroke:none;stroke-width:0;marker:none;visibility:visible;display:inline;overflow:visible;enable-background:accumulate"
         id="rect4348"
         width="88"
         height="88"
         x="292"
         y="32"
         ry="18" />
    </clipPath>
    <linearGradient
       inkscape:collect="always"
       xlink:href="#outerBackgroundGradient"
       id="linearGradient4350"
       gradientUnits="userSpaceOnUse"
       x1="384"
       y1="124"
       x2="384"
       y2="28" />
    <clipPath
       clipPathUnits="userSpaceOnUse"
       id="clipPath3871">
      <rect
         ry="5"
         y="101"
         x="417"
         height="22"
         width="22"
         id="rect3873"
         style="color:#bebebe;fill:url(#linearGradient3875);fill-opacity:1;fill-rule:nonzero;stroke:none;stroke-width:0;marker:none;visibility:visible;display:inline;overflow:visible;enable-background:accumulate" />
    </clipPath>
    <linearGradient
       inkscape:collect="always"
       xlink:href="#outerBackgroundGradient"
       id="linearGradient3875"
       gradientUnits="userSpaceOnUse"
       gradientTransform="matrix(0.0875,0,0,0.0875,414.9,97.5)"
       x1="286.85715"
       y1="302.85715"
       x2="286.85715"
       y2="28.571428" />
    <clipPath
       clipPathUnits="userSpaceOnUse"
       id="clipPath3881">
      <rect
         style="color:#bebebe;fill:url(#linearGradient3885);fill-opacity:1;fill-rule:nonzero;stroke:none;stroke-width:0;marker:none;visibility:visible;display:inline;overflow:visible;enable-background:accumulate"
         id="rect3883"
         width="30"
         height="30"
         x="417"
         y="53"
         ry="7" />
    </clipPath>
    <linearGradient
       inkscape:collect="always"
       xlink:href="#outerBackgroundGradient"
       id="linearGradient3885"
       gradientUnits="userSpaceOnUse"
       gradientTransform="matrix(0.11931818,0,0,0.11931818,414.13636,48.22727)"
       x1="283.80957"
       y1="299.80954"
       x2="283.80957"
       y2="31.61907" />
  </defs>
  <metadata
     id="metadata4">
    <rdf:RDF>
      <cc:Work
         rdf:about="">
        <dc:format>image/svg+xml</dc:format>
        <dc:type
           rdf:resource="http://purl.org/dc/dcmitype/StillImage" />
        <dc:creator>
          <cc:Agent>
            <dc:title>Sam Hewitt</dc:title>
          </cc:Agent>
        </dc:creator>
        <dc:source />
        <cc:license
           rdf:resource="" />
        <dc:title />
        <dc:subject>
          <rdf:Bag />
        </dc:subject>
        <dc:date />
        <dc:rights>
          <cc:Agent>
            <dc:title />
          </cc:Agent>
        </dc:rights>
        <dc:publisher>
          <cc:Agent>
            <dc:title />
          </cc:Agent>
        </dc:publisher>
        <dc:identifier />
        <dc:relation />
        <dc:language />
        <dc:coverage />
        <dc:description />
        <dc:contributor>
          <cc:Agent>
            <dc:title />
          </cc:Agent>
        </dc:contributor>
      </cc:Work>
      <cc:Work
         rdf:about="">
        <dc:format>image/svg+xml</dc:format>
        <dc:type
           rdf:resource="http://purl.org/dc/dcmitype/StillImage" />
      </cc:Work>
    </rdf:RDF>
  </metadata>
  <g
     style="display:inline"
     inkscape:groupmode="layer"
     inkscape:label="Icon"
     id="layer1">
    <g
       style="display:none"
       inkscape:label="Baseplate"
       id="layer7"
       inkscape:groupmode="layer">
      <text
         y="19.745117"
         xml:space="preserve"
         x="15.006836"
         style="font-size:18px;font-style:normal;font-variant:normal;font-weight:normal;font-stretch:normal;fill:#000000;fill-opacity:1;stroke:none;display:inline;enable-background:new;font-family:DejaVu Sans;-inkscape-font-specification:DejaVu Sans"
         inkscape:label="context"
         id="context"><tspan
           style="font-style:normal;font-variant:normal;font-weight:normal;font-stretch:normal;font-family:DejaVu Sans;-inkscape-font-specification:DejaVu Sans"
           y="19.745117"
           x="15.006836"
           sodipodi:role="line"
           id="tspan3933">apps</tspan></text>
      <text
         y="19.745117"
         xml:space="preserve"
         x="122.48828"
         style="font-size:18px;font-style:normal;font-variant:normal;font-weight:bold;font-stretch:normal;text-align:start;line-height:125%;writing-mode:lr-tb;text-anchor:start;fill:#000000;fill-opacity:1;stroke:none;display:inline;enable-background:new;font-family:DejaVu Sans;-inkscape-font-specification:DejaVu Sans Bold"
         sodipodi:linespacing="125%"
         inkscape:label="icon-name"
         id="icon-name"><tspan
           style="font-size:18px;font-style:normal;font-variant:normal;font-weight:bold;font-stretch:normal;font-family:DejaVu Sans;-inkscape-font-specification:DejaVu Sans Bold"
           y="19.745117"
           x="122.48828"
           sodipodi:role="line"
           id="tspan3937">vocal</tspan></text>
      <rect
         style="fill:#eeeeec;fill-opacity:1;fill-rule:nonzero;stroke:none;stroke-width:2;marker:none;visibility:visible;display:inline;overflow:visible;enable-background:accumulate"
         id="rect16x16"
         width="16"
         height="16"
         x="416"
         y="140"
         inkscape:label="16x16" />
      <rect
         style="fill:#d4d4d4;fill-opacity:1;fill-rule:nonzero;stroke:none;stroke-width:2;marker:none;visibility:visible;display:inline;overflow:visible;enable-background:accumulate"
         id="rect24x24"
         width="24"
         height="24"
         x="416"
         y="100"
         inkscape:label="24x24" />
      <rect
         style="fill:#eeeeec;fill-opacity:1;fill-rule:nonzero;stroke:none;stroke-width:2;marker:none;visibility:visible;display:inline;overflow:visible;enable-background:accumulate"
         id="rect32x32"
         width="32"
         height="32"
         x="416"
         y="52"
         inkscape:label="32x32" />
      <rect
         inkscape:label="22x22"
         y="101"
         x="417"
         height="22"
         width="22"
         id="rect22x22"
         style="fill:#eeeeec;fill-opacity:1;fill-rule:nonzero;stroke:none;stroke-width:2;marker:none;visibility:visible;display:inline;overflow:visible;enable-background:accumulate" />
      <rect
         inkscape:label="48x48"
         y="220"
         x="288"
         height="48"
         width="48"
         id="rect48x48"
         style="fill:#eeeeec;fill-opacity:1;fill-rule:nonzero;stroke:none;stroke-width:2;marker:none;visibility:visible;display:inline;overflow:visible;enable-background:accumulate" />
      <rect
         style="fill:#eeeeec;fill-opacity:1;fill-rule:nonzero;stroke:none;stroke-width:2;marker:none;visibility:visible;display:inline;overflow:visible;enable-background:accumulate"
         id="rect256x256"
         width="256"
         height="256"
         x="16"
         y="28"
         inkscape:label="256x256" />
      <rect
         style="fill:#eeeeec;fill-opacity:1;fill-rule:nonzero;stroke:none;stroke-width:2;marker:none;visibility:visible;display:inline;overflow:visible;enable-background:accumulate"
         id="rect64x64"
         width="64"
         height="64"
         x="288"
         y="140"
         inkscape:label="64x64" />
      <rect
         style="fill:#eeeeec;fill-opacity:1;fill-rule:nonzero;stroke:none;stroke-width:2;marker:none;visibility:visible;display:inline;overflow:visible;enable-background:accumulate"
         id="rect96x96"
         width="96"
         height="96"
         x="288"
         y="28"
         inkscape:label="96x96" />
    </g>
    <g
       inkscape:groupmode="layer"
       id="layer4"
       inkscape:label="Shadow"
       style="display:inline"
       sodipodi:insensitive="true">
      <rect
         style="opacity:0;color:#bebebe;fill:#000000;fill-opacity:1;stroke:#000000;stroke-width:1;stroke-miterlimit:4;stroke-opacity:1;stroke-dasharray:none;marker:none;visibility:visible;display:inline;overflow:visible;enable-background:accumulate"
         id="rect4156"
         width="42"
         height="42"
         x="-266.5"
         y="291"
         ry="9"
         transform="matrix(0,-1,1,0,0,0)" />
      <rect
         transform="matrix(0,-1,1,0,0,0)"
         ry="9"
         y="291"
         x="-266.5"
         height="42"
         width="40"
         id="rect4183"
         style="opacity:0.1;color:#bebebe;fill:#000000;fill-opacity:1;stroke:none;stroke-width:1;marker:none;visibility:visible;display:inline;overflow:visible;enable-background:accumulate" />
      <rect
         ry="9"
         y="237"
         x="291"
         height="29"
         width="42"
         id="rect4144"
         style="opacity:0.1;color:#bebebe;fill:#000000;fill-opacity:1;fill-rule:nonzero;stroke:none;stroke-width:0;marker:none;visibility:visible;display:inline;overflow:visible;enable-background:accumulate" />
      <rect
         style="opacity:0;color:#bebebe;fill:#000000;fill-opacity:1;fill-rule:nonzero;stroke:#000000;stroke-width:1;stroke-miterlimit:4;stroke-opacity:1;stroke-dasharray:none;marker:none;visibility:visible;display:inline;overflow:visible;enable-background:accumulate"
         id="rect4340"
         width="88"
         height="88"
         x="292"
         y="33.5"
         ry="18" />
      <rect
         ry="18"
         y="52.5"
         x="292"
         height="69"
         width="88"
         id="rect4338"
         style="opacity:0.1;color:#bebebe;fill:#000000;fill-opacity:1;fill-rule:nonzero;stroke:none;stroke-width:0;marker:none;visibility:visible;display:inline;overflow:visible;enable-background:accumulate" />
      <rect
         style="opacity:0.1;color:#bebebe;fill:#000000;fill-opacity:1;fill-rule:nonzero;stroke:none;stroke-width:0;marker:none;visibility:visible;display:inline;overflow:visible;enable-background:accumulate"
         id="rect4335"
         width="88"
         height="76.5"
         x="292"
         y="44.5"
         ry="18" />
      <rect
         style="opacity:0;color:#bebebe;fill:#000000;fill-opacity:1;fill-rule:nonzero;stroke:#000000;stroke-width:1;stroke-miterlimit:4;stroke-opacity:1;stroke-dasharray:none;marker:none;visibility:visible;display:inline;overflow:visible;enable-background:accumulate"
         id="rect4214"
         width="60"
         height="60"
         x="290"
         y="143.5"
         ry="12.5" />
      <rect
         ry="12.5"
         y="151.5"
         x="290"
         height="52"
         width="60"
         id="rect4206"
         style="opacity:0.1;color:#bebebe;fill:#000000;fill-opacity:1;fill-rule:nonzero;stroke:none;stroke-width:0;marker:none;visibility:visible;display:inline;overflow:visible;enable-background:accumulate" />
      <rect
         style="opacity:0.1;color:#bebebe;fill:#000000;fill-opacity:1;fill-rule:nonzero;stroke:none;stroke-width:0;marker:none;visibility:visible;display:inline;overflow:visible;enable-background:accumulate"
         id="rect4212"
         width="60"
         height="54.5"
         x="290"
         y="148.5"
         ry="12.5" />
      <rect
         style="opacity:0.2;color:#bebebe;fill:#000000;fill-opacity:1;fill-rule:nonzero;stroke:none;stroke-width:0;marker:none;visibility:visible;display:inline;overflow:visible;enable-background:accumulate"
         id="rect4058"
         width="30"
         height="30"
         x="417"
         y="54"
         ry="7" />
      <rect
         ry="50"
         y="48"
         x="34"
         height="220"
         width="220"
         id="rect3872"
         style="opacity:0;color:#bebebe;fill:#000000;fill-opacity:1;fill-rule:nonzero;stroke:#000000;stroke-width:2;stroke-miterlimit:4;stroke-opacity:1;stroke-dasharray:none;marker:none;visibility:visible;display:inline;overflow:visible;enable-background:accumulate" />
      <rect
         style="opacity:0.1;color:#bebebe;fill:#000000;fill-opacity:1;fill-rule:nonzero;stroke:none;stroke-width:0;marker:none;visibility:visible;display:inline;overflow:visible;enable-background:accumulate"
         id="rect3870"
         width="220"
         height="220"
         x="34"
         y="48"
         ry="50" />
      <rect
         ry="50"
         y="47"
         x="34"
         height="220"
         width="220"
         id="rect3868"
         style="opacity:0.1;color:#bebebe;fill:#000000;fill-opacity:1;fill-rule:nonzero;stroke:none;stroke-width:0;marker:none;visibility:visible;display:inline;overflow:visible;enable-background:accumulate" />
    </g>
    <g
       inkscape:groupmode="layer"
       id="layer2"
       inkscape:label="Background"
       style="display:inline">
      <rect
         style="color:#bebebe;fill:url(#linearGradient3876);fill-opacity:1;fill-rule:nonzero;stroke:none;stroke-width:0;marker:none;visibility:visible;display:inline;overflow:visible;enable-background:accumulate"
         id="rect4040"
         width="220"
         height="220"
         x="34"
         y="46"
         ry="50" />
      <rect
         ry="3"
         y="140"
         x="416"
         height="16"
         width="16"
         id="rect4095"
         style="color:#bebebe;fill:url(#linearGradient4097);fill-opacity:1;fill-rule:nonzero;stroke:none;stroke-width:0;marker:none;visibility:visible;display:inline;overflow:visible;enable-background:accumulate" />
      <rect
         style="color:#bebebe;fill:url(#linearGradient4101);fill-opacity:1;fill-rule:nonzero;stroke:none;stroke-width:0;marker:none;visibility:visible;display:inline;overflow:visible;enable-background:accumulate"
         id="rect4099"
         width="22"
         height="22"
         x="417"
         y="101"
         ry="5" />
      <rect
         ry="7"
         y="53"
         x="417"
         height="30"
         width="30"
         id="rect4151"
         style="color:#bebebe;fill:url(#linearGradient4153);fill-opacity:1;fill-rule:nonzero;stroke:none;stroke-width:0;marker:none;visibility:visible;display:inline;overflow:visible;enable-background:accumulate" />
      <rect
         style="color:#bebebe;fill:url(#linearGradient4869);fill-opacity:1;fill-rule:nonzero;stroke:none;stroke-width:0;marker:none;visibility:visible;display:inline;overflow:visible;enable-background:accumulate"
         id="rect4783"
         width="42"
         height="42"
         x="291"
         y="-265"
         ry="9"
         transform="scale(1,-1)" />
      <rect
         ry="18"
         y="32"
         x="292"
         height="88"
         width="88"
         id="rect4511"
         style="color:#bebebe;fill:url(#linearGradient4197);fill-opacity:1;fill-rule:nonzero;stroke:none;stroke-width:0;marker:none;visibility:visible;display:inline;overflow:visible;enable-background:accumulate" />
      <rect
         style="color:#bebebe;fill:url(#linearGradient4199);fill-opacity:1;fill-rule:nonzero;stroke:none;stroke-width:0;marker:none;visibility:visible;display:inline;overflow:visible;enable-background:accumulate"
         id="rect4515"
         width="60"
         height="60"
         x="290"
         y="142"
         ry="12.5" />
    </g>
    <g
       inkscape:groupmode="layer"
       id="layer6"
       inkscape:label="Symbols"
       style="display:inline">
      <path
         style="font-size:medium;font-style:normal;font-variant:normal;font-weight:normal;font-stretch:normal;text-indent:0;text-align:start;text-decoration:none;line-height:normal;letter-spacing:normal;word-spacing:normal;text-transform:none;direction:ltr;block-progression:tb;writing-mode:lr-tb;text-anchor:start;baseline-shift:baseline;opacity:0.2;color:#000000;fill:#000000;fill-opacity:1;stroke:none;stroke-width:0.87197804;marker:none;visibility:visible;display:inline;overflow:visible;enable-background:accumulate;font-family:Sans;-inkscape-font-specification:Sans"
         d="m 144,76.866091 c -44.242971,0 -80.133899,35.890929 -80.133899,80.133899 0,44.24297 35.890928,80.1339 80.133899,80.1339 44.24297,0 80.1339,-35.89093 80.1339,-80.1339 0,-44.24297 -35.89093,-80.133899 -80.1339,-80.133899 z m 0,2.006931 c 43.16209,0 78.12697,34.964878 78.12697,78.126968 0,43.16209 -34.96488,78.12697 -78.12697,78.12697 -43.16209,0 -78.126968,-34.96488 -78.126968,-78.12697 0,-43.16209 34.964878,-78.126968 78.126968,-78.126968 z"
         id="path4087"
         inkscape:connector-curvature="0" />
      <path
         style="font-size:medium;font-style:normal;font-variant:normal;font-weight:normal;font-stretch:normal;text-indent:0;text-align:start;text-decoration:none;line-height:normal;letter-spacing:normal;word-spacing:normal;text-transform:none;direction:ltr;block-progression:tb;writing-mode:lr-tb;text-anchor:start;baseline-shift:baseline;opacity:0.2;color:#000000;fill:#000000;fill-opacity:1;stroke:none;stroke-width:1.18432844;marker:none;visibility:visible;display:inline;overflow:visible;enable-background:accumulate;font-family:Sans;-inkscape-font-specification:Sans"
         d="m 144,97.736025 c -32.71703,0 -59.263547,26.546515 -59.263547,59.263545 0,32.71703 26.546517,59.26355 59.263547,59.26355 32.71703,0 59.26354,-26.54652 59.26354,-59.26355 0,-32.71703 -26.54651,-59.263545 -59.26354,-59.263545 z m 0,2.005356 c 31.63615,0 57.25819,25.622039 57.25819,57.258189 0,31.63615 -25.62204,57.25819 -57.25819,57.25819 -31.63615,0 -57.258191,-25.62204 -57.258191,-57.25819 0,-31.63615 25.622041,-57.258189 57.258191,-57.258189 z"
         id="path4089"
         inkscape:connector-curvature="0" />
      <path
         id="path4091"
         d="m 144,120.47825 c -7.68396,0 -13.91304,6.22908 -13.91304,13.91304 l 10.43478,0 c 0.96049,0 1.73913,0.77864 1.73913,1.73913 0,0.9605 -0.77864,1.73913 -1.73913,1.73913 l -10.43478,0 0,3.47826 10.43478,0 c 0.96049,0 1.73913,0.77865 1.73913,1.73913 0,0.96051 -0.77864,1.73913 -1.73913,1.73913 l -10.43478,0 0,3.47826 10.43478,0 c 0.96049,0 1.73913,0.77865 1.73913,1.73913 0,0.96051 -0.77864,1.73913 -1.73913,1.73913 l -10.43478,0 0,3.47827 10.43478,0 c 0.96049,0 1.73913,0.77864 1.73913,1.73913 0,0.9605 -0.77864,1.73913 -1.73913,1.73913 l -10.43478,0 0,3.47826 c 0,7.68396 6.22908,13.91304 13.91304,13.91304 7.68397,0 13.91304,-6.22908 13.91304,-13.91304 l 0,-3.47826 -10.43478,0 c -0.9605,0 -1.73913,-0.77863 -1.73913,-1.73913 0,-0.96049 0.77863,-1.73913 1.73913,-1.73913 l 10.43478,0 0,-3.47827 -10.43478,0 c -0.9605,0 -1.73913,-0.77862 -1.73913,-1.73913 0,-0.96048 0.77863,-1.73913 1.73913,-1.73913 l 10.43478,0 0,-3.47826 -10.43478,0 c -0.9605,0 -1.73913,-0.77862 -1.73913,-1.73913 0,-0.96048 0.77863,-1.73913 1.73913,-1.73913 l 10.43478,0 0,-3.47826 -10.43478,0 c -0.9605,0 -1.73913,-0.77862 -1.73913,-1.73913 0,-0.96049 0.77863,-1.73913 1.73913,-1.73913 l 10.43478,0 c 0,-7.68396 -6.22907,-13.91304 -13.91304,-13.91304 z m -20,39.13043 c -1.44073,0 -2.60869,1.16797 -2.60869,2.6087 0,11.30647 8.29123,20.66756 19.13043,22.33695 l 0,5.48913 -3.47826,0 c -0.9605,0 -1.73913,0.77862 -1.73913,1.73914 0,0.96052 0.77863,1.73913 1.73913,1.73913 l 13.91304,0 c 0.96049,0 1.73913,-0.77861 1.73913,-1.73913 0,-0.96052 -0.77864,-1.73914 -1.73913,-1.73914 l -3.47826,0 0,-5.48913 c 10.8392,-1.66939 19.13044,-11.03048 19.13044,-22.33695 0,-1.44073 -1.16797,-2.6087 -2.6087,-2.6087 -1.44073,0 -2.60869,1.16797 -2.60869,2.6087 0,9.60495 -7.78635,17.3913 -17.39131,17.3913 -0.60031,0 -1.20883,-0.0496 -1.79348,-0.10869 -0.58464,-0.0591 -1.11871,-0.15644 -1.68478,-0.27174 -7.92492,-1.62157 -13.91304,-8.60654 -13.91304,-17.01087 0,-1.44073 -1.16797,-2.6087 -2.6087,-2.6087 z"
         style="opacity:0.2;fill:#000000;fill-opacity:1;fill-rule:nonzero;stroke:none"
         inkscape:connector-curvature="0" />
      <path
         style="font-size:medium;font-style:normal;font-variant:normal;font-weight:normal;font-stretch:normal;text-indent:0;text-align:start;text-decoration:none;line-height:normal;letter-spacing:normal;word-spacing:normal;text-transform:none;direction:ltr;block-progression:tb;writing-mode:lr-tb;text-anchor:start;baseline-shift:baseline;opacity:0.2;color:#000000;fill:#000000;fill-opacity:1;stroke:none;stroke-width:1.16453302;marker:none;visibility:visible;display:inline;overflow:visible;enable-background:accumulate;font-family:Sans;-inkscape-font-specification:Sans"
         d="m 335.99999,46.864519 c -16.63199,0 -30.13547,13.503478 -30.13547,30.135471 0,16.631993 13.50348,30.13547 30.13547,30.13547 16.632,0 30.13548,-13.503477 30.13548,-30.13547 0,-16.631993 -13.50348,-30.135471 -30.13548,-30.135471 z m 0,1.019722 c 16.09156,0 29.11575,13.024196 29.11575,29.115749 0,16.091553 -13.02419,29.11575 -29.11575,29.11575 -16.09155,0 -29.11575,-13.024197 -29.11575,-29.11575 0,-16.091553 13.0242,-29.115749 29.11575,-29.115749 z"
         id="path4095"
         inkscape:connector-curvature="0" />
      <path
         style="font-size:medium;font-style:normal;font-variant:normal;font-weight:normal;font-stretch:normal;text-indent:0;text-align:start;text-decoration:none;line-height:normal;letter-spacing:normal;word-spacing:normal;text-transform:none;direction:ltr;block-progression:tb;writing-mode:lr-tb;text-anchor:start;baseline-shift:baseline;opacity:0.2;color:#000000;fill:#000000;fill-opacity:1;stroke:none;stroke-width:1.58167911;marker:none;visibility:visible;display:inline;overflow:visible;enable-background:accumulate;font-family:Sans;-inkscape-font-specification:Sans"
         d="m 336,54.693635 c -12.3168,0 -22.3062,9.989399 -22.3062,22.306199 0,12.3168 9.9894,22.3062 22.3062,22.3062 12.3168,0 22.3062,-9.9894 22.3062,-22.3062 0,-12.3168 -9.9894,-22.306199 -22.3062,-22.306199 z m 0,0.987874 c 11.77636,0 21.31832,9.541965 21.31832,21.318325 0,11.77636 -9.54196,21.318325 -21.31832,21.318325 -11.77636,0 -21.31833,-9.541965 -21.31833,-21.318325 0,-11.77636 9.54197,-21.318325 21.31833,-21.318325 z"
         id="path4097"
         inkscape:connector-curvature="0" />
      <path
         inkscape:connector-curvature="0"
         style="opacity:0.2;fill:#000000;fill-opacity:1;fill-rule:nonzero;stroke:none"
         d="m 336,63.32663 c -2.8768,0 -5.2089,2.332102 -5.2089,5.208899 l 3.90667,0 c 0.3596,0 0.65112,0.291513 0.65112,0.651112 0,0.3596 -0.29152,0.651112 -0.65112,0.651112 l -3.90667,0 0,1.302225 3.90667,0 c 0.3596,0 0.65112,0.291516 0.65112,0.651112 0,0.359603 -0.29152,0.651113 -0.65112,0.651113 l -3.90667,0 0,1.302224 3.90667,0 c 0.3596,0 0.65112,0.291516 0.65112,0.651113 0,0.359602 -0.29152,0.651112 -0.65112,0.651112 l -3.90667,0 0,1.302224 3.90667,0 c 0.3596,0 0.65112,0.291517 0.65112,0.651113 0,0.359603 -0.29152,0.651112 -0.65112,0.651112 l -3.90667,0 0,1.302225 c 0,2.876796 2.3321,5.208898 5.2089,5.208898 2.87679,0 5.2089,-2.332102 5.2089,-5.208898 l 0,-1.302225 -3.90668,0 c -0.3596,0 -0.65111,-0.291509 -0.65111,-0.651112 0,-0.359596 0.29151,-0.651113 0.65111,-0.651113 l 3.90668,0 0,-1.302224 -3.90668,0 c -0.3596,0 -0.65111,-0.29151 -0.65111,-0.651112 0,-0.359597 0.29151,-0.651113 0.65111,-0.651113 l 3.90668,0 0,-1.302224 -3.90668,0 c -0.3596,0 -0.65111,-0.29151 -0.65111,-0.651113 0,-0.359596 0.29151,-0.651112 0.65111,-0.651112 l 3.90668,0 0,-1.302225 -3.90668,0 c -0.3596,0 -0.65111,-0.291509 -0.65111,-0.651112 0,-0.359596 0.29151,-0.651112 0.65111,-0.651112 l 3.90668,0 c 0,-2.876797 -2.33211,-5.208899 -5.2089,-5.208899 z m -7.48779,14.650027 c -0.5394,0 -0.97667,0.437274 -0.97667,0.976669 0,4.233024 3.10415,7.737721 7.16223,8.362723 l 0,2.055074 -1.30222,0 c -0.3596,0 -0.65111,0.291504 -0.65111,0.651113 0,0.35961 0.29151,0.651113 0.65111,0.651113 l 5.2089,0 c 0.35959,0 0.65111,-0.291503 0.65111,-0.651113 0,-0.359609 -0.29152,-0.651113 -0.65111,-0.651113 l -1.30223,0 0,-2.055074 c 4.05809,-0.625002 7.16224,-4.129699 7.16224,-8.362723 0,-0.539395 -0.43728,-0.976669 -0.97667,-0.976669 -0.5394,0 -0.97667,0.437274 -0.97667,0.976669 0,3.595995 -2.91513,6.511123 -6.51112,6.511123 -0.22475,0 -0.45258,-0.01856 -0.67146,-0.04069 -0.21889,-0.02214 -0.41884,-0.05857 -0.63077,-0.101736 -2.967,-0.607097 -5.2089,-3.222199 -5.2089,-6.368692 0,-0.539395 -0.43727,-0.976669 -0.97666,-0.976669 z"
         id="path4099" />
      <path
         style="font-size:medium;font-style:normal;font-variant:normal;font-weight:normal;font-stretch:normal;text-indent:0;text-align:start;text-decoration:none;line-height:normal;letter-spacing:normal;word-spacing:normal;text-transform:none;direction:ltr;block-progression:tb;writing-mode:lr-tb;text-anchor:start;baseline-shift:baseline;opacity:0.2;color:#000000;fill:#000000;fill-opacity:1;stroke:none;stroke-width:1.75411344;marker:none;visibility:visible;display:inline;overflow:visible;enable-background:accumulate;font-family:Sans;-inkscape-font-specification:Sans"
         d="m 320,152.83311 c -11.13259,0 -20.16688,9.0343 -20.16688,20.16689 0,11.13258 9.03429,20.16688 20.16688,20.16688 11.13259,0 20.16689,-9.0343 20.16689,-20.16688 0,-11.13259 -9.0343,-20.16689 -20.16689,-20.16689 z m 0,0.99766 c 10.59215,0 19.16923,8.57708 19.16923,19.16923 0,10.59214 -8.57708,19.16922 -19.16923,19.16922 -10.59214,0 -19.16923,-8.57708 -19.16923,-19.16922 0,-10.59215 8.57709,-19.16923 19.16923,-19.16923 z"
         id="path4103"
         inkscape:connector-curvature="0" />
      <path
         style="font-size:medium;font-style:normal;font-variant:normal;font-weight:normal;font-stretch:normal;text-indent:0;text-align:start;text-decoration:none;line-height:normal;letter-spacing:normal;word-spacing:normal;text-transform:none;direction:ltr;block-progression:tb;writing-mode:lr-tb;text-anchor:start;baseline-shift:baseline;opacity:0.2;color:#000000;fill:#000000;fill-opacity:1;stroke:none;stroke-width:2.38245249;marker:none;visibility:visible;display:inline;overflow:visible;enable-background:accumulate;font-family:Sans;-inkscape-font-specification:Sans"
         d="m 320,158.02057 c -8.26779,0 -14.97931,6.71153 -14.97931,14.97932 0,8.26778 6.71152,14.97931 14.97931,14.97931 8.26779,0 14.97931,-6.71153 14.97931,-14.97931 0,-8.26779 -6.71152,-14.97932 -14.97931,-14.97932 z m 0,0.99688 c 7.72735,0 13.98244,6.25509 13.98244,13.98244 0,7.72734 -6.25509,13.98244 -13.98244,13.98244 -7.72735,0 -13.98244,-6.2551 -13.98244,-13.98244 0,-7.72735 6.25509,-13.98244 13.98244,-13.98244 z"
         id="path4105"
         inkscape:connector-curvature="0" />
      <path
         id="path4107"
         d="m 320,163.92243 c -1.90987,0 -3.45812,1.54825 -3.45812,3.45812 l 2.59359,0 c 0.23873,0 0.43226,0.19353 0.43226,0.43226 0,0.23874 -0.19353,0.43227 -0.43226,0.43227 l -2.59359,0 0,0.86453 2.59359,0 c 0.23873,0 0.43226,0.19353 0.43226,0.43226 0,0.23874 -0.19353,0.43227 -0.43226,0.43227 l -2.59359,0 0,0.86453 2.59359,0 c 0.23873,0 0.43226,0.19353 0.43226,0.43226 0,0.23874 -0.19353,0.43227 -0.43226,0.43227 l -2.59359,0 0,0.86453 2.59359,0 c 0.23873,0 0.43226,0.19353 0.43226,0.43226 0,0.23874 -0.19353,0.43227 -0.43226,0.43227 l -2.59359,0 0,0.86453 c 0,1.90986 1.54825,3.45812 3.45812,3.45812 1.90987,0 3.45812,-1.54826 3.45812,-3.45812 l 0,-0.86453 -2.59359,0 c -0.23874,0 -0.43227,-0.19353 -0.43227,-0.43227 0,-0.23873 0.19353,-0.43226 0.43227,-0.43226 l 2.59359,0 0,-0.86453 -2.59359,0 c -0.23874,0 -0.43227,-0.19353 -0.43227,-0.43227 0,-0.23873 0.19353,-0.43226 0.43227,-0.43226 l 2.59359,0 0,-0.86453 -2.59359,0 c -0.23874,0 -0.43227,-0.19353 -0.43227,-0.43227 0,-0.23873 0.19353,-0.43226 0.43227,-0.43226 l 2.59359,0 0,-0.86453 -2.59359,0 c -0.23874,0 -0.43227,-0.19353 -0.43227,-0.43227 0,-0.23873 0.19353,-0.43226 0.43227,-0.43226 l 2.59359,0 c 0,-1.90987 -1.54825,-3.45812 -3.45812,-3.45812 z m -4.97105,9.72596 c -0.35809,0 -0.6484,0.2903 -0.6484,0.6484 0,2.81025 2.06081,5.13697 4.75492,5.5519 l 0,1.36434 -0.86453,0 c -0.23874,0 -0.43227,0.19352 -0.43227,0.43226 0,0.23874 0.19353,0.43227 0.43227,0.43227 l 3.45812,0 c 0.23873,0 0.43226,-0.19353 0.43226,-0.43227 0,-0.23874 -0.19353,-0.43226 -0.43226,-0.43226 l -0.86453,0 0,-1.36434 c 2.69411,-0.41493 4.75491,-2.74165 4.75491,-5.5519 0,-0.3581 -0.2903,-0.6484 -0.64839,-0.6484 -0.3581,0 -0.6484,0.2903 -0.6484,0.6484 0,2.38733 -1.93532,4.32265 -4.32265,4.32265 -0.14921,0 -0.30046,-0.0123 -0.44577,-0.027 -0.14532,-0.0147 -0.27806,-0.0389 -0.41876,-0.0675 -1.96976,-0.40305 -3.45812,-2.13918 -3.45812,-4.22809 0,-0.3581 -0.2903,-0.6484 -0.6484,-0.6484 z"
         style="opacity:0.2;fill:#000000;fill-opacity:1;fill-rule:nonzero;stroke:none"
         inkscape:connector-curvature="0" />
      <path
         style="font-size:medium;font-style:normal;font-variant:normal;font-weight:normal;font-stretch:normal;text-indent:0;text-align:start;text-decoration:none;line-height:normal;letter-spacing:normal;word-spacing:normal;text-transform:none;direction:ltr;block-progression:tb;writing-mode:lr-tb;text-anchor:start;baseline-shift:baseline;opacity:0.2;color:#000000;fill:#000000;fill-opacity:1;stroke:none;stroke-width:2.21106625;marker:none;visibility:visible;display:inline;overflow:visible;enable-background:accumulate;font-family:Sans;-inkscape-font-specification:Sans"
         d="m 312,228.90199 c -8.8877,0 -16.098,7.2103 -16.098,16.098 0,8.8877 7.2103,16.09801 16.098,16.09801 8.8877,0 16.098,-7.21031 16.098,-16.09801 0,-8.8877 -7.2103,-16.098 -16.098,-16.098 z m 0,0.98934 c 8.34726,0 15.10866,6.7614 15.10866,15.10866 0,8.34726 -6.7614,15.10866 -15.10866,15.10866 -8.34726,0 -15.10866,-6.7614 -15.10866,-15.10866 0,-8.34726 6.7614,-15.10866 15.10866,-15.10866 z"
         id="path4111"
         inkscape:connector-curvature="0" />
      <path
         style="font-size:medium;font-style:normal;font-variant:normal;font-weight:normal;font-stretch:normal;text-indent:0;text-align:start;text-decoration:none;line-height:normal;letter-spacing:normal;word-spacing:normal;text-transform:none;direction:ltr;block-progression:tb;writing-mode:lr-tb;text-anchor:start;baseline-shift:baseline;opacity:0.2;color:#000000;fill:#000000;fill-opacity:1;stroke:none;stroke-width:3.00308967;marker:none;visibility:visible;display:inline;overflow:visible;enable-background:accumulate;font-family:Sans;-inkscape-font-specification:Sans"
         d="m 312,233.01226 c -6.61496,0 -11.98765,5.37269 -11.98765,11.98765 0,6.61496 5.37269,11.98766 11.98765,11.98766 6.61496,0 11.98765,-5.3727 11.98765,-11.98766 0,-6.61496 -5.37269,-11.98765 -11.98765,-11.98765 z m 0,0.99897 c 6.07452,0 10.98868,4.91416 10.98868,10.98868 0,6.07452 -4.91416,10.98868 -10.98868,10.98868 -6.07452,0 -10.98868,-4.91416 -10.98868,-10.98868 0,-6.07452 4.91416,-10.98868 10.98868,-10.98868 z"
         id="path4113"
         inkscape:connector-curvature="0" />
      <path
         inkscape:connector-curvature="0"
         style="opacity:0.2;fill:#000000;fill-opacity:1;fill-rule:nonzero;stroke:none"
         d="m 312,237.79845 c -1.51516,0 -2.74345,1.22828 -2.74345,2.74345 l 2.05759,0 c 0.18939,0 0.34293,0.15353 0.34293,0.34293 0,0.18939 -0.15354,0.34293 -0.34293,0.34293 l -2.05759,0 0,0.68586 2.05759,0 c 0.18939,0 0.34293,0.15353 0.34293,0.34293 0,0.18939 -0.15354,0.34293 -0.34293,0.34293 l -2.05759,0 0,0.68586 2.05759,0 c 0.18939,0 0.34293,0.15354 0.34293,0.34293 0,0.1894 -0.15354,0.34293 -0.34293,0.34293 l -2.05759,0 0,0.68586 2.05759,0 c 0.18939,0 0.34293,0.15354 0.34293,0.34293 0,0.1894 -0.15354,0.34293 -0.34293,0.34293 l -2.05759,0 0,0.68586 c 0,1.51516 1.22829,2.74345 2.74345,2.74345 1.51516,0 2.74344,-1.22829 2.74344,-2.74345 l 0,-0.68586 -2.05758,0 c -0.1894,0 -0.34293,-0.15353 -0.34293,-0.34293 0,-0.18939 0.15353,-0.34293 0.34293,-0.34293 l 2.05758,0 0,-0.68586 -2.05758,0 c -0.1894,0 -0.34293,-0.15353 -0.34293,-0.34293 0,-0.18939 0.15353,-0.34293 0.34293,-0.34293 l 2.05758,0 0,-0.68586 -2.05758,0 c -0.1894,0 -0.34293,-0.15354 -0.34293,-0.34293 0,-0.1894 0.15353,-0.34293 0.34293,-0.34293 l 2.05758,0 0,-0.68586 -2.05758,0 c -0.1894,0 -0.34293,-0.15354 -0.34293,-0.34293 0,-0.1894 0.15353,-0.34293 0.34293,-0.34293 l 2.05758,0 c 0,-1.51517 -1.22828,-2.74345 -2.74344,-2.74345 z m -3.9437,7.71594 c -0.28409,0 -0.5144,0.2303 -0.5144,0.51439 0,2.22947 1.63491,4.07534 3.77224,4.40451 l 0,1.08238 -0.68586,0 c -0.1894,0 -0.34293,0.15353 -0.34293,0.34293 0,0.1894 0.15353,0.34293 0.34293,0.34293 l 2.74344,0 c 0.18939,0 0.34293,-0.15353 0.34293,-0.34293 0,-0.1894 -0.15354,-0.34293 -0.34293,-0.34293 l -0.68586,0 0,-1.08238 c 2.13733,-0.32917 3.77223,-2.17504 3.77223,-4.40451 0,-0.28409 -0.2303,-0.51439 -0.51439,-0.51439 -0.28409,0 -0.5144,0.2303 -0.5144,0.51439 0,1.89396 -1.53535,3.42931 -3.4293,3.42931 -0.11837,0 -0.23837,-0.01 -0.35365,-0.0214 -0.11528,-0.0117 -0.22059,-0.0308 -0.33221,-0.0536 -1.56268,-0.31975 -2.74345,-1.69708 -2.74345,-3.35429 0,-0.28409 -0.2303,-0.51439 -0.51439,-0.51439 z"
         id="path4115" />
      <path
         style="font-size:medium;font-style:normal;font-variant:normal;font-weight:normal;font-stretch:normal;text-indent:0;text-align:start;text-decoration:none;line-height:normal;letter-spacing:normal;word-spacing:normal;text-transform:none;direction:ltr;block-progression:tb;writing-mode:lr-tb;text-anchor:start;baseline-shift:baseline;opacity:0.2;color:#000000;fill:#000000;fill-opacity:1;stroke:none;stroke-width:3.1892972;marker:none;visibility:visible;display:inline;overflow:visible;enable-background:accumulate;font-family:Sans;-inkscape-font-specification:Sans"
         d="m 432,57.682841 c -6.24452,0 -11.31715,5.072627 -11.31715,11.317149 0,6.244522 5.07263,11.317149 11.31715,11.317149 6.24452,0 11.31715,-5.072627 11.31715,-11.317149 0,-6.244522 -5.07263,-11.317149 -11.31715,-11.317149 z m 0,0.999436 c 5.70408,0 10.31771,4.613631 10.31771,10.317713 0,5.704082 -4.61363,10.317712 -10.31771,10.317712 -5.70408,0 -10.31771,-4.61363 -10.31771,-10.317712 0,-5.704082 4.61363,-10.317713 10.31771,-10.317713 z"
         id="path4119"
         inkscape:connector-curvature="0" />
      <path
         style="font-size:medium;font-style:normal;font-variant:normal;font-weight:normal;font-stretch:normal;text-indent:0;text-align:start;text-decoration:none;line-height:normal;letter-spacing:normal;word-spacing:normal;text-transform:none;direction:ltr;block-progression:tb;writing-mode:lr-tb;text-anchor:start;baseline-shift:baseline;opacity:0.2;color:#000000;fill:#000000;fill-opacity:1;stroke:none;stroke-width:4.3317318;marker:none;visibility:visible;display:inline;overflow:visible;enable-background:accumulate;font-family:Sans;-inkscape-font-specification:Sans"
         d="m 432,60.537671 c -4.66888,0 -8.46226,3.79338 -8.46226,8.462262 0,4.668882 3.79338,8.462262 8.46226,8.462262 4.66889,0 8.46227,-3.79338 8.46227,-8.462262 0,-4.668882 -3.79338,-8.462262 -8.46227,-8.462262 z m 0,0.99556 c 4.12844,0 7.4667,3.33826 7.4667,7.466702 0,4.128442 -3.33826,7.466702 -7.4667,7.466702 -4.12844,0 -7.4667,-3.33826 -7.4667,-7.466702 0,-4.128442 3.33826,-7.466702 7.4667,-7.466702 z"
         id="path4121"
         inkscape:connector-curvature="0" />
      <path
         id="path4123"
         d="m 432,63.99999 c -1.05197,0 -1.90476,0.85279 -1.90476,1.904762 l 1.42857,0 c 0.1315,0 0.2381,0.106599 0.2381,0.238095 0,0.131497 -0.1066,0.238096 -0.2381,0.238096 l -1.42857,0 0,0.47619 1.42857,0 c 0.1315,0 0.2381,0.1066 0.2381,0.238095 0,0.131498 -0.1066,0.238095 -0.2381,0.238095 l -1.42857,0 0,0.476191 1.42857,0 c 0.1315,0 0.2381,0.1066 0.2381,0.238095 0,0.131498 -0.1066,0.238095 -0.2381,0.238095 l -1.42857,0 0,0.476191 1.42857,0 c 0.1315,0 0.2381,0.1066 0.2381,0.238095 0,0.131498 -0.1066,0.238095 -0.2381,0.238095 l -1.42857,0 0,0.476191 c 0,1.051971 0.85279,1.904762 1.90476,1.904762 1.05197,0 1.90476,-0.852791 1.90476,-1.904762 l 0,-0.476191 -1.42857,0 c -0.1315,0 -0.23809,-0.106597 -0.23809,-0.238095 0,-0.131495 0.10659,-0.238095 0.23809,-0.238095 l 1.42857,0 0,-0.476191 -1.42857,0 c -0.1315,0 -0.23809,-0.106597 -0.23809,-0.238095 0,-0.131495 0.10659,-0.238095 0.23809,-0.238095 l 1.42857,0 0,-0.476191 -1.42857,0 c -0.1315,0 -0.23809,-0.106597 -0.23809,-0.238095 0,-0.131495 0.10659,-0.238095 0.23809,-0.238095 l 1.42857,0 0,-0.47619 -1.42857,0 c -0.1315,0 -0.23809,-0.106598 -0.23809,-0.238096 0,-0.131495 0.10659,-0.238095 0.23809,-0.238095 l 1.42857,0 c 0,-1.051972 -0.85279,-1.904762 -1.90476,-1.904762 z m -2.73809,5.357143 c -0.19725,0 -0.35715,0.1599 -0.35715,0.357143 0,1.547909 1.13511,2.829488 2.61905,3.058035 l 0,0.751488 -0.47619,0 c -0.1315,0 -0.2381,0.106596 -0.2381,0.238095 0,0.1315 0.1066,0.238096 0.2381,0.238096 l 1.90476,0 c 0.1315,0 0.2381,-0.106596 0.2381,-0.238096 0,-0.131499 -0.1066,-0.238095 -0.2381,-0.238095 l -0.47619,0 0,-0.751488 c 1.48394,-0.228547 2.61905,-1.510126 2.61905,-3.058035 0,-0.197243 -0.1599,-0.357143 -0.35714,-0.357143 -0.19725,0 -0.35715,0.1599 -0.35715,0.357143 0,1.314964 -1.06598,2.380952 -2.38095,2.380952 -0.0822,0 -0.16549,-0.0068 -0.24554,-0.01488 -0.08,-0.0081 -0.15315,-0.02142 -0.23065,-0.0372 -1.08496,-0.222 -1.90476,-1.178276 -1.90476,-2.328869 0,-0.197243 -0.1599,-0.357143 -0.35714,-0.357143 z"
         style="opacity:0.2;fill:#000000;fill-opacity:1;fill-rule:nonzero;stroke:none"
         inkscape:connector-curvature="0" />
      <path
         id="path4125"
         d="m 424,143.99999 c -1.05197,0 -1.90476,0.85279 -1.90476,1.90476 l 1.42857,0 c 0.1315,0 0.2381,0.1066 0.2381,0.2381 0,0.13149 -0.1066,0.23809 -0.2381,0.23809 l -1.42857,0 0,0.47619 1.42857,0 c 0.1315,0 0.2381,0.1066 0.2381,0.2381 0,0.1315 -0.1066,0.23809 -0.2381,0.23809 l -1.42857,0 0,0.47619 1.42857,0 c 0.1315,0 0.2381,0.1066 0.2381,0.2381 0,0.1315 -0.1066,0.23809 -0.2381,0.23809 l -1.42857,0 0,0.47619 1.42857,0 c 0.1315,0 0.2381,0.1066 0.2381,0.2381 0,0.1315 -0.1066,0.23809 -0.2381,0.23809 l -1.42857,0 0,0.4762 c 0,1.05197 0.85279,1.90476 1.90476,1.90476 1.05197,0 1.90476,-0.85279 1.90476,-1.90476 l 0,-0.4762 -1.42857,0 c -0.1315,0 -0.23809,-0.10659 -0.23809,-0.23809 0,-0.1315 0.10659,-0.2381 0.23809,-0.2381 l 1.42857,0 0,-0.47619 -1.42857,0 c -0.1315,0 -0.23809,-0.10659 -0.23809,-0.23809 0,-0.1315 0.10659,-0.2381 0.23809,-0.2381 l 1.42857,0 0,-0.47619 -1.42857,0 c -0.1315,0 -0.23809,-0.10659 -0.23809,-0.23809 0,-0.1315 0.10659,-0.2381 0.23809,-0.2381 l 1.42857,0 0,-0.47619 -1.42857,0 c -0.1315,0 -0.23809,-0.1066 -0.23809,-0.23809 0,-0.1315 0.10659,-0.2381 0.23809,-0.2381 l 1.42857,0 c 0,-1.05197 -0.85279,-1.90476 -1.90476,-1.90476 z m -2.73809,5.35714 c -0.19725,0 -0.35715,0.1599 -0.35715,0.35715 0,1.5479 1.13511,2.82948 2.61905,3.05803 l 0,0.75149 -0.47619,0 c -0.1315,0 -0.2381,0.10659 -0.2381,0.23809 0,0.1315 0.1066,0.2381 0.2381,0.2381 l 1.90476,0 c 0.1315,0 0.2381,-0.1066 0.2381,-0.2381 0,-0.1315 -0.1066,-0.23809 -0.2381,-0.23809 l -0.47619,0 0,-0.75149 c 1.48394,-0.22855 2.61905,-1.51013 2.61905,-3.05803 0,-0.19725 -0.1599,-0.35715 -0.35714,-0.35715 -0.19725,0 -0.35715,0.1599 -0.35715,0.35715 0,1.31496 -1.06598,2.38095 -2.38095,2.38095 -0.0822,0 -0.16549,-0.007 -0.24554,-0.0149 -0.08,-0.008 -0.15315,-0.0214 -0.23065,-0.0372 -1.08496,-0.222 -1.90476,-1.17827 -1.90476,-2.32886 0,-0.19725 -0.1599,-0.35715 -0.35714,-0.35715 z"
         style="opacity:0.2;fill:#000000;fill-opacity:1;fill-rule:nonzero;stroke:none;display:inline;enable-background:new"
         inkscape:connector-curvature="0" />
      <path
         inkscape:connector-curvature="0"
         style="opacity:0.2;fill:#000000;fill-opacity:1;fill-rule:nonzero;stroke:none;display:inline;enable-background:new"
         d="m 427.99999,105.99999 c -1.47275,0 -2.66666,1.1939 -2.66666,2.66667 l 2,0 c 0.1841,0 0.33334,0.14924 0.33334,0.33334 0,0.18408 -0.14924,0.33332 -0.33334,0.33332 l -2,0 0,0.66666 2,0 c 0.1841,0 0.33334,0.14924 0.33334,0.33334 0,0.1841 -0.14924,0.33333 -0.33334,0.33333 l -2,0 0,0.66667 2,0 c 0.1841,0 0.33334,0.14924 0.33334,0.33334 0,0.1841 -0.14924,0.33333 -0.33334,0.33333 l -2,0 0,0.66666 2,0 c 0.1841,0 0.33334,0.14924 0.33334,0.33334 0,0.1841 -0.14924,0.33332 -0.33334,0.33332 l -2,0 0,0.66668 c 0,1.47277 1.19391,2.66667 2.66666,2.66667 1.47277,0 2.66667,-1.1939 2.66667,-2.66667 l 0,-0.66668 -2,0 c -0.1841,0 -0.33333,-0.14922 -0.33333,-0.33332 0,-0.1841 0.14923,-0.33334 0.33333,-0.33334 l 2,0 0,-0.66666 -2,0 c -0.1841,0 -0.33333,-0.14923 -0.33333,-0.33333 0,-0.1841 0.14923,-0.33334 0.33333,-0.33334 l 2,0 0,-0.66667 -2,0 c -0.1841,0 -0.33333,-0.14923 -0.33333,-0.33333 0,-0.1841 0.14923,-0.33334 0.33333,-0.33334 l 2,0 0,-0.66666 -2,0 c -0.1841,0 -0.33333,-0.14924 -0.33333,-0.33332 0,-0.1841 0.14923,-0.33334 0.33333,-0.33334 l 2,0 c 0,-1.47277 -1.1939,-2.66667 -2.66667,-2.66667 z m -3.83332,7.49999 c -0.27615,0 -0.50001,0.22386 -0.50001,0.50001 0,2.16706 1.58916,3.96128 3.66667,4.28125 l 0,1.05209 -0.66666,0 c -0.1841,0 -0.33334,0.14922 -0.33334,0.33332 0,0.1841 0.14924,0.33334 0.33334,0.33334 l 2.66666,0 c 0.1841,0 0.33334,-0.14924 0.33334,-0.33334 0,-0.1841 -0.14924,-0.33332 -0.33334,-0.33332 l -0.66667,0 0,-1.05209 c 2.07752,-0.31997 3.66667,-2.11419 3.66667,-4.28125 0,-0.27615 -0.22386,-0.50001 -0.5,-0.50001 -0.27615,0 -0.50001,0.22386 -0.50001,0.50001 0,1.84095 -1.49236,3.33333 -3.33332,3.33333 -0.11508,0 -0.23168,-0.01 -0.34375,-0.0208 -0.11201,-0.0112 -0.21441,-0.0299 -0.32291,-0.0521 -1.51895,-0.3108 -2.66667,-1.64957 -2.66667,-3.26041 0,-0.27615 -0.22386,-0.50001 -0.5,-0.50001 z"
         id="path4127" />
      <g
         id="g3852"
         transform="matrix(1.7391304,0,0,1.7391304,-471.65216,15.130437)">
        <path
           transform="matrix(1.3188406,0,0,1.3188406,267.61594,-11.978262)"
           d="m 100,70.5 a 34.5,34.5 0 1 1 -69,0 34.5,34.5 0 1 1 69,0 z"
           sodipodi:ry="34.5"
           sodipodi:rx="34.5"
           sodipodi:cy="70.5"
           sodipodi:cx="65.5"
           id="path9391"
           style="fill:none;stroke:#ffffff;stroke-width:0.87197804;stroke-linecap:round;stroke-linejoin:round;stroke-miterlimit:4;stroke-opacity:1;stroke-dasharray:none;stroke-dashoffset:0"
           sodipodi:type="arc" />
        <path
           sodipodi:type="arc"
           style="fill:none;stroke:#ffffff;stroke-width:1.18432844;stroke-linecap:round;stroke-linejoin:round;stroke-miterlimit:4;stroke-opacity:1;stroke-dasharray:none;stroke-dashoffset:0"
           id="path9393"
           sodipodi:cx="65.5"
           sodipodi:cy="70.5"
           sodipodi:rx="34.5"
           sodipodi:ry="34.5"
           d="m 100,70.5 a 34.5,34.5 0 1 1 -69,0 34.5,34.5 0 1 1 69,0 z"
           transform="matrix(0.97101449,0,0,0.97101449,290.39855,12.543238)" />
        <path
           id="path14921"
           d="m 354,59.999998 c -4.41828,0 -8,3.58172 -8,8 l 6,0 c 0.55228,0 1,0.447715 1,1 0,0.552285 -0.44772,1 -1,1 l -6,0 0,2 6,0 c 0.55228,0 1,0.44772 1,1 0,0.55229 -0.44772,1 -1,1 l -6,0 0,2 6,0 c 0.55228,0 1,0.44772 1,1 0,0.55229 -0.44772,1 -1,1 l -6,0 0,2 6,0 c 0.55228,0 1,0.44772 1,1 0,0.55229 -0.44772,1 -1,1 l -6,0 0,2 c 0,4.41828 3.58172,8 8,8 4.41828,0 8,-3.58172 8,-8 l 0,-2 -6,0 c -0.55229,0 -1,-0.44771 -1,-1 0,-0.55228 0.44771,-1 1,-1 l 6,0 0,-2 -6,0 c -0.55229,0 -1,-0.44771 -1,-1 0,-0.55228 0.44771,-1 1,-1 l 6,0 0,-2 -6,0 c -0.55229,0 -1,-0.44771 -1,-1 0,-0.55228 0.44771,-1 1,-1 l 6,0 0,-2 -6,0 c -0.55229,0 -1,-0.44771 -1,-1 0,-0.55228 0.44771,-1 1,-1 l 6,0 c 0,-4.41828 -3.58172,-8 -8,-8 z m -11.5,22.5 c -0.82842,0 -1.5,0.67158 -1.5,1.5 0,6.50122 4.76746,11.88385 11,12.84375 l 0,3.15625 -2,0 c -0.55229,0 -1,0.447702 -1,1.000002 0,0.5523 0.44771,1 1,1 l 8,0 c 0.55228,0 1,-0.4477 1,-1 0,-0.5523 -0.44772,-1.000002 -1,-1.000002 l -2,0 0,-3.15625 c 6.23254,-0.9599 11,-6.34253 11,-12.84375 0,-0.82842 -0.67158,-1.5 -1.5,-1.5 -0.82842,0 -1.5,0.67158 -1.5,1.5 0,5.52285 -4.47715,10 -10,10 -0.34518,0 -0.69508,-0.0285 -1.03125,-0.0625 -0.33617,-0.034 -0.64326,-0.08995 -0.96875,-0.15625 -4.55683,-0.9324 -8,-4.94876 -8,-9.78125 0,-0.82842 -0.67158,-1.5 -1.5,-1.5 z"
           style="fill:#ffffff;fill-opacity:1;fill-rule:nonzero;stroke:none"
           inkscape:connector-curvature="0" />
      </g>
      <g
         transform="matrix(0.65111231,0,0,0.65111231,105.50624,23.259903)"
         id="g3857">
        <path
           sodipodi:type="arc"
           style="fill:none;stroke:#ffffff;stroke-width:1.16453296;stroke-linecap:round;stroke-linejoin:round;stroke-miterlimit:4;stroke-opacity:1;stroke-dasharray:none;stroke-dashoffset:0"
           id="path3859"
           sodipodi:cx="65.5"
           sodipodi:cy="70.5"
           sodipodi:rx="34.5"
           sodipodi:ry="34.5"
           d="M 100,70.5 C 100,89.553824 84.553824,105 65.5,105 46.446176,105 31,89.553824 31,70.5 31,51.446176 46.446176,36 65.5,36 84.553824,36 100,51.446176 100,70.5 z"
           transform="matrix(1.3188406,0,0,1.3188406,267.61594,-11.978262)" />
        <path
           transform="matrix(0.97101449,0,0,0.97101449,290.39855,12.543238)"
           d="M 100,70.5 C 100,89.553824 84.553824,105 65.5,105 46.446176,105 31,89.553824 31,70.5 31,51.446176 46.446176,36 65.5,36 84.553824,36 100,51.446176 100,70.5 z"
           sodipodi:ry="34.5"
           sodipodi:rx="34.5"
           sodipodi:cy="70.5"
           sodipodi:cx="65.5"
           id="path3861"
           style="fill:none;stroke:#ffffff;stroke-width:1.58167913;stroke-linecap:round;stroke-linejoin:round;stroke-miterlimit:4;stroke-opacity:1;stroke-dasharray:none;stroke-dashoffset:0"
           sodipodi:type="arc" />
        <path
           inkscape:connector-curvature="0"
           style="fill:#ffffff;fill-opacity:1;fill-rule:nonzero;stroke:none"
           d="m 354,59.999998 c -4.41828,0 -8,3.58172 -8,8 l 6,0 c 0.55228,0 1,0.447715 1,1 0,0.552285 -0.44772,1 -1,1 l -6,0 0,2 6,0 c 0.55228,0 1,0.44772 1,1 0,0.55229 -0.44772,1 -1,1 l -6,0 0,2 6,0 c 0.55228,0 1,0.44772 1,1 0,0.55229 -0.44772,1 -1,1 l -6,0 0,2 6,0 c 0.55228,0 1,0.44772 1,1 0,0.55229 -0.44772,1 -1,1 l -6,0 0,2 c 0,4.41828 3.58172,8 8,8 4.41828,0 8,-3.58172 8,-8 l 0,-2 -6,0 c -0.55229,0 -1,-0.44771 -1,-1 0,-0.55228 0.44771,-1 1,-1 l 6,0 0,-2 -6,0 c -0.55229,0 -1,-0.44771 -1,-1 0,-0.55228 0.44771,-1 1,-1 l 6,0 0,-2 -6,0 c -0.55229,0 -1,-0.44771 -1,-1 0,-0.55228 0.44771,-1 1,-1 l 6,0 0,-2 -6,0 c -0.55229,0 -1,-0.44771 -1,-1 0,-0.55228 0.44771,-1 1,-1 l 6,0 c 0,-4.41828 -3.58172,-8 -8,-8 z m -11.5,22.5 c -0.82842,0 -1.5,0.67158 -1.5,1.5 0,6.50122 4.76746,11.88385 11,12.84375 l 0,3.15625 -2,0 c -0.55229,0 -1,0.447702 -1,1.000002 0,0.5523 0.44771,1 1,1 l 8,0 c 0.55228,0 1,-0.4477 1,-1 0,-0.5523 -0.44772,-1.000002 -1,-1.000002 l -2,0 0,-3.15625 c 6.23254,-0.9599 11,-6.34253 11,-12.84375 0,-0.82842 -0.67158,-1.5 -1.5,-1.5 -0.82842,0 -1.5,0.67158 -1.5,1.5 0,5.52285 -4.47715,10 -10,10 -0.34518,0 -0.69508,-0.0285 -1.03125,-0.0625 -0.33617,-0.034 -0.64326,-0.08995 -0.96875,-0.15625 -4.55683,-0.9324 -8,-4.94876 -8,-9.78125 0,-0.82842 -0.67158,-1.5 -1.5,-1.5 z"
           id="path3863" />
      </g>
      <g
         id="g3865"
         transform="matrix(0.43226497,0,0,0.43226497,166.9782,136.98654)">
        <path
           transform="matrix(1.3188406,0,0,1.3188406,267.61594,-11.978262)"
           d="M 100,70.5 C 100,89.553824 84.553824,105 65.5,105 46.446176,105 31,89.553824 31,70.5 31,51.446176 46.446176,36 65.5,36 84.553824,36 100,51.446176 100,70.5 z"
           sodipodi:ry="34.5"
           sodipodi:rx="34.5"
           sodipodi:cy="70.5"
           sodipodi:cx="65.5"
           id="path3867"
           style="fill:none;stroke:#ffffff;stroke-width:1.75411344;stroke-linecap:round;stroke-linejoin:round;stroke-miterlimit:4;stroke-opacity:1;stroke-dasharray:none;stroke-dashoffset:0"
           sodipodi:type="arc" />
        <path
           sodipodi:type="arc"
           style="fill:none;stroke:#ffffff;stroke-width:2.38245249;stroke-linecap:round;stroke-linejoin:round;stroke-miterlimit:4;stroke-opacity:1;stroke-dasharray:none;stroke-dashoffset:0"
           id="path3869"
           sodipodi:cx="65.5"
           sodipodi:cy="70.5"
           sodipodi:rx="34.5"
           sodipodi:ry="34.5"
           d="M 100,70.5 C 100,89.553824 84.553824,105 65.5,105 46.446176,105 31,89.553824 31,70.5 31,51.446176 46.446176,36 65.5,36 84.553824,36 100,51.446176 100,70.5 z"
           transform="matrix(0.97101449,0,0,0.97101449,290.39855,12.543238)" />
        <path
           id="path3871"
           d="m 354,59.999998 c -4.41828,0 -8,3.58172 -8,8 l 6,0 c 0.55228,0 1,0.447715 1,1 0,0.552285 -0.44772,1 -1,1 l -6,0 0,2 6,0 c 0.55228,0 1,0.44772 1,1 0,0.55229 -0.44772,1 -1,1 l -6,0 0,2 6,0 c 0.55228,0 1,0.44772 1,1 0,0.55229 -0.44772,1 -1,1 l -6,0 0,2 6,0 c 0.55228,0 1,0.44772 1,1 0,0.55229 -0.44772,1 -1,1 l -6,0 0,2 c 0,4.41828 3.58172,8 8,8 4.41828,0 8,-3.58172 8,-8 l 0,-2 -6,0 c -0.55229,0 -1,-0.44771 -1,-1 0,-0.55228 0.44771,-1 1,-1 l 6,0 0,-2 -6,0 c -0.55229,0 -1,-0.44771 -1,-1 0,-0.55228 0.44771,-1 1,-1 l 6,0 0,-2 -6,0 c -0.55229,0 -1,-0.44771 -1,-1 0,-0.55228 0.44771,-1 1,-1 l 6,0 0,-2 -6,0 c -0.55229,0 -1,-0.44771 -1,-1 0,-0.55228 0.44771,-1 1,-1 l 6,0 c 0,-4.41828 -3.58172,-8 -8,-8 z m -11.5,22.5 c -0.82842,0 -1.5,0.67158 -1.5,1.5 0,6.50122 4.76746,11.88385 11,12.84375 l 0,3.15625 -2,0 c -0.55229,0 -1,0.447702 -1,1.000002 0,0.5523 0.44771,1 1,1 l 8,0 c 0.55228,0 1,-0.4477 1,-1 0,-0.5523 -0.44772,-1.000002 -1,-1.000002 l -2,0 0,-3.15625 c 6.23254,-0.9599 11,-6.34253 11,-12.84375 0,-0.82842 -0.67158,-1.5 -1.5,-1.5 -0.82842,0 -1.5,0.67158 -1.5,1.5 0,5.52285 -4.47715,10 -10,10 -0.34518,0 -0.69508,-0.0285 -1.03125,-0.0625 -0.33617,-0.034 -0.64326,-0.08995 -0.96875,-0.15625 -4.55683,-0.9324 -8,-4.94876 -8,-9.78125 0,-0.82842 -0.67158,-1.5 -1.5,-1.5 z"
           style="fill:#ffffff;fill-opacity:1;fill-rule:nonzero;stroke:none"
           inkscape:connector-curvature="0" />
      </g>
      <g
         transform="matrix(0.34293039,0,0,0.34293039,190.60264,216.22264)"
         id="g3873">
        <path
           sodipodi:type="arc"
           style="fill:none;stroke:#ffffff;stroke-width:2.21106625;stroke-linecap:round;stroke-linejoin:round;stroke-miterlimit:4;stroke-opacity:1;stroke-dasharray:none;stroke-dashoffset:0"
           id="path3875"
           sodipodi:cx="65.5"
           sodipodi:cy="70.5"
           sodipodi:rx="34.5"
           sodipodi:ry="34.5"
           d="M 100,70.5 C 100,89.553824 84.553824,105 65.5,105 46.446176,105 31,89.553824 31,70.5 31,51.446176 46.446176,36 65.5,36 84.553824,36 100,51.446176 100,70.5 z"
           transform="matrix(1.3188406,0,0,1.3188406,267.61594,-11.978262)" />
        <path
           transform="matrix(0.97101449,0,0,0.97101449,290.39855,12.543238)"
           d="M 100,70.5 C 100,89.553824 84.553824,105 65.5,105 46.446176,105 31,89.553824 31,70.5 31,51.446176 46.446176,36 65.5,36 84.553824,36 100,51.446176 100,70.5 z"
           sodipodi:ry="34.5"
           sodipodi:rx="34.5"
           sodipodi:cy="70.5"
           sodipodi:cx="65.5"
           id="path3877"
           style="fill:none;stroke:#ffffff;stroke-width:3.00308967;stroke-linecap:round;stroke-linejoin:round;stroke-miterlimit:4;stroke-opacity:1;stroke-dasharray:none;stroke-dashoffset:0"
           sodipodi:type="arc" />
        <path
           inkscape:connector-curvature="0"
           style="fill:#ffffff;fill-opacity:1;fill-rule:nonzero;stroke:none"
           d="m 354,59.999998 c -4.41828,0 -8,3.58172 -8,8 l 6,0 c 0.55228,0 1,0.447715 1,1 0,0.552285 -0.44772,1 -1,1 l -6,0 0,2 6,0 c 0.55228,0 1,0.44772 1,1 0,0.55229 -0.44772,1 -1,1 l -6,0 0,2 6,0 c 0.55228,0 1,0.44772 1,1 0,0.55229 -0.44772,1 -1,1 l -6,0 0,2 6,0 c 0.55228,0 1,0.44772 1,1 0,0.55229 -0.44772,1 -1,1 l -6,0 0,2 c 0,4.41828 3.58172,8 8,8 4.41828,0 8,-3.58172 8,-8 l 0,-2 -6,0 c -0.55229,0 -1,-0.44771 -1,-1 0,-0.55228 0.44771,-1 1,-1 l 6,0 0,-2 -6,0 c -0.55229,0 -1,-0.44771 -1,-1 0,-0.55228 0.44771,-1 1,-1 l 6,0 0,-2 -6,0 c -0.55229,0 -1,-0.44771 -1,-1 0,-0.55228 0.44771,-1 1,-1 l 6,0 0,-2 -6,0 c -0.55229,0 -1,-0.44771 -1,-1 0,-0.55228 0.44771,-1 1,-1 l 6,0 c 0,-4.41828 -3.58172,-8 -8,-8 z m -11.5,22.5 c -0.82842,0 -1.5,0.67158 -1.5,1.5 0,6.50122 4.76746,11.88385 11,12.84375 l 0,3.15625 -2,0 c -0.55229,0 -1,0.447702 -1,1.000002 0,0.5523 0.44771,1 1,1 l 8,0 c 0.55228,0 1,-0.4477 1,-1 0,-0.5523 -0.44772,-1.000002 -1,-1.000002 l -2,0 0,-3.15625 c 6.23254,-0.9599 11,-6.34253 11,-12.84375 0,-0.82842 -0.67158,-1.5 -1.5,-1.5 -0.82842,0 -1.5,0.67158 -1.5,1.5 0,5.52285 -4.47715,10 -10,10 -0.34518,0 -0.69508,-0.0285 -1.03125,-0.0625 -0.33617,-0.034 -0.64326,-0.08995 -0.96875,-0.15625 -4.55683,-0.9324 -8,-4.94876 -8,-9.78125 0,-0.82842 -0.67158,-1.5 -1.5,-1.5 z"
           id="path3879" />
      </g>
      <g
         style="display:inline;enable-background:new"
         id="g4017"
         transform="matrix(0.23774573,0,0,0.23774573,347.83801,48.742596)">
        <path
           transform="matrix(1.3188406,0,0,1.3188406,267.61594,-11.978262)"
           d="M 100,70.5 C 100,89.553824 84.553824,105 65.5,105 46.446176,105 31,89.553824 31,70.5 31,51.446176 46.446176,36 65.5,36 84.553824,36 100,51.446176 100,70.5 z"
           sodipodi:ry="34.5"
           sodipodi:rx="34.5"
           sodipodi:cy="70.5"
           sodipodi:cx="65.5"
           id="path4019"
           style="fill:none;stroke:#ffffff;stroke-width:3.1892972;stroke-linecap:round;stroke-linejoin:round;stroke-miterlimit:4;stroke-opacity:1;stroke-dasharray:none;stroke-dashoffset:0"
           sodipodi:type="arc" />
        <path
           sodipodi:type="arc"
           style="fill:none;stroke:#ffffff;stroke-width:4.3317318;stroke-linecap:round;stroke-linejoin:round;stroke-miterlimit:4;stroke-opacity:1;stroke-dasharray:none;stroke-dashoffset:0"
           id="path4021"
           sodipodi:cx="65.5"
           sodipodi:cy="70.5"
           sodipodi:rx="34.5"
           sodipodi:ry="34.5"
           d="M 100,70.5 C 100,89.553824 84.553824,105 65.5,105 46.446176,105 31,89.553824 31,70.5 31,51.446176 46.446176,36 65.5,36 84.553824,36 100,51.446176 100,70.5 z"
           transform="matrix(0.97101449,0,0,0.97101449,290.39855,12.543238)" />
        <path
           id="path4023"
           d="m 354.00001,59.969128 c -4.42477,0 -8.01176,3.586985 -8.01176,8.01176 l 6.00882,0 c 0.55309,0 1.00147,0.448374 1.00147,1.001471 0,0.553096 -0.44838,1.00147 -1.00147,1.00147 l -6.00882,0 0,2.00294 6.00882,0 c 0.55309,0 1.00147,0.448378 1.00147,1.00147 0,0.553102 -0.44838,1.00147 -1.00147,1.00147 l -6.00882,0 0,2.00294 6.00882,0 c 0.55309,0 1.00147,0.448378 1.00147,1.00147 0,0.553102 -0.44838,1.00147 -1.00147,1.00147 l -6.00882,0 0,2.00294 6.00882,0 c 0.55309,0 1.00147,0.448378 1.00147,1.00147 0,0.553102 -0.44838,1.00147 -1.00147,1.00147 l -6.00882,0 0,2.00294 c 0,4.424775 3.58699,8.011761 8.01176,8.011761 4.42478,0 8.01176,-3.586986 8.01176,-8.011761 l 0,-2.00294 -6.00882,0 c -0.5531,0 -1.00147,-0.448368 -1.00147,-1.00147 0,-0.553092 0.44837,-1.00147 1.00147,-1.00147 l 6.00882,0 0,-2.00294 -6.00882,0 c -0.5531,0 -1.00147,-0.448368 -1.00147,-1.00147 0,-0.553092 0.44837,-1.00147 1.00147,-1.00147 l 6.00882,0 0,-2.00294 -6.00882,0 c -0.5531,0 -1.00147,-0.448368 -1.00147,-1.00147 0,-0.553092 0.44837,-1.00147 1.00147,-1.00147 l 6.00882,0 0,-2.00294 -6.00882,0 c -0.5531,0 -1.00147,-0.448369 -1.00147,-1.00147 0,-0.553092 0.44837,-1.001471 1.00147,-1.001471 l 6.00882,0 c 0,-4.424775 -3.58698,-8.01176 -8.01176,-8.01176 z m -11.5169,22.533076 c -0.82964,0 -1.50221,0.672567 -1.50221,1.502205 0,6.510777 4.77447,11.90132 11.01617,12.862631 l 0,3.16089 -2.00294,0 c -0.5531,0 -1.00147,0.44836 -1.00147,1.00147 0,0.55311 0.44837,1.00147 1.00147,1.00147 l 8.01176,0 c 0.55309,0 1.00147,-0.44836 1.00147,-1.00147 0,-0.55311 -0.44838,-1.00147 -1.00147,-1.00147 l -2.00294,0 0,-3.16089 c 6.2417,-0.961311 11.01617,-6.351854 11.01617,-12.862631 0,-0.829638 -0.67257,-1.502205 -1.5022,-1.502205 -0.82964,0 -1.50221,0.672567 -1.50221,1.502205 0,5.530969 -4.48373,10.014701 -10.0147,10.014701 -0.34569,0 -0.6961,-0.02854 -1.03277,-0.06259 -0.33666,-0.03405 -0.6442,-0.09008 -0.97017,-0.15648 -4.56353,-0.933771 -8.01176,-4.956035 -8.01176,-9.795629 0,-0.829638 -0.67257,-1.502205 -1.5022,-1.502205 z"
           style="fill:#ffffff;fill-opacity:1;fill-rule:nonzero;stroke:none"
           inkscape:connector-curvature="0" />
      </g>
      <path
         inkscape:connector-curvature="0"
         style="fill:#ffffff;fill-opacity:1;fill-rule:nonzero;stroke:none;display:inline;enable-background:new"
         d="m 424,143 c -1.05197,0 -1.90476,0.85279 -1.90476,1.90476 l 1.42857,0 c 0.1315,0 0.2381,0.1066 0.2381,0.2381 0,0.13149 -0.1066,0.23809 -0.2381,0.23809 l -1.42857,0 0,0.47619 1.42857,0 c 0.1315,0 0.2381,0.1066 0.2381,0.2381 0,0.1315 -0.1066,0.23809 -0.2381,0.23809 l -1.42857,0 0,0.47619 1.42857,0 c 0.1315,0 0.2381,0.1066 0.2381,0.2381 0,0.1315 -0.1066,0.23809 -0.2381,0.23809 l -1.42857,0 0,0.47619 1.42857,0 c 0.1315,0 0.2381,0.1066 0.2381,0.2381 0,0.1315 -0.1066,0.23809 -0.2381,0.23809 l -1.42857,0 0,0.4762 c 0,1.05197 0.85279,1.90476 1.90476,1.90476 1.05197,0 1.90476,-0.85279 1.90476,-1.90476 l 0,-0.4762 -1.42857,0 c -0.1315,0 -0.23809,-0.10659 -0.23809,-0.23809 0,-0.1315 0.10659,-0.2381 0.23809,-0.2381 l 1.42857,0 0,-0.47619 -1.42857,0 c -0.1315,0 -0.23809,-0.10659 -0.23809,-0.23809 0,-0.1315 0.10659,-0.2381 0.23809,-0.2381 l 1.42857,0 0,-0.47619 -1.42857,0 c -0.1315,0 -0.23809,-0.10659 -0.23809,-0.23809 0,-0.1315 0.10659,-0.2381 0.23809,-0.2381 l 1.42857,0 0,-0.47619 -1.42857,0 c -0.1315,0 -0.23809,-0.1066 -0.23809,-0.23809 0,-0.1315 0.10659,-0.2381 0.23809,-0.2381 l 1.42857,0 C 425.90476,143.85279 425.05197,143 424,143 z m -2.73809,5.35714 c -0.19725,0 -0.35715,0.1599 -0.35715,0.35715 0,1.5479 1.13511,2.82948 2.61905,3.05803 l 0,0.75149 -0.47619,0 c -0.1315,0 -0.2381,0.10659 -0.2381,0.23809 0,0.1315 0.1066,0.2381 0.2381,0.2381 l 1.90476,0 c 0.1315,0 0.2381,-0.1066 0.2381,-0.2381 0,-0.1315 -0.1066,-0.23809 -0.2381,-0.23809 l -0.47619,0 0,-0.75149 c 1.48394,-0.22855 2.61905,-1.51013 2.61905,-3.05803 0,-0.19725 -0.1599,-0.35715 -0.35714,-0.35715 -0.19725,0 -0.35715,0.1599 -0.35715,0.35715 0,1.31496 -1.06598,2.38095 -2.38095,2.38095 -0.0822,0 -0.16549,-0.007 -0.24554,-0.0149 -0.08,-0.008 -0.15315,-0.0214 -0.23065,-0.0372 -1.08496,-0.222 -1.90476,-1.17827 -1.90476,-2.32886 0,-0.19725 -0.1599,-0.35715 -0.35714,-0.35715 z"
         id="path4063" />
      <path
         id="path4083"
         d="m 427.99999,105 c -1.47275,0 -2.66666,1.1939 -2.66666,2.66667 l 2,0 c 0.1841,0 0.33334,0.14924 0.33334,0.33334 0,0.18408 -0.14924,0.33332 -0.33334,0.33332 l -2,0 0,0.66666 2,0 c 0.1841,0 0.33334,0.14924 0.33334,0.33334 0,0.1841 -0.14924,0.33333 -0.33334,0.33333 l -2,0 0,0.66667 2,0 c 0.1841,0 0.33334,0.14924 0.33334,0.33334 0,0.1841 -0.14924,0.33333 -0.33334,0.33333 l -2,0 0,0.66666 2,0 c 0.1841,0 0.33334,0.14924 0.33334,0.33334 0,0.1841 -0.14924,0.33332 -0.33334,0.33332 l -2,0 0,0.66668 c 0,1.47277 1.19391,2.66667 2.66666,2.66667 1.47277,0 2.66667,-1.1939 2.66667,-2.66667 l 0,-0.66668 -2,0 c -0.1841,0 -0.33333,-0.14922 -0.33333,-0.33332 0,-0.1841 0.14923,-0.33334 0.33333,-0.33334 l 2,0 0,-0.66666 -2,0 c -0.1841,0 -0.33333,-0.14923 -0.33333,-0.33333 0,-0.1841 0.14923,-0.33334 0.33333,-0.33334 l 2,0 0,-0.66667 -2,0 c -0.1841,0 -0.33333,-0.14923 -0.33333,-0.33333 0,-0.1841 0.14923,-0.33334 0.33333,-0.33334 l 2,0 0,-0.66666 -2,0 c -0.1841,0 -0.33333,-0.14924 -0.33333,-0.33332 0,-0.1841 0.14923,-0.33334 0.33333,-0.33334 l 2,0 c 0,-1.47277 -1.1939,-2.66667 -2.66667,-2.66667 z m -3.83332,7.49999 c -0.27615,0 -0.50001,0.22386 -0.50001,0.50001 0,2.16706 1.58916,3.96128 3.66667,4.28125 l 0,1.05209 -0.66666,0 c -0.1841,0 -0.33334,0.14922 -0.33334,0.33332 0,0.1841 0.14924,0.33334 0.33334,0.33334 l 2.66666,0 c 0.1841,0 0.33334,-0.14924 0.33334,-0.33334 0,-0.1841 -0.14924,-0.33332 -0.33334,-0.33332 l -0.66667,0 0,-1.05209 c 2.07752,-0.31997 3.66667,-2.11419 3.66667,-4.28125 0,-0.27615 -0.22386,-0.50001 -0.5,-0.50001 -0.27615,0 -0.50001,0.22386 -0.50001,0.50001 0,1.84095 -1.49236,3.33333 -3.33332,3.33333 -0.11508,0 -0.23168,-0.01 -0.34375,-0.0208 -0.11201,-0.0112 -0.21441,-0.0299 -0.32291,-0.0521 -1.51895,-0.3108 -2.66667,-1.64957 -2.66667,-3.26041 0,-0.27615 -0.22386,-0.50001 -0.5,-0.50001 z"
         style="fill:#ffffff;fill-opacity:1;fill-rule:nonzero;stroke:none;display:inline;enable-background:new"
         inkscape:connector-curvature="0" />
    </g>
    <g
       inkscape:groupmode="layer"
       id="layer5"
       inkscape:label="Highlights"
       style="display:inline"
       sodipodi:insensitive="true">
      <rect
         ry="9"
         y="307"
         x="-265"
         height="42"
         width="42"
         id="rect4884"
         style="color:#bebebe;display:inline;overflow:visible;visibility:visible;opacity:0.20;fill:none;stroke:#000000;stroke-width:2;stroke-miterlimit:4;stroke-dasharray:none;stroke-opacity:1;marker:none;enable-background:accumulate"
         transform="matrix(0,1,1,0,-16,488)"
         clip-path="url(#clipPath4891)" />
      <rect
         style="color:#bebebe;display:inline;overflow:visible;visibility:visible;opacity:0.20;fill:none;stroke:#000000;stroke-width:2;stroke-miterlimit:4;stroke-dasharray:none;stroke-opacity:1;marker:none;enable-background:accumulate"
         id="rect5311"
         width="16"
         height="16"
         x="-228"
         y="304"
         ry="3"
         clip-path="url(#clipPath3855)"
         transform="matrix(0,-1,1,0,112,-72)" />
      <rect
         ry="50"
         y="46"
         x="34"
         height="220"
         width="220"
         id="rect3858"
         style="color:#bebebe;display:inline;overflow:visible;visibility:visible;opacity:0.20;fill:none;stroke:#000000;stroke-width:2;stroke-miterlimit:4;stroke-dasharray:none;stroke-opacity:1;marker:none;enable-background:accumulate"
         clip-path="url(#clipPath3862)" />
      <rect
         ry="12.5"
         y="142"
         x="290"
         height="60"
         width="60"
         id="rect4175"
         style="color:#bebebe;display:inline;overflow:visible;visibility:visible;opacity:0.20;fill:none;stroke:#000000;stroke-width:2;stroke-miterlimit:4;stroke-dasharray:none;stroke-opacity:1;marker:none;enable-background:accumulate"
         clip-path="url(#clipPath4187)" />
      <rect
         style="color:#bebebe;display:inline;overflow:visible;visibility:visible;opacity:0.20;fill:none;stroke:#000000;stroke-width:2;stroke-miterlimit:4;stroke-dasharray:none;stroke-opacity:1;marker:none;enable-background:accumulate"
         id="rect4342"
         width="88"
         height="88"
         x="292"
         y="32"
         ry="18"
         clip-path="url(#clipPath4346)" />
      <rect
         ry="5"
         y="101"
         x="417"
         height="22"
         width="22"
         id="rect3866"
         style="color:#bebebe;display:inline;overflow:visible;visibility:visible;opacity:0.20;fill:none;stroke:#000000;stroke-width:2;stroke-miterlimit:4;stroke-dasharray:none;stroke-opacity:1;marker:none;enable-background:accumulate"
         clip-path="url(#clipPath3871)" />
      <rect
         style="color:#bebebe;display:inline;overflow:visible;visibility:visible;opacity:0.20;fill:none;stroke:#000000;stroke-width:2;stroke-miterlimit:4;stroke-dasharray:none;stroke-opacity:1;marker:none;enable-background:accumulate"
         id="rect3877"
         width="30"
         height="30"
         x="417"
         y="53"
         ry="7"
         clip-path="url(#clipPath3881)" />
    </g>
  </g>
</svg>
