<?xml version="1.0" encoding="UTF-8" standalone="no"?>
<!-- Created with Inkscape (http://www.inkscape.org/) -->

<svg
   xmlns:dc="http://purl.org/dc/elements/1.1/"
   xmlns:cc="http://creativecommons.org/ns#"
   xmlns:rdf="http://www.w3.org/1999/02/22-rdf-syntax-ns#"
   xmlns:svg="http://www.w3.org/2000/svg"
   xmlns="http://www.w3.org/2000/svg"
   xmlns:xlink="http://www.w3.org/1999/xlink"
   xmlns:sodipodi="http://sodipodi.sourceforge.net/DTD/sodipodi-0.dtd"
   xmlns:inkscape="http://www.inkscape.org/namespaces/inkscape"
   inkscape:export-ydpi="90.000000"
   inkscape:export-xdpi="90.000000"
   width="480"
   height="300"
   id="svg11300"
   sodipodi:version="0.32"
   inkscape:version="0.48.4 r9939"
   sodipodi:docname="oxygen.svg"
   inkscape:output_extension="org.inkscape.output.svg.inkscape"
   version="1.0"
   style="display:inline;enable-background:new"
   inkscape:export-filename="/home/sam/moka-next-template.png">
  <sodipodi:namedview
     stroke="#ef2929"
     fill="#f57900"
     id="base"
     pagecolor="#777777"
     bordercolor="#666666"
     borderopacity="0.25490196"
     inkscape:pageopacity="0"
     inkscape:pageshadow="2"
     inkscape:zoom="1"
     inkscape:cx="27.65027"
     inkscape:cy="67.664413"
     inkscape:current-layer="layer7"
     showgrid="false"
     inkscape:grid-bbox="true"
     inkscape:document-units="px"
     inkscape:showpageshadow="false"
     inkscape:window-width="1364"
     inkscape:window-height="700"
     inkscape:window-x="0"
     inkscape:window-y="28"
     width="400px"
     height="300px"
     inkscape:snap-nodes="true"
     inkscape:snap-bbox="true"
     gridtolerance="10000"
     inkscape:object-nodes="true"
     inkscape:snap-grids="true"
     showguides="true"
     inkscape:guide-bbox="true"
     inkscape:window-maximized="1"
     inkscape:bbox-nodes="true"
     inkscape:bbox-paths="true"
     inkscape:snap-bbox-edge-midpoints="true"
     inkscape:snap-bbox-midpoints="true">
    <inkscape:grid
       spacingy="1px"
       spacingx="1px"
       id="grid5883"
       type="xygrid"
       enabled="true"
       visible="true"
       empspacing="4"
       snapvisiblegridlinesonly="true"
       dotted="false"
       color="#000000"
       opacity="0.1254902"
       empcolor="#203ef3"
       empopacity="0.36470588" />
    <inkscape:grid
       type="xygrid"
       id="grid11592"
       empspacing="8"
       visible="true"
       enabled="false"
       spacingx="0.5px"
       spacingy="0.5px"
       color="#ff0000"
       opacity="0.1254902"
       empcolor="#ff0000"
       empopacity="0.25098039"
       snapvisiblegridlinesonly="true"
       dotted="true" />
  </sodipodi:namedview>
  <defs
     id="defs3">
    <linearGradient
       inkscape:collect="always"
       xlink:href="#outerBackgroundGradient-8"
       id="linearGradient4254"
       x1="35"
       y1="156"
       x2="253"
       y2="156"
       gradientUnits="userSpaceOnUse"
       gradientTransform="matrix(0,-1,1,0,-12,300)" />
    <linearGradient
       inkscape:collect="always"
       xlink:href="#outerBackgroundGradient-8"
       id="linearGradient4256"
       x1="417"
       y1="148"
       x2="431"
       y2="148"
       gradientUnits="userSpaceOnUse"
       gradientTransform="matrix(0,-1,1,0,276,572)" />
    <linearGradient
       inkscape:collect="always"
       xlink:href="#outerBackgroundGradient-8"
       id="linearGradient4260"
       x1="418"
       y1="68"
       x2="446"
       y2="68"
       gradientUnits="userSpaceOnUse"
       gradientTransform="matrix(0,-1,1,0,364,500)" />
    <linearGradient
       inkscape:collect="always"
       xlink:href="#outerBackgroundGradient-8"
       id="linearGradient4262"
       x1="292"
       y1="244"
       x2="332"
       y2="244"
       gradientUnits="userSpaceOnUse"
       gradientTransform="matrix(0,-1,1,0,68,556)" />
    <linearGradient
       inkscape:collect="always"
       xlink:href="#outerBackgroundGradient-8"
       id="linearGradient4264"
       x1="293"
       y1="76"
       x2="379"
       y2="76"
       gradientUnits="userSpaceOnUse"
       gradientTransform="matrix(0,-1,1,0,260,412)" />
    <linearGradient
       inkscape:collect="always"
       xlink:href="#outerBackgroundGradient-8"
       id="linearGradient4266"
       x1="291"
       y1="172"
       x2="349"
       y2="172"
       gradientUnits="userSpaceOnUse"
       gradientTransform="matrix(0,-1,1,0,148,492)" />
    <linearGradient
       inkscape:collect="always"
       xlink:href="#outerBackgroundGradient-8"
       id="linearGradient3870"
       gradientUnits="userSpaceOnUse"
       gradientTransform="matrix(0,-1,1,0,316,540)"
       x1="418"
       y1="112"
       x2="438"
       y2="112" />
    <linearGradient
       id="outerBackgroundGradient-8">
      <stop
         style="stop-color:#01448b;stop-opacity:1;"
         offset="0"
         id="stop3864-8-6-6" />
      <stop
         style="stop-color:#1155a1;stop-opacity:1;"
         offset="1"
         id="stop3866-9-1-9" />
    </linearGradient>
  </defs>
  <metadata
     id="metadata4">
    <rdf:RDF>
      <cc:Work
         rdf:about="">
        <dc:format>image/svg+xml</dc:format>
        <dc:type
           rdf:resource="http://purl.org/dc/dcmitype/StillImage" />
        <dc:creator>
          <cc:Agent>
            <dc:title>Sam Hewitt</dc:title>
          </cc:Agent>
        </dc:creator>
        <dc:source />
        <cc:license
           rdf:resource="" />
        <dc:title />
        <dc:subject>
          <rdf:Bag />
        </dc:subject>
        <dc:date />
        <dc:rights>
          <cc:Agent>
            <dc:title />
          </cc:Agent>
        </dc:rights>
        <dc:publisher>
          <cc:Agent>
            <dc:title />
          </cc:Agent>
        </dc:publisher>
        <dc:identifier />
        <dc:relation />
        <dc:language />
        <dc:coverage />
        <dc:description />
        <dc:contributor>
          <cc:Agent>
            <dc:title />
          </cc:Agent>
        </dc:contributor>
      </cc:Work>
      <cc:Work
         rdf:about="">
        <dc:format>image/svg+xml</dc:format>
        <dc:type
           rdf:resource="http://purl.org/dc/dcmitype/StillImage" />
      </cc:Work>
    </rdf:RDF>
  </metadata>
  <g
     style="display:inline"
     inkscape:groupmode="layer"
     inkscape:label="Icon"
     id="layer1">
    <g
       style="display:none"
       inkscape:label="Baseplate"
       id="layer7"
       inkscape:groupmode="layer">
      <text
         y="19.745117"
         xml:space="preserve"
         x="15.006836"
         style="font-style:normal;font-variant:normal;font-weight:normal;font-stretch:normal;line-height:0%;font-family:'DejaVu Sans';-inkscape-font-specification:'DejaVu Sans';display:inline;fill:#000000;fill-opacity:1;stroke:none;enable-background:new"
         inkscape:label="context"
         id="context"><tspan
           style="font-style:normal;font-variant:normal;font-weight:normal;font-stretch:normal;font-size:18px;line-height:1.25;font-family:'DejaVu Sans';-inkscape-font-specification:'DejaVu Sans'"
           y="19.745117"
           x="15.006836"
           sodipodi:role="line"
           id="tspan3933">apps</tspan></text>
      <text
         y="19.745117"
         xml:space="preserve"
         x="122.48828"
         style="font-style:normal;font-variant:normal;font-weight:bold;font-stretch:normal;line-height:0%;font-family:'DejaVu Sans';-inkscape-font-specification:'DejaVu Sans Bold';text-align:start;writing-mode:lr-tb;text-anchor:start;display:inline;fill:#000000;fill-opacity:1;stroke:none;enable-background:new"
         inkscape:label="icon-name"
         id="icon-name"><tspan
           style="font-style:normal;font-variant:normal;font-weight:bold;font-stretch:normal;font-size:18px;line-height:1.25;font-family:'DejaVu Sans';-inkscape-font-specification:'DejaVu Sans Bold'"
           y="19.745117"
           x="122.48828"
           sodipodi:role="line"
           id="tspan3937">oxygen</tspan></text>
      <rect
         style="fill:#eeeeec;fill-opacity:1;fill-rule:nonzero;stroke:none;stroke-width:2;marker:none;visibility:visible;display:inline;overflow:visible;enable-background:accumulate"
         id="rect16x16"
         width="16"
         height="16"
         x="416"
         y="140"
         inkscape:label="16x16" />
      <rect
         style="fill:#d4d4d4;fill-opacity:1;fill-rule:nonzero;stroke:none;stroke-width:2;marker:none;visibility:visible;display:inline;overflow:visible;enable-background:accumulate"
         id="rect24x24"
         width="24"
         height="24"
         x="416"
         y="100"
         inkscape:label="24x24" />
      <rect
         style="fill:#eeeeec;fill-opacity:1;fill-rule:nonzero;stroke:none;stroke-width:2;marker:none;visibility:visible;display:inline;overflow:visible;enable-background:accumulate"
         id="rect32x32"
         width="32"
         height="32"
         x="416"
         y="52"
         inkscape:label="32x32" />
      <rect
         inkscape:label="22x22"
         y="101"
         x="417"
         height="22"
         width="22"
         id="rect22x22"
         style="fill:#eeeeec;fill-opacity:1;fill-rule:nonzero;stroke:none;stroke-width:2;marker:none;visibility:visible;display:inline;overflow:visible;enable-background:accumulate" />
      <rect
         inkscape:label="48x48"
         y="220"
         x="288"
         height="48"
         width="48"
         id="rect48x48"
         style="fill:#eeeeec;fill-opacity:1;fill-rule:nonzero;stroke:none;stroke-width:2;marker:none;visibility:visible;display:inline;overflow:visible;enable-background:accumulate" />
      <rect
         style="fill:#eeeeec;fill-opacity:1;fill-rule:nonzero;stroke:none;stroke-width:2;marker:none;visibility:visible;display:inline;overflow:visible;enable-background:accumulate"
         id="rect256x256"
         width="256"
         height="256"
         x="16"
         y="28"
         inkscape:label="256x256" />
      <rect
         style="fill:#eeeeec;fill-opacity:1;fill-rule:nonzero;stroke:none;stroke-width:2;marker:none;visibility:visible;display:inline;overflow:visible;enable-background:accumulate"
         id="rect64x64"
         width="64"
         height="64"
         x="288"
         y="140"
         inkscape:label="64x64" />
      <rect
         style="fill:#eeeeec;fill-opacity:1;fill-rule:nonzero;stroke:none;stroke-width:2;marker:none;visibility:visible;display:inline;overflow:visible;enable-background:accumulate"
         id="rect96x96"
         width="96"
         height="96"
         x="288"
         y="28"
         inkscape:label="96x96" />
    </g>
    <g
       inkscape:groupmode="layer"
       id="layer4"
       inkscape:label="Shadow"
       style="display:inline"
       sodipodi:insensitive="true">
      <rect
         ry="50"
         y="47"
         x="34"
         height="220"
         width="220"
         id="rect4114"
         style="opacity:0.1;color:#bebebe;fill:#000000;fill-opacity:1;fill-rule:nonzero;stroke:none;stroke-width:0;marker:none;visibility:visible;display:inline;overflow:visible;enable-background:accumulate" />
      <rect
         style="opacity:0.1;color:#bebebe;fill:#000000;fill-opacity:1;fill-rule:nonzero;stroke:none;stroke-width:0;marker:none;visibility:visible;display:inline;overflow:visible;enable-background:accumulate"
         id="rect4120"
         width="30"
         height="30"
         x="417"
         y="54"
         ry="7" />
      <rect
         transform="scale(1,-1)"
         ry="9"
         y="-266"
         x="291"
         height="42"
         width="42"
         id="rect4122"
         style="opacity:0.1;color:#bebebe;fill:#000000;fill-opacity:1;fill-rule:nonzero;stroke:none;stroke-width:0;marker:none;visibility:visible;display:inline;overflow:visible;enable-background:accumulate" />
      <rect
         style="opacity:0.1;color:#bebebe;fill:#000000;fill-opacity:1;fill-rule:nonzero;stroke:none;stroke-width:0;marker:none;visibility:visible;display:inline;overflow:visible;enable-background:accumulate"
         id="rect4124"
         width="88"
         height="88"
         x="292"
         y="33"
         ry="18" />
      <rect
         ry="12.5"
         y="143"
         x="290"
         height="60"
         width="60"
         id="rect4126"
         style="opacity:0.1;color:#bebebe;fill:#000000;fill-opacity:1;fill-rule:nonzero;stroke:none;stroke-width:0;marker:none;visibility:visible;display:inline;overflow:visible;enable-background:accumulate" />
      <path
         id="path4268"
         d="m 422,101 c -2.77,0 -5,2.23 -5,5 l 0,12 c 0,2.77 2.23,5 5,5 l 12,0 c 2.77,0 5,-2.23 5,-5 l 0,-12 c 0,-2.77 -2.23,-5 -5,-5 z"
         style="opacity:0.1;color:#bebebe;fill:#000000;fill-opacity:1;fill-rule:nonzero;stroke:none;stroke-width:0;marker:none;visibility:visible;display:inline;overflow:visible;enable-background:accumulate"
         inkscape:connector-curvature="0"
         sodipodi:nodetypes="sssssssss" />
      <path
         id="path4270"
         d="m 419,140 c -1.662,0 -3,1.338 -3,3 l 0,10 c 0,1.662 1.338,3 3,3 l 10,0 c 1.662,0 3,-1.338 3,-3 l 0,-10 c 0,-1.662 -1.338,-3 -3,-3 z"
         style="opacity:0.1;color:#bebebe;fill:#000000;fill-opacity:1;fill-rule:nonzero;stroke:none;stroke-width:0;marker:none;visibility:visible;display:inline;overflow:visible;enable-background:accumulate"
         inkscape:connector-curvature="0"
         sodipodi:nodetypes="sssssssss" />
    </g>
    <g
       inkscape:groupmode="layer"
       id="layer2"
       inkscape:label="Background"
       style="display:inline">
      <path
         style="color:#bebebe;fill:url(#linearGradient4254);fill-opacity:1.0;fill-rule:nonzero;stroke:none;stroke-width:2;marker:none;visibility:visible;display:inline;overflow:visible;enable-background:accumulate"
         d="M 84 46.5 C 56.568735 46.5 34.5 68.568732 34.5 96 L 34.5 216 C 34.5 243.43127 56.568735 265.5 84 265.5 L 204 265.5 C 231.43127 265.5 253.5 243.43127 253.5 216 L 253.5 96 C 253.5 68.568732 231.43127 46.5 204 46.5 L 84 46.5 z "
         id="path4200" />
      <path
         style="color:#bebebe;fill:url(#linearGradient4256);fill-opacity:1.0;fill-rule:nonzero;stroke:none;stroke-width:2;marker:none;visibility:visible;display:inline;overflow:visible;enable-background:accumulate"
         d="M 419 140.5 C 417.6156 140.5 416.5 141.6156 416.5 143 L 416.5 153 C 416.5 154.3844 417.6156 155.5 419 155.5 L 429 155.5 C 430.3844 155.5 431.5 154.3844 431.5 153 L 431.5 143 C 431.5 141.6156 430.3844 140.5 429 140.5 L 419 140.5 z "
         id="path4202" />
      <path
         style="color:#bebebe;fill:url(#linearGradient3870);fill-opacity:1.0;fill-rule:nonzero;stroke:none;stroke-width:2;marker:none;visibility:visible;display:inline;overflow:visible;enable-background:accumulate"
         d="M 422 101.5 C 419.50301 101.5 417.5 103.50301 417.5 106 L 417.5 118 C 417.5 120.49699 419.50301 122.5 422 122.5 L 434 122.5 C 436.49699 122.5 438.5 120.49699 438.5 118 L 438.5 106 C 438.5 103.50301 436.49699 101.5 434 101.5 L 422 101.5 z "
         id="path4204" />
      <path
         style="color:#bebebe;fill:url(#linearGradient4260);fill-opacity:1.0;fill-rule:nonzero;stroke:none;stroke-width:2;marker:none;visibility:visible;display:inline;overflow:visible;enable-background:accumulate"
         d="M 424 53.5 C 420.39346 53.5 417.5 56.393464 417.5 60 L 417.5 76 C 417.5 79.606536 420.39346 82.5 424 82.5 L 440 82.5 C 443.60654 82.5 446.5 79.606536 446.5 76 L 446.5 60 C 446.5 56.393464 443.60654 53.5 440 53.5 L 424 53.5 z "
         id="path4206" />
      <path
         style="color:#bebebe;fill:url(#linearGradient4262);fill-opacity:1.0;fill-rule:nonzero;stroke:none;stroke-width:2;marker:none;visibility:visible;display:inline;overflow:visible;enable-background:accumulate"
         d="M 300 223.5 C 295.28469 223.5 291.5 227.28469 291.5 232 L 291.5 256 C 291.5 260.71531 295.28469 264.5 300 264.5 L 324 264.5 C 328.71531 264.5 332.5 260.71531 332.5 256 L 332.5 232 C 332.5 227.28469 328.71531 223.5 324 223.5 L 300 223.5 z "
         id="path4208" />
      <path
         style="color:#bebebe;fill:url(#linearGradient4264);fill-opacity:1.0;fill-rule:nonzero;stroke:none;stroke-width:2;marker:none;visibility:visible;display:inline;overflow:visible;enable-background:accumulate"
         d="M 310 32.5 C 300.29745 32.5 292.5 40.297452 292.5 50 L 292.5 102 C 292.5 111.70255 300.29745 119.5 310 119.5 L 362 119.5 C 371.70255 119.5 379.5 111.70255 379.5 102 L 379.5 50 C 379.5 40.297452 371.70255 32.5 362 32.5 L 310 32.5 z "
         id="path4210" />
      <path
         style="color:#bebebe;fill:url(#linearGradient4266);fill-opacity:1.0;fill-rule:nonzero;stroke:none;stroke-width:2;marker:none;visibility:visible;display:inline;overflow:visible;enable-background:accumulate"
         d="M 302.5 142.5 C 295.84498 142.5 290.5 147.84498 290.5 154.5 L 290.5 189.5 C 290.5 196.15502 295.84498 201.5 302.5 201.5 L 337.5 201.5 C 344.15502 201.5 349.5 196.15502 349.5 189.5 L 349.5 154.5 C 349.5 147.84498 344.15502 142.5 337.5 142.5 L 302.5 142.5 z "
         id="path4212" />
    </g>
    <g
       inkscape:groupmode="layer"
       id="layer6"
       inkscape:label="Symbols"
       style="display:inline">
      <path
         inkscape:connector-curvature="0"
         id="path3854"
         d="m 143.26119,87.738581 c -38.23433,6e-6 -69.261191,31.026859 -69.261191,69.261189 0,38.23434 31.026861,69.26119 69.261191,69.26119 38.23433,0 69.2612,-31.02686 69.2612,-69.26119 0,-11.83658 -2.996,-22.98943 -8.23781,-32.73908 -0.004,-0.009 0.004,-0.0263 0,-0.0353 0.0566,-0.52177 0.33398,-0.87693 0.45962,-1.0253 7.46877,-8.8188 10.68662,-22.96627 8.66207,-29.663164 -0.29493,-0.97558 -1.42372,-0.95762 -1.87383,-0.21213 -5.41148,8.962464 -13.23916,11.192574 -20.22328,12.409734 -0.32842,0.0572 -0.87599,0.14784 -1.48493,0 -0.0123,-0.0113 -0.0231,-0.0242 -0.0353,-0.0353 C 177.48909,94.535216 161.16561,87.738655 143.26115,87.738655 z m 0,17.995879 c 0.44225,0 0.86859,-0.0113 1.30815,0 27.69296,0.70238 49.95716,23.4041 49.95716,51.26531 0,28.30346 -22.96184,51.26529 -51.26531,51.2653 -28.30346,0 -51.265303,-22.96184 -51.265303,-51.2653 0,-28.30346 22.961833,-51.26531 51.265303,-51.26531 z m -37.01708,42.92144 c -2.86073,0 -5.16189,3.81268 -5.16189,8.52064 0,4.70796 2.30115,8.52065 5.16189,8.52065 2.86073,0 5.19724,-3.8127 5.19724,-8.52065 1e-5,-4.70795 -2.33653,-8.52063 -5.19724,-8.52064 z m 44.86597,0.24748 c -2.86071,2e-5 -5.16188,3.68477 -5.16188,8.20245 0,4.5177 2.30117,8.1671 5.16188,8.1671 l 4.41943,-0.10601 0,-8.69743 -4.10122,0 0,1.94455 1.94454,0 0,4.41942 -2.26275,0.0353 c -1.30775,0 -2.36881,-2.51043 -2.36881,-5.72756 1e-5,-3.21714 1.06106,-5.83364 2.36881,-5.83364 l 3.2527,0 c 0.41214,-4.2e-4 0.52819,-0.252 0.53033,-0.49498 l 0,-1.30815 c 0.004,-0.43627 -0.24998,-0.60164 -0.49497,-0.60104 l -3.28806,0 z m -34.29471,0.0707 2.96984,8.20245 -2.96984,8.20245 2.51022,0 2.08598,-5.79829 2.08596,5.79829 2.47488,0 -2.9345,-8.20245 2.9345,-8.20245 -2.47488,0 -2.08596,5.79828 -2.08598,-5.79828 -2.51022,0 z m 14.56641,0 3.60625,8.90955 0,7.28321 2.47488,0 0,-7.28321 3.71232,-8.90955 -2.51024,0 -2.40416,5.869 -2.36881,-5.869 -2.51024,0 z m 31.07739,0 0,16.19276 0,0.0353 7.07107,0 0,-2.51022 -4.5962,0 0,-4.66692 3.99516,0 0,-2.51023 -3.99516,0 0,-4.03051 4.13658,0 0,-2.51023 -6.61145,0 z m 13.8593,0 0,16.19276 2.51024,0 0,-10.07628 4.13658,10.07628 2.47487,0 0,-16.19276 -2.47487,0 0,10.11163 -4.13658,-10.11163 -2.51024,0 z m -70.32185,2.29809 c 0.0796,-0.02 0.16575,0 0.24749,0 1.30776,0 2.36881,2.58708 2.36881,5.93971 0,3.35265 -1.06105,5.97506 -2.36881,5.97506 -1.30777,-1e-5 -2.36881,-2.62241 -2.36881,-5.97506 1e-5,-3.14308 0.92685,-5.64113 2.12132,-5.93971 z"
         style="opacity:0.2;fill:#000000;fill-opacity:1;fill-rule:evenodd;stroke:none;display:inline;enable-background:new" />
      <path
         style="opacity:0.2;fill:#000000;fill-opacity:1;fill-rule:evenodd;stroke:none;display:inline;enable-background:new"
         d="m 335.68336,47.316408 c -16.38613,0 -29.68336,13.29722 -29.68336,29.68336 0,16.38615 13.29723,29.683362 29.68336,29.683362 16.38615,0 29.68338,-13.297222 29.68338,-29.683362 0,-5.07282 -1.284,-9.85261 -3.53049,-14.03103 -0.002,-0.004 0.002,-0.0113 0,-0.0151 0.0242,-0.22361 0.14313,-0.37583 0.19698,-0.43941 3.2009,-3.77949 4.57998,-9.84269 3.71231,-12.71279 -0.1264,-0.4181 -0.61016,-0.41041 -0.80307,-0.0909 -2.3192,3.84106 -5.67392,4.79682 -8.66712,5.31846 -0.14075,0.0245 -0.37542,0.0634 -0.6364,0 -0.005,-0.005 -0.01,-0.0104 -0.0151,-0.0151 -5.27136,-4.78458 -12.26713,-7.69739 -19.94047,-7.69739 z m 0,7.71252 c 0.18954,0 0.37226,-0.005 0.56064,0 11.86841,0.30102 21.41021,10.03032 21.41021,21.97084 0,12.13006 -9.84079,21.97084 -21.97085,21.97085 -12.13005,0 -21.97084,-9.84079 -21.97084,-21.97085 0,-12.13005 9.84079,-21.97084 21.97084,-21.97084 z m -15.86446,18.3949 c -1.22602,0 -2.21223,1.63401 -2.21223,3.6517 0,2.0177 0.9862,3.65171 2.21223,3.65171 1.22603,0 2.22739,-1.63401 2.22739,-3.65171 10e-6,-2.01769 -1.00137,-3.6517 -2.22739,-3.6517 z m 19.22827,0.10606 c -1.22601,1e-5 -2.21223,1.57919 -2.21223,3.51534 0,1.93616 0.98622,3.50018 2.21223,3.50018 l 1.89405,-0.0454 0,-3.72747 -1.75767,0 0,0.83338 0.83337,0 0,1.89404 -0.96975,0.0151 c -0.56046,0 -1.0152,-1.0759 -1.0152,-2.45467 0,-1.37878 0.45474,-2.50013 1.0152,-2.50013 l 1.39402,0 c 0.17663,-1.8e-4 0.22637,-0.108 0.22728,-0.21214 l 0,-0.56063 c 0.002,-0.18698 -0.10713,-0.25785 -0.21213,-0.25759 l -1.40917,0 z m -14.69773,0.0303 1.27279,3.51534 -1.27279,3.51533 1.07581,0 0.89399,-2.48498 0.89399,2.48498 1.06066,0 -1.25764,-3.51533 1.25764,-3.51534 -1.06066,0 -0.89399,2.48498 -0.89399,-2.48498 -1.07581,0 z m 6.24275,0 1.54554,3.81838 0,3.12138 1.06066,0 0,-3.12138 1.59099,-3.81838 -1.07582,0 -1.03035,2.51529 -1.0152,-2.51529 -1.07582,0 z m 13.31888,0 0,6.93976 0,0.0151 3.03046,0 0,-1.07581 -1.9698,0 0,-2.00011 1.71221,0 0,-1.07581 -1.71221,0 0,-1.72737 1.77282,0 0,-1.07581 -2.83348,0 z m 5.9397,0 0,6.93976 1.07582,0 0,-4.31841 1.77282,4.31841 1.06066,0 0,-6.93976 -1.06066,0 0,4.33356 -1.77282,-4.33356 -1.07582,0 z m -30.13793,0.9849 c 0.0341,-0.009 0.071,0 0.10606,0 0.56047,0 1.01521,1.10875 1.01521,2.54559 0,1.43685 -0.45474,2.56074 -1.01521,2.56074 -0.56047,-1e-5 -1.0152,-1.12389 -1.0152,-2.56074 0,-1.34704 0.39722,-2.41763 0.90914,-2.54559 z"
         id="path3856"
         inkscape:connector-curvature="0" />
      <path
         inkscape:connector-curvature="0"
         id="path3858"
         d="m 319.78891,153.21086 c -10.92409,0 -19.78891,8.86482 -19.78891,19.78891 0,10.9241 8.86482,19.78891 19.78891,19.78891 10.9241,0 19.78892,-8.86482 19.78892,-19.78891 0,-3.38188 -0.856,-6.56841 -2.35366,-9.35401 -0.001,-0.003 10e-4,-0.008 0,-0.0101 0.0161,-0.14907 0.0954,-0.25055 0.13132,-0.29294 2.13393,-2.51966 3.05332,-6.56179 2.47487,-8.47519 -0.0843,-0.27874 -0.40677,-0.27361 -0.53538,-0.0606 -1.54613,2.5607 -3.78261,3.19788 -5.77808,3.54564 -0.0938,0.0163 -0.25028,0.0423 -0.42427,0 -0.003,-0.003 -0.007,-0.007 -0.0101,-0.0101 -3.51424,-3.18972 -8.17809,-5.1316 -13.29365,-5.1316 z m 0,5.14168 c 0.12636,0 0.24817,-0.003 0.37376,0 7.91227,0.20068 14.27347,6.68688 14.27347,14.64723 0,8.08671 -6.56053,14.64723 -14.64723,14.64723 -8.0867,0 -14.64723,-6.56052 -14.64723,-14.64723 0,-8.0867 6.56053,-14.64723 14.64723,-14.64723 z m -10.57631,12.26327 c -0.81735,0 -1.47482,1.08934 -1.47482,2.43447 0,1.34513 0.65747,2.43447 1.47482,2.43447 0.81735,0 1.48493,-1.08934 1.48493,-2.43447 0,-1.34513 -0.66758,-2.43447 -1.48493,-2.43447 z m 12.81885,0.0707 c -0.81734,0 -1.47482,1.05279 -1.47482,2.34356 0,1.29077 0.65748,2.33345 1.47482,2.33345 l 1.2627,-0.0303 0,-2.48498 -1.17178,0 0,0.55559 0.55558,0 0,1.26269 -0.6465,0.0101 c -0.37364,0 -0.6768,-0.71727 -0.6768,-1.63645 0,-0.91918 0.30316,-1.66675 0.6768,-1.66675 l 0.92934,0 c 0.11776,-1.2e-4 0.15092,-0.072 0.15152,-0.14143 l 0,-0.37375 c 0.001,-0.12465 -0.0714,-0.1719 -0.14142,-0.17173 l -0.93944,0 z m -9.79849,0.0202 0.84853,2.34356 -0.84853,2.34355 0.71721,0 0.59599,-1.65665 0.59599,1.65665 0.70711,0 -0.83843,-2.34355 0.83843,-2.34356 -0.70711,0 -0.59599,1.65665 -0.59599,-1.65665 -0.71721,0 z m 4.16183,0 1.03036,2.54558 0,2.08092 0.70711,0 0,-2.08092 1.06066,-2.54558 -0.71721,0 -0.6869,1.67686 -0.6768,-1.67686 -0.71722,0 z m 8.87926,0 0,4.6265 0,0.0101 2.0203,0 0,-0.7172 -1.3132,0 0,-1.33341 1.14148,0 0,-0.71721 -1.14148,0 0,-1.15158 1.18188,0 0,-0.7172 -1.88898,0 z m 3.9598,0 0,4.6265 0.71721,0 0,-2.87894 1.18188,2.87894 0.70711,0 0,-4.6265 -0.70711,0 0,2.88904 -1.18188,-2.88904 -0.71721,0 z m -20.09196,0.6566 c 0.0227,-0.006 0.0473,0 0.0707,0 0.37365,0 0.67681,0.73916 0.67681,1.69706 0,0.9579 -0.30316,1.70716 -0.67681,1.70716 -0.37365,-1e-5 -0.6768,-0.74926 -0.6768,-1.70716 0,-0.89803 0.26481,-1.61176 0.60609,-1.69706 z"
         style="opacity:0.2;fill:#000000;fill-opacity:1;fill-rule:evenodd;stroke:none;display:inline;enable-background:new" />
      <path
         style="opacity:0.2;fill:#000000;fill-opacity:1;fill-rule:evenodd;stroke:none;display:inline;enable-background:new"
         d="m 311.85225,231.14754 c -7.64687,0 -13.85224,6.20536 -13.85224,13.85223 0,7.64687 6.20537,13.85223 13.85224,13.85223 7.64687,0 13.85224,-6.20536 13.85224,-13.85223 0,-2.36732 -0.5992,-4.59789 -1.64756,-6.54781 -7e-4,-0.002 7e-4,-0.006 0,-0.007 0.0113,-0.10435 0.0668,-0.17538 0.0919,-0.20506 1.49375,-1.76375 2.13733,-4.59325 1.73241,-5.93262 -0.059,-0.19512 -0.28474,-0.19153 -0.37476,-0.0424 -1.0823,1.79249 -2.64783,2.23851 -4.04466,2.48195 -0.0657,0.0114 -0.1752,0.0296 -0.29699,0 -0.002,-0.002 -0.005,-0.005 -0.007,-0.007 -2.45997,-2.23281 -5.72466,-3.59212 -9.30555,-3.59212 z m 0,3.59916 c 0.0885,0 0.17372,-0.002 0.26163,0 5.53859,0.14048 9.99143,4.68083 9.99143,10.25307 0,5.66069 -4.59237,10.25306 -10.25306,10.25306 -5.66069,0 -10.25306,-4.59237 -10.25306,-10.25306 0,-5.66069 4.59237,-10.25307 10.25306,-10.25307 z m -7.40342,8.5843 c -0.57215,0 -1.03237,0.76254 -1.03237,1.70412 0,0.94159 0.46022,1.70413 1.03237,1.70413 0.57214,0 1.03945,-0.76254 1.03945,-1.70413 0,-0.94158 -0.46731,-1.70412 -1.03945,-1.70412 z m 8.97319,0.0495 c -0.57213,0 -1.03237,0.73696 -1.03237,1.64049 0,0.90354 0.46024,1.63343 1.03237,1.63343 l 0.88389,-0.0212 0,-1.73948 -0.82024,0 0,0.38892 0.3889,0 0,0.88388 -0.45255,0.007 c -0.26154,0 -0.47376,-0.50209 -0.47376,-1.14552 0,-0.64342 0.21222,-1.16672 0.47376,-1.16672 l 0.65054,0 c 0.0824,-9e-5 0.10565,-0.0504 0.10607,-0.099 l 0,-0.26163 c 7e-4,-0.0873 -0.05,-0.12033 -0.099,-0.12021 l -0.65761,0 z m -6.85894,0.0141 0.59397,1.64049 -0.59397,1.64049 0.50205,0 0.41719,-1.15966 0.41719,1.15966 0.49498,0 -0.5869,-1.64049 0.5869,-1.64049 -0.49498,0 -0.41719,1.15966 -0.41719,-1.15966 -0.50205,0 z m 2.91328,0 0.72125,1.78192 0,1.45663 0.49498,0 0,-1.45663 0.74246,-1.78192 -0.50204,0 -0.48083,1.1738 -0.47376,-1.1738 -0.50206,0 z m 6.21548,0 0,3.23855 0,0.007 1.41421,0 0,-0.50204 -0.91924,0 0,-0.93339 0.79904,0 0,-0.50204 -0.79904,0 0,-0.80611 0.82732,0 0,-0.50204 -1.32229,0 z m 2.77186,0 0,3.23855 0.50205,0 0,-2.01526 0.82732,2.01526 0.49497,0 0,-3.23855 -0.49497,0 0,2.02234 -0.82732,-2.02234 -0.50205,0 z m -14.06437,0.45962 c 0.0159,-0.004 0.0331,0 0.0495,0 0.26156,0 0.47377,0.51742 0.47377,1.18794 0,0.67054 -0.21221,1.19502 -0.47377,1.19502 -0.26155,-1e-5 -0.47376,-0.52448 -0.47376,-1.19502 0,-0.62862 0.18537,-1.12823 0.42427,-1.18794 z"
         id="path3860"
         inkscape:connector-curvature="0" />
      <path
         inkscape:connector-curvature="0"
         id="path3862"
         d="m 431.89443,59.105319 c -5.46204,0 -9.89445,4.432406 -9.89445,9.894453 0,5.462045 4.43241,9.894455 9.89445,9.894455 5.46205,0 9.89446,-4.43241 9.89446,-9.894455 0,-1.69094 -0.428,-3.284203 -1.17683,-4.67701 -6.6e-4,-0.0013 6.7e-4,-0.0038 0,-0.005 0.008,-0.07454 0.0477,-0.125277 0.0657,-0.14647 1.06697,-1.25983 1.52666,-3.280897 1.23744,-4.237597 -0.0421,-0.139367 -0.20339,-0.136803 -0.26769,-0.0303 -0.77307,1.280353 -1.89131,1.59894 -2.88904,1.77282 -0.0469,0.0082 -0.12514,0.02113 -0.21213,0 -0.002,-0.0017 -0.003,-0.0035 -0.005,-0.005 -1.75712,-1.59486 -4.08904,-2.565797 -6.64682,-2.565797 z m 0,2.57084 c 0.0632,0 0.12409,-0.0017 0.18688,0 3.95614,0.10034 7.13674,3.34344 7.13674,7.323613 0,4.043353 -3.28026,7.323615 -7.32362,7.323615 -4.04335,0 -7.32361,-3.280262 -7.32361,-7.323615 0,-4.04335 3.28026,-7.323613 7.32361,-7.323613 z m -5.28815,6.131633 c -0.40867,0 -0.73741,0.54467 -0.73741,1.217233 0,0.672567 0.32873,1.217237 0.73741,1.217237 0.40868,0 0.74246,-0.54467 0.74246,-1.217237 10e-6,-0.672563 -0.33379,-1.217233 -0.74246,-1.217233 z m 6.40942,0.03535 c -0.40867,4e-6 -0.73741,0.526397 -0.73741,1.17178 0,0.645387 0.32874,1.166727 0.73741,1.166727 l 0.63135,-0.01513 0,-1.24249 -0.58589,0 0,0.277793 0.27779,0 0,0.631347 -0.32325,0.005 c -0.18682,0 -0.3384,-0.358633 -0.3384,-0.818223 0,-0.459594 0.15158,-0.833377 0.3384,-0.833377 l 0.46468,0 c 0.0589,-6e-5 0.0755,-0.036 0.0758,-0.07071 l 0,-0.186877 c 6.6e-4,-0.06233 -0.0357,-0.08595 -0.0707,-0.08586 l -0.46973,0 z m -4.89924,0.0101 0.42426,1.17178 -0.42426,1.171777 0.3586,0 0.298,-0.828327 0.298,0.828327 0.35355,0 -0.41921,-1.171777 0.41921,-1.17178 -0.35355,0 -0.298,0.828327 -0.298,-0.828327 -0.3586,0 z m 2.08092,0 0.51518,1.272794 0,1.04046 0.35355,0 0,-1.04046 0.53033,-1.272794 -0.35861,0 -0.34345,0.83843 -0.3384,-0.83843 -0.3586,0 z m 4.43962,0 0,2.313254 0,0.005 1.01016,0 0,-0.358603 -0.6566,0 0,-0.666704 0.57073,0 0,-0.358603 -0.57073,0 0,-0.57579 0.59094,0 0,-0.358603 -0.9445,0 z m 1.9799,0 0,2.313254 0.35861,0 0,-1.43947 0.59094,1.43947 0.35355,0 0,-2.313254 -0.35355,0 0,1.44452 -0.59094,-1.44452 -0.35861,0 z m -10.04597,0.3283 c 0.0114,-0.003 0.0237,0 0.0353,0 0.18682,0 0.3384,0.369584 0.3384,0.84853 0,0.47895 -0.15158,0.85358 -0.3384,0.85358 -0.18682,-3e-6 -0.3384,-0.37463 -0.3384,-0.85358 0,-0.449013 0.13241,-0.805876 0.30305,-0.84853 z"
         style="opacity:0.2;fill:#000000;fill-opacity:1;fill-rule:evenodd;stroke:none;display:inline;enable-background:new" />
      <path
         style="opacity:0.2;fill:#000000;fill-opacity:1;fill-rule:evenodd;stroke:none;display:inline;enable-background:new"
         d="m 427.91552,105.08518 c -4.36962,0 -7.91554,3.54591 -7.91554,7.91554 0,4.36962 3.54592,7.91553 7.91554,7.91553 4.36963,0 7.91554,-3.54591 7.91554,-7.91553 0,-1.35275 -0.3424,-2.62736 -0.94146,-3.74159 -5.2e-4,-0.001 5.4e-4,-0.003 0,-0.005 0.007,-0.0597 0.0382,-0.10023 0.0526,-0.11718 0.85358,-1.00786 1.22133,-2.62471 0.98996,-3.39007 -0.0337,-0.11154 -0.16272,-0.10948 -0.21416,-0.0242 -0.61845,1.02428 -1.51304,1.27915 -2.31122,1.41825 -0.0375,0.007 -0.10012,0.0169 -0.16971,0 -0.001,-10e-4 -0.002,-0.002 -0.003,-0.005 -1.40569,-1.27588 -3.27122,-2.05264 -5.31744,-2.05264 z m 0,2.05666 c 0.0505,0 0.0993,-0.001 0.1495,0 3.16491,0.0802 5.70938,2.67474 5.70938,5.85887 0,3.23468 -2.6242,5.85888 -5.85888,5.85888 -3.23468,0 -5.85888,-2.6242 -5.85888,-5.85888 0,-3.23467 2.6242,-5.85887 5.85888,-5.85887 z m -4.23051,4.90529 c -0.32693,0 -0.58992,0.43573 -0.58992,0.97379 0,0.53804 0.26298,0.97378 0.58992,0.97378 0.32694,0 0.59396,-0.43574 0.59396,-0.97378 10e-6,-0.53806 -0.26703,-0.97379 -0.59396,-0.97379 z m 5.12752,0.0282 c -0.32693,2e-5 -0.58993,0.42112 -0.58993,0.93743 0,0.51631 0.263,0.93338 0.58993,0.93338 l 0.50508,-0.0121 0,-0.99399 -0.46871,0 0,0.22223 0.22223,0 0,0.50507 -0.2586,0.005 c -0.14945,0 -0.27072,-0.28691 -0.27072,-0.65457 0,-0.36768 0.12127,-0.66671 0.27072,-0.66671 l 0.37174,0 c 0.0471,-5e-5 0.0603,-0.0288 0.0607,-0.0566 l 0,-0.1495 c 5.3e-4,-0.0498 -0.0286,-0.0688 -0.0566,-0.0687 l -0.37578,0 z m -3.91938,0.008 0.33941,0.93743 -0.33941,0.93742 0.28688,0 0.2384,-0.66266 0.2384,0.66266 0.28284,0 -0.33537,-0.93742 0.33537,-0.93743 -0.28284,0 -0.2384,0.66267 -0.2384,-0.66267 -0.28688,0 z m 1.66473,0 0.41214,1.01824 0,0.83237 0.28285,0 0,-0.83237 0.42426,-1.01824 -0.28689,0 -0.27476,0.67075 -0.27072,-0.67075 -0.28688,0 z m 3.55169,0 0,1.85061 0,0.003 0.80813,0 0,-0.28688 -0.52528,0 0,-0.53336 0.45658,0 0,-0.28689 -0.45658,0 0,-0.46063 0.47275,0 0,-0.28688 -0.7556,0 z m 1.58391,0 0,1.85061 0.28689,0 0,-1.15158 0.47275,1.15158 0.28284,0 0,-1.85061 -0.28284,0 0,1.15563 -0.47275,-1.15563 -0.28689,0 z m -8.03675,0.26264 c 0.009,-0.002 0.019,0 0.0282,0 0.14945,0 0.27072,0.29567 0.27072,0.67883 0,0.38316 -0.12127,0.68286 -0.27072,0.68286 -0.14945,0 -0.27072,-0.2997 -0.27072,-0.68286 0,-0.3592 0.10594,-0.6447 0.24243,-0.67883 z"
         id="path3864"
         inkscape:connector-curvature="0" />
      <path
         inkscape:connector-curvature="0"
         id="path3866"
         d="m 423.93666,143.06408 c -3.27721,0 -5.93664,2.65943 -5.93664,5.93663 0,3.27721 2.65943,5.93664 5.93664,5.93664 3.27722,0 5.93665,-2.65942 5.93665,-5.93664 0,-1.01456 -0.2568,-1.97051 -0.7061,-2.80617 -3.9e-4,-7.5e-4 4.1e-4,-0.002 0,-0.004 0.005,-0.0448 0.0287,-0.0752 0.0394,-0.0879 0.64019,-0.75589 0.916,-1.96853 0.74247,-2.54254 -0.0253,-0.0837 -0.12204,-0.0821 -0.16062,-0.0181 -0.46384,0.7682 -1.13478,0.95937 -1.73341,1.06369 -0.0281,0.005 -0.0751,0.0127 -0.12728,0 -7.5e-4,-7.5e-4 -0.001,-0.001 -0.002,-0.004 -1.05427,-0.9569 -2.45341,-1.53948 -3.98807,-1.53948 z m 0,1.54249 c 0.0379,0 0.0745,-7.5e-4 0.11213,0 2.37368,0.0602 4.28202,2.00604 4.28202,4.39414 0,2.426 -1.96814,4.39415 -4.39415,4.39415 -2.426,0 -4.39415,-1.96815 -4.39415,-4.39415 0,-2.426 1.96815,-4.39414 4.39415,-4.39414 z m -3.17287,3.67895 c -0.2452,0 -0.44244,0.3268 -0.44244,0.73034 0,0.40353 0.19723,0.73034 0.44244,0.73034 0.2452,0 0.44547,-0.32681 0.44547,-0.73034 0,-0.40354 -0.20028,-0.73034 -0.44547,-0.73034 z m 3.84563,0.0211 c -0.2452,2e-5 -0.44245,0.31584 -0.44245,0.70307 0,0.38724 0.19725,0.70004 0.44245,0.70004 l 0.37881,-0.009 0,-0.74549 -0.35153,0 0,0.16667 0.16667,0 0,0.37881 -0.19395,0.004 c -0.11209,0 -0.20304,-0.21519 -0.20304,-0.49093 0,-0.27576 0.091,-0.50003 0.20304,-0.50003 l 0.2788,0 c 0.0353,-4e-5 0.0452,-0.0216 0.0455,-0.0425 l 0,-0.11213 c 4e-4,-0.0374 -0.0215,-0.0516 -0.0425,-0.0515 l -0.28184,0 z m -2.93953,0.006 0.25456,0.70307 -0.25456,0.70307 0.21516,0 0.1788,-0.497 0.1788,0.497 0.21213,0 -0.25153,-0.70307 0.25153,-0.70307 -0.21213,0 -0.1788,0.497 -0.1788,-0.497 -0.21516,0 z m 1.24855,0 0.3091,0.76368 0,0.62428 0.21214,0 0,-0.62428 0.31819,-0.76368 -0.21517,0 -0.20607,0.50306 -0.20304,-0.50306 -0.21515,0 z m 2.66376,0 0,1.38796 0,0.002 0.60609,0 0,-0.21516 -0.39396,0 0,-0.40002 0.34244,0 0,-0.21517 -0.34244,0 0,-0.34547 0.35457,0 0,-0.21516 -0.5667,0 z m 1.18793,0 0,1.38796 0.21516,0 0,-0.86369 0.35457,0.86369 0.21213,0 0,-1.38796 -0.21213,0 0,0.86672 -0.35457,-0.86672 -0.21516,0 z m -6.02755,0.19698 c 0.007,-0.002 0.0143,0 0.0211,0 0.11208,0 0.20304,0.22175 0.20304,0.50912 0,0.28737 -0.091,0.51215 -0.20304,0.51215 -0.11209,0 -0.20304,-0.22478 -0.20304,-0.51215 0,-0.2694 0.0795,-0.48352 0.18182,-0.50912 z"
         style="opacity:0.2;fill:#000000;fill-opacity:1;fill-rule:evenodd;stroke:none;display:inline;enable-background:new" />
      <path
         style="fill:#ffffff;fill-opacity:1;fill-rule:evenodd;stroke:none;display:inline;enable-background:new"
         d="M 143.26119,86.738811 C 105.02686,86.738817 73.999999,117.76567 73.999999,156 c 0,38.23434 31.026861,69.26119 69.261191,69.26119 38.23433,0 69.2612,-31.02686 69.2612,-69.26119 0,-11.83658 -2.996,-22.98943 -8.23781,-32.73908 -0.004,-0.009 0.004,-0.0263 0,-0.0353 0.0566,-0.52177 0.33398,-0.87693 0.45962,-1.0253 7.46877,-8.8188 10.68662,-22.966264 8.66207,-29.663164 -0.29493,-0.97558 -1.42372,-0.95762 -1.87383,-0.21213 -5.41148,8.962464 -13.23916,11.192574 -20.22328,12.409734 -0.32842,0.0572 -0.87599,0.14784 -1.48493,0 -0.0123,-0.0113 -0.0231,-0.0242 -0.0353,-0.0353 C 177.48909,93.535446 161.16561,86.738885 143.26115,86.738885 z m 0,17.995879 c 0.44225,0 0.86859,-0.0113 1.30815,0 27.69296,0.70238 49.95716,23.4041 49.95716,51.26531 0,28.30346 -22.96184,51.26529 -51.26531,51.2653 -28.30346,0 -51.265303,-22.96184 -51.265303,-51.2653 0,-28.30346 22.961833,-51.26531 51.265303,-51.26531 z m -37.01708,42.92144 c -2.86073,0 -5.16189,3.81268 -5.16189,8.52064 0,4.70796 2.30115,8.52065 5.16189,8.52065 2.86073,0 5.19724,-3.8127 5.19724,-8.52065 1e-5,-4.70795 -2.33653,-8.52063 -5.19724,-8.52064 z m 44.86597,0.24748 c -2.86071,2e-5 -5.16188,3.68477 -5.16188,8.20245 0,4.5177 2.30117,8.1671 5.16188,8.1671 l 4.41943,-0.10601 0,-8.69743 -4.10122,0 0,1.94455 1.94454,0 0,4.41942 -2.26275,0.0353 c -1.30775,0 -2.36881,-2.51043 -2.36881,-5.72756 1e-5,-3.21714 1.06106,-5.83364 2.36881,-5.83364 l 3.2527,0 c 0.41214,-4.2e-4 0.52819,-0.252 0.53033,-0.49498 l 0,-1.30815 c 0.004,-0.43627 -0.24998,-0.60164 -0.49497,-0.60104 l -3.28806,0 z m -34.29471,0.0707 2.96984,8.20245 -2.96984,8.20245 2.51022,0 2.08598,-5.79829 2.08596,5.79829 2.47488,0 -2.9345,-8.20245 2.9345,-8.20245 -2.47488,0 -2.08596,5.79828 -2.08598,-5.79828 -2.51022,0 z m 14.56641,0 3.60625,8.90955 0,7.28321 2.47488,0 0,-7.28321 3.71232,-8.90955 -2.51024,0 -2.40416,5.869 -2.36881,-5.869 -2.51024,0 z m 31.07739,0 0,16.19276 0,0.0353 7.07107,0 0,-2.51022 -4.5962,0 0,-4.66692 3.99516,0 0,-2.51023 -3.99516,0 0,-4.03051 4.13658,0 0,-2.51023 -6.61145,0 z m 13.8593,0 0,16.19276 2.51024,0 0,-10.07628 4.13658,10.07628 2.47487,0 0,-16.19276 -2.47487,0 0,10.11163 -4.13658,-10.11163 -2.51024,0 z m -70.32185,2.29809 c 0.0796,-0.02 0.16575,0 0.24749,0 1.30776,0 2.36881,2.58708 2.36881,5.93971 0,3.35265 -1.06105,5.97506 -2.36881,5.97506 -1.30777,-1e-5 -2.36881,-2.62241 -2.36881,-5.97506 1e-5,-3.14308 0.92685,-5.64113 2.12132,-5.93971 z"
         id="path3156"
         inkscape:connector-curvature="0" />
      <path
         inkscape:connector-curvature="0"
         id="path3840"
         d="m 335.68336,46.316638 c -16.38613,0 -29.68336,13.29722 -29.68336,29.68336 0,16.38615 13.29723,29.683362 29.68336,29.683362 16.38615,0 29.68338,-13.297222 29.68338,-29.683362 0,-5.07282 -1.284,-9.85261 -3.53049,-14.03103 -0.002,-0.004 0.002,-0.0113 0,-0.0151 0.0242,-0.22361 0.14313,-0.37583 0.19698,-0.43941 3.2009,-3.77949 4.57998,-9.84269 3.71231,-12.71279 -0.1264,-0.4181 -0.61016,-0.41041 -0.80307,-0.0909 -2.3192,3.84106 -5.67392,4.79682 -8.66712,5.31846 -0.14075,0.0245 -0.37542,0.0634 -0.6364,0 -0.005,-0.005 -0.01,-0.0104 -0.0151,-0.0151 -5.27136,-4.78458 -12.26713,-7.69739 -19.94047,-7.69739 z m 0,7.71252 c 0.18954,0 0.37226,-0.005 0.56064,0 11.86841,0.30102 21.41021,10.03032 21.41021,21.97084 0,12.13006 -9.84079,21.97084 -21.97085,21.97085 -12.13005,0 -21.97084,-9.84079 -21.97084,-21.97085 0,-12.13005 9.84079,-21.97084 21.97084,-21.97084 z m -15.86446,18.3949 c -1.22602,0 -2.21223,1.63401 -2.21223,3.6517 0,2.0177 0.9862,3.65171 2.21223,3.65171 1.22603,0 2.22739,-1.63401 2.22739,-3.65171 10e-6,-2.01769 -1.00137,-3.6517 -2.22739,-3.6517 z m 19.22827,0.10606 c -1.22601,1e-5 -2.21223,1.57919 -2.21223,3.51534 0,1.93616 0.98622,3.50018 2.21223,3.50018 l 1.89405,-0.0454 0,-3.72747 -1.75767,0 0,0.83338 0.83337,0 0,1.89404 -0.96975,0.0151 c -0.56046,0 -1.0152,-1.0759 -1.0152,-2.45467 0,-1.37878 0.45474,-2.50013 1.0152,-2.50013 l 1.39402,0 c 0.17663,-1.8e-4 0.22637,-0.108 0.22728,-0.21214 l 0,-0.56063 c 0.002,-0.18698 -0.10713,-0.25785 -0.21213,-0.25759 l -1.40917,0 z m -14.69773,0.0303 1.27279,3.51534 -1.27279,3.51533 1.07581,0 0.89399,-2.48498 0.89399,2.48498 1.06066,0 -1.25764,-3.51533 1.25764,-3.51534 -1.06066,0 -0.89399,2.48498 -0.89399,-2.48498 -1.07581,0 z m 6.24275,0 1.54554,3.81838 0,3.12138 1.06066,0 0,-3.12138 1.59099,-3.81838 -1.07582,0 -1.03035,2.51529 -1.0152,-2.51529 -1.07582,0 z m 13.31888,0 0,6.93976 0,0.0151 3.03046,0 0,-1.07581 -1.9698,0 0,-2.00011 1.71221,0 0,-1.07581 -1.71221,0 0,-1.72737 1.77282,0 0,-1.07581 -2.83348,0 z m 5.9397,0 0,6.93976 1.07582,0 0,-4.31841 1.77282,4.31841 1.06066,0 0,-6.93976 -1.06066,0 0,4.33356 -1.77282,-4.33356 -1.07582,0 z m -30.13793,0.9849 c 0.0341,-0.009 0.071,0 0.10606,0 0.56047,0 1.01521,1.10875 1.01521,2.54559 0,1.43685 -0.45474,2.56074 -1.01521,2.56074 -0.56047,-10e-6 -1.0152,-1.12389 -1.0152,-2.56074 0,-1.34704 0.39722,-2.41763 0.90914,-2.54559 z"
         style="fill:#ffffff;fill-opacity:1;fill-rule:evenodd;stroke:none;display:inline;enable-background:new" />
      <path
         style="fill:#ffffff;fill-opacity:1;fill-rule:evenodd;stroke:none;display:inline;enable-background:new"
         d="M 319.78891,152.21109 C 308.86482,152.21109 300,161.07591 300,172 c 0,10.9241 8.86482,19.78891 19.78891,19.78891 10.9241,0 19.78892,-8.86482 19.78892,-19.78891 0,-3.38188 -0.856,-6.56841 -2.35366,-9.35402 -0.001,-0.003 10e-4,-0.008 0,-0.0101 0.0161,-0.14906 0.0954,-0.25055 0.13132,-0.29293 2.13393,-2.51966 3.05332,-6.56179 2.47487,-8.47519 -0.0843,-0.27874 -0.40677,-0.27361 -0.53538,-0.0606 -1.54613,2.5607 -3.78261,3.19788 -5.77808,3.54564 -0.0938,0.0163 -0.25028,0.0423 -0.42427,0 -0.003,-0.003 -0.007,-0.007 -0.0101,-0.0101 -3.51424,-3.18972 -8.17809,-5.1316 -13.29365,-5.1316 z m 0,5.14169 c 0.12636,0 0.24817,-0.003 0.37376,0 7.91227,0.20068 14.27347,6.68688 14.27347,14.64723 0,8.08671 -6.56053,14.64723 -14.64723,14.64723 -8.0867,0 -14.64723,-6.56052 -14.64723,-14.64723 0,-8.0867 6.56053,-14.64723 14.64723,-14.64723 z m -10.57631,12.26327 c -0.81735,0 -1.47482,1.08934 -1.47482,2.43447 0,1.34513 0.65747,2.43447 1.47482,2.43447 0.81735,0 1.48493,-1.08934 1.48493,-2.43447 0,-1.34513 -0.66758,-2.43447 -1.48493,-2.43447 z m 12.81885,0.0707 c -0.81734,0 -1.47482,1.05279 -1.47482,2.34356 0,1.29078 0.65748,2.33345 1.47482,2.33345 l 1.2627,-0.0303 0,-2.48498 -1.17178,0 0,0.55559 0.55558,0 0,1.26269 -0.6465,0.0101 c -0.37364,0 -0.6768,-0.71727 -0.6768,-1.63645 0,-0.91918 0.30316,-1.66675 0.6768,-1.66675 l 0.92934,0 c 0.11776,-1.2e-4 0.15092,-0.072 0.15152,-0.14143 l 0,-0.37375 c 0.001,-0.12465 -0.0714,-0.1719 -0.14142,-0.17173 l -0.93944,0 z m -9.79849,0.0202 0.84853,2.34356 -0.84853,2.34355 0.71721,0 0.59599,-1.65665 0.59599,1.65665 0.70711,0 -0.83843,-2.34355 0.83843,-2.34356 -0.70711,0 -0.59599,1.65665 -0.59599,-1.65665 -0.71721,0 z m 4.16183,0 1.03036,2.54558 0,2.08092 0.70711,0 0,-2.08092 1.06066,-2.54558 -0.71721,0 -0.6869,1.67686 -0.6768,-1.67686 -0.71722,0 z m 8.87926,0 0,4.6265 0,0.0101 2.0203,0 0,-0.7172 -1.3132,0 0,-1.33341 1.14148,0 0,-0.7172 -1.14148,0 0,-1.15158 1.18188,0 0,-0.7172 -1.88898,0 z m 3.9598,0 0,4.6265 0.71721,0 0,-2.87894 1.18188,2.87894 0.70711,0 0,-4.6265 -0.70711,0 0,2.88904 -1.18188,-2.88904 -0.71721,0 z m -20.09196,0.6566 c 0.0227,-0.006 0.0473,0 0.0707,0 0.37365,0 0.67681,0.73916 0.67681,1.69706 0,0.9579 -0.30316,1.70716 -0.67681,1.70716 -0.37365,-1e-5 -0.6768,-0.74926 -0.6768,-1.70716 0,-0.89803 0.26481,-1.61176 0.60609,-1.69706 z"
         id="path3844"
         inkscape:connector-curvature="0" />
      <path
         inkscape:connector-curvature="0"
         id="path3846"
         d="m 311.85225,230.14777 c -7.64687,0 -13.85224,6.20536 -13.85224,13.85223 0,7.64687 6.20537,13.85223 13.85224,13.85223 7.64687,0 13.85224,-6.20536 13.85224,-13.85223 0,-2.36732 -0.5992,-4.59789 -1.64756,-6.54781 -7e-4,-0.002 7e-4,-0.006 0,-0.007 0.0113,-0.10435 0.0668,-0.17537 0.0919,-0.20506 1.49375,-1.76374 2.13733,-4.59325 1.73241,-5.93261 -0.059,-0.19512 -0.28474,-0.19153 -0.37476,-0.0424 -1.0823,1.79249 -2.64783,2.23851 -4.04466,2.48195 -0.0657,0.0114 -0.1752,0.0296 -0.29699,0 -0.002,-0.002 -0.005,-0.005 -0.007,-0.007 -2.45997,-2.23281 -5.72466,-3.59212 -9.30555,-3.59212 z m 0,3.59916 c 0.0885,0 0.17372,-0.002 0.26163,0 5.53859,0.14048 9.99143,4.68084 9.99143,10.25307 0,5.66069 -4.59237,10.25307 -10.25306,10.25307 -5.66069,0 -10.25306,-4.59237 -10.25306,-10.25307 0,-5.66068 4.59237,-10.25307 10.25306,-10.25307 z m -7.40342,8.58431 c -0.57215,0 -1.03237,0.76254 -1.03237,1.70411 0,0.94159 0.46022,1.70413 1.03237,1.70413 0.57214,0 1.03945,-0.76254 1.03945,-1.70413 0,-0.94157 -0.46731,-1.70411 -1.03945,-1.70411 z m 8.97319,0.0495 c -0.57213,0 -1.03237,0.73697 -1.03237,1.64049 0,0.90354 0.46024,1.63344 1.03237,1.63344 l 0.88389,-0.0212 0,-1.73949 -0.82024,0 0,0.38892 0.3889,0 0,0.88388 -0.45255,0.007 c -0.26154,0 -0.47376,-0.50209 -0.47376,-1.14552 0,-0.64342 0.21222,-1.16672 0.47376,-1.16672 l 0.65054,0 c 0.0824,-9e-5 0.10565,-0.0504 0.10607,-0.099 l 0,-0.26163 c 7e-4,-0.0873 -0.05,-0.12033 -0.099,-0.12021 l -0.65761,0 z m -6.85894,0.0141 0.59397,1.64049 -0.59397,1.64049 0.50205,0 0.41719,-1.15966 0.41719,1.15966 0.49498,0 -0.5869,-1.64049 0.5869,-1.64049 -0.49498,0 -0.41719,1.15966 -0.41719,-1.15966 -0.50205,0 z m 2.91328,0 0.72125,1.78191 0,1.45664 0.49498,0 0,-1.45664 0.74246,-1.78191 -0.50204,0 -0.48083,1.1738 -0.47376,-1.1738 -0.50206,0 z m 6.21548,0 0,3.23855 0,0.007 1.41421,0 0,-0.50204 -0.91924,0 0,-0.93339 0.79904,0 0,-0.50204 -0.79904,0 0,-0.80611 0.82732,0 0,-0.50204 -1.32229,0 z m 2.77186,0 0,3.23855 0.50205,0 0,-2.01526 0.82732,2.01526 0.49497,0 0,-3.23855 -0.49497,0 0,2.02233 -0.82732,-2.02233 -0.50205,0 z m -14.06437,0.45962 c 0.0159,-0.004 0.0331,0 0.0495,0 0.26156,0 0.47377,0.51741 0.47377,1.18794 0,0.67053 -0.21221,1.19502 -0.47377,1.19502 -0.26155,-10e-6 -0.47376,-0.52449 -0.47376,-1.19502 0,-0.62863 0.18537,-1.12823 0.42427,-1.18794 z"
         style="fill:#ffffff;fill-opacity:1;fill-rule:evenodd;stroke:none;display:inline;enable-background:new" />
      <path
         style="fill:#ffffff;fill-opacity:1;fill-rule:evenodd;stroke:none;display:inline;enable-background:new"
         d="m 431.89443,58.105549 c -5.46204,0 -9.89445,4.432406 -9.89445,9.894453 0,5.462045 4.43241,9.894455 9.89445,9.894455 5.46205,0 9.89446,-4.43241 9.89446,-9.894455 0,-1.69094 -0.428,-3.284203 -1.17683,-4.67701 -6.6e-4,-0.0013 6.7e-4,-0.0038 0,-0.005 0.008,-0.07454 0.0477,-0.125277 0.0657,-0.14647 1.06697,-1.25983 1.52666,-3.280897 1.23744,-4.237597 -0.0421,-0.139367 -0.20339,-0.136803 -0.26769,-0.0303 -0.77307,1.280353 -1.89131,1.59894 -2.88904,1.77282 -0.0469,0.0082 -0.12514,0.02113 -0.21213,0 -0.002,-0.0017 -0.003,-0.0035 -0.005,-0.005 -1.75712,-1.59486 -4.08904,-2.565797 -6.64682,-2.565797 z m 0,2.57084 c 0.0632,0 0.12409,-0.0017 0.18688,0 3.95614,0.10034 7.13674,3.34344 7.13674,7.323613 0,4.043353 -3.28026,7.323615 -7.32362,7.323615 -4.04335,0 -7.32361,-3.280262 -7.32361,-7.323615 0,-4.04335 3.28026,-7.323613 7.32361,-7.323613 z m -5.28815,6.131633 c -0.40867,0 -0.73741,0.54467 -0.73741,1.217233 0,0.672567 0.32873,1.217237 0.73741,1.217237 0.40868,0 0.74246,-0.54467 0.74246,-1.217237 10e-6,-0.672563 -0.33379,-1.217233 -0.74246,-1.217233 z m 6.40942,0.03535 c -0.40867,4e-6 -0.73741,0.526397 -0.73741,1.17178 0,0.645387 0.32874,1.166727 0.73741,1.166727 l 0.63135,-0.01513 0,-1.24249 -0.58589,0 0,0.277793 0.27779,0 0,0.631347 -0.32325,0.005 c -0.18682,0 -0.3384,-0.358633 -0.3384,-0.818223 0,-0.459594 0.15158,-0.833377 0.3384,-0.833377 l 0.46468,0 c 0.0589,-6e-5 0.0755,-0.036 0.0758,-0.07071 l 0,-0.186877 c 6.6e-4,-0.06233 -0.0357,-0.08595 -0.0707,-0.08586 l -0.46973,0 z m -4.89924,0.0101 0.42426,1.17178 -0.42426,1.171777 0.3586,0 0.298,-0.828327 0.298,0.828327 0.35355,0 -0.41921,-1.171777 0.41921,-1.17178 -0.35355,0 -0.298,0.828327 -0.298,-0.828327 -0.3586,0 z m 2.08092,0 0.51518,1.272794 0,1.04046 0.35355,0 0,-1.04046 0.53033,-1.272794 -0.35861,0 -0.34345,0.83843 -0.3384,-0.83843 -0.3586,0 z m 4.43962,0 0,2.313254 0,0.005 1.01016,0 0,-0.358603 -0.6566,0 0,-0.666704 0.57073,0 0,-0.358603 -0.57073,0 0,-0.57579 0.59094,0 0,-0.358603 -0.9445,0 z m 1.9799,0 0,2.313254 0.35861,0 0,-1.43947 0.59094,1.43947 0.35355,0 0,-2.313254 -0.35355,0 0,1.44452 -0.59094,-1.44452 -0.35861,0 z m -10.04597,0.3283 c 0.0114,-0.003 0.0237,0 0.0353,0 0.18682,0 0.3384,0.369584 0.3384,0.84853 0,0.47895 -0.15158,0.85358 -0.3384,0.85358 -0.18682,-3e-6 -0.3384,-0.37463 -0.3384,-0.85358 0,-0.449013 0.13241,-0.805876 0.30305,-0.84853 z"
         id="path3848"
         inkscape:connector-curvature="0" />
      <path
         inkscape:connector-curvature="0"
         id="path3850"
         d="m 427.91552,104.08541 c -4.36962,0 -7.91554,3.54591 -7.91554,7.91554 0,4.36962 3.54592,7.91553 7.91554,7.91553 4.36963,0 7.91554,-3.54591 7.91554,-7.91553 0,-1.35275 -0.3424,-2.62736 -0.94146,-3.74159 -5.2e-4,-0.001 5.4e-4,-0.003 0,-0.005 0.007,-0.0597 0.0382,-0.10023 0.0526,-0.11718 0.85358,-1.00786 1.22133,-2.62471 0.98996,-3.39007 -0.0337,-0.11154 -0.16272,-0.10948 -0.21416,-0.0242 -0.61845,1.02428 -1.51304,1.27915 -2.31122,1.41825 -0.0375,0.007 -0.10012,0.0169 -0.16971,0 -0.001,-0.001 -0.002,-0.002 -0.003,-0.005 -1.40569,-1.27588 -3.27122,-2.05264 -5.31744,-2.05264 z m 0,2.05666 c 0.0505,0 0.0993,-0.001 0.1495,0 3.16491,0.0802 5.70938,2.67474 5.70938,5.85887 0,3.23468 -2.6242,5.85888 -5.85888,5.85888 -3.23468,0 -5.85888,-2.6242 -5.85888,-5.85888 0,-3.23467 2.6242,-5.85887 5.85888,-5.85887 z m -4.23051,4.90529 c -0.32693,0 -0.58992,0.43573 -0.58992,0.97379 0,0.53804 0.26298,0.97378 0.58992,0.97378 0.32694,0 0.59396,-0.43574 0.59396,-0.97378 10e-6,-0.53806 -0.26703,-0.97379 -0.59396,-0.97379 z m 5.12752,0.0282 c -0.32693,2e-5 -0.58993,0.42112 -0.58993,0.93743 0,0.51631 0.263,0.93338 0.58993,0.93338 l 0.50508,-0.0121 0,-0.99399 -0.46871,0 0,0.22223 0.22223,0 0,0.50507 -0.2586,0.005 c -0.14945,0 -0.27072,-0.28691 -0.27072,-0.65457 0,-0.36768 0.12127,-0.66671 0.27072,-0.66671 l 0.37174,0 c 0.0471,-5e-5 0.0603,-0.0288 0.0607,-0.0566 l 0,-0.1495 c 5.3e-4,-0.0498 -0.0286,-0.0688 -0.0566,-0.0687 l -0.37578,0 z m -3.91938,0.008 0.33941,0.93743 -0.33941,0.93742 0.28688,0 0.2384,-0.66266 0.2384,0.66266 0.28284,0 -0.33537,-0.93742 0.33537,-0.93743 -0.28284,0 -0.2384,0.66267 -0.2384,-0.66267 -0.28688,0 z m 1.66473,0 0.41214,1.01824 0,0.83237 0.28285,0 0,-0.83237 0.42426,-1.01824 -0.28689,0 -0.27476,0.67075 -0.27072,-0.67075 -0.28688,0 z m 3.55169,0 0,1.85061 0,0.003 0.80813,0 0,-0.28688 -0.52528,0 0,-0.53336 0.45658,0 0,-0.28689 -0.45658,0 0,-0.46063 0.47275,0 0,-0.28688 -0.7556,0 z m 1.58391,0 0,1.85061 0.28689,0 0,-1.15158 0.47275,1.15158 0.28284,0 0,-1.85061 -0.28284,0 0,1.15563 -0.47275,-1.15563 -0.28689,0 z m -8.03675,0.26264 c 0.009,-0.002 0.019,0 0.0282,0 0.14945,0 0.27072,0.29567 0.27072,0.67883 0,0.38316 -0.12127,0.68286 -0.27072,0.68286 -0.14945,0 -0.27072,-0.2997 -0.27072,-0.68286 0,-0.3592 0.10594,-0.6447 0.24243,-0.67883 z"
         style="fill:#ffffff;fill-opacity:1;fill-rule:evenodd;stroke:none;display:inline;enable-background:new" />
      <path
         style="fill:#ffffff;fill-opacity:1;fill-rule:evenodd;stroke:none;display:inline;enable-background:new"
         d="m 423.93666,142.06431 c -3.27721,0 -5.93664,2.65943 -5.93664,5.93663 0,3.27721 2.65943,5.93665 5.93664,5.93665 3.27722,0 5.93665,-2.65943 5.93665,-5.93665 0,-1.01455 -0.2568,-1.9705 -0.7061,-2.80617 -3.9e-4,-7.5e-4 4.1e-4,-0.002 0,-0.004 0.005,-0.0448 0.0287,-0.0752 0.0394,-0.0879 0.64019,-0.75589 0.916,-1.96853 0.74247,-2.54254 -0.0253,-0.0837 -0.12204,-0.0821 -0.16062,-0.0181 -0.46384,0.7682 -1.13478,0.95937 -1.73341,1.06369 -0.0281,0.005 -0.0751,0.0127 -0.12728,0 -7.5e-4,-7.5e-4 -0.001,-0.001 -0.002,-0.004 -1.05427,-0.9569 -2.45341,-1.53947 -3.98807,-1.53947 z m 0,1.54249 c 0.0379,0 0.0745,-7.5e-4 0.11213,0 2.37368,0.0602 4.28202,2.00605 4.28202,4.39414 0,2.426 -1.96814,4.39415 -4.39415,4.39415 -2.426,0 -4.39415,-1.96815 -4.39415,-4.39415 0,-2.42599 1.96815,-4.39414 4.39415,-4.39414 z m -3.17287,3.67895 c -0.2452,0 -0.44244,0.3268 -0.44244,0.73034 0,0.40353 0.19723,0.73034 0.44244,0.73034 0.2452,0 0.44547,-0.32681 0.44547,-0.73034 0,-0.40354 -0.20028,-0.73034 -0.44547,-0.73034 z m 3.84563,0.0211 c -0.2452,2e-5 -0.44245,0.31584 -0.44245,0.70307 0,0.38724 0.19725,0.70004 0.44245,0.70004 l 0.37881,-0.009 0,-0.74549 -0.35153,0 0,0.16667 0.16667,0 0,0.37881 -0.19395,0.004 c -0.11209,0 -0.20304,-0.21519 -0.20304,-0.49093 0,-0.27576 0.091,-0.50003 0.20304,-0.50003 l 0.2788,0 c 0.0353,-4e-5 0.0452,-0.0216 0.0455,-0.0425 l 0,-0.11213 c 4e-4,-0.0374 -0.0215,-0.0516 -0.0425,-0.0515 l -0.28184,0 z m -2.93953,0.006 0.25456,0.70307 -0.25456,0.70307 0.21516,0 0.1788,-0.497 0.1788,0.497 0.21213,0 -0.25153,-0.70307 0.25153,-0.70307 -0.21213,0 -0.1788,0.497 -0.1788,-0.497 -0.21516,0 z m 1.24855,0 0.3091,0.76368 0,0.62428 0.21214,0 0,-0.62428 0.31819,-0.76368 -0.21517,0 -0.20607,0.50306 -0.20304,-0.50306 -0.21515,0 z m 2.66376,0 0,1.38796 0,0.002 0.60609,0 0,-0.21516 -0.39396,0 0,-0.40002 0.34244,0 0,-0.21517 -0.34244,0 0,-0.34547 0.35457,0 0,-0.21516 -0.5667,0 z m 1.18793,0 0,1.38796 0.21516,0 0,-0.86369 0.35457,0.86369 0.21213,0 0,-1.38796 -0.21213,0 0,0.86672 -0.35457,-0.86672 -0.21516,0 z m -6.02755,0.19698 c 0.007,-0.002 0.0143,0 0.0211,0 0.11208,0 0.20304,0.22175 0.20304,0.50912 0,0.28737 -0.091,0.51215 -0.20304,0.51215 -0.11209,0 -0.20304,-0.22478 -0.20304,-0.51215 0,-0.2694 0.0795,-0.48352 0.18182,-0.50912 z"
         id="path3852"
         inkscape:connector-curvature="0" />
    </g>
    <g
       inkscape:groupmode="layer"
       id="layer5"
       inkscape:label="Highlights"
       style="display:inline"
       sodipodi:insensitive="true">
      <path
         style="opacity:0.12999998;color:#bebebe;fill:#ffffff;fill-opacity:1;fill-rule:nonzero;stroke:none;stroke-width:0;marker:none;visibility:visible;display:inline;overflow:visible;enable-background:accumulate"
         d="M 84,47 C 56.836703,47 35,68.836703 35,96 l 0,1 C 35,69.836703 56.836703,48 84,48 l 120,0 c 27.1633,0 49,21.836703 49,49 l 0,-1 C 253,68.836703 231.1633,47 204,47 L 84,47 z"
         id="rect3894"
         inkscape:connector-curvature="0" />
      <path
         style="opacity:0.12999998;color:#bebebe;fill:#ffffff;fill-opacity:1;fill-rule:nonzero;stroke:none;stroke-width:0;marker:none;visibility:visible;display:inline;overflow:visible;enable-background:accumulate"
         d="m 419,141 c -1.1253,0 -2,0.8747 -2,2 l 0,1 c 0,-1.1253 0.8747,-2 2,-2 l 10,0 c 1.1253,0 2,0.8747 2,2 l 0,-1 c 0,-1.1253 -0.8747,-2 -2,-2 l -10,0 z"
         id="rect3896"
         inkscape:connector-curvature="0" />
      <path
         style="opacity:0.12999998;color:#bebebe;fill:#ffffff;fill-opacity:1;fill-rule:nonzero;stroke:none;stroke-width:0;marker:none;visibility:visible;display:inline;overflow:visible;enable-background:accumulate"
         d="m 422,102 c -2.2333,0 -4,1.7667 -4,4 l 0,1 c 0,-2.2333 1.7667,-4 4,-4 l 12,0 c 2.2333,0 4,1.7667 4,4 l 0,-1 c 0,-2.2333 -1.7667,-4 -4,-4 l -12,0 z"
         id="rect3898"
         inkscape:connector-curvature="0" />
      <path
         style="opacity:0.12999998;color:#bebebe;fill:#ffffff;fill-opacity:1;fill-rule:nonzero;stroke:none;stroke-width:0;marker:none;visibility:visible;display:inline;overflow:visible;enable-background:accumulate"
         d="m 424,54 c -3.3413,0 -6,2.658703 -6,6 l 0,1 c 0,-3.341297 2.6587,-6 6,-6 l 16,0 c 3.3413,0 6,2.658703 6,6 l 0,-1 c 0,-3.341297 -2.6587,-6 -6,-6 l -16,0 z"
         id="rect3900"
         inkscape:connector-curvature="0" />
      <path
         style="opacity:0.12999998;color:#bebebe;fill:#ffffff;fill-opacity:1;fill-rule:nonzero;stroke:none;stroke-width:0;marker:none;visibility:visible;display:inline;overflow:visible;enable-background:accumulate"
         d="m 300,224 c -4.4493,0 -8,3.5507 -8,8 l 0,1 c 0,-4.4493 3.5507,-8 8,-8 l 24,0 c 4.4493,0 8,3.5507 8,8 l 0,-1 c 0,-4.4493 -3.5507,-8 -8,-8 l -24,0 z"
         id="rect3902"
         inkscape:connector-curvature="0" />
      <path
         style="opacity:0.12999998;color:#bebebe;fill:#ffffff;fill-opacity:1;fill-rule:nonzero;stroke:none;stroke-width:0;marker:none;visibility:visible;display:inline;overflow:visible;enable-background:accumulate"
         d="m 310,33 c -9.4353,0 -17,7.564703 -17,17 l 0,1 c 0,-9.435297 7.5647,-17 17,-17 l 52,0 c 9.4353,0 17,7.564703 17,17 l 0,-1 c 0,-9.435297 -7.5647,-17 -17,-17 l -52,0 z"
         id="rect3904"
         inkscape:connector-curvature="0" />
      <path
         style="opacity:0.12999998;color:#bebebe;fill:#ffffff;fill-opacity:1;fill-rule:nonzero;stroke:none;stroke-width:0;marker:none;visibility:visible;display:inline;overflow:visible;enable-background:accumulate"
         d="m 302.5,143 c -6.3883,0 -11.5,5.1117 -11.5,11.5 l 0,1 c 0,-6.3883 5.1117,-11.5 11.5,-11.5 l 35,0 c 6.3883,0 11.5,5.1117 11.5,11.5 l 0,-1 c 0,-6.3883 -5.1117,-11.5 -11.5,-11.5 l -35,0 z"
         id="rect3906"
         inkscape:connector-curvature="0" />
      <path
         id="path4085"
         d="m 204,266 c 27.1633,0 49,-21.8367 49,-49 l 0,-1 c 0,27.1633 -21.8367,49 -49,49 L 84,265 C 56.8367,265 35,243.1633 35,216 l 0,1 c 0,27.1633 21.8367,49 49,49 l 120,0 z"
         style="opacity:0.5;color:#bebebe;fill:#000000;fill-opacity:1;fill-rule:nonzero;stroke:none;stroke-width:0;marker:none;visibility:visible;display:inline;overflow:visible;enable-background:accumulate"
         inkscape:connector-curvature="0" />
      <path
         id="path4087"
         d="m 429,156 c 1.1253,0 2,-0.8747 2,-2 l 0,-1 c 0,1.1253 -0.8747,2 -2,2 l -10,0 c -1.1253,0 -2,-0.8747 -2,-2 l 0,1 c 0,1.1253 0.8747,2 2,2 l 10,0 z"
         style="opacity:0.3;color:#bebebe;fill:#000000;fill-opacity:1;fill-rule:nonzero;stroke:none;stroke-width:0;marker:none;visibility:visible;display:inline;overflow:visible;enable-background:accumulate"
         inkscape:connector-curvature="0" />
      <path
         id="path4089"
         d="m 434,123 c 2.2333,0 4,-1.7667 4,-4 l 0,-1 c 0,2.2333 -1.7667,4 -4,4 l -12,0 c -2.2333,0 -4,-1.7667 -4,-4 l 0,1 c 0,2.2333 1.7667,4 4,4 l 12,0 z"
         style="opacity:0.3;color:#bebebe;fill:#000000;fill-opacity:1;fill-rule:nonzero;stroke:none;stroke-width:0;marker:none;visibility:visible;display:inline;overflow:visible;enable-background:accumulate"
         inkscape:connector-curvature="0" />
      <path
         id="path4091"
         d="m 440,83 c 3.3413,0 6,-2.6587 6,-6 l 0,-1 c 0,3.3413 -2.6587,6 -6,6 l -16,0 c -3.3413,0 -6,-2.6587 -6,-6 l 0,1 c 0,3.3413 2.6587,6 6,6 l 16,0 z"
         style="opacity:0.5;color:#bebebe;fill:#000000;fill-opacity:1;fill-rule:nonzero;stroke:none;stroke-width:0;marker:none;visibility:visible;display:inline;overflow:visible;enable-background:accumulate"
         inkscape:connector-curvature="0" />
      <path
         id="path4093"
         d="m 324,265 c 4.4493,0 8,-3.5507 8,-8 l 0,-1 c 0,4.4493 -3.5507,8 -8,8 l -24,0 c -4.4493,0 -8,-3.5507 -8,-8 l 0,1 c 0,4.4493 3.5507,8 8,8 l 24,0 z"
         style="opacity:0.5;color:#bebebe;fill:#000000;fill-opacity:1;fill-rule:nonzero;stroke:none;stroke-width:0;marker:none;visibility:visible;display:inline;overflow:visible;enable-background:accumulate"
         inkscape:connector-curvature="0" />
      <path
         id="path4095"
         d="m 362,120 c 9.4353,0 17,-7.5647 17,-17 l 0,-1 c 0,9.4353 -7.5647,17 -17,17 l -52,0 c -9.4353,0 -17,-7.5647 -17,-17 l 0,1 c 0,9.4353 7.5647,17 17,17 l 52,0 z"
         style="opacity:0.5;color:#bebebe;fill:#000000;fill-opacity:1;fill-rule:nonzero;stroke:none;stroke-width:0;marker:none;visibility:visible;display:inline;overflow:visible;enable-background:accumulate"
         inkscape:connector-curvature="0" />
      <path
         id="path4097"
         d="m 337.5,202 c 6.3883,0 11.5,-5.1117 11.5,-11.5 l 0,-1 c 0,6.3883 -5.1117,11.5 -11.5,11.5 l -35,0 c -6.3883,0 -11.5,-5.1117 -11.5,-11.5 l 0,1 c 0,6.3883 5.1117,11.5 11.5,11.5 l 35,0 z"
         style="opacity:0.5;color:#bebebe;fill:#000000;fill-opacity:1;fill-rule:nonzero;stroke:none;stroke-width:0;marker:none;visibility:visible;display:inline;overflow:visible;enable-background:accumulate"
         inkscape:connector-curvature="0" />
      <path
         inkscape:connector-curvature="0"
         id="path4280"
         d="M 84,265 C 56.836703,265 35,243.1633 35,216 l 0,-1 c 0,27.1633 21.836703,49 49,49 l 120,0 c 27.1633,0 49,-21.8367 49,-49 l 0,1 c 0,27.1633 -21.8367,49 -49,49 l -120,0 z"
         style="opacity:0.1;color:#bebebe;fill:#ffffff;fill-opacity:1;fill-rule:nonzero;stroke:none;stroke-width:0;marker:none;visibility:visible;display:inline;overflow:visible;enable-background:accumulate" />
      <path
         style="opacity:0.1;color:#bebebe;fill:#ffffff;fill-opacity:1;fill-rule:nonzero;stroke:none;stroke-width:0;marker:none;visibility:visible;display:inline;overflow:visible;enable-background:accumulate"
         d="m 300,264 c -4.4493,0 -8,-3.5507 -8,-8 l 0,-1 c 0,4.4493 3.5507,8 8,8 l 24,0 c 4.4493,0 8,-3.5507 8,-8 l 0,1 c 0,4.4493 -3.5507,8 -8,8 l -24,0 z"
         id="path4294"
         inkscape:connector-curvature="0" />
      <path
         style="opacity:0.1;color:#bebebe;fill:#ffffff;fill-opacity:1;fill-rule:nonzero;stroke:none;stroke-width:0;marker:none;visibility:visible;display:inline;overflow:visible;enable-background:accumulate"
         d="m 302.5,201 c -6.3883,0 -11.5,-5.1117 -11.5,-11.5 l 0,-1 c 0,6.3883 5.1117,11.5 11.5,11.5 l 35,0 c 6.3883,0 11.5,-5.1117 11.5,-11.5 l 0,1 c 0,6.3883 -5.1117,11.5 -11.5,11.5 l -35,0 z"
         id="path4296"
         inkscape:connector-curvature="0" />
      <path
         style="opacity:0.1;color:#bebebe;fill:#ffffff;fill-opacity:1;fill-rule:nonzero;stroke:none;stroke-width:0;marker:none;visibility:visible;display:inline;overflow:visible;enable-background:accumulate"
         d="m 310,119 c -9.4353,0 -17,-7.5647 -17,-17 l 0,-1 c 0,9.4353 7.5647,17 17,17 l 52,0 c 9.4353,0 17,-7.5647 17,-17 l 0,1 c 0,9.4353 -7.5647,17 -17,17 l -52,0 z"
         id="path4298"
         inkscape:connector-curvature="0" />
      <path
         style="opacity:0.1;color:#bebebe;fill:#ffffff;fill-opacity:1;fill-rule:nonzero;stroke:none;stroke-width:0;marker:none;visibility:visible;display:inline;overflow:visible;enable-background:accumulate"
         d="m 424,82 c -3.3413,0 -6,-2.658703 -6,-6 l 0,-1 c 0,3.341297 2.6587,6 6,6 l 16,0 c 3.3413,0 6,-2.658703 6,-6 l 0,1 c 0,3.341297 -2.6587,6 -6,6 l -16,0 z"
         id="path4300"
         inkscape:connector-curvature="0" />
      <path
         style="opacity:0.1;color:#bebebe;fill:#ffffff;fill-opacity:1;fill-rule:nonzero;stroke:none;stroke-width:0;marker:none;visibility:visible;display:inline;overflow:visible;enable-background:accumulate"
         d="m 422,122 c -2.2333,0 -4,-1.7667 -4,-4 l 0,-1 c 0,2.2333 1.7667,4 4,4 l 12,0 c 2.2333,0 4,-1.7667 4,-4 l 0,1 c 0,2.2333 -1.7667,4 -4,4 l -12,0 z"
         id="path4302"
         inkscape:connector-curvature="0" />
      <path
         style="opacity:0.1;color:#bebebe;fill:#ffffff;fill-opacity:1;fill-rule:nonzero;stroke:none;stroke-width:0;marker:none;visibility:visible;display:inline;overflow:visible;enable-background:accumulate"
         d="m 419,154.5 c -1.1253,0 -2,-0.8747 -2,-2 l 0,-1 c 0,1.1253 0.8747,2 2,2 l 10,0 c 1.1253,0 2,-0.8747 2,-2 l 0,1 c 0,1.1253 -0.8747,2 -2,2 l -10,0 z"
         id="path4304"
         inkscape:connector-curvature="0" />
    </g>
    <g
       inkscape:groupmode="layer"
       id="layer3"
       inkscape:label="Border"
       style="display:inline"
       sodipodi:insensitive="true">
      <path
         style="opacity:0.41000001;color:#bebebe;fill:#000000;fill-opacity:1;fill-rule:nonzero;stroke:none;stroke-width:0;marker:none;visibility:visible;display:inline;overflow:visible;enable-background:accumulate"
         d="m 422,101 c -2.77,0 -5,2.23 -5,5 l 0,12 c 0,2.77 2.23,5 5,5 l 12,0 c 2.77,0 5,-2.23 5,-5 l 0,-12 c 0,-2.77 -2.23,-5 -5,-5 l -12,0 z m 0,1 12,0 c 2.2333,0 4,1.7667 4,4 l 0,12 c 0,2.2333 -1.7667,4 -4,4 l -12,0 c -2.2333,0 -4,-1.7667 -4,-4 l 0,-12 c 0,-2.2333 1.7667,-4 4,-4 z"
         id="rect4099"
         inkscape:connector-curvature="0" />
      <path
         style="opacity:0.41000001;color:#bebebe;fill:#000000;fill-opacity:1;fill-rule:nonzero;stroke:none;stroke-width:0;marker:none;visibility:visible;display:inline;overflow:visible;enable-background:accumulate"
         d="m 424,53 c -3.878,0 -7,3.122 -7,7 l 0,16 c 0,3.878 3.122,7 7,7 l 16,0 c 3.878,0 7,-3.122 7,-7 l 0,-16 c 0,-3.878 -3.122,-7 -7,-7 l -16,0 z m 0,1 16,0 c 3.3413,0 6,2.658703 6,6 l 0,16 c 0,3.341297 -2.6587,6 -6,6 l -16,0 c -3.3413,0 -6,-2.658703 -6,-6 l 0,-16 c 0,-3.341297 2.6587,-6 6,-6 z"
         id="rect4151"
         inkscape:connector-curvature="0" />
      <path
         style="opacity:0.41000001;color:#bebebe;fill:#000000;fill-opacity:1;fill-rule:nonzero;stroke:none;stroke-width:0;marker:none;visibility:visible;display:inline;overflow:visible;enable-background:accumulate"
         d="m 419,140 c -1.662,0 -3,1.338 -3,3 l 0,10 c 0,1.662 1.338,3 3,3 l 10,0 c 1.662,0 3,-1.338 3,-3 l 0,-10 c 0,-1.662 -1.338,-3 -3,-3 l -10,0 z m 0,1 10,0 c 1.1253,0 2,0.8747 2,2 l 0,10 c 0,1.1253 -0.8747,2 -2,2 l -10,0 c -1.1253,0 -2,-0.8747 -2,-2 l 0,-10 c 0,-1.1253 0.8747,-2 2,-2 z"
         id="rect4095"
         inkscape:connector-curvature="0" />
      <path
         style="opacity:0.41000001;color:#bebebe;fill:#000000;fill-opacity:1;fill-rule:nonzero;stroke:none;stroke-width:0;marker:none;visibility:visible;display:inline;overflow:visible;enable-background:accumulate"
         d="m 300,223 c -4.986,0 -9,4.014 -9,9 l 0,24 c 0,4.986 4.014,9 9,9 l 24,0 c 4.986,0 9,-4.014 9,-9 l 0,-24 c 0,-4.986 -4.014,-9 -9,-9 l -24,0 z m 0,1 24,0 c 4.4493,0 8,3.5507 8,8 l 0,24 c 0,4.4493 -3.5507,8 -8,8 l -24,0 c -4.4493,0 -8,-3.5507 -8,-8 l 0,-24 c 0,-4.4493 3.5507,-8 8,-8 z"
         id="rect4783"
         inkscape:connector-curvature="0" />
      <path
         style="opacity:0.41000001;color:#bebebe;fill:#000000;fill-opacity:1;fill-rule:nonzero;stroke:none;stroke-width:0;marker:none;visibility:visible;display:inline;overflow:visible;enable-background:accumulate"
         d="m 302.5,142 c -6.925,0 -12.5,5.575 -12.5,12.5 l 0,35 c 0,6.925 5.575,12.5 12.5,12.5 l 35,0 c 6.925,0 12.5,-5.575 12.5,-12.5 l 0,-35 c 0,-6.925 -5.575,-12.5 -12.5,-12.5 l -35,0 z m 0,1 35,0 c 6.3883,0 11.5,5.1117 11.5,11.5 l 0,35 c 0,6.3883 -5.1117,11.5 -11.5,11.5 l -35,0 c -6.3883,0 -11.5,-5.1117 -11.5,-11.5 l 0,-35 c 0,-6.3883 5.1117,-11.5 11.5,-11.5 z"
         id="rect4515"
         inkscape:connector-curvature="0" />
      <path
         style="opacity:0.41000001;color:#bebebe;fill:#000000;fill-opacity:1;fill-rule:nonzero;stroke:none;stroke-width:0;marker:none;visibility:visible;display:inline;overflow:visible;enable-background:accumulate"
         d="m 310,32 c -9.972,0 -18,8.028 -18,18 l 0,52 c 0,9.972 8.028,18 18,18 l 52,0 c 9.972,0 18,-8.028 18,-18 l 0,-52 c 0,-9.972 -8.028,-18 -18,-18 l -52,0 z m 0,1 52,0 c 9.4353,0 17,7.564703 17,17 l 0,52 c 0,9.4353 -7.5647,17 -17,17 l -52,0 c -9.4353,0 -17,-7.5647 -17,-17 l 0,-52 c 0,-9.435297 7.5647,-17 17,-17 z"
         id="rect4511"
         inkscape:connector-curvature="0" />
      <path
         style="opacity:0.41000001;color:#bebebe;fill:#000000;fill-opacity:1;fill-rule:nonzero;stroke:none;stroke-width:0;marker:none;visibility:visible;display:inline;overflow:visible;enable-background:accumulate"
         d="M 84,46 C 56.3,46 34,68.3 34,96 l 0,120 c 0,27.7 22.3,50 50,50 l 120,0 c 27.7,0 50,-22.3 50,-50 L 254,96 C 254,68.3 231.7,46 204,46 L 84,46 z m 0,1 120,0 c 27.1633,0 49,21.836703 49,49 l 0,120 c 0,27.1633 -21.8367,49 -49,49 L 84,265 C 56.836703,265 35,243.1633 35,216 L 35,96 C 35,68.836703 56.836703,47 84,47 z"
         id="rect4040"
         inkscape:connector-curvature="0" />
    </g>
  </g>
</svg>
