<?xml version="1.0" encoding="UTF-8" standalone="no"?>
<!-- Created with Inkscape (http://www.inkscape.org/) -->

<svg
   xmlns:dc="http://purl.org/dc/elements/1.1/"
   xmlns:cc="http://creativecommons.org/ns#"
   xmlns:rdf="http://www.w3.org/1999/02/22-rdf-syntax-ns#"
   xmlns:svg="http://www.w3.org/2000/svg"
   xmlns="http://www.w3.org/2000/svg"
   xmlns:xlink="http://www.w3.org/1999/xlink"
   xmlns:sodipodi="http://sodipodi.sourceforge.net/DTD/sodipodi-0.dtd"
   xmlns:inkscape="http://www.inkscape.org/namespaces/inkscape"
   inkscape:export-ydpi="90.000000"
   inkscape:export-xdpi="90.000000"
   width="480"
   height="300"
   id="svg11300"
   sodipodi:version="0.32"
   inkscape:version="0.48.4 r9939"
   sodipodi:docname="anjuta.svg"
   inkscape:output_extension="org.inkscape.output.svg.inkscape"
   version="1.0"
   style="display:inline;enable-background:new"
   inkscape:export-filename="/home/sam/moka-next-template.png">
  <sodipodi:namedview
     stroke="#ef2929"
     fill="#f57900"
     id="base"
     pagecolor="#777777"
     bordercolor="#666666"
     borderopacity="0.25490196"
     inkscape:pageopacity="0"
     inkscape:pageshadow="2"
     inkscape:zoom="1"
     inkscape:cx="308.83033"
     inkscape:cy="138.94774"
     inkscape:current-layer="layer7"
     showgrid="false"
     inkscape:grid-bbox="true"
     inkscape:document-units="px"
     inkscape:showpageshadow="false"
     inkscape:window-width="1364"
     inkscape:window-height="700"
     inkscape:window-x="0"
     inkscape:window-y="28"
     width="400px"
     height="300px"
     inkscape:snap-nodes="true"
     inkscape:snap-bbox="true"
     gridtolerance="10000"
     inkscape:object-nodes="true"
     inkscape:snap-grids="true"
     showguides="true"
     inkscape:guide-bbox="true"
     inkscape:window-maximized="1"
     inkscape:bbox-nodes="true"
     inkscape:bbox-paths="true"
     inkscape:snap-bbox-edge-midpoints="true"
     inkscape:snap-bbox-midpoints="true">
    <inkscape:grid
       spacingy="1px"
       spacingx="1px"
       id="grid5883"
       type="xygrid"
       enabled="true"
       visible="true"
       empspacing="4"
       snapvisiblegridlinesonly="true"
       dotted="false"
       color="#000000"
       opacity="0.1254902"
       empcolor="#203ef3"
       empopacity="0.36470588" />
    <inkscape:grid
       type="xygrid"
       id="grid11592"
       empspacing="8"
       visible="true"
       enabled="false"
       spacingx="0.5px"
       spacingy="0.5px"
       color="#ff0000"
       opacity="0.1254902"
       empcolor="#ff0000"
       empopacity="0.25098039"
       snapvisiblegridlinesonly="true"
       dotted="true" />
  </sodipodi:namedview>
  <defs
     id="defs3">
    <linearGradient
       inkscape:collect="always"
       xlink:href="#outerBackgroundGradient-35"
       id="linearGradient4254"
       x1="35"
       y1="156"
       x2="253"
       y2="156"
       gradientUnits="userSpaceOnUse"
       gradientTransform="matrix(0,-1,1,0,-12,300)" />
    <linearGradient
       inkscape:collect="always"
       xlink:href="#outerBackgroundGradient-35"
       id="linearGradient4256"
       x1="417"
       y1="148"
       x2="431"
       y2="148"
       gradientUnits="userSpaceOnUse"
       gradientTransform="matrix(0,-1,1,0,276,572)" />
    <linearGradient
       inkscape:collect="always"
       xlink:href="#outerBackgroundGradient-35"
       id="linearGradient4260"
       x1="418"
       y1="68"
       x2="446"
       y2="68"
       gradientUnits="userSpaceOnUse"
       gradientTransform="matrix(0,-1,1,0,364,500)" />
    <linearGradient
       inkscape:collect="always"
       xlink:href="#outerBackgroundGradient-35"
       id="linearGradient4262"
       x1="292"
       y1="244"
       x2="332"
       y2="244"
       gradientUnits="userSpaceOnUse"
       gradientTransform="matrix(0,-1,1,0,68,556)" />
    <linearGradient
       inkscape:collect="always"
       xlink:href="#outerBackgroundGradient-35"
       id="linearGradient4264"
       x1="293"
       y1="76"
       x2="379"
       y2="76"
       gradientUnits="userSpaceOnUse"
       gradientTransform="matrix(0,-1,1,0,260,412)" />
    <linearGradient
       inkscape:collect="always"
       xlink:href="#outerBackgroundGradient-35"
       id="linearGradient4266"
       x1="291"
       y1="172"
       x2="349"
       y2="172"
       gradientUnits="userSpaceOnUse"
       gradientTransform="matrix(0,-1,1,0,148,492)" />
    <linearGradient
       inkscape:collect="always"
       xlink:href="#outerBackgroundGradient-35"
       id="linearGradient3870"
       gradientUnits="userSpaceOnUse"
       gradientTransform="matrix(0,-1,1,0,316,540)"
       x1="418"
       y1="112"
       x2="438"
       y2="112" />
    <linearGradient
       id="outerBackgroundGradient-35">
      <stop
         style="stop-color:#867993;stop-opacity:1;"
         offset="0"
         id="stop3864-8-6-13" />
      <stop
         style="stop-color:#c8bbd5;stop-opacity:1;"
         offset="1"
         id="stop3866-9-1-1" />
    </linearGradient>
  </defs>
  <metadata
     id="metadata4">
    <rdf:RDF>
      <cc:Work
         rdf:about="">
        <dc:format>image/svg+xml</dc:format>
        <dc:type
           rdf:resource="http://purl.org/dc/dcmitype/StillImage" />
        <dc:creator>
          <cc:Agent>
            <dc:title>Sam Hewitt</dc:title>
          </cc:Agent>
        </dc:creator>
        <dc:source />
        <cc:license
           rdf:resource="" />
        <dc:title />
        <dc:subject>
          <rdf:Bag />
        </dc:subject>
        <dc:date />
        <dc:rights>
          <cc:Agent>
            <dc:title />
          </cc:Agent>
        </dc:rights>
        <dc:publisher>
          <cc:Agent>
            <dc:title />
          </cc:Agent>
        </dc:publisher>
        <dc:identifier />
        <dc:relation />
        <dc:language />
        <dc:coverage />
        <dc:description />
        <dc:contributor>
          <cc:Agent>
            <dc:title />
          </cc:Agent>
        </dc:contributor>
      </cc:Work>
      <cc:Work
         rdf:about="">
        <dc:format>image/svg+xml</dc:format>
        <dc:type
           rdf:resource="http://purl.org/dc/dcmitype/StillImage" />
      </cc:Work>
    </rdf:RDF>
  </metadata>
  <g
     style="display:inline"
     inkscape:groupmode="layer"
     inkscape:label="Icon"
     id="layer1">
    <g
       style="display:none"
       inkscape:label="Baseplate"
       id="layer7"
       inkscape:groupmode="layer">
      <text
         y="19.745117"
         xml:space="preserve"
         x="15.006836"
         style="font-style:normal;font-variant:normal;font-weight:normal;font-stretch:normal;line-height:0%;font-family:'DejaVu Sans';-inkscape-font-specification:'DejaVu Sans';display:inline;fill:#000000;fill-opacity:1;stroke:none;enable-background:new"
         inkscape:label="context"
         id="context"><tspan
           style="font-style:normal;font-variant:normal;font-weight:normal;font-stretch:normal;font-size:18px;line-height:1.25;font-family:'DejaVu Sans';-inkscape-font-specification:'DejaVu Sans'"
           y="19.745117"
           x="15.006836"
           sodipodi:role="line"
           id="tspan3933">apps</tspan></text>
      <text
         y="19.745117"
         xml:space="preserve"
         x="122.48828"
         style="font-style:normal;font-variant:normal;font-weight:bold;font-stretch:normal;line-height:0%;font-family:'DejaVu Sans';-inkscape-font-specification:'DejaVu Sans Bold';text-align:start;writing-mode:lr-tb;text-anchor:start;display:inline;fill:#000000;fill-opacity:1;stroke:none;enable-background:new"
         inkscape:label="icon-name"
         id="icon-name"><tspan
           style="font-style:normal;font-variant:normal;font-weight:bold;font-stretch:normal;font-size:18px;line-height:1.25;font-family:'DejaVu Sans';-inkscape-font-specification:'DejaVu Sans Bold'"
           y="19.745117"
           x="122.48828"
           sodipodi:role="line"
           id="tspan3937">anjuta</tspan></text>
      <rect
         style="fill:#eeeeec;fill-opacity:1;fill-rule:nonzero;stroke:none;stroke-width:2;marker:none;visibility:visible;display:inline;overflow:visible;enable-background:accumulate"
         id="rect16x16"
         width="16"
         height="16"
         x="416"
         y="140"
         inkscape:label="16x16" />
      <rect
         style="fill:#d4d4d4;fill-opacity:1;fill-rule:nonzero;stroke:none;stroke-width:2;marker:none;visibility:visible;display:inline;overflow:visible;enable-background:accumulate"
         id="rect24x24"
         width="24"
         height="24"
         x="416"
         y="100"
         inkscape:label="24x24" />
      <rect
         style="fill:#eeeeec;fill-opacity:1;fill-rule:nonzero;stroke:none;stroke-width:2;marker:none;visibility:visible;display:inline;overflow:visible;enable-background:accumulate"
         id="rect32x32"
         width="32"
         height="32"
         x="416"
         y="52"
         inkscape:label="32x32" />
      <rect
         inkscape:label="22x22"
         y="101"
         x="417"
         height="22"
         width="22"
         id="rect22x22"
         style="fill:#eeeeec;fill-opacity:1;fill-rule:nonzero;stroke:none;stroke-width:2;marker:none;visibility:visible;display:inline;overflow:visible;enable-background:accumulate" />
      <rect
         inkscape:label="48x48"
         y="220"
         x="288"
         height="48"
         width="48"
         id="rect48x48"
         style="fill:#eeeeec;fill-opacity:1;fill-rule:nonzero;stroke:none;stroke-width:2;marker:none;visibility:visible;display:inline;overflow:visible;enable-background:accumulate" />
      <rect
         style="fill:#eeeeec;fill-opacity:1;fill-rule:nonzero;stroke:none;stroke-width:2;marker:none;visibility:visible;display:inline;overflow:visible;enable-background:accumulate"
         id="rect256x256"
         width="256"
         height="256"
         x="16"
         y="28"
         inkscape:label="256x256" />
      <rect
         style="fill:#eeeeec;fill-opacity:1;fill-rule:nonzero;stroke:none;stroke-width:2;marker:none;visibility:visible;display:inline;overflow:visible;enable-background:accumulate"
         id="rect64x64"
         width="64"
         height="64"
         x="288"
         y="140"
         inkscape:label="64x64" />
      <rect
         style="fill:#eeeeec;fill-opacity:1;fill-rule:nonzero;stroke:none;stroke-width:2;marker:none;visibility:visible;display:inline;overflow:visible;enable-background:accumulate"
         id="rect96x96"
         width="96"
         height="96"
         x="288"
         y="28"
         inkscape:label="96x96" />
    </g>
    <g
       inkscape:groupmode="layer"
       id="layer4"
       inkscape:label="Shadow"
       style="display:inline"
       sodipodi:insensitive="true">
      <rect
         ry="50"
         y="47"
         x="34"
         height="220"
         width="220"
         id="rect4114"
         style="opacity:0.1;color:#bebebe;fill:#000000;fill-opacity:1;fill-rule:nonzero;stroke:none;stroke-width:0;marker:none;visibility:visible;display:inline;overflow:visible;enable-background:accumulate" />
      <rect
         style="opacity:0.1;color:#bebebe;fill:#000000;fill-opacity:1;fill-rule:nonzero;stroke:none;stroke-width:0;marker:none;visibility:visible;display:inline;overflow:visible;enable-background:accumulate"
         id="rect4120"
         width="30"
         height="30"
         x="417"
         y="54"
         ry="7" />
      <rect
         transform="scale(1,-1)"
         ry="9"
         y="-266"
         x="291"
         height="42"
         width="42"
         id="rect4122"
         style="opacity:0.1;color:#bebebe;fill:#000000;fill-opacity:1;fill-rule:nonzero;stroke:none;stroke-width:0;marker:none;visibility:visible;display:inline;overflow:visible;enable-background:accumulate" />
      <rect
         style="opacity:0.1;color:#bebebe;fill:#000000;fill-opacity:1;fill-rule:nonzero;stroke:none;stroke-width:0;marker:none;visibility:visible;display:inline;overflow:visible;enable-background:accumulate"
         id="rect4124"
         width="88"
         height="88"
         x="292"
         y="33"
         ry="18" />
      <rect
         ry="12.5"
         y="143"
         x="290"
         height="60"
         width="60"
         id="rect4126"
         style="opacity:0.1;color:#bebebe;fill:#000000;fill-opacity:1;fill-rule:nonzero;stroke:none;stroke-width:0;marker:none;visibility:visible;display:inline;overflow:visible;enable-background:accumulate" />
      <path
         id="path4268"
         d="m 422,101 c -2.77,0 -5,2.23 -5,5 l 0,12 c 0,2.77 2.23,5 5,5 l 12,0 c 2.77,0 5,-2.23 5,-5 l 0,-12 c 0,-2.77 -2.23,-5 -5,-5 z"
         style="opacity:0.1;color:#bebebe;fill:#000000;fill-opacity:1;fill-rule:nonzero;stroke:none;stroke-width:0;marker:none;visibility:visible;display:inline;overflow:visible;enable-background:accumulate"
         inkscape:connector-curvature="0"
         sodipodi:nodetypes="sssssssss" />
      <path
         id="path4270"
         d="m 419,140 c -1.662,0 -3,1.338 -3,3 l 0,10 c 0,1.662 1.338,3 3,3 l 10,0 c 1.662,0 3,-1.338 3,-3 l 0,-10 c 0,-1.662 -1.338,-3 -3,-3 z"
         style="opacity:0.1;color:#bebebe;fill:#000000;fill-opacity:1;fill-rule:nonzero;stroke:none;stroke-width:0;marker:none;visibility:visible;display:inline;overflow:visible;enable-background:accumulate"
         inkscape:connector-curvature="0"
         sodipodi:nodetypes="sssssssss" />
    </g>
    <g
       inkscape:groupmode="layer"
       id="layer2"
       inkscape:label="Background"
       style="display:inline">
      <path
         style="color:#bebebe;fill:url(#linearGradient4254);fill-opacity:1.0;fill-rule:nonzero;stroke:none;stroke-width:2;marker:none;visibility:visible;display:inline;overflow:visible;enable-background:accumulate"
         d="M 84 46.5 C 56.568735 46.5 34.5 68.568732 34.5 96 L 34.5 216 C 34.5 243.43127 56.568735 265.5 84 265.5 L 204 265.5 C 231.43127 265.5 253.5 243.43127 253.5 216 L 253.5 96 C 253.5 68.568732 231.43127 46.5 204 46.5 L 84 46.5 z "
         id="path4200" />
      <path
         style="color:#bebebe;fill:url(#linearGradient4256);fill-opacity:1.0;fill-rule:nonzero;stroke:none;stroke-width:2;marker:none;visibility:visible;display:inline;overflow:visible;enable-background:accumulate"
         d="M 419 140.5 C 417.6156 140.5 416.5 141.6156 416.5 143 L 416.5 153 C 416.5 154.3844 417.6156 155.5 419 155.5 L 429 155.5 C 430.3844 155.5 431.5 154.3844 431.5 153 L 431.5 143 C 431.5 141.6156 430.3844 140.5 429 140.5 L 419 140.5 z "
         id="path4202" />
      <path
         style="color:#bebebe;fill:url(#linearGradient3870);fill-opacity:1.0;fill-rule:nonzero;stroke:none;stroke-width:2;marker:none;visibility:visible;display:inline;overflow:visible;enable-background:accumulate"
         d="M 422 101.5 C 419.50301 101.5 417.5 103.50301 417.5 106 L 417.5 118 C 417.5 120.49699 419.50301 122.5 422 122.5 L 434 122.5 C 436.49699 122.5 438.5 120.49699 438.5 118 L 438.5 106 C 438.5 103.50301 436.49699 101.5 434 101.5 L 422 101.5 z "
         id="path4204" />
      <path
         style="color:#bebebe;fill:url(#linearGradient4260);fill-opacity:1.0;fill-rule:nonzero;stroke:none;stroke-width:2;marker:none;visibility:visible;display:inline;overflow:visible;enable-background:accumulate"
         d="M 424 53.5 C 420.39346 53.5 417.5 56.393464 417.5 60 L 417.5 76 C 417.5 79.606536 420.39346 82.5 424 82.5 L 440 82.5 C 443.60654 82.5 446.5 79.606536 446.5 76 L 446.5 60 C 446.5 56.393464 443.60654 53.5 440 53.5 L 424 53.5 z "
         id="path4206" />
      <path
         style="color:#bebebe;fill:url(#linearGradient4262);fill-opacity:1.0;fill-rule:nonzero;stroke:none;stroke-width:2;marker:none;visibility:visible;display:inline;overflow:visible;enable-background:accumulate"
         d="M 300 223.5 C 295.28469 223.5 291.5 227.28469 291.5 232 L 291.5 256 C 291.5 260.71531 295.28469 264.5 300 264.5 L 324 264.5 C 328.71531 264.5 332.5 260.71531 332.5 256 L 332.5 232 C 332.5 227.28469 328.71531 223.5 324 223.5 L 300 223.5 z "
         id="path4208" />
      <path
         style="color:#bebebe;fill:url(#linearGradient4264);fill-opacity:1.0;fill-rule:nonzero;stroke:none;stroke-width:2;marker:none;visibility:visible;display:inline;overflow:visible;enable-background:accumulate"
         d="M 310 32.5 C 300.29745 32.5 292.5 40.297452 292.5 50 L 292.5 102 C 292.5 111.70255 300.29745 119.5 310 119.5 L 362 119.5 C 371.70255 119.5 379.5 111.70255 379.5 102 L 379.5 50 C 379.5 40.297452 371.70255 32.5 362 32.5 L 310 32.5 z "
         id="path4210" />
      <path
         style="color:#bebebe;fill:url(#linearGradient4266);fill-opacity:1.0;fill-rule:nonzero;stroke:none;stroke-width:2;marker:none;visibility:visible;display:inline;overflow:visible;enable-background:accumulate"
         d="M 302.5 142.5 C 295.84498 142.5 290.5 147.84498 290.5 154.5 L 290.5 189.5 C 290.5 196.15502 295.84498 201.5 302.5 201.5 L 337.5 201.5 C 344.15502 201.5 349.5 196.15502 349.5 189.5 L 349.5 154.5 C 349.5 147.84498 344.15502 142.5 337.5 142.5 L 302.5 142.5 z "
         id="path4212" />
    </g>
    <g
       inkscape:groupmode="layer"
       id="layer6"
       inkscape:label="Symbols"
       style="display:inline">
      <path
         inkscape:connector-curvature="0"
         id="path3884"
         d="m 306.05497,51.437197 c 9.60127,8.628991 29.31444,11.833955 35.87734,17.789173 l -0.34881,2.989776 c 0,0 16.75981,7.450178 24.41651,16.443774 0,0 -4.72653,4.787332 -6.42801,13.90246 0,0 -19.368,-12.883944 -34.68142,-3.039604 0,0 -21.09852,-10.535996 -7.97274,-25.363275 0,0 4.0909,2.166986 6.27853,3.139267 -10.81662,7.899781 2.44165,17.390534 2.44165,17.390534 0,0 10.72562,-10.664696 31.14351,1.245743 0,0 1.51557,-4.835908 3.33858,-5.929724 -10.20894,-9.84434 -24.2172,-14.749566 -24.2172,-14.749566 l 0.24915,-4.335178 c -14.21961,-7.049034 -19.42385,-7.007765 -25.01446,-11.261493 0.58952,7.454318 7.0113,8.354956 9.4178,8.172058 0,0 -15.59423,5.482368 -14.50043,-16.393944 z m 21.47657,19.383721 c 0,0 4.11019,1.3454 6.17887,1.3454 0,0 0.0904,3.011293 -2.84028,3.78705 -2.24107,-0.689561 -3.33858,-5.13245 -3.33858,-5.13245 z"
         style="opacity:0.2;fill:#000000;fill-opacity:1;stroke:none;display:inline;enable-background:new" />
      <path
         style="opacity:0.2;fill:#000000;fill-opacity:1;stroke:none;display:inline;enable-background:new"
         d="m 300.03664,155.95806 c 6.40085,5.75266 19.54295,7.8893 23.91822,11.85945 l -0.23254,1.99318 c 0,0 11.17321,4.96679 16.27768,10.96252 0,0 -3.15102,3.19156 -4.28534,9.26831 0,0 -12.91201,-8.5893 -23.12095,-2.0264 0,0 -14.06568,-7.024 -5.31516,-16.90886 0,0 2.72726,1.44466 4.18568,2.09285 -7.21108,5.26652 1.62777,11.59369 1.62777,11.59369 0,0 7.15041,-7.1098 20.76234,0.8305 0,0 1.01038,-3.22394 2.22572,-3.95315 -6.80596,-6.5629 -16.14479,-9.83305 -16.14479,-9.83305 l 0.1661,-2.89012 c -9.47974,-4.69935 -12.94924,-4.67184 -16.67631,-7.50766 0.39301,4.96955 4.6742,5.56997 6.27853,5.44804 0,0 -10.39616,3.65491 -9.66695,-10.9293 z m 14.31771,12.92248 c 0,0 2.74013,0.89694 4.11925,0.89694 0,0 0.0603,2.00752 -1.89353,2.5247 -1.49404,-0.45971 -2.22572,-3.42164 -2.22572,-3.42164 z"
         id="path3886"
         inkscape:connector-curvature="0" />
      <path
         inkscape:connector-curvature="0"
         id="path3888"
         d="m 298.02565,233.07058 c 4.48059,4.02686 13.68006,5.52251 16.74275,8.30161 l -0.16278,1.39523 c 0,0 7.82125,3.47675 11.39438,7.67376 0,0 -2.20572,2.2341 -2.99974,6.48782 0,0 -9.03841,-6.01251 -16.18466,-1.41848 0,0 -9.84598,-4.9168 -3.72062,-11.8362 0,0 1.90909,1.01126 2.92998,1.46499 -5.04775,3.68657 1.13944,8.11559 1.13944,8.11559 0,0 5.00529,-4.97686 14.53364,0.58135 0,0 0.70726,-2.25676 1.558,-2.76721 -4.76417,-4.59403 -11.30135,-6.88313 -11.30135,-6.88313 l 0.11627,-2.02309 c -6.63582,-3.28954 -9.06447,-3.27028 -11.67342,-5.25536 0.27511,3.47869 3.27194,3.89898 4.39497,3.81363 0,0 -7.27731,2.55844 -6.76686,-7.65051 z m 10.02239,9.04574 c 0,0 1.91809,0.62785 2.88348,0.62785 0,0 0.0422,1.40527 -1.32547,1.76729 -1.04583,-0.32179 -1.55801,-2.39514 -1.55801,-2.39514 z"
         style="opacity:0.2;fill:#000000;fill-opacity:1;stroke:none;display:inline;enable-background:new" />
      <path
         style="opacity:0.2;fill:#000000;fill-opacity:1;stroke:none;display:inline;enable-background:new"
         d="m 64.14657,88.832873 c 25.60339,23.010647 78.17182,31.557217 95.67289,47.437797 l -0.93016,7.97274 c 0,0 44.69283,19.86714 65.1107,43.85007 0,0 -12.60409,12.76622 -17.14137,37.07323 0,0 -51.648,-34.35719 -92.48379,-8.10561 0,0 -56.26273,-28.096 -21.26064,-67.63541 0,0 10.90906,5.77863 16.74274,8.37138 -28.84432,21.06608 6.51107,46.37476 6.51107,46.37476 0,0 28.60166,-28.43919 83.04937,3.32198 0,0 4.04152,-12.89575 8.90288,-15.8126 -27.22384,-26.25157 -64.57918,-39.33218 -64.57918,-39.33218 l 0.6644,-11.56047 c -37.91896,-18.79743 -51.79694,-18.68738 -66.70523,-30.03065 1.57202,19.87818 18.6968,22.27988 25.11411,21.79215 0,0 -41.58462,14.61965 -38.66779,-43.717184 z m 57.27086,51.689927 c 0,0 10.9605,3.58773 16.47698,3.58773 0,0 0.24107,8.03012 -7.5741,10.09881 -5.97619,-1.83883 -8.90288,-13.68654 -8.90288,-13.68654 z"
         id="path3890"
         inkscape:connector-curvature="0" />
      <path
         style="opacity:0.2;fill:#000000;fill-opacity:1;stroke:none;display:inline;enable-background:new"
         d="m 422.01835,60.478926 c 3.20042,2.87633 9.77148,3.944652 11.95911,5.929725 l -0.11627,0.996592 c 0,0 5.5866,2.483393 8.13885,5.481258 0,0 -1.57552,1.595778 -2.14268,4.634154 0,0 -6.456,-4.294648 -11.56047,-1.0132 0,0 -7.03285,-3.512 -2.65758,-8.454427 0,0 1.36363,0.722328 2.09284,1.046422 -3.60554,2.633261 0.81389,5.796845 0.81389,5.796845 0,0 3.57521,-3.554899 10.38117,0.415248 0,0 0.50519,-1.611969 1.11286,-1.976575 -3.40298,-3.281447 -8.0724,-4.916522 -8.0724,-4.916522 l 0.083,-1.44506 c -4.73987,-2.349678 -6.47462,-2.335922 -8.33815,-3.753831 0.1965,2.484773 2.3371,2.784986 3.13926,2.72402 0,0 -5.19808,1.827456 -4.83347,-5.464649 z m 7.15885,6.461241 c 0,0 1.37007,0.448466 2.05963,0.448466 0,0 0.0301,1.003765 -0.94677,1.26235 -0.74702,-0.229853 -1.11286,-1.710816 -1.11286,-1.710816 z"
         id="path3892"
         inkscape:connector-curvature="0" />
      <path
         inkscape:connector-curvature="0"
         id="path3894"
         d="m 420.01475,106.18314 c 2.56032,2.30105 7.81714,3.1557 9.56723,4.74375 l -0.093,0.79727 c 0,0 4.46925,1.9867 6.51104,4.38498 0,0 -1.2604,1.27661 -1.71413,3.7073 0,0 -5.16477,-3.4357 -9.24833,-0.81055 0,0 -5.62623,-2.80959 -2.12605,-6.76351 0,0 1.0909,0.57786 1.67426,0.83714 -2.88441,2.10659 0.65111,4.63745 0.65111,4.63745 0,0 2.86015,-2.84391 8.30489,0.33219 0,0 0.40414,-1.28957 0.89027,-1.58125 -2.72235,-2.62514 -6.45787,-3.93319 -6.45787,-3.93319 l 0.0663,-1.15604 c -3.79187,-1.87973 -5.17967,-1.86873 -6.67049,-3.00305 0.15721,1.98781 1.86967,2.22798 2.5114,2.1792 0,0 -4.15844,1.46196 -3.86675,-4.37169 z m 5.72704,5.16896 c 0,0 1.09605,0.35877 1.6477,0.35877 0,0 0.0241,0.80301 -0.75742,1.00988 -0.59761,-0.18389 -0.89028,-1.36865 -0.89028,-1.36865 z"
         style="opacity:0.2;fill:#000000;fill-opacity:1;stroke:none;display:inline;enable-background:new" />
      <path
         style="opacity:0.2;fill:#000000;fill-opacity:1;stroke:none;display:inline;enable-background:new"
         d="m 418.01105,143.88732 c 1.92023,1.72578 5.86283,2.36676 7.17541,3.5578 l -0.0697,0.59795 c 0,0 3.35192,1.49002 4.88327,3.28872 0,0 -0.9453,0.95746 -1.2856,2.78047 0,0 -3.87356,-2.57677 -6.93623,-0.60791 0,0 -4.21966,-2.10719 -1.59453,-5.07262 0,0 0.81817,0.4334 1.25569,0.62786 -2.1633,1.57993 0.48833,3.47807 0.48833,3.47807 0,0 2.14511,-2.13292 6.22865,0.24914 0,0 0.3031,-0.96717 0.66771,-1.18593 -2.04176,-1.96885 -4.84339,-2.94988 -4.84339,-2.94988 l 0.0497,-0.86703 c -2.8439,-1.40979 -3.88474,-1.40154 -5.00286,-2.25228 0.11791,1.49085 1.40225,1.67098 1.88356,1.63439 0,0 -3.11883,1.09647 -2.90006,-3.27875 z m 4.29526,3.8767 c 0,0 0.82204,0.26908 1.23577,0.26908 0,0 0.0181,0.60226 -0.56806,0.75741 -0.44821,-0.13792 -0.66771,-1.02649 -0.66771,-1.02649 z"
         id="path3896"
         inkscape:connector-curvature="0" />
      <path
         style="fill:#ffffff;fill-opacity:1;stroke:none;display:inline;enable-background:new"
         d="m 306.05497,50.437407 c 9.60127,8.628991 29.31444,11.833955 35.87734,17.789173 l -0.34881,2.989776 c 0,0 16.75981,7.450178 24.41651,16.443774 0,0 -4.72653,4.787332 -6.42801,13.90246 0,0 -19.368,-12.883944 -34.68142,-3.039604 0,0 -21.09852,-10.535996 -7.97274,-25.363275 0,0 4.0909,2.166986 6.27853,3.139267 -10.81662,7.899781 2.44165,17.390534 2.44165,17.390534 0,0 10.72562,-10.664696 31.14351,1.245743 0,0 1.51557,-4.835908 3.33858,-5.929724 -10.20894,-9.84434 -24.2172,-14.749566 -24.2172,-14.749566 l 0.24915,-4.335178 c -14.21961,-7.049034 -19.42385,-7.007765 -25.01446,-11.261493 0.58952,7.454318 7.0113,8.354956 9.4178,8.172058 0,0 -15.59423,5.482368 -14.50043,-16.393944 z m 21.47657,19.383721 c 0,0 4.11019,1.3454 6.17887,1.3454 0,0 0.0904,3.011293 -2.84028,3.78705 -2.24107,-0.689561 -3.33858,-5.13245 -3.33858,-5.13245 z"
         id="path3983"
         inkscape:connector-curvature="0" />
      <path
         inkscape:connector-curvature="0"
         id="path3865"
         d="m 300.03664,154.95827 c 6.40085,5.75266 19.54295,7.8893 23.91822,11.85945 l -0.23254,1.99318 c 0,0 11.17321,4.96679 16.27768,10.96252 0,0 -3.15102,3.19156 -4.28534,9.26831 0,0 -12.91201,-8.5893 -23.12095,-2.0264 0,0 -14.06568,-7.024 -5.31516,-16.90886 0,0 2.72726,1.44466 4.18568,2.09285 -7.21108,5.26652 1.62777,11.59369 1.62777,11.59369 0,0 7.15041,-7.1098 20.76234,0.8305 0,0 1.01038,-3.22394 2.22572,-3.95315 -6.80596,-6.5629 -16.14479,-9.83305 -16.14479,-9.83305 l 0.1661,-2.89012 c -9.47974,-4.69935 -12.94924,-4.67184 -16.67631,-7.50766 0.39301,4.96955 4.6742,5.56997 6.27853,5.44804 0,0 -10.39616,3.65491 -9.66695,-10.9293 z m 14.31771,12.92248 c 0,0 2.74013,0.89694 4.11925,0.89694 0,0 0.0603,2.00752 -1.89353,2.5247 -1.49404,-0.45971 -2.22572,-3.42164 -2.22572,-3.42164 z"
         style="fill:#ffffff;fill-opacity:1;stroke:none;display:inline;enable-background:new" />
      <path
         style="fill:#ffffff;fill-opacity:1;stroke:none;display:inline;enable-background:new"
         d="m 298.02565,232.07079 c 4.48059,4.02686 13.68006,5.52251 16.74275,8.30161 l -0.16278,1.39523 c 0,0 7.82125,3.47675 11.39438,7.67376 0,0 -2.20572,2.2341 -2.99974,6.48782 0,0 -9.03841,-6.01251 -16.18466,-1.41848 0,0 -9.84598,-4.9168 -3.72062,-11.8362 0,0 1.90909,1.01126 2.92998,1.46499 -5.04775,3.68657 1.13944,8.11559 1.13944,8.11559 0,0 5.00529,-4.97686 14.53364,0.58135 0,0 0.70726,-2.25676 1.558,-2.76721 -4.76417,-4.59403 -11.30135,-6.88313 -11.30135,-6.88313 l 0.11627,-2.02309 c -6.63582,-3.28954 -9.06447,-3.27028 -11.67342,-5.25536 0.27511,3.47869 3.27194,3.89898 4.39497,3.81363 0,0 -7.27731,2.55844 -6.76686,-7.65051 z m 10.02239,9.04574 c 0,0 1.91809,0.62785 2.88348,0.62785 0,0 0.0422,1.40527 -1.32547,1.76729 -1.04583,-0.32179 -1.55801,-2.39514 -1.55801,-2.39514 z"
         id="path3867"
         inkscape:connector-curvature="0" />
      <path
         inkscape:connector-curvature="0"
         id="path3869"
         d="m 64.14657,87.833083 c 25.60339,23.010647 78.17182,31.557217 95.67289,47.437797 l -0.93016,7.97274 c 0,0 44.69283,19.86714 65.1107,43.85007 0,0 -12.60409,12.76622 -17.14137,37.07323 0,0 -51.648,-34.35719 -92.48379,-8.10561 0,0 -56.26273,-28.096 -21.26064,-67.63541 0,0 10.90906,5.77863 16.74274,8.37138 -28.84432,21.06608 6.51107,46.37476 6.51107,46.37476 0,0 28.60166,-28.43919 83.04937,3.32198 0,0 4.04152,-12.89575 8.90288,-15.8126 -27.22384,-26.25157 -64.57918,-39.33218 -64.57918,-39.33218 l 0.6644,-11.56047 c -37.91896,-18.79743 -51.79694,-18.68738 -66.70523,-30.03065 1.57202,19.87818 18.6968,22.27988 25.11411,21.79215 0,0 -41.58462,14.61965 -38.66779,-43.717184 z m 57.27086,51.689927 c 0,0 10.9605,3.58773 16.47698,3.58773 0,0 0.24107,8.03012 -7.5741,10.09881 -5.97619,-1.83883 -8.90288,-13.68654 -8.90288,-13.68654 z"
         style="fill:#ffffff;fill-opacity:1;stroke:none;display:inline;enable-background:new" />
      <path
         inkscape:connector-curvature="0"
         id="path3871"
         d="m 422.01835,59.479136 c 3.20042,2.87633 9.77148,3.944652 11.95911,5.929725 l -0.11627,0.996592 c 0,0 5.5866,2.483393 8.13885,5.481258 0,0 -1.57552,1.595778 -2.14268,4.634154 0,0 -6.456,-4.294648 -11.56047,-1.0132 0,0 -7.03285,-3.512 -2.65758,-8.454427 0,0 1.36363,0.722328 2.09284,1.046422 -3.60554,2.633261 0.81389,5.796845 0.81389,5.796845 0,0 3.57521,-3.554899 10.38117,0.415248 0,0 0.50519,-1.611969 1.11286,-1.976575 -3.40298,-3.281447 -8.0724,-4.916522 -8.0724,-4.916522 l 0.083,-1.44506 c -4.73987,-2.349678 -6.47462,-2.335922 -8.33815,-3.753831 0.1965,2.484773 2.3371,2.784986 3.13926,2.72402 0,0 -5.19808,1.827456 -4.83347,-5.464649 z m 7.15885,6.461241 c 0,0 1.37007,0.448466 2.05963,0.448466 0,0 0.0301,1.003765 -0.94677,1.26235 -0.74702,-0.229853 -1.11286,-1.710816 -1.11286,-1.710816 z"
         style="fill:#ffffff;fill-opacity:1;stroke:none;display:inline;enable-background:new" />
      <path
         style="fill:#ffffff;fill-opacity:1;stroke:none;display:inline;enable-background:new"
         d="m 420.01475,105.18335 c 2.56032,2.30105 7.81714,3.1557 9.56723,4.74375 l -0.093,0.79727 c 0,0 4.46925,1.9867 6.51104,4.38498 0,0 -1.2604,1.27661 -1.71413,3.7073 0,0 -5.16477,-3.4357 -9.24833,-0.81055 0,0 -5.62623,-2.80959 -2.12605,-6.76351 0,0 1.0909,0.57786 1.67426,0.83714 -2.88441,2.10659 0.65111,4.63745 0.65111,4.63745 0,0 2.86015,-2.84391 8.30489,0.33219 0,0 0.40414,-1.28957 0.89027,-1.58125 -2.72235,-2.62514 -6.45787,-3.93319 -6.45787,-3.93319 l 0.0663,-1.15604 c -3.79187,-1.87973 -5.17967,-1.86873 -6.67049,-3.00305 0.15721,1.98781 1.86967,2.22798 2.5114,2.1792 0,0 -4.15844,1.46196 -3.86675,-4.37169 z m 5.72704,5.16896 c 0,0 1.09605,0.35877 1.6477,0.35877 0,0 0.0241,0.80301 -0.75742,1.00988 -0.59761,-0.18389 -0.89028,-1.36865 -0.89028,-1.36865 z"
         id="path3873"
         inkscape:connector-curvature="0" />
      <path
         inkscape:connector-curvature="0"
         id="path3875"
         d="m 418.01105,142.88753 c 1.92023,1.72578 5.86283,2.36676 7.17541,3.5578 l -0.0697,0.59795 c 0,0 3.35192,1.49002 4.88327,3.28872 0,0 -0.9453,0.95746 -1.2856,2.78047 0,0 -3.87356,-2.57677 -6.93623,-0.60791 0,0 -4.21966,-2.10719 -1.59453,-5.07262 0,0 0.81817,0.4334 1.25569,0.62786 -2.1633,1.57993 0.48833,3.47807 0.48833,3.47807 0,0 2.14511,-2.13292 6.22865,0.24914 0,0 0.3031,-0.96717 0.66771,-1.18593 -2.04176,-1.96885 -4.84339,-2.94988 -4.84339,-2.94988 l 0.0497,-0.86703 c -2.8439,-1.40979 -3.88474,-1.40154 -5.00286,-2.25228 0.11791,1.49085 1.40225,1.67098 1.88356,1.63439 0,0 -3.11883,1.09647 -2.90006,-3.27875 z m 4.29526,3.8767 c 0,0 0.82204,0.26908 1.23577,0.26908 0,0 0.0181,0.60226 -0.56806,0.75741 -0.44821,-0.13792 -0.66771,-1.02649 -0.66771,-1.02649 z"
         style="fill:#ffffff;fill-opacity:1;stroke:none;display:inline;enable-background:new" />
    </g>
    <g
       inkscape:groupmode="layer"
       id="layer5"
       inkscape:label="Highlights"
       style="display:inline"
       sodipodi:insensitive="true">
      <path
         style="opacity:0.12999998;color:#bebebe;fill:#ffffff;fill-opacity:1;fill-rule:nonzero;stroke:none;stroke-width:0;marker:none;visibility:visible;display:inline;overflow:visible;enable-background:accumulate"
         d="M 84,47 C 56.836703,47 35,68.836703 35,96 l 0,1 C 35,69.836703 56.836703,48 84,48 l 120,0 c 27.1633,0 49,21.836703 49,49 l 0,-1 C 253,68.836703 231.1633,47 204,47 L 84,47 z"
         id="rect3894"
         inkscape:connector-curvature="0" />
      <path
         style="opacity:0.12999998;color:#bebebe;fill:#ffffff;fill-opacity:1;fill-rule:nonzero;stroke:none;stroke-width:0;marker:none;visibility:visible;display:inline;overflow:visible;enable-background:accumulate"
         d="m 419,141 c -1.1253,0 -2,0.8747 -2,2 l 0,1 c 0,-1.1253 0.8747,-2 2,-2 l 10,0 c 1.1253,0 2,0.8747 2,2 l 0,-1 c 0,-1.1253 -0.8747,-2 -2,-2 l -10,0 z"
         id="rect3896"
         inkscape:connector-curvature="0" />
      <path
         style="opacity:0.12999998;color:#bebebe;fill:#ffffff;fill-opacity:1;fill-rule:nonzero;stroke:none;stroke-width:0;marker:none;visibility:visible;display:inline;overflow:visible;enable-background:accumulate"
         d="m 422,102 c -2.2333,0 -4,1.7667 -4,4 l 0,1 c 0,-2.2333 1.7667,-4 4,-4 l 12,0 c 2.2333,0 4,1.7667 4,4 l 0,-1 c 0,-2.2333 -1.7667,-4 -4,-4 l -12,0 z"
         id="rect3898"
         inkscape:connector-curvature="0" />
      <path
         style="opacity:0.12999998;color:#bebebe;fill:#ffffff;fill-opacity:1;fill-rule:nonzero;stroke:none;stroke-width:0;marker:none;visibility:visible;display:inline;overflow:visible;enable-background:accumulate"
         d="m 424,54 c -3.3413,0 -6,2.658703 -6,6 l 0,1 c 0,-3.341297 2.6587,-6 6,-6 l 16,0 c 3.3413,0 6,2.658703 6,6 l 0,-1 c 0,-3.341297 -2.6587,-6 -6,-6 l -16,0 z"
         id="rect3900"
         inkscape:connector-curvature="0" />
      <path
         style="opacity:0.12999998;color:#bebebe;fill:#ffffff;fill-opacity:1;fill-rule:nonzero;stroke:none;stroke-width:0;marker:none;visibility:visible;display:inline;overflow:visible;enable-background:accumulate"
         d="m 300,224 c -4.4493,0 -8,3.5507 -8,8 l 0,1 c 0,-4.4493 3.5507,-8 8,-8 l 24,0 c 4.4493,0 8,3.5507 8,8 l 0,-1 c 0,-4.4493 -3.5507,-8 -8,-8 l -24,0 z"
         id="rect3902"
         inkscape:connector-curvature="0" />
      <path
         style="opacity:0.12999998;color:#bebebe;fill:#ffffff;fill-opacity:1;fill-rule:nonzero;stroke:none;stroke-width:0;marker:none;visibility:visible;display:inline;overflow:visible;enable-background:accumulate"
         d="m 310,33 c -9.4353,0 -17,7.564703 -17,17 l 0,1 c 0,-9.435297 7.5647,-17 17,-17 l 52,0 c 9.4353,0 17,7.564703 17,17 l 0,-1 c 0,-9.435297 -7.5647,-17 -17,-17 l -52,0 z"
         id="rect3904"
         inkscape:connector-curvature="0" />
      <path
         style="opacity:0.12999998;color:#bebebe;fill:#ffffff;fill-opacity:1;fill-rule:nonzero;stroke:none;stroke-width:0;marker:none;visibility:visible;display:inline;overflow:visible;enable-background:accumulate"
         d="m 302.5,143 c -6.3883,0 -11.5,5.1117 -11.5,11.5 l 0,1 c 0,-6.3883 5.1117,-11.5 11.5,-11.5 l 35,0 c 6.3883,0 11.5,5.1117 11.5,11.5 l 0,-1 c 0,-6.3883 -5.1117,-11.5 -11.5,-11.5 l -35,0 z"
         id="rect3906"
         inkscape:connector-curvature="0" />
      <path
         id="path4085"
         d="m 204,266 c 27.1633,0 49,-21.8367 49,-49 l 0,-1 c 0,27.1633 -21.8367,49 -49,49 L 84,265 C 56.8367,265 35,243.1633 35,216 l 0,1 c 0,27.1633 21.8367,49 49,49 l 120,0 z"
         style="opacity:0.5;color:#bebebe;fill:#000000;fill-opacity:1;fill-rule:nonzero;stroke:none;stroke-width:0;marker:none;visibility:visible;display:inline;overflow:visible;enable-background:accumulate"
         inkscape:connector-curvature="0" />
      <path
         id="path4087"
         d="m 429,156 c 1.1253,0 2,-0.8747 2,-2 l 0,-1 c 0,1.1253 -0.8747,2 -2,2 l -10,0 c -1.1253,0 -2,-0.8747 -2,-2 l 0,1 c 0,1.1253 0.8747,2 2,2 l 10,0 z"
         style="opacity:0.3;color:#bebebe;fill:#000000;fill-opacity:1;fill-rule:nonzero;stroke:none;stroke-width:0;marker:none;visibility:visible;display:inline;overflow:visible;enable-background:accumulate"
         inkscape:connector-curvature="0" />
      <path
         id="path4089"
         d="m 434,123 c 2.2333,0 4,-1.7667 4,-4 l 0,-1 c 0,2.2333 -1.7667,4 -4,4 l -12,0 c -2.2333,0 -4,-1.7667 -4,-4 l 0,1 c 0,2.2333 1.7667,4 4,4 l 12,0 z"
         style="opacity:0.3;color:#bebebe;fill:#000000;fill-opacity:1;fill-rule:nonzero;stroke:none;stroke-width:0;marker:none;visibility:visible;display:inline;overflow:visible;enable-background:accumulate"
         inkscape:connector-curvature="0" />
      <path
         id="path4091"
         d="m 440,83 c 3.3413,0 6,-2.6587 6,-6 l 0,-1 c 0,3.3413 -2.6587,6 -6,6 l -16,0 c -3.3413,0 -6,-2.6587 -6,-6 l 0,1 c 0,3.3413 2.6587,6 6,6 l 16,0 z"
         style="opacity:0.5;color:#bebebe;fill:#000000;fill-opacity:1;fill-rule:nonzero;stroke:none;stroke-width:0;marker:none;visibility:visible;display:inline;overflow:visible;enable-background:accumulate"
         inkscape:connector-curvature="0" />
      <path
         id="path4093"
         d="m 324,265 c 4.4493,0 8,-3.5507 8,-8 l 0,-1 c 0,4.4493 -3.5507,8 -8,8 l -24,0 c -4.4493,0 -8,-3.5507 -8,-8 l 0,1 c 0,4.4493 3.5507,8 8,8 l 24,0 z"
         style="opacity:0.5;color:#bebebe;fill:#000000;fill-opacity:1;fill-rule:nonzero;stroke:none;stroke-width:0;marker:none;visibility:visible;display:inline;overflow:visible;enable-background:accumulate"
         inkscape:connector-curvature="0" />
      <path
         id="path4095"
         d="m 362,120 c 9.4353,0 17,-7.5647 17,-17 l 0,-1 c 0,9.4353 -7.5647,17 -17,17 l -52,0 c -9.4353,0 -17,-7.5647 -17,-17 l 0,1 c 0,9.4353 7.5647,17 17,17 l 52,0 z"
         style="opacity:0.5;color:#bebebe;fill:#000000;fill-opacity:1;fill-rule:nonzero;stroke:none;stroke-width:0;marker:none;visibility:visible;display:inline;overflow:visible;enable-background:accumulate"
         inkscape:connector-curvature="0" />
      <path
         id="path4097"
         d="m 337.5,202 c 6.3883,0 11.5,-5.1117 11.5,-11.5 l 0,-1 c 0,6.3883 -5.1117,11.5 -11.5,11.5 l -35,0 c -6.3883,0 -11.5,-5.1117 -11.5,-11.5 l 0,1 c 0,6.3883 5.1117,11.5 11.5,11.5 l 35,0 z"
         style="opacity:0.5;color:#bebebe;fill:#000000;fill-opacity:1;fill-rule:nonzero;stroke:none;stroke-width:0;marker:none;visibility:visible;display:inline;overflow:visible;enable-background:accumulate"
         inkscape:connector-curvature="0" />
      <path
         inkscape:connector-curvature="0"
         id="path4280"
         d="M 84,265 C 56.836703,265 35,243.1633 35,216 l 0,-1 c 0,27.1633 21.836703,49 49,49 l 120,0 c 27.1633,0 49,-21.8367 49,-49 l 0,1 c 0,27.1633 -21.8367,49 -49,49 l -120,0 z"
         style="opacity:0.1;color:#bebebe;fill:#ffffff;fill-opacity:1;fill-rule:nonzero;stroke:none;stroke-width:0;marker:none;visibility:visible;display:inline;overflow:visible;enable-background:accumulate" />
      <path
         style="opacity:0.1;color:#bebebe;fill:#ffffff;fill-opacity:1;fill-rule:nonzero;stroke:none;stroke-width:0;marker:none;visibility:visible;display:inline;overflow:visible;enable-background:accumulate"
         d="m 300,264 c -4.4493,0 -8,-3.5507 -8,-8 l 0,-1 c 0,4.4493 3.5507,8 8,8 l 24,0 c 4.4493,0 8,-3.5507 8,-8 l 0,1 c 0,4.4493 -3.5507,8 -8,8 l -24,0 z"
         id="path4294"
         inkscape:connector-curvature="0" />
      <path
         style="opacity:0.1;color:#bebebe;fill:#ffffff;fill-opacity:1;fill-rule:nonzero;stroke:none;stroke-width:0;marker:none;visibility:visible;display:inline;overflow:visible;enable-background:accumulate"
         d="m 302.5,201 c -6.3883,0 -11.5,-5.1117 -11.5,-11.5 l 0,-1 c 0,6.3883 5.1117,11.5 11.5,11.5 l 35,0 c 6.3883,0 11.5,-5.1117 11.5,-11.5 l 0,1 c 0,6.3883 -5.1117,11.5 -11.5,11.5 l -35,0 z"
         id="path4296"
         inkscape:connector-curvature="0" />
      <path
         style="opacity:0.1;color:#bebebe;fill:#ffffff;fill-opacity:1;fill-rule:nonzero;stroke:none;stroke-width:0;marker:none;visibility:visible;display:inline;overflow:visible;enable-background:accumulate"
         d="m 310,119 c -9.4353,0 -17,-7.5647 -17,-17 l 0,-1 c 0,9.4353 7.5647,17 17,17 l 52,0 c 9.4353,0 17,-7.5647 17,-17 l 0,1 c 0,9.4353 -7.5647,17 -17,17 l -52,0 z"
         id="path4298"
         inkscape:connector-curvature="0" />
      <path
         style="opacity:0.1;color:#bebebe;fill:#ffffff;fill-opacity:1;fill-rule:nonzero;stroke:none;stroke-width:0;marker:none;visibility:visible;display:inline;overflow:visible;enable-background:accumulate"
         d="m 424,82 c -3.3413,0 -6,-2.658703 -6,-6 l 0,-1 c 0,3.341297 2.6587,6 6,6 l 16,0 c 3.3413,0 6,-2.658703 6,-6 l 0,1 c 0,3.341297 -2.6587,6 -6,6 l -16,0 z"
         id="path4300"
         inkscape:connector-curvature="0" />
      <path
         style="opacity:0.1;color:#bebebe;fill:#ffffff;fill-opacity:1;fill-rule:nonzero;stroke:none;stroke-width:0;marker:none;visibility:visible;display:inline;overflow:visible;enable-background:accumulate"
         d="m 422,122 c -2.2333,0 -4,-1.7667 -4,-4 l 0,-1 c 0,2.2333 1.7667,4 4,4 l 12,0 c 2.2333,0 4,-1.7667 4,-4 l 0,1 c 0,2.2333 -1.7667,4 -4,4 l -12,0 z"
         id="path4302"
         inkscape:connector-curvature="0" />
      <path
         style="opacity:0.1;color:#bebebe;fill:#ffffff;fill-opacity:1;fill-rule:nonzero;stroke:none;stroke-width:0;marker:none;visibility:visible;display:inline;overflow:visible;enable-background:accumulate"
         d="m 419,154.5 c -1.1253,0 -2,-0.8747 -2,-2 l 0,-1 c 0,1.1253 0.8747,2 2,2 l 10,0 c 1.1253,0 2,-0.8747 2,-2 l 0,1 c 0,1.1253 -0.8747,2 -2,2 l -10,0 z"
         id="path4304"
         inkscape:connector-curvature="0" />
    </g>
    <g
       inkscape:groupmode="layer"
       id="layer3"
       inkscape:label="Border"
       style="display:inline"
       sodipodi:insensitive="true">
      <path
         style="opacity:0.41000001;color:#bebebe;fill:#000000;fill-opacity:1;fill-rule:nonzero;stroke:none;stroke-width:0;marker:none;visibility:visible;display:inline;overflow:visible;enable-background:accumulate"
         d="m 422,101 c -2.77,0 -5,2.23 -5,5 l 0,12 c 0,2.77 2.23,5 5,5 l 12,0 c 2.77,0 5,-2.23 5,-5 l 0,-12 c 0,-2.77 -2.23,-5 -5,-5 l -12,0 z m 0,1 12,0 c 2.2333,0 4,1.7667 4,4 l 0,12 c 0,2.2333 -1.7667,4 -4,4 l -12,0 c -2.2333,0 -4,-1.7667 -4,-4 l 0,-12 c 0,-2.2333 1.7667,-4 4,-4 z"
         id="rect4099"
         inkscape:connector-curvature="0" />
      <path
         style="opacity:0.41000001;color:#bebebe;fill:#000000;fill-opacity:1;fill-rule:nonzero;stroke:none;stroke-width:0;marker:none;visibility:visible;display:inline;overflow:visible;enable-background:accumulate"
         d="m 424,53 c -3.878,0 -7,3.122 -7,7 l 0,16 c 0,3.878 3.122,7 7,7 l 16,0 c 3.878,0 7,-3.122 7,-7 l 0,-16 c 0,-3.878 -3.122,-7 -7,-7 l -16,0 z m 0,1 16,0 c 3.3413,0 6,2.658703 6,6 l 0,16 c 0,3.341297 -2.6587,6 -6,6 l -16,0 c -3.3413,0 -6,-2.658703 -6,-6 l 0,-16 c 0,-3.341297 2.6587,-6 6,-6 z"
         id="rect4151"
         inkscape:connector-curvature="0" />
      <path
         style="opacity:0.41000001;color:#bebebe;fill:#000000;fill-opacity:1;fill-rule:nonzero;stroke:none;stroke-width:0;marker:none;visibility:visible;display:inline;overflow:visible;enable-background:accumulate"
         d="m 419,140 c -1.662,0 -3,1.338 -3,3 l 0,10 c 0,1.662 1.338,3 3,3 l 10,0 c 1.662,0 3,-1.338 3,-3 l 0,-10 c 0,-1.662 -1.338,-3 -3,-3 l -10,0 z m 0,1 10,0 c 1.1253,0 2,0.8747 2,2 l 0,10 c 0,1.1253 -0.8747,2 -2,2 l -10,0 c -1.1253,0 -2,-0.8747 -2,-2 l 0,-10 c 0,-1.1253 0.8747,-2 2,-2 z"
         id="rect4095"
         inkscape:connector-curvature="0" />
      <path
         style="opacity:0.41000001;color:#bebebe;fill:#000000;fill-opacity:1;fill-rule:nonzero;stroke:none;stroke-width:0;marker:none;visibility:visible;display:inline;overflow:visible;enable-background:accumulate"
         d="m 300,223 c -4.986,0 -9,4.014 -9,9 l 0,24 c 0,4.986 4.014,9 9,9 l 24,0 c 4.986,0 9,-4.014 9,-9 l 0,-24 c 0,-4.986 -4.014,-9 -9,-9 l -24,0 z m 0,1 24,0 c 4.4493,0 8,3.5507 8,8 l 0,24 c 0,4.4493 -3.5507,8 -8,8 l -24,0 c -4.4493,0 -8,-3.5507 -8,-8 l 0,-24 c 0,-4.4493 3.5507,-8 8,-8 z"
         id="rect4783"
         inkscape:connector-curvature="0" />
      <path
         style="opacity:0.41000001;color:#bebebe;fill:#000000;fill-opacity:1;fill-rule:nonzero;stroke:none;stroke-width:0;marker:none;visibility:visible;display:inline;overflow:visible;enable-background:accumulate"
         d="m 302.5,142 c -6.925,0 -12.5,5.575 -12.5,12.5 l 0,35 c 0,6.925 5.575,12.5 12.5,12.5 l 35,0 c 6.925,0 12.5,-5.575 12.5,-12.5 l 0,-35 c 0,-6.925 -5.575,-12.5 -12.5,-12.5 l -35,0 z m 0,1 35,0 c 6.3883,0 11.5,5.1117 11.5,11.5 l 0,35 c 0,6.3883 -5.1117,11.5 -11.5,11.5 l -35,0 c -6.3883,0 -11.5,-5.1117 -11.5,-11.5 l 0,-35 c 0,-6.3883 5.1117,-11.5 11.5,-11.5 z"
         id="rect4515"
         inkscape:connector-curvature="0" />
      <path
         style="opacity:0.41000001;color:#bebebe;fill:#000000;fill-opacity:1;fill-rule:nonzero;stroke:none;stroke-width:0;marker:none;visibility:visible;display:inline;overflow:visible;enable-background:accumulate"
         d="m 310,32 c -9.972,0 -18,8.028 -18,18 l 0,52 c 0,9.972 8.028,18 18,18 l 52,0 c 9.972,0 18,-8.028 18,-18 l 0,-52 c 0,-9.972 -8.028,-18 -18,-18 l -52,0 z m 0,1 52,0 c 9.4353,0 17,7.564703 17,17 l 0,52 c 0,9.4353 -7.5647,17 -17,17 l -52,0 c -9.4353,0 -17,-7.5647 -17,-17 l 0,-52 c 0,-9.435297 7.5647,-17 17,-17 z"
         id="rect4511"
         inkscape:connector-curvature="0" />
      <path
         style="opacity:0.41000001;color:#bebebe;fill:#000000;fill-opacity:1;fill-rule:nonzero;stroke:none;stroke-width:0;marker:none;visibility:visible;display:inline;overflow:visible;enable-background:accumulate"
         d="M 84,46 C 56.3,46 34,68.3 34,96 l 0,120 c 0,27.7 22.3,50 50,50 l 120,0 c 27.7,0 50,-22.3 50,-50 L 254,96 C 254,68.3 231.7,46 204,46 L 84,46 z m 0,1 120,0 c 27.1633,0 49,21.836703 49,49 l 0,120 c 0,27.1633 -21.8367,49 -49,49 L 84,265 C 56.836703,265 35,243.1633 35,216 L 35,96 C 35,68.836703 56.836703,47 84,47 z"
         id="rect4040"
         inkscape:connector-curvature="0" />
    </g>
  </g>
</svg>
