<?xml version="1.0" encoding="UTF-8" standalone="no"?>
<!-- Created with Inkscape (http://www.inkscape.org/) -->

<svg
   xmlns:dc="http://purl.org/dc/elements/1.1/"
   xmlns:cc="http://creativecommons.org/ns#"
   xmlns:rdf="http://www.w3.org/1999/02/22-rdf-syntax-ns#"
   xmlns:svg="http://www.w3.org/2000/svg"
   xmlns="http://www.w3.org/2000/svg"
   xmlns:xlink="http://www.w3.org/1999/xlink"
   xmlns:sodipodi="http://sodipodi.sourceforge.net/DTD/sodipodi-0.dtd"
   xmlns:inkscape="http://www.inkscape.org/namespaces/inkscape"
   inkscape:export-ydpi="90.000000"
   inkscape:export-xdpi="90.000000"
   width="480"
   height="300"
   id="svg11300"
   sodipodi:version="0.32"
   inkscape:version="0.48.4 r9939"
   sodipodi:docname="applications-system.svg"
   inkscape:output_extension="org.inkscape.output.svg.inkscape"
   version="1.0"
   style="display:inline;enable-background:new"
   inkscape:export-filename="/home/sam/moka-next-template.png">
  <sodipodi:namedview
     stroke="#ef2929"
     fill="#f57900"
     id="base"
     pagecolor="#777777"
     bordercolor="#666666"
     borderopacity="0.25490196"
     inkscape:pageopacity="0"
     inkscape:pageshadow="2"
     inkscape:zoom="1"
     inkscape:cx="232"
     inkscape:cy="145.96533"
     inkscape:current-layer="layer7"
     showgrid="false"
     inkscape:grid-bbox="true"
     inkscape:document-units="px"
     inkscape:showpageshadow="false"
     inkscape:window-width="1364"
     inkscape:window-height="700"
     inkscape:window-x="0"
     inkscape:window-y="28"
     width="400px"
     height="300px"
     inkscape:snap-nodes="true"
     inkscape:snap-bbox="true"
     gridtolerance="10000"
     inkscape:object-nodes="true"
     inkscape:snap-grids="true"
     showguides="true"
     inkscape:guide-bbox="true"
     inkscape:window-maximized="1"
     inkscape:bbox-nodes="true"
     inkscape:bbox-paths="true"
     inkscape:snap-bbox-edge-midpoints="true"
     inkscape:snap-bbox-midpoints="true">
    <inkscape:grid
       spacingy="1px"
       spacingx="1px"
       id="grid5883"
       type="xygrid"
       enabled="true"
       visible="true"
       empspacing="4"
       snapvisiblegridlinesonly="true"
       dotted="false"
       color="#000000"
       opacity="0.1254902"
       empcolor="#203ef3"
       empopacity="0.36470588" />
    <inkscape:grid
       type="xygrid"
       id="grid11592"
       empspacing="8"
       visible="true"
       enabled="false"
       spacingx="0.5px"
       spacingy="0.5px"
       color="#ff0000"
       opacity="0.1254902"
       empcolor="#ff0000"
       empopacity="0.25098039"
       snapvisiblegridlinesonly="true"
       dotted="true" />
  </sodipodi:namedview>
  <defs
     id="defs3">
    <linearGradient
       inkscape:collect="always"
       xlink:href="#outerBackgroundGradient-9"
       id="linearGradient4254"
       x1="35"
       y1="156"
       x2="253"
       y2="156"
       gradientUnits="userSpaceOnUse"
       gradientTransform="matrix(0,-1,1,0,-12,300)" />
    <linearGradient
       inkscape:collect="always"
       xlink:href="#outerBackgroundGradient-9"
       id="linearGradient4256"
       x1="417"
       y1="148"
       x2="431"
       y2="148"
       gradientUnits="userSpaceOnUse"
       gradientTransform="matrix(0,-1,1,0,276,572)" />
    <linearGradient
       inkscape:collect="always"
       xlink:href="#outerBackgroundGradient-9"
       id="linearGradient4260"
       x1="418"
       y1="68"
       x2="446"
       y2="68"
       gradientUnits="userSpaceOnUse"
       gradientTransform="matrix(0,-1,1,0,364,500)" />
    <linearGradient
       inkscape:collect="always"
       xlink:href="#outerBackgroundGradient-9"
       id="linearGradient4262"
       x1="292"
       y1="244"
       x2="332"
       y2="244"
       gradientUnits="userSpaceOnUse"
       gradientTransform="matrix(0,-1,1,0,68,556)" />
    <linearGradient
       inkscape:collect="always"
       xlink:href="#outerBackgroundGradient-9"
       id="linearGradient4264"
       x1="293"
       y1="76"
       x2="379"
       y2="76"
       gradientUnits="userSpaceOnUse"
       gradientTransform="matrix(0,-1,1,0,260,412)" />
    <linearGradient
       inkscape:collect="always"
       xlink:href="#outerBackgroundGradient-9"
       id="linearGradient4266"
       x1="291"
       y1="172"
       x2="349"
       y2="172"
       gradientUnits="userSpaceOnUse"
       gradientTransform="matrix(0,-1,1,0,148,492)" />
    <linearGradient
       inkscape:collect="always"
       xlink:href="#outerBackgroundGradient-9"
       id="linearGradient3870"
       gradientUnits="userSpaceOnUse"
       gradientTransform="matrix(0,-1,1,0,316,540)"
       x1="418"
       y1="112"
       x2="438"
       y2="112" />
    <linearGradient
       id="outerBackgroundGradient-9">
      <stop
         style="stop-color:#3c5866;stop-opacity:1;"
         offset="0"
         id="stop3864-8-6-4" />
      <stop
         style="stop-color:#758690;stop-opacity:1;"
         offset="1"
         id="stop3866-9-1-7" />
    </linearGradient>
  </defs>
  <metadata
     id="metadata4">
    <rdf:RDF>
      <cc:Work
         rdf:about="">
        <dc:format>image/svg+xml</dc:format>
        <dc:type
           rdf:resource="http://purl.org/dc/dcmitype/StillImage" />
        <dc:creator>
          <cc:Agent>
            <dc:title>Sam Hewitt</dc:title>
          </cc:Agent>
        </dc:creator>
        <dc:source />
        <cc:license
           rdf:resource="" />
        <dc:title />
        <dc:subject>
          <rdf:Bag />
        </dc:subject>
        <dc:date />
        <dc:rights>
          <cc:Agent>
            <dc:title />
          </cc:Agent>
        </dc:rights>
        <dc:publisher>
          <cc:Agent>
            <dc:title />
          </cc:Agent>
        </dc:publisher>
        <dc:identifier />
        <dc:relation />
        <dc:language />
        <dc:coverage />
        <dc:description />
        <dc:contributor>
          <cc:Agent>
            <dc:title />
          </cc:Agent>
        </dc:contributor>
      </cc:Work>
      <cc:Work
         rdf:about="">
        <dc:format>image/svg+xml</dc:format>
        <dc:type
           rdf:resource="http://purl.org/dc/dcmitype/StillImage" />
      </cc:Work>
    </rdf:RDF>
  </metadata>
  <g
     style="display:inline"
     inkscape:groupmode="layer"
     inkscape:label="Icon"
     id="layer1">
    <g
       style="display:none"
       inkscape:label="Baseplate"
       id="layer7"
       inkscape:groupmode="layer">
      <text
         y="19.745117"
         xml:space="preserve"
         x="15.006836"
         style="font-style:normal;font-variant:normal;font-weight:normal;font-stretch:normal;line-height:0%;font-family:'DejaVu Sans';-inkscape-font-specification:'DejaVu Sans';display:inline;fill:#000000;fill-opacity:1;stroke:none;enable-background:new"
         inkscape:label="context"
         id="context"><tspan
           style="font-style:normal;font-variant:normal;font-weight:normal;font-stretch:normal;font-size:18px;line-height:1.25;font-family:'DejaVu Sans';-inkscape-font-specification:'DejaVu Sans'"
           y="19.745117"
           x="15.006836"
           sodipodi:role="line"
           id="tspan3933">categories</tspan></text>
      <text
         y="19.745117"
         xml:space="preserve"
         x="122.48828"
         style="font-style:normal;font-variant:normal;font-weight:bold;font-stretch:normal;line-height:0%;font-family:'DejaVu Sans';-inkscape-font-specification:'DejaVu Sans Bold';text-align:start;writing-mode:lr-tb;text-anchor:start;display:inline;fill:#000000;fill-opacity:1;stroke:none;enable-background:new"
         inkscape:label="icon-name"
         id="icon-name"><tspan
           style="font-style:normal;font-variant:normal;font-weight:bold;font-stretch:normal;font-size:18px;line-height:1.25;font-family:'DejaVu Sans';-inkscape-font-specification:'DejaVu Sans Bold'"
           y="19.745117"
           x="122.48828"
           sodipodi:role="line"
           id="tspan3937">applications-system</tspan></text>
      <rect
         style="fill:#eeeeec;fill-opacity:1;fill-rule:nonzero;stroke:none;stroke-width:2;marker:none;visibility:visible;display:inline;overflow:visible;enable-background:accumulate"
         id="rect16x16"
         width="16"
         height="16"
         x="416"
         y="140"
         inkscape:label="16x16" />
      <rect
         style="fill:#d4d4d4;fill-opacity:1;fill-rule:nonzero;stroke:none;stroke-width:2;marker:none;visibility:visible;display:inline;overflow:visible;enable-background:accumulate"
         id="rect24x24"
         width="24"
         height="24"
         x="416"
         y="100"
         inkscape:label="24x24" />
      <rect
         style="fill:#eeeeec;fill-opacity:1;fill-rule:nonzero;stroke:none;stroke-width:2;marker:none;visibility:visible;display:inline;overflow:visible;enable-background:accumulate"
         id="rect32x32"
         width="32"
         height="32"
         x="416"
         y="52"
         inkscape:label="32x32" />
      <rect
         inkscape:label="22x22"
         y="101"
         x="417"
         height="22"
         width="22"
         id="rect22x22"
         style="fill:#eeeeec;fill-opacity:1;fill-rule:nonzero;stroke:none;stroke-width:2;marker:none;visibility:visible;display:inline;overflow:visible;enable-background:accumulate" />
      <rect
         inkscape:label="48x48"
         y="220"
         x="288"
         height="48"
         width="48"
         id="rect48x48"
         style="fill:#eeeeec;fill-opacity:1;fill-rule:nonzero;stroke:none;stroke-width:2;marker:none;visibility:visible;display:inline;overflow:visible;enable-background:accumulate" />
      <rect
         style="fill:#eeeeec;fill-opacity:1;fill-rule:nonzero;stroke:none;stroke-width:2;marker:none;visibility:visible;display:inline;overflow:visible;enable-background:accumulate"
         id="rect256x256"
         width="256"
         height="256"
         x="16"
         y="28"
         inkscape:label="256x256" />
      <rect
         style="fill:#eeeeec;fill-opacity:1;fill-rule:nonzero;stroke:none;stroke-width:2;marker:none;visibility:visible;display:inline;overflow:visible;enable-background:accumulate"
         id="rect64x64"
         width="64"
         height="64"
         x="288"
         y="140"
         inkscape:label="64x64" />
      <rect
         style="fill:#eeeeec;fill-opacity:1;fill-rule:nonzero;stroke:none;stroke-width:2;marker:none;visibility:visible;display:inline;overflow:visible;enable-background:accumulate"
         id="rect96x96"
         width="96"
         height="96"
         x="288"
         y="28"
         inkscape:label="96x96" />
    </g>
    <g
       inkscape:groupmode="layer"
       id="layer4"
       inkscape:label="Shadow"
       style="display:inline"
       sodipodi:insensitive="true">
      <rect
         ry="50"
         y="47"
         x="34"
         height="220"
         width="220"
         id="rect4114"
         style="opacity:0.1;color:#bebebe;fill:#000000;fill-opacity:1;fill-rule:nonzero;stroke:none;stroke-width:0;marker:none;visibility:visible;display:inline;overflow:visible;enable-background:accumulate" />
      <rect
         style="opacity:0.1;color:#bebebe;fill:#000000;fill-opacity:1;fill-rule:nonzero;stroke:none;stroke-width:0;marker:none;visibility:visible;display:inline;overflow:visible;enable-background:accumulate"
         id="rect4120"
         width="30"
         height="30"
         x="417"
         y="54"
         ry="7" />
      <rect
         transform="scale(1,-1)"
         ry="9"
         y="-266"
         x="291"
         height="42"
         width="42"
         id="rect4122"
         style="opacity:0.1;color:#bebebe;fill:#000000;fill-opacity:1;fill-rule:nonzero;stroke:none;stroke-width:0;marker:none;visibility:visible;display:inline;overflow:visible;enable-background:accumulate" />
      <rect
         style="opacity:0.1;color:#bebebe;fill:#000000;fill-opacity:1;fill-rule:nonzero;stroke:none;stroke-width:0;marker:none;visibility:visible;display:inline;overflow:visible;enable-background:accumulate"
         id="rect4124"
         width="88"
         height="88"
         x="292"
         y="33"
         ry="18" />
      <rect
         ry="12.5"
         y="143"
         x="290"
         height="60"
         width="60"
         id="rect4126"
         style="opacity:0.1;color:#bebebe;fill:#000000;fill-opacity:1;fill-rule:nonzero;stroke:none;stroke-width:0;marker:none;visibility:visible;display:inline;overflow:visible;enable-background:accumulate" />
      <path
         id="path4268"
         d="m 422,101 c -2.77,0 -5,2.23 -5,5 l 0,12 c 0,2.77 2.23,5 5,5 l 12,0 c 2.77,0 5,-2.23 5,-5 l 0,-12 c 0,-2.77 -2.23,-5 -5,-5 z"
         style="opacity:0.1;color:#bebebe;fill:#000000;fill-opacity:1;fill-rule:nonzero;stroke:none;stroke-width:0;marker:none;visibility:visible;display:inline;overflow:visible;enable-background:accumulate"
         inkscape:connector-curvature="0"
         sodipodi:nodetypes="sssssssss" />
      <path
         id="path4270"
         d="m 419,140 c -1.662,0 -3,1.338 -3,3 l 0,10 c 0,1.662 1.338,3 3,3 l 10,0 c 1.662,0 3,-1.338 3,-3 l 0,-10 c 0,-1.662 -1.338,-3 -3,-3 z"
         style="opacity:0.1;color:#bebebe;fill:#000000;fill-opacity:1;fill-rule:nonzero;stroke:none;stroke-width:0;marker:none;visibility:visible;display:inline;overflow:visible;enable-background:accumulate"
         inkscape:connector-curvature="0"
         sodipodi:nodetypes="sssssssss" />
    </g>
    <g
       inkscape:groupmode="layer"
       id="layer2"
       inkscape:label="Background"
       style="display:inline">
      <path
         style="color:#bebebe;fill:url(#linearGradient4254);fill-opacity:1.0;fill-rule:nonzero;stroke:none;stroke-width:2;marker:none;visibility:visible;display:inline;overflow:visible;enable-background:accumulate"
         d="M 84 46.5 C 56.568735 46.5 34.5 68.568732 34.5 96 L 34.5 216 C 34.5 243.43127 56.568735 265.5 84 265.5 L 204 265.5 C 231.43127 265.5 253.5 243.43127 253.5 216 L 253.5 96 C 253.5 68.568732 231.43127 46.5 204 46.5 L 84 46.5 z "
         id="path4200" />
      <path
         style="color:#bebebe;fill:url(#linearGradient4256);fill-opacity:1.0;fill-rule:nonzero;stroke:none;stroke-width:2;marker:none;visibility:visible;display:inline;overflow:visible;enable-background:accumulate"
         d="M 419 140.5 C 417.6156 140.5 416.5 141.6156 416.5 143 L 416.5 153 C 416.5 154.3844 417.6156 155.5 419 155.5 L 429 155.5 C 430.3844 155.5 431.5 154.3844 431.5 153 L 431.5 143 C 431.5 141.6156 430.3844 140.5 429 140.5 L 419 140.5 z "
         id="path4202" />
      <path
         style="color:#bebebe;fill:url(#linearGradient3870);fill-opacity:1.0;fill-rule:nonzero;stroke:none;stroke-width:2;marker:none;visibility:visible;display:inline;overflow:visible;enable-background:accumulate"
         d="M 422 101.5 C 419.50301 101.5 417.5 103.50301 417.5 106 L 417.5 118 C 417.5 120.49699 419.50301 122.5 422 122.5 L 434 122.5 C 436.49699 122.5 438.5 120.49699 438.5 118 L 438.5 106 C 438.5 103.50301 436.49699 101.5 434 101.5 L 422 101.5 z "
         id="path4204" />
      <path
         style="color:#bebebe;fill:url(#linearGradient4260);fill-opacity:1.0;fill-rule:nonzero;stroke:none;stroke-width:2;marker:none;visibility:visible;display:inline;overflow:visible;enable-background:accumulate"
         d="M 424 53.5 C 420.39346 53.5 417.5 56.393464 417.5 60 L 417.5 76 C 417.5 79.606536 420.39346 82.5 424 82.5 L 440 82.5 C 443.60654 82.5 446.5 79.606536 446.5 76 L 446.5 60 C 446.5 56.393464 443.60654 53.5 440 53.5 L 424 53.5 z "
         id="path4206" />
      <path
         style="color:#bebebe;fill:url(#linearGradient4262);fill-opacity:1.0;fill-rule:nonzero;stroke:none;stroke-width:2;marker:none;visibility:visible;display:inline;overflow:visible;enable-background:accumulate"
         d="M 300 223.5 C 295.28469 223.5 291.5 227.28469 291.5 232 L 291.5 256 C 291.5 260.71531 295.28469 264.5 300 264.5 L 324 264.5 C 328.71531 264.5 332.5 260.71531 332.5 256 L 332.5 232 C 332.5 227.28469 328.71531 223.5 324 223.5 L 300 223.5 z "
         id="path4208" />
      <path
         style="color:#bebebe;fill:url(#linearGradient4264);fill-opacity:1.0;fill-rule:nonzero;stroke:none;stroke-width:2;marker:none;visibility:visible;display:inline;overflow:visible;enable-background:accumulate"
         d="M 310 32.5 C 300.29745 32.5 292.5 40.297452 292.5 50 L 292.5 102 C 292.5 111.70255 300.29745 119.5 310 119.5 L 362 119.5 C 371.70255 119.5 379.5 111.70255 379.5 102 L 379.5 50 C 379.5 40.297452 371.70255 32.5 362 32.5 L 310 32.5 z "
         id="path4210" />
      <path
         style="color:#bebebe;fill:url(#linearGradient4266);fill-opacity:1.0;fill-rule:nonzero;stroke:none;stroke-width:2;marker:none;visibility:visible;display:inline;overflow:visible;enable-background:accumulate"
         d="M 302.5 142.5 C 295.84498 142.5 290.5 147.84498 290.5 154.5 L 290.5 189.5 C 290.5 196.15502 295.84498 201.5 302.5 201.5 L 337.5 201.5 C 344.15502 201.5 349.5 196.15502 349.5 189.5 L 349.5 154.5 C 349.5 147.84498 344.15502 142.5 337.5 142.5 L 302.5 142.5 z "
         id="path4212" />
    </g>
    <g
       inkscape:groupmode="layer"
       id="layer6"
       inkscape:label="Symbols"
       style="display:inline">
      <path
         id="path4344"
         d="m 423.49999,144 c -0.277,0 -0.5,0.223 -0.5,0.5 l 0,1.15625 c -0.2317,0.0685 -0.4473,0.16882 -0.65625,0.28125 l -0.8125,-0.8125 c -0.19587,-0.19587 -0.52288,-0.19587 -0.71875,0 l -0.6875,0.6875 c -0.19587,0.19587 -0.19587,0.52288 0,0.71875 l 0.8125,0.8125 c -0.11243,0.20895 -0.21277,0.42455 -0.28125,0.65625 l -1.15625,0 c -0.277,0 -0.5,0.223 -0.5,0.5 l 0,1 c 0,0.277 0.223,0.5 0.5,0.5 l 1.15625,0 c 0.0685,0.2317 0.16882,0.4473 0.28125,0.65625 l -0.8125,0.8125 c -0.19587,0.19587 -0.19587,0.52288 0,0.71875 l 0.6875,0.6875 c 0.19587,0.19587 0.52288,0.19587 0.71875,0 l 0.8125,-0.8125 c 0.20895,0.11243 0.42455,0.21277 0.65625,0.28125 l 0,1.15625 c 0,0.277 0.223,0.5 0.5,0.5 l 1,0 c 0.277,0 0.5,-0.223 0.5,-0.5 l 0,-1.15625 c 0.2317,-0.0685 0.4473,-0.16882 0.65625,-0.28125 l 0.8125,0.8125 c 0.19587,0.19587 0.52288,0.19587 0.71875,0 l 0.6875,-0.6875 c 0.19587,-0.19587 0.19587,-0.52288 0,-0.71875 l -0.8125,-0.8125 c 0.11243,-0.20895 0.21277,-0.42455 0.28125,-0.65625 l 1.15625,0 c 0.277,0 0.5,-0.223 0.5,-0.5 l 0,-1 c 0,-0.277 -0.223,-0.5 -0.5,-0.5 l -1.15625,0 c -0.0685,-0.2317 -0.16882,-0.4473 -0.28125,-0.65625 l 0.8125,-0.8125 c 0.19587,-0.19587 0.19587,-0.52288 0,-0.71875 l -0.6875,-0.6875 c -0.19587,-0.19587 -0.52288,-0.19587 -0.71875,0 l -0.8125,0.8125 c -0.20895,-0.11243 -0.42455,-0.21277 -0.65625,-0.28125 l 0,-1.15625 c 0,-0.277 -0.223,-0.5 -0.5,-0.5 l -1,0 z m 0.5,3 c 1.10457,0 2,0.89543 2,2 0,1.10457 -0.89543,2 -2,2 -1.10457,0 -2,-0.89543 -2,-2 0,-0.13807 0.005,-0.27605 0.0312,-0.40625 0.18654,-0.91137 1.0023,-1.59375 1.9688,-1.59375 z"
         style="opacity:0.2;color:#000000;fill:#000000;fill-opacity:1;fill-rule:nonzero;stroke:none;stroke-width:2;marker:none;visibility:visible;display:inline;overflow:visible;enable-background:new"
         inkscape:connector-curvature="0" />
      <path
         id="path3875"
         d="m 188.024,103.72906 c 0,0 -2.47348,1.12144 -8.15327,5.84179 -6.94603,5.77079 -11.24747,5.30558 -16.32914,4.45365 l -0.04,0.04 c -0.96803,-0.44202 -1.94666,-0.85603 -2.9396,-1.22754 l 0,-0.04 c -4.19633,-2.9886 -7.56554,-5.70479 -8.39677,-14.697185 -0.68002,-7.350642 -1.63446,-9.896525 -1.63446,-9.896525 -2.76909,-1.20364 -6.53261,-1.20324 -6.53261,-1.20324 0,0 -3.76452,4e-4 -6.53151,1.20424 0,0 -0.95704,2.543783 -1.63526,9.895725 -0.83103,8.991995 -4.20214,11.707085 -8.39677,14.697185 l -0.007,0.05 c -0.99204,0.37101 -1.96787,0.78603 -2.9394,1.22744 l -0.04,-0.04 c -5.08127,0.85303 -9.38431,1.31554 -16.33064,-4.45475 -5.67769,-4.71745 -8.152873,-5.84179 -8.152873,-5.84179 -2.80269,1.10074 -5.46328,3.76132 -5.46328,3.76132 0,0 -2.66178,2.66179 -3.76692,5.47048 0,0 1.12394,2.47589 5.84119,8.15337 5.770693,6.94593 5.306283,11.25077 4.454953,16.33044 l 0.04,0.04 c -0.44002,0.96903 -0.85603,1.94696 -1.228743,2.9384 l -0.04,0 c -2.9878,4.19703 -5.70419,7.56624 -14.69589,8.39837 -7.35044,0.67902 -9.89802,1.63665 -9.89802,1.63665 -1.20274,2.7701 -1.20294,6.52822 -1.20294,6.52822 0,0 0.002,3.76622 1.20494,6.53281 0,0 2.54318,0.95804 9.89502,1.63406 8.9915,0.83203 11.70349,4.20544 14.69569,8.39837 l 0.04,0 c 0.372013,0.99304 0.787023,1.96957 1.227143,2.9399 l -0.04,0.04 c 0.85503,5.08097 1.31674,9.38331 -4.453353,16.32894 -4.71725,5.67888 -5.84189,8.15787 -5.84189,8.15787 1.10924,2.80849 3.76712,5.46637 3.76712,5.46637 0,0 2.66269,2.66279 5.47048,3.76703 0,0 2.474983,-1.12024 8.152373,-5.84069 6.94653,-5.76989 11.25017,-5.30248 16.33034,-4.45435 l 0.04,-0.04 c 0.97203,0.44102 1.94726,0.85703 2.9399,1.22724 l -0.007,0.05 c 4.19753,2.9884 7.56614,5.70419 8.39837,14.69559 0.67902,7.35084 1.63595,9.89922 1.63595,9.89922 2.7703,1.20054 6.52932,1.20234 6.52932,1.20234 0,0 3.76622,-0.001 6.53171,-1.20644 0,0 0.95804,-2.54078 1.63506,-9.89392 0.83203,-8.9914 4.20664,-11.70459 8.39737,-14.69629 l -0.007,-0.05 c 0.99204,-0.37101 1.96877,-0.78802 2.9396,-1.22764 l 0.04,0.04 c 5.08077,-0.85503 9.38291,-1.31644 16.32924,4.45395 5.67768,4.71735 8.15637,5.84259 8.15637,5.84259 2.80899,-1.11034 5.46718,-3.76843 5.46718,-3.76843 0,0 2.66268,-2.66268 3.76722,-5.47078 0,0 -1.12034,-2.47518 -5.84179,-8.15286 -5.77069,-6.94593 -5.30298,-11.25017 -4.45365,-16.32944 l -0.04,-0.04 c 0.44101,-0.97203 0.85703,-1.94726 1.22744,-2.9394 l 0.06,0 c 2.9884,-4.19633 5.70449,-7.56544 14.69627,-8.39767 7.35145,-0.67902 9.90003,-1.63636 9.90003,-1.63636 1.20014,-2.77029 1.20044,-6.53001 1.20044,-6.53001 0,0 -6e-4,-3.76452 -1.20334,-6.53262 0,0 -2.54418,-0.95703 -9.89643,-1.63445 -8.99228,-0.83103 -11.70577,-4.20234 -14.69727,-8.39677 l -0.04,0 c -0.37101,-0.99204 -0.78403,-1.96947 -1.22754,-2.9395 l 0.04,-0.04 c -0.85303,-5.07917 -1.31704,-9.38291 4.45335,-16.32934 4.71745,-5.67768 5.84379,-8.15547 5.84379,-8.15547 -1.10834,-2.80789 -3.76892,-5.46848 -3.76892,-5.46848 0,0 -2.66279,-2.66258 -5.47088,-3.76712 z m -20.87839,76.41641 c -12.78572,12.78562 -33.5144,12.78582 -46.30012,2e-4 -12.78572,-12.78572 -12.78552,-33.5144 2e-4,-46.30012 12.78542,-12.78542 33.5141,-12.78562 46.29982,1e-4 12.78572,12.78562 12.78552,33.5144 1e-4,46.29982 z"
         inkscape:connector-curvature="0"
         style="opacity:0.2;fill:#000000;fill-opacity:1;stroke:none;display:inline;enable-background:new" />
      <path
         style="opacity:0.2;fill:#000000;fill-opacity:1;stroke:none;display:inline;enable-background:new"
         inkscape:connector-curvature="0"
         d="m 332.57825,157.77973 c 0,0 -0.70671,0.32041 -2.3295,1.66908 -1.98458,1.6488 -3.21357,1.51588 -4.66547,1.27247 l -0.0114,0.0114 c -0.27658,-0.12629 -0.55619,-0.24458 -0.83989,-0.35072 l 0,-0.0114 c -1.19895,-0.85389 -2.16158,-1.62994 -2.39907,-4.1992 -0.19429,-2.10018 -0.46699,-2.82758 -0.46699,-2.82758 C 321.07476,152.99989 319.99947,153 319.99947,153 c 0,0 -1.07558,1.1e-4 -1.86615,0.34407 0,0 -0.27344,0.72679 -0.46721,2.82735 -0.23744,2.56914 -1.20062,3.34488 -2.39908,4.19919 l -0.002,0.0143 c -0.28344,0.106 -0.56225,0.22458 -0.83983,0.3507 l -0.0114,-0.0114 c -1.45179,0.24372 -2.68123,0.37587 -4.6659,-1.27279 -1.62219,-1.34784 -2.32939,-1.66908 -2.32939,-1.66908 -0.80077,0.3145 -1.56093,1.07466 -1.56093,1.07466 0,0 -0.76051,0.76051 -1.07627,1.563 0,0 0.32113,0.70739 1.66891,2.32953 1.64877,1.98455 1.51608,3.21451 1.27285,4.66584 l 0.0114,0.0114 c -0.12572,0.27687 -0.24458,0.55627 -0.35107,0.83954 l -0.0114,0 c -0.85366,1.19915 -1.62977,2.16179 -4.19883,2.39954 -2.10012,0.194 -2.828,0.46761 -2.828,0.46761 -0.34364,0.79146 -0.3437,1.86521 -0.3437,1.86521 0,0 5.7e-4,1.07606 0.34427,1.86651 0,0 0.72662,0.27373 2.82715,0.46688 2.569,0.23772 3.34385,1.20155 4.19876,2.39953 l 0.0114,0 c 0.10629,0.28373 0.22487,0.56274 0.35062,0.83997 l -0.0114,0.0114 c 0.24429,1.45171 0.37621,2.68095 -1.27239,4.66541 -1.34778,1.62254 -1.66911,2.33082 -1.66911,2.33082 0.31693,0.80243 1.07632,1.56182 1.07632,1.56182 0,0 0.76077,0.7608 1.56299,1.0763 0,0 0.70714,-0.32007 2.32925,-1.66877 1.98473,-1.64854 3.21434,-1.51499 4.66581,-1.27267 l 0.0114,-0.0114 c 0.27773,0.12601 0.55636,0.24487 0.83997,0.35064 l -0.002,0.0143 c 1.1993,0.85382 2.16176,1.62976 2.39954,4.19874 0.194,2.10024 0.46741,2.82834 0.46741,2.82834 0.79152,0.34302 1.86552,0.34353 1.86552,0.34353 0,0 1.07607,-2.9e-4 1.86621,-0.3447 0,0 0.27372,-0.72593 0.46716,-2.82683 0.23772,-2.56897 1.20189,-3.34417 2.39924,-4.19894 l -0.002,-0.0143 c 0.28344,-0.106 0.56251,-0.22515 0.83989,-0.35075 l 0.0114,0.0114 c 1.45165,-0.2443 2.68083,-0.37613 4.6655,1.27255 1.62219,1.34782 2.33039,1.66932 2.33039,1.66932 0.80257,-0.31724 1.56205,-1.0767 1.56205,-1.0767 0,0 0.76076,-0.76076 1.07635,-1.56308 0,0 -0.3201,-0.70719 -1.66909,-2.32939 -1.64876,-1.98455 -1.51513,-3.21433 -1.27247,-4.66555 l -0.0114,-0.0114 c 0.12601,-0.27772 0.24487,-0.55636 0.3507,-0.83983 l 0.0171,0 c 0.85383,-1.19895 1.62986,-2.16155 4.19894,-2.39933 2.10041,-0.19401 2.82857,-0.46753 2.82857,-0.46753 0.3429,-0.79152 0.34299,-1.86572 0.34299,-1.86572 0,0 -1.8e-4,-1.07558 -0.34382,-1.86646 0,0 -0.7269,-0.27344 -2.82754,-0.46699 -2.56922,-0.23744 -3.34451,-1.20067 -4.19923,-2.39908 l -0.0114,0 c -0.106,-0.28344 -0.22402,-0.5627 -0.35073,-0.83985 l 0.0114,-0.0114 c -0.24372,-1.45119 -0.37628,-2.68083 1.27239,-4.66553 1.34784,-1.62219 1.66965,-2.33013 1.66965,-2.33013 -0.31667,-0.80226 -1.07683,-1.56243 -1.07683,-1.56243 0,0 -0.7608,-0.76073 -1.56311,-1.07632 z m -5.96525,21.83326 c -3.65306,3.65303 -9.57554,3.65309 -13.22861,6e-5 -3.65306,-3.65307 -3.653,-9.57555 6e-5,-13.22861 3.65298,-3.65298 9.57546,-3.65303 13.22852,3e-5 3.65306,3.65303 3.65301,9.57554 3e-5,13.22852 z"
         id="path3877" />
      <path
         id="path3879"
         d="m 320.80398,234.34583 c 0,0 -0.49469,0.22429 -1.63064,1.16835 -1.38921,1.15416 -2.2495,1.06112 -3.26583,0.89073 l -0.008,0.008 c -0.19361,-0.0884 -0.38933,-0.1712 -0.58792,-0.2455 l 0,-0.008 c -0.83927,-0.59772 -1.51311,-1.14096 -1.67935,-2.93944 -0.13601,-1.47012 -0.3269,-1.9793 -0.3269,-1.9793 -0.55381,-0.24073 -1.30652,-0.24065 -1.30652,-0.24065 0,0 -0.7529,8e-5 -1.3063,0.24085 0,0 -0.19141,0.50875 -0.32705,1.97914 -0.16621,1.7984 -0.84043,2.34142 -1.67935,2.93943 l -0.001,0.01 c -0.19841,0.0742 -0.39358,0.15721 -0.58788,0.24549 l -0.008,-0.008 c -1.01626,0.17061 -1.87686,0.26311 -3.26613,-0.89095 -1.13553,-0.94349 -1.63056,-1.16835 -1.63056,-1.16835 -0.56054,0.22015 -1.09267,0.75226 -1.09267,0.75226 0,0 -0.53235,0.53235 -0.75338,1.0941 0,0 0.22479,0.49517 1.16823,1.63067 1.15414,1.38918 1.06126,2.25015 0.89101,3.26608 l 0.008,0.008 c -0.088,0.19381 -0.1712,0.38939 -0.24574,0.58768 l -0.008,0 c -0.59756,0.83941 -1.14085,1.51325 -2.93919,1.67968 -1.47007,0.1358 -1.9796,0.32733 -1.9796,0.32733 -0.24054,0.55402 -0.24059,1.30564 -0.24059,1.30564 0,0 4.1e-4,0.75324 0.241,1.30656 0,0 0.50862,0.19161 1.97899,0.32681 1.7983,0.16641 2.34071,0.84109 2.93913,1.67967 l 0.008,0 c 0.0744,0.19862 0.15741,0.39392 0.24544,0.58798 l -0.008,0.008 c 0.171,1.0162 0.26334,1.87667 -0.89068,3.26579 -0.94344,1.13578 -1.16837,1.63157 -1.16837,1.63157 0.22186,0.5617 0.75342,1.09328 0.75342,1.09328 0,0 0.53254,0.53255 1.09409,0.7534 0,0 0.495,-0.22404 1.63048,-1.16813 1.38931,-1.15398 2.25004,-1.0605 3.26606,-0.89087 l 0.008,-0.008 c 0.19441,0.0882 0.38946,0.17141 0.58798,0.24545 l -10e-4,0.01 c 0.83951,0.59767 1.51323,1.14083 1.67968,2.93911 0.13581,1.47017 0.32719,1.97984 0.32719,1.97984 0.55406,0.24011 1.30586,0.24047 1.30586,0.24047 0,0 0.75325,-2e-4 1.30635,-0.24129 0,0 0.1916,-0.50815 0.32701,-1.97878 0.1664,-1.79828 0.84132,-2.34092 1.67947,-2.93926 l -10e-4,-0.01 c 0.1984,-0.0742 0.39375,-0.1576 0.58792,-0.24552 l 0.008,0.008 c 1.01615,-0.17101 1.87658,-0.26329 3.26585,0.89078 1.13553,0.94348 1.63127,1.16853 1.63127,1.16853 0.5618,-0.22207 1.09343,-0.75369 1.09343,-0.75369 0,0 0.53253,-0.53253 0.75345,-1.09416 0,0 -0.22407,-0.49503 -1.16836,-1.63057 -1.15414,-1.38918 -1.0606,-2.25003 -0.89073,-3.26588 l -0.008,-0.008 c 0.0882,-0.19441 0.17141,-0.38946 0.24549,-0.58788 l 0.012,0 c 0.59768,-0.83927 1.1409,-1.51309 2.93925,-1.67953 1.4703,-0.13581 1.98001,-0.32728 1.98001,-0.32728 0.24003,-0.55406 0.24008,-1.306 0.24008,-1.306 0,0 -1.1e-4,-0.7529 -0.24066,-1.30652 0,0 -0.50884,-0.19141 -1.97929,-0.32689 -1.79845,-0.16621 -2.34115,-0.84047 -2.93945,-1.67936 l -0.008,0 c -0.0742,-0.19841 -0.15681,-0.39389 -0.24551,-0.58789 l 0.008,-0.008 c -0.1706,-1.01584 -0.2634,-1.87658 0.89067,-3.26587 0.94349,-1.13553 1.16876,-1.63109 1.16876,-1.63109 -0.22167,-0.56158 -0.75378,-1.0937 -0.75378,-1.0937 0,0 -0.53256,-0.53251 -1.09418,-0.75343 z m -4.17567,15.28327 c -2.55714,2.55712 -6.70287,2.55717 -9.26002,5e-5 -2.55714,-2.55715 -2.5571,-6.70289 4e-5,-9.26003 2.55709,-2.55708 6.70282,-2.55712 9.25996,2e-5 2.55714,2.55712 2.55711,6.70288 2e-5,9.25996 z"
         inkscape:connector-curvature="0"
         style="opacity:0.2;fill:#000000;fill-opacity:1;stroke:none;display:inline;enable-background:new" />
      <path
         style="opacity:0.2;fill:#000000;fill-opacity:1;stroke:none;display:inline;enable-background:new"
         inkscape:connector-curvature="0"
         d="m 432.4032,107.67376 c 0,0 -0.24734,0.11214 -0.8153,0.58416 -0.69458,0.57706 -1.12471,0.53054 -1.63286,0.44535 l -0.004,0.004 c -0.0968,-0.0442 -0.19466,-0.0856 -0.29395,-0.12275 l 0,-0.004 c -0.41962,-0.29885 -0.75653,-0.57046 -0.83965,-1.46967 -0.068,-0.73504 -0.16344,-0.98962 -0.16344,-0.98962 -0.2769,-0.12036 -0.65324,-0.12032 -0.65324,-0.12032 0,0 -0.37644,4e-5 -0.65313,0.12042 0,0 -0.0957,0.25437 -0.16352,0.98954 -0.0831,0.89917 -0.4202,1.17067 -0.83965,1.46967 l -7.1e-4,0.005 c -0.0992,0.0371 -0.19678,0.0786 -0.29393,0.12274 l -0.004,-0.004 c -0.50811,0.0853 -0.9384,0.13155 -1.63301,-0.44546 -0.56775,-0.47173 -0.81526,-0.58416 -0.81526,-0.58416 -0.28026,0.11007 -0.54631,0.37612 -0.54631,0.37612 0,0 -0.26617,0.26617 -0.37668,0.54703 0,0 0.11239,0.24758 0.5841,0.81531 0.57705,0.69457 0.53061,1.12504 0.44548,1.63299 l 0.004,0.004 c -0.044,0.0969 -0.0856,0.19469 -0.12287,0.29383 l -0.004,0 c -0.29877,0.41969 -0.5704,0.7566 -1.46954,0.83981 -0.73502,0.0679 -0.98977,0.16366 -0.98977,0.16366 -0.12027,0.277 -0.12029,0.6528 -0.12029,0.6528 0,0 1.6e-4,0.37661 0.12049,0.65326 0,0 0.25431,0.0958 0.98947,0.1634 0.89912,0.0832 1.17031,0.42053 1.46952,0.83981 l 0.004,0 c 0.0372,0.0993 0.0787,0.19695 0.12271,0.29398 l -0.004,0.004 c 0.0855,0.50808 0.13167,0.9383 -0.44532,1.63284 -0.47171,0.56787 -0.58417,0.81576 -0.58417,0.81576 0.11092,0.28084 0.3767,0.54662 0.3767,0.54662 0,0 0.26626,0.26627 0.54703,0.37669 0,0 0.24749,-0.11202 0.81521,-0.58405 0.69463,-0.57697 1.12498,-0.53023 1.63298,-0.44542 l 0.004,-0.004 c 0.0972,0.0441 0.19472,0.0857 0.29398,0.12272 l -7e-4,0.005 c 0.41974,0.29883 0.75659,0.5704 0.83981,1.46951 0.0679,0.73506 0.16359,0.98989 0.16359,0.98989 0.27702,0.12005 0.65291,0.12023 0.65291,0.12023 0,0 0.37661,-1.2e-4 0.65315,-0.12064 0,0 0.0958,-0.25407 0.1635,-0.98936 0.0832,-0.89911 0.42065,-1.17042 0.83971,-1.46958 l -7e-4,-0.005 c 0.0992,-0.0371 0.19687,-0.0788 0.29395,-0.12276 l 0.004,0.004 c 0.50806,-0.0855 0.93826,-0.13164 1.63287,0.44538 0.56775,0.47172 0.81561,0.58424 0.81561,0.58424 0.28089,-0.11103 0.5467,-0.37683 0.5467,-0.37683 0,0 0.26626,-0.26626 0.37671,-0.54706 0,0 -0.11203,-0.24751 -0.58416,-0.81526 -0.57705,-0.69457 -0.53028,-1.12498 -0.44535,-1.63289 l -0.004,-0.004 c 0.0441,-0.0972 0.0857,-0.19472 0.12274,-0.29393 l 0.006,0 c 0.29883,-0.41962 0.57043,-0.75652 1.46958,-0.83974 0.73512,-0.0679 0.98997,-0.16363 0.98997,-0.16363 0.12001,-0.27702 0.12004,-0.65298 0.12004,-0.65298 0,0 -6e-5,-0.37644 -0.12033,-0.65324 0,0 -0.25441,-0.0957 -0.98961,-0.16344 -0.8992,-0.0831 -1.17054,-0.42022 -1.46968,-0.83965 l -0.004,0 c -0.0371,-0.0992 -0.0784,-0.19694 -0.12275,-0.29394 l 0.004,-0.004 c -0.0853,-0.5079 -0.1317,-0.93826 0.44532,-1.63288 0.47173,-0.56775 0.58436,-0.81552 0.58436,-0.81552 -0.11083,-0.28078 -0.37688,-0.54683 -0.37688,-0.54683 0,0 -0.26627,-0.26625 -0.54707,-0.3767 z m -2.08777,7.64139 c -1.27853,1.27852 -3.35133,1.27854 -4.62986,2e-5 -1.27853,-1.27853 -1.27851,-3.35133 2e-5,-4.62986 1.2785,-1.2785 3.3513,-1.27852 4.62983,1e-5 1.27853,1.27852 1.27851,3.35133 10e-6,4.62983 z"
         id="path3881" />
      <path
         id="path3885"
         d="m 438.28938,61.389883 c 0,0 -0.35335,0.160206 -1.16475,0.834545 -0.9923,0.824401 -1.60679,0.757942 -2.33275,0.636237 l -0.006,0.0057 c -0.13829,-0.06314 -0.27809,-0.12229 -0.41994,-0.175364 l 0,-0.0057 c -0.59948,-0.426944 -1.0808,-0.814973 -1.19955,-2.099605 -0.0971,-1.050095 -0.23349,-1.413793 -0.23349,-1.413793 -0.39559,-0.17195 -0.93324,-0.171893 -0.93324,-0.171893 0,0 -0.53778,5.8e-5 -0.93307,0.172035 0,0 -0.13672,0.363399 -0.2336,1.41368 -0.11873,1.284575 -0.60032,1.672446 -1.19956,2.099605 l -10e-4,0.0071 c -0.14172,0.05301 -0.28112,0.11229 -0.41991,0.175349 l -0.006,-0.0057 c -0.7259,0.121862 -1.34062,0.187935 -2.33296,-0.636395 -0.8111,-0.673924 -1.1647,-0.834544 -1.1647,-0.834544 -0.40038,0.157248 -0.78046,0.537333 -0.78046,0.537333 0,0 -0.38027,0.380257 -0.53815,0.7815 0,0 0.16057,0.353699 0.83447,1.164771 0.82441,0.992278 0.75804,1.607258 0.63642,2.332927 l 0.006,0.0057 c -0.0629,0.138433 -0.12229,0.278139 -0.17554,0.419772 l -0.006,0 c -0.42684,0.599579 -0.81489,1.080896 -2.09942,1.199772 -1.05007,0.097 -1.41402,0.233809 -1.41402,0.233809 -0.1718,0.395728 -0.17184,0.932604 -0.17184,0.932604 0,0 2.3e-4,0.538034 0.17213,0.933263 0,0 0.36332,0.136863 1.41358,0.233437 1.2845,0.118862 1.67193,0.600779 2.0994,1.199772 l 0.006,0 c 0.0531,0.141862 0.11242,0.281367 0.1753,0.419987 l -0.006,0.0057 c 0.12214,0.725855 0.18811,1.340478 -0.63619,2.332714 -0.67389,0.811272 -0.83455,1.165413 -0.83455,1.165413 0.15846,0.401214 0.53816,0.780914 0.53816,0.780914 0,0 0.38039,0.380399 0.7815,0.538148 0,0 0.35358,-0.160034 1.16462,-0.834388 0.99237,-0.824272 1.60718,-0.757499 2.33292,-0.636337 l 0.006,-0.0057 c 0.13887,0.06301 0.27821,0.122432 0.42001,0.17532 l -10e-4,0.0071 c 0.59964,0.426916 1.08088,0.814887 1.19977,2.099376 0.097,1.050123 0.23371,1.414179 0.23371,1.414179 0.39576,0.171507 0.93275,0.171764 0.93275,0.171764 0,0 0.53804,-1.71e-4 0.93311,-0.172349 0,0 0.13684,-0.362971 0.23356,-1.413423 0.11888,-1.284489 0.60096,-1.672088 1.19964,-2.099475 l -9.9e-4,-0.0071 c 0.14173,-0.05301 0.28125,-0.112576 0.41994,-0.175378 l 0.006,0.0057 c 0.72584,-0.122147 1.34042,-0.188063 2.33276,0.636281 0.8111,0.67391 1.16521,0.834658 1.16521,0.834658 0.4013,-0.15862 0.78102,-0.538347 0.78102,-0.538347 0,0 0.38039,-0.380386 0.53817,-0.781543 0,0 -0.16004,-0.353599 -0.83454,-1.1647 -0.82439,-0.992278 -0.75757,-1.607172 -0.63624,-2.332784 l -0.006,-0.0057 c 0.063,-0.138863 0.12241,-0.278182 0.17534,-0.419916 l 0.009,0 c 0.42692,-0.599478 0.81491,-1.080782 2.09947,-1.199672 1.0502,-0.097 1.4143,-0.233766 1.4143,-0.233766 0.17144,-0.395757 0.17149,-0.932862 0.17149,-0.932862 0,0 -9e-5,-0.537791 -0.1719,-0.933234 0,0 -0.36345,-0.136719 -1.41378,-0.233494 -1.28461,-0.118718 -1.67225,-0.600336 -2.09961,-1.199543 l -0.006,0 c -0.053,-0.14172 -0.112,-0.281353 -0.17535,-0.41993 l 0.006,-0.0057 c -0.12186,-0.725598 -0.18815,-1.34042 0.63619,-2.33277 0.67393,-0.811101 0.83483,-1.165071 0.83483,-1.165071 -0.15833,-0.401128 -0.53842,-0.781214 -0.53842,-0.781214 0,0 -0.38039,-0.380371 -0.78155,-0.538162 z m -2.98264,10.916667 c -1.82654,1.826523 -4.78778,1.826552 -6.61432,2.8e-5 -1.82654,-1.826537 -1.82651,-4.787787 3e-5,-6.614324 1.82649,-1.826496 4.78774,-1.826523 6.61428,1.4e-5 1.82654,1.826523 1.82651,4.787787 10e-6,6.614282 z"
         inkscape:connector-curvature="0"
         style="opacity:0.2;fill:#000000;fill-opacity:1;stroke:none;display:inline;enable-background:new" />
      <path
         id="path3887"
         d="m 354.8674,54.1696 c 0,0 -1.06007,0.48062 -3.49425,2.50362 -2.97687,2.4732 -4.82036,2.27382 -6.9982,1.9087 l -0.0171,0.0171 c -0.41487,-0.18943 -0.83429,-0.36687 -1.25984,-0.52608 l 0,-0.0171 c -1.79842,-1.28083 -3.24237,-2.4449 -3.5986,-6.29879 -0.29144,-3.15027 -0.70049,-4.24137 -0.70049,-4.24137 -1.18675,-0.51583 -2.79968,-0.51567 -2.79968,-0.51567 0,0 -1.61337,1.6e-4 -2.79923,0.5161 0,0 -0.41016,1.09019 -0.70081,4.24103 -0.35616,3.85371 -1.80093,5.01732 -3.59862,6.29878 l -0.003,0.0215 c -0.42516,0.159 -0.84338,0.33687 -1.25975,0.52605 l -0.0171,-0.0171 c -2.17768,0.36558 -4.02184,0.5638 -6.99884,-1.90918 -2.43329,-2.02176 -3.49409,-2.50362 -3.49409,-2.50362 -1.20115,0.47175 -2.34139,1.61199 -2.34139,1.61199 0,0 -1.14076,1.14076 -1.6144,2.34449 0,0 0.48169,1.06109 2.50336,3.4943 2.47315,2.97682 2.27412,4.82176 1.90927,6.99875 l 0.0171,0.0171 c -0.18858,0.41531 -0.36687,0.83441 -0.5266,1.25931 l -0.0171,0 c -1.28049,1.79873 -2.44465,3.24269 -6.29824,3.59931 -3.15018,0.291 -4.242,0.70142 -4.242,0.70142 -0.51546,1.18719 -0.51555,2.79781 -0.51555,2.79781 0,0 8.5e-4,1.61409 0.5164,2.79976 0,0 1.08993,0.4106 4.24073,0.70032 3.8535,0.35658 5.01577,1.80233 6.29813,3.5993 l 0.0171,0 c 0.15944,0.42559 0.33731,0.84411 0.52593,1.25995 l -0.0171,0.0171 c 0.36644,2.17756 0.56432,4.02142 -1.90858,6.99811 -2.02167,2.43381 -2.50366,3.49623 -2.50366,3.49623 0.47539,1.20364 1.61448,2.34273 1.61448,2.34273 0,0 1.14115,1.1412 2.34448,1.61445 0,0 1.06071,-0.48011 3.49387,-2.50316 2.9771,-2.4728 4.82151,-2.27248 6.99871,-1.909 l 0.0171,-0.0171 c 0.4166,0.18902 0.83454,0.36731 1.25996,0.52596 l -0.003,0.0214 c 1.79895,1.28073 3.24264,2.44464 3.59931,6.29811 0.291,3.15036 0.70111,4.24251 0.70111,4.24251 1.18728,0.51453 2.79828,0.51529 2.79828,0.51529 0,0 1.6141,-4.3e-4 2.79931,-0.51705 0,0 0.41058,-1.08889 0.70074,-4.24024 0.35658,-3.85346 1.80284,-5.01626 3.59886,-6.29841 l -0.003,-0.0215 c 0.42516,-0.159 0.84377,-0.33772 1.25984,-0.52612 l 0.0171,0.0171 c 2.17747,-0.36645 4.02124,-0.5642 6.99824,1.90882 2.43329,2.02173 3.49559,2.50398 3.49559,2.50398 1.20385,-0.47586 2.34307,-1.61505 2.34307,-1.61505 0,0 1.14114,-1.14114 1.61452,-2.34462 0,0 -0.48015,-1.06078 -2.50363,-3.49408 -2.47314,-2.97683 -2.27269,-4.8215 -1.9087,-6.99832 l -0.0171,-0.0171 c 0.18901,-0.41658 0.3673,-0.83454 0.52605,-1.25975 l 0.0256,0 c 1.28074,-1.79842 2.44478,-3.24232 6.2984,-3.59899 3.15063,-0.29102 4.24287,-0.7013 4.24287,-0.7013 0.51435,-1.18728 0.51447,-2.79857 0.51447,-2.79857 0,0 -2.5e-4,-1.61337 -0.51571,-2.79969 0,0 -1.09037,-0.41016 -4.24133,-0.70049 -3.85383,-0.35616 -5.01676,-1.801 -6.29882,-3.59862 l -0.0171,0 c -0.159,-0.42516 -0.33602,-0.84405 -0.5261,-1.25977 l 0.0171,-0.0171 c -0.36558,-2.17678 -0.56443,-4.02124 1.90858,-6.99829 2.02176,-2.43329 2.50448,-3.4952 2.50448,-3.4952 -0.47501,-1.20338 -1.61525,-2.34364 -1.61525,-2.34364 0,0 -1.1412,-1.14109 -2.34466,-1.61448 z m -8.94787,32.74988 c -5.47959,5.47954 -14.36331,5.47963 -19.84291,9e-5 -5.47959,-5.47961 -5.4795,-14.36332 9e-5,-19.84291 5.47947,-5.47947 14.36318,-5.47954 19.84277,4e-5 5.47959,5.47955 5.47951,14.36331 5e-5,19.84278 z"
         inkscape:connector-curvature="0"
         style="opacity:0.2;fill:#000000;fill-opacity:1;stroke:none;display:inline;enable-background:new" />
      <path
         style="fill:#ffffff;fill-opacity:1;stroke:none;display:inline;enable-background:new"
         inkscape:connector-curvature="0"
         d="m 188.024,102.72906 c 0,0 -2.47348,1.12144 -8.15327,5.84179 -6.94603,5.77079 -11.24747,5.30558 -16.32914,4.45365 l -0.04,0.04 c -0.96803,-0.44202 -1.94666,-0.85603 -2.9396,-1.22754 l 0,-0.04 c -4.19633,-2.9886 -7.56554,-5.70479 -8.39677,-14.697185 -0.68002,-7.350642 -1.63446,-9.896525 -1.63446,-9.896525 -2.76909,-1.20364 -6.53261,-1.20324 -6.53261,-1.20324 0,0 -3.76452,4e-4 -6.53151,1.20424 0,0 -0.95704,2.543783 -1.63526,9.895725 -0.83103,8.991995 -4.20214,11.707085 -8.39677,14.697185 l -0.007,0.05 c -0.99204,0.37101 -1.96787,0.78603 -2.9394,1.22744 l -0.04,-0.04 c -5.08127,0.85303 -9.38431,1.31554 -16.33064,-4.45475 -5.67769,-4.71745 -8.152873,-5.84179 -8.152873,-5.84179 -2.80269,1.10074 -5.46328,3.76132 -5.46328,3.76132 0,0 -2.66178,2.66179 -3.76692,5.47048 0,0 1.12394,2.47589 5.84119,8.15337 5.770693,6.94593 5.306283,11.25077 4.454953,16.33044 l 0.04,0.04 c -0.44002,0.96903 -0.85603,1.94696 -1.228743,2.9384 l -0.04,0 c -2.9878,4.19703 -5.70419,7.56624 -14.69589,8.39837 -7.35044,0.67902 -9.89802,1.63665 -9.89802,1.63665 -1.20274,2.7701 -1.20294,6.52822 -1.20294,6.52822 0,0 0.002,3.76622 1.20494,6.53281 0,0 2.54318,0.95804 9.89502,1.63406 8.9915,0.83203 11.70349,4.20544 14.69569,8.39837 l 0.04,0 c 0.372013,0.99304 0.787023,1.96957 1.227143,2.9399 l -0.04,0.04 c 0.85503,5.08097 1.31674,9.38331 -4.453353,16.32894 -4.71725,5.67888 -5.84189,8.15787 -5.84189,8.15787 1.10924,2.80849 3.76712,5.46637 3.76712,5.46637 0,0 2.66269,2.66279 5.47048,3.76703 0,0 2.474983,-1.12024 8.152373,-5.84069 6.94653,-5.76989 11.25017,-5.30248 16.33034,-4.45435 l 0.04,-0.04 c 0.97203,0.44102 1.94726,0.85703 2.9399,1.22724 l -0.007,0.05 c 4.19753,2.9884 7.56614,5.70419 8.39837,14.69559 0.67902,7.35084 1.63595,9.89922 1.63595,9.89922 2.7703,1.20054 6.52932,1.20234 6.52932,1.20234 0,0 3.76622,-0.001 6.53171,-1.20644 0,0 0.95804,-2.54078 1.63506,-9.89392 0.83203,-8.9914 4.20664,-11.70459 8.39737,-14.69629 l -0.007,-0.05 c 0.99204,-0.37101 1.96877,-0.78802 2.9396,-1.22764 l 0.04,0.04 c 5.08077,-0.85503 9.38291,-1.31644 16.32924,4.45395 5.67768,4.71735 8.15637,5.84259 8.15637,5.84259 2.80899,-1.11034 5.46718,-3.76843 5.46718,-3.76843 0,0 2.66268,-2.66268 3.76722,-5.47078 0,0 -1.12034,-2.47518 -5.84179,-8.15286 -5.77069,-6.94593 -5.30298,-11.25017 -4.45365,-16.32944 l -0.04,-0.04 c 0.44101,-0.97203 0.85703,-1.94726 1.22744,-2.9394 l 0.06,0 c 2.9884,-4.19633 5.70449,-7.56544 14.69627,-8.39767 7.35145,-0.67902 9.90003,-1.63636 9.90003,-1.63636 1.20014,-2.77029 1.20044,-6.53001 1.20044,-6.53001 0,0 -6e-4,-3.76452 -1.20334,-6.53262 0,0 -2.54418,-0.95703 -9.89643,-1.63445 -8.99228,-0.83103 -11.70577,-4.20234 -14.69727,-8.39677 l -0.04,0 c -0.37101,-0.99204 -0.78403,-1.96947 -1.22754,-2.9395 l 0.04,-0.04 c -0.85303,-5.07917 -1.31704,-9.38291 4.45335,-16.32934 4.71745,-5.67768 5.84379,-8.15547 5.84379,-8.15547 -1.10834,-2.80789 -3.76892,-5.46848 -3.76892,-5.46848 0,0 -2.66279,-2.66258 -5.47088,-3.76712 z m -20.87839,76.41641 c -12.78572,12.78562 -33.5144,12.78582 -46.30012,2e-4 -12.78572,-12.78572 -12.78552,-33.5144 2e-4,-46.30012 12.78542,-12.78542 33.5141,-12.78562 46.29982,1e-4 12.78572,12.78562 12.78552,33.5144 1e-4,46.29982 z"
         id="path3093" />
      <path
         id="path3095"
         d="m 332.57825,156.77973 c 0,0 -0.70671,0.32041 -2.3295,1.66908 -1.98458,1.6488 -3.21357,1.51588 -4.66547,1.27247 l -0.0114,0.0114 c -0.27658,-0.12629 -0.55619,-0.24458 -0.83989,-0.35072 l 0,-0.0114 c -1.19895,-0.85389 -2.16158,-1.62994 -2.39907,-4.1992 -0.19429,-2.10018 -0.46699,-2.82758 -0.46699,-2.82758 C 321.07476,151.99989 319.99947,152 319.99947,152 c 0,0 -1.07558,1.1e-4 -1.86615,0.34407 0,0 -0.27344,0.72679 -0.46721,2.82735 -0.23744,2.56914 -1.20062,3.34488 -2.39908,4.19919 l -0.002,0.0143 c -0.28344,0.106 -0.56225,0.22458 -0.83983,0.3507 l -0.0114,-0.0114 c -1.45179,0.24372 -2.68123,0.37587 -4.6659,-1.27279 -1.62219,-1.34784 -2.32939,-1.66908 -2.32939,-1.66908 -0.80077,0.3145 -1.56093,1.07466 -1.56093,1.07466 0,0 -0.76051,0.76051 -1.07627,1.563 0,0 0.32113,0.70739 1.66891,2.32953 1.64877,1.98455 1.51608,3.21451 1.27285,4.66584 l 0.0114,0.0114 c -0.12572,0.27687 -0.24458,0.55627 -0.35107,0.83954 l -0.0114,0 c -0.85366,1.19915 -1.62977,2.16179 -4.19883,2.39954 -2.10012,0.194 -2.828,0.46761 -2.828,0.46761 -0.34364,0.79146 -0.3437,1.86521 -0.3437,1.86521 0,0 5.7e-4,1.07606 0.34427,1.86651 0,0 0.72662,0.27373 2.82715,0.46688 2.569,0.23772 3.34385,1.20155 4.19876,2.39953 l 0.0114,0 c 0.10629,0.28373 0.22487,0.56274 0.35062,0.83997 l -0.0114,0.0114 c 0.24429,1.45171 0.37621,2.68095 -1.27239,4.66541 -1.34778,1.62254 -1.66911,2.33082 -1.66911,2.33082 0.31693,0.80243 1.07632,1.56182 1.07632,1.56182 0,0 0.76077,0.7608 1.56299,1.0763 0,0 0.70714,-0.32007 2.32925,-1.66877 1.98473,-1.64854 3.21434,-1.51499 4.66581,-1.27267 l 0.0114,-0.0114 c 0.27773,0.12601 0.55636,0.24487 0.83997,0.35064 l -0.002,0.0143 c 1.1993,0.85382 2.16176,1.62976 2.39954,4.19874 0.194,2.10024 0.46741,2.82834 0.46741,2.82834 0.79152,0.34302 1.86552,0.34353 1.86552,0.34353 0,0 1.07607,-2.9e-4 1.86621,-0.3447 0,0 0.27372,-0.72593 0.46716,-2.82683 0.23772,-2.56897 1.20189,-3.34417 2.39924,-4.19894 l -0.002,-0.0143 c 0.28344,-0.106 0.56251,-0.22515 0.83989,-0.35075 l 0.0114,0.0114 c 1.45165,-0.2443 2.68083,-0.37613 4.6655,1.27255 1.62219,1.34782 2.33039,1.66932 2.33039,1.66932 0.80257,-0.31724 1.56205,-1.0767 1.56205,-1.0767 0,0 0.76076,-0.76076 1.07635,-1.56308 0,0 -0.3201,-0.70719 -1.66909,-2.32939 -1.64876,-1.98455 -1.51513,-3.21433 -1.27247,-4.66555 l -0.0114,-0.0114 c 0.12601,-0.27772 0.24487,-0.55636 0.3507,-0.83983 l 0.0171,0 c 0.85383,-1.19895 1.62986,-2.16155 4.19894,-2.39933 2.10041,-0.19401 2.82857,-0.46753 2.82857,-0.46753 0.3429,-0.79152 0.34299,-1.86572 0.34299,-1.86572 0,0 -1.8e-4,-1.07558 -0.34382,-1.86646 0,0 -0.7269,-0.27344 -2.82754,-0.46699 -2.56922,-0.23744 -3.34451,-1.20067 -4.19923,-2.39908 l -0.0114,0 c -0.106,-0.28344 -0.22402,-0.5627 -0.35073,-0.83985 l 0.0114,-0.0114 c -0.24372,-1.45119 -0.37628,-2.68083 1.27239,-4.66553 1.34784,-1.62219 1.66965,-2.33013 1.66965,-2.33013 -0.31667,-0.80226 -1.07683,-1.56243 -1.07683,-1.56243 0,0 -0.7608,-0.76073 -1.56311,-1.07632 z m -5.96525,21.83326 c -3.65306,3.65303 -9.57554,3.65309 -13.22861,6e-5 -3.65306,-3.65307 -3.653,-9.57555 6e-5,-13.22861 3.65298,-3.65298 9.57546,-3.65303 13.22852,3e-5 3.65306,3.65303 3.65301,9.57554 3e-5,13.22852 z"
         inkscape:connector-curvature="0"
         style="fill:#ffffff;fill-opacity:1;stroke:none;display:inline;enable-background:new" />
      <path
         style="fill:#ffffff;fill-opacity:1;stroke:none;display:inline;enable-background:new"
         inkscape:connector-curvature="0"
         d="m 320.80398,233.34583 c 0,0 -0.49469,0.22429 -1.63064,1.16835 -1.38921,1.15416 -2.2495,1.06112 -3.26583,0.89073 l -0.008,0.008 c -0.19361,-0.0884 -0.38933,-0.1712 -0.58792,-0.2455 l 0,-0.008 c -0.83927,-0.59772 -1.51311,-1.14096 -1.67935,-2.93944 -0.13601,-1.47012 -0.3269,-1.9793 -0.3269,-1.9793 -0.55381,-0.24073 -1.30652,-0.24065 -1.30652,-0.24065 0,0 -0.7529,8e-5 -1.3063,0.24085 0,0 -0.19141,0.50875 -0.32705,1.97914 -0.16621,1.7984 -0.84043,2.34142 -1.67935,2.93943 l -0.001,0.01 c -0.19841,0.0742 -0.39358,0.15721 -0.58788,0.24549 l -0.008,-0.008 c -1.01626,0.17061 -1.87686,0.26311 -3.26613,-0.89095 -1.13553,-0.94349 -1.63056,-1.16835 -1.63056,-1.16835 -0.56054,0.22015 -1.09267,0.75226 -1.09267,0.75226 0,0 -0.53235,0.53235 -0.75338,1.0941 0,0 0.22479,0.49517 1.16823,1.63067 1.15414,1.38918 1.06126,2.25015 0.89101,3.26608 l 0.008,0.008 c -0.088,0.19381 -0.1712,0.38939 -0.24574,0.58768 l -0.008,0 c -0.59756,0.83941 -1.14085,1.51325 -2.93919,1.67968 -1.47007,0.1358 -1.9796,0.32733 -1.9796,0.32733 -0.24054,0.55402 -0.24059,1.30564 -0.24059,1.30564 0,0 4.1e-4,0.75324 0.241,1.30656 0,0 0.50862,0.19161 1.97899,0.32681 1.7983,0.16641 2.34071,0.84109 2.93913,1.67967 l 0.008,0 c 0.0744,0.19862 0.15741,0.39392 0.24544,0.58798 l -0.008,0.008 c 0.171,1.0162 0.26334,1.87667 -0.89068,3.26579 -0.94344,1.13578 -1.16837,1.63157 -1.16837,1.63157 0.22186,0.5617 0.75342,1.09328 0.75342,1.09328 0,0 0.53254,0.53255 1.09409,0.7534 0,0 0.495,-0.22404 1.63048,-1.16813 1.38931,-1.15398 2.25004,-1.0605 3.26606,-0.89087 l 0.008,-0.008 c 0.19441,0.0882 0.38946,0.17141 0.58798,0.24545 l -10e-4,0.01 c 0.83951,0.59767 1.51323,1.14083 1.67968,2.93911 0.13581,1.47017 0.32719,1.97984 0.32719,1.97984 0.55406,0.24011 1.30586,0.24047 1.30586,0.24047 0,0 0.75325,-2e-4 1.30635,-0.24129 0,0 0.1916,-0.50815 0.32701,-1.97878 0.1664,-1.79828 0.84132,-2.34092 1.67947,-2.93926 l -10e-4,-0.01 c 0.1984,-0.0742 0.39375,-0.1576 0.58792,-0.24552 l 0.008,0.008 c 1.01615,-0.17101 1.87658,-0.26329 3.26585,0.89078 1.13553,0.94348 1.63127,1.16853 1.63127,1.16853 0.5618,-0.22207 1.09343,-0.75369 1.09343,-0.75369 0,0 0.53253,-0.53253 0.75345,-1.09416 0,0 -0.22407,-0.49503 -1.16836,-1.63057 -1.15414,-1.38918 -1.0606,-2.25003 -0.89073,-3.26588 l -0.008,-0.008 c 0.0882,-0.19441 0.17141,-0.38946 0.24549,-0.58788 l 0.012,0 c 0.59768,-0.83927 1.1409,-1.51309 2.93925,-1.67953 1.4703,-0.13581 1.98001,-0.32728 1.98001,-0.32728 0.24003,-0.55406 0.24008,-1.306 0.24008,-1.306 0,0 -1.1e-4,-0.7529 -0.24066,-1.30652 0,0 -0.50884,-0.19141 -1.97929,-0.32689 -1.79845,-0.16621 -2.34115,-0.84047 -2.93945,-1.67936 l -0.008,0 c -0.0742,-0.19841 -0.15681,-0.39389 -0.24551,-0.58789 l 0.008,-0.008 c -0.1706,-1.01584 -0.2634,-1.87658 0.89067,-3.26587 0.94349,-1.13553 1.16876,-1.63109 1.16876,-1.63109 -0.22167,-0.56158 -0.75378,-1.0937 -0.75378,-1.0937 0,0 -0.53256,-0.53251 -1.09418,-0.75343 z m -4.17567,15.28327 c -2.55714,2.55712 -6.70287,2.55717 -9.26002,5e-5 -2.55714,-2.55715 -2.5571,-6.70289 4e-5,-9.26003 2.55709,-2.55708 6.70282,-2.55712 9.25996,2e-5 2.55714,2.55712 2.55711,6.70288 2e-5,9.25996 z"
         id="path3097" />
      <path
         id="path3099"
         d="m 432.4032,106.67376 c 0,0 -0.24734,0.11214 -0.8153,0.58416 -0.69458,0.57706 -1.12471,0.53054 -1.63286,0.44535 l -0.004,0.004 c -0.0968,-0.0442 -0.19466,-0.0856 -0.29395,-0.12275 l 0,-0.004 c -0.41962,-0.29885 -0.75653,-0.57046 -0.83965,-1.46967 -0.068,-0.73504 -0.16344,-0.98962 -0.16344,-0.98962 -0.2769,-0.12036 -0.65324,-0.12032 -0.65324,-0.12032 0,0 -0.37644,4e-5 -0.65313,0.12042 0,0 -0.0957,0.25437 -0.16352,0.98954 -0.0831,0.89917 -0.4202,1.17067 -0.83965,1.46967 l -7.1e-4,0.005 c -0.0992,0.0371 -0.19678,0.0786 -0.29393,0.12274 l -0.004,-0.004 c -0.50811,0.0853 -0.9384,0.13155 -1.63301,-0.44546 -0.56775,-0.47173 -0.81526,-0.58416 -0.81526,-0.58416 -0.28026,0.11007 -0.54631,0.37612 -0.54631,0.37612 0,0 -0.26617,0.26617 -0.37668,0.54703 0,0 0.11239,0.24758 0.5841,0.81531 0.57705,0.69457 0.53061,1.12504 0.44548,1.63299 l 0.004,0.004 c -0.044,0.0969 -0.0856,0.19469 -0.12287,0.29383 l -0.004,0 c -0.29877,0.41969 -0.5704,0.7566 -1.46954,0.83981 -0.73502,0.0679 -0.98977,0.16366 -0.98977,0.16366 -0.12027,0.277 -0.12029,0.6528 -0.12029,0.6528 0,0 1.6e-4,0.37661 0.12049,0.65326 0,0 0.25431,0.0958 0.98947,0.1634 0.89912,0.0832 1.17031,0.42053 1.46952,0.83981 l 0.004,0 c 0.0372,0.0993 0.0787,0.19695 0.12271,0.29398 l -0.004,0.004 c 0.0855,0.50808 0.13167,0.9383 -0.44532,1.63284 -0.47171,0.56787 -0.58417,0.81576 -0.58417,0.81576 0.11092,0.28084 0.3767,0.54662 0.3767,0.54662 0,0 0.26626,0.26627 0.54703,0.37669 0,0 0.24749,-0.11202 0.81521,-0.58405 0.69463,-0.57697 1.12498,-0.53023 1.63298,-0.44542 l 0.004,-0.004 c 0.0972,0.0441 0.19472,0.0857 0.29398,0.12272 l -7e-4,0.005 c 0.41974,0.29883 0.75659,0.5704 0.83981,1.46951 0.0679,0.73506 0.16359,0.98989 0.16359,0.98989 0.27702,0.12005 0.65291,0.12023 0.65291,0.12023 0,0 0.37661,-1.2e-4 0.65315,-0.12064 0,0 0.0958,-0.25407 0.1635,-0.98936 0.0832,-0.89911 0.42065,-1.17042 0.83971,-1.46958 l -7e-4,-0.005 c 0.0992,-0.0371 0.19687,-0.0788 0.29395,-0.12276 l 0.004,0.004 c 0.50806,-0.0855 0.93826,-0.13164 1.63287,0.44538 0.56775,0.47172 0.81561,0.58424 0.81561,0.58424 0.28089,-0.11103 0.5467,-0.37683 0.5467,-0.37683 0,0 0.26626,-0.26626 0.37671,-0.54706 0,0 -0.11203,-0.24751 -0.58416,-0.81526 -0.57705,-0.69457 -0.53028,-1.12498 -0.44535,-1.63289 l -0.004,-0.004 c 0.0441,-0.0972 0.0857,-0.19472 0.12274,-0.29393 l 0.006,0 c 0.29883,-0.41962 0.57043,-0.75652 1.46958,-0.83974 0.73512,-0.0679 0.98997,-0.16363 0.98997,-0.16363 0.12001,-0.27702 0.12004,-0.65298 0.12004,-0.65298 0,0 -6e-5,-0.37644 -0.12033,-0.65324 0,0 -0.25441,-0.0957 -0.98961,-0.16344 -0.8992,-0.0831 -1.17054,-0.42022 -1.46968,-0.83965 l -0.004,0 c -0.0371,-0.0992 -0.0784,-0.19694 -0.12275,-0.29394 l 0.004,-0.004 c -0.0853,-0.5079 -0.1317,-0.93826 0.44532,-1.63288 0.47173,-0.56775 0.58436,-0.81552 0.58436,-0.81552 -0.11083,-0.28078 -0.37688,-0.54683 -0.37688,-0.54683 0,0 -0.26627,-0.26625 -0.54707,-0.3767 z m -2.08777,7.64139 c -1.27853,1.27852 -3.35133,1.27854 -4.62986,2e-5 -1.27853,-1.27853 -1.27851,-3.35133 2e-5,-4.62986 1.2785,-1.2785 3.3513,-1.27852 4.62983,1e-5 1.27853,1.27852 1.27851,3.35133 10e-6,4.62983 z"
         inkscape:connector-curvature="0"
         style="fill:#ffffff;fill-opacity:1;stroke:none;display:inline;enable-background:new" />
      <path
         style="fill:#ffffff;fill-opacity:1;stroke:none;display:inline;enable-background:new"
         inkscape:connector-curvature="0"
         d="m 438.28938,60.389883 c 0,0 -0.35335,0.160206 -1.16475,0.834545 -0.9923,0.824401 -1.60679,0.757942 -2.33275,0.636237 l -0.006,0.0057 c -0.13829,-0.06314 -0.27809,-0.12229 -0.41994,-0.175364 l 0,-0.0057 c -0.59948,-0.426944 -1.0808,-0.814973 -1.19955,-2.099605 -0.0971,-1.050095 -0.23349,-1.413793 -0.23349,-1.413793 -0.39559,-0.17195 -0.93324,-0.171893 -0.93324,-0.171893 0,0 -0.53778,5.8e-5 -0.93307,0.172035 0,0 -0.13672,0.363399 -0.2336,1.41368 -0.11873,1.284575 -0.60032,1.672446 -1.19956,2.099605 l -10e-4,0.0071 c -0.14172,0.05301 -0.28112,0.11229 -0.41991,0.175349 l -0.006,-0.0057 c -0.7259,0.121862 -1.34062,0.187935 -2.33296,-0.636395 -0.8111,-0.673924 -1.1647,-0.834544 -1.1647,-0.834544 -0.40038,0.157248 -0.78046,0.537333 -0.78046,0.537333 0,0 -0.38027,0.380257 -0.53815,0.7815 0,0 0.16057,0.353699 0.83447,1.164771 0.82441,0.992278 0.75804,1.607258 0.63642,2.332927 l 0.006,0.0057 c -0.0629,0.138433 -0.12229,0.278139 -0.17554,0.419772 l -0.006,0 c -0.42684,0.599579 -0.81489,1.080896 -2.09942,1.199772 -1.05007,0.097 -1.41402,0.233809 -1.41402,0.233809 -0.1718,0.395728 -0.17184,0.932604 -0.17184,0.932604 0,0 2.3e-4,0.538034 0.17213,0.933263 0,0 0.36332,0.136863 1.41358,0.233437 1.2845,0.118862 1.67193,0.600779 2.0994,1.199772 l 0.006,0 c 0.0531,0.141862 0.11242,0.281367 0.1753,0.419987 l -0.006,0.0057 c 0.12214,0.725855 0.18811,1.340478 -0.63619,2.332714 -0.67389,0.811272 -0.83455,1.165413 -0.83455,1.165413 0.15846,0.401214 0.53816,0.780914 0.53816,0.780914 0,0 0.38039,0.380399 0.7815,0.538148 0,0 0.35358,-0.160034 1.16462,-0.834388 0.99237,-0.824272 1.60718,-0.757499 2.33292,-0.636337 l 0.006,-0.0057 c 0.13887,0.06301 0.27821,0.122432 0.42001,0.17532 l -10e-4,0.0071 c 0.59964,0.426916 1.08088,0.814887 1.19977,2.099376 0.097,1.050123 0.23371,1.414179 0.23371,1.414179 0.39576,0.171507 0.93275,0.171764 0.93275,0.171764 0,0 0.53804,-1.71e-4 0.93311,-0.172349 0,0 0.13684,-0.362971 0.23356,-1.413423 0.11888,-1.284489 0.60096,-1.672088 1.19964,-2.099475 l -9.9e-4,-0.0071 c 0.14173,-0.05301 0.28125,-0.112576 0.41994,-0.175378 l 0.006,0.0057 c 0.72584,-0.122147 1.34042,-0.188063 2.33276,0.636281 0.8111,0.67391 1.16521,0.834658 1.16521,0.834658 0.4013,-0.15862 0.78102,-0.538347 0.78102,-0.538347 0,0 0.38039,-0.380386 0.53817,-0.781543 0,0 -0.16004,-0.353599 -0.83454,-1.1647 -0.82439,-0.992278 -0.75757,-1.607172 -0.63624,-2.332784 l -0.006,-0.0057 c 0.063,-0.138863 0.12241,-0.278182 0.17534,-0.419916 l 0.009,0 c 0.42692,-0.599478 0.81491,-1.080782 2.09947,-1.199672 1.0502,-0.097 1.4143,-0.233766 1.4143,-0.233766 0.17144,-0.395757 0.17149,-0.932862 0.17149,-0.932862 0,0 -9e-5,-0.537791 -0.1719,-0.933234 0,0 -0.36345,-0.136719 -1.41378,-0.233494 -1.28461,-0.118718 -1.67225,-0.600336 -2.09961,-1.199543 l -0.006,0 c -0.053,-0.14172 -0.112,-0.281353 -0.17535,-0.41993 l 0.006,-0.0057 c -0.12186,-0.725598 -0.18815,-1.34042 0.63619,-2.33277 0.67393,-0.811101 0.83483,-1.165071 0.83483,-1.165071 -0.15833,-0.401128 -0.53842,-0.781214 -0.53842,-0.781214 0,0 -0.38039,-0.380371 -0.78155,-0.538162 z m -2.98264,10.916667 c -1.82654,1.826523 -4.78778,1.826552 -6.61432,2.8e-5 -1.82654,-1.826537 -1.82651,-4.787787 3e-5,-6.614324 1.82649,-1.826496 4.78774,-1.826523 6.61428,1.4e-5 1.82654,1.826523 1.82651,4.787787 10e-6,6.614282 z"
         id="path3103" />
      <path
         style="fill:#ffffff;fill-opacity:1;stroke:none;display:inline;enable-background:new"
         inkscape:connector-curvature="0"
         d="m 354.8674,53.1696 c 0,0 -1.06007,0.48062 -3.49425,2.50362 -2.97687,2.4732 -4.82036,2.27382 -6.9982,1.9087 l -0.0171,0.0171 c -0.41487,-0.18943 -0.83429,-0.36687 -1.25984,-0.52608 l 0,-0.0171 c -1.79842,-1.28083 -3.24237,-2.4449 -3.5986,-6.29879 -0.29144,-3.15027 -0.70049,-4.24137 -0.70049,-4.24137 -1.18675,-0.51583 -2.79968,-0.51567 -2.79968,-0.51567 0,0 -1.61337,1.6e-4 -2.79923,0.5161 0,0 -0.41016,1.09019 -0.70081,4.24103 -0.35616,3.85371 -1.80093,5.01732 -3.59862,6.29878 l -0.003,0.0215 c -0.42516,0.159 -0.84338,0.33687 -1.25975,0.52605 l -0.0171,-0.0171 c -2.17768,0.36558 -4.02184,0.5638 -6.99884,-1.90918 -2.43329,-2.02176 -3.49409,-2.50362 -3.49409,-2.50362 -1.20115,0.47175 -2.34139,1.61199 -2.34139,1.61199 0,0 -1.14076,1.14076 -1.61439,2.34449 0,0 0.48169,1.06109 2.50335,3.4943 2.47315,2.97682 2.27412,4.82176 1.90927,6.99875 l 0.0171,0.0171 c -0.18858,0.41531 -0.36687,0.83441 -0.5266,1.25931 l -0.0171,0 c -1.28049,1.79873 -2.44466,3.24269 -6.29825,3.59931 -3.15017,0.291 -4.242,0.70142 -4.242,0.70142 -0.51546,1.18719 -0.51555,2.79781 -0.51555,2.79781 0,0 8.5e-4,1.61409 0.5164,2.79976 0,0 1.08993,0.4106 4.24073,0.70032 3.8535,0.35658 5.01577,1.80233 6.29813,3.5993 l 0.0171,0 c 0.15944,0.42559 0.33731,0.84411 0.52593,1.25995 l -0.0171,0.0171 c 0.36644,2.17756 0.56432,4.02142 -1.90858,6.99811 -2.02167,2.43381 -2.50366,3.49623 -2.50366,3.49623 0.47539,1.20364 1.61448,2.34273 1.61448,2.34273 0,0 1.14115,1.1412 2.34448,1.61445 0,0 1.06071,-0.48011 3.49387,-2.50316 2.9771,-2.4728 4.82151,-2.27248 6.99871,-1.909 l 0.0171,-0.0171 c 0.41661,0.18902 0.83454,0.36731 1.25996,0.52596 l -0.003,0.0214 c 1.79895,1.28073 3.24264,2.44464 3.59931,6.29811 0.291,3.15036 0.70112,4.24251 0.70112,4.24251 1.18728,0.51453 2.79827,0.51529 2.79827,0.51529 0,0 1.61411,-4.3e-4 2.79931,-0.51705 0,0 0.41058,-1.08889 0.70074,-4.24024 0.35658,-3.85346 1.80284,-5.01626 3.59886,-6.29841 l -0.003,-0.0215 c 0.42517,-0.159 0.84378,-0.33772 1.25984,-0.52612 l 0.0171,0.0171 c 2.17747,-0.36645 4.02123,-0.5642 6.99824,1.90882 2.43329,2.02173 3.49559,2.50398 3.49559,2.50398 1.20385,-0.47586 2.34307,-1.61505 2.34307,-1.61505 0,0 1.14114,-1.14114 1.61452,-2.34462 0,0 -0.48015,-1.06078 -2.50363,-3.49408 -2.47314,-2.97683 -2.27269,-4.8215 -1.9087,-6.99832 l -0.0171,-0.0171 c 0.18901,-0.41658 0.3673,-0.83454 0.52605,-1.25975 l 0.0256,0 c 1.28074,-1.79842 2.44478,-3.24232 6.2984,-3.59899 3.15063,-0.29102 4.24287,-0.7013 4.24287,-0.7013 0.51435,-1.18728 0.51447,-2.79857 0.51447,-2.79857 0,0 -2.5e-4,-1.61337 -0.51571,-2.79969 0,0 -1.09037,-0.41016 -4.24133,-0.70049 -3.85383,-0.35616 -5.01676,-1.801 -6.29882,-3.59862 l -0.0171,0 c -0.159,-0.42516 -0.33602,-0.84405 -0.5261,-1.25977 l 0.0171,-0.0171 c -0.36558,-2.17678 -0.56443,-4.02124 1.90858,-6.99829 2.02176,-2.43329 2.50448,-3.4952 2.50448,-3.4952 -0.47501,-1.20338 -1.61525,-2.34364 -1.61525,-2.34364 0,0 -1.1412,-1.14109 -2.34466,-1.61448 z m -8.94787,32.74988 c -5.47959,5.47954 -14.36331,5.47963 -19.84291,9e-5 -5.47959,-5.47961 -5.4795,-14.36332 9e-5,-19.84291 5.47947,-5.47947 14.36318,-5.47954 19.84277,4e-5 5.47959,5.47955 5.47951,14.36331 5e-5,19.84278 z"
         id="path3105" />
      <path
         inkscape:connector-curvature="0"
         style="color:#000000;fill:#ffffff;fill-opacity:1;fill-rule:nonzero;stroke:none;stroke-width:2;marker:none;visibility:visible;display:inline;overflow:visible;enable-background:new"
         d="m 423.49999,143 c -0.277,0 -0.5,0.223 -0.5,0.5 l 0,1.15625 c -0.2317,0.0685 -0.4473,0.16882 -0.65625,0.28125 l -0.8125,-0.8125 c -0.19587,-0.19587 -0.52288,-0.19587 -0.71875,0 l -0.6875,0.6875 c -0.19587,0.19587 -0.19587,0.52288 0,0.71875 l 0.8125,0.8125 c -0.11243,0.20895 -0.21277,0.42455 -0.28125,0.65625 l -1.15625,0 c -0.277,0 -0.5,0.223 -0.5,0.5 l 0,1 c 0,0.277 0.223,0.5 0.5,0.5 l 1.15625,0 c 0.0685,0.2317 0.16882,0.4473 0.28125,0.65625 l -0.8125,0.8125 c -0.19587,0.19587 -0.19587,0.52288 0,0.71875 l 0.6875,0.6875 c 0.19587,0.19587 0.52288,0.19587 0.71875,0 l 0.8125,-0.8125 c 0.20895,0.11243 0.42455,0.21277 0.65625,0.28125 l 0,1.15625 c 0,0.277 0.223,0.5 0.5,0.5 l 1,0 c 0.277,0 0.5,-0.223 0.5,-0.5 l 0,-1.15625 c 0.2317,-0.0685 0.4473,-0.16882 0.65625,-0.28125 l 0.8125,0.8125 c 0.19587,0.19587 0.52288,0.19587 0.71875,0 l 0.6875,-0.6875 c 0.19587,-0.19587 0.19587,-0.52288 0,-0.71875 l -0.8125,-0.8125 c 0.11243,-0.20895 0.21277,-0.42455 0.28125,-0.65625 l 1.15625,0 c 0.277,0 0.5,-0.223 0.5,-0.5 l 0,-1 c 0,-0.277 -0.223,-0.5 -0.5,-0.5 l -1.15625,0 c -0.0685,-0.2317 -0.16882,-0.4473 -0.28125,-0.65625 l 0.8125,-0.8125 c 0.19587,-0.19587 0.19587,-0.52288 0,-0.71875 l -0.6875,-0.6875 c -0.19587,-0.19587 -0.52288,-0.19587 -0.71875,0 l -0.8125,0.8125 c -0.20895,-0.11243 -0.42455,-0.21277 -0.65625,-0.28125 l 0,-1.15625 c 0,-0.277 -0.223,-0.5 -0.5,-0.5 l -1,0 z m 0.5,3 c 1.10457,0 2,0.89543 2,2 0,1.10457 -0.89543,2 -2,2 -1.10457,0 -2,-0.89543 -2,-2 0,-0.13807 0.005,-0.27605 0.0312,-0.40625 0.18654,-0.91137 1.0023,-1.59375 1.9688,-1.59375 z"
         id="rect4317" />
    </g>
    <g
       inkscape:groupmode="layer"
       id="layer5"
       inkscape:label="Highlights"
       style="display:inline"
       sodipodi:insensitive="true">
      <path
         style="opacity:0.12999998;color:#bebebe;fill:#ffffff;fill-opacity:1;fill-rule:nonzero;stroke:none;stroke-width:0;marker:none;visibility:visible;display:inline;overflow:visible;enable-background:accumulate"
         d="M 84,47 C 56.836703,47 35,68.836703 35,96 l 0,1 C 35,69.836703 56.836703,48 84,48 l 120,0 c 27.1633,0 49,21.836703 49,49 l 0,-1 C 253,68.836703 231.1633,47 204,47 L 84,47 z"
         id="rect3894"
         inkscape:connector-curvature="0" />
      <path
         style="opacity:0.12999998;color:#bebebe;fill:#ffffff;fill-opacity:1;fill-rule:nonzero;stroke:none;stroke-width:0;marker:none;visibility:visible;display:inline;overflow:visible;enable-background:accumulate"
         d="m 419,141 c -1.1253,0 -2,0.8747 -2,2 l 0,1 c 0,-1.1253 0.8747,-2 2,-2 l 10,0 c 1.1253,0 2,0.8747 2,2 l 0,-1 c 0,-1.1253 -0.8747,-2 -2,-2 l -10,0 z"
         id="rect3896"
         inkscape:connector-curvature="0" />
      <path
         style="opacity:0.12999998;color:#bebebe;fill:#ffffff;fill-opacity:1;fill-rule:nonzero;stroke:none;stroke-width:0;marker:none;visibility:visible;display:inline;overflow:visible;enable-background:accumulate"
         d="m 422,102 c -2.2333,0 -4,1.7667 -4,4 l 0,1 c 0,-2.2333 1.7667,-4 4,-4 l 12,0 c 2.2333,0 4,1.7667 4,4 l 0,-1 c 0,-2.2333 -1.7667,-4 -4,-4 l -12,0 z"
         id="rect3898"
         inkscape:connector-curvature="0" />
      <path
         style="opacity:0.12999998;color:#bebebe;fill:#ffffff;fill-opacity:1;fill-rule:nonzero;stroke:none;stroke-width:0;marker:none;visibility:visible;display:inline;overflow:visible;enable-background:accumulate"
         d="m 424,54 c -3.3413,0 -6,2.658703 -6,6 l 0,1 c 0,-3.341297 2.6587,-6 6,-6 l 16,0 c 3.3413,0 6,2.658703 6,6 l 0,-1 c 0,-3.341297 -2.6587,-6 -6,-6 l -16,0 z"
         id="rect3900"
         inkscape:connector-curvature="0" />
      <path
         style="opacity:0.12999998;color:#bebebe;fill:#ffffff;fill-opacity:1;fill-rule:nonzero;stroke:none;stroke-width:0;marker:none;visibility:visible;display:inline;overflow:visible;enable-background:accumulate"
         d="m 300,224 c -4.4493,0 -8,3.5507 -8,8 l 0,1 c 0,-4.4493 3.5507,-8 8,-8 l 24,0 c 4.4493,0 8,3.5507 8,8 l 0,-1 c 0,-4.4493 -3.5507,-8 -8,-8 l -24,0 z"
         id="rect3902"
         inkscape:connector-curvature="0" />
      <path
         style="opacity:0.12999998;color:#bebebe;fill:#ffffff;fill-opacity:1;fill-rule:nonzero;stroke:none;stroke-width:0;marker:none;visibility:visible;display:inline;overflow:visible;enable-background:accumulate"
         d="m 310,33 c -9.4353,0 -17,7.564703 -17,17 l 0,1 c 0,-9.435297 7.5647,-17 17,-17 l 52,0 c 9.4353,0 17,7.564703 17,17 l 0,-1 c 0,-9.435297 -7.5647,-17 -17,-17 l -52,0 z"
         id="rect3904"
         inkscape:connector-curvature="0" />
      <path
         style="opacity:0.12999998;color:#bebebe;fill:#ffffff;fill-opacity:1;fill-rule:nonzero;stroke:none;stroke-width:0;marker:none;visibility:visible;display:inline;overflow:visible;enable-background:accumulate"
         d="m 302.5,143 c -6.3883,0 -11.5,5.1117 -11.5,11.5 l 0,1 c 0,-6.3883 5.1117,-11.5 11.5,-11.5 l 35,0 c 6.3883,0 11.5,5.1117 11.5,11.5 l 0,-1 c 0,-6.3883 -5.1117,-11.5 -11.5,-11.5 l -35,0 z"
         id="rect3906"
         inkscape:connector-curvature="0" />
      <path
         id="path4085"
         d="m 204,266 c 27.1633,0 49,-21.8367 49,-49 l 0,-1 c 0,27.1633 -21.8367,49 -49,49 L 84,265 C 56.8367,265 35,243.1633 35,216 l 0,1 c 0,27.1633 21.8367,49 49,49 l 120,0 z"
         style="opacity:0.5;color:#bebebe;fill:#000000;fill-opacity:1;fill-rule:nonzero;stroke:none;stroke-width:0;marker:none;visibility:visible;display:inline;overflow:visible;enable-background:accumulate"
         inkscape:connector-curvature="0" />
      <path
         id="path4087"
         d="m 429,156 c 1.1253,0 2,-0.8747 2,-2 l 0,-1 c 0,1.1253 -0.8747,2 -2,2 l -10,0 c -1.1253,0 -2,-0.8747 -2,-2 l 0,1 c 0,1.1253 0.8747,2 2,2 l 10,0 z"
         style="opacity:0.3;color:#bebebe;fill:#000000;fill-opacity:1;fill-rule:nonzero;stroke:none;stroke-width:0;marker:none;visibility:visible;display:inline;overflow:visible;enable-background:accumulate"
         inkscape:connector-curvature="0" />
      <path
         id="path4089"
         d="m 434,123 c 2.2333,0 4,-1.7667 4,-4 l 0,-1 c 0,2.2333 -1.7667,4 -4,4 l -12,0 c -2.2333,0 -4,-1.7667 -4,-4 l 0,1 c 0,2.2333 1.7667,4 4,4 l 12,0 z"
         style="opacity:0.3;color:#bebebe;fill:#000000;fill-opacity:1;fill-rule:nonzero;stroke:none;stroke-width:0;marker:none;visibility:visible;display:inline;overflow:visible;enable-background:accumulate"
         inkscape:connector-curvature="0" />
      <path
         id="path4091"
         d="m 440,83 c 3.3413,0 6,-2.6587 6,-6 l 0,-1 c 0,3.3413 -2.6587,6 -6,6 l -16,0 c -3.3413,0 -6,-2.6587 -6,-6 l 0,1 c 0,3.3413 2.6587,6 6,6 l 16,0 z"
         style="opacity:0.5;color:#bebebe;fill:#000000;fill-opacity:1;fill-rule:nonzero;stroke:none;stroke-width:0;marker:none;visibility:visible;display:inline;overflow:visible;enable-background:accumulate"
         inkscape:connector-curvature="0" />
      <path
         id="path4093"
         d="m 324,265 c 4.4493,0 8,-3.5507 8,-8 l 0,-1 c 0,4.4493 -3.5507,8 -8,8 l -24,0 c -4.4493,0 -8,-3.5507 -8,-8 l 0,1 c 0,4.4493 3.5507,8 8,8 l 24,0 z"
         style="opacity:0.5;color:#bebebe;fill:#000000;fill-opacity:1;fill-rule:nonzero;stroke:none;stroke-width:0;marker:none;visibility:visible;display:inline;overflow:visible;enable-background:accumulate"
         inkscape:connector-curvature="0" />
      <path
         id="path4095"
         d="m 362,120 c 9.4353,0 17,-7.5647 17,-17 l 0,-1 c 0,9.4353 -7.5647,17 -17,17 l -52,0 c -9.4353,0 -17,-7.5647 -17,-17 l 0,1 c 0,9.4353 7.5647,17 17,17 l 52,0 z"
         style="opacity:0.5;color:#bebebe;fill:#000000;fill-opacity:1;fill-rule:nonzero;stroke:none;stroke-width:0;marker:none;visibility:visible;display:inline;overflow:visible;enable-background:accumulate"
         inkscape:connector-curvature="0" />
      <path
         id="path4097"
         d="m 337.5,202 c 6.3883,0 11.5,-5.1117 11.5,-11.5 l 0,-1 c 0,6.3883 -5.1117,11.5 -11.5,11.5 l -35,0 c -6.3883,0 -11.5,-5.1117 -11.5,-11.5 l 0,1 c 0,6.3883 5.1117,11.5 11.5,11.5 l 35,0 z"
         style="opacity:0.5;color:#bebebe;fill:#000000;fill-opacity:1;fill-rule:nonzero;stroke:none;stroke-width:0;marker:none;visibility:visible;display:inline;overflow:visible;enable-background:accumulate"
         inkscape:connector-curvature="0" />
      <path
         inkscape:connector-curvature="0"
         id="path4280"
         d="M 84,265 C 56.836703,265 35,243.1633 35,216 l 0,-1 c 0,27.1633 21.836703,49 49,49 l 120,0 c 27.1633,0 49,-21.8367 49,-49 l 0,1 c 0,27.1633 -21.8367,49 -49,49 l -120,0 z"
         style="opacity:0.1;color:#bebebe;fill:#ffffff;fill-opacity:1;fill-rule:nonzero;stroke:none;stroke-width:0;marker:none;visibility:visible;display:inline;overflow:visible;enable-background:accumulate" />
      <path
         style="opacity:0.1;color:#bebebe;fill:#ffffff;fill-opacity:1;fill-rule:nonzero;stroke:none;stroke-width:0;marker:none;visibility:visible;display:inline;overflow:visible;enable-background:accumulate"
         d="m 300,264 c -4.4493,0 -8,-3.5507 -8,-8 l 0,-1 c 0,4.4493 3.5507,8 8,8 l 24,0 c 4.4493,0 8,-3.5507 8,-8 l 0,1 c 0,4.4493 -3.5507,8 -8,8 l -24,0 z"
         id="path4294"
         inkscape:connector-curvature="0" />
      <path
         style="opacity:0.1;color:#bebebe;fill:#ffffff;fill-opacity:1;fill-rule:nonzero;stroke:none;stroke-width:0;marker:none;visibility:visible;display:inline;overflow:visible;enable-background:accumulate"
         d="m 302.5,201 c -6.3883,0 -11.5,-5.1117 -11.5,-11.5 l 0,-1 c 0,6.3883 5.1117,11.5 11.5,11.5 l 35,0 c 6.3883,0 11.5,-5.1117 11.5,-11.5 l 0,1 c 0,6.3883 -5.1117,11.5 -11.5,11.5 l -35,0 z"
         id="path4296"
         inkscape:connector-curvature="0" />
      <path
         style="opacity:0.1;color:#bebebe;fill:#ffffff;fill-opacity:1;fill-rule:nonzero;stroke:none;stroke-width:0;marker:none;visibility:visible;display:inline;overflow:visible;enable-background:accumulate"
         d="m 310,119 c -9.4353,0 -17,-7.5647 -17,-17 l 0,-1 c 0,9.4353 7.5647,17 17,17 l 52,0 c 9.4353,0 17,-7.5647 17,-17 l 0,1 c 0,9.4353 -7.5647,17 -17,17 l -52,0 z"
         id="path4298"
         inkscape:connector-curvature="0" />
      <path
         style="opacity:0.1;color:#bebebe;fill:#ffffff;fill-opacity:1;fill-rule:nonzero;stroke:none;stroke-width:0;marker:none;visibility:visible;display:inline;overflow:visible;enable-background:accumulate"
         d="m 424,82 c -3.3413,0 -6,-2.658703 -6,-6 l 0,-1 c 0,3.341297 2.6587,6 6,6 l 16,0 c 3.3413,0 6,-2.658703 6,-6 l 0,1 c 0,3.341297 -2.6587,6 -6,6 l -16,0 z"
         id="path4300"
         inkscape:connector-curvature="0" />
      <path
         style="opacity:0.1;color:#bebebe;fill:#ffffff;fill-opacity:1;fill-rule:nonzero;stroke:none;stroke-width:0;marker:none;visibility:visible;display:inline;overflow:visible;enable-background:accumulate"
         d="m 422,122 c -2.2333,0 -4,-1.7667 -4,-4 l 0,-1 c 0,2.2333 1.7667,4 4,4 l 12,0 c 2.2333,0 4,-1.7667 4,-4 l 0,1 c 0,2.2333 -1.7667,4 -4,4 l -12,0 z"
         id="path4302"
         inkscape:connector-curvature="0" />
      <path
         style="opacity:0.1;color:#bebebe;fill:#ffffff;fill-opacity:1;fill-rule:nonzero;stroke:none;stroke-width:0;marker:none;visibility:visible;display:inline;overflow:visible;enable-background:accumulate"
         d="m 419,154.5 c -1.1253,0 -2,-0.8747 -2,-2 l 0,-1 c 0,1.1253 0.8747,2 2,2 l 10,0 c 1.1253,0 2,-0.8747 2,-2 l 0,1 c 0,1.1253 -0.8747,2 -2,2 l -10,0 z"
         id="path4304"
         inkscape:connector-curvature="0" />
    </g>
    <g
       inkscape:groupmode="layer"
       id="layer3"
       inkscape:label="Border"
       style="display:inline"
       sodipodi:insensitive="true">
      <path
         style="opacity:0.41000001;color:#bebebe;fill:#000000;fill-opacity:1;fill-rule:nonzero;stroke:none;stroke-width:0;marker:none;visibility:visible;display:inline;overflow:visible;enable-background:accumulate"
         d="m 422,101 c -2.77,0 -5,2.23 -5,5 l 0,12 c 0,2.77 2.23,5 5,5 l 12,0 c 2.77,0 5,-2.23 5,-5 l 0,-12 c 0,-2.77 -2.23,-5 -5,-5 l -12,0 z m 0,1 12,0 c 2.2333,0 4,1.7667 4,4 l 0,12 c 0,2.2333 -1.7667,4 -4,4 l -12,0 c -2.2333,0 -4,-1.7667 -4,-4 l 0,-12 c 0,-2.2333 1.7667,-4 4,-4 z"
         id="rect4099"
         inkscape:connector-curvature="0" />
      <path
         style="opacity:0.41000001;color:#bebebe;fill:#000000;fill-opacity:1;fill-rule:nonzero;stroke:none;stroke-width:0;marker:none;visibility:visible;display:inline;overflow:visible;enable-background:accumulate"
         d="m 424,53 c -3.878,0 -7,3.122 -7,7 l 0,16 c 0,3.878 3.122,7 7,7 l 16,0 c 3.878,0 7,-3.122 7,-7 l 0,-16 c 0,-3.878 -3.122,-7 -7,-7 l -16,0 z m 0,1 16,0 c 3.3413,0 6,2.658703 6,6 l 0,16 c 0,3.341297 -2.6587,6 -6,6 l -16,0 c -3.3413,0 -6,-2.658703 -6,-6 l 0,-16 c 0,-3.341297 2.6587,-6 6,-6 z"
         id="rect4151"
         inkscape:connector-curvature="0" />
      <path
         style="opacity:0.41000001;color:#bebebe;fill:#000000;fill-opacity:1;fill-rule:nonzero;stroke:none;stroke-width:0;marker:none;visibility:visible;display:inline;overflow:visible;enable-background:accumulate"
         d="m 419,140 c -1.662,0 -3,1.338 -3,3 l 0,10 c 0,1.662 1.338,3 3,3 l 10,0 c 1.662,0 3,-1.338 3,-3 l 0,-10 c 0,-1.662 -1.338,-3 -3,-3 l -10,0 z m 0,1 10,0 c 1.1253,0 2,0.8747 2,2 l 0,10 c 0,1.1253 -0.8747,2 -2,2 l -10,0 c -1.1253,0 -2,-0.8747 -2,-2 l 0,-10 c 0,-1.1253 0.8747,-2 2,-2 z"
         id="rect4095"
         inkscape:connector-curvature="0" />
      <path
         style="opacity:0.41000001;color:#bebebe;fill:#000000;fill-opacity:1;fill-rule:nonzero;stroke:none;stroke-width:0;marker:none;visibility:visible;display:inline;overflow:visible;enable-background:accumulate"
         d="m 300,223 c -4.986,0 -9,4.014 -9,9 l 0,24 c 0,4.986 4.014,9 9,9 l 24,0 c 4.986,0 9,-4.014 9,-9 l 0,-24 c 0,-4.986 -4.014,-9 -9,-9 l -24,0 z m 0,1 24,0 c 4.4493,0 8,3.5507 8,8 l 0,24 c 0,4.4493 -3.5507,8 -8,8 l -24,0 c -4.4493,0 -8,-3.5507 -8,-8 l 0,-24 c 0,-4.4493 3.5507,-8 8,-8 z"
         id="rect4783"
         inkscape:connector-curvature="0" />
      <path
         style="opacity:0.41000001;color:#bebebe;fill:#000000;fill-opacity:1;fill-rule:nonzero;stroke:none;stroke-width:0;marker:none;visibility:visible;display:inline;overflow:visible;enable-background:accumulate"
         d="m 302.5,142 c -6.925,0 -12.5,5.575 -12.5,12.5 l 0,35 c 0,6.925 5.575,12.5 12.5,12.5 l 35,0 c 6.925,0 12.5,-5.575 12.5,-12.5 l 0,-35 c 0,-6.925 -5.575,-12.5 -12.5,-12.5 l -35,0 z m 0,1 35,0 c 6.3883,0 11.5,5.1117 11.5,11.5 l 0,35 c 0,6.3883 -5.1117,11.5 -11.5,11.5 l -35,0 c -6.3883,0 -11.5,-5.1117 -11.5,-11.5 l 0,-35 c 0,-6.3883 5.1117,-11.5 11.5,-11.5 z"
         id="rect4515"
         inkscape:connector-curvature="0" />
      <path
         style="opacity:0.41000001;color:#bebebe;fill:#000000;fill-opacity:1;fill-rule:nonzero;stroke:none;stroke-width:0;marker:none;visibility:visible;display:inline;overflow:visible;enable-background:accumulate"
         d="m 310,32 c -9.972,0 -18,8.028 -18,18 l 0,52 c 0,9.972 8.028,18 18,18 l 52,0 c 9.972,0 18,-8.028 18,-18 l 0,-52 c 0,-9.972 -8.028,-18 -18,-18 l -52,0 z m 0,1 52,0 c 9.4353,0 17,7.564703 17,17 l 0,52 c 0,9.4353 -7.5647,17 -17,17 l -52,0 c -9.4353,0 -17,-7.5647 -17,-17 l 0,-52 c 0,-9.435297 7.5647,-17 17,-17 z"
         id="rect4511"
         inkscape:connector-curvature="0" />
      <path
         style="opacity:0.41000001;color:#bebebe;fill:#000000;fill-opacity:1;fill-rule:nonzero;stroke:none;stroke-width:0;marker:none;visibility:visible;display:inline;overflow:visible;enable-background:accumulate"
         d="M 84,46 C 56.3,46 34,68.3 34,96 l 0,120 c 0,27.7 22.3,50 50,50 l 120,0 c 27.7,0 50,-22.3 50,-50 L 254,96 C 254,68.3 231.7,46 204,46 L 84,46 z m 0,1 120,0 c 27.1633,0 49,21.836703 49,49 l 0,120 c 0,27.1633 -21.8367,49 -49,49 L 84,265 C 56.836703,265 35,243.1633 35,216 L 35,96 C 35,68.836703 56.836703,47 84,47 z"
         id="rect4040"
         inkscape:connector-curvature="0" />
    </g>
  </g>
</svg>
