<?xml version="1.0" encoding="UTF-8" standalone="no"?>
<!-- Created with Inkscape (http://www.inkscape.org/) -->

<svg
   xmlns:dc="http://purl.org/dc/elements/1.1/"
   xmlns:cc="http://creativecommons.org/ns#"
   xmlns:rdf="http://www.w3.org/1999/02/22-rdf-syntax-ns#"
   xmlns:svg="http://www.w3.org/2000/svg"
   xmlns="http://www.w3.org/2000/svg"
   xmlns:xlink="http://www.w3.org/1999/xlink"
   xmlns:sodipodi="http://sodipodi.sourceforge.net/DTD/sodipodi-0.dtd"
   xmlns:inkscape="http://www.inkscape.org/namespaces/inkscape"
   inkscape:export-ydpi="90.000000"
   inkscape:export-xdpi="90.000000"
   width="480"
   height="300"
   id="svg11300"
   sodipodi:version="0.32"
   inkscape:version="0.48.4 r9939"
   sodipodi:docname="applications-puzzles.svg"
   inkscape:output_extension="org.inkscape.output.svg.inkscape"
   version="1.0"
   style="display:inline;enable-background:new"
   inkscape:export-filename="/home/sam/moka-next-template.png">
  <sodipodi:namedview
     stroke="#ef2929"
     fill="#f57900"
     id="base"
     pagecolor="#777777"
     bordercolor="#666666"
     borderopacity="0.25490196"
     inkscape:pageopacity="0"
     inkscape:pageshadow="2"
     inkscape:zoom="1"
     inkscape:cx="232"
     inkscape:cy="145.96533"
     inkscape:current-layer="layer7"
     showgrid="false"
     inkscape:grid-bbox="true"
     inkscape:document-units="px"
     inkscape:showpageshadow="false"
     inkscape:window-width="1364"
     inkscape:window-height="700"
     inkscape:window-x="0"
     inkscape:window-y="28"
     width="400px"
     height="300px"
     inkscape:snap-nodes="true"
     inkscape:snap-bbox="true"
     gridtolerance="10000"
     inkscape:object-nodes="true"
     inkscape:snap-grids="true"
     showguides="true"
     inkscape:guide-bbox="true"
     inkscape:window-maximized="1"
     inkscape:bbox-nodes="true"
     inkscape:bbox-paths="true"
     inkscape:snap-bbox-edge-midpoints="true"
     inkscape:snap-bbox-midpoints="true">
    <inkscape:grid
       spacingy="1px"
       spacingx="1px"
       id="grid5883"
       type="xygrid"
       enabled="true"
       visible="true"
       empspacing="4"
       snapvisiblegridlinesonly="true"
       dotted="false"
       color="#000000"
       opacity="0.1254902"
       empcolor="#203ef3"
       empopacity="0.36470588" />
    <inkscape:grid
       type="xygrid"
       id="grid11592"
       empspacing="8"
       visible="true"
       enabled="false"
       spacingx="0.5px"
       spacingy="0.5px"
       color="#ff0000"
       opacity="0.1254902"
       empcolor="#ff0000"
       empopacity="0.25098039"
       snapvisiblegridlinesonly="true"
       dotted="true" />
  </sodipodi:namedview>
  <defs
     id="defs3">
    <linearGradient
       inkscape:collect="always"
       xlink:href="#outerBackgroundGradient-0"
       id="linearGradient4254"
       x1="35"
       y1="156"
       x2="253"
       y2="156"
       gradientUnits="userSpaceOnUse"
       gradientTransform="matrix(0,-1,1,0,-12,300)" />
    <linearGradient
       inkscape:collect="always"
       xlink:href="#outerBackgroundGradient-0"
       id="linearGradient4256"
       x1="417"
       y1="148"
       x2="431"
       y2="148"
       gradientUnits="userSpaceOnUse"
       gradientTransform="matrix(0,-1,1,0,276,572)" />
    <linearGradient
       inkscape:collect="always"
       xlink:href="#outerBackgroundGradient-0"
       id="linearGradient4260"
       x1="418"
       y1="68"
       x2="446"
       y2="68"
       gradientUnits="userSpaceOnUse"
       gradientTransform="matrix(0,-1,1,0,364,500)" />
    <linearGradient
       inkscape:collect="always"
       xlink:href="#outerBackgroundGradient-0"
       id="linearGradient4262"
       x1="292"
       y1="244"
       x2="332"
       y2="244"
       gradientUnits="userSpaceOnUse"
       gradientTransform="matrix(0,-1,1,0,68,556)" />
    <linearGradient
       inkscape:collect="always"
       xlink:href="#outerBackgroundGradient-0"
       id="linearGradient4264"
       x1="293"
       y1="76"
       x2="379"
       y2="76"
       gradientUnits="userSpaceOnUse"
       gradientTransform="matrix(0,-1,1,0,260,412)" />
    <linearGradient
       inkscape:collect="always"
       xlink:href="#outerBackgroundGradient-0"
       id="linearGradient4266"
       x1="291"
       y1="172"
       x2="349"
       y2="172"
       gradientUnits="userSpaceOnUse"
       gradientTransform="matrix(0,-1,1,0,148,492)" />
    <linearGradient
       inkscape:collect="always"
       xlink:href="#outerBackgroundGradient-0"
       id="linearGradient3870"
       gradientUnits="userSpaceOnUse"
       gradientTransform="matrix(0,-1,1,0,316,540)"
       x1="418"
       y1="112"
       x2="438"
       y2="112" />
    <linearGradient
       id="outerBackgroundGradient-0">
      <stop
         style="stop-color:#b94e14;stop-opacity:1;"
         offset="0"
         id="stop3864-8-6-89" />
      <stop
         style="stop-color:#d07924;stop-opacity:1;"
         offset="1"
         id="stop3866-9-1-42" />
    </linearGradient>
  </defs>
  <metadata
     id="metadata4">
    <rdf:RDF>
      <cc:Work
         rdf:about="">
        <dc:format>image/svg+xml</dc:format>
        <dc:type
           rdf:resource="http://purl.org/dc/dcmitype/StillImage" />
        <dc:creator>
          <cc:Agent>
            <dc:title>Sam Hewitt</dc:title>
          </cc:Agent>
        </dc:creator>
        <dc:source />
        <cc:license
           rdf:resource="" />
        <dc:title />
        <dc:subject>
          <rdf:Bag />
        </dc:subject>
        <dc:date />
        <dc:rights>
          <cc:Agent>
            <dc:title />
          </cc:Agent>
        </dc:rights>
        <dc:publisher>
          <cc:Agent>
            <dc:title />
          </cc:Agent>
        </dc:publisher>
        <dc:identifier />
        <dc:relation />
        <dc:language />
        <dc:coverage />
        <dc:description />
        <dc:contributor>
          <cc:Agent>
            <dc:title />
          </cc:Agent>
        </dc:contributor>
      </cc:Work>
      <cc:Work
         rdf:about="">
        <dc:format>image/svg+xml</dc:format>
        <dc:type
           rdf:resource="http://purl.org/dc/dcmitype/StillImage" />
      </cc:Work>
    </rdf:RDF>
  </metadata>
  <g
     style="display:inline"
     inkscape:groupmode="layer"
     inkscape:label="Icon"
     id="layer1">
    <g
       style="display:none"
       inkscape:label="Baseplate"
       id="layer7"
       inkscape:groupmode="layer">
      <text
         y="19.745117"
         xml:space="preserve"
         x="15.006836"
         style="font-style:normal;font-variant:normal;font-weight:normal;font-stretch:normal;line-height:0%;font-family:'DejaVu Sans';-inkscape-font-specification:'DejaVu Sans';display:inline;fill:#000000;fill-opacity:1;stroke:none;enable-background:new"
         inkscape:label="context"
         id="context"><tspan
           style="font-style:normal;font-variant:normal;font-weight:normal;font-stretch:normal;font-size:18px;line-height:1.25;font-family:'DejaVu Sans';-inkscape-font-specification:'DejaVu Sans'"
           y="19.745117"
           x="15.006836"
           sodipodi:role="line"
           id="tspan3933">categories</tspan></text>
      <text
         y="19.745117"
         xml:space="preserve"
         x="122.48828"
         style="font-style:normal;font-variant:normal;font-weight:bold;font-stretch:normal;line-height:0%;font-family:'DejaVu Sans';-inkscape-font-specification:'DejaVu Sans Bold';text-align:start;writing-mode:lr-tb;text-anchor:start;display:inline;fill:#000000;fill-opacity:1;stroke:none;enable-background:new"
         inkscape:label="icon-name"
         id="icon-name"><tspan
           style="font-style:normal;font-variant:normal;font-weight:bold;font-stretch:normal;font-size:18px;line-height:1.25;font-family:'DejaVu Sans';-inkscape-font-specification:'DejaVu Sans Bold'"
           y="19.745117"
           x="122.48828"
           sodipodi:role="line"
           id="tspan3937">applications-puzzles</tspan></text>
      <rect
         style="fill:#eeeeec;fill-opacity:1;fill-rule:nonzero;stroke:none;stroke-width:2;marker:none;visibility:visible;display:inline;overflow:visible;enable-background:accumulate"
         id="rect16x16"
         width="16"
         height="16"
         x="416"
         y="140"
         inkscape:label="16x16" />
      <rect
         style="fill:#d4d4d4;fill-opacity:1;fill-rule:nonzero;stroke:none;stroke-width:2;marker:none;visibility:visible;display:inline;overflow:visible;enable-background:accumulate"
         id="rect24x24"
         width="24"
         height="24"
         x="416"
         y="100"
         inkscape:label="24x24" />
      <rect
         style="fill:#eeeeec;fill-opacity:1;fill-rule:nonzero;stroke:none;stroke-width:2;marker:none;visibility:visible;display:inline;overflow:visible;enable-background:accumulate"
         id="rect32x32"
         width="32"
         height="32"
         x="416"
         y="52"
         inkscape:label="32x32" />
      <rect
         inkscape:label="22x22"
         y="101"
         x="417"
         height="22"
         width="22"
         id="rect22x22"
         style="fill:#eeeeec;fill-opacity:1;fill-rule:nonzero;stroke:none;stroke-width:2;marker:none;visibility:visible;display:inline;overflow:visible;enable-background:accumulate" />
      <rect
         inkscape:label="48x48"
         y="220"
         x="288"
         height="48"
         width="48"
         id="rect48x48"
         style="fill:#eeeeec;fill-opacity:1;fill-rule:nonzero;stroke:none;stroke-width:2;marker:none;visibility:visible;display:inline;overflow:visible;enable-background:accumulate" />
      <rect
         style="fill:#eeeeec;fill-opacity:1;fill-rule:nonzero;stroke:none;stroke-width:2;marker:none;visibility:visible;display:inline;overflow:visible;enable-background:accumulate"
         id="rect256x256"
         width="256"
         height="256"
         x="16"
         y="28"
         inkscape:label="256x256" />
      <rect
         style="fill:#eeeeec;fill-opacity:1;fill-rule:nonzero;stroke:none;stroke-width:2;marker:none;visibility:visible;display:inline;overflow:visible;enable-background:accumulate"
         id="rect64x64"
         width="64"
         height="64"
         x="288"
         y="140"
         inkscape:label="64x64" />
      <rect
         style="fill:#eeeeec;fill-opacity:1;fill-rule:nonzero;stroke:none;stroke-width:2;marker:none;visibility:visible;display:inline;overflow:visible;enable-background:accumulate"
         id="rect96x96"
         width="96"
         height="96"
         x="288"
         y="28"
         inkscape:label="96x96" />
    </g>
    <g
       inkscape:groupmode="layer"
       id="layer4"
       inkscape:label="Shadow"
       style="display:inline"
       sodipodi:insensitive="true">
      <rect
         ry="50"
         y="47"
         x="34"
         height="220"
         width="220"
         id="rect4114"
         style="opacity:0.1;color:#bebebe;fill:#000000;fill-opacity:1;fill-rule:nonzero;stroke:none;stroke-width:0;marker:none;visibility:visible;display:inline;overflow:visible;enable-background:accumulate" />
      <rect
         style="opacity:0.1;color:#bebebe;fill:#000000;fill-opacity:1;fill-rule:nonzero;stroke:none;stroke-width:0;marker:none;visibility:visible;display:inline;overflow:visible;enable-background:accumulate"
         id="rect4120"
         width="30"
         height="30"
         x="417"
         y="54"
         ry="7" />
      <rect
         transform="scale(1,-1)"
         ry="9"
         y="-266"
         x="291"
         height="42"
         width="42"
         id="rect4122"
         style="opacity:0.1;color:#bebebe;fill:#000000;fill-opacity:1;fill-rule:nonzero;stroke:none;stroke-width:0;marker:none;visibility:visible;display:inline;overflow:visible;enable-background:accumulate" />
      <rect
         style="opacity:0.1;color:#bebebe;fill:#000000;fill-opacity:1;fill-rule:nonzero;stroke:none;stroke-width:0;marker:none;visibility:visible;display:inline;overflow:visible;enable-background:accumulate"
         id="rect4124"
         width="88"
         height="88"
         x="292"
         y="33"
         ry="18" />
      <rect
         ry="12.5"
         y="143"
         x="290"
         height="60"
         width="60"
         id="rect4126"
         style="opacity:0.1;color:#bebebe;fill:#000000;fill-opacity:1;fill-rule:nonzero;stroke:none;stroke-width:0;marker:none;visibility:visible;display:inline;overflow:visible;enable-background:accumulate" />
      <path
         id="path4268"
         d="m 422,101 c -2.77,0 -5,2.23 -5,5 l 0,12 c 0,2.77 2.23,5 5,5 l 12,0 c 2.77,0 5,-2.23 5,-5 l 0,-12 c 0,-2.77 -2.23,-5 -5,-5 z"
         style="opacity:0.1;color:#bebebe;fill:#000000;fill-opacity:1;fill-rule:nonzero;stroke:none;stroke-width:0;marker:none;visibility:visible;display:inline;overflow:visible;enable-background:accumulate"
         inkscape:connector-curvature="0"
         sodipodi:nodetypes="sssssssss" />
      <path
         id="path4270"
         d="m 419,140 c -1.662,0 -3,1.338 -3,3 l 0,10 c 0,1.662 1.338,3 3,3 l 10,0 c 1.662,0 3,-1.338 3,-3 l 0,-10 c 0,-1.662 -1.338,-3 -3,-3 z"
         style="opacity:0.1;color:#bebebe;fill:#000000;fill-opacity:1;fill-rule:nonzero;stroke:none;stroke-width:0;marker:none;visibility:visible;display:inline;overflow:visible;enable-background:accumulate"
         inkscape:connector-curvature="0"
         sodipodi:nodetypes="sssssssss" />
    </g>
    <g
       inkscape:groupmode="layer"
       id="layer2"
       inkscape:label="Background"
       style="display:inline">
      <path
         style="color:#bebebe;fill:url(#linearGradient4254);fill-opacity:1.0;fill-rule:nonzero;stroke:none;stroke-width:2;marker:none;visibility:visible;display:inline;overflow:visible;enable-background:accumulate"
         d="M 84 46.5 C 56.568735 46.5 34.5 68.568732 34.5 96 L 34.5 216 C 34.5 243.43127 56.568735 265.5 84 265.5 L 204 265.5 C 231.43127 265.5 253.5 243.43127 253.5 216 L 253.5 96 C 253.5 68.568732 231.43127 46.5 204 46.5 L 84 46.5 z "
         id="path4200" />
      <path
         style="color:#bebebe;fill:url(#linearGradient4256);fill-opacity:1.0;fill-rule:nonzero;stroke:none;stroke-width:2;marker:none;visibility:visible;display:inline;overflow:visible;enable-background:accumulate"
         d="M 419 140.5 C 417.6156 140.5 416.5 141.6156 416.5 143 L 416.5 153 C 416.5 154.3844 417.6156 155.5 419 155.5 L 429 155.5 C 430.3844 155.5 431.5 154.3844 431.5 153 L 431.5 143 C 431.5 141.6156 430.3844 140.5 429 140.5 L 419 140.5 z "
         id="path4202" />
      <path
         style="color:#bebebe;fill:url(#linearGradient3870);fill-opacity:1.0;fill-rule:nonzero;stroke:none;stroke-width:2;marker:none;visibility:visible;display:inline;overflow:visible;enable-background:accumulate"
         d="M 422 101.5 C 419.50301 101.5 417.5 103.50301 417.5 106 L 417.5 118 C 417.5 120.49699 419.50301 122.5 422 122.5 L 434 122.5 C 436.49699 122.5 438.5 120.49699 438.5 118 L 438.5 106 C 438.5 103.50301 436.49699 101.5 434 101.5 L 422 101.5 z "
         id="path4204" />
      <path
         style="color:#bebebe;fill:url(#linearGradient4260);fill-opacity:1.0;fill-rule:nonzero;stroke:none;stroke-width:2;marker:none;visibility:visible;display:inline;overflow:visible;enable-background:accumulate"
         d="M 424 53.5 C 420.39346 53.5 417.5 56.393464 417.5 60 L 417.5 76 C 417.5 79.606536 420.39346 82.5 424 82.5 L 440 82.5 C 443.60654 82.5 446.5 79.606536 446.5 76 L 446.5 60 C 446.5 56.393464 443.60654 53.5 440 53.5 L 424 53.5 z "
         id="path4206" />
      <path
         style="color:#bebebe;fill:url(#linearGradient4262);fill-opacity:1.0;fill-rule:nonzero;stroke:none;stroke-width:2;marker:none;visibility:visible;display:inline;overflow:visible;enable-background:accumulate"
         d="M 300 223.5 C 295.28469 223.5 291.5 227.28469 291.5 232 L 291.5 256 C 291.5 260.71531 295.28469 264.5 300 264.5 L 324 264.5 C 328.71531 264.5 332.5 260.71531 332.5 256 L 332.5 232 C 332.5 227.28469 328.71531 223.5 324 223.5 L 300 223.5 z "
         id="path4208" />
      <path
         style="color:#bebebe;fill:url(#linearGradient4264);fill-opacity:1.0;fill-rule:nonzero;stroke:none;stroke-width:2;marker:none;visibility:visible;display:inline;overflow:visible;enable-background:accumulate"
         d="M 310 32.5 C 300.29745 32.5 292.5 40.297452 292.5 50 L 292.5 102 C 292.5 111.70255 300.29745 119.5 310 119.5 L 362 119.5 C 371.70255 119.5 379.5 111.70255 379.5 102 L 379.5 50 C 379.5 40.297452 371.70255 32.5 362 32.5 L 310 32.5 z "
         id="path4210" />
      <path
         style="color:#bebebe;fill:url(#linearGradient4266);fill-opacity:1.0;fill-rule:nonzero;stroke:none;stroke-width:2;marker:none;visibility:visible;display:inline;overflow:visible;enable-background:accumulate"
         d="M 302.5 142.5 C 295.84498 142.5 290.5 147.84498 290.5 154.5 L 290.5 189.5 C 290.5 196.15502 295.84498 201.5 302.5 201.5 L 337.5 201.5 C 344.15502 201.5 349.5 196.15502 349.5 189.5 L 349.5 154.5 C 349.5 147.84498 344.15502 142.5 337.5 142.5 L 302.5 142.5 z "
         id="path4212" />
    </g>
    <g
       inkscape:groupmode="layer"
       id="layer6"
       inkscape:label="Symbols"
       style="display:inline">
      <path
         id="path3882"
         d="m 341.29289,96.9622 c 1.842,-1.29442 5.0115,-0.48486 5.10295,1.89447 0.08,2.08305 0.097,4.28654 1.82581,5.81326 1.68309,1.48638 4.15771,1.77634 6.08457,0.52501 1.92686,-1.25131 2.66618,-3.63307 1.99275,-5.7758 -0.69171,-2.20096 -2.69528,-3.10837 -4.56567,-4.02876 -2.13649,-1.05126 -1.58687,-4.2761 0.34482,-5.432284 4.38666,-2.625716 9.24439,-4.333749 13.87155,-6.472574 -2.16649,-4.651793 -3.89792,-9.536565 -6.54461,-13.952755 -1.16619,-1.945851 -4.38484,-2.519699 -5.418,-0.383894 -0.90446,1.869849 -1.79934,3.875808 -3.98808,4.554247 -2.13085,0.66046 -4.50733,-0.10016 -5.76822,-2.041748 -1.26092,-1.94165 -0.98581,-4.423919 0.48459,-6.102366 1.51031,-1.72411 3.70287,-1.722799 5.77895,-1.788535 2.37142,-0.07506 3.15627,-3.248907 1.85299,-5.10573 C 349.38766,54.448118 345.63156,50.874881 342.25834,47 c -3.83895,3.356488 -7.37274,7.103218 -11.55577,10.042768 -1.84202,1.294415 -5.01151,0.484866 -5.1029,-1.894507 -0.08,-2.083049 -0.0965,-4.286207 -1.82581,-5.813257 -1.6836,-1.486699 -4.16012,-1.780078 -6.08697,-0.528758 -1.92688,1.251319 -2.66609,3.633667 -1.99276,5.775812 0.69156,2.200321 2.69765,3.11203 4.56805,4.032419 2.13643,1.0513 1.58687,4.27611 -0.34489,5.43233 -4.38422,2.624251 -9.24158,4.326803 -13.86696,6.466954 2.16756,4.657221 3.90071,9.544799 6.549,13.963604 1.16618,1.945859 4.38484,2.519699 5.418,0.383902 0.90445,-1.86985 1.79872,-3.875771 3.98808,-4.554248 2.13143,-0.660544 4.51101,0.09778 5.77189,2.039364 1.26092,1.94165 0.98548,4.424402 -0.4846,6.102366 -1.50999,1.723597 -3.70654,1.725184 -5.7826,1.790912 -2.37142,0.07506 -3.15634,3.248949 -1.85299,5.105729 2.95795,4.21424 6.71633,7.78306 10.08767,11.65461 3.83642,-3.35503 7.3675,-7.10001 11.54805,-10.03776 z"
         inkscape:connector-curvature="0"
         style="opacity:0.2;fill:#000000;fill-opacity:1;stroke:none;display:inline;enable-background:new" />
      <path
         style="opacity:0.2;fill:#000000;fill-opacity:1;stroke:none;display:inline;enable-background:new"
         inkscape:connector-curvature="0"
         d="m 323.5286,186.30813 c 1.228,-0.86294 3.341,-0.32324 3.40197,1.26298 0.0533,1.3887 0.0647,2.8577 1.2172,3.87551 1.12206,0.99092 2.77181,1.18423 4.05638,0.35001 1.28458,-0.83421 1.77746,-2.42205 1.3285,-3.85054 -0.46114,-1.4673 -1.79685,-2.07224 -3.04378,-2.68584 -1.42433,-0.70084 -1.05791,-2.85073 0.22988,-3.62152 2.92444,-1.75048 6.16293,-2.88916 9.2477,-4.31505 -1.44432,-3.10119 -2.59861,-6.35771 -4.36307,-9.30183 -0.77747,-1.29724 -2.92323,-1.6798 -3.61201,-0.25594 -0.60297,1.24657 -1.19956,2.58388 -2.65872,3.03617 -1.42057,0.44031 -3.00489,-0.0668 -3.84548,-1.36116 -0.84061,-1.29444 -0.65721,-2.94929 0.32306,-4.06825 1.00687,-1.14941 2.46858,-1.14853 3.85263,-1.19236 1.58094,-0.05 2.10418,-2.16593 1.23532,-3.40382 -1.97307,-2.81108 -4.47714,-5.19324 -6.72595,-7.77649 -2.5593,2.23766 -4.91517,4.73548 -7.70385,6.69518 -1.22802,0.86294 -3.341,0.32324 -3.40194,-1.26301 -0.0533,-1.3887 -0.0643,-2.85747 -1.2172,-3.8755 -1.1224,-0.99113 -2.77342,-1.18672 -4.05798,-0.35251 -1.28458,0.83422 -1.7774,2.42245 -1.3285,3.85055 0.46104,1.46688 1.79842,2.07468 3.04536,2.68827 1.42429,0.70087 1.05791,2.85074 -0.22993,3.62156 -2.92282,1.7495 -6.16105,2.88453 -9.24464,4.3113 1.44504,3.10482 2.60046,6.3632 4.366,9.30907 0.77744,1.29724 2.92322,1.6798 3.612,0.25593 0.60298,-1.24656 1.19915,-2.58384 2.65872,-3.03616 1.42095,-0.44036 3.00734,0.0652 3.84794,1.35957 0.84061,1.29444 0.65697,2.94961 -0.32307,4.06825 -1.00666,1.14906 -2.47103,1.15012 -3.85507,1.19394 -1.58094,0.05 -2.10422,2.16597 -1.23532,3.40382 1.97196,2.80949 4.47755,5.18871 6.7251,7.76974 2.55762,-2.23669 4.91168,-4.73334 7.6987,-6.69184 z"
         id="path3884" />
      <path
         id="path3886"
         d="m 314.47002,254.31569 c 0.8596,-0.60406 2.3387,-0.22627 2.38138,0.88409 0.0373,0.97209 0.0453,2.00039 0.85204,2.71285 0.78545,0.69365 1.94026,0.82896 2.83947,0.24501 0.8992,-0.58395 1.24421,-1.69543 0.92995,-2.69538 -0.3228,-1.02711 -1.2578,-1.45057 -2.13065,-1.88009 -0.99703,-0.49058 -0.74053,-1.99551 0.16091,-2.53506 2.04711,-1.22534 4.31406,-2.02241 6.47339,-3.02053 -1.01101,-2.17084 -1.81903,-4.4504 -3.05414,-6.51129 -0.54424,-0.90806 -2.04627,-1.17586 -2.52842,-0.17915 -0.42208,0.8726 -0.83969,1.80871 -1.8611,2.12532 -0.9944,0.30821 -2.10342,-0.0468 -2.69184,-0.95282 -0.58842,-0.9061 -0.46004,-2.0645 0.22615,-2.84777 0.7048,-0.80459 1.728,-0.80397 2.69684,-0.83465 1.10665,-0.035 1.47292,-1.51615 0.86472,-2.38268 -1.38115,-1.96775 -3.134,-3.63527 -4.70816,-5.44354 -1.79151,1.56636 -3.44062,3.31484 -5.3927,4.68663 -0.85961,0.60405 -2.3387,0.22626 -2.38136,-0.88411 -0.0373,-0.97209 -0.045,-2.00023 -0.85204,-2.71285 -0.78568,-0.69379 -1.94139,-0.83071 -2.84057,-0.24676 -0.89921,0.58396 -1.24419,1.69572 -0.92996,2.69539 0.32272,1.02681 1.25889,1.45227 2.13175,1.88179 0.99701,0.4906 0.74055,1.99551 -0.16095,2.53509 -2.04598,1.22465 -4.31274,2.01917 -6.47125,3.01791 1.01153,2.17337 1.82032,4.45424 3.0562,6.51635 0.54421,0.90806 2.04625,1.17586 2.5284,0.17915 0.42209,-0.87259 0.8394,-1.80869 1.8611,-2.12531 0.99467,-0.30826 2.10514,0.0456 2.69356,0.95169 0.58843,0.90611 0.45988,2.06473 -0.22615,2.84778 -0.70466,0.80434 -1.72972,0.80508 -2.69855,0.83576 -1.10665,0.035 -1.47295,1.51618 -0.86472,2.38267 1.38037,1.96664 3.13428,3.6321 4.70757,5.43882 1.79033,-1.56568 3.43818,-3.31334 5.38909,-4.68429 z"
         inkscape:connector-curvature="0"
         style="opacity:0.2;fill:#000000;fill-opacity:1;stroke:none;display:inline;enable-background:new" />
      <path
         style="opacity:0.2;fill:#000000;fill-opacity:1;stroke:none;display:inline;enable-background:new"
         inkscape:connector-curvature="0"
         d="m 158.11437,210.23253 c 4.912,-3.45178 13.364,-1.29296 13.60787,5.05192 0.21333,5.5548 0.25866,11.43078 4.86883,15.50203 4.48824,3.96368 11.08722,4.73691 16.22552,1.40003 5.1383,-3.33683 7.10982,-9.68819 5.314,-15.40214 -1.84456,-5.86922 -7.18741,-8.28898 -12.17512,-10.74336 -5.6973,-2.80336 -4.23165,-11.40293 0.91952,-14.48609 11.69776,-7.00191 24.65171,-11.55666 36.9908,-17.2602 -5.77731,-12.40478 -10.39446,-25.43084 -17.4523,-37.20734 -3.10984,-5.18894 -11.6929,-6.7192 -14.44799,-1.02372 -2.4119,4.98626 -4.79825,10.33549 -10.63488,12.14466 -5.68228,1.76123 -12.01955,-0.26709 -15.38192,-5.44466 -3.36245,-5.17773 -2.62883,-11.79712 1.29224,-16.27298 4.02749,-4.59762 9.87432,-4.59413 15.41053,-4.76942 6.32378,-0.20016 8.41672,-8.66376 4.94131,-13.61528 C 179.70042,96.861648 169.68416,87.333016 160.68891,77 c -10.2372,8.950635 -19.66064,18.941915 -30.81538,26.78072 -4.91206,3.45177 -13.36403,1.29297 -13.60774,-5.052024 -0.21333,-5.554797 -0.25733,-11.429885 -4.86882,-15.502019 -4.4896,-3.96453 -11.09366,-4.746874 -16.231925,-1.410021 -5.13835,3.336851 -7.10958,9.689779 -5.31403,15.402165 1.84416,5.867519 7.19373,8.298749 12.181475,10.753119 5.69714,2.80346 4.23165,11.40296 -0.91971,14.48621 -11.691255,6.998 -24.644215,11.53814 -36.978565,17.24521 5.78016,12.41926 10.40189,25.4528 17.464,37.23628 3.10981,5.18896 11.69291,6.7192 14.448,1.02374 2.41187,-4.98627 4.796585,-10.33539 10.634875,-12.14466 5.68381,-1.76145 12.02936,0.26074 15.39171,5.4383 3.36245,5.17773 2.62794,11.79841 -1.29227,16.27298 -4.02663,4.59626 -9.88411,4.60049 -15.42027,4.77576 -6.323775,0.20016 -8.416895,8.66387 -4.9413,13.61528 7.88786,11.23797 17.91021,20.75483 26.90045,31.07896 10.23045,-8.94675 19.64667,-18.93336 30.7948,-26.76736 z"
         id="path3888" />
      <path
         style="opacity:0.2;fill:#000000;fill-opacity:1;stroke:none;display:inline;enable-background:new"
         inkscape:connector-curvature="0"
         d="m 433.76429,75.65407 c 0.614,-0.43148 1.6705,-0.16162 1.70099,0.63149 0.0267,0.69435 0.0323,1.42884 0.60861,1.93775 0.56103,0.49546 1.38589,0.59211 2.02819,0.175 0.64228,-0.4171 0.88871,-1.21102 0.66424,-1.92526 -0.23057,-0.73366 -0.89843,-1.03613 -1.52189,-1.34292 -0.71217,-0.35042 -0.52895,-1.42537 0.11494,-1.81076 1.46222,-0.875243 3.08146,-1.444588 4.62385,-2.157529 -0.72217,-1.550598 -1.2993,-3.178855 -2.18153,-4.650919 -0.38874,-0.648617 -1.46161,-0.839899 -1.806,-0.127964 -0.30149,0.623283 -0.59978,1.291936 -1.32936,1.518082 -0.71028,0.220153 -1.50244,-0.03339 -1.92274,-0.680583 -0.42031,-0.647216 -0.3286,-1.474639 0.16153,-2.034122 0.50344,-0.574703 1.23429,-0.574266 1.92632,-0.596178 0.79047,-0.02502 1.05209,-1.082969 0.61766,-1.70191 -0.98654,-1.405541 -2.23858,-2.59662 -3.36298,-3.888247 -1.27965,1.118829 -2.45758,2.367739 -3.85193,3.347589 -0.614,0.431472 -1.6705,0.161622 -1.70096,-0.631502 -0.0267,-0.69435 -0.0322,-1.428736 -0.60861,-1.937752 -0.5612,-0.495567 -1.3867,-0.59336 -2.02899,-0.176253 -0.64229,0.417106 -0.88869,1.211222 -0.66425,1.925271 0.23052,0.73344 0.89922,1.037343 1.52268,1.344139 0.71215,0.350434 0.52896,1.42537 -0.11496,1.810777 -1.46141,0.87475 -3.08053,1.442268 -4.62232,2.155651 0.72252,1.552407 1.30024,3.1816 2.183,4.654535 0.38873,0.64862 1.46161,0.8399 1.806,0.127967 0.30148,-0.623283 0.59957,-1.291923 1.32936,-1.518082 0.71048,-0.220182 1.50367,0.03259 1.92396,0.679788 0.42031,0.647216 0.3285,1.4748 -0.16153,2.034122 -0.50333,0.57453 -1.23551,0.57506 -1.92753,0.59697 -0.79048,0.025 -1.05212,1.08298 -0.61767,1.70191 0.98599,1.40475 2.23878,2.59435 3.36256,3.88487 1.27881,-1.11834 2.45583,-2.36667 3.84935,-3.34592 z"
         id="path3890" />
      <path
         id="path3892"
         d="m 429.23498,117.65784 c 0.4298,-0.30203 1.16935,-0.11313 1.19069,0.44205 0.0187,0.48604 0.0226,1.00018 0.42603,1.35642 0.39272,0.34682 0.97012,0.41448 1.41973,0.1225 0.4496,-0.29197 0.6221,-0.84771 0.46497,-1.34768 -0.1614,-0.51356 -0.6289,-0.72529 -1.06533,-0.94004 -0.49851,-0.2453 -0.37026,-0.99776 0.0805,-1.26754 1.02356,-0.61267 2.15702,-1.01121 3.2367,-1.51027 -0.50552,-1.08542 -0.90951,-2.2252 -1.52707,-3.25564 -0.27212,-0.45403 -1.02313,-0.58793 -1.2642,-0.0896 -0.21105,0.4363 -0.41985,0.90435 -0.93056,1.06266 -0.49719,0.1541 -1.0517,-0.0234 -1.34591,-0.47641 -0.29422,-0.45305 -0.23002,-1.03225 0.11307,-1.42389 0.35241,-0.40229 0.864,-0.40198 1.34842,-0.41732 0.55333,-0.0175 0.73647,-0.75808 0.43236,-1.19134 -0.69057,-0.98388 -1.567,-1.81763 -2.35408,-2.72177 -0.89576,0.78318 -1.72031,1.65742 -2.69635,2.34331 -0.4298,0.30203 -1.16935,0.11314 -1.19067,-0.44205 -0.0187,-0.48605 -0.0225,-1.00012 -0.42604,-1.35643 -0.39283,-0.34689 -0.97069,-0.41535 -1.42029,-0.12337 -0.44961,0.29197 -0.62209,0.84785 -0.46498,1.34769 0.16136,0.5134 0.62945,0.72614 1.06588,0.94089 0.4985,0.24531 0.37027,0.99776 -0.0805,1.26755 -1.02298,0.61232 -2.15637,1.00958 -3.23562,1.50895 0.50576,1.08669 0.91017,2.22712 1.5281,3.25818 0.27211,0.45403 1.02313,0.58793 1.2642,0.0896 0.21105,-0.4363 0.4197,-0.90435 0.93055,-1.06266 0.49734,-0.15413 1.05257,0.0228 1.34677,0.47585 0.29422,0.45305 0.22995,1.03236 -0.11307,1.42389 -0.35233,0.40217 -0.86485,0.40254 -1.34927,0.41788 -0.55333,0.0175 -0.73647,0.75808 -0.43237,1.19133 0.6902,0.98333 1.56716,1.81605 2.35379,2.71941 0.89517,-0.78284 1.71909,-1.65667 2.69455,-2.34214 z"
         inkscape:connector-curvature="0"
         style="opacity:0.2;fill:#000000;fill-opacity:1;stroke:none;display:inline;enable-background:new" />
      <path
         style="opacity:0.2;fill:#000000;fill-opacity:1;stroke:none;display:inline;enable-background:new"
         inkscape:connector-curvature="0"
         d="m 424.8821,152.32703 c 0.307,-0.21574 0.83525,-0.0808 0.85049,0.31575 0.0134,0.34717 0.0162,0.71441 0.30431,0.96887 0.28051,0.24773 0.69294,0.29605 1.01409,0.0875 0.32114,-0.20855 0.44436,-0.60551 0.33212,-0.96263 -0.11528,-0.36683 -0.44921,-0.51806 -0.76095,-0.67146 -0.35607,-0.17521 -0.26447,-0.71268 0.0575,-0.90538 0.73112,-0.43762 1.54073,-0.72229 2.31193,-1.07876 -0.36109,-0.7753 -0.64965,-1.58943 -1.09076,-2.32546 -0.19438,-0.3243 -0.73081,-0.41995 -0.903,-0.064 -0.15075,0.31165 -0.2999,0.64597 -0.66469,0.75905 -0.35513,0.11007 -0.75121,-0.0167 -0.96136,-0.3403 -0.21016,-0.3236 -0.1643,-0.73732 0.0808,-1.01706 0.25172,-0.28735 0.61715,-0.28713 0.96316,-0.29809 0.39523,-0.0125 0.52605,-0.54148 0.30883,-0.85095 -0.49327,-0.70277 -1.11929,-1.29831 -1.68149,-1.94412 -0.63982,0.55941 -1.22879,1.18387 -1.92596,1.67379 -0.307,0.21574 -0.83524,0.0808 -0.85046,-0.31575 -0.0134,-0.34718 -0.0161,-0.71437 -0.30433,-0.96888 -0.28059,-0.24777 -0.69335,-0.29667 -1.01449,-0.0881 -0.32115,0.20855 -0.44435,0.60561 -0.33213,0.96264 0.11526,0.36671 0.44961,0.51867 0.76134,0.67206 0.35607,0.17522 0.26448,0.71268 -0.0575,0.90539 -0.7307,0.43737 -1.54026,0.72113 -2.31115,1.07782 0.36126,0.77621 0.65012,1.5908 1.0915,2.32727 0.19436,0.32431 0.7308,0.41995 0.903,0.064 0.15076,-0.31164 0.29978,-0.64596 0.66467,-0.75904 0.35525,-0.11009 0.75185,0.0163 0.96198,0.33989 0.21016,0.32361 0.16425,0.7374 -0.0808,1.01706 -0.25167,0.28727 -0.61775,0.28753 -0.96377,0.29849 -0.39523,0.0125 -0.52604,0.54148 -0.30883,0.85095 0.493,0.70237 1.1194,1.29717 1.68128,1.94243 0.6394,-0.55917 1.22792,-1.18333 1.92467,-1.67295 z"
         id="path3894" />
      <path
         style="fill:#ffffff;fill-opacity:1;stroke:none;display:inline;enable-background:new"
         inkscape:connector-curvature="0"
         d="m 341.29289,95.9622 c 1.842,-1.29442 5.0115,-0.48486 5.10295,1.89447 0.08,2.08305 0.097,4.28654 1.82581,5.81326 1.68309,1.48638 4.15771,1.77634 6.08457,0.52501 1.92686,-1.25131 2.66618,-3.63307 1.99275,-5.7758 -0.69171,-2.20096 -2.69528,-3.10837 -4.56567,-4.02876 -2.13649,-1.05126 -1.58687,-4.2761 0.34482,-5.432284 4.38666,-2.625716 9.24439,-4.333749 13.87155,-6.472574 -2.16649,-4.651793 -3.89792,-9.536565 -6.54461,-13.952755 -1.16619,-1.945851 -4.38484,-2.519699 -5.418,-0.383894 -0.90446,1.869849 -1.79934,3.875808 -3.98808,4.554247 -2.13085,0.66046 -4.50733,-0.10016 -5.76822,-2.041748 -1.26092,-1.94165 -0.98581,-4.423919 0.48459,-6.102366 1.51031,-1.72411 3.70287,-1.722799 5.77895,-1.788535 2.37142,-0.07506 3.15627,-3.248907 1.85299,-5.10573 C 349.38766,53.448118 345.63156,49.874881 342.25834,46 c -3.83895,3.356488 -7.37274,7.103218 -11.55577,10.042768 -1.84202,1.294415 -5.01151,0.484866 -5.1029,-1.894507 -0.08,-2.083049 -0.0965,-4.286207 -1.82581,-5.813257 -1.6836,-1.486699 -4.16012,-1.780078 -6.08697,-0.528758 -1.92688,1.251319 -2.66609,3.633667 -1.99276,5.775812 0.69156,2.200321 2.69765,3.11203 4.56805,4.032419 2.13643,1.0513 1.58687,4.27611 -0.34489,5.43233 -4.38422,2.624251 -9.24158,4.326803 -13.86696,6.466954 2.16756,4.657221 3.90071,9.544799 6.549,13.963604 1.16618,1.945859 4.38484,2.519699 5.418,0.383902 0.90445,-1.86985 1.79872,-3.875771 3.98808,-4.554248 2.13143,-0.660544 4.51101,0.09778 5.77189,2.039364 1.26092,1.94165 0.98548,4.424402 -0.4846,6.102366 -1.50999,1.723597 -3.70654,1.725184 -5.7826,1.790912 -2.37142,0.07506 -3.15634,3.248949 -1.85299,5.105729 2.95795,4.21424 6.71633,7.78306 10.08767,11.65461 3.83642,-3.35503 7.3675,-7.10001 11.54805,-10.03776 z"
         id="path4665" />
      <path
         id="path3870"
         d="m 323.5286,185.30813 c 1.228,-0.86294 3.341,-0.32324 3.40197,1.26298 0.0533,1.3887 0.0647,2.8577 1.2172,3.87551 1.12206,0.99092 2.77181,1.18423 4.05638,0.35001 1.28458,-0.83421 1.77746,-2.42205 1.3285,-3.85054 -0.46114,-1.4673 -1.79685,-2.07224 -3.04378,-2.68584 -1.42433,-0.70084 -1.05791,-2.85073 0.22988,-3.62152 2.92444,-1.75048 6.16293,-2.88916 9.2477,-4.31505 -1.44432,-3.10119 -2.59861,-6.35771 -4.36307,-9.30183 -0.77747,-1.29724 -2.92323,-1.6798 -3.61201,-0.25594 -0.60297,1.24657 -1.19956,2.58388 -2.65872,3.03617 -1.42057,0.44031 -3.00489,-0.0668 -3.84548,-1.36116 -0.84061,-1.29444 -0.65721,-2.94929 0.32306,-4.06825 1.00687,-1.14941 2.46858,-1.14853 3.85263,-1.19236 1.58094,-0.05 2.10418,-2.16593 1.23532,-3.40382 -1.97307,-2.81108 -4.47714,-5.19324 -6.72595,-7.77649 -2.5593,2.23766 -4.91517,4.73548 -7.70385,6.69518 -1.22802,0.86294 -3.341,0.32324 -3.40194,-1.26301 -0.0533,-1.3887 -0.0643,-2.85747 -1.2172,-3.8755 -1.1224,-0.99113 -2.77342,-1.18672 -4.05798,-0.35251 -1.28458,0.83422 -1.7774,2.42245 -1.3285,3.85055 0.46104,1.46688 1.79842,2.07468 3.04536,2.68827 1.42429,0.70087 1.05791,2.85074 -0.22993,3.62156 -2.92282,1.7495 -6.16105,2.88453 -9.24464,4.3113 1.44504,3.10482 2.60046,6.3632 4.366,9.30907 0.77744,1.29724 2.92322,1.6798 3.612,0.25593 0.60298,-1.24656 1.19915,-2.58384 2.65872,-3.03616 1.42095,-0.44036 3.00734,0.0652 3.84794,1.35957 0.84061,1.29444 0.65697,2.94961 -0.32307,4.06825 -1.00666,1.14906 -2.47103,1.15012 -3.85507,1.19394 -1.58094,0.05 -2.10422,2.16597 -1.23532,3.40382 1.97196,2.80949 4.47755,5.18871 6.7251,7.76974 2.55762,-2.23669 4.91168,-4.73334 7.6987,-6.69184 z"
         inkscape:connector-curvature="0"
         style="fill:#ffffff;fill-opacity:1;stroke:none;display:inline;enable-background:new" />
      <path
         style="fill:#ffffff;fill-opacity:1;stroke:none;display:inline;enable-background:new"
         inkscape:connector-curvature="0"
         d="m 314.47002,253.31569 c 0.8596,-0.60406 2.3387,-0.22627 2.38138,0.88409 0.0373,0.97209 0.0453,2.00039 0.85204,2.71285 0.78545,0.69365 1.94026,0.82896 2.83947,0.24501 0.8992,-0.58395 1.24421,-1.69543 0.92995,-2.69538 -0.3228,-1.02711 -1.2578,-1.45057 -2.13065,-1.88009 -0.99703,-0.49058 -0.74053,-1.99551 0.16091,-2.53506 2.04711,-1.22534 4.31406,-2.02241 6.47339,-3.02053 -1.01101,-2.17084 -1.81903,-4.4504 -3.05414,-6.51129 -0.54424,-0.90806 -2.04627,-1.17586 -2.52842,-0.17915 -0.42208,0.8726 -0.83969,1.80871 -1.8611,2.12532 -0.9944,0.30821 -2.10342,-0.0468 -2.69184,-0.95282 -0.58842,-0.9061 -0.46004,-2.0645 0.22615,-2.84777 0.7048,-0.80459 1.728,-0.80397 2.69684,-0.83465 1.10665,-0.035 1.47292,-1.51615 0.86472,-2.38268 -1.38115,-1.96775 -3.134,-3.63527 -4.70816,-5.44354 -1.79151,1.56636 -3.44062,3.31484 -5.3927,4.68663 -0.85961,0.60405 -2.3387,0.22626 -2.38136,-0.88411 -0.0373,-0.97209 -0.045,-2.00023 -0.85204,-2.71285 -0.78568,-0.69379 -1.94139,-0.83071 -2.84057,-0.24676 -0.89921,0.58396 -1.24419,1.69572 -0.92996,2.69539 0.32272,1.02681 1.25889,1.45227 2.13175,1.88179 0.99701,0.4906 0.74055,1.99551 -0.16095,2.53509 -2.04598,1.22465 -4.31274,2.01917 -6.47125,3.01791 1.01153,2.17337 1.82032,4.45424 3.0562,6.51635 0.54421,0.90806 2.04625,1.17586 2.5284,0.17915 0.42209,-0.87259 0.8394,-1.80869 1.8611,-2.12531 0.99467,-0.30826 2.10514,0.0456 2.69356,0.95169 0.58843,0.90611 0.45988,2.06473 -0.22615,2.84778 -0.70466,0.80434 -1.72972,0.80508 -2.69855,0.83576 -1.10665,0.035 -1.47295,1.51618 -0.86472,2.38267 1.38037,1.96664 3.13428,3.6321 4.70757,5.43882 1.79033,-1.56568 3.43818,-3.31334 5.38909,-4.68429 z"
         id="path3872" />
      <path
         id="path3874"
         d="m 158.11437,209.23253 c 4.912,-3.45178 13.364,-1.29296 13.60787,5.05192 0.21333,5.5548 0.25866,11.43078 4.86883,15.50203 4.48824,3.96368 11.08722,4.73691 16.22552,1.40003 5.1383,-3.33683 7.10982,-9.68819 5.314,-15.40214 -1.84456,-5.86922 -7.18741,-8.28898 -12.17512,-10.74336 -5.6973,-2.80336 -4.23165,-11.40293 0.91952,-14.48609 11.69776,-7.00191 24.65171,-11.55666 36.9908,-17.2602 -5.77731,-12.40478 -10.39446,-25.43084 -17.4523,-37.20734 -3.10984,-5.18894 -11.6929,-6.7192 -14.44799,-1.02372 -2.4119,4.98626 -4.79825,10.33549 -10.63488,12.14466 -5.68228,1.76123 -12.01955,-0.26709 -15.38192,-5.44466 -3.36245,-5.17773 -2.62883,-11.79712 1.29224,-16.27298 4.02749,-4.59762 9.87432,-4.59413 15.41053,-4.76942 6.32378,-0.20016 8.41672,-8.66376 4.94131,-13.61528 C 179.70042,95.861648 169.68416,86.333016 160.68891,76 c -10.2372,8.950635 -19.66064,18.941915 -30.81538,26.78072 -4.91206,3.45177 -13.36403,1.29297 -13.60774,-5.052024 -0.21333,-5.554797 -0.25733,-11.429885 -4.86882,-15.502019 -4.4896,-3.96453 -11.09366,-4.746874 -16.231925,-1.410021 -5.13835,3.336851 -7.10958,9.689779 -5.31403,15.402165 1.84416,5.867519 7.19373,8.298749 12.181475,10.753119 5.69714,2.80346 4.23165,11.40296 -0.91971,14.48621 -11.691255,6.998 -24.644215,11.53814 -36.978565,17.24521 5.78016,12.41926 10.40189,25.4528 17.464,37.23628 3.10981,5.18896 11.69291,6.7192 14.448,1.02374 2.41187,-4.98627 4.796585,-10.33539 10.634875,-12.14466 5.68381,-1.76145 12.02936,0.26074 15.39171,5.4383 3.36245,5.17773 2.62794,11.79841 -1.29227,16.27298 -4.02663,4.59626 -9.88411,4.60049 -15.42027,4.77576 -6.323775,0.20016 -8.416895,8.66387 -4.9413,13.61528 7.88786,11.23797 17.91021,20.75483 26.90045,31.07896 10.23045,-8.94675 19.64667,-18.93336 30.7948,-26.76736 z"
         inkscape:connector-curvature="0"
         style="fill:#ffffff;fill-opacity:1;stroke:none;display:inline;enable-background:new" />
      <path
         id="path3876"
         d="m 433.76429,74.65407 c 0.614,-0.43148 1.6705,-0.16162 1.70099,0.63149 0.0267,0.69435 0.0323,1.42884 0.60861,1.93775 0.56103,0.49546 1.38589,0.59211 2.02819,0.175 0.64228,-0.4171 0.88871,-1.21102 0.66424,-1.92526 -0.23057,-0.73366 -0.89843,-1.03613 -1.52189,-1.34292 -0.71217,-0.35042 -0.52895,-1.42537 0.11494,-1.81076 1.46222,-0.875243 3.08146,-1.444588 4.62385,-2.157529 -0.72217,-1.550598 -1.2993,-3.178855 -2.18153,-4.650919 -0.38874,-0.648617 -1.46161,-0.839899 -1.806,-0.127964 -0.30149,0.623283 -0.59978,1.291936 -1.32936,1.518082 -0.71028,0.220153 -1.50244,-0.03339 -1.92274,-0.680583 -0.42031,-0.647216 -0.3286,-1.474639 0.16153,-2.034122 0.50344,-0.574703 1.23429,-0.574266 1.92632,-0.596178 0.79047,-0.02502 1.05209,-1.082969 0.61766,-1.70191 -0.98654,-1.405541 -2.23858,-2.59662 -3.36298,-3.888247 -1.27965,1.118829 -2.45758,2.367739 -3.85193,3.347589 -0.614,0.431472 -1.6705,0.161622 -1.70096,-0.631502 -0.0267,-0.69435 -0.0322,-1.428736 -0.60861,-1.937752 -0.5612,-0.495567 -1.3867,-0.59336 -2.02899,-0.176253 -0.64229,0.417106 -0.88869,1.211222 -0.66425,1.925271 0.23052,0.73344 0.89922,1.037343 1.52268,1.344139 0.71215,0.350434 0.52896,1.42537 -0.11496,1.810777 -1.46141,0.87475 -3.08053,1.442268 -4.62232,2.155651 0.72252,1.552407 1.30024,3.1816 2.183,4.654535 0.38873,0.64862 1.46161,0.8399 1.806,0.127967 0.30148,-0.623283 0.59957,-1.291923 1.32936,-1.518082 0.71048,-0.220182 1.50367,0.03259 1.92396,0.679788 0.42031,0.647216 0.3285,1.4748 -0.16153,2.034122 -0.50333,0.57453 -1.23551,0.57506 -1.92753,0.59697 -0.79048,0.025 -1.05212,1.08298 -0.61767,1.70191 0.98599,1.40475 2.23878,2.59435 3.36256,3.88487 1.27881,-1.11834 2.45583,-2.36667 3.84935,-3.34592 z"
         inkscape:connector-curvature="0"
         style="fill:#ffffff;fill-opacity:1;stroke:none;display:inline;enable-background:new" />
      <path
         style="fill:#ffffff;fill-opacity:1;stroke:none;display:inline;enable-background:new"
         inkscape:connector-curvature="0"
         d="m 429.23498,116.65784 c 0.4298,-0.30203 1.16935,-0.11313 1.19069,0.44205 0.0187,0.48604 0.0226,1.00018 0.42603,1.35642 0.39272,0.34682 0.97012,0.41448 1.41973,0.1225 0.4496,-0.29197 0.6221,-0.84771 0.46497,-1.34768 -0.1614,-0.51356 -0.6289,-0.72529 -1.06533,-0.94004 -0.49851,-0.2453 -0.37026,-0.99776 0.0805,-1.26754 1.02356,-0.61267 2.15702,-1.01121 3.2367,-1.51027 -0.50552,-1.08542 -0.90951,-2.2252 -1.52707,-3.25564 -0.27212,-0.45403 -1.02313,-0.58793 -1.2642,-0.0896 -0.21105,0.4363 -0.41985,0.90435 -0.93056,1.06266 -0.49719,0.1541 -1.0517,-0.0234 -1.34591,-0.47641 -0.29422,-0.45305 -0.23002,-1.03225 0.11307,-1.42389 0.35241,-0.40229 0.864,-0.40198 1.34842,-0.41732 0.55333,-0.0175 0.73647,-0.75808 0.43236,-1.19134 -0.69057,-0.98388 -1.567,-1.81763 -2.35408,-2.72177 -0.89576,0.78318 -1.72031,1.65742 -2.69635,2.34331 -0.4298,0.30203 -1.16935,0.11314 -1.19067,-0.44205 -0.0187,-0.48605 -0.0225,-1.00012 -0.42604,-1.35643 -0.39283,-0.34689 -0.97069,-0.41535 -1.42029,-0.12337 -0.44961,0.29197 -0.62209,0.84785 -0.46498,1.34769 0.16136,0.5134 0.62945,0.72614 1.06588,0.94089 0.4985,0.24531 0.37027,0.99776 -0.0805,1.26755 -1.02298,0.61232 -2.15637,1.00958 -3.23562,1.50895 0.50576,1.08669 0.91017,2.22712 1.5281,3.25818 0.27211,0.45403 1.02313,0.58793 1.2642,0.0896 0.21105,-0.4363 0.4197,-0.90435 0.93055,-1.06266 0.49734,-0.15413 1.05257,0.0228 1.34677,0.47585 0.29422,0.45305 0.22995,1.03236 -0.11307,1.42389 -0.35233,0.40217 -0.86485,0.40254 -1.34927,0.41788 -0.55333,0.0175 -0.73647,0.75808 -0.43237,1.19133 0.6902,0.98333 1.56716,1.81605 2.35379,2.71941 0.89517,-0.78284 1.71909,-1.65667 2.69455,-2.34214 z"
         id="path3878" />
      <path
         id="path3880"
         d="m 424.8821,151.32703 c 0.307,-0.21574 0.83525,-0.0808 0.85049,0.31575 0.0134,0.34717 0.0162,0.71441 0.30431,0.96887 0.28051,0.24773 0.69294,0.29605 1.01409,0.0875 0.32114,-0.20855 0.44436,-0.60551 0.33212,-0.96263 -0.11528,-0.36683 -0.44921,-0.51806 -0.76095,-0.67146 -0.35607,-0.17521 -0.26447,-0.71268 0.0575,-0.90538 0.73112,-0.43762 1.54073,-0.72229 2.31193,-1.07876 -0.36109,-0.7753 -0.64965,-1.58943 -1.09076,-2.32546 -0.19438,-0.3243 -0.73081,-0.41995 -0.903,-0.064 -0.15075,0.31165 -0.2999,0.64597 -0.66469,0.75905 -0.35513,0.11007 -0.75121,-0.0167 -0.96136,-0.3403 -0.21016,-0.3236 -0.1643,-0.73732 0.0808,-1.01706 0.25172,-0.28735 0.61715,-0.28713 0.96316,-0.29809 0.39523,-0.0125 0.52605,-0.54148 0.30883,-0.85095 -0.49327,-0.70277 -1.11929,-1.29831 -1.68149,-1.94412 -0.63982,0.55941 -1.22879,1.18387 -1.92596,1.67379 -0.307,0.21574 -0.83524,0.0808 -0.85046,-0.31575 -0.0134,-0.34718 -0.0161,-0.71437 -0.30433,-0.96888 -0.28059,-0.24777 -0.69335,-0.29667 -1.01449,-0.0881 -0.32115,0.20855 -0.44435,0.60561 -0.33213,0.96264 0.11526,0.36671 0.44961,0.51867 0.76134,0.67206 0.35607,0.17522 0.26448,0.71268 -0.0575,0.90539 -0.7307,0.43737 -1.54026,0.72113 -2.31115,1.07782 0.36126,0.77621 0.65012,1.5908 1.0915,2.32727 0.19436,0.32431 0.7308,0.41995 0.903,0.064 0.15076,-0.31164 0.29978,-0.64596 0.66467,-0.75904 0.35525,-0.11009 0.75185,0.0163 0.96198,0.33989 0.21016,0.32361 0.16425,0.7374 -0.0808,1.01706 -0.25167,0.28727 -0.61775,0.28753 -0.96377,0.29849 -0.39523,0.0125 -0.52604,0.54148 -0.30883,0.85095 0.493,0.70237 1.1194,1.29717 1.68128,1.94243 0.6394,-0.55917 1.22792,-1.18333 1.92467,-1.67295 z"
         inkscape:connector-curvature="0"
         style="fill:#ffffff;fill-opacity:1;stroke:none;display:inline;enable-background:new" />
    </g>
    <g
       inkscape:groupmode="layer"
       id="layer5"
       inkscape:label="Highlights"
       style="display:inline"
       sodipodi:insensitive="true">
      <path
         style="opacity:0.12999998;color:#bebebe;fill:#ffffff;fill-opacity:1;fill-rule:nonzero;stroke:none;stroke-width:0;marker:none;visibility:visible;display:inline;overflow:visible;enable-background:accumulate"
         d="M 84,47 C 56.836703,47 35,68.836703 35,96 l 0,1 C 35,69.836703 56.836703,48 84,48 l 120,0 c 27.1633,0 49,21.836703 49,49 l 0,-1 C 253,68.836703 231.1633,47 204,47 L 84,47 z"
         id="rect3894"
         inkscape:connector-curvature="0" />
      <path
         style="opacity:0.12999998;color:#bebebe;fill:#ffffff;fill-opacity:1;fill-rule:nonzero;stroke:none;stroke-width:0;marker:none;visibility:visible;display:inline;overflow:visible;enable-background:accumulate"
         d="m 419,141 c -1.1253,0 -2,0.8747 -2,2 l 0,1 c 0,-1.1253 0.8747,-2 2,-2 l 10,0 c 1.1253,0 2,0.8747 2,2 l 0,-1 c 0,-1.1253 -0.8747,-2 -2,-2 l -10,0 z"
         id="rect3896"
         inkscape:connector-curvature="0" />
      <path
         style="opacity:0.12999998;color:#bebebe;fill:#ffffff;fill-opacity:1;fill-rule:nonzero;stroke:none;stroke-width:0;marker:none;visibility:visible;display:inline;overflow:visible;enable-background:accumulate"
         d="m 422,102 c -2.2333,0 -4,1.7667 -4,4 l 0,1 c 0,-2.2333 1.7667,-4 4,-4 l 12,0 c 2.2333,0 4,1.7667 4,4 l 0,-1 c 0,-2.2333 -1.7667,-4 -4,-4 l -12,0 z"
         id="rect3898"
         inkscape:connector-curvature="0" />
      <path
         style="opacity:0.12999998;color:#bebebe;fill:#ffffff;fill-opacity:1;fill-rule:nonzero;stroke:none;stroke-width:0;marker:none;visibility:visible;display:inline;overflow:visible;enable-background:accumulate"
         d="m 424,54 c -3.3413,0 -6,2.658703 -6,6 l 0,1 c 0,-3.341297 2.6587,-6 6,-6 l 16,0 c 3.3413,0 6,2.658703 6,6 l 0,-1 c 0,-3.341297 -2.6587,-6 -6,-6 l -16,0 z"
         id="rect3900"
         inkscape:connector-curvature="0" />
      <path
         style="opacity:0.12999998;color:#bebebe;fill:#ffffff;fill-opacity:1;fill-rule:nonzero;stroke:none;stroke-width:0;marker:none;visibility:visible;display:inline;overflow:visible;enable-background:accumulate"
         d="m 300,224 c -4.4493,0 -8,3.5507 -8,8 l 0,1 c 0,-4.4493 3.5507,-8 8,-8 l 24,0 c 4.4493,0 8,3.5507 8,8 l 0,-1 c 0,-4.4493 -3.5507,-8 -8,-8 l -24,0 z"
         id="rect3902"
         inkscape:connector-curvature="0" />
      <path
         style="opacity:0.12999998;color:#bebebe;fill:#ffffff;fill-opacity:1;fill-rule:nonzero;stroke:none;stroke-width:0;marker:none;visibility:visible;display:inline;overflow:visible;enable-background:accumulate"
         d="m 310,33 c -9.4353,0 -17,7.564703 -17,17 l 0,1 c 0,-9.435297 7.5647,-17 17,-17 l 52,0 c 9.4353,0 17,7.564703 17,17 l 0,-1 c 0,-9.435297 -7.5647,-17 -17,-17 l -52,0 z"
         id="rect3904"
         inkscape:connector-curvature="0" />
      <path
         style="opacity:0.12999998;color:#bebebe;fill:#ffffff;fill-opacity:1;fill-rule:nonzero;stroke:none;stroke-width:0;marker:none;visibility:visible;display:inline;overflow:visible;enable-background:accumulate"
         d="m 302.5,143 c -6.3883,0 -11.5,5.1117 -11.5,11.5 l 0,1 c 0,-6.3883 5.1117,-11.5 11.5,-11.5 l 35,0 c 6.3883,0 11.5,5.1117 11.5,11.5 l 0,-1 c 0,-6.3883 -5.1117,-11.5 -11.5,-11.5 l -35,0 z"
         id="rect3906"
         inkscape:connector-curvature="0" />
      <path
         id="path4085"
         d="m 204,266 c 27.1633,0 49,-21.8367 49,-49 l 0,-1 c 0,27.1633 -21.8367,49 -49,49 L 84,265 C 56.8367,265 35,243.1633 35,216 l 0,1 c 0,27.1633 21.8367,49 49,49 l 120,0 z"
         style="opacity:0.5;color:#bebebe;fill:#000000;fill-opacity:1;fill-rule:nonzero;stroke:none;stroke-width:0;marker:none;visibility:visible;display:inline;overflow:visible;enable-background:accumulate"
         inkscape:connector-curvature="0" />
      <path
         id="path4087"
         d="m 429,156 c 1.1253,0 2,-0.8747 2,-2 l 0,-1 c 0,1.1253 -0.8747,2 -2,2 l -10,0 c -1.1253,0 -2,-0.8747 -2,-2 l 0,1 c 0,1.1253 0.8747,2 2,2 l 10,0 z"
         style="opacity:0.3;color:#bebebe;fill:#000000;fill-opacity:1;fill-rule:nonzero;stroke:none;stroke-width:0;marker:none;visibility:visible;display:inline;overflow:visible;enable-background:accumulate"
         inkscape:connector-curvature="0" />
      <path
         id="path4089"
         d="m 434,123 c 2.2333,0 4,-1.7667 4,-4 l 0,-1 c 0,2.2333 -1.7667,4 -4,4 l -12,0 c -2.2333,0 -4,-1.7667 -4,-4 l 0,1 c 0,2.2333 1.7667,4 4,4 l 12,0 z"
         style="opacity:0.3;color:#bebebe;fill:#000000;fill-opacity:1;fill-rule:nonzero;stroke:none;stroke-width:0;marker:none;visibility:visible;display:inline;overflow:visible;enable-background:accumulate"
         inkscape:connector-curvature="0" />
      <path
         id="path4091"
         d="m 440,83 c 3.3413,0 6,-2.6587 6,-6 l 0,-1 c 0,3.3413 -2.6587,6 -6,6 l -16,0 c -3.3413,0 -6,-2.6587 -6,-6 l 0,1 c 0,3.3413 2.6587,6 6,6 l 16,0 z"
         style="opacity:0.5;color:#bebebe;fill:#000000;fill-opacity:1;fill-rule:nonzero;stroke:none;stroke-width:0;marker:none;visibility:visible;display:inline;overflow:visible;enable-background:accumulate"
         inkscape:connector-curvature="0" />
      <path
         id="path4093"
         d="m 324,265 c 4.4493,0 8,-3.5507 8,-8 l 0,-1 c 0,4.4493 -3.5507,8 -8,8 l -24,0 c -4.4493,0 -8,-3.5507 -8,-8 l 0,1 c 0,4.4493 3.5507,8 8,8 l 24,0 z"
         style="opacity:0.5;color:#bebebe;fill:#000000;fill-opacity:1;fill-rule:nonzero;stroke:none;stroke-width:0;marker:none;visibility:visible;display:inline;overflow:visible;enable-background:accumulate"
         inkscape:connector-curvature="0" />
      <path
         id="path4095"
         d="m 362,120 c 9.4353,0 17,-7.5647 17,-17 l 0,-1 c 0,9.4353 -7.5647,17 -17,17 l -52,0 c -9.4353,0 -17,-7.5647 -17,-17 l 0,1 c 0,9.4353 7.5647,17 17,17 l 52,0 z"
         style="opacity:0.5;color:#bebebe;fill:#000000;fill-opacity:1;fill-rule:nonzero;stroke:none;stroke-width:0;marker:none;visibility:visible;display:inline;overflow:visible;enable-background:accumulate"
         inkscape:connector-curvature="0" />
      <path
         id="path4097"
         d="m 337.5,202 c 6.3883,0 11.5,-5.1117 11.5,-11.5 l 0,-1 c 0,6.3883 -5.1117,11.5 -11.5,11.5 l -35,0 c -6.3883,0 -11.5,-5.1117 -11.5,-11.5 l 0,1 c 0,6.3883 5.1117,11.5 11.5,11.5 l 35,0 z"
         style="opacity:0.5;color:#bebebe;fill:#000000;fill-opacity:1;fill-rule:nonzero;stroke:none;stroke-width:0;marker:none;visibility:visible;display:inline;overflow:visible;enable-background:accumulate"
         inkscape:connector-curvature="0" />
      <path
         inkscape:connector-curvature="0"
         id="path4280"
         d="M 84,265 C 56.836703,265 35,243.1633 35,216 l 0,-1 c 0,27.1633 21.836703,49 49,49 l 120,0 c 27.1633,0 49,-21.8367 49,-49 l 0,1 c 0,27.1633 -21.8367,49 -49,49 l -120,0 z"
         style="opacity:0.1;color:#bebebe;fill:#ffffff;fill-opacity:1;fill-rule:nonzero;stroke:none;stroke-width:0;marker:none;visibility:visible;display:inline;overflow:visible;enable-background:accumulate" />
      <path
         style="opacity:0.1;color:#bebebe;fill:#ffffff;fill-opacity:1;fill-rule:nonzero;stroke:none;stroke-width:0;marker:none;visibility:visible;display:inline;overflow:visible;enable-background:accumulate"
         d="m 300,264 c -4.4493,0 -8,-3.5507 -8,-8 l 0,-1 c 0,4.4493 3.5507,8 8,8 l 24,0 c 4.4493,0 8,-3.5507 8,-8 l 0,1 c 0,4.4493 -3.5507,8 -8,8 l -24,0 z"
         id="path4294"
         inkscape:connector-curvature="0" />
      <path
         style="opacity:0.1;color:#bebebe;fill:#ffffff;fill-opacity:1;fill-rule:nonzero;stroke:none;stroke-width:0;marker:none;visibility:visible;display:inline;overflow:visible;enable-background:accumulate"
         d="m 302.5,201 c -6.3883,0 -11.5,-5.1117 -11.5,-11.5 l 0,-1 c 0,6.3883 5.1117,11.5 11.5,11.5 l 35,0 c 6.3883,0 11.5,-5.1117 11.5,-11.5 l 0,1 c 0,6.3883 -5.1117,11.5 -11.5,11.5 l -35,0 z"
         id="path4296"
         inkscape:connector-curvature="0" />
      <path
         style="opacity:0.1;color:#bebebe;fill:#ffffff;fill-opacity:1;fill-rule:nonzero;stroke:none;stroke-width:0;marker:none;visibility:visible;display:inline;overflow:visible;enable-background:accumulate"
         d="m 310,119 c -9.4353,0 -17,-7.5647 -17,-17 l 0,-1 c 0,9.4353 7.5647,17 17,17 l 52,0 c 9.4353,0 17,-7.5647 17,-17 l 0,1 c 0,9.4353 -7.5647,17 -17,17 l -52,0 z"
         id="path4298"
         inkscape:connector-curvature="0" />
      <path
         style="opacity:0.1;color:#bebebe;fill:#ffffff;fill-opacity:1;fill-rule:nonzero;stroke:none;stroke-width:0;marker:none;visibility:visible;display:inline;overflow:visible;enable-background:accumulate"
         d="m 424,82 c -3.3413,0 -6,-2.658703 -6,-6 l 0,-1 c 0,3.341297 2.6587,6 6,6 l 16,0 c 3.3413,0 6,-2.658703 6,-6 l 0,1 c 0,3.341297 -2.6587,6 -6,6 l -16,0 z"
         id="path4300"
         inkscape:connector-curvature="0" />
      <path
         style="opacity:0.1;color:#bebebe;fill:#ffffff;fill-opacity:1;fill-rule:nonzero;stroke:none;stroke-width:0;marker:none;visibility:visible;display:inline;overflow:visible;enable-background:accumulate"
         d="m 422,122 c -2.2333,0 -4,-1.7667 -4,-4 l 0,-1 c 0,2.2333 1.7667,4 4,4 l 12,0 c 2.2333,0 4,-1.7667 4,-4 l 0,1 c 0,2.2333 -1.7667,4 -4,4 l -12,0 z"
         id="path4302"
         inkscape:connector-curvature="0" />
      <path
         style="opacity:0.1;color:#bebebe;fill:#ffffff;fill-opacity:1;fill-rule:nonzero;stroke:none;stroke-width:0;marker:none;visibility:visible;display:inline;overflow:visible;enable-background:accumulate"
         d="m 419,154.5 c -1.1253,0 -2,-0.8747 -2,-2 l 0,-1 c 0,1.1253 0.8747,2 2,2 l 10,0 c 1.1253,0 2,-0.8747 2,-2 l 0,1 c 0,1.1253 -0.8747,2 -2,2 l -10,0 z"
         id="path4304"
         inkscape:connector-curvature="0" />
    </g>
    <g
       inkscape:groupmode="layer"
       id="layer3"
       inkscape:label="Border"
       style="display:inline"
       sodipodi:insensitive="true">
      <path
         style="opacity:0.41000001;color:#bebebe;fill:#000000;fill-opacity:1;fill-rule:nonzero;stroke:none;stroke-width:0;marker:none;visibility:visible;display:inline;overflow:visible;enable-background:accumulate"
         d="m 422,101 c -2.77,0 -5,2.23 -5,5 l 0,12 c 0,2.77 2.23,5 5,5 l 12,0 c 2.77,0 5,-2.23 5,-5 l 0,-12 c 0,-2.77 -2.23,-5 -5,-5 l -12,0 z m 0,1 12,0 c 2.2333,0 4,1.7667 4,4 l 0,12 c 0,2.2333 -1.7667,4 -4,4 l -12,0 c -2.2333,0 -4,-1.7667 -4,-4 l 0,-12 c 0,-2.2333 1.7667,-4 4,-4 z"
         id="rect4099"
         inkscape:connector-curvature="0" />
      <path
         style="opacity:0.41000001;color:#bebebe;fill:#000000;fill-opacity:1;fill-rule:nonzero;stroke:none;stroke-width:0;marker:none;visibility:visible;display:inline;overflow:visible;enable-background:accumulate"
         d="m 424,53 c -3.878,0 -7,3.122 -7,7 l 0,16 c 0,3.878 3.122,7 7,7 l 16,0 c 3.878,0 7,-3.122 7,-7 l 0,-16 c 0,-3.878 -3.122,-7 -7,-7 l -16,0 z m 0,1 16,0 c 3.3413,0 6,2.658703 6,6 l 0,16 c 0,3.341297 -2.6587,6 -6,6 l -16,0 c -3.3413,0 -6,-2.658703 -6,-6 l 0,-16 c 0,-3.341297 2.6587,-6 6,-6 z"
         id="rect4151"
         inkscape:connector-curvature="0" />
      <path
         style="opacity:0.41000001;color:#bebebe;fill:#000000;fill-opacity:1;fill-rule:nonzero;stroke:none;stroke-width:0;marker:none;visibility:visible;display:inline;overflow:visible;enable-background:accumulate"
         d="m 419,140 c -1.662,0 -3,1.338 -3,3 l 0,10 c 0,1.662 1.338,3 3,3 l 10,0 c 1.662,0 3,-1.338 3,-3 l 0,-10 c 0,-1.662 -1.338,-3 -3,-3 l -10,0 z m 0,1 10,0 c 1.1253,0 2,0.8747 2,2 l 0,10 c 0,1.1253 -0.8747,2 -2,2 l -10,0 c -1.1253,0 -2,-0.8747 -2,-2 l 0,-10 c 0,-1.1253 0.8747,-2 2,-2 z"
         id="rect4095"
         inkscape:connector-curvature="0" />
      <path
         style="opacity:0.41000001;color:#bebebe;fill:#000000;fill-opacity:1;fill-rule:nonzero;stroke:none;stroke-width:0;marker:none;visibility:visible;display:inline;overflow:visible;enable-background:accumulate"
         d="m 300,223 c -4.986,0 -9,4.014 -9,9 l 0,24 c 0,4.986 4.014,9 9,9 l 24,0 c 4.986,0 9,-4.014 9,-9 l 0,-24 c 0,-4.986 -4.014,-9 -9,-9 l -24,0 z m 0,1 24,0 c 4.4493,0 8,3.5507 8,8 l 0,24 c 0,4.4493 -3.5507,8 -8,8 l -24,0 c -4.4493,0 -8,-3.5507 -8,-8 l 0,-24 c 0,-4.4493 3.5507,-8 8,-8 z"
         id="rect4783"
         inkscape:connector-curvature="0" />
      <path
         style="opacity:0.41000001;color:#bebebe;fill:#000000;fill-opacity:1;fill-rule:nonzero;stroke:none;stroke-width:0;marker:none;visibility:visible;display:inline;overflow:visible;enable-background:accumulate"
         d="m 302.5,142 c -6.925,0 -12.5,5.575 -12.5,12.5 l 0,35 c 0,6.925 5.575,12.5 12.5,12.5 l 35,0 c 6.925,0 12.5,-5.575 12.5,-12.5 l 0,-35 c 0,-6.925 -5.575,-12.5 -12.5,-12.5 l -35,0 z m 0,1 35,0 c 6.3883,0 11.5,5.1117 11.5,11.5 l 0,35 c 0,6.3883 -5.1117,11.5 -11.5,11.5 l -35,0 c -6.3883,0 -11.5,-5.1117 -11.5,-11.5 l 0,-35 c 0,-6.3883 5.1117,-11.5 11.5,-11.5 z"
         id="rect4515"
         inkscape:connector-curvature="0" />
      <path
         style="opacity:0.41000001;color:#bebebe;fill:#000000;fill-opacity:1;fill-rule:nonzero;stroke:none;stroke-width:0;marker:none;visibility:visible;display:inline;overflow:visible;enable-background:accumulate"
         d="m 310,32 c -9.972,0 -18,8.028 -18,18 l 0,52 c 0,9.972 8.028,18 18,18 l 52,0 c 9.972,0 18,-8.028 18,-18 l 0,-52 c 0,-9.972 -8.028,-18 -18,-18 l -52,0 z m 0,1 52,0 c 9.4353,0 17,7.564703 17,17 l 0,52 c 0,9.4353 -7.5647,17 -17,17 l -52,0 c -9.4353,0 -17,-7.5647 -17,-17 l 0,-52 c 0,-9.435297 7.5647,-17 17,-17 z"
         id="rect4511"
         inkscape:connector-curvature="0" />
      <path
         style="opacity:0.41000001;color:#bebebe;fill:#000000;fill-opacity:1;fill-rule:nonzero;stroke:none;stroke-width:0;marker:none;visibility:visible;display:inline;overflow:visible;enable-background:accumulate"
         d="M 84,46 C 56.3,46 34,68.3 34,96 l 0,120 c 0,27.7 22.3,50 50,50 l 120,0 c 27.7,0 50,-22.3 50,-50 L 254,96 C 254,68.3 231.7,46 204,46 L 84,46 z m 0,1 120,0 c 27.1633,0 49,21.836703 49,49 l 0,120 c 0,27.1633 -21.8367,49 -49,49 L 84,265 C 56.836703,265 35,243.1633 35,216 L 35,96 C 35,68.836703 56.836703,47 84,47 z"
         id="rect4040"
         inkscape:connector-curvature="0" />
    </g>
  </g>
</svg>
