<?xml version="1.0" encoding="UTF-8" standalone="no"?>
<!-- Created with Inkscape (http://www.inkscape.org/) -->

<svg
   xmlns:dc="http://purl.org/dc/elements/1.1/"
   xmlns:cc="http://creativecommons.org/ns#"
   xmlns:rdf="http://www.w3.org/1999/02/22-rdf-syntax-ns#"
   xmlns:svg="http://www.w3.org/2000/svg"
   xmlns="http://www.w3.org/2000/svg"
   xmlns:xlink="http://www.w3.org/1999/xlink"
   xmlns:sodipodi="http://sodipodi.sourceforge.net/DTD/sodipodi-0.dtd"
   xmlns:inkscape="http://www.inkscape.org/namespaces/inkscape"
   inkscape:export-ydpi="90.000000"
   inkscape:export-xdpi="90.000000"
   width="480"
   height="300"
   id="svg11300"
   sodipodi:version="0.32"
   inkscape:version="0.48.4 r9939"
   sodipodi:docname="astahc.svg"
   inkscape:output_extension="org.inkscape.output.svg.inkscape"
   version="1.0"
   style="display:inline;enable-background:new"
   inkscape:export-filename="/home/sam/moka-next-template.png">
  <sodipodi:namedview
     stroke="#ef2929"
     fill="#f57900"
     id="base"
     pagecolor="#777777"
     bordercolor="#666666"
     borderopacity="0.25490196"
     inkscape:pageopacity="0"
     inkscape:pageshadow="2"
     inkscape:zoom="1"
     inkscape:cx="232"
     inkscape:cy="154.96533"
     inkscape:current-layer="layer7"
     showgrid="false"
     inkscape:grid-bbox="true"
     inkscape:document-units="px"
     inkscape:showpageshadow="false"
     inkscape:window-width="1364"
     inkscape:window-height="700"
     inkscape:window-x="0"
     inkscape:window-y="28"
     width="400px"
     height="300px"
     inkscape:snap-nodes="true"
     inkscape:snap-bbox="true"
     gridtolerance="10000"
     inkscape:object-nodes="true"
     inkscape:snap-grids="true"
     showguides="true"
     inkscape:guide-bbox="true"
     inkscape:window-maximized="1"
     inkscape:bbox-nodes="true"
     inkscape:bbox-paths="true"
     inkscape:snap-bbox-edge-midpoints="true"
     inkscape:snap-bbox-midpoints="true">
    <inkscape:grid
       spacingy="1px"
       spacingx="1px"
       id="grid5883"
       type="xygrid"
       enabled="true"
       visible="true"
       empspacing="4"
       snapvisiblegridlinesonly="true"
       dotted="false"
       color="#000000"
       opacity="0.1254902"
       empcolor="#203ef3"
       empopacity="0.36470588" />
    <inkscape:grid
       type="xygrid"
       id="grid11592"
       empspacing="8"
       visible="true"
       enabled="false"
       spacingx="0.5px"
       spacingy="0.5px"
       color="#ff0000"
       opacity="0.1254902"
       empcolor="#ff0000"
       empopacity="0.25098039"
       snapvisiblegridlinesonly="true"
       dotted="true" />
  </sodipodi:namedview>
  <defs
     id="defs3">
    <linearGradient
       inkscape:collect="always"
       xlink:href="#outerBackgroundGradient-08"
       id="linearGradient6279"
       gradientUnits="userSpaceOnUse"
       gradientTransform="matrix(0,-1,1,0,-12,300)"
       x1="35"
       y1="156"
       x2="253"
       y2="156" />
    <linearGradient
       inkscape:collect="always"
       xlink:href="#outerBackgroundGradient-08"
       id="linearGradient6281"
       gradientUnits="userSpaceOnUse"
       gradientTransform="matrix(0,-1,1,0,276,572)"
       x1="417"
       y1="148"
       x2="431"
       y2="148" />
    <linearGradient
       inkscape:collect="always"
       xlink:href="#outerBackgroundGradient-08"
       id="linearGradient6283"
       gradientUnits="userSpaceOnUse"
       gradientTransform="matrix(0,-1,1,0,316,540)"
       x1="418"
       y1="112"
       x2="438"
       y2="112" />
    <linearGradient
       inkscape:collect="always"
       xlink:href="#outerBackgroundGradient-08"
       id="linearGradient6285"
       gradientUnits="userSpaceOnUse"
       gradientTransform="matrix(0,-1,1,0,364,500)"
       x1="418"
       y1="68"
       x2="446"
       y2="68" />
    <linearGradient
       inkscape:collect="always"
       xlink:href="#outerBackgroundGradient-08"
       id="linearGradient6287"
       gradientUnits="userSpaceOnUse"
       gradientTransform="matrix(0,-1,1,0,68,556)"
       x1="292"
       y1="244"
       x2="332"
       y2="244" />
    <linearGradient
       inkscape:collect="always"
       xlink:href="#outerBackgroundGradient-08"
       id="linearGradient6289"
       gradientUnits="userSpaceOnUse"
       gradientTransform="matrix(0,-1,1,0,260,412)"
       x1="293"
       y1="76"
       x2="379"
       y2="76" />
    <linearGradient
       inkscape:collect="always"
       xlink:href="#outerBackgroundGradient-08"
       id="linearGradient6291"
       gradientUnits="userSpaceOnUse"
       gradientTransform="matrix(0,-1,1,0,148,492)"
       x1="291"
       y1="172"
       x2="349"
       y2="172" />
    <linearGradient
       id="outerBackgroundGradient-08">
      <stop
         style="stop-color:#f07620;stop-opacity:1;"
         offset="0"
         id="stop3864-8-6-56" />
      <stop
         style="stop-color:#ffd452;stop-opacity:1;"
         offset="1"
         id="stop3866-9-1-97" />
    </linearGradient>
  </defs>
  <metadata
     id="metadata4">
    <rdf:RDF>
      <cc:Work
         rdf:about="">
        <dc:format>image/svg+xml</dc:format>
        <dc:type
           rdf:resource="http://purl.org/dc/dcmitype/StillImage" />
        <dc:creator>
          <cc:Agent>
            <dc:title>Sam Hewitt</dc:title>
          </cc:Agent>
        </dc:creator>
        <dc:source />
        <cc:license
           rdf:resource="" />
        <dc:title />
        <dc:subject>
          <rdf:Bag />
        </dc:subject>
        <dc:date />
        <dc:rights>
          <cc:Agent>
            <dc:title />
          </cc:Agent>
        </dc:rights>
        <dc:publisher>
          <cc:Agent>
            <dc:title />
          </cc:Agent>
        </dc:publisher>
        <dc:identifier />
        <dc:relation />
        <dc:language />
        <dc:coverage />
        <dc:description />
        <dc:contributor>
          <cc:Agent>
            <dc:title />
          </cc:Agent>
        </dc:contributor>
      </cc:Work>
      <cc:Work
         rdf:about="">
        <dc:format>image/svg+xml</dc:format>
        <dc:type
           rdf:resource="http://purl.org/dc/dcmitype/StillImage" />
      </cc:Work>
    </rdf:RDF>
  </metadata>
  <g
     style="display:inline"
     inkscape:groupmode="layer"
     inkscape:label="Icon"
     id="layer1">
    <g
       style="display:none"
       inkscape:label="Baseplate"
       id="layer7"
       inkscape:groupmode="layer"
       sodipodi:insensitive="true">
      <text
         y="19.745117"
         xml:space="preserve"
         x="15.006836"
         style="font-style:normal;font-variant:normal;font-weight:normal;font-stretch:normal;line-height:0%;font-family:'DejaVu Sans';-inkscape-font-specification:'DejaVu Sans';display:inline;fill:#000000;fill-opacity:1;stroke:none;enable-background:new"
         inkscape:label="context"
         id="context"><tspan
           style="font-style:normal;font-variant:normal;font-weight:normal;font-stretch:normal;font-size:18px;line-height:1.25;font-family:'DejaVu Sans';-inkscape-font-specification:'DejaVu Sans'"
           y="19.745117"
           x="15.006836"
           sodipodi:role="line"
           id="tspan3933">apps</tspan></text>
      <text
         y="19.745117"
         xml:space="preserve"
         x="122.48828"
         style="font-style:normal;font-variant:normal;font-weight:bold;font-stretch:normal;line-height:0%;font-family:'DejaVu Sans';-inkscape-font-specification:'DejaVu Sans Bold';text-align:start;writing-mode:lr-tb;text-anchor:start;display:inline;fill:#000000;fill-opacity:1;stroke:none;enable-background:new"
         inkscape:label="icon-name"
         id="icon-name"><tspan
           style="font-style:normal;font-variant:normal;font-weight:bold;font-stretch:normal;font-size:18px;line-height:1.25;font-family:'DejaVu Sans';-inkscape-font-specification:'DejaVu Sans Bold'"
           y="19.745117"
           x="122.48828"
           sodipodi:role="line"
           id="tspan3937">astahc</tspan></text>
      <rect
         style="fill:#eeeeec;fill-opacity:1;fill-rule:nonzero;stroke:none;stroke-width:2;marker:none;visibility:visible;display:inline;overflow:visible;enable-background:accumulate"
         id="rect16x16"
         width="16"
         height="16"
         x="416"
         y="140"
         inkscape:label="16x16" />
      <rect
         style="fill:#d4d4d4;fill-opacity:1;fill-rule:nonzero;stroke:none;stroke-width:2;marker:none;visibility:visible;display:inline;overflow:visible;enable-background:accumulate"
         id="rect24x24"
         width="24"
         height="24"
         x="416"
         y="100"
         inkscape:label="24x24" />
      <rect
         style="fill:#eeeeec;fill-opacity:1;fill-rule:nonzero;stroke:none;stroke-width:2;marker:none;visibility:visible;display:inline;overflow:visible;enable-background:accumulate"
         id="rect32x32"
         width="32"
         height="32"
         x="416"
         y="52"
         inkscape:label="32x32" />
      <rect
         inkscape:label="22x22"
         y="101"
         x="417"
         height="22"
         width="22"
         id="rect22x22"
         style="fill:#eeeeec;fill-opacity:1;fill-rule:nonzero;stroke:none;stroke-width:2;marker:none;visibility:visible;display:inline;overflow:visible;enable-background:accumulate" />
      <rect
         inkscape:label="48x48"
         y="220"
         x="288"
         height="48"
         width="48"
         id="rect48x48"
         style="fill:#eeeeec;fill-opacity:1;fill-rule:nonzero;stroke:none;stroke-width:2;marker:none;visibility:visible;display:inline;overflow:visible;enable-background:accumulate" />
      <rect
         style="fill:#eeeeec;fill-opacity:1;fill-rule:nonzero;stroke:none;stroke-width:2;marker:none;visibility:visible;display:inline;overflow:visible;enable-background:accumulate"
         id="rect256x256"
         width="256"
         height="256"
         x="16"
         y="28"
         inkscape:label="256x256" />
      <rect
         style="fill:#eeeeec;fill-opacity:1;fill-rule:nonzero;stroke:none;stroke-width:2;marker:none;visibility:visible;display:inline;overflow:visible;enable-background:accumulate"
         id="rect64x64"
         width="64"
         height="64"
         x="288"
         y="140"
         inkscape:label="64x64" />
      <rect
         style="fill:#eeeeec;fill-opacity:1;fill-rule:nonzero;stroke:none;stroke-width:2;marker:none;visibility:visible;display:inline;overflow:visible;enable-background:accumulate"
         id="rect96x96"
         width="96"
         height="96"
         x="288"
         y="28"
         inkscape:label="96x96" />
    </g>
    <g
       inkscape:groupmode="layer"
       id="layer4"
       inkscape:label="Shadow"
       style="display:inline"
       sodipodi:insensitive="true">
      <rect
         ry="50"
         y="47"
         x="34"
         height="220"
         width="220"
         id="rect4114"
         style="opacity:0.1;color:#bebebe;fill:#000000;fill-opacity:1;fill-rule:nonzero;stroke:none;stroke-width:0;marker:none;visibility:visible;display:inline;overflow:visible;enable-background:accumulate" />
      <rect
         style="opacity:0.1;color:#bebebe;fill:#000000;fill-opacity:1;fill-rule:nonzero;stroke:none;stroke-width:0;marker:none;visibility:visible;display:inline;overflow:visible;enable-background:accumulate"
         id="rect4120"
         width="30"
         height="30"
         x="417"
         y="54"
         ry="7" />
      <rect
         transform="scale(1,-1)"
         ry="9"
         y="-266"
         x="291"
         height="42"
         width="42"
         id="rect4122"
         style="opacity:0.1;color:#bebebe;fill:#000000;fill-opacity:1;fill-rule:nonzero;stroke:none;stroke-width:0;marker:none;visibility:visible;display:inline;overflow:visible;enable-background:accumulate" />
      <rect
         style="opacity:0.1;color:#bebebe;fill:#000000;fill-opacity:1;fill-rule:nonzero;stroke:none;stroke-width:0;marker:none;visibility:visible;display:inline;overflow:visible;enable-background:accumulate"
         id="rect4124"
         width="88"
         height="88"
         x="292"
         y="33"
         ry="18" />
      <rect
         ry="12.5"
         y="143"
         x="290"
         height="60"
         width="60"
         id="rect4126"
         style="opacity:0.1;color:#bebebe;fill:#000000;fill-opacity:1;fill-rule:nonzero;stroke:none;stroke-width:0;marker:none;visibility:visible;display:inline;overflow:visible;enable-background:accumulate" />
      <path
         id="path4268"
         d="m 422,101 c -2.77,0 -5,2.23 -5,5 l 0,12 c 0,2.77 2.23,5 5,5 l 12,0 c 2.77,0 5,-2.23 5,-5 l 0,-12 c 0,-2.77 -2.23,-5 -5,-5 z"
         style="opacity:0.1;color:#bebebe;fill:#000000;fill-opacity:1;fill-rule:nonzero;stroke:none;stroke-width:0;marker:none;visibility:visible;display:inline;overflow:visible;enable-background:accumulate"
         inkscape:connector-curvature="0"
         sodipodi:nodetypes="sssssssss" />
      <path
         id="path4270"
         d="m 419,140 c -1.662,0 -3,1.338 -3,3 l 0,10 c 0,1.662 1.338,3 3,3 l 10,0 c 1.662,0 3,-1.338 3,-3 l 0,-10 c 0,-1.662 -1.338,-3 -3,-3 z"
         style="opacity:0.1;color:#bebebe;fill:#000000;fill-opacity:1;fill-rule:nonzero;stroke:none;stroke-width:0;marker:none;visibility:visible;display:inline;overflow:visible;enable-background:accumulate"
         inkscape:connector-curvature="0"
         sodipodi:nodetypes="sssssssss" />
    </g>
    <g
       inkscape:groupmode="layer"
       id="layer2"
       inkscape:label="Background"
       style="display:inline">
      <path
         style="color:#bebebe;fill:url(#linearGradient6279);fill-opacity:1.0;fill-rule:nonzero;stroke:none;stroke-width:2;marker:none;visibility:visible;display:inline;overflow:visible;enable-background:accumulate"
         d="M 84 46.5 C 56.568735 46.5 34.5 68.568732 34.5 96 L 34.5 216 C 34.5 243.43127 56.568735 265.5 84 265.5 L 204 265.5 C 231.43127 265.5 253.5 243.43127 253.5 216 L 253.5 96 C 253.5 68.568732 231.43127 46.5 204 46.5 L 84 46.5 z "
         id="path4200" />
      <path
         style="color:#bebebe;fill:url(#linearGradient6281);fill-opacity:1.0;fill-rule:nonzero;stroke:none;stroke-width:2;marker:none;visibility:visible;display:inline;overflow:visible;enable-background:accumulate"
         d="M 419 140.5 C 417.6156 140.5 416.5 141.6156 416.5 143 L 416.5 153 C 416.5 154.3844 417.6156 155.5 419 155.5 L 429 155.5 C 430.3844 155.5 431.5 154.3844 431.5 153 L 431.5 143 C 431.5 141.6156 430.3844 140.5 429 140.5 L 419 140.5 z "
         id="path4202" />
      <path
         style="color:#bebebe;fill:url(#linearGradient6283);fill-opacity:1.0;fill-rule:nonzero;stroke:none;stroke-width:2;marker:none;visibility:visible;display:inline;overflow:visible;enable-background:accumulate"
         d="M 422 101.5 C 419.50301 101.5 417.5 103.50301 417.5 106 L 417.5 118 C 417.5 120.49699 419.50301 122.5 422 122.5 L 434 122.5 C 436.49699 122.5 438.5 120.49699 438.5 118 L 438.5 106 C 438.5 103.50301 436.49699 101.5 434 101.5 L 422 101.5 z "
         id="path4204" />
      <path
         style="color:#bebebe;fill:url(#linearGradient6285);fill-opacity:1.0;fill-rule:nonzero;stroke:none;stroke-width:2;marker:none;visibility:visible;display:inline;overflow:visible;enable-background:accumulate"
         d="M 424 53.5 C 420.39346 53.5 417.5 56.393464 417.5 60 L 417.5 76 C 417.5 79.606536 420.39346 82.5 424 82.5 L 440 82.5 C 443.60654 82.5 446.5 79.606536 446.5 76 L 446.5 60 C 446.5 56.393464 443.60654 53.5 440 53.5 L 424 53.5 z "
         id="path4206" />
      <path
         style="color:#bebebe;fill:url(#linearGradient6287);fill-opacity:1.0;fill-rule:nonzero;stroke:none;stroke-width:2;marker:none;visibility:visible;display:inline;overflow:visible;enable-background:accumulate"
         d="M 300 223.5 C 295.28469 223.5 291.5 227.28469 291.5 232 L 291.5 256 C 291.5 260.71531 295.28469 264.5 300 264.5 L 324 264.5 C 328.71531 264.5 332.5 260.71531 332.5 256 L 332.5 232 C 332.5 227.28469 328.71531 223.5 324 223.5 L 300 223.5 z "
         id="path4208" />
      <path
         style="color:#bebebe;fill:url(#linearGradient6289);fill-opacity:1.0;fill-rule:nonzero;stroke:none;stroke-width:2;marker:none;visibility:visible;display:inline;overflow:visible;enable-background:accumulate"
         d="M 310 32.5 C 300.29745 32.5 292.5 40.297452 292.5 50 L 292.5 102 C 292.5 111.70255 300.29745 119.5 310 119.5 L 362 119.5 C 371.70255 119.5 379.5 111.70255 379.5 102 L 379.5 50 C 379.5 40.297452 371.70255 32.5 362 32.5 L 310 32.5 z "
         id="path4210" />
      <path
         style="color:#bebebe;fill:url(#linearGradient6291);fill-opacity:1.0;fill-rule:nonzero;stroke:none;stroke-width:2;marker:none;visibility:visible;display:inline;overflow:visible;enable-background:accumulate"
         d="M 302.5 142.5 C 295.84498 142.5 290.5 147.84498 290.5 154.5 L 290.5 189.5 C 290.5 196.15502 295.84498 201.5 302.5 201.5 L 337.5 201.5 C 344.15502 201.5 349.5 196.15502 349.5 189.5 L 349.5 154.5 C 349.5 147.84498 344.15502 142.5 337.5 142.5 L 302.5 142.5 z "
         id="path4212" />
    </g>
    <g
       inkscape:groupmode="layer"
       id="layer6"
       inkscape:label="Symbols"
       style="display:inline">
      <path
         sodipodi:nodetypes="ccccccccccccccccccccssssccssscsssssccscccccscccsssssc"
         inkscape:connector-curvature="0"
         id="path3101"
         d="m 429.78894,59.608454 c -0.99916,2.331409 -0.2407,3.746851 0.0283,4.733042 l 1.57978,-0.210427 c -0.33406,-1.224867 -0.91037,-2.632915 -0.1005,-4.522615 z m 12.0603,3.9196 c -2.61306,0 -5.12563,0.502511 -8.34171,1.708538 l 1.10553,1.005027 c 1.60804,-0.804018 4.22111,-1.708541 7.23618,-1.708541 z m -20,0.90452 0,1.306536 c 1.00503,0.301509 3.21608,0.603009 5.22613,0.603009 l 0.20101,-1.105527 c -2.00319,-0.07809 -3.51759,-0.301509 -5.42714,-0.804018 z m 11.76822,3.501881 -1.31595,1.221737 c 3.51758,1.708545 6.33165,4.1206 7.9397,7.336691 l 1.20603,-1.608046 c -1.59232,-2.388473 -4.0201,-4.824118 -7.82977,-6.950382 z m -5.51194,0.474246 c -0.20191,0.0045 -0.40975,0.01973 -0.62814,0.044 -0.61738,0.06845 -1.08985,0.210318 -1.60804,0.402009 -0.35128,0.129954 -0.60749,0.255973 -1.00503,0.502518 -0.39753,0.246546 -0.80402,0.603009 -0.80402,0.603009 l 1.20604,1.206037 c 0,0 0.57741,-0.424664 0.90453,-0.603019 0.32711,-0.178354 0.76628,-0.2539 1.08982,-0.292081 0.83462,-0.09852 1.63931,0.06991 2.02574,0.392581 0.41215,0.3441 0.58288,0.588182 0.60302,1.507537 -0.37155,-0.01509 -0.73774,0.01073 -1.15578,0.022 -0.37358,0.01009 -1.14507,0.02782 -1.45728,0.07855 -0.83175,0.134973 -1.7209,0.264455 -2.58793,0.829146 -0.462,0.300891 -0.84687,0.767227 -1.04586,1.281409 -0.22402,0.578836 -0.27821,1.264609 -0.10051,1.8593 0.18501,0.619118 0.59968,1.221463 1.1495,1.560927 1.05656,0.418355 2.4491,0.521355 3.45164,0.172736 0.55898,-0.201718 0.99315,-0.381291 1.49811,-0.967336 0.0818,-0.09497 0.14579,-0.246527 0.24811,-0.414573 l 0,1.407037 2.11056,0 0,-5.728646 c -0.0234,-1.250545 -0.52092,-2.375754 -1.40703,-3.115582 -0.86351,-0.582663 -1.6125,-0.767645 -2.48744,-0.747481 z m 1.57349,5.332918 c 0.0401,3e-4 0.074,-6.09e-4 0.11307,0 -9e-4,0.01273 -0.003,0.02418 -0.003,0.03773 0,0 0.11324,1.639273 -0.78831,2.204773 -0.90156,0.5655 -1.29401,0.5746 -1.95352,0.461682 -0.45999,-0.07873 -0.9918,-0.328891 -1.17776,-0.756909 -0.14926,-0.343528 -0.0314,-0.811737 0.20099,-1.105528 0.36292,-0.458909 1.03731,-0.57479 1.60804,-0.703518 0.52314,-0.117982 1.3274,-0.142563 2.00063,-0.138191 z"
         style="font-size:medium;font-style:normal;font-variant:normal;font-weight:normal;font-stretch:normal;text-indent:0;text-align:start;text-decoration:none;line-height:normal;letter-spacing:normal;word-spacing:normal;text-transform:none;direction:ltr;block-progression:tb;writing-mode:lr-tb;text-anchor:start;baseline-shift:baseline;opacity:0.2;color:#000000;fill:#000000;fill-opacity:1;stroke:none;stroke-width:16;marker:none;visibility:visible;display:inline;overflow:visible;enable-background:accumulate;font-family:Sans;-inkscape-font-specification:Sans" />
      <path
         style="font-size:medium;font-style:normal;font-variant:normal;font-weight:normal;font-stretch:normal;text-indent:0;text-align:start;text-decoration:none;line-height:normal;letter-spacing:normal;word-spacing:normal;text-transform:none;direction:ltr;block-progression:tb;writing-mode:lr-tb;text-anchor:start;baseline-shift:baseline;opacity:0.2;color:#000000;fill:#000000;fill-opacity:1;stroke:none;stroke-width:16;marker:none;visibility:visible;display:inline;overflow:visible;enable-background:accumulate;font-family:Sans;-inkscape-font-specification:Sans"
         d="m 426.45231,106.12605 c -0.69942,1.63199 -0.16849,2.6228 0.0198,3.31313 l 1.10584,-0.1473 c -0.23385,-0.8574 -0.63726,-1.84304 -0.0703,-3.16583 z m 8.44221,2.74372 c -1.82914,0 -3.58795,0.35176 -5.8392,1.19598 l 0.77387,0.70351 c 1.12563,-0.5628 2.95478,-1.19597 5.06533,-1.19597 z m -14,0.63316 0,0.91458 c 0.70351,0.21105 2.25126,0.4221 3.65829,0.4221 l 0.14071,-0.77386 c -1.40223,-0.0547 -2.46231,-0.21106 -3.799,-0.56282 z m 8.23775,2.45132 -0.92117,0.85522 c 2.46232,1.19597 4.43216,2.88442 5.55779,5.13569 l 0.84422,-1.12565 c -1.11462,-1.67192 -2.81407,-3.37688 -5.48084,-4.86526 z m -3.85835,0.33198 c -0.14134,0.004 -0.28683,0.0138 -0.4397,0.0308 -0.43217,0.048 -0.7629,0.14721 -1.12563,0.2814 -0.2459,0.091 -0.42524,0.17918 -0.70352,0.35176 -0.27827,0.17258 -0.56281,0.4221 -0.56281,0.4221 l 0.84422,0.84423 c 0,0 0.40418,-0.29726 0.63317,-0.42211 0.22897,-0.12484 0.5364,-0.17773 0.76288,-0.20446 0.58423,-0.069 1.14752,0.0489 1.41802,0.27481 0.2885,0.24087 0.40801,0.41172 0.42211,1.05528 -0.26008,-0.0106 -0.51642,0.008 -0.80905,0.0154 -0.2615,0.007 -0.80154,0.0195 -1.02009,0.055 -0.58223,0.0945 -1.20463,0.18511 -1.81156,0.5804 -0.3234,0.21062 -0.5928,0.53706 -0.73209,0.89698 -0.15682,0.40519 -0.19475,0.88523 -0.0704,1.30152 0.1295,0.43338 0.41977,0.85502 0.80465,1.09265 0.73959,0.29284 1.71437,0.36494 2.41614,0.12091 0.39128,-0.1412 0.6952,-0.26691 1.04868,-0.67713 0.0572,-0.0665 0.10205,-0.17257 0.17368,-0.2902 l 0,0.98492 1.47738,0 0,-4.01005 c -0.0164,-0.87539 -0.36464,-1.66303 -0.98492,-2.18091 -0.60445,-0.40787 -1.12875,-0.53735 -1.7412,-0.52324 z m 1.10144,3.73303 c 0.0281,2.1e-4 0.0518,-4.2e-4 0.0792,0 -6.4e-4,0.009 -0.002,0.0169 -0.002,0.0264 0,0 0.0793,1.14749 -0.55183,1.54334 -0.63109,0.39585 -0.9058,0.40222 -1.36746,0.32318 -0.32199,-0.0551 -0.69426,-0.23023 -0.82443,-0.52984 -0.10448,-0.24047 -0.022,-0.56821 0.1407,-0.77387 0.25404,-0.32123 0.72611,-0.40235 1.12563,-0.49246 0.36619,-0.0826 0.92918,-0.0998 1.40044,-0.0967 z"
         id="path3103"
         inkscape:connector-curvature="0"
         sodipodi:nodetypes="ccccccccccccccccccccssssccssscsssssccscccccscccsssssc" />
      <path
         sodipodi:nodetypes="ccccccccccccccccccccssssccssscsssssccscccccscccsssssc"
         inkscape:connector-curvature="0"
         id="path3105"
         d="m 422.76383,142.8541 c -0.5995,1.39884 -0.14443,2.24811 0.017,2.83982 l 0.94788,-0.12625 c -0.20044,-0.73492 -0.54623,-1.57975 -0.0603,-2.71357 z M 430,145.20586 c -1.56783,0 -3.07538,0.3015 -5.00502,1.02512 l 0.66332,0.60302 c 0.96483,-0.48241 2.53267,-1.02513 4.3417,-1.02513 z m -12,0.54271 0,0.78392 c 0.60301,0.18091 1.92965,0.36181 3.13568,0.36181 l 0.1206,-0.66332 c -1.20191,-0.0469 -2.11054,-0.18091 -3.25628,-0.48241 z m 7.06093,2.10113 -0.78957,0.73304 c 2.11055,1.02513 3.79899,2.47236 4.76382,4.40202 l 0.72361,-0.96483 c -0.95538,-1.43309 -2.41206,-2.89447 -4.69786,-4.17023 z m -3.30716,0.28455 c -0.12114,0.003 -0.24585,0.0118 -0.37689,0.0264 -0.37042,0.0411 -0.65391,0.12619 -0.96482,0.2412 -0.21077,0.078 -0.36448,0.15358 -0.603,0.30151 -0.23854,0.14793 -0.48242,0.36181 -0.48242,0.36181 l 0.72361,0.72362 c 0,0 0.34644,-0.2548 0.54272,-0.36181 0.19626,-0.10701 0.45977,-0.15234 0.65389,-0.17525 0.50078,-0.0591 0.98359,0.042 1.21545,0.23555 0.24729,0.20646 0.34973,0.35291 0.36181,0.90452 -0.22293,-0.009 -0.44265,0.006 -0.69347,0.0132 -0.22415,0.006 -0.68704,0.0167 -0.87437,0.0471 -0.49905,0.081 -1.03254,0.15867 -1.55276,0.49749 -0.2772,0.18053 -0.50812,0.46034 -0.62751,0.76884 -0.13441,0.34731 -0.16692,0.75877 -0.0603,1.11559 0.11101,0.37147 0.3598,0.73288 0.6897,0.93656 0.63394,0.25101 1.46946,0.31281 2.07098,0.10364 0.33539,-0.12104 0.59589,-0.22878 0.89887,-0.5804 0.0491,-0.057 0.0875,-0.14792 0.14887,-0.24875 l 0,0.84422 1.26633,0 0,-3.43719 c -0.014,-0.75033 -0.31257,-1.42545 -0.84423,-1.86935 -0.5181,-0.3496 -0.96749,-0.46059 -1.49245,-0.44849 z m 0.9441,3.19975 c 0.0241,1.8e-4 0.0444,-3.7e-4 0.0679,0 -5.5e-4,0.008 -0.002,0.0145 -0.002,0.0226 0,0 0.068,0.98357 -0.47299,1.32287 -0.54093,0.3393 -0.7764,0.34476 -1.1721,0.27701 -0.27601,-0.0472 -0.59508,-0.19734 -0.70666,-0.45415 -0.0896,-0.20612 -0.0188,-0.48704 0.1206,-0.66332 0.21775,-0.27534 0.62238,-0.34487 0.96482,-0.42211 0.31389,-0.0708 0.79644,-0.0855 1.20037,-0.0829 z"
         style="font-size:medium;font-style:normal;font-variant:normal;font-weight:normal;font-stretch:normal;text-indent:0;text-align:start;text-decoration:none;line-height:normal;letter-spacing:normal;word-spacing:normal;text-transform:none;direction:ltr;block-progression:tb;writing-mode:lr-tb;text-anchor:start;baseline-shift:baseline;opacity:0.2;color:#000000;fill:#000000;fill-opacity:1;stroke:none;stroke-width:16;marker:none;visibility:visible;display:inline;overflow:visible;enable-background:accumulate;font-family:Sans;-inkscape-font-specification:Sans" />
      <path
         sodipodi:nodetypes="ccccccccccccccccccccssssccssscsssssccscccccscccsssssc"
         inkscape:connector-curvature="0"
         id="path3107"
         d="m 127.31156,79.865269 c -7.99339,18.65126 -1.92556,29.974801 0.22613,37.864321 l 12.63819,-1.68341 c -2.67244,-9.79891 -7.28299,-21.063311 -0.80402,-36.180911 z m 96.48241,31.356791 c -20.90452,0 -41.00503,4.0201 -66.73367,13.66834 l 8.84422,8.0402 c 12.86432,-6.43216 33.76885,-13.66834 57.88945,-13.66834 z m -159.999999,7.23618 0,10.45226 c 8.040201,2.41206 25.728643,4.82412 41.809039,4.82412 l 1.60804,-8.84422 c -16.025446,-0.62472 -28.140697,-2.41206 -43.417079,-6.43216 z m 94.145729,28.01507 -10.52764,9.77387 c 28.1407,13.66834 50.65327,32.96482 63.51759,58.69347 l 9.64824,-12.86432 c -12.73853,-19.1078 -32.16081,-38.59297 -62.63819,-55.60302 z m -44.09548,3.79397 c -1.61527,0.0372 -3.27804,0.15816 -5.02512,0.35176 -4.93902,0.5473 -8.7188,1.68255 -12.864326,3.21608 -2.810284,1.03959 -4.859899,2.04774 -8.040201,4.0201 -3.180302,1.97236 -6.432161,4.82412 -6.432161,4.82412 l 9.648241,9.64824 c 0,0 4.619278,-3.3973 7.236181,-4.82412 2.616906,-1.42681 6.130356,-2.03119 8.718596,-2.33668 6.67706,-0.78808 13.11459,0.55963 16.20603,3.1407 3.2971,2.75278 4.66302,4.70543 4.82412,12.0603 -2.97234,-0.12067 -5.90199,0.0859 -9.24623,0.17588 -2.98872,0.0804 -9.16055,0.22281 -11.6583,0.62814 -6.65396,1.07979 -13.767208,2.11563 -20.703512,6.63317 -3.695983,2.40716 -6.774866,6.13782 -8.366834,10.25126 -1.792146,4.63066 -2.225662,10.11688 -0.80402,14.87437 1.480053,4.95296 4.797432,9.7717 9.195979,12.48743 8.452486,3.34683 19.592787,4.17088 27.613067,1.38191 4.47185,-1.61374 7.94516,-3.05038 11.98492,-7.73869 0.65471,-0.75981 1.16631,-1.97224 1.98493,-3.31658 l 0,11.25628 16.88442,0 0,-45.82915 c -0.18696,-10.00434 -4.16744,-19.00607 -11.25628,-24.92462 -6.90809,-4.66135 -12.9,-6.14119 -19.8995,-5.9799 z m 12.58794,42.66332 c 0.32096,0.002 0.59169,-0.004 0.90452,0 -0.007,0.10182 -0.0197,0.19326 -0.0251,0.30151 0,0 0.90597,13.11418 -6.30654,17.63819 -7.2125,4.524 -10.35202,4.59677 -15.62814,3.69346 -3.67991,-0.63001 -7.934435,-2.63113 -9.422146,-6.05527 -1.194038,-2.74822 -0.250618,-6.49394 1.60804,-8.84422 2.903316,-3.67126 8.298466,-4.59838 12.864326,-5.62814 4.18508,-0.94389 10.61913,-1.1405 16.00502,-1.10553 z"
         style="font-size:medium;font-style:normal;font-variant:normal;font-weight:normal;font-stretch:normal;text-indent:0;text-align:start;text-decoration:none;line-height:normal;letter-spacing:normal;word-spacing:normal;text-transform:none;direction:ltr;block-progression:tb;writing-mode:lr-tb;text-anchor:start;baseline-shift:baseline;opacity:0.2;color:#000000;fill:#000000;fill-opacity:1;stroke:none;stroke-width:16;marker:none;visibility:visible;display:inline;overflow:visible;enable-background:accumulate;font-family:Sans;-inkscape-font-specification:Sans" />
      <path
         style="font-size:medium;font-style:normal;font-variant:normal;font-weight:normal;font-stretch:normal;text-indent:0;text-align:start;text-decoration:none;line-height:normal;letter-spacing:normal;word-spacing:normal;text-transform:none;direction:ltr;block-progression:tb;writing-mode:lr-tb;text-anchor:start;baseline-shift:baseline;opacity:0.2;color:#000000;fill:#000000;fill-opacity:1;stroke:none;stroke-width:16;marker:none;visibility:visible;display:inline;overflow:visible;enable-background:accumulate;font-family:Sans;-inkscape-font-specification:Sans"
         d="m 329.36682,46.824707 c -2.99752,6.994227 -0.72207,11.240555 0.0848,14.199127 l 4.73933,-0.631282 c -1.00216,-3.6746 -2.73112,-7.898745 -0.30151,-13.567845 z m 36.18091,11.7588 c -7.8392,0 -15.37688,1.507536 -25.02513,5.125627 l 3.31658,3.015073 c 4.82413,-2.412055 12.66332,-5.125627 21.70855,-5.125627 z m -60,2.713564 0,3.9196 c 3.01507,0.904527 9.64824,1.809045 15.67839,1.809045 l 0.60302,-3.316582 c -6.00955,-0.234272 -10.55276,-0.904527 -16.28141,-2.412063 z m 35.30465,10.505654 -3.94787,3.6652 c 10.55277,5.125632 18.99497,12.361812 23.8191,22.010052 l 3.61809,-4.82413 c -4.77695,-7.16541 -12.06031,-14.472349 -23.48932,-20.851122 z m -16.5358,1.422737 c -0.60572,0.014 -1.22927,0.05927 -1.88443,0.131909 -1.85213,0.205245 -3.26955,0.630963 -4.82412,1.206036 -1.05385,0.389845 -1.82246,0.7679 -3.01507,1.507536 -1.19262,0.739637 -2.41207,1.809046 -2.41207,1.809046 l 3.61809,3.618098 c 0,0 1.73223,-1.273995 2.71358,-1.809049 0.98133,-0.535058 2.29888,-0.761704 3.26947,-0.876258 2.50391,-0.295537 4.91796,0.209854 6.07725,1.177767 1.23642,1.03229 1.74864,1.76453 1.80905,4.5226 -1.11463,-0.0453 -2.21325,0.0322 -3.46734,0.0659 -1.12076,0.0302 -3.4352,0.0836 -4.37185,0.23556 -2.49523,0.40492 -5.16271,0.79335 -7.76382,2.48743 -1.386,0.90269 -2.54058,2.30169 -3.13756,3.84422 -0.67206,1.7365 -0.83463,3.79384 -0.30151,5.57789 0.55502,1.85737 1.79903,3.664393 3.44849,4.682793 3.16968,1.25507 7.34729,1.56408 10.3549,0.51822 1.67695,-0.60515 2.97944,-1.14389 4.49434,-2.902013 0.24552,-0.28492 0.43738,-0.7396 0.74435,-1.24371 l 0,4.221103 6.33167,0 0,-17.185933 c -0.0701,-3.75162 -1.56279,-7.127274 -4.22111,-9.346737 -2.59053,-1.748 -4.83751,-2.302946 -7.46231,-2.242464 z m 4.72047,15.998745 c 0.12037,9.1e-4 0.22189,-0.002 0.3392,0 -0.003,0.0382 -0.007,0.0725 -0.009,0.11306 0,0 0.33975,4.91783 -2.36495,6.61433 -2.70467,1.6965 -3.88201,1.72379 -5.86054,1.38505 -1.37997,-0.23626 -2.97542,-0.98668 -3.53331,-2.27073 -0.44777,-1.03058 -0.094,-2.43523 0.60301,-3.31658 1.08874,-1.37673 3.11193,-1.72439 4.82413,-2.11056 1.56941,-0.35395 3.98216,-0.42768 6.00188,-0.41457 z"
         id="path3109"
         inkscape:connector-curvature="0"
         sodipodi:nodetypes="ccccccccccccccccccccssssccssscsssssccscccccscccsssssc" />
      <path
         sodipodi:nodetypes="ccccccccccccccccccccssssccssscsssssccscccccscccsssssc"
         inkscape:connector-curvature="0"
         id="path3111"
         d="m 315.57788,154.21668 c -1.99834,4.66282 -0.48138,7.4937 0.0566,9.46608 l 3.15955,-0.42086 c -0.66811,-2.44972 -1.82076,-5.26582 -0.20101,-9.04522 z m 24.12061,7.8392 c -5.22614,0 -10.25126,1.00502 -16.68343,3.41708 l 2.21106,2.01005 c 3.21608,-1.60803 8.44221,-3.41709 14.47237,-3.41709 z m -40,1.80904 0,2.61307 c 2.01005,0.60301 6.43215,1.20602 10.45226,1.20602 l 0.40201,-2.21105 c -4.00636,-0.15618 -7.03518,-0.60302 -10.85427,-1.60804 z m 23.53642,7.00377 -2.63191,2.44347 c 7.03518,3.41708 12.66332,8.2412 15.8794,14.67336 l 2.41206,-3.21608 c -3.18463,-4.77694 -8.04021,-9.64824 -15.65955,-13.90075 z m -11.02387,0.94849 c -0.40381,0.009 -0.8195,0.0395 -1.25628,0.0879 -1.23475,0.13683 -2.1797,0.42064 -3.21608,0.80402 -0.70257,0.2599 -1.21497,0.51194 -2.01004,1.00503 -0.79509,0.49309 -1.60805,1.20603 -1.60805,1.20603 l 2.41206,2.41206 c 0,0 1.15483,-0.84933 1.80906,-1.20603 0.65423,-0.3567 1.53259,-0.5078 2.17963,-0.58417 1.66929,-0.19703 3.27866,0.1399 4.05151,0.78517 0.82428,0.6882 1.16576,1.17636 1.20604,3.01508 -0.74308,-0.0302 -1.4755,0.0215 -2.31155,0.0439 -0.7472,0.0201 -2.29015,0.0557 -2.91458,0.15703 -1.66349,0.26995 -3.44182,0.52891 -5.17588,1.65829 -0.924,0.60179 -1.69372,1.53447 -2.09171,2.56282 -0.44803,1.15767 -0.55642,2.52923 -0.201,3.71859 0.37001,1.23825 1.19936,2.44293 2.29899,3.12187 2.11312,0.83671 4.89819,1.04271 6.90327,0.34548 1.11796,-0.40344 1.98629,-0.7626 2.99623,-1.93467 0.16368,-0.18996 0.29158,-0.49308 0.49623,-0.82915 l 0,2.81406 4.22111,0 0,-11.45729 c -0.0467,-2.50108 -1.04187,-4.75151 -2.81408,-6.23115 -1.72702,-1.16534 -3.225,-1.5353 -4.97487,-1.49497 z m 3.14699,10.66582 c 0.0803,6.1e-4 0.14792,-9e-4 0.22613,0 -0.002,0.0255 -0.005,0.0483 -0.006,0.0754 0,0 0.22649,3.27855 -1.57664,4.40955 -1.80312,1.131 -2.58801,1.14919 -3.90702,0.92337 -0.91999,-0.15751 -1.98362,-0.65779 -2.35555,-1.51382 -0.29851,-0.68706 -0.0626,-1.62349 0.40201,-2.21106 0.72583,-0.91781 2.07462,-1.1496 3.21608,-1.40703 1.04627,-0.23598 2.65478,-0.28513 4.00126,-0.27639 z"
         style="font-size:medium;font-style:normal;font-variant:normal;font-weight:normal;font-stretch:normal;text-indent:0;text-align:start;text-decoration:none;line-height:normal;letter-spacing:normal;word-spacing:normal;text-transform:none;direction:ltr;block-progression:tb;writing-mode:lr-tb;text-anchor:start;baseline-shift:baseline;opacity:0.2;color:#000000;fill:#000000;fill-opacity:1;stroke:none;stroke-width:16;marker:none;visibility:visible;display:inline;overflow:visible;enable-background:accumulate;font-family:Sans;-inkscape-font-specification:Sans" />
      <path
         style="font-size:medium;font-style:normal;font-variant:normal;font-weight:normal;font-stretch:normal;text-indent:0;text-align:start;text-decoration:none;line-height:normal;letter-spacing:normal;word-spacing:normal;text-transform:none;direction:ltr;block-progression:tb;writing-mode:lr-tb;text-anchor:start;baseline-shift:baseline;opacity:0.2;color:#000000;fill:#000000;fill-opacity:1;stroke:none;stroke-width:16;marker:none;visibility:visible;display:inline;overflow:visible;enable-background:accumulate;font-family:Sans;-inkscape-font-specification:Sans"
         d="m 308.46231,229.57348 c -1.59867,3.73026 -0.3851,5.99496 0.0452,7.57287 l 2.52764,-0.33669 c -0.53448,-1.95978 -1.4566,-4.21266 -0.1608,-7.23618 z m 19.29649,6.27136 c -4.18091,0 -8.201,0.80402 -13.34673,2.73367 l 1.76884,1.60804 c 2.57286,-1.28643 6.75377,-2.73367 11.57789,-2.73367 z m -32,1.44724 0,2.09045 c 1.60804,0.48241 5.14572,0.96482 8.36181,0.96482 l 0.32161,-1.76884 c -3.20509,-0.12495 -5.62814,-0.48242 -8.68342,-1.28643 z m 18.82914,5.60301 -2.10553,1.95478 c 5.62815,2.73366 10.13066,6.59296 12.70352,11.73869 l 1.92966,-2.57287 c -2.54771,-3.82155 -6.43217,-7.71859 -12.52765,-11.1206 z m -8.81909,0.75879 c -0.32306,0.007 -0.65562,0.0316 -1.00502,0.0703 -0.98782,0.10947 -1.74376,0.33652 -2.57288,0.64322 -0.56205,0.20792 -0.97197,0.40955 -1.60804,0.80402 -0.63606,0.39448 -1.28643,0.96483 -1.28643,0.96483 l 1.92965,1.92965 c 0,0 0.92385,-0.67947 1.44723,-0.96483 0.52339,-0.28536 1.22608,-0.40624 1.74372,-0.46733 1.33542,-0.15763 2.62292,0.11192 3.24121,0.62813 0.65942,0.55056 0.9326,0.94109 0.96482,2.41206 -0.59447,-0.0241 -1.1804,0.0172 -1.84924,0.0351 -0.59775,0.0161 -1.83211,0.0446 -2.33166,0.12563 -1.33079,0.21596 -2.75345,0.42313 -4.14071,1.32663 -0.7392,0.48143 -1.35497,1.22757 -1.67336,2.05026 -0.35843,0.92613 -0.44514,2.02338 -0.1608,2.97487 0.296,0.9906 0.95948,1.95434 1.83919,2.49749 1.69049,0.66937 3.91855,0.83417 5.52261,0.27639 0.89437,-0.32275 1.58903,-0.61008 2.39699,-1.54774 0.13094,-0.15197 0.23326,-0.39446 0.39698,-0.66332 l 0,2.25125 3.37689,0 0,-9.16583 c -0.0374,-2.00087 -0.83349,-3.80121 -2.25126,-4.98492 -1.38162,-0.93227 -2.58,-1.22824 -3.9799,-1.19598 z m 2.51758,8.53266 c 0.0642,4.9e-4 0.11834,-7.2e-4 0.18091,0 -9.9e-4,0.0204 -0.004,0.0386 -0.005,0.0603 0,0 0.1812,2.62284 -1.2613,3.52764 -1.4425,0.9048 -2.07041,0.91935 -3.12563,0.73869 -0.73598,-0.12601 -1.58689,-0.52623 -1.88443,-1.21105 -0.23881,-0.54965 -0.0501,-1.2988 0.3216,-1.76885 0.58067,-0.73425 1.6597,-0.91968 2.57287,-1.12563 0.83702,-0.18878 2.12383,-0.2281 3.20101,-0.22111 z"
         id="path3113"
         inkscape:connector-curvature="0"
         sodipodi:nodetypes="ccccccccccccccccccccssssccssscsssssccscccccscccsssssc" />
      <path
         style="font-size:medium;font-style:normal;font-variant:normal;font-weight:normal;font-stretch:normal;text-indent:0;text-align:start;text-decoration:none;line-height:normal;letter-spacing:normal;word-spacing:normal;text-transform:none;direction:ltr;block-progression:tb;writing-mode:lr-tb;text-anchor:start;baseline-shift:baseline;color:#000000;fill:#ffffff;fill-opacity:1;stroke:none;stroke-width:16;marker:none;visibility:visible;display:inline;overflow:visible;enable-background:accumulate;font-family:Sans;-inkscape-font-specification:Sans"
         d="m 429.78894,58.607966 c -0.99916,2.331409 -0.2407,3.746851 0.0283,4.733042 l 1.57978,-0.210427 c -0.33406,-1.224867 -0.91037,-2.632915 -0.1005,-4.522615 z m 12.0603,3.9196 c -2.61306,0 -5.12563,0.502511 -8.34171,1.708538 l 1.10553,1.005027 c 1.60804,-0.804018 4.22111,-1.708541 7.23618,-1.708541 z m -20,0.90452 0,1.306536 c 1.00503,0.301509 3.21608,0.603009 5.22613,0.603009 l 0.20101,-1.105527 c -2.00319,-0.07809 -3.51759,-0.301509 -5.42714,-0.804018 z m 11.76822,3.501881 -1.31595,1.221737 c 3.51758,1.708545 6.33165,4.1206 7.9397,7.336691 l 1.20603,-1.608046 c -1.59232,-2.388473 -4.0201,-4.824118 -7.82977,-6.950382 z m -5.51194,0.474246 c -0.20191,0.0045 -0.40975,0.01973 -0.62814,0.044 -0.61738,0.06845 -1.08985,0.210318 -1.60804,0.402009 -0.35128,0.129954 -0.60749,0.255973 -1.00503,0.502518 -0.39753,0.246546 -0.80402,0.603009 -0.80402,0.603009 l 1.20604,1.206037 c 0,0 0.57741,-0.424664 0.90453,-0.603019 0.32711,-0.178354 0.76628,-0.2539 1.08982,-0.292081 0.83462,-0.09852 1.63931,0.06991 2.02574,0.392581 0.41215,0.3441 0.58288,0.588182 0.60302,1.507537 -0.37155,-0.01509 -0.73774,0.01073 -1.15578,0.022 -0.37358,0.01009 -1.14507,0.02782 -1.45728,0.07855 -0.83175,0.134973 -1.7209,0.264455 -2.58793,0.829146 -0.462,0.300891 -0.84687,0.767227 -1.04586,1.281409 -0.22402,0.578836 -0.27821,1.264609 -0.10051,1.8593 0.18501,0.619118 0.59968,1.221463 1.1495,1.560927 1.05656,0.418355 2.4491,0.521355 3.45164,0.172736 0.55898,-0.201718 0.99315,-0.381291 1.49811,-0.967336 0.0818,-0.09497 0.14579,-0.246527 0.24811,-0.414573 l 0,1.407037 2.11056,0 0,-5.728646 c -0.0234,-1.250545 -0.52092,-2.375754 -1.40703,-3.115582 -0.86351,-0.582663 -1.6125,-0.767645 -2.48744,-0.747481 z m 1.57349,5.332918 c 0.0401,3e-4 0.074,-6.09e-4 0.11307,0 -9e-4,0.01273 -0.003,0.02418 -0.003,0.03773 0,0 0.11324,1.639273 -0.78831,2.204773 -0.90156,0.5655 -1.29401,0.5746 -1.95352,0.461682 -0.45999,-0.07873 -0.9918,-0.328891 -1.17776,-0.756909 -0.14926,-0.343528 -0.0314,-0.811737 0.20099,-1.105528 0.36292,-0.458909 1.03731,-0.57479 1.60804,-0.703518 0.52314,-0.117982 1.3274,-0.142563 2.00063,-0.138191 z"
         id="path4163"
         inkscape:connector-curvature="0"
         sodipodi:nodetypes="ccccccccccccccccccccssssccssscsssssccscccccscccsssssc" />
      <path
         sodipodi:nodetypes="ccccccccccccccccccccssssccssscsssssccscccccscccsssssc"
         inkscape:connector-curvature="0"
         id="path4170"
         d="m 426.45231,105.12556 c -0.69942,1.63199 -0.16849,2.6228 0.0198,3.31313 l 1.10584,-0.1473 c -0.23385,-0.8574 -0.63726,-1.84304 -0.0703,-3.16583 z m 8.44221,2.74372 c -1.82914,0 -3.58795,0.35176 -5.8392,1.19598 l 0.77387,0.70351 c 1.12563,-0.5628 2.95478,-1.19597 5.06533,-1.19597 z m -14,0.63316 0,0.91458 c 0.70351,0.21105 2.25126,0.4221 3.65829,0.4221 l 0.14071,-0.77386 c -1.40223,-0.0547 -2.46231,-0.21106 -3.799,-0.56282 z m 8.23775,2.45132 -0.92117,0.85522 c 2.46232,1.19597 4.43216,2.88442 5.55779,5.13569 l 0.84422,-1.12565 c -1.11462,-1.67192 -2.81407,-3.37688 -5.48084,-4.86526 z m -3.85835,0.33198 c -0.14134,0.004 -0.28683,0.0138 -0.4397,0.0308 -0.43217,0.048 -0.7629,0.14721 -1.12563,0.2814 -0.2459,0.091 -0.42524,0.17918 -0.70352,0.35176 -0.27827,0.17258 -0.56281,0.4221 -0.56281,0.4221 l 0.84422,0.84423 c 0,0 0.40418,-0.29726 0.63317,-0.42211 0.22897,-0.12484 0.5364,-0.17773 0.76288,-0.20446 0.58423,-0.069 1.14752,0.0489 1.41802,0.27481 0.2885,0.24087 0.40801,0.41172 0.42211,1.05528 -0.26008,-0.0106 -0.51642,0.008 -0.80905,0.0154 -0.2615,0.007 -0.80154,0.0195 -1.02009,0.055 -0.58223,0.0945 -1.20463,0.18511 -1.81156,0.5804 -0.3234,0.21062 -0.5928,0.53706 -0.73209,0.89698 -0.15682,0.40519 -0.19475,0.88523 -0.0704,1.30152 0.1295,0.43338 0.41977,0.85502 0.80465,1.09265 0.73959,0.29284 1.71437,0.36494 2.41614,0.12091 0.39128,-0.1412 0.6952,-0.26691 1.04868,-0.67713 0.0572,-0.0665 0.10205,-0.17257 0.17368,-0.2902 l 0,0.98492 1.47738,0 0,-4.01005 c -0.0164,-0.87539 -0.36464,-1.66303 -0.98492,-2.18091 -0.60445,-0.40787 -1.12875,-0.53735 -1.7412,-0.52324 z m 1.10144,3.73303 c 0.0281,2.1e-4 0.0518,-4.2e-4 0.0792,0 -6.4e-4,0.009 -0.002,0.0169 -0.002,0.0264 0,0 0.0793,1.14749 -0.55183,1.54334 -0.63109,0.39585 -0.9058,0.40222 -1.36746,0.32318 -0.32199,-0.0551 -0.69426,-0.23023 -0.82443,-0.52984 -0.10448,-0.24047 -0.022,-0.56821 0.1407,-0.77387 0.25404,-0.32123 0.72611,-0.40235 1.12563,-0.49246 0.36619,-0.0826 0.92918,-0.0998 1.40044,-0.0967 z"
         style="font-size:medium;font-style:normal;font-variant:normal;font-weight:normal;font-stretch:normal;text-indent:0;text-align:start;text-decoration:none;line-height:normal;letter-spacing:normal;word-spacing:normal;text-transform:none;direction:ltr;block-progression:tb;writing-mode:lr-tb;text-anchor:start;baseline-shift:baseline;color:#000000;fill:#ffffff;fill-opacity:1;stroke:none;stroke-width:16;marker:none;visibility:visible;display:inline;overflow:visible;enable-background:accumulate;font-family:Sans;-inkscape-font-specification:Sans" />
      <path
         style="font-size:medium;font-style:normal;font-variant:normal;font-weight:normal;font-stretch:normal;text-indent:0;text-align:start;text-decoration:none;line-height:normal;letter-spacing:normal;word-spacing:normal;text-transform:none;direction:ltr;block-progression:tb;writing-mode:lr-tb;text-anchor:start;baseline-shift:baseline;color:#000000;fill:#ffffff;fill-opacity:1;stroke:none;stroke-width:16;marker:none;visibility:visible;display:inline;overflow:visible;enable-background:accumulate;font-family:Sans;-inkscape-font-specification:Sans"
         d="m 422.76383,141.85361 c -0.5995,1.39884 -0.14443,2.24811 0.017,2.83982 l 0.94788,-0.12625 c -0.20044,-0.73492 -0.54623,-1.57975 -0.0603,-2.71357 z M 430,144.20537 c -1.56783,0 -3.07538,0.3015 -5.00502,1.02512 l 0.66332,0.60302 c 0.96483,-0.48241 2.53267,-1.02513 4.3417,-1.02513 z m -12,0.54271 0,0.78392 c 0.60301,0.18091 1.92965,0.36181 3.13568,0.36181 l 0.1206,-0.66332 c -1.20191,-0.0469 -2.11054,-0.18091 -3.25628,-0.48241 z m 7.06093,2.10113 -0.78957,0.73304 c 2.11055,1.02513 3.79899,2.47236 4.76382,4.40202 l 0.72361,-0.96483 c -0.95538,-1.43309 -2.41206,-2.89447 -4.69786,-4.17023 z m -3.30716,0.28455 c -0.12114,0.003 -0.24585,0.0118 -0.37689,0.0264 -0.37042,0.0411 -0.65391,0.12619 -0.96482,0.2412 -0.21077,0.078 -0.36448,0.15358 -0.603,0.30151 -0.23854,0.14793 -0.48242,0.36181 -0.48242,0.36181 l 0.72361,0.72362 c 0,0 0.34644,-0.2548 0.54272,-0.36181 0.19626,-0.10701 0.45977,-0.15234 0.65389,-0.17525 0.50078,-0.0591 0.98359,0.042 1.21545,0.23555 0.24729,0.20646 0.34973,0.35291 0.36181,0.90452 -0.22293,-0.009 -0.44265,0.006 -0.69347,0.0132 -0.22415,0.006 -0.68704,0.0167 -0.87437,0.0471 -0.49905,0.081 -1.03254,0.15867 -1.55276,0.49749 -0.2772,0.18053 -0.50812,0.46034 -0.62751,0.76884 -0.13441,0.34731 -0.16692,0.75877 -0.0603,1.11559 0.11101,0.37147 0.3598,0.73288 0.6897,0.93656 0.63394,0.25101 1.46946,0.31281 2.07098,0.10364 0.33539,-0.12104 0.59589,-0.22878 0.89887,-0.5804 0.0491,-0.057 0.0875,-0.14792 0.14887,-0.24875 l 0,0.84422 1.26633,0 0,-3.43719 c -0.014,-0.75033 -0.31257,-1.42545 -0.84423,-1.86935 -0.5181,-0.3496 -0.96749,-0.46059 -1.49245,-0.44849 z m 0.9441,3.19975 c 0.0241,1.8e-4 0.0444,-3.7e-4 0.0679,0 -5.5e-4,0.008 -0.002,0.0145 -0.002,0.0226 0,0 0.068,0.98357 -0.47299,1.32287 -0.54093,0.3393 -0.7764,0.34476 -1.1721,0.27701 -0.27601,-0.0472 -0.59508,-0.19734 -0.70666,-0.45415 -0.0896,-0.20612 -0.0188,-0.48704 0.1206,-0.66332 0.21775,-0.27534 0.62238,-0.34487 0.96482,-0.42211 0.31389,-0.0708 0.79644,-0.0855 1.20037,-0.0829 z"
         id="path4172"
         inkscape:connector-curvature="0"
         sodipodi:nodetypes="ccccccccccccccccccccssssccssscsssssccscccccscccsssssc" />
      <path
         style="font-size:medium;font-style:normal;font-variant:normal;font-weight:normal;font-stretch:normal;text-indent:0;text-align:start;text-decoration:none;line-height:normal;letter-spacing:normal;word-spacing:normal;text-transform:none;direction:ltr;block-progression:tb;writing-mode:lr-tb;text-anchor:start;baseline-shift:baseline;color:#000000;fill:#ffffff;fill-opacity:1;stroke:none;stroke-width:16;marker:none;visibility:visible;display:inline;overflow:visible;enable-background:accumulate;font-family:Sans;-inkscape-font-specification:Sans"
         d="m 127.31156,78.864781 c -7.99339,18.65126 -1.92556,29.974799 0.22613,37.864319 l 12.63819,-1.68341 c -2.67244,-9.79891 -7.28299,-21.063309 -0.80402,-36.180909 z m 96.48241,31.356789 c -20.90452,0 -41.00503,4.0201 -66.73367,13.66834 l 8.84422,8.0402 c 12.86432,-6.43216 33.76885,-13.66834 57.88945,-13.66834 z m -159.999999,7.23618 0,10.45226 c 8.040201,2.41206 25.728643,4.82412 41.809039,4.82412 l 1.60804,-8.84422 c -16.025446,-0.62472 -28.140697,-2.41206 -43.417079,-6.43216 z m 94.145729,28.01507 -10.52764,9.77387 c 28.1407,13.66834 50.65327,32.96482 63.51759,58.69347 l 9.64824,-12.86432 c -12.73853,-19.1078 -32.16081,-38.59297 -62.63819,-55.60302 z m -44.09548,3.79397 c -1.61527,0.0372 -3.27804,0.15816 -5.02512,0.35176 -4.93902,0.5473 -8.7188,1.68255 -12.864326,3.21608 -2.810284,1.03959 -4.859899,2.04774 -8.040201,4.0201 -3.180302,1.97236 -6.432161,4.82412 -6.432161,4.82412 l 9.648241,9.64824 c 0,0 4.619278,-3.3973 7.236181,-4.82412 2.616906,-1.42681 6.130356,-2.03119 8.718596,-2.33668 6.67706,-0.78808 13.11459,0.55963 16.20603,3.1407 3.2971,2.75278 4.66302,4.70543 4.82412,12.0603 -2.97234,-0.12067 -5.90199,0.0859 -9.24623,0.17588 -2.98872,0.0804 -9.16055,0.22281 -11.6583,0.62814 -6.65396,1.07979 -13.767208,2.11563 -20.703512,6.63317 -3.695983,2.40716 -6.774866,6.13782 -8.366834,10.25126 -1.792146,4.63066 -2.225662,10.11688 -0.80402,14.87437 1.480053,4.95296 4.797432,9.7717 9.195979,12.48743 8.452486,3.34683 19.592787,4.17088 27.613067,1.38191 4.47185,-1.61374 7.94516,-3.05038 11.98492,-7.73869 0.65471,-0.75981 1.16631,-1.97224 1.98493,-3.31658 l 0,11.25628 16.88442,0 0,-45.82915 c -0.18696,-10.00434 -4.16744,-19.00607 -11.25628,-24.92462 -6.90809,-4.66135 -12.9,-6.14119 -19.8995,-5.9799 z m 12.58794,42.66332 c 0.32096,0.002 0.59169,-0.004 0.90452,0 -0.007,0.10182 -0.0197,0.19326 -0.0251,0.30151 0,0 0.90597,13.11418 -6.30654,17.63819 -7.2125,4.524 -10.35202,4.59677 -15.62814,3.69346 -3.67991,-0.63001 -7.934435,-2.63113 -9.422146,-6.05527 -1.194038,-2.74822 -0.250618,-6.49394 1.60804,-8.84422 2.903316,-3.67126 8.298466,-4.59838 12.864326,-5.62814 4.18508,-0.94389 10.61913,-1.1405 16.00502,-1.10553 z"
         id="path4117"
         inkscape:connector-curvature="0"
         sodipodi:nodetypes="ccccccccccccccccccccssssccssscsssssccscccccscccsssssc" />
      <path
         sodipodi:nodetypes="ccccccccccccccccccccssssccssscsssssccscccccscccsssssc"
         inkscape:connector-curvature="0"
         id="path4157"
         d="m 329.36682,45.824219 c -2.99752,6.994227 -0.72207,11.240555 0.0848,14.199127 l 4.73933,-0.631282 c -1.00216,-3.6746 -2.73112,-7.898745 -0.30151,-13.567845 z m 36.18091,11.7588 c -7.8392,0 -15.37688,1.507536 -25.02513,5.125627 l 3.31658,3.015073 c 4.82413,-2.412055 12.66332,-5.125627 21.70855,-5.125627 z m -60,2.713564 0,3.9196 c 3.01507,0.904527 9.64824,1.809045 15.67839,1.809045 l 0.60302,-3.316582 c -6.00955,-0.234272 -10.55276,-0.904527 -16.28141,-2.412063 z m 35.30465,10.505654 -3.94787,3.6652 c 10.55277,5.125632 18.99497,12.361812 23.8191,22.010052 l 3.61809,-4.82413 C 359.56475,84.487949 352.28139,77.18101 340.85238,70.802237 z m -16.5358,1.422737 c -0.60572,0.014 -1.22927,0.05927 -1.88443,0.131909 -1.85213,0.205245 -3.26955,0.630963 -4.82412,1.206036 -1.05385,0.389845 -1.82246,0.7679 -3.01507,1.507536 -1.19262,0.739637 -2.41207,1.809046 -2.41207,1.809046 l 3.61809,3.618098 c 0,0 1.73223,-1.273995 2.71358,-1.809049 0.98133,-0.535058 2.29888,-0.761704 3.26947,-0.876258 2.50391,-0.295537 4.91796,0.209854 6.07725,1.177767 1.23642,1.03229 1.74864,1.76453 1.80905,4.5226 -1.11463,-0.0453 -2.21325,0.0322 -3.46734,0.0659 -1.12076,0.0302 -3.4352,0.0836 -4.37185,0.23556 -2.49523,0.40492 -5.16271,0.79335 -7.76382,2.48743 -1.386,0.90269 -2.54058,2.30169 -3.13756,3.84422 -0.67206,1.7365 -0.83463,3.79384 -0.30151,5.57789 0.55502,1.85737 1.79903,3.66439 3.44849,4.682791 3.16968,1.25507 7.34729,1.56408 10.3549,0.51822 1.67695,-0.60515 2.97944,-1.143891 4.49434,-2.902011 0.24552,-0.28492 0.43738,-0.7396 0.74435,-1.24371 l 0,4.221101 6.33167,0 0,-17.185931 c -0.0701,-3.75162 -1.56279,-7.127274 -4.22111,-9.346737 -2.59053,-1.748 -4.83751,-2.302946 -7.46231,-2.242464 z m 4.72047,15.998745 c 0.12037,9.1e-4 0.22189,-0.002 0.3392,0 -0.003,0.0382 -0.007,0.0725 -0.009,0.11306 0,0 0.33975,4.91783 -2.36495,6.61433 -2.70467,1.6965 -3.88201,1.72379 -5.86054,1.38505 -1.37997,-0.23626 -2.97542,-0.98668 -3.53331,-2.27073 -0.44777,-1.03058 -0.094,-2.43523 0.60301,-3.31658 1.08874,-1.37673 3.11193,-1.72439 4.82413,-2.11056 1.56941,-0.35395 3.98216,-0.42768 6.00188,-0.41457 z"
         style="font-size:medium;font-style:normal;font-variant:normal;font-weight:normal;font-stretch:normal;text-indent:0;text-align:start;text-decoration:none;line-height:normal;letter-spacing:normal;word-spacing:normal;text-transform:none;direction:ltr;block-progression:tb;writing-mode:lr-tb;text-anchor:start;baseline-shift:baseline;color:#000000;fill:#ffffff;fill-opacity:1;stroke:none;stroke-width:16;marker:none;visibility:visible;display:inline;overflow:visible;enable-background:accumulate;font-family:Sans;-inkscape-font-specification:Sans" />
      <path
         style="font-size:medium;font-style:normal;font-variant:normal;font-weight:normal;font-stretch:normal;text-indent:0;text-align:start;text-decoration:none;line-height:normal;letter-spacing:normal;word-spacing:normal;text-transform:none;direction:ltr;block-progression:tb;writing-mode:lr-tb;text-anchor:start;baseline-shift:baseline;color:#000000;fill:#ffffff;fill-opacity:1;stroke:none;stroke-width:16;marker:none;visibility:visible;display:inline;overflow:visible;enable-background:accumulate;font-family:Sans;-inkscape-font-specification:Sans"
         d="m 315.57788,153.21619 c -1.99834,4.66282 -0.48138,7.4937 0.0566,9.46608 l 3.15955,-0.42086 c -0.66811,-2.44972 -1.82076,-5.26582 -0.20101,-9.04522 z m 24.12061,7.8392 c -5.22614,0 -10.25126,1.00502 -16.68343,3.41708 l 2.21106,2.01005 c 3.21608,-1.60803 8.44221,-3.41709 14.47237,-3.41709 z m -40,1.80904 0,2.61307 c 2.01005,0.60301 6.43215,1.20602 10.45226,1.20602 l 0.40201,-2.21105 c -4.00636,-0.15618 -7.03518,-0.60302 -10.85427,-1.60804 z m 23.53642,7.00377 -2.63191,2.44347 c 7.03518,3.41708 12.66332,8.2412 15.8794,14.67336 l 2.41206,-3.21608 c -3.18463,-4.77694 -8.04021,-9.64824 -15.65955,-13.90075 z m -11.02387,0.94849 c -0.40381,0.009 -0.8195,0.0395 -1.25628,0.0879 -1.23475,0.13683 -2.1797,0.42064 -3.21608,0.80402 -0.70257,0.2599 -1.21497,0.51194 -2.01004,1.00503 -0.79509,0.49309 -1.60805,1.20603 -1.60805,1.20603 l 2.41206,2.41206 c 0,0 1.15483,-0.84933 1.80906,-1.20603 0.65423,-0.3567 1.53259,-0.5078 2.17963,-0.58417 1.66929,-0.19703 3.27866,0.1399 4.05151,0.78517 0.82428,0.6882 1.16576,1.17636 1.20604,3.01508 -0.74308,-0.0302 -1.4755,0.0215 -2.31155,0.0439 -0.7472,0.0201 -2.29015,0.0557 -2.91458,0.15703 -1.66349,0.26995 -3.44182,0.52891 -5.17588,1.65829 -0.924,0.60179 -1.69372,1.53447 -2.09171,2.56282 -0.44803,1.15767 -0.55642,2.52923 -0.201,3.71859 0.37001,1.23825 1.19936,2.44293 2.29899,3.12187 2.11312,0.83671 4.89819,1.04271 6.90327,0.34548 1.11796,-0.40344 1.98629,-0.7626 2.99623,-1.93467 0.16368,-0.18996 0.29158,-0.49308 0.49623,-0.82915 l 0,2.81406 4.22111,0 0,-11.45729 c -0.0467,-2.50108 -1.04187,-4.75151 -2.81408,-6.23115 -1.72702,-1.16534 -3.225,-1.5353 -4.97487,-1.49497 z m 3.14699,10.66582 c 0.0803,6.1e-4 0.14792,-9e-4 0.22613,0 -0.002,0.0255 -0.005,0.0483 -0.006,0.0754 0,0 0.22649,3.27855 -1.57664,4.40955 -1.80312,1.131 -2.58801,1.14919 -3.90702,0.92337 -0.91999,-0.15751 -1.98362,-0.65779 -2.35555,-1.51382 -0.29851,-0.68706 -0.0626,-1.62349 0.40201,-2.21106 0.72583,-0.91781 2.07462,-1.1496 3.21608,-1.40703 1.04627,-0.23598 2.65478,-0.28513 4.00126,-0.27639 z"
         id="path4159"
         inkscape:connector-curvature="0"
         sodipodi:nodetypes="ccccccccccccccccccccssssccssscsssssccscccccscccsssssc" />
      <path
         sodipodi:nodetypes="ccccccccccccccccccccssssccssscsssssccscccccscccsssssc"
         inkscape:connector-curvature="0"
         id="path4161"
         d="m 308.46231,228.57299 c -1.59867,3.73026 -0.3851,5.99496 0.0452,7.57287 l 2.52764,-0.33669 c -0.53448,-1.95978 -1.4566,-4.21266 -0.1608,-7.23618 z m 19.29649,6.27136 c -4.18091,0 -8.201,0.80402 -13.34673,2.73367 l 1.76884,1.60804 c 2.57286,-1.28643 6.75377,-2.73367 11.57789,-2.73367 z m -32,1.44724 0,2.09045 c 1.60804,0.48241 5.14572,0.96482 8.36181,0.96482 l 0.32161,-1.76884 c -3.20509,-0.12495 -5.62814,-0.48242 -8.68342,-1.28643 z m 18.82914,5.60301 -2.10553,1.95478 c 5.62815,2.73366 10.13066,6.59296 12.70352,11.73869 l 1.92966,-2.57287 c -2.54771,-3.82155 -6.43217,-7.71859 -12.52765,-11.1206 z m -8.81909,0.75879 c -0.32306,0.007 -0.65562,0.0316 -1.00502,0.0703 -0.98782,0.10947 -1.74376,0.33652 -2.57288,0.64322 -0.56205,0.20792 -0.97197,0.40955 -1.60804,0.80402 -0.63606,0.39448 -1.28643,0.96483 -1.28643,0.96483 l 1.92965,1.92965 c 0,0 0.92385,-0.67947 1.44723,-0.96483 0.52339,-0.28536 1.22608,-0.40624 1.74372,-0.46733 1.33542,-0.15763 2.62292,0.11192 3.24121,0.62813 0.65942,0.55056 0.9326,0.94109 0.96482,2.41206 -0.59447,-0.0241 -1.1804,0.0172 -1.84924,0.0351 -0.59775,0.0161 -1.83211,0.0446 -2.33166,0.12563 -1.33079,0.21596 -2.75345,0.42313 -4.14071,1.32663 -0.7392,0.48143 -1.35497,1.22757 -1.67336,2.05026 -0.35843,0.92613 -0.44514,2.02338 -0.1608,2.97487 0.296,0.9906 0.95948,1.95434 1.83919,2.49749 1.69049,0.66937 3.91855,0.83417 5.52261,0.27639 0.89437,-0.32275 1.58903,-0.61008 2.39699,-1.54774 0.13094,-0.15197 0.23326,-0.39446 0.39698,-0.66332 l 0,2.25125 3.37689,0 0,-9.16583 c -0.0374,-2.00087 -0.83349,-3.80121 -2.25126,-4.98492 -1.38162,-0.93227 -2.58,-1.22824 -3.9799,-1.19598 z m 2.51758,8.53266 c 0.0642,4.9e-4 0.11834,-7.2e-4 0.18091,0 -9.9e-4,0.0204 -0.004,0.0386 -0.005,0.0603 0,0 0.1812,2.62284 -1.2613,3.52764 -1.4425,0.9048 -2.07041,0.91935 -3.12563,0.73869 -0.73598,-0.12601 -1.58689,-0.52623 -1.88443,-1.21105 -0.23881,-0.54965 -0.0501,-1.2988 0.3216,-1.76885 0.58067,-0.73425 1.6597,-0.91968 2.57287,-1.12563 0.83702,-0.18878 2.12383,-0.2281 3.20101,-0.22111 z"
         style="font-size:medium;font-style:normal;font-variant:normal;font-weight:normal;font-stretch:normal;text-indent:0;text-align:start;text-decoration:none;line-height:normal;letter-spacing:normal;word-spacing:normal;text-transform:none;direction:ltr;block-progression:tb;writing-mode:lr-tb;text-anchor:start;baseline-shift:baseline;color:#000000;fill:#ffffff;fill-opacity:1;stroke:none;stroke-width:16;marker:none;visibility:visible;display:inline;overflow:visible;enable-background:accumulate;font-family:Sans;-inkscape-font-specification:Sans" />
    </g>
    <g
       inkscape:groupmode="layer"
       id="layer5"
       inkscape:label="Highlights"
       style="display:inline"
       sodipodi:insensitive="true">
      <path
         style="opacity:0.12999998;color:#bebebe;fill:#ffffff;fill-opacity:1;fill-rule:nonzero;stroke:none;stroke-width:0;marker:none;visibility:visible;display:inline;overflow:visible;enable-background:accumulate"
         d="M 84,47 C 56.836703,47 35,68.836703 35,96 l 0,1 C 35,69.836703 56.836703,48 84,48 l 120,0 c 27.1633,0 49,21.836703 49,49 l 0,-1 C 253,68.836703 231.1633,47 204,47 L 84,47 z"
         id="rect3894"
         inkscape:connector-curvature="0" />
      <path
         style="opacity:0.12999998;color:#bebebe;fill:#ffffff;fill-opacity:1;fill-rule:nonzero;stroke:none;stroke-width:0;marker:none;visibility:visible;display:inline;overflow:visible;enable-background:accumulate"
         d="m 419,141 c -1.1253,0 -2,0.8747 -2,2 l 0,1 c 0,-1.1253 0.8747,-2 2,-2 l 10,0 c 1.1253,0 2,0.8747 2,2 l 0,-1 c 0,-1.1253 -0.8747,-2 -2,-2 l -10,0 z"
         id="rect3896"
         inkscape:connector-curvature="0" />
      <path
         style="opacity:0.12999998;color:#bebebe;fill:#ffffff;fill-opacity:1;fill-rule:nonzero;stroke:none;stroke-width:0;marker:none;visibility:visible;display:inline;overflow:visible;enable-background:accumulate"
         d="m 422,102 c -2.2333,0 -4,1.7667 -4,4 l 0,1 c 0,-2.2333 1.7667,-4 4,-4 l 12,0 c 2.2333,0 4,1.7667 4,4 l 0,-1 c 0,-2.2333 -1.7667,-4 -4,-4 l -12,0 z"
         id="rect3898"
         inkscape:connector-curvature="0" />
      <path
         style="opacity:0.12999998;color:#bebebe;fill:#ffffff;fill-opacity:1;fill-rule:nonzero;stroke:none;stroke-width:0;marker:none;visibility:visible;display:inline;overflow:visible;enable-background:accumulate"
         d="m 424,54 c -3.3413,0 -6,2.658703 -6,6 l 0,1 c 0,-3.341297 2.6587,-6 6,-6 l 16,0 c 3.3413,0 6,2.658703 6,6 l 0,-1 c 0,-3.341297 -2.6587,-6 -6,-6 l -16,0 z"
         id="rect3900"
         inkscape:connector-curvature="0" />
      <path
         style="opacity:0.12999998;color:#bebebe;fill:#ffffff;fill-opacity:1;fill-rule:nonzero;stroke:none;stroke-width:0;marker:none;visibility:visible;display:inline;overflow:visible;enable-background:accumulate"
         d="m 300,224 c -4.4493,0 -8,3.5507 -8,8 l 0,1 c 0,-4.4493 3.5507,-8 8,-8 l 24,0 c 4.4493,0 8,3.5507 8,8 l 0,-1 c 0,-4.4493 -3.5507,-8 -8,-8 l -24,0 z"
         id="rect3902"
         inkscape:connector-curvature="0" />
      <path
         style="opacity:0.12999998;color:#bebebe;fill:#ffffff;fill-opacity:1;fill-rule:nonzero;stroke:none;stroke-width:0;marker:none;visibility:visible;display:inline;overflow:visible;enable-background:accumulate"
         d="m 310,33 c -9.4353,0 -17,7.564703 -17,17 l 0,1 c 0,-9.435297 7.5647,-17 17,-17 l 52,0 c 9.4353,0 17,7.564703 17,17 l 0,-1 c 0,-9.435297 -7.5647,-17 -17,-17 l -52,0 z"
         id="rect3904"
         inkscape:connector-curvature="0" />
      <path
         style="opacity:0.12999998;color:#bebebe;fill:#ffffff;fill-opacity:1;fill-rule:nonzero;stroke:none;stroke-width:0;marker:none;visibility:visible;display:inline;overflow:visible;enable-background:accumulate"
         d="m 302.5,143 c -6.3883,0 -11.5,5.1117 -11.5,11.5 l 0,1 c 0,-6.3883 5.1117,-11.5 11.5,-11.5 l 35,0 c 6.3883,0 11.5,5.1117 11.5,11.5 l 0,-1 c 0,-6.3883 -5.1117,-11.5 -11.5,-11.5 l -35,0 z"
         id="rect3906"
         inkscape:connector-curvature="0" />
      <path
         id="path4085"
         d="m 204,266 c 27.1633,0 49,-21.8367 49,-49 l 0,-1 c 0,27.1633 -21.8367,49 -49,49 L 84,265 C 56.8367,265 35,243.1633 35,216 l 0,1 c 0,27.1633 21.8367,49 49,49 l 120,0 z"
         style="opacity:0.5;color:#bebebe;fill:#000000;fill-opacity:1;fill-rule:nonzero;stroke:none;stroke-width:0;marker:none;visibility:visible;display:inline;overflow:visible;enable-background:accumulate"
         inkscape:connector-curvature="0" />
      <path
         id="path4087"
         d="m 429,156 c 1.1253,0 2,-0.8747 2,-2 l 0,-1 c 0,1.1253 -0.8747,2 -2,2 l -10,0 c -1.1253,0 -2,-0.8747 -2,-2 l 0,1 c 0,1.1253 0.8747,2 2,2 l 10,0 z"
         style="opacity:0.3;color:#bebebe;fill:#000000;fill-opacity:1;fill-rule:nonzero;stroke:none;stroke-width:0;marker:none;visibility:visible;display:inline;overflow:visible;enable-background:accumulate"
         inkscape:connector-curvature="0" />
      <path
         id="path4089"
         d="m 434,123 c 2.2333,0 4,-1.7667 4,-4 l 0,-1 c 0,2.2333 -1.7667,4 -4,4 l -12,0 c -2.2333,0 -4,-1.7667 -4,-4 l 0,1 c 0,2.2333 1.7667,4 4,4 l 12,0 z"
         style="opacity:0.3;color:#bebebe;fill:#000000;fill-opacity:1;fill-rule:nonzero;stroke:none;stroke-width:0;marker:none;visibility:visible;display:inline;overflow:visible;enable-background:accumulate"
         inkscape:connector-curvature="0" />
      <path
         id="path4091"
         d="m 440,83 c 3.3413,0 6,-2.6587 6,-6 l 0,-1 c 0,3.3413 -2.6587,6 -6,6 l -16,0 c -3.3413,0 -6,-2.6587 -6,-6 l 0,1 c 0,3.3413 2.6587,6 6,6 l 16,0 z"
         style="opacity:0.5;color:#bebebe;fill:#000000;fill-opacity:1;fill-rule:nonzero;stroke:none;stroke-width:0;marker:none;visibility:visible;display:inline;overflow:visible;enable-background:accumulate"
         inkscape:connector-curvature="0" />
      <path
         id="path4093"
         d="m 324,265 c 4.4493,0 8,-3.5507 8,-8 l 0,-1 c 0,4.4493 -3.5507,8 -8,8 l -24,0 c -4.4493,0 -8,-3.5507 -8,-8 l 0,1 c 0,4.4493 3.5507,8 8,8 l 24,0 z"
         style="opacity:0.5;color:#bebebe;fill:#000000;fill-opacity:1;fill-rule:nonzero;stroke:none;stroke-width:0;marker:none;visibility:visible;display:inline;overflow:visible;enable-background:accumulate"
         inkscape:connector-curvature="0" />
      <path
         id="path4095"
         d="m 362,120 c 9.4353,0 17,-7.5647 17,-17 l 0,-1 c 0,9.4353 -7.5647,17 -17,17 l -52,0 c -9.4353,0 -17,-7.5647 -17,-17 l 0,1 c 0,9.4353 7.5647,17 17,17 l 52,0 z"
         style="opacity:0.5;color:#bebebe;fill:#000000;fill-opacity:1;fill-rule:nonzero;stroke:none;stroke-width:0;marker:none;visibility:visible;display:inline;overflow:visible;enable-background:accumulate"
         inkscape:connector-curvature="0" />
      <path
         id="path4097"
         d="m 337.5,202 c 6.3883,0 11.5,-5.1117 11.5,-11.5 l 0,-1 c 0,6.3883 -5.1117,11.5 -11.5,11.5 l -35,0 c -6.3883,0 -11.5,-5.1117 -11.5,-11.5 l 0,1 c 0,6.3883 5.1117,11.5 11.5,11.5 l 35,0 z"
         style="opacity:0.5;color:#bebebe;fill:#000000;fill-opacity:1;fill-rule:nonzero;stroke:none;stroke-width:0;marker:none;visibility:visible;display:inline;overflow:visible;enable-background:accumulate"
         inkscape:connector-curvature="0" />
      <path
         inkscape:connector-curvature="0"
         id="path4280"
         d="M 84,265 C 56.836703,265 35,243.1633 35,216 l 0,-1 c 0,27.1633 21.836703,49 49,49 l 120,0 c 27.1633,0 49,-21.8367 49,-49 l 0,1 c 0,27.1633 -21.8367,49 -49,49 l -120,0 z"
         style="opacity:0.1;color:#bebebe;fill:#ffffff;fill-opacity:1;fill-rule:nonzero;stroke:none;stroke-width:0;marker:none;visibility:visible;display:inline;overflow:visible;enable-background:accumulate" />
      <path
         style="opacity:0.1;color:#bebebe;fill:#ffffff;fill-opacity:1;fill-rule:nonzero;stroke:none;stroke-width:0;marker:none;visibility:visible;display:inline;overflow:visible;enable-background:accumulate"
         d="m 300,264 c -4.4493,0 -8,-3.5507 -8,-8 l 0,-1 c 0,4.4493 3.5507,8 8,8 l 24,0 c 4.4493,0 8,-3.5507 8,-8 l 0,1 c 0,4.4493 -3.5507,8 -8,8 l -24,0 z"
         id="path4294"
         inkscape:connector-curvature="0" />
      <path
         style="opacity:0.1;color:#bebebe;fill:#ffffff;fill-opacity:1;fill-rule:nonzero;stroke:none;stroke-width:0;marker:none;visibility:visible;display:inline;overflow:visible;enable-background:accumulate"
         d="m 302.5,201 c -6.3883,0 -11.5,-5.1117 -11.5,-11.5 l 0,-1 c 0,6.3883 5.1117,11.5 11.5,11.5 l 35,0 c 6.3883,0 11.5,-5.1117 11.5,-11.5 l 0,1 c 0,6.3883 -5.1117,11.5 -11.5,11.5 l -35,0 z"
         id="path4296"
         inkscape:connector-curvature="0" />
      <path
         style="opacity:0.1;color:#bebebe;fill:#ffffff;fill-opacity:1;fill-rule:nonzero;stroke:none;stroke-width:0;marker:none;visibility:visible;display:inline;overflow:visible;enable-background:accumulate"
         d="m 310,119 c -9.4353,0 -17,-7.5647 -17,-17 l 0,-1 c 0,9.4353 7.5647,17 17,17 l 52,0 c 9.4353,0 17,-7.5647 17,-17 l 0,1 c 0,9.4353 -7.5647,17 -17,17 l -52,0 z"
         id="path4298"
         inkscape:connector-curvature="0" />
      <path
         style="opacity:0.1;color:#bebebe;fill:#ffffff;fill-opacity:1;fill-rule:nonzero;stroke:none;stroke-width:0;marker:none;visibility:visible;display:inline;overflow:visible;enable-background:accumulate"
         d="m 424,82 c -3.3413,0 -6,-2.658703 -6,-6 l 0,-1 c 0,3.341297 2.6587,6 6,6 l 16,0 c 3.3413,0 6,-2.658703 6,-6 l 0,1 c 0,3.341297 -2.6587,6 -6,6 l -16,0 z"
         id="path4300"
         inkscape:connector-curvature="0" />
      <path
         style="opacity:0.1;color:#bebebe;fill:#ffffff;fill-opacity:1;fill-rule:nonzero;stroke:none;stroke-width:0;marker:none;visibility:visible;display:inline;overflow:visible;enable-background:accumulate"
         d="m 422,122 c -2.2333,0 -4,-1.7667 -4,-4 l 0,-1 c 0,2.2333 1.7667,4 4,4 l 12,0 c 2.2333,0 4,-1.7667 4,-4 l 0,1 c 0,2.2333 -1.7667,4 -4,4 l -12,0 z"
         id="path4302"
         inkscape:connector-curvature="0" />
      <path
         style="opacity:0.1;color:#bebebe;fill:#ffffff;fill-opacity:1;fill-rule:nonzero;stroke:none;stroke-width:0;marker:none;visibility:visible;display:inline;overflow:visible;enable-background:accumulate"
         d="m 419,154.5 c -1.1253,0 -2,-0.8747 -2,-2 l 0,-1 c 0,1.1253 0.8747,2 2,2 l 10,0 c 1.1253,0 2,-0.8747 2,-2 l 0,1 c 0,1.1253 -0.8747,2 -2,2 l -10,0 z"
         id="path4304"
         inkscape:connector-curvature="0" />
    </g>
    <g
       inkscape:groupmode="layer"
       id="layer3"
       inkscape:label="Border"
       style="display:inline"
       sodipodi:insensitive="true">
      <path
         style="opacity:0.41000001;color:#bebebe;fill:#000000;fill-opacity:1;fill-rule:nonzero;stroke:none;stroke-width:0;marker:none;visibility:visible;display:inline;overflow:visible;enable-background:accumulate"
         d="m 422,101 c -2.77,0 -5,2.23 -5,5 l 0,12 c 0,2.77 2.23,5 5,5 l 12,0 c 2.77,0 5,-2.23 5,-5 l 0,-12 c 0,-2.77 -2.23,-5 -5,-5 l -12,0 z m 0,1 12,0 c 2.2333,0 4,1.7667 4,4 l 0,12 c 0,2.2333 -1.7667,4 -4,4 l -12,0 c -2.2333,0 -4,-1.7667 -4,-4 l 0,-12 c 0,-2.2333 1.7667,-4 4,-4 z"
         id="rect4099"
         inkscape:connector-curvature="0" />
      <path
         style="opacity:0.41000001;color:#bebebe;fill:#000000;fill-opacity:1;fill-rule:nonzero;stroke:none;stroke-width:0;marker:none;visibility:visible;display:inline;overflow:visible;enable-background:accumulate"
         d="m 424,53 c -3.878,0 -7,3.122 -7,7 l 0,16 c 0,3.878 3.122,7 7,7 l 16,0 c 3.878,0 7,-3.122 7,-7 l 0,-16 c 0,-3.878 -3.122,-7 -7,-7 l -16,0 z m 0,1 16,0 c 3.3413,0 6,2.658703 6,6 l 0,16 c 0,3.341297 -2.6587,6 -6,6 l -16,0 c -3.3413,0 -6,-2.658703 -6,-6 l 0,-16 c 0,-3.341297 2.6587,-6 6,-6 z"
         id="rect4151"
         inkscape:connector-curvature="0" />
      <path
         style="opacity:0.41000001;color:#bebebe;fill:#000000;fill-opacity:1;fill-rule:nonzero;stroke:none;stroke-width:0;marker:none;visibility:visible;display:inline;overflow:visible;enable-background:accumulate"
         d="m 419,140 c -1.662,0 -3,1.338 -3,3 l 0,10 c 0,1.662 1.338,3 3,3 l 10,0 c 1.662,0 3,-1.338 3,-3 l 0,-10 c 0,-1.662 -1.338,-3 -3,-3 l -10,0 z m 0,1 10,0 c 1.1253,0 2,0.8747 2,2 l 0,10 c 0,1.1253 -0.8747,2 -2,2 l -10,0 c -1.1253,0 -2,-0.8747 -2,-2 l 0,-10 c 0,-1.1253 0.8747,-2 2,-2 z"
         id="rect4095"
         inkscape:connector-curvature="0" />
      <path
         style="opacity:0.41000001;color:#bebebe;fill:#000000;fill-opacity:1;fill-rule:nonzero;stroke:none;stroke-width:0;marker:none;visibility:visible;display:inline;overflow:visible;enable-background:accumulate"
         d="m 300,223 c -4.986,0 -9,4.014 -9,9 l 0,24 c 0,4.986 4.014,9 9,9 l 24,0 c 4.986,0 9,-4.014 9,-9 l 0,-24 c 0,-4.986 -4.014,-9 -9,-9 l -24,0 z m 0,1 24,0 c 4.4493,0 8,3.5507 8,8 l 0,24 c 0,4.4493 -3.5507,8 -8,8 l -24,0 c -4.4493,0 -8,-3.5507 -8,-8 l 0,-24 c 0,-4.4493 3.5507,-8 8,-8 z"
         id="rect4783"
         inkscape:connector-curvature="0" />
      <path
         style="opacity:0.41000001;color:#bebebe;fill:#000000;fill-opacity:1;fill-rule:nonzero;stroke:none;stroke-width:0;marker:none;visibility:visible;display:inline;overflow:visible;enable-background:accumulate"
         d="m 302.5,142 c -6.925,0 -12.5,5.575 -12.5,12.5 l 0,35 c 0,6.925 5.575,12.5 12.5,12.5 l 35,0 c 6.925,0 12.5,-5.575 12.5,-12.5 l 0,-35 c 0,-6.925 -5.575,-12.5 -12.5,-12.5 l -35,0 z m 0,1 35,0 c 6.3883,0 11.5,5.1117 11.5,11.5 l 0,35 c 0,6.3883 -5.1117,11.5 -11.5,11.5 l -35,0 c -6.3883,0 -11.5,-5.1117 -11.5,-11.5 l 0,-35 c 0,-6.3883 5.1117,-11.5 11.5,-11.5 z"
         id="rect4515"
         inkscape:connector-curvature="0" />
      <path
         style="opacity:0.41000001;color:#bebebe;fill:#000000;fill-opacity:1;fill-rule:nonzero;stroke:none;stroke-width:0;marker:none;visibility:visible;display:inline;overflow:visible;enable-background:accumulate"
         d="m 310,32 c -9.972,0 -18,8.028 -18,18 l 0,52 c 0,9.972 8.028,18 18,18 l 52,0 c 9.972,0 18,-8.028 18,-18 l 0,-52 c 0,-9.972 -8.028,-18 -18,-18 l -52,0 z m 0,1 52,0 c 9.4353,0 17,7.564703 17,17 l 0,52 c 0,9.4353 -7.5647,17 -17,17 l -52,0 c -9.4353,0 -17,-7.5647 -17,-17 l 0,-52 c 0,-9.435297 7.5647,-17 17,-17 z"
         id="rect4511"
         inkscape:connector-curvature="0" />
      <path
         style="opacity:0.41000001;color:#bebebe;fill:#000000;fill-opacity:1;fill-rule:nonzero;stroke:none;stroke-width:0;marker:none;visibility:visible;display:inline;overflow:visible;enable-background:accumulate"
         d="M 84,46 C 56.3,46 34,68.3 34,96 l 0,120 c 0,27.7 22.3,50 50,50 l 120,0 c 27.7,0 50,-22.3 50,-50 L 254,96 C 254,68.3 231.7,46 204,46 L 84,46 z m 0,1 120,0 c 27.1633,0 49,21.836703 49,49 l 0,120 c 0,27.1633 -21.8367,49 -49,49 L 84,265 C 56.836703,265 35,243.1633 35,216 L 35,96 C 35,68.836703 56.836703,47 84,47 z"
         id="rect4040"
         inkscape:connector-curvature="0" />
    </g>
  </g>
</svg>
