<?xml version="1.0" encoding="UTF-8" standalone="no"?>
<!-- Created with Inkscape (http://www.inkscape.org/) -->

<svg
   xmlns:dc="http://purl.org/dc/elements/1.1/"
   xmlns:cc="http://creativecommons.org/ns#"
   xmlns:rdf="http://www.w3.org/1999/02/22-rdf-syntax-ns#"
   xmlns:svg="http://www.w3.org/2000/svg"
   xmlns="http://www.w3.org/2000/svg"
   xmlns:xlink="http://www.w3.org/1999/xlink"
   xmlns:sodipodi="http://sodipodi.sourceforge.net/DTD/sodipodi-0.dtd"
   xmlns:inkscape="http://www.inkscape.org/namespaces/inkscape"
   inkscape:export-ydpi="90.000000"
   inkscape:export-xdpi="90.000000"
   width="480"
   height="300"
   id="svg11300"
   sodipodi:version="0.32"
   inkscape:version="0.48.4 r9939"
   sodipodi:docname="half-life2.svg"
   inkscape:output_extension="org.inkscape.output.svg.inkscape"
   version="1.0"
   style="display:inline;enable-background:new"
   inkscape:export-filename="/home/sam/moka-next-kazam.png">
  <sodipodi:namedview
     stroke="#ef2929"
     fill="#f57900"
     id="base"
     pagecolor="#777777"
     bordercolor="#666666"
     borderopacity="0.25490196"
     inkscape:pageopacity="0"
     inkscape:pageshadow="2"
     inkscape:zoom="1"
     inkscape:cx="421.62278"
     inkscape:cy="239.87947"
     inkscape:current-layer="layer7"
     showgrid="false"
     inkscape:grid-bbox="true"
     inkscape:document-units="px"
     inkscape:showpageshadow="false"
     inkscape:window-width="1364"
     inkscape:window-height="700"
     inkscape:window-x="0"
     inkscape:window-y="28"
     width="400px"
     height="300px"
     inkscape:snap-nodes="true"
     inkscape:snap-bbox="true"
     gridtolerance="10000"
     inkscape:object-nodes="true"
     inkscape:snap-grids="true"
     showguides="true"
     inkscape:guide-bbox="true"
     inkscape:window-maximized="1"
     inkscape:bbox-nodes="true"
     inkscape:bbox-paths="true"
     inkscape:snap-bbox-edge-midpoints="true"
     inkscape:snap-bbox-midpoints="true">
    <inkscape:grid
       spacingy="1px"
       spacingx="1px"
       id="grid5883"
       type="xygrid"
       enabled="true"
       visible="true"
       empspacing="4"
       snapvisiblegridlinesonly="true"
       dotted="false"
       color="#000000"
       opacity="0.1254902"
       empcolor="#203ef3"
       empopacity="0.36470588" />
    <inkscape:grid
       type="xygrid"
       id="grid11592"
       empspacing="8"
       visible="true"
       enabled="false"
       spacingx="0.5px"
       spacingy="0.5px"
       color="#ff0000"
       opacity="0.1254902"
       empcolor="#ff0000"
       empopacity="0.25098039"
       snapvisiblegridlinesonly="true"
       dotted="true" />
  </sodipodi:namedview>
  <defs
     id="defs3">
    <linearGradient
       inkscape:collect="always"
       xlink:href="#outerBackgroundGradient-25"
       id="linearGradient10164"
       gradientUnits="userSpaceOnUse"
       gradientTransform="matrix(0,-1,1,0,-12,300)"
       x1="35"
       y1="156"
       x2="253"
       y2="156" />
    <linearGradient
       inkscape:collect="always"
       xlink:href="#outerBackgroundGradient-25"
       id="linearGradient10166"
       gradientUnits="userSpaceOnUse"
       gradientTransform="matrix(0,-1,1,0,276,572)"
       x1="417"
       y1="148"
       x2="431"
       y2="148" />
    <linearGradient
       inkscape:collect="always"
       xlink:href="#outerBackgroundGradient-25"
       id="linearGradient10168"
       gradientUnits="userSpaceOnUse"
       gradientTransform="matrix(0,-1,1,0,316,540)"
       x1="418"
       y1="112"
       x2="438"
       y2="112" />
    <linearGradient
       inkscape:collect="always"
       xlink:href="#outerBackgroundGradient-25"
       id="linearGradient10170"
       gradientUnits="userSpaceOnUse"
       gradientTransform="matrix(0,-1,1,0,364,500)"
       x1="418"
       y1="68"
       x2="446"
       y2="68" />
    <linearGradient
       inkscape:collect="always"
       xlink:href="#outerBackgroundGradient-25"
       id="linearGradient10172"
       gradientUnits="userSpaceOnUse"
       gradientTransform="matrix(0,-1,1,0,68,556)"
       x1="292"
       y1="244"
       x2="332"
       y2="244" />
    <linearGradient
       inkscape:collect="always"
       xlink:href="#outerBackgroundGradient-25"
       id="linearGradient10174"
       gradientUnits="userSpaceOnUse"
       gradientTransform="matrix(0,-1,1,0,260,412)"
       x1="293"
       y1="76"
       x2="379"
       y2="76" />
    <linearGradient
       inkscape:collect="always"
       xlink:href="#outerBackgroundGradient-25"
       id="linearGradient10176"
       gradientUnits="userSpaceOnUse"
       gradientTransform="matrix(0,-1,1,0,148,492)"
       x1="291"
       y1="172"
       x2="349"
       y2="172" />
    <linearGradient
       id="outerBackgroundGradient-25">
      <stop
         style="stop-color:#222222;stop-opacity:1;"
         offset="0"
         id="stop3864-8-6-65" />
      <stop
         style="stop-color:#424242;stop-opacity:1;"
         offset="1"
         id="stop3866-9-1-0" />
    </linearGradient>
  </defs>
  <metadata
     id="metadata4">
    <rdf:RDF>
      <cc:Work
         rdf:about="">
        <dc:format>image/svg+xml</dc:format>
        <dc:type
           rdf:resource="http://purl.org/dc/dcmitype/StillImage" />
        <dc:creator>
          <cc:Agent>
            <dc:title>Sam Hewitt</dc:title>
          </cc:Agent>
        </dc:creator>
        <dc:source />
        <cc:license
           rdf:resource="" />
        <dc:title />
        <dc:subject>
          <rdf:Bag />
        </dc:subject>
        <dc:date />
        <dc:rights>
          <cc:Agent>
            <dc:title />
          </cc:Agent>
        </dc:rights>
        <dc:publisher>
          <cc:Agent>
            <dc:title />
          </cc:Agent>
        </dc:publisher>
        <dc:identifier />
        <dc:relation />
        <dc:language />
        <dc:coverage />
        <dc:description />
        <dc:contributor>
          <cc:Agent>
            <dc:title />
          </cc:Agent>
        </dc:contributor>
      </cc:Work>
      <cc:Work
         rdf:about="">
        <dc:format>image/svg+xml</dc:format>
        <dc:type
           rdf:resource="http://purl.org/dc/dcmitype/StillImage" />
      </cc:Work>
    </rdf:RDF>
  </metadata>
  <g
     style="display:inline"
     inkscape:groupmode="layer"
     inkscape:label="Icon"
     id="layer1">
    <g
       style="display:none"
       inkscape:label="Baseplate"
       id="layer7"
       inkscape:groupmode="layer">
      <text
         y="19.745117"
         xml:space="preserve"
         x="15.006836"
         style="font-style:normal;font-variant:normal;font-weight:normal;font-stretch:normal;line-height:0%;font-family:'DejaVu Sans';-inkscape-font-specification:'DejaVu Sans';display:inline;fill:#000000;fill-opacity:1;stroke:none;enable-background:new"
         inkscape:label="context"
         id="context"><tspan
           style="font-style:normal;font-variant:normal;font-weight:normal;font-stretch:normal;font-size:18px;line-height:1.25;font-family:'DejaVu Sans';-inkscape-font-specification:'DejaVu Sans'"
           y="19.745117"
           x="15.006836"
           sodipodi:role="line"
           id="tspan3933">apps</tspan></text>
      <text
         y="19.745117"
         xml:space="preserve"
         x="122.48828"
         style="font-style:normal;font-variant:normal;font-weight:bold;font-stretch:normal;line-height:0%;font-family:'DejaVu Sans';-inkscape-font-specification:'DejaVu Sans Bold';text-align:start;writing-mode:lr-tb;text-anchor:start;display:inline;fill:#000000;fill-opacity:1;stroke:none;enable-background:new"
         inkscape:label="icon-name"
         id="icon-name"><tspan
           style="font-style:normal;font-variant:normal;font-weight:bold;font-stretch:normal;font-size:18px;line-height:1.25;font-family:'DejaVu Sans';-inkscape-font-specification:'DejaVu Sans Bold'"
           y="19.745117"
           x="122.48828"
           sodipodi:role="line"
           id="tspan3937">half-life2</tspan></text>
      <rect
         style="fill:#eeeeec;fill-opacity:1;fill-rule:nonzero;stroke:none;stroke-width:2;marker:none;visibility:visible;display:inline;overflow:visible;enable-background:accumulate"
         id="rect16x16"
         width="16"
         height="16"
         x="416"
         y="140"
         inkscape:label="16x16" />
      <rect
         style="fill:#d4d4d4;fill-opacity:1;fill-rule:nonzero;stroke:none;stroke-width:2;marker:none;visibility:visible;display:inline;overflow:visible;enable-background:accumulate"
         id="rect24x24"
         width="24"
         height="24"
         x="416"
         y="100"
         inkscape:label="24x24" />
      <rect
         style="fill:#eeeeec;fill-opacity:1;fill-rule:nonzero;stroke:none;stroke-width:2;marker:none;visibility:visible;display:inline;overflow:visible;enable-background:accumulate"
         id="rect32x32"
         width="32"
         height="32"
         x="416"
         y="52"
         inkscape:label="32x32" />
      <rect
         inkscape:label="22x22"
         y="101"
         x="417"
         height="22"
         width="22"
         id="rect22x22"
         style="fill:#eeeeec;fill-opacity:1;fill-rule:nonzero;stroke:none;stroke-width:2;marker:none;visibility:visible;display:inline;overflow:visible;enable-background:accumulate" />
      <rect
         inkscape:label="48x48"
         y="220"
         x="288"
         height="48"
         width="48"
         id="rect48x48"
         style="fill:#eeeeec;fill-opacity:1;fill-rule:nonzero;stroke:none;stroke-width:2;marker:none;visibility:visible;display:inline;overflow:visible;enable-background:accumulate" />
      <rect
         style="fill:#eeeeec;fill-opacity:1;fill-rule:nonzero;stroke:none;stroke-width:2;marker:none;visibility:visible;display:inline;overflow:visible;enable-background:accumulate"
         id="rect256x256"
         width="256"
         height="256"
         x="16"
         y="28"
         inkscape:label="256x256" />
      <rect
         style="fill:#eeeeec;fill-opacity:1;fill-rule:nonzero;stroke:none;stroke-width:2;marker:none;visibility:visible;display:inline;overflow:visible;enable-background:accumulate"
         id="rect64x64"
         width="64"
         height="64"
         x="288"
         y="140"
         inkscape:label="64x64" />
      <rect
         style="fill:#eeeeec;fill-opacity:1;fill-rule:nonzero;stroke:none;stroke-width:2;marker:none;visibility:visible;display:inline;overflow:visible;enable-background:accumulate"
         id="rect96x96"
         width="96"
         height="96"
         x="288"
         y="28"
         inkscape:label="96x96" />
    </g>
    <g
       inkscape:groupmode="layer"
       id="layer4"
       inkscape:label="Shadow"
       style="display:inline"
       sodipodi:insensitive="true">
      <rect
         ry="50"
         y="47"
         x="34"
         height="220"
         width="220"
         id="rect4114"
         style="opacity:0.1;color:#bebebe;fill:#000000;fill-opacity:1;fill-rule:nonzero;stroke:none;stroke-width:0;marker:none;visibility:visible;display:inline;overflow:visible;enable-background:accumulate" />
      <rect
         style="opacity:0.1;color:#bebebe;fill:#000000;fill-opacity:1;fill-rule:nonzero;stroke:none;stroke-width:0;marker:none;visibility:visible;display:inline;overflow:visible;enable-background:accumulate"
         id="rect4120"
         width="30"
         height="30"
         x="417"
         y="54"
         ry="7" />
      <rect
         transform="scale(1,-1)"
         ry="9"
         y="-266"
         x="291"
         height="42"
         width="42"
         id="rect4122"
         style="opacity:0.1;color:#bebebe;fill:#000000;fill-opacity:1;fill-rule:nonzero;stroke:none;stroke-width:0;marker:none;visibility:visible;display:inline;overflow:visible;enable-background:accumulate" />
      <rect
         style="opacity:0.1;color:#bebebe;fill:#000000;fill-opacity:1;fill-rule:nonzero;stroke:none;stroke-width:0;marker:none;visibility:visible;display:inline;overflow:visible;enable-background:accumulate"
         id="rect4124"
         width="88"
         height="88"
         x="292"
         y="33"
         ry="18" />
      <rect
         ry="12.5"
         y="143"
         x="290"
         height="60"
         width="60"
         id="rect4126"
         style="opacity:0.1;color:#bebebe;fill:#000000;fill-opacity:1;fill-rule:nonzero;stroke:none;stroke-width:0;marker:none;visibility:visible;display:inline;overflow:visible;enable-background:accumulate" />
      <path
         id="path4268"
         d="m 422,101 c -2.77,0 -5,2.23 -5,5 l 0,12 c 0,2.77 2.23,5 5,5 l 12,0 c 2.77,0 5,-2.23 5,-5 l 0,-12 c 0,-2.77 -2.23,-5 -5,-5 z"
         style="opacity:0.1;color:#bebebe;fill:#000000;fill-opacity:1;fill-rule:nonzero;stroke:none;stroke-width:0;marker:none;visibility:visible;display:inline;overflow:visible;enable-background:accumulate"
         inkscape:connector-curvature="0"
         sodipodi:nodetypes="sssssssss" />
      <path
         id="path4270"
         d="m 419,140 c -1.662,0 -3,1.338 -3,3 l 0,10 c 0,1.662 1.338,3 3,3 l 10,0 c 1.662,0 3,-1.338 3,-3 l 0,-10 c 0,-1.662 -1.338,-3 -3,-3 z"
         style="opacity:0.1;color:#bebebe;fill:#000000;fill-opacity:1;fill-rule:nonzero;stroke:none;stroke-width:0;marker:none;visibility:visible;display:inline;overflow:visible;enable-background:accumulate"
         inkscape:connector-curvature="0"
         sodipodi:nodetypes="sssssssss" />
    </g>
    <g
       inkscape:groupmode="layer"
       id="layer2"
       inkscape:label="Background"
       style="display:inline">
      <path
         style="color:#bebebe;fill:url(#linearGradient10164);fill-opacity:1.0;fill-rule:nonzero;stroke:none;stroke-width:2;marker:none;visibility:visible;display:inline;overflow:visible;enable-background:accumulate"
         d="M 84 46.5 C 56.568735 46.5 34.5 68.568732 34.5 96 L 34.5 216 C 34.5 243.43127 56.568735 265.5 84 265.5 L 204 265.5 C 231.43127 265.5 253.5 243.43127 253.5 216 L 253.5 96 C 253.5 68.568732 231.43127 46.5 204 46.5 L 84 46.5 z "
         id="path4200" />
      <path
         style="color:#bebebe;fill:url(#linearGradient10166);fill-opacity:1.0;fill-rule:nonzero;stroke:none;stroke-width:2;marker:none;visibility:visible;display:inline;overflow:visible;enable-background:accumulate"
         d="M 419 140.5 C 417.6156 140.5 416.5 141.6156 416.5 143 L 416.5 153 C 416.5 154.3844 417.6156 155.5 419 155.5 L 429 155.5 C 430.3844 155.5 431.5 154.3844 431.5 153 L 431.5 143 C 431.5 141.6156 430.3844 140.5 429 140.5 L 419 140.5 z "
         id="path4202" />
      <path
         style="color:#bebebe;fill:url(#linearGradient10168);fill-opacity:1.0;fill-rule:nonzero;stroke:none;stroke-width:2;marker:none;visibility:visible;display:inline;overflow:visible;enable-background:accumulate"
         d="M 422 101.5 C 419.50301 101.5 417.5 103.50301 417.5 106 L 417.5 118 C 417.5 120.49699 419.50301 122.5 422 122.5 L 434 122.5 C 436.49699 122.5 438.5 120.49699 438.5 118 L 438.5 106 C 438.5 103.50301 436.49699 101.5 434 101.5 L 422 101.5 z "
         id="path4204" />
      <path
         style="color:#bebebe;fill:url(#linearGradient10170);fill-opacity:1.0;fill-rule:nonzero;stroke:none;stroke-width:2;marker:none;visibility:visible;display:inline;overflow:visible;enable-background:accumulate"
         d="M 424 53.5 C 420.39346 53.5 417.5 56.393464 417.5 60 L 417.5 76 C 417.5 79.606536 420.39346 82.5 424 82.5 L 440 82.5 C 443.60654 82.5 446.5 79.606536 446.5 76 L 446.5 60 C 446.5 56.393464 443.60654 53.5 440 53.5 L 424 53.5 z "
         id="path4206" />
      <path
         style="color:#bebebe;fill:url(#linearGradient10172);fill-opacity:1.0;fill-rule:nonzero;stroke:none;stroke-width:2;marker:none;visibility:visible;display:inline;overflow:visible;enable-background:accumulate"
         d="M 300 223.5 C 295.28469 223.5 291.5 227.28469 291.5 232 L 291.5 256 C 291.5 260.71531 295.28469 264.5 300 264.5 L 324 264.5 C 328.71531 264.5 332.5 260.71531 332.5 256 L 332.5 232 C 332.5 227.28469 328.71531 223.5 324 223.5 L 300 223.5 z "
         id="path4208" />
      <path
         style="color:#bebebe;fill:url(#linearGradient10174);fill-opacity:1.0;fill-rule:nonzero;stroke:none;stroke-width:2;marker:none;visibility:visible;display:inline;overflow:visible;enable-background:accumulate"
         d="M 310 32.5 C 300.29745 32.5 292.5 40.297452 292.5 50 L 292.5 102 C 292.5 111.70255 300.29745 119.5 310 119.5 L 362 119.5 C 371.70255 119.5 379.5 111.70255 379.5 102 L 379.5 50 C 379.5 40.297452 371.70255 32.5 362 32.5 L 310 32.5 z "
         id="path4210" />
      <path
         style="color:#bebebe;fill:url(#linearGradient10176);fill-opacity:1.0;fill-rule:nonzero;stroke:none;stroke-width:2;marker:none;visibility:visible;display:inline;overflow:visible;enable-background:accumulate"
         d="M 302.5 142.5 C 295.84498 142.5 290.5 147.84498 290.5 154.5 L 290.5 189.5 C 290.5 196.15502 295.84498 201.5 302.5 201.5 L 337.5 201.5 C 344.15502 201.5 349.5 196.15502 349.5 189.5 L 349.5 154.5 C 349.5 147.84498 344.15502 142.5 337.5 142.5 L 302.5 142.5 z "
         id="path4212" />
    </g>
    <g
       inkscape:groupmode="layer"
       id="layer6"
       inkscape:label="Symbols"
       style="display:inline">
      <path
         id="path11222"
         d="m 191.77178,90.434411 c -7.23933,0.02377 -14.97947,0.514291 -21.6572,0.514291 -14.9029,0 -29.52374,-0.527776 -42.45726,0.428572 C 107.67509,92.854761 92.856652,101.58186 82.614336,112.6059 72.151682,123.86764 64,139.81397 64,159.37745 c 0,20.39366 7.915335,35.63416 18.614336,46.77156 10.17832,10.59477 25.246814,19.95823 44.185834,21.22863 34.93038,2.34104 58.17959,-17.21798 68.42876,-42.0144 6.65511,-16.10244 14.70084,-35.4593 21.65721,-52.40014 2.10195,-5.11818 6.23464,-11.62323 6.92859,-17.75719 1.3824,-12.22496 -5.15659,-19.272856 -13.42861,-22.528638 -4.64345,-1.827664 -11.375,-2.266631 -18.61434,-2.242861 z m 6.18573,7.800026 c 4.89858,-0.21058 10.02053,3.131013 9.40003,9.600023 -0.70537,7.35499 -8.05443,12.50072 -11.25717,17.32862 l 11.25717,0 c 0.67657,0.99337 0.67657,4.20709 0,5.20001 -5.65167,-0.55589 -11.95855,-0.46205 -18.18576,-0.44285 -2.65099,-9.72209 13.7742,-16.24291 12.11432,-24.24294 -0.7831,-3.77326 -6.16174,-3.89567 -5.18573,1.72858 l -6.50002,0 c -0.11251,-6.03173 4.03489,-8.985643 8.35716,-9.171443 z m -65.02875,5.742863 c 16.67946,0.0557 28.7218,6.66236 37.18582,14.25719 10.62175,9.531 20.44965,28.9483 16.88576,50.24299 -2.90972,17.38427 -12.67581,31.2034 -28.58579,39.84297 -17.31297,9.40254 -39.05428,7.99739 -54.57159,-1.3 -14.974663,-8.97237 -29.070246,-26.36396 -26.857207,-53.71444 1.176687,-14.54267 7.499901,-24.63961 15.60004,-32.91438 7.547447,-7.71065 18.152737,-14.43627 32.914377,-16.01433 2.57573,-0.27543 5.04581,-0.40796 7.42859,-0.4 z m -19.12862,14.68576 0,11.70003 9.97145,0 c 0.95589,3.3751 2.70835,5.94597 3.45715,9.5286 -8.54493,14.58427 -18.33548,30.48122 -26.84292,44.60012 -1.100808,1.82675 -2.73578,4.01521 -2.600008,6.07144 l 14.714328,0 c 7.49853,-10.69214 13.94792,-22.43297 21.6572,-32.91437 4.28207,12.17603 9.38608,23.52692 13.42861,35.94296 8.19887,-2.0503 16.4797,-4.01316 23.38577,-7.35717 -1.94789,-3.24983 -2.25634,-8.14687 -4.32858,-11.27146 -3.26767,1.35177 -6.65464,2.59739 -10.40003,3.47144 -7.00025,-20.42976 -15.51364,-39.34273 -22.51434,-59.77159 l -19.92863,0 z"
         style="opacity:0.2;fill:#000000;fill-opacity:1;display:inline;enable-background:new"
         inkscape:connector-curvature="0" />
      <path
         inkscape:connector-curvature="0"
         style="opacity:0.2;fill:#000000;fill-opacity:1;display:inline;enable-background:new"
         d="m 353.91442,53.501073 c -2.71475,0.009 -5.61731,0.19286 -8.12145,0.19286 -5.58859,0 -11.07141,-0.19791 -15.92147,0.16072 -7.49334,0.55405 -13.05026,3.82672 -16.89112,7.96073 C 309.05688,66.038542 306,72.018412 306,79.354712 c 0,7.64763 2.96825,13.36281 6.98038,17.53934 3.81687,3.973038 9.46755,7.484328 16.56968,7.960728 13.09889,0.87789 21.81735,-6.456738 25.66079,-15.755388 2.49566,-6.03842 5.51281,-13.29724 8.12145,-19.65006 0.78823,-1.91931 2.33799,-4.35871 2.59822,-6.658939 0.5184,-4.58436 -1.93372,-7.22733 -5.03573,-8.44824 -1.74129,-0.68538 -4.26562,-0.84999 -6.98037,-0.84108 z m 2.31964,2.92501 c 1.83697,-0.079 3.7577,1.17414 3.52502,3.60001 -0.26452,2.75812 -3.02042,4.687769 -4.22144,6.498239 l 4.22144,0 c 0.25371,0.37251 0.25371,1.57765 0,1.95 -2.11938,-0.20846 -4.48446,-0.17327 -6.81966,-0.16607 -0.99413,-3.64578 5.16532,-6.091089 4.54287,-9.091099 -0.29367,-1.41497 -2.31066,-1.46088 -1.94465,0.64822 l -2.43751,0 c -0.0422,-2.2619 1.51308,-3.36962 3.13393,-3.4393 z m -24.38577,2.15358 c 6.25479,0.0209 10.77067,2.49838 13.94468,5.346439 3.98315,3.57413 7.66861,10.85562 6.33216,18.84113 -1.09115,6.5191 -4.75343,11.70127 -10.71967,14.94111 -6.49237,3.525948 -14.64536,2.999018 -20.46435,-0.4875 -5.6155,-3.36464 -10.90134,-9.88649 -10.07145,-20.14292 0.44126,-5.4535 2.81246,-9.23985 5.85001,-12.34289 2.8303,-2.891489 6.80728,-5.413599 12.34289,-6.005369 0.9659,-0.10329 1.89218,-0.15299 2.78573,-0.15 z m -7.17324,5.507159 0,4.38751 3.7393,0 c 0.35846,1.26566 1.01563,2.22974 1.29643,3.57322 -3.20435,5.46911 -6.87581,11.43046 -10.0661,16.72505 -0.4128,0.68503 -1.02591,1.5057 -0.975,2.27679 l 5.51787,0 c 2.81195,-4.00955 5.23047,-8.41236 8.12145,-12.34289 1.60578,4.56601 3.51978,8.8226 5.03573,13.47861 3.07458,-0.76886 6.17989,-1.50493 8.76966,-2.75894 -0.73046,-1.21868 -0.84612,-3.05507 -1.62321,-4.2268 -1.22538,0.50692 -2.49549,0.97403 -3.90001,1.30179 -2.6251,-7.66116 -5.81762,-14.75352 -8.44288,-22.41434 l -7.47324,0 z"
         id="path11224" />
      <path
         id="path11226"
         d="m 331.94295,155.85915 c -1.80984,0.006 -3.74488,0.12857 -5.4143,0.12857 -3.72573,0 -7.38094,-0.13194 -10.61432,0.10715 -4.99556,0.36937 -8.70017,2.55115 -11.26074,5.30715 -2.61567,2.81544 -4.65359,6.80202 -4.65359,11.69289 0,5.09842 1.97883,8.90854 4.65359,11.69289 2.54458,2.6487 6.3117,4.98956 11.04645,5.30716 8.73259,0.58526 14.5449,-4.3045 17.10719,-10.5036 1.66378,-4.02561 3.67521,-8.86482 5.4143,-13.10004 0.52549,-1.27954 1.55866,-2.9058 1.73215,-4.43929 0.3456,-3.05624 -1.28915,-4.81822 -3.35715,-5.63216 -1.16086,-0.45692 -2.84375,-0.56666 -4.65358,-0.56072 z m 1.54642,1.95001 c 1.22465,-0.0527 2.50514,0.78276 2.35002,2.4 -0.17635,1.83875 -2.01362,3.12518 -2.8143,4.33216 l 2.8143,0 c 0.16914,0.24834 0.16914,1.05177 0,1.3 -1.41292,-0.13897 -2.98964,-0.11551 -4.54644,-0.11071 -0.66276,-2.43052 3.44354,-4.06073 3.02858,-6.06073 -0.19578,-0.94332 -1.54044,-0.97392 -1.29644,0.43214 l -1.625,0 c -0.0281,-1.50793 1.00872,-2.24641 2.08928,-2.29286 z m -16.25718,1.43572 c 4.16986,0.0139 7.18045,1.66558 9.29646,3.56429 2.65543,2.38275 5.1124,7.23708 4.22144,12.56075 -0.72744,4.34607 -3.16896,7.80085 -7.14645,9.96074 -4.32825,2.35064 -9.76357,1.99935 -13.6429,-0.325 -3.74367,-2.24309 -7.26756,-6.59099 -6.7143,-13.42861 0.29417,-3.63567 1.87497,-6.1599 3.90001,-8.22859 1.88686,-1.92766 4.53818,-3.60907 8.22859,-4.00358 0.64393,-0.0689 1.26145,-0.102 1.85715,-0.1 z m -4.78216,3.67144 0,2.925 2.49287,0 c 0.23897,0.84378 0.67709,1.4865 0.86429,2.38215 -2.13624,3.64607 -4.58388,7.62031 -6.71074,11.15003 -0.2752,0.45669 -0.68394,1.0038 -0.65,1.51786 l 3.67858,0 c 1.87464,-2.67303 3.48698,-5.60824 5.4143,-8.22859 1.07052,3.04401 2.34652,5.88173 3.35716,8.98574 2.04972,-0.51257 4.11992,-1.00329 5.84644,-1.83929 -0.48698,-0.81246 -0.56408,-2.03672 -1.08214,-2.81787 -0.81692,0.33795 -1.66366,0.64935 -2.60001,0.86786 -1.75007,-5.10744 -3.87841,-9.83568 -5.62859,-14.94289 l -4.98216,0 z"
         style="opacity:0.2;fill:#000000;fill-opacity:1;display:inline;enable-background:new"
         inkscape:connector-curvature="0" />
      <path
         inkscape:connector-curvature="0"
         style="opacity:0.2;fill:#000000;fill-opacity:1;display:inline;enable-background:new"
         d="m 320.36007,233.00163 c -1.26689,0.004 -2.62142,0.09 -3.79001,0.09 -2.60802,0 -5.16666,-0.0924 -7.43003,0.075 -3.49689,0.25856 -6.09012,1.7858 -7.88252,3.715 -1.83097,1.97081 -3.25751,4.76142 -3.25751,8.18503 0,3.56889 1.38518,6.23598 3.25751,8.18502 1.78121,1.85409 4.41819,3.49269 7.73252,3.71501 6.11281,0.40969 10.18143,-3.01315 11.97503,-7.35252 1.16465,-2.81792 2.57265,-6.20537 3.79001,-9.17003 0.36785,-0.89567 1.09106,-2.03406 1.21251,-3.1075 0.24192,-2.13937 -0.90241,-3.37275 -2.35001,-3.94251 -0.8126,-0.31984 -1.99062,-0.39666 -3.2575,-0.3925 z m 1.08249,1.365 c 0.85725,-0.0369 1.7536,0.54793 1.64501,1.68 -0.12344,1.28713 -1.40953,2.18763 -1.97001,3.03251 l 1.97001,0 c 0.1184,0.17384 0.1184,0.73624 0,0.91 -0.98904,-0.0973 -2.09274,-0.0809 -3.1825,-0.0775 -0.46394,-1.70137 2.41047,-2.84251 2.12,-4.24251 -0.13704,-0.66033 -1.07831,-0.68175 -0.90751,0.30249 l -1.1375,0 c -0.0197,-1.05555 0.70611,-1.57248 1.4625,-1.605 z m -11.38003,1.00501 c 2.91891,0.01 5.02632,1.1659 6.50753,2.495 1.8588,1.66792 3.57868,5.06596 2.955,8.79252 -0.5092,3.04225 -2.21827,5.4606 -5.00251,6.97252 -3.02978,1.64545 -6.8345,1.39955 -9.55003,-0.2275 -2.62057,-1.57016 -5.08729,-4.61369 -4.70001,-9.40002 0.20592,-2.54497 1.31248,-4.31193 2.73001,-5.76002 1.3208,-1.34936 3.17672,-2.52635 5.76001,-2.8025 0.45075,-0.0482 0.88301,-0.0714 1.3,-0.07 z m -3.34751,2.57 0,2.0475 1.74501,0 c 0.16728,0.59065 0.47396,1.04055 0.605,1.66751 -1.49536,2.55225 -3.20871,5.33422 -4.69751,7.80502 -0.19264,0.31968 -0.47876,0.70266 -0.455,1.0625 l 2.575,0 c 1.31225,-1.87112 2.44089,-3.92577 3.79001,-5.76001 0.74937,2.13081 1.64257,4.11721 2.35001,6.29002 1.43481,-0.3588 2.88395,-0.7023 4.09251,-1.2875 -0.34088,-0.56873 -0.39485,-1.42571 -0.7575,-1.97251 -0.57184,0.23656 -1.16456,0.45454 -1.82,0.6075 -1.22505,-3.57521 -2.71489,-6.88498 -3.94002,-10.46003 l -3.48751,0 z"
         id="path11228" />
      <path
         id="path11230"
         d="m 437.97147,60.429944 c -0.90491,0.003 -1.87243,0.06429 -2.70715,0.06429 -1.86286,0 -3.69047,-0.06597 -5.30715,0.05357 -2.49778,0.184683 -4.35009,1.275573 -5.63038,2.653577 C 423.01896,64.6091 422,66.60239 422,69.047823 c 0,2.54921 0.98942,4.45427 2.32679,5.846447 1.27229,1.32435 3.15585,2.49478 5.52323,2.65358 4.3663,0.29263 7.27245,-2.15225 8.5536,-5.2518 0.83188,-2.012807 1.8376,-4.432413 2.70715,-6.55002 0.26274,-0.63977 0.77933,-1.452904 0.86607,-2.219647 0.1728,-1.528119 -0.64457,-2.409109 -1.67858,-2.816079 -0.58043,-0.22846 -1.42187,-0.28333 -2.32679,-0.28036 z m 0.77322,0.975003 c 0.61232,-0.02633 1.25256,0.39138 1.175,1.200004 -0.0882,0.919372 -1.0068,1.562589 -1.40714,2.166079 l 1.40714,0 c 0.0846,0.12417 0.0846,0.525883 0,0.65 -0.70646,-0.06949 -1.49482,-0.05776 -2.27322,-0.05536 -0.33137,-1.21526 1.72178,-2.030362 1.51429,-3.030366 -0.0979,-0.471656 -0.77022,-0.48696 -0.64821,0.216074 l -0.81251,0 c -0.0141,-0.753967 0.50436,-1.123207 1.04465,-1.146434 z m -8.12859,0.71786 c 2.08493,0.007 3.59022,0.832794 4.64822,1.782146 1.32772,1.191377 2.55621,3.61854 2.11072,6.280377 -0.36371,2.173033 -1.58447,3.90042 -3.57322,4.98037 -2.16412,1.17532 -4.88179,0.99967 -6.82145,-0.1625 -1.87183,-1.12155 -3.63378,-3.295497 -3.35715,-6.714307 0.14709,-1.817833 0.93749,-3.07995 1.95,-4.114297 0.94344,-0.963829 2.2691,-1.804532 4.1143,-2.001789 0.32197,-0.03443 0.63073,-0.051 0.92858,-0.05 z m -2.39108,1.835719 0,1.462504 1.24643,0 c 0.11949,0.421887 0.33854,0.743247 0.43214,1.191073 -1.06811,1.823037 -2.29193,3.810154 -3.35536,5.575017 -0.1376,0.228343 -0.34197,0.5019 -0.325,0.75893 l 1.83929,0 c 0.93731,-1.336517 1.74349,-2.80412 2.70715,-4.114297 0.53526,1.522004 1.17326,2.940867 1.67857,4.49287 1.02486,-0.256286 2.05997,-0.501643 2.92322,-0.919646 -0.24348,-0.406227 -0.28204,-1.018357 -0.54107,-1.408934 -0.40846,0.168974 -0.83183,0.324677 -1.3,0.43393 -0.87503,-2.55372 -1.93921,-4.91784 -2.81429,-7.471447 l -2.49108,0 z"
         style="opacity:0.2;fill:#000000;fill-opacity:1;display:inline;enable-background:new"
         inkscape:connector-curvature="0" />
      <path
         inkscape:connector-curvature="0"
         style="opacity:0.2;fill:#000000;fill-opacity:1;display:inline;enable-background:new"
         d="m 432.18003,107.00118 c -0.63344,0.002 -1.3107,0.045 -1.89501,0.045 -1.304,0 -2.58332,-0.0462 -3.715,0.0375 -1.74845,0.12927 -3.04506,0.8929 -3.94127,1.8575 -0.91548,0.98541 -1.62875,2.38071 -1.62875,4.09251 0,1.78445 0.69259,3.11799 1.62875,4.09252 0.89061,0.92704 2.2091,1.74634 3.86626,1.8575 3.05641,0.20484 5.09072,-1.50657 5.98752,-3.67626 0.58232,-1.40896 1.28632,-3.10269 1.89501,-4.58501 0.18392,-0.44784 0.54553,-1.01704 0.60625,-1.55376 0.12096,-1.06968 -0.4512,-1.68637 -1.17501,-1.97125 -0.4063,-0.15992 -0.99531,-0.19833 -1.62875,-0.19625 z m 0.54125,0.6825 c 0.42863,-0.0184 0.8768,0.27396 0.8225,0.84 -0.0617,0.64356 -0.70476,1.09381 -0.98499,1.51626 l 0.98499,0 c 0.0592,0.0869 0.0592,0.36812 0,0.455 -0.49452,-0.0486 -1.04637,-0.0404 -1.59125,-0.0387 -0.23196,-0.85069 1.20525,-1.42126 1.06,-2.12126 -0.0685,-0.33016 -0.53915,-0.34087 -0.45374,0.15125 l -0.56876,0 c -0.01,-0.52778 0.35305,-0.78624 0.73125,-0.8025 z m -5.69001,0.5025 c 1.45945,0.005 2.51315,0.58296 3.25375,1.2475 0.92941,0.83397 1.78935,2.53298 1.47751,4.39627 -0.2546,1.52112 -1.10913,2.73029 -2.50126,3.48626 -1.51488,0.82272 -3.41725,0.69977 -4.77501,-0.11375 -1.31028,-0.78509 -2.54365,-2.30685 -2.35001,-4.70002 0.10297,-1.27248 0.65625,-2.15596 1.365,-2.88001 0.66041,-0.67468 1.58837,-1.26317 2.88001,-1.40125 0.22538,-0.0241 0.44152,-0.0357 0.65001,-0.035 z m -1.67376,1.285 0,1.02376 0.87251,0 c 0.0836,0.29532 0.23697,0.52027 0.30249,0.83375 -0.74767,1.27612 -1.60435,2.66711 -2.34875,3.90251 -0.0963,0.15984 -0.23938,0.35133 -0.2275,0.53125 l 1.2875,0 c 0.65612,-0.93556 1.22045,-1.96288 1.89501,-2.88001 0.37468,1.06541 0.82128,2.05861 1.175,3.14501 0.7174,-0.1794 1.44198,-0.35115 2.04625,-0.64375 -0.17043,-0.28436 -0.19743,-0.71285 -0.37875,-0.98625 -0.28592,0.11828 -0.58228,0.22727 -0.91,0.30375 -0.61252,-1.78761 -1.35744,-3.44249 -1.97,-5.23002 l -1.74376,0 z"
         id="path11232" />
      <path
         id="path11234"
         d="m 427.58288,143.85827 c -0.54295,0.002 -1.12346,0.0386 -1.62429,0.0386 -1.11772,0 -2.21428,-0.0396 -3.18429,0.0321 -1.49867,0.11081 -2.61005,0.76535 -3.37823,1.59215 -0.7847,0.84463 -1.39607,2.04061 -1.39607,3.50786 0,1.52953 0.59365,2.67256 1.39607,3.50788 0.76338,0.7946 1.89352,1.49686 3.31394,1.59214 2.61978,0.17558 4.36347,-1.29135 5.13216,-3.15108 0.49913,-1.20768 1.10256,-2.65945 1.62429,-3.93001 0.15765,-0.38386 0.4676,-0.87175 0.51964,-1.33179 0.10368,-0.91687 -0.38674,-1.44546 -1.00715,-1.68965 -0.34825,-0.13707 -0.85312,-0.16999 -1.39607,-0.16821 z m 0.46393,0.585 c 0.3674,-0.0158 0.75154,0.23482 0.705,0.72 -0.0529,0.55162 -0.60408,0.93755 -0.84428,1.29965 l 0.84428,0 c 0.0507,0.0745 0.0507,0.31553 0,0.39 -0.42387,-0.0417 -0.89689,-0.0346 -1.36393,-0.0332 -0.19882,-0.72916 1.03307,-1.21822 0.90857,-1.81822 -0.0587,-0.283 -0.46213,-0.29218 -0.38892,0.12964 l -0.48751,0 c -0.009,-0.45238 0.30262,-0.67392 0.62679,-0.68786 z m -4.87715,0.43071 c 1.25096,0.004 2.15413,0.49968 2.78893,1.06929 0.79663,0.71483 1.53373,2.17113 1.26643,3.76823 -0.21822,1.30382 -0.95068,2.34025 -2.14393,2.98822 -1.29847,0.70519 -2.92907,0.59981 -4.09287,-0.0975 -1.12309,-0.67293 -2.18027,-1.9773 -2.01429,-4.02858 0.0883,-1.0907 0.5625,-1.84797 1.17,-2.46858 0.56606,-0.5783 1.36146,-1.08272 2.46858,-1.20108 0.19318,-0.0206 0.37844,-0.0306 0.55715,-0.03 z m -1.43465,1.10143 0,0.87751 0.74786,0 c 0.0717,0.25313 0.20312,0.44595 0.25928,0.71464 -0.64086,1.09382 -1.37516,2.2861 -2.01321,3.34501 -0.0826,0.13701 -0.20519,0.30114 -0.195,0.45536 l 1.10357,0 c 0.56239,-0.80191 1.0461,-1.68247 1.62429,-2.46858 0.32116,0.91321 0.70396,1.76452 1.00715,2.69572 0.61491,-0.15377 1.23598,-0.30098 1.75392,-0.55178 -0.14608,-0.24374 -0.16922,-0.61102 -0.32464,-0.84536 -0.24507,0.10138 -0.4991,0.1948 -0.78,0.26036 -0.52502,-1.53224 -1.16352,-2.95071 -1.68857,-4.48288 l -1.49465,0 z"
         style="opacity:0.2;fill:#000000;fill-opacity:1;display:inline;enable-background:new"
         inkscape:connector-curvature="0" />
      <path
         inkscape:connector-curvature="0"
         style="fill:#efa30d;fill-opacity:1;display:inline;enable-background:new"
         d="m 191.77178,89.434407 c -7.23933,0.02377 -14.97947,0.514291 -21.6572,0.514291 -14.9029,0 -29.52374,-0.527776 -42.45726,0.428572 C 107.67509,91.854757 92.856652,100.58186 82.614336,111.6059 72.151682,122.86764 64,138.81397 64,158.37745 c 0,20.39366 7.915335,35.63416 18.614336,46.77156 10.17832,10.59477 25.246814,19.95823 44.185834,21.22863 34.93038,2.34104 58.17959,-17.21798 68.42876,-42.0144 6.65511,-16.10244 14.70084,-35.4593 21.65721,-52.40014 2.10195,-5.11818 6.23464,-11.62323 6.92859,-17.75719 1.3824,-12.22496 -5.15659,-19.27286 -13.42861,-22.528642 -4.64345,-1.827664 -11.375,-2.266631 -18.61434,-2.242861 z m 6.18573,7.800026 c 4.89858,-0.21058 10.02053,3.131017 9.40003,9.600027 -0.70537,7.35499 -8.05443,12.50072 -11.25717,17.32862 l 11.25717,0 c 0.67657,0.99337 0.67657,4.20709 0,5.20001 -5.65167,-0.55589 -11.95855,-0.46205 -18.18576,-0.44285 -2.65099,-9.72209 13.7742,-16.24291 12.11432,-24.24294 -0.7831,-3.77326 -6.16174,-3.89567 -5.18573,1.72858 l -6.50002,0 c -0.11251,-6.03173 4.03489,-8.985647 8.35716,-9.171447 z m -65.02875,5.742867 c 16.67946,0.0557 28.7218,6.66236 37.18582,14.25719 10.62175,9.531 20.44965,28.9483 16.88576,50.24299 -2.90972,17.38427 -12.67581,31.2034 -28.58579,39.84297 -17.31297,9.40254 -39.05428,7.99739 -54.57159,-1.3 -14.974663,-8.97237 -29.070246,-26.36396 -26.857207,-53.71444 1.176687,-14.54267 7.499901,-24.63961 15.60004,-32.91438 7.547447,-7.71065 18.152737,-14.43627 32.914377,-16.01433 2.57573,-0.27543 5.04581,-0.40796 7.42859,-0.4 z m -19.12862,14.68576 0,11.70003 9.97145,0 c 0.95589,3.3751 2.70835,5.94597 3.45715,9.5286 -8.54493,14.58427 -18.33548,30.48122 -26.84292,44.60012 -1.100808,1.82675 -2.73578,4.01521 -2.600008,6.07144 l 14.714328,0 c 7.49853,-10.69214 13.94792,-22.43297 21.6572,-32.91437 4.28207,12.17603 9.38608,23.52692 13.42861,35.94296 8.19887,-2.0503 16.4797,-4.01316 23.38577,-7.35717 -1.94789,-3.24983 -2.25634,-8.14687 -4.32858,-11.27146 -3.26767,1.35177 -6.65464,2.59739 -10.40003,3.47144 -7.00025,-20.42976 -15.51364,-39.34273 -22.51434,-59.77159 l -19.92863,0 z"
         id="path7" />
      <path
         id="path3091"
         d="m 353.91442,52.501069 c -2.71475,0.009 -5.61731,0.19286 -8.12145,0.19286 -5.58859,0 -11.07141,-0.19791 -15.92147,0.16072 -7.49334,0.55405 -13.05026,3.82672 -16.89112,7.96073 C 309.05688,65.038538 306,71.018408 306,78.354708 c 0,7.64763 2.96825,13.36281 6.98038,17.53934 3.81687,3.97304 9.46755,7.484332 16.56968,7.960732 13.09889,0.87789 21.81735,-6.456742 25.66079,-15.755392 2.49566,-6.03842 5.51281,-13.29724 8.12145,-19.65006 0.78823,-1.91931 2.33799,-4.35871 2.59822,-6.658939 0.5184,-4.58436 -1.93372,-7.22733 -5.03573,-8.44824 -1.74129,-0.68538 -4.26562,-0.84999 -6.98037,-0.84108 z m 2.31964,2.92501 c 1.83697,-0.079 3.7577,1.17414 3.52502,3.60001 -0.26452,2.75812 -3.02042,4.687769 -4.22144,6.498239 l 4.22144,0 c 0.25371,0.37251 0.25371,1.57765 0,1.95 -2.11938,-0.20846 -4.48446,-0.17327 -6.81966,-0.16607 -0.99413,-3.64578 5.16532,-6.091089 4.54287,-9.091099 -0.29367,-1.41497 -2.31066,-1.46088 -1.94465,0.64822 l -2.43751,0 c -0.0422,-2.2619 1.51308,-3.36962 3.13393,-3.4393 z m -24.38577,2.15358 c 6.25479,0.0209 10.77067,2.49838 13.94468,5.346439 3.98315,3.57413 7.66861,10.85562 6.33216,18.84113 -1.09115,6.5191 -4.75343,11.70127 -10.71967,14.94111 -6.49237,3.525952 -14.64536,2.99902 -20.46435,-0.4875 -5.6155,-3.36464 -10.90134,-9.88649 -10.07145,-20.14292 0.44126,-5.4535 2.81246,-9.23985 5.85001,-12.34289 2.8303,-2.891489 6.80728,-5.413599 12.34289,-6.005369 0.9659,-0.10329 1.89218,-0.15299 2.78573,-0.15 z m -7.17324,5.507159 0,4.38751 3.7393,0 c 0.35846,1.26566 1.01563,2.22974 1.29643,3.57322 -3.20435,5.46911 -6.87581,11.43046 -10.0661,16.72505 -0.4128,0.68503 -1.02591,1.5057 -0.975,2.27679 l 5.51787,0 c 2.81195,-4.00955 5.23047,-8.41236 8.12145,-12.34289 1.60578,4.56601 3.51978,8.8226 5.03573,13.47861 3.07458,-0.76886 6.17989,-1.50493 8.76966,-2.75894 -0.73046,-1.21868 -0.84612,-3.05507 -1.62321,-4.2268 -1.22538,0.50692 -2.49549,0.97403 -3.90001,1.30179 -2.6251,-7.66116 -5.81762,-14.75352 -8.44288,-22.41434 l -7.47324,0 z"
         style="fill:#efa30d;fill-opacity:1;display:inline;enable-background:new"
         inkscape:connector-curvature="0" />
      <path
         inkscape:connector-curvature="0"
         style="fill:#efa30d;fill-opacity:1;display:inline;enable-background:new"
         d="m 331.94295,154.85915 c -1.80984,0.006 -3.74488,0.12857 -5.4143,0.12857 -3.72573,0 -7.38094,-0.13194 -10.61432,0.10715 -4.99556,0.36937 -8.70017,2.55115 -11.26074,5.30715 -2.61567,2.81544 -4.65359,6.80202 -4.65359,11.69289 0,5.09842 1.97883,8.90854 4.65359,11.69289 2.54458,2.6487 6.3117,4.98956 11.04645,5.30716 8.73259,0.58526 14.5449,-4.3045 17.10719,-10.5036 1.66378,-4.02561 3.67521,-8.86482 5.4143,-13.10004 0.52549,-1.27954 1.55866,-2.9058 1.73215,-4.43929 0.3456,-3.05624 -1.28915,-4.81822 -3.35715,-5.63216 -1.16086,-0.45692 -2.84375,-0.56666 -4.65358,-0.56072 z m 1.54642,1.95001 c 1.22465,-0.0527 2.50514,0.78276 2.35002,2.4 -0.17635,1.83875 -2.01362,3.12518 -2.8143,4.33216 l 2.8143,0 c 0.16914,0.24834 0.16914,1.05177 0,1.3 -1.41292,-0.13897 -2.98964,-0.11551 -4.54644,-0.11071 -0.66276,-2.43052 3.44354,-4.06073 3.02858,-6.06073 -0.19578,-0.94332 -1.54044,-0.97392 -1.29644,0.43214 l -1.625,0 c -0.0281,-1.50793 1.00872,-2.24641 2.08928,-2.29286 z m -16.25718,1.43572 c 4.16986,0.0139 7.18045,1.66558 9.29646,3.56429 2.65543,2.38275 5.1124,7.23708 4.22144,12.56075 -0.72744,4.34607 -3.16896,7.80085 -7.14645,9.96074 -4.32825,2.35064 -9.76357,1.99935 -13.6429,-0.325 -3.74367,-2.24309 -7.26756,-6.59099 -6.7143,-13.42861 0.29417,-3.63567 1.87497,-6.1599 3.90001,-8.22859 1.88686,-1.92766 4.53818,-3.60907 8.22859,-4.00358 0.64393,-0.0689 1.26145,-0.102 1.85715,-0.1 z m -4.78216,3.67144 0,2.925 2.49287,0 c 0.23897,0.84378 0.67709,1.4865 0.86429,2.38215 -2.13624,3.64607 -4.58388,7.62031 -6.71074,11.15003 -0.2752,0.45669 -0.68394,1.0038 -0.65,1.51786 l 3.67858,0 c 1.87464,-2.67303 3.48698,-5.60824 5.4143,-8.22859 1.07052,3.04401 2.34652,5.88173 3.35716,8.98574 2.04972,-0.51257 4.11992,-1.00329 5.84644,-1.83929 -0.48698,-0.81246 -0.56408,-2.03672 -1.08214,-2.81787 -0.81692,0.33795 -1.66366,0.64935 -2.60001,0.86786 -1.75007,-5.10744 -3.87841,-9.83568 -5.62859,-14.94289 l -4.98216,0 z"
         id="path3093" />
      <path
         id="path3095"
         d="m 320.36007,232.00163 c -1.26689,0.004 -2.62142,0.09 -3.79001,0.09 -2.60802,0 -5.16666,-0.0924 -7.43003,0.075 -3.49689,0.25856 -6.09012,1.7858 -7.88252,3.715 -1.83097,1.97081 -3.25751,4.76142 -3.25751,8.18503 0,3.56889 1.38518,6.23598 3.25751,8.18502 1.78121,1.85409 4.41819,3.49269 7.73252,3.71501 6.11281,0.40969 10.18143,-3.01315 11.97503,-7.35252 1.16465,-2.81792 2.57265,-6.20537 3.79001,-9.17003 0.36785,-0.89567 1.09106,-2.03406 1.21251,-3.1075 0.24192,-2.13937 -0.90241,-3.37275 -2.35001,-3.94251 -0.8126,-0.31984 -1.99062,-0.39666 -3.2575,-0.3925 z m 1.08249,1.365 c 0.85725,-0.0369 1.7536,0.54793 1.64501,1.68 -0.12344,1.28713 -1.40953,2.18763 -1.97001,3.03251 l 1.97001,0 c 0.1184,0.17384 0.1184,0.73624 0,0.91 -0.98904,-0.0973 -2.09274,-0.0809 -3.1825,-0.0775 -0.46394,-1.70137 2.41047,-2.84251 2.12,-4.24251 -0.13704,-0.66033 -1.07831,-0.68175 -0.90751,0.30249 l -1.1375,0 c -0.0197,-1.05555 0.70611,-1.57248 1.4625,-1.605 z m -11.38003,1.00501 c 2.91891,0.01 5.02632,1.1659 6.50753,2.495 1.8588,1.66792 3.57868,5.06596 2.955,8.79252 -0.5092,3.04225 -2.21827,5.4606 -5.00251,6.97252 -3.02978,1.64545 -6.8345,1.39955 -9.55003,-0.2275 -2.62057,-1.57016 -5.08729,-4.61369 -4.70001,-9.40002 0.20592,-2.54497 1.31248,-4.31193 2.73001,-5.76002 1.3208,-1.34936 3.17672,-2.52635 5.76001,-2.8025 0.45075,-0.0482 0.88301,-0.0714 1.3,-0.07 z m -3.34751,2.57 0,2.0475 1.74501,0 c 0.16728,0.59065 0.47396,1.04055 0.605,1.66751 -1.49536,2.55225 -3.20871,5.33422 -4.69751,7.80502 -0.19264,0.31968 -0.47876,0.70266 -0.455,1.0625 l 2.575,0 c 1.31225,-1.87112 2.44089,-3.92577 3.79001,-5.76001 0.74937,2.13081 1.64257,4.11721 2.35001,6.29002 1.43481,-0.3588 2.88395,-0.7023 4.09251,-1.2875 -0.34088,-0.56873 -0.39485,-1.42571 -0.7575,-1.97251 -0.57184,0.23656 -1.16456,0.45454 -1.82,0.6075 -1.22505,-3.57521 -2.71489,-6.88498 -3.94002,-10.46003 l -3.48751,0 z"
         style="fill:#efa30d;fill-opacity:1;display:inline;enable-background:new"
         inkscape:connector-curvature="0" />
      <path
         inkscape:connector-curvature="0"
         style="fill:#efa30d;fill-opacity:1;display:inline;enable-background:new"
         d="m 437.97147,59.42994 c -0.90491,0.003 -1.87243,0.06429 -2.70715,0.06429 -1.86286,0 -3.69047,-0.06597 -5.30715,0.05357 -2.49778,0.184683 -4.35009,1.275573 -5.63038,2.653577 C 423.01896,63.609096 422,65.602386 422,68.047819 c 0,2.54921 0.98942,4.45427 2.32679,5.846447 1.27229,1.32435 3.15585,2.49478 5.52323,2.65358 4.3663,0.29263 7.27245,-2.15225 8.5536,-5.2518 0.83188,-2.012807 1.8376,-4.432413 2.70715,-6.55002 0.26274,-0.63977 0.77933,-1.452904 0.86607,-2.219647 0.1728,-1.528119 -0.64457,-2.409109 -1.67858,-2.816079 -0.58043,-0.22846 -1.42187,-0.28333 -2.32679,-0.28036 z m 0.77322,0.975003 c 0.61232,-0.02633 1.25256,0.39138 1.175,1.200004 -0.0882,0.919372 -1.0068,1.562589 -1.40714,2.166079 l 1.40714,0 c 0.0846,0.12417 0.0846,0.525883 0,0.65 -0.70646,-0.06949 -1.49482,-0.05776 -2.27322,-0.05536 -0.33137,-1.21526 1.72178,-2.030362 1.51429,-3.030366 -0.0979,-0.471656 -0.77022,-0.48696 -0.64821,0.216074 l -0.81251,0 c -0.0141,-0.753967 0.50436,-1.123207 1.04465,-1.146434 z m -8.12859,0.71786 c 2.08493,0.007 3.59022,0.832794 4.64822,1.782146 1.32772,1.191377 2.55621,3.61854 2.11072,6.280377 -0.36371,2.173033 -1.58447,3.90042 -3.57322,4.98037 -2.16412,1.17532 -4.88179,0.99967 -6.82145,-0.1625 -1.87183,-1.12155 -3.63378,-3.295497 -3.35715,-6.714307 0.14709,-1.817833 0.93749,-3.07995 1.95,-4.114297 0.94344,-0.963829 2.2691,-1.804532 4.1143,-2.001789 0.32197,-0.03443 0.63073,-0.051 0.92858,-0.05 z m -2.39108,1.835719 0,1.462504 1.24643,0 c 0.11949,0.421887 0.33854,0.743247 0.43214,1.191073 -1.06811,1.823037 -2.29193,3.810154 -3.35536,5.575017 -0.1376,0.228343 -0.34197,0.5019 -0.325,0.75893 l 1.83929,0 c 0.93731,-1.336517 1.74349,-2.80412 2.70715,-4.114297 0.53526,1.522004 1.17326,2.940867 1.67857,4.49287 1.02486,-0.256286 2.05997,-0.501643 2.92322,-0.919646 -0.24348,-0.406227 -0.28204,-1.018357 -0.54107,-1.408934 -0.40846,0.168974 -0.83183,0.324677 -1.3,0.43393 -0.87503,-2.55372 -1.93921,-4.91784 -2.81429,-7.471447 l -2.49108,0 z"
         id="path3097" />
      <path
         id="path3099"
         d="m 432.18003,106.00118 c -0.63344,0.002 -1.3107,0.045 -1.89501,0.045 -1.304,0 -2.58332,-0.0462 -3.715,0.0375 -1.74845,0.12927 -3.04506,0.8929 -3.94127,1.8575 -0.91548,0.98541 -1.62875,2.38071 -1.62875,4.09251 0,1.78445 0.69259,3.11799 1.62875,4.09252 0.89061,0.92704 2.2091,1.74634 3.86626,1.8575 3.05641,0.20484 5.09072,-1.50657 5.98752,-3.67626 0.58232,-1.40896 1.28632,-3.10269 1.89501,-4.58501 0.18392,-0.44784 0.54553,-1.01704 0.60625,-1.55376 0.12096,-1.06968 -0.4512,-1.68637 -1.17501,-1.97125 -0.4063,-0.15992 -0.99531,-0.19833 -1.62875,-0.19625 z m 0.54125,0.6825 c 0.42863,-0.0184 0.8768,0.27396 0.8225,0.84 -0.0617,0.64356 -0.70476,1.09381 -0.98499,1.51626 l 0.98499,0 c 0.0592,0.0869 0.0592,0.36812 0,0.455 -0.49452,-0.0486 -1.04637,-0.0404 -1.59125,-0.0387 -0.23196,-0.85069 1.20525,-1.42126 1.06,-2.12126 -0.0685,-0.33016 -0.53915,-0.34087 -0.45374,0.15125 l -0.56876,0 c -0.01,-0.52778 0.35305,-0.78624 0.73125,-0.8025 z m -5.69001,0.5025 c 1.45945,0.005 2.51315,0.58296 3.25375,1.2475 0.92941,0.83397 1.78935,2.53298 1.47751,4.39627 -0.2546,1.52112 -1.10913,2.73029 -2.50126,3.48626 -1.51488,0.82272 -3.41725,0.69977 -4.77501,-0.11375 -1.31028,-0.78509 -2.54365,-2.30685 -2.35001,-4.70002 0.10297,-1.27248 0.65625,-2.15596 1.365,-2.88001 0.66041,-0.67468 1.58837,-1.26317 2.88001,-1.40125 0.22538,-0.0241 0.44152,-0.0357 0.65001,-0.035 z m -1.67376,1.285 0,1.02376 0.87251,0 c 0.0836,0.29532 0.23697,0.52027 0.30249,0.83375 -0.74767,1.27612 -1.60435,2.66711 -2.34875,3.90251 -0.0963,0.15984 -0.23938,0.35133 -0.2275,0.53125 l 1.2875,0 c 0.65612,-0.93556 1.22045,-1.96288 1.89501,-2.88001 0.37468,1.06541 0.82128,2.05861 1.175,3.14501 0.7174,-0.1794 1.44198,-0.35115 2.04625,-0.64375 -0.17043,-0.28436 -0.19743,-0.71285 -0.37875,-0.98625 -0.28592,0.11828 -0.58228,0.22727 -0.91,0.30375 -0.61252,-1.78761 -1.35744,-3.44249 -1.97,-5.23002 l -1.74376,0 z"
         style="fill:#efa30d;fill-opacity:1;display:inline;enable-background:new"
         inkscape:connector-curvature="0" />
      <path
         inkscape:connector-curvature="0"
         style="fill:#efa30d;fill-opacity:1;display:inline;enable-background:new"
         d="m 427.58288,142.85827 c -0.54295,0.002 -1.12346,0.0386 -1.62429,0.0386 -1.11772,0 -2.21428,-0.0396 -3.18429,0.0321 -1.49867,0.11081 -2.61005,0.76535 -3.37823,1.59215 -0.7847,0.84463 -1.39607,2.04061 -1.39607,3.50786 0,1.52953 0.59365,2.67256 1.39607,3.50788 0.76338,0.7946 1.89352,1.49686 3.31394,1.59214 2.61978,0.17558 4.36347,-1.29135 5.13216,-3.15108 0.49913,-1.20768 1.10256,-2.65945 1.62429,-3.93001 0.15765,-0.38386 0.4676,-0.87175 0.51964,-1.33179 0.10368,-0.91687 -0.38674,-1.44546 -1.00715,-1.68965 -0.34825,-0.13707 -0.85312,-0.16999 -1.39607,-0.16821 z m 0.46393,0.585 c 0.3674,-0.0158 0.75154,0.23482 0.705,0.72 -0.0529,0.55162 -0.60408,0.93755 -0.84428,1.29965 l 0.84428,0 c 0.0507,0.0745 0.0507,0.31553 0,0.39 -0.42387,-0.0417 -0.89689,-0.0346 -1.36393,-0.0332 -0.19882,-0.72916 1.03307,-1.21822 0.90857,-1.81822 -0.0587,-0.283 -0.46213,-0.29218 -0.38892,0.12964 l -0.48751,0 c -0.009,-0.45238 0.30262,-0.67392 0.62679,-0.68786 z m -4.87715,0.43071 c 1.25096,0.004 2.15413,0.49968 2.78893,1.06929 0.79663,0.71483 1.53373,2.17113 1.26643,3.76823 -0.21822,1.30382 -0.95068,2.34025 -2.14393,2.98822 -1.29847,0.70519 -2.92907,0.59981 -4.09287,-0.0975 -1.12309,-0.67293 -2.18027,-1.9773 -2.01429,-4.02858 0.0883,-1.0907 0.5625,-1.84797 1.17,-2.46858 0.56606,-0.5783 1.36146,-1.08272 2.46858,-1.20108 0.19318,-0.0206 0.37844,-0.0306 0.55715,-0.03 z m -1.43465,1.10143 0,0.87751 0.74786,0 c 0.0717,0.25313 0.20312,0.44595 0.25928,0.71464 -0.64086,1.09382 -1.37516,2.2861 -2.01321,3.34501 -0.0826,0.13701 -0.20519,0.30114 -0.195,0.45536 l 1.10357,0 c 0.56239,-0.80191 1.0461,-1.68247 1.62429,-2.46858 0.32116,0.91321 0.70396,1.76452 1.00715,2.69572 0.61491,-0.15377 1.23598,-0.30098 1.75392,-0.55178 -0.14608,-0.24374 -0.16922,-0.61102 -0.32464,-0.84536 -0.24507,0.10138 -0.4991,0.1948 -0.78,0.26036 -0.52502,-1.53224 -1.16352,-2.95071 -1.68857,-4.48288 l -1.49465,0 z"
         id="path3101" />
      <path
         style="fill:#ffffff;fill-opacity:1;display:inline;enable-background:new;opacity:0.4"
         d="M 191.78125 89.4375 C 184.54192 89.46127 176.80273 89.9375 170.125 89.9375 C 155.2221 89.9375 140.58977 89.418652 127.65625 90.375 C 107.67402 91.852487 92.867316 100.56971 82.625 111.59375 C 72.162346 122.85549 64 138.81152 64 158.375 C 64 158.54344 63.998923 158.70726 64 158.875 C 64.138813 139.54192 72.252481 123.75847 82.625 112.59375 C 92.867316 101.56971 107.67402 92.852487 127.65625 91.375 C 140.58977 90.418652 155.2221 90.9375 170.125 90.9375 C 176.80273 90.9375 184.54192 90.46127 191.78125 90.4375 C 199.02059 90.41373 205.73155 90.859836 210.375 92.6875 C 217.61302 95.536309 223.53015 101.29171 223.96875 110.875 C 223.90631 100.69334 217.85994 94.633497 210.375 91.6875 C 205.73155 89.859836 199.02059 89.41373 191.78125 89.4375 z M 198.53125 102 C 197.16139 101.91016 195.85297 102.98137 196 105.5 C 196.42882 101.87858 200.6001 102.40548 201.28125 105.6875 C 201.33312 105.9375 201.35732 106.19025 201.375 106.4375 C 201.43579 105.85828 201.40441 105.28109 201.28125 104.6875 C 200.93864 103.0367 199.71611 102.07771 198.53125 102 z M 207.375 106.1875 C 207.36702 106.4034 207.36518 106.62037 207.34375 106.84375 C 206.63838 114.19874 199.29649 119.32835 196.09375 124.15625 L 196.8125 124.15625 C 200.278 119.61051 206.68675 114.69443 207.34375 107.84375 C 207.39916 107.26607 207.40693 106.715 207.375 106.1875 z M 189.625 106.40625 C 189.60437 106.7309 189.58732 107.06155 189.59375 107.40625 L 196.09375 107.40625 C 196.03275 107.05473 196.01403 106.71338 196 106.40625 L 189.625 106.40625 z M 113.8125 117.65625 L 113.8125 118.65625 L 133.71875 118.65625 C 140.71945 139.08511 149.24975 158.00774 156.25 178.4375 C 159.99539 177.56345 163.38858 176.32052 166.65625 174.96875 C 168.56814 177.85156 168.98063 182.22284 170.5625 185.4375 C 170.69625 185.37424 170.83601 185.31427 170.96875 185.25 C 169.02086 182.00017 168.72849 177.09334 166.65625 173.96875 C 163.38858 175.32052 159.99539 176.56345 156.25 177.4375 C 149.24975 157.00774 140.71945 138.08511 133.71875 117.65625 L 113.8125 117.65625 z M 207.84375 127.25 C 207.79825 128.12132 207.62786 128.95804 207.34375 129.375 C 201.69208 128.81911 195.38346 128.88705 189.15625 128.90625 C 189.01347 128.38262 188.94416 127.88079 188.90625 127.375 C 188.86196 128.20399 188.91691 129.02852 189.15625 129.90625 C 195.38346 129.88705 201.69208 129.81911 207.34375 130.375 C 207.73621 129.79904 207.9066 128.45365 207.84375 127.25 z M 127.0625 139.1875 C 118.5554 153.6972 108.82955 169.46888 100.375 183.5 C 99.274192 185.32675 97.645478 187.50627 97.78125 189.5625 L 97.84375 189.5625 C 98.155349 187.80958 99.449898 186.03517 100.375 184.5 C 108.88244 170.3811 118.67382 154.49052 127.21875 139.90625 C 127.16773 139.66215 127.12227 139.42278 127.0625 139.1875 z M 187.75 158.3125 C 187.76024 161.31003 187.51914 164.36679 187 167.46875 C 184.09028 184.85302 174.31623 198.67293 158.40625 207.3125 C 141.09328 216.71504 119.36106 215.32864 103.84375 206.03125 C 90.272962 197.90004 77.423977 182.8564 76.78125 159.75 C 77.080558 183.41471 90.08101 198.78503 103.84375 207.03125 C 119.36106 216.32864 141.09328 217.71504 158.40625 208.3125 C 174.31623 199.67293 184.09028 185.85302 187 168.46875 C 187.57692 165.02158 187.8215 161.6273 187.75 158.3125 z "
         id="path11194" />
      <path
         style="fill:#ffffff;fill-opacity:1;display:inline;enable-background:new;opacity:0.4"
         d="M 353.90625 52.5 C 351.1915 52.509 348.28539 52.6875 345.78125 52.6875 C 340.19266 52.6875 334.72506 52.48512 329.875 52.84375 C 322.38166 53.3978 316.80961 56.67849 312.96875 60.8125 C 309.04525 65.035659 306 71.00745 306 78.34375 C 306 78.52031 305.99686 78.700495 306 78.875 C 306.1293 71.756574 309.13075 65.943634 312.96875 61.8125 C 316.80961 57.67849 322.38166 54.3978 329.875 53.84375 C 334.72506 53.48512 340.19266 53.6875 345.78125 53.6875 C 348.28539 53.6875 351.1915 53.509 353.90625 53.5 C 356.621 53.49109 359.16496 53.65837 360.90625 54.34375 C 363.57237 55.393101 365.76743 57.48869 366 60.96875 C 366.14639 56.896517 363.81438 54.488353 360.90625 53.34375 C 359.16496 52.65837 356.621 52.49109 353.90625 52.5 z M 356.25 57.21875 C 355.7548 57.294039 355.34825 57.82045 355.53125 58.875 L 353.21875 58.875 C 353.15032 59.177696 353.08701 59.513966 353.09375 59.875 L 355.53125 59.875 C 355.16799 57.781718 357.15186 57.803568 357.46875 59.1875 C 357.54606 58.868279 357.53729 58.549078 357.46875 58.21875 C 357.32191 57.511265 356.7452 57.143461 356.25 57.21875 z M 359.75 59.15625 C 359.41501 61.847003 356.71379 63.748633 355.53125 65.53125 L 356.3125 65.53125 C 357.6492 63.990654 359.53274 62.296627 359.75 60.03125 C 359.77909 59.728016 359.78384 59.422525 359.75 59.15625 z M 324.6875 63.09375 L 324.6875 64.09375 L 332.15625 64.09375 C 334.78151 71.75457 337.96865 78.83884 340.59375 86.5 C 341.99827 86.17224 343.27462 85.69442 344.5 85.1875 C 345.11817 86.119597 345.32651 87.465984 345.75 88.59375 C 345.87264 88.537604 346.00453 88.495832 346.125 88.4375 C 345.39454 87.21882 345.27709 85.35923 344.5 84.1875 C 343.27462 84.69442 341.99827 85.17224 340.59375 85.5 C 337.96865 77.83884 334.78151 70.75457 332.15625 63.09375 L 324.6875 63.09375 z M 352.875 66.9375 C 352.79127 67.377475 352.80739 67.835332 352.9375 68.3125 C 355.2727 68.3053 357.63062 68.26029 359.75 68.46875 C 359.92623 68.21011 359.97484 67.566609 359.90625 67.0625 C 359.87454 67.233664 359.81343 67.375663 359.75 67.46875 C 357.63062 67.26029 355.2727 67.3053 352.9375 67.3125 C 352.90347 67.187708 352.89282 67.05955 352.875 66.9375 z M 329.53125 71.375 C 326.36977 76.759964 322.7872 82.585137 319.65625 87.78125 C 319.24345 88.46628 318.60534 89.29141 318.65625 90.0625 L 318.90625 90.0625 C 319.11179 89.611649 319.41763 89.177231 319.65625 88.78125 C 322.84654 83.48666 326.5144 77.53161 329.71875 72.0625 C 329.66917 71.825264 329.60059 71.592325 329.53125 71.375 z M 310.8125 78.5625 C 310.58188 87.96688 315.59807 94.019523 320.9375 97.21875 C 326.75649 100.70527 334.91388 101.2447 341.40625 97.71875 C 347.37249 94.47891 351.03385 89.30035 352.125 82.78125 C 352.33566 81.522551 352.39538 80.274454 352.375 79.0625 C 352.34642 79.952517 352.27778 80.868344 352.125 81.78125 C 351.03385 88.30035 347.37249 93.47891 341.40625 96.71875 C 334.91388 100.2447 326.75649 99.70527 320.9375 96.21875 C 315.79003 93.13454 310.94941 87.397132 310.8125 78.5625 z "
         id="path11196" />
      <path
         style="fill:#ffffff;fill-opacity:1;display:inline;enable-background:new;opacity:0.4"
         d="M 331.9375 154.84375 C 330.12766 154.84975 328.20067 155 326.53125 155 C 322.80552 155 319.13963 154.85466 315.90625 155.09375 C 310.91069 155.46312 307.21682 157.65025 304.65625 160.40625 C 302.04058 163.22169 300 167.20288 300 172.09375 C 300 172.26668 300.02675 172.42377 300.03125 172.59375 C 300.16758 167.93616 302.13241 164.12285 304.65625 161.40625 C 307.21682 158.65025 310.91069 156.46312 315.90625 156.09375 C 319.13963 155.85466 322.80552 156 326.53125 156 C 328.20067 156 330.12766 155.84975 331.9375 155.84375 C 333.74733 155.83781 335.43289 155.94933 336.59375 156.40625 C 338.35298 157.09866 339.78902 158.50355 339.96875 160.78125 C 340.18168 157.90329 338.59533 156.19405 336.59375 155.40625 C 335.43289 154.94933 333.74733 154.83781 331.9375 154.84375 z M 333.5 158 C 333.16986 158.05019 332.90925 158.39072 333.03125 159.09375 L 331.5625 159.09375 C 331.44558 159.38164 331.399 159.70481 331.40625 160.09375 L 333.03125 160.09375 C 332.80391 158.78372 333.93327 158.73955 334.25 159.5 C 334.34564 159.22893 334.37112 158.93878 334.3125 158.65625 C 334.21461 158.18459 333.83014 157.94981 333.5 158 z M 335.78125 159.4375 C 335.48291 161.15506 333.79821 162.3751 333.03125 163.53125 L 333.875 163.53125 C 334.72102 162.59847 335.71588 161.55205 335.84375 160.21875 C 335.87102 159.93439 335.83463 159.67294 335.78125 159.4375 z M 312.4375 161.90625 L 312.4375 162.90625 L 317.4375 162.90625 C 319.18768 168.01346 321.31243 172.73631 323.0625 177.84375 C 323.99885 177.62524 324.83933 177.33795 325.65625 177 C 326.01703 177.54399 326.15457 178.2837 326.375 178.96875 C 326.49613 178.91471 326.63197 178.86965 326.75 178.8125 C 326.26302 178.00004 326.17431 176.78115 325.65625 176 C 324.83933 176.33795 323.99885 176.62524 323.0625 176.84375 C 321.31243 171.73631 319.18768 167.01346 317.4375 161.90625 L 312.4375 161.90625 z M 335.90625 164.6875 C 335.88908 164.74179 335.86771 164.80858 335.84375 164.84375 C 334.43083 164.70478 332.83805 164.71395 331.28125 164.71875 C 331.20677 165.03888 331.18587 165.36895 331.28125 165.71875 C 332.83805 165.71395 334.43083 165.70478 335.84375 165.84375 C 335.98893 165.63069 336.01029 165.01653 335.90625 164.6875 z M 315.625 167.5625 C 313.53499 171.11817 311.15719 174.95054 309.09375 178.375 C 308.81855 178.83169 308.40356 179.39219 308.4375 179.90625 L 308.78125 179.90625 C 308.88681 179.7269 308.99608 179.53709 309.09375 179.375 C 311.22061 175.84528 313.67626 171.86482 315.8125 168.21875 C 315.76353 167.98446 315.70025 167.7703 315.625 167.5625 z M 303.21875 172.5 C 303.03869 178.80878 306.39616 182.85941 309.96875 185 C 313.84808 187.32435 319.2655 187.69439 323.59375 185.34375 C 327.57124 183.18386 330.02256 179.72107 330.75 175.375 C 330.89911 174.48403 330.92992 173.60529 330.90625 172.75 C 330.88199 173.2851 330.84158 173.82781 330.75 174.375 C 330.02256 178.72107 327.57124 182.18386 323.59375 184.34375 C 319.2655 186.69439 313.84808 186.32435 309.96875 184 C 306.58844 181.97462 303.40101 178.24085 303.21875 172.5 z "
         id="path11198" />
      <path
         style="fill:#ffffff;fill-opacity:1;display:inline;enable-background:new;opacity:0.4"
         d="M 320.375 232 C 319.10811 232.004 317.73109 232.09375 316.5625 232.09375 C 313.95448 232.09375 311.38837 231.98885 309.125 232.15625 C 305.62811 232.41481 303.0424 233.9458 301.25 235.875 C 299.41903 237.84581 298 240.63889 298 244.0625 C 298 244.23257 298.02506 244.39651 298.03125 244.5625 C 298.16442 241.37079 299.51064 238.74721 301.25 236.875 C 303.0424 234.9458 305.62811 233.41481 309.125 233.15625 C 311.38837 232.98885 313.95448 233.09375 316.5625 233.09375 C 317.73109 233.09375 319.10811 233.004 320.375 233 C 321.64188 232.99584 322.8124 233.08641 323.625 233.40625 C 324.83133 233.88105 325.81035 234.807 325.96875 236.34375 C 326.21067 234.20438 325.0726 232.97601 323.625 232.40625 C 322.8124 232.08641 321.64188 231.99584 320.375 232 z M 321.4375 234.375 C 321.33851 234.37926 321.25259 234.38528 321.15625 234.40625 C 321.15235 234.41367 321.15987 234.42969 321.15625 234.4375 C 321.09827 234.56251 321.08481 234.73716 321.125 234.96875 L 320.28125 234.96875 C 320.10023 235.22102 319.96096 235.55152 319.96875 235.96875 L 321.125 235.96875 C 320.98089 235.1383 321.61804 235.02511 321.90625 235.40625 C 322.01859 235.16867 322.08299 234.90562 322.03125 234.65625 C 322.01412 234.57371 321.97602 234.49936 321.9375 234.4375 C 321.77075 234.39543 321.60954 234.36759 321.4375 234.375 z M 323.03125 235.40625 C 322.72878 236.49924 321.62979 237.33282 321.125 238.09375 L 321.96875 238.09375 C 322.49574 237.50834 323.01622 236.83969 323.09375 236.03125 C 323.11714 235.78742 323.09067 235.59856 323.03125 235.40625 z M 306.71875 236.9375 L 306.71875 237.9375 L 310.1875 237.9375 C 311.41263 241.51255 312.9312 244.83104 314.15625 248.40625 C 314.81169 248.25329 315.39691 248.01781 315.96875 247.78125 C 316.17234 248.08822 316.2606 248.50965 316.375 248.90625 C 316.48815 248.85705 316.60935 248.83422 316.71875 248.78125 C 316.37787 248.21252 316.3314 247.32805 315.96875 246.78125 C 315.39691 247.01781 314.81169 247.25329 314.15625 247.40625 C 312.9312 243.83104 311.41263 240.51255 310.1875 236.9375 L 306.71875 236.9375 z M 320 238.90625 C 319.86693 239.21832 319.80999 239.55326 319.90625 239.90625 C 320.99601 239.90285 322.10471 239.9027 323.09375 240 C 323.21215 239.82624 323.21215 239.26759 323.09375 239.09375 L 321.125 239.09375 C 321.1655 239.0327 321.23388 238.96801 321.28125 238.90625 C 320.85606 238.90299 320.42989 238.90466 320 238.90625 z M 308.84375 241 C 307.39716 243.45732 305.79764 246.10775 304.375 248.46875 C 304.18236 248.78843 303.88249 249.17141 303.90625 249.53125 L 304.34375 249.53125 C 304.35568 249.51197 304.36364 249.48761 304.375 249.46875 C 305.8638 246.99795 307.56714 244.2085 309.0625 241.65625 C 309.01184 241.41387 308.92871 241.20782 308.84375 241 z M 300.25 244.53125 C 300.08187 249.00935 302.44753 251.89562 304.96875 253.40625 C 307.68428 255.0333 311.50147 255.27045 314.53125 253.625 C 317.31549 252.11308 319.02205 249.6985 319.53125 246.65625 C 319.63824 246.01697 319.64481 245.39412 319.625 244.78125 C 319.60393 245.07269 319.58084 245.35995 319.53125 245.65625 C 319.02205 248.6985 317.31549 251.11308 314.53125 252.625 C 311.50147 254.27045 307.68428 254.0333 304.96875 252.40625 C 302.6394 251.01058 300.43996 248.44432 300.25 244.53125 z "
         id="path11200" />
      <path
         style="fill:#ffffff;fill-opacity:1;display:inline;enable-background:new;opacity:0.4"
         d="M 437.96875 59.4375 C 437.06384 59.4405 436.08472 59.5 435.25 59.5 C 433.38714 59.5 431.58543 59.44296 429.96875 59.5625 C 427.47097 59.747183 425.59279 60.809496 424.3125 62.1875 C 423.00467 63.595219 422 65.617067 422 68.0625 C 422 68.238477 422.02203 68.392619 422.03125 68.5625 C 422.15898 66.344588 423.09495 64.498041 424.3125 63.1875 C 425.59279 61.809496 427.47097 60.747183 429.96875 60.5625 C 431.58543 60.44296 433.38714 60.5 435.25 60.5 C 436.08472 60.5 437.06384 60.4405 437.96875 60.4375 C 438.1783 60.436812 438.36221 60.430547 438.5625 60.4375 C 438.62265 60.425844 438.68853 60.408892 438.75 60.40625 C 438.90308 60.399667 439.04258 60.420658 439.1875 60.46875 C 439.60692 60.509775 440.00814 60.598951 440.3125 60.71875 C 441.11341 61.033974 441.756 61.629308 441.9375 62.59375 C 441.94078 62.571124 441.9662 62.553801 441.96875 62.53125 C 442.14155 61.003131 441.34651 60.12572 440.3125 59.71875 C 439.73207 59.49029 438.87367 59.43453 437.96875 59.4375 z M 438.75 61.40625 C 438.66653 61.409838 438.58055 61.448501 438.5 61.46875 C 438.50237 61.498575 438.49428 61.529545 438.5 61.5625 L 438.25 61.5625 C 437.92703 61.731364 437.6779 62.049137 437.6875 62.5625 L 438.5 62.5625 C 438.41154 62.0528 438.74377 61.916884 438.96875 62.0625 C 439.09813 61.869385 439.15862 61.670105 439.15625 61.46875 C 439.02024 61.427533 438.89236 61.400128 438.75 61.40625 z M 439.8125 62 C 439.55092 62.71449 438.83994 63.268804 438.5 63.78125 L 439.375 63.78125 C 439.65381 63.438864 439.86356 63.038702 439.90625 62.59375 C 439.92887 62.357901 439.8935 62.168021 439.8125 62 z M 428.21875 62.96875 L 428.21875 63.96875 L 430.71875 63.96875 C 431.59383 66.522357 432.65622 68.88378 433.53125 71.4375 C 433.99942 71.328247 434.43529 71.168974 434.84375 71 C 434.9466 71.155082 435.00254 71.333068 435.0625 71.53125 C 435.16443 71.488065 435.27722 71.453599 435.375 71.40625 C 435.13152 71.000023 435.10278 70.390577 434.84375 70 C 434.43529 70.168974 433.99942 70.328247 433.53125 70.4375 C 432.65622 67.88378 431.59383 65.522357 430.71875 62.96875 L 428.21875 62.96875 z M 437.875 64.375 C 437.67349 64.681333 437.55759 65.01316 437.65625 65.375 C 438.43465 65.3726 439.19979 65.33676 439.90625 65.40625 C 439.99085 65.282133 439.99085 64.90542 439.90625 64.78125 L 438.5 64.78125 C 438.58544 64.652456 438.69296 64.509711 438.8125 64.375 C 438.5022 64.370578 438.191 64.37364 437.875 64.375 z M 429.6875 66 C 428.67271 67.71997 427.5548 69.540682 426.5625 71.1875 C 426.4249 71.415843 426.20178 71.68047 426.21875 71.9375 L 426.71875 71.9375 C 427.74717 70.234282 428.88665 68.365239 429.90625 66.625 C 429.85945 66.401087 429.7689 66.189054 429.6875 66 z M 423.625 68.5 C 423.44305 71.787595 425.13892 73.903613 426.96875 75 C 428.90841 76.16217 431.64838 76.33157 433.8125 75.15625 C 435.80125 74.0763 437.01129 72.360533 437.375 70.1875 C 437.46592 69.644238 437.47265 69.108951 437.4375 68.59375 C 437.42224 68.788518 437.4081 68.98973 437.375 69.1875 C 437.01129 71.360533 435.80125 73.0763 433.8125 74.15625 C 431.64838 75.33157 428.90841 75.16217 426.96875 74 C 425.3309 73.018644 423.80252 71.221776 423.625 68.5 z "
         id="path11202" />
      <path
         style="fill:#ffffff;fill-opacity:1;display:inline;enable-background:new;opacity:0.4"
         d="M 432.1875 106 C 431.55406 106.002 430.86556 106.03125 430.28125 106.03125 C 428.97725 106.03125 427.69418 106.01005 426.5625 106.09375 C 424.81405 106.22302 423.52121 106.9729 422.625 107.9375 C 421.70952 108.92291 421 110.31945 421 112.03125 C 421 112.15893 421.02432 112.28316 421.03125 112.40625 C 421.18029 110.97894 421.82396 109.79973 422.625 108.9375 C 423.52121 107.9729 424.81405 107.22302 426.5625 107.09375 C 427.69418 107.01005 428.97725 107.03125 430.28125 107.03125 C 430.85598 107.03125 431.53181 107.00327 432.15625 107 C 432.29473 106.80703 432.49004 106.69733 432.71875 106.6875 C 433.01824 106.67464 433.32825 106.81582 433.46875 107.09375 C 433.591 107.11981 433.71092 107.14752 433.8125 107.1875 C 434.33425 107.39285 434.7449 107.77944 434.90625 108.375 C 434.92448 108.30106 434.96048 108.22937 434.96875 108.15625 C 435.08971 107.08657 434.53631 106.47238 433.8125 106.1875 C 433.4062 106.02758 432.82094 105.99792 432.1875 106 z M 432.71875 107.6875 C 432.34055 107.70376 431.99 107.97222 432 108.5 L 432.3125 108.5 C 432.54489 108.23379 432.80806 107.97692 432.9375 107.71875 C 432.8638 107.70299 432.79408 107.68427 432.71875 107.6875 z M 433.375 108 C 433.26911 108.18925 433.14423 108.37031 433 108.53125 C 432.96952 108.69977 432.85684 108.86768 432.71875 109.03125 L 433.375 109.03125 C 433.46517 108.87541 433.51367 108.71466 433.53125 108.53125 C 433.55283 108.30629 433.47938 108.13618 433.375 108 z M 425.34375 108.46875 L 425.34375 109.46875 L 427.09375 109.46875 C 427.70631 111.25628 428.44998 112.89989 429.0625 114.6875 C 429.39022 114.61102 429.68283 114.52453 429.96875 114.40625 C 429.98897 114.43674 430.01445 114.46606 430.03125 114.5 C 430.14114 114.45634 430.27153 114.4251 430.375 114.375 C 430.20457 114.09064 430.15007 113.67965 429.96875 113.40625 C 429.68283 113.52453 429.39022 113.61102 429.0625 113.6875 C 428.44998 111.89989 427.70631 110.25628 427.09375 108.46875 L 425.34375 108.46875 z M 432.3125 109.46875 C 432.05049 109.76568 431.83692 110.09987 431.9375 110.46875 C 432.48238 110.46705 433.03673 110.4514 433.53125 110.5 C 433.59045 110.41312 433.59045 110.11815 433.53125 110.03125 L 432.5625 110.03125 C 432.68119 109.85233 432.85413 109.67022 433.03125 109.46875 C 432.79779 109.46087 432.55448 109.4681 432.3125 109.46875 z M 426.3125 110.71875 C 425.61944 111.89021 424.86055 113.10177 424.1875 114.21875 C 424.0912 114.37859 423.95687 114.57008 423.96875 114.75 L 424.46875 114.75 C 425.14429 113.63416 425.87383 112.46583 426.53125 111.34375 C 426.48363 111.11591 426.39242 110.91406 426.3125 110.71875 z M 422.125 112.4375 C 422.12295 112.45929 422.12678 112.47798 422.125 112.5 C 421.93136 114.89317 423.18972 116.40241 424.5 117.1875 C 425.85776 118.00102 427.73512 118.13522 429.25 117.3125 C 430.64213 116.55653 431.4954 115.36487 431.75 113.84375 C 431.82796 113.37793 431.83254 112.90309 431.78125 112.46875 C 431.77058 112.58864 431.77033 112.72227 431.75 112.84375 C 431.4954 114.36487 430.64213 115.55653 429.25 116.3125 C 427.73512 117.13522 425.85776 117.00102 424.5 116.1875 C 423.37267 115.51203 422.27861 114.28942 422.125 112.4375 z "
         id="path11204" />
      <path
         style="fill:#ffffff;fill-opacity:1;display:inline;enable-background:new;opacity:0.4"
         d="M 427.59375 142.84375 C 427.0508 142.84575 426.46958 142.90625 425.96875 142.90625 C 424.85103 142.90625 423.75126 142.8658 422.78125 142.9375 C 421.28258 143.04831 420.17443 143.70445 419.40625 144.53125 C 418.62155 145.37588 418 146.564 418 148.03125 C 418 148.19067 418.01879 148.34888 418.03125 148.5 C 418.159 147.27659 418.71964 146.2703 419.40625 145.53125 C 419.98239 144.91115 420.73791 144.36334 421.71875 144.09375 C 421.76008 144.08239 421.80167 144.07295 421.84375 144.0625 C 421.95778 144.0277 422.0963 144.02551 422.21875 144 C 422.35305 143.97202 422.48022 143.92173 422.625 143.90625 C 422.81818 143.88565 422.97754 143.8744 423.15625 143.875 C 423.26786 143.87536 423.36262 143.89836 423.46875 143.90625 C 424.26091 143.88351 425.10199 143.90625 425.96875 143.90625 C 426.43111 143.90625 426.96282 143.85012 427.46875 143.84375 C 427.56779 143.58994 427.78812 143.44795 428.03125 143.4375 C 428.34318 143.42409 428.6565 143.61758 428.71875 143.96875 C 428.79998 143.98839 428.8991 144.00384 428.96875 144.03125 C 429.39688 144.19976 429.78569 144.49525 429.9375 144.96875 C 429.96134 144.88455 429.99059 144.80191 430 144.71875 C 430.10368 143.80188 429.58916 143.27544 428.96875 143.03125 C 428.6205 142.89418 428.1367 142.84197 427.59375 142.84375 z M 428.0625 143.8125 C 428.03477 143.81672 428.02289 143.85654 428 143.875 C 428.06409 143.87776 428.12583 143.87043 428.1875 143.875 C 428.13922 143.82938 428.1193 143.80386 428.0625 143.8125 z M 428.03125 144.4375 C 427.70708 144.45144 427.39725 144.67262 427.40625 145.125 L 427.625 145.125 C 427.80355 144.89624 428.03821 144.68389 428.1875 144.46875 C 428.18639 144.46857 428.18861 144.43767 428.1875 144.4375 C 428.13762 144.42972 428.08166 144.43533 428.03125 144.4375 z M 428.5625 144.625 C 428.47591 144.76694 428.39146 144.87691 428.28125 145 C 428.28347 145.01071 428.27988 145.0206 428.28125 145.03125 C 428.30058 145.18104 428.25768 145.32661 428.15625 145.46875 L 428.65625 145.46875 C 428.69738 145.3741 428.73985 145.2621 428.75 145.15625 C 428.77327 144.91366 428.69864 144.74633 428.5625 144.625 z M 422.3125 144.96875 C 422.1196 145.00425 421.92276 145.03605 421.75 145.09375 L 421.75 145.84375 L 422.46875 145.84375 C 422.48105 145.88719 422.51611 145.92818 422.53125 145.96875 L 423.21875 145.96875 C 423.7394 147.48809 424.35251 148.91996 424.875 150.4375 C 425.28399 150.32891 425.68243 150.20016 426.03125 150.03125 C 425.88517 149.78751 425.84292 149.42184 425.6875 149.1875 C 425.44243 149.28888 425.18715 149.40319 424.90625 149.46875 C 424.38123 147.93651 423.7438 146.50092 423.21875 144.96875 L 422.3125 144.96875 z M 427.84375 145.8125 C 427.56057 146.11602 427.26974 146.42647 427.375 146.8125 C 427.84204 146.8111 428.32613 146.80205 428.75 146.84375 C 428.8007 146.76928 428.8007 146.54325 428.75 146.46875 L 427.90625 146.46875 C 428.0332 146.27737 428.25629 146.06939 428.4375 145.84375 C 428.24592 145.8341 428.04456 145.81295 427.84375 145.8125 z M 422.5 146.9375 C 421.91609 147.92277 421.28336 148.96922 420.71875 149.90625 C 420.63615 150.04326 420.52106 150.22078 420.53125 150.375 L 421.03125 150.375 C 421.59037 149.45234 422.21009 148.48402 422.75 147.5625 C 422.70065 147.3264 422.57399 147.14883 422.5 146.9375 z M 419 148.4375 C 418.99491 148.48239 418.97248 148.51644 418.96875 148.5625 C 418.80277 150.61378 419.87691 151.92082 421 152.59375 C 421.13764 152.67622 421.25687 152.7782 421.40625 152.84375 C 421.4157 152.84714 421.42802 152.84041 421.4375 152.84375 C 421.596 152.91199 421.76909 152.95154 421.9375 153 C 422.0193 153.01905 422.10333 153.04756 422.1875 153.0625 C 422.35583 153.09237 422.5412 153.11309 422.71875 153.125 C 423.04622 153.14695 423.35635 153.15194 423.65625 153.125 C 423.94541 153.09902 424.20557 153.03572 424.46875 152.96875 C 424.4781 152.96563 424.49067 152.97194 424.5 152.96875 C 424.53236 152.96031 424.56179 152.94653 424.59375 152.9375 C 424.60231 152.93434 424.61646 152.94072 424.625 152.9375 C 424.78722 152.87625 424.93956 152.77124 425.09375 152.6875 C 426.287 152.03953 427.00053 151.02257 427.21875 149.71875 C 427.28557 149.31948 427.29396 148.93479 427.25 148.5625 C 427.2433 148.61522 427.22763 148.6657 427.21875 148.71875 C 427.06748 149.62253 426.6589 150.3935 426.03125 151 C 426.03588 151.00843 426.02636 151.02308 426.03125 151.03125 C 426.01572 151.0461 425.98455 151.04786 425.96875 151.0625 C 425.70536 151.30651 425.43274 151.50342 425.09375 151.6875 C 423.79528 152.39269 422.1638 152.29106 421 151.59375 C 420.89002 151.52785 420.76388 151.45311 420.65625 151.375 L 420.53125 151.375 C 420.5299 151.35459 420.5596 151.33317 420.5625 151.3125 C 419.77241 150.70818 419.1257 149.76652 419 148.4375 z "
         id="path11206" />
    </g>
    <g
       inkscape:groupmode="layer"
       id="layer5"
       inkscape:label="Highlights"
       style="display:inline"
       sodipodi:insensitive="true">
      <path
         style="opacity:0.12999998;color:#bebebe;fill:#ffffff;fill-opacity:1;fill-rule:nonzero;stroke:none;stroke-width:0;marker:none;visibility:visible;display:inline;overflow:visible;enable-background:accumulate"
         d="M 84,47 C 56.836703,47 35,68.836703 35,96 l 0,1 C 35,69.836703 56.836703,48 84,48 l 120,0 c 27.1633,0 49,21.836703 49,49 l 0,-1 C 253,68.836703 231.1633,47 204,47 L 84,47 z"
         id="rect3894"
         inkscape:connector-curvature="0" />
      <path
         style="opacity:0.12999998;color:#bebebe;fill:#ffffff;fill-opacity:1;fill-rule:nonzero;stroke:none;stroke-width:0;marker:none;visibility:visible;display:inline;overflow:visible;enable-background:accumulate"
         d="m 419,141 c -1.1253,0 -2,0.8747 -2,2 l 0,1 c 0,-1.1253 0.8747,-2 2,-2 l 10,0 c 1.1253,0 2,0.8747 2,2 l 0,-1 c 0,-1.1253 -0.8747,-2 -2,-2 l -10,0 z"
         id="rect3896"
         inkscape:connector-curvature="0" />
      <path
         style="opacity:0.12999998;color:#bebebe;fill:#ffffff;fill-opacity:1;fill-rule:nonzero;stroke:none;stroke-width:0;marker:none;visibility:visible;display:inline;overflow:visible;enable-background:accumulate"
         d="m 422,102 c -2.2333,0 -4,1.7667 -4,4 l 0,1 c 0,-2.2333 1.7667,-4 4,-4 l 12,0 c 2.2333,0 4,1.7667 4,4 l 0,-1 c 0,-2.2333 -1.7667,-4 -4,-4 l -12,0 z"
         id="rect3898"
         inkscape:connector-curvature="0" />
      <path
         style="opacity:0.12999998;color:#bebebe;fill:#ffffff;fill-opacity:1;fill-rule:nonzero;stroke:none;stroke-width:0;marker:none;visibility:visible;display:inline;overflow:visible;enable-background:accumulate"
         d="m 424,54 c -3.3413,0 -6,2.658703 -6,6 l 0,1 c 0,-3.341297 2.6587,-6 6,-6 l 16,0 c 3.3413,0 6,2.658703 6,6 l 0,-1 c 0,-3.341297 -2.6587,-6 -6,-6 l -16,0 z"
         id="rect3900"
         inkscape:connector-curvature="0" />
      <path
         style="opacity:0.12999998;color:#bebebe;fill:#ffffff;fill-opacity:1;fill-rule:nonzero;stroke:none;stroke-width:0;marker:none;visibility:visible;display:inline;overflow:visible;enable-background:accumulate"
         d="m 300,224 c -4.4493,0 -8,3.5507 -8,8 l 0,1 c 0,-4.4493 3.5507,-8 8,-8 l 24,0 c 4.4493,0 8,3.5507 8,8 l 0,-1 c 0,-4.4493 -3.5507,-8 -8,-8 l -24,0 z"
         id="rect3902"
         inkscape:connector-curvature="0" />
      <path
         style="opacity:0.12999998;color:#bebebe;fill:#ffffff;fill-opacity:1;fill-rule:nonzero;stroke:none;stroke-width:0;marker:none;visibility:visible;display:inline;overflow:visible;enable-background:accumulate"
         d="m 310,33 c -9.4353,0 -17,7.564703 -17,17 l 0,1 c 0,-9.435297 7.5647,-17 17,-17 l 52,0 c 9.4353,0 17,7.564703 17,17 l 0,-1 c 0,-9.435297 -7.5647,-17 -17,-17 l -52,0 z"
         id="rect3904"
         inkscape:connector-curvature="0" />
      <path
         style="opacity:0.12999998;color:#bebebe;fill:#ffffff;fill-opacity:1;fill-rule:nonzero;stroke:none;stroke-width:0;marker:none;visibility:visible;display:inline;overflow:visible;enable-background:accumulate"
         d="m 302.5,143 c -6.3883,0 -11.5,5.1117 -11.5,11.5 l 0,1 c 0,-6.3883 5.1117,-11.5 11.5,-11.5 l 35,0 c 6.3883,0 11.5,5.1117 11.5,11.5 l 0,-1 c 0,-6.3883 -5.1117,-11.5 -11.5,-11.5 l -35,0 z"
         id="rect3906"
         inkscape:connector-curvature="0" />
      <path
         id="path4085"
         d="m 204,266 c 27.1633,0 49,-21.8367 49,-49 l 0,-1 c 0,27.1633 -21.8367,49 -49,49 L 84,265 C 56.8367,265 35,243.1633 35,216 l 0,1 c 0,27.1633 21.8367,49 49,49 l 120,0 z"
         style="opacity:0.41;color:#bebebe;fill:#000000;fill-opacity:1;fill-rule:nonzero;stroke:none;stroke-width:0;marker:none;visibility:visible;display:inline;overflow:visible;enable-background:accumulate"
         inkscape:connector-curvature="0" />
      <path
         id="path4087"
         d="m 429,156 c 1.1253,0 2,-0.8747 2,-2 l 0,-1 c 0,1.1253 -0.8747,2 -2,2 l -10,0 c -1.1253,0 -2,-0.8747 -2,-2 l 0,1 c 0,1.1253 0.8747,2 2,2 l 10,0 z"
         style="opacity:0.3;color:#bebebe;fill:#000000;fill-opacity:1;fill-rule:nonzero;stroke:none;stroke-width:0;marker:none;visibility:visible;display:inline;overflow:visible;enable-background:accumulate"
         inkscape:connector-curvature="0" />
      <path
         id="path4089"
         d="m 434,123 c 2.2333,0 4,-1.7667 4,-4 l 0,-1 c 0,2.2333 -1.7667,4 -4,4 l -12,0 c -2.2333,0 -4,-1.7667 -4,-4 l 0,1 c 0,2.2333 1.7667,4 4,4 l 12,0 z"
         style="opacity:0.3;color:#bebebe;fill:#000000;fill-opacity:1;fill-rule:nonzero;stroke:none;stroke-width:0;marker:none;visibility:visible;display:inline;overflow:visible;enable-background:accumulate"
         inkscape:connector-curvature="0" />
      <path
         id="path4091"
         d="m 440,83 c 3.3413,0 6,-2.6587 6,-6 l 0,-1 c 0,3.3413 -2.6587,6 -6,6 l -16,0 c -3.3413,0 -6,-2.6587 -6,-6 l 0,1 c 0,3.3413 2.6587,6 6,6 l 16,0 z"
         style="opacity:0.41;color:#bebebe;fill:#000000;fill-opacity:1;fill-rule:nonzero;stroke:none;stroke-width:0;marker:none;visibility:visible;display:inline;overflow:visible;enable-background:accumulate"
         inkscape:connector-curvature="0" />
      <path
         id="path4093"
         d="m 324,265 c 4.4493,0 8,-3.5507 8,-8 l 0,-1 c 0,4.4493 -3.5507,8 -8,8 l -24,0 c -4.4493,0 -8,-3.5507 -8,-8 l 0,1 c 0,4.4493 3.5507,8 8,8 l 24,0 z"
         style="opacity:0.41;color:#bebebe;fill:#000000;fill-opacity:1;fill-rule:nonzero;stroke:none;stroke-width:0;marker:none;visibility:visible;display:inline;overflow:visible;enable-background:accumulate"
         inkscape:connector-curvature="0" />
      <path
         id="path4095"
         d="m 362,120 c 9.4353,0 17,-7.5647 17,-17 l 0,-1 c 0,9.4353 -7.5647,17 -17,17 l -52,0 c -9.4353,0 -17,-7.5647 -17,-17 l 0,1 c 0,9.4353 7.5647,17 17,17 l 52,0 z"
         style="opacity:0.41;color:#bebebe;fill:#000000;fill-opacity:1;fill-rule:nonzero;stroke:none;stroke-width:0;marker:none;visibility:visible;display:inline;overflow:visible;enable-background:accumulate"
         inkscape:connector-curvature="0" />
      <path
         id="path4097"
         d="m 337.5,202 c 6.3883,0 11.5,-5.1117 11.5,-11.5 l 0,-1 c 0,6.3883 -5.1117,11.5 -11.5,11.5 l -35,0 c -6.3883,0 -11.5,-5.1117 -11.5,-11.5 l 0,1 c 0,6.3883 5.1117,11.5 11.5,11.5 l 35,0 z"
         style="opacity:0.41;color:#bebebe;fill:#000000;fill-opacity:1;fill-rule:nonzero;stroke:none;stroke-width:0;marker:none;visibility:visible;display:inline;overflow:visible;enable-background:accumulate"
         inkscape:connector-curvature="0" />
      <path
         inkscape:connector-curvature="0"
         id="path4280"
         d="M 84,265 C 56.836703,265 35,243.1633 35,216 l 0,-1 c 0,27.1633 21.836703,49 49,49 l 120,0 c 27.1633,0 49,-21.8367 49,-49 l 0,1 c 0,27.1633 -21.8367,49 -49,49 l -120,0 z"
         style="opacity:0.1;color:#bebebe;fill:#ffffff;fill-opacity:1;fill-rule:nonzero;stroke:none;stroke-width:0;marker:none;visibility:visible;display:inline;overflow:visible;enable-background:accumulate" />
      <path
         style="opacity:0.1;color:#bebebe;fill:#ffffff;fill-opacity:1;fill-rule:nonzero;stroke:none;stroke-width:0;marker:none;visibility:visible;display:inline;overflow:visible;enable-background:accumulate"
         d="m 300,264 c -4.4493,0 -8,-3.5507 -8,-8 l 0,-1 c 0,4.4493 3.5507,8 8,8 l 24,0 c 4.4493,0 8,-3.5507 8,-8 l 0,1 c 0,4.4493 -3.5507,8 -8,8 l -24,0 z"
         id="path4294"
         inkscape:connector-curvature="0" />
      <path
         style="opacity:0.1;color:#bebebe;fill:#ffffff;fill-opacity:1;fill-rule:nonzero;stroke:none;stroke-width:0;marker:none;visibility:visible;display:inline;overflow:visible;enable-background:accumulate"
         d="m 302.5,201 c -6.3883,0 -11.5,-5.1117 -11.5,-11.5 l 0,-1 c 0,6.3883 5.1117,11.5 11.5,11.5 l 35,0 c 6.3883,0 11.5,-5.1117 11.5,-11.5 l 0,1 c 0,6.3883 -5.1117,11.5 -11.5,11.5 l -35,0 z"
         id="path4296"
         inkscape:connector-curvature="0" />
      <path
         style="opacity:0.1;color:#bebebe;fill:#ffffff;fill-opacity:1;fill-rule:nonzero;stroke:none;stroke-width:0;marker:none;visibility:visible;display:inline;overflow:visible;enable-background:accumulate"
         d="m 310,119 c -9.4353,0 -17,-7.5647 -17,-17 l 0,-1 c 0,9.4353 7.5647,17 17,17 l 52,0 c 9.4353,0 17,-7.5647 17,-17 l 0,1 c 0,9.4353 -7.5647,17 -17,17 l -52,0 z"
         id="path4298"
         inkscape:connector-curvature="0" />
      <path
         style="opacity:0.1;color:#bebebe;fill:#ffffff;fill-opacity:1;fill-rule:nonzero;stroke:none;stroke-width:0;marker:none;visibility:visible;display:inline;overflow:visible;enable-background:accumulate"
         d="m 424,82 c -3.3413,0 -6,-2.658703 -6,-6 l 0,-1 c 0,3.341297 2.6587,6 6,6 l 16,0 c 3.3413,0 6,-2.658703 6,-6 l 0,1 c 0,3.341297 -2.6587,6 -6,6 l -16,0 z"
         id="path4300"
         inkscape:connector-curvature="0" />
      <path
         style="opacity:0.1;color:#bebebe;fill:#ffffff;fill-opacity:1;fill-rule:nonzero;stroke:none;stroke-width:0;marker:none;visibility:visible;display:inline;overflow:visible;enable-background:accumulate"
         d="m 422,122 c -2.2333,0 -4,-1.7667 -4,-4 l 0,-1 c 0,2.2333 1.7667,4 4,4 l 12,0 c 2.2333,0 4,-1.7667 4,-4 l 0,1 c 0,2.2333 -1.7667,4 -4,4 l -12,0 z"
         id="path4302"
         inkscape:connector-curvature="0" />
      <path
         style="opacity:0.1;color:#bebebe;fill:#ffffff;fill-opacity:1;fill-rule:nonzero;stroke:none;stroke-width:0;marker:none;visibility:visible;display:inline;overflow:visible;enable-background:accumulate"
         d="m 419,154.5 c -1.1253,0 -2,-0.8747 -2,-2 l 0,-1 c 0,1.1253 0.8747,2 2,2 l 10,0 c 1.1253,0 2,-0.8747 2,-2 l 0,1 c 0,1.1253 -0.8747,2 -2,2 l -10,0 z"
         id="path4304"
         inkscape:connector-curvature="0" />
    </g>
    <g
       inkscape:groupmode="layer"
       id="layer3"
       inkscape:label="Border"
       style="display:inline"
       sodipodi:insensitive="true">
      <path
         style="opacity:0.41;color:#bebebe;fill:#000000;fill-opacity:1;fill-rule:nonzero;stroke:none;stroke-width:0;marker:none;visibility:visible;display:inline;overflow:visible;enable-background:accumulate"
         d="m 422,101 c -2.77,0 -5,2.23 -5,5 l 0,12 c 0,2.77 2.23,5 5,5 l 12,0 c 2.77,0 5,-2.23 5,-5 l 0,-12 c 0,-2.77 -2.23,-5 -5,-5 l -12,0 z m 0,1 12,0 c 2.2333,0 4,1.7667 4,4 l 0,12 c 0,2.2333 -1.7667,4 -4,4 l -12,0 c -2.2333,0 -4,-1.7667 -4,-4 l 0,-12 c 0,-2.2333 1.7667,-4 4,-4 z"
         id="rect4099"
         inkscape:connector-curvature="0" />
      <path
         style="opacity:0.41;color:#bebebe;fill:#000000;fill-opacity:1;fill-rule:nonzero;stroke:none;stroke-width:0;marker:none;visibility:visible;display:inline;overflow:visible;enable-background:accumulate"
         d="m 424,53 c -3.878,0 -7,3.122 -7,7 l 0,16 c 0,3.878 3.122,7 7,7 l 16,0 c 3.878,0 7,-3.122 7,-7 l 0,-16 c 0,-3.878 -3.122,-7 -7,-7 l -16,0 z m 0,1 16,0 c 3.3413,0 6,2.658703 6,6 l 0,16 c 0,3.341297 -2.6587,6 -6,6 l -16,0 c -3.3413,0 -6,-2.658703 -6,-6 l 0,-16 c 0,-3.341297 2.6587,-6 6,-6 z"
         id="rect4151"
         inkscape:connector-curvature="0" />
      <path
         style="opacity:0.41;color:#bebebe;fill:#000000;fill-opacity:1;fill-rule:nonzero;stroke:none;stroke-width:0;marker:none;visibility:visible;display:inline;overflow:visible;enable-background:accumulate"
         d="m 419,140 c -1.662,0 -3,1.338 -3,3 l 0,10 c 0,1.662 1.338,3 3,3 l 10,0 c 1.662,0 3,-1.338 3,-3 l 0,-10 c 0,-1.662 -1.338,-3 -3,-3 l -10,0 z m 0,1 10,0 c 1.1253,0 2,0.8747 2,2 l 0,10 c 0,1.1253 -0.8747,2 -2,2 l -10,0 c -1.1253,0 -2,-0.8747 -2,-2 l 0,-10 c 0,-1.1253 0.8747,-2 2,-2 z"
         id="rect4095"
         inkscape:connector-curvature="0" />
      <path
         style="opacity:0.41;color:#bebebe;fill:#000000;fill-opacity:1;fill-rule:nonzero;stroke:none;stroke-width:0;marker:none;visibility:visible;display:inline;overflow:visible;enable-background:accumulate"
         d="m 300,223 c -4.986,0 -9,4.014 -9,9 l 0,24 c 0,4.986 4.014,9 9,9 l 24,0 c 4.986,0 9,-4.014 9,-9 l 0,-24 c 0,-4.986 -4.014,-9 -9,-9 l -24,0 z m 0,1 24,0 c 4.4493,0 8,3.5507 8,8 l 0,24 c 0,4.4493 -3.5507,8 -8,8 l -24,0 c -4.4493,0 -8,-3.5507 -8,-8 l 0,-24 c 0,-4.4493 3.5507,-8 8,-8 z"
         id="rect4783"
         inkscape:connector-curvature="0" />
      <path
         style="opacity:0.41;color:#bebebe;fill:#000000;fill-opacity:1;fill-rule:nonzero;stroke:none;stroke-width:0;marker:none;visibility:visible;display:inline;overflow:visible;enable-background:accumulate"
         d="m 302.5,142 c -6.925,0 -12.5,5.575 -12.5,12.5 l 0,35 c 0,6.925 5.575,12.5 12.5,12.5 l 35,0 c 6.925,0 12.5,-5.575 12.5,-12.5 l 0,-35 c 0,-6.925 -5.575,-12.5 -12.5,-12.5 l -35,0 z m 0,1 35,0 c 6.3883,0 11.5,5.1117 11.5,11.5 l 0,35 c 0,6.3883 -5.1117,11.5 -11.5,11.5 l -35,0 c -6.3883,0 -11.5,-5.1117 -11.5,-11.5 l 0,-35 c 0,-6.3883 5.1117,-11.5 11.5,-11.5 z"
         id="rect4515"
         inkscape:connector-curvature="0" />
      <path
         style="opacity:0.41;color:#bebebe;fill:#000000;fill-opacity:1;fill-rule:nonzero;stroke:none;stroke-width:0;marker:none;visibility:visible;display:inline;overflow:visible;enable-background:accumulate"
         d="m 310,32 c -9.972,0 -18,8.028 -18,18 l 0,52 c 0,9.972 8.028,18 18,18 l 52,0 c 9.972,0 18,-8.028 18,-18 l 0,-52 c 0,-9.972 -8.028,-18 -18,-18 l -52,0 z m 0,1 52,0 c 9.4353,0 17,7.564703 17,17 l 0,52 c 0,9.4353 -7.5647,17 -17,17 l -52,0 c -9.4353,0 -17,-7.5647 -17,-17 l 0,-52 c 0,-9.435297 7.5647,-17 17,-17 z"
         id="rect4511"
         inkscape:connector-curvature="0" />
      <path
         style="opacity:0.41;color:#bebebe;fill:#000000;fill-opacity:1;fill-rule:nonzero;stroke:none;stroke-width:0;marker:none;visibility:visible;display:inline;overflow:visible;enable-background:accumulate"
         d="M 84,46 C 56.3,46 34,68.3 34,96 l 0,120 c 0,27.7 22.3,50 50,50 l 120,0 c 27.7,0 50,-22.3 50,-50 L 254,96 C 254,68.3 231.7,46 204,46 L 84,46 z m 0,1 120,0 c 27.1633,0 49,21.836703 49,49 l 0,120 c 0,27.1633 -21.8367,49 -49,49 L 84,265 C 56.836703,265 35,243.1633 35,216 L 35,96 C 35,68.836703 56.836703,47 84,47 z"
         id="rect4040"
         inkscape:connector-curvature="0" />
    </g>
  </g>
</svg>
