<?xml version="1.0" encoding="UTF-8" standalone="no"?>
<!-- Created with Inkscape (http://www.inkscape.org/) -->

<svg
   xmlns:dc="http://purl.org/dc/elements/1.1/"
   xmlns:cc="http://creativecommons.org/ns#"
   xmlns:rdf="http://www.w3.org/1999/02/22-rdf-syntax-ns#"
   xmlns:svg="http://www.w3.org/2000/svg"
   xmlns="http://www.w3.org/2000/svg"
   xmlns:xlink="http://www.w3.org/1999/xlink"
   xmlns:sodipodi="http://sodipodi.sourceforge.net/DTD/sodipodi-0.dtd"
   xmlns:inkscape="http://www.inkscape.org/namespaces/inkscape"
   inkscape:export-ydpi="90.000000"
   inkscape:export-xdpi="90.000000"
   width="480"
   height="300"
   id="svg11300"
   sodipodi:version="0.32"
   inkscape:version="0.48.4 r9939"
   sodipodi:docname="hplip.svg"
   inkscape:output_extension="org.inkscape.output.svg.inkscape"
   version="1.0"
   style="display:inline;enable-background:new"
   inkscape:export-filename="/home/sam/moka-next-kazam.png">
  <sodipodi:namedview
     stroke="#ef2929"
     fill="#f57900"
     id="base"
     pagecolor="#777777"
     bordercolor="#666666"
     borderopacity="0.25490196"
     inkscape:pageopacity="0"
     inkscape:pageshadow="2"
     inkscape:zoom="1"
     inkscape:cx="438.96538"
     inkscape:cy="151.65807"
     inkscape:current-layer="layer7"
     showgrid="false"
     inkscape:grid-bbox="true"
     inkscape:document-units="px"
     inkscape:showpageshadow="false"
     inkscape:window-width="1364"
     inkscape:window-height="700"
     inkscape:window-x="0"
     inkscape:window-y="28"
     width="400px"
     height="300px"
     inkscape:snap-nodes="true"
     inkscape:snap-bbox="true"
     gridtolerance="10000"
     inkscape:object-nodes="true"
     inkscape:snap-grids="true"
     showguides="true"
     inkscape:guide-bbox="true"
     inkscape:window-maximized="1"
     inkscape:bbox-nodes="true"
     inkscape:bbox-paths="true"
     inkscape:snap-bbox-edge-midpoints="true"
     inkscape:snap-bbox-midpoints="true">
    <inkscape:grid
       spacingy="1px"
       spacingx="1px"
       id="grid5883"
       type="xygrid"
       enabled="true"
       visible="true"
       empspacing="4"
       snapvisiblegridlinesonly="true"
       dotted="false"
       color="#000000"
       opacity="0.1254902"
       empcolor="#203ef3"
       empopacity="0.36470588" />
    <inkscape:grid
       type="xygrid"
       id="grid11592"
       empspacing="8"
       visible="true"
       enabled="false"
       spacingx="0.5px"
       spacingy="0.5px"
       color="#ff0000"
       opacity="0.1254902"
       empcolor="#ff0000"
       empopacity="0.25098039"
       snapvisiblegridlinesonly="true"
       dotted="true" />
  </sodipodi:namedview>
  <defs
     id="defs3">
    <linearGradient
       inkscape:collect="always"
       xlink:href="#outerBackgroundGradient-5"
       id="linearGradient10164"
       gradientUnits="userSpaceOnUse"
       gradientTransform="matrix(0,-1,1,0,-12,300)"
       x1="35"
       y1="156"
       x2="253"
       y2="156" />
    <linearGradient
       inkscape:collect="always"
       xlink:href="#outerBackgroundGradient-5"
       id="linearGradient10166"
       gradientUnits="userSpaceOnUse"
       gradientTransform="matrix(0,-1,1,0,276,572)"
       x1="417"
       y1="148"
       x2="431"
       y2="148" />
    <linearGradient
       inkscape:collect="always"
       xlink:href="#outerBackgroundGradient-5"
       id="linearGradient10168"
       gradientUnits="userSpaceOnUse"
       gradientTransform="matrix(0,-1,1,0,316,540)"
       x1="418"
       y1="112"
       x2="438"
       y2="112" />
    <linearGradient
       inkscape:collect="always"
       xlink:href="#outerBackgroundGradient-5"
       id="linearGradient10170"
       gradientUnits="userSpaceOnUse"
       gradientTransform="matrix(0,-1,1,0,364,500)"
       x1="418"
       y1="68"
       x2="446"
       y2="68" />
    <linearGradient
       inkscape:collect="always"
       xlink:href="#outerBackgroundGradient-5"
       id="linearGradient10172"
       gradientUnits="userSpaceOnUse"
       gradientTransform="matrix(0,-1,1,0,68,556)"
       x1="292"
       y1="244"
       x2="332"
       y2="244" />
    <linearGradient
       inkscape:collect="always"
       xlink:href="#outerBackgroundGradient-5"
       id="linearGradient10174"
       gradientUnits="userSpaceOnUse"
       gradientTransform="matrix(0,-1,1,0,260,412)"
       x1="293"
       y1="76"
       x2="379"
       y2="76" />
    <linearGradient
       inkscape:collect="always"
       xlink:href="#outerBackgroundGradient-5"
       id="linearGradient10176"
       gradientUnits="userSpaceOnUse"
       gradientTransform="matrix(0,-1,1,0,148,492)"
       x1="291"
       y1="172"
       x2="349"
       y2="172" />
    <linearGradient
       id="outerBackgroundGradient-5">
      <stop
         style="stop-color:#e8e8e8;stop-opacity:1;"
         offset="0"
         id="stop3864-8-6-6" />
      <stop
         style="stop-color:#ffffff;stop-opacity:1;"
         offset="1"
         id="stop3866-9-1-5" />
    </linearGradient>
  </defs>
  <metadata
     id="metadata4">
    <rdf:RDF>
      <cc:Work
         rdf:about="">
        <dc:format>image/svg+xml</dc:format>
        <dc:type
           rdf:resource="http://purl.org/dc/dcmitype/StillImage" />
        <dc:creator>
          <cc:Agent>
            <dc:title>Sam Hewitt</dc:title>
          </cc:Agent>
        </dc:creator>
        <dc:source />
        <cc:license
           rdf:resource="" />
        <dc:title />
        <dc:subject>
          <rdf:Bag />
        </dc:subject>
        <dc:date />
        <dc:rights>
          <cc:Agent>
            <dc:title />
          </cc:Agent>
        </dc:rights>
        <dc:publisher>
          <cc:Agent>
            <dc:title />
          </cc:Agent>
        </dc:publisher>
        <dc:identifier />
        <dc:relation />
        <dc:language />
        <dc:coverage />
        <dc:description />
        <dc:contributor>
          <cc:Agent>
            <dc:title />
          </cc:Agent>
        </dc:contributor>
      </cc:Work>
      <cc:Work
         rdf:about="">
        <dc:format>image/svg+xml</dc:format>
        <dc:type
           rdf:resource="http://purl.org/dc/dcmitype/StillImage" />
      </cc:Work>
    </rdf:RDF>
  </metadata>
  <g
     style="display:inline"
     inkscape:groupmode="layer"
     inkscape:label="Icon"
     id="layer1">
    <g
       style="display:none"
       inkscape:label="Baseplate"
       id="layer7"
       inkscape:groupmode="layer">
      <text
         y="19.745117"
         xml:space="preserve"
         x="15.006836"
         style="font-style:normal;font-variant:normal;font-weight:normal;font-stretch:normal;line-height:0%;font-family:'DejaVu Sans';-inkscape-font-specification:'DejaVu Sans';display:inline;fill:#000000;fill-opacity:1;stroke:none;enable-background:new"
         inkscape:label="context"
         id="context"><tspan
           style="font-style:normal;font-variant:normal;font-weight:normal;font-stretch:normal;font-size:18px;line-height:1.25;font-family:'DejaVu Sans';-inkscape-font-specification:'DejaVu Sans'"
           y="19.745117"
           x="15.006836"
           sodipodi:role="line"
           id="tspan3933">apps</tspan></text>
      <text
         y="19.745117"
         xml:space="preserve"
         x="122.48828"
         style="font-style:normal;font-variant:normal;font-weight:bold;font-stretch:normal;line-height:0%;font-family:'DejaVu Sans';-inkscape-font-specification:'DejaVu Sans Bold';text-align:start;writing-mode:lr-tb;text-anchor:start;display:inline;fill:#000000;fill-opacity:1;stroke:none;enable-background:new"
         inkscape:label="icon-name"
         id="icon-name"><tspan
           style="font-style:normal;font-variant:normal;font-weight:bold;font-stretch:normal;font-size:18px;line-height:1.25;font-family:'DejaVu Sans';-inkscape-font-specification:'DejaVu Sans Bold'"
           y="19.745117"
           x="122.48828"
           sodipodi:role="line"
           id="tspan3937">hplip</tspan></text>
      <rect
         style="fill:#eeeeec;fill-opacity:1;fill-rule:nonzero;stroke:none;stroke-width:2;marker:none;visibility:visible;display:inline;overflow:visible;enable-background:accumulate"
         id="rect16x16"
         width="16"
         height="16"
         x="416"
         y="140"
         inkscape:label="16x16" />
      <rect
         style="fill:#d4d4d4;fill-opacity:1;fill-rule:nonzero;stroke:none;stroke-width:2;marker:none;visibility:visible;display:inline;overflow:visible;enable-background:accumulate"
         id="rect24x24"
         width="24"
         height="24"
         x="416"
         y="100"
         inkscape:label="24x24" />
      <rect
         style="fill:#eeeeec;fill-opacity:1;fill-rule:nonzero;stroke:none;stroke-width:2;marker:none;visibility:visible;display:inline;overflow:visible;enable-background:accumulate"
         id="rect32x32"
         width="32"
         height="32"
         x="416"
         y="52"
         inkscape:label="32x32" />
      <rect
         inkscape:label="22x22"
         y="101"
         x="417"
         height="22"
         width="22"
         id="rect22x22"
         style="fill:#eeeeec;fill-opacity:1;fill-rule:nonzero;stroke:none;stroke-width:2;marker:none;visibility:visible;display:inline;overflow:visible;enable-background:accumulate" />
      <rect
         inkscape:label="48x48"
         y="220"
         x="288"
         height="48"
         width="48"
         id="rect48x48"
         style="fill:#eeeeec;fill-opacity:1;fill-rule:nonzero;stroke:none;stroke-width:2;marker:none;visibility:visible;display:inline;overflow:visible;enable-background:accumulate" />
      <rect
         style="fill:#eeeeec;fill-opacity:1;fill-rule:nonzero;stroke:none;stroke-width:2;marker:none;visibility:visible;display:inline;overflow:visible;enable-background:accumulate"
         id="rect256x256"
         width="256"
         height="256"
         x="16"
         y="28"
         inkscape:label="256x256" />
      <rect
         style="fill:#eeeeec;fill-opacity:1;fill-rule:nonzero;stroke:none;stroke-width:2;marker:none;visibility:visible;display:inline;overflow:visible;enable-background:accumulate"
         id="rect64x64"
         width="64"
         height="64"
         x="288"
         y="140"
         inkscape:label="64x64" />
      <rect
         style="fill:#eeeeec;fill-opacity:1;fill-rule:nonzero;stroke:none;stroke-width:2;marker:none;visibility:visible;display:inline;overflow:visible;enable-background:accumulate"
         id="rect96x96"
         width="96"
         height="96"
         x="288"
         y="28"
         inkscape:label="96x96" />
    </g>
    <g
       inkscape:groupmode="layer"
       id="layer4"
       inkscape:label="Shadow"
       style="display:inline"
       sodipodi:insensitive="true">
      <rect
         ry="50"
         y="47"
         x="34"
         height="220"
         width="220"
         id="rect4114"
         style="opacity:0.1;color:#bebebe;fill:#000000;fill-opacity:1;fill-rule:nonzero;stroke:none;stroke-width:0;marker:none;visibility:visible;display:inline;overflow:visible;enable-background:accumulate" />
      <rect
         style="opacity:0.1;color:#bebebe;fill:#000000;fill-opacity:1;fill-rule:nonzero;stroke:none;stroke-width:0;marker:none;visibility:visible;display:inline;overflow:visible;enable-background:accumulate"
         id="rect4120"
         width="30"
         height="30"
         x="417"
         y="54"
         ry="7" />
      <rect
         transform="scale(1,-1)"
         ry="9"
         y="-266"
         x="291"
         height="42"
         width="42"
         id="rect4122"
         style="opacity:0.1;color:#bebebe;fill:#000000;fill-opacity:1;fill-rule:nonzero;stroke:none;stroke-width:0;marker:none;visibility:visible;display:inline;overflow:visible;enable-background:accumulate" />
      <rect
         style="opacity:0.1;color:#bebebe;fill:#000000;fill-opacity:1;fill-rule:nonzero;stroke:none;stroke-width:0;marker:none;visibility:visible;display:inline;overflow:visible;enable-background:accumulate"
         id="rect4124"
         width="88"
         height="88"
         x="292"
         y="33"
         ry="18" />
      <rect
         ry="12.5"
         y="143"
         x="290"
         height="60"
         width="60"
         id="rect4126"
         style="opacity:0.1;color:#bebebe;fill:#000000;fill-opacity:1;fill-rule:nonzero;stroke:none;stroke-width:0;marker:none;visibility:visible;display:inline;overflow:visible;enable-background:accumulate" />
      <path
         id="path4268"
         d="m 422,101 c -2.77,0 -5,2.23 -5,5 l 0,12 c 0,2.77 2.23,5 5,5 l 12,0 c 2.77,0 5,-2.23 5,-5 l 0,-12 c 0,-2.77 -2.23,-5 -5,-5 z"
         style="opacity:0.1;color:#bebebe;fill:#000000;fill-opacity:1;fill-rule:nonzero;stroke:none;stroke-width:0;marker:none;visibility:visible;display:inline;overflow:visible;enable-background:accumulate"
         inkscape:connector-curvature="0"
         sodipodi:nodetypes="sssssssss" />
      <path
         id="path4270"
         d="m 419,140 c -1.662,0 -3,1.338 -3,3 l 0,10 c 0,1.662 1.338,3 3,3 l 10,0 c 1.662,0 3,-1.338 3,-3 l 0,-10 c 0,-1.662 -1.338,-3 -3,-3 z"
         style="opacity:0.1;color:#bebebe;fill:#000000;fill-opacity:1;fill-rule:nonzero;stroke:none;stroke-width:0;marker:none;visibility:visible;display:inline;overflow:visible;enable-background:accumulate"
         inkscape:connector-curvature="0"
         sodipodi:nodetypes="sssssssss" />
    </g>
    <g
       inkscape:groupmode="layer"
       id="layer2"
       inkscape:label="Background"
       style="display:inline">
      <path
         style="color:#bebebe;fill:url(#linearGradient10164);fill-opacity:1.0;fill-rule:nonzero;stroke:none;stroke-width:2;marker:none;visibility:visible;display:inline;overflow:visible;enable-background:accumulate"
         d="M 84 46.5 C 56.568735 46.5 34.5 68.568732 34.5 96 L 34.5 216 C 34.5 243.43127 56.568735 265.5 84 265.5 L 204 265.5 C 231.43127 265.5 253.5 243.43127 253.5 216 L 253.5 96 C 253.5 68.568732 231.43127 46.5 204 46.5 L 84 46.5 z "
         id="path4200" />
      <path
         style="color:#bebebe;fill:url(#linearGradient10166);fill-opacity:1.0;fill-rule:nonzero;stroke:none;stroke-width:2;marker:none;visibility:visible;display:inline;overflow:visible;enable-background:accumulate"
         d="M 419 140.5 C 417.6156 140.5 416.5 141.6156 416.5 143 L 416.5 153 C 416.5 154.3844 417.6156 155.5 419 155.5 L 429 155.5 C 430.3844 155.5 431.5 154.3844 431.5 153 L 431.5 143 C 431.5 141.6156 430.3844 140.5 429 140.5 L 419 140.5 z "
         id="path4202" />
      <path
         style="color:#bebebe;fill:url(#linearGradient10168);fill-opacity:1.0;fill-rule:nonzero;stroke:none;stroke-width:2;marker:none;visibility:visible;display:inline;overflow:visible;enable-background:accumulate"
         d="M 422 101.5 C 419.50301 101.5 417.5 103.50301 417.5 106 L 417.5 118 C 417.5 120.49699 419.50301 122.5 422 122.5 L 434 122.5 C 436.49699 122.5 438.5 120.49699 438.5 118 L 438.5 106 C 438.5 103.50301 436.49699 101.5 434 101.5 L 422 101.5 z "
         id="path4204" />
      <path
         style="color:#bebebe;fill:url(#linearGradient10170);fill-opacity:1.0;fill-rule:nonzero;stroke:none;stroke-width:2;marker:none;visibility:visible;display:inline;overflow:visible;enable-background:accumulate"
         d="M 424 53.5 C 420.39346 53.5 417.5 56.393464 417.5 60 L 417.5 76 C 417.5 79.606536 420.39346 82.5 424 82.5 L 440 82.5 C 443.60654 82.5 446.5 79.606536 446.5 76 L 446.5 60 C 446.5 56.393464 443.60654 53.5 440 53.5 L 424 53.5 z "
         id="path4206" />
      <path
         style="color:#bebebe;fill:url(#linearGradient10172);fill-opacity:1.0;fill-rule:nonzero;stroke:none;stroke-width:2;marker:none;visibility:visible;display:inline;overflow:visible;enable-background:accumulate"
         d="M 300 223.5 C 295.28469 223.5 291.5 227.28469 291.5 232 L 291.5 256 C 291.5 260.71531 295.28469 264.5 300 264.5 L 324 264.5 C 328.71531 264.5 332.5 260.71531 332.5 256 L 332.5 232 C 332.5 227.28469 328.71531 223.5 324 223.5 L 300 223.5 z "
         id="path4208" />
      <path
         style="color:#bebebe;fill:url(#linearGradient10174);fill-opacity:1.0;fill-rule:nonzero;stroke:none;stroke-width:2;marker:none;visibility:visible;display:inline;overflow:visible;enable-background:accumulate"
         d="M 310 32.5 C 300.29745 32.5 292.5 40.297452 292.5 50 L 292.5 102 C 292.5 111.70255 300.29745 119.5 310 119.5 L 362 119.5 C 371.70255 119.5 379.5 111.70255 379.5 102 L 379.5 50 C 379.5 40.297452 371.70255 32.5 362 32.5 L 310 32.5 z "
         id="path4210" />
      <path
         style="color:#bebebe;fill:url(#linearGradient10176);fill-opacity:1.0;fill-rule:nonzero;stroke:none;stroke-width:2;marker:none;visibility:visible;display:inline;overflow:visible;enable-background:accumulate"
         d="M 302.5 142.5 C 295.84498 142.5 290.5 147.84498 290.5 154.5 L 290.5 189.5 C 290.5 196.15502 295.84498 201.5 302.5 201.5 L 337.5 201.5 C 344.15502 201.5 349.5 196.15502 349.5 189.5 L 349.5 154.5 C 349.5 147.84498 344.15502 142.5 337.5 142.5 L 302.5 142.5 z "
         id="path4212" />
    </g>
    <g
       inkscape:groupmode="layer"
       id="layer6"
       inkscape:label="Symbols"
       style="display:inline">
      <path
         id="path3853"
         d="m 148.19987,77.005924 c -1.47717,0.0364 -2.96003,0.24786 -4.44432,0.25641 -5.62491,16.10894 -11.46622,32.141976 -17.13626,48.232226 4.12524,0.0729 8.25788,-0.0661 12.37856,0.057 3.01302,0.12307 6.17076,1.3823 7.83453,4.01698 1.90491,2.97655 1.79665,6.7867 0.59828,10.01396 -5.60713,15.77618 -11.27261,31.53528 -16.86562,47.32058 -4.95028,0.0679 -9.89259,-0.003 -14.84288,0.0427 -0.68829,-0.0141 -1.40907,0.065 -2.06546,-0.19943 6.28586,-17.33921 12.423,-34.73518 18.6177,-52.10676 -2.95376,-0.0456 -5.90639,0.0217 -8.86015,-0.0285 -0.45583,0.94356 -0.76921,1.94068 -1.11108,2.93439 -5.69784,16.02689 -11.4424,32.03953 -17.12201,48.07554 -0.26894,0.41025 -0.21196,1.30595 -0.85468,1.3105 -4.71326,0.0187 -9.43164,-0.009 -14.14489,0.0142 -0.84784,-0.009 -1.7105,0.0798 -2.53554,-0.17094 12.93182,-35.87361 25.56679,-71.84865 38.50317,-107.717706 -25.27107,5.40611 -47.01404,24.313946 -56.40864,48.331946 -3.85175,9.50856 -5.52634,19.77493 -5.74058,29.99914 0.26438,4.90926 0.61423,9.83561 1.56691,14.67194 3.04037,16.10439 11.25267,31.1786 23.0905,42.50591 9.82764,9.4999 22.15549,16.36716 35.3836,19.8 12.87713,-36.01036 25.68998,-72.04523 38.51742,-108.07383 0.12718,-0.25982 0.38517,-0.78972 0.51281,-1.0541 7.91772,0.0775 15.83772,0.02 23.76,0.0427 2.59821,0.0456 5.26651,-0.24272 7.7918,0.5413 2.90863,0.78402 5.61636,2.86772 6.50978,5.82604 0.66095,2.33384 0.20285,4.82209 -0.62676,7.05108 -5.05513,14.75969 -10.40711,29.41967 -15.62633,44.11555 -1.29455,3.82849 -5.19199,6.21634 -9.13079,6.35309 -6.17145,0.11396 -12.34655,-0.0285 -18.51799,0.0855 -5.6705,15.79898 -11.288,31.60764 -16.90835,47.42029 1.46731,0.62494 3.0308,0.14142 4.55827,0.24216 2.30558,0.17777 4.60158,-0.24945 6.89439,-0.41309 15.05142,-1.38116 29.63505,-7.21677 41.52303,-16.53799 9.54001,-7.43956 17.37101,-17.06732 22.66317,-27.94792 4.63987,-9.36269 7.24321,-19.67294 7.99122,-30.07036 -0.35144,-3.61015 -0.23942,-7.24936 -0.0712,-10.86863 -1.0206,-13.67483 -5.54628,-27.09324 -13.19051,-38.48893 -7.49334,-11.20424 -17.83595,-20.545276 -29.84245,-26.694386 -9.2811,-4.88647 -19.56525,-7.76388 -29.99914,-8.68921 -0.88373,-0.18803 -1.76319,-0.22125 -2.64949,-0.19942 z m 29.34389,57.476986 c -0.36239,-0.003 -0.694,0.0496 -0.94015,0.32762 -5.41067,15.11524 -10.7712,30.24415 -16.18187,45.35483 2.96744,0.0182 5.95424,0.1527 8.91712,-0.057 5.24202,-15.24287 10.82476,-30.37178 16.15339,-45.58274 -2.28871,-0.0501 -4.57765,0.0125 -6.8659,-0.0285 -0.3282,0.0479 -0.72021,-0.0114 -1.08259,-0.0142 z"
         style="fill:#ffffff;fill-opacity:1;display:inline;enable-background:new"
         inkscape:connector-curvature="0" />
      <path
         inkscape:connector-curvature="0"
         style="fill:#ffffff;fill-opacity:1;display:inline;enable-background:new"
         d="m 337.56016,47.002504 c -0.55394,0.0137 -1.11001,0.093 -1.66662,0.0962 -2.10934,6.04085 -4.29983,12.05324 -6.4261,18.08708 1.54697,0.0273 3.09671,-0.0248 4.64196,0.0214 1.12989,0.0462 2.31404,0.51836 2.93795,1.50636 0.71434,1.11621 0.67375,2.54502 0.22436,3.75524 -2.10267,5.91607 -4.22723,11.82573 -6.32461,17.74522 -1.85635,0.0255 -3.70972,-0.001 -5.56608,0.016 -0.25811,-0.005 -0.5284,0.0244 -0.77455,-0.0748 2.3572,-6.5022 4.65863,-13.02569 6.98164,-19.54003 -1.10766,-0.0171 -2.21489,0.008 -3.32255,-0.0107 -0.17094,0.35384 -0.28846,0.72776 -0.41666,1.1004 -2.13669,6.01008 -4.2909,12.01482 -6.42075,18.02833 -0.10086,0.15384 -0.0795,0.48973 -0.32051,0.49143 -1.76747,0.007 -3.53686,-0.003 -5.30433,0.005 -0.31794,-0.003 -0.64144,0.0299 -0.95083,-0.0641 4.84943,-13.45261 9.58755,-26.94325 14.43869,-40.39415 -9.47665,2.02729 -17.63027,9.11773 -21.15324,18.12448 -1.44441,3.56571 -2.07238,7.4156 -2.15272,11.24968 0.0991,1.84098 0.23034,3.68836 0.58759,5.50198 1.14014,6.03915 4.21975,11.69198 8.65894,15.93972 3.68536,3.562456 8.30831,6.137676 13.26885,7.424996 4.82892,-13.503886 9.63374,-27.016956 14.44403,-40.527686 0.0477,-0.0974 0.14444,-0.29615 0.19231,-0.39529 2.96914,0.0291 5.93914,0.007 8.91,0.016 0.97433,0.0171 1.97494,-0.091 2.92192,0.20299 1.09074,0.29401 2.10614,1.0754 2.44117,2.18477 0.24786,0.87519 0.0761,1.80828 -0.23504,2.64415 -1.89567,5.53489 -3.90266,11.03238 -5.85987,16.54333 -0.48546,1.43569 -1.947,2.33113 -3.42405,2.38241 -2.31429,0.0427 -4.62995,-0.0107 -6.94424,0.0321 -2.12644,5.92461 -4.233,11.852856 -6.34063,17.782606 0.55024,0.23435 1.13655,0.053 1.70935,0.0908 0.86459,0.0667 1.72559,-0.0936 2.58539,-0.15491 5.64429,-0.51794 11.11315,-2.70629 15.57114,-6.20175 3.57751,-2.789836 6.51413,-6.400246 8.49869,-10.480466 1.73995,-3.51101 2.7162,-7.37735 2.99671,-11.27639 -0.13179,-1.3538 -0.0898,-2.71851 -0.0267,-4.07573 -0.38273,-5.12806 -2.07986,-10.15997 -4.94644,-14.43335 -2.81001,-4.20159 -6.68849,-7.70448 -11.19092,-10.0104 -3.48042,-1.83242 -7.33697,-2.91145 -11.24968,-3.25845 -0.3314,-0.0705 -0.6612,-0.083 -0.99356,-0.0748 z m 11.00396,21.55387 c -0.13589,-0.001 -0.26025,0.0186 -0.35255,0.12286 -2.02901,5.66822 -4.0392,11.34156 -6.06821,17.00806 1.11279,0.007 2.23284,0.0573 3.34392,-0.0214 1.96576,-5.71608 4.05929,-11.38942 6.05753,-17.09353 -0.85827,-0.0188 -1.71662,0.005 -2.57472,-0.0107 -0.12307,0.018 -0.27008,-0.004 -0.40597,-0.005 z"
         id="path3855" />
      <path
         id="path3857"
         d="m 321.03222,153.00183 c -0.36929,0.009 -0.74001,0.062 -1.11108,0.0641 -1.40623,4.02723 -2.86655,8.03549 -4.28406,12.05805 1.03131,0.0182 2.06447,-0.0165 3.09463,0.0143 0.75326,0.0308 1.5427,0.34557 1.95864,1.00423 0.47622,0.74414 0.44916,1.69668 0.14957,2.5035 -1.40178,3.94404 -2.81815,7.88381 -4.21641,11.83014 -1.23756,0.017 -2.47314,-6.7e-4 -3.71071,0.0107 -0.17208,-0.003 -0.35227,0.0163 -0.51637,-0.0499 1.57147,-4.3348 3.10575,-8.68379 4.65442,-13.02668 -0.73844,-0.0114 -1.47659,0.005 -2.21503,-0.007 -0.11396,0.23589 -0.1923,0.48517 -0.27777,0.7336 -1.42446,4.00672 -2.8606,8.00987 -4.2805,12.01888 -0.0672,0.10256 -0.053,0.32649 -0.21367,0.32762 -1.17832,0.005 -2.35791,-0.002 -3.53622,0.003 -0.21196,-0.002 -0.42763,0.0199 -0.63389,-0.0427 3.23295,-8.9684 6.3917,-17.96216 9.62579,-26.92942 -6.31776,1.35152 -11.75351,6.07848 -14.10215,12.08298 -0.96294,2.37714 -1.38159,4.94373 -1.43515,7.49978 0.0661,1.22732 0.15356,2.45891 0.39173,3.66799 0.76009,4.0261 2.81316,7.79465 5.77262,10.62647 2.45691,2.37497 5.53887,4.09179 8.8459,4.95 3.21928,-9.00259 6.42249,-18.0113 9.62935,-27.01845 0.0318,-0.0649 0.0963,-0.19743 0.12821,-0.26353 1.97942,0.0194 3.95942,0.005 5.93999,0.0107 0.64956,0.0114 1.31663,-0.0607 1.94795,0.13533 0.72716,0.19601 1.40409,0.71693 1.62745,1.45651 0.16524,0.58346 0.0507,1.20552 -0.1567,1.76277 -1.26378,3.68993 -2.60177,7.35492 -3.90658,11.02888 -0.32364,0.95713 -1.298,1.55409 -2.2827,1.58828 -1.54285,0.0285 -3.08663,-0.007 -4.62949,0.0214 -1.41762,3.94973 -2.822,7.9019 -4.22708,11.85506 0.36682,0.15623 0.7577,0.0353 1.13956,0.0605 0.5764,0.0445 1.1504,-0.0624 1.7236,-0.10327 3.76286,-0.34529 7.40876,-1.80419 10.38075,-4.1345 2.38501,-1.85989 4.34276,-4.26682 5.66579,-6.98697 1.15997,-2.34067 1.8108,-4.91823 1.99781,-7.51759 -0.0879,-0.90253 -0.0599,-1.81234 -0.0178,-2.71715 -0.25515,-3.41871 -1.38657,-6.77332 -3.29762,-9.62223 -1.87334,-2.80106 -4.459,-5.13632 -7.46062,-6.6736 -2.32028,-1.22162 -4.89131,-1.94097 -7.49978,-2.1723 -0.22093,-0.047 -0.4408,-0.0553 -0.66237,-0.0499 z m 7.33597,14.36924 c -0.0906,-6.7e-4 -0.1735,0.0124 -0.23503,0.0819 -1.35268,3.77881 -2.6928,7.56104 -4.04547,11.3387 0.74186,0.005 1.48856,0.0382 2.22928,-0.0143 1.3105,-3.81072 2.70619,-7.59294 4.03835,-11.39568 -0.57218,-0.0125 -1.14442,0.003 -1.71648,-0.007 -0.0821,0.012 -0.18006,-0.003 -0.27065,-0.003 z"
         style="fill:#ffffff;fill-opacity:1;display:inline;enable-background:new"
         inkscape:connector-curvature="0" />
      <path
         inkscape:connector-curvature="0"
         style="fill:#ffffff;fill-opacity:1;display:inline;enable-background:new"
         d="m 312.71543,231.00246 c -0.25851,0.006 -0.51801,0.0434 -0.77776,0.0449 -0.98436,2.81906 -2.00658,5.62484 -2.99884,8.44063 0.72192,0.0127 1.44513,-0.0115 2.16624,0.01 0.52728,0.0216 1.07989,0.2419 1.37105,0.70296 0.33335,0.5209 0.31441,1.18768 0.1047,1.75245 -0.98125,2.76083 -1.97271,5.51866 -2.95149,8.28109 -0.86629,0.0119 -1.7312,-4.6e-4 -2.5975,0.007 -0.12045,-0.002 -0.24659,0.0114 -0.36145,-0.0349 1.10002,-3.03435 2.17402,-6.07865 3.25809,-9.11867 -0.51691,-0.008 -1.03361,0.004 -1.55052,-0.005 -0.0798,0.16513 -0.13461,0.33962 -0.19444,0.51352 -0.99712,2.80471 -2.00242,5.60691 -2.99635,8.41321 -0.047,0.0718 -0.0371,0.22855 -0.14957,0.22934 -0.82482,0.004 -1.65054,-0.001 -2.47535,0.002 -0.14837,-0.001 -0.29934,0.0139 -0.44372,-0.0299 2.26306,-6.27788 4.47418,-12.57351 6.73805,-18.85059 -4.42243,0.94607 -8.22746,4.25494 -9.87151,8.45809 -0.67405,1.66399 -0.96711,3.4606 -1.0046,5.24984 0.0463,0.85912 0.10749,1.72123 0.27421,2.56759 0.53206,2.81827 1.96921,5.45625 4.04083,7.43853 1.71984,1.66247 3.87721,2.86425 6.19213,3.46499 2.2535,-6.30181 4.49574,-12.6079 6.74054,-18.9129 0.0223,-0.0454 0.0674,-0.1382 0.0898,-0.18447 1.38559,0.0136 2.77159,0.004 4.15799,0.007 0.45469,0.008 0.92164,-0.0425 1.36356,0.0947 0.50902,0.13721 0.98287,0.50185 1.13922,1.01955 0.11568,0.40843 0.0355,0.84387 -0.10969,1.23394 -0.88465,2.58295 -1.82123,5.14844 -2.7346,7.72022 -0.22654,0.66999 -0.90859,1.08786 -1.59787,1.11179 -1.08,0.0199 -2.16064,-0.005 -3.24065,0.015 -0.99233,2.76481 -1.9754,5.53133 -2.95896,8.29854 0.25678,0.10936 0.5304,0.0247 0.79769,0.0423 0.40348,0.0311 0.80527,-0.0437 1.20652,-0.0723 2.63401,-0.2417 5.18613,-1.26293 7.26653,-2.89415 1.66951,-1.30192 3.03993,-2.98677 3.96604,-4.89087 0.81199,-1.63847 1.26757,-3.44276 1.39846,-5.26232 -0.0615,-0.63177 -0.0419,-1.26863 -0.0125,-1.902 -0.17861,-2.3931 -0.9706,-4.74132 -2.30834,-6.73556 -1.31133,-1.96074 -3.1213,-3.59542 -5.22244,-4.67152 -1.62419,-0.85513 -3.4239,-1.35867 -5.24984,-1.5206 -0.15465,-0.0329 -0.30856,-0.0387 -0.46366,-0.0349 z m 5.13517,10.05846 c -0.0634,-4.7e-4 -0.12145,0.009 -0.16452,0.0573 -0.94687,2.64517 -1.88496,5.29273 -2.83183,7.93709 0.51931,0.004 1.04199,0.0267 1.5605,-0.01 0.91735,-2.6675 1.89433,-5.31506 2.82684,-7.97697 -0.40052,-0.009 -0.80109,0.002 -1.20153,-0.005 -0.0575,0.008 -0.12605,-0.002 -0.18946,-0.002 z"
         id="path3859" />
      <path
         id="path3861"
         d="m 432.50429,59.000887 c -0.18465,0.0046 -0.37,0.031 -0.55554,0.03207 -0.70311,2.013616 -1.43328,4.017745 -2.14203,6.029025 0.51565,0.0091 1.03223,-0.0083 1.54732,0.0071 0.37663,0.0154 0.77134,0.172787 0.97931,0.50212 0.23812,0.37207 0.22459,0.84834 0.0748,1.251746 -0.70089,1.972023 -1.40908,3.941909 -2.1082,5.915072 -0.61879,0.0085 -1.23658,-3.34e-4 -1.85536,0.0053 -0.086,-0.0017 -0.17614,0.0081 -0.25819,-0.02493 0.78574,-2.1674 1.55288,-4.341896 2.32722,-6.513342 -0.36922,-0.0057 -0.7383,0.0027 -1.10752,-0.0036 -0.057,0.117946 -0.0962,0.242586 -0.13889,0.3668 -0.71223,2.003359 -1.4303,4.004938 -2.14024,6.009441 -0.0336,0.05128 -0.0265,0.163243 -0.10684,0.16381 -0.58916,0.0023 -1.17895,-0.001 -1.76811,0.0017 -0.10598,-0.001 -0.21381,0.01 -0.31694,-0.02137 1.61647,-4.484202 3.19584,-8.98108 4.81289,-13.464712 -3.15888,0.675763 -5.87675,3.039242 -7.05108,6.041491 -0.48147,1.18857 -0.69079,2.471866 -0.71757,3.749892 0.033,0.61366 0.0768,1.229453 0.19586,1.833993 0.38005,2.013049 1.40659,3.897328 2.88632,5.313238 1.22845,1.18749 2.76943,2.04589 4.42294,2.475 1.60964,-4.5013 3.21125,-9.005651 4.81468,-13.509226 0.0159,-0.03247 0.0482,-0.09872 0.0641,-0.131763 0.98972,0.0097 1.97972,0.0023 2.97,0.0053 0.32478,0.0057 0.65831,-0.03033 0.97397,0.06766 0.36358,0.098 0.70205,0.358467 0.81373,0.728257 0.0826,0.29173 0.0254,0.602759 -0.0784,0.881383 -0.63189,1.844962 -1.30088,3.677458 -1.95329,5.514441 -0.16182,0.478563 -0.649,0.777042 -1.14135,0.794132 -0.77143,0.0142 -1.54331,-0.004 -2.31473,0.0107 -0.70882,1.97487 -1.411,3.95096 -2.11355,5.92754 0.18342,0.0781 0.37885,0.0177 0.56979,0.0303 0.28819,0.0222 0.57519,-0.0312 0.86179,-0.0516 1.88143,-0.17265 3.70439,-0.9021 5.19038,-2.06725 1.1925,-0.92995 2.17138,-2.13342 2.8329,-3.49349 0.57998,-1.170335 0.9054,-2.459115 0.9989,-3.758794 -0.0439,-0.451267 -0.0299,-0.90617 -0.009,-1.358577 -0.12759,-1.709352 -0.69329,-3.386655 -1.64882,-4.811115 -0.93667,-1.400529 -2.22949,-2.568159 -3.7303,-3.336799 -1.16015,-0.610806 -2.44565,-0.970483 -3.74989,-1.086149 -0.11048,-0.0235 -0.2204,-0.02767 -0.33119,-0.02493 z m 3.66799,7.184621 c -0.0453,-3.33e-4 -0.0867,0.0062 -0.11752,0.04095 -0.67634,1.889406 -1.3464,3.780519 -2.02274,5.669351 0.37093,0.0023 0.74428,0.0191 1.11464,-0.0071 0.65526,-1.905359 1.3531,-3.796472 2.01918,-5.697842 -0.28609,-0.0063 -0.57221,0.0017 -0.85824,-0.0036 -0.041,0.006 -0.09,-0.0013 -0.13532,-0.0017 z"
         style="fill:#ffffff;fill-opacity:1;display:inline;enable-background:new"
         inkscape:connector-curvature="0" />
      <path
         inkscape:connector-curvature="0"
         style="fill:#ffffff;fill-opacity:1;display:inline;enable-background:new"
         d="m 428.34585,106.00054 c -0.12925,0.003 -0.259,0.0217 -0.38888,0.0225 -0.49218,1.40953 -1.0033,2.81243 -1.49942,4.22033 0.36095,0.006 0.72256,-0.006 1.08313,0.005 0.26364,0.0108 0.53993,0.12095 0.68551,0.35148 0.16669,0.26045 0.15722,0.59384 0.0524,0.87623 -0.49062,1.38042 -0.98635,2.75934 -1.47574,4.14056 -0.43315,0.006 -0.86561,-2.3e-4 -1.29876,0.004 -0.0602,-10e-4 -0.12329,0.006 -0.18073,-0.0174 0.55002,-1.51718 1.08702,-3.03933 1.62906,-4.55935 -0.25846,-0.004 -0.51681,0.002 -0.77527,-0.002 -0.0399,0.0826 -0.0673,0.16981 -0.0972,0.25676 -0.49856,1.40236 -1.00121,2.80347 -1.49817,4.20662 -0.0235,0.0359 -0.0186,0.11427 -0.0748,0.11467 -0.41241,0.002 -0.82527,-7e-4 -1.23768,0.001 -0.0742,-7e-4 -0.14967,0.007 -0.22186,-0.015 1.13153,-3.13895 2.23709,-6.28678 3.36903,-9.42533 -2.21122,0.47304 -4.11374,2.12748 -4.93577,4.22906 -0.33703,0.832 -0.48355,1.73031 -0.5023,2.62493 0.0231,0.42956 0.0538,0.86062 0.1371,1.2838 0.26604,1.40914 0.98462,2.72814 2.02043,3.71928 0.85992,0.83124 1.93861,1.43213 3.09607,1.7325 1.12675,-3.15092 2.24788,-6.30397 3.37029,-9.45648 0.0111,-0.0227 0.0337,-0.0691 0.0449,-0.0922 0.6928,0.007 1.38581,0.002 2.079,0.004 0.22735,0.004 0.46082,-0.0212 0.68179,0.0474 0.2545,0.0686 0.49143,0.25092 0.56961,0.50978 0.0578,0.20421 0.0178,0.42193 -0.0549,0.61697 -0.44233,1.29147 -0.91062,2.57423 -1.36731,3.86012 -0.11327,0.33499 -0.4543,0.54393 -0.79895,0.55589 -0.54,0.01 -1.08032,-0.003 -1.62031,0.007 -0.49618,1.38242 -0.98771,2.76568 -1.47949,4.14929 0.12839,0.0547 0.26519,0.0124 0.39885,0.0212 0.20174,0.0155 0.40264,-0.0218 0.60326,-0.0361 1.317,-0.12085 2.59308,-0.63147 3.63327,-1.44708 0.83476,-0.65096 1.51998,-1.49339 1.98304,-2.44545 0.40599,-0.81923 0.63378,-1.72138 0.69923,-2.63116 -0.0307,-0.31589 -0.0209,-0.63432 -0.006,-0.95101 -0.0893,-1.19655 -0.4853,-2.37066 -1.15417,-3.36779 -0.65568,-0.98037 -1.56065,-1.79772 -2.61122,-2.33577 -0.81211,-0.42756 -1.71196,-0.67934 -2.62493,-0.7603 -0.0773,-0.0165 -0.15429,-0.0194 -0.23184,-0.0175 z m 2.5676,5.02925 c -0.0317,-2.3e-4 -0.0607,0.004 -0.0823,0.0287 -0.47344,1.32259 -0.94248,2.64637 -1.41592,3.96856 0.25965,0.002 0.52099,0.0134 0.78025,-0.005 0.45868,-1.33376 0.94717,-2.65754 1.41343,-3.9885 -0.20027,-0.004 -0.40055,10e-4 -0.60077,-0.002 -0.0287,0.004 -0.063,-9.1e-4 -0.0947,-10e-4 z"
         id="path3863" />
      <path
         id="path3865"
         d="m 424.24023,143.99932 c -0.0923,0.002 -0.185,0.0155 -0.27776,0.0161 -0.35157,1.0068 -0.71664,2.00887 -1.07101,3.01451 0.25781,0.004 0.51611,-0.004 0.77366,0.004 0.18831,0.008 0.38565,0.0864 0.48964,0.25106 0.11906,0.18603 0.1123,0.42417 0.0374,0.62587 -0.35045,0.98601 -0.70454,1.97095 -1.0541,2.95754 -0.30939,0.004 -0.61829,-1.7e-4 -0.92768,0.003 -0.043,-7.1e-4 -0.0881,0.004 -0.1291,-0.0124 0.39287,-1.0837 0.77644,-2.17095 1.16361,-3.25667 -0.18461,-0.003 -0.36914,0.001 -0.55376,-0.001 -0.0285,0.059 -0.0481,0.12129 -0.0694,0.1834 -0.35611,1.00168 -0.71514,2.00247 -1.07011,3.00472 -0.0168,0.0256 -0.0133,0.0816 -0.0534,0.0819 -0.29458,0.001 -0.58947,-5e-4 -0.88405,7.2e-4 -0.053,-5e-4 -0.1069,0.005 -0.15848,-0.0107 0.80823,-2.2421 1.59792,-4.49054 2.40644,-6.73236 -1.57943,0.33789 -2.93837,1.51963 -3.52554,3.02075 -0.24073,0.59429 -0.34539,1.23594 -0.35878,1.87495 0.0165,0.30683 0.0384,0.61472 0.0979,0.917 0.19003,1.00652 0.7033,1.94866 1.44316,2.65662 0.61423,0.59374 1.38472,1.02294 2.21147,1.23749 0.80482,-2.25065 1.60562,-4.50282 2.40734,-6.75461 0.008,-0.0162 0.0241,-0.0494 0.0321,-0.0658 0.49486,0.005 0.98987,0.001 1.485,0.003 0.16239,0.003 0.32916,-0.0151 0.48699,0.0339 0.18179,0.049 0.35102,0.17923 0.40687,0.36413 0.0413,0.14586 0.0127,0.30138 -0.0392,0.44069 -0.31595,0.92248 -0.65044,1.83873 -0.97665,2.75722 -0.0809,0.23928 -0.3245,0.38852 -0.57067,0.39706 -0.38572,0.007 -0.77166,-0.002 -1.15736,0.005 -0.35442,0.98744 -0.70551,1.97548 -1.05678,2.96377 0.0917,0.0391 0.18942,0.009 0.28489,0.0151 0.1441,0.0111 0.2876,-0.0156 0.4309,-0.0258 0.94072,-0.0863 1.8522,-0.45105 2.59519,-1.03363 0.59625,-0.46497 1.08569,-1.0667 1.41645,-1.74674 0.28999,-0.58516 0.4527,-1.22955 0.49946,-1.87939 -0.0219,-0.22564 -0.0149,-0.45309 -0.004,-0.6793 -0.0638,-0.85467 -0.34663,-1.69332 -0.8244,-2.40555 -0.46834,-0.70026 -1.11475,-1.28408 -1.86515,-1.66841 -0.58008,-0.30539 -1.22283,-0.48524 -1.87495,-0.54306 -0.0552,-0.0118 -0.11021,-0.0139 -0.1656,-0.0125 z m 1.83399,3.59231 c -0.0226,-1.6e-4 -0.0433,0.003 -0.0588,0.0205 -0.33817,0.94471 -0.6732,1.89026 -1.01137,2.83468 0.18546,0.001 0.37213,0.01 0.55732,-0.004 0.32763,-0.95268 0.67655,-1.89824 1.00959,-2.84892 -0.14305,-0.003 -0.28611,7.1e-4 -0.42912,-10e-4 -0.0205,0.003 -0.045,-6.5e-4 -0.0676,-7.1e-4 z"
         style="fill:#ffffff;fill-opacity:1;display:inline;enable-background:new"
         inkscape:connector-curvature="0" />
      <path
         inkscape:connector-curvature="0"
         style="fill:#015294;display:inline;enable-background:new"
         d="m 148.19987,76.005942 c -1.47717,0.0364 -2.96003,0.24786 -4.44432,0.25641 -5.62491,16.10894 -11.46622,32.141978 -17.13626,48.232228 4.12524,0.0729 8.25788,-0.0661 12.37856,0.057 3.01302,0.12307 6.17076,1.3823 7.83453,4.01698 1.90491,2.97655 1.79665,6.7867 0.59828,10.01396 -5.60713,15.77618 -11.27261,31.53528 -16.86562,47.32058 -4.95028,0.0679 -9.89259,-0.003 -14.84288,0.0427 -0.68829,-0.0141 -1.40907,0.065 -2.06546,-0.19943 6.28586,-17.33921 12.423,-34.73518 18.6177,-52.10676 -2.95376,-0.0456 -5.90639,0.0217 -8.86015,-0.0285 -0.45583,0.94356 -0.76921,1.94068 -1.11108,2.93439 -5.69784,16.02689 -11.4424,32.03953 -17.12201,48.07554 -0.26894,0.41025 -0.21196,1.30595 -0.85468,1.3105 -4.71326,0.0187 -9.43164,-0.009 -14.14489,0.0142 -0.84784,-0.009 -1.7105,0.0798 -2.53554,-0.17094 12.93182,-35.87361 25.56679,-71.84865 38.50317,-107.717708 -25.27107,5.40611 -47.01404,24.313948 -56.40864,48.331948 -3.85175,9.50856 -5.52634,19.77493 -5.74058,29.99914 0.26438,4.90926 0.61423,9.83561 1.56691,14.67194 3.04037,16.10439 11.25267,31.1786 23.0905,42.50591 9.82764,9.4999 22.15549,16.36716 35.3836,19.8 12.87713,-36.01036 25.68998,-72.04523 38.51742,-108.07383 0.12718,-0.25982 0.38517,-0.78972 0.51281,-1.0541 7.91772,0.0775 15.83772,0.02 23.76,0.0427 2.59821,0.0456 5.26651,-0.24272 7.7918,0.5413 2.90863,0.78402 5.61636,2.86772 6.50978,5.82604 0.66095,2.33384 0.20285,4.82209 -0.62676,7.05108 -5.05513,14.75969 -10.40711,29.41967 -15.62633,44.11555 -1.29455,3.82849 -5.19199,6.21634 -9.13079,6.35309 -6.17145,0.11396 -12.34655,-0.0285 -18.51799,0.0855 -5.6705,15.79898 -11.288,31.60764 -16.90835,47.42029 1.46731,0.62494 3.0308,0.14142 4.55827,0.24216 2.30558,0.17777 4.60158,-0.24945 6.89439,-0.41309 15.05142,-1.38116 29.63505,-7.21677 41.52303,-16.53799 9.54001,-7.43956 17.37101,-17.06732 22.66317,-27.94792 4.63987,-9.36269 7.24321,-19.67294 7.99122,-30.07036 -0.35144,-3.61015 -0.23942,-7.24936 -0.0712,-10.86863 -1.0206,-13.67483 -5.54628,-27.09324 -13.19051,-38.48893 -7.49334,-11.20424 -17.83595,-20.545278 -29.84245,-26.694388 -9.2811,-4.88647 -19.56525,-7.76388 -29.99914,-8.68921 -0.88373,-0.18803 -1.76319,-0.22125 -2.64949,-0.19942 z m 29.34389,57.476988 c -0.36239,-0.003 -0.694,0.0496 -0.94015,0.32762 -5.41067,15.11524 -10.7712,30.24415 -16.18187,45.35483 2.96744,0.0182 5.95424,0.1527 8.91712,-0.057 5.24202,-15.24287 10.82476,-30.37178 16.15339,-45.58274 -2.28871,-0.0501 -4.57765,0.0125 -6.8659,-0.0285 -0.3282,0.0479 -0.72021,-0.0114 -1.08259,-0.0142 z"
         id="path5" />
      <path
         id="path3841"
         d="m 337.56016,46.002522 c -0.55394,0.0137 -1.11001,0.093 -1.66662,0.0962 -2.10934,6.04085 -4.29983,12.05324 -6.4261,18.08708 1.54697,0.0273 3.09671,-0.0248 4.64196,0.0214 1.12989,0.0462 2.31404,0.51836 2.93795,1.50636 0.71434,1.11621 0.67375,2.54502 0.22436,3.75524 -2.10267,5.91607 -4.22723,11.82573 -6.32461,17.74522 -1.85635,0.0255 -3.70972,-0.001 -5.56608,0.016 -0.25811,-0.005 -0.5284,0.0244 -0.77455,-0.0748 2.3572,-6.5022 4.65863,-13.02569 6.98164,-19.54003 -1.10766,-0.0171 -2.21489,0.008 -3.32255,-0.0107 -0.17094,0.35384 -0.28846,0.72776 -0.41666,1.1004 -2.13669,6.01008 -4.2909,12.01482 -6.42075,18.02833 -0.10086,0.15384 -0.0795,0.48973 -0.32051,0.49143 -1.76747,0.007 -3.53686,-0.003 -5.30433,0.005 -0.31794,-0.003 -0.64144,0.0299 -0.95083,-0.0641 4.84943,-13.45261 9.58755,-26.94325 14.43869,-40.39415 -9.47665,2.02729 -17.63027,9.11773 -21.15324,18.12448 -1.44441,3.56571 -2.07238,7.4156 -2.15272,11.24968 0.0991,1.84098 0.23034,3.68836 0.58759,5.50198 1.14014,6.03915 4.21975,11.69198 8.65894,15.93972 3.68536,3.562458 8.30831,6.137678 13.26885,7.424998 4.82892,-13.503888 9.63374,-27.016958 14.44403,-40.527688 0.0477,-0.0974 0.14444,-0.29615 0.19231,-0.39529 2.96914,0.0291 5.93914,0.007 8.91,0.016 0.97433,0.0171 1.97494,-0.091 2.92192,0.20299 1.09074,0.29401 2.10614,1.0754 2.44117,2.18477 0.24786,0.87519 0.0761,1.80828 -0.23504,2.64415 -1.89567,5.53489 -3.90266,11.03238 -5.85987,16.54333 -0.48546,1.43569 -1.947,2.33113 -3.42405,2.38241 -2.31429,0.0427 -4.62995,-0.0107 -6.94424,0.0321 -2.12644,5.92461 -4.233,11.85286 -6.34063,17.782608 0.55024,0.23435 1.13655,0.053 1.70935,0.0908 0.86459,0.0667 1.72559,-0.0936 2.58539,-0.15491 5.64429,-0.51794 11.11315,-2.70629 15.57114,-6.201748 3.57751,-2.78984 6.51413,-6.40025 8.49869,-10.48047 1.73995,-3.51101 2.7162,-7.37735 2.99671,-11.27639 -0.13179,-1.3538 -0.0898,-2.71851 -0.0267,-4.07573 -0.38273,-5.12806 -2.07986,-10.15997 -4.94644,-14.43335 -2.81001,-4.20159 -6.68849,-7.70448 -11.19092,-10.0104 -3.48042,-1.83242 -7.33697,-2.91145 -11.24968,-3.25845 -0.3314,-0.0705 -0.6612,-0.083 -0.99356,-0.0748 z m 11.00396,21.55387 c -0.13589,-0.001 -0.26025,0.0186 -0.35255,0.12286 -2.02901,5.66822 -4.0392,11.34156 -6.06821,17.00806 1.11279,0.007 2.23284,0.0573 3.34392,-0.0214 1.96576,-5.71608 4.05929,-11.38942 6.05753,-17.09353 -0.85827,-0.0188 -1.71662,0.005 -2.57472,-0.0107 -0.12307,0.018 -0.27008,-0.004 -0.40597,-0.005 z"
         style="fill:#015294;display:inline;enable-background:new"
         inkscape:connector-curvature="0" />
      <path
         inkscape:connector-curvature="0"
         style="fill:#015294;display:inline;enable-background:new"
         d="m 321.03222,152.00185 c -0.36929,0.009 -0.74001,0.062 -1.11108,0.0641 -1.40623,4.02723 -2.86655,8.03549 -4.28406,12.05805 1.03131,0.0182 2.06447,-0.0165 3.09463,0.0143 0.75326,0.0308 1.5427,0.34557 1.95864,1.00423 0.47622,0.74414 0.44916,1.69668 0.14957,2.5035 -1.40178,3.94404 -2.81815,7.88381 -4.21641,11.83014 -1.23756,0.017 -2.47314,-6.7e-4 -3.71071,0.0107 -0.17208,-0.003 -0.35227,0.0163 -0.51637,-0.0499 1.57147,-4.3348 3.10575,-8.68379 4.65442,-13.02668 -0.73844,-0.0114 -1.47659,0.005 -2.21503,-0.007 -0.11396,0.23589 -0.1923,0.48517 -0.27777,0.7336 -1.42446,4.00672 -2.8606,8.00987 -4.2805,12.01888 -0.0672,0.10256 -0.053,0.32649 -0.21367,0.32762 -1.17832,0.005 -2.35791,-0.002 -3.53622,0.003 -0.21196,-0.002 -0.42763,0.0199 -0.63389,-0.0427 3.23295,-8.9684 6.3917,-17.96216 9.62579,-26.92942 -6.31776,1.35152 -11.75351,6.07848 -14.10215,12.08298 -0.96294,2.37714 -1.38159,4.94373 -1.43515,7.49978 0.0661,1.22732 0.15356,2.45891 0.39173,3.66799 0.76009,4.0261 2.81316,7.79465 5.77262,10.62647 2.45691,2.37497 5.53887,4.09179 8.8459,4.95 3.21928,-9.00259 6.42249,-18.0113 9.62935,-27.01845 0.0318,-0.0649 0.0963,-0.19743 0.12821,-0.26353 1.97942,0.0194 3.95942,0.005 5.93999,0.0107 0.64956,0.0114 1.31663,-0.0607 1.94795,0.13533 0.72716,0.19601 1.40409,0.71693 1.62745,1.45651 0.16524,0.58346 0.0507,1.20552 -0.1567,1.76277 -1.26378,3.68993 -2.60177,7.35492 -3.90658,11.02888 -0.32364,0.95713 -1.298,1.55409 -2.2827,1.58828 -1.54285,0.0285 -3.08663,-0.007 -4.62949,0.0214 -1.41762,3.94973 -2.822,7.9019 -4.22708,11.85506 0.36682,0.15623 0.7577,0.0353 1.13956,0.0605 0.5764,0.0445 1.1504,-0.0624 1.7236,-0.10327 3.76286,-0.34529 7.40876,-1.80419 10.38075,-4.1345 2.38501,-1.85989 4.34276,-4.26682 5.66579,-6.98697 1.15997,-2.34067 1.8108,-4.91823 1.99781,-7.51759 -0.0879,-0.90253 -0.0599,-1.81234 -0.0178,-2.71715 -0.25515,-3.41871 -1.38657,-6.77332 -3.29762,-9.62223 -1.87334,-2.80106 -4.459,-5.13632 -7.46062,-6.6736 -2.32028,-1.22162 -4.89131,-1.94097 -7.49978,-2.1723 -0.22093,-0.047 -0.4408,-0.0553 -0.66237,-0.0499 z m 7.33597,14.36924 c -0.0906,-6.7e-4 -0.1735,0.0124 -0.23503,0.0819 -1.35268,3.77881 -2.6928,7.56104 -4.04547,11.3387 0.74186,0.005 1.48856,0.0382 2.22928,-0.0143 1.3105,-3.81072 2.70619,-7.59294 4.03835,-11.39568 -0.57218,-0.0125 -1.14442,0.003 -1.71648,-0.007 -0.0821,0.012 -0.18006,-0.003 -0.27065,-0.003 z"
         id="path3843" />
      <path
         id="path3845"
         d="m 312.71543,230.00248 c -0.25851,0.006 -0.51801,0.0434 -0.77776,0.0449 -0.98436,2.81906 -2.00658,5.62484 -2.99884,8.44063 0.72192,0.0127 1.44513,-0.0115 2.16624,0.01 0.52728,0.0216 1.07989,0.2419 1.37105,0.70296 0.33335,0.5209 0.31441,1.18768 0.1047,1.75245 -0.98125,2.76083 -1.97271,5.51866 -2.95149,8.28109 -0.86629,0.0119 -1.7312,-4.6e-4 -2.5975,0.007 -0.12045,-0.002 -0.24659,0.0114 -0.36145,-0.0349 1.10002,-3.03435 2.17402,-6.07865 3.25809,-9.11867 -0.51691,-0.008 -1.03361,0.004 -1.55052,-0.005 -0.0798,0.16513 -0.13461,0.33962 -0.19444,0.51352 -0.99712,2.80471 -2.00242,5.60691 -2.99635,8.41321 -0.047,0.0718 -0.0371,0.22855 -0.14957,0.22934 -0.82482,0.004 -1.65054,-0.001 -2.47535,0.002 -0.14837,-10e-4 -0.29934,0.0139 -0.44372,-0.0299 2.26306,-6.27788 4.47418,-12.57351 6.73805,-18.85059 -4.42243,0.94607 -8.22746,4.25494 -9.87151,8.45809 -0.67405,1.66399 -0.96711,3.4606 -1.0046,5.24984 0.0463,0.85912 0.10749,1.72123 0.27421,2.56759 0.53206,2.81827 1.96921,5.45625 4.04083,7.43853 1.71984,1.66247 3.87721,2.86425 6.19213,3.46499 2.2535,-6.30181 4.49574,-12.6079 6.74054,-18.9129 0.0223,-0.0454 0.0674,-0.1382 0.0898,-0.18447 1.38559,0.0136 2.77159,0.004 4.15799,0.007 0.45469,0.008 0.92164,-0.0425 1.36356,0.0947 0.50902,0.13721 0.98287,0.50185 1.13922,1.01955 0.11568,0.40843 0.0355,0.84387 -0.10969,1.23394 -0.88465,2.58295 -1.82123,5.14844 -2.7346,7.72022 -0.22654,0.66999 -0.90859,1.08786 -1.59787,1.11179 -1.08,0.0199 -2.16064,-0.005 -3.24065,0.015 -0.99233,2.76481 -1.9754,5.53133 -2.95896,8.29854 0.25678,0.10936 0.5304,0.0247 0.79769,0.0423 0.40348,0.0311 0.80527,-0.0437 1.20652,-0.0723 2.63401,-0.2417 5.18613,-1.26293 7.26653,-2.89415 1.66951,-1.30192 3.03993,-2.98677 3.96604,-4.89087 0.81199,-1.63847 1.26757,-3.44276 1.39846,-5.26232 -0.0615,-0.63177 -0.0419,-1.26863 -0.0125,-1.902 -0.17861,-2.3931 -0.9706,-4.74132 -2.30834,-6.73556 -1.31133,-1.96074 -3.1213,-3.59542 -5.22244,-4.67152 -1.62419,-0.85513 -3.4239,-1.35867 -5.24984,-1.5206 -0.15465,-0.0329 -0.30856,-0.0387 -0.46366,-0.0349 z m 5.13517,10.05846 c -0.0634,-4.7e-4 -0.12145,0.009 -0.16452,0.0573 -0.94687,2.64517 -1.88496,5.29273 -2.83183,7.93709 0.51931,0.004 1.04199,0.0267 1.5605,-0.01 0.91735,-2.6675 1.89433,-5.31506 2.82684,-7.97697 -0.40052,-0.009 -0.80109,0.002 -1.20153,-0.005 -0.0575,0.008 -0.12605,-0.002 -0.18946,-0.002 z"
         style="fill:#015294;display:inline;enable-background:new"
         inkscape:connector-curvature="0" />
      <path
         inkscape:connector-curvature="0"
         style="fill:#015294;display:inline;enable-background:new"
         d="m 432.50429,58.000905 c -0.18465,0.0046 -0.37,0.031 -0.55554,0.03207 -0.70311,2.013616 -1.43328,4.017745 -2.14203,6.029025 0.51565,0.0091 1.03223,-0.0083 1.54732,0.0071 0.37663,0.0154 0.77134,0.172787 0.97931,0.50212 0.23812,0.37207 0.22459,0.84834 0.0748,1.251746 -0.70089,1.972023 -1.40908,3.941909 -2.1082,5.915072 -0.61879,0.0085 -1.23658,-3.34e-4 -1.85536,0.0053 -0.086,-0.0017 -0.17614,0.0081 -0.25819,-0.02493 0.78574,-2.1674 1.55288,-4.341896 2.32722,-6.513342 -0.36922,-0.0057 -0.7383,0.0027 -1.10752,-0.0036 -0.057,0.117946 -0.0962,0.242586 -0.13889,0.3668 -0.71223,2.003359 -1.4303,4.004938 -2.14024,6.009441 -0.0336,0.05128 -0.0265,0.163243 -0.10684,0.16381 -0.58916,0.0023 -1.17895,-0.001 -1.76811,0.0017 -0.10598,-0.001 -0.21381,0.01 -0.31694,-0.02137 1.61647,-4.484202 3.19584,-8.98108 4.81289,-13.464712 -3.15888,0.675763 -5.87675,3.039242 -7.05108,6.041491 -0.48147,1.18857 -0.69079,2.471866 -0.71757,3.749892 0.033,0.61366 0.0768,1.229453 0.19586,1.833993 0.38005,2.013049 1.40659,3.897328 2.88632,5.313238 1.22845,1.18749 2.76943,2.04589 4.42294,2.475 1.60964,-4.5013 3.21125,-9.005651 4.81468,-13.509226 0.0159,-0.03247 0.0482,-0.09872 0.0641,-0.131763 0.98972,0.0097 1.97972,0.0023 2.97,0.0053 0.32478,0.0057 0.65831,-0.03033 0.97397,0.06766 0.36358,0.098 0.70205,0.358467 0.81373,0.728257 0.0826,0.29173 0.0254,0.602759 -0.0784,0.881383 -0.63189,1.844962 -1.30088,3.677458 -1.95329,5.514441 -0.16182,0.478563 -0.649,0.777042 -1.14135,0.794132 -0.77143,0.0142 -1.54331,-0.004 -2.31473,0.0107 -0.70882,1.97487 -1.411,3.95096 -2.11355,5.92754 0.18342,0.0781 0.37885,0.0177 0.56979,0.0303 0.28819,0.0222 0.57519,-0.0312 0.86179,-0.0516 1.88143,-0.17265 3.70439,-0.9021 5.19038,-2.06725 1.1925,-0.92995 2.17138,-2.13342 2.8329,-3.49349 0.57998,-1.170335 0.9054,-2.459115 0.9989,-3.758794 -0.0439,-0.451267 -0.0299,-0.90617 -0.009,-1.358577 -0.12759,-1.709352 -0.69329,-3.386655 -1.64882,-4.811115 -0.93667,-1.400529 -2.22949,-2.568159 -3.7303,-3.336799 -1.16015,-0.610806 -2.44565,-0.970483 -3.74989,-1.086149 -0.11048,-0.0235 -0.2204,-0.02767 -0.33119,-0.02493 z m 3.66799,7.184621 c -0.0453,-3.33e-4 -0.0867,0.0062 -0.11752,0.04095 -0.67634,1.889406 -1.3464,3.780519 -2.02274,5.669351 0.37093,0.0023 0.74428,0.0191 1.11464,-0.0071 0.65526,-1.905359 1.3531,-3.796472 2.01918,-5.697842 -0.28609,-0.0063 -0.57221,0.0017 -0.85824,-0.0036 -0.041,0.006 -0.09,-0.0013 -0.13532,-0.0017 z"
         id="path3847" />
      <path
         id="path3849"
         d="m 428.34585,105.00056 c -0.12925,0.003 -0.259,0.0217 -0.38888,0.0225 -0.49218,1.40953 -1.0033,2.81243 -1.49942,4.22033 0.36095,0.006 0.72256,-0.006 1.08313,0.005 0.26364,0.0108 0.53993,0.12095 0.68551,0.35148 0.16669,0.26045 0.15722,0.59384 0.0524,0.87623 -0.49062,1.38042 -0.98635,2.75934 -1.47574,4.14056 -0.43315,0.006 -0.86561,-2.3e-4 -1.29876,0.004 -0.0602,-0.001 -0.12329,0.006 -0.18073,-0.0174 0.55002,-1.51718 1.08702,-3.03933 1.62906,-4.55935 -0.25846,-0.004 -0.51681,0.002 -0.77527,-0.002 -0.0399,0.0826 -0.0673,0.16981 -0.0972,0.25676 -0.49856,1.40236 -1.00121,2.80347 -1.49817,4.20662 -0.0235,0.0359 -0.0186,0.11427 -0.0748,0.11467 -0.41241,0.002 -0.82527,-7e-4 -1.23768,10e-4 -0.0742,-7e-4 -0.14967,0.007 -0.22186,-0.015 1.13153,-3.13895 2.23709,-6.28678 3.36903,-9.42533 -2.21122,0.47304 -4.11374,2.12748 -4.93577,4.22906 -0.33703,0.832 -0.48355,1.73031 -0.5023,2.62493 0.0231,0.42956 0.0538,0.86062 0.1371,1.2838 0.26604,1.40914 0.98462,2.72814 2.02043,3.71928 0.85992,0.83124 1.93861,1.43213 3.09607,1.7325 1.12675,-3.15092 2.24788,-6.30397 3.37029,-9.45648 0.0111,-0.0227 0.0337,-0.0691 0.0449,-0.0922 0.6928,0.007 1.38581,0.002 2.079,0.004 0.22735,0.004 0.46082,-0.0212 0.68179,0.0474 0.2545,0.0686 0.49143,0.25092 0.56961,0.50978 0.0578,0.20421 0.0178,0.42193 -0.0549,0.61697 -0.44233,1.29147 -0.91062,2.57423 -1.36731,3.86012 -0.11327,0.33499 -0.4543,0.54393 -0.79895,0.55589 -0.54,0.01 -1.08032,-0.003 -1.62031,0.007 -0.49618,1.38242 -0.98771,2.76568 -1.47949,4.14929 0.12839,0.0547 0.26519,0.0124 0.39885,0.0212 0.20174,0.0155 0.40264,-0.0218 0.60326,-0.0361 1.317,-0.12085 2.59308,-0.63147 3.63327,-1.44708 0.83476,-0.65096 1.51998,-1.49339 1.98304,-2.44545 0.40599,-0.81923 0.63378,-1.72138 0.69923,-2.63116 -0.0307,-0.31589 -0.0209,-0.63432 -0.006,-0.95101 -0.0893,-1.19655 -0.4853,-2.37066 -1.15417,-3.36779 -0.65568,-0.98037 -1.56065,-1.79772 -2.61122,-2.33577 -0.81211,-0.42756 -1.71196,-0.67934 -2.62493,-0.7603 -0.0773,-0.0165 -0.15429,-0.0194 -0.23184,-0.0175 z m 2.5676,5.02925 c -0.0317,-2.3e-4 -0.0607,0.004 -0.0823,0.0287 -0.47344,1.32259 -0.94248,2.64637 -1.41592,3.96856 0.25965,0.002 0.52099,0.0134 0.78025,-0.005 0.45868,-1.33376 0.94717,-2.65754 1.41343,-3.9885 -0.20027,-0.004 -0.40055,0.001 -0.60077,-0.002 -0.0287,0.004 -0.063,-9.1e-4 -0.0947,-0.001 z"
         style="fill:#015294;display:inline;enable-background:new"
         inkscape:connector-curvature="0" />
      <path
         inkscape:connector-curvature="0"
         style="fill:#015294;display:inline;enable-background:new"
         d="m 424.24023,142.99934 c -0.0923,0.002 -0.185,0.0155 -0.27776,0.0161 -0.35157,1.0068 -0.71664,2.00887 -1.07101,3.01451 0.25781,0.004 0.51611,-0.004 0.77366,0.004 0.18831,0.008 0.38565,0.0864 0.48964,0.25106 0.11906,0.18603 0.1123,0.42417 0.0374,0.62587 -0.35045,0.98601 -0.70454,1.97095 -1.0541,2.95754 -0.30939,0.004 -0.61829,-1.7e-4 -0.92768,0.003 -0.043,-7.1e-4 -0.0881,0.004 -0.1291,-0.0124 0.39287,-1.0837 0.77644,-2.17095 1.16361,-3.25667 -0.18461,-0.003 -0.36914,0.001 -0.55376,-0.001 -0.0285,0.059 -0.0481,0.12129 -0.0694,0.1834 -0.35611,1.00168 -0.71514,2.00247 -1.07011,3.00472 -0.0168,0.0256 -0.0133,0.0816 -0.0534,0.0819 -0.29458,10e-4 -0.58947,-5e-4 -0.88405,7.2e-4 -0.053,-5e-4 -0.1069,0.005 -0.15848,-0.0107 0.80823,-2.2421 1.59792,-4.49054 2.40644,-6.73236 -1.57943,0.33789 -2.93837,1.51963 -3.52554,3.02075 -0.24073,0.59429 -0.34539,1.23594 -0.35878,1.87495 0.0165,0.30683 0.0384,0.61472 0.0979,0.917 0.19003,1.00652 0.7033,1.94866 1.44316,2.65662 0.61423,0.59374 1.38472,1.02294 2.21147,1.23749 0.80482,-2.25065 1.60562,-4.50282 2.40734,-6.75461 0.008,-0.0162 0.0241,-0.0494 0.0321,-0.0658 0.49486,0.005 0.98987,0.001 1.485,0.003 0.16239,0.003 0.32916,-0.0151 0.48699,0.0339 0.18179,0.049 0.35102,0.17923 0.40687,0.36413 0.0413,0.14586 0.0127,0.30138 -0.0392,0.44069 -0.31595,0.92248 -0.65044,1.83873 -0.97665,2.75722 -0.0809,0.23928 -0.3245,0.38852 -0.57067,0.39706 -0.38572,0.007 -0.77166,-0.002 -1.15736,0.005 -0.35442,0.98744 -0.70551,1.97548 -1.05678,2.96377 0.0917,0.0391 0.18942,0.009 0.28489,0.0151 0.1441,0.0111 0.2876,-0.0156 0.4309,-0.0258 0.94072,-0.0863 1.8522,-0.45105 2.59519,-1.03363 0.59625,-0.46497 1.08569,-1.0667 1.41645,-1.74674 0.28999,-0.58516 0.4527,-1.22955 0.49946,-1.87939 -0.0219,-0.22564 -0.0149,-0.45309 -0.004,-0.6793 -0.0638,-0.85467 -0.34663,-1.69332 -0.8244,-2.40555 -0.46834,-0.70026 -1.11475,-1.28408 -1.86515,-1.66841 -0.58008,-0.30539 -1.22283,-0.48524 -1.87495,-0.54306 -0.0552,-0.0118 -0.11021,-0.0139 -0.1656,-0.0125 z m 1.83399,3.59231 c -0.0226,-1.6e-4 -0.0433,0.003 -0.0588,0.0205 -0.33817,0.94471 -0.6732,1.89026 -1.01137,2.83468 0.18546,0.001 0.37213,0.01 0.55732,-0.004 0.32763,-0.95268 0.67655,-1.89824 1.00959,-2.84892 -0.14305,-0.003 -0.28611,7.1e-4 -0.42912,-0.001 -0.0205,0.003 -0.045,-6.5e-4 -0.0676,-7.1e-4 z"
         id="path3851" />
    </g>
    <g
       inkscape:groupmode="layer"
       id="layer5"
       inkscape:label="Highlights"
       style="display:inline"
       sodipodi:insensitive="true">
      <path
         style="opacity:0.12999998;color:#bebebe;fill:#ffffff;fill-opacity:1;fill-rule:nonzero;stroke:none;stroke-width:0;marker:none;visibility:visible;display:inline;overflow:visible;enable-background:accumulate"
         d="M 84,47 C 56.836703,47 35,68.836703 35,96 l 0,1 C 35,69.836703 56.836703,48 84,48 l 120,0 c 27.1633,0 49,21.836703 49,49 l 0,-1 C 253,68.836703 231.1633,47 204,47 L 84,47 z"
         id="rect3894"
         inkscape:connector-curvature="0" />
      <path
         style="opacity:0.12999998;color:#bebebe;fill:#ffffff;fill-opacity:1;fill-rule:nonzero;stroke:none;stroke-width:0;marker:none;visibility:visible;display:inline;overflow:visible;enable-background:accumulate"
         d="m 419,141 c -1.1253,0 -2,0.8747 -2,2 l 0,1 c 0,-1.1253 0.8747,-2 2,-2 l 10,0 c 1.1253,0 2,0.8747 2,2 l 0,-1 c 0,-1.1253 -0.8747,-2 -2,-2 l -10,0 z"
         id="rect3896"
         inkscape:connector-curvature="0" />
      <path
         style="opacity:0.12999998;color:#bebebe;fill:#ffffff;fill-opacity:1;fill-rule:nonzero;stroke:none;stroke-width:0;marker:none;visibility:visible;display:inline;overflow:visible;enable-background:accumulate"
         d="m 422,102 c -2.2333,0 -4,1.7667 -4,4 l 0,1 c 0,-2.2333 1.7667,-4 4,-4 l 12,0 c 2.2333,0 4,1.7667 4,4 l 0,-1 c 0,-2.2333 -1.7667,-4 -4,-4 l -12,0 z"
         id="rect3898"
         inkscape:connector-curvature="0" />
      <path
         style="opacity:0.12999998;color:#bebebe;fill:#ffffff;fill-opacity:1;fill-rule:nonzero;stroke:none;stroke-width:0;marker:none;visibility:visible;display:inline;overflow:visible;enable-background:accumulate"
         d="m 424,54 c -3.3413,0 -6,2.658703 -6,6 l 0,1 c 0,-3.341297 2.6587,-6 6,-6 l 16,0 c 3.3413,0 6,2.658703 6,6 l 0,-1 c 0,-3.341297 -2.6587,-6 -6,-6 l -16,0 z"
         id="rect3900"
         inkscape:connector-curvature="0" />
      <path
         style="opacity:0.12999998;color:#bebebe;fill:#ffffff;fill-opacity:1;fill-rule:nonzero;stroke:none;stroke-width:0;marker:none;visibility:visible;display:inline;overflow:visible;enable-background:accumulate"
         d="m 300,224 c -4.4493,0 -8,3.5507 -8,8 l 0,1 c 0,-4.4493 3.5507,-8 8,-8 l 24,0 c 4.4493,0 8,3.5507 8,8 l 0,-1 c 0,-4.4493 -3.5507,-8 -8,-8 l -24,0 z"
         id="rect3902"
         inkscape:connector-curvature="0" />
      <path
         style="opacity:0.12999998;color:#bebebe;fill:#ffffff;fill-opacity:1;fill-rule:nonzero;stroke:none;stroke-width:0;marker:none;visibility:visible;display:inline;overflow:visible;enable-background:accumulate"
         d="m 310,33 c -9.4353,0 -17,7.564703 -17,17 l 0,1 c 0,-9.435297 7.5647,-17 17,-17 l 52,0 c 9.4353,0 17,7.564703 17,17 l 0,-1 c 0,-9.435297 -7.5647,-17 -17,-17 l -52,0 z"
         id="rect3904"
         inkscape:connector-curvature="0" />
      <path
         style="opacity:0.12999998;color:#bebebe;fill:#ffffff;fill-opacity:1;fill-rule:nonzero;stroke:none;stroke-width:0;marker:none;visibility:visible;display:inline;overflow:visible;enable-background:accumulate"
         d="m 302.5,143 c -6.3883,0 -11.5,5.1117 -11.5,11.5 l 0,1 c 0,-6.3883 5.1117,-11.5 11.5,-11.5 l 35,0 c 6.3883,0 11.5,5.1117 11.5,11.5 l 0,-1 c 0,-6.3883 -5.1117,-11.5 -11.5,-11.5 l -35,0 z"
         id="rect3906"
         inkscape:connector-curvature="0" />
      <path
         id="path4085"
         d="m 204,266 c 27.1633,0 49,-21.8367 49,-49 l 0,-1 c 0,27.1633 -21.8367,49 -49,49 L 84,265 C 56.8367,265 35,243.1633 35,216 l 0,1 c 0,27.1633 21.8367,49 49,49 l 120,0 z"
         style="opacity:0.41;color:#bebebe;fill:#000000;fill-opacity:1;fill-rule:nonzero;stroke:none;stroke-width:0;marker:none;visibility:visible;display:inline;overflow:visible;enable-background:accumulate"
         inkscape:connector-curvature="0" />
      <path
         id="path4087"
         d="m 429,156 c 1.1253,0 2,-0.8747 2,-2 l 0,-1 c 0,1.1253 -0.8747,2 -2,2 l -10,0 c -1.1253,0 -2,-0.8747 -2,-2 l 0,1 c 0,1.1253 0.8747,2 2,2 l 10,0 z"
         style="opacity:0.3;color:#bebebe;fill:#000000;fill-opacity:1;fill-rule:nonzero;stroke:none;stroke-width:0;marker:none;visibility:visible;display:inline;overflow:visible;enable-background:accumulate"
         inkscape:connector-curvature="0" />
      <path
         id="path4089"
         d="m 434,123 c 2.2333,0 4,-1.7667 4,-4 l 0,-1 c 0,2.2333 -1.7667,4 -4,4 l -12,0 c -2.2333,0 -4,-1.7667 -4,-4 l 0,1 c 0,2.2333 1.7667,4 4,4 l 12,0 z"
         style="opacity:0.3;color:#bebebe;fill:#000000;fill-opacity:1;fill-rule:nonzero;stroke:none;stroke-width:0;marker:none;visibility:visible;display:inline;overflow:visible;enable-background:accumulate"
         inkscape:connector-curvature="0" />
      <path
         id="path4091"
         d="m 440,83 c 3.3413,0 6,-2.6587 6,-6 l 0,-1 c 0,3.3413 -2.6587,6 -6,6 l -16,0 c -3.3413,0 -6,-2.6587 -6,-6 l 0,1 c 0,3.3413 2.6587,6 6,6 l 16,0 z"
         style="opacity:0.41;color:#bebebe;fill:#000000;fill-opacity:1;fill-rule:nonzero;stroke:none;stroke-width:0;marker:none;visibility:visible;display:inline;overflow:visible;enable-background:accumulate"
         inkscape:connector-curvature="0" />
      <path
         id="path4093"
         d="m 324,265 c 4.4493,0 8,-3.5507 8,-8 l 0,-1 c 0,4.4493 -3.5507,8 -8,8 l -24,0 c -4.4493,0 -8,-3.5507 -8,-8 l 0,1 c 0,4.4493 3.5507,8 8,8 l 24,0 z"
         style="opacity:0.41;color:#bebebe;fill:#000000;fill-opacity:1;fill-rule:nonzero;stroke:none;stroke-width:0;marker:none;visibility:visible;display:inline;overflow:visible;enable-background:accumulate"
         inkscape:connector-curvature="0" />
      <path
         id="path4095"
         d="m 362,120 c 9.4353,0 17,-7.5647 17,-17 l 0,-1 c 0,9.4353 -7.5647,17 -17,17 l -52,0 c -9.4353,0 -17,-7.5647 -17,-17 l 0,1 c 0,9.4353 7.5647,17 17,17 l 52,0 z"
         style="opacity:0.41;color:#bebebe;fill:#000000;fill-opacity:1;fill-rule:nonzero;stroke:none;stroke-width:0;marker:none;visibility:visible;display:inline;overflow:visible;enable-background:accumulate"
         inkscape:connector-curvature="0" />
      <path
         id="path4097"
         d="m 337.5,202 c 6.3883,0 11.5,-5.1117 11.5,-11.5 l 0,-1 c 0,6.3883 -5.1117,11.5 -11.5,11.5 l -35,0 c -6.3883,0 -11.5,-5.1117 -11.5,-11.5 l 0,1 c 0,6.3883 5.1117,11.5 11.5,11.5 l 35,0 z"
         style="opacity:0.41;color:#bebebe;fill:#000000;fill-opacity:1;fill-rule:nonzero;stroke:none;stroke-width:0;marker:none;visibility:visible;display:inline;overflow:visible;enable-background:accumulate"
         inkscape:connector-curvature="0" />
      <path
         inkscape:connector-curvature="0"
         id="path4280"
         d="M 84,265 C 56.836703,265 35,243.1633 35,216 l 0,-1 c 0,27.1633 21.836703,49 49,49 l 120,0 c 27.1633,0 49,-21.8367 49,-49 l 0,1 c 0,27.1633 -21.8367,49 -49,49 l -120,0 z"
         style="opacity:0.1;color:#bebebe;fill:#ffffff;fill-opacity:1;fill-rule:nonzero;stroke:none;stroke-width:0;marker:none;visibility:visible;display:inline;overflow:visible;enable-background:accumulate" />
      <path
         style="opacity:0.1;color:#bebebe;fill:#ffffff;fill-opacity:1;fill-rule:nonzero;stroke:none;stroke-width:0;marker:none;visibility:visible;display:inline;overflow:visible;enable-background:accumulate"
         d="m 300,264 c -4.4493,0 -8,-3.5507 -8,-8 l 0,-1 c 0,4.4493 3.5507,8 8,8 l 24,0 c 4.4493,0 8,-3.5507 8,-8 l 0,1 c 0,4.4493 -3.5507,8 -8,8 l -24,0 z"
         id="path4294"
         inkscape:connector-curvature="0" />
      <path
         style="opacity:0.1;color:#bebebe;fill:#ffffff;fill-opacity:1;fill-rule:nonzero;stroke:none;stroke-width:0;marker:none;visibility:visible;display:inline;overflow:visible;enable-background:accumulate"
         d="m 302.5,201 c -6.3883,0 -11.5,-5.1117 -11.5,-11.5 l 0,-1 c 0,6.3883 5.1117,11.5 11.5,11.5 l 35,0 c 6.3883,0 11.5,-5.1117 11.5,-11.5 l 0,1 c 0,6.3883 -5.1117,11.5 -11.5,11.5 l -35,0 z"
         id="path4296"
         inkscape:connector-curvature="0" />
      <path
         style="opacity:0.1;color:#bebebe;fill:#ffffff;fill-opacity:1;fill-rule:nonzero;stroke:none;stroke-width:0;marker:none;visibility:visible;display:inline;overflow:visible;enable-background:accumulate"
         d="m 310,119 c -9.4353,0 -17,-7.5647 -17,-17 l 0,-1 c 0,9.4353 7.5647,17 17,17 l 52,0 c 9.4353,0 17,-7.5647 17,-17 l 0,1 c 0,9.4353 -7.5647,17 -17,17 l -52,0 z"
         id="path4298"
         inkscape:connector-curvature="0" />
      <path
         style="opacity:0.1;color:#bebebe;fill:#ffffff;fill-opacity:1;fill-rule:nonzero;stroke:none;stroke-width:0;marker:none;visibility:visible;display:inline;overflow:visible;enable-background:accumulate"
         d="m 424,82 c -3.3413,0 -6,-2.658703 -6,-6 l 0,-1 c 0,3.341297 2.6587,6 6,6 l 16,0 c 3.3413,0 6,-2.658703 6,-6 l 0,1 c 0,3.341297 -2.6587,6 -6,6 l -16,0 z"
         id="path4300"
         inkscape:connector-curvature="0" />
      <path
         style="opacity:0.1;color:#bebebe;fill:#ffffff;fill-opacity:1;fill-rule:nonzero;stroke:none;stroke-width:0;marker:none;visibility:visible;display:inline;overflow:visible;enable-background:accumulate"
         d="m 422,122 c -2.2333,0 -4,-1.7667 -4,-4 l 0,-1 c 0,2.2333 1.7667,4 4,4 l 12,0 c 2.2333,0 4,-1.7667 4,-4 l 0,1 c 0,2.2333 -1.7667,4 -4,4 l -12,0 z"
         id="path4302"
         inkscape:connector-curvature="0" />
      <path
         style="opacity:0.1;color:#bebebe;fill:#ffffff;fill-opacity:1;fill-rule:nonzero;stroke:none;stroke-width:0;marker:none;visibility:visible;display:inline;overflow:visible;enable-background:accumulate"
         d="m 419,154.5 c -1.1253,0 -2,-0.8747 -2,-2 l 0,-1 c 0,1.1253 0.8747,2 2,2 l 10,0 c 1.1253,0 2,-0.8747 2,-2 l 0,1 c 0,1.1253 -0.8747,2 -2,2 l -10,0 z"
         id="path4304"
         inkscape:connector-curvature="0" />
    </g>
    <g
       inkscape:groupmode="layer"
       id="layer3"
       inkscape:label="Border"
       style="display:inline"
       sodipodi:insensitive="true">
      <path
         style="opacity:0.41;color:#bebebe;fill:#000000;fill-opacity:1;fill-rule:nonzero;stroke:none;stroke-width:0;marker:none;visibility:visible;display:inline;overflow:visible;enable-background:accumulate"
         d="m 422,101 c -2.77,0 -5,2.23 -5,5 l 0,12 c 0,2.77 2.23,5 5,5 l 12,0 c 2.77,0 5,-2.23 5,-5 l 0,-12 c 0,-2.77 -2.23,-5 -5,-5 l -12,0 z m 0,1 12,0 c 2.2333,0 4,1.7667 4,4 l 0,12 c 0,2.2333 -1.7667,4 -4,4 l -12,0 c -2.2333,0 -4,-1.7667 -4,-4 l 0,-12 c 0,-2.2333 1.7667,-4 4,-4 z"
         id="rect4099"
         inkscape:connector-curvature="0" />
      <path
         style="opacity:0.41;color:#bebebe;fill:#000000;fill-opacity:1;fill-rule:nonzero;stroke:none;stroke-width:0;marker:none;visibility:visible;display:inline;overflow:visible;enable-background:accumulate"
         d="m 424,53 c -3.878,0 -7,3.122 -7,7 l 0,16 c 0,3.878 3.122,7 7,7 l 16,0 c 3.878,0 7,-3.122 7,-7 l 0,-16 c 0,-3.878 -3.122,-7 -7,-7 l -16,0 z m 0,1 16,0 c 3.3413,0 6,2.658703 6,6 l 0,16 c 0,3.341297 -2.6587,6 -6,6 l -16,0 c -3.3413,0 -6,-2.658703 -6,-6 l 0,-16 c 0,-3.341297 2.6587,-6 6,-6 z"
         id="rect4151"
         inkscape:connector-curvature="0" />
      <path
         style="opacity:0.41;color:#bebebe;fill:#000000;fill-opacity:1;fill-rule:nonzero;stroke:none;stroke-width:0;marker:none;visibility:visible;display:inline;overflow:visible;enable-background:accumulate"
         d="m 419,140 c -1.662,0 -3,1.338 -3,3 l 0,10 c 0,1.662 1.338,3 3,3 l 10,0 c 1.662,0 3,-1.338 3,-3 l 0,-10 c 0,-1.662 -1.338,-3 -3,-3 l -10,0 z m 0,1 10,0 c 1.1253,0 2,0.8747 2,2 l 0,10 c 0,1.1253 -0.8747,2 -2,2 l -10,0 c -1.1253,0 -2,-0.8747 -2,-2 l 0,-10 c 0,-1.1253 0.8747,-2 2,-2 z"
         id="rect4095"
         inkscape:connector-curvature="0" />
      <path
         style="opacity:0.41;color:#bebebe;fill:#000000;fill-opacity:1;fill-rule:nonzero;stroke:none;stroke-width:0;marker:none;visibility:visible;display:inline;overflow:visible;enable-background:accumulate"
         d="m 300,223 c -4.986,0 -9,4.014 -9,9 l 0,24 c 0,4.986 4.014,9 9,9 l 24,0 c 4.986,0 9,-4.014 9,-9 l 0,-24 c 0,-4.986 -4.014,-9 -9,-9 l -24,0 z m 0,1 24,0 c 4.4493,0 8,3.5507 8,8 l 0,24 c 0,4.4493 -3.5507,8 -8,8 l -24,0 c -4.4493,0 -8,-3.5507 -8,-8 l 0,-24 c 0,-4.4493 3.5507,-8 8,-8 z"
         id="rect4783"
         inkscape:connector-curvature="0" />
      <path
         style="opacity:0.41;color:#bebebe;fill:#000000;fill-opacity:1;fill-rule:nonzero;stroke:none;stroke-width:0;marker:none;visibility:visible;display:inline;overflow:visible;enable-background:accumulate"
         d="m 302.5,142 c -6.925,0 -12.5,5.575 -12.5,12.5 l 0,35 c 0,6.925 5.575,12.5 12.5,12.5 l 35,0 c 6.925,0 12.5,-5.575 12.5,-12.5 l 0,-35 c 0,-6.925 -5.575,-12.5 -12.5,-12.5 l -35,0 z m 0,1 35,0 c 6.3883,0 11.5,5.1117 11.5,11.5 l 0,35 c 0,6.3883 -5.1117,11.5 -11.5,11.5 l -35,0 c -6.3883,0 -11.5,-5.1117 -11.5,-11.5 l 0,-35 c 0,-6.3883 5.1117,-11.5 11.5,-11.5 z"
         id="rect4515"
         inkscape:connector-curvature="0" />
      <path
         style="opacity:0.41;color:#bebebe;fill:#000000;fill-opacity:1;fill-rule:nonzero;stroke:none;stroke-width:0;marker:none;visibility:visible;display:inline;overflow:visible;enable-background:accumulate"
         d="m 310,32 c -9.972,0 -18,8.028 -18,18 l 0,52 c 0,9.972 8.028,18 18,18 l 52,0 c 9.972,0 18,-8.028 18,-18 l 0,-52 c 0,-9.972 -8.028,-18 -18,-18 l -52,0 z m 0,1 52,0 c 9.4353,0 17,7.564703 17,17 l 0,52 c 0,9.4353 -7.5647,17 -17,17 l -52,0 c -9.4353,0 -17,-7.5647 -17,-17 l 0,-52 c 0,-9.435297 7.5647,-17 17,-17 z"
         id="rect4511"
         inkscape:connector-curvature="0" />
      <path
         style="opacity:0.41;color:#bebebe;fill:#000000;fill-opacity:1;fill-rule:nonzero;stroke:none;stroke-width:0;marker:none;visibility:visible;display:inline;overflow:visible;enable-background:accumulate"
         d="M 84,46 C 56.3,46 34,68.3 34,96 l 0,120 c 0,27.7 22.3,50 50,50 l 120,0 c 27.7,0 50,-22.3 50,-50 L 254,96 C 254,68.3 231.7,46 204,46 L 84,46 z m 0,1 120,0 c 27.1633,0 49,21.836703 49,49 l 0,120 c 0,27.1633 -21.8367,49 -49,49 L 84,265 C 56.836703,265 35,243.1633 35,216 L 35,96 C 35,68.836703 56.836703,47 84,47 z"
         id="rect4040"
         inkscape:connector-curvature="0" />
    </g>
  </g>
</svg>
