<?xml version="1.0" encoding="UTF-8" standalone="no"?>
<!-- Created with Inkscape (http://www.inkscape.org/) -->

<svg
   xmlns:dc="http://purl.org/dc/elements/1.1/"
   xmlns:cc="http://creativecommons.org/ns#"
   xmlns:rdf="http://www.w3.org/1999/02/22-rdf-syntax-ns#"
   xmlns:svg="http://www.w3.org/2000/svg"
   xmlns="http://www.w3.org/2000/svg"
   xmlns:xlink="http://www.w3.org/1999/xlink"
   xmlns:sodipodi="http://sodipodi.sourceforge.net/DTD/sodipodi-0.dtd"
   xmlns:inkscape="http://www.inkscape.org/namespaces/inkscape"
   inkscape:export-ydpi="90.000000"
   inkscape:export-xdpi="90.000000"
   width="480"
   height="300"
   id="svg11300"
   sodipodi:version="0.32"
   inkscape:version="0.48.4 r9939"
   sodipodi:docname="audacity.svg"
   inkscape:output_extension="org.inkscape.output.svg.inkscape"
   version="1.0"
   style="display:inline;enable-background:new"
   inkscape:export-filename="/home/sam/moka2-template.png">
  <sodipodi:namedview
     stroke="#ef2929"
     fill="#f57900"
     id="base"
     pagecolor="#ffffff"
     bordercolor="#666666"
     borderopacity="0.25490196"
     inkscape:pageopacity="0"
     inkscape:pageshadow="2"
     inkscape:zoom="1"
     inkscape:cx="424.96755"
     inkscape:cy="157.10953"
     inkscape:current-layer="layer7"
     showgrid="false"
     inkscape:grid-bbox="true"
     inkscape:document-units="px"
     inkscape:showpageshadow="false"
     inkscape:window-width="1364"
     inkscape:window-height="702"
     inkscape:window-x="0"
     inkscape:window-y="27"
     width="400px"
     height="300px"
     inkscape:snap-nodes="true"
     inkscape:snap-bbox="true"
     gridtolerance="10000"
     inkscape:object-nodes="true"
     inkscape:snap-grids="true"
     showguides="true"
     inkscape:guide-bbox="true"
     inkscape:window-maximized="1"
     inkscape:bbox-nodes="true"
     inkscape:bbox-paths="true"
     inkscape:snap-bbox-edge-midpoints="true"
     inkscape:snap-bbox-midpoints="true">
    <inkscape:grid
       spacingy="1px"
       spacingx="1px"
       id="grid5883"
       type="xygrid"
       enabled="true"
       visible="true"
       empspacing="4"
       snapvisiblegridlinesonly="true"
       dotted="false"
       color="#000000"
       opacity="0.1254902"
       empcolor="#203ef3"
       empopacity="0.36470588" />
    <inkscape:grid
       type="xygrid"
       id="grid11592"
       empspacing="8"
       visible="true"
       enabled="false"
       spacingx="0.5px"
       spacingy="0.5px"
       color="#ff0000"
       opacity="0.1254902"
       empcolor="#ff0000"
       empopacity="0.25098039"
       snapvisiblegridlinesonly="true"
       dotted="true" />
  </sodipodi:namedview>
  <defs
     id="defs3">
    <linearGradient
       id="outerBackgroundGradient">
      <stop
         style="stop-color:#020077;stop-opacity:1;"
         offset="0"
         id="stop3864-8-6" />
      <stop
         style="stop-color:#1110b4;stop-opacity:1;"
         offset="1"
         id="stop3866-9-1" />
    </linearGradient>
    <linearGradient
       inkscape:collect="always"
       xlink:href="#outerBackgroundGradient"
       id="linearGradient4097"
       gradientUnits="userSpaceOnUse"
       x1="264"
       y1="280.00003"
       x2="264"
       y2="40.00005"
       gradientTransform="matrix(0.06666667,0,0,0.06666667,414.4,137.33333)" />
    <linearGradient
       inkscape:collect="always"
       xlink:href="#outerBackgroundGradient"
       id="linearGradient4101"
       gradientUnits="userSpaceOnUse"
       gradientTransform="matrix(0.0875,0,0,0.0875,414.9,97.5)"
       x1="286.85715"
       y1="302.85715"
       x2="286.85715"
       y2="28.571428" />
    <linearGradient
       inkscape:collect="always"
       xlink:href="#outerBackgroundGradient"
       id="linearGradient4153"
       gradientUnits="userSpaceOnUse"
       gradientTransform="matrix(0.11931818,0,0,0.11931818,414.13636,48.22727)"
       x1="283.80957"
       y1="299.80954"
       x2="283.80957"
       y2="31.61907" />
    <linearGradient
       inkscape:collect="always"
       xlink:href="#outerBackgroundGradient"
       id="linearGradient4869"
       gradientUnits="userSpaceOnUse"
       gradientTransform="matrix(0.175,0,0,-0.175,286.79999,-215.99997)"
       x1="281.14291"
       y1="297.14304"
       x2="281.14291"
       y2="22.857315" />
    <clipPath
       clipPathUnits="userSpaceOnUse"
       id="clipPath4891">
      <rect
         ry="9"
         y="223"
         x="307"
         height="42"
         width="42"
         id="rect4893"
         style="color:#bebebe;fill:url(#linearGradient4895);fill-opacity:1;fill-rule:nonzero;stroke:none;stroke-width:0;marker:none;visibility:visible;display:inline;overflow:visible;enable-background:accumulate"
         transform="matrix(0,1,-1,0,0,0)" />
    </clipPath>
    <linearGradient
       inkscape:collect="always"
       xlink:href="#outerBackgroundGradient"
       id="linearGradient4895"
       gradientUnits="userSpaceOnUse"
       gradientTransform="matrix(0.175,0,0,0.175,302.79999,215.99997)"
       x1="144.00006"
       y1="280.00018"
       x2="144.00006"
       y2="40.000172" />
    <clipPath
       clipPathUnits="userSpaceOnUse"
       id="clipPath4044">
      <rect
         ry="4"
         y="85"
         x="433"
         height="22"
         width="22"
         id="rect4046"
         style="color:#bebebe;fill:url(#linearGradient4048);fill-opacity:1;fill-rule:nonzero;stroke:none;stroke-width:0;marker:none;visibility:visible;display:inline;overflow:visible;enable-background:accumulate" />
    </clipPath>
    <linearGradient
       inkscape:collect="always"
       xlink:href="#outerBackgroundGradient"
       id="linearGradient4048"
       gradientUnits="userSpaceOnUse"
       gradientTransform="matrix(0.0875,0,0,0.0875,430.9,81.499996)"
       x1="149.71428"
       y1="291.42862"
       x2="149.71428"
       y2="40.000046" />
    <clipPath
       clipPathUnits="userSpaceOnUse"
       id="clipPath4089">
      <rect
         style="color:#bebebe;fill:url(#linearGradient4093);fill-opacity:1;fill-rule:nonzero;stroke:none;stroke-width:0;marker:none;visibility:visible;display:inline;overflow:visible;enable-background:accumulate"
         id="rect4091"
         width="30"
         height="30"
         x="433"
         y="37"
         ry="6" />
    </clipPath>
    <linearGradient
       inkscape:collect="always"
       xlink:href="#outerBackgroundGradient"
       id="linearGradient4093"
       gradientUnits="userSpaceOnUse"
       gradientTransform="matrix(0.11931818,0,0,0.11931818,430.13636,32.227267)"
       x1="149.71432"
       y1="291.42862"
       x2="149.71432"
       y2="40.00005" />
    <clipPath
       clipPathUnits="userSpaceOnUse"
       id="clipPath3855">
      <rect
         style="color:#bebebe;fill:url(#linearGradient3859);fill-opacity:1;fill-rule:nonzero;stroke:none;stroke-width:0;marker:none;visibility:visible;display:inline;overflow:visible;enable-background:accumulate"
         id="rect3857"
         width="16"
         height="16"
         x="304"
         y="212"
         ry="3"
         transform="matrix(0,1,-1,0,0,0)" />
    </clipPath>
    <linearGradient
       inkscape:collect="always"
       xlink:href="#outerBackgroundGradient"
       id="linearGradient3859"
       gradientUnits="userSpaceOnUse"
       gradientTransform="matrix(0.06666667,0,0,0.06666667,302.4,209.33333)"
       x1="144"
       y1="280.00003"
       x2="144"
       y2="40.00005" />
    <clipPath
       clipPathUnits="userSpaceOnUse"
       id="clipPath3862">
      <rect
         ry="50"
         y="46"
         x="34"
         height="220"
         width="220"
         id="rect3864"
         style="color:#bebebe;fill:url(#linearGradient3866);fill-opacity:1;fill-rule:nonzero;stroke:none;stroke-width:0;marker:none;visibility:visible;display:inline;overflow:visible;enable-background:accumulate" />
    </clipPath>
    <linearGradient
       inkscape:collect="always"
       xlink:href="#outerBackgroundGradient"
       id="linearGradient3866"
       gradientUnits="userSpaceOnUse"
       gradientTransform="translate(0,-4)"
       x1="144"
       y1="280"
       x2="144"
       y2="40" />
    <linearGradient
       inkscape:collect="always"
       xlink:href="#outerBackgroundGradient"
       id="linearGradient3876"
       gradientUnits="userSpaceOnUse"
       gradientTransform="translate(0,-4)"
       x1="272"
       y1="288"
       x2="272"
       y2="32" />
    <clipPath
       clipPathUnits="userSpaceOnUse"
       id="clipPath4187">
      <rect
         ry="12.5"
         y="142"
         x="290"
         height="60"
         width="60"
         id="rect4189"
         style="color:#bebebe;fill:url(#linearGradient4191);fill-opacity:1;fill-rule:nonzero;stroke:none;stroke-width:0;marker:none;visibility:visible;display:inline;overflow:visible;enable-background:accumulate" />
    </clipPath>
    <linearGradient
       inkscape:collect="always"
       xlink:href="#outerBackgroundGradient"
       id="linearGradient4191"
       gradientUnits="userSpaceOnUse"
       x1="352"
       y1="204"
       x2="352"
       y2="140" />
    <linearGradient
       inkscape:collect="always"
       xlink:href="#outerBackgroundGradient"
       id="linearGradient4197"
       gradientUnits="userSpaceOnUse"
       x1="384"
       y1="124"
       x2="384"
       y2="28" />
    <linearGradient
       inkscape:collect="always"
       xlink:href="#outerBackgroundGradient"
       id="linearGradient4199"
       gradientUnits="userSpaceOnUse"
       x1="352"
       y1="204"
       x2="352"
       y2="140" />
    <clipPath
       clipPathUnits="userSpaceOnUse"
       id="clipPath4346">
      <rect
         style="color:#bebebe;fill:url(#linearGradient4350);fill-opacity:1;fill-rule:nonzero;stroke:none;stroke-width:0;marker:none;visibility:visible;display:inline;overflow:visible;enable-background:accumulate"
         id="rect4348"
         width="88"
         height="88"
         x="292"
         y="32"
         ry="18" />
    </clipPath>
    <linearGradient
       inkscape:collect="always"
       xlink:href="#outerBackgroundGradient"
       id="linearGradient4350"
       gradientUnits="userSpaceOnUse"
       x1="384"
       y1="124"
       x2="384"
       y2="28" />
    <clipPath
       clipPathUnits="userSpaceOnUse"
       id="clipPath3871">
      <rect
         ry="5"
         y="101"
         x="417"
         height="22"
         width="22"
         id="rect3873"
         style="color:#bebebe;fill:url(#linearGradient3875);fill-opacity:1;fill-rule:nonzero;stroke:none;stroke-width:0;marker:none;visibility:visible;display:inline;overflow:visible;enable-background:accumulate" />
    </clipPath>
    <linearGradient
       inkscape:collect="always"
       xlink:href="#outerBackgroundGradient"
       id="linearGradient3875"
       gradientUnits="userSpaceOnUse"
       gradientTransform="matrix(0.0875,0,0,0.0875,414.9,97.5)"
       x1="286.85715"
       y1="302.85715"
       x2="286.85715"
       y2="28.571428" />
    <clipPath
       clipPathUnits="userSpaceOnUse"
       id="clipPath3881">
      <rect
         style="color:#bebebe;fill:url(#linearGradient3885);fill-opacity:1;fill-rule:nonzero;stroke:none;stroke-width:0;marker:none;visibility:visible;display:inline;overflow:visible;enable-background:accumulate"
         id="rect3883"
         width="30"
         height="30"
         x="417"
         y="53"
         ry="7" />
    </clipPath>
    <linearGradient
       inkscape:collect="always"
       xlink:href="#outerBackgroundGradient"
       id="linearGradient3885"
       gradientUnits="userSpaceOnUse"
       gradientTransform="matrix(0.11931818,0,0,0.11931818,414.13636,48.22727)"
       x1="283.80957"
       y1="299.80954"
       x2="283.80957"
       y2="31.61907" />
  </defs>
  <metadata
     id="metadata4">
    <rdf:RDF>
      <cc:Work
         rdf:about="">
        <dc:format>image/svg+xml</dc:format>
        <dc:type
           rdf:resource="http://purl.org/dc/dcmitype/StillImage" />
        <dc:creator>
          <cc:Agent>
            <dc:title>Sam Hewitt</dc:title>
          </cc:Agent>
        </dc:creator>
        <dc:source />
        <cc:license
           rdf:resource="" />
        <dc:title />
        <dc:subject>
          <rdf:Bag />
        </dc:subject>
        <dc:date />
        <dc:rights>
          <cc:Agent>
            <dc:title />
          </cc:Agent>
        </dc:rights>
        <dc:publisher>
          <cc:Agent>
            <dc:title />
          </cc:Agent>
        </dc:publisher>
        <dc:identifier />
        <dc:relation />
        <dc:language />
        <dc:coverage />
        <dc:description />
        <dc:contributor>
          <cc:Agent>
            <dc:title />
          </cc:Agent>
        </dc:contributor>
      </cc:Work>
      <cc:Work
         rdf:about="">
        <dc:format>image/svg+xml</dc:format>
        <dc:type
           rdf:resource="http://purl.org/dc/dcmitype/StillImage" />
      </cc:Work>
    </rdf:RDF>
  </metadata>
  <g
     style="display:inline"
     inkscape:groupmode="layer"
     inkscape:label="Icon"
     id="layer1">
    <g
       style="display:none"
       inkscape:label="Baseplate"
       id="layer7"
       inkscape:groupmode="layer">
      <text
         y="19.745117"
         xml:space="preserve"
         x="15.006836"
         style="font-size:18px;font-style:normal;font-variant:normal;font-weight:normal;font-stretch:normal;fill:#000000;fill-opacity:1;stroke:none;display:inline;enable-background:new;font-family:DejaVu Sans;-inkscape-font-specification:DejaVu Sans"
         inkscape:label="context"
         id="context"><tspan
           style="font-style:normal;font-variant:normal;font-weight:normal;font-stretch:normal;font-family:DejaVu Sans;-inkscape-font-specification:DejaVu Sans"
           y="19.745117"
           x="15.006836"
           sodipodi:role="line"
           id="tspan3933">apps</tspan></text>
      <text
         y="19.745117"
         xml:space="preserve"
         x="122.48828"
         style="font-size:18px;font-style:normal;font-variant:normal;font-weight:bold;font-stretch:normal;text-align:start;line-height:125%;writing-mode:lr-tb;text-anchor:start;fill:#000000;fill-opacity:1;stroke:none;display:inline;enable-background:new;font-family:DejaVu Sans;-inkscape-font-specification:DejaVu Sans Bold"
         sodipodi:linespacing="125%"
         inkscape:label="icon-name"
         id="icon-name"><tspan
           style="font-size:18px;font-style:normal;font-variant:normal;font-weight:bold;font-stretch:normal;font-family:DejaVu Sans;-inkscape-font-specification:DejaVu Sans Bold"
           y="19.745117"
           x="122.48828"
           sodipodi:role="line"
           id="tspan3937">audacity</tspan></text>
      <rect
         style="fill:#eeeeec;fill-opacity:1;fill-rule:nonzero;stroke:none;stroke-width:2;marker:none;visibility:visible;display:inline;overflow:visible;enable-background:accumulate"
         id="rect16x16"
         width="16"
         height="16"
         x="416"
         y="140"
         inkscape:label="16x16" />
      <rect
         style="fill:#d4d4d4;fill-opacity:1;fill-rule:nonzero;stroke:none;stroke-width:2;marker:none;visibility:visible;display:inline;overflow:visible;enable-background:accumulate"
         id="rect24x24"
         width="24"
         height="24"
         x="416"
         y="100"
         inkscape:label="24x24" />
      <rect
         style="fill:#eeeeec;fill-opacity:1;fill-rule:nonzero;stroke:none;stroke-width:2;marker:none;visibility:visible;display:inline;overflow:visible;enable-background:accumulate"
         id="rect32x32"
         width="32"
         height="32"
         x="416"
         y="52"
         inkscape:label="32x32" />
      <rect
         inkscape:label="22x22"
         y="101"
         x="417"
         height="22"
         width="22"
         id="rect22x22"
         style="fill:#eeeeec;fill-opacity:1;fill-rule:nonzero;stroke:none;stroke-width:2;marker:none;visibility:visible;display:inline;overflow:visible;enable-background:accumulate" />
      <rect
         inkscape:label="48x48"
         y="220"
         x="288"
         height="48"
         width="48"
         id="rect48x48"
         style="fill:#eeeeec;fill-opacity:1;fill-rule:nonzero;stroke:none;stroke-width:2;marker:none;visibility:visible;display:inline;overflow:visible;enable-background:accumulate" />
      <rect
         style="fill:#eeeeec;fill-opacity:1;fill-rule:nonzero;stroke:none;stroke-width:2;marker:none;visibility:visible;display:inline;overflow:visible;enable-background:accumulate"
         id="rect256x256"
         width="256"
         height="256"
         x="16"
         y="28"
         inkscape:label="256x256" />
      <rect
         style="fill:#eeeeec;fill-opacity:1;fill-rule:nonzero;stroke:none;stroke-width:2;marker:none;visibility:visible;display:inline;overflow:visible;enable-background:accumulate"
         id="rect64x64"
         width="64"
         height="64"
         x="288"
         y="140"
         inkscape:label="64x64" />
      <rect
         style="fill:#eeeeec;fill-opacity:1;fill-rule:nonzero;stroke:none;stroke-width:2;marker:none;visibility:visible;display:inline;overflow:visible;enable-background:accumulate"
         id="rect96x96"
         width="96"
         height="96"
         x="288"
         y="28"
         inkscape:label="96x96" />
    </g>
    <g
       inkscape:groupmode="layer"
       id="layer4"
       inkscape:label="Shadow"
       style="display:inline"
       sodipodi:insensitive="true">
      <rect
         style="opacity:0.1;color:#bebebe;fill:#000000;fill-opacity:1;stroke:#000000;stroke-width:1;stroke-miterlimit:4;stroke-opacity:1;stroke-dasharray:none;marker:none;visibility:visible;display:inline;overflow:visible;enable-background:accumulate"
         id="rect4156"
         width="42"
         height="42"
         x="-266.5"
         y="291"
         ry="9"
         transform="matrix(0,-1,1,0,0,0)" />
      <rect
         transform="matrix(0,-1,1,0,0,0)"
         ry="9"
         y="291"
         x="-266.5"
         height="42"
         width="40"
         id="rect4183"
         style="opacity:0.3;color:#bebebe;fill:#000000;fill-opacity:1;stroke:none;stroke-width:1;marker:none;visibility:visible;display:inline;overflow:visible;enable-background:accumulate" />
      <rect
         ry="9"
         y="237"
         x="291"
         height="29"
         width="42"
         id="rect4144"
         style="opacity:0.3;color:#bebebe;fill:#000000;fill-opacity:1;fill-rule:nonzero;stroke:none;stroke-width:0;marker:none;visibility:visible;display:inline;overflow:visible;enable-background:accumulate" />
      <rect
         style="opacity:0.05;color:#bebebe;fill:#000000;fill-opacity:1;fill-rule:nonzero;stroke:#000000;stroke-width:1;stroke-miterlimit:4;stroke-opacity:1;stroke-dasharray:none;marker:none;visibility:visible;display:inline;overflow:visible;enable-background:accumulate"
         id="rect4340"
         width="88"
         height="88"
         x="292"
         y="33.5"
         ry="18" />
      <rect
         ry="18"
         y="52.5"
         x="292"
         height="69"
         width="88"
         id="rect4338"
         style="opacity:0.3;color:#bebebe;fill:#000000;fill-opacity:1;fill-rule:nonzero;stroke:none;stroke-width:0;marker:none;visibility:visible;display:inline;overflow:visible;enable-background:accumulate" />
      <rect
         style="opacity:0.3;color:#bebebe;fill:#000000;fill-opacity:1;fill-rule:nonzero;stroke:none;stroke-width:0;marker:none;visibility:visible;display:inline;overflow:visible;enable-background:accumulate"
         id="rect4335"
         width="88"
         height="76.5"
         x="292"
         y="44.5"
         ry="18" />
      <rect
         style="opacity:0.05;color:#bebebe;fill:#000000;fill-opacity:1;fill-rule:nonzero;stroke:#000000;stroke-width:1;stroke-miterlimit:4;stroke-opacity:1;stroke-dasharray:none;marker:none;visibility:visible;display:inline;overflow:visible;enable-background:accumulate"
         id="rect4214"
         width="60"
         height="60"
         x="290"
         y="143.5"
         ry="12.5" />
      <rect
         ry="12.5"
         y="151.5"
         x="290"
         height="52"
         width="60"
         id="rect4206"
         style="opacity:0.3;color:#bebebe;fill:#000000;fill-opacity:1;fill-rule:nonzero;stroke:none;stroke-width:0;marker:none;visibility:visible;display:inline;overflow:visible;enable-background:accumulate" />
      <rect
         style="opacity:0.3;color:#bebebe;fill:#000000;fill-opacity:1;fill-rule:nonzero;stroke:none;stroke-width:0;marker:none;visibility:visible;display:inline;overflow:visible;enable-background:accumulate"
         id="rect4212"
         width="60"
         height="54.5"
         x="290"
         y="148.5"
         ry="12.5" />
      <rect
         style="opacity:0.5;color:#bebebe;fill:#000000;fill-opacity:1;fill-rule:nonzero;stroke:none;stroke-width:0;marker:none;visibility:visible;display:inline;overflow:visible;enable-background:accumulate"
         id="rect4058"
         width="30"
         height="30"
         x="417"
         y="54"
         ry="7" />
      <rect
         ry="50"
         y="48"
         x="34"
         height="220"
         width="220"
         id="rect3872"
         style="opacity:0.05;color:#bebebe;fill:#000000;fill-opacity:1;fill-rule:nonzero;stroke:#000000;stroke-width:2;stroke-miterlimit:4;stroke-opacity:1;stroke-dasharray:none;marker:none;visibility:visible;display:inline;overflow:visible;enable-background:accumulate" />
      <rect
         style="opacity:0.3;color:#bebebe;fill:#000000;fill-opacity:1;fill-rule:nonzero;stroke:none;stroke-width:0;marker:none;visibility:visible;display:inline;overflow:visible;enable-background:accumulate"
         id="rect3870"
         width="220"
         height="220"
         x="34"
         y="48"
         ry="50" />
      <rect
         ry="50"
         y="47"
         x="34"
         height="220"
         width="220"
         id="rect3868"
         style="opacity:0.3;color:#bebebe;fill:#000000;fill-opacity:1;fill-rule:nonzero;stroke:none;stroke-width:0;marker:none;visibility:visible;display:inline;overflow:visible;enable-background:accumulate" />
    </g>
    <g
       inkscape:groupmode="layer"
       id="layer2"
       inkscape:label="Background"
       style="display:inline">
      <rect
         style="color:#bebebe;fill:url(#linearGradient3876);fill-opacity:1;fill-rule:nonzero;stroke:none;stroke-width:0;marker:none;visibility:visible;display:inline;overflow:visible;enable-background:accumulate"
         id="rect4040"
         width="220"
         height="220"
         x="34"
         y="46"
         ry="50" />
      <rect
         ry="3"
         y="140"
         x="416"
         height="16"
         width="16"
         id="rect4095"
         style="color:#bebebe;fill:url(#linearGradient4097);fill-opacity:1;fill-rule:nonzero;stroke:none;stroke-width:0;marker:none;visibility:visible;display:inline;overflow:visible;enable-background:accumulate" />
      <rect
         style="color:#bebebe;fill:url(#linearGradient4101);fill-opacity:1;fill-rule:nonzero;stroke:none;stroke-width:0;marker:none;visibility:visible;display:inline;overflow:visible;enable-background:accumulate"
         id="rect4099"
         width="22"
         height="22"
         x="417"
         y="101"
         ry="5" />
      <rect
         ry="7"
         y="53"
         x="417"
         height="30"
         width="30"
         id="rect4151"
         style="color:#bebebe;fill:url(#linearGradient4153);fill-opacity:1;fill-rule:nonzero;stroke:none;stroke-width:0;marker:none;visibility:visible;display:inline;overflow:visible;enable-background:accumulate" />
      <rect
         style="color:#bebebe;fill:url(#linearGradient4869);fill-opacity:1;fill-rule:nonzero;stroke:none;stroke-width:0;marker:none;visibility:visible;display:inline;overflow:visible;enable-background:accumulate"
         id="rect4783"
         width="42"
         height="42"
         x="291"
         y="-265"
         ry="9"
         transform="scale(1,-1)" />
      <rect
         ry="18"
         y="32"
         x="292"
         height="88"
         width="88"
         id="rect4511"
         style="color:#bebebe;fill:url(#linearGradient4197);fill-opacity:1;fill-rule:nonzero;stroke:none;stroke-width:0;marker:none;visibility:visible;display:inline;overflow:visible;enable-background:accumulate" />
      <rect
         style="color:#bebebe;fill:url(#linearGradient4199);fill-opacity:1;fill-rule:nonzero;stroke:none;stroke-width:0;marker:none;visibility:visible;display:inline;overflow:visible;enable-background:accumulate"
         id="rect4515"
         width="60"
         height="60"
         x="290"
         y="142"
         ry="12.5" />
    </g>
    <g
       inkscape:groupmode="layer"
       id="layer6"
       inkscape:label="Symbols"
       style="display:inline">
      <path
         style="opacity:0.2;color:#000000;fill:#000000;fill-opacity:1;fill-rule:nonzero;stroke:none;stroke-width:1.5;marker:none;visibility:visible;display:inline;overflow:visible;filter:url(#filter7554);enable-background:accumulate"
         d="m 427.92228,104.99277 c -0.52564,0.005 -1.06253,0.0764 -1.59375,0.21875 -3.34917,0.89741 -5.34299,4.3048 -4.53125,7.65625 l 1.03125,-0.3125 c -0.0911,-0.38501 -0.15625,-0.77446 -0.15625,-1.1875 0,-2.93315 2.37936,-5.3125 5.3125,-5.3125 2.93315,0 5.3125,2.37935 5.3125,5.3125 0,0.41304 -0.0658,0.803 -0.15625,1.1875 l 1.03125,0.3125 c 0.24907,-1.03474 0.24436,-2.12769 -0.0312,-3.15625 -0.76864,-2.86862 -3.38032,-4.74706 -6.21875,-4.71875 z m -4.65625,8.5 -0.875,0.25 -0.40625,0.0937 c -0.0888,0.0238 -0.17096,0.0543 -0.25,0.0937 -0.55331,0.27613 -0.85409,0.90956 -0.6875,1.53125 l 0.6875,2.5625 c 0.19038,0.7105 0.91451,1.12788 1.625,0.9375 l 1.28125,-0.3125 -1.375,-5.15625 z m 9.46875,0 -1.375,5.15625 1.28125,0.3125 c 0.71049,0.19038 1.43462,-0.227 1.625,-0.9375 l 0.6875,-2.5625 c 0.16255,-0.60666 -0.12849,-1.21422 -0.65625,-1.5 l -0.0312,-0.0312 -0.875,-0.25 -0.65625,-0.1875 z"
         id="path3853"
         inkscape:connector-curvature="0" />
      <path
         inkscape:connector-curvature="0"
         id="path3855"
         d="m 431.88909,58.000444 c -0.7501,0.0071 -1.51627,0.109025 -2.27433,0.312163 -4.77938,1.28064 -7.62463,6.1431 -6.46625,10.92573 l 1.47163,-0.44595 c -0.13001,-0.54942 -0.22298,-1.10518 -0.22298,-1.6946 0,-4.18571 3.39543,-7.58112 7.58112,-7.58112 4.18571,0 7.58112,3.39541 7.58112,7.58112 0,0.58942 -0.0939,1.14591 -0.22297,1.6946 l 1.47162,0.44595 c 0.35544,-1.47661 0.34871,-3.03629 -0.0445,-4.50408 -1.09687,-4.09361 -4.82383,-6.774213 -8.87437,-6.733813 z m -6.64463,12.129793 -1.24865,0.35676 -0.57973,0.13371 c -0.12672,0.034 -0.24397,0.0775 -0.35676,0.13371 -0.78959,0.39405 -1.21882,1.29797 -0.98109,2.18515 l 0.98109,3.65677 c 0.27168,1.01391 1.30503,1.60953 2.31893,1.33785 l 1.82839,-0.44595 -1.96218,-7.35815 z m 13.51223,0 -1.96217,7.35814 1.82839,0.44595 c 1.01389,0.27168 2.04725,-0.32394 2.31893,-1.33784 l 0.98109,-3.65678 c 0.23196,-0.86572 -0.18336,-1.73273 -0.9365,-2.14055 l -0.0445,-0.0445 -1.24865,-0.35676 -0.9365,-0.26757 z"
         style="opacity:0.2;color:#000000;fill:#000000;fill-opacity:1;fill-rule:nonzero;stroke:none;stroke-width:1.5;marker:none;visibility:visible;display:inline;overflow:visible;filter:url(#filter7554);enable-background:accumulate" />
      <path
         style="opacity:0.2;color:#000000;fill:#000000;fill-opacity:1;fill-rule:nonzero;stroke:none;stroke-width:1.5;marker:none;visibility:visible;display:inline;overflow:visible;filter:url(#filter7554);enable-background:accumulate"
         d="m 319.77817,152.0009 c -1.5002,0.0142 -3.03254,0.21805 -4.54866,0.62433 -9.55876,2.56128 -15.24926,12.2862 -12.9325,21.85146 l 2.94326,-0.8919 c -0.26002,-1.09884 -0.44596,-2.21036 -0.44596,-3.3892 0,-8.37142 6.79086,-15.16224 15.16224,-15.16224 8.37142,0 15.16224,6.79082 15.16224,15.16224 0,1.17884 -0.1878,2.29182 -0.44594,3.3892 l 2.94324,0.8919 c 0.71088,-2.95322 0.69742,-6.07258 -0.089,-9.00816 -2.19374,-8.18722 -9.64766,-13.54843 -17.74874,-13.46763 z m -13.28926,24.25959 -2.4973,0.71352 -1.15946,0.26742 c -0.25344,0.068 -0.48794,0.155 -0.71352,0.26742 -1.57918,0.7881 -2.43764,2.59594 -1.96218,4.3703 l 1.96218,7.31354 c 0.54336,2.02782 2.61006,3.21906 4.63786,2.6757 l 3.65678,-0.8919 -3.92436,-14.7163 z m 27.02446,0 -3.92434,14.71628 3.65678,0.8919 c 2.02778,0.54336 4.0945,-0.64788 4.63786,-2.67568 l 1.96218,-7.31356 c 0.46392,-1.73144 -0.36672,-3.46546 -1.873,-4.2811 l -0.089,-0.089 -2.4973,-0.71352 -1.873,-0.53514 z"
         id="path3857"
         inkscape:connector-curvature="0" />
      <path
         inkscape:connector-curvature="0"
         id="path3859"
         d="m 335.66726,46.001349 c -2.2503,0.0213 -4.54881,0.32707 -6.82299,0.93649 -14.33814,3.84192 -22.87389,18.4293 -19.39875,32.77719 l 4.41489,-1.33785 c -0.39003,-1.64826 -0.66894,-3.31554 -0.66894,-5.0838 0,-12.55713 10.18629,-22.74336 22.74336,-22.74336 12.55713,0 22.74336,10.18623 22.74336,22.74336 0,1.76826 -0.2817,3.43773 -0.66891,5.0838 l 4.41486,1.33785 c 1.06632,-4.42983 1.04613,-9.10887 -0.1335,-13.51224 -3.29061,-12.28083 -14.47149,-20.32264 -26.62311,-20.20144 z m -19.93389,36.38938 -3.74595,1.07028 -1.73919,0.40113 c -0.38016,0.102 -0.73191,0.2325 -1.07028,0.40113 -2.36877,1.18215 -3.65646,3.89391 -2.94327,6.55544 l 2.94327,10.970321 c 0.81504,3.04173 3.91509,4.82859 6.95679,4.01355 l 5.48517,-1.33785 -5.88654,-22.074451 z m 40.53669,0 -5.88651,22.074421 5.48517,1.33785 c 3.04167,0.81504 6.14175,-0.97182 6.95679,-4.01352 l 2.94327,-10.970351 c 0.69588,-2.59715 -0.55008,-5.19818 -2.8095,-6.42164 l -0.1335,-0.1335 -3.74595,-1.07028 -2.8095,-0.80271 z"
         style="opacity:0.2;color:#000000;fill:#000000;fill-opacity:1;fill-rule:nonzero;stroke:none;stroke-width:1.5;marker:none;visibility:visible;display:inline;overflow:visible;filter:url(#filter7554);enable-background:accumulate" />
      <path
         inkscape:connector-curvature="0"
         id="path3861"
         d="m 311.84472,230.00063 c -1.05014,0.01 -2.12278,0.15264 -3.18406,0.43704 -6.69113,1.79289 -10.67448,8.60033 -9.05275,15.29602 l 2.06028,-0.62433 c -0.18201,-0.76919 -0.31217,-1.54726 -0.31217,-2.37244 0,-5.86 4.7536,-10.61357 10.61357,-10.61357 5.85999,0 10.61356,4.75357 10.61356,10.61357 0,0.82518 -0.13146,1.60427 -0.31216,2.37244 l 2.06027,0.62433 c 0.49762,-2.06726 0.4882,-4.25081 -0.0623,-6.30572 -1.53562,-5.73105 -6.75336,-9.4839 -12.42411,-9.42734 z m -9.30248,16.98172 -1.74811,0.49946 -0.81162,0.18719 c -0.17741,0.0476 -0.34156,0.1085 -0.49947,0.1872 -1.10542,0.55167 -1.70634,1.81716 -1.37352,3.05921 l 1.37352,5.11947 c 0.38036,1.41948 1.82705,2.25335 3.24651,1.87299 l 2.55974,-0.62433 -2.74705,-10.3014 z m 18.91712,0 -2.74704,10.30139 2.55975,0.62433 c 1.41944,0.38035 2.86615,-0.45352 3.2465,-1.87298 l 1.37352,-5.11949 c 0.32475,-1.212 -0.2567,-2.42582 -1.3111,-2.99677 l -0.0623,-0.0623 -1.74811,-0.49946 -1.3111,-0.3746 z"
         style="opacity:0.2;color:#000000;fill:#000000;fill-opacity:1;fill-rule:nonzero;stroke:none;stroke-width:1.5;marker:none;visibility:visible;display:inline;overflow:visible;filter:url(#filter7554);enable-background:accumulate" />
      <path
         style="opacity:0.2;color:#000000;fill:#000000;fill-opacity:1;fill-rule:nonzero;stroke:none;stroke-width:1.5;marker:none;visibility:visible;display:inline;overflow:visible;filter:url(#filter7554);enable-background:accumulate"
         d="m 143.2236,86.003147 c -5.2507,0.0497 -10.61389,0.763164 -15.92031,2.185144 -33.455651,8.964478 -53.3724,43.001699 -45.26374,76.480109 l 10.301409,-3.12165 c -0.91007,-3.84594 -1.56086,-7.73626 -1.56086,-11.8622 0,-29.29997 23.768001,-53.067841 53.067831,-53.067841 29.29997,0 53.06785,23.767871 53.06785,53.067841 0,4.12594 -0.6573,8.02137 -1.56079,11.8622 l 10.30134,3.12165 c 2.48808,-10.33627 2.44097,-21.25403 -0.3115,-31.52856 -7.67809,-28.65527 -33.76682,-47.419493 -62.1206,-47.136693 z m -46.512401,84.908553 -8.74055,2.49732 -4.058109,0.93597 c -0.88704,0.238 -1.70779,0.5425 -2.49732,0.93597 -5.52713,2.75835 -8.53174,9.08579 -6.86763,15.29603 l 6.86763,25.5974 c 1.90176,7.09738 9.135209,11.26672 16.232509,9.36496 L 110.44645,222.4177 96.711199,170.91065 z m 94.585611,0 -13.73519,51.50698 12.79873,3.12165 c 7.09723,1.90176 14.33075,-2.26758 16.23251,-9.36489 l 6.86763,-25.59747 c 1.62372,-6.06002 -1.28352,-12.12909 -6.5555,-14.98383 l -0.3115,-0.3115 -8.74055,-2.49732 -6.5555,-1.87299 z"
         id="path3863"
         inkscape:connector-curvature="0" />
      <path
         style="opacity:0.2;color:#000000;fill:#000000;fill-opacity:1;fill-rule:nonzero;stroke:none;stroke-width:1.5;marker:none;visibility:visible;display:inline;overflow:visible;filter:url(#filter7554);enable-background:accumulate"
         d="m 423.94455,144.00023 c -0.37505,0.004 -0.75814,0.0545 -1.13717,0.15608 -2.38969,0.64032 -3.81231,3.07155 -3.23312,5.46286 l 0.73581,-0.22297 c -0.065,-0.27471 -0.11149,-0.55259 -0.11149,-0.8473 0,-2.09286 1.69772,-3.79056 3.79056,-3.79056 2.09286,0 3.79056,1.6977 3.79056,3.79056 0,0.29471 -0.0469,0.57295 -0.11148,0.8473 l 0.73581,0.22297 c 0.17772,-0.7383 0.17435,-1.51814 -0.0222,-2.25204 -0.54844,-2.0468 -2.41192,-3.3871 -4.43719,-3.3669 z m -3.32232,6.06489 -0.62432,0.17838 -0.28987,0.0669 c -0.0634,0.017 -0.12198,0.0387 -0.17838,0.0668 -0.39479,0.19703 -0.60941,0.64899 -0.49054,1.09258 l 0.49054,1.82838 c 0.13584,0.50696 0.65252,0.80477 1.15947,0.66893 l 0.91419,-0.22298 -0.98109,-3.67907 z m 6.75612,0 -0.98109,3.67907 0.9142,0.22298 c 0.50694,0.13584 1.02362,-0.16197 1.15946,-0.66892 l 0.49055,-1.82839 c 0.11598,-0.43286 -0.0917,-0.86637 -0.46825,-1.07028 l -0.0223,-0.0222 -0.62433,-0.17838 -0.46825,-0.13378 z"
         id="path3865"
         inkscape:connector-curvature="0" />
      <path
         inkscape:connector-curvature="0"
         id="path3748"
         d="m 427.92228,103.99277 c -0.52564,0.005 -1.06253,0.0764 -1.59375,0.21875 -3.34917,0.89741 -5.34299,4.3048 -4.53125,7.65625 l 1.03125,-0.3125 c -0.0911,-0.38501 -0.15625,-0.77446 -0.15625,-1.1875 0,-2.93315 2.37936,-5.3125 5.3125,-5.3125 2.93315,0 5.3125,2.37935 5.3125,5.3125 0,0.41304 -0.0658,0.803 -0.15625,1.1875 l 1.03125,0.3125 c 0.24907,-1.03474 0.24436,-2.12769 -0.0312,-3.15625 -0.76864,-2.86862 -3.38032,-4.74706 -6.21875,-4.71875 z m -4.65625,8.5 -0.875,0.25 -0.40625,0.0937 c -0.0888,0.0238 -0.17096,0.0543 -0.25,0.0937 -0.55331,0.27613 -0.85409,0.90956 -0.6875,1.53125 l 0.6875,2.5625 c 0.19038,0.7105 0.91451,1.12788 1.625,0.9375 l 1.28125,-0.3125 -1.375,-5.15625 z m 9.46875,0 -1.375,5.15625 1.28125,0.3125 c 0.71049,0.19038 1.43462,-0.227 1.625,-0.9375 l 0.6875,-2.5625 c 0.16255,-0.60666 -0.12849,-1.21422 -0.65625,-1.5 l -0.0312,-0.0312 -0.875,-0.25 -0.65625,-0.1875 z"
         style="color:#000000;fill:#ffffff;fill-opacity:1;fill-rule:nonzero;stroke:none;stroke-width:1.5;marker:none;visibility:visible;display:inline;overflow:visible;filter:url(#filter7554);enable-background:accumulate" />
      <path
         style="color:#000000;fill:#ffffff;fill-opacity:1;fill-rule:nonzero;stroke:none;stroke-width:1.5;marker:none;visibility:visible;display:inline;overflow:visible;filter:url(#filter7554);enable-background:accumulate"
         d="m 431.88909,57.000447 c -0.7501,0.0071 -1.51627,0.109025 -2.27433,0.312163 -4.77938,1.28064 -7.62463,6.1431 -6.46625,10.92573 l 1.47163,-0.44595 c -0.13001,-0.54942 -0.22298,-1.10518 -0.22298,-1.6946 0,-4.18571 3.39543,-7.58112 7.58112,-7.58112 4.18571,0 7.58112,3.39541 7.58112,7.58112 0,0.58942 -0.0939,1.14591 -0.22297,1.6946 l 1.47162,0.44595 c 0.35544,-1.47661 0.34871,-3.03629 -0.0445,-4.50408 -1.09687,-4.09361 -4.82383,-6.774213 -8.87437,-6.733813 z m -6.64463,12.129793 -1.24865,0.35676 -0.57973,0.13371 c -0.12672,0.034 -0.24397,0.0775 -0.35676,0.13371 -0.78959,0.39405 -1.21882,1.29797 -0.98109,2.18515 l 0.98109,3.65677 c 0.27168,1.01391 1.30503,1.60953 2.31893,1.33785 l 1.82839,-0.44595 -1.96218,-7.35815 z m 13.51223,0 -1.96217,7.35814 1.82839,0.44595 c 1.01389,0.27168 2.04725,-0.32394 2.31893,-1.33784 l 0.98109,-3.65678 c 0.23196,-0.86572 -0.18336,-1.73273 -0.9365,-2.14055 l -0.0445,-0.0445 -1.24865,-0.35676 -0.9365,-0.26757 z"
         id="path3841"
         inkscape:connector-curvature="0" />
      <path
         inkscape:connector-curvature="0"
         id="path3843"
         d="m 319.77817,151.0009 c -1.5002,0.0142 -3.03254,0.21805 -4.54866,0.62433 -9.55876,2.56128 -15.24926,12.2862 -12.9325,21.85146 l 2.94326,-0.8919 c -0.26002,-1.09884 -0.44596,-2.21036 -0.44596,-3.3892 0,-8.37142 6.79086,-15.16224 15.16224,-15.16224 8.37142,0 15.16224,6.79082 15.16224,15.16224 0,1.17884 -0.1878,2.29182 -0.44594,3.3892 l 2.94324,0.8919 c 0.71088,-2.95322 0.69742,-6.07258 -0.089,-9.00816 -2.19374,-8.18722 -9.64766,-13.54843 -17.74874,-13.46763 z m -13.28926,24.25959 -2.4973,0.71352 -1.15946,0.26742 c -0.25344,0.068 -0.48794,0.155 -0.71352,0.26742 -1.57918,0.7881 -2.43764,2.59594 -1.96218,4.3703 l 1.96218,7.31354 c 0.54336,2.02782 2.61006,3.21906 4.63786,2.6757 l 3.65678,-0.8919 -3.92436,-14.7163 z m 27.02446,0 -3.92434,14.71628 3.65678,0.8919 c 2.02778,0.54336 4.0945,-0.64788 4.63786,-2.67568 l 1.96218,-7.31356 c 0.46392,-1.73144 -0.36672,-3.46546 -1.873,-4.2811 l -0.089,-0.089 -2.4973,-0.71352 -1.873,-0.53514 z"
         style="color:#000000;fill:#ffffff;fill-opacity:1;fill-rule:nonzero;stroke:none;stroke-width:1.5;marker:none;visibility:visible;display:inline;overflow:visible;filter:url(#filter7554);enable-background:accumulate" />
      <path
         style="color:#000000;fill:#ffffff;fill-opacity:1;fill-rule:nonzero;stroke:none;stroke-width:1.5;marker:none;visibility:visible;display:inline;overflow:visible;filter:url(#filter7554);enable-background:accumulate"
         d="m 335.66726,45.001352 c -2.2503,0.0213 -4.54881,0.32707 -6.82299,0.93649 -14.33814,3.84192 -22.87389,18.4293 -19.39875,32.77719 l 4.41489,-1.33785 c -0.39003,-1.64826 -0.66894,-3.31554 -0.66894,-5.0838 0,-12.55713 10.18629,-22.74336 22.74336,-22.74336 12.55713,0 22.74336,10.18623 22.74336,22.74336 0,1.76826 -0.2817,3.43773 -0.66891,5.0838 l 4.41486,1.33785 c 1.06632,-4.42983 1.04613,-9.10887 -0.1335,-13.51224 -3.29061,-12.28083 -14.47149,-20.32264 -26.62311,-20.20144 z m -19.93389,36.38938 -3.74595,1.07028 -1.73919,0.40113 c -0.38016,0.102 -0.73191,0.2325 -1.07028,0.40113 -2.36877,1.18215 -3.65646,3.89391 -2.94327,6.55544 l 2.94327,10.970318 c 0.81504,3.04173 3.91509,4.82859 6.95679,4.01355 l 5.48517,-1.33785 -5.88654,-22.074448 z m 40.53669,0 -5.88651,22.074418 5.48517,1.33785 c 3.04167,0.81504 6.14175,-0.97182 6.95679,-4.01352 l 2.94327,-10.970348 c 0.69588,-2.59715 -0.55008,-5.19818 -2.8095,-6.42164 l -0.1335,-0.1335 -3.74595,-1.07028 -2.8095,-0.80271 z"
         id="path3845"
         inkscape:connector-curvature="0" />
      <path
         style="color:#000000;fill:#ffffff;fill-opacity:1;fill-rule:nonzero;stroke:none;stroke-width:1.5;marker:none;visibility:visible;display:inline;overflow:visible;filter:url(#filter7554);enable-background:accumulate"
         d="m 311.84472,229.00063 c -1.05014,0.01 -2.12278,0.15264 -3.18406,0.43704 -6.69113,1.79289 -10.67448,8.60033 -9.05275,15.29602 l 2.06028,-0.62433 c -0.18201,-0.76919 -0.31217,-1.54726 -0.31217,-2.37244 0,-5.86 4.7536,-10.61357 10.61357,-10.61357 5.85999,0 10.61356,4.75357 10.61356,10.61357 0,0.82518 -0.13146,1.60427 -0.31216,2.37244 l 2.06027,0.62433 c 0.49762,-2.06726 0.4882,-4.25081 -0.0623,-6.30572 -1.53562,-5.73105 -6.75336,-9.4839 -12.42411,-9.42734 z m -9.30248,16.98172 -1.74811,0.49946 -0.81162,0.18719 c -0.17741,0.0476 -0.34156,0.1085 -0.49947,0.1872 -1.10542,0.55167 -1.70634,1.81716 -1.37352,3.05921 l 1.37352,5.11947 c 0.38036,1.41948 1.82705,2.25335 3.24651,1.87299 l 2.55974,-0.62433 -2.74705,-10.3014 z m 18.91712,0 -2.74704,10.30139 2.55975,0.62433 c 1.41944,0.38035 2.86615,-0.45352 3.2465,-1.87298 l 1.37352,-5.11949 c 0.32475,-1.212 -0.2567,-2.42582 -1.3111,-2.99677 l -0.0623,-0.0623 -1.74811,-0.49946 -1.3111,-0.3746 z"
         id="path3847"
         inkscape:connector-curvature="0" />
      <path
         inkscape:connector-curvature="0"
         id="path3849"
         d="m 143.2236,85.00315 c -5.2507,0.0497 -10.61389,0.763164 -15.92031,2.185144 -33.455651,8.964478 -53.3724,43.001696 -45.26374,76.480106 l 10.301409,-3.12165 c -0.91007,-3.84594 -1.56086,-7.73626 -1.56086,-11.8622 0,-29.29997 23.768001,-53.067838 53.067831,-53.067838 29.29997,0 53.06785,23.767868 53.06785,53.067838 0,4.12594 -0.6573,8.02137 -1.56079,11.8622 l 10.30134,3.12165 c 2.48808,-10.33627 2.44097,-21.25403 -0.3115,-31.52856 -7.67809,-28.65527 -33.76682,-47.41949 -62.1206,-47.13669 z m -46.512401,84.90855 -8.74055,2.49732 -4.058109,0.93597 c -0.88704,0.238 -1.70779,0.5425 -2.49732,0.93597 -5.52713,2.75835 -8.53174,9.08579 -6.86763,15.29603 l 6.86763,25.5974 c 1.90176,7.09738 9.135209,11.26672 16.232509,9.36496 L 110.44645,221.4177 96.711199,169.91065 z m 94.585611,0 -13.73519,51.50698 12.79873,3.12165 c 7.09723,1.90176 14.33075,-2.26758 16.23251,-9.36489 l 6.86763,-25.59747 c 1.62372,-6.06002 -1.28352,-12.12909 -6.5555,-14.98383 l -0.3115,-0.3115 -8.74055,-2.49732 -6.5555,-1.87299 z"
         style="color:#000000;fill:#ffffff;fill-opacity:1;fill-rule:nonzero;stroke:none;stroke-width:1.5;marker:none;visibility:visible;display:inline;overflow:visible;filter:url(#filter7554);enable-background:accumulate" />
      <path
         inkscape:connector-curvature="0"
         id="path3851"
         d="m 423.94455,143.00023 c -0.37505,0.004 -0.75814,0.0545 -1.13717,0.15608 -2.38969,0.64032 -3.81231,3.07155 -3.23312,5.46286 l 0.73581,-0.22297 c -0.065,-0.27471 -0.11149,-0.55259 -0.11149,-0.8473 0,-2.09286 1.69772,-3.79056 3.79056,-3.79056 2.09286,0 3.79056,1.6977 3.79056,3.79056 0,0.29471 -0.0469,0.57295 -0.11148,0.8473 l 0.73581,0.22297 c 0.17772,-0.7383 0.17435,-1.51814 -0.0222,-2.25204 -0.54844,-2.0468 -2.41192,-3.3871 -4.43719,-3.3669 z m -3.32232,6.06489 -0.62432,0.17838 -0.28987,0.0669 c -0.0634,0.017 -0.12198,0.0387 -0.17838,0.0668 -0.39479,0.19703 -0.60941,0.64899 -0.49054,1.09258 l 0.49054,1.82838 c 0.13584,0.50696 0.65252,0.80477 1.15947,0.66893 l 0.91419,-0.22298 -0.98109,-3.67907 z m 6.75612,0 -0.98109,3.67907 0.9142,0.22298 c 0.50694,0.13584 1.02362,-0.16197 1.15946,-0.66892 l 0.49055,-1.82839 c 0.11598,-0.43286 -0.0917,-0.86637 -0.46825,-1.07028 l -0.0223,-0.0222 -0.62433,-0.17838 -0.46825,-0.13378 z"
         style="color:#000000;fill:#ffffff;fill-opacity:1;fill-rule:nonzero;stroke:none;stroke-width:1.5;marker:none;visibility:visible;display:inline;overflow:visible;filter:url(#filter7554);enable-background:accumulate" />
    </g>
    <g
       inkscape:groupmode="layer"
       id="layer5"
       inkscape:label="Highlights"
       style="display:inline"
       sodipodi:insensitive="true">
      <rect
         ry="9"
         y="307"
         x="-265"
         height="42"
         width="42"
         id="rect4884"
         style="opacity:0.1;color:#bebebe;fill:none;stroke:#000000;stroke-width:2;stroke-miterlimit:4;stroke-opacity:1;stroke-dasharray:none;marker:none;visibility:visible;display:inline;overflow:visible;enable-background:accumulate"
         transform="matrix(0,1,1,0,-16,488)"
         clip-path="url(#clipPath4891)" />
      <rect
         style="opacity:0.1;color:#bebebe;fill:none;stroke:#000000;stroke-width:2;stroke-miterlimit:4;stroke-opacity:1;stroke-dasharray:none;marker:none;visibility:visible;display:inline;overflow:visible;enable-background:accumulate"
         id="rect5311"
         width="16"
         height="16"
         x="-228"
         y="304"
         ry="3"
         clip-path="url(#clipPath3855)"
         transform="matrix(0,-1,1,0,112,-72)" />
      <rect
         ry="50"
         y="46"
         x="34"
         height="220"
         width="220"
         id="rect3858"
         style="opacity:0.1;color:#bebebe;fill:none;stroke:#000000;stroke-width:2;stroke-miterlimit:4;stroke-opacity:1;stroke-dasharray:none;marker:none;visibility:visible;display:inline;overflow:visible;enable-background:accumulate"
         clip-path="url(#clipPath3862)" />
      <rect
         ry="12.5"
         y="142"
         x="290"
         height="60"
         width="60"
         id="rect4175"
         style="opacity:0.1;color:#bebebe;fill:none;stroke:#000000;stroke-width:2;stroke-miterlimit:4;stroke-opacity:1;stroke-dasharray:none;marker:none;visibility:visible;display:inline;overflow:visible;enable-background:accumulate"
         clip-path="url(#clipPath4187)" />
      <rect
         style="opacity:0.1;color:#bebebe;fill:none;stroke:#000000;stroke-width:2;stroke-miterlimit:4;stroke-opacity:1;stroke-dasharray:none;marker:none;visibility:visible;display:inline;overflow:visible;enable-background:accumulate"
         id="rect4342"
         width="88"
         height="88"
         x="292"
         y="32"
         ry="18"
         clip-path="url(#clipPath4346)" />
      <rect
         ry="5"
         y="101"
         x="417"
         height="22"
         width="22"
         id="rect3866"
         style="opacity:0.1;color:#bebebe;fill:none;stroke:#000000;stroke-width:2;stroke-miterlimit:4;stroke-opacity:1;stroke-dasharray:none;marker:none;visibility:visible;display:inline;overflow:visible;enable-background:accumulate"
         clip-path="url(#clipPath3871)" />
      <rect
         style="opacity:0.1;color:#bebebe;fill:none;stroke:#000000;stroke-width:2;stroke-miterlimit:4;stroke-opacity:1;stroke-dasharray:none;marker:none;visibility:visible;display:inline;overflow:visible;enable-background:accumulate"
         id="rect3877"
         width="30"
         height="30"
         x="417"
         y="53"
         ry="7"
         clip-path="url(#clipPath3881)" />
    </g>
  </g>
</svg>
