<?xml version="1.0" encoding="UTF-8" standalone="no"?>
<!-- Created with Inkscape (http://www.inkscape.org/) -->

<svg
   xmlns:dc="http://purl.org/dc/elements/1.1/"
   xmlns:cc="http://creativecommons.org/ns#"
   xmlns:rdf="http://www.w3.org/1999/02/22-rdf-syntax-ns#"
   xmlns:svg="http://www.w3.org/2000/svg"
   xmlns="http://www.w3.org/2000/svg"
   xmlns:xlink="http://www.w3.org/1999/xlink"
   xmlns:sodipodi="http://sodipodi.sourceforge.net/DTD/sodipodi-0.dtd"
   xmlns:inkscape="http://www.inkscape.org/namespaces/inkscape"
   inkscape:export-ydpi="90.000000"
   inkscape:export-xdpi="90.000000"
   width="480"
   height="300"
   id="svg11300"
   sodipodi:version="0.32"
   inkscape:version="0.48.4 r9939"
   sodipodi:docname="file-manager.svg"
   inkscape:output_extension="org.inkscape.output.svg.inkscape"
   version="1.0"
   style="display:inline;enable-background:new"
   inkscape:export-filename="/home/sam/moka2-template.png">
  <sodipodi:namedview
     stroke="#ef2929"
     fill="#f57900"
     id="base"
     pagecolor="#ffffff"
     bordercolor="#666666"
     borderopacity="0.25490196"
     inkscape:pageopacity="0"
     inkscape:pageshadow="2"
     inkscape:zoom="1"
     inkscape:cx="285.51468"
     inkscape:cy="104.55239"
     inkscape:current-layer="layer2"
     showgrid="false"
     inkscape:grid-bbox="true"
     inkscape:document-units="px"
     inkscape:showpageshadow="false"
     inkscape:window-width="1366"
     inkscape:window-height="702"
     inkscape:window-x="0"
     inkscape:window-y="27"
     width="400px"
     height="300px"
     inkscape:snap-nodes="true"
     inkscape:snap-bbox="true"
     gridtolerance="10000"
     inkscape:object-nodes="true"
     inkscape:snap-grids="true"
     showguides="true"
     inkscape:guide-bbox="true"
     inkscape:window-maximized="1"
     inkscape:bbox-nodes="true"
     inkscape:bbox-paths="true"
     inkscape:snap-bbox-edge-midpoints="true"
     inkscape:snap-bbox-midpoints="true">
    <inkscape:grid
       spacingy="1px"
       spacingx="1px"
       id="grid5883"
       type="xygrid"
       enabled="true"
       visible="true"
       empspacing="4"
       snapvisiblegridlinesonly="true"
       dotted="false"
       color="#000000"
       opacity="0.1254902"
       empcolor="#203ef3"
       empopacity="0.36470588" />
    <inkscape:grid
       type="xygrid"
       id="grid11592"
       empspacing="8"
       visible="true"
       enabled="false"
       spacingx="0.5px"
       spacingy="0.5px"
       color="#ff0000"
       opacity="0.1254902"
       empcolor="#ff0000"
       empopacity="0.25098039"
       snapvisiblegridlinesonly="true"
       dotted="true" />
  </sodipodi:namedview>
  <defs
     id="defs3">
    <linearGradient
       id="linearGradient3848">
      <stop
         style="stop-color:#a89f7e;stop-opacity:1;"
         offset="0"
         id="stop3850" />
      <stop
         style="stop-color:#cbc2a3;stop-opacity:1;"
         offset="1"
         id="stop3852" />
    </linearGradient>
    <linearGradient
       id="outerBackgroundGradient">
      <stop
         style="stop-color:#6f6951;stop-opacity:1;"
         offset="0"
         id="stop3864-8-6" />
      <stop
         style="stop-color:#a29c87;stop-opacity:1;"
         offset="1"
         id="stop3866-9-1" />
    </linearGradient>
    <linearGradient
       inkscape:collect="always"
       xlink:href="#outerBackgroundGradient"
       id="linearGradient4097"
       gradientUnits="userSpaceOnUse"
       x1="264"
       y1="280.00003"
       x2="264"
       y2="40.00005"
       gradientTransform="matrix(0.06666667,0,0,0.06666667,414.4,137.33333)" />
    <linearGradient
       inkscape:collect="always"
       xlink:href="#outerBackgroundGradient"
       id="linearGradient4101"
       gradientUnits="userSpaceOnUse"
       gradientTransform="matrix(0.0875,0,0,0.0875,414.9,97.5)"
       x1="286.85715"
       y1="302.85715"
       x2="286.85715"
       y2="28.571428" />
    <linearGradient
       inkscape:collect="always"
       xlink:href="#outerBackgroundGradient"
       id="linearGradient4153"
       gradientUnits="userSpaceOnUse"
       gradientTransform="matrix(0.11931818,0,0,0.11931818,414.13636,48.22727)"
       x1="283.80957"
       y1="299.80954"
       x2="283.80957"
       y2="31.61907" />
    <linearGradient
       inkscape:collect="always"
       xlink:href="#outerBackgroundGradient"
       id="linearGradient4869"
       gradientUnits="userSpaceOnUse"
       gradientTransform="matrix(0.175,0,0,-0.175,287.79999,-216.99997)"
       x1="281.14291"
       y1="297.14304"
       x2="281.14291"
       y2="22.857315" />
    <clipPath
       clipPathUnits="userSpaceOnUse"
       id="clipPath4891">
      <rect
         ry="9"
         y="223"
         x="307"
         height="42"
         width="42"
         id="rect4893"
         style="color:#bebebe;fill:url(#linearGradient4895);fill-opacity:1;fill-rule:nonzero;stroke:none;stroke-width:0;marker:none;visibility:visible;display:inline;overflow:visible;enable-background:accumulate"
         transform="matrix(0,1,-1,0,0,0)" />
    </clipPath>
    <linearGradient
       inkscape:collect="always"
       xlink:href="#outerBackgroundGradient"
       id="linearGradient4895"
       gradientUnits="userSpaceOnUse"
       gradientTransform="matrix(0.175,0,0,0.175,302.79999,215.99997)"
       x1="144.00006"
       y1="280.00018"
       x2="144.00006"
       y2="40.000172" />
    <clipPath
       clipPathUnits="userSpaceOnUse"
       id="clipPath4044">
      <rect
         ry="4"
         y="85"
         x="433"
         height="22"
         width="22"
         id="rect4046"
         style="color:#bebebe;fill:url(#linearGradient4048);fill-opacity:1;fill-rule:nonzero;stroke:none;stroke-width:0;marker:none;visibility:visible;display:inline;overflow:visible;enable-background:accumulate" />
    </clipPath>
    <linearGradient
       inkscape:collect="always"
       xlink:href="#outerBackgroundGradient"
       id="linearGradient4048"
       gradientUnits="userSpaceOnUse"
       gradientTransform="matrix(0.0875,0,0,0.0875,430.9,81.499996)"
       x1="149.71428"
       y1="291.42862"
       x2="149.71428"
       y2="40.000046" />
    <clipPath
       clipPathUnits="userSpaceOnUse"
       id="clipPath4089">
      <rect
         style="color:#bebebe;fill:url(#linearGradient4093);fill-opacity:1;fill-rule:nonzero;stroke:none;stroke-width:0;marker:none;visibility:visible;display:inline;overflow:visible;enable-background:accumulate"
         id="rect4091"
         width="30"
         height="30"
         x="433"
         y="37"
         ry="6" />
    </clipPath>
    <linearGradient
       inkscape:collect="always"
       xlink:href="#outerBackgroundGradient"
       id="linearGradient4093"
       gradientUnits="userSpaceOnUse"
       gradientTransform="matrix(0.11931818,0,0,0.11931818,430.13636,32.227267)"
       x1="149.71432"
       y1="291.42862"
       x2="149.71432"
       y2="40.00005" />
    <clipPath
       clipPathUnits="userSpaceOnUse"
       id="clipPath3855">
      <rect
         style="color:#bebebe;fill:url(#linearGradient3859);fill-opacity:1;fill-rule:nonzero;stroke:none;stroke-width:0;marker:none;visibility:visible;display:inline;overflow:visible;enable-background:accumulate"
         id="rect3857"
         width="16"
         height="16"
         x="304"
         y="212"
         ry="3"
         transform="matrix(0,1,-1,0,0,0)" />
    </clipPath>
    <linearGradient
       inkscape:collect="always"
       xlink:href="#outerBackgroundGradient"
       id="linearGradient3859"
       gradientUnits="userSpaceOnUse"
       gradientTransform="matrix(0.06666667,0,0,0.06666667,302.4,209.33333)"
       x1="144"
       y1="280.00003"
       x2="144"
       y2="40.00005" />
    <clipPath
       clipPathUnits="userSpaceOnUse"
       id="clipPath3862">
      <rect
         ry="50"
         y="46"
         x="34"
         height="220"
         width="220"
         id="rect3864"
         style="color:#bebebe;fill:url(#linearGradient3866);fill-opacity:1;fill-rule:nonzero;stroke:none;stroke-width:0;marker:none;visibility:visible;display:inline;overflow:visible;enable-background:accumulate" />
    </clipPath>
    <linearGradient
       inkscape:collect="always"
       xlink:href="#outerBackgroundGradient"
       id="linearGradient3866"
       gradientUnits="userSpaceOnUse"
       gradientTransform="translate(0,-4)"
       x1="144"
       y1="280"
       x2="144"
       y2="40" />
    <linearGradient
       inkscape:collect="always"
       xlink:href="#outerBackgroundGradient"
       id="linearGradient3876"
       gradientUnits="userSpaceOnUse"
       gradientTransform="translate(0,-4)"
       x1="272"
       y1="288"
       x2="272"
       y2="32" />
    <clipPath
       clipPathUnits="userSpaceOnUse"
       id="clipPath4187">
      <rect
         ry="12.5"
         y="142"
         x="290"
         height="60"
         width="60"
         id="rect4189"
         style="color:#bebebe;fill:url(#linearGradient4191);fill-opacity:1;fill-rule:nonzero;stroke:none;stroke-width:0;marker:none;visibility:visible;display:inline;overflow:visible;enable-background:accumulate" />
    </clipPath>
    <linearGradient
       inkscape:collect="always"
       xlink:href="#outerBackgroundGradient"
       id="linearGradient4191"
       gradientUnits="userSpaceOnUse"
       x1="352"
       y1="204"
       x2="352"
       y2="140" />
    <linearGradient
       inkscape:collect="always"
       xlink:href="#outerBackgroundGradient"
       id="linearGradient4197"
       gradientUnits="userSpaceOnUse"
       x1="384"
       y1="124"
       x2="384"
       y2="28" />
    <linearGradient
       inkscape:collect="always"
       xlink:href="#outerBackgroundGradient"
       id="linearGradient4199"
       gradientUnits="userSpaceOnUse"
       x1="352"
       y1="204"
       x2="352"
       y2="140" />
    <clipPath
       clipPathUnits="userSpaceOnUse"
       id="clipPath4346">
      <rect
         style="color:#bebebe;fill:url(#linearGradient4350);fill-opacity:1;fill-rule:nonzero;stroke:none;stroke-width:0;marker:none;visibility:visible;display:inline;overflow:visible;enable-background:accumulate"
         id="rect4348"
         width="88"
         height="88"
         x="292"
         y="32"
         ry="18" />
    </clipPath>
    <linearGradient
       inkscape:collect="always"
       xlink:href="#outerBackgroundGradient"
       id="linearGradient4350"
       gradientUnits="userSpaceOnUse"
       x1="384"
       y1="124"
       x2="384"
       y2="28" />
    <clipPath
       clipPathUnits="userSpaceOnUse"
       id="clipPath3871">
      <rect
         ry="5"
         y="101"
         x="417"
         height="22"
         width="22"
         id="rect3873"
         style="color:#bebebe;fill:url(#linearGradient3875);fill-opacity:1;fill-rule:nonzero;stroke:none;stroke-width:0;marker:none;visibility:visible;display:inline;overflow:visible;enable-background:accumulate" />
    </clipPath>
    <linearGradient
       inkscape:collect="always"
       xlink:href="#outerBackgroundGradient"
       id="linearGradient3875"
       gradientUnits="userSpaceOnUse"
       gradientTransform="matrix(0.0875,0,0,0.0875,414.9,97.5)"
       x1="286.85715"
       y1="302.85715"
       x2="286.85715"
       y2="28.571428" />
    <clipPath
       clipPathUnits="userSpaceOnUse"
       id="clipPath3881">
      <rect
         style="color:#bebebe;fill:url(#linearGradient3885);fill-opacity:1;fill-rule:nonzero;stroke:none;stroke-width:0;marker:none;visibility:visible;display:inline;overflow:visible;enable-background:accumulate"
         id="rect3883"
         width="30"
         height="30"
         x="417"
         y="53"
         ry="7" />
    </clipPath>
    <linearGradient
       inkscape:collect="always"
       xlink:href="#outerBackgroundGradient"
       id="linearGradient3885"
       gradientUnits="userSpaceOnUse"
       gradientTransform="matrix(0.11931818,0,0,0.11931818,414.13636,48.22727)"
       x1="283.80957"
       y1="299.80954"
       x2="283.80957"
       y2="31.61907" />
    <linearGradient
       inkscape:collect="always"
       xlink:href="#linearGradient3848"
       id="linearGradient4087"
       gradientUnits="userSpaceOnUse"
       gradientTransform="matrix(4.9285746,0,0,4.9285746,-1398.6438,-1048.5722)"
       x1="336"
       y1="268"
       x2="336"
       y2="224" />
    <linearGradient
       inkscape:collect="always"
       xlink:href="#linearGradient3848"
       id="linearGradient4117"
       gradientUnits="userSpaceOnUse"
       gradientTransform="matrix(2.1751825,0,0,2.1578947,-490.57665,-252.73684)"
       x1="432"
       y1="156"
       x2="432"
       y2="140" />
    <linearGradient
       inkscape:collect="always"
       xlink:href="#linearGradient3848"
       id="linearGradient4128"
       gradientUnits="userSpaceOnUse"
       gradientTransform="matrix(4.350365,0,0,4.3157893,-1525.1532,-469.47368)"
       x1="432"
       y1="156"
       x2="432"
       y2="140" />
    <linearGradient
       inkscape:collect="always"
       xlink:href="#linearGradient3848"
       id="linearGradient4134"
       gradientUnits="userSpaceOnUse"
       gradientTransform="matrix(1.0875912,0,0,1.0789473,-37.288325,-12.36842)"
       x1="432"
       y1="156"
       x2="432"
       y2="140" />
    <linearGradient
       inkscape:collect="always"
       xlink:href="#linearGradient3848"
       id="linearGradient4155"
       gradientUnits="userSpaceOnUse"
       x1="336"
       y1="268"
       x2="336"
       y2="224" />
    <linearGradient
       inkscape:collect="always"
       xlink:href="#linearGradient3848"
       id="linearGradient4173"
       gradientUnits="userSpaceOnUse"
       gradientTransform="matrix(2,0,0,2,-290,-414)"
       x1="336"
       y1="268"
       x2="336"
       y2="224" />
    <linearGradient
       inkscape:collect="always"
       xlink:href="#linearGradient3848"
       id="linearGradient4200"
       gradientUnits="userSpaceOnUse"
       x1="336"
       y1="268"
       x2="336"
       y2="224"
       gradientTransform="matrix(0.5,0,0,0.5,271.50003,-10.5)" />
    <linearGradient
       inkscape:collect="always"
       xlink:href="#linearGradient3848"
       id="linearGradient4208"
       gradientUnits="userSpaceOnUse"
       gradientTransform="matrix(17.40146,0,0,17.263157,-7236.6128,-2407.8947)"
       x1="432"
       y1="156"
       x2="432"
       y2="140" />
  </defs>
  <metadata
     id="metadata4">
    <rdf:RDF>
      <cc:Work
         rdf:about="">
        <dc:format>image/svg+xml</dc:format>
        <dc:type
           rdf:resource="http://purl.org/dc/dcmitype/StillImage" />
        <dc:creator>
          <cc:Agent>
            <dc:title>Sam Hewitt</dc:title>
          </cc:Agent>
        </dc:creator>
        <dc:source />
        <cc:license
           rdf:resource="" />
        <dc:title />
        <dc:subject>
          <rdf:Bag />
        </dc:subject>
        <dc:date />
        <dc:rights>
          <cc:Agent>
            <dc:title />
          </cc:Agent>
        </dc:rights>
        <dc:publisher>
          <cc:Agent>
            <dc:title />
          </cc:Agent>
        </dc:publisher>
        <dc:identifier />
        <dc:relation />
        <dc:language />
        <dc:coverage />
        <dc:description />
        <dc:contributor>
          <cc:Agent>
            <dc:title />
          </cc:Agent>
        </dc:contributor>
      </cc:Work>
      <cc:Work
         rdf:about="">
        <dc:format>image/svg+xml</dc:format>
        <dc:type
           rdf:resource="http://purl.org/dc/dcmitype/StillImage" />
      </cc:Work>
    </rdf:RDF>
  </metadata>
  <g
     style="display:inline"
     inkscape:groupmode="layer"
     inkscape:label="Icon"
     id="layer1">
    <g
       style="display:none"
       inkscape:label="Baseplate"
       id="layer7"
       inkscape:groupmode="layer">
      <text
         y="19.745117"
         xml:space="preserve"
         x="15.006836"
         style="font-size:18px;font-style:normal;font-variant:normal;font-weight:normal;font-stretch:normal;fill:#000000;fill-opacity:1;stroke:none;display:inline;enable-background:new;font-family:DejaVu Sans;-inkscape-font-specification:DejaVu Sans"
         inkscape:label="context"
         id="context"><tspan
           style="font-style:normal;font-variant:normal;font-weight:normal;font-stretch:normal;font-family:DejaVu Sans;-inkscape-font-specification:DejaVu Sans"
           y="19.745117"
           x="15.006836"
           sodipodi:role="line"
           id="tspan3933">apps</tspan></text>
      <text
         y="19.745117"
         xml:space="preserve"
         x="122.48828"
         style="font-size:18px;font-style:normal;font-variant:normal;font-weight:bold;font-stretch:normal;text-align:start;line-height:125%;writing-mode:lr-tb;text-anchor:start;fill:#000000;fill-opacity:1;stroke:none;display:inline;enable-background:new;font-family:DejaVu Sans;-inkscape-font-specification:DejaVu Sans Bold"
         sodipodi:linespacing="125%"
         inkscape:label="icon-name"
         id="icon-name"><tspan
           style="font-size:18px;font-style:normal;font-variant:normal;font-weight:bold;font-stretch:normal;font-family:DejaVu Sans;-inkscape-font-specification:DejaVu Sans Bold"
           y="19.745117"
           x="122.48828"
           sodipodi:role="line"
           id="tspan3937">system-file-manager</tspan></text>
      <rect
         style="fill:#eeeeec;fill-opacity:1;fill-rule:nonzero;stroke:none;stroke-width:2;marker:none;visibility:visible;display:inline;overflow:visible;enable-background:accumulate"
         id="rect16x16"
         width="16"
         height="16"
         x="416"
         y="140"
         inkscape:label="16x16" />
      <rect
         style="fill:#d4d4d4;fill-opacity:1;fill-rule:nonzero;stroke:none;stroke-width:2;marker:none;visibility:visible;display:inline;overflow:visible;enable-background:accumulate"
         id="rect24x24"
         width="24"
         height="24"
         x="416"
         y="100"
         inkscape:label="24x24" />
      <rect
         style="fill:#eeeeec;fill-opacity:1;fill-rule:nonzero;stroke:none;stroke-width:2;marker:none;visibility:visible;display:inline;overflow:visible;enable-background:accumulate"
         id="rect32x32"
         width="32"
         height="32"
         x="416"
         y="52"
         inkscape:label="32x32" />
      <rect
         inkscape:label="22x22"
         y="101"
         x="417"
         height="22"
         width="22"
         id="rect22x22"
         style="fill:#eeeeec;fill-opacity:1;fill-rule:nonzero;stroke:none;stroke-width:2;marker:none;visibility:visible;display:inline;overflow:visible;enable-background:accumulate" />
      <rect
         inkscape:label="48x48"
         y="221"
         x="289"
         height="48"
         width="48"
         id="rect48x48"
         style="fill:#eeeeec;fill-opacity:1;fill-rule:nonzero;stroke:none;stroke-width:2;marker:none;visibility:visible;display:inline;overflow:visible;enable-background:accumulate" />
      <rect
         style="fill:#eeeeec;fill-opacity:1;fill-rule:nonzero;stroke:none;stroke-width:2;marker:none;visibility:visible;display:inline;overflow:visible;enable-background:accumulate"
         id="rect256x256"
         width="256"
         height="256"
         x="16"
         y="28"
         inkscape:label="256x256" />
      <rect
         style="fill:#eeeeec;fill-opacity:1;fill-rule:nonzero;stroke:none;stroke-width:2;marker:none;visibility:visible;display:inline;overflow:visible;enable-background:accumulate"
         id="rect64x64"
         width="64"
         height="64"
         x="288"
         y="140"
         inkscape:label="64x64" />
      <rect
         style="fill:#eeeeec;fill-opacity:1;fill-rule:nonzero;stroke:none;stroke-width:2;marker:none;visibility:visible;display:inline;overflow:visible;enable-background:accumulate"
         id="rect96x96"
         width="96"
         height="96"
         x="288"
         y="28"
         inkscape:label="96x96" />
    </g>
    <g
       inkscape:groupmode="layer"
       id="layer4"
       inkscape:label="Shadow"
       style="display:inline">
      <rect
         style="opacity:0.1;color:#bebebe;fill:#000000;fill-opacity:1;stroke:#000000;stroke-width:1;stroke-miterlimit:4;stroke-opacity:1;stroke-dasharray:none;marker:none;visibility:visible;display:inline;overflow:visible;enable-background:accumulate"
         id="rect4156"
         width="42"
         height="42"
         x="-267.5"
         y="292"
         ry="9"
         transform="matrix(0,-1,1,0,0,0)" />
      <rect
         transform="matrix(0,-1,1,0,0,0)"
         ry="9"
         y="292"
         x="-267.5"
         height="42"
         width="40"
         id="rect4183"
         style="opacity:0.3;color:#bebebe;fill:#000000;fill-opacity:1;stroke:none;stroke-width:1;marker:none;visibility:visible;display:inline;overflow:visible;enable-background:accumulate" />
      <rect
         ry="9"
         y="238"
         x="292"
         height="29"
         width="42"
         id="rect4144"
         style="opacity:0.3;color:#bebebe;fill:#000000;fill-opacity:1;fill-rule:nonzero;stroke:none;stroke-width:0;marker:none;visibility:visible;display:inline;overflow:visible;enable-background:accumulate" />
      <rect
         style="opacity:0.05;color:#bebebe;fill:#000000;fill-opacity:1;fill-rule:nonzero;stroke:#000000;stroke-width:1;stroke-miterlimit:4;stroke-opacity:1;stroke-dasharray:none;marker:none;visibility:visible;display:inline;overflow:visible;enable-background:accumulate"
         id="rect4340"
         width="88"
         height="88"
         x="292"
         y="33.5"
         ry="18" />
      <rect
         ry="18"
         y="52.5"
         x="292"
         height="69"
         width="88"
         id="rect4338"
         style="opacity:0.3;color:#bebebe;fill:#000000;fill-opacity:1;fill-rule:nonzero;stroke:none;stroke-width:0;marker:none;visibility:visible;display:inline;overflow:visible;enable-background:accumulate" />
      <rect
         style="opacity:0.3;color:#bebebe;fill:#000000;fill-opacity:1;fill-rule:nonzero;stroke:none;stroke-width:0;marker:none;visibility:visible;display:inline;overflow:visible;enable-background:accumulate"
         id="rect4335"
         width="88"
         height="76.5"
         x="292"
         y="44.5"
         ry="18" />
      <rect
         style="opacity:0.05;color:#bebebe;fill:#000000;fill-opacity:1;fill-rule:nonzero;stroke:#000000;stroke-width:1;stroke-miterlimit:4;stroke-opacity:1;stroke-dasharray:none;marker:none;visibility:visible;display:inline;overflow:visible;enable-background:accumulate"
         id="rect4214"
         width="60"
         height="60"
         x="290"
         y="143.5"
         ry="12.5" />
      <rect
         ry="12.5"
         y="151.5"
         x="290"
         height="52"
         width="60"
         id="rect4206"
         style="opacity:0.3;color:#bebebe;fill:#000000;fill-opacity:1;fill-rule:nonzero;stroke:none;stroke-width:0;marker:none;visibility:visible;display:inline;overflow:visible;enable-background:accumulate" />
      <rect
         style="opacity:0.3;color:#bebebe;fill:#000000;fill-opacity:1;fill-rule:nonzero;stroke:none;stroke-width:0;marker:none;visibility:visible;display:inline;overflow:visible;enable-background:accumulate"
         id="rect4212"
         width="60"
         height="54.5"
         x="290"
         y="148.5"
         ry="12.5" />
      <rect
         style="opacity:0.5;color:#bebebe;fill:#000000;fill-opacity:1;fill-rule:nonzero;stroke:none;stroke-width:0;marker:none;visibility:visible;display:inline;overflow:visible;enable-background:accumulate"
         id="rect4058"
         width="30"
         height="30"
         x="417"
         y="54"
         ry="7" />
      <rect
         ry="50"
         y="48"
         x="34"
         height="220"
         width="220"
         id="rect3872"
         style="opacity:0.05;color:#bebebe;fill:#000000;fill-opacity:1;fill-rule:nonzero;stroke:#000000;stroke-width:2;stroke-miterlimit:4;stroke-opacity:1;stroke-dasharray:none;marker:none;visibility:visible;display:inline;overflow:visible;enable-background:accumulate" />
      <rect
         style="opacity:0.3;color:#bebebe;fill:#000000;fill-opacity:1;fill-rule:nonzero;stroke:none;stroke-width:0;marker:none;visibility:visible;display:inline;overflow:visible;enable-background:accumulate"
         id="rect3870"
         width="220"
         height="220"
         x="34"
         y="48"
         ry="50" />
      <rect
         ry="50"
         y="47"
         x="34"
         height="220"
         width="220"
         id="rect3868"
         style="opacity:0.3;color:#bebebe;fill:#000000;fill-opacity:1;fill-rule:nonzero;stroke:none;stroke-width:0;marker:none;visibility:visible;display:inline;overflow:visible;enable-background:accumulate" />
    </g>
    <g
       inkscape:groupmode="layer"
       id="layer2"
       inkscape:label="Background"
       style="display:inline">
      <rect
         style="color:#bebebe;fill:url(#linearGradient3876);fill-opacity:1;fill-rule:nonzero;stroke:none;stroke-width:0;marker:none;visibility:visible;display:inline;overflow:visible;enable-background:accumulate"
         id="rect4040"
         width="220"
         height="220"
         x="34"
         y="46"
         ry="50" />
      <rect
         ry="3"
         y="140"
         x="416"
         height="16"
         width="16"
         id="rect4095"
         style="color:#bebebe;fill:url(#linearGradient4097);fill-opacity:1;fill-rule:nonzero;stroke:none;stroke-width:0;marker:none;visibility:visible;display:inline;overflow:visible;enable-background:accumulate" />
      <rect
         style="color:#bebebe;fill:url(#linearGradient4101);fill-opacity:1;fill-rule:nonzero;stroke:none;stroke-width:0;marker:none;visibility:visible;display:inline;overflow:visible;enable-background:accumulate"
         id="rect4099"
         width="22"
         height="22"
         x="417"
         y="101"
         ry="5" />
      <rect
         ry="7"
         y="53"
         x="417"
         height="30"
         width="30"
         id="rect4151"
         style="color:#bebebe;fill:url(#linearGradient4153);fill-opacity:1;fill-rule:nonzero;stroke:none;stroke-width:0;marker:none;visibility:visible;display:inline;overflow:visible;enable-background:accumulate" />
      <rect
         style="color:#bebebe;fill:url(#linearGradient4869);fill-opacity:1;fill-rule:nonzero;stroke:none;stroke-width:0;marker:none;visibility:visible;display:inline;overflow:visible;enable-background:accumulate"
         id="rect4783"
         width="42"
         height="42"
         x="292"
         y="-266"
         ry="9"
         transform="scale(1,-1)" />
      <rect
         ry="18"
         y="32"
         x="292"
         height="88"
         width="88"
         id="rect4511"
         style="color:#bebebe;fill:url(#linearGradient4197);fill-opacity:1;fill-rule:nonzero;stroke:none;stroke-width:0;marker:none;visibility:visible;display:inline;overflow:visible;enable-background:accumulate" />
      <rect
         style="color:#bebebe;fill:url(#linearGradient4199);fill-opacity:1;fill-rule:nonzero;stroke:none;stroke-width:0;marker:none;visibility:visible;display:inline;overflow:visible;enable-background:accumulate"
         id="rect4515"
         width="60"
         height="60"
         x="290"
         y="142"
         ry="12.5" />
    </g>
    <g
       inkscape:groupmode="layer"
       id="layer6"
       inkscape:label="Symbols"
       style="display:inline">
      <path
         sodipodi:nodetypes="sccsccscccscsccsccccsccscccccscsccsccc"
         inkscape:connector-curvature="0"
         id="path4212"
         d="m 64,94 0,56 160,0 0,-56 C 224,78 208,78 208,78 L 80,78 c 0,0 -16,0 -16,16 z m 55.25,7.75 c 4.5158,-0.42764 8.91152,3.71688 8.75,8.25 l 32,0 c -0.056,-4.22652 3.77304,-8.11396 8,-8.11396 4.22696,0 8.05972,3.88744 8,8.11396 0,6.66668 -4.59192,12.29596 -8.49996,14.25 C 163.59192,126.20408 160,126 160,126 l -32,0 c 0,0 -3.59192,0.2044 -7.50004,-1.75 C 116.59192,122.29596 112,116.66668 112,110 c -0.0884,-3.66476 2.67284,-7.19884 6.25,-8 0.3268,-0.1048 0.6616,-0.1884 1,-0.2504 z M 64,166 l 0,56 c 0,13.30332 16,16 16,16 l 128,0 c 0,0 16,0 16,-16 l 0,-56 z m 55.25,23.75 c 4.5158,-0.42764 8.91152,3.71688 8.75,8.25 l 32,0 c -0.056,-4.22652 3.77304,-8 8,-8 4.22696,0 8.05972,3.77348 8,8 0,6.66668 -4.59192,12.29596 -8.49996,14.25 C 163.59192,214.20408 160,214 160,214 l -32,0 c 0,0 -3.59192,0.2044 -7.50004,-1.75 C 116.59192,210.29596 112,204.66668 112,198 c -0.0884,-3.66476 2.67284,-7.19884 6.25,-8 0.3268,-0.1048 0.6616,-0.1884 1,-0.2504 z"
         style="color:#000000;fill:none;fill-opacity:1;fill-rule:evenodd;stroke:#000000;stroke-width:2;marker:none;visibility:visible;display:inline;overflow:visible;enable-background:accumulate;stroke-opacity:1;opacity:0.05000000000000000;stroke-miterlimit:4;stroke-dasharray:none" />
      <path
         sodipodi:nodetypes="csccscccccssccccsccccccsccccccssccccscc"
         inkscape:connector-curvature="0"
         style="color:#000000;fill:none;fill-opacity:1;fill-rule:evenodd;stroke:#000000;stroke-width:1;marker:none;visibility:visible;display:inline;overflow:visible;enable-background:accumulate;stroke-opacity:1;opacity:0.05"
         d="m 422.50003,105 c 0,0 -1.5,0 -1.5,1.5 l -3e-5,4.5 14,0 3e-5,-4.5 c 1e-5,-1.5 -1.5,-1.5 -1.5,-1.5 z m 3.25,1.75 c 0.41422,0 0.75,0.33578 0.75,0.75 l 3,0 c 0,-0.41422 0.33578,-0.75 0.75,-0.75 0.41422,0 0.75,0.33578 0.75,0.75 0,0.0518 -0.006,0.10742 -0.0156,0.15625 -0.10261,1.34019 -1.4844,1.34375 -1.4844,1.34375 l -3,0 c 0,0 -1.38181,-0.004 -1.48438,-1.34375 -0.01,-0.0488 -0.0156,-0.10447 -0.0156,-0.15625 0,-0.41422 0.33578,-0.75 0.75,-0.75 z M 421.0469,113 421,117.5 c 0,1.5 1.5,1.5 1.5,1.5 l 11,0 c 0,0 1.5,0 1.5,-1.5 l 0,-4.5 -13.95313,0 z m 4.70313,1.75 c 0.41422,0 0.75,0.33578 0.75,0.75 l 3,0 c 0,-0.41422 0.33578,-0.75 0.75,-0.75 0.41422,0 0.75,0.33578 0.75,0.75 0,0.0518 -0.006,0.10745 -0.0156,0.15625 -0.10259,1.34025 -1.4844,1.34375 -1.4844,1.34375 l -3,0 c 0,0 -1.38179,-0.004 -1.48438,-1.34375 -0.01,-0.0488 -0.0156,-0.10447 -0.0156,-0.15625 0,-0.41422 0.33578,-0.75 0.75,-0.75 z"
         id="path4202" />
      <path
         inkscape:connector-curvature="0"
         style="color:#000000;fill:none;fill-opacity:1;fill-rule:evenodd;stroke:#000000;stroke-width:2;marker:none;visibility:visible;display:inline;overflow:visible;enable-background:accumulate;stroke-opacity:1;opacity:0.05000000000000000;stroke-miterlimit:4;stroke-dasharray:none"
         d="m 314,48 c 0,0 -6,0 -6,5.999997 l 0,20.000007 56,0 0,-20.000007 C 364,48 358,48 358,48 l -44,0 z m 13,8.999996 c 1.65686,0 3,1.343145 3,3.000008 l 12,0 c 0,-1.656863 1.34314,-3.000008 3,-3.000008 1.65686,0 3,1.343145 3,3.000008 0,0.207092 -0.0227,0.429697 -0.0625,0.625 C 347.52716,65.985775 342,66.000001 342,66.000001 l -12,0 c 0,0 -5.52726,-0.01405 -5.9375,-5.374997 -0.04,-0.195303 -0.0625,-0.417908 -0.0625,-0.625 0,-1.656863 1.34314,-3.000008 3,-3.000008 z m -18.8125,21 L 308,98.000003 C 308,104 314,104 314,104 l 44,0 c 0,0 6,0 6,-5.999997 l 0,-20.000007 -55.8125,0 z M 327,87.000001 c 1.65686,0 3,1.343136 3,2.999999 l 12,0 c 0,-1.656863 1.34314,-2.999999 3,-2.999999 1.65686,0 3,1.343136 3,2.999999 0,0.207102 -0.0225,0.429795 -0.0625,0.624999 C 347.52726,95.985997 342,95.999997 342,95.999997 l -12,0 c 0,0 -5.52716,-0.01424 -5.9375,-5.374998 C 324.0227,90.429697 324,90.207102 324,90 c 0,-1.656863 1.34314,-2.999999 3,-2.999999 z"
         id="path4176" />
      <path
         id="path4158"
         d="M 302 231 C 302 231 299 231 299 234 L 299 244 L 327 244 L 327 234 C 327 231 324 231 324 231 L 302 231 z M 308.5 235.5 C 309.32843 235.5 310 236.17157 310 237 L 316 237 C 316 236.17157 316.67157 235.5 317.5 235.5 C 318.32843 235.5 319 236.17157 319 237 C 319 237.10355 318.98865 237.21485 318.96875 237.3125 C 318.76358 239.99289 316 240 316 240 L 310 240 C 310 240 307.23637 239.993 307.03125 237.3125 C 307.01127 237.21485 307 237.10355 307 237 C 307 236.17157 307.67157 235.5 308.5 235.5 z M 299.09375 246 L 299 256 C 299 259 302 259 302 259 L 324 259 C 324 259 327 259 327 256 L 327 246 L 299.09375 246 z M 308.5 250.5 C 309.32843 250.5 310 251.17157 310 252 L 316 252 C 316 251.17157 316.67157 250.5 317.5 250.5 C 318.32843 250.5 319 251.17157 319 252 C 319 252.10355 318.98875 252.2149 318.96875 252.3125 C 318.76363 254.993 316 255 316 255 L 310 255 C 310 255 307.23642 254.99289 307.03125 252.3125 C 307.01135 252.21485 307 252.10355 307 252 C 307 251.17157 307.67157 250.5 308.5 250.5 z "
         style="color:#000000;fill:none;fill-opacity:1;fill-rule:evenodd;stroke:#000000;stroke-width:2;marker:none;visibility:visible;display:inline;overflow:visible;enable-background:accumulate;stroke-opacity:1;opacity:0.05000000000000000;stroke-miterlimit:4;stroke-dasharray:none" />
      <path
         style="color:#000000;fill:none;fill-opacity:1;fill-rule:evenodd;stroke:#000000;stroke-width:1;marker:none;visibility:visible;display:inline;overflow:visible;enable-background:accumulate;stroke-opacity:1;opacity:0.05"
         d="m 419,144 0,3 10,0 0,-3 c 0,-1 -1,-1 -1,-1 l -8,0 c 0,0 -1,0 -1,1 z m 3.45312,0.48437 c 0.28224,-0.0267 0.55697,0.23231 0.54688,0.51563 l 2,0 c -0.003,-0.26416 0.23581,-0.50712 0.5,-0.50712 0.26418,0 0.50373,0.24296 0.5,0.50712 0,0.41667 -0.287,0.7685 -0.53125,0.89062 C 425.22449,146.01275 425,146 425,146 l -2,0 c 0,0 -0.2245,0.0128 -0.46875,-0.10938 C 422.28699,145.7685 422,145.41667 422,145 c -0.005,-0.22905 0.16705,-0.44993 0.39062,-0.5 0.0204,-0.006 0.0413,-0.0118 0.0625,-0.0156 z M 419,148 l 0,3 c 0,0.83146 1,1 1,1 l 8,0 c 0,0 1,0 1,-1 l 0,-3 z m 3.45312,1.48437 c 0.28224,-0.0267 0.55697,0.23231 0.54688,0.51563 l 2,0 c 0.26418,0 0.23581,-0.5 0.5,-0.5 0.26418,0 0.50373,0.23584 0.5,0.5 0,0.41667 -0.287,0.7685 -0.53125,0.89062 C 425.22449,151.01275 425,151 425,151 l -2,0 c 0,0 -0.2245,0.0128 -0.46875,-0.10938 C 422.28699,150.7685 422,150.41667 422,150 c -0.005,-0.22905 0.16705,-0.44993 0.39062,-0.5 0.0204,-0.006 0.0413,-0.0118 0.0625,-0.0156 z"
         id="path4138"
         inkscape:connector-curvature="0"
         sodipodi:nodetypes="sccsccscccscsccscccccccscccccscsccsccccc" />
      <path
         style="color:#000000;fill:none;fill-opacity:1;fill-rule:evenodd;stroke:#000000;stroke-width:2;marker:none;visibility:visible;display:inline;overflow:visible;enable-background:accumulate;stroke-opacity:1;opacity:0.05000000000000000;stroke-miterlimit:4;stroke-dasharray:none"
         d="m 300,156 0,14 40,0 0,-14 c 0,-4 -4,-4 -4,-4 l -32,0 c 0,0 -4,0 -4,4 z m 13.8125,1.9375 c 1.12895,-0.10691 2.22788,0.92922 2.1875,2.0625 l 8,0 c -0.014,-1.05663 0.94326,-2.02849 2,-2.02849 1.05674,0 2.01493,0.97186 2,2.02849 0,1.66667 -1.14798,3.07399 -2.12499,3.5625 C 324.89798,164.05102 324,164 324,164 l -8,0 c 0,0 -0.89798,0.0511 -1.87501,-0.4375 C 313.14798,163.07399 312,161.66667 312,160 c -0.0221,-0.91619 0.66821,-1.79971 1.5625,-2 0.0817,-0.0262 0.1654,-0.0471 0.25,-0.0626 z M 300,174 l 0,14 c 0,3.32583 4,4 4,4 l 32,0 c 0,0 4,0 4,-4 l 0,-14 z m 13.8125,5.9375 c 1.12895,-0.10691 2.22788,0.92922 2.1875,2.0625 l 8,0 c -0.014,-1.05663 0.94326,-2 2,-2 1.05674,0 2.01493,0.94337 2,2 0,1.66667 -1.14798,3.07399 -2.12499,3.5625 C 324.89798,186.05102 324,186 324,186 l -8,0 c 0,0 -0.89798,0.0511 -1.87501,-0.4375 C 313.14798,185.07399 312,183.66667 312,182 c -0.0221,-0.91619 0.66821,-1.79971 1.5625,-2 0.0817,-0.0262 0.1654,-0.0471 0.25,-0.0626 z"
         id="path4130"
         inkscape:connector-curvature="0"
         sodipodi:nodetypes="sccsccscccscsccsccccsccscccccscsccsccc" />
      <path
         sodipodi:nodetypes="sccsccscccscsccsccccsccscccccscsccsccc"
         inkscape:connector-curvature="0"
         id="path4122"
         d="m 422,60 0,7 20,0 0,-7 c 0,-2 -2,-2 -2,-2 l -16,0 c 0,0 -2,0 -2,2 z m 6.90625,0.96875 C 429.47072,60.915297 430.02019,61.433363 430,62 l 4,0 c -0.007,-0.528313 0.47163,-1.014242 1,-1.014242 0.52837,0 1.00747,0.485929 1,1.014242 0,0.833333 -0.57399,1.536993 -1.0625,1.78125 C 434.44899,64.02551 434,64 434,64 l -4,0 c 0,0 -0.44899,0.02551 -0.9375,-0.21875 C 428.57399,63.536993 428,62.833333 428,62 c -0.011,-0.458098 0.3341,-0.899859 0.78125,-1 0.0409,-0.01309 0.0827,-0.02353 0.125,-0.03125 z M 422,69 l 0,7 c 0,1.662913 2,2 2,2 l 16,0 c 0,0 2,0 2,-2 l 0,-7 z m 6.90625,2.96875 C 429.47072,71.915297 430.02019,72.433363 430,73 l 4,0 c -0.007,-0.528313 0.47163,-1 1,-1 0.52837,0 1.00747,0.471687 1,1 0,0.833333 -0.57399,1.536993 -1.0625,1.78125 C 434.44899,75.02551 434,75 434,75 l -4,0 c 0,0 -0.44899,0.02551 -0.9375,-0.21875 C 428.57399,74.536993 428,73.833333 428,73 c -0.011,-0.458098 0.3341,-0.899859 0.78125,-1 0.0409,-0.01309 0.0827,-0.02353 0.125,-0.03125 z"
         style="color:#000000;fill:none;fill-opacity:1;fill-rule:evenodd;stroke:#000000;stroke-width:1;marker:none;visibility:visible;display:inline;overflow:visible;enable-background:accumulate;stroke-opacity:1;opacity:0.05" />
      <path
         style="color:#000000;fill:url(#linearGradient4155);fill-opacity:1;fill-rule:evenodd;stroke:none;stroke-width:1;marker:none;visibility:visible;display:inline;overflow:visible;enable-background:accumulate"
         d="M 302 231 C 302 231 299 231 299 234 L 299 244 L 327 244 L 327 234 C 327 231 324 231 324 231 L 302 231 z M 308.5 235.5 C 309.32843 235.5 310 236.17157 310 237 L 316 237 C 316 236.17157 316.67157 235.5 317.5 235.5 C 318.32843 235.5 319 236.17157 319 237 C 319 237.10355 318.98865 237.21485 318.96875 237.3125 C 318.76358 239.99289 316 240 316 240 L 310 240 C 310 240 307.23637 239.993 307.03125 237.3125 C 307.01127 237.21485 307 237.10355 307 237 C 307 236.17157 307.67157 235.5 308.5 235.5 z M 299.09375 246 L 299 256 C 299 259 302 259 302 259 L 324 259 C 324 259 327 259 327 256 L 327 246 L 299.09375 246 z M 308.5 250.5 C 309.32843 250.5 310 251.17157 310 252 L 316 252 C 316 251.17157 316.67157 250.5 317.5 250.5 C 318.32843 250.5 319 251.17157 319 252 C 319 252.10355 318.98875 252.2149 318.96875 252.3125 C 318.76363 254.993 316 255 316 255 L 310 255 C 310 255 307.23642 254.99289 307.03125 252.3125 C 307.01135 252.21485 307 252.10355 307 252 C 307 251.17157 307.67157 250.5 308.5 250.5 z "
         id="rect11668-7" />
      <path
         style="color:#000000;fill:url(#linearGradient4117);fill-opacity:1;fill-rule:evenodd;stroke:none;stroke-width:1;marker:none;visibility:visible;display:inline;overflow:visible;enable-background:accumulate"
         d="m 422,60 0,7 20,0 0,-7 c 0,-2 -2,-2 -2,-2 l -16,0 c 0,0 -2,0 -2,2 z m 6.90625,0.96875 C 429.47072,60.915297 430.02019,61.433363 430,62 l 4,0 c -0.007,-0.528313 0.47163,-1.014242 1,-1.014242 0.52837,0 1.00747,0.485929 1,1.014242 0,0.833333 -0.57399,1.536993 -1.0625,1.78125 C 434.44899,64.02551 434,64 434,64 l -4,0 c 0,0 -0.44899,0.02551 -0.9375,-0.21875 C 428.57399,63.536993 428,62.833333 428,62 c -0.011,-0.458098 0.3341,-0.899859 0.78125,-1 0.0409,-0.01309 0.0827,-0.02353 0.125,-0.03125 z M 422,69 l 0,7 c 0,1.662913 2,2 2,2 l 16,0 c 0,0 2,0 2,-2 l 0,-7 z m 6.90625,2.96875 C 429.47072,71.915297 430.02019,72.433363 430,73 l 4,0 c -0.007,-0.528313 0.47163,-1 1,-1 0.52837,0 1.00747,0.471687 1,1 0,0.833333 -0.57399,1.536993 -1.0625,1.78125 C 434.44899,75.02551 434,75 434,75 l -4,0 c 0,0 -0.44899,0.02551 -0.9375,-0.21875 C 428.57399,74.536993 428,73.833333 428,73 c -0.011,-0.458098 0.3341,-0.899859 0.78125,-1 0.0409,-0.01309 0.0827,-0.02353 0.125,-0.03125 z"
         id="path3920"
         inkscape:connector-curvature="0"
         sodipodi:nodetypes="sccsccscccscsccsccccsccscccccscsccsccc" />
      <path
         sodipodi:nodetypes="sccsccscccscsccsccccsccscccccscsccsccc"
         inkscape:connector-curvature="0"
         id="path4126"
         d="m 300,156 0,14 40,0 0,-14 c 0,-4 -4,-4 -4,-4 l -32,0 c 0,0 -4,0 -4,4 z m 13.8125,1.9375 c 1.12895,-0.10691 2.22788,0.92922 2.1875,2.0625 l 8,0 c -0.014,-1.05663 0.94326,-2.02849 2,-2.02849 1.05674,0 2.01493,0.97186 2,2.02849 0,1.66667 -1.14798,3.07399 -2.12499,3.5625 C 324.89798,164.05102 324,164 324,164 l -8,0 c 0,0 -0.89798,0.0511 -1.87501,-0.4375 C 313.14798,163.07399 312,161.66667 312,160 c -0.0221,-0.91619 0.66821,-1.79971 1.5625,-2 0.0817,-0.0262 0.1654,-0.0471 0.25,-0.0626 z M 300,174 l 0,14 c 0,3.32583 4,4 4,4 l 32,0 c 0,0 4,0 4,-4 l 0,-14 z m 13.8125,5.9375 c 1.12895,-0.10691 2.22788,0.92922 2.1875,2.0625 l 8,0 c -0.014,-1.05663 0.94326,-2 2,-2 1.05674,0 2.01493,0.94337 2,2 0,1.66667 -1.14798,3.07399 -2.12499,3.5625 C 324.89798,186.05102 324,186 324,186 l -8,0 c 0,0 -0.89798,0.0511 -1.87501,-0.4375 C 313.14798,185.07399 312,183.66667 312,182 c -0.0221,-0.91619 0.66821,-1.79971 1.5625,-2 0.0817,-0.0262 0.1654,-0.0471 0.25,-0.0626 z"
         style="color:#000000;fill:url(#linearGradient4128);fill-opacity:1;fill-rule:evenodd;stroke:none;stroke-width:1;marker:none;visibility:visible;display:inline;overflow:visible;enable-background:accumulate" />
      <path
         sodipodi:nodetypes="sccsccscccscsccscccccccscccccscsccsccccc"
         inkscape:connector-curvature="0"
         id="path4132"
         d="m 419,144 0,3 10,0 0,-3 c 0,-1 -1,-1 -1,-1 l -8,0 c 0,0 -1,0 -1,1 z m 3.45312,0.48437 c 0.28224,-0.0267 0.55697,0.23231 0.54688,0.51563 l 2,0 c -0.003,-0.26416 0.23581,-0.50712 0.5,-0.50712 0.26418,0 0.50373,0.24296 0.5,0.50712 0,0.41667 -0.287,0.7685 -0.53125,0.89062 C 425.22449,146.01275 425,146 425,146 l -2,0 c 0,0 -0.2245,0.0128 -0.46875,-0.10938 C 422.28699,145.7685 422,145.41667 422,145 c -0.005,-0.22905 0.16705,-0.44993 0.39062,-0.5 0.0204,-0.006 0.0413,-0.0118 0.0625,-0.0156 z M 419,148 l 0,3 c 0,0.83146 1,1 1,1 l 8,0 c 0,0 1,0 1,-1 l 0,-3 z m 3.45312,1.48437 c 0.28224,-0.0267 0.55697,0.23231 0.54688,0.51563 l 2,0 c 0.26418,0 0.23581,-0.5 0.5,-0.5 0.26418,0 0.50373,0.23584 0.5,0.5 0,0.41667 -0.287,0.7685 -0.53125,0.89062 C 425.22449,151.01275 425,151 425,151 l -2,0 c 0,0 -0.2245,0.0128 -0.46875,-0.10938 C 422.28699,150.7685 422,150.41667 422,150 c -0.005,-0.22905 0.16705,-0.44993 0.39062,-0.5 0.0204,-0.006 0.0413,-0.0118 0.0625,-0.0156 z"
         style="color:#000000;fill:url(#linearGradient4134);fill-opacity:1;fill-rule:evenodd;stroke:none;stroke-width:1;marker:none;visibility:visible;display:inline;overflow:visible;enable-background:accumulate" />
      <path
         id="path4162"
         d="m 314,48 c 0,0 -6,0 -6,5.999997 l 0,20.000007 56,0 0,-20.000007 C 364,48 358,48 358,48 l -44,0 z m 13,8.999996 c 1.65686,0 3,1.343145 3,3.000008 l 12,0 c 0,-1.656863 1.34314,-3.000008 3,-3.000008 1.65686,0 3,1.343145 3,3.000008 0,0.207092 -0.0227,0.429697 -0.0625,0.625 C 347.52716,65.985775 342,66.000001 342,66.000001 l -12,0 c 0,0 -5.52726,-0.01405 -5.9375,-5.374997 -0.04,-0.195303 -0.0625,-0.417908 -0.0625,-0.625 0,-1.656863 1.34314,-3.000008 3,-3.000008 z m -18.8125,21 L 308,98.000003 C 308,104 314,104 314,104 l 44,0 c 0,0 6,0 6,-5.999997 l 0,-20.000007 -55.8125,0 z M 327,87.000001 c 1.65686,0 3,1.343136 3,2.999999 l 12,0 c 0,-1.656863 1.34314,-2.999999 3,-2.999999 1.65686,0 3,1.343136 3,2.999999 0,0.207102 -0.0225,0.429795 -0.0625,0.624999 C 347.52726,95.985997 342,95.999997 342,95.999997 l -12,0 c 0,0 -5.52716,-0.01424 -5.9375,-5.374998 C 324.0227,90.429697 324,90.207102 324,90 c 0,-1.656863 1.34314,-2.999999 3,-2.999999 z"
         style="color:#000000;fill:url(#linearGradient4173);fill-opacity:1;fill-rule:evenodd;stroke:none;stroke-width:1;marker:none;visibility:visible;display:inline;overflow:visible;enable-background:accumulate"
         inkscape:connector-curvature="0" />
      <path
         id="path4197"
         d="m 422.50003,105 c 0,0 -1.5,0 -1.5,1.5 l -3e-5,4.5 14,0 3e-5,-4.5 c 1e-5,-1.5 -1.5,-1.5 -1.5,-1.5 z m 3.25,1.75 c 0.41422,0 0.75,0.33578 0.75,0.75 l 3,0 c 0,-0.41422 0.33578,-0.75 0.75,-0.75 0.41422,0 0.75,0.33578 0.75,0.75 0,0.0518 -0.006,0.10742 -0.0156,0.15625 -0.10261,1.34019 -1.4844,1.34375 -1.4844,1.34375 l -3,0 c 0,0 -1.38181,-0.004 -1.48438,-1.34375 -0.01,-0.0488 -0.0156,-0.10447 -0.0156,-0.15625 0,-0.41422 0.33578,-0.75 0.75,-0.75 z M 421.0469,113 421,117.5 c 0,1.5 1.5,1.5 1.5,1.5 l 11,0 c 0,0 1.5,0 1.5,-1.5 l 0,-4.5 -13.95313,0 z m 4.70313,1.75 c 0.41422,0 0.75,0.33578 0.75,0.75 l 3,0 c 0,-0.41422 0.33578,-0.75 0.75,-0.75 0.41422,0 0.75,0.33578 0.75,0.75 0,0.0518 -0.006,0.10745 -0.0156,0.15625 -0.10259,1.34025 -1.4844,1.34375 -1.4844,1.34375 l -3,0 c 0,0 -1.38179,-0.004 -1.48438,-1.34375 -0.01,-0.0488 -0.0156,-0.10447 -0.0156,-0.15625 0,-0.41422 0.33578,-0.75 0.75,-0.75 z"
         style="color:#000000;fill:url(#linearGradient4200);fill-opacity:1;fill-rule:evenodd;stroke:none;stroke-width:1;marker:none;visibility:visible;display:inline;overflow:visible;enable-background:accumulate"
         inkscape:connector-curvature="0"
         sodipodi:nodetypes="csccscccccssccccsccccccsccccccssccccscc" />
      <path
         style="color:#000000;fill:url(#linearGradient4208);fill-opacity:1;fill-rule:evenodd;stroke:none;stroke-width:1;marker:none;visibility:visible;display:inline;overflow:visible;enable-background:accumulate"
         d="m 64,94 0,56 160,0 0,-56 C 224,78 208,78 208,78 L 80,78 c 0,0 -16,0 -16,16 z m 55.25,7.75 c 4.5158,-0.42764 8.91152,3.71688 8.75,8.25 l 32,0 c -0.056,-4.22652 3.77304,-8.11396 8,-8.11396 4.22696,0 8.05972,3.88744 8,8.11396 0,6.66668 -4.59192,12.29596 -8.49996,14.25 C 163.59192,126.20408 160,126 160,126 l -32,0 c 0,0 -3.59192,0.2044 -7.50004,-1.75 C 116.59192,122.29596 112,116.66668 112,110 c -0.0884,-3.66476 2.67284,-7.19884 6.25,-8 0.3268,-0.1048 0.6616,-0.1884 1,-0.2504 z M 64,166 l 0,56 c 0,13.30332 16,16 16,16 l 128,0 c 0,0 16,0 16,-16 l 0,-56 z m 55.25,23.75 c 4.5158,-0.42764 8.91152,3.71688 8.75,8.25 l 32,0 c -0.056,-4.22652 3.77304,-8 8,-8 4.22696,0 8.05972,3.77348 8,8 0,6.66668 -4.59192,12.29596 -8.49996,14.25 C 163.59192,214.20408 160,214 160,214 l -32,0 c 0,0 -3.59192,0.2044 -7.50004,-1.75 C 116.59192,210.29596 112,204.66668 112,198 c -0.0884,-3.66476 2.67284,-7.19884 6.25,-8 0.3268,-0.1048 0.6616,-0.1884 1,-0.2504 z"
         id="path4206"
         inkscape:connector-curvature="0"
         sodipodi:nodetypes="sccsccscccscsccsccccsccscccccscsccsccc" />
    </g>
    <g
       inkscape:groupmode="layer"
       id="layer5"
       inkscape:label="Highlights"
       style="display:inline">
      <rect
         ry="9"
         y="307"
         x="-265"
         height="42"
         width="42"
         id="rect4884"
         style="opacity:0.10000000000000001;color:#bebebe;fill:none;stroke:#000000;stroke-width:2;stroke-miterlimit:4;stroke-opacity:1;stroke-dasharray:none;marker:none;visibility:visible;display:inline;overflow:visible;enable-background:accumulate"
         transform="matrix(0,1,1,0,-15,489)"
         clip-path="url(#clipPath4891)" />
      <rect
         style="opacity:0.1;color:#bebebe;fill:none;stroke:#000000;stroke-width:2;stroke-miterlimit:4;stroke-opacity:1;stroke-dasharray:none;marker:none;visibility:visible;display:inline;overflow:visible;enable-background:accumulate"
         id="rect5311"
         width="16"
         height="16"
         x="-228"
         y="304"
         ry="3"
         clip-path="url(#clipPath3855)"
         transform="matrix(0,-1,1,0,112,-72)" />
      <rect
         ry="50"
         y="46"
         x="34"
         height="220"
         width="220"
         id="rect3858"
         style="opacity:0.1;color:#bebebe;fill:none;stroke:#000000;stroke-width:2;stroke-miterlimit:4;stroke-opacity:1;stroke-dasharray:none;marker:none;visibility:visible;display:inline;overflow:visible;enable-background:accumulate"
         clip-path="url(#clipPath3862)" />
      <rect
         ry="12.5"
         y="142"
         x="290"
         height="60"
         width="60"
         id="rect4175"
         style="opacity:0.1;color:#bebebe;fill:none;stroke:#000000;stroke-width:2;stroke-miterlimit:4;stroke-opacity:1;stroke-dasharray:none;marker:none;visibility:visible;display:inline;overflow:visible;enable-background:accumulate"
         clip-path="url(#clipPath4187)" />
      <rect
         style="opacity:0.10000000000000001;color:#bebebe;fill:none;stroke:#000000;stroke-width:1;stroke-miterlimit:4;stroke-opacity:1;stroke-dasharray:none;marker:none;visibility:visible;display:inline;overflow:visible;enable-background:accumulate"
         id="rect4342"
         width="88"
         height="88"
         x="292"
         y="32"
         ry="18"
         clip-path="url(#clipPath4346)" />
      <rect
         ry="5"
         y="101"
         x="417"
         height="22"
         width="22"
         id="rect3866"
         style="display:inline;enable-background:accumulate;color:#bebebe;fill:none;fill-opacity:1;fill-rule:nonzero;stroke:#000000;stroke-width:2;marker:none;visibility:visible;overflow:visible;stroke-opacity:1;stroke-miterlimit:4;stroke-dasharray:none;opacity:0.10000000000000001"
         clip-path="url(#clipPath3871)" />
      <rect
         style="display:inline;enable-background:accumulate;color:#bebebe;fill:none;fill-opacity:1;fill-rule:nonzero;stroke:#000000;stroke-width:2;marker:none;visibility:visible;overflow:visible;stroke-opacity:1;stroke-miterlimit:4;stroke-dasharray:none;opacity:0.10000000000000001"
         id="rect3877"
         width="30"
         height="30"
         x="417"
         y="53"
         ry="7"
         clip-path="url(#clipPath3881)" />
    </g>
  </g>
</svg>
