<?xml version="1.0" encoding="UTF-8" standalone="no"?>
<!-- Created with Inkscape (http://www.inkscape.org/) -->

<svg
   xmlns:dc="http://purl.org/dc/elements/1.1/"
   xmlns:cc="http://creativecommons.org/ns#"
   xmlns:rdf="http://www.w3.org/1999/02/22-rdf-syntax-ns#"
   xmlns:svg="http://www.w3.org/2000/svg"
   xmlns="http://www.w3.org/2000/svg"
   xmlns:xlink="http://www.w3.org/1999/xlink"
   xmlns:sodipodi="http://sodipodi.sourceforge.net/DTD/sodipodi-0.dtd"
   xmlns:inkscape="http://www.inkscape.org/namespaces/inkscape"
   inkscape:export-ydpi="90.000000"
   inkscape:export-xdpi="90.000000"
   width="480"
   height="300"
   id="svg11300"
   sodipodi:version="0.32"
   inkscape:version="0.48.4 r9939"
   sodipodi:docname="firewall.svg"
   inkscape:output_extension="org.inkscape.output.svg.inkscape"
   version="1.0"
   style="display:inline;enable-background:new"
   inkscape:export-filename="/home/sam/moka2-template.png">
  <sodipodi:namedview
     stroke="#ef2929"
     fill="#f57900"
     id="base"
     pagecolor="#ffffff"
     bordercolor="#666666"
     borderopacity="0.25490196"
     inkscape:pageopacity="0"
     inkscape:pageshadow="2"
     inkscape:zoom="1"
     inkscape:cx="27.466799"
     inkscape:cy="135.6965"
     inkscape:current-layer="layer2"
     showgrid="false"
     inkscape:grid-bbox="true"
     inkscape:document-units="px"
     inkscape:showpageshadow="false"
     inkscape:window-width="1364"
     inkscape:window-height="702"
     inkscape:window-x="0"
     inkscape:window-y="27"
     width="400px"
     height="300px"
     inkscape:snap-nodes="true"
     inkscape:snap-bbox="true"
     gridtolerance="10000"
     inkscape:object-nodes="true"
     inkscape:snap-grids="true"
     showguides="true"
     inkscape:guide-bbox="true"
     inkscape:window-maximized="1"
     inkscape:bbox-nodes="true"
     inkscape:bbox-paths="true"
     inkscape:snap-bbox-edge-midpoints="true"
     inkscape:snap-bbox-midpoints="true">
    <inkscape:grid
       spacingy="1px"
       spacingx="1px"
       id="grid5883"
       type="xygrid"
       enabled="true"
       visible="true"
       empspacing="4"
       snapvisiblegridlinesonly="true"
       dotted="false"
       color="#000000"
       opacity="0.1254902"
       empcolor="#203ef3"
       empopacity="0.36470588" />
    <inkscape:grid
       type="xygrid"
       id="grid11592"
       empspacing="8"
       visible="true"
       enabled="false"
       spacingx="0.5px"
       spacingy="0.5px"
       color="#ff0000"
       opacity="0.1254902"
       empcolor="#ff0000"
       empopacity="0.25098039"
       snapvisiblegridlinesonly="true"
       dotted="true" />
  </sodipodi:namedview>
  <defs
     id="defs3">
    <linearGradient
       id="outerBackgroundGradient">
      <stop
         style="stop-color:#392323;stop-opacity:1;"
         offset="0"
         id="stop3864-8-6" />
      <stop
         style="stop-color:#483838;stop-opacity:1;"
         offset="1"
         id="stop3866-9-1" />
    </linearGradient>
    <linearGradient
       inkscape:collect="always"
       xlink:href="#outerBackgroundGradient"
       id="linearGradient4097"
       gradientUnits="userSpaceOnUse"
       x1="264"
       y1="280.00003"
       x2="264"
       y2="40.00005"
       gradientTransform="matrix(0.06666667,0,0,0.06666667,414.4,137.33333)" />
    <linearGradient
       inkscape:collect="always"
       xlink:href="#outerBackgroundGradient"
       id="linearGradient4101"
       gradientUnits="userSpaceOnUse"
       gradientTransform="matrix(0.0875,0,0,0.0875,414.9,97.5)"
       x1="286.85715"
       y1="302.85715"
       x2="286.85715"
       y2="28.571428" />
    <linearGradient
       inkscape:collect="always"
       xlink:href="#outerBackgroundGradient"
       id="linearGradient4153"
       gradientUnits="userSpaceOnUse"
       gradientTransform="matrix(0.11931818,0,0,0.11931818,414.13636,48.22727)"
       x1="283.80957"
       y1="299.80954"
       x2="283.80957"
       y2="31.61907" />
    <linearGradient
       inkscape:collect="always"
       xlink:href="#outerBackgroundGradient"
       id="linearGradient4869"
       gradientUnits="userSpaceOnUse"
       gradientTransform="matrix(0.175,0,0,-0.175,286.79999,-215.99997)"
       x1="281.14291"
       y1="297.14304"
       x2="281.14291"
       y2="22.857315" />
    <clipPath
       clipPathUnits="userSpaceOnUse"
       id="clipPath4891">
      <rect
         ry="9"
         y="223"
         x="307"
         height="42"
         width="42"
         id="rect4893"
         style="color:#bebebe;fill:url(#linearGradient4895);fill-opacity:1;fill-rule:nonzero;stroke:none;stroke-width:0;marker:none;visibility:visible;display:inline;overflow:visible;enable-background:accumulate"
         transform="matrix(0,1,-1,0,0,0)" />
    </clipPath>
    <linearGradient
       inkscape:collect="always"
       xlink:href="#outerBackgroundGradient"
       id="linearGradient4895"
       gradientUnits="userSpaceOnUse"
       gradientTransform="matrix(0.175,0,0,0.175,302.79999,215.99997)"
       x1="144.00006"
       y1="280.00018"
       x2="144.00006"
       y2="40.000172" />
    <clipPath
       clipPathUnits="userSpaceOnUse"
       id="clipPath4044">
      <rect
         ry="4"
         y="85"
         x="433"
         height="22"
         width="22"
         id="rect4046"
         style="color:#bebebe;fill:url(#linearGradient4048);fill-opacity:1;fill-rule:nonzero;stroke:none;stroke-width:0;marker:none;visibility:visible;display:inline;overflow:visible;enable-background:accumulate" />
    </clipPath>
    <linearGradient
       inkscape:collect="always"
       xlink:href="#outerBackgroundGradient"
       id="linearGradient4048"
       gradientUnits="userSpaceOnUse"
       gradientTransform="matrix(0.0875,0,0,0.0875,430.9,81.499996)"
       x1="149.71428"
       y1="291.42862"
       x2="149.71428"
       y2="40.000046" />
    <clipPath
       clipPathUnits="userSpaceOnUse"
       id="clipPath4089">
      <rect
         style="color:#bebebe;fill:url(#linearGradient4093);fill-opacity:1;fill-rule:nonzero;stroke:none;stroke-width:0;marker:none;visibility:visible;display:inline;overflow:visible;enable-background:accumulate"
         id="rect4091"
         width="30"
         height="30"
         x="433"
         y="37"
         ry="6" />
    </clipPath>
    <linearGradient
       inkscape:collect="always"
       xlink:href="#outerBackgroundGradient"
       id="linearGradient4093"
       gradientUnits="userSpaceOnUse"
       gradientTransform="matrix(0.11931818,0,0,0.11931818,430.13636,32.227267)"
       x1="149.71432"
       y1="291.42862"
       x2="149.71432"
       y2="40.00005" />
    <clipPath
       clipPathUnits="userSpaceOnUse"
       id="clipPath3855">
      <rect
         style="color:#bebebe;fill:url(#linearGradient3859);fill-opacity:1;fill-rule:nonzero;stroke:none;stroke-width:0;marker:none;visibility:visible;display:inline;overflow:visible;enable-background:accumulate"
         id="rect3857"
         width="16"
         height="16"
         x="304"
         y="212"
         ry="3"
         transform="matrix(0,1,-1,0,0,0)" />
    </clipPath>
    <linearGradient
       inkscape:collect="always"
       xlink:href="#outerBackgroundGradient"
       id="linearGradient3859"
       gradientUnits="userSpaceOnUse"
       gradientTransform="matrix(0.06666667,0,0,0.06666667,302.4,209.33333)"
       x1="144"
       y1="280.00003"
       x2="144"
       y2="40.00005" />
    <clipPath
       clipPathUnits="userSpaceOnUse"
       id="clipPath3862">
      <rect
         ry="50"
         y="46"
         x="34"
         height="220"
         width="220"
         id="rect3864"
         style="color:#bebebe;fill:url(#linearGradient3866);fill-opacity:1;fill-rule:nonzero;stroke:none;stroke-width:0;marker:none;visibility:visible;display:inline;overflow:visible;enable-background:accumulate" />
    </clipPath>
    <linearGradient
       inkscape:collect="always"
       xlink:href="#outerBackgroundGradient"
       id="linearGradient3866"
       gradientUnits="userSpaceOnUse"
       gradientTransform="translate(0,-4)"
       x1="144"
       y1="280"
       x2="144"
       y2="40" />
    <linearGradient
       inkscape:collect="always"
       xlink:href="#outerBackgroundGradient"
       id="linearGradient3876"
       gradientUnits="userSpaceOnUse"
       gradientTransform="translate(0,-4)"
       x1="272"
       y1="288"
       x2="272"
       y2="32" />
    <clipPath
       clipPathUnits="userSpaceOnUse"
       id="clipPath4187">
      <rect
         ry="12.5"
         y="142"
         x="290"
         height="60"
         width="60"
         id="rect4189"
         style="color:#bebebe;fill:url(#linearGradient4191);fill-opacity:1;fill-rule:nonzero;stroke:none;stroke-width:0;marker:none;visibility:visible;display:inline;overflow:visible;enable-background:accumulate" />
    </clipPath>
    <linearGradient
       inkscape:collect="always"
       xlink:href="#outerBackgroundGradient"
       id="linearGradient4191"
       gradientUnits="userSpaceOnUse"
       x1="352"
       y1="204"
       x2="352"
       y2="140" />
    <linearGradient
       inkscape:collect="always"
       xlink:href="#outerBackgroundGradient"
       id="linearGradient4197"
       gradientUnits="userSpaceOnUse"
       x1="384"
       y1="124"
       x2="384"
       y2="28" />
    <linearGradient
       inkscape:collect="always"
       xlink:href="#outerBackgroundGradient"
       id="linearGradient4199"
       gradientUnits="userSpaceOnUse"
       x1="352"
       y1="204"
       x2="352"
       y2="140" />
    <clipPath
       clipPathUnits="userSpaceOnUse"
       id="clipPath4346">
      <rect
         style="color:#bebebe;fill:url(#linearGradient4350);fill-opacity:1;fill-rule:nonzero;stroke:none;stroke-width:0;marker:none;visibility:visible;display:inline;overflow:visible;enable-background:accumulate"
         id="rect4348"
         width="88"
         height="88"
         x="292"
         y="32"
         ry="18" />
    </clipPath>
    <linearGradient
       inkscape:collect="always"
       xlink:href="#outerBackgroundGradient"
       id="linearGradient4350"
       gradientUnits="userSpaceOnUse"
       x1="384"
       y1="124"
       x2="384"
       y2="28" />
    <clipPath
       clipPathUnits="userSpaceOnUse"
       id="clipPath3871">
      <rect
         ry="5"
         y="101"
         x="417"
         height="22"
         width="22"
         id="rect3873"
         style="color:#bebebe;fill:url(#linearGradient3875);fill-opacity:1;fill-rule:nonzero;stroke:none;stroke-width:0;marker:none;visibility:visible;display:inline;overflow:visible;enable-background:accumulate" />
    </clipPath>
    <linearGradient
       inkscape:collect="always"
       xlink:href="#outerBackgroundGradient"
       id="linearGradient3875"
       gradientUnits="userSpaceOnUse"
       gradientTransform="matrix(0.0875,0,0,0.0875,414.9,97.5)"
       x1="286.85715"
       y1="302.85715"
       x2="286.85715"
       y2="28.571428" />
    <clipPath
       clipPathUnits="userSpaceOnUse"
       id="clipPath3881">
      <rect
         style="color:#bebebe;fill:url(#linearGradient3885);fill-opacity:1;fill-rule:nonzero;stroke:none;stroke-width:0;marker:none;visibility:visible;display:inline;overflow:visible;enable-background:accumulate"
         id="rect3883"
         width="30"
         height="30"
         x="417"
         y="53"
         ry="7" />
    </clipPath>
    <linearGradient
       inkscape:collect="always"
       xlink:href="#outerBackgroundGradient"
       id="linearGradient3885"
       gradientUnits="userSpaceOnUse"
       gradientTransform="matrix(0.11931818,0,0,0.11931818,414.13636,48.22727)"
       x1="283.80957"
       y1="299.80954"
       x2="283.80957"
       y2="31.61907" />
    <clipPath
       clipPathUnits="userSpaceOnUse"
       id="clipPath4059">
      <path
         inkscape:connector-curvature="0"
         style="fill:url(#linearGradient4063);fill-opacity:1;fill-rule:evenodd;stroke:none;display:inline;enable-background:new"
         d="m 354.86109,118 c -1.8996,-12.45313 -13.15124,-10.92696 -20.45752,-20.554999 -4.49745,-5.081917 -6.90039,-18.152021 2.43544,-27.37416 -1.1041,9.579323 0.17861,13.6059 5.45531,17.924775 -2.35422,-4.952062 -3.08439,-11.995623 -0.82801,-16.853182 2.76375,-5.949983 10.39112,-12.87528 10.52102,-19.142434 4.36202,2.178866 7.92821,8.352919 5.94243,14.368984 -3.85543,11.680556 0.10189,12.135543 1.94832,13.248716 -0.37991,-7.072519 1.0237,-8.206151 2.38673,-10.423628 1.02898,7.51113 12.13245,12.469545 11.25168,21.870132 -0.54446,5.811093 -5.52033,11.186756 -9.69301,14.563846 0.37909,-7.615119 0.0767,-8.633953 -7.11146,-14.612521 -2.75975,-2.295398 -3.9291,-3.912975 -5.30916,-6.867919 -0.85908,2.610094 -2.43714,6.487429 3.26799,14.45466 5.21391,7.28145 0.61392,16.7798 0.19057,19.39773 z"
         id="path4061"
         sodipodi:nodetypes="ccccscsccscscsc" />
    </clipPath>
    <clipPath
       clipPathUnits="userSpaceOnUse"
       id="clipPath3319">
      <path
         inkscape:connector-curvature="0"
         style="fill:url(#linearGradient4063);fill-opacity:1;fill-rule:evenodd;stroke:none;display:inline;enable-background:new"
         d="m 354.86109,118 c -1.8996,-12.45313 -13.15124,-10.92696 -20.45752,-20.554999 -4.49745,-5.081917 -6.90039,-18.152021 2.43544,-27.37416 -1.1041,9.579323 0.17861,13.6059 5.45531,17.924775 -2.35422,-4.952062 -3.08439,-11.995623 -0.82801,-16.853182 2.76375,-5.949983 10.39112,-12.87528 10.52102,-19.142434 4.36202,2.178866 7.92821,8.352919 5.94243,14.368984 -3.85543,11.680556 0.10189,12.135543 1.94832,13.248716 -0.37991,-7.072519 1.0237,-8.206151 2.38673,-10.423628 1.02898,7.51113 12.13245,12.469545 11.25168,21.870132 -0.54446,5.811093 -5.52033,11.186756 -9.69301,14.563846 0.37909,-7.615119 0.0767,-8.633953 -7.11146,-14.612521 -2.75975,-2.295398 -3.9291,-3.912975 -5.30916,-6.867919 -0.85908,2.610094 -2.43714,6.487429 3.26799,14.45466 5.21391,7.28145 0.61392,16.7798 0.19057,19.39773 z"
         id="path3321"
         sodipodi:nodetypes="ccccscsccscscsc" />
    </clipPath>
    <linearGradient
       inkscape:collect="always"
       xlink:href="#linearGradient4041"
       id="linearGradient4145"
       gradientUnits="userSpaceOnUse"
       x1="344"
       y1="48"
       x2="360"
       y2="120"
       gradientTransform="matrix(0.48484848,0,0,0.48484848,157.33334,210.78788)" />
    <linearGradient
       id="linearGradient4041">
      <stop
         style="stop-color:#ff6b00;stop-opacity:1;"
         offset="0"
         id="stop4043" />
      <stop
         style="stop-color:#ffee00;stop-opacity:1;"
         offset="1"
         id="stop4045" />
    </linearGradient>
    <linearGradient
       y2="120"
       x2="360"
       y1="48"
       x1="344"
       gradientTransform="matrix(0.48484848,0,0,0.48484848,141.33334,202.78788)"
       gradientUnits="userSpaceOnUse"
       id="linearGradient3332"
       xlink:href="#linearGradient4041"
       inkscape:collect="always" />
    <linearGradient
       inkscape:collect="always"
       xlink:href="#linearGradient4041"
       id="linearGradient3871"
       gradientUnits="userSpaceOnUse"
       gradientTransform="matrix(0.48484848,0,0,0.48484848,141.33334,202.78788)"
       x1="401.5"
       y1="134.5"
       x2="401.5"
       y2="35.499996" />
    <linearGradient
       inkscape:collect="always"
       xlink:href="#linearGradient4041"
       id="linearGradient3879"
       gradientUnits="userSpaceOnUse"
       gradientTransform="matrix(0.66666666,0,0,0.66666666,85.333336,115.33334)"
       x1="401.5"
       y1="134.5"
       x2="401.5"
       y2="35.499996" />
    <linearGradient
       inkscape:collect="always"
       xlink:href="#linearGradient4041"
       id="linearGradient3883"
       gradientUnits="userSpaceOnUse"
       gradientTransform="translate(-15.999999,-8.99999)"
       x1="401.5"
       y1="134.5"
       x2="401.5"
       y2="35.499996" />
    <linearGradient
       inkscape:collect="always"
       xlink:href="#linearGradient4041"
       id="linearGradient3887"
       gradientUnits="userSpaceOnUse"
       gradientTransform="matrix(2.2727272,0,0,2.2727273,-655.99999,-37.181796)"
       x1="401.5"
       y1="134.5"
       x2="401.5"
       y2="35.499996" />
    <linearGradient
       inkscape:collect="always"
       xlink:href="#linearGradient4041"
       id="linearGradient3891"
       gradientUnits="userSpaceOnUse"
       gradientTransform="matrix(0.33333333,0,0,0.33333333,314.66667,39.66667)"
       x1="401.5"
       y1="134.5"
       x2="401.5"
       y2="35.499996" />
    <linearGradient
       inkscape:collect="always"
       xlink:href="#linearGradient4041"
       id="linearGradient3895"
       gradientUnits="userSpaceOnUse"
       gradientTransform="matrix(0.24242424,0,0,0.24242424,342.66667,91.393942)"
       x1="401.5"
       y1="134.5"
       x2="401.5"
       y2="35.499996" />
    <linearGradient
       inkscape:collect="always"
       xlink:href="#linearGradient4041"
       id="linearGradient3899"
       gradientUnits="userSpaceOnUse"
       gradientTransform="matrix(0.21212121,0,0,0.21212121,349.33333,129.9697)"
       x1="401.5"
       y1="134.5"
       x2="401.5"
       y2="35.499996" />
  </defs>
  <metadata
     id="metadata4">
    <rdf:RDF>
      <cc:Work
         rdf:about="">
        <dc:format>image/svg+xml</dc:format>
        <dc:type
           rdf:resource="http://purl.org/dc/dcmitype/StillImage" />
        <dc:creator>
          <cc:Agent>
            <dc:title>Sam Hewitt</dc:title>
          </cc:Agent>
        </dc:creator>
        <dc:source />
        <cc:license
           rdf:resource="" />
        <dc:title />
        <dc:subject>
          <rdf:Bag />
        </dc:subject>
        <dc:date />
        <dc:rights>
          <cc:Agent>
            <dc:title />
          </cc:Agent>
        </dc:rights>
        <dc:publisher>
          <cc:Agent>
            <dc:title />
          </cc:Agent>
        </dc:publisher>
        <dc:identifier />
        <dc:relation />
        <dc:language />
        <dc:coverage />
        <dc:description />
        <dc:contributor>
          <cc:Agent>
            <dc:title />
          </cc:Agent>
        </dc:contributor>
      </cc:Work>
      <cc:Work
         rdf:about="">
        <dc:format>image/svg+xml</dc:format>
        <dc:type
           rdf:resource="http://purl.org/dc/dcmitype/StillImage" />
      </cc:Work>
    </rdf:RDF>
  </metadata>
  <g
     style="display:inline"
     inkscape:groupmode="layer"
     inkscape:label="Icon"
     id="layer1">
    <g
       style="display:none"
       inkscape:label="Baseplate"
       id="layer7"
       inkscape:groupmode="layer">
      <text
         y="19.745117"
         xml:space="preserve"
         x="15.006836"
         style="font-size:18px;font-style:normal;font-variant:normal;font-weight:normal;font-stretch:normal;fill:#000000;fill-opacity:1;stroke:none;display:inline;enable-background:new;font-family:DejaVu Sans;-inkscape-font-specification:DejaVu Sans"
         inkscape:label="context"
         id="context"><tspan
           style="font-style:normal;font-variant:normal;font-weight:normal;font-stretch:normal;font-family:DejaVu Sans;-inkscape-font-specification:DejaVu Sans"
           y="19.745117"
           x="15.006836"
           sodipodi:role="line"
           id="tspan3933">apps</tspan></text>
      <text
         y="19.745117"
         xml:space="preserve"
         x="122.48828"
         style="font-size:18px;font-style:normal;font-variant:normal;font-weight:bold;font-stretch:normal;text-align:start;line-height:125%;writing-mode:lr-tb;text-anchor:start;fill:#000000;fill-opacity:1;stroke:none;display:inline;enable-background:new;font-family:DejaVu Sans;-inkscape-font-specification:DejaVu Sans Bold"
         sodipodi:linespacing="125%"
         inkscape:label="icon-name"
         id="icon-name"><tspan
           style="font-size:18px;font-style:normal;font-variant:normal;font-weight:bold;font-stretch:normal;font-family:DejaVu Sans;-inkscape-font-specification:DejaVu Sans Bold"
           y="19.745117"
           x="122.48828"
           sodipodi:role="line"
           id="tspan3937">firewall</tspan></text>
      <rect
         style="fill:#eeeeec;fill-opacity:1;fill-rule:nonzero;stroke:none;stroke-width:2;marker:none;visibility:visible;display:inline;overflow:visible;enable-background:accumulate"
         id="rect16x16"
         width="16"
         height="16"
         x="416"
         y="140"
         inkscape:label="16x16" />
      <rect
         style="fill:#d4d4d4;fill-opacity:1;fill-rule:nonzero;stroke:none;stroke-width:2;marker:none;visibility:visible;display:inline;overflow:visible;enable-background:accumulate"
         id="rect24x24"
         width="24"
         height="24"
         x="416"
         y="100"
         inkscape:label="24x24" />
      <rect
         style="fill:#eeeeec;fill-opacity:1;fill-rule:nonzero;stroke:none;stroke-width:2;marker:none;visibility:visible;display:inline;overflow:visible;enable-background:accumulate"
         id="rect32x32"
         width="32"
         height="32"
         x="416"
         y="52"
         inkscape:label="32x32" />
      <rect
         inkscape:label="22x22"
         y="101"
         x="417"
         height="22"
         width="22"
         id="rect22x22"
         style="fill:#eeeeec;fill-opacity:1;fill-rule:nonzero;stroke:none;stroke-width:2;marker:none;visibility:visible;display:inline;overflow:visible;enable-background:accumulate" />
      <rect
         inkscape:label="48x48"
         y="220"
         x="288"
         height="48"
         width="48"
         id="rect48x48"
         style="fill:#eeeeec;fill-opacity:1;fill-rule:nonzero;stroke:none;stroke-width:2;marker:none;visibility:visible;display:inline;overflow:visible;enable-background:accumulate" />
      <rect
         style="fill:#eeeeec;fill-opacity:1;fill-rule:nonzero;stroke:none;stroke-width:2;marker:none;visibility:visible;display:inline;overflow:visible;enable-background:accumulate"
         id="rect256x256"
         width="256"
         height="256"
         x="16"
         y="28"
         inkscape:label="256x256" />
      <rect
         style="fill:#eeeeec;fill-opacity:1;fill-rule:nonzero;stroke:none;stroke-width:2;marker:none;visibility:visible;display:inline;overflow:visible;enable-background:accumulate"
         id="rect64x64"
         width="64"
         height="64"
         x="288"
         y="140"
         inkscape:label="64x64" />
      <rect
         style="fill:#eeeeec;fill-opacity:1;fill-rule:nonzero;stroke:none;stroke-width:2;marker:none;visibility:visible;display:inline;overflow:visible;enable-background:accumulate"
         id="rect96x96"
         width="96"
         height="96"
         x="288"
         y="28"
         inkscape:label="96x96" />
    </g>
    <g
       inkscape:groupmode="layer"
       id="layer4"
       inkscape:label="Shadow"
       style="display:inline"
       sodipodi:insensitive="true">
      <rect
         style="opacity:0.1;color:#bebebe;fill:#000000;fill-opacity:1;stroke:#000000;stroke-width:1;stroke-miterlimit:4;stroke-opacity:1;stroke-dasharray:none;marker:none;visibility:visible;display:inline;overflow:visible;enable-background:accumulate"
         id="rect4156"
         width="42"
         height="42"
         x="-266.5"
         y="291"
         ry="9"
         transform="matrix(0,-1,1,0,0,0)" />
      <rect
         transform="matrix(0,-1,1,0,0,0)"
         ry="9"
         y="291"
         x="-266.5"
         height="42"
         width="40"
         id="rect4183"
         style="opacity:0.3;color:#bebebe;fill:#000000;fill-opacity:1;stroke:none;stroke-width:1;marker:none;visibility:visible;display:inline;overflow:visible;enable-background:accumulate" />
      <rect
         ry="9"
         y="237"
         x="291"
         height="29"
         width="42"
         id="rect4144"
         style="opacity:0.3;color:#bebebe;fill:#000000;fill-opacity:1;fill-rule:nonzero;stroke:none;stroke-width:0;marker:none;visibility:visible;display:inline;overflow:visible;enable-background:accumulate" />
      <rect
         style="opacity:0.05;color:#bebebe;fill:#000000;fill-opacity:1;fill-rule:nonzero;stroke:#000000;stroke-width:1;stroke-miterlimit:4;stroke-opacity:1;stroke-dasharray:none;marker:none;visibility:visible;display:inline;overflow:visible;enable-background:accumulate"
         id="rect4340"
         width="88"
         height="88"
         x="292"
         y="33.5"
         ry="18" />
      <rect
         ry="18"
         y="52.5"
         x="292"
         height="69"
         width="88"
         id="rect4338"
         style="opacity:0.3;color:#bebebe;fill:#000000;fill-opacity:1;fill-rule:nonzero;stroke:none;stroke-width:0;marker:none;visibility:visible;display:inline;overflow:visible;enable-background:accumulate" />
      <rect
         style="opacity:0.3;color:#bebebe;fill:#000000;fill-opacity:1;fill-rule:nonzero;stroke:none;stroke-width:0;marker:none;visibility:visible;display:inline;overflow:visible;enable-background:accumulate"
         id="rect4335"
         width="88"
         height="76.5"
         x="292"
         y="44.5"
         ry="18" />
      <rect
         style="opacity:0.05;color:#bebebe;fill:#000000;fill-opacity:1;fill-rule:nonzero;stroke:#000000;stroke-width:1;stroke-miterlimit:4;stroke-opacity:1;stroke-dasharray:none;marker:none;visibility:visible;display:inline;overflow:visible;enable-background:accumulate"
         id="rect4214"
         width="60"
         height="60"
         x="290"
         y="143.5"
         ry="12.5" />
      <rect
         ry="12.5"
         y="151.5"
         x="290"
         height="52"
         width="60"
         id="rect4206"
         style="opacity:0.3;color:#bebebe;fill:#000000;fill-opacity:1;fill-rule:nonzero;stroke:none;stroke-width:0;marker:none;visibility:visible;display:inline;overflow:visible;enable-background:accumulate" />
      <rect
         style="opacity:0.3;color:#bebebe;fill:#000000;fill-opacity:1;fill-rule:nonzero;stroke:none;stroke-width:0;marker:none;visibility:visible;display:inline;overflow:visible;enable-background:accumulate"
         id="rect4212"
         width="60"
         height="54.5"
         x="290"
         y="148.5"
         ry="12.5" />
      <rect
         style="opacity:0.5;color:#bebebe;fill:#000000;fill-opacity:1;fill-rule:nonzero;stroke:none;stroke-width:0;marker:none;visibility:visible;display:inline;overflow:visible;enable-background:accumulate"
         id="rect4058"
         width="30"
         height="30"
         x="417"
         y="54"
         ry="7" />
      <rect
         ry="50"
         y="48"
         x="34"
         height="220"
         width="220"
         id="rect3872"
         style="opacity:0.05;color:#bebebe;fill:#000000;fill-opacity:1;fill-rule:nonzero;stroke:#000000;stroke-width:2;stroke-miterlimit:4;stroke-opacity:1;stroke-dasharray:none;marker:none;visibility:visible;display:inline;overflow:visible;enable-background:accumulate" />
      <rect
         style="opacity:0.3;color:#bebebe;fill:#000000;fill-opacity:1;fill-rule:nonzero;stroke:none;stroke-width:0;marker:none;visibility:visible;display:inline;overflow:visible;enable-background:accumulate"
         id="rect3870"
         width="220"
         height="220"
         x="34"
         y="48"
         ry="50" />
      <rect
         ry="50"
         y="47"
         x="34"
         height="220"
         width="220"
         id="rect3868"
         style="opacity:0.3;color:#bebebe;fill:#000000;fill-opacity:1;fill-rule:nonzero;stroke:none;stroke-width:0;marker:none;visibility:visible;display:inline;overflow:visible;enable-background:accumulate" />
    </g>
    <g
       inkscape:groupmode="layer"
       id="layer2"
       inkscape:label="Background"
       style="display:inline">
      <rect
         style="color:#bebebe;fill:url(#linearGradient3876);fill-opacity:1;fill-rule:nonzero;stroke:none;stroke-width:0;marker:none;visibility:visible;display:inline;overflow:visible;enable-background:accumulate"
         id="rect4040"
         width="220"
         height="220"
         x="34"
         y="46"
         ry="50" />
      <rect
         ry="3"
         y="140"
         x="416"
         height="16"
         width="16"
         id="rect4095"
         style="color:#bebebe;fill:url(#linearGradient4097);fill-opacity:1;fill-rule:nonzero;stroke:none;stroke-width:0;marker:none;visibility:visible;display:inline;overflow:visible;enable-background:accumulate" />
      <rect
         style="color:#bebebe;fill:url(#linearGradient4101);fill-opacity:1;fill-rule:nonzero;stroke:none;stroke-width:0;marker:none;visibility:visible;display:inline;overflow:visible;enable-background:accumulate"
         id="rect4099"
         width="22"
         height="22"
         x="417"
         y="101"
         ry="5" />
      <rect
         ry="7"
         y="53"
         x="417"
         height="30"
         width="30"
         id="rect4151"
         style="color:#bebebe;fill:url(#linearGradient4153);fill-opacity:1;fill-rule:nonzero;stroke:none;stroke-width:0;marker:none;visibility:visible;display:inline;overflow:visible;enable-background:accumulate" />
      <rect
         style="color:#bebebe;fill:url(#linearGradient4869);fill-opacity:1;fill-rule:nonzero;stroke:none;stroke-width:0;marker:none;visibility:visible;display:inline;overflow:visible;enable-background:accumulate"
         id="rect4783"
         width="42"
         height="42"
         x="291"
         y="-265"
         ry="9"
         transform="scale(1,-1)" />
      <rect
         ry="18"
         y="32"
         x="292"
         height="88"
         width="88"
         id="rect4511"
         style="color:#bebebe;fill:url(#linearGradient4197);fill-opacity:1;fill-rule:nonzero;stroke:none;stroke-width:0;marker:none;visibility:visible;display:inline;overflow:visible;enable-background:accumulate" />
      <rect
         style="color:#bebebe;fill:url(#linearGradient4199);fill-opacity:1;fill-rule:nonzero;stroke:none;stroke-width:0;marker:none;visibility:visible;display:inline;overflow:visible;enable-background:accumulate"
         id="rect4515"
         width="60"
         height="60"
         x="290"
         y="142"
         ry="12.5" />
    </g>
    <g
       inkscape:groupmode="layer"
       id="layer6"
       inkscape:label="Symbols"
       style="display:inline">
      <path
         inkscape:connector-curvature="0"
         style="display:inline;enable-background:new;fill:url(#linearGradient3871);fill-opacity:1;fill-rule:evenodd;stroke:#ffffff;stroke-opacity:1;opacity:0.05"
         d="m 313.3872,260 c -0.92102,-6.03788 -6.37636,-5.29792 -9.9188,-9.96606 -2.18058,-2.46396 -3.34564,-8.80098 1.18082,-13.27232 -0.53532,4.64452 0.0866,6.5968 2.645,8.6908 -1.14144,-2.401 -1.49546,-5.81606 -0.40146,-8.17124 1.34,-2.88484 5.03812,-6.24256 5.1011,-9.28118 2.11492,1.05642 3.84398,4.0499 2.88118,6.96678 -1.8693,5.6633 0.0494,5.8839 0.94464,6.42362 -0.1842,-3.4291 0.49634,-3.97874 1.1572,-5.05388 0.4989,3.64176 5.8824,6.04584 5.45536,10.6037 -0.26398,2.8175 -2.67652,5.42388 -4.69964,7.06126 0.1838,-3.69218 0.0372,-4.18616 -3.44798,-7.08486 -1.33806,-1.11292 -1.90502,-1.8972 -2.57414,-3.3299 -0.41652,1.2655 -1.18164,3.14542 1.58448,7.00832 2.52796,3.5304 0.29766,8.13566 0.0924,9.40496 z"
         id="path3901"
         sodipodi:nodetypes="ccccscsccscscsc" />
      <path
         sodipodi:nodetypes="ccccscsccscscsc"
         id="path3903"
         d="m 321.9074,194 c -1.26641,-8.30208 -8.7675,-7.28464 -13.63835,-13.70333 -2.9983,-3.38795 -4.60026,-12.10135 1.62362,-18.24944 -0.73606,6.38621 0.11908,9.0706 3.63688,11.94985 -1.56948,-3.30138 -2.05626,-7.99708 -0.55201,-11.23546 1.8425,-3.96665 6.92742,-8.58352 7.01401,-12.76162 2.90802,1.45258 5.28548,5.56861 3.96163,9.57932 -2.57029,7.78704 0.0679,8.09037 1.29888,8.83248 -0.25328,-4.71501 0.68246,-5.47077 1.59115,-6.94909 0.68598,5.00742 8.0883,8.31303 7.50112,14.58009 -0.36298,3.87406 -3.68022,7.45784 -6.46201,9.70923 0.25273,-5.07674 0.0512,-5.75597 -4.74097,-9.74168 -1.83983,-1.53026 -2.6194,-2.60865 -3.53944,-4.57861 -0.57272,1.74006 -1.62476,4.32495 2.17866,9.63644 3.47594,4.8543 0.40928,11.18653 0.12705,12.93182 z"
         style="fill:url(#linearGradient3879);fill-opacity:1;fill-rule:evenodd;stroke:#ffffff;display:inline;enable-background:new;stroke-opacity:1;opacity:0.05"
         inkscape:connector-curvature="0" />
      <path
         inkscape:connector-curvature="0"
         style="fill:url(#linearGradient3883);fill-opacity:1;fill-rule:evenodd;stroke:#ffffff;display:inline;enable-background:new;stroke-opacity:1;opacity:0.05"
         d="m 338.86109,109 c -1.89961,-12.45312 -13.15125,-10.92696 -20.45752,-20.555 -4.49745,-5.08192 -6.90039,-18.15202 2.43543,-27.37416 -1.10409,9.57932 0.17862,13.6059 5.45532,17.92478 C 323.9401,74.04355 323.20993,67 325.4663,62.14243 328.23005,56.19245 335.85743,49.26715 335.98732,43 c 4.36203,2.17887 7.92822,8.35291 5.94244,14.36898 -3.85543,11.68056 0.10185,12.13555 1.94832,13.24872 -0.37992,-7.07252 1.02369,-8.20616 2.38673,-10.42364 1.02897,7.51113 12.13245,12.46955 11.25168,21.87014 -0.54447,5.81109 -5.52033,11.18676 -9.69302,14.56384 0.3791,-7.61511 0.0768,-8.63395 -7.11145,-14.61252 -2.75975,-2.29539 -3.9291,-3.91297 -5.30916,-6.86791 -0.85908,2.61009 -2.43714,6.48742 3.26799,14.45466 5.21391,7.28145 0.61392,16.77979 0.19057,19.39773 z"
         id="path3905"
         sodipodi:nodetypes="ccccscsccscscsc" />
      <path
         sodipodi:nodetypes="ccccscsccscscsc"
         id="path3907"
         d="m 150.50248,231 c -4.31729,-28.30255 -29.8892,-24.834 -46.49436,-46.7159 -10.221473,-11.54982 -15.682705,-41.2546 5.53507,-62.21401 -2.50929,21.77119 0.40596,30.92251 12.39846,40.73814 -5.3505,-11.2547 -7.00999,-27.26278 -1.88187,-38.30271 6.28125,-13.52268 23.6162,-29.261997 23.91141,-43.50552 9.91371,4.951977 18.01868,18.983886 13.50554,32.65677 -8.76233,26.54673 0.23149,27.5808 4.428,30.11073 -0.86345,-16.0739 2.32658,-18.65037 5.42439,-23.69009 2.33857,17.07075 27.57375,28.33989 25.572,49.70487 -1.23743,13.20702 -12.5462,25.42445 -22.02959,33.09963 0.86159,-17.30706 0.17455,-19.62261 -16.16238,-33.21028 -6.27217,-5.21678 -8.92978,-8.8931 -12.06628,-15.60888 -1.95245,5.93203 -5.53895,14.74413 7.42725,32.8515 11.8498,16.54875 1.39528,38.13588 0.43311,44.08575 z"
         style="fill:url(#linearGradient3887);fill-opacity:1;fill-rule:evenodd;stroke:#ffffff;display:inline;enable-background:new;stroke-opacity:1;opacity:0.05"
         inkscape:connector-curvature="0" />
      <path
         sodipodi:nodetypes="ccccscsccscscsc"
         id="path3909"
         d="m 432.9537,79 c -0.6332,-4.151037 -4.38375,-3.64232 -6.81917,-6.851669 -1.49915,-1.693967 -2.30014,-6.050671 0.81181,-9.124718 -0.36803,3.193107 0.0595,4.5353 1.81844,5.974927 -0.78474,-1.65069 -1.02814,-3.99854 -0.27601,-5.61773 0.92125,-1.983327 3.46371,-4.29176 3.50701,-6.38081 1.45401,0.72629 2.64274,2.784304 1.98081,4.78966 -1.28514,3.89352 0.034,4.045184 0.64944,4.41624 -0.12664,-2.357507 0.34123,-2.735386 0.79558,-3.474547 0.34299,2.50371 4.04415,4.156517 3.75056,7.290051 -0.18149,1.937023 -1.84012,3.728912 -3.23101,4.854608 0.12637,-2.538371 0.0256,-2.877985 -2.37048,-4.870844 -0.91992,-0.765127 -1.3097,-1.304318 -1.76972,-2.289298 -0.28637,0.87003 -0.81239,2.162468 1.08933,4.81822 1.73796,2.42715 0.20464,5.593258 0.0635,6.46591 z"
         style="fill:url(#linearGradient3891);fill-opacity:1;fill-rule:evenodd;stroke:#ffffff;display:inline;enable-background:new;stroke-opacity:1;opacity:0.05"
         inkscape:connector-curvature="0" />
      <path
         inkscape:connector-curvature="0"
         style="fill:url(#linearGradient3895);fill-opacity:1;fill-rule:evenodd;stroke:#ffffff;display:inline;enable-background:new;stroke-opacity:1;opacity:0.05"
         d="m 428.6936,120 c -0.46051,-3.01894 -3.18818,-2.64896 -4.9594,-4.98303 -1.09029,-1.23198 -1.67283,-4.40049 0.59041,-6.63616 -0.26766,2.32226 0.0433,3.2984 1.3225,4.3454 -0.57072,-1.2005 -0.74774,-2.90803 -0.20073,-4.08562 0.67,-1.44242 2.51906,-3.12128 2.55055,-4.64059 1.05746,0.52821 1.92199,2.02495 1.44059,3.48339 -0.93465,2.83165 0.0247,2.94195 0.47232,3.21181 -0.0921,-1.71455 0.24816,-1.98937 0.5786,-2.52694 0.24945,1.82088 2.9412,3.02292 2.72768,5.30185 -0.13199,1.40875 -1.33827,2.71194 -2.34982,3.53063 0.0919,-1.84609 0.0186,-2.09308 -1.72399,-3.54244 -0.66903,-0.55645 -0.95251,-0.94859 -1.28707,-1.66494 -0.20827,0.63275 -0.59083,1.5727 0.79224,3.50416 1.26397,1.7652 0.14883,4.06782 0.0462,4.70248 z"
         id="path3911"
         sodipodi:nodetypes="ccccscsccscscsc" />
      <path
         sodipodi:nodetypes="ccccscsccscscsc"
         id="path3913"
         d="m 424.6069,155 c -0.40295,-2.64157 -2.78966,-2.31784 -4.33948,-4.36015 -0.954,-1.07798 -1.46372,-3.85043 0.51661,-5.80664 -0.2342,2.03198 0.0379,2.8861 1.15719,3.80222 -0.49938,-1.05043 -0.65427,-2.54452 -0.17564,-3.57491 0.58625,-1.26212 2.20418,-2.73112 2.23173,-4.06052 0.92528,0.46218 1.68174,1.77183 1.26052,3.04797 -0.81782,2.47769 0.0216,2.5742 0.41328,2.81033 -0.0806,-1.50023 0.21714,-1.7407 0.50627,-2.21107 0.21827,1.59327 2.57355,2.64505 2.38672,4.63912 -0.11549,1.23265 -1.17098,2.37294 -2.05609,3.0893 0.0804,-1.61533 0.0163,-1.83145 -1.50849,-3.09964 -0.5854,-0.48689 -0.83345,-0.83001 -1.12619,-1.45682 -0.18223,0.55366 -0.51697,1.37611 0.69321,3.06614 1.10598,1.54455 0.13023,3.55934 0.0404,4.11467 z"
         style="fill:url(#linearGradient3899);fill-opacity:1;fill-rule:evenodd;stroke:#ffffff;display:inline;enable-background:new;stroke-opacity:1;opacity:0.05"
         inkscape:connector-curvature="0" />
      <path
         sodipodi:nodetypes="ccccscsccscscsc"
         id="path4084"
         d="m 313.3872,260 c -0.92102,-6.03788 -6.37636,-5.29792 -9.9188,-9.96606 -2.18058,-2.46396 -3.34564,-8.80098 1.18082,-13.27232 -0.53532,4.64452 0.0866,6.5968 2.645,8.6908 -1.14144,-2.401 -1.49546,-5.81606 -0.40146,-8.17124 1.34,-2.88484 5.03812,-6.24256 5.1011,-9.28118 2.11492,1.05642 3.84398,4.0499 2.88118,6.96678 -1.8693,5.6633 0.0494,5.8839 0.94464,6.42362 -0.1842,-3.4291 0.49634,-3.97874 1.1572,-5.05388 0.4989,3.64176 5.8824,6.04584 5.45536,10.6037 -0.26398,2.8175 -2.67652,5.42388 -4.69964,7.06126 0.1838,-3.69218 0.0372,-4.18616 -3.44798,-7.08486 -1.33806,-1.11292 -1.90502,-1.8972 -2.57414,-3.3299 -0.41652,1.2655 -1.18164,3.14542 1.58448,7.00832 2.52796,3.5304 0.29766,8.13566 0.0924,9.40496 z"
         style="display:inline;enable-background:new;fill:url(#linearGradient3871);fill-opacity:1;fill-rule:evenodd;stroke:none"
         inkscape:connector-curvature="0" />
      <path
         inkscape:connector-curvature="0"
         style="fill:url(#linearGradient3879);fill-opacity:1;fill-rule:evenodd;stroke:none;display:inline;enable-background:new"
         d="m 321.9074,194 c -1.26641,-8.30208 -8.7675,-7.28464 -13.63835,-13.70333 -2.9983,-3.38795 -4.60026,-12.10135 1.62362,-18.24944 -0.73606,6.38621 0.11908,9.0706 3.63688,11.94985 -1.56948,-3.30138 -2.05626,-7.99708 -0.55201,-11.23546 1.8425,-3.96665 6.92742,-8.58352 7.01401,-12.76162 2.90802,1.45258 5.28548,5.56861 3.96163,9.57932 -2.57029,7.78704 0.0679,8.09037 1.29888,8.83248 -0.25328,-4.71501 0.68246,-5.47077 1.59115,-6.94909 0.68598,5.00742 8.0883,8.31303 7.50112,14.58009 -0.36298,3.87406 -3.68022,7.45784 -6.46201,9.70923 0.25273,-5.07674 0.0512,-5.75597 -4.74097,-9.74168 -1.83983,-1.53026 -2.6194,-2.60865 -3.53944,-4.57861 -0.57272,1.74006 -1.62476,4.32495 2.17866,9.63644 3.47594,4.8543 0.40928,11.18653 0.12705,12.93182 z"
         id="path3875"
         sodipodi:nodetypes="ccccscsccscscsc" />
      <path
         sodipodi:nodetypes="ccccscsccscscsc"
         id="path3881"
         d="m 338.86109,109 c -1.89961,-12.45312 -13.15125,-10.92696 -20.45752,-20.555 -4.49745,-5.08192 -6.90039,-18.15202 2.43543,-27.37416 -1.10409,9.57932 0.17862,13.6059 5.45532,17.92478 C 323.9401,74.04355 323.20993,67 325.4663,62.14243 328.23005,56.19245 335.85743,49.26715 335.98732,43 c 4.36203,2.17887 7.92822,8.35291 5.94244,14.36898 -3.85543,11.68056 0.10185,12.13555 1.94832,13.24872 -0.37992,-7.07252 1.02369,-8.20616 2.38673,-10.42364 1.02897,7.51113 12.13245,12.46955 11.25168,21.87014 -0.54447,5.81109 -5.52033,11.18676 -9.69302,14.56384 0.3791,-7.61511 0.0768,-8.63395 -7.11145,-14.61252 -2.75975,-2.29539 -3.9291,-3.91297 -5.30916,-6.86791 -0.85908,2.61009 -2.43714,6.48742 3.26799,14.45466 5.21391,7.28145 0.61392,16.77979 0.19057,19.39773 z"
         style="fill:url(#linearGradient3883);fill-opacity:1;fill-rule:evenodd;stroke:none;display:inline;enable-background:new"
         inkscape:connector-curvature="0" />
      <path
         inkscape:connector-curvature="0"
         style="fill:url(#linearGradient3887);fill-opacity:1;fill-rule:evenodd;stroke:none;display:inline;enable-background:new"
         d="m 150.50248,231 c -4.31729,-28.30255 -29.8892,-24.834 -46.49436,-46.7159 -10.221473,-11.54982 -15.682705,-41.2546 5.53507,-62.21401 -2.50929,21.77119 0.40596,30.92251 12.39846,40.73814 -5.3505,-11.2547 -7.00999,-27.26278 -1.88187,-38.30271 6.28125,-13.52268 23.6162,-29.261997 23.91141,-43.50552 9.91371,4.951977 18.01868,18.983886 13.50554,32.65677 -8.76233,26.54673 0.23149,27.5808 4.428,30.11073 -0.86345,-16.0739 2.32658,-18.65037 5.42439,-23.69009 2.33857,17.07075 27.57375,28.33989 25.572,49.70487 -1.23743,13.20702 -12.5462,25.42445 -22.02959,33.09963 0.86159,-17.30706 0.17455,-19.62261 -16.16238,-33.21028 -6.27217,-5.21678 -8.92978,-8.8931 -12.06628,-15.60888 -1.95245,5.93203 -5.53895,14.74413 7.42725,32.8515 11.8498,16.54875 1.39528,38.13588 0.43311,44.08575 z"
         id="path3885"
         sodipodi:nodetypes="ccccscsccscscsc" />
      <path
         inkscape:connector-curvature="0"
         style="fill:url(#linearGradient3891);fill-opacity:1;fill-rule:evenodd;stroke:none;display:inline;enable-background:new"
         d="m 432.9537,79 c -0.6332,-4.151037 -4.38375,-3.64232 -6.81917,-6.851669 -1.49915,-1.693967 -2.30014,-6.050671 0.81181,-9.124718 -0.36803,3.193107 0.0595,4.5353 1.81844,5.974927 -0.78474,-1.65069 -1.02814,-3.99854 -0.27601,-5.61773 0.92125,-1.983327 3.46371,-4.29176 3.50701,-6.38081 1.45401,0.72629 2.64274,2.784304 1.98081,4.78966 -1.28514,3.89352 0.034,4.045184 0.64944,4.41624 -0.12664,-2.357507 0.34123,-2.735386 0.79558,-3.474547 0.34299,2.50371 4.04415,4.156517 3.75056,7.290051 -0.18149,1.937023 -1.84012,3.728912 -3.23101,4.854608 0.12637,-2.538371 0.0256,-2.877985 -2.37048,-4.870844 -0.91992,-0.765127 -1.3097,-1.304318 -1.76972,-2.289298 -0.28637,0.87003 -0.81239,2.162468 1.08933,4.81822 1.73796,2.42715 0.20464,5.593258 0.0635,6.46591 z"
         id="path3889"
         sodipodi:nodetypes="ccccscsccscscsc" />
      <path
         sodipodi:nodetypes="ccccscsccscscsc"
         id="path3893"
         d="m 428.6936,120 c -0.46051,-3.01894 -3.18818,-2.64896 -4.9594,-4.98303 -1.09029,-1.23198 -1.67283,-4.40049 0.59041,-6.63616 -0.26766,2.32226 0.0433,3.2984 1.3225,4.3454 -0.57072,-1.2005 -0.74774,-2.90803 -0.20073,-4.08562 0.67,-1.44242 2.51906,-3.12128 2.55055,-4.64059 1.05746,0.52821 1.92199,2.02495 1.44059,3.48339 -0.93465,2.83165 0.0247,2.94195 0.47232,3.21181 -0.0921,-1.71455 0.24816,-1.98937 0.5786,-2.52694 0.24945,1.82088 2.9412,3.02292 2.72768,5.30185 -0.13199,1.40875 -1.33827,2.71194 -2.34982,3.53063 0.0919,-1.84609 0.0186,-2.09308 -1.72399,-3.54244 -0.66903,-0.55645 -0.95251,-0.94859 -1.28707,-1.66494 -0.20827,0.63275 -0.59083,1.5727 0.79224,3.50416 1.26397,1.7652 0.14883,4.06782 0.0462,4.70248 z"
         style="fill:url(#linearGradient3895);fill-opacity:1;fill-rule:evenodd;stroke:none;display:inline;enable-background:new"
         inkscape:connector-curvature="0" />
      <path
         inkscape:connector-curvature="0"
         style="fill:url(#linearGradient3899);fill-opacity:1;fill-rule:evenodd;stroke:none;display:inline;enable-background:new"
         d="m 424.6069,155 c -0.40295,-2.64157 -2.78966,-2.31784 -4.33948,-4.36015 -0.954,-1.07798 -1.46372,-3.85043 0.51661,-5.80664 -0.2342,2.03198 0.0379,2.8861 1.15719,3.80222 -0.49938,-1.05043 -0.65427,-2.54452 -0.17564,-3.57491 0.58625,-1.26212 2.20418,-2.73112 2.23173,-4.06052 0.92528,0.46218 1.68174,1.77183 1.26052,3.04797 -0.81782,2.47769 0.0216,2.5742 0.41328,2.81033 -0.0806,-1.50023 0.21714,-1.7407 0.50627,-2.21107 0.21827,1.59327 2.57355,2.64505 2.38672,4.63912 -0.11549,1.23265 -1.17098,2.37294 -2.05609,3.0893 0.0804,-1.61533 0.0163,-1.83145 -1.50849,-3.09964 -0.5854,-0.48689 -0.83345,-0.83001 -1.12619,-1.45682 -0.18223,0.55366 -0.51697,1.37611 0.69321,3.06614 1.10598,1.54455 0.13023,3.55934 0.0404,4.11467 z"
         id="path3897"
         sodipodi:nodetypes="ccccscsccscscsc" />
    </g>
    <g
       inkscape:groupmode="layer"
       id="layer5"
       inkscape:label="Highlights"
       style="display:inline"
       sodipodi:insensitive="true">
      <rect
         ry="9"
         y="307"
         x="-265"
         height="42"
         width="42"
         id="rect4884"
         style="opacity:0.1;color:#bebebe;fill:none;stroke:#000000;stroke-width:2;stroke-miterlimit:4;stroke-opacity:1;stroke-dasharray:none;marker:none;visibility:visible;display:inline;overflow:visible;enable-background:accumulate"
         transform="matrix(0,1,1,0,-16,488)"
         clip-path="url(#clipPath4891)" />
      <rect
         style="opacity:0.1;color:#bebebe;fill:none;stroke:#000000;stroke-width:2;stroke-miterlimit:4;stroke-opacity:1;stroke-dasharray:none;marker:none;visibility:visible;display:inline;overflow:visible;enable-background:accumulate"
         id="rect5311"
         width="16"
         height="16"
         x="-228"
         y="304"
         ry="3"
         clip-path="url(#clipPath3855)"
         transform="matrix(0,-1,1,0,112,-72)" />
      <rect
         ry="50"
         y="46"
         x="34"
         height="220"
         width="220"
         id="rect3858"
         style="opacity:0.1;color:#bebebe;fill:none;stroke:#000000;stroke-width:2;stroke-miterlimit:4;stroke-opacity:1;stroke-dasharray:none;marker:none;visibility:visible;display:inline;overflow:visible;enable-background:accumulate"
         clip-path="url(#clipPath3862)" />
      <rect
         ry="12.5"
         y="142"
         x="290"
         height="60"
         width="60"
         id="rect4175"
         style="opacity:0.1;color:#bebebe;fill:none;stroke:#000000;stroke-width:2;stroke-miterlimit:4;stroke-opacity:1;stroke-dasharray:none;marker:none;visibility:visible;display:inline;overflow:visible;enable-background:accumulate"
         clip-path="url(#clipPath4187)" />
      <rect
         style="opacity:0.1;color:#bebebe;fill:none;stroke:#000000;stroke-width:2;stroke-miterlimit:4;stroke-opacity:1;stroke-dasharray:none;marker:none;visibility:visible;display:inline;overflow:visible;enable-background:accumulate"
         id="rect4342"
         width="88"
         height="88"
         x="292"
         y="32"
         ry="18"
         clip-path="url(#clipPath4346)" />
      <rect
         ry="5"
         y="101"
         x="417"
         height="22"
         width="22"
         id="rect3866"
         style="opacity:0.1;color:#bebebe;fill:none;stroke:#000000;stroke-width:2;stroke-miterlimit:4;stroke-opacity:1;stroke-dasharray:none;marker:none;visibility:visible;display:inline;overflow:visible;enable-background:accumulate"
         clip-path="url(#clipPath3871)" />
      <rect
         style="opacity:0.1;color:#bebebe;fill:none;stroke:#000000;stroke-width:2;stroke-miterlimit:4;stroke-opacity:1;stroke-dasharray:none;marker:none;visibility:visible;display:inline;overflow:visible;enable-background:accumulate"
         id="rect3877"
         width="30"
         height="30"
         x="417"
         y="53"
         ry="7"
         clip-path="url(#clipPath3881)" />
    </g>
  </g>
</svg>
