<?xml version="1.0" encoding="UTF-8" standalone="no"?>
<!-- Created with Inkscape (http://www.inkscape.org/) -->

<svg
   xmlns:dc="http://purl.org/dc/elements/1.1/"
   xmlns:cc="http://creativecommons.org/ns#"
   xmlns:rdf="http://www.w3.org/1999/02/22-rdf-syntax-ns#"
   xmlns:svg="http://www.w3.org/2000/svg"
   xmlns="http://www.w3.org/2000/svg"
   xmlns:xlink="http://www.w3.org/1999/xlink"
   xmlns:sodipodi="http://sodipodi.sourceforge.net/DTD/sodipodi-0.dtd"
   xmlns:inkscape="http://www.inkscape.org/namespaces/inkscape"
   inkscape:export-ydpi="90.000000"
   inkscape:export-xdpi="90.000000"
   width="480"
   height="300"
   id="svg11300"
   sodipodi:version="0.32"
   inkscape:version="0.48.4 r9939"
   sodipodi:docname="musescore.svg"
   inkscape:output_extension="org.inkscape.output.svg.inkscape"
   version="1.0"
   style="display:inline;enable-background:new"
   inkscape:export-filename="/home/sam/moka2-template.png">
  <sodipodi:namedview
     stroke="#ef2929"
     fill="#f57900"
     id="base"
     pagecolor="#ffffff"
     bordercolor="#666666"
     borderopacity="0.25490196"
     inkscape:pageopacity="0"
     inkscape:pageshadow="2"
     inkscape:zoom="1"
     inkscape:cx="321.77168"
     inkscape:cy="201.55633"
     inkscape:current-layer="layer6"
     showgrid="false"
     inkscape:grid-bbox="true"
     inkscape:document-units="px"
     inkscape:showpageshadow="false"
     inkscape:window-width="1366"
     inkscape:window-height="702"
     inkscape:window-x="0"
     inkscape:window-y="27"
     width="400px"
     height="300px"
     inkscape:snap-nodes="true"
     inkscape:snap-bbox="true"
     gridtolerance="10000"
     inkscape:object-nodes="true"
     inkscape:snap-grids="true"
     showguides="true"
     inkscape:guide-bbox="true"
     inkscape:window-maximized="1"
     inkscape:bbox-nodes="true"
     inkscape:bbox-paths="true"
     inkscape:snap-bbox-edge-midpoints="true"
     inkscape:snap-bbox-midpoints="true">
    <inkscape:grid
       spacingy="1px"
       spacingx="1px"
       id="grid5883"
       type="xygrid"
       enabled="true"
       visible="true"
       empspacing="4"
       snapvisiblegridlinesonly="true"
       dotted="false"
       color="#000000"
       opacity="0.1254902"
       empcolor="#203ef3"
       empopacity="0.36470588" />
    <inkscape:grid
       type="xygrid"
       id="grid11592"
       empspacing="8"
       visible="true"
       enabled="false"
       spacingx="0.5px"
       spacingy="0.5px"
       color="#ff0000"
       opacity="0.1254902"
       empcolor="#ff0000"
       empopacity="0.25098039"
       snapvisiblegridlinesonly="true"
       dotted="true" />
  </sodipodi:namedview>
  <defs
     id="defs3">
    <linearGradient
       id="outerBackgroundGradient">
      <stop
         style="stop-color:#efefef;stop-opacity:1;"
         offset="0"
         id="stop3864-8-6" />
      <stop
         style="stop-color:#ffffff;stop-opacity:1;"
         offset="1"
         id="stop3866-9-1" />
    </linearGradient>
    <linearGradient
       inkscape:collect="always"
       xlink:href="#outerBackgroundGradient"
       id="linearGradient4097"
       gradientUnits="userSpaceOnUse"
       x1="264"
       y1="280.00003"
       x2="264"
       y2="40.00005"
       gradientTransform="matrix(0.06666667,0,0,0.06666667,414.4,137.33333)" />
    <linearGradient
       inkscape:collect="always"
       xlink:href="#outerBackgroundGradient"
       id="linearGradient4101"
       gradientUnits="userSpaceOnUse"
       gradientTransform="matrix(0.0875,0,0,0.0875,414.9,97.5)"
       x1="286.85715"
       y1="302.85715"
       x2="286.85715"
       y2="28.571428" />
    <linearGradient
       inkscape:collect="always"
       xlink:href="#outerBackgroundGradient"
       id="linearGradient4153"
       gradientUnits="userSpaceOnUse"
       gradientTransform="matrix(0.11931818,0,0,0.11931818,414.13636,48.22727)"
       x1="283.80957"
       y1="299.80954"
       x2="283.80957"
       y2="31.61907" />
    <linearGradient
       inkscape:collect="always"
       xlink:href="#outerBackgroundGradient"
       id="linearGradient4869"
       gradientUnits="userSpaceOnUse"
       gradientTransform="matrix(0.175,0,0,-0.175,286.79999,-215.99997)"
       x1="281.14291"
       y1="297.14304"
       x2="281.14291"
       y2="22.857315" />
    <clipPath
       clipPathUnits="userSpaceOnUse"
       id="clipPath4891">
      <rect
         ry="9"
         y="223"
         x="307"
         height="42"
         width="42"
         id="rect4893"
         style="color:#bebebe;fill:url(#linearGradient4895);fill-opacity:1;fill-rule:nonzero;stroke:none;stroke-width:0;marker:none;visibility:visible;display:inline;overflow:visible;enable-background:accumulate"
         transform="matrix(0,1,-1,0,0,0)" />
    </clipPath>
    <linearGradient
       inkscape:collect="always"
       xlink:href="#outerBackgroundGradient"
       id="linearGradient4895"
       gradientUnits="userSpaceOnUse"
       gradientTransform="matrix(0.175,0,0,0.175,302.79999,215.99997)"
       x1="144.00006"
       y1="280.00018"
       x2="144.00006"
       y2="40.000172" />
    <clipPath
       clipPathUnits="userSpaceOnUse"
       id="clipPath4044">
      <rect
         ry="4"
         y="85"
         x="433"
         height="22"
         width="22"
         id="rect4046"
         style="color:#bebebe;fill:url(#linearGradient4048);fill-opacity:1;fill-rule:nonzero;stroke:none;stroke-width:0;marker:none;visibility:visible;display:inline;overflow:visible;enable-background:accumulate" />
    </clipPath>
    <linearGradient
       inkscape:collect="always"
       xlink:href="#outerBackgroundGradient"
       id="linearGradient4048"
       gradientUnits="userSpaceOnUse"
       gradientTransform="matrix(0.0875,0,0,0.0875,430.9,81.499996)"
       x1="149.71428"
       y1="291.42862"
       x2="149.71428"
       y2="40.000046" />
    <clipPath
       clipPathUnits="userSpaceOnUse"
       id="clipPath4089">
      <rect
         style="color:#bebebe;fill:url(#linearGradient4093);fill-opacity:1;fill-rule:nonzero;stroke:none;stroke-width:0;marker:none;visibility:visible;display:inline;overflow:visible;enable-background:accumulate"
         id="rect4091"
         width="30"
         height="30"
         x="433"
         y="37"
         ry="6" />
    </clipPath>
    <linearGradient
       inkscape:collect="always"
       xlink:href="#outerBackgroundGradient"
       id="linearGradient4093"
       gradientUnits="userSpaceOnUse"
       gradientTransform="matrix(0.11931818,0,0,0.11931818,430.13636,32.227267)"
       x1="149.71432"
       y1="291.42862"
       x2="149.71432"
       y2="40.00005" />
    <clipPath
       clipPathUnits="userSpaceOnUse"
       id="clipPath3855">
      <rect
         style="color:#bebebe;fill:url(#linearGradient3859);fill-opacity:1;fill-rule:nonzero;stroke:none;stroke-width:0;marker:none;visibility:visible;display:inline;overflow:visible;enable-background:accumulate"
         id="rect3857"
         width="16"
         height="16"
         x="304"
         y="212"
         ry="3"
         transform="matrix(0,1,-1,0,0,0)" />
    </clipPath>
    <linearGradient
       inkscape:collect="always"
       xlink:href="#outerBackgroundGradient"
       id="linearGradient3859"
       gradientUnits="userSpaceOnUse"
       gradientTransform="matrix(0.06666667,0,0,0.06666667,302.4,209.33333)"
       x1="144"
       y1="280.00003"
       x2="144"
       y2="40.00005" />
    <clipPath
       clipPathUnits="userSpaceOnUse"
       id="clipPath3862">
      <rect
         ry="50"
         y="46"
         x="34"
         height="220"
         width="220"
         id="rect3864"
         style="color:#bebebe;fill:url(#linearGradient3866);fill-opacity:1;fill-rule:nonzero;stroke:none;stroke-width:0;marker:none;visibility:visible;display:inline;overflow:visible;enable-background:accumulate" />
    </clipPath>
    <linearGradient
       inkscape:collect="always"
       xlink:href="#outerBackgroundGradient"
       id="linearGradient3866"
       gradientUnits="userSpaceOnUse"
       gradientTransform="translate(0,-4)"
       x1="144"
       y1="280"
       x2="144"
       y2="40" />
    <linearGradient
       inkscape:collect="always"
       xlink:href="#outerBackgroundGradient"
       id="linearGradient3876"
       gradientUnits="userSpaceOnUse"
       gradientTransform="translate(0,-4)"
       x1="272"
       y1="288"
       x2="272"
       y2="32" />
    <clipPath
       clipPathUnits="userSpaceOnUse"
       id="clipPath4187">
      <rect
         ry="12.5"
         y="142"
         x="290"
         height="60"
         width="60"
         id="rect4189"
         style="color:#bebebe;fill:url(#linearGradient4191);fill-opacity:1;fill-rule:nonzero;stroke:none;stroke-width:0;marker:none;visibility:visible;display:inline;overflow:visible;enable-background:accumulate" />
    </clipPath>
    <linearGradient
       inkscape:collect="always"
       xlink:href="#outerBackgroundGradient"
       id="linearGradient4191"
       gradientUnits="userSpaceOnUse"
       x1="352"
       y1="204"
       x2="352"
       y2="140" />
    <linearGradient
       inkscape:collect="always"
       xlink:href="#outerBackgroundGradient"
       id="linearGradient4197"
       gradientUnits="userSpaceOnUse"
       x1="384"
       y1="124"
       x2="384"
       y2="28" />
    <linearGradient
       inkscape:collect="always"
       xlink:href="#outerBackgroundGradient"
       id="linearGradient4199"
       gradientUnits="userSpaceOnUse"
       x1="352"
       y1="204"
       x2="352"
       y2="140" />
    <clipPath
       clipPathUnits="userSpaceOnUse"
       id="clipPath4346">
      <rect
         style="color:#bebebe;fill:url(#linearGradient4350);fill-opacity:1;fill-rule:nonzero;stroke:none;stroke-width:0;marker:none;visibility:visible;display:inline;overflow:visible;enable-background:accumulate"
         id="rect4348"
         width="88"
         height="88"
         x="292"
         y="32"
         ry="18" />
    </clipPath>
    <linearGradient
       inkscape:collect="always"
       xlink:href="#outerBackgroundGradient"
       id="linearGradient4350"
       gradientUnits="userSpaceOnUse"
       x1="384"
       y1="124"
       x2="384"
       y2="28" />
    <clipPath
       clipPathUnits="userSpaceOnUse"
       id="clipPath3871">
      <rect
         ry="5"
         y="101"
         x="417"
         height="22"
         width="22"
         id="rect3873"
         style="color:#bebebe;fill:url(#linearGradient3875);fill-opacity:1;fill-rule:nonzero;stroke:none;stroke-width:0;marker:none;visibility:visible;display:inline;overflow:visible;enable-background:accumulate" />
    </clipPath>
    <linearGradient
       inkscape:collect="always"
       xlink:href="#outerBackgroundGradient"
       id="linearGradient3875"
       gradientUnits="userSpaceOnUse"
       gradientTransform="matrix(0.0875,0,0,0.0875,414.9,97.5)"
       x1="286.85715"
       y1="302.85715"
       x2="286.85715"
       y2="28.571428" />
    <clipPath
       clipPathUnits="userSpaceOnUse"
       id="clipPath3881">
      <rect
         style="color:#bebebe;fill:url(#linearGradient3885);fill-opacity:1;fill-rule:nonzero;stroke:none;stroke-width:0;marker:none;visibility:visible;display:inline;overflow:visible;enable-background:accumulate"
         id="rect3883"
         width="30"
         height="30"
         x="417"
         y="53"
         ry="7" />
    </clipPath>
    <linearGradient
       inkscape:collect="always"
       xlink:href="#outerBackgroundGradient"
       id="linearGradient3885"
       gradientUnits="userSpaceOnUse"
       gradientTransform="matrix(0.11931818,0,0,0.11931818,414.13636,48.22727)"
       x1="283.80957"
       y1="299.80954"
       x2="283.80957"
       y2="31.61907" />
  </defs>
  <metadata
     id="metadata4">
    <rdf:RDF>
      <cc:Work
         rdf:about="">
        <dc:format>image/svg+xml</dc:format>
        <dc:type
           rdf:resource="http://purl.org/dc/dcmitype/StillImage" />
        <dc:creator>
          <cc:Agent>
            <dc:title>Sam Hewitt</dc:title>
          </cc:Agent>
        </dc:creator>
        <dc:source />
        <cc:license
           rdf:resource="" />
        <dc:title />
        <dc:subject>
          <rdf:Bag />
        </dc:subject>
        <dc:date />
        <dc:rights>
          <cc:Agent>
            <dc:title />
          </cc:Agent>
        </dc:rights>
        <dc:publisher>
          <cc:Agent>
            <dc:title />
          </cc:Agent>
        </dc:publisher>
        <dc:identifier />
        <dc:relation />
        <dc:language />
        <dc:coverage />
        <dc:description />
        <dc:contributor>
          <cc:Agent>
            <dc:title />
          </cc:Agent>
        </dc:contributor>
      </cc:Work>
      <cc:Work
         rdf:about="">
        <dc:format>image/svg+xml</dc:format>
        <dc:type
           rdf:resource="http://purl.org/dc/dcmitype/StillImage" />
      </cc:Work>
    </rdf:RDF>
  </metadata>
  <g
     style="display:inline"
     inkscape:groupmode="layer"
     inkscape:label="Icon"
     id="layer1">
    <g
       style="display:none"
       inkscape:label="Baseplate"
       id="layer7"
       inkscape:groupmode="layer">
      <text
         y="19.745117"
         xml:space="preserve"
         x="15.006836"
         style="font-size:18px;font-style:normal;font-variant:normal;font-weight:normal;font-stretch:normal;fill:#000000;fill-opacity:1;stroke:none;display:inline;enable-background:new;font-family:DejaVu Sans;-inkscape-font-specification:DejaVu Sans"
         inkscape:label="context"
         id="context"><tspan
           style="font-style:normal;font-variant:normal;font-weight:normal;font-stretch:normal;font-family:DejaVu Sans;-inkscape-font-specification:DejaVu Sans"
           y="19.745117"
           x="15.006836"
           sodipodi:role="line"
           id="tspan3933">apps</tspan></text>
      <text
         y="19.745117"
         xml:space="preserve"
         x="122.48828"
         style="font-size:18px;font-style:normal;font-variant:normal;font-weight:bold;font-stretch:normal;text-align:start;line-height:125%;writing-mode:lr-tb;text-anchor:start;fill:#000000;fill-opacity:1;stroke:none;display:inline;enable-background:new;font-family:DejaVu Sans;-inkscape-font-specification:DejaVu Sans Bold"
         sodipodi:linespacing="125%"
         inkscape:label="icon-name"
         id="icon-name"><tspan
           style="font-size:18px;font-style:normal;font-variant:normal;font-weight:bold;font-stretch:normal;font-family:DejaVu Sans;-inkscape-font-specification:DejaVu Sans Bold"
           y="19.745117"
           x="122.48828"
           sodipodi:role="line"
           id="tspan3937">musescore</tspan></text>
      <rect
         style="fill:#eeeeec;fill-opacity:1;fill-rule:nonzero;stroke:none;stroke-width:2;marker:none;visibility:visible;display:inline;overflow:visible;enable-background:accumulate"
         id="rect16x16"
         width="16"
         height="16"
         x="416"
         y="140"
         inkscape:label="16x16" />
      <rect
         style="fill:#d4d4d4;fill-opacity:1;fill-rule:nonzero;stroke:none;stroke-width:2;marker:none;visibility:visible;display:inline;overflow:visible;enable-background:accumulate"
         id="rect24x24"
         width="24"
         height="24"
         x="416"
         y="100"
         inkscape:label="24x24" />
      <rect
         style="fill:#eeeeec;fill-opacity:1;fill-rule:nonzero;stroke:none;stroke-width:2;marker:none;visibility:visible;display:inline;overflow:visible;enable-background:accumulate"
         id="rect32x32"
         width="32"
         height="32"
         x="416"
         y="52"
         inkscape:label="32x32" />
      <rect
         inkscape:label="22x22"
         y="101"
         x="417"
         height="22"
         width="22"
         id="rect22x22"
         style="fill:#eeeeec;fill-opacity:1;fill-rule:nonzero;stroke:none;stroke-width:2;marker:none;visibility:visible;display:inline;overflow:visible;enable-background:accumulate" />
      <rect
         inkscape:label="48x48"
         y="220"
         x="288"
         height="48"
         width="48"
         id="rect48x48"
         style="fill:#eeeeec;fill-opacity:1;fill-rule:nonzero;stroke:none;stroke-width:2;marker:none;visibility:visible;display:inline;overflow:visible;enable-background:accumulate" />
      <rect
         style="fill:#eeeeec;fill-opacity:1;fill-rule:nonzero;stroke:none;stroke-width:2;marker:none;visibility:visible;display:inline;overflow:visible;enable-background:accumulate"
         id="rect256x256"
         width="256"
         height="256"
         x="16"
         y="28"
         inkscape:label="256x256" />
      <rect
         style="fill:#eeeeec;fill-opacity:1;fill-rule:nonzero;stroke:none;stroke-width:2;marker:none;visibility:visible;display:inline;overflow:visible;enable-background:accumulate"
         id="rect64x64"
         width="64"
         height="64"
         x="288"
         y="140"
         inkscape:label="64x64" />
      <rect
         style="fill:#eeeeec;fill-opacity:1;fill-rule:nonzero;stroke:none;stroke-width:2;marker:none;visibility:visible;display:inline;overflow:visible;enable-background:accumulate"
         id="rect96x96"
         width="96"
         height="96"
         x="288"
         y="28"
         inkscape:label="96x96" />
    </g>
    <g
       inkscape:groupmode="layer"
       id="layer4"
       inkscape:label="Shadow"
       style="display:inline"
       sodipodi:insensitive="true">
      <rect
         style="opacity:0.1;color:#bebebe;fill:#000000;fill-opacity:1;stroke:#000000;stroke-width:1;stroke-miterlimit:4;stroke-opacity:1;stroke-dasharray:none;marker:none;visibility:visible;display:inline;overflow:visible;enable-background:accumulate"
         id="rect4156"
         width="42"
         height="42"
         x="-266.5"
         y="291"
         ry="9"
         transform="matrix(0,-1,1,0,0,0)" />
      <rect
         transform="matrix(0,-1,1,0,0,0)"
         ry="9"
         y="291"
         x="-266.5"
         height="42"
         width="40"
         id="rect4183"
         style="opacity:0.3;color:#bebebe;fill:#000000;fill-opacity:1;stroke:none;stroke-width:1;marker:none;visibility:visible;display:inline;overflow:visible;enable-background:accumulate" />
      <rect
         ry="9"
         y="237"
         x="291"
         height="29"
         width="42"
         id="rect4144"
         style="opacity:0.3;color:#bebebe;fill:#000000;fill-opacity:1;fill-rule:nonzero;stroke:none;stroke-width:0;marker:none;visibility:visible;display:inline;overflow:visible;enable-background:accumulate" />
      <rect
         style="opacity:0.05;color:#bebebe;fill:#000000;fill-opacity:1;fill-rule:nonzero;stroke:#000000;stroke-width:1;stroke-miterlimit:4;stroke-opacity:1;stroke-dasharray:none;marker:none;visibility:visible;display:inline;overflow:visible;enable-background:accumulate"
         id="rect4340"
         width="88"
         height="88"
         x="292"
         y="33.5"
         ry="18" />
      <rect
         ry="18"
         y="52.5"
         x="292"
         height="69"
         width="88"
         id="rect4338"
         style="opacity:0.3;color:#bebebe;fill:#000000;fill-opacity:1;fill-rule:nonzero;stroke:none;stroke-width:0;marker:none;visibility:visible;display:inline;overflow:visible;enable-background:accumulate" />
      <rect
         style="opacity:0.3;color:#bebebe;fill:#000000;fill-opacity:1;fill-rule:nonzero;stroke:none;stroke-width:0;marker:none;visibility:visible;display:inline;overflow:visible;enable-background:accumulate"
         id="rect4335"
         width="88"
         height="76.5"
         x="292"
         y="44.5"
         ry="18" />
      <rect
         style="opacity:0.05;color:#bebebe;fill:#000000;fill-opacity:1;fill-rule:nonzero;stroke:#000000;stroke-width:1;stroke-miterlimit:4;stroke-opacity:1;stroke-dasharray:none;marker:none;visibility:visible;display:inline;overflow:visible;enable-background:accumulate"
         id="rect4214"
         width="60"
         height="60"
         x="290"
         y="143.5"
         ry="12.5" />
      <rect
         ry="12.5"
         y="151.5"
         x="290"
         height="52"
         width="60"
         id="rect4206"
         style="opacity:0.3;color:#bebebe;fill:#000000;fill-opacity:1;fill-rule:nonzero;stroke:none;stroke-width:0;marker:none;visibility:visible;display:inline;overflow:visible;enable-background:accumulate" />
      <rect
         style="opacity:0.3;color:#bebebe;fill:#000000;fill-opacity:1;fill-rule:nonzero;stroke:none;stroke-width:0;marker:none;visibility:visible;display:inline;overflow:visible;enable-background:accumulate"
         id="rect4212"
         width="60"
         height="54.5"
         x="290"
         y="148.5"
         ry="12.5" />
      <rect
         style="opacity:0.5;color:#bebebe;fill:#000000;fill-opacity:1;fill-rule:nonzero;stroke:none;stroke-width:0;marker:none;visibility:visible;display:inline;overflow:visible;enable-background:accumulate"
         id="rect4058"
         width="30"
         height="30"
         x="417"
         y="54"
         ry="7" />
      <rect
         ry="50"
         y="48"
         x="34"
         height="220"
         width="220"
         id="rect3872"
         style="opacity:0.05;color:#bebebe;fill:#000000;fill-opacity:1;fill-rule:nonzero;stroke:#000000;stroke-width:2;stroke-miterlimit:4;stroke-opacity:1;stroke-dasharray:none;marker:none;visibility:visible;display:inline;overflow:visible;enable-background:accumulate" />
      <rect
         style="opacity:0.3;color:#bebebe;fill:#000000;fill-opacity:1;fill-rule:nonzero;stroke:none;stroke-width:0;marker:none;visibility:visible;display:inline;overflow:visible;enable-background:accumulate"
         id="rect3870"
         width="220"
         height="220"
         x="34"
         y="48"
         ry="50" />
      <rect
         ry="50"
         y="47"
         x="34"
         height="220"
         width="220"
         id="rect3868"
         style="opacity:0.3;color:#bebebe;fill:#000000;fill-opacity:1;fill-rule:nonzero;stroke:none;stroke-width:0;marker:none;visibility:visible;display:inline;overflow:visible;enable-background:accumulate" />
    </g>
    <g
       inkscape:groupmode="layer"
       id="layer2"
       inkscape:label="Background"
       style="display:inline">
      <rect
         style="color:#bebebe;fill:url(#linearGradient3876);fill-opacity:1;fill-rule:nonzero;stroke:none;stroke-width:0;marker:none;visibility:visible;display:inline;overflow:visible;enable-background:accumulate"
         id="rect4040"
         width="220"
         height="220"
         x="34"
         y="46"
         ry="50" />
      <rect
         ry="3"
         y="140"
         x="416"
         height="16"
         width="16"
         id="rect4095"
         style="color:#bebebe;fill:url(#linearGradient4097);fill-opacity:1;fill-rule:nonzero;stroke:none;stroke-width:0;marker:none;visibility:visible;display:inline;overflow:visible;enable-background:accumulate" />
      <rect
         style="color:#bebebe;fill:url(#linearGradient4101);fill-opacity:1;fill-rule:nonzero;stroke:none;stroke-width:0;marker:none;visibility:visible;display:inline;overflow:visible;enable-background:accumulate"
         id="rect4099"
         width="22"
         height="22"
         x="417"
         y="101"
         ry="5" />
      <rect
         ry="7"
         y="53"
         x="417"
         height="30"
         width="30"
         id="rect4151"
         style="color:#bebebe;fill:url(#linearGradient4153);fill-opacity:1;fill-rule:nonzero;stroke:none;stroke-width:0;marker:none;visibility:visible;display:inline;overflow:visible;enable-background:accumulate" />
      <rect
         style="color:#bebebe;fill:url(#linearGradient4869);fill-opacity:1;fill-rule:nonzero;stroke:none;stroke-width:0;marker:none;visibility:visible;display:inline;overflow:visible;enable-background:accumulate"
         id="rect4783"
         width="42"
         height="42"
         x="291"
         y="-265"
         ry="9"
         transform="scale(1,-1)" />
      <rect
         ry="18"
         y="32"
         x="292"
         height="88"
         width="88"
         id="rect4511"
         style="color:#bebebe;fill:url(#linearGradient4197);fill-opacity:1;fill-rule:nonzero;stroke:none;stroke-width:0;marker:none;visibility:visible;display:inline;overflow:visible;enable-background:accumulate" />
      <rect
         style="color:#bebebe;fill:url(#linearGradient4199);fill-opacity:1;fill-rule:nonzero;stroke:none;stroke-width:0;marker:none;visibility:visible;display:inline;overflow:visible;enable-background:accumulate"
         id="rect4515"
         width="60"
         height="60"
         x="290"
         y="142"
         ry="12.5" />
    </g>
    <g
       inkscape:groupmode="layer"
       id="layer6"
       inkscape:label="Symbols"
       style="display:inline">
      <path
         id="path3900"
         d="m 185.53125,98.8435 c -14.86799,0 -29.9375,9.50611 -29.9375,27.6875 l 2.5625,0 c 0,-16.50216 13.77606,-25.125 27.375,-25.125 6.90394,0 13.2589,2.19888 17.90625,6.1875 5.24118,4.50001 8,11.04053 8,18.9375 l 2.5625,0 c 0,-8.66566 -3.08112,-15.87462 -8.90625,-20.875 -5.11032,-4.38671 -12.04932,-6.8125 -19.5625,-6.8125 z m 0.125,23.1875 c -1.69464,0 -3.0625,1.36786 -3.0625,3.0625 0,1.69356 1.35796,3.0625 3.0625,3.0625 1.69355,0 3.0625,-1.36894 3.0625,-3.0625 0,-1.69464 -1.36895,-3.0625 -3.0625,-3.0625 z m -86.75,21.21875 c -2.680001,0 -5.213327,0.48674 -7.625,1.46875 -2.321468,0.89406 -4.471221,2.17817 -6.4375,3.875 -1.965152,1.69686 -3.599172,3.67273 -4.9375,5.90625 -1.340545,2.23129 -2.343017,4.66488 -2.96875,7.34375 l -0.25,0 0,-17 -2.6875,0 0,68.84375 2.6875,0 0,-38.96875 c 0,-3.84238 0.48561,-7.51615 1.46875,-11 1.071091,-3.48168 2.531268,-6.50614 4.40625,-9.09375 1.965152,-2.68 4.354867,-4.79275 7.125,-6.3125 2.766862,-1.60779 5.823973,-2.40625 9.21875,-2.40625 3.83795,0 6.96554,0.62354 9.375,1.875 2.41272,1.24816 4.28333,2.95262 5.625,5.09375 1.33724,2.14444 2.24102,4.64185 2.6875,7.5 0.53775,2.85813 0.8125,5.90838 0.8125,9.125 l 0,44.1875 2.65625,0 0,-43.65625 c 0,-3.21553 0.51795,-6.26906 1.5,-9.125 0.98201,-2.94502 2.40736,-5.51871 4.28125,-7.75 1.87611,-2.23134 4.13254,-3.96838 6.8125,-5.21875 2.67778,-1.33942 5.69429,-2.03125 9,-2.03125 3.74999,0 6.8082,0.55169 9.21875,1.625 2.50072,1.07112 4.47774,2.59844 5.90625,4.5625 1.51759,1.96406 2.556,4.32693 3.09375,7.09375 0.62243,2.77017 0.90625,5.8262 0.90625,9.21875 l 0.0937,22.03125 c 0,1.0656 -0.003,2.25416 0,3.28125 0.14955,2.75479 0.36648,5.20384 1.21875,7.5 1.25146,3.03519 2.95262,5.6379 5.09375,7.78125 2.2335,2.05423 4.80499,3.61638 7.75,4.6875 3.03738,0.98202 6.36456,1.46875 9.9375,1.46875 6.78737,0 12.27338,-1.73598 16.46875,-5.21875 4.28554,-3.48054 7.06433,-7.89003 8.3125,-13.25 l 0.25,0 0,17 2.65625,0 0.0312,0 0,-68.84375 -2.6875,0 0,38.96875 c 0,3.84017 -0.52265,7.51724 -1.59375,11 -1.07002,3.48386 -2.67027,6.53988 -4.8125,9.21875 -2.05314,2.58984 -4.65589,4.70584 -7.78125,6.3125 -3.12535,1.5187 -6.73636,2.28125 -10.84375,2.28125 -2.94721,0 -5.75752,-0.41267 -8.4375,-1.21875 -2.58871,-0.89406 -4.9145,-2.21297 -6.96875,-4 -1.96407,-1.87389 -3.52622,-4.19967 -4.6875,-6.96875 C 163.61996,197.57912 163.5,194.04821 163.5,190.031 l -0.0312,-21.625 c 0,-3.75 -0.34988,-7.12106 -1.0625,-10.15625 -0.7148,-3.12754 -1.92816,-5.76073 -3.625,-7.90625 -1.69575,-2.23017 -3.91845,-3.96837 -6.6875,-5.21875 -2.76796,-1.25037 -6.24103,-1.875 -10.4375,-1.875 -5.35993,0 -10.00937,1.45796 -13.9375,4.40625 -3.92815,2.94724 -6.5657,6.83516 -7.90625,11.65625 l -0.28125,0 c -1.16238,-5.08833 -3.55565,-9.04922 -7.21875,-11.90625 -3.57072,-2.9472 -8.0485,-4.33659 -13.40625,-4.15625 z"
         style="opacity:0.4;fill:#ffffff;fill-opacity:1;display:inline;enable-background:new"
         inkscape:connector-curvature="0" />
      <path
         inkscape:connector-curvature="0"
         d="m 353.7991,52.075645 c -6.37201,0 -12.83036,4.07404 -12.83036,11.86607 l 1.09821,0 c 0,-7.07236 5.90402,-10.76786 11.73215,-10.76786 2.95882,0 5.68237,0.94238 7.6741,2.65179 2.24622,1.92857 3.42858,4.73165 3.42858,8.11607 l 1.09821,0 c 0,-3.71386 -1.32049,-6.80341 -3.81696,-8.94643 -2.19015,-1.88002 -5.16401,-2.91964 -8.38393,-2.91964 z m 0.0536,9.9375 c -0.72629,0 -1.3125,0.58622 -1.3125,1.3125 0,0.72581 0.58198,1.3125 1.3125,1.3125 0.7258,0 1.3125,-0.58669 1.3125,-1.3125 0,-0.72628 -0.5867,-1.3125 -1.3125,-1.3125 z m -37.17858,9.09375 c -1.14857,0 -2.23428,0.2086 -3.26785,0.62946 -0.99492,0.38317 -1.91624,0.9335 -2.75893,1.66071 -0.84221,0.72723 -1.54251,1.57403 -2.11607,2.53125 -0.57452,0.95627 -1.00416,1.99924 -1.27233,3.14733 l -0.10714,0 0,-7.28572 -1.15178,0 0,29.504475 1.15178,0 0,-16.700905 c 0,-1.64673 0.20812,-3.2212 0.62947,-4.71428 0.45903,-1.49215 1.08482,-2.78835 1.88839,-3.89732 0.84221,-1.14858 1.86637,-2.05404 3.05357,-2.70536 1.1858,-0.68905 2.49599,-1.03125 3.95089,-1.03125 1.64484,0 2.98523,0.26723 4.01786,0.80357 1.03402,0.53493 1.83571,1.26541 2.41071,2.18304 0.57311,0.91904 0.96044,1.98936 1.15179,3.21428 0.23046,1.22491 0.34821,2.53216 0.34821,3.91072 l 0,18.937505 1.1384,0 0,-18.709835 c 0,-1.37808 0.22198,-2.68674 0.64285,-3.91071 0.42086,-1.26215 1.03173,-2.36516 1.83483,-3.32143 0.80404,-0.95629 1.77108,-1.70073 2.91964,-2.23661 1.14761,-0.57403 2.4404,-0.87053 3.85714,-0.87053 1.60713,0 2.91781,0.23644 3.95089,0.69643 1.07175,0.45905 1.91903,1.11361 2.53125,1.95535 0.65039,0.84174 1.09543,1.8544 1.32589,3.04018 0.26676,1.18722 0.3884,2.49695 0.3884,3.9509 l 0.0402,9.44196 c 0,0.45669 -0.001,0.96607 0,1.40625 0.0641,1.18062 0.15708,2.23022 0.52233,3.21429 0.53634,1.30079 1.2654,2.41624 2.18304,3.33482 0.9572,0.880375 2.05927,1.549865 3.32142,2.008925 1.30173,0.42086 2.72767,0.62946 4.25893,0.62946 2.90887,0 5.26002,-0.74399 7.05803,-2.236605 1.83667,-1.49166 3.02757,-3.38144 3.5625,-5.67857 l 0.10716,0 0,7.285715 1.13838,0 0.0134,0 0,-29.504465 -1.15178,0 0,16.70089 c 0,1.64579 -0.224,3.22168 -0.68304,4.71429 -0.45858,1.49308 -1.1444,2.80281 -2.0625,3.95089 -0.87992,1.10993 -1.99538,2.01679 -3.33482,2.70536 -1.33944,0.650865 -2.88701,0.977675 -4.64732,0.977675 -1.26309,0 -2.46751,-0.17686 -3.61607,-0.52232 -1.10945,-0.383165 -2.10622,-0.948415 -2.98661,-1.714285 -0.84175,-0.80309 -1.51124,-1.79986 -2.00893,-2.98661 -0.4977,-1.22491 -0.54911,-2.73816 -0.54911,-4.45982 l -0.0134,-9.26785 c 0,-1.60715 -0.14995,-3.05189 -0.45536,-4.35268 -0.30634,-1.34038 -0.82635,-2.46889 -1.55357,-3.3884 -0.72674,-0.95578 -1.67933,-1.70073 -2.86606,-2.2366 -1.18628,-0.53588 -2.67473,-0.80357 -4.47321,-0.80357 -2.29713,0 -4.28974,0.62484 -5.97322,1.88839 -1.6835,1.2631 -2.81388,2.92935 -3.3884,4.99553 l -0.12053,0 c -0.49817,-2.18071 -1.52385,-3.87823 -3.09375,-5.10267 -1.53031,-1.26309 -3.44936,-1.85854 -5.74554,-1.78125 z"
         id="path3902"
         style="opacity:0.4;fill:#ffffff;fill-opacity:1;display:inline;enable-background:new" />
      <path
         id="path3904"
         d="m 331.86607,156.38367 c -4.24801,0 -8.55358,2.71603 -8.55358,7.91072 l 0.73214,0 c 0,-4.71491 3.93602,-7.17858 7.82144,-7.17858 1.97255,0 3.78825,0.62826 5.11607,1.76786 1.49748,1.28572 2.28572,3.15444 2.28572,5.41072 l 0.73214,0 c 0,-2.47591 -0.88033,-4.53561 -2.54464,-5.96429 -1.4601,-1.25335 -3.44268,-1.94643 -5.58929,-1.94643 z m 0.0357,6.62501 c -0.48419,0 -0.875,0.39081 -0.875,0.875 0,0.48387 0.38799,0.875 0.875,0.875 0.48387,0 0.875,-0.39113 0.875,-0.875 0,-0.48419 -0.39113,-0.875 -0.875,-0.875 z m -24.78573,6.0625 c -0.76571,0 -1.48952,0.13907 -2.17857,0.41964 -0.66328,0.25545 -1.27749,0.62233 -1.83929,1.10714 -0.56147,0.48482 -1.02834,1.04935 -1.41071,1.6875 -0.38301,0.63751 -0.66944,1.33283 -0.84822,2.09822 l -0.0714,0 0,-4.85715 -0.76785,0 0,19.66967 0.76785,0 0,-11.13395 c 0,-1.09782 0.13875,-2.14747 0.41965,-3.14285 0.30602,-0.99477 0.72321,-1.85891 1.25893,-2.59822 0.56147,-0.76572 1.24425,-1.36936 2.03571,-1.80357 0.79054,-0.45937 1.664,-0.6875 2.63393,-0.6875 1.09656,0 1.99015,0.17815 2.67857,0.53571 0.68935,0.35662 1.22381,0.84361 1.60715,1.45536 0.38207,0.61269 0.64029,1.32624 0.76786,2.14286 0.15364,0.8166 0.23214,1.6881 0.23214,2.60714 l 0,12.62502 0.75893,0 0,-12.47324 c 0,-0.91872 0.14799,-1.79116 0.42857,-2.60714 0.28057,-0.84143 0.68782,-1.57677 1.22322,-2.21429 0.53602,-0.63752 1.18072,-1.13382 1.94643,-1.49107 0.76507,-0.38269 1.62693,-0.58035 2.57142,-0.58035 1.07142,0 1.94521,0.15762 2.63393,0.46428 0.7145,0.30604 1.27935,0.74241 1.6875,1.30357 0.4336,0.56116 0.73029,1.23627 0.88393,2.02679 0.17784,0.79148 0.25893,1.66463 0.25893,2.63393 l 0.0268,6.29465 c 0,0.30446 -6.6e-4,0.64404 0,0.9375 0.0427,0.78708 0.10472,1.48681 0.34822,2.14286 0.35756,0.86719 0.8436,1.61083 1.45536,2.22321 0.63814,0.58692 1.37285,1.03325 2.21428,1.33929 0.86782,0.28057 1.81845,0.41964 2.83929,0.41964 1.93925,0 3.50668,-0.49599 4.70536,-1.49107 1.22445,-0.99444 2.01838,-2.2543 2.375,-3.78572 l 0.0714,0 0,4.85715 0.75892,0 0.009,0 0,-19.66966 -0.76785,0 0,11.13394 c 0,1.09719 -0.14933,2.14778 -0.45536,3.14286 -0.30572,0.99538 -0.76293,1.86854 -1.375,2.63392 -0.58662,0.73996 -1.33026,1.34453 -2.22322,1.80358 -0.89296,0.43391 -1.92467,0.65179 -3.09821,0.65179 -0.84206,0 -1.64501,-0.11791 -2.41072,-0.34822 -0.73963,-0.25544 -1.40414,-0.63228 -1.99107,-1.14286 -0.56117,-0.53539 -1.00749,-1.19991 -1.33929,-1.99107 -0.3318,-0.81661 -0.36607,-1.82544 -0.36607,-2.97322 l -0.009,-6.17857 c 0,-1.07143 -0.1,-2.03459 -0.30358,-2.90178 -0.20422,-0.89359 -0.5509,-1.64593 -1.03571,-2.25894 -0.48449,-0.63719 -1.11956,-1.13382 -1.91071,-1.49107 -0.79085,-0.35725 -1.78315,-0.53571 -2.98214,-0.53571 -1.53142,0 -2.85983,0.41656 -3.98215,1.25893 -1.12233,0.84206 -1.87592,1.9529 -2.25893,3.33035 l -0.0804,0 c -0.33211,-1.45381 -1.0159,-2.58549 -2.0625,-3.40178 -1.02021,-0.84206 -2.29957,-1.23903 -3.83036,-1.1875 z"
         inkscape:connector-curvature="0"
         style="opacity:0.4;fill:#ffffff;fill-opacity:1;display:inline;enable-background:new" />
      <path
         inkscape:connector-curvature="0"
         d="m 320.30626,233.36849 c -2.97361,0 -5.98751,1.90122 -5.98751,5.5375 l 0.5125,0 c 0,-3.30044 2.75521,-5.025 5.47501,-5.025 1.38078,0 2.65177,0.43978 3.58125,1.2375 1.04823,0.9 1.6,2.20811 1.6,3.7875 l 0.5125,0 c 0,-1.73314 -0.61623,-3.17493 -1.78125,-4.175 -1.02207,-0.87735 -2.40987,-1.3625 -3.9125,-1.3625 z m 0.025,4.6375 c -0.33893,0 -0.6125,0.27357 -0.6125,0.6125 0,0.33871 0.27159,0.6125 0.6125,0.6125 0.33871,0 0.6125,-0.27379 0.6125,-0.6125 0,-0.33893 -0.27379,-0.6125 -0.6125,-0.6125 z m -17.35001,4.24375 c -0.536,0 -1.04267,0.0973 -1.525,0.29375 -0.4643,0.17882 -0.89424,0.43563 -1.2875,0.775 -0.39303,0.33937 -0.71984,0.73455 -0.9875,1.18125 -0.26811,0.44626 -0.46861,0.93298 -0.59376,1.46875 l -0.05,0 0,-3.4 -0.5375,0 0,13.76877 0.5375,0 0,-7.79377 c 0,-0.76847 0.0971,-1.50323 0.29375,-2.19999 0.21421,-0.69634 0.50625,-1.30124 0.88125,-1.81876 0.39303,-0.536 0.87098,-0.95855 1.425,-1.26249 0.55338,-0.32156 1.1648,-0.48125 1.84375,-0.48125 0.76759,0 1.3931,0.1247 1.875,0.37499 0.48254,0.24964 0.85666,0.59053 1.125,1.01875 0.26745,0.42889 0.44821,0.92837 0.5375,1.50001 0.10755,0.57162 0.1625,1.18167 0.1625,1.82499 l 0,8.83752 0.53125,0 0,-8.73127 c 0,-0.6431 0.1036,-1.2538 0.3,-1.82499 0.1964,-0.589 0.48148,-1.10374 0.85626,-1.55001 0.37521,-0.44626 0.8265,-0.79367 1.3625,-1.04374 0.53555,-0.26788 1.13885,-0.40624 1.79999,-0.40624 0.75,0 1.36165,0.11033 1.84375,0.32499 0.50015,0.21423 0.89555,0.51969 1.18125,0.9125 0.30352,0.39281 0.51121,0.86539 0.61875,1.41875 0.12449,0.55403 0.18126,1.16524 0.18126,1.84375 l 0.0188,4.40626 c 0,0.21312 -4.7e-4,0.45082 0,0.65625 0.0299,0.55096 0.0733,1.04077 0.24375,1.5 0.25029,0.60703 0.59052,1.12757 1.01875,1.55625 0.4467,0.41084 0.961,0.72327 1.55,0.9375 0.60747,0.1964 1.27291,0.29374 1.9875,0.29374 1.35748,0 2.45468,-0.34719 3.29375,-1.04374 0.85712,-0.69611 1.41287,-1.57801 1.6625,-2.65 l 0.05,0 0,3.4 0.53125,0 0.006,0 0,-13.76876 -0.5375,0 0,7.79376 c 0,0.76803 -0.10453,1.50344 -0.31875,2.2 -0.214,0.69676 -0.53405,1.30797 -0.9625,1.84374 -0.41064,0.51797 -0.93118,0.94116 -1.55626,1.2625 -0.62507,0.30374 -1.34726,0.45626 -2.16874,0.45626 -0.58944,0 -1.15151,-0.0825 -1.68751,-0.24376 -0.51774,-0.17881 -0.98289,-0.4426 -1.39375,-0.8 -0.39281,-0.37478 -0.70524,-0.83994 -0.9375,-1.39375 -0.23226,-0.57163 -0.25625,-1.27781 -0.25625,-2.08126 l -0.006,-4.32499 c 0,-0.75 -0.07,-1.42421 -0.2125,-2.03124 -0.14296,-0.62551 -0.38563,-1.15216 -0.725,-1.58126 -0.33914,-0.44603 -0.78369,-0.79367 -1.3375,-1.04375 -0.55359,-0.25007 -1.2482,-0.375 -2.08749,-0.375 -1.072,0 -2.00189,0.2916 -2.78751,0.88126 -0.78563,0.58944 -1.31314,1.36703 -1.58125,2.33124 l -0.0563,0 c -0.23248,-1.01767 -0.71113,-1.80984 -1.44375,-2.38125 -0.71415,-0.58944 -1.6097,-0.86732 -2.68125,-0.83125 z"
         id="path3906"
         style="opacity:0.4;fill:#ffffff;fill-opacity:1;display:inline;enable-background:new" />
      <path
         sodipodi:nodetypes="sssccccssscsccccssssssssccccccccccccccccsccccscccsccccccscccsccccsscccccsccccccccccccccscccscccsscccscccc"
         inkscape:connector-curvature="0"
         id="path3908"
         d="m 437.34375,61.281 c -1.00908,0 -2.03749,0.297038 -2.8125,0.9375 -0.77501,0.640462 -1.28125,1.637125 -1.28125,2.875 l 0,0.25 0.25,0 0.3125,0 0.25,0 0,-0.25 c 0,-0.991286 0.42167,-1.718838 1.03125,-2.21875 0.60958,-0.499912 1.42862,-0.78125 2.25,-0.78125 0.83457,0 1.57849,0.280957 2.125,0.75 0.61594,0.528823 0.9375,1.292897 0.9375,2.25 l 0,0.25 0.25,0 0.34375,0 0.25,0 0,-0.25 c 0,-1.173419 -0.41276,-2.183122 -1.21875,-2.875 -0.70735,-0.607189 -1.66771,-0.9375 -2.6875,-0.9375 z m 0,2.96875 c -0.35241,0 -0.625,0.303845 -0.625,0.65625 0,0.351387 0.27199,0.625 0.625,0.625 0.35246,0 0.65625,-0.272534 0.65625,-0.625 0,-0.352519 -0.3039,-0.65625 -0.65625,-0.65625 z M 426.1875,66.9685 c -0.37483,0 -0.72252,0.08031 -1.0625,0.21875 -0.32509,0.125201 -0.63244,0.294959 -0.90625,0.53125 -0.25135,0.217033 -0.44877,0.502702 -0.625,0.78125 l 0,-1.0625 0,-0.25 -0.25,0 -0.34375,0 -0.25,0 0,0.25 0,8.84375 0,0.25 0.25,0 0.34375,0 0.25,0 0,-0.25 0,-5 c 0,-0.472967 0.0677,-0.919355 0.1875,-1.34375 0.13089,-0.425498 0.3083,-0.786071 0.53125,-1.09375 0.23257,-0.317167 0.48885,-0.572438 0.8125,-0.75 l 0.0312,0 c 0.31766,-0.184589 0.63398,-0.28125 1.03125,-0.28125 0.46637,0 0.83236,0.08298 1.09375,0.21875 0.27455,0.14203 0.47632,0.32522 0.625,0.5625 0.15258,0.244675 0.2596,0.536409 0.3125,0.875 0.066,0.350948 0.125,0.725682 0.125,1.125 l 0,5.6875 0,0.25 0.25,0 0.34375,0 0.25,0 0,-0.25 0,-5.59375 c 0,-0.386576 0.039,-0.752813 0.15625,-1.09375 0.11712,-0.351244 0.2798,-0.675308 0.5,-0.9375 0.2188,-0.260229 0.4996,-0.447762 0.8125,-0.59375 0.3079,-0.154012 0.64111,-0.25 1.03125,-0.25 0.45762,0 0.82653,0.06852 1.09375,0.1875 0.2863,0.122626 0.50085,0.317599 0.65625,0.53125 0.16953,0.219421 0.28102,0.489766 0.34375,0.8125 l 0.0312,0 c 0.075,0.33368 0.0937,0.702768 0.0937,1.125 l 0,2.84375 c 0,0.136642 -3e-4,0.273379 0,0.40625 l 0,0.03125 c 0.0195,0.35926 0.0625,0.694632 0.1875,1.03125 0.17214,0.417486 0.41872,0.793427 0.71875,1.09375 0.31105,0.286095 0.68566,0.50783 1.09375,0.65625 0.41836,0.135261 0.86167,0.1875 1.34375,0.1875 0.91529,0 1.69085,-0.228634 2.28125,-0.71875 0.35032,-0.284518 0.48128,-0.713897 0.6875,-1.09375 l 0,1.375 0,0.25 0.25,0 0.34375,0 0.25,0 0,-0.25 0,-8.84375 0,-0.25 -0.25,0 -0.34375,0 -0.25,0 0,0.25 0,5 c 0,0.471053 -0.0576,0.921381 -0.1875,1.34375 -0.12909,0.420279 -0.30707,0.805581 -0.5625,1.125 -0.24127,0.304328 -0.56486,0.527184 -0.9375,0.71875 -0.36334,0.176555 -0.78409,0.28125 -1.28125,0.28125 -0.35556,0 -0.67902,-0.05974 -1,-0.15625 -0.30479,-0.105266 -0.57292,-0.260339 -0.8125,-0.46875 -0.21712,-0.212283 -0.39711,-0.461764 -0.5311,-0.78125 -0.12454,-0.306511 -0.15625,-0.738478 -0.15625,-1.25 l 0,-2.78125 c 0,-0.497701 -0.0281,-0.962399 -0.125,-1.375 -0.0988,-0.43231 -0.28733,-0.78532 -0.53125,-1.09375 -0.24385,-0.320692 -0.54801,-0.574125 -0.9375,-0.75 -0.39892,-0.180202 -0.90439,-0.28125 -1.46875,-0.28125 -0.73447,0 -1.38836,0.212834 -1.9375,0.625 -0.43286,0.324769 -0.66612,0.790835 -0.875,1.28125 -0.18661,-0.498355 -0.37814,-0.998094 -0.78125,-1.3125 -0.50847,-0.41969 -1.16956,-0.618548 -1.90625,-0.59375 z"
         style="font-size:medium;font-style:normal;font-variant:normal;font-weight:normal;font-stretch:normal;text-indent:0;text-align:start;text-decoration:none;line-height:normal;letter-spacing:normal;word-spacing:normal;text-transform:none;direction:ltr;block-progression:tb;writing-mode:lr-tb;text-anchor:start;baseline-shift:baseline;opacity:0.4;color:#000000;fill:#ffffff;fill-opacity:1;fill-rule:nonzero;stroke:none;stroke-width:0.5;marker:none;visibility:visible;display:inline;overflow:visible;enable-background:accumulate;font-family:Sans;-inkscape-font-specification:Sans" />
      <path
         style="font-size:medium;font-style:normal;font-variant:normal;font-weight:normal;font-stretch:normal;text-indent:0;text-align:start;text-decoration:none;line-height:normal;letter-spacing:normal;word-spacing:normal;text-transform:none;direction:ltr;block-progression:tb;writing-mode:lr-tb;text-anchor:start;baseline-shift:baseline;opacity:0.4;color:#000000;fill:#ffffff;fill-opacity:1;fill-rule:nonzero;stroke:none;stroke-width:0.5;marker:none;visibility:visible;display:inline;overflow:visible;enable-background:accumulate;font-family:Sans;-inkscape-font-specification:Sans"
         d="m 432.04392,107.15856 c -0.76363,0 -1.54188,0.22478 -2.12838,0.70946 -0.58649,0.48468 -0.9696,1.23891 -0.9696,2.17567 l 0,0.1892 0.1892,0 0.23648,0 0.18919,0 0,-0.1892 c 0,-0.75016 0.3191,-1.30074 0.78041,-1.67905 0.4613,-0.37831 1.08111,-0.59121 1.7027,-0.59121 0.63156,0 1.19453,0.21261 1.60811,0.56756 0.46611,0.40019 0.70946,0.97841 0.70946,1.7027 l 0,0.1892 0.18919,0 0.26013,0 0.18919,0 0,-0.1892 c 0,-0.88799 -0.31236,-1.65209 -0.92229,-2.17567 -0.5353,-0.45949 -1.26206,-0.70946 -2.03379,-0.70946 z m 0,2.24662 c -0.26669,0 -0.47298,0.22994 -0.47298,0.49662 0,0.26592 0.20584,0.47298 0.47298,0.47298 0.26672,0 0.49662,-0.20625 0.49662,-0.47298 0,-0.26677 -0.22998,-0.49662 -0.49662,-0.49662 z m -8.44257,2.05743 c -0.28365,0 -0.54677,0.0608 -0.80406,0.16554 -0.246,0.0948 -0.47859,0.22322 -0.6858,0.40203 -0.19021,0.16424 -0.33962,0.38042 -0.47298,0.59122 l 0,-0.80405 0,-0.1892 -0.18919,0 -0.26013,0 -0.18919,0 0,0.1892 0,6.69256 0,0.18919 0.18919,0 0.26013,0 0.18919,0 0,-0.18919 0,-3.78378 c 0,-0.35792 0.0512,-0.69573 0.14189,-1.01689 0.0991,-0.322 0.23331,-0.59487 0.40203,-0.82771 0.176,-0.24001 0.36994,-0.4332 0.61486,-0.56756 l 0.0236,0 c 0.24039,-0.13969 0.47976,-0.21284 0.7804,-0.21284 0.35293,0 0.6299,0.0628 0.82771,0.16554 0.20776,0.10748 0.36045,0.24611 0.47297,0.42568 0.11547,0.18515 0.19646,0.40593 0.23649,0.66215 0.05,0.26559 0.0946,0.54917 0.0946,0.85136 l 0,4.30405 0,0.18919 0.1892,0 0.26013,0 0.18919,0 0,-0.18919 0,-4.23311 c 0,-0.29254 0.0295,-0.56969 0.11825,-0.8277 0.0886,-0.26581 0.21174,-0.51105 0.37837,-0.70946 0.16558,-0.19693 0.37808,-0.33884 0.61486,-0.44932 0.23302,-0.11655 0.48517,-0.18919 0.78042,-0.18919 0.3463,0 0.62547,0.0519 0.82769,0.14189 0.21666,0.0928 0.37903,0.24034 0.49663,0.40202 0.12829,0.16605 0.21266,0.37064 0.26014,0.61487 l 0.0236,0 c 0.0568,0.25251 0.0709,0.53183 0.0709,0.85135 l 0,2.15203 c 0,0.10341 -2.3e-4,0.20688 0,0.30743 l 0,0.0236 c 0.0148,0.27187 0.0473,0.52566 0.14189,0.7804 0.13027,0.31594 0.31687,0.60043 0.54391,0.82771 0.2354,0.2165 0.51889,0.3843 0.82771,0.49662 0.31659,0.10236 0.65208,0.14189 1.01689,0.14189 0.69265,0 1.27956,-0.17302 1.72635,-0.54392 0.26511,-0.21531 0.36422,-0.54025 0.52027,-0.8277 l 0,1.04054 0,0.18918 0.18919,0 0.26013,0 0.1892,0 0,-0.18918 0,-6.69257 0,-0.18919 -0.1892,0 -0.26013,0 -0.18919,0 0,0.18919 0,3.78378 c 0,0.35647 -0.0436,0.69726 -0.14189,1.0169 -0.0977,0.31804 -0.23238,0.60962 -0.42568,0.85135 -0.18258,0.2303 -0.42746,0.39894 -0.70945,0.54391 -0.27496,0.13362 -0.59337,0.21284 -0.9696,0.21284 -0.26907,0 -0.51385,-0.0452 -0.75675,-0.11824 -0.23066,-0.0796 -0.43357,-0.19702 -0.61487,-0.35473 -0.16431,-0.16064 -0.30051,-0.34944 -0.40192,-0.59121 -0.0942,-0.23196 -0.11824,-0.55886 -0.11824,-0.94595 l 0,-2.10473 c 0,-0.37664 -0.0213,-0.7283 -0.0946,-1.04054 -0.0747,-0.32716 -0.21744,-0.5943 -0.40203,-0.8277 -0.18454,-0.24269 -0.41471,-0.43447 -0.70946,-0.56757 -0.30188,-0.13637 -0.68441,-0.21284 -1.11149,-0.21284 -0.55581,0 -1.05064,0.16107 -1.46622,0.47297 -0.32756,0.24578 -0.50408,0.59847 -0.66215,0.96959 -0.14123,-0.37713 -0.28616,-0.7553 -0.59122,-0.99323 -0.38479,-0.31761 -0.88507,-0.46809 -1.44257,-0.44933 z"
         id="path3910"
         inkscape:connector-curvature="0"
         sodipodi:nodetypes="sssccccssscsccccssssssssccccccccccccccccsccccscccsccccccscccsccccsscccccsccccccccccccccscccscccsscccscccc" />
      <path
         sodipodi:nodetypes="sssccccssscsccccssssssssccccccccccccccccsccccscccsccccccscccsccccsscccccsccccccccccccccscccscccsscccscccc"
         inkscape:connector-curvature="0"
         id="path3912"
         d="m 427.46621,143.99297 c -0.65454,0 -1.32161,0.19268 -1.82432,0.60811 -0.50271,0.41544 -0.83108,1.06193 -0.83108,1.86487 l 0,0.16216 0.16217,0 0.2027,0 0.16215,0 0,-0.16216 c 0,-0.643 0.27352,-1.11492 0.66893,-1.43919 0.3954,-0.32426 0.92667,-0.50675 1.45945,-0.50675 0.54135,0 1.02389,0.18224 1.37839,0.48648 0.39952,0.34302 0.6081,0.83864 0.6081,1.45946 l 0,0.16216 0.16217,0 0.22296,0 0.16217,0 0,-0.16216 c 0,-0.76114 -0.26774,-1.41608 -0.79054,-1.86487 -0.45882,-0.39384 -1.08176,-0.60811 -1.74324,-0.60811 z m 0,1.92568 c -0.22859,0 -0.4054,0.19709 -0.4054,0.42568 0,0.22792 0.17643,0.4054 0.4054,0.4054 0.22863,0 0.42568,-0.17678 0.42568,-0.4054 0,-0.22866 -0.19712,-0.42568 -0.42568,-0.42568 z m -7.23648,1.76351 c -0.24313,0 -0.46866,0.0521 -0.68919,0.14191 -0.21087,0.0812 -0.41023,0.19131 -0.58784,0.34458 -0.16303,0.14078 -0.29109,0.32608 -0.4054,0.50676 l 0,-0.68919 0,-0.16215 -0.16217,0 -0.22296,0 -0.16217,0 0,0.16215 0,5.73649 0,0.16217 0.16217,0 0.22296,0 0.16217,0 0,-0.16217 0,-3.24325 c 0,-0.30679 0.0439,-0.59634 0.12162,-0.87162 0.0849,-0.276 0.19998,-0.50989 0.34459,-0.70945 0.15086,-0.20574 0.31709,-0.37131 0.52703,-0.48648 l 0.0202,0 c 0.20604,-0.11975 0.41122,-0.18245 0.66891,-0.18245 0.30252,0 0.53991,0.0538 0.70947,0.1419 0.17808,0.0921 0.30896,0.21096 0.4054,0.36487 0.099,0.15871 0.16839,0.34793 0.2027,0.56755 0.0428,0.22765 0.0811,0.47073 0.0811,0.72975 l 0,3.68919 0,0.16216 0.16216,0 0.22298,0 0.16216,0 0,-0.16216 0,-3.62838 c 0,-0.25076 0.0253,-0.48831 0.10135,-0.70946 0.076,-0.22785 0.18149,-0.43804 0.32432,-0.60812 0.14193,-0.16879 0.32407,-0.29043 0.52703,-0.38513 0.19972,-0.0999 0.41586,-0.16217 0.66892,-0.16217 0.29684,0 0.53613,0.0445 0.70946,0.12162 0.18571,0.0796 0.32488,0.20601 0.42568,0.34461 0.10996,0.14231 0.18228,0.31768 0.22297,0.52702 l 0.0203,0 c 0.0487,0.21643 0.0607,0.45585 0.0607,0.72973 l 0,1.84459 c 0,0.0886 -1.9e-4,0.17732 0,0.26351 l 0,0.0203 c 0.0127,0.23305 0.0405,0.45057 0.12162,0.66893 0.11166,0.27079 0.27161,0.51465 0.46622,0.70945 0.20176,0.18559 0.44475,0.32941 0.70946,0.42568 0.27136,0.0877 0.55892,0.12162 0.87162,0.12162 0.5937,0 1.09677,-0.1483 1.47973,-0.46621 0.22723,-0.18456 0.31218,-0.46308 0.44595,-0.70947 l 0,0.8919 0,0.16215 0.16215,0 0.22298,0 0.16216,0 0,-0.16215 0,-5.73649 0,-0.16217 -0.16216,0 -0.22298,0 -0.16215,0 0,0.16217 0,3.24324 c 0,0.30555 -0.0374,0.59765 -0.12162,0.87163 -0.0837,0.27261 -0.19919,0.52253 -0.36487,0.72972 -0.1565,0.1974 -0.3664,0.34196 -0.60811,0.46622 -0.23568,0.11452 -0.5086,0.18243 -0.83108,0.18243 -0.23063,0 -0.44045,-0.0388 -0.64865,-0.10135 -0.1977,-0.0682 -0.37162,-0.16887 -0.52703,-0.30406 -0.14083,-0.13769 -0.25758,-0.29952 -0.3445,-0.50675 -0.0808,-0.19882 -0.10134,-0.47902 -0.10134,-0.81081 l 0,-1.80406 c 0,-0.32283 -0.0182,-0.62425 -0.0811,-0.89189 -0.0641,-0.28042 -0.18637,-0.50939 -0.34459,-0.70945 -0.15818,-0.20802 -0.35546,-0.37241 -0.60811,-0.48649 -0.25876,-0.11689 -0.58663,-0.18244 -0.9527,-0.18244 -0.47642,0 -0.90056,0.13806 -1.25676,0.40541 -0.28077,0.21066 -0.43208,0.51297 -0.56756,0.83108 -0.12105,-0.32326 -0.24528,-0.64741 -0.50676,-0.85135 -0.32982,-0.27223 -0.75864,-0.40122 -1.23649,-0.38514 z"
         style="font-size:medium;font-style:normal;font-variant:normal;font-weight:normal;font-stretch:normal;text-indent:0;text-align:start;text-decoration:none;line-height:normal;letter-spacing:normal;word-spacing:normal;text-transform:none;direction:ltr;block-progression:tb;writing-mode:lr-tb;text-anchor:start;baseline-shift:baseline;opacity:0.4;color:#000000;fill:#ffffff;fill-opacity:1;fill-rule:nonzero;stroke:none;stroke-width:0.5;marker:none;visibility:visible;display:inline;overflow:visible;enable-background:accumulate;font-family:Sans;-inkscape-font-specification:Sans" />
      <path
         style="display:inline;enable-background:new"
         d="M 185.53125 97.84375 C 170.66326 97.84375 155.59375 107.34986 155.59375 125.53125 L 158.15625 125.53125 C 158.15625 109.02909 171.93231 100.40625 185.53125 100.40625 C 192.43519 100.40625 198.79015 102.60513 203.4375 106.59375 C 208.67868 111.09376 211.4375 117.63428 211.4375 125.53125 L 214 125.53125 C 214 116.86559 210.91888 109.65663 205.09375 104.65625 C 199.98343 100.26954 193.04443 97.84375 185.53125 97.84375 z M 185.65625 121.03125 C 183.96161 121.03125 182.59375 122.39911 182.59375 124.09375 C 182.59375 125.78731 183.95171 127.15625 185.65625 127.15625 C 187.3498 127.15625 188.71875 125.78731 188.71875 124.09375 C 188.71875 122.39911 187.3498 121.03125 185.65625 121.03125 z M 98.90625 142.25 C 96.226249 142.25 93.692923 142.73674 91.28125 143.71875 C 88.959782 144.61281 86.810029 145.89692 84.84375 147.59375 C 82.878598 149.29061 81.244578 151.26648 79.90625 153.5 C 78.565705 155.73129 77.563233 158.16488 76.9375 160.84375 L 76.6875 160.84375 L 76.6875 143.84375 L 74 143.84375 L 74 212.6875 L 76.6875 212.6875 L 76.6875 173.71875 C 76.6875 169.87637 77.17311 166.2026 78.15625 162.71875 C 79.227341 159.23707 80.687518 156.21261 82.5625 153.625 C 84.527652 150.945 86.917367 148.83225 89.6875 147.3125 C 92.454362 145.70471 95.511473 144.90625 98.90625 144.90625 C 102.7442 144.90625 105.87179 145.52979 108.28125 146.78125 C 110.69397 148.02941 112.56458 149.73387 113.90625 151.875 C 115.24349 154.01944 116.14727 156.51685 116.59375 159.375 C 117.1315 162.23313 117.40625 165.28338 117.40625 168.5 L 117.40625 212.6875 L 120.0625 212.6875 L 120.0625 169.03125 C 120.0625 165.81572 120.58045 162.76219 121.5625 159.90625 C 122.54451 156.96123 123.96986 154.38754 125.84375 152.15625 C 127.71986 149.92491 129.97629 148.18787 132.65625 146.9375 C 135.33403 145.59808 138.35054 144.90625 141.65625 144.90625 C 145.40624 144.90625 148.46445 145.45794 150.875 146.53125 C 153.37572 147.60237 155.35274 149.12969 156.78125 151.09375 C 158.29884 153.05781 159.33725 155.42068 159.875 158.1875 C 160.49743 160.95767 160.78125 164.0137 160.78125 167.40625 L 160.875 189.4375 C 160.875 190.5031 160.872 191.69166 160.875 192.71875 C 161.02455 195.47354 161.24148 197.92259 162.09375 200.21875 C 163.34521 203.25394 165.04637 205.85665 167.1875 208 C 169.421 210.05423 171.99249 211.61638 174.9375 212.6875 C 177.97488 213.66952 181.30206 214.15625 184.875 214.15625 C 191.66237 214.15625 197.14838 212.42027 201.34375 208.9375 C 205.62929 205.45696 208.40808 201.04747 209.65625 195.6875 L 209.90625 195.6875 L 209.90625 212.6875 L 212.5625 212.6875 L 212.59375 212.6875 L 212.59375 143.84375 L 209.90625 143.84375 L 209.90625 182.8125 C 209.90625 186.65267 209.3836 190.32974 208.3125 193.8125 C 207.24248 197.29636 205.64223 200.35238 203.5 203.03125 C 201.44686 205.62109 198.84411 207.73709 195.71875 209.34375 C 192.5934 210.86245 188.98239 211.625 184.875 211.625 C 181.92779 211.625 179.11748 211.21233 176.4375 210.40625 C 173.84879 209.51219 171.523 208.19328 169.46875 206.40625 C 167.50468 204.53236 165.94253 202.20658 164.78125 199.4375 C 163.61996 196.57937 163.5 193.04846 163.5 189.03125 L 163.46875 167.40625 C 163.46875 163.65625 163.11887 160.28519 162.40625 157.25 C 161.69145 154.12246 160.47809 151.48927 158.78125 149.34375 C 157.0855 147.11358 154.8628 145.37538 152.09375 144.125 C 149.32579 142.87463 145.85272 142.25 141.65625 142.25 C 136.29632 142.25 131.64688 143.70796 127.71875 146.65625 C 123.7906 149.60349 121.15305 153.49141 119.8125 158.3125 L 119.53125 158.3125 C 118.36887 153.22417 115.9756 149.26328 112.3125 146.40625 C 108.74178 143.45905 104.264 142.06966 98.90625 142.25 z "
         id="path6" />
      <path
         style="display:inline;enable-background:new"
         id="path3875"
         d="m 353.7991,51.075895 c -6.37201,0 -12.83036,4.07404 -12.83036,11.86607 l 1.09821,0 c 0,-7.07236 5.90402,-10.76786 11.73215,-10.76786 2.95882,0 5.68237,0.94238 7.6741,2.65179 2.24622,1.92857 3.42858,4.73165 3.42858,8.11607 l 1.09821,0 c 0,-3.71386 -1.32049,-6.80341 -3.81696,-8.94643 -2.19015,-1.88002 -5.16401,-2.91964 -8.38393,-2.91964 z m 0.0536,9.9375 c -0.72629,0 -1.3125,0.58622 -1.3125,1.3125 0,0.72581 0.58198,1.3125 1.3125,1.3125 0.7258,0 1.3125,-0.58669 1.3125,-1.3125 0,-0.72628 -0.5867,-1.3125 -1.3125,-1.3125 z m -37.17858,9.09375 c -1.14857,0 -2.23428,0.2086 -3.26785,0.62946 -0.99492,0.38317 -1.91624,0.9335 -2.75893,1.66071 -0.84221,0.72723 -1.54251,1.57403 -2.11607,2.53125 -0.57452,0.95627 -1.00416,1.99924 -1.27233,3.14733 l -0.10714,0 0,-7.28572 -1.15178,0 0,29.504475 1.15178,0 0,-16.700905 c 0,-1.64673 0.20812,-3.2212 0.62947,-4.71428 0.45903,-1.49215 1.08482,-2.78835 1.88839,-3.89732 0.84221,-1.14858 1.86637,-2.05404 3.05357,-2.70536 1.1858,-0.68905 2.49599,-1.03125 3.95089,-1.03125 1.64484,0 2.98523,0.26723 4.01786,0.80357 1.03402,0.53493 1.83571,1.26541 2.41071,2.18304 0.57311,0.91904 0.96044,1.98936 1.15179,3.21428 0.23046,1.22491 0.34821,2.53216 0.34821,3.91072 l 0,18.937505 1.1384,0 0,-18.709835 c 0,-1.37808 0.22198,-2.68674 0.64285,-3.91071 0.42086,-1.26215 1.03173,-2.36516 1.83483,-3.32143 0.80404,-0.95629 1.77108,-1.70073 2.91964,-2.23661 1.14761,-0.57403 2.4404,-0.87053 3.85714,-0.87053 1.60713,0 2.91781,0.23644 3.95089,0.69643 1.07175,0.45905 1.91903,1.11361 2.53125,1.95535 0.65039,0.84174 1.09543,1.8544 1.32589,3.04018 0.26676,1.18722 0.3884,2.49695 0.3884,3.9509 l 0.0402,9.44196 c 0,0.45669 -10e-4,0.96607 0,1.40625 0.0641,1.18062 0.15708,2.23022 0.52233,3.21429 0.53634,1.30079 1.2654,2.41624 2.18304,3.33482 0.9572,0.88038 2.05927,1.54987 3.32142,2.008925 1.30173,0.42086 2.72767,0.62946 4.25893,0.62946 2.90887,0 5.26002,-0.74399 7.05803,-2.236605 1.83667,-1.49166 3.02757,-3.38144 3.5625,-5.67857 l 0.10716,0 0,7.285715 1.13838,0 0.0134,0 0,-29.504465 -1.15178,0 0,16.70089 c 0,1.64579 -0.224,3.22168 -0.68304,4.71429 -0.45858,1.49308 -1.1444,2.80281 -2.0625,3.95089 -0.87992,1.10993 -1.99538,2.01679 -3.33482,2.70536 -1.33944,0.65087 -2.88701,0.97768 -4.64732,0.97768 -1.26309,0 -2.46751,-0.17686 -3.61607,-0.52232 -1.10945,-0.38317 -2.10622,-0.94842 -2.98661,-1.71429 -0.84175,-0.80309 -1.51124,-1.79986 -2.00893,-2.98661 -0.4977,-1.22491 -0.54911,-2.73816 -0.54911,-4.45982 l -0.0134,-9.26785 c 0,-1.60715 -0.14995,-3.05189 -0.45536,-4.35268 -0.30634,-1.34038 -0.82635,-2.46889 -1.55357,-3.3884 -0.72674,-0.95578 -1.67933,-1.70073 -2.86606,-2.2366 -1.18628,-0.53588 -2.67473,-0.80357 -4.47321,-0.80357 -2.29713,0 -4.28974,0.62484 -5.97322,1.88839 -1.6835,1.2631 -2.81388,2.92935 -3.3884,4.99553 l -0.12053,0 c -0.49817,-2.18071 -1.52385,-3.87823 -3.09375,-5.10267 -1.53031,-1.26309 -3.44936,-1.85854 -5.74554,-1.78125 z"
         inkscape:connector-curvature="0" />
      <path
         style="display:inline;enable-background:new"
         inkscape:connector-curvature="0"
         d="m 331.86607,155.38392 c -4.24801,0 -8.55358,2.71603 -8.55358,7.91072 l 0.73214,0 c 0,-4.71491 3.93602,-7.17858 7.82144,-7.17858 1.97255,0 3.78825,0.62826 5.11607,1.76786 1.49748,1.28572 2.28572,3.15444 2.28572,5.41072 l 0.73214,0 c 0,-2.47591 -0.88033,-4.53561 -2.54464,-5.96429 -1.4601,-1.25335 -3.44268,-1.94643 -5.58929,-1.94643 z m 0.0357,6.62501 c -0.48419,0 -0.875,0.39081 -0.875,0.875 0,0.48387 0.38799,0.875 0.875,0.875 0.48387,0 0.875,-0.39113 0.875,-0.875 0,-0.48419 -0.39113,-0.875 -0.875,-0.875 z m -24.78573,6.0625 c -0.76571,0 -1.48952,0.13907 -2.17857,0.41964 -0.66328,0.25545 -1.27749,0.62233 -1.83929,1.10714 -0.56147,0.48482 -1.02834,1.04935 -1.41071,1.6875 -0.38301,0.63751 -0.66944,1.33283 -0.84822,2.09822 l -0.0714,0 0,-4.85715 -0.76785,0 0,19.66967 0.76785,0 0,-11.13395 c 0,-1.09782 0.13875,-2.14747 0.41965,-3.14285 0.30602,-0.99477 0.72321,-1.85891 1.25893,-2.59822 0.56147,-0.76572 1.24425,-1.36936 2.03571,-1.80357 0.79054,-0.45937 1.664,-0.6875 2.63393,-0.6875 1.09656,0 1.99015,0.17815 2.67857,0.53571 0.68935,0.35662 1.22381,0.84361 1.60715,1.45536 0.38207,0.61269 0.64029,1.32624 0.76786,2.14286 0.15364,0.8166 0.23214,1.6881 0.23214,2.60714 l 0,12.62502 0.75893,0 0,-12.47324 c 0,-0.91872 0.14799,-1.79116 0.42857,-2.60714 0.28057,-0.84143 0.68782,-1.57677 1.22322,-2.21429 0.53602,-0.63752 1.18072,-1.13382 1.94643,-1.49107 0.76507,-0.38269 1.62693,-0.58035 2.57142,-0.58035 1.07142,0 1.94521,0.15762 2.63393,0.46428 0.7145,0.30604 1.27935,0.74241 1.6875,1.30357 0.4336,0.56116 0.73029,1.23627 0.88393,2.02679 0.17784,0.79148 0.25893,1.66463 0.25893,2.63393 l 0.0268,6.29465 c 0,0.30446 -6.6e-4,0.64404 0,0.9375 0.0427,0.78708 0.10472,1.48681 0.34822,2.14286 0.35756,0.86719 0.8436,1.61083 1.45536,2.22321 0.63814,0.58692 1.37285,1.03325 2.21428,1.33929 0.86782,0.28057 1.81845,0.41964 2.83929,0.41964 1.93925,0 3.50668,-0.49599 4.70536,-1.49107 1.22445,-0.99444 2.01838,-2.2543 2.375,-3.78572 l 0.0714,0 0,4.85715 0.75892,0 0.009,0 0,-19.66966 -0.76785,0 0,11.13394 c 0,1.09719 -0.14933,2.14778 -0.45536,3.14286 -0.30572,0.99538 -0.76293,1.86854 -1.375,2.63392 -0.58662,0.73996 -1.33026,1.34453 -2.22322,1.80358 -0.89296,0.43391 -1.92467,0.65179 -3.09821,0.65179 -0.84206,0 -1.64501,-0.11791 -2.41072,-0.34822 -0.73963,-0.25544 -1.40414,-0.63228 -1.99107,-1.14286 -0.56117,-0.53539 -1.00749,-1.19991 -1.33929,-1.99107 -0.3318,-0.81661 -0.36607,-1.82544 -0.36607,-2.97322 l -0.009,-6.17857 c 0,-1.07143 -0.1,-2.03459 -0.30358,-2.90178 -0.20422,-0.89359 -0.5509,-1.64593 -1.03571,-2.25894 -0.48449,-0.63719 -1.11956,-1.13382 -1.91071,-1.49107 -0.79085,-0.35725 -1.78315,-0.53571 -2.98214,-0.53571 -1.53142,0 -2.85983,0.41656 -3.98215,1.25893 -1.12233,0.84206 -1.87592,1.9529 -2.25893,3.33035 l -0.0804,0 c -0.33211,-1.45381 -1.0159,-2.58549 -2.0625,-3.40178 -1.02021,-0.84206 -2.29957,-1.23903 -3.83036,-1.1875 z"
         id="path3877" />
      <path
         style="display:inline;enable-background:new"
         id="path3879"
         d="m 320.30626,232.36874 c -2.97361,0 -5.98751,1.90122 -5.98751,5.5375 l 0.5125,0 c 0,-3.30044 2.75521,-5.025 5.47501,-5.025 1.38078,0 2.65177,0.43978 3.58125,1.2375 1.04823,0.9 1.6,2.20811 1.6,3.7875 l 0.5125,0 c 0,-1.73314 -0.61623,-3.17493 -1.78125,-4.175 -1.02207,-0.87735 -2.40987,-1.3625 -3.9125,-1.3625 z m 0.025,4.6375 c -0.33893,0 -0.6125,0.27357 -0.6125,0.6125 0,0.33871 0.27159,0.6125 0.6125,0.6125 0.33871,0 0.6125,-0.27379 0.6125,-0.6125 0,-0.33893 -0.27379,-0.6125 -0.6125,-0.6125 z m -17.35001,4.24375 c -0.536,0 -1.04267,0.0973 -1.525,0.29375 -0.4643,0.17882 -0.89424,0.43563 -1.2875,0.775 -0.39303,0.33937 -0.71984,0.73455 -0.9875,1.18125 -0.26811,0.44626 -0.46861,0.93298 -0.59376,1.46875 l -0.05,0 0,-3.4 -0.5375,0 0,13.76877 0.5375,0 0,-7.79377 c 0,-0.76847 0.0971,-1.50323 0.29375,-2.19999 0.21421,-0.69634 0.50625,-1.30124 0.88125,-1.81876 0.39303,-0.536 0.87098,-0.95855 1.425,-1.26249 0.55338,-0.32156 1.1648,-0.48125 1.84375,-0.48125 0.76759,0 1.3931,0.1247 1.875,0.37499 0.48254,0.24964 0.85666,0.59053 1.125,1.01875 0.26745,0.42889 0.44821,0.92837 0.5375,1.50001 0.10755,0.57162 0.1625,1.18167 0.1625,1.82499 l 0,8.83752 0.53125,0 0,-8.73127 c 0,-0.6431 0.1036,-1.2538 0.3,-1.82499 0.1964,-0.589 0.48148,-1.10374 0.85626,-1.55001 0.37521,-0.44626 0.8265,-0.79367 1.3625,-1.04374 0.53555,-0.26788 1.13885,-0.40624 1.79999,-0.40624 0.75,0 1.36165,0.11033 1.84375,0.32499 0.50015,0.21423 0.89555,0.51969 1.18125,0.9125 0.30352,0.39281 0.51121,0.86539 0.61875,1.41875 0.12449,0.55403 0.18126,1.16524 0.18126,1.84375 l 0.0188,4.40626 c 0,0.21312 -4.7e-4,0.45082 0,0.65625 0.0299,0.55096 0.0733,1.04077 0.24375,1.5 0.25029,0.60703 0.59052,1.12757 1.01875,1.55625 0.4467,0.41084 0.961,0.72327 1.55,0.9375 0.60747,0.1964 1.27291,0.29374 1.9875,0.29374 1.35748,0 2.45468,-0.34719 3.29375,-1.04374 0.85712,-0.69611 1.41287,-1.57801 1.6625,-2.65 l 0.05,0 0,3.4 0.53125,0 0.006,0 0,-13.76876 -0.5375,0 0,7.79376 c 0,0.76803 -0.10453,1.50344 -0.31875,2.2 -0.214,0.69676 -0.53405,1.30797 -0.9625,1.84374 -0.41064,0.51797 -0.93118,0.94116 -1.55626,1.2625 -0.62507,0.30374 -1.34726,0.45626 -2.16874,0.45626 -0.58944,0 -1.15151,-0.0825 -1.68751,-0.24376 -0.51774,-0.17881 -0.98289,-0.4426 -1.39375,-0.8 -0.39281,-0.37478 -0.70524,-0.83994 -0.9375,-1.39375 -0.23226,-0.57163 -0.25625,-1.27781 -0.25625,-2.08126 l -0.006,-4.32499 c 0,-0.75 -0.07,-1.42421 -0.2125,-2.03124 -0.14296,-0.62551 -0.38563,-1.15216 -0.725,-1.58126 -0.33914,-0.44603 -0.78369,-0.79367 -1.3375,-1.04375 -0.55359,-0.25007 -1.2482,-0.375 -2.08749,-0.375 -1.072,0 -2.00189,0.2916 -2.78751,0.88126 -0.78563,0.58944 -1.31314,1.36703 -1.58125,2.33124 l -0.0563,0 c -0.23248,-1.01767 -0.71113,-1.80984 -1.44375,-2.38125 -0.71415,-0.58944 -1.6097,-0.86732 -2.68125,-0.83125 z"
         inkscape:connector-curvature="0" />
      <path
         style="display:inline;enable-background:accumulate;font-size:medium;font-style:normal;font-variant:normal;font-weight:normal;font-stretch:normal;text-indent:0;text-align:start;text-decoration:none;line-height:normal;letter-spacing:normal;word-spacing:normal;text-transform:none;direction:ltr;block-progression:tb;writing-mode:lr-tb;text-anchor:start;baseline-shift:baseline;color:#000000;fill:#000000;fill-opacity:1;fill-rule:nonzero;stroke:none;stroke-width:0.50000000000000000;marker:none;visibility:visible;overflow:visible;font-family:Sans;-inkscape-font-specification:Sans"
         d="m 437.34375,60.28125 c -1.00908,0 -2.03749,0.297038 -2.8125,0.9375 -0.77501,0.640462 -1.28125,1.637125 -1.28125,2.875 l 0,0.25 0.25,0 0.3125,0 0.25,0 0,-0.25 c 0,-0.991286 0.42167,-1.718838 1.03125,-2.21875 0.60958,-0.499912 1.42862,-0.78125 2.25,-0.78125 0.83457,0 1.57849,0.280957 2.125,0.75 0.61594,0.528823 0.9375,1.292897 0.9375,2.25 l 0,0.25 0.25,0 0.34375,0 0.25,0 0,-0.25 c 0,-1.173419 -0.41276,-2.183122 -1.21875,-2.875 -0.70735,-0.607189 -1.66771,-0.9375 -2.6875,-0.9375 z m 0,2.96875 c -0.35241,0 -0.625,0.303845 -0.625,0.65625 0,0.351387 0.27199,0.625 0.625,0.625 0.35246,0 0.65625,-0.272534 0.65625,-0.625 0,-0.352519 -0.3039,-0.65625 -0.65625,-0.65625 z m -11.15625,2.71875 c -0.37483,0 -0.72252,0.08031 -1.0625,0.21875 -0.32509,0.125201 -0.63244,0.294959 -0.90625,0.53125 -0.25135,0.217033 -0.44877,0.502702 -0.625,0.78125 l 0,-1.0625 0,-0.25 -0.25,0 -0.34375,0 -0.25,0 0,0.25 0,8.84375 0,0.25 0.25,0 0.34375,0 0.25,0 0,-0.25 0,-5 c 0,-0.472967 0.0677,-0.919355 0.1875,-1.34375 0.13089,-0.425498 0.3083,-0.786071 0.53125,-1.09375 0.23257,-0.317167 0.48885,-0.572438 0.8125,-0.75 l 0.0312,0 c 0.31766,-0.184589 0.63398,-0.28125 1.03125,-0.28125 0.46637,0 0.83236,0.08298 1.09375,0.21875 0.27455,0.14203 0.47632,0.32522 0.625,0.5625 0.15258,0.244675 0.2596,0.536409 0.3125,0.875 0.066,0.350948 0.125,0.725682 0.125,1.125 l 0,5.6875 0,0.25 0.25,0 0.34375,0 0.25,0 0,-0.25 0,-5.59375 c 0,-0.386576 0.039,-0.752813 0.15625,-1.09375 0.11712,-0.351244 0.2798,-0.675308 0.5,-0.9375 0.2188,-0.260229 0.4996,-0.447762 0.8125,-0.59375 0.3079,-0.154012 0.64111,-0.25 1.03125,-0.25 0.45762,0 0.82653,0.06852 1.09375,0.1875 0.2863,0.122626 0.50085,0.317599 0.65625,0.53125 0.16953,0.219421 0.28102,0.489766 0.34375,0.8125 l 0.0312,0 c 0.075,0.33368 0.0937,0.702768 0.0937,1.125 l 0,2.84375 c 0,0.136642 -3e-4,0.273379 0,0.40625 l 0,0.03125 c 0.0195,0.35926 0.0625,0.694632 0.1875,1.03125 0.17214,0.417486 0.41872,0.793427 0.71875,1.09375 0.31105,0.286095 0.68566,0.50783 1.09375,0.65625 0.41836,0.135261 0.86167,0.1875 1.34375,0.1875 0.91529,0 1.69085,-0.228634 2.28125,-0.71875 0.35032,-0.284518 0.48128,-0.713897 0.6875,-1.09375 l 0,1.375 0,0.25 0.25,0 0.34375,0 0.25,0 0,-0.25 0,-8.84375 0,-0.25 -0.25,0 -0.34375,0 -0.25,0 0,0.25 0,5 c 0,0.471053 -0.0576,0.921381 -0.1875,1.34375 -0.12909,0.420279 -0.30707,0.805581 -0.5625,1.125 -0.24127,0.304328 -0.56486,0.527184 -0.9375,0.71875 -0.36334,0.176555 -0.78409,0.28125 -1.28125,0.28125 -0.35556,0 -0.67902,-0.05974 -1,-0.15625 -0.30479,-0.105266 -0.57292,-0.260339 -0.8125,-0.46875 C 435.22023,74.068967 435.04024,73.819486 434.90625,73.5 434.78171,73.193489 434.75,72.761522 434.75,72.25 l 0,-2.78125 c 0,-0.497701 -0.0281,-0.962399 -0.125,-1.375 -0.0988,-0.43231 -0.28733,-0.78532 -0.53125,-1.09375 -0.24385,-0.320692 -0.54801,-0.574125 -0.9375,-0.75 -0.39892,-0.180202 -0.90439,-0.28125 -1.46875,-0.28125 -0.73447,0 -1.38836,0.212834 -1.9375,0.625 -0.43286,0.324769 -0.66612,0.790835 -0.875,1.28125 -0.18661,-0.498355 -0.37814,-0.998094 -0.78125,-1.3125 -0.50847,-0.41969 -1.16956,-0.618548 -1.90625,-0.59375 z"
         id="path3881"
         inkscape:connector-curvature="0"
         sodipodi:nodetypes="sssccccssscsccccssssssssccccccccccccccccsccccscccsccccccscccsccccsscccccsccccccccccccccscccscccsscccscccc" />
      <path
         sodipodi:nodetypes="sssccccssscsccccssssssssccccccccccccccccsccccscccsccccccscccsccccsscccccsccccccccccccccscccscccsscccscccc"
         inkscape:connector-curvature="0"
         id="path3889"
         d="m 432.04392,106.15881 c -0.76363,0 -1.54188,0.22478 -2.12838,0.70946 -0.58649,0.48468 -0.9696,1.23891 -0.9696,2.17567 l 0,0.1892 0.1892,0 0.23648,0 0.18919,0 0,-0.1892 c 0,-0.75016 0.3191,-1.30074 0.78041,-1.67905 0.4613,-0.37831 1.08111,-0.59121 1.7027,-0.59121 0.63156,0 1.19453,0.21261 1.60811,0.56756 0.46611,0.40019 0.70946,0.97841 0.70946,1.7027 l 0,0.1892 0.18919,0 0.26013,0 0.18919,0 0,-0.1892 c 0,-0.88799 -0.31236,-1.65209 -0.92229,-2.17567 -0.5353,-0.45949 -1.26206,-0.70946 -2.03379,-0.70946 z m 0,2.24662 c -0.26669,0 -0.47298,0.22994 -0.47298,0.49662 0,0.26592 0.20584,0.47298 0.47298,0.47298 0.26672,0 0.49662,-0.20625 0.49662,-0.47298 0,-0.26677 -0.22998,-0.49662 -0.49662,-0.49662 z m -8.44257,2.05743 c -0.28365,0 -0.54677,0.0608 -0.80406,0.16554 -0.246,0.0948 -0.47859,0.22322 -0.6858,0.40203 -0.19021,0.16424 -0.33962,0.38042 -0.47298,0.59122 l 0,-0.80405 0,-0.1892 -0.18919,0 -0.26013,0 -0.18919,0 0,0.1892 0,6.69256 0,0.18919 0.18919,0 0.26013,0 0.18919,0 0,-0.18919 0,-3.78378 c 0,-0.35792 0.0512,-0.69573 0.14189,-1.01689 0.0991,-0.322 0.23331,-0.59487 0.40203,-0.82771 0.176,-0.24001 0.36994,-0.4332 0.61486,-0.56756 l 0.0236,0 c 0.24039,-0.13969 0.47976,-0.21284 0.7804,-0.21284 0.35293,0 0.6299,0.0628 0.82771,0.16554 0.20776,0.10748 0.36045,0.24611 0.47297,0.42568 0.11547,0.18515 0.19646,0.40593 0.23649,0.66215 0.05,0.26559 0.0946,0.54917 0.0946,0.85136 l 0,4.30405 0,0.18919 0.1892,0 0.26013,0 0.18919,0 0,-0.18919 0,-4.23311 c 0,-0.29254 0.0295,-0.56969 0.11825,-0.8277 0.0886,-0.26581 0.21174,-0.51105 0.37837,-0.70946 0.16558,-0.19693 0.37808,-0.33884 0.61486,-0.44932 0.23302,-0.11655 0.48517,-0.18919 0.78042,-0.18919 0.3463,0 0.62547,0.0519 0.82769,0.14189 0.21666,0.0928 0.37903,0.24034 0.49663,0.40202 0.12829,0.16605 0.21266,0.37064 0.26014,0.61487 l 0.0236,0 c 0.0568,0.25251 0.0709,0.53183 0.0709,0.85135 l 0,2.15203 c 0,0.10341 -2.3e-4,0.20688 0,0.30743 l 0,0.0236 c 0.0148,0.27187 0.0473,0.52566 0.14189,0.7804 0.13027,0.31594 0.31687,0.60043 0.54391,0.82771 0.2354,0.2165 0.51889,0.3843 0.82771,0.49662 0.31659,0.10236 0.65208,0.14189 1.01689,0.14189 0.69265,0 1.27956,-0.17302 1.72635,-0.54392 0.26511,-0.21531 0.36422,-0.54025 0.52027,-0.8277 l 0,1.04054 0,0.18918 0.18919,0 0.26013,0 0.1892,0 0,-0.18918 0,-6.69257 0,-0.18919 -0.1892,0 -0.26013,0 -0.18919,0 0,0.18919 0,3.78378 c 0,0.35647 -0.0436,0.69726 -0.14189,1.0169 -0.0977,0.31804 -0.23238,0.60962 -0.42568,0.85135 -0.18258,0.2303 -0.42746,0.39894 -0.70945,0.54391 -0.27496,0.13362 -0.59337,0.21284 -0.9696,0.21284 -0.26907,0 -0.51385,-0.0452 -0.75675,-0.11824 -0.23066,-0.0796 -0.43357,-0.19702 -0.61487,-0.35473 -0.16431,-0.16064 -0.30051,-0.34944 -0.40192,-0.59121 -0.0942,-0.23196 -0.11824,-0.55886 -0.11824,-0.94595 l 0,-2.10473 c 0,-0.37664 -0.0213,-0.7283 -0.0946,-1.04054 -0.0747,-0.32716 -0.21744,-0.5943 -0.40203,-0.8277 -0.18454,-0.24269 -0.41471,-0.43447 -0.70946,-0.56757 -0.30188,-0.13637 -0.68441,-0.21284 -1.11149,-0.21284 -0.55581,0 -1.05064,0.16107 -1.46622,0.47297 -0.32756,0.24578 -0.50408,0.59847 -0.66215,0.96959 -0.14123,-0.37713 -0.28616,-0.7553 -0.59122,-0.99323 -0.38479,-0.31761 -0.88507,-0.46809 -1.44257,-0.44933 z"
         style="font-size:medium;font-style:normal;font-variant:normal;font-weight:normal;font-stretch:normal;text-indent:0;text-align:start;text-decoration:none;line-height:normal;letter-spacing:normal;word-spacing:normal;text-transform:none;direction:ltr;block-progression:tb;writing-mode:lr-tb;text-anchor:start;baseline-shift:baseline;color:#000000;fill:#000000;fill-opacity:1;fill-rule:nonzero;stroke:none;stroke-width:0.5;marker:none;visibility:visible;display:inline;overflow:visible;enable-background:accumulate;font-family:Sans;-inkscape-font-specification:Sans" />
      <path
         style="display:inline;enable-background:accumulate;font-size:medium;font-style:normal;font-variant:normal;font-weight:normal;font-stretch:normal;text-indent:0;text-align:start;text-decoration:none;line-height:normal;letter-spacing:normal;word-spacing:normal;text-transform:none;direction:ltr;block-progression:tb;writing-mode:lr-tb;text-anchor:start;baseline-shift:baseline;color:#000000;fill:#000000;fill-opacity:1;fill-rule:nonzero;stroke:none;stroke-width:0.50000000000000000;marker:none;visibility:visible;overflow:visible;font-family:Sans;-inkscape-font-specification:Sans"
         d="m 427.46621,142.99322 c -0.65454,0 -1.32161,0.19268 -1.82432,0.60811 -0.50271,0.41544 -0.83108,1.06193 -0.83108,1.86487 l 0,0.16216 0.16217,0 0.2027,0 0.16215,0 0,-0.16216 c 0,-0.643 0.27352,-1.11492 0.66893,-1.43919 0.3954,-0.32426 0.92667,-0.50675 1.45945,-0.50675 0.54135,0 1.02389,0.18224 1.37839,0.48648 0.39952,0.34302 0.6081,0.83864 0.6081,1.45946 l 0,0.16216 0.16217,0 0.22296,0 0.16217,0 0,-0.16216 c 0,-0.76114 -0.26774,-1.41608 -0.79054,-1.86487 -0.45882,-0.39384 -1.08176,-0.60811 -1.74324,-0.60811 z m 0,1.92568 c -0.22859,0 -0.4054,0.19709 -0.4054,0.42568 0,0.22792 0.17643,0.4054 0.4054,0.4054 0.22863,0 0.42568,-0.17678 0.42568,-0.4054 0,-0.22866 -0.19712,-0.42568 -0.42568,-0.42568 z m -7.23648,1.76351 c -0.24313,0 -0.46866,0.0521 -0.68919,0.14191 -0.21087,0.0812 -0.41023,0.19131 -0.58784,0.34458 -0.16303,0.14078 -0.29109,0.32608 -0.4054,0.50676 l 0,-0.68919 0,-0.16215 -0.16217,0 -0.22296,0 -0.16217,0 0,0.16215 0,5.73649 0,0.16217 0.16217,0 0.22296,0 0.16217,0 0,-0.16217 0,-3.24325 c 0,-0.30679 0.0439,-0.59634 0.12162,-0.87162 0.0849,-0.276 0.19998,-0.50989 0.34459,-0.70945 0.15086,-0.20574 0.31709,-0.37131 0.52703,-0.48648 l 0.0202,0 c 0.20604,-0.11975 0.41122,-0.18245 0.66891,-0.18245 0.30252,0 0.53991,0.0538 0.70947,0.1419 0.17808,0.0921 0.30896,0.21096 0.4054,0.36487 0.099,0.15871 0.16839,0.34793 0.2027,0.56755 0.0428,0.22765 0.0811,0.47073 0.0811,0.72975 l 0,3.68919 0,0.16216 0.16216,0 0.22298,0 0.16216,0 0,-0.16216 0,-3.62838 c 0,-0.25076 0.0253,-0.48831 0.10135,-0.70946 0.076,-0.22785 0.18149,-0.43804 0.32432,-0.60812 0.14193,-0.16879 0.32407,-0.29043 0.52703,-0.38513 0.19972,-0.0999 0.41586,-0.16217 0.66892,-0.16217 0.29684,0 0.53613,0.0445 0.70946,0.12162 0.18571,0.0796 0.32488,0.20601 0.42568,0.34461 0.10996,0.14231 0.18228,0.31768 0.22297,0.52702 l 0.0203,0 c 0.0487,0.21643 0.0607,0.45585 0.0607,0.72973 l 0,1.84459 c 0,0.0886 -1.9e-4,0.17732 0,0.26351 l 0,0.0203 c 0.0127,0.23305 0.0405,0.45057 0.12162,0.66893 0.11166,0.27079 0.27161,0.51465 0.46622,0.70945 0.20176,0.18559 0.44475,0.32941 0.70946,0.42568 0.27136,0.0877 0.55892,0.12162 0.87162,0.12162 0.5937,0 1.09677,-0.1483 1.47973,-0.46621 0.22723,-0.18456 0.31218,-0.46308 0.44595,-0.70947 l 0,0.8919 0,0.16215 0.16215,0 0.22298,0 0.16216,0 0,-0.16215 0,-5.73649 0,-0.16217 -0.16216,0 -0.22298,0 -0.16215,0 0,0.16217 0,3.24324 c 0,0.30555 -0.0374,0.59765 -0.12162,0.87163 -0.0837,0.27261 -0.19919,0.52253 -0.36487,0.72972 -0.1565,0.1974 -0.3664,0.34196 -0.60811,0.46622 -0.23568,0.11452 -0.5086,0.18243 -0.83108,0.18243 -0.23063,0 -0.44045,-0.0388 -0.64865,-0.10135 -0.1977,-0.0682 -0.37162,-0.16887 -0.52703,-0.30406 -0.14083,-0.13769 -0.25758,-0.29952 -0.3445,-0.50675 -0.0808,-0.19882 -0.10134,-0.47902 -0.10134,-0.81081 l 0,-1.80406 c 0,-0.32283 -0.0182,-0.62425 -0.0811,-0.89189 -0.0641,-0.28042 -0.18637,-0.50939 -0.34459,-0.70945 -0.15818,-0.20802 -0.35546,-0.37241 -0.60811,-0.48649 -0.25876,-0.11689 -0.58663,-0.18244 -0.9527,-0.18244 -0.47642,0 -0.90056,0.13806 -1.25676,0.40541 -0.28077,0.21066 -0.43208,0.51297 -0.56756,0.83108 -0.12105,-0.32326 -0.24528,-0.64741 -0.50676,-0.85135 -0.32982,-0.27223 -0.75864,-0.40122 -1.23649,-0.38514 z"
         id="path3891"
         inkscape:connector-curvature="0"
         sodipodi:nodetypes="sssccccssscsccccssssssssccccccccccccccccsccccscccsccccccscccsccccsscccccsccccccccccccccscccscccsscccscccc" />
    </g>
    <g
       inkscape:groupmode="layer"
       id="layer5"
       inkscape:label="Highlights"
       style="display:inline"
       sodipodi:insensitive="true">
      <rect
         ry="9"
         y="307"
         x="-265"
         height="42"
         width="42"
         id="rect4884"
         style="opacity:0.1;color:#bebebe;fill:none;stroke:#000000;stroke-width:2;stroke-miterlimit:4;stroke-opacity:1;stroke-dasharray:none;marker:none;visibility:visible;display:inline;overflow:visible;enable-background:accumulate"
         transform="matrix(0,1,1,0,-16,488)"
         clip-path="url(#clipPath4891)" />
      <rect
         style="opacity:0.1;color:#bebebe;fill:none;stroke:#000000;stroke-width:2;stroke-miterlimit:4;stroke-opacity:1;stroke-dasharray:none;marker:none;visibility:visible;display:inline;overflow:visible;enable-background:accumulate"
         id="rect5311"
         width="16"
         height="16"
         x="-228"
         y="304"
         ry="3"
         clip-path="url(#clipPath3855)"
         transform="matrix(0,-1,1,0,112,-72)" />
      <rect
         ry="50"
         y="46"
         x="34"
         height="220"
         width="220"
         id="rect3858"
         style="opacity:0.1;color:#bebebe;fill:none;stroke:#000000;stroke-width:2;stroke-miterlimit:4;stroke-opacity:1;stroke-dasharray:none;marker:none;visibility:visible;display:inline;overflow:visible;enable-background:accumulate"
         clip-path="url(#clipPath3862)" />
      <rect
         ry="12.5"
         y="142"
         x="290"
         height="60"
         width="60"
         id="rect4175"
         style="opacity:0.1;color:#bebebe;fill:none;stroke:#000000;stroke-width:2;stroke-miterlimit:4;stroke-opacity:1;stroke-dasharray:none;marker:none;visibility:visible;display:inline;overflow:visible;enable-background:accumulate"
         clip-path="url(#clipPath4187)" />
      <rect
         style="opacity:0.1;color:#bebebe;fill:none;stroke:#000000;stroke-width:2;stroke-miterlimit:4;stroke-opacity:1;stroke-dasharray:none;marker:none;visibility:visible;display:inline;overflow:visible;enable-background:accumulate"
         id="rect4342"
         width="88"
         height="88"
         x="292"
         y="32"
         ry="18"
         clip-path="url(#clipPath4346)" />
      <rect
         ry="5"
         y="101"
         x="417"
         height="22"
         width="22"
         id="rect3866"
         style="opacity:0.1;color:#bebebe;fill:none;stroke:#000000;stroke-width:2;stroke-miterlimit:4;stroke-opacity:1;stroke-dasharray:none;marker:none;visibility:visible;display:inline;overflow:visible;enable-background:accumulate"
         clip-path="url(#clipPath3871)" />
      <rect
         style="opacity:0.1;color:#bebebe;fill:none;stroke:#000000;stroke-width:2;stroke-miterlimit:4;stroke-opacity:1;stroke-dasharray:none;marker:none;visibility:visible;display:inline;overflow:visible;enable-background:accumulate"
         id="rect3877"
         width="30"
         height="30"
         x="417"
         y="53"
         ry="7"
         clip-path="url(#clipPath3881)" />
    </g>
  </g>
</svg>
