<?xml version="1.0" encoding="UTF-8" standalone="no"?>
<!-- Created with Inkscape (http://www.inkscape.org/) -->

<svg
   xmlns:dc="http://purl.org/dc/elements/1.1/"
   xmlns:cc="http://creativecommons.org/ns#"
   xmlns:rdf="http://www.w3.org/1999/02/22-rdf-syntax-ns#"
   xmlns:svg="http://www.w3.org/2000/svg"
   xmlns="http://www.w3.org/2000/svg"
   xmlns:xlink="http://www.w3.org/1999/xlink"
   xmlns:sodipodi="http://sodipodi.sourceforge.net/DTD/sodipodi-0.dtd"
   xmlns:inkscape="http://www.inkscape.org/namespaces/inkscape"
   inkscape:export-ydpi="90.000000"
   inkscape:export-xdpi="90.000000"
   width="480"
   height="300"
   id="svg11300"
   sodipodi:version="0.32"
   inkscape:version="0.48.4 r9939"
   sodipodi:docname="picard.svg"
   inkscape:output_extension="org.inkscape.output.svg.inkscape"
   version="1.0"
   style="display:inline;enable-background:new"
   inkscape:export-filename="/home/sam/moka2-template.png">
  <sodipodi:namedview
     stroke="#ef2929"
     fill="#f57900"
     id="base"
     pagecolor="#ffffff"
     bordercolor="#666666"
     borderopacity="0.25490196"
     inkscape:pageopacity="0"
     inkscape:pageshadow="2"
     inkscape:zoom="1"
     inkscape:cx="200.56921"
     inkscape:cy="204.49271"
     inkscape:current-layer="layer7"
     showgrid="false"
     inkscape:grid-bbox="true"
     inkscape:document-units="px"
     inkscape:showpageshadow="false"
     inkscape:window-width="1364"
     inkscape:window-height="699"
     inkscape:window-x="0"
     inkscape:window-y="27"
     width="400px"
     height="300px"
     inkscape:snap-nodes="true"
     inkscape:snap-bbox="true"
     gridtolerance="10000"
     inkscape:object-nodes="true"
     inkscape:snap-grids="true"
     showguides="true"
     inkscape:guide-bbox="true"
     inkscape:window-maximized="1"
     inkscape:bbox-nodes="true"
     inkscape:bbox-paths="true"
     inkscape:snap-bbox-edge-midpoints="true"
     inkscape:snap-bbox-midpoints="true"
     inkscape:snap-global="true">
    <inkscape:grid
       spacingy="1px"
       spacingx="1px"
       id="grid5883"
       type="xygrid"
       enabled="true"
       visible="true"
       empspacing="4"
       snapvisiblegridlinesonly="true"
       dotted="false"
       color="#000000"
       opacity="0.1254902"
       empcolor="#203ef3"
       empopacity="0.36470588" />
    <inkscape:grid
       type="xygrid"
       id="grid11592"
       empspacing="8"
       visible="true"
       enabled="false"
       spacingx="0.5px"
       spacingy="0.5px"
       color="#ff0000"
       opacity="0.1254902"
       empcolor="#ff0000"
       empopacity="0.25098039"
       snapvisiblegridlinesonly="true"
       dotted="true" />
  </sodipodi:namedview>
  <defs
     id="defs3">
    <linearGradient
       inkscape:collect="always"
       id="linearGradient3860">
      <stop
         style="stop-color:#aca8c3;stop-opacity:1;"
         offset="0"
         id="stop3862" />
      <stop
         style="stop-color:#d7d5e6;stop-opacity:1"
         offset="1"
         id="stop3864" />
    </linearGradient>
    <linearGradient
       id="outerBackgroundGradient">
      <stop
         style="stop-color:#3b395d;stop-opacity:1;"
         offset="0"
         id="stop3864-8-6" />
      <stop
         style="stop-color:#4d4884;stop-opacity:1;"
         offset="1"
         id="stop3866-9-1" />
    </linearGradient>
    <linearGradient
       inkscape:collect="always"
       xlink:href="#outerBackgroundGradient"
       id="linearGradient4097"
       gradientUnits="userSpaceOnUse"
       x1="264"
       y1="280.00003"
       x2="264"
       y2="40.00005"
       gradientTransform="matrix(0.06666667,0,0,0.06666667,414.4,137.33333)" />
    <linearGradient
       inkscape:collect="always"
       xlink:href="#outerBackgroundGradient"
       id="linearGradient4101"
       gradientUnits="userSpaceOnUse"
       gradientTransform="matrix(0.0875,0,0,0.0875,414.9,97.5)"
       x1="286.85715"
       y1="302.85715"
       x2="286.85715"
       y2="28.571428" />
    <linearGradient
       inkscape:collect="always"
       xlink:href="#outerBackgroundGradient"
       id="linearGradient4153"
       gradientUnits="userSpaceOnUse"
       gradientTransform="matrix(0.11931818,0,0,0.11931818,414.13636,48.22727)"
       x1="283.80957"
       y1="299.80954"
       x2="283.80957"
       y2="31.61907" />
    <linearGradient
       inkscape:collect="always"
       xlink:href="#outerBackgroundGradient"
       id="linearGradient4869"
       gradientUnits="userSpaceOnUse"
       gradientTransform="matrix(0.175,0,0,-0.175,286.79999,-215.99997)"
       x1="281.14291"
       y1="297.14304"
       x2="281.14291"
       y2="22.857315" />
    <clipPath
       clipPathUnits="userSpaceOnUse"
       id="clipPath4891">
      <rect
         ry="9"
         y="223"
         x="307"
         height="42"
         width="42"
         id="rect4893"
         style="color:#bebebe;fill:url(#linearGradient4895);fill-opacity:1;fill-rule:nonzero;stroke:none;stroke-width:0;marker:none;visibility:visible;display:inline;overflow:visible;enable-background:accumulate"
         transform="matrix(0,1,-1,0,0,0)" />
    </clipPath>
    <linearGradient
       inkscape:collect="always"
       xlink:href="#outerBackgroundGradient"
       id="linearGradient4895"
       gradientUnits="userSpaceOnUse"
       gradientTransform="matrix(0.175,0,0,0.175,302.79999,215.99997)"
       x1="144.00006"
       y1="280.00018"
       x2="144.00006"
       y2="40.000172" />
    <clipPath
       clipPathUnits="userSpaceOnUse"
       id="clipPath4044">
      <rect
         ry="4"
         y="85"
         x="433"
         height="22"
         width="22"
         id="rect4046"
         style="color:#bebebe;fill:url(#linearGradient4048);fill-opacity:1;fill-rule:nonzero;stroke:none;stroke-width:0;marker:none;visibility:visible;display:inline;overflow:visible;enable-background:accumulate" />
    </clipPath>
    <linearGradient
       inkscape:collect="always"
       xlink:href="#outerBackgroundGradient"
       id="linearGradient4048"
       gradientUnits="userSpaceOnUse"
       gradientTransform="matrix(0.0875,0,0,0.0875,430.9,81.499996)"
       x1="149.71428"
       y1="291.42862"
       x2="149.71428"
       y2="40.000046" />
    <clipPath
       clipPathUnits="userSpaceOnUse"
       id="clipPath4089">
      <rect
         style="color:#bebebe;fill:url(#linearGradient4093);fill-opacity:1;fill-rule:nonzero;stroke:none;stroke-width:0;marker:none;visibility:visible;display:inline;overflow:visible;enable-background:accumulate"
         id="rect4091"
         width="30"
         height="30"
         x="433"
         y="37"
         ry="6" />
    </clipPath>
    <linearGradient
       inkscape:collect="always"
       xlink:href="#outerBackgroundGradient"
       id="linearGradient4093"
       gradientUnits="userSpaceOnUse"
       gradientTransform="matrix(0.11931818,0,0,0.11931818,430.13636,32.227267)"
       x1="149.71432"
       y1="291.42862"
       x2="149.71432"
       y2="40.00005" />
    <clipPath
       clipPathUnits="userSpaceOnUse"
       id="clipPath3855">
      <rect
         style="color:#bebebe;fill:url(#linearGradient3859);fill-opacity:1;fill-rule:nonzero;stroke:none;stroke-width:0;marker:none;visibility:visible;display:inline;overflow:visible;enable-background:accumulate"
         id="rect3857"
         width="16"
         height="16"
         x="304"
         y="212"
         ry="3"
         transform="matrix(0,1,-1,0,0,0)" />
    </clipPath>
    <linearGradient
       inkscape:collect="always"
       xlink:href="#outerBackgroundGradient"
       id="linearGradient3859"
       gradientUnits="userSpaceOnUse"
       gradientTransform="matrix(0.06666667,0,0,0.06666667,302.4,209.33333)"
       x1="144"
       y1="280.00003"
       x2="144"
       y2="40.00005" />
    <clipPath
       clipPathUnits="userSpaceOnUse"
       id="clipPath3862">
      <rect
         ry="50"
         y="46"
         x="34"
         height="220"
         width="220"
         id="rect3864"
         style="color:#bebebe;fill:url(#linearGradient3866);fill-opacity:1;fill-rule:nonzero;stroke:none;stroke-width:0;marker:none;visibility:visible;display:inline;overflow:visible;enable-background:accumulate" />
    </clipPath>
    <linearGradient
       inkscape:collect="always"
       xlink:href="#outerBackgroundGradient"
       id="linearGradient3866"
       gradientUnits="userSpaceOnUse"
       gradientTransform="translate(0,-4)"
       x1="144"
       y1="280"
       x2="144"
       y2="40" />
    <linearGradient
       inkscape:collect="always"
       xlink:href="#outerBackgroundGradient"
       id="linearGradient3876"
       gradientUnits="userSpaceOnUse"
       gradientTransform="translate(0,-4)"
       x1="272"
       y1="288"
       x2="272"
       y2="32" />
    <clipPath
       clipPathUnits="userSpaceOnUse"
       id="clipPath4187">
      <rect
         ry="12.5"
         y="142"
         x="290"
         height="60"
         width="60"
         id="rect4189"
         style="color:#bebebe;fill:url(#linearGradient4191);fill-opacity:1;fill-rule:nonzero;stroke:none;stroke-width:0;marker:none;visibility:visible;display:inline;overflow:visible;enable-background:accumulate" />
    </clipPath>
    <linearGradient
       inkscape:collect="always"
       xlink:href="#outerBackgroundGradient"
       id="linearGradient4191"
       gradientUnits="userSpaceOnUse"
       x1="352"
       y1="204"
       x2="352"
       y2="140" />
    <linearGradient
       inkscape:collect="always"
       xlink:href="#outerBackgroundGradient"
       id="linearGradient4197"
       gradientUnits="userSpaceOnUse"
       x1="384"
       y1="124"
       x2="384"
       y2="28" />
    <linearGradient
       inkscape:collect="always"
       xlink:href="#outerBackgroundGradient"
       id="linearGradient4199"
       gradientUnits="userSpaceOnUse"
       x1="352"
       y1="204"
       x2="352"
       y2="140" />
    <clipPath
       clipPathUnits="userSpaceOnUse"
       id="clipPath4346">
      <rect
         style="color:#bebebe;fill:url(#linearGradient4350);fill-opacity:1;fill-rule:nonzero;stroke:none;stroke-width:0;marker:none;visibility:visible;display:inline;overflow:visible;enable-background:accumulate"
         id="rect4348"
         width="88"
         height="88"
         x="292"
         y="32"
         ry="18" />
    </clipPath>
    <linearGradient
       inkscape:collect="always"
       xlink:href="#outerBackgroundGradient"
       id="linearGradient4350"
       gradientUnits="userSpaceOnUse"
       x1="384"
       y1="124"
       x2="384"
       y2="28" />
    <clipPath
       clipPathUnits="userSpaceOnUse"
       id="clipPath3871">
      <rect
         ry="5"
         y="101"
         x="417"
         height="22"
         width="22"
         id="rect3873"
         style="color:#bebebe;fill:url(#linearGradient3875);fill-opacity:1;fill-rule:nonzero;stroke:none;stroke-width:0;marker:none;visibility:visible;display:inline;overflow:visible;enable-background:accumulate" />
    </clipPath>
    <linearGradient
       inkscape:collect="always"
       xlink:href="#outerBackgroundGradient"
       id="linearGradient3875"
       gradientUnits="userSpaceOnUse"
       gradientTransform="matrix(0.0875,0,0,0.0875,414.9,97.5)"
       x1="286.85715"
       y1="302.85715"
       x2="286.85715"
       y2="28.571428" />
    <clipPath
       clipPathUnits="userSpaceOnUse"
       id="clipPath3881">
      <rect
         style="color:#bebebe;fill:url(#linearGradient3885);fill-opacity:1;fill-rule:nonzero;stroke:none;stroke-width:0;marker:none;visibility:visible;display:inline;overflow:visible;enable-background:accumulate"
         id="rect3883"
         width="30"
         height="30"
         x="417"
         y="53"
         ry="7" />
    </clipPath>
    <linearGradient
       inkscape:collect="always"
       xlink:href="#outerBackgroundGradient"
       id="linearGradient3885"
       gradientUnits="userSpaceOnUse"
       gradientTransform="matrix(0.11931818,0,0,0.11931818,414.13636,48.22727)"
       x1="283.80957"
       y1="299.80954"
       x2="283.80957"
       y2="31.61907" />
    <linearGradient
       inkscape:collect="always"
       xlink:href="#linearGradient3860"
       id="linearGradient3867"
       x1="272"
       y1="284"
       x2="272"
       y2="28"
       gradientUnits="userSpaceOnUse" />
    <linearGradient
       inkscape:collect="always"
       xlink:href="#linearGradient3860"
       id="linearGradient3877"
       gradientUnits="userSpaceOnUse"
       gradientTransform="matrix(0.28534758,0,0,0.28534758,278.86152,127.12783)"
       x1="272"
       y1="284"
       x2="272"
       y2="28" />
    <linearGradient
       inkscape:collect="always"
       xlink:href="#linearGradient3860"
       id="linearGradient3881"
       gradientUnits="userSpaceOnUse"
       gradientTransform="matrix(0.19974424,0,0,0.19974424,283.30026,212.82179)"
       x1="272"
       y1="284"
       x2="272"
       y2="28" />
    <linearGradient
       inkscape:collect="always"
       xlink:href="#linearGradient3860"
       id="linearGradient3886"
       gradientUnits="userSpaceOnUse"
       gradientTransform="matrix(0.14267379,0,0,0.14267379,411.3076,45.597442)"
       x1="272"
       y1="284"
       x2="272"
       y2="28" />
    <linearGradient
       inkscape:collect="always"
       xlink:href="#linearGradient3860"
       id="linearGradient3890"
       gradientUnits="userSpaceOnUse"
       gradientTransform="matrix(0.09987227,0,0,0.09987227,413.64922,96.411327)"
       x1="272"
       y1="284"
       x2="272"
       y2="28" />
    <linearGradient
       inkscape:collect="always"
       xlink:href="#linearGradient3860"
       id="linearGradient3894"
       gradientUnits="userSpaceOnUse"
       gradientTransform="matrix(0.08560016,0,0,0.08560016,411.38415,134.75915)"
       x1="272"
       y1="284"
       x2="272"
       y2="28" />
    <linearGradient
       inkscape:collect="always"
       xlink:href="#linearGradient3860"
       id="linearGradient3898"
       gradientUnits="userSpaceOnUse"
       gradientTransform="matrix(0.39948848,0,0,0.39948848,278.46308,12.872524)"
       x1="272"
       y1="284"
       x2="272"
       y2="28" />
    <linearGradient
       inkscape:collect="always"
       xlink:href="#linearGradient3860"
       id="linearGradient3902"
       gradientUnits="userSpaceOnUse"
       gradientTransform="matrix(0.08560016,0,0,0.08560016,415.38415,98.75915)"
       x1="272"
       y1="284"
       x2="272"
       y2="28" />
  </defs>
  <metadata
     id="metadata4">
    <rdf:RDF>
      <cc:Work
         rdf:about="">
        <dc:format>image/svg+xml</dc:format>
        <dc:type
           rdf:resource="http://purl.org/dc/dcmitype/StillImage" />
        <dc:creator>
          <cc:Agent>
            <dc:title>Sam Hewitt</dc:title>
          </cc:Agent>
        </dc:creator>
        <dc:source />
        <cc:license
           rdf:resource="" />
        <dc:title />
        <dc:subject>
          <rdf:Bag />
        </dc:subject>
        <dc:date />
        <dc:rights>
          <cc:Agent>
            <dc:title />
          </cc:Agent>
        </dc:rights>
        <dc:publisher>
          <cc:Agent>
            <dc:title />
          </cc:Agent>
        </dc:publisher>
        <dc:identifier />
        <dc:relation />
        <dc:language />
        <dc:coverage />
        <dc:description />
        <dc:contributor>
          <cc:Agent>
            <dc:title />
          </cc:Agent>
        </dc:contributor>
      </cc:Work>
      <cc:Work
         rdf:about="">
        <dc:format>image/svg+xml</dc:format>
        <dc:type
           rdf:resource="http://purl.org/dc/dcmitype/StillImage" />
      </cc:Work>
    </rdf:RDF>
  </metadata>
  <g
     style="display:inline"
     inkscape:groupmode="layer"
     inkscape:label="Icon"
     id="layer1">
    <g
       style="display:none"
       inkscape:label="Baseplate"
       id="layer7"
       inkscape:groupmode="layer">
      <text
         y="19.745117"
         xml:space="preserve"
         x="15.006836"
         style="font-size:18px;font-style:normal;font-variant:normal;font-weight:normal;font-stretch:normal;fill:#000000;fill-opacity:1;stroke:none;display:inline;enable-background:new;font-family:DejaVu Sans;-inkscape-font-specification:DejaVu Sans"
         inkscape:label="context"
         id="context"><tspan
           style="font-style:normal;font-variant:normal;font-weight:normal;font-stretch:normal;font-family:DejaVu Sans;-inkscape-font-specification:DejaVu Sans"
           y="19.745117"
           x="15.006836"
           sodipodi:role="line"
           id="tspan3933">apps</tspan></text>
      <text
         y="19.745117"
         xml:space="preserve"
         x="122.48828"
         style="font-size:18px;font-style:normal;font-variant:normal;font-weight:bold;font-stretch:normal;text-align:start;line-height:125%;writing-mode:lr-tb;text-anchor:start;fill:#000000;fill-opacity:1;stroke:none;display:inline;enable-background:new;font-family:DejaVu Sans;-inkscape-font-specification:DejaVu Sans Bold"
         sodipodi:linespacing="125%"
         inkscape:label="icon-name"
         id="icon-name"><tspan
           style="font-size:18px;font-style:normal;font-variant:normal;font-weight:bold;font-stretch:normal;font-family:DejaVu Sans;-inkscape-font-specification:DejaVu Sans Bold"
           y="19.745117"
           x="122.48828"
           sodipodi:role="line"
           id="tspan3937">picard</tspan></text>
      <rect
         style="fill:#eeeeec;fill-opacity:1;fill-rule:nonzero;stroke:none;stroke-width:2;marker:none;visibility:visible;display:inline;overflow:visible;enable-background:accumulate"
         id="rect16x16"
         width="16"
         height="16"
         x="416"
         y="140"
         inkscape:label="16x16" />
      <rect
         style="fill:#d4d4d4;fill-opacity:1;fill-rule:nonzero;stroke:none;stroke-width:2;marker:none;visibility:visible;display:inline;overflow:visible;enable-background:accumulate"
         id="rect24x24"
         width="24"
         height="24"
         x="416"
         y="100"
         inkscape:label="24x24" />
      <rect
         style="fill:#eeeeec;fill-opacity:1;fill-rule:nonzero;stroke:none;stroke-width:2;marker:none;visibility:visible;display:inline;overflow:visible;enable-background:accumulate"
         id="rect32x32"
         width="32"
         height="32"
         x="416"
         y="52"
         inkscape:label="32x32" />
      <rect
         inkscape:label="22x22"
         y="101"
         x="417"
         height="22"
         width="22"
         id="rect22x22"
         style="fill:#eeeeec;fill-opacity:1;fill-rule:nonzero;stroke:none;stroke-width:2;marker:none;visibility:visible;display:inline;overflow:visible;enable-background:accumulate" />
      <rect
         inkscape:label="48x48"
         y="220"
         x="288"
         height="48"
         width="48"
         id="rect48x48"
         style="fill:#eeeeec;fill-opacity:1;fill-rule:nonzero;stroke:none;stroke-width:2;marker:none;visibility:visible;display:inline;overflow:visible;enable-background:accumulate" />
      <rect
         style="fill:#eeeeec;fill-opacity:1;fill-rule:nonzero;stroke:none;stroke-width:2;marker:none;visibility:visible;display:inline;overflow:visible;enable-background:accumulate"
         id="rect256x256"
         width="256"
         height="256"
         x="16"
         y="28"
         inkscape:label="256x256" />
      <rect
         style="fill:#eeeeec;fill-opacity:1;fill-rule:nonzero;stroke:none;stroke-width:2;marker:none;visibility:visible;display:inline;overflow:visible;enable-background:accumulate"
         id="rect64x64"
         width="64"
         height="64"
         x="288"
         y="140"
         inkscape:label="64x64" />
      <rect
         style="fill:#eeeeec;fill-opacity:1;fill-rule:nonzero;stroke:none;stroke-width:2;marker:none;visibility:visible;display:inline;overflow:visible;enable-background:accumulate"
         id="rect96x96"
         width="96"
         height="96"
         x="288"
         y="28"
         inkscape:label="96x96" />
    </g>
    <g
       inkscape:groupmode="layer"
       id="layer4"
       inkscape:label="Shadow"
       style="display:inline"
       sodipodi:insensitive="true">
      <rect
         style="opacity:0.1;color:#bebebe;fill:#000000;fill-opacity:1;stroke:#000000;stroke-width:1;stroke-miterlimit:4;stroke-opacity:1;stroke-dasharray:none;marker:none;visibility:visible;display:inline;overflow:visible;enable-background:accumulate"
         id="rect4156"
         width="42"
         height="42"
         x="-266.5"
         y="291"
         ry="9"
         transform="matrix(0,-1,1,0,0,0)" />
      <rect
         transform="matrix(0,-1,1,0,0,0)"
         ry="9"
         y="291"
         x="-266.5"
         height="42"
         width="40"
         id="rect4183"
         style="opacity:0.3;color:#bebebe;fill:#000000;fill-opacity:1;stroke:none;stroke-width:1;marker:none;visibility:visible;display:inline;overflow:visible;enable-background:accumulate" />
      <rect
         ry="9"
         y="237"
         x="291"
         height="29"
         width="42"
         id="rect4144"
         style="opacity:0.3;color:#bebebe;fill:#000000;fill-opacity:1;fill-rule:nonzero;stroke:none;stroke-width:0;marker:none;visibility:visible;display:inline;overflow:visible;enable-background:accumulate" />
      <rect
         style="opacity:0.05;color:#bebebe;fill:#000000;fill-opacity:1;fill-rule:nonzero;stroke:#000000;stroke-width:1;stroke-miterlimit:4;stroke-opacity:1;stroke-dasharray:none;marker:none;visibility:visible;display:inline;overflow:visible;enable-background:accumulate"
         id="rect4340"
         width="88"
         height="88"
         x="292"
         y="33.5"
         ry="18" />
      <rect
         ry="18"
         y="52.5"
         x="292"
         height="69"
         width="88"
         id="rect4338"
         style="opacity:0.3;color:#bebebe;fill:#000000;fill-opacity:1;fill-rule:nonzero;stroke:none;stroke-width:0;marker:none;visibility:visible;display:inline;overflow:visible;enable-background:accumulate" />
      <rect
         style="opacity:0.3;color:#bebebe;fill:#000000;fill-opacity:1;fill-rule:nonzero;stroke:none;stroke-width:0;marker:none;visibility:visible;display:inline;overflow:visible;enable-background:accumulate"
         id="rect4335"
         width="88"
         height="76.5"
         x="292"
         y="44.5"
         ry="18" />
      <rect
         style="opacity:0.05;color:#bebebe;fill:#000000;fill-opacity:1;fill-rule:nonzero;stroke:#000000;stroke-width:1;stroke-miterlimit:4;stroke-opacity:1;stroke-dasharray:none;marker:none;visibility:visible;display:inline;overflow:visible;enable-background:accumulate"
         id="rect4214"
         width="60"
         height="60"
         x="290"
         y="143.5"
         ry="12.5" />
      <rect
         ry="12.5"
         y="151.5"
         x="290"
         height="52"
         width="60"
         id="rect4206"
         style="opacity:0.3;color:#bebebe;fill:#000000;fill-opacity:1;fill-rule:nonzero;stroke:none;stroke-width:0;marker:none;visibility:visible;display:inline;overflow:visible;enable-background:accumulate" />
      <rect
         style="opacity:0.3;color:#bebebe;fill:#000000;fill-opacity:1;fill-rule:nonzero;stroke:none;stroke-width:0;marker:none;visibility:visible;display:inline;overflow:visible;enable-background:accumulate"
         id="rect4212"
         width="60"
         height="54.5"
         x="290"
         y="148.5"
         ry="12.5" />
      <rect
         style="opacity:0.5;color:#bebebe;fill:#000000;fill-opacity:1;fill-rule:nonzero;stroke:none;stroke-width:0;marker:none;visibility:visible;display:inline;overflow:visible;enable-background:accumulate"
         id="rect4058"
         width="30"
         height="30"
         x="417"
         y="54"
         ry="7" />
      <rect
         ry="50"
         y="48"
         x="34"
         height="220"
         width="220"
         id="rect3872"
         style="opacity:0.05;color:#bebebe;fill:#000000;fill-opacity:1;fill-rule:nonzero;stroke:#000000;stroke-width:2;stroke-miterlimit:4;stroke-opacity:1;stroke-dasharray:none;marker:none;visibility:visible;display:inline;overflow:visible;enable-background:accumulate" />
      <rect
         style="opacity:0.3;color:#bebebe;fill:#000000;fill-opacity:1;fill-rule:nonzero;stroke:none;stroke-width:0;marker:none;visibility:visible;display:inline;overflow:visible;enable-background:accumulate"
         id="rect3870"
         width="220"
         height="220"
         x="34"
         y="48"
         ry="50" />
      <rect
         ry="50"
         y="47"
         x="34"
         height="220"
         width="220"
         id="rect3868"
         style="opacity:0.3;color:#bebebe;fill:#000000;fill-opacity:1;fill-rule:nonzero;stroke:none;stroke-width:0;marker:none;visibility:visible;display:inline;overflow:visible;enable-background:accumulate" />
    </g>
    <g
       inkscape:groupmode="layer"
       id="layer2"
       inkscape:label="Background"
       style="display:inline">
      <rect
         style="color:#bebebe;fill:url(#linearGradient3876);fill-opacity:1;fill-rule:nonzero;stroke:none;stroke-width:0;marker:none;visibility:visible;display:inline;overflow:visible;enable-background:accumulate"
         id="rect4040"
         width="220"
         height="220"
         x="34"
         y="46"
         ry="50" />
      <rect
         ry="3"
         y="140"
         x="416"
         height="16"
         width="16"
         id="rect4095"
         style="color:#bebebe;fill:url(#linearGradient4097);fill-opacity:1;fill-rule:nonzero;stroke:none;stroke-width:0;marker:none;visibility:visible;display:inline;overflow:visible;enable-background:accumulate" />
      <rect
         style="color:#bebebe;fill:url(#linearGradient4101);fill-opacity:1;fill-rule:nonzero;stroke:none;stroke-width:0;marker:none;visibility:visible;display:inline;overflow:visible;enable-background:accumulate"
         id="rect4099"
         width="22"
         height="22"
         x="417"
         y="101"
         ry="5" />
      <rect
         ry="7"
         y="53"
         x="417"
         height="30"
         width="30"
         id="rect4151"
         style="color:#bebebe;fill:url(#linearGradient4153);fill-opacity:1;fill-rule:nonzero;stroke:none;stroke-width:0;marker:none;visibility:visible;display:inline;overflow:visible;enable-background:accumulate" />
      <rect
         style="color:#bebebe;fill:url(#linearGradient4869);fill-opacity:1;fill-rule:nonzero;stroke:none;stroke-width:0;marker:none;visibility:visible;display:inline;overflow:visible;enable-background:accumulate"
         id="rect4783"
         width="42"
         height="42"
         x="291"
         y="-265"
         ry="9"
         transform="scale(1,-1)" />
      <rect
         ry="18"
         y="32"
         x="292"
         height="88"
         width="88"
         id="rect4511"
         style="color:#bebebe;fill:url(#linearGradient4197);fill-opacity:1;fill-rule:nonzero;stroke:none;stroke-width:0;marker:none;visibility:visible;display:inline;overflow:visible;enable-background:accumulate" />
      <rect
         style="color:#bebebe;fill:url(#linearGradient4199);fill-opacity:1;fill-rule:nonzero;stroke:none;stroke-width:0;marker:none;visibility:visible;display:inline;overflow:visible;enable-background:accumulate"
         id="rect4515"
         width="60"
         height="60"
         x="290"
         y="142"
         ry="12.5" />
    </g>
    <g
       inkscape:groupmode="layer"
       id="layer6"
       inkscape:label="Symbols"
       style="display:inline">
      <path
         style="fill:url(#linearGradient3867);fill-opacity:1;fill-rule:evenodd;stroke:none;display:inline;enable-background:new"
         d="m 199.27869,86.342729 c -0.21356,0.0088 -0.42347,0.05788 -0.61835,0.145662 l -85.67883,36.054579 c -0.60993,0.26974 -1.00023,0.87717 -0.99211,1.54403 L 112,195 c -3.36234,-0.59655 -6.49147,0.43674 -10.28154,1.62807 -4.978689,1.56448 -9.119143,4.47996 -11.830305,8.02662 -2.711162,3.54665 -4.012268,7.81518 -2.984229,11.88974 1.028073,4.07473 4.207628,7.05028 8.238818,8.51736 4.031207,1.46708 8.956396,1.52788 13.931776,-0.0366 4.9408,-1.55379 9.05647,-4.43357 11.76855,-7.9428 C 123.49405,213.65218 124,210 123.9814,205.57144 123.9982,188.39598 123.9844,144.87469 124,143 l 65,-29 0.13156,60.34586 c -3.28117,-0.53025 -7.37035,-0.34817 -11.04481,0.80916 -4.9787,1.56448 -9.11921,4.47475 -11.83037,8.02141 -2.71116,3.54665 -4.01227,7.81518 -2.98422,11.88974 1.02807,4.07472 4.20241,7.05032 8.2336,8.5174 4.03121,1.46707 8.96161,1.52783 13.93699,-0.0367 4.9787,-1.56448 9.30789,-4.13284 12.01905,-7.6795 2.71116,-3.54665 3.5382,-7.17565 3.53823,-11.54831 0,-0.002 -3e-5,-0.004 -3e-5,-0.005 L 201,88 c -0.003,-0.450041 -0.18638,-0.880048 -0.51061,-1.192167 -0.32422,-0.312119 -0.76091,-0.479802 -1.21071,-0.46489 z"
         id="path6618"
         sodipodi:nodetypes="ccccccssscscccccssscscscscc"
         inkscape:connector-curvature="0" />
      <path
         style="fill:url(#linearGradient3877);fill-opacity:1;fill-rule:evenodd;stroke:none;display:inline;enable-background:new"
         d="m 335.51512,151.67186 c -0.0609,0.003 -0.12084,0.0165 -0.17644,0.0415 l -24.05858,10.6112 c -0.17404,0.077 -0.28541,0.2503 -0.2831,0.44058 L 311,183 c -0.95943,-0.17023 -2.0319,-0.10484 -3.11338,0.23511 -1.42066,0.44642 -2.60213,1.27834 -3.37575,2.29037 -0.77362,1.01203 -1.14489,2.23004 -0.85154,3.39271 0.29336,1.16271 1.20063,2.01178 2.35092,2.43041 1.1503,0.41862 2.55569,0.43597 3.9754,-0.0105 1.40985,-0.44337 2.33995,-1.19752 3.11383,-2.19888 0.75646,-0.9788 0.86067,-1.56003 0.89552,-3.28462 C 314,180.95363 313.99567,168.53493 314,168 L 332.9625,159.78046 333,177 c -0.93627,-0.15131 -2.27372,-0.22243 -3.32222,0.10777 -1.42066,0.44642 -2.60214,1.27686 -3.37576,2.28889 -0.77363,1.01203 -1.1449,2.23005 -0.85155,3.39271 0.29336,1.16271 1.19915,2.01179 2.34944,2.43042 1.1503,0.41863 2.55717,0.43596 3.97689,-0.0105 1.42066,-0.44642 2.44589,-1.27295 3.21951,-2.28498 0.77362,-1.01203 1.00962,-2.04755 1.00963,-3.29528 -0.16219,0.37488 -1e-5,-0.001 -1e-5,-0.001 l 0,-27.48298 c -6.7e-4,-0.12842 -0.0532,-0.25113 -0.1457,-0.34019 -0.0925,-0.0891 -0.21712,-0.13691 -0.34548,-0.13265 z"
         id="path3873"
         sodipodi:nodetypes="ccccccssscscccccssscscscscc"
         inkscape:connector-curvature="0" />
      <path
         inkscape:connector-curvature="0"
         sodipodi:nodetypes="ccccccssscscccccssscscscscc"
         id="path3879"
         d="m 322.68064,229.99995 c -0.0426,0.002 -0.0846,0.0115 -0.1235,0.0291 l -16.36096,7.49808 c -0.12183,0.0539 -0.19979,0.17521 -0.19818,0.3084 L 306,252 c -0.6716,-0.11916 -1.62513,-0.14086 -2.38217,0.0971 -0.99447,0.31249 -1.8215,0.89484 -2.36304,1.60327 -0.54153,0.70842 -0.80142,1.56103 -0.59608,2.3749 0.20535,0.8139 0.84045,1.40826 1.64565,1.7013 0.80522,0.29303 1.78899,0.30518 2.7828,-0.007 0.9869,-0.31036 1.80897,-0.88558 2.35069,-1.58653 0.52953,-0.68516 0.79219,-1.50667 0.62687,-2.29925 0.004,-3.43069 4.7e-4,-12.12382 0.004,-12.49827 l 12.89412,-5.8075 0.0263,12.05373 c -0.65539,-0.10592 -1.38293,-0.0546 -2.11688,0.17654 -0.99447,0.3125 -1.82151,0.89381 -2.36304,1.60223 -0.54155,0.70843 -0.80144,1.56104 -0.59609,2.37491 0.20535,0.8139 0.83941,1.40826 1.64462,1.7013 0.80521,0.29304 1.79002,0.30517 2.78383,-0.007 0.99447,-0.31249 1.43481,-0.89381 1.97634,-1.60223 0.54154,-0.70842 0.70674,-1.43329 0.70675,-2.30671 0,-4e-4 -1e-5,-7e-4 -1e-5,-7e-4 l 0,-19.23817 c -4.7e-4,-0.0899 -0.0372,-0.17579 -0.10199,-0.23814 -0.0648,-0.0624 -0.15198,-0.0958 -0.24184,-0.0928 z"
         style="fill:url(#linearGradient3881);fill-opacity:1;fill-rule:evenodd;stroke:none;display:inline;enable-background:new" />
      <path
         style="fill:url(#linearGradient3886);fill-opacity:1;fill-rule:evenodd;stroke:none;display:inline;enable-background:new"
         d="m 439.75672,57.889599 c -0.0305,0.0013 -0.0604,0.0083 -0.0882,0.02077 l -12.50516,5.230215 c -0.087,0.03848 -0.1427,0.125147 -0.14155,0.22029 l 0.002,10.117426 c -0.47972,0.02539 -0.6624,0.0028 -1.20314,0.172803 -0.71033,0.22321 -1.30107,0.63917 -1.68788,1.14518 -0.38681,0.50602 -0.57244,1.11503 -0.42577,1.69636 0.14668,0.58135 0.60032,1.00589 1.17546,1.2152 0.57515,0.20932 1.27785,0.21799 1.9877,-0.005 0.70493,-0.22169 1.29212,-0.63255 1.67907,-1.13323 0.37822,-0.4894 0.38906,-0.766831 0.44775,-1.391008 C 428.99601,72.476814 428.99734,66.267467 429,66 l 9,-4 0.0188,8.609772 c -0.46814,-0.07565 -0.77776,-0.187216 -1.30201,-0.0221 -0.71033,0.223211 -1.30107,0.638432 -1.68788,1.144446 -0.38681,0.506015 -0.57245,1.115023 -0.42577,1.696351 0.14668,0.58136 0.59957,1.0059 1.17471,1.21521 0.57515,0.20932 1.27859,0.21798 1.98845,-0.005 0.71033,-0.22321 1.30107,-0.63843 1.68788,-1.14444 0.38681,-0.506018 0.549,-1.001685 0.549,-1.62555 0,-2.83e-4 0,-6.67e-4 0,-6.67e-4 l 0,-13.74149 c -3.4e-4,-0.06421 -0.0266,-0.12556 -0.0729,-0.170091 -0.0463,-0.04453 -0.10856,-0.06846 -0.17274,-0.06633 z"
         id="path3883"
         sodipodi:nodetypes="ccccccssscscccccssscscscscc"
         inkscape:connector-curvature="0" />
      <path
         style="fill:url(#linearGradient3894);fill-opacity:1;fill-rule:evenodd;stroke:none;display:inline;enable-background:new"
         d="m 427.90052,142.60963 c -0.0182,7.5e-4 -0.0362,0.005 -0.053,0.0124 l -6.73835,2.69559 c -0.0522,0.0231 -0.0856,0.0751 -0.0849,0.13217 l 0.002,6.07016 c -0.28783,-0.0511 -0.60955,-0.0315 -0.93398,0.0705 -0.42617,0.13392 -0.7806,0.38349 -1.01268,0.68707 -0.23207,0.3036 -0.34345,0.66899 -0.25545,1.01778 0.088,0.34878 0.36017,0.6035 0.70525,0.72908 0.34507,0.12558 0.76667,0.13078 1.19256,-0.003 0.42294,-0.13301 0.77524,-0.37951 1.00739,-0.67991 C 421.95628,153.04785 422,153 421.998,152.35614 422,150.88592 421.9982,147.16049 422,147 l 5,-2 0.0112,5.16562 c -0.28088,-0.0453 -0.59266,-0.0234 -0.90719,0.0757 -0.42618,0.13392 -0.7806,0.38304 -1.01268,0.68664 -0.23208,0.30359 -0.34346,0.66898 -0.25545,1.01775 0.088,0.3488 0.35972,0.60352 0.70479,0.72909 0.34508,0.12559 0.76711,0.13079 1.19301,-0.003 0.42618,-0.13391 0.78061,-0.38303 1.01269,-0.68662 0.23207,-0.3036 0.30287,-0.61424 0.30287,-0.98854 0,-1.8e-4 0,-4e-4 0,-4e-4 l 0,-8.2445 c -2.1e-4,-0.0386 -0.0159,-0.0753 -0.0437,-0.10205 -0.0278,-0.0267 -0.0651,-0.0411 -0.10363,-0.0399 z"
         id="path3892"
         sodipodi:nodetypes="ccccccssscscccccssscscscscc"
         inkscape:connector-curvature="0" />
      <path
         style="fill:url(#linearGradient3898);fill-opacity:1;fill-rule:evenodd;stroke:none;display:inline;enable-background:new"
         d="m 357.22384,47.228844 c -0.0852,0.004 -0.1692,0.023 -0.247,0.0582 l -32.59692,15.05866 c -0.24366,0.1078 -0.39958,0.35042 -0.39636,0.6168 l 0.004,28.32894 c -1.3432,-0.23832 -3.37526,-0.34422 -4.88934,0.1317 -1.98894,0.62498 -3.643,1.78968 -4.72608,3.20654 -1.08306,1.41684 -1.60284,3.12206 -1.19216,4.7498 0.4107,1.627796 1.6809,2.816516 3.2913,3.402596 1.61044,0.58606 3.57798,0.61036 5.5656,-0.014 1.9738,-0.62072 3.61794,-1.77116 4.70138,-3.173056 1.05906,-1.37032 1.27188,-2.63834 1.25374,-4.5985 0.008,-6.86138 9.4e-4,-24.24764 0.008,-24.99654 l 26.10074,-11.49 0.0526,24.10746 c -1.31078,-0.21184 -3.07836,-0.2342 -4.54626,0.22808 -1.98894,0.625 -3.64302,1.78762 -4.72608,3.20446 -1.0831,1.41686 -1.60288,3.12208 -1.19218,4.74982 0.4107,1.6278 1.67882,2.81652 3.28924,3.4026 1.61042,0.58608 3.58004,0.61034 5.56766,-0.014 1.98894,-0.62498 2.86962,-1.78762 3.95268,-3.20446 1.08308,-1.41684 1.41348,-2.86658 1.4135,-4.61342 0,-8e-4 -2e-5,-0.001 -2e-5,-0.001 l 0,-38.47634 c -9.4e-4,-0.1798 -0.0744,-0.35158 -0.20398,-0.47628 -0.1296,-0.1248 -0.30396,-0.1916 -0.48368,-0.1856 z"
         id="path3896"
         sodipodi:nodetypes="ccccccssscscccccssscscscscc"
         inkscape:connector-curvature="0" />
      <path
         inkscape:connector-curvature="0"
         sodipodi:nodetypes="ccccccssscscccccssscscscscc"
         id="path3900"
         d="m 432.90052,105.60963 c -0.0182,7.5e-4 -0.0362,0.005 -0.053,0.0124 l -7.73835,3.69559 c -0.0522,0.0231 -0.0856,0.0751 -0.0849,0.13217 l 0.002,6.07016 c -0.28783,-0.0511 -0.60955,-0.0315 -0.93398,0.0705 -0.42617,0.13392 -0.7806,0.38349 -1.01268,0.68707 -0.23207,0.3036 -0.34345,0.66899 -0.25545,1.01778 0.088,0.34878 0.36017,0.6035 0.70525,0.72908 0.34507,0.12558 0.76667,0.13078 1.19256,-0.003 0.42294,-0.13301 0.77524,-0.37951 1.00739,-0.67991 C 425.95628,117.04785 426,117 425.998,116.35614 426,114.88592 425.9982,111.16049 426,111 l 6,-3 0.0112,5.16562 c -0.28088,-0.0453 -0.59266,-0.0234 -0.90719,0.0757 -0.42618,0.13392 -0.7806,0.38304 -1.01268,0.68664 -0.23208,0.30359 -0.34346,0.66898 -0.25545,1.01775 0.088,0.3488 0.35972,0.60352 0.70479,0.72909 0.34508,0.12559 0.76711,0.13079 1.19301,-0.003 0.42618,-0.13391 0.78061,-0.38303 1.01269,-0.68662 0.23207,-0.3036 0.30287,-0.61424 0.30287,-0.98854 0,-1.8e-4 0,-4e-4 0,-4e-4 l 0,-8.2445 c -2.1e-4,-0.0386 -0.0159,-0.0753 -0.0437,-0.10205 -0.0278,-0.0267 -0.0651,-0.0411 -0.10363,-0.0399 z"
         style="fill:url(#linearGradient3902);fill-opacity:1;fill-rule:evenodd;stroke:none;display:inline;enable-background:new" />
    </g>
    <g
       inkscape:groupmode="layer"
       id="layer5"
       inkscape:label="Highlights"
       style="display:inline"
       sodipodi:insensitive="true">
      <rect
         ry="9"
         y="307"
         x="-265"
         height="42"
         width="42"
         id="rect4884"
         style="opacity:0.1;color:#bebebe;fill:none;stroke:#000000;stroke-width:2;stroke-miterlimit:4;stroke-opacity:1;stroke-dasharray:none;marker:none;visibility:visible;display:inline;overflow:visible;enable-background:accumulate"
         transform="matrix(0,1,1,0,-16,488)"
         clip-path="url(#clipPath4891)" />
      <rect
         style="opacity:0.1;color:#bebebe;fill:none;stroke:#000000;stroke-width:2;stroke-miterlimit:4;stroke-opacity:1;stroke-dasharray:none;marker:none;visibility:visible;display:inline;overflow:visible;enable-background:accumulate"
         id="rect5311"
         width="16"
         height="16"
         x="-228"
         y="304"
         ry="3"
         clip-path="url(#clipPath3855)"
         transform="matrix(0,-1,1,0,112,-72)" />
      <rect
         ry="50"
         y="46"
         x="34"
         height="220"
         width="220"
         id="rect3858"
         style="opacity:0.1;color:#bebebe;fill:none;stroke:#000000;stroke-width:2;stroke-miterlimit:4;stroke-opacity:1;stroke-dasharray:none;marker:none;visibility:visible;display:inline;overflow:visible;enable-background:accumulate"
         clip-path="url(#clipPath3862)" />
      <rect
         ry="12.5"
         y="142"
         x="290"
         height="60"
         width="60"
         id="rect4175"
         style="opacity:0.1;color:#bebebe;fill:none;stroke:#000000;stroke-width:2;stroke-miterlimit:4;stroke-opacity:1;stroke-dasharray:none;marker:none;visibility:visible;display:inline;overflow:visible;enable-background:accumulate"
         clip-path="url(#clipPath4187)" />
      <rect
         style="opacity:0.1;color:#bebebe;fill:none;stroke:#000000;stroke-width:2;stroke-miterlimit:4;stroke-opacity:1;stroke-dasharray:none;marker:none;visibility:visible;display:inline;overflow:visible;enable-background:accumulate"
         id="rect4342"
         width="88"
         height="88"
         x="292"
         y="32"
         ry="18"
         clip-path="url(#clipPath4346)" />
      <rect
         ry="5"
         y="101"
         x="417"
         height="22"
         width="22"
         id="rect3866"
         style="opacity:0.1;color:#bebebe;fill:none;stroke:#000000;stroke-width:2;stroke-miterlimit:4;stroke-opacity:1;stroke-dasharray:none;marker:none;visibility:visible;display:inline;overflow:visible;enable-background:accumulate"
         clip-path="url(#clipPath3871)" />
      <rect
         style="opacity:0.1;color:#bebebe;fill:none;stroke:#000000;stroke-width:2;stroke-miterlimit:4;stroke-opacity:1;stroke-dasharray:none;marker:none;visibility:visible;display:inline;overflow:visible;enable-background:accumulate"
         id="rect3877"
         width="30"
         height="30"
         x="417"
         y="53"
         ry="7"
         clip-path="url(#clipPath3881)" />
    </g>
  </g>
</svg>
