<?xml version="1.0" encoding="UTF-8" standalone="no"?>
<!-- Created with Inkscape (http://www.inkscape.org/) -->

<svg
   xmlns:dc="http://purl.org/dc/elements/1.1/"
   xmlns:cc="http://creativecommons.org/ns#"
   xmlns:rdf="http://www.w3.org/1999/02/22-rdf-syntax-ns#"
   xmlns:svg="http://www.w3.org/2000/svg"
   xmlns="http://www.w3.org/2000/svg"
   xmlns:xlink="http://www.w3.org/1999/xlink"
   xmlns:sodipodi="http://sodipodi.sourceforge.net/DTD/sodipodi-0.dtd"
   xmlns:inkscape="http://www.inkscape.org/namespaces/inkscape"
   inkscape:export-ydpi="90.000000"
   inkscape:export-xdpi="90.000000"
   width="480"
   height="300"
   id="svg11300"
   sodipodi:version="0.32"
   inkscape:version="0.48.4 r9939"
   sodipodi:docname="espeak.svg"
   inkscape:output_extension="org.inkscape.output.svg.inkscape"
   version="1.0"
   style="display:inline;enable-background:new"
   inkscape:export-filename="/home/sam/moka-next-template.png">
  <sodipodi:namedview
     stroke="#ef2929"
     fill="#f57900"
     id="base"
     pagecolor="#777777"
     bordercolor="#666666"
     borderopacity="0.25490196"
     inkscape:pageopacity="0"
     inkscape:pageshadow="2"
     inkscape:zoom="1"
     inkscape:cx="438.2937"
     inkscape:cy="238.48912"
     inkscape:current-layer="layer7"
     showgrid="false"
     inkscape:grid-bbox="true"
     inkscape:document-units="px"
     inkscape:showpageshadow="false"
     inkscape:window-width="1364"
     inkscape:window-height="700"
     inkscape:window-x="0"
     inkscape:window-y="28"
     width="400px"
     height="300px"
     inkscape:snap-nodes="true"
     inkscape:snap-bbox="true"
     gridtolerance="10000"
     inkscape:object-nodes="true"
     inkscape:snap-grids="true"
     showguides="true"
     inkscape:guide-bbox="true"
     inkscape:window-maximized="1"
     inkscape:bbox-nodes="true"
     inkscape:bbox-paths="true"
     inkscape:snap-bbox-edge-midpoints="true"
     inkscape:snap-bbox-midpoints="true">
    <inkscape:grid
       spacingy="1px"
       spacingx="1px"
       id="grid5883"
       type="xygrid"
       enabled="true"
       visible="true"
       empspacing="4"
       snapvisiblegridlinesonly="true"
       dotted="false"
       color="#000000"
       opacity="0.1254902"
       empcolor="#203ef3"
       empopacity="0.36470588" />
    <inkscape:grid
       type="xygrid"
       id="grid11592"
       empspacing="8"
       visible="true"
       enabled="false"
       spacingx="0.5px"
       spacingy="0.5px"
       color="#ff0000"
       opacity="0.1254902"
       empcolor="#ff0000"
       empopacity="0.25098039"
       snapvisiblegridlinesonly="true"
       dotted="true" />
  </sodipodi:namedview>
  <defs
     id="defs3">
    <linearGradient
       inkscape:collect="always"
       xlink:href="#outerBackgroundGradient"
       id="linearGradient4254"
       x1="35"
       y1="156"
       x2="253"
       y2="156"
       gradientUnits="userSpaceOnUse"
       gradientTransform="matrix(0,-1,1,0,-12,300)" />
    <linearGradient
       inkscape:collect="always"
       xlink:href="#outerBackgroundGradient"
       id="linearGradient4256"
       x1="417"
       y1="148"
       x2="431"
       y2="148"
       gradientUnits="userSpaceOnUse"
       gradientTransform="matrix(0,-1,1,0,276,572)" />
    <linearGradient
       inkscape:collect="always"
       xlink:href="#outerBackgroundGradient"
       id="linearGradient4260"
       x1="418"
       y1="68"
       x2="446"
       y2="68"
       gradientUnits="userSpaceOnUse"
       gradientTransform="matrix(0,-1,1,0,364,500)" />
    <linearGradient
       inkscape:collect="always"
       xlink:href="#outerBackgroundGradient"
       id="linearGradient4262"
       x1="292"
       y1="244"
       x2="332"
       y2="244"
       gradientUnits="userSpaceOnUse"
       gradientTransform="matrix(0,-1,1,0,68,556)" />
    <linearGradient
       inkscape:collect="always"
       xlink:href="#outerBackgroundGradient"
       id="linearGradient4264"
       x1="293"
       y1="76"
       x2="379"
       y2="76"
       gradientUnits="userSpaceOnUse"
       gradientTransform="matrix(0,-1,1,0,260,412)" />
    <linearGradient
       inkscape:collect="always"
       xlink:href="#outerBackgroundGradient"
       id="linearGradient4266"
       x1="291"
       y1="172"
       x2="349"
       y2="172"
       gradientUnits="userSpaceOnUse"
       gradientTransform="matrix(0,-1,1,0,148,492)" />
    <linearGradient
       inkscape:collect="always"
       xlink:href="#outerBackgroundGradient"
       id="linearGradient3870"
       gradientUnits="userSpaceOnUse"
       gradientTransform="matrix(0,-1,1,0,316,540)"
       x1="418"
       y1="112"
       x2="438"
       y2="112" />
    <linearGradient
       id="outerBackgroundGradient">
      <stop
         style="stop-color:#c41414;stop-opacity:1"
         offset="0"
         id="stop3864-8-6" />
      <stop
         style="stop-color:#e83b3b;stop-opacity:1"
         offset="1"
         id="stop3866-9-1" />
    </linearGradient>
  </defs>
  <metadata
     id="metadata4">
    <rdf:RDF>
      <cc:Work
         rdf:about="">
        <dc:format>image/svg+xml</dc:format>
        <dc:type
           rdf:resource="http://purl.org/dc/dcmitype/StillImage" />
        <dc:creator>
          <cc:Agent>
            <dc:title>Sam Hewitt</dc:title>
          </cc:Agent>
        </dc:creator>
        <dc:source />
        <cc:license
           rdf:resource="" />
        <dc:title />
        <dc:subject>
          <rdf:Bag />
        </dc:subject>
        <dc:date />
        <dc:rights>
          <cc:Agent>
            <dc:title />
          </cc:Agent>
        </dc:rights>
        <dc:publisher>
          <cc:Agent>
            <dc:title />
          </cc:Agent>
        </dc:publisher>
        <dc:identifier />
        <dc:relation />
        <dc:language />
        <dc:coverage />
        <dc:description />
        <dc:contributor>
          <cc:Agent>
            <dc:title />
          </cc:Agent>
        </dc:contributor>
      </cc:Work>
      <cc:Work
         rdf:about="">
        <dc:format>image/svg+xml</dc:format>
        <dc:type
           rdf:resource="http://purl.org/dc/dcmitype/StillImage" />
      </cc:Work>
    </rdf:RDF>
  </metadata>
  <g
     style="display:inline"
     inkscape:groupmode="layer"
     inkscape:label="Icon"
     id="layer1">
    <g
       style="display:none"
       inkscape:label="Baseplate"
       id="layer7"
       inkscape:groupmode="layer">
      <text
         y="19.745117"
         xml:space="preserve"
         x="15.006836"
         style="font-style:normal;font-variant:normal;font-weight:normal;font-stretch:normal;line-height:0%;font-family:'DejaVu Sans';-inkscape-font-specification:'DejaVu Sans';display:inline;fill:#000000;fill-opacity:1;stroke:none;enable-background:new"
         inkscape:label="context"
         id="context"><tspan
           style="font-style:normal;font-variant:normal;font-weight:normal;font-stretch:normal;font-size:18px;line-height:1.25;font-family:'DejaVu Sans';-inkscape-font-specification:'DejaVu Sans'"
           y="19.745117"
           x="15.006836"
           sodipodi:role="line"
           id="tspan3933">apps</tspan></text>
      <text
         y="19.745117"
         xml:space="preserve"
         x="122.48828"
         style="font-style:normal;font-variant:normal;font-weight:bold;font-stretch:normal;line-height:0%;font-family:'DejaVu Sans';-inkscape-font-specification:'DejaVu Sans Bold';text-align:start;writing-mode:lr-tb;text-anchor:start;display:inline;fill:#000000;fill-opacity:1;stroke:none;enable-background:new"
         inkscape:label="icon-name"
         id="icon-name"><tspan
           style="font-style:normal;font-variant:normal;font-weight:bold;font-stretch:normal;font-size:18px;line-height:1.25;font-family:'DejaVu Sans';-inkscape-font-specification:'DejaVu Sans Bold'"
           y="19.745117"
           x="122.48828"
           sodipodi:role="line"
           id="tspan3937">espeak</tspan></text>
      <rect
         style="fill:#eeeeec;fill-opacity:1;fill-rule:nonzero;stroke:none;stroke-width:2;marker:none;visibility:visible;display:inline;overflow:visible;enable-background:accumulate"
         id="rect16x16"
         width="16"
         height="16"
         x="416"
         y="140"
         inkscape:label="16x16" />
      <rect
         style="fill:#d4d4d4;fill-opacity:1;fill-rule:nonzero;stroke:none;stroke-width:2;marker:none;visibility:visible;display:inline;overflow:visible;enable-background:accumulate"
         id="rect24x24"
         width="24"
         height="24"
         x="416"
         y="100"
         inkscape:label="24x24" />
      <rect
         style="fill:#eeeeec;fill-opacity:1;fill-rule:nonzero;stroke:none;stroke-width:2;marker:none;visibility:visible;display:inline;overflow:visible;enable-background:accumulate"
         id="rect32x32"
         width="32"
         height="32"
         x="416"
         y="52"
         inkscape:label="32x32" />
      <rect
         inkscape:label="22x22"
         y="101"
         x="417"
         height="22"
         width="22"
         id="rect22x22"
         style="fill:#eeeeec;fill-opacity:1;fill-rule:nonzero;stroke:none;stroke-width:2;marker:none;visibility:visible;display:inline;overflow:visible;enable-background:accumulate" />
      <rect
         inkscape:label="48x48"
         y="220"
         x="288"
         height="48"
         width="48"
         id="rect48x48"
         style="fill:#eeeeec;fill-opacity:1;fill-rule:nonzero;stroke:none;stroke-width:2;marker:none;visibility:visible;display:inline;overflow:visible;enable-background:accumulate" />
      <rect
         style="fill:#eeeeec;fill-opacity:1;fill-rule:nonzero;stroke:none;stroke-width:2;marker:none;visibility:visible;display:inline;overflow:visible;enable-background:accumulate"
         id="rect256x256"
         width="256"
         height="256"
         x="16"
         y="28"
         inkscape:label="256x256" />
      <rect
         style="fill:#eeeeec;fill-opacity:1;fill-rule:nonzero;stroke:none;stroke-width:2;marker:none;visibility:visible;display:inline;overflow:visible;enable-background:accumulate"
         id="rect64x64"
         width="64"
         height="64"
         x="288"
         y="140"
         inkscape:label="64x64" />
      <rect
         style="fill:#eeeeec;fill-opacity:1;fill-rule:nonzero;stroke:none;stroke-width:2;marker:none;visibility:visible;display:inline;overflow:visible;enable-background:accumulate"
         id="rect96x96"
         width="96"
         height="96"
         x="288"
         y="28"
         inkscape:label="96x96" />
    </g>
    <g
       inkscape:groupmode="layer"
       id="layer4"
       inkscape:label="Shadow"
       style="display:inline"
       sodipodi:insensitive="true">
      <rect
         ry="50"
         y="47"
         x="34"
         height="220"
         width="220"
         id="rect4114"
         style="opacity:0.1;color:#bebebe;fill:#000000;fill-opacity:1;fill-rule:nonzero;stroke:none;stroke-width:0;marker:none;visibility:visible;display:inline;overflow:visible;enable-background:accumulate" />
      <rect
         style="opacity:0.1;color:#bebebe;fill:#000000;fill-opacity:1;fill-rule:nonzero;stroke:none;stroke-width:0;marker:none;visibility:visible;display:inline;overflow:visible;enable-background:accumulate"
         id="rect4120"
         width="30"
         height="30"
         x="417"
         y="54"
         ry="7" />
      <rect
         transform="scale(1,-1)"
         ry="9"
         y="-266"
         x="291"
         height="42"
         width="42"
         id="rect4122"
         style="opacity:0.1;color:#bebebe;fill:#000000;fill-opacity:1;fill-rule:nonzero;stroke:none;stroke-width:0;marker:none;visibility:visible;display:inline;overflow:visible;enable-background:accumulate" />
      <rect
         style="opacity:0.1;color:#bebebe;fill:#000000;fill-opacity:1;fill-rule:nonzero;stroke:none;stroke-width:0;marker:none;visibility:visible;display:inline;overflow:visible;enable-background:accumulate"
         id="rect4124"
         width="88"
         height="88"
         x="292"
         y="33"
         ry="18" />
      <rect
         ry="12.5"
         y="143"
         x="290"
         height="60"
         width="60"
         id="rect4126"
         style="opacity:0.1;color:#bebebe;fill:#000000;fill-opacity:1;fill-rule:nonzero;stroke:none;stroke-width:0;marker:none;visibility:visible;display:inline;overflow:visible;enable-background:accumulate" />
      <path
         id="path4268"
         d="m 422,101 c -2.77,0 -5,2.23 -5,5 l 0,12 c 0,2.77 2.23,5 5,5 l 12,0 c 2.77,0 5,-2.23 5,-5 l 0,-12 c 0,-2.77 -2.23,-5 -5,-5 z"
         style="opacity:0.1;color:#bebebe;fill:#000000;fill-opacity:1;fill-rule:nonzero;stroke:none;stroke-width:0;marker:none;visibility:visible;display:inline;overflow:visible;enable-background:accumulate"
         inkscape:connector-curvature="0"
         sodipodi:nodetypes="sssssssss" />
      <path
         id="path4270"
         d="m 419,140 c -1.662,0 -3,1.338 -3,3 l 0,10 c 0,1.662 1.338,3 3,3 l 10,0 c 1.662,0 3,-1.338 3,-3 l 0,-10 c 0,-1.662 -1.338,-3 -3,-3 z"
         style="opacity:0.1;color:#bebebe;fill:#000000;fill-opacity:1;fill-rule:nonzero;stroke:none;stroke-width:0;marker:none;visibility:visible;display:inline;overflow:visible;enable-background:accumulate"
         inkscape:connector-curvature="0"
         sodipodi:nodetypes="sssssssss" />
    </g>
    <g
       inkscape:groupmode="layer"
       id="layer2"
       inkscape:label="Background"
       style="display:inline">
      <path
         style="color:#bebebe;fill:url(#linearGradient4254);fill-opacity:1.0;fill-rule:nonzero;stroke:none;stroke-width:2;marker:none;visibility:visible;display:inline;overflow:visible;enable-background:accumulate"
         d="M 84 46.5 C 56.568735 46.5 34.5 68.568732 34.5 96 L 34.5 216 C 34.5 243.43127 56.568735 265.5 84 265.5 L 204 265.5 C 231.43127 265.5 253.5 243.43127 253.5 216 L 253.5 96 C 253.5 68.568732 231.43127 46.5 204 46.5 L 84 46.5 z "
         id="path4200" />
      <path
         style="color:#bebebe;fill:url(#linearGradient4256);fill-opacity:1.0;fill-rule:nonzero;stroke:none;stroke-width:2;marker:none;visibility:visible;display:inline;overflow:visible;enable-background:accumulate"
         d="M 419 140.5 C 417.6156 140.5 416.5 141.6156 416.5 143 L 416.5 153 C 416.5 154.3844 417.6156 155.5 419 155.5 L 429 155.5 C 430.3844 155.5 431.5 154.3844 431.5 153 L 431.5 143 C 431.5 141.6156 430.3844 140.5 429 140.5 L 419 140.5 z "
         id="path4202" />
      <path
         style="color:#bebebe;fill:url(#linearGradient3870);fill-opacity:1.0;fill-rule:nonzero;stroke:none;stroke-width:2;marker:none;visibility:visible;display:inline;overflow:visible;enable-background:accumulate"
         d="M 422 101.5 C 419.50301 101.5 417.5 103.50301 417.5 106 L 417.5 118 C 417.5 120.49699 419.50301 122.5 422 122.5 L 434 122.5 C 436.49699 122.5 438.5 120.49699 438.5 118 L 438.5 106 C 438.5 103.50301 436.49699 101.5 434 101.5 L 422 101.5 z "
         id="path4204" />
      <path
         style="color:#bebebe;fill:url(#linearGradient4260);fill-opacity:1.0;fill-rule:nonzero;stroke:none;stroke-width:2;marker:none;visibility:visible;display:inline;overflow:visible;enable-background:accumulate"
         d="M 424 53.5 C 420.39346 53.5 417.5 56.393464 417.5 60 L 417.5 76 C 417.5 79.606536 420.39346 82.5 424 82.5 L 440 82.5 C 443.60654 82.5 446.5 79.606536 446.5 76 L 446.5 60 C 446.5 56.393464 443.60654 53.5 440 53.5 L 424 53.5 z "
         id="path4206" />
      <path
         style="color:#bebebe;fill:url(#linearGradient4262);fill-opacity:1.0;fill-rule:nonzero;stroke:none;stroke-width:2;marker:none;visibility:visible;display:inline;overflow:visible;enable-background:accumulate"
         d="M 300 223.5 C 295.28469 223.5 291.5 227.28469 291.5 232 L 291.5 256 C 291.5 260.71531 295.28469 264.5 300 264.5 L 324 264.5 C 328.71531 264.5 332.5 260.71531 332.5 256 L 332.5 232 C 332.5 227.28469 328.71531 223.5 324 223.5 L 300 223.5 z "
         id="path4208" />
      <path
         style="color:#bebebe;fill:url(#linearGradient4264);fill-opacity:1.0;fill-rule:nonzero;stroke:none;stroke-width:2;marker:none;visibility:visible;display:inline;overflow:visible;enable-background:accumulate"
         d="M 310 32.5 C 300.29745 32.5 292.5 40.297452 292.5 50 L 292.5 102 C 292.5 111.70255 300.29745 119.5 310 119.5 L 362 119.5 C 371.70255 119.5 379.5 111.70255 379.5 102 L 379.5 50 C 379.5 40.297452 371.70255 32.5 362 32.5 L 310 32.5 z "
         id="path4210" />
      <path
         style="color:#bebebe;fill:url(#linearGradient4266);fill-opacity:1.0;fill-rule:nonzero;stroke:none;stroke-width:2;marker:none;visibility:visible;display:inline;overflow:visible;enable-background:accumulate"
         d="M 302.5 142.5 C 295.84498 142.5 290.5 147.84498 290.5 154.5 L 290.5 189.5 C 290.5 196.15502 295.84498 201.5 302.5 201.5 L 337.5 201.5 C 344.15502 201.5 349.5 196.15502 349.5 189.5 L 349.5 154.5 C 349.5 147.84498 344.15502 142.5 337.5 142.5 L 302.5 142.5 z "
         id="path4212" />
    </g>
    <g
       inkscape:groupmode="layer"
       id="layer6"
       inkscape:label="Symbols"
       style="display:inline">
      <path
         inkscape:connector-curvature="0"
         id="path3893"
         d="m 334.29779,91.75891 c -7.64368,-0.285978 -14.53997,-2.344397 -20.13571,-6.010114 -4.06655,-2.66398 -7.80096,-6.452545 -9.9142,-10.057982 C 303.69154,74.741624 303,73.147713 303,72.814589 c 0,-0.06061 0.48414,-0.237754 1.07587,-0.393657 3.1122,-0.819984 4.38312,-1.499576 9.4285,-5.041653 2.66437,-1.870495 5.77323,-3.782273 7.05433,-4.338026 1.3024,-0.564993 2.481,-0.81015 3.94461,-0.82049 2.31655,-0.01639 3.81869,0.437712 7.70784,2.329987 3.17905,1.546776 3.91751,1.793506 4.78559,1.59896 0.60147,-0.134794 1.55864,-0.579832 2.42972,-1.129722 1.3253,-0.836627 3.45514,-1.904837 4.48766,-2.250765 2.77755,-0.930567 5.56376,-0.693517 8.39553,0.714274 2.29244,1.139666 4.98756,2.800699 7.15679,4.410802 3.99106,2.962333 5.75244,3.903219 8.5812,4.583855 L 369,72.707306 l -0.0813,0.408078 c -0.12849,0.645084 -1.03915,2.482051 -1.84103,3.71371 -3.86779,5.940781 -10.66136,10.829401 -18.23945,13.125024 -4.3395,1.314555 -9.73703,1.98451 -14.54044,1.804792 z m 6.25957,-11.444675 c 2.56724,-0.38126 5.08845,-1.034143 7.38339,-1.911987 1.30237,-0.498168 4.35329,-1.957428 4.35329,-2.08219 0,-0.05181 -0.22007,-0.134464 -0.48903,-0.183667 -0.26897,-0.04917 -1.69204,-0.430529 -3.16239,-0.847385 -5.44329,-1.543234 -7.69868,-1.882056 -12.58432,-1.890515 -4.39627,-0.0077 -6.51146,0.321409 -11.77691,1.831962 -1.62753,0.466906 -3.3259,0.883828 -3.77419,0.926497 -0.44827,0.04268 -0.81504,0.130636 -0.81504,0.195459 0,0.148071 2.53081,1.343705 4.17304,1.971464 3.04506,1.163998 6.37704,1.942908 9.51975,2.225388 1.23776,0.111265 5.86073,-0.04026 7.17241,-0.235026 z"
         style="opacity:0.2;fill:#000000;fill-opacity:1;display:inline;enable-background:new" />
      <path
         style="opacity:0.2;fill:#000000;fill-opacity:1;display:inline;enable-background:new"
         d="m 318.86519,182.83942 c -5.09578,-0.19065 -9.69331,-1.56293 -13.4238,-4.00674 -2.71104,-1.77599 -5.20064,-4.3017 -6.60947,-6.70533 C 298.46103,171.49456 298,170.43195 298,170.20987 c 0,-0.0404 0.32276,-0.1585 0.71725,-0.26244 2.0748,-0.54665 2.92208,-0.99971 6.28566,-3.3611 1.77625,-1.247 3.84882,-2.52151 4.70289,-2.89202 0.86827,-0.37666 1.654,-0.5401 2.62974,-0.54699 1.54437,-0.0109 2.54579,0.29181 5.13856,1.55333 2.11937,1.03118 2.61167,1.19567 3.19039,1.06597 0.40098,-0.0899 1.0391,-0.38656 1.61982,-0.75315 0.88353,-0.55775 2.30342,-1.26989 2.99177,-1.50051 1.8517,-0.62038 3.70917,-0.46234 5.59702,0.47618 1.52829,0.75978 3.32504,1.86714 4.77119,2.94054 2.66071,1.97489 3.83496,2.60214 5.7208,3.0559 l 0.63491,0.15277 -0.0542,0.27205 c -0.0857,0.43006 -0.69277,1.6547 -1.22735,2.47581 -2.57853,3.96052 -7.10758,7.2196 -12.15964,8.75001 -2.893,0.87637 -6.49135,1.32301 -9.69362,1.2032 z m 4.17305,-7.62979 c 1.71149,-0.25417 3.3923,-0.68942 4.92226,-1.27465 0.86825,-0.33212 2.90219,-1.30496 2.90219,-1.38813 0,-0.0345 -0.14671,-0.0896 -0.32602,-0.12244 -0.17931,-0.0328 -1.12802,-0.28702 -2.10826,-0.56493 -3.62886,-1.02882 -5.13245,-1.2547 -8.38954,-1.26034 -2.93085,-0.005 -4.34098,0.21427 -7.85128,1.22131 -1.08502,0.31127 -2.21726,0.58922 -2.51612,0.61766 -0.29885,0.0284 -0.54336,0.0871 -0.54336,0.13031 0,0.0987 1.6872,0.8958 2.78202,1.31431 2.03004,0.776 4.25136,1.29527 6.3465,1.48359 0.82518,0.0742 3.90716,-0.0268 4.78161,-0.15669 z"
         id="path3895"
         inkscape:connector-curvature="0" />
      <path
         inkscape:connector-curvature="0"
         id="path3897"
         d="m 311.17468,253.65606 c -3.70602,-0.13866 -7.04968,-1.13668 -9.76276,-2.91399 -1.97167,-1.29163 -3.78228,-3.12851 -4.80689,-4.87661 C 296.33529,245.40525 296,244.63244 296,244.47093 c 0,-0.0294 0.23473,-0.11527 0.52164,-0.19086 1.50894,-0.39757 2.12515,-0.72707 4.57139,-2.44444 1.29181,-0.90691 2.79914,-1.83383 3.42028,-2.10329 0.63147,-0.27393 1.20291,-0.3928 1.91254,-0.39781 1.12318,-0.008 1.85148,0.21223 3.73713,1.1297 1.54136,0.74994 1.8994,0.86957 2.32029,0.77525 0.29162,-0.0654 0.7557,-0.28114 1.17805,-0.54775 0.64256,-0.40564 1.67521,-0.92356 2.17583,-1.09128 1.34669,-0.45118 2.69758,-0.33625 4.07056,0.34631 1.11148,0.55257 2.41821,1.35792 3.46996,2.13858 1.93506,1.43628 2.78906,1.89246 4.16058,2.22247 l 0.46175,0.11111 -0.0394,0.19785 c -0.0623,0.31277 -0.50383,1.20342 -0.89262,1.80059 -1.87529,2.88038 -5.16915,5.25062 -8.84337,6.36364 -2.104,0.63736 -4.72098,0.96219 -7.04991,0.87506 z m 3.03495,-5.54894 c 1.24472,-0.18485 2.46713,-0.5014 3.57982,-0.92702 0.63146,-0.24154 2.11069,-0.94906 2.11069,-1.00955 0,-0.0251 -0.1067,-0.0652 -0.23711,-0.089 -0.1304,-0.0239 -0.82038,-0.20875 -1.53328,-0.41086 -2.63917,-0.74824 -3.73269,-0.91251 -6.10148,-0.91661 -2.13153,-0.004 -3.15708,0.15583 -5.71002,0.88822 -0.78911,0.22638 -1.61256,0.42853 -1.82991,0.44921 -0.21734,0.0206 -0.39517,0.0633 -0.39517,0.0948 0,0.0718 1.22706,0.65149 2.02329,0.95586 1.47639,0.56437 3.0919,0.94202 4.61563,1.07898 0.60014,0.054 2.84158,-0.0195 3.47754,-0.11396 z"
         style="opacity:0.2;fill:#000000;fill-opacity:1;display:inline;enable-background:new" />
      <path
         style="opacity:0.2;fill:#000000;fill-opacity:1;display:inline;enable-background:new"
         d="M 139.87343,192.77857 C 121.3433,192.08529 104.62502,187.09518 91.05959,178.20859 81.20128,171.75046 72.14817,162.56606 67.02516,153.82561 65.67646,151.52454 64,147.66051 64,146.85294 c 0,-0.14693 1.17367,-0.57637 2.60817,-0.95432 7.54473,-1.98784 10.62575,-3.63533 22.85697,-12.22219 6.45908,-4.53453 13.99571,-9.16914 17.10141,-10.51642 3.15733,-1.36968 6.01454,-1.964 9.56269,-1.98907 5.61588,-0.0397 9.25743,1.06112 18.68567,5.64845 7.70679,3.74976 9.49699,4.3479 11.60143,3.87627 1.45811,-0.32677 3.77852,-1.40565 5.89023,-2.73872 3.21285,-2.02819 8.3761,-4.61779 10.87918,-5.4564 6.73345,-2.25592 13.4879,-1.68125 20.3528,1.73157 5.55743,2.76283 12.09105,6.78958 17.34979,10.69286 9.6753,7.18141 13.94531,9.46234 20.80291,11.11237 l 2.30875,0.55552 -0.19709,0.98928 c -0.31149,1.56384 -2.51915,6.01709 -4.4631,9.00293 -9.37646,14.4019 -25.84573,26.2531 -44.21685,31.81824 -10.52,3.1868 -23.60492,4.81094 -35.24955,4.37526 z m 15.17472,-27.74467 c 6.22361,-0.92427 12.33563,-2.50701 17.89912,-4.63512 3.15726,-1.20768 10.55343,-4.74528 10.55343,-5.04773 0,-0.1256 -0.5335,-0.32598 -1.18552,-0.44526 -0.65205,-0.1192 -4.10192,-1.0437 -7.6664,-2.05426 -13.19586,-3.74118 -18.66347,-4.56256 -30.50745,-4.58307 -10.65762,-0.0187 -15.78535,0.77917 -28.55008,4.44112 -3.94553,1.13189 -8.06279,2.14261 -9.14955,2.24605 -1.08672,0.10347 -1.97586,0.3167 -1.97586,0.47384 0,0.35896 6.1353,3.25747 10.11646,4.77931 7.38197,2.82181 15.45949,4.71008 23.07818,5.39488 3.00064,0.26973 14.20784,-0.0976 17.38767,-0.56976 z"
         id="path3899"
         inkscape:connector-curvature="0" />
      <path
         style="opacity:0.2;fill:#000000;fill-opacity:1;display:inline;enable-background:new"
         d="m 431.4326,73.919924 c -2.5479,-0.09533 -4.84666,-0.781465 -6.71191,-2.003371 -1.35551,-0.887994 -2.60032,-2.150849 -3.30473,-3.352662 C 421.23051,68.247495 421,67.716191 421,67.60515 c 0,-0.0202 0.16138,-0.07925 0.35862,-0.131219 1.0374,-0.273328 1.46104,-0.499859 3.14284,-1.680551 0.88812,-0.623498 1.92441,-1.260758 2.35144,-1.446009 0.43413,-0.188331 0.827,-0.27005 1.31487,-0.273496 0.77218,-0.0055 1.2729,0.145904 2.56928,0.776662 1.05968,0.515592 1.30584,0.597835 1.5952,0.532987 0.20049,-0.04493 0.51954,-0.193278 0.8099,-0.376574 0.44177,-0.278876 1.15172,-0.634946 1.49589,-0.750255 0.92585,-0.310189 1.85459,-0.231173 2.79851,0.238091 0.76415,0.379889 1.66252,0.933566 2.3856,1.470267 1.33035,0.987445 1.91748,1.301073 2.8604,1.527952 l 0.31745,0.07638 -0.0271,0.136026 c -0.0428,0.215028 -0.34638,0.82735 -0.61368,1.237903 -1.28926,1.98026 -3.55378,3.609801 -6.07981,4.375009 -1.4465,0.438185 -3.24568,0.661503 -4.84682,0.601597 z m 2.08652,-3.814892 c 0.85575,-0.127087 1.69615,-0.344715 2.46113,-0.637329 0.43412,-0.166056 1.4511,-0.652476 1.4511,-0.694064 0,-0.01727 -0.0734,-0.04482 -0.16301,-0.06122 -0.0897,-0.01639 -0.56402,-0.14351 -1.05413,-0.282462 -1.81443,-0.514411 -2.56623,-0.627352 -4.19478,-0.630171 -1.46542,-0.0026 -2.17048,0.107136 -3.92563,0.610654 -0.54251,0.155635 -1.10864,0.294609 -1.25807,0.308832 -0.14942,0.01423 -0.27168,0.04355 -0.27168,0.06515 0,0.04936 0.84361,0.447902 1.39102,0.657155 1.01502,0.387999 2.12568,0.647636 3.17325,0.741796 0.41258,0.03709 1.95357,-0.01342 2.3908,-0.07834 z"
         id="path3901"
         inkscape:connector-curvature="0" />
      <path
         inkscape:connector-curvature="0"
         id="path3903"
         d="m 427.58735,116.57825 c -1.85302,-0.0693 -3.52485,-0.56834 -4.88139,-1.457 -0.98583,-0.64581 -1.89115,-1.56425 -2.40344,-2.4383 C 420.16764,112.45284 420,112.06644 420,111.98568 c 0,-0.0147 0.11737,-0.0576 0.26081,-0.0954 0.75448,-0.19878 1.06258,-0.36353 2.28571,-1.22221 0.6459,-0.45346 1.39957,-0.91692 1.71013,-1.05165 0.31574,-0.13697 0.60146,-0.1964 0.95627,-0.1989 0.56159,-0.004 0.92575,0.10611 1.86857,0.56484 0.77068,0.37498 0.9497,0.43479 1.16015,0.38763 0.14581,-0.0327 0.37784,-0.14057 0.58901,-0.27387 0.32129,-0.20282 0.83762,-0.46178 1.08792,-0.54564 0.67335,-0.2256 1.3488,-0.16813 2.03528,0.17315 0.55575,0.27629 1.20911,0.67896 1.73499,1.06929 0.96752,0.71814 1.39453,0.94623 2.08029,1.11124 l 0.23087,0.0555 -0.0197,0.0989 c -0.0311,0.15638 -0.25191,0.60171 -0.44631,0.90029 -0.93765,1.44019 -2.58457,2.62531 -4.42168,3.18182 -1.052,0.31868 -2.3605,0.4811 -3.52496,0.43753 z m 1.51746,-2.77447 c 0.62237,-0.0924 1.23357,-0.2507 1.78992,-0.46351 0.31572,-0.12077 1.05534,-0.47453 1.05534,-0.50478 0,-0.0126 -0.0534,-0.0326 -0.11855,-0.0445 -0.0652,-0.0119 -0.4102,-0.10437 -0.76664,-0.20542 -1.31959,-0.37412 -1.86635,-0.45626 -3.05075,-0.45831 -1.06576,-0.002 -1.57853,0.0779 -2.855,0.44411 -0.39456,0.11319 -0.80629,0.21426 -0.91496,0.22461 -0.10867,0.0104 -0.19759,0.0317 -0.19759,0.0474 0,0.0359 0.61354,0.32575 1.01165,0.47793 0.7382,0.28218 1.54595,0.47101 2.30782,0.53949 0.30006,0.027 1.42078,-0.01 1.73876,-0.057 z"
         style="opacity:0.2;fill:#000000;fill-opacity:1;display:inline;enable-background:new" />
      <path
         style="opacity:0.2;fill:#000000;fill-opacity:1;display:inline;enable-background:new"
         d="m 423.69051,151.68385 c -1.38976,-0.052 -2.64363,-0.42625 -3.66104,-1.09275 -0.73937,-0.48436 -1.41836,-1.17319 -1.80258,-1.82872 C 418.12573,148.58979 418,148.29999 418,148.23942 c 0,-0.011 0.088,-0.0432 0.19561,-0.0716 0.56586,-0.14908 0.79693,-0.27264 1.71428,-0.91665 0.48442,-0.3401 1.04968,-0.68769 1.2826,-0.78874 0.2368,-0.10273 0.45109,-0.1473 0.7172,-0.14918 0.42119,-0.003 0.69431,0.0796 1.40143,0.42363 0.57801,0.28124 0.71227,0.3261 0.87011,0.29073 0.10936,-0.0245 0.28338,-0.10543 0.44176,-0.20541 0.24096,-0.15211 0.62821,-0.34633 0.81594,-0.40923 0.50501,-0.1692 1.0116,-0.12609 1.52646,0.12987 0.41681,0.20721 0.90683,0.50922 1.30124,0.80196 0.72564,0.53861 1.0459,0.70968 1.56022,0.83343 l 0.17315,0.0416 -0.0148,0.0742 c -0.0233,0.11729 -0.18894,0.45129 -0.33474,0.67522 -0.70324,1.08014 -1.93842,1.96898 -3.31626,2.38637 -0.789,0.23901 -1.77037,0.36082 -2.64372,0.32814 z m 1.1381,-2.08085 c 0.46678,-0.0693 0.92518,-0.18803 1.34244,-0.34763 0.23679,-0.0906 0.7915,-0.3559 0.7915,-0.37859 0,-0.009 -0.0401,-0.0245 -0.0889,-0.0334 -0.0489,-0.009 -0.30765,-0.0783 -0.57498,-0.15407 -0.98969,-0.28059 -1.39976,-0.34219 -2.28806,-0.34373 -0.79932,-0.001 -1.1839,0.0584 -2.14125,0.33308 -0.29592,0.0849 -0.60472,0.1607 -0.68622,0.16846 -0.0815,0.008 -0.14819,0.0238 -0.14819,0.0356 0,0.0269 0.46015,0.24431 0.75873,0.35845 0.55365,0.21163 1.15947,0.35325 1.73087,0.40461 0.22504,0.0203 1.06558,-0.008 1.30407,-0.0427 z"
         id="path3905"
         inkscape:connector-curvature="0" />
      <path
         style="fill:#ffffff;fill-opacity:1;display:inline;enable-background:new"
         d="m 334.29779,90.758481 c -7.64368,-0.285978 -14.53997,-2.344397 -20.13571,-6.010114 -4.06655,-2.66398 -7.80096,-6.452545 -9.9142,-10.057982 C 303.69154,73.741195 303,72.147284 303,71.81416 c 0,-0.06061 0.48414,-0.237754 1.07587,-0.393657 3.1122,-0.819985 4.38312,-1.499576 9.4285,-5.041653 2.66437,-1.870495 5.77323,-3.782273 7.05433,-4.338026 1.3024,-0.564993 2.481,-0.81015 3.94461,-0.82049 2.31655,-0.01639 3.81869,0.437712 7.70784,2.329987 3.17905,1.546776 3.91751,1.793506 4.78559,1.59896 0.60147,-0.134794 1.55864,-0.579832 2.42972,-1.129722 1.3253,-0.836627 3.45514,-1.904837 4.48766,-2.250765 2.77755,-0.930567 5.56376,-0.693517 8.39553,0.714274 2.29244,1.139666 4.98756,2.800699 7.15679,4.410802 3.99106,2.962333 5.75244,3.903218 8.5812,4.583855 L 369,71.706877 l -0.0813,0.408078 c -0.12849,0.645084 -1.03915,2.482051 -1.84103,3.71371 -3.86779,5.940781 -10.66136,10.829401 -18.23945,13.125024 -4.3395,1.314555 -9.73703,1.98451 -14.54044,1.804792 z m 6.25957,-11.444675 c 2.56724,-0.38126 5.08845,-1.034143 7.38339,-1.911987 1.30237,-0.498168 4.35329,-1.957428 4.35329,-2.08219 0,-0.05181 -0.22007,-0.134464 -0.48903,-0.183667 -0.26897,-0.04917 -1.69204,-0.430529 -3.16239,-0.847385 -5.44329,-1.543234 -7.69868,-1.882056 -12.58432,-1.890515 -4.39627,-0.0077 -6.51146,0.321409 -11.77691,1.831962 -1.62753,0.466906 -3.3259,0.883828 -3.77419,0.926497 -0.44827,0.04268 -0.81504,0.130636 -0.81504,0.195459 0,0.148071 2.53081,1.343705 4.17304,1.971464 3.04506,1.163998 6.37704,1.942908 9.51975,2.225388 1.23776,0.111265 5.86073,-0.04026 7.17241,-0.235026 z"
         id="path3111"
         inkscape:connector-curvature="0" />
      <path
         inkscape:connector-curvature="0"
         id="path3881"
         d="m 318.86519,181.83899 c -5.09578,-0.19065 -9.69331,-1.56293 -13.4238,-4.00674 -2.71104,-1.77599 -5.20064,-4.3017 -6.60947,-6.70533 C 298.46103,170.49413 298,169.43152 298,169.20944 c 0,-0.0404 0.32276,-0.1585 0.71725,-0.26244 2.0748,-0.54665 2.92208,-0.99971 6.28566,-3.3611 1.77625,-1.247 3.84882,-2.52151 4.70289,-2.89202 0.86827,-0.37666 1.654,-0.5401 2.62974,-0.54699 1.54437,-0.0109 2.54579,0.29181 5.13856,1.55333 2.11937,1.03118 2.61167,1.19567 3.19039,1.06597 0.40098,-0.0899 1.0391,-0.38656 1.61982,-0.75315 0.88353,-0.55775 2.30342,-1.26989 2.99177,-1.50051 1.8517,-0.62038 3.70917,-0.46234 5.59702,0.47618 1.52829,0.75978 3.32504,1.86714 4.77119,2.94054 2.66071,1.97489 3.83496,2.60214 5.7208,3.0559 l 0.63491,0.15277 -0.0542,0.27205 c -0.0857,0.43006 -0.69277,1.6547 -1.22735,2.47581 -2.57853,3.96052 -7.10758,7.2196 -12.15964,8.75001 -2.893,0.87637 -6.49135,1.32301 -9.69362,1.2032 z m 4.17305,-7.62979 c 1.71149,-0.25417 3.3923,-0.68942 4.92226,-1.27465 0.86825,-0.33212 2.90219,-1.30496 2.90219,-1.38813 0,-0.0345 -0.14671,-0.0896 -0.32602,-0.12244 -0.17931,-0.0328 -1.12802,-0.28702 -2.10826,-0.56493 -3.62886,-1.02882 -5.13245,-1.2547 -8.38954,-1.26034 -2.93085,-0.005 -4.34098,0.21427 -7.85128,1.22131 -1.08502,0.31127 -2.21726,0.58922 -2.51612,0.61766 -0.29885,0.0284 -0.54336,0.0871 -0.54336,0.13031 0,0.0987 1.6872,0.8958 2.78202,1.31431 2.03004,0.776 4.25136,1.29527 6.3465,1.48359 0.82518,0.0742 3.90716,-0.0268 4.78161,-0.15669 z"
         style="fill:#ffffff;fill-opacity:1;display:inline;enable-background:new" />
      <path
         style="fill:#ffffff;fill-opacity:1;display:inline;enable-background:new"
         d="m 311.17468,252.65563 c -3.70602,-0.13866 -7.04968,-1.13668 -9.76276,-2.91399 -1.97167,-1.29163 -3.78228,-3.12851 -4.80689,-4.87661 C 296.33529,244.40482 296,243.63201 296,243.4705 c 0,-0.0294 0.23473,-0.11527 0.52164,-0.19086 1.50894,-0.39757 2.12515,-0.72707 4.57139,-2.44444 1.29181,-0.90691 2.79914,-1.83383 3.42028,-2.10329 0.63147,-0.27393 1.20291,-0.3928 1.91254,-0.39781 1.12318,-0.008 1.85148,0.21223 3.73713,1.1297 1.54136,0.74994 1.8994,0.86957 2.32029,0.77525 0.29162,-0.0654 0.7557,-0.28114 1.17805,-0.54775 0.64256,-0.40564 1.67521,-0.92356 2.17583,-1.09128 1.34669,-0.45118 2.69758,-0.33625 4.07056,0.34631 1.11148,0.55257 2.41821,1.35792 3.46996,2.13858 1.93506,1.43628 2.78906,1.89246 4.16058,2.22247 l 0.46175,0.11111 -0.0394,0.19785 c -0.0623,0.31277 -0.50383,1.20342 -0.89262,1.80059 -1.87529,2.88038 -5.16915,5.25062 -8.84337,6.36364 -2.104,0.63736 -4.72098,0.96219 -7.04991,0.87506 z m 3.03495,-5.54894 c 1.24472,-0.18485 2.46713,-0.5014 3.57982,-0.92702 0.63146,-0.24154 2.11069,-0.94906 2.11069,-1.00955 0,-0.0251 -0.1067,-0.0652 -0.23711,-0.089 -0.1304,-0.0239 -0.82038,-0.20875 -1.53328,-0.41086 -2.63917,-0.74824 -3.73269,-0.91251 -6.10148,-0.91661 -2.13153,-0.004 -3.15708,0.15583 -5.71002,0.88822 -0.78911,0.22638 -1.61256,0.42853 -1.82991,0.44921 -0.21734,0.0206 -0.39517,0.0633 -0.39517,0.0948 0,0.0718 1.22706,0.65149 2.02329,0.95586 1.47639,0.56437 3.0919,0.94202 4.61563,1.07898 0.60014,0.054 2.84158,-0.0195 3.47754,-0.11396 z"
         id="path3883"
         inkscape:connector-curvature="0" />
      <path
         inkscape:connector-curvature="0"
         id="path3885"
         d="M 139.87343,191.77814 C 121.3433,191.08486 104.62502,186.09475 91.05959,177.20816 81.20128,170.75003 72.14817,161.56563 67.02516,152.82518 65.67646,150.52411 64,146.66008 64,145.85251 c 0,-0.14693 1.17367,-0.57637 2.60817,-0.95432 7.54473,-1.98784 10.62575,-3.63533 22.85697,-12.22219 6.45908,-4.53453 13.99571,-9.16914 17.10141,-10.51642 3.15733,-1.36968 6.01454,-1.964 9.56269,-1.98907 5.61588,-0.0397 9.25743,1.06112 18.68567,5.64845 7.70679,3.74976 9.49699,4.3479 11.60143,3.87627 1.45811,-0.32677 3.77852,-1.40565 5.89023,-2.73872 3.21285,-2.02819 8.3761,-4.61779 10.87918,-5.4564 6.73345,-2.25592 13.4879,-1.68125 20.3528,1.73157 5.55743,2.76283 12.09105,6.78958 17.34979,10.69286 9.6753,7.18141 13.94531,9.46234 20.80291,11.11237 l 2.30875,0.55552 -0.19709,0.98928 c -0.31149,1.56384 -2.51915,6.01709 -4.4631,9.00293 -9.37646,14.4019 -25.84573,26.2531 -44.21685,31.81824 -10.52,3.1868 -23.60492,4.81094 -35.24955,4.37526 z m 15.17472,-27.74467 c 6.22361,-0.92427 12.33563,-2.50701 17.89912,-4.63512 3.15726,-1.20768 10.55343,-4.74528 10.55343,-5.04773 0,-0.1256 -0.5335,-0.32598 -1.18552,-0.44526 -0.65205,-0.1192 -4.10192,-1.0437 -7.6664,-2.05426 -13.19586,-3.74118 -18.66347,-4.56256 -30.50745,-4.58307 -10.65762,-0.0187 -15.78535,0.77917 -28.55008,4.44112 -3.94553,1.13189 -8.06279,2.14261 -9.14955,2.24605 -1.08672,0.10347 -1.97586,0.3167 -1.97586,0.47384 0,0.35896 6.1353,3.25747 10.11646,4.77931 7.38197,2.82181 15.45949,4.71008 23.07818,5.39488 3.00064,0.26973 14.20784,-0.0976 17.38767,-0.56976 z"
         style="fill:#ffffff;fill-opacity:1;display:inline;enable-background:new" />
      <path
         inkscape:connector-curvature="0"
         id="path3887"
         d="m 431.4326,72.919495 c -2.5479,-0.09533 -4.84666,-0.781465 -6.71191,-2.003372 -1.35551,-0.887993 -2.60032,-2.150848 -3.30473,-3.352661 C 421.23051,67.247066 421,66.715762 421,66.604721 c 0,-0.0202 0.16138,-0.07925 0.35862,-0.131219 1.0374,-0.273328 1.46104,-0.499859 3.14284,-1.680551 0.88812,-0.623498 1.92441,-1.260758 2.35144,-1.446009 0.43413,-0.188331 0.827,-0.27005 1.31487,-0.273496 0.77218,-0.0055 1.2729,0.145904 2.56928,0.776662 1.05968,0.515592 1.30584,0.597835 1.5952,0.532987 0.20049,-0.04493 0.51954,-0.193278 0.8099,-0.376574 0.44177,-0.278876 1.15172,-0.634946 1.49589,-0.750255 0.92585,-0.310189 1.85459,-0.231173 2.79851,0.238091 0.76415,0.379889 1.66252,0.933566 2.3856,1.470267 1.33035,0.987445 1.91748,1.301073 2.8604,1.527952 l 0.31745,0.07638 -0.0271,0.136026 c -0.0428,0.215028 -0.34638,0.82735 -0.61368,1.237903 -1.28926,1.98026 -3.55378,3.609801 -6.07981,4.375009 -1.4465,0.438185 -3.24568,0.661503 -4.84682,0.601597 z m 2.08652,-3.814892 c 0.85575,-0.127087 1.69615,-0.344715 2.46113,-0.637329 0.43412,-0.166056 1.4511,-0.652476 1.4511,-0.694064 0,-0.01727 -0.0734,-0.04482 -0.16301,-0.06122 -0.0897,-0.01639 -0.56402,-0.14351 -1.05413,-0.282462 -1.81443,-0.514411 -2.56623,-0.627352 -4.19478,-0.630171 -1.46542,-0.0026 -2.17048,0.107136 -3.92563,0.610654 -0.54251,0.155635 -1.10864,0.294609 -1.25807,0.308832 -0.14942,0.01423 -0.27168,0.04355 -0.27168,0.06515 0,0.04936 0.84361,0.447902 1.39102,0.657155 1.01502,0.387999 2.12568,0.647636 3.17325,0.741796 0.41258,0.03709 1.95357,-0.01342 2.3908,-0.07834 z"
         style="fill:#ffffff;fill-opacity:1;display:inline;enable-background:new" />
      <path
         style="fill:#ffffff;fill-opacity:1;display:inline;enable-background:new"
         d="m 427.58735,115.57782 c -1.85302,-0.0693 -3.52485,-0.56834 -4.88139,-1.457 -0.98583,-0.64581 -1.89115,-1.56425 -2.40344,-2.4383 C 420.16764,111.45241 420,111.06601 420,110.98525 c 0,-0.0147 0.11737,-0.0576 0.26081,-0.0954 0.75448,-0.19878 1.06258,-0.36353 2.28571,-1.22221 0.6459,-0.45346 1.39957,-0.91692 1.71013,-1.05165 0.31574,-0.13697 0.60146,-0.1964 0.95627,-0.1989 0.56159,-0.004 0.92575,0.10611 1.86857,0.56484 0.77068,0.37498 0.9497,0.43479 1.16015,0.38763 0.14581,-0.0327 0.37784,-0.14057 0.58901,-0.27387 0.32129,-0.20282 0.83762,-0.46178 1.08792,-0.54564 0.67335,-0.2256 1.3488,-0.16813 2.03528,0.17315 0.55575,0.27629 1.20911,0.67896 1.73499,1.06929 0.96752,0.71814 1.39453,0.94623 2.08029,1.11124 l 0.23087,0.0555 -0.0197,0.0989 c -0.0311,0.15638 -0.25191,0.60171 -0.44631,0.90029 -0.93765,1.44019 -2.58457,2.62531 -4.42168,3.18182 -1.052,0.31868 -2.3605,0.4811 -3.52496,0.43753 z m 1.51746,-2.77447 c 0.62237,-0.0924 1.23357,-0.2507 1.78992,-0.46351 0.31572,-0.12077 1.05534,-0.47453 1.05534,-0.50478 0,-0.0126 -0.0534,-0.0326 -0.11855,-0.0445 -0.0652,-0.0119 -0.4102,-0.10437 -0.76664,-0.20542 -1.31959,-0.37412 -1.86635,-0.45626 -3.05075,-0.45831 -1.06576,-0.002 -1.57853,0.0779 -2.855,0.44411 -0.39456,0.11319 -0.80629,0.21426 -0.91496,0.22461 -0.10867,0.0104 -0.19759,0.0317 -0.19759,0.0474 0,0.0359 0.61354,0.32575 1.01165,0.47793 0.7382,0.28218 1.54595,0.47101 2.30782,0.53949 0.30006,0.027 1.42078,-0.01 1.73876,-0.057 z"
         id="path3889"
         inkscape:connector-curvature="0" />
      <path
         inkscape:connector-curvature="0"
         id="path3891"
         d="m 423.69051,150.68342 c -1.38976,-0.052 -2.64363,-0.42625 -3.66104,-1.09275 -0.73937,-0.48436 -1.41836,-1.17319 -1.80258,-1.82872 C 418.12573,147.58936 418,147.29956 418,147.23899 c 0,-0.011 0.088,-0.0432 0.19561,-0.0716 0.56586,-0.14908 0.79693,-0.27264 1.71428,-0.91665 0.48442,-0.3401 1.04968,-0.68769 1.2826,-0.78874 0.2368,-0.10273 0.45109,-0.1473 0.7172,-0.14918 0.42119,-0.003 0.69431,0.0796 1.40143,0.42363 0.57801,0.28124 0.71227,0.3261 0.87011,0.29073 0.10936,-0.0245 0.28338,-0.10543 0.44176,-0.20541 0.24096,-0.15211 0.62821,-0.34633 0.81594,-0.40923 0.50501,-0.1692 1.0116,-0.12609 1.52646,0.12987 0.41681,0.20721 0.90683,0.50922 1.30124,0.80196 0.72564,0.53861 1.0459,0.70968 1.56022,0.83343 l 0.17315,0.0416 -0.0148,0.0742 c -0.0233,0.11729 -0.18894,0.45129 -0.33474,0.67522 -0.70324,1.08014 -1.93842,1.96898 -3.31626,2.38637 -0.789,0.23901 -1.77037,0.36082 -2.64372,0.32814 z m 1.1381,-2.08085 c 0.46678,-0.0693 0.92518,-0.18803 1.34244,-0.34763 0.23679,-0.0906 0.7915,-0.3559 0.7915,-0.37859 0,-0.009 -0.0401,-0.0245 -0.0889,-0.0334 -0.0489,-0.009 -0.30765,-0.0783 -0.57498,-0.15407 -0.98969,-0.28059 -1.39976,-0.34219 -2.28806,-0.34373 -0.79932,-10e-4 -1.1839,0.0584 -2.14125,0.33308 -0.29592,0.0849 -0.60472,0.1607 -0.68622,0.16846 -0.0815,0.008 -0.14819,0.0238 -0.14819,0.0356 0,0.0269 0.46015,0.24431 0.75873,0.35845 0.55365,0.21163 1.15947,0.35325 1.73087,0.40461 0.22504,0.0203 1.06558,-0.008 1.30407,-0.0427 z"
         style="fill:#ffffff;fill-opacity:1;display:inline;enable-background:new" />
    </g>
    <g
       inkscape:groupmode="layer"
       id="layer5"
       inkscape:label="Highlights"
       style="display:inline"
       sodipodi:insensitive="true">
      <path
         style="opacity:0.12999998;color:#bebebe;fill:#ffffff;fill-opacity:1;fill-rule:nonzero;stroke:none;stroke-width:0;marker:none;visibility:visible;display:inline;overflow:visible;enable-background:accumulate"
         d="M 84,47 C 56.836703,47 35,68.836703 35,96 l 0,1 C 35,69.836703 56.836703,48 84,48 l 120,0 c 27.1633,0 49,21.836703 49,49 l 0,-1 C 253,68.836703 231.1633,47 204,47 L 84,47 z"
         id="rect3894"
         inkscape:connector-curvature="0" />
      <path
         style="opacity:0.12999998;color:#bebebe;fill:#ffffff;fill-opacity:1;fill-rule:nonzero;stroke:none;stroke-width:0;marker:none;visibility:visible;display:inline;overflow:visible;enable-background:accumulate"
         d="m 419,141 c -1.1253,0 -2,0.8747 -2,2 l 0,1 c 0,-1.1253 0.8747,-2 2,-2 l 10,0 c 1.1253,0 2,0.8747 2,2 l 0,-1 c 0,-1.1253 -0.8747,-2 -2,-2 l -10,0 z"
         id="rect3896"
         inkscape:connector-curvature="0" />
      <path
         style="opacity:0.12999998;color:#bebebe;fill:#ffffff;fill-opacity:1;fill-rule:nonzero;stroke:none;stroke-width:0;marker:none;visibility:visible;display:inline;overflow:visible;enable-background:accumulate"
         d="m 422,102 c -2.2333,0 -4,1.7667 -4,4 l 0,1 c 0,-2.2333 1.7667,-4 4,-4 l 12,0 c 2.2333,0 4,1.7667 4,4 l 0,-1 c 0,-2.2333 -1.7667,-4 -4,-4 l -12,0 z"
         id="rect3898"
         inkscape:connector-curvature="0" />
      <path
         style="opacity:0.12999998;color:#bebebe;fill:#ffffff;fill-opacity:1;fill-rule:nonzero;stroke:none;stroke-width:0;marker:none;visibility:visible;display:inline;overflow:visible;enable-background:accumulate"
         d="m 424,54 c -3.3413,0 -6,2.658703 -6,6 l 0,1 c 0,-3.341297 2.6587,-6 6,-6 l 16,0 c 3.3413,0 6,2.658703 6,6 l 0,-1 c 0,-3.341297 -2.6587,-6 -6,-6 l -16,0 z"
         id="rect3900"
         inkscape:connector-curvature="0" />
      <path
         style="opacity:0.12999998;color:#bebebe;fill:#ffffff;fill-opacity:1;fill-rule:nonzero;stroke:none;stroke-width:0;marker:none;visibility:visible;display:inline;overflow:visible;enable-background:accumulate"
         d="m 300,224 c -4.4493,0 -8,3.5507 -8,8 l 0,1 c 0,-4.4493 3.5507,-8 8,-8 l 24,0 c 4.4493,0 8,3.5507 8,8 l 0,-1 c 0,-4.4493 -3.5507,-8 -8,-8 l -24,0 z"
         id="rect3902"
         inkscape:connector-curvature="0" />
      <path
         style="opacity:0.12999998;color:#bebebe;fill:#ffffff;fill-opacity:1;fill-rule:nonzero;stroke:none;stroke-width:0;marker:none;visibility:visible;display:inline;overflow:visible;enable-background:accumulate"
         d="m 310,33 c -9.4353,0 -17,7.564703 -17,17 l 0,1 c 0,-9.435297 7.5647,-17 17,-17 l 52,0 c 9.4353,0 17,7.564703 17,17 l 0,-1 c 0,-9.435297 -7.5647,-17 -17,-17 l -52,0 z"
         id="rect3904"
         inkscape:connector-curvature="0" />
      <path
         style="opacity:0.12999998;color:#bebebe;fill:#ffffff;fill-opacity:1;fill-rule:nonzero;stroke:none;stroke-width:0;marker:none;visibility:visible;display:inline;overflow:visible;enable-background:accumulate"
         d="m 302.5,143 c -6.3883,0 -11.5,5.1117 -11.5,11.5 l 0,1 c 0,-6.3883 5.1117,-11.5 11.5,-11.5 l 35,0 c 6.3883,0 11.5,5.1117 11.5,11.5 l 0,-1 c 0,-6.3883 -5.1117,-11.5 -11.5,-11.5 l -35,0 z"
         id="rect3906"
         inkscape:connector-curvature="0" />
      <path
         id="path4085"
         d="m 204,266 c 27.1633,0 49,-21.8367 49,-49 l 0,-1 c 0,27.1633 -21.8367,49 -49,49 L 84,265 C 56.8367,265 35,243.1633 35,216 l 0,1 c 0,27.1633 21.8367,49 49,49 l 120,0 z"
         style="opacity:0.41;color:#bebebe;fill:#000000;fill-opacity:1;fill-rule:nonzero;stroke:none;stroke-width:0;marker:none;visibility:visible;display:inline;overflow:visible;enable-background:accumulate"
         inkscape:connector-curvature="0" />
      <path
         id="path4087"
         d="m 429,156 c 1.1253,0 2,-0.8747 2,-2 l 0,-1 c 0,1.1253 -0.8747,2 -2,2 l -10,0 c -1.1253,0 -2,-0.8747 -2,-2 l 0,1 c 0,1.1253 0.8747,2 2,2 l 10,0 z"
         style="opacity:0.3;color:#bebebe;fill:#000000;fill-opacity:1;fill-rule:nonzero;stroke:none;stroke-width:0;marker:none;visibility:visible;display:inline;overflow:visible;enable-background:accumulate"
         inkscape:connector-curvature="0" />
      <path
         id="path4089"
         d="m 434,123 c 2.2333,0 4,-1.7667 4,-4 l 0,-1 c 0,2.2333 -1.7667,4 -4,4 l -12,0 c -2.2333,0 -4,-1.7667 -4,-4 l 0,1 c 0,2.2333 1.7667,4 4,4 l 12,0 z"
         style="opacity:0.3;color:#bebebe;fill:#000000;fill-opacity:1;fill-rule:nonzero;stroke:none;stroke-width:0;marker:none;visibility:visible;display:inline;overflow:visible;enable-background:accumulate"
         inkscape:connector-curvature="0" />
      <path
         id="path4091"
         d="m 440,83 c 3.3413,0 6,-2.6587 6,-6 l 0,-1 c 0,3.3413 -2.6587,6 -6,6 l -16,0 c -3.3413,0 -6,-2.6587 -6,-6 l 0,1 c 0,3.3413 2.6587,6 6,6 l 16,0 z"
         style="opacity:0.41;color:#bebebe;fill:#000000;fill-opacity:1;fill-rule:nonzero;stroke:none;stroke-width:0;marker:none;visibility:visible;display:inline;overflow:visible;enable-background:accumulate"
         inkscape:connector-curvature="0" />
      <path
         id="path4093"
         d="m 324,265 c 4.4493,0 8,-3.5507 8,-8 l 0,-1 c 0,4.4493 -3.5507,8 -8,8 l -24,0 c -4.4493,0 -8,-3.5507 -8,-8 l 0,1 c 0,4.4493 3.5507,8 8,8 l 24,0 z"
         style="opacity:0.41;color:#bebebe;fill:#000000;fill-opacity:1;fill-rule:nonzero;stroke:none;stroke-width:0;marker:none;visibility:visible;display:inline;overflow:visible;enable-background:accumulate"
         inkscape:connector-curvature="0" />
      <path
         id="path4095"
         d="m 362,120 c 9.4353,0 17,-7.5647 17,-17 l 0,-1 c 0,9.4353 -7.5647,17 -17,17 l -52,0 c -9.4353,0 -17,-7.5647 -17,-17 l 0,1 c 0,9.4353 7.5647,17 17,17 l 52,0 z"
         style="opacity:0.41;color:#bebebe;fill:#000000;fill-opacity:1;fill-rule:nonzero;stroke:none;stroke-width:0;marker:none;visibility:visible;display:inline;overflow:visible;enable-background:accumulate"
         inkscape:connector-curvature="0" />
      <path
         id="path4097"
         d="m 337.5,202 c 6.3883,0 11.5,-5.1117 11.5,-11.5 l 0,-1 c 0,6.3883 -5.1117,11.5 -11.5,11.5 l -35,0 c -6.3883,0 -11.5,-5.1117 -11.5,-11.5 l 0,1 c 0,6.3883 5.1117,11.5 11.5,11.5 l 35,0 z"
         style="opacity:0.41;color:#bebebe;fill:#000000;fill-opacity:1;fill-rule:nonzero;stroke:none;stroke-width:0;marker:none;visibility:visible;display:inline;overflow:visible;enable-background:accumulate"
         inkscape:connector-curvature="0" />
      <path
         inkscape:connector-curvature="0"
         id="path4280"
         d="M 84,265 C 56.836703,265 35,243.1633 35,216 l 0,-1 c 0,27.1633 21.836703,49 49,49 l 120,0 c 27.1633,0 49,-21.8367 49,-49 l 0,1 c 0,27.1633 -21.8367,49 -49,49 l -120,0 z"
         style="opacity:0.1;color:#bebebe;fill:#ffffff;fill-opacity:1;fill-rule:nonzero;stroke:none;stroke-width:0;marker:none;visibility:visible;display:inline;overflow:visible;enable-background:accumulate" />
      <path
         style="opacity:0.1;color:#bebebe;fill:#ffffff;fill-opacity:1;fill-rule:nonzero;stroke:none;stroke-width:0;marker:none;visibility:visible;display:inline;overflow:visible;enable-background:accumulate"
         d="m 300,264 c -4.4493,0 -8,-3.5507 -8,-8 l 0,-1 c 0,4.4493 3.5507,8 8,8 l 24,0 c 4.4493,0 8,-3.5507 8,-8 l 0,1 c 0,4.4493 -3.5507,8 -8,8 l -24,0 z"
         id="path4294"
         inkscape:connector-curvature="0" />
      <path
         style="opacity:0.1;color:#bebebe;fill:#ffffff;fill-opacity:1;fill-rule:nonzero;stroke:none;stroke-width:0;marker:none;visibility:visible;display:inline;overflow:visible;enable-background:accumulate"
         d="m 302.5,201 c -6.3883,0 -11.5,-5.1117 -11.5,-11.5 l 0,-1 c 0,6.3883 5.1117,11.5 11.5,11.5 l 35,0 c 6.3883,0 11.5,-5.1117 11.5,-11.5 l 0,1 c 0,6.3883 -5.1117,11.5 -11.5,11.5 l -35,0 z"
         id="path4296"
         inkscape:connector-curvature="0" />
      <path
         style="opacity:0.1;color:#bebebe;fill:#ffffff;fill-opacity:1;fill-rule:nonzero;stroke:none;stroke-width:0;marker:none;visibility:visible;display:inline;overflow:visible;enable-background:accumulate"
         d="m 310,119 c -9.4353,0 -17,-7.5647 -17,-17 l 0,-1 c 0,9.4353 7.5647,17 17,17 l 52,0 c 9.4353,0 17,-7.5647 17,-17 l 0,1 c 0,9.4353 -7.5647,17 -17,17 l -52,0 z"
         id="path4298"
         inkscape:connector-curvature="0" />
      <path
         style="opacity:0.1;color:#bebebe;fill:#ffffff;fill-opacity:1;fill-rule:nonzero;stroke:none;stroke-width:0;marker:none;visibility:visible;display:inline;overflow:visible;enable-background:accumulate"
         d="m 424,82 c -3.3413,0 -6,-2.658703 -6,-6 l 0,-1 c 0,3.341297 2.6587,6 6,6 l 16,0 c 3.3413,0 6,-2.658703 6,-6 l 0,1 c 0,3.341297 -2.6587,6 -6,6 l -16,0 z"
         id="path4300"
         inkscape:connector-curvature="0" />
      <path
         style="opacity:0.1;color:#bebebe;fill:#ffffff;fill-opacity:1;fill-rule:nonzero;stroke:none;stroke-width:0;marker:none;visibility:visible;display:inline;overflow:visible;enable-background:accumulate"
         d="m 422,122 c -2.2333,0 -4,-1.7667 -4,-4 l 0,-1 c 0,2.2333 1.7667,4 4,4 l 12,0 c 2.2333,0 4,-1.7667 4,-4 l 0,1 c 0,2.2333 -1.7667,4 -4,4 l -12,0 z"
         id="path4302"
         inkscape:connector-curvature="0" />
      <path
         style="opacity:0.1;color:#bebebe;fill:#ffffff;fill-opacity:1;fill-rule:nonzero;stroke:none;stroke-width:0;marker:none;visibility:visible;display:inline;overflow:visible;enable-background:accumulate"
         d="m 419,154.5 c -1.1253,0 -2,-0.8747 -2,-2 l 0,-1 c 0,1.1253 0.8747,2 2,2 l 10,0 c 1.1253,0 2,-0.8747 2,-2 l 0,1 c 0,1.1253 -0.8747,2 -2,2 l -10,0 z"
         id="path4304"
         inkscape:connector-curvature="0" />
    </g>
    <g
       inkscape:groupmode="layer"
       id="layer3"
       inkscape:label="Border"
       style="display:inline"
       sodipodi:insensitive="true">
      <path
         style="opacity:0.41;color:#bebebe;fill:#000000;fill-opacity:1;fill-rule:nonzero;stroke:none;stroke-width:0;marker:none;visibility:visible;display:inline;overflow:visible;enable-background:accumulate"
         d="m 422,101 c -2.77,0 -5,2.23 -5,5 l 0,12 c 0,2.77 2.23,5 5,5 l 12,0 c 2.77,0 5,-2.23 5,-5 l 0,-12 c 0,-2.77 -2.23,-5 -5,-5 l -12,0 z m 0,1 12,0 c 2.2333,0 4,1.7667 4,4 l 0,12 c 0,2.2333 -1.7667,4 -4,4 l -12,0 c -2.2333,0 -4,-1.7667 -4,-4 l 0,-12 c 0,-2.2333 1.7667,-4 4,-4 z"
         id="rect4099"
         inkscape:connector-curvature="0" />
      <path
         style="opacity:0.41;color:#bebebe;fill:#000000;fill-opacity:1;fill-rule:nonzero;stroke:none;stroke-width:0;marker:none;visibility:visible;display:inline;overflow:visible;enable-background:accumulate"
         d="m 424,53 c -3.878,0 -7,3.122 -7,7 l 0,16 c 0,3.878 3.122,7 7,7 l 16,0 c 3.878,0 7,-3.122 7,-7 l 0,-16 c 0,-3.878 -3.122,-7 -7,-7 l -16,0 z m 0,1 16,0 c 3.3413,0 6,2.658703 6,6 l 0,16 c 0,3.341297 -2.6587,6 -6,6 l -16,0 c -3.3413,0 -6,-2.658703 -6,-6 l 0,-16 c 0,-3.341297 2.6587,-6 6,-6 z"
         id="rect4151"
         inkscape:connector-curvature="0" />
      <path
         style="opacity:0.41;color:#bebebe;fill:#000000;fill-opacity:1;fill-rule:nonzero;stroke:none;stroke-width:0;marker:none;visibility:visible;display:inline;overflow:visible;enable-background:accumulate"
         d="m 419,140 c -1.662,0 -3,1.338 -3,3 l 0,10 c 0,1.662 1.338,3 3,3 l 10,0 c 1.662,0 3,-1.338 3,-3 l 0,-10 c 0,-1.662 -1.338,-3 -3,-3 l -10,0 z m 0,1 10,0 c 1.1253,0 2,0.8747 2,2 l 0,10 c 0,1.1253 -0.8747,2 -2,2 l -10,0 c -1.1253,0 -2,-0.8747 -2,-2 l 0,-10 c 0,-1.1253 0.8747,-2 2,-2 z"
         id="rect4095"
         inkscape:connector-curvature="0" />
      <path
         style="opacity:0.41;color:#bebebe;fill:#000000;fill-opacity:1;fill-rule:nonzero;stroke:none;stroke-width:0;marker:none;visibility:visible;display:inline;overflow:visible;enable-background:accumulate"
         d="m 300,223 c -4.986,0 -9,4.014 -9,9 l 0,24 c 0,4.986 4.014,9 9,9 l 24,0 c 4.986,0 9,-4.014 9,-9 l 0,-24 c 0,-4.986 -4.014,-9 -9,-9 l -24,0 z m 0,1 24,0 c 4.4493,0 8,3.5507 8,8 l 0,24 c 0,4.4493 -3.5507,8 -8,8 l -24,0 c -4.4493,0 -8,-3.5507 -8,-8 l 0,-24 c 0,-4.4493 3.5507,-8 8,-8 z"
         id="rect4783"
         inkscape:connector-curvature="0" />
      <path
         style="opacity:0.41;color:#bebebe;fill:#000000;fill-opacity:1;fill-rule:nonzero;stroke:none;stroke-width:0;marker:none;visibility:visible;display:inline;overflow:visible;enable-background:accumulate"
         d="m 302.5,142 c -6.925,0 -12.5,5.575 -12.5,12.5 l 0,35 c 0,6.925 5.575,12.5 12.5,12.5 l 35,0 c 6.925,0 12.5,-5.575 12.5,-12.5 l 0,-35 c 0,-6.925 -5.575,-12.5 -12.5,-12.5 l -35,0 z m 0,1 35,0 c 6.3883,0 11.5,5.1117 11.5,11.5 l 0,35 c 0,6.3883 -5.1117,11.5 -11.5,11.5 l -35,0 c -6.3883,0 -11.5,-5.1117 -11.5,-11.5 l 0,-35 c 0,-6.3883 5.1117,-11.5 11.5,-11.5 z"
         id="rect4515"
         inkscape:connector-curvature="0" />
      <path
         style="opacity:0.41;color:#bebebe;fill:#000000;fill-opacity:1;fill-rule:nonzero;stroke:none;stroke-width:0;marker:none;visibility:visible;display:inline;overflow:visible;enable-background:accumulate"
         d="m 310,32 c -9.972,0 -18,8.028 -18,18 l 0,52 c 0,9.972 8.028,18 18,18 l 52,0 c 9.972,0 18,-8.028 18,-18 l 0,-52 c 0,-9.972 -8.028,-18 -18,-18 l -52,0 z m 0,1 52,0 c 9.4353,0 17,7.564703 17,17 l 0,52 c 0,9.4353 -7.5647,17 -17,17 l -52,0 c -9.4353,0 -17,-7.5647 -17,-17 l 0,-52 c 0,-9.435297 7.5647,-17 17,-17 z"
         id="rect4511"
         inkscape:connector-curvature="0" />
      <path
         style="opacity:0.41;color:#bebebe;fill:#000000;fill-opacity:1;fill-rule:nonzero;stroke:none;stroke-width:0;marker:none;visibility:visible;display:inline;overflow:visible;enable-background:accumulate"
         d="M 84,46 C 56.3,46 34,68.3 34,96 l 0,120 c 0,27.7 22.3,50 50,50 l 120,0 c 27.7,0 50,-22.3 50,-50 L 254,96 C 254,68.3 231.7,46 204,46 L 84,46 z m 0,1 120,0 c 27.1633,0 49,21.836703 49,49 l 0,120 c 0,27.1633 -21.8367,49 -49,49 L 84,265 C 56.836703,265 35,243.1633 35,216 L 35,96 C 35,68.836703 56.836703,47 84,47 z"
         id="rect4040"
         inkscape:connector-curvature="0" />
    </g>
  </g>
</svg>
