<?xml version="1.0" encoding="UTF-8" standalone="no"?>
<!-- Created with Inkscape (http://www.inkscape.org/) -->

<svg
   xmlns:dc="http://purl.org/dc/elements/1.1/"
   xmlns:cc="http://creativecommons.org/ns#"
   xmlns:rdf="http://www.w3.org/1999/02/22-rdf-syntax-ns#"
   xmlns:svg="http://www.w3.org/2000/svg"
   xmlns="http://www.w3.org/2000/svg"
   xmlns:xlink="http://www.w3.org/1999/xlink"
   xmlns:sodipodi="http://sodipodi.sourceforge.net/DTD/sodipodi-0.dtd"
   xmlns:inkscape="http://www.inkscape.org/namespaces/inkscape"
   inkscape:export-ydpi="90.000000"
   inkscape:export-xdpi="90.000000"
   width="480"
   height="300"
   id="svg11300"
   sodipodi:version="0.32"
   inkscape:version="0.48.4 r9939"
   sodipodi:docname="distributor-logo-iris.svg"
   inkscape:output_extension="org.inkscape.output.svg.inkscape"
   version="1.0"
   style="display:inline;enable-background:new"
   inkscape:export-filename="/home/sam/moka2-iris.png">
  <sodipodi:namedview
     stroke="#ef2929"
     fill="#f57900"
     id="base"
     pagecolor="#ffffff"
     bordercolor="#666666"
     borderopacity="0.25490196"
     inkscape:pageopacity="0"
     inkscape:pageshadow="2"
     inkscape:zoom="1"
     inkscape:cx="431.05519"
     inkscape:cy="192.68345"
     inkscape:current-layer="layer7"
     showgrid="false"
     inkscape:grid-bbox="true"
     inkscape:document-units="px"
     inkscape:showpageshadow="false"
     inkscape:window-width="1364"
     inkscape:window-height="701"
     inkscape:window-x="0"
     inkscape:window-y="27"
     width="400px"
     height="300px"
     inkscape:snap-nodes="true"
     inkscape:snap-bbox="true"
     gridtolerance="10000"
     inkscape:object-nodes="true"
     inkscape:snap-grids="true"
     showguides="true"
     inkscape:guide-bbox="true"
     inkscape:window-maximized="1"
     inkscape:bbox-nodes="true"
     inkscape:bbox-paths="true"
     inkscape:snap-bbox-edge-midpoints="true"
     inkscape:snap-bbox-midpoints="true">
    <inkscape:grid
       spacingy="1px"
       spacingx="1px"
       id="grid5883"
       type="xygrid"
       enabled="true"
       visible="true"
       empspacing="4"
       snapvisiblegridlinesonly="true"
       dotted="false"
       color="#000000"
       opacity="0.1254902"
       empcolor="#203ef3"
       empopacity="0.36470588" />
    <inkscape:grid
       type="xygrid"
       id="grid11592"
       empspacing="8"
       visible="true"
       enabled="false"
       spacingx="0.5px"
       spacingy="0.5px"
       color="#ff0000"
       opacity="0.1254902"
       empcolor="#ff0000"
       empopacity="0.25098039"
       snapvisiblegridlinesonly="true"
       dotted="true" />
  </sodipodi:namedview>
  <defs
     id="defs3">
    <linearGradient
       id="outerBackgroundGradient">
      <stop
         style="stop-color:#483949;stop-opacity:1;"
         offset="0"
         id="stop3864-8-6" />
      <stop
         style="stop-color:#7c6d7c;stop-opacity:1;"
         offset="1"
         id="stop3866-9-1" />
    </linearGradient>
    <linearGradient
       inkscape:collect="always"
       xlink:href="#outerBackgroundGradient"
       id="linearGradient4097"
       gradientUnits="userSpaceOnUse"
       x1="264"
       y1="280.00003"
       x2="264"
       y2="40.00005"
       gradientTransform="matrix(0.06666667,0,0,0.06666667,414.4,137.33333)" />
    <linearGradient
       inkscape:collect="always"
       xlink:href="#outerBackgroundGradient"
       id="linearGradient4101"
       gradientUnits="userSpaceOnUse"
       gradientTransform="matrix(0.0875,0,0,0.0875,414.9,97.5)"
       x1="286.85715"
       y1="302.85715"
       x2="286.85715"
       y2="28.571428" />
    <linearGradient
       inkscape:collect="always"
       xlink:href="#outerBackgroundGradient"
       id="linearGradient4153"
       gradientUnits="userSpaceOnUse"
       gradientTransform="matrix(0.11931818,0,0,0.11931818,414.13636,48.22727)"
       x1="283.80957"
       y1="299.80954"
       x2="283.80957"
       y2="31.61907" />
    <linearGradient
       inkscape:collect="always"
       xlink:href="#outerBackgroundGradient"
       id="linearGradient4869"
       gradientUnits="userSpaceOnUse"
       gradientTransform="matrix(0.175,0,0,-0.175,286.79999,-215.99997)"
       x1="281.14291"
       y1="297.14304"
       x2="281.14291"
       y2="22.857315" />
    <clipPath
       clipPathUnits="userSpaceOnUse"
       id="clipPath4891">
      <rect
         ry="9"
         y="223"
         x="307"
         height="42"
         width="42"
         id="rect4893"
         style="color:#bebebe;fill:url(#linearGradient4895);fill-opacity:1;fill-rule:nonzero;stroke:none;stroke-width:0;marker:none;visibility:visible;display:inline;overflow:visible;enable-background:accumulate"
         transform="matrix(0,1,-1,0,0,0)" />
    </clipPath>
    <linearGradient
       inkscape:collect="always"
       xlink:href="#outerBackgroundGradient"
       id="linearGradient4895"
       gradientUnits="userSpaceOnUse"
       gradientTransform="matrix(0.175,0,0,0.175,302.79999,215.99997)"
       x1="144.00006"
       y1="280.00018"
       x2="144.00006"
       y2="40.000172" />
    <clipPath
       clipPathUnits="userSpaceOnUse"
       id="clipPath4044">
      <rect
         ry="4"
         y="85"
         x="433"
         height="22"
         width="22"
         id="rect4046"
         style="color:#bebebe;fill:url(#linearGradient4048);fill-opacity:1;fill-rule:nonzero;stroke:none;stroke-width:0;marker:none;visibility:visible;display:inline;overflow:visible;enable-background:accumulate" />
    </clipPath>
    <linearGradient
       inkscape:collect="always"
       xlink:href="#outerBackgroundGradient"
       id="linearGradient4048"
       gradientUnits="userSpaceOnUse"
       gradientTransform="matrix(0.0875,0,0,0.0875,430.9,81.499996)"
       x1="149.71428"
       y1="291.42862"
       x2="149.71428"
       y2="40.000046" />
    <clipPath
       clipPathUnits="userSpaceOnUse"
       id="clipPath4089">
      <rect
         style="color:#bebebe;fill:url(#linearGradient4093);fill-opacity:1;fill-rule:nonzero;stroke:none;stroke-width:0;marker:none;visibility:visible;display:inline;overflow:visible;enable-background:accumulate"
         id="rect4091"
         width="30"
         height="30"
         x="433"
         y="37"
         ry="6" />
    </clipPath>
    <linearGradient
       inkscape:collect="always"
       xlink:href="#outerBackgroundGradient"
       id="linearGradient4093"
       gradientUnits="userSpaceOnUse"
       gradientTransform="matrix(0.11931818,0,0,0.11931818,430.13636,32.227267)"
       x1="149.71432"
       y1="291.42862"
       x2="149.71432"
       y2="40.00005" />
    <clipPath
       clipPathUnits="userSpaceOnUse"
       id="clipPath3855">
      <rect
         style="color:#bebebe;fill:url(#linearGradient3859);fill-opacity:1;fill-rule:nonzero;stroke:none;stroke-width:0;marker:none;visibility:visible;display:inline;overflow:visible;enable-background:accumulate"
         id="rect3857"
         width="16"
         height="16"
         x="304"
         y="212"
         ry="3"
         transform="matrix(0,1,-1,0,0,0)" />
    </clipPath>
    <linearGradient
       inkscape:collect="always"
       xlink:href="#outerBackgroundGradient"
       id="linearGradient3859"
       gradientUnits="userSpaceOnUse"
       gradientTransform="matrix(0.06666667,0,0,0.06666667,302.4,209.33333)"
       x1="144"
       y1="280.00003"
       x2="144"
       y2="40.00005" />
    <clipPath
       clipPathUnits="userSpaceOnUse"
       id="clipPath3862">
      <rect
         ry="50"
         y="46"
         x="34"
         height="220"
         width="220"
         id="rect3864"
         style="color:#bebebe;fill:url(#linearGradient3866);fill-opacity:1;fill-rule:nonzero;stroke:none;stroke-width:0;marker:none;visibility:visible;display:inline;overflow:visible;enable-background:accumulate" />
    </clipPath>
    <linearGradient
       inkscape:collect="always"
       xlink:href="#outerBackgroundGradient"
       id="linearGradient3866"
       gradientUnits="userSpaceOnUse"
       gradientTransform="translate(0,-4)"
       x1="144"
       y1="280"
       x2="144"
       y2="40" />
    <linearGradient
       inkscape:collect="always"
       xlink:href="#outerBackgroundGradient"
       id="linearGradient3876"
       gradientUnits="userSpaceOnUse"
       gradientTransform="translate(0,-4)"
       x1="272"
       y1="288"
       x2="272"
       y2="32" />
    <clipPath
       clipPathUnits="userSpaceOnUse"
       id="clipPath4187">
      <rect
         ry="12.5"
         y="142"
         x="290"
         height="60"
         width="60"
         id="rect4189"
         style="color:#bebebe;fill:url(#linearGradient4191);fill-opacity:1;fill-rule:nonzero;stroke:none;stroke-width:0;marker:none;visibility:visible;display:inline;overflow:visible;enable-background:accumulate" />
    </clipPath>
    <linearGradient
       inkscape:collect="always"
       xlink:href="#outerBackgroundGradient"
       id="linearGradient4191"
       gradientUnits="userSpaceOnUse"
       x1="352"
       y1="204"
       x2="352"
       y2="140" />
    <linearGradient
       inkscape:collect="always"
       xlink:href="#outerBackgroundGradient"
       id="linearGradient4197"
       gradientUnits="userSpaceOnUse"
       x1="384"
       y1="124"
       x2="384"
       y2="28" />
    <linearGradient
       inkscape:collect="always"
       xlink:href="#outerBackgroundGradient"
       id="linearGradient4199"
       gradientUnits="userSpaceOnUse"
       x1="352"
       y1="204"
       x2="352"
       y2="140" />
    <clipPath
       clipPathUnits="userSpaceOnUse"
       id="clipPath4346">
      <rect
         style="color:#bebebe;fill:url(#linearGradient4350);fill-opacity:1;fill-rule:nonzero;stroke:none;stroke-width:0;marker:none;visibility:visible;display:inline;overflow:visible;enable-background:accumulate"
         id="rect4348"
         width="88"
         height="88"
         x="292"
         y="32"
         ry="18" />
    </clipPath>
    <linearGradient
       inkscape:collect="always"
       xlink:href="#outerBackgroundGradient"
       id="linearGradient4350"
       gradientUnits="userSpaceOnUse"
       x1="384"
       y1="124"
       x2="384"
       y2="28" />
    <clipPath
       clipPathUnits="userSpaceOnUse"
       id="clipPath3871">
      <rect
         ry="5"
         y="101"
         x="417"
         height="22"
         width="22"
         id="rect3873"
         style="color:#bebebe;fill:url(#linearGradient3875);fill-opacity:1;fill-rule:nonzero;stroke:none;stroke-width:0;marker:none;visibility:visible;display:inline;overflow:visible;enable-background:accumulate" />
    </clipPath>
    <linearGradient
       inkscape:collect="always"
       xlink:href="#outerBackgroundGradient"
       id="linearGradient3875"
       gradientUnits="userSpaceOnUse"
       gradientTransform="matrix(0.0875,0,0,0.0875,414.9,97.5)"
       x1="286.85715"
       y1="302.85715"
       x2="286.85715"
       y2="28.571428" />
    <clipPath
       clipPathUnits="userSpaceOnUse"
       id="clipPath3881">
      <rect
         style="color:#bebebe;fill:url(#linearGradient3885);fill-opacity:1;fill-rule:nonzero;stroke:none;stroke-width:0;marker:none;visibility:visible;display:inline;overflow:visible;enable-background:accumulate"
         id="rect3883"
         width="30"
         height="30"
         x="417"
         y="53"
         ry="7" />
    </clipPath>
    <linearGradient
       inkscape:collect="always"
       xlink:href="#outerBackgroundGradient"
       id="linearGradient3885"
       gradientUnits="userSpaceOnUse"
       gradientTransform="matrix(0.11931818,0,0,0.11931818,414.13636,48.22727)"
       x1="283.80957"
       y1="299.80954"
       x2="283.80957"
       y2="31.61907" />
  </defs>
  <metadata
     id="metadata4">
    <rdf:RDF>
      <cc:Work
         rdf:about="">
        <dc:format>image/svg+xml</dc:format>
        <dc:type
           rdf:resource="http://purl.org/dc/dcmitype/StillImage" />
        <dc:creator>
          <cc:Agent>
            <dc:title>Sam Hewitt</dc:title>
          </cc:Agent>
        </dc:creator>
        <dc:source />
        <cc:license
           rdf:resource="" />
        <dc:title></dc:title>
        <dc:subject>
          <rdf:Bag />
        </dc:subject>
        <dc:date />
        <dc:rights>
          <cc:Agent>
            <dc:title />
          </cc:Agent>
        </dc:rights>
        <dc:publisher>
          <cc:Agent>
            <dc:title />
          </cc:Agent>
        </dc:publisher>
        <dc:identifier />
        <dc:relation />
        <dc:language />
        <dc:coverage />
        <dc:description />
        <dc:contributor>
          <cc:Agent>
            <dc:title />
          </cc:Agent>
        </dc:contributor>
      </cc:Work>
      <cc:Work
         rdf:about="">
        <dc:format>image/svg+xml</dc:format>
        <dc:type
           rdf:resource="http://purl.org/dc/dcmitype/StillImage" />
      </cc:Work>
    </rdf:RDF>
  </metadata>
  <g
     style="display:inline"
     inkscape:groupmode="layer"
     inkscape:label="Icon"
     id="layer1">
    <g
       style="display:none"
       inkscape:label="Baseplate"
       id="layer7"
       inkscape:groupmode="layer">
      <text
         y="19.745117"
         xml:space="preserve"
         x="15.006836"
         style="font-size:18px;font-style:normal;font-variant:normal;font-weight:normal;font-stretch:normal;fill:#000000;fill-opacity:1;stroke:none;display:inline;enable-background:new;font-family:DejaVu Sans;-inkscape-font-specification:DejaVu Sans"
         inkscape:label="context"
         id="context"><tspan
           style="font-style:normal;font-variant:normal;font-weight:normal;font-stretch:normal;font-family:DejaVu Sans;-inkscape-font-specification:DejaVu Sans"
           y="19.745117"
           x="15.006836"
           sodipodi:role="line"
           id="tspan3933">places</tspan></text>
      <text
         y="19.745117"
         xml:space="preserve"
         x="122.48828"
         style="font-size:18px;font-style:normal;font-variant:normal;font-weight:bold;font-stretch:normal;text-align:start;line-height:125%;writing-mode:lr-tb;text-anchor:start;fill:#000000;fill-opacity:1;stroke:none;display:inline;enable-background:new;font-family:DejaVu Sans;-inkscape-font-specification:DejaVu Sans Bold"
         sodipodi:linespacing="125%"
         inkscape:label="icon-name"
         id="icon-name"><tspan
           style="font-size:18px;font-style:normal;font-variant:normal;font-weight:bold;font-stretch:normal;font-family:DejaVu Sans;-inkscape-font-specification:DejaVu Sans Bold"
           y="19.745117"
           x="122.48828"
           sodipodi:role="line"
           id="tspan3937">distributor-logo-nitrux</tspan></text>
      <rect
         style="fill:#eeeeec;fill-opacity:1;fill-rule:nonzero;stroke:none;stroke-width:2;marker:none;visibility:visible;display:inline;overflow:visible;enable-background:accumulate"
         id="rect16x16"
         width="16"
         height="16"
         x="416"
         y="140"
         inkscape:label="16x16" />
      <rect
         style="fill:#d4d4d4;fill-opacity:1;fill-rule:nonzero;stroke:none;stroke-width:2;marker:none;visibility:visible;display:inline;overflow:visible;enable-background:accumulate"
         id="rect24x24"
         width="24"
         height="24"
         x="416"
         y="100"
         inkscape:label="24x24" />
      <rect
         style="fill:#eeeeec;fill-opacity:1;fill-rule:nonzero;stroke:none;stroke-width:2;marker:none;visibility:visible;display:inline;overflow:visible;enable-background:accumulate"
         id="rect32x32"
         width="32"
         height="32"
         x="416"
         y="52"
         inkscape:label="32x32" />
      <rect
         inkscape:label="22x22"
         y="101"
         x="417"
         height="22"
         width="22"
         id="rect22x22"
         style="fill:#eeeeec;fill-opacity:1;fill-rule:nonzero;stroke:none;stroke-width:2;marker:none;visibility:visible;display:inline;overflow:visible;enable-background:accumulate" />
      <rect
         inkscape:label="48x48"
         y="220"
         x="288"
         height="48"
         width="48"
         id="rect48x48"
         style="fill:#eeeeec;fill-opacity:1;fill-rule:nonzero;stroke:none;stroke-width:2;marker:none;visibility:visible;display:inline;overflow:visible;enable-background:accumulate" />
      <rect
         style="fill:#eeeeec;fill-opacity:1;fill-rule:nonzero;stroke:none;stroke-width:2;marker:none;visibility:visible;display:inline;overflow:visible;enable-background:accumulate"
         id="rect256x256"
         width="256"
         height="256"
         x="16"
         y="28"
         inkscape:label="256x256" />
      <rect
         style="fill:#eeeeec;fill-opacity:1;fill-rule:nonzero;stroke:none;stroke-width:2;marker:none;visibility:visible;display:inline;overflow:visible;enable-background:accumulate"
         id="rect64x64"
         width="64"
         height="64"
         x="288"
         y="140"
         inkscape:label="64x64" />
      <rect
         style="fill:#eeeeec;fill-opacity:1;fill-rule:nonzero;stroke:none;stroke-width:2;marker:none;visibility:visible;display:inline;overflow:visible;enable-background:accumulate"
         id="rect96x96"
         width="96"
         height="96"
         x="288"
         y="28"
         inkscape:label="96x96" />
    </g>
    <g
       inkscape:groupmode="layer"
       id="layer4"
       inkscape:label="Shadow"
       style="display:inline"
       sodipodi:insensitive="true">
      <rect
         style="opacity:0.0;color:#bebebe;fill:#000000;fill-opacity:1;stroke:#000000;stroke-width:1;stroke-miterlimit:4;stroke-opacity:1;stroke-dasharray:none;marker:none;visibility:visible;display:inline;overflow:visible;enable-background:accumulate"
         id="rect4156"
         width="42"
         height="42"
         x="-266.5"
         y="291"
         ry="9"
         transform="matrix(0,-1,1,0,0,0)" />
      <rect
         transform="matrix(0,-1,1,0,0,0)"
         ry="9"
         y="291"
         x="-266.5"
         height="42"
         width="40"
         id="rect4183"
         style="opacity:0.1;color:#bebebe;fill:#000000;fill-opacity:1;stroke:none;stroke-width:1;marker:none;visibility:visible;display:inline;overflow:visible;enable-background:accumulate" />
      <rect
         ry="9"
         y="237"
         x="291"
         height="29"
         width="42"
         id="rect4144"
         style="opacity:0.1;color:#bebebe;fill:#000000;fill-opacity:1;fill-rule:nonzero;stroke:none;stroke-width:0;marker:none;visibility:visible;display:inline;overflow:visible;enable-background:accumulate" />
      <rect
         style="opacity:0.0;color:#bebebe;fill:#000000;fill-opacity:1;fill-rule:nonzero;stroke:#000000;stroke-width:1;stroke-miterlimit:4;stroke-opacity:1;stroke-dasharray:none;marker:none;visibility:visible;display:inline;overflow:visible;enable-background:accumulate"
         id="rect4340"
         width="88"
         height="88"
         x="292"
         y="33.5"
         ry="18" />
      <rect
         ry="18"
         y="52.5"
         x="292"
         height="69"
         width="88"
         id="rect4338"
         style="opacity:0.1;color:#bebebe;fill:#000000;fill-opacity:1;fill-rule:nonzero;stroke:none;stroke-width:0;marker:none;visibility:visible;display:inline;overflow:visible;enable-background:accumulate" />
      <rect
         style="opacity:0.1;color:#bebebe;fill:#000000;fill-opacity:1;fill-rule:nonzero;stroke:none;stroke-width:0;marker:none;visibility:visible;display:inline;overflow:visible;enable-background:accumulate"
         id="rect4335"
         width="88"
         height="76.5"
         x="292"
         y="44.5"
         ry="18" />
      <rect
         style="opacity:0.0;color:#bebebe;fill:#000000;fill-opacity:1;fill-rule:nonzero;stroke:#000000;stroke-width:1;stroke-miterlimit:4;stroke-opacity:1;stroke-dasharray:none;marker:none;visibility:visible;display:inline;overflow:visible;enable-background:accumulate"
         id="rect4214"
         width="60"
         height="60"
         x="290"
         y="143.5"
         ry="12.5" />
      <rect
         ry="12.5"
         y="151.5"
         x="290"
         height="52"
         width="60"
         id="rect4206"
         style="opacity:0.1;color:#bebebe;fill:#000000;fill-opacity:1;fill-rule:nonzero;stroke:none;stroke-width:0;marker:none;visibility:visible;display:inline;overflow:visible;enable-background:accumulate" />
      <rect
         style="opacity:0.1;color:#bebebe;fill:#000000;fill-opacity:1;fill-rule:nonzero;stroke:none;stroke-width:0;marker:none;visibility:visible;display:inline;overflow:visible;enable-background:accumulate"
         id="rect4212"
         width="60"
         height="54.5"
         x="290"
         y="148.5"
         ry="12.5" />
      <rect
         style="opacity:0.2;color:#bebebe;fill:#000000;fill-opacity:1;fill-rule:nonzero;stroke:none;stroke-width:0;marker:none;visibility:visible;display:inline;overflow:visible;enable-background:accumulate"
         id="rect4058"
         width="30"
         height="30"
         x="417"
         y="54"
         ry="7" />
      <rect
         ry="50"
         y="48"
         x="34"
         height="220"
         width="220"
         id="rect3872"
         style="opacity:0.0;color:#bebebe;fill:#000000;fill-opacity:1;fill-rule:nonzero;stroke:#000000;stroke-width:2;stroke-miterlimit:4;stroke-opacity:1;stroke-dasharray:none;marker:none;visibility:visible;display:inline;overflow:visible;enable-background:accumulate" />
      <rect
         style="opacity:0.1;color:#bebebe;fill:#000000;fill-opacity:1;fill-rule:nonzero;stroke:none;stroke-width:0;marker:none;visibility:visible;display:inline;overflow:visible;enable-background:accumulate"
         id="rect3870"
         width="220"
         height="220"
         x="34"
         y="48"
         ry="50" />
      <rect
         ry="50"
         y="47"
         x="34"
         height="220"
         width="220"
         id="rect3868"
         style="opacity:0.1;color:#bebebe;fill:#000000;fill-opacity:1;fill-rule:nonzero;stroke:none;stroke-width:0;marker:none;visibility:visible;display:inline;overflow:visible;enable-background:accumulate" />
    </g>
    <g
       inkscape:groupmode="layer"
       id="layer2"
       inkscape:label="Background"
       style="display:inline">
      <path
         id="path4383"
         d="m 315.26881,50.624023 20.08847,26.627456 0.62173,-0.814686 3.22659,-4.277117 0.61103,-0.814685 -15.62913,-20.710249 0,-0.01098 -7.68594,0 -1.23275,0 z m -7.26789,0.01098 0,1.618659 0,5.917213 0,2.615577 0,1.640102 0,40.948826 2.22967,0 0,-33.027053 c -0.0329,-1.410251 1.98187,-2.344991 3.02291,-0.964761 l 15.98292,21.203345 0.62173,0.814692 9.03659,11.973777 1.23275,0 0,-10.172892 0,-9.636909 14.95383,19.809801 1.23276,0 6.94632,0 0.73962,0 -0.73962,-0.97547 -19.4775,-25.812781 -0.45006,-0.600296 c -0.58397,-0.75883 -0.48572,-1.784728 -0.0439,-2.401188 l 0.26783,-0.343027 c 0.0439,-0.05708 0.0741,-0.104829 0.11801,-0.160811 l 16.94766,-22.44682 -1.24346,0 -25.68415,34.056133 -25.69485,-34.056133 z"
         style="opacity:0.2;fill:#000000;fill-opacity:1;stroke:none;display:inline"
         inkscape:connector-curvature="0" />
      <path
         inkscape:connector-curvature="0"
         style="opacity:0.2;fill:#000000;fill-opacity:1;stroke:none;display:inline"
         d="m 92.171963,91.060703 50.221187,66.568647 1.55432,-2.03672 8.06648,-10.69279 1.52757,-2.03672 -39.07281,-51.775619 0,-0.02744 -19.214853,0 -3.081894,0 z m -18.169723,0.02744 0,4.046648 0,14.793029 0,6.53895 0,4.10025 0,102.37206 5.574193,0 0,-82.56762 c -0.08232,-3.52563 4.954675,-5.86248 7.557275,-2.4119 l 39.957292,53.00836 1.55432,2.03672 22.59148,29.93444 3.08188,0 0,-25.43222 0,-24.09228 37.38457,49.5245 3.0819,0 17.3658,0 1.84905,0 -1.84905,-2.43869 -48.69376,-64.53192 -1.12513,-1.50075 c -1.45992,-1.89707 -1.21432,-4.46182 -0.10967,-6.00296 l 0.66959,-0.85758 c 0.10967,-0.14271 0.18527,-0.26207 0.29501,-0.40202 l 42.36916,-56.117056 -3.10865,0 L 138.23713,176.22843 74,91.088103 z"
         id="path4385" />
      <path
         inkscape:connector-curvature="0"
         style="opacity:0.2;fill:#000000;fill-opacity:1;stroke:none;display:inline"
         d="m 305.19194,154.15986 14.34893,19.01964 0.4441,-0.58192 2.3047,-3.05509 0.43646,-0.58192 -11.16368,-14.79305 0,-0.008 -5.48997,0 -0.88054,0 z m -5.19136,0.008 0,1.15619 0,4.22659 0,1.86827 0,1.1715 0,29.24921 1.59262,0 0,-23.5908 c -0.0236,-1.00731 1.41563,-1.67499 2.15923,-0.68911 l 11.41639,15.14527 0.44409,0.58192 6.45472,8.55272 0.88053,0 0,-7.26637 0,-6.88352 10.68133,14.14989 0.88054,0 4.96167,0 0.5283,0 -0.5283,-0.69677 -13.91252,-18.43773 -0.32147,-0.42878 c -0.41712,-0.54202 -0.34694,-1.27481 -0.0313,-1.71513 l 0.19131,-0.24503 c 0.0313,-0.0408 0.0529,-0.0749 0.0843,-0.11486 l 12.1055,-16.03347 -0.88819,0 L 318.35349,178.4937 300,154.16785 z"
         id="path4387" />
      <path
         id="path4389"
         d="m 301.63436,231.81177 10.04425,13.31375 0.31087,-0.40734 1.61329,-2.13856 0.30552,-0.40735 -7.81457,-10.35513 0,-0.006 -3.84298,0 -0.61638,0 z m -3.63395,0.006 0,0.80933 0,2.95861 0,1.3078 0,0.82004 0,20.47445 1.11483,0 0,-16.51356 c -0.0165,-0.70511 0.99094,-1.17249 1.51146,-0.48237 l 7.99147,10.60168 0.31086,0.40735 4.51831,5.9869 0.61637,0 0,-5.08646 0,-4.81847 7.47694,9.90493 0.61637,0 3.47317,0 0.36981,0 -0.36981,-0.48774 -9.73876,-12.90641 -0.22504,-0.30015 c -0.29198,-0.37941 -0.24285,-0.89237 -0.0219,-1.20059 l 0.13391,-0.17152 c 0.0219,-0.0286 0.0371,-0.0524 0.059,-0.0804 l 8.47385,-11.22343 -0.62173,0 -12.84208,17.0281 L 298,231.81737 z"
         style="opacity:0.2;fill:#000000;fill-opacity:1;stroke:none;display:inline"
         inkscape:connector-curvature="0" />
      <path
         inkscape:connector-curvature="0"
         style="opacity:0.2;fill:#000000;fill-opacity:1;stroke:none;display:inline"
         d="m 424.59602,59.579738 7.17445,9.509799 0.22204,-0.290959 1.15236,-1.527541 0.21822,-0.290958 -5.58183,-7.396513 0,-0.0039 -2.74497,0 -0.44027,0 z m -2.59567,0.0039 0,0.578092 0,2.113288 0,0.934134 0,0.585751 0,14.624571 0.79631,0 0,-11.795368 c -0.0118,-0.50366 0.70781,-0.837496 1.07961,-0.344557 l 5.70818,7.572618 0.22204,0.290961 3.22735,4.276346 0.44027,0 0,-3.633173 0,-3.441751 5.34065,7.074924 0.44027,0 2.48083,0 0.26415,0 -0.26415,-0.34838 -6.95624,-9.218846 -0.16074,-0.214391 c -0.20856,-0.27101 -0.17347,-0.637402 -0.0157,-0.857567 l 0.0957,-0.12251 c 0.0157,-0.02039 0.0265,-0.03744 0.0421,-0.05743 l 6.05273,-8.016716 -0.44409,0 -9.1729,12.162896 -9.17673,-12.162896 z"
         id="path4391" />
      <path
         id="path4393"
         d="m 420.2981,144.28965 3.58723,4.7549 0.11102,-0.14548 0.57617,-0.76377 0.10911,-0.14547 -2.79091,-3.69825 0,-0.002 -1.37248,0 -0.22014,0 z m -1.29783,0.002 0,0.28905 0,1.05663 0,0.46707 0,0.29287 0,7.31228 0.39815,0 0,-5.89768 c -0.006,-0.25183 0.35391,-0.41875 0.53981,-0.17228 l 2.85409,3.78631 0.11102,0.14548 1.61367,2.13817 0.22013,0 0,-1.81658 0,-1.72088 2.67033,3.53746 0.22013,0 1.24042,0 0.13207,0 -0.13207,-0.17419 -3.47812,-4.60942 -0.0804,-0.10719 c -0.10428,-0.13551 -0.0867,-0.3187 -0.008,-0.42879 l 0.0478,-0.0613 c 0.008,-0.0102 0.0133,-0.0187 0.0211,-0.0287 l 3.02636,-4.00835 -0.22204,0 -4.58645,6.08144 -4.58836,-6.08144 z"
         style="opacity:0.2;fill:#000000;fill-opacity:1;stroke:none;display:inline"
         inkscape:connector-curvature="0" />
      <path
         inkscape:transform-center-y="26.75"
         inkscape:connector-curvature="0"
         style="opacity:0.2;fill:#000000;fill-opacity:1;stroke:none;display:inline"
         d="m 422.07704,105.46389 5.73946,7.6077 0.17763,-0.23276 0.92186,-1.22202 0.17457,-0.23275 -4.46538,-5.91709 0,-0.003 -2.19593,0 -0.35221,0 z m -2.07649,0.003 0,0.46247 0,1.69058 0,0.7473 0,0.46858 0,11.69944 0.63702,0 0,-9.43612 c -0.01,-0.40292 0.56625,-0.66999 0.86368,-0.27564 l 4.56647,6.05799 0.17763,0.23276 2.58182,3.42101 0.3522,0 0,-2.90648 0,-2.75335 4.27245,5.65983 0.35221,0 1.98463,0 0.21131,0 -0.21131,-0.2787 -5.56489,-7.37494 -0.12864,-0.1715 c -0.16684,-0.21681 -0.13872,-0.50991 -0.0128,-0.68605 l 0.0765,-0.0981 c 0.0128,-0.0163 0.0213,-0.0299 0.0338,-0.0459 l 4.84209,-6.41324 -0.35526,0 -7.33819,9.73013 -7.34124,-9.73013 z"
         id="path4395" />
      <rect
         style="color:#bebebe;fill:url(#linearGradient3876);fill-opacity:1;fill-rule:nonzero;stroke:none;stroke-width:0;marker:none;visibility:visible;display:inline;overflow:visible;enable-background:accumulate"
         id="rect4040"
         width="220"
         height="220"
         x="34"
         y="46"
         ry="50" />
      <rect
         ry="3"
         y="140"
         x="416"
         height="16"
         width="16"
         id="rect4095"
         style="color:#bebebe;fill:url(#linearGradient4097);fill-opacity:1;fill-rule:nonzero;stroke:none;stroke-width:0;marker:none;visibility:visible;display:inline;overflow:visible;enable-background:accumulate" />
      <rect
         style="color:#bebebe;fill:url(#linearGradient4101);fill-opacity:1;fill-rule:nonzero;stroke:none;stroke-width:0;marker:none;visibility:visible;display:inline;overflow:visible;enable-background:accumulate"
         id="rect4099"
         width="22"
         height="22"
         x="417"
         y="101"
         ry="5" />
      <rect
         ry="7"
         y="53"
         x="417"
         height="30"
         width="30"
         id="rect4151"
         style="color:#bebebe;fill:url(#linearGradient4153);fill-opacity:1;fill-rule:nonzero;stroke:none;stroke-width:0;marker:none;visibility:visible;display:inline;overflow:visible;enable-background:accumulate" />
      <rect
         style="color:#bebebe;fill:url(#linearGradient4869);fill-opacity:1;fill-rule:nonzero;stroke:none;stroke-width:0;marker:none;visibility:visible;display:inline;overflow:visible;enable-background:accumulate"
         id="rect4783"
         width="42"
         height="42"
         x="291"
         y="-265"
         ry="9"
         transform="scale(1,-1)" />
      <rect
         ry="18"
         y="32"
         x="292"
         height="88"
         width="88"
         id="rect4511"
         style="color:#bebebe;fill:url(#linearGradient4197);fill-opacity:1;fill-rule:nonzero;stroke:none;stroke-width:0;marker:none;visibility:visible;display:inline;overflow:visible;enable-background:accumulate" />
      <rect
         style="color:#bebebe;fill:url(#linearGradient4199);fill-opacity:1;fill-rule:nonzero;stroke:none;stroke-width:0;marker:none;visibility:visible;display:inline;overflow:visible;enable-background:accumulate"
         id="rect4515"
         width="60"
         height="60"
         x="290"
         y="142"
         ry="12.5" />
      <path
         inkscape:connector-curvature="0"
         style="fill:#ffffff;fill-opacity:1;stroke:none;display:inline"
         d="m 315.26881,49.624453 20.08847,26.627456 0.62173,-0.814686 3.22659,-4.277117 0.61103,-0.814685 -15.62913,-20.710249 0,-0.01098 -7.68594,0 -1.23275,0 z m -7.26789,0.01098 0,1.618659 0,5.917213 0,2.615577 0,1.640102 0,40.948826 2.22967,0 0,-33.027053 c -0.0329,-1.410251 1.98187,-2.344991 3.02291,-0.964761 l 15.98292,21.203345 0.62173,0.814692 9.03659,11.973777 1.23275,0 0,-10.172892 0,-9.636909 14.95383,19.809801 1.23276,0 6.94632,0 0.73962,0 -0.73962,-0.97547 -19.4775,-25.812781 -0.45006,-0.600296 c -0.58397,-0.75883 -0.48572,-1.784728 -0.0439,-2.401188 l 0.26783,-0.343027 c 0.0439,-0.05708 0.0741,-0.104829 0.11801,-0.160811 l 16.94766,-22.44682 -1.24346,0 -25.68415,34.056133 -25.69485,-34.056133 z"
         id="path4063" />
      <path
         id="path4371"
         d="m 92.171963,90.061133 50.221187,66.568647 1.55432,-2.03672 8.06648,-10.69279 1.52757,-2.03672 -39.07281,-51.775619 0,-0.02744 -19.214853,0 -3.081894,0 z m -18.169723,0.02744 0,4.046648 0,14.793029 0,6.53895 0,4.10025 0,102.37206 5.574193,0 0,-82.56762 c -0.08232,-3.52563 4.954675,-5.86248 7.557275,-2.4119 l 39.957292,53.00836 1.55432,2.03672 22.59148,29.93444 3.08188,0 0,-25.43222 0,-24.09228 37.38457,49.5245 3.0819,0 17.3658,0 1.84905,0 -1.84905,-2.43869 -48.69376,-64.53192 -1.12513,-1.50075 c -1.45992,-1.89707 -1.21432,-4.46182 -0.10967,-6.00296 l 0.66959,-0.85758 c 0.10967,-0.14271 0.18527,-0.26207 0.29501,-0.40202 l 42.36916,-56.117056 -3.10865,0 L 138.23713,175.22886 74,90.088533 z"
         style="fill:#ffffff;fill-opacity:1;stroke:none;display:inline"
         inkscape:connector-curvature="0" />
      <path
         id="path4373"
         d="m 305.19194,153.16029 14.34893,19.01964 0.4441,-0.58192 2.3047,-3.05509 0.43646,-0.58192 -11.16368,-14.79305 0,-0.008 -5.48997,0 -0.88054,0 z m -5.19136,0.008 0,1.15619 0,4.22659 0,1.86827 0,1.1715 0,29.24921 1.59262,0 0,-23.5908 c -0.0236,-1.00731 1.41563,-1.67499 2.15923,-0.68911 l 11.41639,15.14527 0.44409,0.58192 6.45472,8.55272 0.88053,0 0,-7.26637 0,-6.88352 10.68133,14.14989 0.88054,0 4.96167,0 0.5283,0 -0.5283,-0.69677 -13.91252,-18.43773 -0.32147,-0.42878 c -0.41712,-0.54202 -0.34694,-1.27481 -0.0313,-1.71513 l 0.19131,-0.24503 c 0.0313,-0.0408 0.0529,-0.0749 0.0843,-0.11486 l 12.1055,-16.03347 -0.88819,0 -18.34584,24.32585 L 300,153.16828 z"
         style="fill:#ffffff;fill-opacity:1;stroke:none;display:inline"
         inkscape:connector-curvature="0" />
      <path
         inkscape:connector-curvature="0"
         style="fill:#ffffff;fill-opacity:1;stroke:none;display:inline"
         d="m 301.63436,230.8122 10.04425,13.31375 0.31087,-0.40734 1.61329,-2.13856 0.30552,-0.40735 -7.81457,-10.35513 0,-0.006 -3.84298,0 -0.61638,0 z m -3.63395,0.006 0,0.80933 0,2.95861 0,1.3078 0,0.82004 0,20.47445 1.11483,0 0,-16.51356 c -0.0165,-0.70511 0.99094,-1.17249 1.51146,-0.48237 l 7.99147,10.60168 0.31086,0.40735 4.51831,5.9869 0.61637,0 0,-5.08646 0,-4.81847 7.47694,9.90493 0.61637,0 3.47317,0 0.36981,0 -0.36981,-0.48774 -9.73876,-12.90641 -0.22504,-0.30015 c -0.29198,-0.37941 -0.24285,-0.89237 -0.0219,-1.20059 l 0.13391,-0.17152 c 0.0219,-0.0286 0.0371,-0.0524 0.059,-0.0804 l 8.47385,-11.22343 -0.62173,0 -12.84208,17.0281 L 298,230.8178 z"
         id="path4375" />
      <path
         id="path4377"
         d="m 424.59602,58.580168 7.17445,9.509799 0.22204,-0.290959 1.15236,-1.527541 0.21822,-0.290958 -5.58183,-7.396513 0,-0.0039 -2.74497,0 -0.44027,0 z m -2.59567,0.0039 0,0.578092 0,2.113288 0,0.934134 0,0.585751 0,14.624571 0.79631,0 0,-11.795368 c -0.0118,-0.50366 0.70781,-0.837496 1.07961,-0.344557 l 5.70818,7.572618 0.22204,0.290961 3.22735,4.276346 0.44027,0 0,-3.633173 0,-3.441751 5.34065,7.074924 0.44027,0 2.48083,0 0.26415,0 -0.26415,-0.34838 -6.95624,-9.218846 -0.16074,-0.214391 c -0.20856,-0.27101 -0.17347,-0.637402 -0.0157,-0.857567 l 0.0957,-0.12251 c 0.0157,-0.02039 0.0265,-0.03744 0.0421,-0.05743 l 6.05273,-8.016716 -0.44409,0 -9.1729,12.162896 -9.17673,-12.162896 z"
         style="fill:#ffffff;fill-opacity:1;stroke:none;display:inline"
         inkscape:connector-curvature="0" />
      <path
         inkscape:connector-curvature="0"
         style="fill:#ffffff;fill-opacity:1;stroke:none;display:inline"
         d="m 420.2981,143.29008 3.58723,4.7549 0.11102,-0.14548 0.57617,-0.76377 0.10911,-0.14547 -2.79091,-3.69825 0,-0.002 -1.37248,0 -0.22014,0 z m -1.29783,0.002 0,0.28905 0,1.05663 0,0.46707 0,0.29287 0,7.31228 0.39815,0 0,-5.89768 c -0.006,-0.25183 0.35391,-0.41875 0.53981,-0.17228 l 2.85409,3.78631 0.11102,0.14548 1.61367,2.13817 0.22013,0 0,-1.81658 0,-1.72088 2.67033,3.53746 0.22013,0 1.24042,0 0.13207,0 -0.13207,-0.17419 -3.47812,-4.60942 -0.0804,-0.10719 c -0.10428,-0.13551 -0.0867,-0.3187 -0.008,-0.42879 l 0.0478,-0.0613 c 0.008,-0.0102 0.0133,-0.0187 0.0211,-0.0287 l 3.02636,-4.00835 -0.22204,0 -4.58645,6.08144 -4.58836,-6.08144 z"
         id="path4379" />
      <path
         id="path4381"
         d="m 422.07704,104.46432 5.73946,7.6077 0.17763,-0.23276 0.92186,-1.22202 0.17457,-0.23275 -4.46538,-5.91709 0,-0.003 -2.19593,0 -0.35221,0 z m -2.07649,0.003 0,0.46247 0,1.69058 0,0.7473 0,0.46858 0,11.69944 0.63702,0 0,-9.43612 c -0.01,-0.40292 0.56625,-0.66999 0.86368,-0.27564 l 4.56647,6.05799 0.17763,0.23276 2.58182,3.42101 0.3522,0 0,-2.90648 0,-2.75335 4.27245,5.65983 0.35221,0 1.98463,0 0.21131,0 -0.21131,-0.2787 -5.56489,-7.37494 -0.12864,-0.1715 c -0.16684,-0.21681 -0.13872,-0.50991 -0.0128,-0.68605 l 0.0765,-0.0981 c 0.0128,-0.0163 0.0213,-0.0299 0.0338,-0.0459 l 4.84209,-6.41324 -0.35526,0 -7.33819,9.73013 -7.34124,-9.73013 z"
         style="fill:#ffffff;fill-opacity:1;stroke:none;display:inline"
         inkscape:connector-curvature="0"
         inkscape:transform-center-y="26.75" />
    </g>
    <g
       inkscape:groupmode="layer"
       id="layer6"
       inkscape:label="Symbols"
       style="display:inline" />
    <g
       inkscape:groupmode="layer"
       id="layer5"
       inkscape:label="Highlights"
       style="display:inline"
       sodipodi:insensitive="true">
      <rect
         ry="9"
         y="307"
         x="-265"
         height="42"
         width="42"
         id="rect4884"
         style="opacity:0.15;color:#bebebe;fill:none;stroke:#000000;stroke-width:2;stroke-miterlimit:4;stroke-opacity:1;stroke-dasharray:none;marker:none;visibility:visible;display:inline;overflow:visible;enable-background:accumulate"
         transform="matrix(0,1,1,0,-16,488)"
         clip-path="url(#clipPath4891)" />
      <rect
         style="opacity:0.15;color:#bebebe;fill:none;stroke:#000000;stroke-width:2;stroke-miterlimit:4;stroke-opacity:1;stroke-dasharray:none;marker:none;visibility:visible;display:inline;overflow:visible;enable-background:accumulate"
         id="rect5311"
         width="16"
         height="16"
         x="-228"
         y="304"
         ry="3"
         clip-path="url(#clipPath3855)"
         transform="matrix(0,-1,1,0,112,-72)" />
      <rect
         ry="50"
         y="46"
         x="34"
         height="220"
         width="220"
         id="rect3858"
         style="opacity:0.15;color:#bebebe;fill:none;stroke:#000000;stroke-width:2;stroke-miterlimit:4;stroke-opacity:1;stroke-dasharray:none;marker:none;visibility:visible;display:inline;overflow:visible;enable-background:accumulate"
         clip-path="url(#clipPath3862)" />
      <rect
         ry="12.5"
         y="142"
         x="290"
         height="60"
         width="60"
         id="rect4175"
         style="opacity:0.15;color:#bebebe;fill:none;stroke:#000000;stroke-width:2;stroke-miterlimit:4;stroke-opacity:1;stroke-dasharray:none;marker:none;visibility:visible;display:inline;overflow:visible;enable-background:accumulate"
         clip-path="url(#clipPath4187)" />
      <rect
         style="opacity:0.15;color:#bebebe;fill:none;stroke:#000000;stroke-width:2;stroke-miterlimit:4;stroke-opacity:1;stroke-dasharray:none;marker:none;visibility:visible;display:inline;overflow:visible;enable-background:accumulate"
         id="rect4342"
         width="88"
         height="88"
         x="292"
         y="32"
         ry="18"
         clip-path="url(#clipPath4346)" />
      <rect
         ry="5"
         y="101"
         x="417"
         height="22"
         width="22"
         id="rect3866"
         style="opacity:0.15;color:#bebebe;fill:none;stroke:#000000;stroke-width:2;stroke-miterlimit:4;stroke-opacity:1;stroke-dasharray:none;marker:none;visibility:visible;display:inline;overflow:visible;enable-background:accumulate"
         clip-path="url(#clipPath3871)" />
      <rect
         style="opacity:0.15;color:#bebebe;fill:none;stroke:#000000;stroke-width:2;stroke-miterlimit:4;stroke-opacity:1;stroke-dasharray:none;marker:none;visibility:visible;display:inline;overflow:visible;enable-background:accumulate"
         id="rect3877"
         width="30"
         height="30"
         x="417"
         y="53"
         ry="7"
         clip-path="url(#clipPath3881)" />
    </g>
  </g>
</svg>
