<?xml version="1.0" encoding="UTF-8" standalone="no"?>
<!-- Created with Inkscape (http://www.inkscape.org/) -->

<svg
   xmlns:dc="http://purl.org/dc/elements/1.1/"
   xmlns:cc="http://creativecommons.org/ns#"
   xmlns:rdf="http://www.w3.org/1999/02/22-rdf-syntax-ns#"
   xmlns:svg="http://www.w3.org/2000/svg"
   xmlns="http://www.w3.org/2000/svg"
   xmlns:xlink="http://www.w3.org/1999/xlink"
   xmlns:sodipodi="http://sodipodi.sourceforge.net/DTD/sodipodi-0.dtd"
   xmlns:inkscape="http://www.inkscape.org/namespaces/inkscape"
   inkscape:export-ydpi="90.000000"
   inkscape:export-xdpi="90.000000"
   width="480"
   height="300"
   id="svg11300"
   sodipodi:version="0.32"
   inkscape:version="0.48.4 r9939"
   sodipodi:docname="distributor-logo-numix.svg"
   inkscape:output_extension="org.inkscape.output.svg.inkscape"
   version="1.0"
   style="display:inline;enable-background:new"
   inkscape:export-filename="/home/sam/moka2-template.png">
  <sodipodi:namedview
     stroke="#ef2929"
     fill="#f57900"
     id="base"
     pagecolor="#ffffff"
     bordercolor="#666666"
     borderopacity="0.25490196"
     inkscape:pageopacity="0"
     inkscape:pageshadow="2"
     inkscape:zoom="1"
     inkscape:cx="329.47251"
     inkscape:cy="236.88846"
     inkscape:current-layer="layer7"
     showgrid="false"
     inkscape:grid-bbox="true"
     inkscape:document-units="px"
     inkscape:showpageshadow="false"
     inkscape:window-width="1364"
     inkscape:window-height="701"
     inkscape:window-x="0"
     inkscape:window-y="27"
     width="400px"
     height="300px"
     inkscape:snap-nodes="true"
     inkscape:snap-bbox="true"
     gridtolerance="10000"
     inkscape:object-nodes="true"
     inkscape:snap-grids="true"
     showguides="true"
     inkscape:guide-bbox="true"
     inkscape:window-maximized="1"
     inkscape:bbox-nodes="true"
     inkscape:bbox-paths="true"
     inkscape:snap-bbox-edge-midpoints="true"
     inkscape:snap-bbox-midpoints="true">
    <inkscape:grid
       spacingy="1px"
       spacingx="1px"
       id="grid5883"
       type="xygrid"
       enabled="true"
       visible="true"
       empspacing="4"
       snapvisiblegridlinesonly="true"
       dotted="false"
       color="#000000"
       opacity="0.1254902"
       empcolor="#203ef3"
       empopacity="0.36470588" />
    <inkscape:grid
       type="xygrid"
       id="grid11592"
       empspacing="8"
       visible="true"
       enabled="false"
       spacingx="0.5px"
       spacingy="0.5px"
       color="#ff0000"
       opacity="0.1254902"
       empcolor="#ff0000"
       empopacity="0.25098039"
       snapvisiblegridlinesonly="true"
       dotted="true" />
  </sodipodi:namedview>
  <defs
     id="defs3">
    <linearGradient
       id="outerBackgroundGradient">
      <stop
         style="stop-color:#d64937;stop-opacity:1;"
         offset="0"
         id="stop3864-8-6" />
      <stop
         style="stop-color:#fd7362;stop-opacity:1;"
         offset="1"
         id="stop3866-9-1" />
    </linearGradient>
    <linearGradient
       inkscape:collect="always"
       xlink:href="#outerBackgroundGradient"
       id="linearGradient4097"
       gradientUnits="userSpaceOnUse"
       x1="264"
       y1="280.00003"
       x2="264"
       y2="40.00005"
       gradientTransform="matrix(0.06666667,0,0,0.06666667,414.4,137.33333)" />
    <linearGradient
       inkscape:collect="always"
       xlink:href="#outerBackgroundGradient"
       id="linearGradient4101"
       gradientUnits="userSpaceOnUse"
       gradientTransform="matrix(0.0875,0,0,0.0875,414.9,97.5)"
       x1="286.85715"
       y1="302.85715"
       x2="286.85715"
       y2="28.571428" />
    <linearGradient
       inkscape:collect="always"
       xlink:href="#outerBackgroundGradient"
       id="linearGradient4153"
       gradientUnits="userSpaceOnUse"
       gradientTransform="matrix(0.11931818,0,0,0.11931818,414.13636,48.22727)"
       x1="283.80957"
       y1="299.80954"
       x2="283.80957"
       y2="31.61907" />
    <linearGradient
       inkscape:collect="always"
       xlink:href="#outerBackgroundGradient"
       id="linearGradient4869"
       gradientUnits="userSpaceOnUse"
       gradientTransform="matrix(0.175,0,0,-0.175,286.79999,-215.99997)"
       x1="281.14291"
       y1="297.14304"
       x2="281.14291"
       y2="22.857315" />
    <clipPath
       clipPathUnits="userSpaceOnUse"
       id="clipPath4891">
      <rect
         ry="9"
         y="223"
         x="307"
         height="42"
         width="42"
         id="rect4893"
         style="color:#bebebe;fill:url(#linearGradient4895);fill-opacity:1;fill-rule:nonzero;stroke:none;stroke-width:0;marker:none;visibility:visible;display:inline;overflow:visible;enable-background:accumulate"
         transform="matrix(0,1,-1,0,0,0)" />
    </clipPath>
    <linearGradient
       inkscape:collect="always"
       xlink:href="#outerBackgroundGradient"
       id="linearGradient4895"
       gradientUnits="userSpaceOnUse"
       gradientTransform="matrix(0.175,0,0,0.175,302.79999,215.99997)"
       x1="144.00006"
       y1="280.00018"
       x2="144.00006"
       y2="40.000172" />
    <clipPath
       clipPathUnits="userSpaceOnUse"
       id="clipPath4044">
      <rect
         ry="4"
         y="85"
         x="433"
         height="22"
         width="22"
         id="rect4046"
         style="color:#bebebe;fill:url(#linearGradient4048);fill-opacity:1;fill-rule:nonzero;stroke:none;stroke-width:0;marker:none;visibility:visible;display:inline;overflow:visible;enable-background:accumulate" />
    </clipPath>
    <linearGradient
       inkscape:collect="always"
       xlink:href="#outerBackgroundGradient"
       id="linearGradient4048"
       gradientUnits="userSpaceOnUse"
       gradientTransform="matrix(0.0875,0,0,0.0875,430.9,81.499996)"
       x1="149.71428"
       y1="291.42862"
       x2="149.71428"
       y2="40.000046" />
    <clipPath
       clipPathUnits="userSpaceOnUse"
       id="clipPath4089">
      <rect
         style="color:#bebebe;fill:url(#linearGradient4093);fill-opacity:1;fill-rule:nonzero;stroke:none;stroke-width:0;marker:none;visibility:visible;display:inline;overflow:visible;enable-background:accumulate"
         id="rect4091"
         width="30"
         height="30"
         x="433"
         y="37"
         ry="6" />
    </clipPath>
    <linearGradient
       inkscape:collect="always"
       xlink:href="#outerBackgroundGradient"
       id="linearGradient4093"
       gradientUnits="userSpaceOnUse"
       gradientTransform="matrix(0.11931818,0,0,0.11931818,430.13636,32.227267)"
       x1="149.71432"
       y1="291.42862"
       x2="149.71432"
       y2="40.00005" />
    <clipPath
       clipPathUnits="userSpaceOnUse"
       id="clipPath3855">
      <rect
         style="color:#bebebe;fill:url(#linearGradient3859);fill-opacity:1;fill-rule:nonzero;stroke:none;stroke-width:0;marker:none;visibility:visible;display:inline;overflow:visible;enable-background:accumulate"
         id="rect3857"
         width="16"
         height="16"
         x="304"
         y="212"
         ry="3"
         transform="matrix(0,1,-1,0,0,0)" />
    </clipPath>
    <linearGradient
       inkscape:collect="always"
       xlink:href="#outerBackgroundGradient"
       id="linearGradient3859"
       gradientUnits="userSpaceOnUse"
       gradientTransform="matrix(0.06666667,0,0,0.06666667,302.4,209.33333)"
       x1="144"
       y1="280.00003"
       x2="144"
       y2="40.00005" />
    <clipPath
       clipPathUnits="userSpaceOnUse"
       id="clipPath3862">
      <rect
         ry="50"
         y="46"
         x="34"
         height="220"
         width="220"
         id="rect3864"
         style="color:#bebebe;fill:url(#linearGradient3866);fill-opacity:1;fill-rule:nonzero;stroke:none;stroke-width:0;marker:none;visibility:visible;display:inline;overflow:visible;enable-background:accumulate" />
    </clipPath>
    <linearGradient
       inkscape:collect="always"
       xlink:href="#outerBackgroundGradient"
       id="linearGradient3866"
       gradientUnits="userSpaceOnUse"
       gradientTransform="translate(0,-4)"
       x1="144"
       y1="280"
       x2="144"
       y2="40" />
    <linearGradient
       inkscape:collect="always"
       xlink:href="#outerBackgroundGradient"
       id="linearGradient3876"
       gradientUnits="userSpaceOnUse"
       gradientTransform="translate(0,-4)"
       x1="272"
       y1="288"
       x2="272"
       y2="32" />
    <clipPath
       clipPathUnits="userSpaceOnUse"
       id="clipPath4187">
      <rect
         ry="12.5"
         y="142"
         x="290"
         height="60"
         width="60"
         id="rect4189"
         style="color:#bebebe;fill:url(#linearGradient4191);fill-opacity:1;fill-rule:nonzero;stroke:none;stroke-width:0;marker:none;visibility:visible;display:inline;overflow:visible;enable-background:accumulate" />
    </clipPath>
    <linearGradient
       inkscape:collect="always"
       xlink:href="#outerBackgroundGradient"
       id="linearGradient4191"
       gradientUnits="userSpaceOnUse"
       x1="352"
       y1="204"
       x2="352"
       y2="140" />
    <linearGradient
       inkscape:collect="always"
       xlink:href="#outerBackgroundGradient"
       id="linearGradient4197"
       gradientUnits="userSpaceOnUse"
       x1="384"
       y1="124"
       x2="384"
       y2="28" />
    <linearGradient
       inkscape:collect="always"
       xlink:href="#outerBackgroundGradient"
       id="linearGradient4199"
       gradientUnits="userSpaceOnUse"
       x1="352"
       y1="204"
       x2="352"
       y2="140" />
    <clipPath
       clipPathUnits="userSpaceOnUse"
       id="clipPath4346">
      <rect
         style="color:#bebebe;fill:url(#linearGradient4350);fill-opacity:1;fill-rule:nonzero;stroke:none;stroke-width:0;marker:none;visibility:visible;display:inline;overflow:visible;enable-background:accumulate"
         id="rect4348"
         width="88"
         height="88"
         x="292"
         y="32"
         ry="18" />
    </clipPath>
    <linearGradient
       inkscape:collect="always"
       xlink:href="#outerBackgroundGradient"
       id="linearGradient4350"
       gradientUnits="userSpaceOnUse"
       x1="384"
       y1="124"
       x2="384"
       y2="28" />
    <clipPath
       clipPathUnits="userSpaceOnUse"
       id="clipPath3871">
      <rect
         ry="5"
         y="101"
         x="417"
         height="22"
         width="22"
         id="rect3873"
         style="color:#bebebe;fill:url(#linearGradient3875);fill-opacity:1;fill-rule:nonzero;stroke:none;stroke-width:0;marker:none;visibility:visible;display:inline;overflow:visible;enable-background:accumulate" />
    </clipPath>
    <linearGradient
       inkscape:collect="always"
       xlink:href="#outerBackgroundGradient"
       id="linearGradient3875"
       gradientUnits="userSpaceOnUse"
       gradientTransform="matrix(0.0875,0,0,0.0875,414.9,97.5)"
       x1="286.85715"
       y1="302.85715"
       x2="286.85715"
       y2="28.571428" />
    <clipPath
       clipPathUnits="userSpaceOnUse"
       id="clipPath3881">
      <rect
         style="color:#bebebe;fill:url(#linearGradient3885);fill-opacity:1;fill-rule:nonzero;stroke:none;stroke-width:0;marker:none;visibility:visible;display:inline;overflow:visible;enable-background:accumulate"
         id="rect3883"
         width="30"
         height="30"
         x="417"
         y="53"
         ry="7" />
    </clipPath>
    <linearGradient
       inkscape:collect="always"
       xlink:href="#outerBackgroundGradient"
       id="linearGradient3885"
       gradientUnits="userSpaceOnUse"
       gradientTransform="matrix(0.11931818,0,0,0.11931818,414.13636,48.22727)"
       x1="283.80957"
       y1="299.80954"
       x2="283.80957"
       y2="31.61907" />
  </defs>
  <metadata
     id="metadata4">
    <rdf:RDF>
      <cc:Work
         rdf:about="">
        <dc:format>image/svg+xml</dc:format>
        <dc:type
           rdf:resource="http://purl.org/dc/dcmitype/StillImage" />
        <dc:creator>
          <cc:Agent>
            <dc:title>Sam Hewitt</dc:title>
          </cc:Agent>
        </dc:creator>
        <dc:source />
        <cc:license
           rdf:resource="" />
        <dc:title></dc:title>
        <dc:subject>
          <rdf:Bag />
        </dc:subject>
        <dc:date />
        <dc:rights>
          <cc:Agent>
            <dc:title />
          </cc:Agent>
        </dc:rights>
        <dc:publisher>
          <cc:Agent>
            <dc:title />
          </cc:Agent>
        </dc:publisher>
        <dc:identifier />
        <dc:relation />
        <dc:language />
        <dc:coverage />
        <dc:description />
        <dc:contributor>
          <cc:Agent>
            <dc:title />
          </cc:Agent>
        </dc:contributor>
      </cc:Work>
      <cc:Work
         rdf:about="">
        <dc:format>image/svg+xml</dc:format>
        <dc:type
           rdf:resource="http://purl.org/dc/dcmitype/StillImage" />
      </cc:Work>
    </rdf:RDF>
  </metadata>
  <g
     style="display:inline"
     inkscape:groupmode="layer"
     inkscape:label="Icon"
     id="layer1">
    <g
       style="display:none"
       inkscape:label="Baseplate"
       id="layer7"
       inkscape:groupmode="layer">
      <text
         y="19.745117"
         xml:space="preserve"
         x="15.006836"
         style="font-size:18px;font-style:normal;font-variant:normal;font-weight:normal;font-stretch:normal;fill:#000000;fill-opacity:1;stroke:none;display:inline;enable-background:new;font-family:DejaVu Sans;-inkscape-font-specification:DejaVu Sans"
         inkscape:label="context"
         id="context"><tspan
           style="font-style:normal;font-variant:normal;font-weight:normal;font-stretch:normal;font-family:DejaVu Sans;-inkscape-font-specification:DejaVu Sans"
           y="19.745117"
           x="15.006836"
           sodipodi:role="line"
           id="tspan3933">places</tspan></text>
      <text
         y="19.745117"
         xml:space="preserve"
         x="122.48828"
         style="font-size:18px;font-style:normal;font-variant:normal;font-weight:bold;font-stretch:normal;text-align:start;line-height:125%;writing-mode:lr-tb;text-anchor:start;fill:#000000;fill-opacity:1;stroke:none;display:inline;enable-background:new;font-family:DejaVu Sans;-inkscape-font-specification:DejaVu Sans Bold"
         sodipodi:linespacing="125%"
         inkscape:label="icon-name"
         id="icon-name"><tspan
           style="font-size:18px;font-style:normal;font-variant:normal;font-weight:bold;font-stretch:normal;font-family:DejaVu Sans;-inkscape-font-specification:DejaVu Sans Bold"
           y="19.745117"
           x="122.48828"
           sodipodi:role="line"
           id="tspan3937">distributor-logo-numix</tspan></text>
      <rect
         style="fill:#eeeeec;fill-opacity:1;fill-rule:nonzero;stroke:none;stroke-width:2;marker:none;visibility:visible;display:inline;overflow:visible;enable-background:accumulate"
         id="rect16x16"
         width="16"
         height="16"
         x="416"
         y="140"
         inkscape:label="16x16" />
      <rect
         style="fill:#d4d4d4;fill-opacity:1;fill-rule:nonzero;stroke:none;stroke-width:2;marker:none;visibility:visible;display:inline;overflow:visible;enable-background:accumulate"
         id="rect24x24"
         width="24"
         height="24"
         x="416"
         y="100"
         inkscape:label="24x24" />
      <rect
         style="fill:#eeeeec;fill-opacity:1;fill-rule:nonzero;stroke:none;stroke-width:2;marker:none;visibility:visible;display:inline;overflow:visible;enable-background:accumulate"
         id="rect32x32"
         width="32"
         height="32"
         x="416"
         y="52"
         inkscape:label="32x32" />
      <rect
         inkscape:label="22x22"
         y="101"
         x="417"
         height="22"
         width="22"
         id="rect22x22"
         style="fill:#eeeeec;fill-opacity:1;fill-rule:nonzero;stroke:none;stroke-width:2;marker:none;visibility:visible;display:inline;overflow:visible;enable-background:accumulate" />
      <rect
         inkscape:label="48x48"
         y="220"
         x="288"
         height="48"
         width="48"
         id="rect48x48"
         style="fill:#eeeeec;fill-opacity:1;fill-rule:nonzero;stroke:none;stroke-width:2;marker:none;visibility:visible;display:inline;overflow:visible;enable-background:accumulate" />
      <rect
         style="fill:#eeeeec;fill-opacity:1;fill-rule:nonzero;stroke:none;stroke-width:2;marker:none;visibility:visible;display:inline;overflow:visible;enable-background:accumulate"
         id="rect256x256"
         width="256"
         height="256"
         x="16"
         y="28"
         inkscape:label="256x256" />
      <rect
         style="fill:#eeeeec;fill-opacity:1;fill-rule:nonzero;stroke:none;stroke-width:2;marker:none;visibility:visible;display:inline;overflow:visible;enable-background:accumulate"
         id="rect64x64"
         width="64"
         height="64"
         x="288"
         y="140"
         inkscape:label="64x64" />
      <rect
         style="fill:#eeeeec;fill-opacity:1;fill-rule:nonzero;stroke:none;stroke-width:2;marker:none;visibility:visible;display:inline;overflow:visible;enable-background:accumulate"
         id="rect96x96"
         width="96"
         height="96"
         x="288"
         y="28"
         inkscape:label="96x96" />
    </g>
    <g
       inkscape:groupmode="layer"
       id="layer4"
       inkscape:label="Shadow"
       style="display:inline"
       sodipodi:insensitive="true">
      <rect
         style="opacity:0.0;color:#bebebe;fill:#000000;fill-opacity:1;stroke:#000000;stroke-width:1;stroke-miterlimit:4;stroke-opacity:1;stroke-dasharray:none;marker:none;visibility:visible;display:inline;overflow:visible;enable-background:accumulate"
         id="rect4156"
         width="42"
         height="42"
         x="-266.5"
         y="291"
         ry="9"
         transform="matrix(0,-1,1,0,0,0)" />
      <rect
         transform="matrix(0,-1,1,0,0,0)"
         ry="9"
         y="291"
         x="-266.5"
         height="42"
         width="40"
         id="rect4183"
         style="opacity:0.1;color:#bebebe;fill:#000000;fill-opacity:1;stroke:none;stroke-width:1;marker:none;visibility:visible;display:inline;overflow:visible;enable-background:accumulate" />
      <rect
         ry="9"
         y="237"
         x="291"
         height="29"
         width="42"
         id="rect4144"
         style="opacity:0.1;color:#bebebe;fill:#000000;fill-opacity:1;fill-rule:nonzero;stroke:none;stroke-width:0;marker:none;visibility:visible;display:inline;overflow:visible;enable-background:accumulate" />
      <rect
         style="opacity:0.0;color:#bebebe;fill:#000000;fill-opacity:1;fill-rule:nonzero;stroke:#000000;stroke-width:1;stroke-miterlimit:4;stroke-opacity:1;stroke-dasharray:none;marker:none;visibility:visible;display:inline;overflow:visible;enable-background:accumulate"
         id="rect4340"
         width="88"
         height="88"
         x="292"
         y="33.5"
         ry="18" />
      <rect
         ry="18"
         y="52.5"
         x="292"
         height="69"
         width="88"
         id="rect4338"
         style="opacity:0.1;color:#bebebe;fill:#000000;fill-opacity:1;fill-rule:nonzero;stroke:none;stroke-width:0;marker:none;visibility:visible;display:inline;overflow:visible;enable-background:accumulate" />
      <rect
         style="opacity:0.1;color:#bebebe;fill:#000000;fill-opacity:1;fill-rule:nonzero;stroke:none;stroke-width:0;marker:none;visibility:visible;display:inline;overflow:visible;enable-background:accumulate"
         id="rect4335"
         width="88"
         height="76.5"
         x="292"
         y="44.5"
         ry="18" />
      <rect
         style="opacity:0.0;color:#bebebe;fill:#000000;fill-opacity:1;fill-rule:nonzero;stroke:#000000;stroke-width:1;stroke-miterlimit:4;stroke-opacity:1;stroke-dasharray:none;marker:none;visibility:visible;display:inline;overflow:visible;enable-background:accumulate"
         id="rect4214"
         width="60"
         height="60"
         x="290"
         y="143.5"
         ry="12.5" />
      <rect
         ry="12.5"
         y="151.5"
         x="290"
         height="52"
         width="60"
         id="rect4206"
         style="opacity:0.1;color:#bebebe;fill:#000000;fill-opacity:1;fill-rule:nonzero;stroke:none;stroke-width:0;marker:none;visibility:visible;display:inline;overflow:visible;enable-background:accumulate" />
      <rect
         style="opacity:0.1;color:#bebebe;fill:#000000;fill-opacity:1;fill-rule:nonzero;stroke:none;stroke-width:0;marker:none;visibility:visible;display:inline;overflow:visible;enable-background:accumulate"
         id="rect4212"
         width="60"
         height="54.5"
         x="290"
         y="148.5"
         ry="12.5" />
      <rect
         style="opacity:0.5;color:#bebebe;fill:#000000;fill-opacity:1;fill-rule:nonzero;stroke:none;stroke-width:0;marker:none;visibility:visible;display:inline;overflow:visible;enable-background:accumulate"
         id="rect4058"
         width="30"
         height="30"
         x="417"
         y="54"
         ry="7" />
      <rect
         ry="50"
         y="48"
         x="34"
         height="220"
         width="220"
         id="rect3872"
         style="opacity:0.0;color:#bebebe;fill:#000000;fill-opacity:1;fill-rule:nonzero;stroke:#000000;stroke-width:2;stroke-miterlimit:4;stroke-opacity:1;stroke-dasharray:none;marker:none;visibility:visible;display:inline;overflow:visible;enable-background:accumulate" />
      <rect
         style="opacity:0.1;color:#bebebe;fill:#000000;fill-opacity:1;fill-rule:nonzero;stroke:none;stroke-width:0;marker:none;visibility:visible;display:inline;overflow:visible;enable-background:accumulate"
         id="rect3870"
         width="220"
         height="220"
         x="34"
         y="48"
         ry="50" />
      <rect
         ry="50"
         y="47"
         x="34"
         height="220"
         width="220"
         id="rect3868"
         style="opacity:0.1;color:#bebebe;fill:#000000;fill-opacity:1;fill-rule:nonzero;stroke:none;stroke-width:0;marker:none;visibility:visible;display:inline;overflow:visible;enable-background:accumulate" />
    </g>
    <g
       inkscape:groupmode="layer"
       id="layer2"
       inkscape:label="Background"
       style="display:inline">
      <rect
         style="color:#bebebe;fill:url(#linearGradient3876);fill-opacity:1;fill-rule:nonzero;stroke:none;stroke-width:0;marker:none;visibility:visible;display:inline;overflow:visible;enable-background:accumulate"
         id="rect4040"
         width="220"
         height="220"
         x="34"
         y="46"
         ry="50" />
      <rect
         ry="3"
         y="140"
         x="416"
         height="16"
         width="16"
         id="rect4095"
         style="color:#bebebe;fill:url(#linearGradient4097);fill-opacity:1;fill-rule:nonzero;stroke:none;stroke-width:0;marker:none;visibility:visible;display:inline;overflow:visible;enable-background:accumulate" />
      <rect
         style="color:#bebebe;fill:url(#linearGradient4101);fill-opacity:1;fill-rule:nonzero;stroke:none;stroke-width:0;marker:none;visibility:visible;display:inline;overflow:visible;enable-background:accumulate"
         id="rect4099"
         width="22"
         height="22"
         x="417"
         y="101"
         ry="5" />
      <rect
         ry="7"
         y="53"
         x="417"
         height="30"
         width="30"
         id="rect4151"
         style="color:#bebebe;fill:url(#linearGradient4153);fill-opacity:1;fill-rule:nonzero;stroke:none;stroke-width:0;marker:none;visibility:visible;display:inline;overflow:visible;enable-background:accumulate" />
      <rect
         style="color:#bebebe;fill:url(#linearGradient4869);fill-opacity:1;fill-rule:nonzero;stroke:none;stroke-width:0;marker:none;visibility:visible;display:inline;overflow:visible;enable-background:accumulate"
         id="rect4783"
         width="42"
         height="42"
         x="291"
         y="-265"
         ry="9"
         transform="scale(1,-1)" />
      <rect
         ry="18"
         y="32"
         x="292"
         height="88"
         width="88"
         id="rect4511"
         style="color:#bebebe;fill:url(#linearGradient4197);fill-opacity:1;fill-rule:nonzero;stroke:none;stroke-width:0;marker:none;visibility:visible;display:inline;overflow:visible;enable-background:accumulate" />
      <rect
         style="color:#bebebe;fill:url(#linearGradient4199);fill-opacity:1;fill-rule:nonzero;stroke:none;stroke-width:0;marker:none;visibility:visible;display:inline;overflow:visible;enable-background:accumulate"
         id="rect4515"
         width="60"
         height="60"
         x="290"
         y="142"
         ry="12.5" />
    </g>
    <g
       inkscape:groupmode="layer"
       id="layer6"
       inkscape:label="Symbols"
       style="display:inline">
      <g
         id="g3914"
         transform="matrix(0.62500117,0,0,0.62500117,63.999864,76.999661)"
         style="opacity:0.2;stroke:#000000;stroke-opacity:1;display:inline;enable-background:new">
        <path
           id="path3916"
           d="m 253.02721,128 c 0,69.05064 -55.97672,125.02726 -125.02738,125.02726 C 58.94917,253.02726 2.9727472,197.05064 2.9727472,128 2.9727472,58.949357 58.94917,2.9727392 127.99983,2.9727392 197.05049,2.9727392 253.02721,58.949357 253.02721,128 z"
           inkscape:connector-curvature="0"
           style="color:#000000;fill:none;stroke:#000000;stroke-width:5.94500017;stroke-opacity:1" />
        <path
           id="path3918"
           d="m 74.59969,60.714623 0,15.667842 m 0,118.877105 0,-81.09556 c 0,-29.610971 23.838455,-53.449387 53.44949,-53.449387 l 0,0 c 29.61093,0 53.44939,23.838416 53.44939,53.449387 l 0,81.09556"
           inkscape:connector-curvature="0"
           style="fill:none;stroke:#000000;stroke-width:7.13199997;stroke-linecap:round;stroke-opacity:1" />
      </g>
      <g
         transform="matrix(0.23202948,0,0,0.23202948,306.30023,47.300038)"
         id="g3920"
         style="opacity:0.2;stroke:#000000;stroke-opacity:1;display:inline;enable-background:new">
        <path
           style="color:#000000;fill:none;stroke:#000000;stroke-width:8.61959457;stroke-miterlimit:4;stroke-opacity:1;stroke-dasharray:none"
           inkscape:connector-curvature="0"
           d="m 253.02721,128 c 0,69.05064 -55.97672,125.02726 -125.02738,125.02726 C 58.94917,253.02726 2.9727472,197.05064 2.9727472,128 2.9727472,58.949357 58.94917,2.9727392 127.99983,2.9727392 197.05049,2.9727392 253.02721,58.949357 253.02721,128 z"
           id="path3922" />
      </g>
      <g
         transform="matrix(0.69827764,0,0,0.69827764,84.368476,184.94094)"
         id="g3926"
         style="opacity:0.2;stroke:#000000;stroke-opacity:1;display:inline;enable-background:new">
        <path
           id="path3928"
           d="m 345.32355,86.010006 c 0,10.677629 -8.65594,19.333564 -19.33358,19.333564 -10.67763,0 -19.33353,-8.655935 -19.33353,-19.333564 0,-10.677629 8.6559,-19.33356 19.33353,-19.33356 10.67764,0 19.33358,8.655931 19.33358,19.33356 z"
           inkscape:connector-curvature="0"
           style="color:#000000;fill:none;stroke:#000000;stroke-width:1.43209505;stroke-miterlimit:4;stroke-opacity:1;stroke-dasharray:none" />
        <path
           id="path3930"
           d="m 318.11347,76.164361 0,2.310742 m 0,17.532369 0,-11.960228 c 0,-4.367118 3.51293,-7.882883 7.87652,-7.882883 l 0,0 c 4.36359,0 7.87653,3.515765 7.87653,7.882883 l 0,11.960228"
           inkscape:connector-curvature="0"
           style="fill:none;stroke:#000000;stroke-width:1.43209505;stroke-linecap:round;stroke-miterlimit:4;stroke-opacity:1;stroke-dasharray:none" />
      </g>
      <g
         id="g3932"
         transform="matrix(0.15197364,0,0,0.15197364,300.54738,153.54718)"
         style="opacity:0.2;stroke:#000000;stroke-opacity:1;display:inline;enable-background:new">
        <path
           id="path3934"
           d="m 253.02721,128 c 0,69.05064 -55.97672,125.02726 -125.02738,125.02726 C 58.94917,253.02726 2.9727472,197.05064 2.9727472,128 2.9727472,58.949357 58.94917,2.9727392 127.99983,2.9727392 197.05049,2.9727392 253.02721,58.949357 253.02721,128 z"
           inkscape:connector-curvature="0"
           style="color:#000000;fill:none;stroke:#000000;stroke-width:13.16017723;stroke-miterlimit:4;stroke-opacity:1;stroke-dasharray:none" />
        <path
           sodipodi:nodetypes="cccsccsc"
           id="path3936"
           d="m 75.35922,62.199115 5.1e-5,13.160177 m -4e-6,118.441588 -4.7e-5,-78.9429 c -1.7e-5,-29.173018 23.477761,-52.658865 52.64076,-52.658865 l 0,0 c 29.16289,0 52.64064,23.485847 52.64066,52.658865 l 5e-5,78.9429"
           inkscape:connector-curvature="0"
           style="fill:none;stroke:#000000;stroke-width:13.16017723;stroke-linecap:round;stroke-miterlimit:4;stroke-opacity:1;stroke-dasharray:none" />
      </g>
      <g
         id="g3938"
         transform="matrix(0.49139188,0,0,0.49139188,271.81116,26.735191)"
         style="opacity:0.2;stroke:#000000;stroke-width:1;stroke-opacity:1;display:inline;enable-background:new">
        <path
           style="color:#000000;fill:none;stroke:#000000;stroke-width:2.03503537;stroke-miterlimit:4;stroke-opacity:1;stroke-dasharray:none"
           inkscape:connector-curvature="0"
           d="m 345.32355,86.010006 c 0,10.677629 -8.65594,19.333564 -19.33358,19.333564 -10.67763,0 -19.33353,-8.655935 -19.33353,-19.333564 0,-10.677629 8.6559,-19.33356 19.33353,-19.33356 10.67764,0 19.33358,8.655931 19.33358,19.33356 z"
           id="path3940" />
        <path
           style="fill:none;stroke:#000000;stroke-width:2.03503537;stroke-linecap:round;stroke-miterlimit:4;stroke-opacity:1;stroke-dasharray:none"
           inkscape:connector-curvature="0"
           d="m 318.86738,77.015699 0,2.094786 m 0,15.893833 0,-10.842451 c 0,-3.958978 3.17669,-7.146168 7.12262,-7.146168 l 0,0 c 3.94593,0 7.12263,3.18719 7.12263,7.146168 l 0,10.842451"
           id="path3942" />
      </g>
      <g
         transform="matrix(0.23276823,0,0,0.23276823,348.11989,128.97941)"
         id="g3944"
         style="opacity:0.2;stroke:#000000;stroke-opacity:1;display:inline;enable-background:new">
        <path
           id="path3946"
           d="m 345.32355,86.010006 c 0,10.677629 -8.65594,19.333564 -19.33358,19.333564 -10.67763,0 -19.33353,-8.655935 -19.33353,-19.333564 0,-10.677629 8.6559,-19.33356 19.33353,-19.33356 10.67764,0 19.33358,8.655931 19.33358,19.33356 z"
           inkscape:connector-curvature="0"
           style="color:#000000;fill:none;stroke:#000000;stroke-width:4.29611874;stroke-miterlimit:4;stroke-opacity:1;stroke-dasharray:none" />
        <path
           id="path3948"
           d="m 319.54582,77.831119 0,1.904874 m 0,14.452905 0,-9.859479 c 0,-3.600059 2.8741,-6.4983 6.44417,-6.4983 l 0,0 c 3.57008,0 6.44419,2.898241 6.44419,6.4983 l 0,9.859479"
           inkscape:connector-curvature="0"
           style="fill:none;stroke:#000000;stroke-width:4.29611874;stroke-linecap:round;stroke-miterlimit:4;stroke-opacity:1;stroke-dasharray:none" />
      </g>
      <g
         id="g3950"
         transform="matrix(0.37241149,0,0,0.37241149,306.59758,80.968696)"
         style="opacity:0.2;stroke:#000000;stroke-opacity:1;display:inline;enable-background:new">
        <path
           style="color:#000000;fill:none;stroke:#000000;stroke-width:2.68520164;stroke-miterlimit:4;stroke-opacity:1;stroke-dasharray:none"
           inkscape:connector-curvature="0"
           d="m 345.32355,86.010006 c 0,10.677629 -8.65594,19.333564 -19.33358,19.333564 -10.67763,0 -19.33353,-8.655935 -19.33353,-19.333564 0,-10.677629 8.6559,-19.33356 19.33353,-19.33356 10.67764,0 19.33358,8.655931 19.33358,19.33356 z"
           id="path3952" />
        <path
           style="fill:none;stroke:#000000;stroke-width:2.68520164;stroke-linecap:round;stroke-miterlimit:4;stroke-opacity:1;stroke-dasharray:none"
           inkscape:connector-curvature="0"
           d="m 319.27699,77.502406 0,1.981432 m 0,15.033771 0,-10.255734 c 0,-3.744747 2.994,-6.759469 6.71299,-6.759469 l 0,0 c 3.71901,0 6.71302,3.014722 6.71302,6.759469 l 0,10.255734"
           id="path3954" />
      </g>
      <g
         style="display:inline;enable-background:new"
         transform="matrix(0.62500117,0,0,0.62500117,63.999864,75.99985)"
         id="g4">
        <path
           style="color:#000000;fill:none;stroke:#f9f9f9;stroke-width:5.94500017"
           inkscape:connector-curvature="0"
           d="m 253.02721,128 c 0,69.05064 -55.97672,125.02726 -125.02738,125.02726 C 58.94917,253.02726 2.9727472,197.05064 2.9727472,128 2.9727472,58.949357 58.94917,2.9727392 127.99983,2.9727392 197.05049,2.9727392 253.02721,58.949357 253.02721,128 z"
           id="path6" />
        <path
           style="fill:none;stroke:#f9f9f9;stroke-width:7.13199997;stroke-linecap:round"
           inkscape:connector-curvature="0"
           d="m 74.59969,60.714623 0,15.667842 m 0,118.877105 0,-81.09556 c 0,-29.610971 23.838455,-53.449387 53.44949,-53.449387 l 0,0 c 29.61093,0 53.44939,23.838416 53.44939,53.449387 l 0,81.09556"
           id="path8" />
      </g>
      <g
         style="display:inline;enable-background:new"
         id="g3851"
         transform="matrix(0.23202948,0,0,0.23202948,306.30023,46.300227)">
        <path
           style="opacity:0.2;fill:none;stroke:#000000;stroke-width:8.61959457;stroke-linecap:round;stroke-miterlimit:4;stroke-opacity:1;stroke-dasharray:none"
           inkscape:connector-curvature="0"
           d="m 76.33157,69.333485 0,15.167954 m 0,115.084291 0,-78.50818 c 0,-28.666221 23.066039,-51.744065 51.71761,-51.744065 l 0,0 c 28.65148,0 51.71752,23.077844 51.71752,51.744065 l 0,78.50818"
           id="path3956" />
        <path
           id="path3853"
           d="m 253.02721,128 c 0,69.05064 -55.97672,125.02726 -125.02738,125.02726 C 58.94917,253.02726 2.9727472,197.05064 2.9727472,128 2.9727472,58.949357 58.94917,2.9727392 127.99983,2.9727392 197.05049,2.9727392 253.02721,58.949357 253.02721,128 z"
           inkscape:connector-curvature="0"
           style="color:#000000;fill:none;stroke:#f9f9f9;stroke-width:8.61959457;stroke-miterlimit:4;stroke-dasharray:none" />
        <path
           id="path3855"
           d="m 76.33157,65.023606 0,15.167954 m 0,115.08429 0,-78.50818 c 0,-28.66622 23.066039,-51.744064 51.71761,-51.744064 l 0,0 c 28.65148,0 51.71752,23.077844 51.71752,51.744064 l 0,78.50818"
           inkscape:connector-curvature="0"
           style="fill:none;stroke:#f9f9f9;stroke-width:8.61959457;stroke-linecap:round;stroke-miterlimit:4;stroke-dasharray:none" />
      </g>
      <g
         style="display:inline;enable-background:new"
         id="g3865"
         transform="matrix(0.69827764,0,0,0.69827764,84.368476,183.94113)">
        <path
           style="color:#000000;fill:none;stroke:#f9f9f9;stroke-width:1.43209505;stroke-miterlimit:4;stroke-dasharray:none"
           inkscape:connector-curvature="0"
           d="m 345.32355,86.010006 c 0,10.677629 -8.65594,19.333564 -19.33358,19.333564 -10.67763,0 -19.33353,-8.655935 -19.33353,-19.333564 0,-10.677629 8.6559,-19.33356 19.33353,-19.33356 10.67764,0 19.33358,8.655931 19.33358,19.33356 z"
           id="path3859" />
        <path
           style="fill:none;stroke:#f9f9f9;stroke-width:1.43209505;stroke-linecap:round;stroke-miterlimit:4;stroke-dasharray:none"
           inkscape:connector-curvature="0"
           d="m 318.11347,76.164361 0,2.310742 m 0,17.532369 0,-11.960228 c 0,-4.367118 3.51293,-7.882883 7.87652,-7.882883 l 0,0 c 4.36359,0 7.87653,3.515765 7.87653,7.882883 l 0,11.960228"
           id="path3861" />
      </g>
      <g
         style="display:inline;enable-background:new"
         transform="matrix(0.15197364,0,0,0.15197364,300.54738,152.54737)"
         id="g3869">
        <path
           style="color:#000000;fill:none;stroke:#f9f9f9;stroke-width:13.16017723;stroke-miterlimit:4;stroke-dasharray:none"
           inkscape:connector-curvature="0"
           d="m 253.02721,128 c 0,69.05064 -55.97672,125.02726 -125.02738,125.02726 C 58.94917,253.02726 2.9727472,197.05064 2.9727472,128 2.9727472,58.949357 58.94917,2.9727392 127.99983,2.9727392 197.05049,2.9727392 253.02721,58.949357 253.02721,128 z"
           id="path3871" />
        <path
           style="fill:none;stroke:#f9f9f9;stroke-width:13.16017723;stroke-linecap:round;stroke-miterlimit:4;stroke-dasharray:none"
           inkscape:connector-curvature="0"
           d="m 75.35922,62.199115 5.1e-5,13.160177 m -4e-6,118.441588 -4.7e-5,-78.9429 c -1.7e-5,-29.173018 23.477761,-52.658865 52.64076,-52.658865 l 0,0 c 29.16289,0 52.64064,23.485847 52.64066,52.658865 l 5e-5,78.9429"
           id="path3873"
           sodipodi:nodetypes="cccsccsc" />
      </g>
      <g
         style="display:inline;enable-background:new"
         transform="matrix(0.49139188,0,0,0.49139188,271.81116,25.73538)"
         id="g3875">
        <path
           id="path3877"
           d="m 345.32355,86.010006 c 0,10.677629 -8.65594,19.333564 -19.33358,19.333564 -10.67763,0 -19.33353,-8.655935 -19.33353,-19.333564 0,-10.677629 8.6559,-19.33356 19.33353,-19.33356 10.67764,0 19.33358,8.655931 19.33358,19.33356 z"
           inkscape:connector-curvature="0"
           style="color:#000000;fill:none;stroke:#f9f9f9;stroke-width:2.03503537;stroke-miterlimit:4;stroke-dasharray:none" />
        <path
           id="path3879"
           d="m 318.86738,77.015699 0,2.094786 m 0,15.893833 0,-10.842451 c 0,-3.958978 3.17669,-7.146168 7.12262,-7.146168 l 0,0 c 3.94593,0 7.12263,3.18719 7.12263,7.146168 l 0,10.842451"
           inkscape:connector-curvature="0"
           style="fill:none;stroke:#f9f9f9;stroke-width:2.03503537;stroke-linecap:round;stroke-miterlimit:4;stroke-dasharray:none" />
      </g>
      <g
         style="display:inline;enable-background:new"
         id="g3881"
         transform="matrix(0.23276823,0,0,0.23276823,348.11989,127.9796)">
        <path
           style="color:#000000;fill:none;stroke:#f9f9f9;stroke-width:4.29611874;stroke-miterlimit:4;stroke-dasharray:none"
           inkscape:connector-curvature="0"
           d="m 345.32355,86.010006 c 0,10.677629 -8.65594,19.333564 -19.33358,19.333564 -10.67763,0 -19.33353,-8.655935 -19.33353,-19.333564 0,-10.677629 8.6559,-19.33356 19.33353,-19.33356 10.67764,0 19.33358,8.655931 19.33358,19.33356 z"
           id="path3883" />
        <path
           style="fill:none;stroke:#f9f9f9;stroke-width:4.29611874;stroke-linecap:round;stroke-miterlimit:4;stroke-dasharray:none"
           inkscape:connector-curvature="0"
           d="m 319.54582,77.831119 0,1.904874 m 0,14.452905 0,-9.859479 c 0,-3.600059 2.8741,-6.4983 6.44417,-6.4983 l 0,0 c 3.57008,0 6.44419,2.898241 6.44419,6.4983 l 0,9.859479"
           id="path3885" />
      </g>
      <g
         style="display:inline;enable-background:new"
         transform="matrix(0.37241149,0,0,0.37241149,306.59758,79.968885)"
         id="g3887">
        <path
           id="path3889"
           d="m 345.32355,86.010006 c 0,10.677629 -8.65594,19.333564 -19.33358,19.333564 -10.67763,0 -19.33353,-8.655935 -19.33353,-19.333564 0,-10.677629 8.6559,-19.33356 19.33353,-19.33356 10.67764,0 19.33358,8.655931 19.33358,19.33356 z"
           inkscape:connector-curvature="0"
           style="color:#000000;fill:none;stroke:#f9f9f9;stroke-width:2.68520164;stroke-miterlimit:4;stroke-dasharray:none" />
        <path
           id="path3891"
           d="m 319.27699,77.502406 0,1.981432 m 0,15.033771 0,-10.255734 c 0,-3.744747 2.994,-6.759469 6.71299,-6.759469 l 0,0 c 3.71901,0 6.71302,3.014722 6.71302,6.759469 l 0,10.255734"
           inkscape:connector-curvature="0"
           style="fill:none;stroke:#f9f9f9;stroke-width:2.68520164;stroke-linecap:round;stroke-miterlimit:4;stroke-dasharray:none" />
      </g>
    </g>
    <g
       inkscape:groupmode="layer"
       id="layer5"
       inkscape:label="Highlights"
       style="display:inline"
       sodipodi:insensitive="true">
      <rect
         ry="9"
         y="307"
         x="-265"
         height="42"
         width="42"
         id="rect4884"
         style="opacity:0.15;color:#bebebe;fill:none;stroke:#000000;stroke-width:2;stroke-miterlimit:4;stroke-opacity:1;stroke-dasharray:none;marker:none;visibility:visible;display:inline;overflow:visible;enable-background:accumulate"
         transform="matrix(0,1,1,0,-16,488)"
         clip-path="url(#clipPath4891)" />
      <rect
         style="opacity:0.15;color:#bebebe;fill:none;stroke:#000000;stroke-width:2;stroke-miterlimit:4;stroke-opacity:1;stroke-dasharray:none;marker:none;visibility:visible;display:inline;overflow:visible;enable-background:accumulate"
         id="rect5311"
         width="16"
         height="16"
         x="-228"
         y="304"
         ry="3"
         clip-path="url(#clipPath3855)"
         transform="matrix(0,-1,1,0,112,-72)" />
      <rect
         ry="50"
         y="46"
         x="34"
         height="220"
         width="220"
         id="rect3858"
         style="opacity:0.15;color:#bebebe;fill:none;stroke:#000000;stroke-width:2;stroke-miterlimit:4;stroke-opacity:1;stroke-dasharray:none;marker:none;visibility:visible;display:inline;overflow:visible;enable-background:accumulate"
         clip-path="url(#clipPath3862)" />
      <rect
         ry="12.5"
         y="142"
         x="290"
         height="60"
         width="60"
         id="rect4175"
         style="opacity:0.15;color:#bebebe;fill:none;stroke:#000000;stroke-width:2;stroke-miterlimit:4;stroke-opacity:1;stroke-dasharray:none;marker:none;visibility:visible;display:inline;overflow:visible;enable-background:accumulate"
         clip-path="url(#clipPath4187)" />
      <rect
         style="opacity:0.15;color:#bebebe;fill:none;stroke:#000000;stroke-width:2;stroke-miterlimit:4;stroke-opacity:1;stroke-dasharray:none;marker:none;visibility:visible;display:inline;overflow:visible;enable-background:accumulate"
         id="rect4342"
         width="88"
         height="88"
         x="292"
         y="32"
         ry="18"
         clip-path="url(#clipPath4346)" />
      <rect
         ry="5"
         y="101"
         x="417"
         height="22"
         width="22"
         id="rect3866"
         style="opacity:0.15;color:#bebebe;fill:none;stroke:#000000;stroke-width:2;stroke-miterlimit:4;stroke-opacity:1;stroke-dasharray:none;marker:none;visibility:visible;display:inline;overflow:visible;enable-background:accumulate"
         clip-path="url(#clipPath3871)" />
      <rect
         style="opacity:0.15;color:#bebebe;fill:none;stroke:#000000;stroke-width:2;stroke-miterlimit:4;stroke-opacity:1;stroke-dasharray:none;marker:none;visibility:visible;display:inline;overflow:visible;enable-background:accumulate"
         id="rect3877"
         width="30"
         height="30"
         x="417"
         y="53"
         ry="7"
         clip-path="url(#clipPath3881)" />
    </g>
  </g>
</svg>
