<?xml version="1.0" encoding="UTF-8" standalone="no"?>
<!-- Created with Inkscape (http://www.inkscape.org/) -->

<svg
   xmlns:dc="http://purl.org/dc/elements/1.1/"
   xmlns:cc="http://creativecommons.org/ns#"
   xmlns:rdf="http://www.w3.org/1999/02/22-rdf-syntax-ns#"
   xmlns:svg="http://www.w3.org/2000/svg"
   xmlns="http://www.w3.org/2000/svg"
   xmlns:xlink="http://www.w3.org/1999/xlink"
   xmlns:sodipodi="http://sodipodi.sourceforge.net/DTD/sodipodi-0.dtd"
   xmlns:inkscape="http://www.inkscape.org/namespaces/inkscape"
   inkscape:export-ydpi="90.000000"
   inkscape:export-xdpi="90.000000"
   width="480"
   height="300"
   id="svg11300"
   sodipodi:version="0.32"
   inkscape:version="0.48.4 r9939"
   sodipodi:docname="gksu-root-terminal.svg"
   inkscape:output_extension="org.inkscape.output.svg.inkscape"
   version="1.0"
   style="display:inline;enable-background:new"
   inkscape:export-filename="/home/sam/moka-next-template.png">
  <sodipodi:namedview
     stroke="#ef2929"
     fill="#f57900"
     id="base"
     pagecolor="#777777"
     bordercolor="#666666"
     borderopacity="0.25490196"
     inkscape:pageopacity="0"
     inkscape:pageshadow="2"
     inkscape:zoom="1"
     inkscape:cx="275.02537"
     inkscape:cy="198.69965"
     inkscape:current-layer="layer7"
     showgrid="false"
     inkscape:grid-bbox="true"
     inkscape:document-units="px"
     inkscape:showpageshadow="false"
     inkscape:window-width="1364"
     inkscape:window-height="700"
     inkscape:window-x="0"
     inkscape:window-y="28"
     width="400px"
     height="300px"
     inkscape:snap-nodes="true"
     inkscape:snap-bbox="true"
     gridtolerance="10000"
     inkscape:object-nodes="true"
     inkscape:snap-grids="true"
     showguides="true"
     inkscape:guide-bbox="true"
     inkscape:window-maximized="1"
     inkscape:bbox-nodes="true"
     inkscape:bbox-paths="true"
     inkscape:snap-bbox-edge-midpoints="true"
     inkscape:snap-bbox-midpoints="true">
    <inkscape:grid
       spacingy="1px"
       spacingx="1px"
       id="grid5883"
       type="xygrid"
       enabled="true"
       visible="true"
       empspacing="4"
       snapvisiblegridlinesonly="true"
       dotted="false"
       color="#000000"
       opacity="0.1254902"
       empcolor="#203ef3"
       empopacity="0.36470588" />
    <inkscape:grid
       type="xygrid"
       id="grid11592"
       empspacing="8"
       visible="true"
       enabled="false"
       spacingx="0.5px"
       spacingy="0.5px"
       color="#ff0000"
       opacity="0.1254902"
       empcolor="#ff0000"
       empopacity="0.25098039"
       snapvisiblegridlinesonly="true"
       dotted="true" />
  </sodipodi:namedview>
  <defs
     id="defs3">
    <linearGradient
       inkscape:collect="always"
       xlink:href="#outerBackgroundGradient"
       id="linearGradient4254"
       x1="35"
       y1="156"
       x2="253"
       y2="156"
       gradientUnits="userSpaceOnUse"
       gradientTransform="matrix(0,-1,1,0,-12,300)" />
    <linearGradient
       inkscape:collect="always"
       xlink:href="#outerBackgroundGradient"
       id="linearGradient4256"
       x1="417"
       y1="148"
       x2="431"
       y2="148"
       gradientUnits="userSpaceOnUse"
       gradientTransform="matrix(0,-1,1,0,276,572)" />
    <linearGradient
       inkscape:collect="always"
       xlink:href="#outerBackgroundGradient"
       id="linearGradient4258"
       x1="418"
       y1="112"
       x2="438"
       y2="112"
       gradientUnits="userSpaceOnUse"
       gradientTransform="matrix(0,-1,1,0,316,540)" />
    <linearGradient
       inkscape:collect="always"
       xlink:href="#outerBackgroundGradient"
       id="linearGradient4260"
       x1="418"
       y1="68"
       x2="446"
       y2="68"
       gradientUnits="userSpaceOnUse"
       gradientTransform="matrix(0,-1,1,0,364,500)" />
    <linearGradient
       inkscape:collect="always"
       xlink:href="#outerBackgroundGradient"
       id="linearGradient3998"
       gradientUnits="userSpaceOnUse"
       gradientTransform="matrix(0,-1,1,0,68,556)"
       x1="292"
       y1="244"
       x2="332"
       y2="244" />
    <linearGradient
       inkscape:collect="always"
       xlink:href="#outerBackgroundGradient"
       id="linearGradient4000"
       gradientUnits="userSpaceOnUse"
       gradientTransform="matrix(0,-1,1,0,260,412)"
       x1="293"
       y1="76"
       x2="379"
       y2="76" />
    <linearGradient
       inkscape:collect="always"
       xlink:href="#outerBackgroundGradient"
       id="linearGradient4002"
       gradientUnits="userSpaceOnUse"
       gradientTransform="matrix(0,-1,1,0,148,492)"
       x1="291"
       y1="172"
       x2="349"
       y2="172" />
    <linearGradient
       id="outerBackgroundGradient">
      <stop
         style="stop-color:#59216b;stop-opacity:1;"
         offset="0"
         id="stop3864-8-6" />
      <stop
         style="stop-color:#753a88;stop-opacity:1;"
         offset="1"
         id="stop3866-9-1" />
    </linearGradient>
  </defs>
  <metadata
     id="metadata4">
    <rdf:RDF>
      <cc:Work
         rdf:about="">
        <dc:format>image/svg+xml</dc:format>
        <dc:type
           rdf:resource="http://purl.org/dc/dcmitype/StillImage" />
        <dc:creator>
          <cc:Agent>
            <dc:title>Sam Hewitt</dc:title>
          </cc:Agent>
        </dc:creator>
        <dc:source />
        <cc:license
           rdf:resource="" />
        <dc:title />
        <dc:subject>
          <rdf:Bag />
        </dc:subject>
        <dc:date />
        <dc:rights>
          <cc:Agent>
            <dc:title />
          </cc:Agent>
        </dc:rights>
        <dc:publisher>
          <cc:Agent>
            <dc:title />
          </cc:Agent>
        </dc:publisher>
        <dc:identifier />
        <dc:relation />
        <dc:language />
        <dc:coverage />
        <dc:description />
        <dc:contributor>
          <cc:Agent>
            <dc:title />
          </cc:Agent>
        </dc:contributor>
      </cc:Work>
      <cc:Work
         rdf:about="">
        <dc:format>image/svg+xml</dc:format>
        <dc:type
           rdf:resource="http://purl.org/dc/dcmitype/StillImage" />
      </cc:Work>
    </rdf:RDF>
  </metadata>
  <g
     style="display:inline"
     inkscape:groupmode="layer"
     inkscape:label="Icon"
     id="layer1">
    <g
       style="display:none"
       inkscape:label="Baseplate"
       id="layer7"
       inkscape:groupmode="layer">
      <text
         y="19.745117"
         xml:space="preserve"
         x="15.006836"
         style="font-style:normal;font-variant:normal;font-weight:normal;font-stretch:normal;line-height:0%;font-family:'DejaVu Sans';-inkscape-font-specification:'DejaVu Sans';display:inline;fill:#000000;fill-opacity:1;stroke:none;enable-background:new"
         inkscape:label="context"
         id="context"><tspan
           style="font-style:normal;font-variant:normal;font-weight:normal;font-stretch:normal;font-size:18px;line-height:1.25;font-family:'DejaVu Sans';-inkscape-font-specification:'DejaVu Sans'"
           y="19.745117"
           x="15.006836"
           sodipodi:role="line"
           id="tspan3933">apps</tspan></text>
      <text
         y="19.745117"
         xml:space="preserve"
         x="122.48828"
         style="font-style:normal;font-variant:normal;font-weight:bold;font-stretch:normal;line-height:0%;font-family:'DejaVu Sans';-inkscape-font-specification:'DejaVu Sans Bold';text-align:start;writing-mode:lr-tb;text-anchor:start;display:inline;fill:#000000;fill-opacity:1;stroke:none;enable-background:new"
         inkscape:label="icon-name"
         id="icon-name"><tspan
           style="font-style:normal;font-variant:normal;font-weight:bold;font-stretch:normal;font-size:18px;line-height:1.25;font-family:'DejaVu Sans';-inkscape-font-specification:'DejaVu Sans Bold'"
           y="19.745117"
           x="122.48828"
           sodipodi:role="line"
           id="tspan3937">gksu-root-terminal</tspan></text>
      <rect
         style="fill:#eeeeec;fill-opacity:1;fill-rule:nonzero;stroke:none;stroke-width:2;marker:none;visibility:visible;display:inline;overflow:visible;enable-background:accumulate"
         id="rect16x16"
         width="16"
         height="16"
         x="416"
         y="140"
         inkscape:label="16x16" />
      <rect
         style="fill:#d4d4d4;fill-opacity:1;fill-rule:nonzero;stroke:none;stroke-width:2;marker:none;visibility:visible;display:inline;overflow:visible;enable-background:accumulate"
         id="rect24x24"
         width="24"
         height="24"
         x="416"
         y="100"
         inkscape:label="24x24" />
      <rect
         style="fill:#eeeeec;fill-opacity:1;fill-rule:nonzero;stroke:none;stroke-width:2;marker:none;visibility:visible;display:inline;overflow:visible;enable-background:accumulate"
         id="rect32x32"
         width="32"
         height="32"
         x="416"
         y="52"
         inkscape:label="32x32" />
      <rect
         inkscape:label="22x22"
         y="101"
         x="417"
         height="22"
         width="22"
         id="rect22x22"
         style="fill:#eeeeec;fill-opacity:1;fill-rule:nonzero;stroke:none;stroke-width:2;marker:none;visibility:visible;display:inline;overflow:visible;enable-background:accumulate" />
      <rect
         inkscape:label="48x48"
         y="220"
         x="288"
         height="48"
         width="48"
         id="rect48x48"
         style="fill:#eeeeec;fill-opacity:1;fill-rule:nonzero;stroke:none;stroke-width:2;marker:none;visibility:visible;display:inline;overflow:visible;enable-background:accumulate" />
      <rect
         style="fill:#eeeeec;fill-opacity:1;fill-rule:nonzero;stroke:none;stroke-width:2;marker:none;visibility:visible;display:inline;overflow:visible;enable-background:accumulate"
         id="rect256x256"
         width="256"
         height="256"
         x="16"
         y="28"
         inkscape:label="256x256" />
      <rect
         style="fill:#eeeeec;fill-opacity:1;fill-rule:nonzero;stroke:none;stroke-width:2;marker:none;visibility:visible;display:inline;overflow:visible;enable-background:accumulate"
         id="rect64x64"
         width="64"
         height="64"
         x="288"
         y="140"
         inkscape:label="64x64" />
      <rect
         style="fill:#eeeeec;fill-opacity:1;fill-rule:nonzero;stroke:none;stroke-width:2;marker:none;visibility:visible;display:inline;overflow:visible;enable-background:accumulate"
         id="rect96x96"
         width="96"
         height="96"
         x="288"
         y="28"
         inkscape:label="96x96" />
    </g>
    <g
       inkscape:groupmode="layer"
       id="layer4"
       inkscape:label="Shadow"
       style="display:inline"
       sodipodi:insensitive="true">
      <rect
         ry="50"
         y="47"
         x="34"
         height="220"
         width="220"
         id="rect4114"
         style="opacity:0.15;color:#bebebe;fill:#000000;fill-opacity:1;fill-rule:nonzero;stroke:none;stroke-width:0;marker:none;visibility:visible;display:inline;overflow:visible;enable-background:accumulate" />
      <rect
         style="opacity:0.15;color:#bebebe;fill:#000000;fill-opacity:1;fill-rule:nonzero;stroke:none;stroke-width:0;marker:none;visibility:visible;display:inline;overflow:visible;enable-background:accumulate"
         id="rect4120"
         width="30"
         height="30"
         x="417"
         y="54"
         ry="7" />
      <rect
         transform="scale(1,-1)"
         ry="9"
         y="-266"
         x="291"
         height="42"
         width="42"
         id="rect4122"
         style="opacity:0.15;color:#bebebe;fill:#000000;fill-opacity:1;fill-rule:nonzero;stroke:none;stroke-width:0;marker:none;visibility:visible;display:inline;overflow:visible;enable-background:accumulate" />
      <rect
         style="opacity:0.15;color:#bebebe;fill:#000000;fill-opacity:1;fill-rule:nonzero;stroke:none;stroke-width:0;marker:none;visibility:visible;display:inline;overflow:visible;enable-background:accumulate"
         id="rect4124"
         width="88"
         height="88"
         x="292"
         y="33"
         ry="18" />
      <rect
         ry="12.5"
         y="143"
         x="290"
         height="60"
         width="60"
         id="rect4126"
         style="opacity:0.15;color:#bebebe;fill:#000000;fill-opacity:1;fill-rule:nonzero;stroke:none;stroke-width:0;marker:none;visibility:visible;display:inline;overflow:visible;enable-background:accumulate" />
      <path
         id="path4268"
         d="m 422,101 c -2.77,0 -5,2.23 -5,5 l 0,12 c 0,2.77 2.23,5 5,5 l 12,0 c 2.77,0 5,-2.23 5,-5 l 0,-12 c 0,-2.77 -2.23,-5 -5,-5 z"
         style="opacity:0.15;color:#bebebe;fill:#000000;fill-opacity:1;fill-rule:nonzero;stroke:none;stroke-width:0;marker:none;visibility:visible;display:inline;overflow:visible;enable-background:accumulate"
         inkscape:connector-curvature="0"
         sodipodi:nodetypes="sssssssss" />
      <path
         id="path4270"
         d="m 419,140 c -1.662,0 -3,1.338 -3,3 l 0,10 c 0,1.662 1.338,3 3,3 l 10,0 c 1.662,0 3,-1.338 3,-3 l 0,-10 c 0,-1.662 -1.338,-3 -3,-3 z"
         style="opacity:0.15;color:#bebebe;fill:#000000;fill-opacity:1;fill-rule:nonzero;stroke:none;stroke-width:0;marker:none;visibility:visible;display:inline;overflow:visible;enable-background:accumulate"
         inkscape:connector-curvature="0"
         sodipodi:nodetypes="sssssssss" />
    </g>
    <g
       inkscape:groupmode="layer"
       id="layer2"
       inkscape:label="Background"
       style="display:inline">
      <path
         style="color:#bebebe;fill:url(#linearGradient4254);fill-opacity:1.0;fill-rule:nonzero;stroke:none;stroke-width:2;marker:none;visibility:visible;display:inline;overflow:visible;enable-background:accumulate"
         d="M 84 46.5 C 56.568735 46.5 34.5 68.568732 34.5 96 L 34.5 216 C 34.5 243.43127 56.568735 265.5 84 265.5 L 204 265.5 C 231.43127 265.5 253.5 243.43127 253.5 216 L 253.5 96 C 253.5 68.568732 231.43127 46.5 204 46.5 L 84 46.5 z "
         id="path4200" />
      <path
         style="color:#bebebe;fill:url(#linearGradient4256);fill-opacity:1.0;fill-rule:nonzero;stroke:none;stroke-width:2;marker:none;visibility:visible;display:inline;overflow:visible;enable-background:accumulate"
         d="M 419 140.5 C 417.6156 140.5 416.5 141.6156 416.5 143 L 416.5 153 C 416.5 154.3844 417.6156 155.5 419 155.5 L 429 155.5 C 430.3844 155.5 431.5 154.3844 431.5 153 L 431.5 143 C 431.5 141.6156 430.3844 140.5 429 140.5 L 419 140.5 z "
         id="path4202" />
      <path
         style="color:#bebebe;fill:url(#linearGradient4258);fill-opacity:1.0;fill-rule:nonzero;stroke:none;stroke-width:2;marker:none;visibility:visible;display:inline;overflow:visible;enable-background:accumulate"
         d="M 422 101.5 C 419.50301 101.5 417.5 103.50301 417.5 106 L 417.5 118 C 417.5 120.49699 419.50301 122.5 422 122.5 L 434 122.5 C 436.49699 122.5 438.5 120.49699 438.5 118 L 438.5 106 C 438.5 103.50301 436.49699 101.5 434 101.5 L 422 101.5 z "
         id="path4204" />
      <path
         style="color:#bebebe;fill:url(#linearGradient4260);fill-opacity:1.0;fill-rule:nonzero;stroke:none;stroke-width:2;marker:none;visibility:visible;display:inline;overflow:visible;enable-background:accumulate"
         d="M 424 53.5 C 420.39346 53.5 417.5 56.393464 417.5 60 L 417.5 76 C 417.5 79.606536 420.39346 82.5 424 82.5 L 440 82.5 C 443.60654 82.5 446.5 79.606536 446.5 76 L 446.5 60 C 446.5 56.393464 443.60654 53.5 440 53.5 L 424 53.5 z "
         id="path4206" />
      <path
         style="color:#bebebe;fill:url(#linearGradient3998);fill-opacity:1.0;fill-rule:nonzero;stroke:none;stroke-width:2;marker:none;visibility:visible;display:inline;overflow:visible;enable-background:accumulate"
         d="M 300 223.5 C 295.28469 223.5 291.5 227.28469 291.5 232 L 291.5 256 C 291.5 260.71531 295.28469 264.5 300 264.5 L 324 264.5 C 328.71531 264.5 332.5 260.71531 332.5 256 L 332.5 232 C 332.5 227.28469 328.71531 223.5 324 223.5 L 300 223.5 z "
         id="path4208" />
      <path
         style="color:#bebebe;fill:url(#linearGradient4000);fill-opacity:1.0;fill-rule:nonzero;stroke:none;stroke-width:2;marker:none;visibility:visible;display:inline;overflow:visible;enable-background:accumulate"
         d="M 310 32.5 C 300.29745 32.5 292.5 40.297452 292.5 50 L 292.5 102 C 292.5 111.70255 300.29745 119.5 310 119.5 L 362 119.5 C 371.70255 119.5 379.5 111.70255 379.5 102 L 379.5 50 C 379.5 40.297452 371.70255 32.5 362 32.5 L 310 32.5 z "
         id="path4210" />
      <path
         style="color:#bebebe;fill:url(#linearGradient4002);fill-opacity:1.0;fill-rule:nonzero;stroke:none;stroke-width:2;marker:none;visibility:visible;display:inline;overflow:visible;enable-background:accumulate"
         d="M 302.5 142.5 C 295.84498 142.5 290.5 147.84498 290.5 154.5 L 290.5 189.5 C 290.5 196.15502 295.84498 201.5 302.5 201.5 L 337.5 201.5 C 344.15502 201.5 349.5 196.15502 349.5 189.5 L 349.5 154.5 C 349.5 147.84498 344.15502 142.5 337.5 142.5 L 302.5 142.5 z "
         id="path4212" />
    </g>
    <g
       inkscape:groupmode="layer"
       id="layer6"
       inkscape:label="Symbols"
       style="display:inline">
      <g
         style="opacity:0.2;fill:#000000;fill-opacity:1;display:inline;enable-background:new"
         id="g4055"
         transform="translate(3e-5,1.9999993)">
        <rect
           y="240"
           x="307"
           height="2.0000007"
           width="9"
           id="rect4057"
           style="color:#bebebe;fill:#000000;fill-opacity:1;fill-rule:nonzero;stroke:none;stroke-width:2;marker:none;visibility:visible;display:inline;overflow:visible;enable-background:accumulate" />
        <g
           style="font-size:17.2705555px;font-style:normal;font-variant:normal;font-weight:normal;font-stretch:normal;text-align:center;line-height:125%;letter-spacing:0px;word-spacing:0px;text-anchor:middle;fill:#000000;fill-opacity:1;stroke:none;display:inline;enable-background:new;font-family:Roboto;-inkscape-font-specification:Roboto"
           id="g4059">
          <path
             d="m 300.20309,229 1.72875,0 0,0.97826 c 0.47785,0.0956 0.91918,0.2811 1.32396,0.55657 0.41039,0.26986 0.78144,0.60436 1.11314,1.00351 l -1.02038,1.29023 c 0,0 -0.30568,-0.38639 -0.44695,-0.56497 -0.11245,-0.1293 -0.26424,-0.25579 -0.45538,-0.37948 -0.18553,-0.12367 -0.3851,-0.21081 -0.59873,-0.26142 l 0,2.5383 c 0.45537,0.14618 0.85734,0.30921 1.2059,0.48911 0.34855,0.17991 0.63808,0.38792 0.86859,0.62403 0.23611,0.23613 0.4132,0.50317 0.53127,0.80113 0.11805,0.29234 0.17708,0.62684 0.17709,1.00351 -1e-5,0.35418 -0.0618,0.69431 -0.18552,1.02038 -0.12369,0.32045 -0.30359,0.61279 -0.53971,0.87702 -0.2305,0.26423 -0.5116,0.49192 -0.84329,0.68306 -0.3317,0.19115 -0.70836,0.32889 -1.13,0.41322 l 0,0.92761 -1.72875,0 0,-0.87702 c -0.52846,-0.09 -1.03724,-0.26704 -1.52635,-0.53127 -0.48911,-0.26423 -0.92481,-0.60717 -1.3071,-1.02881 l 1.05412,-1.48419 0.48914,0.60717 c 0.19115,0.20801 0.39353,0.3851 0.60717,0.53127 0.21925,0.14617 0.47505,0.25018 0.76739,0.31202 l 0,-3.08644 c -0.4104,-0.15179 -0.77864,-0.32045 -1.1047,-0.50597 -0.32046,-0.18552 -0.59312,-0.39072 -0.818,-0.6156 -0.21925,-0.2305 -0.38791,-0.48348 -0.50597,-0.75896 -0.11806,-0.28109 -0.17709,-0.58749 -0.17709,-0.91919 0,-0.31482 0.059,-0.61559 0.17709,-0.90232 0.11806,-0.28671 0.28672,-0.54532 0.50597,-0.77582 0.21926,-0.23049 0.48349,-0.42726 0.7927,-0.59031 0.31482,-0.16864 0.66338,-0.29233 1.04567,-0.37104 l 0,-1.00352 m 1.64442,9.42797 c 0.30358,-0.10681 0.54813,-0.2586 0.73366,-0.45537 0.19114,-0.19677 0.28671,-0.45819 0.28672,-0.78426 -1e-5,-0.26985 -0.0843,-0.50597 -0.25299,-0.70837 -0.16304,-0.20238 -0.41884,-0.36542 -0.76739,-0.4891 l 0,2.4371 m -1.56009,-6.8222 c -0.23612,0.0618 -0.42727,0.17147 -0.57343,0.32888 -0.14618,0.15742 -0.21926,0.35981 -0.21926,0.60717 0,0.17991 0.059,0.36543 0.17709,0.55657 0.11806,0.19115 0.32326,0.33732 0.6156,0.43851 l 0,-1.93113"
             style="font-weight:bold;fill:#000000;fill-opacity:1;font-family:Inconsolata;-inkscape-font-specification:Inconsolata Bold"
             id="path4061"
             inkscape:connector-curvature="0"
             sodipodi:nodetypes="ccccccccccccccccsccccscccccccccscccccccccccccsccc" />
        </g>
      </g>
      <g
         style="opacity:0.2;fill:#000000;fill-opacity:1;display:inline;enable-background:new"
         transform="matrix(1.9999999,0,0,1.9999999,-291.99994,-414.99997)"
         id="g4063">
        <rect
           style="color:#bebebe;fill:#000000;fill-opacity:1;fill-rule:nonzero;stroke:none;stroke-width:2;marker:none;visibility:visible;display:inline;overflow:visible;enable-background:accumulate"
           id="rect4065"
           width="9"
           height="1.499998"
           x="306.5"
           y="240.5" />
        <g
           id="g4067"
           style="font-size:17.2705555px;font-style:normal;font-variant:normal;font-weight:normal;font-stretch:normal;text-align:center;line-height:125%;letter-spacing:0px;word-spacing:0px;text-anchor:middle;fill:#000000;fill-opacity:1;stroke:none;display:inline;enable-background:new;font-family:Roboto;-inkscape-font-specification:Roboto">
          <path
             sodipodi:nodetypes="ccccccccccccccccsccccscccccccccscccccccccccccsccc"
             inkscape:connector-curvature="0"
             id="path4069"
             style="font-weight:bold;fill:#000000;fill-opacity:1;font-family:Inconsolata;-inkscape-font-specification:Inconsolata Bold"
             d="m 299.96695,230.00007 1.58468,0 0,0.89673 c 0.43803,0.0876 0.84258,0.25768 1.21362,0.51019 0.37619,0.24737 0.71632,0.55399 1.02038,0.91988 l -0.93535,1.1827 c 0,0 -0.2802,-0.35419 -0.4097,-0.51788 -0.10308,-0.11853 -0.24222,-0.23448 -0.41743,-0.34786 -0.17007,-0.11336 -0.353,-0.19324 -0.54883,-0.23963 l 0,2.32676 c 0.41742,0.134 0.78589,0.28344 1.1054,0.44835 0.3195,0.16491 0.58491,0.35559 0.79621,0.57202 0.21643,0.21645 0.37876,0.46124 0.48699,0.73437 0.10821,0.26797 0.16232,0.5746 0.16233,0.91987 -1e-5,0.32467 -0.0567,0.63645 -0.17006,0.93535 -0.11338,0.29374 -0.27829,0.56172 -0.49473,0.80393 -0.21129,0.24221 -0.46896,0.45092 -0.77301,0.62613 -0.30406,0.17522 -0.64933,0.30148 -1.03583,0.37879 l 0,0.8503 -1.58468,0 0,-0.80393 c -0.48441,-0.0825 -0.95079,-0.24479 -1.39914,-0.487 -0.44835,-0.2422 -0.84774,-0.55656 -1.19817,-0.94307 l 0.96627,-1.3605 0.44838,0.55657 c 0.17522,0.19068 0.36073,0.35301 0.55657,0.487 0.20097,0.13399 0.43546,0.22933 0.70343,0.28602 l 0,-2.82922 c -0.37619,-0.13914 -0.71375,-0.29375 -1.01263,-0.46381 -0.29376,-0.17006 -0.54369,-0.35816 -0.74983,-0.56429 -0.20098,-0.2113 -0.35558,-0.44319 -0.46381,-0.69571 -0.10822,-0.25767 -0.16233,-0.53853 -0.16233,-0.84259 0,-0.28858 0.0541,-0.56429 0.16233,-0.82712 0.10823,-0.26282 0.26283,-0.49988 0.46381,-0.71117 0.20099,-0.21128 0.44319,-0.39165 0.72664,-0.54111 0.28858,-0.15459 0.60809,-0.26797 0.95852,-0.34012 l 0,-0.91989 m 1.50738,8.64226 c 0.27828,-0.0979 0.50245,-0.23705 0.67251,-0.41742 0.17522,-0.18037 0.26282,-0.42001 0.26283,-0.7189 -10e-6,-0.24736 -0.0773,-0.4638 -0.23191,-0.64934 -0.14945,-0.18551 -0.38393,-0.33496 -0.70343,-0.44834 l 0,2.234 m -1.43008,-6.25365 c -0.21644,0.0566 -0.39166,0.15718 -0.52564,0.30147 -0.134,0.1443 -0.20099,0.32983 -0.20099,0.55657 0,0.16492 0.0541,0.33498 0.16234,0.51019 0.10822,0.17522 0.29632,0.30921 0.56429,0.40196 l 0,-1.77019" />
        </g>
      </g>
      <g
         style="opacity:0.2;fill:#000000;fill-opacity:1;display:inline;enable-background:new"
         id="g4071"
         transform="translate(3e-5,0.99999928)">
        <rect
           y="163"
           x="310"
           height="1.9999981"
           width="12"
           id="rect4073"
           style="color:#bebebe;fill:#000000;fill-opacity:1;fill-rule:nonzero;stroke:none;stroke-width:2;marker:none;visibility:visible;display:inline;overflow:visible;enable-background:accumulate" />
        <path
           sodipodi:nodetypes="ccccccccccccccccsccccscccccccccscccccccccccccsccc"
           inkscape:connector-curvature="0"
           id="path4075"
           style="font-size:17.2705555px;font-style:normal;font-variant:normal;font-weight:bold;font-stretch:normal;text-align:center;line-height:125%;letter-spacing:0px;word-spacing:0px;text-anchor:middle;fill:#000000;fill-opacity:1;stroke:none;display:inline;enable-background:new;font-family:Inconsolata;-inkscape-font-specification:Inconsolata Bold"
           d="m 301.97857,148.94195 2.16093,0 0,1.22282 c 0.59731,0.1195 1.14897,0.35137 1.65494,0.69571 0.51298,0.33732 0.97679,0.75544 1.39142,1.25438 l -1.27547,1.61277 c 0,0 -0.3821,-0.48298 -0.55869,-0.7062 -0.14056,-0.16163 -0.33029,-0.31974 -0.56922,-0.47435 -0.23191,-0.15459 -0.48137,-0.26351 -0.74841,-0.32677 l 0,3.17285 c 0.56921,0.18273 1.07167,0.38651 1.50737,0.61139 0.43569,0.22488 0.7976,0.48489 1.08573,0.78003 0.29514,0.29516 0.5165,0.62896 0.66409,1.00141 0.14756,0.36542 0.22134,0.78354 0.22136,1.25438 -2e-5,0.44272 -0.0772,0.86788 -0.2319,1.27546 -0.15461,0.40056 -0.37949,0.76599 -0.67464,1.09627 -0.28812,0.33029 -0.63949,0.6149 -1.0541,0.85382 -0.41462,0.23894 -0.88545,0.41111 -1.41249,0.51652 l 0,1.15951 -2.16093,0 0,-1.09627 c -0.66057,-0.1125 -1.29654,-0.3338 -1.90792,-0.66408 -0.61139,-0.33029 -1.15601,-0.75896 -1.63387,-1.28601 l 1.31764,-1.85522 0.61142,0.75895 c 0.23894,0.26002 0.49191,0.48138 0.75896,0.66409 0.27406,0.18271 0.59381,0.31272 0.95923,0.39002 l 0,-3.85803 c -0.51299,-0.18973 -0.97329,-0.40056 -1.38086,-0.63246 -0.40058,-0.23189 -0.7414,-0.48839 -1.0225,-0.76949 -0.27406,-0.28812 -0.48488,-0.60435 -0.63246,-0.9487 -0.14757,-0.35136 -0.22136,-0.73435 -0.22136,-1.14898 0,-0.39352 0.0738,-0.76948 0.22136,-1.12789 0.14758,-0.35839 0.3584,-0.68165 0.63246,-0.96977 0.27408,-0.28811 0.60436,-0.53407 0.99087,-0.73788 0.39352,-0.2108 0.82922,-0.36541 1.30708,-0.4638 l 0,-1.25439 m 2.05551,11.78489 c 0.37948,-0.13351 0.68516,-0.32325 0.91707,-0.56921 0.23893,-0.24596 0.35839,-0.57273 0.3584,-0.98032 -1e-5,-0.33731 -0.10537,-0.63246 -0.31623,-0.88545 -0.2038,-0.25298 -0.52355,-0.45678 -0.95924,-0.61138 l 0,3.04636 m -1.9501,-8.5277 c -0.29514,0.0773 -0.53408,0.21434 -0.71678,0.4111 -0.18272,0.19677 -0.27407,0.44976 -0.27407,0.75896 0,0.22488 0.0737,0.45678 0.22136,0.69571 0.14757,0.23893 0.40407,0.42164 0.76949,0.54813 l 0,-2.4139" />
      </g>
      <g
         style="opacity:0.2;fill:#000000;fill-opacity:1;display:inline;enable-background:new"
         transform="matrix(4,0,0,4,-1129.0001,-523)"
         id="g4077">
        <rect
           style="color:#bebebe;fill:#000000;fill-opacity:1;fill-rule:nonzero;stroke:none;stroke-width:2;marker:none;visibility:visible;display:inline;overflow:visible;enable-background:accumulate"
           id="rect4079"
           width="12"
           height="1.9999981"
           x="310"
           y="163" />
        <path
           d="m 301.97857,148.94195 2.16093,0 0,1.22282 c 0.59731,0.1195 1.14897,0.35137 1.65494,0.69571 0.51298,0.33732 0.97679,0.75544 1.39142,1.25438 l -1.27547,1.61277 c 0,0 -0.3821,-0.48298 -0.55869,-0.7062 -0.14056,-0.16163 -0.33029,-0.31974 -0.56922,-0.47435 -0.23191,-0.15459 -0.48137,-0.26351 -0.74841,-0.32677 l 0,3.17285 c 0.56921,0.18273 1.07167,0.38651 1.50737,0.61139 0.43569,0.22488 0.7976,0.48489 1.08573,0.78003 0.29514,0.29516 0.5165,0.62896 0.66409,1.00141 0.14756,0.36542 0.22134,0.78354 0.22136,1.25438 -2e-5,0.44272 -0.0772,0.86788 -0.2319,1.27546 -0.15461,0.40056 -0.37949,0.76599 -0.67464,1.09627 -0.28812,0.33029 -0.63949,0.6149 -1.0541,0.85382 -0.41462,0.23894 -0.88545,0.41111 -1.41249,0.51652 l 0,1.15951 -2.16093,0 0,-1.09627 c -0.66057,-0.1125 -1.29654,-0.3338 -1.90792,-0.66408 -0.61139,-0.33029 -1.15601,-0.75896 -1.63387,-1.28601 l 1.31764,-1.85522 0.61142,0.75895 c 0.23894,0.26002 0.49191,0.48138 0.75896,0.66409 0.27406,0.18271 0.59381,0.31272 0.95923,0.39002 l 0,-3.85803 c -0.51299,-0.18973 -0.97329,-0.40056 -1.38086,-0.63246 -0.40058,-0.23189 -0.7414,-0.48839 -1.0225,-0.76949 -0.27406,-0.28812 -0.48488,-0.60435 -0.63246,-0.9487 -0.14757,-0.35136 -0.22136,-0.73435 -0.22136,-1.14898 0,-0.39352 0.0738,-0.76948 0.22136,-1.12789 0.14758,-0.35839 0.3584,-0.68165 0.63246,-0.96977 0.27408,-0.28811 0.60436,-0.53407 0.99087,-0.73788 0.39352,-0.2108 0.82922,-0.36541 1.30708,-0.4638 l 0,-1.25439 m 2.05551,11.78489 c 0.37948,-0.13351 0.68516,-0.32325 0.91707,-0.56921 0.23893,-0.24596 0.35839,-0.57273 0.3584,-0.98032 -1e-5,-0.33731 -0.10537,-0.63246 -0.31623,-0.88545 -0.2038,-0.25298 -0.52355,-0.45678 -0.95924,-0.61138 l 0,3.04636 m -1.9501,-8.5277 c -0.29514,0.0773 -0.53408,0.21434 -0.71678,0.4111 -0.18272,0.19677 -0.27407,0.44976 -0.27407,0.75896 0,0.22488 0.0737,0.45678 0.22136,0.69571 0.14757,0.23893 0.40407,0.42164 0.76949,0.54813 l 0,-2.4139"
           style="font-size:17.2705555px;font-style:normal;font-variant:normal;font-weight:bold;font-stretch:normal;text-align:center;line-height:125%;letter-spacing:0px;word-spacing:0px;text-anchor:middle;fill:#000000;fill-opacity:1;stroke:none;display:inline;enable-background:new;font-family:Inconsolata;-inkscape-font-specification:Inconsolata Bold"
           id="path4081"
           inkscape:connector-curvature="0"
           sodipodi:nodetypes="ccccccccccccccccsccccscccccccccscccccccccccccsccc" />
      </g>
      <g
         transform="matrix(0.5,0,0,0.5,271.50003,-9.0000008)"
         id="g4083"
         style="opacity:0.2;fill:#000000;fill-opacity:1;display:inline;enable-background:new">
        <rect
           style="color:#bebebe;fill:#000000;fill-opacity:1;fill-rule:nonzero;stroke:none;stroke-width:2;marker:none;visibility:visible;display:inline;overflow:visible;enable-background:accumulate"
           id="rect4085"
           width="8"
           height="2"
           x="307"
           y="240" />
        <g
           id="g4087"
           style="font-size:17.2705555px;font-style:normal;font-variant:normal;font-weight:normal;font-stretch:normal;text-align:center;line-height:125%;letter-spacing:0px;word-spacing:0px;text-anchor:middle;fill:#000000;fill-opacity:1;stroke:none;display:inline;enable-background:new;font-family:Roboto;-inkscape-font-specification:Roboto">
          <path
             sodipodi:nodetypes="ccccccccccccccccsccccscccccccccscccccccccccccsccc"
             inkscape:connector-curvature="0"
             id="path4089-8"
             style="font-weight:bold;fill:#000000;fill-opacity:1;font-family:Inconsolata;-inkscape-font-specification:Inconsolata Bold"
             d="m 300.20309,229 1.72875,0 0,0.97826 c 0.47785,0.0956 0.91918,0.2811 1.32396,0.55657 0.41039,0.26986 0.78144,0.60436 1.11314,1.00351 l -1.02038,1.29023 c 0,0 -0.30568,-0.38639 -0.44695,-0.56497 -0.11245,-0.1293 -0.26424,-0.25579 -0.45538,-0.37948 -0.18553,-0.12367 -0.3851,-0.21081 -0.59873,-0.26142 l 0,2.5383 c 0.45537,0.14618 0.85734,0.30921 1.2059,0.48911 0.34855,0.17991 0.63808,0.38792 0.86859,0.62403 0.23611,0.23613 0.4132,0.50317 0.53127,0.80113 0.11805,0.29234 0.17708,0.62684 0.17709,1.00351 -1e-5,0.35418 -0.0618,0.69431 -0.18552,1.02038 -0.12369,0.32045 -0.30359,0.61279 -0.53971,0.87702 -0.2305,0.26423 -0.5116,0.49192 -0.84329,0.68306 -0.3317,0.19115 -0.70836,0.32889 -1.13,0.41322 l 0,0.92761 -1.72875,0 0,-0.87702 c -0.52846,-0.09 -1.03724,-0.26704 -1.52635,-0.53127 -0.48911,-0.26423 -0.92481,-0.60717 -1.3071,-1.02881 l 1.05412,-1.48419 0.48914,0.60717 c 0.19115,0.20801 0.39353,0.3851 0.60717,0.53127 0.21925,0.14617 0.47505,0.25018 0.76739,0.31202 l 0,-3.08644 c -0.4104,-0.15179 -0.77864,-0.32045 -1.1047,-0.50597 -0.32046,-0.18552 -0.59312,-0.39072 -0.818,-0.6156 -0.21925,-0.2305 -0.38791,-0.48348 -0.50597,-0.75896 -0.11806,-0.28109 -0.17709,-0.58749 -0.17709,-0.91919 0,-0.31482 0.059,-0.61559 0.17709,-0.90232 0.11806,-0.28671 0.28672,-0.54532 0.50597,-0.77582 0.21926,-0.23049 0.48349,-0.42726 0.7927,-0.59031 0.31482,-0.16864 0.66338,-0.29233 1.04567,-0.37104 l 0,-1.00352 m 1.64442,9.42797 c 0.30358,-0.10681 0.54813,-0.2586 0.73366,-0.45537 0.19114,-0.19677 0.28671,-0.45819 0.28672,-0.78426 -1e-5,-0.26985 -0.0843,-0.50597 -0.25299,-0.70837 -0.16304,-0.20238 -0.41884,-0.36542 -0.76739,-0.4891 l 0,2.4371 m -1.56009,-6.8222 c -0.23612,0.0618 -0.42727,0.17147 -0.57343,0.32888 -0.14618,0.15742 -0.21926,0.35981 -0.21926,0.60717 0,0.17991 0.059,0.36543 0.17709,0.55657 0.11806,0.19115 0.32326,0.33732 0.6156,0.43851 l 0,-1.93113" />
        </g>
      </g>
      <g
         style="opacity:0.2;fill:#000000;fill-opacity:1;display:inline;enable-background:new"
         id="g4091"
         transform="matrix(0.5,0,0,0.5,273.50003,-56.000003)">
        <rect
           y="242"
           x="307"
           height="2"
           width="12"
           id="rect4093"
           style="color:#bebebe;fill:#000000;fill-opacity:1;fill-rule:nonzero;stroke:none;stroke-width:2;marker:none;visibility:visible;display:inline;overflow:visible;enable-background:accumulate" />
        <g
           style="font-size:17.2705555px;font-style:normal;font-variant:normal;font-weight:normal;font-stretch:normal;text-align:center;line-height:125%;letter-spacing:0px;word-spacing:0px;text-anchor:middle;fill:#000000;fill-opacity:1;stroke:none;display:inline;enable-background:new;font-family:Roboto;-inkscape-font-specification:Roboto"
           id="g4095">
          <path
             d="m 299.08429,227.17685 2.01687,0 0,1.1413 c 0.55749,0.11153 1.07237,0.32794 1.54461,0.64933 0.47878,0.31483 0.91167,0.70508 1.29865,1.17075 l -1.19043,1.50526 c 0,0 -0.35663,-0.45079 -0.52144,-0.65913 -0.13119,-0.15085 -0.30828,-0.29842 -0.53127,-0.44272 -0.21645,-0.14428 -0.44929,-0.24595 -0.69852,-0.30499 l 0,2.96133 c 0.53126,0.17054 1.00022,0.36074 1.40688,0.57063 0.40664,0.20989 0.74442,0.45257 1.01335,0.72803 0.27546,0.27548 0.48206,0.58703 0.61981,0.93464 0.13772,0.34107 0.20659,0.73131 0.2066,1.17076 -10e-6,0.41321 -0.0721,0.81002 -0.21644,1.19043 -0.1443,0.37386 -0.35418,0.71492 -0.62966,1.02319 -0.26891,0.30827 -0.59686,0.5739 -0.98383,0.7969 -0.38698,0.223 -0.82641,0.3837 -1.31832,0.48208 l 0,1.08221 -2.01687,0 0,-1.02318 c -0.61653,-0.105 -1.2101,-0.31155 -1.78073,-0.61982 -0.57062,-0.30826 -1.07894,-0.70836 -1.52494,-1.20027 l 1.2298,-1.73154 0.57066,0.70836 c 0.22301,0.24268 0.45911,0.44928 0.70836,0.61981 0.25579,0.17053 0.55422,0.29188 0.89528,0.36402 l 0,-3.60082 c -0.47879,-0.17709 -0.9084,-0.37386 -1.28881,-0.5903 -0.37386,-0.21644 -0.69197,-0.45584 -0.95432,-0.71819 -0.25579,-0.26892 -0.45256,-0.56406 -0.5903,-0.88545 -0.13773,-0.32794 -0.2066,-0.6854 -0.2066,-1.07239 0,-0.36728 0.0688,-0.71818 0.2066,-1.0527 0.13774,-0.33449 0.33451,-0.6362 0.5903,-0.90511 0.2558,-0.26891 0.56407,-0.49847 0.92481,-0.68869 0.36729,-0.19675 0.77394,-0.34105 1.21994,-0.43288 l 0,-1.17077 m 1.91848,10.99924 c 0.35417,-0.12462 0.63948,-0.3017 0.85593,-0.53127 0.22299,-0.22956 0.33449,-0.53455 0.3345,-0.91496 -10e-6,-0.31482 -0.0984,-0.5903 -0.29515,-0.82643 -0.19021,-0.23611 -0.48864,-0.42632 -0.89528,-0.57061 l 0,2.84327 m -1.8201,-7.95919 c -0.27547,0.0721 -0.49848,0.20005 -0.66899,0.38369 -0.17055,0.18366 -0.25581,0.41978 -0.25581,0.70836 0,0.20989 0.0688,0.42633 0.20661,0.64933 0.13773,0.22301 0.37713,0.39354 0.71819,0.51159 l 0,-2.25297"
             style="font-weight:bold;fill:#000000;fill-opacity:1;font-family:Inconsolata;-inkscape-font-specification:Inconsolata Bold"
             id="path4097-7"
             inkscape:connector-curvature="0"
             sodipodi:nodetypes="ccccccccccccccccsccccscccccccccscccccccccccccsccc" />
        </g>
      </g>
      <g
         transform="matrix(0.5,0,0,0.5,269.50003,27.999999)"
         id="g4099"
         style="opacity:0.2;fill:#000000;fill-opacity:1;display:inline;enable-background:new">
        <rect
           style="color:#bebebe;fill:#000000;fill-opacity:1;fill-rule:nonzero;stroke:none;stroke-width:2;marker:none;visibility:visible;display:inline;overflow:visible;enable-background:accumulate"
           id="rect4101"
           width="6"
           height="2"
           x="305"
           y="238" />
        <g
           id="g4103"
           style="font-size:17.2705555px;font-style:normal;font-variant:normal;font-weight:normal;font-stretch:normal;text-align:center;line-height:125%;letter-spacing:0px;word-spacing:0px;text-anchor:middle;fill:#000000;fill-opacity:1;stroke:none;display:inline;enable-background:new;font-family:Roboto;-inkscape-font-specification:Roboto">
          <path
             sodipodi:nodetypes="ccccccccccccccccsccccscccccccccscccccccccccccsccc"
             inkscape:connector-curvature="0"
             id="path4105"
             style="font-weight:bold;fill:#000000;fill-opacity:1;font-family:Inconsolata;-inkscape-font-specification:Inconsolata Bold"
             d="m 299.8475,231.34783 1.1525,0 0,0.65217 c 0.31856,0.0637 0.61278,0.1874 0.88263,0.37104 0.27359,0.17991 0.52096,0.40291 0.74209,0.66901 l -0.68025,0.86015 c 0,0 -0.20379,-0.2576 -0.29796,-0.37665 -0.075,-0.0862 -0.17616,-0.17053 -0.30359,-0.25298 -0.12369,-0.0824 -0.25673,-0.14054 -0.39915,-0.17428 l 0,1.69219 c 0.30358,0.0975 0.57156,0.20614 0.80393,0.32607 0.23236,0.11994 0.42538,0.25861 0.57905,0.41602 0.15741,0.15741 0.27547,0.33544 0.35418,0.53408 0.0787,0.19489 0.11806,0.41789 0.11806,0.669 0,0.23612 -0.0412,0.46287 -0.12368,0.68025 -0.0825,0.21363 -0.20239,0.40853 -0.3598,0.58468 -0.15367,0.17615 -0.34107,0.32794 -0.56219,0.45537 -0.22113,0.12743 -0.47224,0.21926 -0.75333,0.27548 l 0,0.6184 -1.15249,0 0,-0.58468 c -0.35231,-0.06 -0.69149,-0.17802 -1.01757,-0.35417 -0.32607,-0.17616 -0.61653,-0.40478 -0.87139,-0.68587 l 0.70274,-0.98946 0.32609,0.40478 c 0.12744,0.13867 0.26236,0.25673 0.40478,0.35418 0.14617,0.0974 0.3167,0.16678 0.51159,0.20801 l 0,-2.05762 c -0.2736,-0.10119 -0.51909,-0.21363 -0.73646,-0.33731 -0.21364,-0.12368 -0.39541,-0.26047 -0.54533,-0.41039 -0.14617,-0.15367 -0.25861,-0.32232 -0.33731,-0.50597 -0.0787,-0.1874 -0.11806,-0.39166 -0.11806,-0.61279 0,-0.20988 0.0393,-0.4104 0.11806,-0.60155 0.0787,-0.19114 0.19114,-0.36354 0.33731,-0.51721 0.14617,-0.15366 0.32232,-0.28484 0.52846,-0.39354 0.20988,-0.11242 0.44225,-0.19488 0.69711,-0.24735 l 0,-0.66901 m 1.09628,6.28527 c 0.20238,-0.0712 0.36541,-0.1724 0.4891,-0.30357 0.12743,-0.13118 0.19114,-0.30546 0.19115,-0.52284 -1e-5,-0.1799 -0.0562,-0.33731 -0.16866,-0.47225 -0.1087,-0.13491 -0.27923,-0.24361 -0.51159,-0.32606 l 0,1.62472 m -1.04006,-4.5481 c -0.15741,0.0412 -0.28484,0.11431 -0.38228,0.21925 -0.0975,0.10494 -0.14617,0.23987 -0.14617,0.40478 0,0.11994 0.0393,0.24361 0.11805,0.37104 0.0787,0.12743 0.21551,0.22488 0.4104,0.29234 l 0,-1.28741" />
        </g>
      </g>
      <g
         id="g3932"
         style="fill:#ebebeb;fill-opacity:1;display:inline;enable-background:new"
         transform="translate(3e-5,1.0000003)">
        <rect
           style="color:#bebebe;fill:#ebebeb;fill-opacity:1;fill-rule:nonzero;stroke:none;stroke-width:2;marker:none;visibility:visible;display:inline;overflow:visible;enable-background:accumulate"
           id="rect4100"
           width="9"
           height="2.0000007"
           x="307"
           y="240" />
        <g
           id="text3894"
           style="font-size:17.2705555px;font-style:normal;font-variant:normal;font-weight:normal;font-stretch:normal;text-align:center;line-height:125%;letter-spacing:0px;word-spacing:0px;text-anchor:middle;fill:#ebebeb;fill-opacity:1;stroke:none;display:inline;enable-background:new;font-family:Roboto;-inkscape-font-specification:Roboto">
          <path
             sodipodi:nodetypes="ccccccccccccccccsccccscccccccccscccccccccccccsccc"
             inkscape:connector-curvature="0"
             id="path3930"
             style="font-weight:bold;fill:#ebebeb;fill-opacity:1;font-family:Inconsolata;-inkscape-font-specification:Inconsolata Bold"
             d="m 300.20309,229 1.72875,0 0,0.97826 c 0.47785,0.0956 0.91918,0.2811 1.32396,0.55657 0.41039,0.26986 0.78144,0.60436 1.11314,1.00351 l -1.02038,1.29023 c 0,0 -0.30568,-0.38639 -0.44695,-0.56497 -0.11245,-0.1293 -0.26424,-0.25579 -0.45538,-0.37948 -0.18553,-0.12367 -0.3851,-0.21081 -0.59873,-0.26142 l 0,2.5383 c 0.45537,0.14618 0.85734,0.30921 1.2059,0.48911 0.34855,0.17991 0.63808,0.38792 0.86859,0.62403 0.23611,0.23613 0.4132,0.50317 0.53127,0.80113 0.11805,0.29234 0.17708,0.62684 0.17709,1.00351 -1e-5,0.35418 -0.0618,0.69431 -0.18552,1.02038 -0.12369,0.32045 -0.30359,0.61279 -0.53971,0.87702 -0.2305,0.26423 -0.5116,0.49192 -0.84329,0.68306 -0.3317,0.19115 -0.70836,0.32889 -1.13,0.41322 l 0,0.92761 -1.72875,0 0,-0.87702 c -0.52846,-0.09 -1.03724,-0.26704 -1.52635,-0.53127 -0.48911,-0.26423 -0.92481,-0.60717 -1.3071,-1.02881 l 1.05412,-1.48419 0.48914,0.60717 c 0.19115,0.20801 0.39353,0.3851 0.60717,0.53127 0.21925,0.14617 0.47505,0.25018 0.76739,0.31202 l 0,-3.08644 c -0.4104,-0.15179 -0.77864,-0.32045 -1.1047,-0.50597 -0.32046,-0.18552 -0.59312,-0.39072 -0.818,-0.6156 -0.21925,-0.2305 -0.38791,-0.48348 -0.50597,-0.75896 -0.11806,-0.28109 -0.17709,-0.58749 -0.17709,-0.91919 0,-0.31482 0.059,-0.61559 0.17709,-0.90232 0.11806,-0.28671 0.28672,-0.54532 0.50597,-0.77582 0.21926,-0.23049 0.48349,-0.42726 0.7927,-0.59031 0.31482,-0.16864 0.66338,-0.29233 1.04567,-0.37104 l 0,-1.00352 m 1.64442,9.42797 c 0.30358,-0.10681 0.54813,-0.2586 0.73366,-0.45537 0.19114,-0.19677 0.28671,-0.45819 0.28672,-0.78426 -1e-5,-0.26985 -0.0843,-0.50597 -0.25299,-0.70837 -0.16304,-0.20238 -0.41884,-0.36542 -0.76739,-0.4891 l 0,2.4371 m -1.56009,-6.8222 c -0.23612,0.0618 -0.42727,0.17147 -0.57343,0.32888 -0.14618,0.15742 -0.21926,0.35981 -0.21926,0.60717 0,0.17991 0.059,0.36543 0.17709,0.55657 0.11806,0.19115 0.32326,0.33732 0.6156,0.43851 l 0,-1.93113" />
        </g>
      </g>
      <g
         id="g3937"
         transform="matrix(1.9999999,0,0,1.9999999,-291.99994,-415.99997)"
         style="fill:#ebebeb;fill-opacity:1;display:inline;enable-background:new">
        <rect
           y="240.5"
           x="306.5"
           height="1.499998"
           width="9"
           id="rect3939"
           style="color:#bebebe;fill:#ebebeb;fill-opacity:1;fill-rule:nonzero;stroke:none;stroke-width:2;marker:none;visibility:visible;display:inline;overflow:visible;enable-background:accumulate" />
        <g
           style="font-size:17.2705555px;font-style:normal;font-variant:normal;font-weight:normal;font-stretch:normal;text-align:center;line-height:125%;letter-spacing:0px;word-spacing:0px;text-anchor:middle;fill:#ebebeb;fill-opacity:1;stroke:none;display:inline;enable-background:new;font-family:Roboto;-inkscape-font-specification:Roboto"
           id="g3941">
          <path
             d="m 299.96695,230.00007 1.58468,0 0,0.89673 c 0.43803,0.0876 0.84258,0.25768 1.21362,0.51019 0.37619,0.24737 0.71632,0.55399 1.02038,0.91988 l -0.93535,1.1827 c 0,0 -0.2802,-0.35419 -0.4097,-0.51788 -0.10308,-0.11853 -0.24222,-0.23448 -0.41743,-0.34786 -0.17007,-0.11336 -0.353,-0.19324 -0.54883,-0.23963 l 0,2.32676 c 0.41742,0.134 0.78589,0.28344 1.1054,0.44835 0.3195,0.16491 0.58491,0.35559 0.79621,0.57202 0.21643,0.21645 0.37876,0.46124 0.48699,0.73437 0.10821,0.26797 0.16232,0.5746 0.16233,0.91987 -1e-5,0.32467 -0.0567,0.63645 -0.17006,0.93535 -0.11338,0.29374 -0.27829,0.56172 -0.49473,0.80393 -0.21129,0.24221 -0.46896,0.45092 -0.77301,0.62613 -0.30406,0.17522 -0.64933,0.30148 -1.03583,0.37879 l 0,0.8503 -1.58468,0 0,-0.80393 c -0.48441,-0.0825 -0.95079,-0.24479 -1.39914,-0.487 -0.44835,-0.2422 -0.84774,-0.55656 -1.19817,-0.94307 l 0.96627,-1.3605 0.44838,0.55657 c 0.17522,0.19068 0.36073,0.35301 0.55657,0.487 0.20097,0.13399 0.43546,0.22933 0.70343,0.28602 l 0,-2.82922 c -0.37619,-0.13914 -0.71375,-0.29375 -1.01263,-0.46381 -0.29376,-0.17006 -0.54369,-0.35816 -0.74983,-0.56429 -0.20098,-0.2113 -0.35558,-0.44319 -0.46381,-0.69571 -0.10822,-0.25767 -0.16233,-0.53853 -0.16233,-0.84259 0,-0.28858 0.0541,-0.56429 0.16233,-0.82712 0.10823,-0.26282 0.26283,-0.49988 0.46381,-0.71117 0.20099,-0.21128 0.44319,-0.39165 0.72664,-0.54111 0.28858,-0.15459 0.60809,-0.26797 0.95852,-0.34012 l 0,-0.91989 m 1.50738,8.64226 c 0.27828,-0.0979 0.50245,-0.23705 0.67251,-0.41742 0.17522,-0.18037 0.26282,-0.42001 0.26283,-0.7189 -10e-6,-0.24736 -0.0773,-0.4638 -0.23191,-0.64934 -0.14945,-0.18551 -0.38393,-0.33496 -0.70343,-0.44834 l 0,2.234 m -1.43008,-6.25365 c -0.21644,0.0566 -0.39166,0.15718 -0.52564,0.30147 -0.134,0.1443 -0.20099,0.32983 -0.20099,0.55657 0,0.16492 0.0541,0.33498 0.16234,0.51019 0.10822,0.17522 0.29632,0.30921 0.56429,0.40196 l 0,-1.77019"
             style="font-weight:bold;fill:#ebebeb;fill-opacity:1;font-family:Inconsolata;-inkscape-font-specification:Inconsolata Bold"
             id="path3943"
             inkscape:connector-curvature="0"
             sodipodi:nodetypes="ccccccccccccccccsccccscccccccccscccccccccccccsccc" />
        </g>
      </g>
      <g
         transform="translate(3e-5,2.8474426e-7)"
         id="g3971"
         style="fill:#ebebeb;fill-opacity:1;display:inline;enable-background:new">
        <rect
           style="color:#bebebe;fill:#ebebeb;fill-opacity:1;fill-rule:nonzero;stroke:none;stroke-width:2;marker:none;visibility:visible;display:inline;overflow:visible;enable-background:accumulate"
           id="rect4066"
           width="12"
           height="1.9999981"
           x="310"
           y="163" />
        <path
           d="m 301.97857,148.94195 2.16093,0 0,1.22282 c 0.59731,0.1195 1.14897,0.35137 1.65494,0.69571 0.51298,0.33732 0.97679,0.75544 1.39142,1.25438 l -1.27547,1.61277 c 0,0 -0.3821,-0.48298 -0.55869,-0.7062 -0.14056,-0.16163 -0.33029,-0.31974 -0.56922,-0.47435 -0.23191,-0.15459 -0.48137,-0.26351 -0.74841,-0.32677 l 0,3.17285 c 0.56921,0.18273 1.07167,0.38651 1.50737,0.61139 0.43569,0.22488 0.7976,0.48489 1.08573,0.78003 0.29514,0.29516 0.5165,0.62896 0.66409,1.00141 0.14756,0.36542 0.22134,0.78354 0.22136,1.25438 -2e-5,0.44272 -0.0772,0.86788 -0.2319,1.27546 -0.15461,0.40056 -0.37949,0.76599 -0.67464,1.09627 -0.28812,0.33029 -0.63949,0.6149 -1.0541,0.85382 -0.41462,0.23894 -0.88545,0.41111 -1.41249,0.51652 l 0,1.15951 -2.16093,0 0,-1.09627 c -0.66057,-0.1125 -1.29654,-0.3338 -1.90792,-0.66408 -0.61139,-0.33029 -1.15601,-0.75896 -1.63387,-1.28601 l 1.31764,-1.85522 0.61142,0.75895 c 0.23894,0.26002 0.49191,0.48138 0.75896,0.66409 0.27406,0.18271 0.59381,0.31272 0.95923,0.39002 l 0,-3.85803 c -0.51299,-0.18973 -0.97329,-0.40056 -1.38086,-0.63246 -0.40058,-0.23189 -0.7414,-0.48839 -1.0225,-0.76949 -0.27406,-0.28812 -0.48488,-0.60435 -0.63246,-0.9487 -0.14757,-0.35136 -0.22136,-0.73435 -0.22136,-1.14898 0,-0.39352 0.0738,-0.76948 0.22136,-1.12789 0.14758,-0.35839 0.3584,-0.68165 0.63246,-0.96977 0.27408,-0.28811 0.60436,-0.53407 0.99087,-0.73788 0.39352,-0.2108 0.82922,-0.36541 1.30708,-0.4638 l 0,-1.25439 m 2.05551,11.78489 c 0.37948,-0.13351 0.68516,-0.32325 0.91707,-0.56921 0.23893,-0.24596 0.35839,-0.57273 0.3584,-0.98032 -1e-5,-0.33731 -0.10537,-0.63246 -0.31623,-0.88545 -0.2038,-0.25298 -0.52355,-0.45678 -0.95924,-0.61138 l 0,3.04636 m -1.9501,-8.5277 c -0.29514,0.0773 -0.53408,0.21434 -0.71678,0.4111 -0.18272,0.19677 -0.27407,0.44976 -0.27407,0.75896 0,0.22488 0.0737,0.45678 0.22136,0.69571 0.14757,0.23893 0.40407,0.42164 0.76949,0.54813 l 0,-2.4139"
           style="font-size:17.2705555px;font-style:normal;font-variant:normal;font-weight:bold;font-stretch:normal;text-align:center;line-height:125%;letter-spacing:0px;word-spacing:0px;text-anchor:middle;fill:#ebebeb;fill-opacity:1;stroke:none;display:inline;enable-background:new;font-family:Inconsolata;-inkscape-font-specification:Inconsolata Bold"
           id="path3930-2"
           inkscape:connector-curvature="0"
           sodipodi:nodetypes="ccccccccccccccccsccccscccccccccscccccccccccccsccc" />
      </g>
      <g
         id="g3975"
         transform="matrix(4,0,0,4,-1129.0001,-524)"
         style="fill:#ebebeb;fill-opacity:1;display:inline;enable-background:new">
        <rect
           y="163"
           x="310"
           height="1.9999981"
           width="12"
           id="rect3977"
           style="color:#bebebe;fill:#ebebeb;fill-opacity:1;fill-rule:nonzero;stroke:none;stroke-width:2;marker:none;visibility:visible;display:inline;overflow:visible;enable-background:accumulate" />
        <path
           sodipodi:nodetypes="ccccccccccccccccsccccscccccccccscccccccccccccsccc"
           inkscape:connector-curvature="0"
           id="path3979"
           style="font-size:17.2705555px;font-style:normal;font-variant:normal;font-weight:bold;font-stretch:normal;text-align:center;line-height:125%;letter-spacing:0px;word-spacing:0px;text-anchor:middle;fill:#ebebeb;fill-opacity:1;stroke:none;display:inline;enable-background:new;font-family:Inconsolata;-inkscape-font-specification:Inconsolata Bold"
           d="m 301.97857,148.94195 2.16093,0 0,1.22282 c 0.59731,0.1195 1.14897,0.35137 1.65494,0.69571 0.51298,0.33732 0.97679,0.75544 1.39142,1.25438 l -1.27547,1.61277 c 0,0 -0.3821,-0.48298 -0.55869,-0.7062 -0.14056,-0.16163 -0.33029,-0.31974 -0.56922,-0.47435 -0.23191,-0.15459 -0.48137,-0.26351 -0.74841,-0.32677 l 0,3.17285 c 0.56921,0.18273 1.07167,0.38651 1.50737,0.61139 0.43569,0.22488 0.7976,0.48489 1.08573,0.78003 0.29514,0.29516 0.5165,0.62896 0.66409,1.00141 0.14756,0.36542 0.22134,0.78354 0.22136,1.25438 -2e-5,0.44272 -0.0772,0.86788 -0.2319,1.27546 -0.15461,0.40056 -0.37949,0.76599 -0.67464,1.09627 -0.28812,0.33029 -0.63949,0.6149 -1.0541,0.85382 -0.41462,0.23894 -0.88545,0.41111 -1.41249,0.51652 l 0,1.15951 -2.16093,0 0,-1.09627 c -0.66057,-0.1125 -1.29654,-0.3338 -1.90792,-0.66408 -0.61139,-0.33029 -1.15601,-0.75896 -1.63387,-1.28601 l 1.31764,-1.85522 0.61142,0.75895 c 0.23894,0.26002 0.49191,0.48138 0.75896,0.66409 0.27406,0.18271 0.59381,0.31272 0.95923,0.39002 l 0,-3.85803 c -0.51299,-0.18973 -0.97329,-0.40056 -1.38086,-0.63246 -0.40058,-0.23189 -0.7414,-0.48839 -1.0225,-0.76949 -0.27406,-0.28812 -0.48488,-0.60435 -0.63246,-0.9487 -0.14757,-0.35136 -0.22136,-0.73435 -0.22136,-1.14898 0,-0.39352 0.0738,-0.76948 0.22136,-1.12789 0.14758,-0.35839 0.3584,-0.68165 0.63246,-0.96977 0.27408,-0.28811 0.60436,-0.53407 0.99087,-0.73788 0.39352,-0.2108 0.82922,-0.36541 1.30708,-0.4638 l 0,-1.25439 m 2.05551,11.78489 c 0.37948,-0.13351 0.68516,-0.32325 0.91707,-0.56921 0.23893,-0.24596 0.35839,-0.57273 0.3584,-0.98032 -1e-5,-0.33731 -0.10537,-0.63246 -0.31623,-0.88545 -0.2038,-0.25298 -0.52355,-0.45678 -0.95924,-0.61138 l 0,3.04636 m -1.9501,-8.5277 c -0.29514,0.0773 -0.53408,0.21434 -0.71678,0.4111 -0.18272,0.19677 -0.27407,0.44976 -0.27407,0.75896 0,0.22488 0.0737,0.45678 0.22136,0.69571 0.14757,0.23893 0.40407,0.42164 0.76949,0.54813 l 0,-2.4139" />
      </g>
      <g
         style="fill:#ebebeb;fill-opacity:1;display:inline;enable-background:new"
         id="g3995"
         transform="matrix(0.5,0,0,0.5,271.50003,-9.9999998)">
        <rect
           y="240"
           x="307"
           height="2"
           width="8"
           id="rect3997"
           style="color:#bebebe;fill:#ebebeb;fill-opacity:1;fill-rule:nonzero;stroke:none;stroke-width:2;marker:none;visibility:visible;display:inline;overflow:visible;enable-background:accumulate" />
        <g
           style="font-size:17.2705555px;font-style:normal;font-variant:normal;font-weight:normal;font-stretch:normal;text-align:center;line-height:125%;letter-spacing:0px;word-spacing:0px;text-anchor:middle;fill:#ebebeb;fill-opacity:1;stroke:none;display:inline;enable-background:new;font-family:Roboto;-inkscape-font-specification:Roboto"
           id="g3999">
          <path
             d="m 300.20309,229 1.72875,0 0,0.97826 c 0.47785,0.0956 0.91918,0.2811 1.32396,0.55657 0.41039,0.26986 0.78144,0.60436 1.11314,1.00351 l -1.02038,1.29023 c 0,0 -0.30568,-0.38639 -0.44695,-0.56497 -0.11245,-0.1293 -0.26424,-0.25579 -0.45538,-0.37948 -0.18553,-0.12367 -0.3851,-0.21081 -0.59873,-0.26142 l 0,2.5383 c 0.45537,0.14618 0.85734,0.30921 1.2059,0.48911 0.34855,0.17991 0.63808,0.38792 0.86859,0.62403 0.23611,0.23613 0.4132,0.50317 0.53127,0.80113 0.11805,0.29234 0.17708,0.62684 0.17709,1.00351 -1e-5,0.35418 -0.0618,0.69431 -0.18552,1.02038 -0.12369,0.32045 -0.30359,0.61279 -0.53971,0.87702 -0.2305,0.26423 -0.5116,0.49192 -0.84329,0.68306 -0.3317,0.19115 -0.70836,0.32889 -1.13,0.41322 l 0,0.92761 -1.72875,0 0,-0.87702 c -0.52846,-0.09 -1.03724,-0.26704 -1.52635,-0.53127 -0.48911,-0.26423 -0.92481,-0.60717 -1.3071,-1.02881 l 1.05412,-1.48419 0.48914,0.60717 c 0.19115,0.20801 0.39353,0.3851 0.60717,0.53127 0.21925,0.14617 0.47505,0.25018 0.76739,0.31202 l 0,-3.08644 c -0.4104,-0.15179 -0.77864,-0.32045 -1.1047,-0.50597 -0.32046,-0.18552 -0.59312,-0.39072 -0.818,-0.6156 -0.21925,-0.2305 -0.38791,-0.48348 -0.50597,-0.75896 -0.11806,-0.28109 -0.17709,-0.58749 -0.17709,-0.91919 0,-0.31482 0.059,-0.61559 0.17709,-0.90232 0.11806,-0.28671 0.28672,-0.54532 0.50597,-0.77582 0.21926,-0.23049 0.48349,-0.42726 0.7927,-0.59031 0.31482,-0.16864 0.66338,-0.29233 1.04567,-0.37104 l 0,-1.00352 m 1.64442,9.42797 c 0.30358,-0.10681 0.54813,-0.2586 0.73366,-0.45537 0.19114,-0.19677 0.28671,-0.45819 0.28672,-0.78426 -1e-5,-0.26985 -0.0843,-0.50597 -0.25299,-0.70837 -0.16304,-0.20238 -0.41884,-0.36542 -0.76739,-0.4891 l 0,2.4371 m -1.56009,-6.8222 c -0.23612,0.0618 -0.42727,0.17147 -0.57343,0.32888 -0.14618,0.15742 -0.21926,0.35981 -0.21926,0.60717 0,0.17991 0.059,0.36543 0.17709,0.55657 0.11806,0.19115 0.32326,0.33732 0.6156,0.43851 l 0,-1.93113"
             style="font-weight:bold;fill:#ebebeb;fill-opacity:1;font-family:Inconsolata;-inkscape-font-specification:Inconsolata Bold"
             id="path4001"
             inkscape:connector-curvature="0"
             sodipodi:nodetypes="ccccccccccccccccsccccscccccccccscccccccccccccsccc" />
        </g>
      </g>
      <g
         transform="matrix(0.5,0,0,0.5,273.50003,-57.000003)"
         id="g4030"
         style="fill:#ebebeb;fill-opacity:1;display:inline;enable-background:new">
        <rect
           style="color:#bebebe;fill:#ebebeb;fill-opacity:1;fill-rule:nonzero;stroke:none;stroke-width:2;marker:none;visibility:visible;display:inline;overflow:visible;enable-background:accumulate"
           id="rect4032"
           width="12"
           height="2"
           x="307"
           y="242" />
        <g
           id="g4034"
           style="font-size:17.2705555px;font-style:normal;font-variant:normal;font-weight:normal;font-stretch:normal;text-align:center;line-height:125%;letter-spacing:0px;word-spacing:0px;text-anchor:middle;fill:#ebebeb;fill-opacity:1;stroke:none;display:inline;enable-background:new;font-family:Roboto;-inkscape-font-specification:Roboto">
          <path
             sodipodi:nodetypes="ccccccccccccccccsccccscccccccccscccccccccccccsccc"
             inkscape:connector-curvature="0"
             id="path4036"
             style="font-weight:bold;fill:#ebebeb;fill-opacity:1;font-family:Inconsolata;-inkscape-font-specification:Inconsolata Bold"
             d="m 299.08429,227.17685 2.01687,0 0,1.1413 c 0.55749,0.11153 1.07237,0.32794 1.54461,0.64933 0.47878,0.31483 0.91167,0.70508 1.29865,1.17075 l -1.19043,1.50526 c 0,0 -0.35663,-0.45079 -0.52144,-0.65913 -0.13119,-0.15085 -0.30828,-0.29842 -0.53127,-0.44272 -0.21645,-0.14428 -0.44929,-0.24595 -0.69852,-0.30499 l 0,2.96133 c 0.53126,0.17054 1.00022,0.36074 1.40688,0.57063 0.40664,0.20989 0.74442,0.45257 1.01335,0.72803 0.27546,0.27548 0.48206,0.58703 0.61981,0.93464 0.13772,0.34107 0.20659,0.73131 0.2066,1.17076 -10e-6,0.41321 -0.0721,0.81002 -0.21644,1.19043 -0.1443,0.37386 -0.35418,0.71492 -0.62966,1.02319 -0.26891,0.30827 -0.59686,0.5739 -0.98383,0.7969 -0.38698,0.223 -0.82641,0.3837 -1.31832,0.48208 l 0,1.08221 -2.01687,0 0,-1.02318 c -0.61653,-0.105 -1.2101,-0.31155 -1.78073,-0.61982 -0.57062,-0.30826 -1.07894,-0.70836 -1.52494,-1.20027 l 1.2298,-1.73154 0.57066,0.70836 c 0.22301,0.24268 0.45911,0.44928 0.70836,0.61981 0.25579,0.17053 0.55422,0.29188 0.89528,0.36402 l 0,-3.60082 c -0.47879,-0.17709 -0.9084,-0.37386 -1.28881,-0.5903 -0.37386,-0.21644 -0.69197,-0.45584 -0.95432,-0.71819 -0.25579,-0.26892 -0.45256,-0.56406 -0.5903,-0.88545 -0.13773,-0.32794 -0.2066,-0.6854 -0.2066,-1.07239 0,-0.36728 0.0688,-0.71818 0.2066,-1.0527 0.13774,-0.33449 0.33451,-0.6362 0.5903,-0.90511 0.2558,-0.26891 0.56407,-0.49847 0.92481,-0.68869 0.36729,-0.19675 0.77394,-0.34105 1.21994,-0.43288 l 0,-1.17077 m 1.91848,10.99924 c 0.35417,-0.12462 0.63948,-0.3017 0.85593,-0.53127 0.22299,-0.22956 0.33449,-0.53455 0.3345,-0.91496 -10e-6,-0.31482 -0.0984,-0.5903 -0.29515,-0.82643 -0.19021,-0.23611 -0.48864,-0.42632 -0.89528,-0.57061 l 0,2.84327 m -1.8201,-7.95919 c -0.27547,0.0721 -0.49848,0.20005 -0.66899,0.38369 -0.17055,0.18366 -0.25581,0.41978 -0.25581,0.70836 0,0.20989 0.0688,0.42633 0.20661,0.64933 0.13773,0.22301 0.37713,0.39354 0.71819,0.51159 l 0,-2.25297" />
        </g>
      </g>
      <g
         style="fill:#ebebeb;fill-opacity:1;display:inline;enable-background:new"
         id="g4047"
         transform="matrix(0.5,0,0,0.5,269.50003,27)">
        <rect
           y="238"
           x="305"
           height="2"
           width="6"
           id="rect4049"
           style="color:#bebebe;fill:#ebebeb;fill-opacity:1;fill-rule:nonzero;stroke:none;stroke-width:2;marker:none;visibility:visible;display:inline;overflow:visible;enable-background:accumulate" />
        <g
           style="font-size:17.2705555px;font-style:normal;font-variant:normal;font-weight:normal;font-stretch:normal;text-align:center;line-height:125%;letter-spacing:0px;word-spacing:0px;text-anchor:middle;fill:#ebebeb;fill-opacity:1;stroke:none;display:inline;enable-background:new;font-family:Roboto;-inkscape-font-specification:Roboto"
           id="g4051">
          <path
             d="m 299.8475,231.34783 1.1525,0 0,0.65217 c 0.31856,0.0637 0.61278,0.1874 0.88263,0.37104 0.27359,0.17991 0.52096,0.40291 0.74209,0.66901 l -0.68025,0.86015 c 0,0 -0.20379,-0.2576 -0.29796,-0.37665 -0.075,-0.0862 -0.17616,-0.17053 -0.30359,-0.25298 -0.12369,-0.0824 -0.25673,-0.14054 -0.39915,-0.17428 l 0,1.69219 c 0.30358,0.0975 0.57156,0.20614 0.80393,0.32607 0.23236,0.11994 0.42538,0.25861 0.57905,0.41602 0.15741,0.15741 0.27547,0.33544 0.35418,0.53408 0.0787,0.19489 0.11806,0.41789 0.11806,0.669 0,0.23612 -0.0412,0.46287 -0.12368,0.68025 -0.0825,0.21363 -0.20239,0.40853 -0.3598,0.58468 -0.15367,0.17615 -0.34107,0.32794 -0.56219,0.45537 -0.22113,0.12743 -0.47224,0.21926 -0.75333,0.27548 l 0,0.6184 -1.15249,0 0,-0.58468 c -0.35231,-0.06 -0.69149,-0.17802 -1.01757,-0.35417 -0.32607,-0.17616 -0.61653,-0.40478 -0.87139,-0.68587 l 0.70274,-0.98946 0.32609,0.40478 c 0.12744,0.13867 0.26236,0.25673 0.40478,0.35418 0.14617,0.0974 0.3167,0.16678 0.51159,0.20801 l 0,-2.05762 c -0.2736,-0.10119 -0.51909,-0.21363 -0.73646,-0.33731 -0.21364,-0.12368 -0.39541,-0.26047 -0.54533,-0.41039 -0.14617,-0.15367 -0.25861,-0.32232 -0.33731,-0.50597 -0.0787,-0.1874 -0.11806,-0.39166 -0.11806,-0.61279 0,-0.20988 0.0393,-0.4104 0.11806,-0.60155 0.0787,-0.19114 0.19114,-0.36354 0.33731,-0.51721 0.14617,-0.15366 0.32232,-0.28484 0.52846,-0.39354 0.20988,-0.11242 0.44225,-0.19488 0.69711,-0.24735 l 0,-0.66901 m 1.09628,6.28527 c 0.20238,-0.0712 0.36541,-0.1724 0.4891,-0.30357 0.12743,-0.13118 0.19114,-0.30546 0.19115,-0.52284 -1e-5,-0.1799 -0.0562,-0.33731 -0.16866,-0.47225 -0.1087,-0.13491 -0.27923,-0.24361 -0.51159,-0.32606 l 0,1.62472 m -1.04006,-4.5481 c -0.15741,0.0412 -0.28484,0.11431 -0.38228,0.21925 -0.0975,0.10494 -0.14617,0.23987 -0.14617,0.40478 0,0.11994 0.0393,0.24361 0.11805,0.37104 0.0787,0.12743 0.21551,0.22488 0.4104,0.29234 l 0,-1.28741"
             style="font-weight:bold;fill:#ebebeb;fill-opacity:1;font-family:Inconsolata;-inkscape-font-specification:Inconsolata Bold"
             id="path4053"
             inkscape:connector-curvature="0"
             sodipodi:nodetypes="ccccccccccccccccsccccscccccccccscccccccccccccsccc" />
        </g>
      </g>
    </g>
    <g
       inkscape:groupmode="layer"
       id="layer5"
       inkscape:label="Highlights"
       style="display:inline">
      <path
         style="opacity:0.13;color:#bebebe;fill:#ffffff;fill-opacity:1;fill-rule:nonzero;stroke:none;stroke-width:0;marker:none;visibility:visible;display:inline;overflow:visible;enable-background:accumulate"
         d="M 84,47 C 56.836703,47 35,68.836703 35,96 l 0,1 C 35,69.836703 56.836703,48 84,48 l 120,0 c 27.1633,0 49,21.836703 49,49 l 0,-1 C 253,68.836703 231.1633,47 204,47 L 84,47 z"
         id="rect3894"
         inkscape:connector-curvature="0" />
      <path
         style="opacity:0.13;color:#bebebe;fill:#ffffff;fill-opacity:1;fill-rule:nonzero;stroke:none;stroke-width:0;marker:none;visibility:visible;display:inline;overflow:visible;enable-background:accumulate"
         d="m 419,141 c -1.1253,0 -2,0.8747 -2,2 l 0,1 c 0,-1.1253 0.8747,-2 2,-2 l 10,0 c 1.1253,0 2,0.8747 2,2 l 0,-1 c 0,-1.1253 -0.8747,-2 -2,-2 l -10,0 z"
         id="rect3896"
         inkscape:connector-curvature="0" />
      <path
         style="opacity:0.13;color:#bebebe;fill:#ffffff;fill-opacity:1;fill-rule:nonzero;stroke:none;stroke-width:0;marker:none;visibility:visible;display:inline;overflow:visible;enable-background:accumulate"
         d="m 422,102 c -2.2333,0 -4,1.7667 -4,4 l 0,1 c 0,-2.2333 1.7667,-4 4,-4 l 12,0 c 2.2333,0 4,1.7667 4,4 l 0,-1 c 0,-2.2333 -1.7667,-4 -4,-4 l -12,0 z"
         id="rect3898"
         inkscape:connector-curvature="0" />
      <path
         style="opacity:0.13;color:#bebebe;fill:#ffffff;fill-opacity:1;fill-rule:nonzero;stroke:none;stroke-width:0;marker:none;visibility:visible;display:inline;overflow:visible;enable-background:accumulate"
         d="m 424,54 c -3.3413,0 -6,2.658703 -6,6 l 0,1 c 0,-3.341297 2.6587,-6 6,-6 l 16,0 c 3.3413,0 6,2.658703 6,6 l 0,-1 c 0,-3.341297 -2.6587,-6 -6,-6 l -16,0 z"
         id="rect3900"
         inkscape:connector-curvature="0" />
      <path
         style="opacity:0.13;color:#bebebe;fill:#ffffff;fill-opacity:1;fill-rule:nonzero;stroke:none;stroke-width:0;marker:none;visibility:visible;display:inline;overflow:visible;enable-background:accumulate"
         d="m 300,224 c -4.4493,0 -8,3.5507 -8,8 l 0,1 c 0,-4.4493 3.5507,-8 8,-8 l 24,0 c 4.4493,0 8,3.5507 8,8 l 0,-1 c 0,-4.4493 -3.5507,-8 -8,-8 l -24,0 z"
         id="rect3902"
         inkscape:connector-curvature="0" />
      <path
         style="opacity:0.13;color:#bebebe;fill:#ffffff;fill-opacity:1;fill-rule:nonzero;stroke:none;stroke-width:0;marker:none;visibility:visible;display:inline;overflow:visible;enable-background:accumulate"
         d="m 310,33 c -9.4353,0 -17,7.564703 -17,17 l 0,1 c 0,-9.435297 7.5647,-17 17,-17 l 52,0 c 9.4353,0 17,7.564703 17,17 l 0,-1 c 0,-9.435297 -7.5647,-17 -17,-17 l -52,0 z"
         id="rect3904"
         inkscape:connector-curvature="0" />
      <path
         style="opacity:0.13;color:#bebebe;fill:#ffffff;fill-opacity:1;fill-rule:nonzero;stroke:none;stroke-width:0;marker:none;visibility:visible;display:inline;overflow:visible;enable-background:accumulate"
         d="m 302.5,143 c -6.3883,0 -11.5,5.1117 -11.5,11.5 l 0,1 c 0,-6.3883 5.1117,-11.5 11.5,-11.5 l 35,0 c 6.3883,0 11.5,5.1117 11.5,11.5 l 0,-1 c 0,-6.3883 -5.1117,-11.5 -11.5,-11.5 l -35,0 z"
         id="rect3906"
         inkscape:connector-curvature="0" />
      <path
         id="path4085"
         d="m 204,266 c 27.1633,0 49,-21.8367 49,-49 l 0,-1 c 0,27.1633 -21.8367,49 -49,49 L 84,265 C 56.8367,265 35,243.1633 35,216 l 0,1 c 0,27.1633 21.8367,49 49,49 l 120,0 z"
         style="opacity:0.13;color:#bebebe;fill:#000000;fill-opacity:1;fill-rule:nonzero;stroke:none;stroke-width:0;marker:none;visibility:visible;display:inline;overflow:visible;enable-background:accumulate"
         inkscape:connector-curvature="0" />
      <path
         id="path4087"
         d="m 429,156 c 1.1253,0 2,-0.8747 2,-2 l 0,-1 c 0,1.1253 -0.8747,2 -2,2 l -10,0 c -1.1253,0 -2,-0.8747 -2,-2 l 0,1 c 0,1.1253 0.8747,2 2,2 l 10,0 z"
         style="opacity:0.15;color:#bebebe;fill:#000000;fill-opacity:1;fill-rule:nonzero;stroke:none;stroke-width:0;marker:none;visibility:visible;display:inline;overflow:visible;enable-background:accumulate"
         inkscape:connector-curvature="0" />
      <path
         id="path4089"
         d="m 434,123 c 2.2333,0 4,-1.7667 4,-4 l 0,-1 c 0,2.2333 -1.7667,4 -4,4 l -12,0 c -2.2333,0 -4,-1.7667 -4,-4 l 0,1 c 0,2.2333 1.7667,4 4,4 l 12,0 z"
         style="opacity:0.15;color:#bebebe;fill:#000000;fill-opacity:1;fill-rule:nonzero;stroke:none;stroke-width:0;marker:none;visibility:visible;display:inline;overflow:visible;enable-background:accumulate"
         inkscape:connector-curvature="0" />
      <path
         id="path4091"
         d="m 440,83 c 3.3413,0 6,-2.6587 6,-6 l 0,-1 c 0,3.3413 -2.6587,6 -6,6 l -16,0 c -3.3413,0 -6,-2.6587 -6,-6 l 0,1 c 0,3.3413 2.6587,6 6,6 l 16,0 z"
         style="opacity:0.13;color:#bebebe;fill:#000000;fill-opacity:1;fill-rule:nonzero;stroke:none;stroke-width:0;marker:none;visibility:visible;display:inline;overflow:visible;enable-background:accumulate"
         inkscape:connector-curvature="0" />
      <path
         id="path4093"
         d="m 324,265 c 4.4493,0 8,-3.5507 8,-8 l 0,-1 c 0,4.4493 -3.5507,8 -8,8 l -24,0 c -4.4493,0 -8,-3.5507 -8,-8 l 0,1 c 0,4.4493 3.5507,8 8,8 l 24,0 z"
         style="opacity:0.13;color:#bebebe;fill:#000000;fill-opacity:1;fill-rule:nonzero;stroke:none;stroke-width:0;marker:none;visibility:visible;display:inline;overflow:visible;enable-background:accumulate"
         inkscape:connector-curvature="0" />
      <path
         id="path4095"
         d="m 362,120 c 9.4353,0 17,-7.5647 17,-17 l 0,-1 c 0,9.4353 -7.5647,17 -17,17 l -52,0 c -9.4353,0 -17,-7.5647 -17,-17 l 0,1 c 0,9.4353 7.5647,17 17,17 l 52,0 z"
         style="opacity:0.13;color:#bebebe;fill:#000000;fill-opacity:1;fill-rule:nonzero;stroke:none;stroke-width:0;marker:none;visibility:visible;display:inline;overflow:visible;enable-background:accumulate"
         inkscape:connector-curvature="0" />
      <path
         id="path4097"
         d="m 337.5,202 c 6.3883,0 11.5,-5.1117 11.5,-11.5 l 0,-1 c 0,6.3883 -5.1117,11.5 -11.5,11.5 l -35,0 c -6.3883,0 -11.5,-5.1117 -11.5,-11.5 l 0,1 c 0,6.3883 5.1117,11.5 11.5,11.5 l 35,0 z"
         style="opacity:0.13;color:#bebebe;fill:#000000;fill-opacity:1;fill-rule:nonzero;stroke:none;stroke-width:0;marker:none;visibility:visible;display:inline;overflow:visible;enable-background:accumulate"
         inkscape:connector-curvature="0" />
      <path
         inkscape:connector-curvature="0"
         id="path4280"
         d="M 84,265 C 56.836703,265 35,243.1633 35,216 l 0,-1 c 0,27.1633 21.836703,49 49,49 l 120,0 c 27.1633,0 49,-21.8367 49,-49 l 0,1 c 0,27.1633 -21.8367,49 -49,49 l -120,0 z"
         style="opacity:0.1;color:#bebebe;fill:#ffffff;fill-opacity:1;fill-rule:nonzero;stroke:none;stroke-width:0;marker:none;visibility:visible;display:inline;overflow:visible;enable-background:accumulate" />
      <path
         style="opacity:0.1;color:#bebebe;fill:#ffffff;fill-opacity:1;fill-rule:nonzero;stroke:none;stroke-width:0;marker:none;visibility:visible;display:inline;overflow:visible;enable-background:accumulate"
         d="m 300,264 c -4.4493,0 -8,-3.5507 -8,-8 l 0,-1 c 0,4.4493 3.5507,8 8,8 l 24,0 c 4.4493,0 8,-3.5507 8,-8 l 0,1 c 0,4.4493 -3.5507,8 -8,8 l -24,0 z"
         id="path4294"
         inkscape:connector-curvature="0" />
      <path
         style="opacity:0.1;color:#bebebe;fill:#ffffff;fill-opacity:1;fill-rule:nonzero;stroke:none;stroke-width:0;marker:none;visibility:visible;display:inline;overflow:visible;enable-background:accumulate"
         d="m 302.5,201 c -6.3883,0 -11.5,-5.1117 -11.5,-11.5 l 0,-1 c 0,6.3883 5.1117,11.5 11.5,11.5 l 35,0 c 6.3883,0 11.5,-5.1117 11.5,-11.5 l 0,1 c 0,6.3883 -5.1117,11.5 -11.5,11.5 l -35,0 z"
         id="path4296"
         inkscape:connector-curvature="0" />
      <path
         style="opacity:0.1;color:#bebebe;fill:#ffffff;fill-opacity:1;fill-rule:nonzero;stroke:none;stroke-width:0;marker:none;visibility:visible;display:inline;overflow:visible;enable-background:accumulate"
         d="m 310,119 c -9.4353,0 -17,-7.5647 -17,-17 l 0,-1 c 0,9.4353 7.5647,17 17,17 l 52,0 c 9.4353,0 17,-7.5647 17,-17 l 0,1 c 0,9.4353 -7.5647,17 -17,17 l -52,0 z"
         id="path4298"
         inkscape:connector-curvature="0" />
      <path
         style="opacity:0.1;color:#bebebe;fill:#ffffff;fill-opacity:1;fill-rule:nonzero;stroke:none;stroke-width:0;marker:none;visibility:visible;display:inline;overflow:visible;enable-background:accumulate"
         d="m 424,82 c -3.3413,0 -6,-2.658703 -6,-6 l 0,-1 c 0,3.341297 2.6587,6 6,6 l 16,0 c 3.3413,0 6,-2.658703 6,-6 l 0,1 c 0,3.341297 -2.6587,6 -6,6 l -16,0 z"
         id="path4300"
         inkscape:connector-curvature="0" />
      <path
         style="opacity:0.1;color:#bebebe;fill:#ffffff;fill-opacity:1;fill-rule:nonzero;stroke:none;stroke-width:0;marker:none;visibility:visible;display:inline;overflow:visible;enable-background:accumulate"
         d="m 422,122 c -2.2333,0 -4,-1.7667 -4,-4 l 0,-1 c 0,2.2333 1.7667,4 4,4 l 12,0 c 2.2333,0 4,-1.7667 4,-4 l 0,1 c 0,2.2333 -1.7667,4 -4,4 l -12,0 z"
         id="path4302"
         inkscape:connector-curvature="0" />
      <path
         style="opacity:0.1;color:#bebebe;fill:#ffffff;fill-opacity:1;fill-rule:nonzero;stroke:none;stroke-width:0;marker:none;visibility:visible;display:inline;overflow:visible;enable-background:accumulate"
         d="m 419,154.5 c -1.1253,0 -2,-0.8747 -2,-2 l 0,-1 c 0,1.1253 0.8747,2 2,2 l 10,0 c 1.1253,0 2,-0.8747 2,-2 l 0,1 c 0,1.1253 -0.8747,2 -2,2 l -10,0 z"
         id="path4304"
         inkscape:connector-curvature="0" />
    </g>
    <g
       inkscape:groupmode="layer"
       id="layer3"
       inkscape:label="Border"
       style="display:inline"
       sodipodi:insensitive="true">
      <path
         style="opacity:0.41000001;color:#bebebe;fill:#000000;fill-opacity:1;fill-rule:nonzero;stroke:none;stroke-width:0;marker:none;visibility:visible;display:inline;overflow:visible;enable-background:accumulate"
         d="m 422,101 c -2.77,0 -5,2.23 -5,5 l 0,12 c 0,2.77 2.23,5 5,5 l 12,0 c 2.77,0 5,-2.23 5,-5 l 0,-12 c 0,-2.77 -2.23,-5 -5,-5 l -12,0 z m 0,1 12,0 c 2.2333,0 4,1.7667 4,4 l 0,12 c 0,2.2333 -1.7667,4 -4,4 l -12,0 c -2.2333,0 -4,-1.7667 -4,-4 l 0,-12 c 0,-2.2333 1.7667,-4 4,-4 z"
         id="rect4099"
         inkscape:connector-curvature="0" />
      <path
         style="opacity:0.41000001;color:#bebebe;fill:#000000;fill-opacity:1;fill-rule:nonzero;stroke:none;stroke-width:0;marker:none;visibility:visible;display:inline;overflow:visible;enable-background:accumulate"
         d="m 424,53 c -3.878,0 -7,3.122 -7,7 l 0,16 c 0,3.878 3.122,7 7,7 l 16,0 c 3.878,0 7,-3.122 7,-7 l 0,-16 c 0,-3.878 -3.122,-7 -7,-7 l -16,0 z m 0,1 16,0 c 3.3413,0 6,2.658703 6,6 l 0,16 c 0,3.341297 -2.6587,6 -6,6 l -16,0 c -3.3413,0 -6,-2.658703 -6,-6 l 0,-16 c 0,-3.341297 2.6587,-6 6,-6 z"
         id="rect4151"
         inkscape:connector-curvature="0" />
      <path
         style="opacity:0.41000001;color:#bebebe;fill:#000000;fill-opacity:1;fill-rule:nonzero;stroke:none;stroke-width:0;marker:none;visibility:visible;display:inline;overflow:visible;enable-background:accumulate"
         d="m 419,140 c -1.662,0 -3,1.338 -3,3 l 0,10 c 0,1.662 1.338,3 3,3 l 10,0 c 1.662,0 3,-1.338 3,-3 l 0,-10 c 0,-1.662 -1.338,-3 -3,-3 l -10,0 z m 0,1 10,0 c 1.1253,0 2,0.8747 2,2 l 0,10 c 0,1.1253 -0.8747,2 -2,2 l -10,0 c -1.1253,0 -2,-0.8747 -2,-2 l 0,-10 c 0,-1.1253 0.8747,-2 2,-2 z"
         id="rect4095"
         inkscape:connector-curvature="0" />
      <path
         style="opacity:0.41000001;color:#bebebe;fill:#000000;fill-opacity:1;fill-rule:nonzero;stroke:none;stroke-width:0;marker:none;visibility:visible;display:inline;overflow:visible;enable-background:accumulate"
         d="m 300,223 c -4.986,0 -9,4.014 -9,9 l 0,24 c 0,4.986 4.014,9 9,9 l 24,0 c 4.986,0 9,-4.014 9,-9 l 0,-24 c 0,-4.986 -4.014,-9 -9,-9 l -24,0 z m 0,1 24,0 c 4.4493,0 8,3.5507 8,8 l 0,24 c 0,4.4493 -3.5507,8 -8,8 l -24,0 c -4.4493,0 -8,-3.5507 -8,-8 l 0,-24 c 0,-4.4493 3.5507,-8 8,-8 z"
         id="rect4783"
         inkscape:connector-curvature="0" />
      <path
         style="opacity:0.41000001;color:#bebebe;fill:#000000;fill-opacity:1;fill-rule:nonzero;stroke:none;stroke-width:0;marker:none;visibility:visible;display:inline;overflow:visible;enable-background:accumulate"
         d="m 302.5,142 c -6.925,0 -12.5,5.575 -12.5,12.5 l 0,35 c 0,6.925 5.575,12.5 12.5,12.5 l 35,0 c 6.925,0 12.5,-5.575 12.5,-12.5 l 0,-35 c 0,-6.925 -5.575,-12.5 -12.5,-12.5 l -35,0 z m 0,1 35,0 c 6.3883,0 11.5,5.1117 11.5,11.5 l 0,35 c 0,6.3883 -5.1117,11.5 -11.5,11.5 l -35,0 c -6.3883,0 -11.5,-5.1117 -11.5,-11.5 l 0,-35 c 0,-6.3883 5.1117,-11.5 11.5,-11.5 z"
         id="rect4515"
         inkscape:connector-curvature="0" />
      <path
         style="opacity:0.41000001;color:#bebebe;fill:#000000;fill-opacity:1;fill-rule:nonzero;stroke:none;stroke-width:0;marker:none;visibility:visible;display:inline;overflow:visible;enable-background:accumulate"
         d="m 310,32 c -9.972,0 -18,8.028 -18,18 l 0,52 c 0,9.972 8.028,18 18,18 l 52,0 c 9.972,0 18,-8.028 18,-18 l 0,-52 c 0,-9.972 -8.028,-18 -18,-18 l -52,0 z m 0,1 52,0 c 9.4353,0 17,7.564703 17,17 l 0,52 c 0,9.4353 -7.5647,17 -17,17 l -52,0 c -9.4353,0 -17,-7.5647 -17,-17 l 0,-52 c 0,-9.435297 7.5647,-17 17,-17 z"
         id="rect4511"
         inkscape:connector-curvature="0" />
      <path
         style="opacity:0.41000001;color:#bebebe;fill:#000000;fill-opacity:1;fill-rule:nonzero;stroke:none;stroke-width:0;marker:none;visibility:visible;display:inline;overflow:visible;enable-background:accumulate"
         d="M 84,46 C 56.3,46 34,68.3 34,96 l 0,120 c 0,27.7 22.3,50 50,50 l 120,0 c 27.7,0 50,-22.3 50,-50 L 254,96 C 254,68.3 231.7,46 204,46 L 84,46 z m 0,1 120,0 c 27.1633,0 49,21.836703 49,49 l 0,120 c 0,27.1633 -21.8367,49 -49,49 L 84,265 C 56.836703,265 35,243.1633 35,216 L 35,96 C 35,68.836703 56.836703,47 84,47 z"
         id="rect4040"
         inkscape:connector-curvature="0" />
    </g>
  </g>
</svg>
