<?xml version="1.0" encoding="UTF-8" standalone="no"?>
<!-- Created with Inkscape (http://www.inkscape.org/) -->

<svg
   xmlns:dc="http://purl.org/dc/elements/1.1/"
   xmlns:cc="http://creativecommons.org/ns#"
   xmlns:rdf="http://www.w3.org/1999/02/22-rdf-syntax-ns#"
   xmlns:svg="http://www.w3.org/2000/svg"
   xmlns="http://www.w3.org/2000/svg"
   xmlns:xlink="http://www.w3.org/1999/xlink"
   xmlns:sodipodi="http://sodipodi.sourceforge.net/DTD/sodipodi-0.dtd"
   xmlns:inkscape="http://www.inkscape.org/namespaces/inkscape"
   inkscape:export-ydpi="90.000000"
   inkscape:export-xdpi="90.000000"
   width="480"
   height="300"
   id="svg11300"
   sodipodi:version="0.32"
   inkscape:version="0.48.4 r9939"
   sodipodi:docname="gloobus-preview.svg"
   inkscape:output_extension="org.inkscape.output.svg.inkscape"
   version="1.0"
   style="display:inline;enable-background:new"
   inkscape:export-filename="/home/sam/moka2-template.png">
  <sodipodi:namedview
     stroke="#ef2929"
     fill="#f57900"
     id="base"
     pagecolor="#ffffff"
     bordercolor="#666666"
     borderopacity="0.25490196"
     inkscape:pageopacity="0"
     inkscape:pageshadow="2"
     inkscape:zoom="1"
     inkscape:cx="416.19316"
     inkscape:cy="239.30582"
     inkscape:current-layer="layer6"
     showgrid="false"
     inkscape:grid-bbox="true"
     inkscape:document-units="px"
     inkscape:showpageshadow="false"
     inkscape:window-width="1364"
     inkscape:window-height="701"
     inkscape:window-x="0"
     inkscape:window-y="27"
     width="400px"
     height="300px"
     inkscape:snap-nodes="true"
     inkscape:snap-bbox="true"
     gridtolerance="10000"
     inkscape:object-nodes="true"
     inkscape:snap-grids="true"
     showguides="true"
     inkscape:guide-bbox="true"
     inkscape:window-maximized="1"
     inkscape:bbox-nodes="true"
     inkscape:bbox-paths="true"
     inkscape:snap-bbox-edge-midpoints="true"
     inkscape:snap-bbox-midpoints="true">
    <inkscape:grid
       spacingy="1px"
       spacingx="1px"
       id="grid5883"
       type="xygrid"
       enabled="true"
       visible="true"
       empspacing="4"
       snapvisiblegridlinesonly="true"
       dotted="false"
       color="#000000"
       opacity="0.1254902"
       empcolor="#203ef3"
       empopacity="0.36470588" />
    <inkscape:grid
       type="xygrid"
       id="grid11592"
       empspacing="8"
       visible="true"
       enabled="false"
       spacingx="0.5px"
       spacingy="0.5px"
       color="#ff0000"
       opacity="0.1254902"
       empcolor="#ff0000"
       empopacity="0.25098039"
       snapvisiblegridlinesonly="true"
       dotted="true" />
  </sodipodi:namedview>
  <defs
     id="defs3">
    <linearGradient
       id="outerBackgroundGradient">
      <stop
         style="stop-color:#272834;stop-opacity:1;"
         offset="0"
         id="stop3864-8-6" />
      <stop
         style="stop-color:#3b3d51;stop-opacity:1;"
         offset="1"
         id="stop3866-9-1" />
    </linearGradient>
    <linearGradient
       inkscape:collect="always"
       xlink:href="#outerBackgroundGradient"
       id="linearGradient4097"
       gradientUnits="userSpaceOnUse"
       x1="264"
       y1="280.00003"
       x2="264"
       y2="40.00005"
       gradientTransform="matrix(0.06666667,0,0,0.06666667,414.4,137.33333)" />
    <linearGradient
       inkscape:collect="always"
       xlink:href="#outerBackgroundGradient"
       id="linearGradient4101"
       gradientUnits="userSpaceOnUse"
       gradientTransform="matrix(0.0875,0,0,0.0875,414.9,97.5)"
       x1="286.85715"
       y1="302.85715"
       x2="286.85715"
       y2="28.571428" />
    <linearGradient
       inkscape:collect="always"
       xlink:href="#outerBackgroundGradient"
       id="linearGradient4153"
       gradientUnits="userSpaceOnUse"
       gradientTransform="matrix(0.11931818,0,0,0.11931818,414.13636,48.22727)"
       x1="283.80957"
       y1="299.80954"
       x2="283.80957"
       y2="31.61907" />
    <linearGradient
       inkscape:collect="always"
       xlink:href="#outerBackgroundGradient"
       id="linearGradient4869"
       gradientUnits="userSpaceOnUse"
       gradientTransform="matrix(0.175,0,0,-0.175,286.79999,-215.99997)"
       x1="281.14291"
       y1="297.14304"
       x2="281.14291"
       y2="22.857315" />
    <clipPath
       clipPathUnits="userSpaceOnUse"
       id="clipPath4891">
      <rect
         ry="9"
         y="223"
         x="307"
         height="42"
         width="42"
         id="rect4893"
         style="color:#bebebe;fill:url(#linearGradient4895);fill-opacity:1;fill-rule:nonzero;stroke:none;stroke-width:0;marker:none;visibility:visible;display:inline;overflow:visible;enable-background:accumulate"
         transform="matrix(0,1,-1,0,0,0)" />
    </clipPath>
    <linearGradient
       inkscape:collect="always"
       xlink:href="#outerBackgroundGradient"
       id="linearGradient4895"
       gradientUnits="userSpaceOnUse"
       gradientTransform="matrix(0.175,0,0,0.175,302.79999,215.99997)"
       x1="144.00006"
       y1="280.00018"
       x2="144.00006"
       y2="40.000172" />
    <clipPath
       clipPathUnits="userSpaceOnUse"
       id="clipPath4044">
      <rect
         ry="4"
         y="85"
         x="433"
         height="22"
         width="22"
         id="rect4046"
         style="color:#bebebe;fill:url(#linearGradient4048);fill-opacity:1;fill-rule:nonzero;stroke:none;stroke-width:0;marker:none;visibility:visible;display:inline;overflow:visible;enable-background:accumulate" />
    </clipPath>
    <linearGradient
       inkscape:collect="always"
       xlink:href="#outerBackgroundGradient"
       id="linearGradient4048"
       gradientUnits="userSpaceOnUse"
       gradientTransform="matrix(0.0875,0,0,0.0875,430.9,81.499996)"
       x1="149.71428"
       y1="291.42862"
       x2="149.71428"
       y2="40.000046" />
    <clipPath
       clipPathUnits="userSpaceOnUse"
       id="clipPath4089">
      <rect
         style="color:#bebebe;fill:url(#linearGradient4093);fill-opacity:1;fill-rule:nonzero;stroke:none;stroke-width:0;marker:none;visibility:visible;display:inline;overflow:visible;enable-background:accumulate"
         id="rect4091"
         width="30"
         height="30"
         x="433"
         y="37"
         ry="6" />
    </clipPath>
    <linearGradient
       inkscape:collect="always"
       xlink:href="#outerBackgroundGradient"
       id="linearGradient4093"
       gradientUnits="userSpaceOnUse"
       gradientTransform="matrix(0.11931818,0,0,0.11931818,430.13636,32.227267)"
       x1="149.71432"
       y1="291.42862"
       x2="149.71432"
       y2="40.00005" />
    <clipPath
       clipPathUnits="userSpaceOnUse"
       id="clipPath3855">
      <rect
         style="color:#bebebe;fill:url(#linearGradient3859);fill-opacity:1;fill-rule:nonzero;stroke:none;stroke-width:0;marker:none;visibility:visible;display:inline;overflow:visible;enable-background:accumulate"
         id="rect3857"
         width="16"
         height="16"
         x="304"
         y="212"
         ry="3"
         transform="matrix(0,1,-1,0,0,0)" />
    </clipPath>
    <linearGradient
       inkscape:collect="always"
       xlink:href="#outerBackgroundGradient"
       id="linearGradient3859"
       gradientUnits="userSpaceOnUse"
       gradientTransform="matrix(0.06666667,0,0,0.06666667,302.4,209.33333)"
       x1="144"
       y1="280.00003"
       x2="144"
       y2="40.00005" />
    <clipPath
       clipPathUnits="userSpaceOnUse"
       id="clipPath3862">
      <rect
         ry="50"
         y="46"
         x="34"
         height="220"
         width="220"
         id="rect3864"
         style="color:#bebebe;fill:url(#linearGradient3866);fill-opacity:1;fill-rule:nonzero;stroke:none;stroke-width:0;marker:none;visibility:visible;display:inline;overflow:visible;enable-background:accumulate" />
    </clipPath>
    <linearGradient
       inkscape:collect="always"
       xlink:href="#outerBackgroundGradient"
       id="linearGradient3866"
       gradientUnits="userSpaceOnUse"
       gradientTransform="translate(0,-4)"
       x1="144"
       y1="280"
       x2="144"
       y2="40" />
    <linearGradient
       inkscape:collect="always"
       xlink:href="#outerBackgroundGradient"
       id="linearGradient3876"
       gradientUnits="userSpaceOnUse"
       gradientTransform="translate(0,-4)"
       x1="272"
       y1="288"
       x2="272"
       y2="32" />
    <clipPath
       clipPathUnits="userSpaceOnUse"
       id="clipPath4187">
      <rect
         ry="12.5"
         y="142"
         x="290"
         height="60"
         width="60"
         id="rect4189"
         style="color:#bebebe;fill:url(#linearGradient4191);fill-opacity:1;fill-rule:nonzero;stroke:none;stroke-width:0;marker:none;visibility:visible;display:inline;overflow:visible;enable-background:accumulate" />
    </clipPath>
    <linearGradient
       inkscape:collect="always"
       xlink:href="#outerBackgroundGradient"
       id="linearGradient4191"
       gradientUnits="userSpaceOnUse"
       x1="352"
       y1="204"
       x2="352"
       y2="140" />
    <linearGradient
       inkscape:collect="always"
       xlink:href="#outerBackgroundGradient"
       id="linearGradient4197"
       gradientUnits="userSpaceOnUse"
       x1="384"
       y1="124"
       x2="384"
       y2="28" />
    <linearGradient
       inkscape:collect="always"
       xlink:href="#outerBackgroundGradient"
       id="linearGradient4199"
       gradientUnits="userSpaceOnUse"
       x1="352"
       y1="204"
       x2="352"
       y2="140" />
    <clipPath
       clipPathUnits="userSpaceOnUse"
       id="clipPath4346">
      <rect
         style="color:#bebebe;fill:url(#linearGradient4350);fill-opacity:1;fill-rule:nonzero;stroke:none;stroke-width:0;marker:none;visibility:visible;display:inline;overflow:visible;enable-background:accumulate"
         id="rect4348"
         width="88"
         height="88"
         x="292"
         y="32"
         ry="18" />
    </clipPath>
    <linearGradient
       inkscape:collect="always"
       xlink:href="#outerBackgroundGradient"
       id="linearGradient4350"
       gradientUnits="userSpaceOnUse"
       x1="384"
       y1="124"
       x2="384"
       y2="28" />
    <clipPath
       clipPathUnits="userSpaceOnUse"
       id="clipPath3871">
      <rect
         ry="5"
         y="101"
         x="417"
         height="22"
         width="22"
         id="rect3873"
         style="color:#bebebe;fill:url(#linearGradient3875);fill-opacity:1;fill-rule:nonzero;stroke:none;stroke-width:0;marker:none;visibility:visible;display:inline;overflow:visible;enable-background:accumulate" />
    </clipPath>
    <linearGradient
       inkscape:collect="always"
       xlink:href="#outerBackgroundGradient"
       id="linearGradient3875"
       gradientUnits="userSpaceOnUse"
       gradientTransform="matrix(0.0875,0,0,0.0875,414.9,97.5)"
       x1="286.85715"
       y1="302.85715"
       x2="286.85715"
       y2="28.571428" />
    <clipPath
       clipPathUnits="userSpaceOnUse"
       id="clipPath3881">
      <rect
         style="color:#bebebe;fill:url(#linearGradient3885);fill-opacity:1;fill-rule:nonzero;stroke:none;stroke-width:0;marker:none;visibility:visible;display:inline;overflow:visible;enable-background:accumulate"
         id="rect3883"
         width="30"
         height="30"
         x="417"
         y="53"
         ry="7" />
    </clipPath>
    <linearGradient
       inkscape:collect="always"
       xlink:href="#outerBackgroundGradient"
       id="linearGradient3885"
       gradientUnits="userSpaceOnUse"
       gradientTransform="matrix(0.11931818,0,0,0.11931818,414.13636,48.22727)"
       x1="283.80957"
       y1="299.80954"
       x2="283.80957"
       y2="31.61907" />
    <linearGradient
       inkscape:collect="always"
       xlink:href="#linearGradient3176"
       id="linearGradient3241"
       gradientUnits="userSpaceOnUse"
       gradientTransform="matrix(1.6748685,0,0,1.6760154,-65.211916,8.0709351)"
       x1="23.999987"
       y1="42.956509"
       x2="20.56768"
       y2="7.429738" />
    <linearGradient
       id="linearGradient3176">
      <stop
         id="stop3178"
         offset="0"
         style="stop-color:#3c9bdd;stop-opacity:1;" />
      <stop
         id="stop3180"
         offset="1"
         style="stop-color:#3cc1ff;stop-opacity:1;" />
    </linearGradient>
    <linearGradient
       y2="7.429738"
       x2="20.56768"
       y1="42.956509"
       x1="23.999987"
       gradientTransform="matrix(3.831566,0,0,3.8341898,52.042466,65.979447)"
       gradientUnits="userSpaceOnUse"
       id="linearGradient3096"
       xlink:href="#linearGradient3176"
       inkscape:collect="always" />
    <linearGradient
       inkscape:collect="always"
       xlink:href="#linearGradient3176"
       id="linearGradient3087"
       gradientUnits="userSpaceOnUse"
       gradientTransform="matrix(1.4368372,0,0,1.4378212,301.51592,41.492292)"
       x1="23.999987"
       y1="42.956509"
       x2="20.56768"
       y2="7.429738" />
    <linearGradient
       inkscape:collect="always"
       xlink:href="#linearGradient3176"
       id="linearGradient3091"
       gradientUnits="userSpaceOnUse"
       gradientTransform="matrix(0.95789148,0,0,0.95854748,297.01061,148.99486)"
       x1="23.999987"
       y1="42.956509"
       x2="20.56768"
       y2="7.429738" />
    <linearGradient
       inkscape:collect="always"
       xlink:href="#linearGradient3176"
       id="linearGradient3095"
       gradientUnits="userSpaceOnUse"
       gradientTransform="matrix(0.67052416,0,0,0.67098336,295.90742,227.8964)"
       x1="23.999987"
       y1="42.956509"
       x2="20.56768"
       y2="7.429738" />
    <linearGradient
       inkscape:collect="always"
       xlink:href="#linearGradient3176"
       id="linearGradient3867"
       gradientUnits="userSpaceOnUse"
       gradientTransform="matrix(0.47894574,0,0,0.47927374,420.5053,56.497429)"
       x1="23.999987"
       y1="42.956509"
       x2="20.56768"
       y2="7.429738" />
    <linearGradient
       inkscape:collect="always"
       xlink:href="#linearGradient3176"
       id="linearGradient3871"
       gradientUnits="userSpaceOnUse"
       gradientTransform="matrix(0.38315653,0,0,0.38341893,418.80424,102.79794)"
       x1="23.999987"
       y1="42.956509"
       x2="20.56768"
       y2="7.429738" />
    <linearGradient
       inkscape:collect="always"
       xlink:href="#linearGradient3176"
       id="linearGradient3877"
       gradientUnits="userSpaceOnUse"
       gradientTransform="matrix(0.2873675,0,0,0.2875643,417.10318,141.09846)"
       x1="23.999987"
       y1="42.956509"
       x2="20.56768"
       y2="7.429738" />
  </defs>
  <metadata
     id="metadata4">
    <rdf:RDF>
      <cc:Work
         rdf:about="">
        <dc:format>image/svg+xml</dc:format>
        <dc:type
           rdf:resource="http://purl.org/dc/dcmitype/StillImage" />
        <dc:creator>
          <cc:Agent>
            <dc:title>Sam Hewitt</dc:title>
          </cc:Agent>
        </dc:creator>
        <dc:source />
        <cc:license
           rdf:resource="" />
        <dc:title />
        <dc:subject>
          <rdf:Bag />
        </dc:subject>
        <dc:date />
        <dc:rights>
          <cc:Agent>
            <dc:title />
          </cc:Agent>
        </dc:rights>
        <dc:publisher>
          <cc:Agent>
            <dc:title />
          </cc:Agent>
        </dc:publisher>
        <dc:identifier />
        <dc:relation />
        <dc:language />
        <dc:coverage />
        <dc:description />
        <dc:contributor>
          <cc:Agent>
            <dc:title />
          </cc:Agent>
        </dc:contributor>
      </cc:Work>
      <cc:Work
         rdf:about="">
        <dc:format>image/svg+xml</dc:format>
        <dc:type
           rdf:resource="http://purl.org/dc/dcmitype/StillImage" />
      </cc:Work>
    </rdf:RDF>
  </metadata>
  <g
     style="display:inline"
     inkscape:groupmode="layer"
     inkscape:label="Icon"
     id="layer1">
    <g
       style="display:none"
       inkscape:label="Baseplate"
       id="layer7"
       inkscape:groupmode="layer">
      <text
         y="19.745117"
         xml:space="preserve"
         x="15.006836"
         style="font-size:18px;font-style:normal;font-variant:normal;font-weight:normal;font-stretch:normal;fill:#000000;fill-opacity:1;stroke:none;display:inline;enable-background:new;font-family:DejaVu Sans;-inkscape-font-specification:DejaVu Sans"
         inkscape:label="context"
         id="context"><tspan
           style="font-style:normal;font-variant:normal;font-weight:normal;font-stretch:normal;font-family:DejaVu Sans;-inkscape-font-specification:DejaVu Sans"
           y="19.745117"
           x="15.006836"
           sodipodi:role="line"
           id="tspan3933">apps</tspan></text>
      <text
         y="19.745117"
         xml:space="preserve"
         x="122.48828"
         style="font-size:18px;font-style:normal;font-variant:normal;font-weight:bold;font-stretch:normal;text-align:start;line-height:125%;writing-mode:lr-tb;text-anchor:start;fill:#000000;fill-opacity:1;stroke:none;display:inline;enable-background:new;font-family:DejaVu Sans;-inkscape-font-specification:DejaVu Sans Bold"
         sodipodi:linespacing="125%"
         inkscape:label="icon-name"
         id="icon-name"><tspan
           style="font-size:18px;font-style:normal;font-variant:normal;font-weight:bold;font-stretch:normal;font-family:DejaVu Sans;-inkscape-font-specification:DejaVu Sans Bold"
           y="19.745117"
           x="122.48828"
           sodipodi:role="line"
           id="tspan3937">gloobus-preview</tspan></text>
      <rect
         style="fill:#eeeeec;fill-opacity:1;fill-rule:nonzero;stroke:none;stroke-width:2;marker:none;visibility:visible;display:inline;overflow:visible;enable-background:accumulate"
         id="rect16x16"
         width="16"
         height="16"
         x="416"
         y="140"
         inkscape:label="16x16" />
      <rect
         style="fill:#d4d4d4;fill-opacity:1;fill-rule:nonzero;stroke:none;stroke-width:2;marker:none;visibility:visible;display:inline;overflow:visible;enable-background:accumulate"
         id="rect24x24"
         width="24"
         height="24"
         x="416"
         y="100"
         inkscape:label="24x24" />
      <rect
         style="fill:#eeeeec;fill-opacity:1;fill-rule:nonzero;stroke:none;stroke-width:2;marker:none;visibility:visible;display:inline;overflow:visible;enable-background:accumulate"
         id="rect32x32"
         width="32"
         height="32"
         x="416"
         y="52"
         inkscape:label="32x32" />
      <rect
         inkscape:label="22x22"
         y="101"
         x="417"
         height="22"
         width="22"
         id="rect22x22"
         style="fill:#eeeeec;fill-opacity:1;fill-rule:nonzero;stroke:none;stroke-width:2;marker:none;visibility:visible;display:inline;overflow:visible;enable-background:accumulate" />
      <rect
         inkscape:label="48x48"
         y="220"
         x="288"
         height="48"
         width="48"
         id="rect48x48"
         style="fill:#eeeeec;fill-opacity:1;fill-rule:nonzero;stroke:none;stroke-width:2;marker:none;visibility:visible;display:inline;overflow:visible;enable-background:accumulate" />
      <rect
         style="fill:#eeeeec;fill-opacity:1;fill-rule:nonzero;stroke:none;stroke-width:2;marker:none;visibility:visible;display:inline;overflow:visible;enable-background:accumulate"
         id="rect256x256"
         width="256"
         height="256"
         x="16"
         y="28"
         inkscape:label="256x256" />
      <rect
         style="fill:#eeeeec;fill-opacity:1;fill-rule:nonzero;stroke:none;stroke-width:2;marker:none;visibility:visible;display:inline;overflow:visible;enable-background:accumulate"
         id="rect64x64"
         width="64"
         height="64"
         x="288"
         y="140"
         inkscape:label="64x64" />
      <rect
         style="fill:#eeeeec;fill-opacity:1;fill-rule:nonzero;stroke:none;stroke-width:2;marker:none;visibility:visible;display:inline;overflow:visible;enable-background:accumulate"
         id="rect96x96"
         width="96"
         height="96"
         x="288"
         y="28"
         inkscape:label="96x96" />
    </g>
    <g
       inkscape:groupmode="layer"
       id="layer4"
       inkscape:label="Shadow"
       style="display:inline"
       sodipodi:insensitive="true">
      <rect
         style="opacity:0.0;color:#bebebe;fill:#000000;fill-opacity:1;stroke:#000000;stroke-width:1;stroke-miterlimit:4;stroke-opacity:1;stroke-dasharray:none;marker:none;visibility:visible;display:inline;overflow:visible;enable-background:accumulate"
         id="rect4156"
         width="42"
         height="42"
         x="-266.5"
         y="291"
         ry="9"
         transform="matrix(0,-1,1,0,0,0)" />
      <rect
         transform="matrix(0,-1,1,0,0,0)"
         ry="9"
         y="291"
         x="-266.5"
         height="42"
         width="40"
         id="rect4183"
         style="opacity:0.1;color:#bebebe;fill:#000000;fill-opacity:1;stroke:none;stroke-width:1;marker:none;visibility:visible;display:inline;overflow:visible;enable-background:accumulate" />
      <rect
         ry="9"
         y="237"
         x="291"
         height="29"
         width="42"
         id="rect4144"
         style="opacity:0.1;color:#bebebe;fill:#000000;fill-opacity:1;fill-rule:nonzero;stroke:none;stroke-width:0;marker:none;visibility:visible;display:inline;overflow:visible;enable-background:accumulate" />
      <rect
         style="opacity:0.0;color:#bebebe;fill:#000000;fill-opacity:1;fill-rule:nonzero;stroke:#000000;stroke-width:1;stroke-miterlimit:4;stroke-opacity:1;stroke-dasharray:none;marker:none;visibility:visible;display:inline;overflow:visible;enable-background:accumulate"
         id="rect4340"
         width="88"
         height="88"
         x="292"
         y="33.5"
         ry="18" />
      <rect
         ry="18"
         y="52.5"
         x="292"
         height="69"
         width="88"
         id="rect4338"
         style="opacity:0.1;color:#bebebe;fill:#000000;fill-opacity:1;fill-rule:nonzero;stroke:none;stroke-width:0;marker:none;visibility:visible;display:inline;overflow:visible;enable-background:accumulate" />
      <rect
         style="opacity:0.1;color:#bebebe;fill:#000000;fill-opacity:1;fill-rule:nonzero;stroke:none;stroke-width:0;marker:none;visibility:visible;display:inline;overflow:visible;enable-background:accumulate"
         id="rect4335"
         width="88"
         height="76.5"
         x="292"
         y="44.5"
         ry="18" />
      <rect
         style="opacity:0.0;color:#bebebe;fill:#000000;fill-opacity:1;fill-rule:nonzero;stroke:#000000;stroke-width:1;stroke-miterlimit:4;stroke-opacity:1;stroke-dasharray:none;marker:none;visibility:visible;display:inline;overflow:visible;enable-background:accumulate"
         id="rect4214"
         width="60"
         height="60"
         x="290"
         y="143.5"
         ry="12.5" />
      <rect
         ry="12.5"
         y="151.5"
         x="290"
         height="52"
         width="60"
         id="rect4206"
         style="opacity:0.1;color:#bebebe;fill:#000000;fill-opacity:1;fill-rule:nonzero;stroke:none;stroke-width:0;marker:none;visibility:visible;display:inline;overflow:visible;enable-background:accumulate" />
      <rect
         style="opacity:0.1;color:#bebebe;fill:#000000;fill-opacity:1;fill-rule:nonzero;stroke:none;stroke-width:0;marker:none;visibility:visible;display:inline;overflow:visible;enable-background:accumulate"
         id="rect4212"
         width="60"
         height="54.5"
         x="290"
         y="148.5"
         ry="12.5" />
      <rect
         style="opacity:0.2;color:#bebebe;fill:#000000;fill-opacity:1;fill-rule:nonzero;stroke:none;stroke-width:0;marker:none;visibility:visible;display:inline;overflow:visible;enable-background:accumulate"
         id="rect4058"
         width="30"
         height="30"
         x="417"
         y="54"
         ry="7" />
      <rect
         ry="50"
         y="48"
         x="34"
         height="220"
         width="220"
         id="rect3872"
         style="opacity:0.0;color:#bebebe;fill:#000000;fill-opacity:1;fill-rule:nonzero;stroke:#000000;stroke-width:2;stroke-miterlimit:4;stroke-opacity:1;stroke-dasharray:none;marker:none;visibility:visible;display:inline;overflow:visible;enable-background:accumulate" />
      <rect
         style="opacity:0.1;color:#bebebe;fill:#000000;fill-opacity:1;fill-rule:nonzero;stroke:none;stroke-width:0;marker:none;visibility:visible;display:inline;overflow:visible;enable-background:accumulate"
         id="rect3870"
         width="220"
         height="220"
         x="34"
         y="48"
         ry="50" />
      <rect
         ry="50"
         y="47"
         x="34"
         height="220"
         width="220"
         id="rect3868"
         style="opacity:0.1;color:#bebebe;fill:#000000;fill-opacity:1;fill-rule:nonzero;stroke:none;stroke-width:0;marker:none;visibility:visible;display:inline;overflow:visible;enable-background:accumulate" />
    </g>
    <g
       inkscape:groupmode="layer"
       id="layer2"
       inkscape:label="Background"
       style="display:inline">
      <rect
         style="color:#bebebe;fill:url(#linearGradient3876);fill-opacity:1;fill-rule:nonzero;stroke:none;stroke-width:0;marker:none;visibility:visible;display:inline;overflow:visible;enable-background:accumulate"
         id="rect4040"
         width="220"
         height="220"
         x="34"
         y="46"
         ry="50" />
      <rect
         ry="3"
         y="140"
         x="416"
         height="16"
         width="16"
         id="rect4095"
         style="color:#bebebe;fill:url(#linearGradient4097);fill-opacity:1;fill-rule:nonzero;stroke:none;stroke-width:0;marker:none;visibility:visible;display:inline;overflow:visible;enable-background:accumulate" />
      <rect
         style="color:#bebebe;fill:url(#linearGradient4101);fill-opacity:1;fill-rule:nonzero;stroke:none;stroke-width:0;marker:none;visibility:visible;display:inline;overflow:visible;enable-background:accumulate"
         id="rect4099"
         width="22"
         height="22"
         x="417"
         y="101"
         ry="5" />
      <rect
         ry="7"
         y="53"
         x="417"
         height="30"
         width="30"
         id="rect4151"
         style="color:#bebebe;fill:url(#linearGradient4153);fill-opacity:1;fill-rule:nonzero;stroke:none;stroke-width:0;marker:none;visibility:visible;display:inline;overflow:visible;enable-background:accumulate" />
      <rect
         style="color:#bebebe;fill:url(#linearGradient4869);fill-opacity:1;fill-rule:nonzero;stroke:none;stroke-width:0;marker:none;visibility:visible;display:inline;overflow:visible;enable-background:accumulate"
         id="rect4783"
         width="42"
         height="42"
         x="291"
         y="-265"
         ry="9"
         transform="scale(1,-1)" />
      <rect
         ry="18"
         y="32"
         x="292"
         height="88"
         width="88"
         id="rect4511"
         style="color:#bebebe;fill:url(#linearGradient4197);fill-opacity:1;fill-rule:nonzero;stroke:none;stroke-width:0;marker:none;visibility:visible;display:inline;overflow:visible;enable-background:accumulate" />
      <rect
         style="color:#bebebe;fill:url(#linearGradient4199);fill-opacity:1;fill-rule:nonzero;stroke:none;stroke-width:0;marker:none;visibility:visible;display:inline;overflow:visible;enable-background:accumulate"
         id="rect4515"
         width="60"
         height="60"
         x="290"
         y="142"
         ry="12.5" />
    </g>
    <g
       inkscape:groupmode="layer"
       id="layer6"
       inkscape:label="Symbols"
       style="display:inline">
      <path
         inkscape:connector-curvature="0"
         id="path3090"
         d="m 146.13075,163.30235 c -1.20989,-5.26882 5.12811,-8.32139 9.44366,-7.75773 8.43571,1.10179 12.4355,10.54861 10.49303,18.11816 -2.95386,11.5107 -16.03956,16.69043 -26.76796,13.24266 -14.57809,-4.68501 -20.96818,-21.57888 -15.97415,-35.45428 6.36147,-17.67468 27.09999,-25.29689 44.09218,-18.72754 20.75298,8.02327 29.6034,32.66425 21.45525,52.79043 -9.66115,23.86347 -38.18744,33.95805 -61.41638,24.21239 -26.94404,-11.30433 -38.271344,-43.76548 -26.9364,-70.12655 12.9268,-30.06323 49.28529,-42.640485 78.7407,-29.69729 33.1427,14.56341 46.95373,54.87373 32.41752,87.46265 -16.17752,36.26849 -60.38804,51.33329 -96.06492,35.18219 C 76.267896,214.73562 59.969306,166.56177 77.714536,127.74869 91.628716,97.315025 123.43688,78.165253 156.72319,79.027984"
         style="fill:#000000;fill-opacity:1;fill-rule:evenodd;stroke:none;display:inline;enable-background:new;opacity:0.2"
         inkscape:export-xdpi="251.89999"
         inkscape:export-ydpi="251.89999"
         inkscape:export-filename="E:\back up Escritorio\Mis Documentos\Diseño Web\Gloobus-web\path3266.png" />
      <path
         inkscape:export-filename="E:\back up Escritorio\Mis Documentos\Diseño Web\Gloobus-web\path3266.png"
         inkscape:export-ydpi="251.89999"
         inkscape:export-xdpi="251.89999"
         style="fill:#000000;fill-opacity:1;fill-rule:evenodd;stroke:none;display:inline;enable-background:new;opacity:0.2"
         d="m 336.79903,78.613385 c -0.45371,-1.97581 1.92304,-3.12052 3.54137,-2.90915 3.1634,0.41317 4.66332,3.95573 3.93489,6.79431 -1.1077,4.31651 -6.01483,6.25891 -10.03799,4.966 -5.46678,-1.75688 -7.86306,-8.09208 -5.9903,-13.29536 2.38555,-6.628 10.1625,-9.48633 16.53457,-7.02282 7.78236,3.00872 11.10127,12.24909 8.04572,19.79641 -3.62294,8.9488 -14.32029,12.73427 -23.03115,9.07964 -10.10401,-4.23912 -14.35175,-16.41205 -10.10115,-26.29745 4.84755,-11.27371 18.48199,-15.99018 29.52777,-11.13648 12.42851,5.46127 17.60764,20.57764 12.15657,32.79849 -6.06657,13.600675 -22.64552,19.249975 -36.02435,13.193315 -14.75452,-6.679425 -20.86649,-24.744625 -14.21203,-39.299525 5.21782,-11.41263 17.14588,-18.59379 29.62825,-18.27027"
         id="path3092"
         inkscape:connector-curvature="0" />
      <path
         inkscape:connector-curvature="0"
         id="path3094"
         d="m 320.53268,174.07559 c -0.30247,-1.31721 1.28203,-2.08035 2.36092,-1.93943 2.10893,0.27544 3.10888,2.63715 2.62326,4.52954 -0.73847,2.87767 -4.00989,4.1726 -6.692,3.31066 -3.64452,-1.17125 -5.24204,-5.39472 -3.99353,-8.86357 1.59037,-4.41867 6.775,-6.32422 11.02305,-4.68188 5.18824,2.00581 7.40084,8.16606 5.36381,13.19761 -2.41529,5.96586 -9.54686,8.48951 -15.3541,6.05309 -6.73601,-2.82608 -9.56783,-10.94137 -6.7341,-17.53163 3.2317,-7.51581 12.32133,-10.66012 19.68518,-7.42432 8.28567,3.64084 11.73843,13.71842 8.10438,21.86566 -4.04438,9.06711 -15.09701,12.83331 -24.01623,8.79554 -9.83635,-4.45295 -13.911,-16.49642 -9.47469,-26.19968 3.47855,-7.60842 11.43059,-12.39586 19.75217,-12.18018"
         style="fill:#000000;fill-opacity:1;fill-rule:evenodd;stroke:none;display:inline;enable-background:new;opacity:0.2"
         inkscape:export-xdpi="251.89999"
         inkscape:export-ydpi="251.89999"
         inkscape:export-filename="E:\back up Escritorio\Mis Documentos\Diseño Web\Gloobus-web\path3266.png" />
      <path
         inkscape:export-filename="E:\back up Escritorio\Mis Documentos\Diseño Web\Gloobus-web\path3266.png"
         inkscape:export-ydpi="251.89999"
         inkscape:export-xdpi="251.89999"
         style="fill:#000000;fill-opacity:1;fill-rule:evenodd;stroke:none;display:inline;enable-background:new;opacity:0.2"
         d="m 312.37288,245.75291 c -0.21173,-0.92205 0.89742,-1.45625 1.65264,-1.3576 1.47625,0.19281 2.17622,1.846 1.83628,3.17068 -0.51693,2.01437 -2.80692,2.92082 -4.6844,2.31746 -2.55116,-0.81988 -3.66943,-3.77631 -2.79547,-6.2045 1.11326,-3.09307 4.7425,-4.42696 7.71614,-3.27732 3.63177,1.40407 5.18059,5.71625 3.75466,9.23833 -1.6907,4.1761 -6.6828,5.94266 -10.74787,4.23717 -4.71521,-1.97826 -6.69748,-7.65897 -4.71387,-12.27215 2.26219,-5.26107 8.62493,-7.46208 13.77963,-5.19702 5.79997,2.54859 8.2169,9.60289 5.67307,15.30596 -2.83107,6.34698 -10.56791,8.98332 -16.81137,6.15688 -6.88544,-3.11706 -9.7377,-11.5475 -6.63228,-18.33978 2.43498,-5.32589 8.00141,-8.6771 13.82652,-8.52613"
         id="path3096"
         inkscape:connector-curvature="0" />
      <path
         inkscape:connector-curvature="0"
         id="path3098"
         d="m 432.26634,69.537796 c -0.15124,-0.658603 0.64101,-1.040173 1.18046,-0.969717 1.05446,0.137724 1.55444,1.318577 1.31163,2.26477 -0.36924,1.438837 -2.00495,2.086304 -3.346,1.655334 -1.82226,-0.585627 -2.62102,-2.69736 -1.99677,-4.431787 0.79519,-2.209333 3.3875,-3.16211 5.51153,-2.34094 2.59412,1.002907 3.70042,4.08303 2.6819,6.598803 -1.20764,2.982934 -4.77343,4.244754 -7.67705,3.026544 -3.368,-1.41304 -4.78391,-5.47068 -3.36705,-8.765814 1.61585,-3.757903 6.16067,-5.33006 9.84259,-3.71216 4.14284,1.820424 5.86922,6.859214 4.05219,10.932834 -2.02219,4.53356 -7.5485,6.41666 -12.00811,4.39777 -4.91818,-2.22648 -6.9555,-8.24821 -4.73735,-13.099844 1.73928,-3.80421 5.7153,-6.19793 9.87609,-6.09009"
         style="fill:#000000;fill-opacity:1;fill-rule:evenodd;stroke:none;display:inline;enable-background:new;opacity:0.2"
         inkscape:export-xdpi="251.89999"
         inkscape:export-ydpi="251.89999"
         inkscape:export-filename="E:\back up Escritorio\Mis Documentos\Diseño Web\Gloobus-web\path3266.png" />
      <path
         inkscape:export-filename="E:\back up Escritorio\Mis Documentos\Diseño Web\Gloobus-web\path3266.png"
         inkscape:export-ydpi="251.89999"
         inkscape:export-xdpi="251.89999"
         style="fill:#000000;fill-opacity:1;fill-rule:evenodd;stroke:none;display:inline;enable-background:new;opacity:0.2"
         d="m 428.21307,113.43023 c -0.12099,-0.52688 0.51281,-0.83213 0.94437,-0.77577 0.84357,0.11018 1.24355,1.05486 1.0493,1.81182 -0.29539,1.15107 -1.60396,1.66904 -2.6768,1.32426 -1.45781,-0.4685 -2.09681,-2.15788 -1.59741,-3.54543 0.63615,-1.76746 2.71,-2.52968 4.40922,-1.87275 2.07529,0.80233 2.96033,3.26643 2.14552,5.27904 -0.96611,2.38635 -3.81874,3.39581 -6.14164,2.42124 -2.6944,-1.13043 -3.82713,-4.37654 -2.69364,-7.01265 1.29268,-3.00632 4.92854,-4.26405 7.87407,-2.96973 3.31427,1.45634 4.69538,5.48737 3.24175,8.74627 -1.61775,3.62684 -6.0388,5.13332 -9.60648,3.51821 -3.93455,-1.78118 -5.5644,-6.59856 -3.78988,-10.47987 1.39142,-3.04337 4.57224,-4.95834 7.90087,-4.87207"
         id="path3100"
         inkscape:connector-curvature="0" />
      <path
         inkscape:connector-curvature="0"
         id="path3102"
         d="m 424.1598,149.32268 c -0.0907,-0.39516 0.38461,-0.6241 0.70828,-0.58183 0.63268,0.0826 0.93266,0.79115 0.78698,1.35887 -0.22155,0.8633 -1.20297,1.25178 -2.0076,0.99319 -1.09336,-0.35137 -1.57261,-1.61841 -1.19806,-2.65907 0.47711,-1.3256 2.0325,-1.89726 3.30691,-1.40456 1.55647,0.60174 2.22025,2.44982 1.60914,3.95928 -0.72458,1.78976 -2.86405,2.54686 -4.60623,1.81593 -2.0208,-0.84782 -2.87035,-3.28241 -2.02023,-5.25949 0.96951,-2.25474 3.69641,-3.19804 5.90556,-2.2273 2.4857,1.09226 3.52153,4.11553 2.43131,6.55971 -1.21331,2.72013 -4.5291,3.84999 -7.20486,2.63865 -2.95092,-1.33588 -4.1733,-4.94892 -2.84241,-7.8599 1.04356,-2.28253 3.42918,-3.71876 5.92565,-3.65406"
         style="fill:#000000;fill-opacity:1;fill-rule:evenodd;stroke:none;display:inline;enable-background:new;opacity:0.2"
         inkscape:export-xdpi="251.89999"
         inkscape:export-ydpi="251.89999"
         inkscape:export-filename="E:\back up Escritorio\Mis Documentos\Diseño Web\Gloobus-web\path3266.png" />
      <path
         inkscape:export-filename="E:\back up Escritorio\Mis Documentos\Diseño Web\Gloobus-web\path3266.png"
         inkscape:export-ydpi="251.89999"
         inkscape:export-xdpi="251.89999"
         style="display:inline;enable-background:new;fill:url(#linearGradient3096);fill-opacity:1;fill-rule:evenodd;stroke:none"
         d="m 146.13075,162.30235 c -1.20989,-5.26882 5.12811,-8.32139 9.44366,-7.75773 8.43571,1.10179 12.4355,10.54861 10.49303,18.11816 -2.95386,11.5107 -16.03956,16.69043 -26.76796,13.24266 -14.57809,-4.68501 -20.96818,-21.57888 -15.97415,-35.45428 6.36147,-17.67468 27.09999,-25.29689 44.09218,-18.72754 20.75298,8.02327 29.6034,32.66425 21.45525,52.79043 -9.66115,23.86347 -38.18744,33.95805 -61.41638,24.21239 -26.94404,-11.30433 -38.271344,-43.76548 -26.9364,-70.12655 12.9268,-30.06323 49.28529,-42.640488 78.7407,-29.69729 33.1427,14.56341 46.95373,54.87373 32.41752,87.46265 -16.17752,36.26849 -60.38804,51.33329 -96.06492,35.18219 C 76.267896,213.73562 59.969306,165.56177 77.714536,126.74869 91.628716,96.315022 123.43688,77.16525 156.72319,78.027981"
         id="path3239"
         inkscape:connector-curvature="0" />
      <path
         inkscape:connector-curvature="0"
         id="path3085"
         d="m 336.79903,77.613382 c -0.45371,-1.97581 1.92304,-3.12052 3.54137,-2.90915 3.1634,0.41317 4.66332,3.95573 3.93489,6.79431 -1.1077,4.31651 -6.01483,6.25891 -10.03799,4.966 -5.46678,-1.75688 -7.86306,-8.09208 -5.9903,-13.29536 2.38555,-6.628 10.1625,-9.48633 16.53457,-7.02282 7.78236,3.00872 11.10127,12.24909 8.04572,19.79641 -3.62294,8.9488 -14.32029,12.73427 -23.03115,9.07964 -10.10401,-4.23912 -14.35175,-16.41205 -10.10115,-26.29745 4.84755,-11.27371 18.48199,-15.99018 29.52777,-11.13648 12.42851,5.46127 17.60764,20.57764 12.15657,32.79849 -6.06657,13.600678 -22.64552,19.249978 -36.02435,13.193318 -14.75452,-6.679428 -20.86649,-24.744628 -14.21203,-39.299528 5.21782,-11.41263 17.14588,-18.59379 29.62825,-18.27027"
         style="fill:url(#linearGradient3087);fill-opacity:1;fill-rule:evenodd;stroke:none;display:inline;enable-background:new"
         inkscape:export-xdpi="251.89999"
         inkscape:export-ydpi="251.89999"
         inkscape:export-filename="E:\back up Escritorio\Mis Documentos\Diseño Web\Gloobus-web\path3266.png" />
      <path
         inkscape:export-filename="E:\back up Escritorio\Mis Documentos\Diseño Web\Gloobus-web\path3266.png"
         inkscape:export-ydpi="251.89999"
         inkscape:export-xdpi="251.89999"
         style="fill:url(#linearGradient3091);fill-opacity:1;fill-rule:evenodd;stroke:none;display:inline;enable-background:new"
         d="m 320.53268,173.07559 c -0.30247,-1.31721 1.28203,-2.08035 2.36092,-1.93943 2.10893,0.27544 3.10888,2.63715 2.62326,4.52954 -0.73847,2.87767 -4.00989,4.1726 -6.692,3.31066 -3.64452,-1.17125 -5.24204,-5.39472 -3.99353,-8.86357 1.59037,-4.41867 6.775,-6.32422 11.02305,-4.68188 5.18824,2.00581 7.40084,8.16606 5.36381,13.19761 -2.41529,5.96586 -9.54686,8.48951 -15.3541,6.05309 -6.73601,-2.82608 -9.56783,-10.94137 -6.7341,-17.53163 3.2317,-7.51581 12.32133,-10.66012 19.68518,-7.42432 8.28567,3.64084 11.73843,13.71842 8.10438,21.86566 -4.04438,9.06711 -15.09701,12.83331 -24.01623,8.79554 -9.83635,-4.45295 -13.911,-16.49642 -9.47469,-26.19968 3.47855,-7.60842 11.43059,-12.39586 19.75217,-12.18018"
         id="path3089"
         inkscape:connector-curvature="0" />
      <path
         inkscape:connector-curvature="0"
         id="path3093"
         d="m 312.37288,244.75291 c -0.21173,-0.92205 0.89742,-1.45625 1.65264,-1.3576 1.47625,0.19281 2.17622,1.846 1.83628,3.17068 -0.51693,2.01437 -2.80692,2.92082 -4.6844,2.31746 -2.55116,-0.81988 -3.66943,-3.77631 -2.79547,-6.2045 1.11326,-3.09307 4.7425,-4.42696 7.71614,-3.27732 3.63177,1.40407 5.18059,5.71625 3.75466,9.23833 -1.6907,4.1761 -6.6828,5.94266 -10.74787,4.23717 -4.71521,-1.97826 -6.69748,-7.65897 -4.71387,-12.27215 2.26219,-5.26107 8.62493,-7.46208 13.77963,-5.19702 5.79997,2.54859 8.2169,9.60289 5.67307,15.30596 -2.83107,6.34698 -10.56791,8.98332 -16.81137,6.15688 -6.88544,-3.11706 -9.7377,-11.5475 -6.63228,-18.33978 2.43498,-5.32589 8.00141,-8.6771 13.82652,-8.52613"
         style="fill:url(#linearGradient3095);fill-opacity:1;fill-rule:evenodd;stroke:none;display:inline;enable-background:new"
         inkscape:export-xdpi="251.89999"
         inkscape:export-ydpi="251.89999"
         inkscape:export-filename="E:\back up Escritorio\Mis Documentos\Diseño Web\Gloobus-web\path3266.png" />
      <path
         inkscape:export-filename="E:\back up Escritorio\Mis Documentos\Diseño Web\Gloobus-web\path3266.png"
         inkscape:export-ydpi="251.89999"
         inkscape:export-xdpi="251.89999"
         style="fill:url(#linearGradient3867);fill-opacity:1;fill-rule:evenodd;stroke:none;display:inline;enable-background:new"
         d="m 432.26634,68.537793 c -0.15124,-0.658603 0.64101,-1.040173 1.18046,-0.969717 1.05446,0.137724 1.55444,1.318577 1.31163,2.26477 -0.36924,1.438837 -2.00495,2.086304 -3.346,1.655334 -1.82226,-0.585627 -2.62102,-2.69736 -1.99677,-4.431787 0.79519,-2.209333 3.3875,-3.16211 5.51153,-2.34094 2.59412,1.002907 3.70042,4.08303 2.6819,6.598803 -1.20764,2.982934 -4.77343,4.244754 -7.67705,3.026544 -3.368,-1.41304 -4.78391,-5.47068 -3.36705,-8.765814 1.61585,-3.757903 6.16067,-5.33006 9.84259,-3.71216 4.14284,1.820424 5.86922,6.859214 4.05219,10.932834 -2.02219,4.53356 -7.5485,6.41666 -12.00811,4.39777 -4.91818,-2.22648 -6.9555,-8.24821 -4.73735,-13.099844 1.73928,-3.80421 5.7153,-6.19793 9.87609,-6.09009"
         id="path3865"
         inkscape:connector-curvature="0" />
      <path
         inkscape:connector-curvature="0"
         id="path3869"
         d="m 428.21307,112.43023 c -0.12099,-0.52688 0.51281,-0.83213 0.94437,-0.77577 0.84357,0.11018 1.24355,1.05486 1.0493,1.81182 -0.29539,1.15107 -1.60396,1.66904 -2.6768,1.32426 -1.45781,-0.4685 -2.09681,-2.15788 -1.59741,-3.54543 0.63615,-1.76746 2.71,-2.52968 4.40922,-1.87275 2.07529,0.80233 2.96033,3.26643 2.14552,5.27904 -0.96611,2.38635 -3.81874,3.39581 -6.14164,2.42124 -2.6944,-1.13043 -3.82713,-4.37654 -2.69364,-7.01265 1.29268,-3.00632 4.92854,-4.26405 7.87407,-2.96973 3.31427,1.45634 4.69538,5.48737 3.24175,8.74627 -1.61775,3.62684 -6.0388,5.13332 -9.60648,3.51821 -3.93455,-1.78118 -5.5644,-6.59856 -3.78988,-10.47987 1.39142,-3.04337 4.57224,-4.95834 7.90087,-4.87207"
         style="fill:url(#linearGradient3871);fill-opacity:1;fill-rule:evenodd;stroke:none;display:inline;enable-background:new"
         inkscape:export-xdpi="251.89999"
         inkscape:export-ydpi="251.89999"
         inkscape:export-filename="E:\back up Escritorio\Mis Documentos\Diseño Web\Gloobus-web\path3266.png" />
      <path
         inkscape:export-filename="E:\back up Escritorio\Mis Documentos\Diseño Web\Gloobus-web\path3266.png"
         inkscape:export-ydpi="251.89999"
         inkscape:export-xdpi="251.89999"
         style="fill:url(#linearGradient3877);fill-opacity:1;fill-rule:evenodd;stroke:none;display:inline;enable-background:new"
         d="m 424.1598,148.32268 c -0.0907,-0.39516 0.38461,-0.6241 0.70828,-0.58183 0.63268,0.0826 0.93266,0.79115 0.78698,1.35887 -0.22155,0.8633 -1.20297,1.25178 -2.0076,0.99319 -1.09336,-0.35137 -1.57261,-1.61841 -1.19806,-2.65907 0.47711,-1.3256 2.0325,-1.89726 3.30691,-1.40456 1.55647,0.60174 2.22025,2.44982 1.60914,3.95928 -0.72458,1.78976 -2.86405,2.54686 -4.60623,1.81593 -2.0208,-0.84782 -2.87035,-3.28241 -2.02023,-5.25949 0.96951,-2.25474 3.69641,-3.19804 5.90556,-2.2273 2.4857,1.09226 3.52153,4.11553 2.43131,6.55971 -1.21331,2.72013 -4.5291,3.84999 -7.20486,2.63865 -2.95092,-1.33588 -4.1733,-4.94892 -2.84241,-7.8599 1.04356,-2.28253 3.42918,-3.71876 5.92565,-3.65406"
         id="path3873"
         inkscape:connector-curvature="0" />
      <path
         style="opacity:0.5;fill:#ffffff;fill-opacity:1;fill-rule:evenodd;stroke:none;display:inline;enable-background:new"
         d="M 153.59375 78 C 121.45266 78.367666 91.198112 97.26739 77.71875 126.75 C 72.687064 137.75551 70.370552 149.51985 70.5625 161.125 C 70.514983 149.84534 72.831571 138.43943 77.71875 127.75 C 91.615539 97.354379 123.35276 78.219547 156.59375 79.03125 L 156.71875 78.03125 C 155.67855 78.00429 154.63056 77.98814 153.59375 78 z M 153.59375 103.84375 L 153.46875 104.84375 C 162.16022 104.63001 170.97556 106.27033 179.25 109.90625 C 203.07132 120.3737 216.90602 144.13904 217.40625 168.78125 C 217.26499 143.78455 203.39309 119.51509 179.25 108.90625 C 171.01515 105.28772 162.24483 103.64852 153.59375 103.84375 z M 153.46875 104.84375 C 153.42692 104.84478 153.38558 104.84264 153.34375 104.84375 L 150.21875 129.6875 C 150.26146 129.68201 150.30102 129.66159 150.34375 129.65625 L 153.46875 104.84375 z M 150.21875 129.6875 C 138.4243 131.20446 127.59813 138.53032 123.3125 150.4375 C 122.10392 153.79543 121.57667 157.34808 121.65625 160.84375 C 121.69265 157.67902 122.22006 154.47274 123.3125 151.4375 C 127.5826 139.57347 138.34922 132.27229 150.09375 130.71875 L 150.21875 129.6875 z M 154.75 154.46875 C 151.80779 154.39271 148.27292 155.82725 146.75 158.34375 L 146.59375 159.625 C 148.14441 156.67857 152.38535 155.11628 155.5625 155.53125 C 162.41651 156.42645 166.342 162.851 166.53125 169.28125 C 166.74629 162.52719 162.77548 155.47334 155.5625 154.53125 C 155.29278 154.49602 155.03319 154.47607 154.75 154.46875 z M 146.59375 159.625 C 146.52874 159.74852 146.46141 159.87159 146.40625 160 L 146.125 162.3125 C 146.05658 162.01454 146.02187 161.72103 146 161.4375 C 145.93406 162.02411 145.97376 162.6539 146.125 163.3125 L 146.59375 159.625 z M 96.1875 161.6875 C 96.447648 181.90869 107.77814 201.45759 127.46875 209.71875 C 150.69769 219.46441 179.21385 209.36347 188.875 185.5 C 190.78671 180.77802 191.73763 175.82111 191.84375 170.875 C 191.63482 175.48848 190.65741 180.0974 188.875 184.5 C 179.21385 208.36347 150.69769 218.46441 127.46875 208.71875 C 108.10272 200.59376 96.802218 181.55109 96.1875 161.6875 z "
         id="path3872" />
      <path
         style="opacity:0.5;fill:#ffffff;fill-opacity:1;fill-rule:evenodd;stroke:none;display:inline;enable-background:new"
         d="M 340.78125 46 C 328.29888 45.67648 316.37407 52.86862 311.15625 64.28125 C 309.34797 68.236386 308.47437 72.45035 308.46875 76.625 C 308.601 72.780239 309.49264 68.919975 311.15625 65.28125 C 316.35668 53.906655 328.21923 46.727378 340.65625 47 L 340.78125 46 z M 339.6875 55.6875 L 339.5625 56.6875 C 342.81553 56.61023 346.12199 57.232981 349.21875 58.59375 C 358.15174 62.519038 363.34366 71.41542 363.53125 80.65625 C 363.70812 71.067686 358.47042 61.65907 349.21875 57.59375 C 346.16144 56.250315 342.90024 55.628475 339.6875 55.6875 z M 339.5625 56.6875 C 339.52026 56.688503 339.47973 56.686265 339.4375 56.6875 L 338.34375 65.375 C 338.38631 65.369593 338.42613 65.348752 338.46875 65.34375 L 339.5625 56.6875 z M 338.34375 65.375 C 333.91279 65.937925 329.85961 68.684106 328.25 73.15625 C 327.78181 74.45707 327.57829 75.834412 327.625 77.1875 C 327.68388 76.169938 327.89886 75.131865 328.25 74.15625 C 329.84409 69.727234 333.83772 67.005592 338.21875 66.40625 L 338.34375 65.375 z M 339.71875 74.6875 C 338.76154 74.752765 337.71301 75.218596 337.15625 75.96875 L 337 77.21875 C 337.58955 76.125863 339.15898 75.564007 340.34375 75.71875 C 342.82919 76.043372 344.24851 78.296027 344.40625 80.625 C 344.66326 77.979505 343.18888 75.090351 340.34375 74.71875 C 340.14146 74.692329 339.93773 74.672569 339.71875 74.6875 z M 337 77.21875 C 336.93959 77.330736 336.85036 77.439798 336.8125 77.5625 C 336.80978 77.571313 336.81509 77.584883 336.8125 77.59375 L 336.8125 77.625 C 336.72983 77.925701 336.73016 78.266409 336.8125 78.625 L 337 77.21875 z M 318.09375 77.0625 C 317.83421 84.974227 322.09101 92.804824 329.78125 96.03125 C 338.49211 99.68588 349.18956 95.8863 352.8125 86.9375 C 353.64139 84.890102 354.00865 82.732129 353.9375 80.59375 C 353.88271 82.402331 353.51138 84.211238 352.8125 85.9375 C 349.18956 94.8863 338.49211 98.68588 329.78125 95.03125 C 322.41724 91.941694 318.21347 84.623573 318.09375 77.0625 z "
         id="path3874" />
      <path
         style="opacity:0.5;fill:#ffffff;fill-opacity:1;fill-rule:evenodd;stroke:none;display:inline;enable-background:new"
         d="M 323.1875 152 C 314.86592 151.78432 306.91605 156.57908 303.4375 164.1875 C 302.20573 166.88167 301.6346 169.75132 301.65625 172.59375 C 301.76186 170.08163 302.35064 167.56472 303.4375 165.1875 C 306.89866 157.61711 314.78629 152.8351 323.0625 153 L 323.1875 152 z M 322.5 158.46875 L 322.375 159.46875 C 324.54529 159.4165 326.74642 159.81088 328.8125 160.71875 C 334.76265 163.33333 338.18176 169.28268 338.3125 175.4375 C 338.55964 168.93159 335.08691 162.47582 328.8125 159.71875 C 326.78557 158.82808 324.63028 158.43453 322.5 158.46875 z M 322.375 159.46875 C 322.33391 159.46974 322.29107 159.46743 322.25 159.46875 L 321.5625 164.9375 C 321.60368 164.9322 321.64622 164.91098 321.6875 164.90625 L 322.375 159.46875 z M 321.5625 164.9375 C 318.61446 165.31716 315.91498 167.1487 314.84375 170.125 C 314.49261 171.10061 314.35617 172.11469 314.4375 173.125 C 314.47675 172.44663 314.60965 171.77541 314.84375 171.125 C 315.90005 168.1902 318.53759 166.3831 321.4375 165.96875 L 321.5625 164.9375 z M 322.46875 171.125 C 321.84611 171.16745 321.19001 171.45905 320.8125 171.9375 L 320.65625 173.15625 C 321.04265 172.41778 322.11093 172.02112 322.90625 172.125 C 324.48795 172.33158 325.41853 173.71201 325.59375 175.1875 C 325.81952 173.39474 324.84319 171.37798 322.90625 171.125 C 322.77139 171.10738 322.61474 171.11505 322.46875 171.125 z M 308.0625 172.875 C 307.82097 178.20757 310.69263 183.51325 315.875 185.6875 C 321.68224 188.12392 328.80346 185.59086 331.21875 179.625 C 331.76917 178.26544 331.98249 176.8264 331.9375 175.40625 C 331.86874 176.49771 331.64044 177.58341 331.21875 178.625 C 328.80346 184.59086 321.68224 187.12392 315.875 184.6875 C 311.01813 182.64981 308.19965 177.85792 308.0625 172.875 z M 320.625 173.1875 C 320.50213 173.44208 320.45563 173.7332 320.53125 174.0625 L 320.625 173.1875 z "
         id="path3876" />
      <path
         style="opacity:0.5;fill:#ffffff;fill-opacity:1;fill-rule:evenodd;stroke:none;display:inline;enable-background:new"
         d="M 314.21875 230 C 308.39364 229.84903 302.84123 233.20536 300.40625 238.53125 C 299.5125 240.4861 299.14017 242.56449 299.1875 244.625 C 299.27028 242.8935 299.65716 241.16968 300.40625 239.53125 C 302.82385 234.24337 308.31403 230.89966 314.09375 231 L 314.21875 230 z M 314.15625 234.53125 C 314.02877 234.52843 313.90853 234.56079 313.78125 234.5625 L 313.65625 235.5625 C 315.17918 235.52421 316.70633 235.76913 318.15625 236.40625 C 322.26447 238.21146 324.65959 242.28628 324.8125 246.53125 C 325.03377 241.93645 322.58706 237.35321 318.15625 235.40625 C 316.86757 234.83999 315.51298 234.56123 314.15625 234.53125 z M 313.65625 235.5625 C 313.61399 235.56356 313.57347 235.56094 313.53125 235.5625 L 313.09375 239.0625 C 313.13687 239.05694 313.17548 239.03592 313.21875 239.03125 L 313.65625 235.5625 z M 313.09375 239.0625 C 311.03066 239.32866 309.1247 240.60455 308.375 242.6875 C 308.12025 243.39528 308.05507 244.14345 308.125 244.875 C 308.16461 244.46678 308.23394 244.07941 308.375 243.6875 C 309.10906 241.64799 310.95613 240.39588 312.96875 240.09375 L 313.09375 239.0625 z M 313.71875 243.375 C 313.32355 243.40194 312.89858 243.59427 312.625 243.875 L 312.46875 245.09375 C 312.74599 244.58695 313.48014 244.33426 314.03125 244.40625 C 315.08145 244.54341 315.73669 245.40373 315.90625 246.375 C 316.13736 245.08702 315.43795 243.58998 314.03125 243.40625 C 313.93685 243.39392 313.82094 243.36803 313.71875 243.375 z M 303.65625 244.84375 C 303.46118 248.598 305.44539 252.34434 309.09375 253.875 C 313.15882 255.58049 318.15305 253.8011 319.84375 249.625 C 320.2651 248.58426 320.41887 247.48955 320.34375 246.40625 C 320.29334 247.16101 320.13537 247.9047 319.84375 248.625 C 318.15305 252.8011 313.15882 254.58049 309.09375 252.875 C 305.77084 251.48088 303.83312 248.24595 303.65625 244.84375 z M 312.4375 245.125 C 312.35149 245.3032 312.32207 245.51949 312.375 245.75 L 312.4375 245.125 z "
         id="path3878" />
      <path
         style="opacity:0.5;fill:#ffffff;fill-opacity:1;fill-rule:evenodd;stroke:none;display:inline;enable-background:new"
         d="M 432.8125 58 C 428.94093 58.188056 425.34933 60.527303 423.71875 64.09375 C 423.05685 65.541486 422.78433 67.100818 422.84375 68.625 C 422.91465 67.426085 423.20009 66.228195 423.71875 65.09375 C 425.44064 61.327582 429.35343 58.942661 433.46875 59 L 433.59375 58 C 433.3337 57.99326 433.0706 57.987463 432.8125 58 z M 433.3125 61.21875 L 433.1875 62.21875 C 434.26988 62.193891 435.37592 62.422255 436.40625 62.875 C 439.25445 64.126542 440.95856 66.878042 441.15625 69.8125 C 441.31736 66.527963 439.57354 63.266754 436.40625 61.875 C 435.41587 61.439808 434.35395 61.211865 433.3125 61.21875 z M 433.1875 62.21875 C 433.14568 62.219711 433.10427 62.21711 433.0625 62.21875 L 432.78125 64.46875 C 432.82312 64.463332 432.8642 64.472989 432.90625 64.46875 L 433.1875 62.21875 z M 432.78125 64.46875 C 431.30828 64.659354 429.94154 65.575261 429.40625 67.0625 C 429.21301 67.599393 429.18238 68.166007 429.25 68.71875 C 429.28434 68.493873 429.32822 68.279303 429.40625 68.0625 C 429.92637 66.617402 431.23235 65.693875 432.65625 65.46875 L 432.78125 64.46875 z M 433.4375 67.5625 C 433.12732 67.521988 432.74992 67.649878 432.5 67.875 L 432.34375 69.0625 C 432.54621 68.707424 433.04771 68.511591 433.4375 68.5625 C 434.13304 68.653345 434.59101 69.211907 434.75 69.84375 C 434.99281 68.897557 434.49196 67.700224 433.4375 67.5625 z M 432.34375 69.0625 C 432.26601 69.198837 432.23929 69.348528 432.28125 69.53125 L 432.34375 69.0625 z M 426.03125 68.875 C 425.88683 71.560761 427.32751 74.248732 429.9375 75.34375 C 432.84112 76.56196 436.38611 75.295434 437.59375 72.3125 C 437.91222 71.525864 438.01504 70.691234 437.9375 69.875 C 437.89064 70.363146 437.78249 70.846304 437.59375 71.3125 C 436.38611 74.295434 432.84112 75.56196 429.9375 74.34375 C 427.65147 73.384649 426.24323 71.205438 426.03125 68.875 z "
         id="path3880" />
      <path
         style="opacity:0.5;fill:#ffffff;fill-opacity:1;fill-rule:evenodd;stroke:none;display:inline;enable-background:new"
         d="M 429.28125 104 C 425.95262 103.91373 422.76642 105.83163 421.375 108.875 C 420.80734 110.11661 420.56315 111.44685 420.65625 112.75 C 420.70827 111.77548 420.95341 110.79712 421.375 109.875 C 422.74907 106.86958 425.87302 104.96396 429.15625 105 L 429.28125 104 z M 429.09375 106.59375 L 428.96875 107.59375 C 429.83396 107.57418 430.70766 107.73185 431.53125 108.09375 C 433.79956 109.09048 435.14425 111.28918 435.3125 113.625 C 435.51295 110.94019 434.12052 108.23152 431.53125 107.09375 C 430.74642 106.74888 429.91922 106.59146 429.09375 106.59375 z M 428.96875 107.59375 C 428.92803 107.59467 428.8844 107.59202 428.84375 107.59375 L 428.625 109.1875 C 428.66734 109.18198 428.70743 109.16026 428.75 109.15625 L 428.96875 107.59375 z M 428.625 109.1875 C 427.44798 109.34098 426.36531 110.06138 425.9375 111.25 C 425.76471 111.73008 425.75722 112.22948 425.84375 112.71875 C 425.87155 112.56168 425.88285 112.40183 425.9375 112.25 C 426.34997 111.10401 427.37271 110.40671 428.5 110.21875 L 428.625 109.1875 z M 429.15625 111.65625 C 428.91381 111.62459 428.60667 111.70324 428.40625 111.875 L 428.25 113.0625 C 428.40691 112.7706 428.84005 112.61496 429.15625 112.65625 C 429.6737 112.72383 430.03863 113.10286 430.1875 113.5625 C 430.19747 113.53089 430.21038 113.50138 430.21875 113.46875 C 430.413 112.71179 429.99982 111.76643 429.15625 111.65625 z M 423.25 112.59375 C 422.9994 114.84359 424.15455 117.14403 426.34375 118.0625 C 428.66665 119.03707 431.53389 118.0426 432.5 115.65625 C 432.7688 114.99231 432.83289 114.28009 432.75 113.59375 C 432.70726 113.95185 432.63861 114.31388 432.5 114.65625 C 431.53389 117.0426 428.66665 118.03707 426.34375 117.0625 C 424.48627 116.2832 423.39227 114.491 423.25 112.59375 z M 428.25 113.09375 C 428.20085 113.19558 428.1885 113.30578 428.21875 113.4375 L 428.25 113.09375 z "
         id="path3882" />
      <path
         style="opacity:0.5;fill:#ffffff;fill-opacity:1;fill-rule:evenodd;stroke:none;display:inline;enable-background:new"
         d="M 424.96875 142 C 422.47228 141.9353 420.07481 143.37372 419.03125 145.65625 C 418.59709 146.60587 418.41936 147.62938 418.5 148.625 C 418.55662 147.95703 418.74219 147.2885 419.03125 146.65625 C 420.05749 144.41159 422.39265 142.98518 424.84375 143 L 424.96875 142 z M 424.84375 143.9375 L 424.71875 144.96875 C 425.37172 144.9522 426.03458 145.03933 426.65625 145.3125 C 428.3033 146.03624 429.29155 147.62337 429.46875 149.3125 C 429.66215 147.26661 428.63024 145.17991 426.65625 144.3125 C 426.07482 144.05701 425.45543 143.93881 424.84375 143.9375 z M 424.71875 144.96875 C 424.67748 144.9698 424.63493 144.9666 424.59375 144.96875 L 424.46875 145.875 C 424.50924 145.8697 424.55299 145.87846 424.59375 145.875 L 424.71875 144.96875 z M 424.46875 145.875 C 423.58657 145.99054 422.75817 146.54654 422.4375 147.4375 C 422.29704 147.82775 422.28796 148.23131 422.375 148.625 C 422.3912 148.56227 422.41541 148.49889 422.4375 148.4375 C 422.74298 147.58874 423.51095 147.05535 424.34375 146.90625 L 424.46875 145.875 z M 424.59375 147.75 C 424.50509 147.77169 424.41772 147.82433 424.34375 147.875 L 424.1875 149.0625 C 424.29809 148.83338 424.63225 148.7183 424.875 148.75 C 425.20245 148.79275 425.42895 149.00945 425.5625 149.28125 C 425.5884 149.22007 425.63906 149.16073 425.65625 149.09375 C 425.80193 148.52603 425.50768 147.8326 424.875 147.75 C 424.79408 147.73943 424.68241 147.72831 424.59375 147.75 z M 420.46875 148.6875 C 420.27296 150.38027 421.10252 152.12131 422.75 152.8125 C 424.49218 153.54343 426.65042 152.78976 427.375 151 C 427.59224 150.46342 427.61905 149.86346 427.53125 149.3125 C 427.49503 149.54001 427.46332 149.78185 427.375 150 C 426.65042 151.78976 424.49218 152.54343 422.75 151.8125 C 421.43474 151.26069 420.64598 150.02005 420.46875 148.6875 z "
         id="path3884" />
    </g>
    <g
       inkscape:groupmode="layer"
       id="layer5"
       inkscape:label="Highlights"
       style="display:inline"
       sodipodi:insensitive="true">
      <rect
         ry="9"
         y="307"
         x="-265"
         height="42"
         width="42"
         id="rect4884"
         style="opacity:0.20;color:#bebebe;fill:none;stroke:#000000;stroke-width:2;stroke-miterlimit:4;stroke-opacity:1;stroke-dasharray:none;marker:none;visibility:visible;display:inline;overflow:visible;enable-background:accumulate"
         transform="matrix(0,1,1,0,-16,488)"
         clip-path="url(#clipPath4891)" />
      <rect
         style="opacity:0.20;color:#bebebe;fill:none;stroke:#000000;stroke-width:2;stroke-miterlimit:4;stroke-opacity:1;stroke-dasharray:none;marker:none;visibility:visible;display:inline;overflow:visible;enable-background:accumulate"
         id="rect5311"
         width="16"
         height="16"
         x="-228"
         y="304"
         ry="3"
         clip-path="url(#clipPath3855)"
         transform="matrix(0,-1,1,0,112,-72)" />
      <rect
         ry="50"
         y="46"
         x="34"
         height="220"
         width="220"
         id="rect3858"
         style="opacity:0.20;color:#bebebe;fill:none;stroke:#000000;stroke-width:2;stroke-miterlimit:4;stroke-opacity:1;stroke-dasharray:none;marker:none;visibility:visible;display:inline;overflow:visible;enable-background:accumulate"
         clip-path="url(#clipPath3862)" />
      <rect
         ry="12.5"
         y="142"
         x="290"
         height="60"
         width="60"
         id="rect4175"
         style="opacity:0.20;color:#bebebe;fill:none;stroke:#000000;stroke-width:2;stroke-miterlimit:4;stroke-opacity:1;stroke-dasharray:none;marker:none;visibility:visible;display:inline;overflow:visible;enable-background:accumulate"
         clip-path="url(#clipPath4187)" />
      <rect
         style="opacity:0.20;color:#bebebe;fill:none;stroke:#000000;stroke-width:2;stroke-miterlimit:4;stroke-opacity:1;stroke-dasharray:none;marker:none;visibility:visible;display:inline;overflow:visible;enable-background:accumulate"
         id="rect4342"
         width="88"
         height="88"
         x="292"
         y="32"
         ry="18"
         clip-path="url(#clipPath4346)" />
      <rect
         ry="5"
         y="101"
         x="417"
         height="22"
         width="22"
         id="rect3866"
         style="opacity:0.20;color:#bebebe;fill:none;stroke:#000000;stroke-width:2;stroke-miterlimit:4;stroke-opacity:1;stroke-dasharray:none;marker:none;visibility:visible;display:inline;overflow:visible;enable-background:accumulate"
         clip-path="url(#clipPath3871)" />
      <rect
         style="opacity:0.20;color:#bebebe;fill:none;stroke:#000000;stroke-width:2;stroke-miterlimit:4;stroke-opacity:1;stroke-dasharray:none;marker:none;visibility:visible;display:inline;overflow:visible;enable-background:accumulate"
         id="rect3877"
         width="30"
         height="30"
         x="417"
         y="53"
         ry="7"
         clip-path="url(#clipPath3881)" />
    </g>
  </g>
</svg>
