<?xml version="1.0" encoding="UTF-8" standalone="no"?>
<!-- Created with Inkscape (http://www.inkscape.org/) -->

<svg
   xmlns:dc="http://purl.org/dc/elements/1.1/"
   xmlns:cc="http://creativecommons.org/ns#"
   xmlns:rdf="http://www.w3.org/1999/02/22-rdf-syntax-ns#"
   xmlns:svg="http://www.w3.org/2000/svg"
   xmlns="http://www.w3.org/2000/svg"
   xmlns:xlink="http://www.w3.org/1999/xlink"
   xmlns:sodipodi="http://sodipodi.sourceforge.net/DTD/sodipodi-0.dtd"
   xmlns:inkscape="http://www.inkscape.org/namespaces/inkscape"
   inkscape:export-ydpi="90.000000"
   inkscape:export-xdpi="90.000000"
   width="480"
   height="300"
   id="svg11300"
   sodipodi:version="0.32"
   inkscape:version="0.48.4 r9939"
   sodipodi:docname="gmpc.svg"
   inkscape:output_extension="org.inkscape.output.svg.inkscape"
   version="1.0"
   style="display:inline;enable-background:new"
   inkscape:export-filename="/home/sam/moka-next-template.png">
  <sodipodi:namedview
     stroke="#ef2929"
     fill="#f57900"
     id="base"
     pagecolor="#777777"
     bordercolor="#666666"
     borderopacity="0.25490196"
     inkscape:pageopacity="0"
     inkscape:pageshadow="2"
     inkscape:zoom="1"
     inkscape:cx="408.07875"
     inkscape:cy="234.26122"
     inkscape:current-layer="layer7"
     showgrid="false"
     inkscape:grid-bbox="true"
     inkscape:document-units="px"
     inkscape:showpageshadow="false"
     inkscape:window-width="1364"
     inkscape:window-height="700"
     inkscape:window-x="0"
     inkscape:window-y="28"
     width="400px"
     height="300px"
     inkscape:snap-nodes="true"
     inkscape:snap-bbox="true"
     gridtolerance="10000"
     inkscape:object-nodes="true"
     inkscape:snap-grids="true"
     showguides="true"
     inkscape:guide-bbox="true"
     inkscape:window-maximized="1"
     inkscape:bbox-nodes="true"
     inkscape:bbox-paths="true"
     inkscape:snap-bbox-edge-midpoints="true"
     inkscape:snap-bbox-midpoints="true">
    <inkscape:grid
       spacingy="1px"
       spacingx="1px"
       id="grid5883"
       type="xygrid"
       enabled="true"
       visible="true"
       empspacing="4"
       snapvisiblegridlinesonly="true"
       dotted="false"
       color="#000000"
       opacity="0.1254902"
       empcolor="#203ef3"
       empopacity="0.36470588" />
    <inkscape:grid
       type="xygrid"
       id="grid11592"
       empspacing="8"
       visible="true"
       enabled="false"
       spacingx="0.5px"
       spacingy="0.5px"
       color="#ff0000"
       opacity="0.1254902"
       empcolor="#ff0000"
       empopacity="0.25098039"
       snapvisiblegridlinesonly="true"
       dotted="true" />
  </sodipodi:namedview>
  <defs
     id="defs3">
    <linearGradient
       inkscape:collect="always"
       xlink:href="#linearGradient25869-3"
       id="linearGradient4254"
       x1="35"
       y1="156"
       x2="253"
       y2="156"
       gradientUnits="userSpaceOnUse"
       gradientTransform="matrix(0,-1,1,0,-12,300)" />
    <linearGradient
       inkscape:collect="always"
       xlink:href="#linearGradient25869-3"
       id="linearGradient4256"
       x1="417"
       y1="148"
       x2="431"
       y2="148"
       gradientUnits="userSpaceOnUse"
       gradientTransform="matrix(0,-1,1,0,276,572)" />
    <linearGradient
       inkscape:collect="always"
       xlink:href="#linearGradient25869-3"
       id="linearGradient4258"
       x1="418"
       y1="112"
       x2="438"
       y2="112"
       gradientUnits="userSpaceOnUse"
       gradientTransform="matrix(0,-1,1,0,316,540)" />
    <linearGradient
       inkscape:collect="always"
       xlink:href="#linearGradient25869-3"
       id="linearGradient4260"
       x1="418"
       y1="68"
       x2="446"
       y2="68"
       gradientUnits="userSpaceOnUse"
       gradientTransform="matrix(0,-1,1,0,364,500)" />
    <linearGradient
       inkscape:collect="always"
       xlink:href="#linearGradient25869-3"
       id="linearGradient3998"
       gradientUnits="userSpaceOnUse"
       gradientTransform="matrix(0,-1,1,0,68,556)"
       x1="292"
       y1="244"
       x2="332"
       y2="244" />
    <linearGradient
       inkscape:collect="always"
       xlink:href="#linearGradient25869-3"
       id="linearGradient4000"
       gradientUnits="userSpaceOnUse"
       gradientTransform="matrix(0,-1,1,0,260,412)"
       x1="293"
       y1="76"
       x2="379"
       y2="76" />
    <linearGradient
       inkscape:collect="always"
       xlink:href="#linearGradient25869-3"
       id="linearGradient4002"
       gradientUnits="userSpaceOnUse"
       gradientTransform="matrix(0,-1,1,0,148,492)"
       x1="291"
       y1="172"
       x2="349"
       y2="172" />
    <linearGradient
       inkscape:collect="always"
       id="linearGradient25869-3">
      <stop
         style="stop-color:#203a6d;stop-opacity:1"
         offset="0"
         id="stop25871-4" />
      <stop
         style="stop-color:#3465a4;stop-opacity:1"
         offset="1"
         id="stop25873-6" />
    </linearGradient>
  </defs>
  <metadata
     id="metadata4">
    <rdf:RDF>
      <cc:Work
         rdf:about="">
        <dc:format>image/svg+xml</dc:format>
        <dc:type
           rdf:resource="http://purl.org/dc/dcmitype/StillImage" />
        <dc:creator>
          <cc:Agent>
            <dc:title>Sam Hewitt</dc:title>
          </cc:Agent>
        </dc:creator>
        <dc:source />
        <cc:license
           rdf:resource="" />
        <dc:title />
        <dc:subject>
          <rdf:Bag />
        </dc:subject>
        <dc:date />
        <dc:rights>
          <cc:Agent>
            <dc:title />
          </cc:Agent>
        </dc:rights>
        <dc:publisher>
          <cc:Agent>
            <dc:title />
          </cc:Agent>
        </dc:publisher>
        <dc:identifier />
        <dc:relation />
        <dc:language />
        <dc:coverage />
        <dc:description />
        <dc:contributor>
          <cc:Agent>
            <dc:title />
          </cc:Agent>
        </dc:contributor>
      </cc:Work>
      <cc:Work
         rdf:about="">
        <dc:format>image/svg+xml</dc:format>
        <dc:type
           rdf:resource="http://purl.org/dc/dcmitype/StillImage" />
      </cc:Work>
    </rdf:RDF>
  </metadata>
  <g
     style="display:inline"
     inkscape:groupmode="layer"
     inkscape:label="Icon"
     id="layer1">
    <g
       style="display:none"
       inkscape:label="Baseplate"
       id="layer7"
       inkscape:groupmode="layer">
      <text
         y="19.745117"
         xml:space="preserve"
         x="15.006836"
         style="font-style:normal;font-variant:normal;font-weight:normal;font-stretch:normal;line-height:0%;font-family:'DejaVu Sans';-inkscape-font-specification:'DejaVu Sans';display:inline;fill:#000000;fill-opacity:1;stroke:none;enable-background:new"
         inkscape:label="context"
         id="context"><tspan
           style="font-style:normal;font-variant:normal;font-weight:normal;font-stretch:normal;font-size:18px;line-height:1.25;font-family:'DejaVu Sans';-inkscape-font-specification:'DejaVu Sans'"
           y="19.745117"
           x="15.006836"
           sodipodi:role="line"
           id="tspan3933">apps</tspan></text>
      <text
         y="19.745117"
         xml:space="preserve"
         x="122.48828"
         style="font-style:normal;font-variant:normal;font-weight:bold;font-stretch:normal;line-height:0%;font-family:'DejaVu Sans';-inkscape-font-specification:'DejaVu Sans Bold';text-align:start;writing-mode:lr-tb;text-anchor:start;display:inline;fill:#000000;fill-opacity:1;stroke:none;enable-background:new"
         inkscape:label="icon-name"
         id="icon-name"><tspan
           style="font-style:normal;font-variant:normal;font-weight:bold;font-stretch:normal;font-size:18px;line-height:1.25;font-family:'DejaVu Sans';-inkscape-font-specification:'DejaVu Sans Bold'"
           y="19.745117"
           x="122.48828"
           sodipodi:role="line"
           id="tspan3937">gmpc</tspan></text>
      <rect
         style="fill:#eeeeec;fill-opacity:1;fill-rule:nonzero;stroke:none;stroke-width:2;marker:none;visibility:visible;display:inline;overflow:visible;enable-background:accumulate"
         id="rect16x16"
         width="16"
         height="16"
         x="416"
         y="140"
         inkscape:label="16x16" />
      <rect
         style="fill:#d4d4d4;fill-opacity:1;fill-rule:nonzero;stroke:none;stroke-width:2;marker:none;visibility:visible;display:inline;overflow:visible;enable-background:accumulate"
         id="rect24x24"
         width="24"
         height="24"
         x="416"
         y="100"
         inkscape:label="24x24" />
      <rect
         style="fill:#eeeeec;fill-opacity:1;fill-rule:nonzero;stroke:none;stroke-width:2;marker:none;visibility:visible;display:inline;overflow:visible;enable-background:accumulate"
         id="rect32x32"
         width="32"
         height="32"
         x="416"
         y="52"
         inkscape:label="32x32" />
      <rect
         inkscape:label="22x22"
         y="101"
         x="417"
         height="22"
         width="22"
         id="rect22x22"
         style="fill:#eeeeec;fill-opacity:1;fill-rule:nonzero;stroke:none;stroke-width:2;marker:none;visibility:visible;display:inline;overflow:visible;enable-background:accumulate" />
      <rect
         inkscape:label="48x48"
         y="220"
         x="288"
         height="48"
         width="48"
         id="rect48x48"
         style="fill:#eeeeec;fill-opacity:1;fill-rule:nonzero;stroke:none;stroke-width:2;marker:none;visibility:visible;display:inline;overflow:visible;enable-background:accumulate" />
      <rect
         style="fill:#eeeeec;fill-opacity:1;fill-rule:nonzero;stroke:none;stroke-width:2;marker:none;visibility:visible;display:inline;overflow:visible;enable-background:accumulate"
         id="rect256x256"
         width="256"
         height="256"
         x="16"
         y="28"
         inkscape:label="256x256" />
      <rect
         style="fill:#eeeeec;fill-opacity:1;fill-rule:nonzero;stroke:none;stroke-width:2;marker:none;visibility:visible;display:inline;overflow:visible;enable-background:accumulate"
         id="rect64x64"
         width="64"
         height="64"
         x="288"
         y="140"
         inkscape:label="64x64" />
      <rect
         style="fill:#eeeeec;fill-opacity:1;fill-rule:nonzero;stroke:none;stroke-width:2;marker:none;visibility:visible;display:inline;overflow:visible;enable-background:accumulate"
         id="rect96x96"
         width="96"
         height="96"
         x="288"
         y="28"
         inkscape:label="96x96" />
    </g>
    <g
       inkscape:groupmode="layer"
       id="layer4"
       inkscape:label="Shadow"
       style="display:inline"
       sodipodi:insensitive="true">
      <rect
         ry="50"
         y="47"
         x="34"
         height="220"
         width="220"
         id="rect4114"
         style="opacity:0.15;color:#bebebe;fill:#000000;fill-opacity:1;fill-rule:nonzero;stroke:none;stroke-width:0;marker:none;visibility:visible;display:inline;overflow:visible;enable-background:accumulate" />
      <rect
         style="opacity:0.15;color:#bebebe;fill:#000000;fill-opacity:1;fill-rule:nonzero;stroke:none;stroke-width:0;marker:none;visibility:visible;display:inline;overflow:visible;enable-background:accumulate"
         id="rect4120"
         width="30"
         height="30"
         x="417"
         y="54"
         ry="7" />
      <rect
         transform="scale(1,-1)"
         ry="9"
         y="-266"
         x="291"
         height="42"
         width="42"
         id="rect4122"
         style="opacity:0.15;color:#bebebe;fill:#000000;fill-opacity:1;fill-rule:nonzero;stroke:none;stroke-width:0;marker:none;visibility:visible;display:inline;overflow:visible;enable-background:accumulate" />
      <rect
         style="opacity:0.15;color:#bebebe;fill:#000000;fill-opacity:1;fill-rule:nonzero;stroke:none;stroke-width:0;marker:none;visibility:visible;display:inline;overflow:visible;enable-background:accumulate"
         id="rect4124"
         width="88"
         height="88"
         x="292"
         y="33"
         ry="18" />
      <rect
         ry="12.5"
         y="143"
         x="290"
         height="60"
         width="60"
         id="rect4126"
         style="opacity:0.15;color:#bebebe;fill:#000000;fill-opacity:1;fill-rule:nonzero;stroke:none;stroke-width:0;marker:none;visibility:visible;display:inline;overflow:visible;enable-background:accumulate" />
      <path
         id="path4268"
         d="m 422,101 c -2.77,0 -5,2.23 -5,5 l 0,12 c 0,2.77 2.23,5 5,5 l 12,0 c 2.77,0 5,-2.23 5,-5 l 0,-12 c 0,-2.77 -2.23,-5 -5,-5 z"
         style="opacity:0.15;color:#bebebe;fill:#000000;fill-opacity:1;fill-rule:nonzero;stroke:none;stroke-width:0;marker:none;visibility:visible;display:inline;overflow:visible;enable-background:accumulate"
         inkscape:connector-curvature="0"
         sodipodi:nodetypes="sssssssss" />
      <path
         id="path4270"
         d="m 419,140 c -1.662,0 -3,1.338 -3,3 l 0,10 c 0,1.662 1.338,3 3,3 l 10,0 c 1.662,0 3,-1.338 3,-3 l 0,-10 c 0,-1.662 -1.338,-3 -3,-3 z"
         style="opacity:0.15;color:#bebebe;fill:#000000;fill-opacity:1;fill-rule:nonzero;stroke:none;stroke-width:0;marker:none;visibility:visible;display:inline;overflow:visible;enable-background:accumulate"
         inkscape:connector-curvature="0"
         sodipodi:nodetypes="sssssssss" />
    </g>
    <g
       inkscape:groupmode="layer"
       id="layer2"
       inkscape:label="Background"
       style="display:inline">
      <path
         style="color:#bebebe;fill:url(#linearGradient4254);fill-opacity:1.0;fill-rule:nonzero;stroke:none;stroke-width:2;marker:none;visibility:visible;display:inline;overflow:visible;enable-background:accumulate"
         d="M 84 46.5 C 56.568735 46.5 34.5 68.568732 34.5 96 L 34.5 216 C 34.5 243.43127 56.568735 265.5 84 265.5 L 204 265.5 C 231.43127 265.5 253.5 243.43127 253.5 216 L 253.5 96 C 253.5 68.568732 231.43127 46.5 204 46.5 L 84 46.5 z "
         id="path4200" />
      <path
         style="color:#bebebe;fill:url(#linearGradient4256);fill-opacity:1.0;fill-rule:nonzero;stroke:none;stroke-width:2;marker:none;visibility:visible;display:inline;overflow:visible;enable-background:accumulate"
         d="M 419 140.5 C 417.6156 140.5 416.5 141.6156 416.5 143 L 416.5 153 C 416.5 154.3844 417.6156 155.5 419 155.5 L 429 155.5 C 430.3844 155.5 431.5 154.3844 431.5 153 L 431.5 143 C 431.5 141.6156 430.3844 140.5 429 140.5 L 419 140.5 z "
         id="path4202" />
      <path
         style="color:#bebebe;fill:url(#linearGradient4258);fill-opacity:1.0;fill-rule:nonzero;stroke:none;stroke-width:2;marker:none;visibility:visible;display:inline;overflow:visible;enable-background:accumulate"
         d="M 422 101.5 C 419.50301 101.5 417.5 103.50301 417.5 106 L 417.5 118 C 417.5 120.49699 419.50301 122.5 422 122.5 L 434 122.5 C 436.49699 122.5 438.5 120.49699 438.5 118 L 438.5 106 C 438.5 103.50301 436.49699 101.5 434 101.5 L 422 101.5 z "
         id="path4204" />
      <path
         style="color:#bebebe;fill:url(#linearGradient4260);fill-opacity:1.0;fill-rule:nonzero;stroke:none;stroke-width:2;marker:none;visibility:visible;display:inline;overflow:visible;enable-background:accumulate"
         d="M 424 53.5 C 420.39346 53.5 417.5 56.393464 417.5 60 L 417.5 76 C 417.5 79.606536 420.39346 82.5 424 82.5 L 440 82.5 C 443.60654 82.5 446.5 79.606536 446.5 76 L 446.5 60 C 446.5 56.393464 443.60654 53.5 440 53.5 L 424 53.5 z "
         id="path4206" />
      <path
         style="color:#bebebe;fill:url(#linearGradient3998);fill-opacity:1.0;fill-rule:nonzero;stroke:none;stroke-width:2;marker:none;visibility:visible;display:inline;overflow:visible;enable-background:accumulate"
         d="M 300 223.5 C 295.28469 223.5 291.5 227.28469 291.5 232 L 291.5 256 C 291.5 260.71531 295.28469 264.5 300 264.5 L 324 264.5 C 328.71531 264.5 332.5 260.71531 332.5 256 L 332.5 232 C 332.5 227.28469 328.71531 223.5 324 223.5 L 300 223.5 z "
         id="path4208" />
      <path
         style="color:#bebebe;fill:url(#linearGradient4000);fill-opacity:1.0;fill-rule:nonzero;stroke:none;stroke-width:2;marker:none;visibility:visible;display:inline;overflow:visible;enable-background:accumulate"
         d="M 310 32.5 C 300.29745 32.5 292.5 40.297452 292.5 50 L 292.5 102 C 292.5 111.70255 300.29745 119.5 310 119.5 L 362 119.5 C 371.70255 119.5 379.5 111.70255 379.5 102 L 379.5 50 C 379.5 40.297452 371.70255 32.5 362 32.5 L 310 32.5 z "
         id="path4210" />
      <path
         style="color:#bebebe;fill:url(#linearGradient4002);fill-opacity:1.0;fill-rule:nonzero;stroke:none;stroke-width:2;marker:none;visibility:visible;display:inline;overflow:visible;enable-background:accumulate"
         d="M 302.5 142.5 C 295.84498 142.5 290.5 147.84498 290.5 154.5 L 290.5 189.5 C 290.5 196.15502 295.84498 201.5 302.5 201.5 L 337.5 201.5 C 344.15502 201.5 349.5 196.15502 349.5 189.5 L 349.5 154.5 C 349.5 147.84498 344.15502 142.5 337.5 142.5 L 302.5 142.5 z "
         id="path4212" />
    </g>
    <g
       inkscape:groupmode="layer"
       id="layer6"
       inkscape:label="Symbols"
       style="display:inline">
      <path
         inkscape:connector-curvature="0"
         id="path3888"
         d="m 343.54599,46.999995 -3.63289,0.04844 0,41.25348 c 0,0 -7.20649,-3.102637 -12.43256,0.177608 -5.94758,3.735509 -8.89753,10.357877 -6.58764,14.789897 2.3099,4.43202 9.01639,4.99494 14.96751,1.2594 4.24574,-2.66345 6.94548,-6.796857 7.31422,-10.559598 l 0,-26.09222 c 16.54011,-2.310034 13.8754,12.229037 13.67581,16.097738 8.30108,-18.133922 5.98291,-27.050124 -13.30445,-36.974744 z m -23.0083,2.87402 -1.6792,5.957939 -6.5715,-1.711495 -0.58126,2.082857 6.57149,1.711494 -0.90418,3.116212 -6.18399,-1.614617 -0.58126,2.082856 6.18399,1.614618 -1.79223,6.329301 2.17973,0.54897 1.77608,-6.313155 3.22924,0.855748 -1.6792,5.957939 2.16358,0.565116 1.67921,-5.957939 6.57149,1.727641 0.58126,-2.082857 -6.57149,-1.727641 0.90418,-3.116212 6.18399,1.630764 0.58126,-2.082857 -6.18398,-1.630764 1.79222,-6.313155 -2.16359,-0.565116 -1.79222,6.313155 -3.22924,-0.855747 1.67921,-5.957939 -2.16359,-0.565116 z m -0.0969,8.605912 3.22924,0.855747 -0.90419,3.116212 -3.22923,-0.855747 0.90418,-3.116212 z"
         style="opacity:0.2;fill:#000000;fill-opacity:1;stroke:none;display:inline;enable-background:new" />
      <path
         style="opacity:0.2;fill:#000000;fill-opacity:1;stroke:none;display:inline;enable-background:new"
         d="m 325.03066,152.99999 -2.42193,0.0323 0,27.50232 c 0,0 -4.80432,-2.06843 -8.28837,0.1184 -3.96505,2.49034 -5.93169,6.90526 -4.39176,9.85994 1.53993,2.95468 6.01093,3.32996 9.97834,0.8396 2.83049,-1.77564 4.63032,-4.53124 4.87615,-7.03974 l 0,-17.39481 c 11.02674,-1.54002 9.25026,8.15269 9.1172,10.73183 5.53406,-12.08929 3.98861,-18.03342 -8.86963,-24.64983 z m -15.33887,1.91601 -1.11946,3.97196 -4.381,-1.14099 -0.38751,1.38857 4.38099,1.14099 -0.60278,2.07748 -4.12266,-1.07641 -0.38751,1.38857 4.12266,1.07641 -1.19482,4.21953 1.45315,0.36598 1.18406,-4.20877 2.15282,0.5705 -1.11946,3.97196 1.44238,0.37674 1.11948,-3.97195 4.38099,1.15176 0.38751,-1.38858 -4.381,-1.15176 0.60279,-2.07747 4.12266,1.08718 0.38751,-1.38858 -4.12266,-1.08717 1.19482,-4.20877 -1.4424,-0.37675 -1.19481,4.20877 -2.15283,-0.57049 1.11948,-3.97196 -1.4424,-0.37675 z m -0.0646,5.73728 2.15283,0.5705 -0.60279,2.07747 -2.15282,-0.5705 0.60278,-2.07747 z"
         id="path3890"
         inkscape:connector-curvature="0" />
      <path
         inkscape:connector-curvature="0"
         id="path3892"
         d="m 315.52146,230.99999 -1.69536,0.0226 0,19.25162 c 0,0 -3.36302,-1.4479 -5.80185,0.0829 -2.77554,1.74324 -4.15218,4.83368 -3.07423,6.90196 1.07795,2.06827 4.20765,2.33097 6.98483,0.58772 1.98134,-1.24295 3.24123,-3.17187 3.41331,-4.92782 l 0,-12.17636 c 7.71871,-1.07802 6.47518,5.70688 6.38203,7.51228 3.87385,-8.46251 2.79203,-12.6234 -6.20873,-17.25488 z m -10.73721,1.34121 -0.78362,2.78037 -3.0667,-0.79869 -0.27126,0.972 3.06669,0.79869 -0.42194,1.45423 -2.88586,-0.75348 -0.27126,0.972 2.88586,0.75348 -0.83637,2.95367 1.0172,0.25619 0.82884,-2.94614 1.50698,0.39935 -0.78362,2.78037 1.00966,0.26372 0.78364,-2.78036 3.06669,0.80623 0.27126,-0.97201 -3.0667,-0.80623 0.42195,-1.45423 2.88586,0.76103 0.27126,-0.97201 -2.88586,-0.76102 0.83637,-2.94614 -1.00968,-0.26372 -0.83637,2.94614 -1.50698,-0.39934 0.78364,-2.78038 -1.00968,-0.26372 z m -0.0452,4.01609 1.50698,0.39935 -0.42195,1.45423 -1.50698,-0.39935 0.42195,-1.45423 z"
         style="opacity:0.2;fill:#000000;fill-opacity:1;stroke:none;display:inline;enable-background:new" />
      <path
         style="opacity:0.2;fill:#000000;fill-opacity:1;stroke:none;display:inline;enable-background:new"
         d="m 164.12263,76.999996 -9.68771,0.129173 0,110.009281 c 0,0 -19.2173,-8.2737 -33.15349,0.47362 -15.86021,9.96136 -23.726747,27.62101 -17.56704,39.43972 6.15973,11.81872 24.04371,13.31984 39.91336,3.3584 11.32197,-7.10253 18.52128,-18.12494 19.50459,-28.15892 l 0,-69.57925 c 44.10696,-6.16009 37.00106,32.61076 36.46882,42.9273 22.13622,-48.35713 15.95443,-72.13366 -35.47853,-98.599322 z m -61.35547,7.664053 -4.477857,15.887841 -17.524,-4.56399 -1.55003,5.55429 17.52397,4.56398 -2.41114,8.3099 -16.49064,-4.30564 -1.55003,5.55428 16.49064,4.30565 -4.77928,16.87813 5.81261,1.46392 4.73622,-16.83508 8.611297,2.282 -4.47786,15.88784 5.76954,1.50697 4.4779,-15.88784 17.52397,4.60705 1.55003,-5.55429 -17.52398,-4.60704 2.41115,-8.3099 16.49064,4.3487 1.55003,-5.55428 -16.49062,-4.34871 4.77926,-16.83508 -5.76958,-1.506976 -4.77925,16.835086 -8.61131,-2.28199 4.4779,-15.887845 -5.76958,-1.506976 z m -0.2584,22.949101 8.61131,2.28199 -2.41117,8.3099 -8.61128,-2.28199 2.41114,-8.3099 z"
         id="path3894"
         inkscape:connector-curvature="0" />
      <path
         style="opacity:0.2;fill:#000000;fill-opacity:1;stroke:none;display:inline;enable-background:new"
         d="M 434.21096,58.983846 433,58.999996 l 0,13.75116 c 0,0 -2.40217,-1.034212 -4.14419,0.0592 -1.98253,1.245172 -2.96584,3.452622 -2.19588,4.929962 0.76997,1.47734 3.00546,1.66498 4.98917,0.4198 1.41525,-0.88781 2.31516,-2.26562 2.43807,-3.51986 l 0,-8.697409 c 5.51337,-0.770011 4.62514,4.076346 4.55861,5.365913 2.76702,-6.044641 1.9943,-9.016708 -4.43482,-12.324915 z m -7.66943,0.958006 -0.55974,1.98598 -2.1905,-0.570498 -0.19375,0.694285 2.1905,0.570498 -0.3014,1.038738 -2.06133,-0.538206 -0.19375,0.694285 2.06133,0.538206 -0.59741,2.109767 0.72658,0.18299 0.59202,-2.104385 1.07642,0.28525 -0.55974,1.985979 0.7212,0.188372 0.55973,-1.985979 2.1905,0.57588 0.19375,-0.694286 -2.19049,-0.57588 0.30139,-1.038737 2.06133,0.543588 0.19375,-0.694286 -2.06132,-0.543588 0.5974,-2.104385 -0.72119,-0.188372 -0.59741,2.104385 -1.07641,-0.285249 0.55973,-1.98598 -0.72119,-0.188372 z m -0.0323,2.868638 1.07641,0.285249 -0.3014,1.038737 -1.07641,-0.285249 0.3014,-1.038737 z"
         id="path3896"
         inkscape:connector-curvature="0" />
      <path
         id="path3898"
         d="m 429,106 0,9.53125 c -0.5045,-0.16588 -1.71341,-0.43552 -2.65625,0.15625 -1.38778,0.87162 -2.07022,2.40336 -1.53125,3.4375 0.53898,1.03414 2.08015,1.18413 3.46875,0.3125 0.97951,-0.61447 1.62159,-1.56755 1.71875,-2.4375 10e-4,-0.01 -9.7e-4,-0.0214 0,-0.0312 l 0,-6.09375 c 3.85936,-0.53901 3.23408,2.8473 3.1875,3.75 1.93692,-4.23124 1.40664,-6.30925 -3.09375,-8.625 l -0.0937,0 -0.75,0 -0.25,0 z m -4.28125,0.6875 -0.40625,1.375 -1.53125,-0.40625 -0.125,0.5 1.53125,0.40625 -0.21875,0.71875 -1.4375,-0.375 -0.125,0.46875 1.4375,0.375 -0.40625,1.5 0.5,0.125 0.40625,-1.46875 0.75,0.1875 -0.375,1.40625 0.5,0.125 0.375,-1.40625 1.53125,0.40625 0.15625,-0.46875 -1.53125,-0.40625 0.21875,-0.75 1.4375,0.40625 0.125,-0.5 -1.4375,-0.375 0.40625,-1.46875 -0.5,-0.125 -0.40625,1.46875 -0.75,-0.21875 0.375,-1.375 -0.5,-0.125 z m -0.0312,2 0.75,0.1875 -0.1875,0.71875 -0.75,-0.1875 0.1875,-0.71875 z"
         style="opacity:0.2;fill:#000000;fill-opacity:1;stroke:none;display:inline;enable-background:new"
         inkscape:connector-curvature="0" />
      <path
         id="path3900"
         d="m 425,144 0,6.75 c -0.42359,-0.11034 -1.1175,-0.20152 -1.6875,0.15625 -0.99127,0.62258 -1.47873,1.73007 -1.09375,2.46875 0.38498,0.73867 1.50814,0.84134 2.5,0.21875 0.64963,-0.40753 1.07343,-1.01062 1.1875,-1.59375 l 0.0937,0 0,-4.53125 c 2.68139,-0.33592 2.25174,2.04806 2.21875,2.6875 C 429.60226,147.13393 429.21456,145.65411 426,144 l -0.59375,0 L 425,144 z m -2.84375,0.46875 -0.28125,1 -1.09375,-0.28125 -0.0937,0.34375 1.09375,0.28125 -0.15625,0.53125 -1.03125,-0.28125 -0.0937,0.34375 1.03125,0.28125 -0.28125,1.0625 0.34375,0.0937 0.3125,-1.0625 0.53125,0.15625 -0.28125,0.96875 0.375,0.0937 0.28125,-0.96875 1.09375,0.28125 0.0937,-0.34375 -1.09375,-0.3125 0.15625,-0.5 1.03125,0.28125 0.0937,-0.375 -1.03125,-0.25 0.28125,-1.0625 -0.34375,-0.0937 -0.3125,1.0625 -0.53125,-0.15625 0.28125,-1 -0.375,-0.0937 z m 0,1.4375 0.53125,0.15625 -0.15625,0.5 -0.53125,-0.125 0.15625,-0.53125 z"
         style="opacity:0.2;fill:#000000;fill-opacity:1;stroke:none;display:inline;enable-background:new"
         inkscape:connector-curvature="0" />
      <path
         style="fill:#ffffff;fill-opacity:1;stroke:none;display:inline;enable-background:new"
         d="m 343.54599,45.999999 -3.63289,0.04844 0,41.25348 c 0,0 -7.20649,-3.102637 -12.43256,0.177608 -5.94758,3.735509 -8.89753,10.357877 -6.58764,14.789893 2.3099,4.43202 9.01639,4.99494 14.96751,1.2594 4.24574,-2.66345 6.94548,-6.796853 7.31422,-10.559594 l 0,-26.09222 c 16.54011,-2.310034 13.8754,12.229037 13.67581,16.097738 C 365.15152,64.840822 362.83335,55.92462 343.54599,46 z m -23.0083,2.87402 -1.6792,5.957939 -6.5715,-1.711495 -0.58126,2.082857 6.57149,1.711494 -0.90418,3.116212 -6.18399,-1.614617 -0.58126,2.082856 6.18399,1.614618 -1.79223,6.329301 2.17973,0.54897 1.77608,-6.313155 3.22924,0.855748 -1.6792,5.957939 2.16358,0.565116 1.67921,-5.957939 6.57149,1.727641 0.58126,-2.082857 -6.57149,-1.727641 0.90418,-3.116212 6.18399,1.630764 0.58126,-2.082857 -6.18398,-1.630764 1.79222,-6.313155 -2.16359,-0.565116 -1.79222,6.313155 -3.22924,-0.855747 1.67921,-5.957939 -2.16359,-0.565116 z m -0.0969,8.605912 3.22924,0.855747 -0.90419,3.116212 -3.22923,-0.855747 0.90418,-3.116212 z"
         id="path2832-9"
         inkscape:connector-curvature="0" />
      <path
         inkscape:connector-curvature="0"
         id="path3869"
         d="m 325.03066,151.99999 -2.42193,0.0323 0,27.50232 c 0,0 -4.80432,-2.06843 -8.28837,0.1184 -3.96505,2.49034 -5.93169,6.90526 -4.39176,9.85994 1.53993,2.95468 6.01093,3.32996 9.97834,0.8396 2.83049,-1.77564 4.63032,-4.53124 4.87615,-7.03974 l 0,-17.39481 c 11.02674,-1.54002 9.25026,8.15269 9.1172,10.73183 5.53406,-12.08929 3.98861,-18.03342 -8.86963,-24.64983 z m -15.33887,1.91601 -1.11946,3.97196 -4.381,-1.14099 -0.38751,1.38857 4.38099,1.14099 -0.60278,2.07748 -4.12266,-1.07641 -0.38751,1.38857 4.12266,1.07641 -1.19482,4.21953 1.45315,0.36598 1.18406,-4.20877 2.15282,0.5705 -1.11946,3.97196 1.44238,0.37674 1.11948,-3.97195 4.38099,1.15176 0.38751,-1.38858 -4.381,-1.15176 0.60279,-2.07747 4.12266,1.08718 0.38751,-1.38858 -4.12266,-1.08717 1.19482,-4.20877 -1.4424,-0.37675 -1.19481,4.20877 -2.15283,-0.57049 1.11948,-3.97196 -1.4424,-0.37675 z m -0.0646,5.73728 2.15283,0.5705 -0.60279,2.07747 -2.15282,-0.5705 0.60278,-2.07747 z"
         style="fill:#ffffff;fill-opacity:1;stroke:none;display:inline;enable-background:new" />
      <path
         style="fill:#ffffff;fill-opacity:1;stroke:none;display:inline;enable-background:new"
         d="m 315.52146,229.99999 -1.69536,0.0226 0,19.25162 c 0,0 -3.36302,-1.4479 -5.80185,0.0829 -2.77554,1.74324 -4.15218,4.83368 -3.07423,6.90196 1.07795,2.06827 4.20765,2.33097 6.98483,0.58772 1.98134,-1.24295 3.24123,-3.17187 3.41331,-4.92782 l 0,-12.17636 c 7.71871,-1.07802 6.47518,5.70688 6.38203,7.51228 3.87385,-8.46251 2.79203,-12.6234 -6.20873,-17.25488 z m -10.73721,1.34121 -0.78362,2.78037 -3.0667,-0.79869 -0.27126,0.972 3.06669,0.79869 -0.42194,1.45423 -2.88586,-0.75348 -0.27126,0.972 2.88586,0.75348 -0.83637,2.95367 1.0172,0.25619 0.82884,-2.94614 1.50698,0.39935 -0.78362,2.78037 1.00966,0.26372 0.78364,-2.78036 3.06669,0.80623 0.27126,-0.97201 -3.0667,-0.80623 0.42195,-1.45423 2.88586,0.76103 0.27126,-0.97201 -2.88586,-0.76102 0.83637,-2.94614 -1.00968,-0.26372 -0.83637,2.94614 -1.50698,-0.39934 0.78364,-2.78038 -1.00968,-0.26372 z m -0.0452,4.01609 1.50698,0.39935 -0.42195,1.45423 -1.50698,-0.39935 0.42195,-1.45423 z"
         id="path3871"
         inkscape:connector-curvature="0" />
      <path
         inkscape:connector-curvature="0"
         id="path3873"
         d="m 164.12263,76 -9.68771,0.129173 0,110.009277 c 0,0 -19.2173,-8.2737 -33.15349,0.47362 -15.86021,9.96136 -23.726747,27.62101 -17.56704,39.43972 6.15973,11.81872 24.04371,13.31984 39.91336,3.3584 11.32197,-7.10253 18.52128,-18.12494 19.50459,-28.15892 l 0,-69.57925 c 44.10696,-6.16009 37.00106,32.61076 36.46882,42.9273 22.13622,-48.35713 15.95443,-72.13366 -35.47853,-98.599318 z m -61.35547,7.664053 -4.477857,15.887837 -17.524,-4.563986 -1.55003,5.554286 17.52397,4.56398 -2.41114,8.3099 -16.49064,-4.30564 -1.55003,5.55428 16.49064,4.30565 -4.77928,16.87813 5.81261,1.46392 4.73622,-16.83508 8.611297,2.282 -4.47786,15.88784 5.76954,1.50697 4.4779,-15.88784 17.52397,4.60705 1.55003,-5.55429 -17.52398,-4.60704 2.41115,-8.3099 16.49064,4.3487 1.55003,-5.55428 -16.49062,-4.34871 4.77926,-16.835076 -5.76958,-1.506976 -4.77925,16.835082 -8.61131,-2.28199 4.4779,-15.887841 -5.76958,-1.506976 z m -0.2584,22.949097 8.61131,2.28199 -2.41117,8.3099 -8.61128,-2.28199 2.41114,-8.3099 z"
         style="fill:#ffffff;fill-opacity:1;stroke:none;display:inline;enable-background:new" />
      <path
         inkscape:connector-curvature="0"
         id="path3875"
         d="M 434.21096,57.98385 433,58 l 0,13.75116 c 0,0 -2.40217,-1.034212 -4.14419,0.0592 -1.98253,1.245172 -2.96584,3.452622 -2.19588,4.929962 0.76997,1.47734 3.00546,1.66498 4.98917,0.4198 1.41525,-0.88781 2.31516,-2.26562 2.43807,-3.51986 l 0,-8.697409 c 5.51337,-0.770011 4.62514,4.076346 4.55861,5.365913 2.76702,-6.044641 1.9943,-9.016708 -4.43482,-12.324915 z m -7.66943,0.958006 -0.55974,1.98598 -2.1905,-0.570498 -0.19375,0.694285 2.1905,0.570498 -0.3014,1.038738 -2.06133,-0.538206 -0.19375,0.694285 2.06133,0.538206 -0.59741,2.109767 0.72658,0.18299 0.59202,-2.104385 1.07642,0.28525 -0.55974,1.985979 0.7212,0.188372 0.55973,-1.985979 2.1905,0.57588 0.19375,-0.694286 -2.19049,-0.57588 0.30139,-1.038737 2.06133,0.543588 0.19375,-0.694286 -2.06132,-0.543588 0.5974,-2.104385 -0.72119,-0.188372 -0.59741,2.104385 -1.07641,-0.285249 0.55973,-1.98598 -0.72119,-0.188372 z m -0.0323,2.868638 1.07641,0.285249 -0.3014,1.038737 -1.07641,-0.285249 0.3014,-1.038737 z"
         style="fill:#ffffff;fill-opacity:1;stroke:none;display:inline;enable-background:new" />
      <path
         inkscape:connector-curvature="0"
         style="fill:#ffffff;fill-opacity:1;stroke:none;display:inline;enable-background:new"
         d="m 429,105 0,9.53125 c -0.5045,-0.16588 -1.71341,-0.43552 -2.65625,0.15625 -1.38778,0.87162 -2.07022,2.40336 -1.53125,3.4375 0.53898,1.03414 2.08015,1.18413 3.46875,0.3125 0.97951,-0.61447 1.62159,-1.56755 1.71875,-2.4375 10e-4,-0.01 -9.7e-4,-0.0214 0,-0.0312 l 0,-6.09375 c 3.85936,-0.53901 3.23408,2.8473 3.1875,3.75 1.93692,-4.23124 1.40664,-6.30925 -3.09375,-8.625 l -0.0937,0 -0.75,0 -0.25,0 z m -4.28125,0.6875 -0.40625,1.375 -1.53125,-0.40625 -0.125,0.5 1.53125,0.40625 -0.21875,0.71875 -1.4375,-0.375 -0.125,0.46875 1.4375,0.375 -0.40625,1.5 0.5,0.125 0.40625,-1.46875 0.75,0.1875 -0.375,1.40625 0.5,0.125 0.375,-1.40625 1.53125,0.40625 0.15625,-0.46875 -1.53125,-0.40625 0.21875,-0.75 1.4375,0.40625 0.125,-0.5 -1.4375,-0.375 0.40625,-1.46875 -0.5,-0.125 -0.40625,1.46875 -0.75,-0.21875 0.375,-1.375 -0.5,-0.125 z m -0.0312,2 0.75,0.1875 -0.1875,0.71875 -0.75,-0.1875 0.1875,-0.71875 z"
         id="path3877" />
      <path
         inkscape:connector-curvature="0"
         style="fill:#ffffff;fill-opacity:1;stroke:none;display:inline;enable-background:new"
         d="m 425,143 0,6.75 c -0.42359,-0.11034 -1.1175,-0.20152 -1.6875,0.15625 -0.99127,0.62258 -1.47873,1.73007 -1.09375,2.46875 0.38498,0.73867 1.50814,0.84134 2.5,0.21875 0.64963,-0.40753 1.07343,-1.01062 1.1875,-1.59375 l 0.0937,0 0,-4.53125 c 2.68139,-0.33592 2.25174,2.04806 2.21875,2.6875 C 429.60226,146.13393 429.21456,144.65411 426,143 l -0.59375,0 L 425,143 z m -2.84375,0.46875 -0.28125,1 -1.09375,-0.28125 -0.0937,0.34375 1.09375,0.28125 -0.15625,0.53125 -1.03125,-0.28125 -0.0937,0.34375 1.03125,0.28125 -0.28125,1.0625 0.34375,0.0937 0.3125,-1.0625 0.53125,0.15625 -0.28125,0.96875 0.375,0.0937 0.28125,-0.96875 1.09375,0.28125 0.0937,-0.34375 -1.09375,-0.3125 0.15625,-0.5 1.03125,0.28125 0.0937,-0.375 -1.03125,-0.25 0.28125,-1.0625 -0.34375,-0.0937 -0.3125,1.0625 -0.53125,-0.15625 0.28125,-1 -0.375,-0.0937 z m 0,1.4375 0.53125,0.15625 -0.15625,0.5 -0.53125,-0.125 0.15625,-0.53125 z"
         id="path3879" />
    </g>
    <g
       inkscape:groupmode="layer"
       id="layer5"
       inkscape:label="Highlights"
       style="display:inline">
      <path
         style="opacity:0.13;color:#bebebe;fill:#ffffff;fill-opacity:1;fill-rule:nonzero;stroke:none;stroke-width:0;marker:none;visibility:visible;display:inline;overflow:visible;enable-background:accumulate"
         d="M 84,47 C 56.836703,47 35,68.836703 35,96 l 0,1 C 35,69.836703 56.836703,48 84,48 l 120,0 c 27.1633,0 49,21.836703 49,49 l 0,-1 C 253,68.836703 231.1633,47 204,47 L 84,47 z"
         id="rect3894"
         inkscape:connector-curvature="0" />
      <path
         style="opacity:0.13;color:#bebebe;fill:#ffffff;fill-opacity:1;fill-rule:nonzero;stroke:none;stroke-width:0;marker:none;visibility:visible;display:inline;overflow:visible;enable-background:accumulate"
         d="m 419,141 c -1.1253,0 -2,0.8747 -2,2 l 0,1 c 0,-1.1253 0.8747,-2 2,-2 l 10,0 c 1.1253,0 2,0.8747 2,2 l 0,-1 c 0,-1.1253 -0.8747,-2 -2,-2 l -10,0 z"
         id="rect3896"
         inkscape:connector-curvature="0" />
      <path
         style="opacity:0.13;color:#bebebe;fill:#ffffff;fill-opacity:1;fill-rule:nonzero;stroke:none;stroke-width:0;marker:none;visibility:visible;display:inline;overflow:visible;enable-background:accumulate"
         d="m 422,102 c -2.2333,0 -4,1.7667 -4,4 l 0,1 c 0,-2.2333 1.7667,-4 4,-4 l 12,0 c 2.2333,0 4,1.7667 4,4 l 0,-1 c 0,-2.2333 -1.7667,-4 -4,-4 l -12,0 z"
         id="rect3898"
         inkscape:connector-curvature="0" />
      <path
         style="opacity:0.13;color:#bebebe;fill:#ffffff;fill-opacity:1;fill-rule:nonzero;stroke:none;stroke-width:0;marker:none;visibility:visible;display:inline;overflow:visible;enable-background:accumulate"
         d="m 424,54 c -3.3413,0 -6,2.658703 -6,6 l 0,1 c 0,-3.341297 2.6587,-6 6,-6 l 16,0 c 3.3413,0 6,2.658703 6,6 l 0,-1 c 0,-3.341297 -2.6587,-6 -6,-6 l -16,0 z"
         id="rect3900"
         inkscape:connector-curvature="0" />
      <path
         style="opacity:0.13;color:#bebebe;fill:#ffffff;fill-opacity:1;fill-rule:nonzero;stroke:none;stroke-width:0;marker:none;visibility:visible;display:inline;overflow:visible;enable-background:accumulate"
         d="m 300,224 c -4.4493,0 -8,3.5507 -8,8 l 0,1 c 0,-4.4493 3.5507,-8 8,-8 l 24,0 c 4.4493,0 8,3.5507 8,8 l 0,-1 c 0,-4.4493 -3.5507,-8 -8,-8 l -24,0 z"
         id="rect3902"
         inkscape:connector-curvature="0" />
      <path
         style="opacity:0.13;color:#bebebe;fill:#ffffff;fill-opacity:1;fill-rule:nonzero;stroke:none;stroke-width:0;marker:none;visibility:visible;display:inline;overflow:visible;enable-background:accumulate"
         d="m 310,33 c -9.4353,0 -17,7.564703 -17,17 l 0,1 c 0,-9.435297 7.5647,-17 17,-17 l 52,0 c 9.4353,0 17,7.564703 17,17 l 0,-1 c 0,-9.435297 -7.5647,-17 -17,-17 l -52,0 z"
         id="rect3904"
         inkscape:connector-curvature="0" />
      <path
         style="opacity:0.13;color:#bebebe;fill:#ffffff;fill-opacity:1;fill-rule:nonzero;stroke:none;stroke-width:0;marker:none;visibility:visible;display:inline;overflow:visible;enable-background:accumulate"
         d="m 302.5,143 c -6.3883,0 -11.5,5.1117 -11.5,11.5 l 0,1 c 0,-6.3883 5.1117,-11.5 11.5,-11.5 l 35,0 c 6.3883,0 11.5,5.1117 11.5,11.5 l 0,-1 c 0,-6.3883 -5.1117,-11.5 -11.5,-11.5 l -35,0 z"
         id="rect3906"
         inkscape:connector-curvature="0" />
      <path
         id="path4085"
         d="m 204,266 c 27.1633,0 49,-21.8367 49,-49 l 0,-1 c 0,27.1633 -21.8367,49 -49,49 L 84,265 C 56.8367,265 35,243.1633 35,216 l 0,1 c 0,27.1633 21.8367,49 49,49 l 120,0 z"
         style="opacity:0.13;color:#bebebe;fill:#000000;fill-opacity:1;fill-rule:nonzero;stroke:none;stroke-width:0;marker:none;visibility:visible;display:inline;overflow:visible;enable-background:accumulate"
         inkscape:connector-curvature="0" />
      <path
         id="path4087"
         d="m 429,156 c 1.1253,0 2,-0.8747 2,-2 l 0,-1 c 0,1.1253 -0.8747,2 -2,2 l -10,0 c -1.1253,0 -2,-0.8747 -2,-2 l 0,1 c 0,1.1253 0.8747,2 2,2 l 10,0 z"
         style="opacity:0.15;color:#bebebe;fill:#000000;fill-opacity:1;fill-rule:nonzero;stroke:none;stroke-width:0;marker:none;visibility:visible;display:inline;overflow:visible;enable-background:accumulate"
         inkscape:connector-curvature="0" />
      <path
         id="path4089"
         d="m 434,123 c 2.2333,0 4,-1.7667 4,-4 l 0,-1 c 0,2.2333 -1.7667,4 -4,4 l -12,0 c -2.2333,0 -4,-1.7667 -4,-4 l 0,1 c 0,2.2333 1.7667,4 4,4 l 12,0 z"
         style="opacity:0.15;color:#bebebe;fill:#000000;fill-opacity:1;fill-rule:nonzero;stroke:none;stroke-width:0;marker:none;visibility:visible;display:inline;overflow:visible;enable-background:accumulate"
         inkscape:connector-curvature="0" />
      <path
         id="path4091"
         d="m 440,83 c 3.3413,0 6,-2.6587 6,-6 l 0,-1 c 0,3.3413 -2.6587,6 -6,6 l -16,0 c -3.3413,0 -6,-2.6587 -6,-6 l 0,1 c 0,3.3413 2.6587,6 6,6 l 16,0 z"
         style="opacity:0.13;color:#bebebe;fill:#000000;fill-opacity:1;fill-rule:nonzero;stroke:none;stroke-width:0;marker:none;visibility:visible;display:inline;overflow:visible;enable-background:accumulate"
         inkscape:connector-curvature="0" />
      <path
         id="path4093"
         d="m 324,265 c 4.4493,0 8,-3.5507 8,-8 l 0,-1 c 0,4.4493 -3.5507,8 -8,8 l -24,0 c -4.4493,0 -8,-3.5507 -8,-8 l 0,1 c 0,4.4493 3.5507,8 8,8 l 24,0 z"
         style="opacity:0.13;color:#bebebe;fill:#000000;fill-opacity:1;fill-rule:nonzero;stroke:none;stroke-width:0;marker:none;visibility:visible;display:inline;overflow:visible;enable-background:accumulate"
         inkscape:connector-curvature="0" />
      <path
         id="path4095"
         d="m 362,120 c 9.4353,0 17,-7.5647 17,-17 l 0,-1 c 0,9.4353 -7.5647,17 -17,17 l -52,0 c -9.4353,0 -17,-7.5647 -17,-17 l 0,1 c 0,9.4353 7.5647,17 17,17 l 52,0 z"
         style="opacity:0.13;color:#bebebe;fill:#000000;fill-opacity:1;fill-rule:nonzero;stroke:none;stroke-width:0;marker:none;visibility:visible;display:inline;overflow:visible;enable-background:accumulate"
         inkscape:connector-curvature="0" />
      <path
         id="path4097"
         d="m 337.5,202 c 6.3883,0 11.5,-5.1117 11.5,-11.5 l 0,-1 c 0,6.3883 -5.1117,11.5 -11.5,11.5 l -35,0 c -6.3883,0 -11.5,-5.1117 -11.5,-11.5 l 0,1 c 0,6.3883 5.1117,11.5 11.5,11.5 l 35,0 z"
         style="opacity:0.13;color:#bebebe;fill:#000000;fill-opacity:1;fill-rule:nonzero;stroke:none;stroke-width:0;marker:none;visibility:visible;display:inline;overflow:visible;enable-background:accumulate"
         inkscape:connector-curvature="0" />
      <path
         inkscape:connector-curvature="0"
         id="path4280"
         d="M 84,265 C 56.836703,265 35,243.1633 35,216 l 0,-1 c 0,27.1633 21.836703,49 49,49 l 120,0 c 27.1633,0 49,-21.8367 49,-49 l 0,1 c 0,27.1633 -21.8367,49 -49,49 l -120,0 z"
         style="opacity:0.1;color:#bebebe;fill:#ffffff;fill-opacity:1;fill-rule:nonzero;stroke:none;stroke-width:0;marker:none;visibility:visible;display:inline;overflow:visible;enable-background:accumulate" />
      <path
         style="opacity:0.1;color:#bebebe;fill:#ffffff;fill-opacity:1;fill-rule:nonzero;stroke:none;stroke-width:0;marker:none;visibility:visible;display:inline;overflow:visible;enable-background:accumulate"
         d="m 300,264 c -4.4493,0 -8,-3.5507 -8,-8 l 0,-1 c 0,4.4493 3.5507,8 8,8 l 24,0 c 4.4493,0 8,-3.5507 8,-8 l 0,1 c 0,4.4493 -3.5507,8 -8,8 l -24,0 z"
         id="path4294"
         inkscape:connector-curvature="0" />
      <path
         style="opacity:0.1;color:#bebebe;fill:#ffffff;fill-opacity:1;fill-rule:nonzero;stroke:none;stroke-width:0;marker:none;visibility:visible;display:inline;overflow:visible;enable-background:accumulate"
         d="m 302.5,201 c -6.3883,0 -11.5,-5.1117 -11.5,-11.5 l 0,-1 c 0,6.3883 5.1117,11.5 11.5,11.5 l 35,0 c 6.3883,0 11.5,-5.1117 11.5,-11.5 l 0,1 c 0,6.3883 -5.1117,11.5 -11.5,11.5 l -35,0 z"
         id="path4296"
         inkscape:connector-curvature="0" />
      <path
         style="opacity:0.1;color:#bebebe;fill:#ffffff;fill-opacity:1;fill-rule:nonzero;stroke:none;stroke-width:0;marker:none;visibility:visible;display:inline;overflow:visible;enable-background:accumulate"
         d="m 310,119 c -9.4353,0 -17,-7.5647 -17,-17 l 0,-1 c 0,9.4353 7.5647,17 17,17 l 52,0 c 9.4353,0 17,-7.5647 17,-17 l 0,1 c 0,9.4353 -7.5647,17 -17,17 l -52,0 z"
         id="path4298"
         inkscape:connector-curvature="0" />
      <path
         style="opacity:0.1;color:#bebebe;fill:#ffffff;fill-opacity:1;fill-rule:nonzero;stroke:none;stroke-width:0;marker:none;visibility:visible;display:inline;overflow:visible;enable-background:accumulate"
         d="m 424,82 c -3.3413,0 -6,-2.658703 -6,-6 l 0,-1 c 0,3.341297 2.6587,6 6,6 l 16,0 c 3.3413,0 6,-2.658703 6,-6 l 0,1 c 0,3.341297 -2.6587,6 -6,6 l -16,0 z"
         id="path4300"
         inkscape:connector-curvature="0" />
      <path
         style="opacity:0.1;color:#bebebe;fill:#ffffff;fill-opacity:1;fill-rule:nonzero;stroke:none;stroke-width:0;marker:none;visibility:visible;display:inline;overflow:visible;enable-background:accumulate"
         d="m 422,122 c -2.2333,0 -4,-1.7667 -4,-4 l 0,-1 c 0,2.2333 1.7667,4 4,4 l 12,0 c 2.2333,0 4,-1.7667 4,-4 l 0,1 c 0,2.2333 -1.7667,4 -4,4 l -12,0 z"
         id="path4302"
         inkscape:connector-curvature="0" />
      <path
         style="opacity:0.1;color:#bebebe;fill:#ffffff;fill-opacity:1;fill-rule:nonzero;stroke:none;stroke-width:0;marker:none;visibility:visible;display:inline;overflow:visible;enable-background:accumulate"
         d="m 419,154.5 c -1.1253,0 -2,-0.8747 -2,-2 l 0,-1 c 0,1.1253 0.8747,2 2,2 l 10,0 c 1.1253,0 2,-0.8747 2,-2 l 0,1 c 0,1.1253 -0.8747,2 -2,2 l -10,0 z"
         id="path4304"
         inkscape:connector-curvature="0" />
    </g>
    <g
       inkscape:groupmode="layer"
       id="layer3"
       inkscape:label="Border"
       style="display:inline"
       sodipodi:insensitive="true">
      <path
         style="opacity:0.41000001;color:#bebebe;fill:#000000;fill-opacity:1;fill-rule:nonzero;stroke:none;stroke-width:0;marker:none;visibility:visible;display:inline;overflow:visible;enable-background:accumulate"
         d="m 422,101 c -2.77,0 -5,2.23 -5,5 l 0,12 c 0,2.77 2.23,5 5,5 l 12,0 c 2.77,0 5,-2.23 5,-5 l 0,-12 c 0,-2.77 -2.23,-5 -5,-5 l -12,0 z m 0,1 12,0 c 2.2333,0 4,1.7667 4,4 l 0,12 c 0,2.2333 -1.7667,4 -4,4 l -12,0 c -2.2333,0 -4,-1.7667 -4,-4 l 0,-12 c 0,-2.2333 1.7667,-4 4,-4 z"
         id="rect4099"
         inkscape:connector-curvature="0" />
      <path
         style="opacity:0.41000001;color:#bebebe;fill:#000000;fill-opacity:1;fill-rule:nonzero;stroke:none;stroke-width:0;marker:none;visibility:visible;display:inline;overflow:visible;enable-background:accumulate"
         d="m 424,53 c -3.878,0 -7,3.122 -7,7 l 0,16 c 0,3.878 3.122,7 7,7 l 16,0 c 3.878,0 7,-3.122 7,-7 l 0,-16 c 0,-3.878 -3.122,-7 -7,-7 l -16,0 z m 0,1 16,0 c 3.3413,0 6,2.658703 6,6 l 0,16 c 0,3.341297 -2.6587,6 -6,6 l -16,0 c -3.3413,0 -6,-2.658703 -6,-6 l 0,-16 c 0,-3.341297 2.6587,-6 6,-6 z"
         id="rect4151"
         inkscape:connector-curvature="0" />
      <path
         style="opacity:0.41000001;color:#bebebe;fill:#000000;fill-opacity:1;fill-rule:nonzero;stroke:none;stroke-width:0;marker:none;visibility:visible;display:inline;overflow:visible;enable-background:accumulate"
         d="m 419,140 c -1.662,0 -3,1.338 -3,3 l 0,10 c 0,1.662 1.338,3 3,3 l 10,0 c 1.662,0 3,-1.338 3,-3 l 0,-10 c 0,-1.662 -1.338,-3 -3,-3 l -10,0 z m 0,1 10,0 c 1.1253,0 2,0.8747 2,2 l 0,10 c 0,1.1253 -0.8747,2 -2,2 l -10,0 c -1.1253,0 -2,-0.8747 -2,-2 l 0,-10 c 0,-1.1253 0.8747,-2 2,-2 z"
         id="rect4095"
         inkscape:connector-curvature="0" />
      <path
         style="opacity:0.41000001;color:#bebebe;fill:#000000;fill-opacity:1;fill-rule:nonzero;stroke:none;stroke-width:0;marker:none;visibility:visible;display:inline;overflow:visible;enable-background:accumulate"
         d="m 300,223 c -4.986,0 -9,4.014 -9,9 l 0,24 c 0,4.986 4.014,9 9,9 l 24,0 c 4.986,0 9,-4.014 9,-9 l 0,-24 c 0,-4.986 -4.014,-9 -9,-9 l -24,0 z m 0,1 24,0 c 4.4493,0 8,3.5507 8,8 l 0,24 c 0,4.4493 -3.5507,8 -8,8 l -24,0 c -4.4493,0 -8,-3.5507 -8,-8 l 0,-24 c 0,-4.4493 3.5507,-8 8,-8 z"
         id="rect4783"
         inkscape:connector-curvature="0" />
      <path
         style="opacity:0.41000001;color:#bebebe;fill:#000000;fill-opacity:1;fill-rule:nonzero;stroke:none;stroke-width:0;marker:none;visibility:visible;display:inline;overflow:visible;enable-background:accumulate"
         d="m 302.5,142 c -6.925,0 -12.5,5.575 -12.5,12.5 l 0,35 c 0,6.925 5.575,12.5 12.5,12.5 l 35,0 c 6.925,0 12.5,-5.575 12.5,-12.5 l 0,-35 c 0,-6.925 -5.575,-12.5 -12.5,-12.5 l -35,0 z m 0,1 35,0 c 6.3883,0 11.5,5.1117 11.5,11.5 l 0,35 c 0,6.3883 -5.1117,11.5 -11.5,11.5 l -35,0 c -6.3883,0 -11.5,-5.1117 -11.5,-11.5 l 0,-35 c 0,-6.3883 5.1117,-11.5 11.5,-11.5 z"
         id="rect4515"
         inkscape:connector-curvature="0" />
      <path
         style="opacity:0.41000001;color:#bebebe;fill:#000000;fill-opacity:1;fill-rule:nonzero;stroke:none;stroke-width:0;marker:none;visibility:visible;display:inline;overflow:visible;enable-background:accumulate"
         d="m 310,32 c -9.972,0 -18,8.028 -18,18 l 0,52 c 0,9.972 8.028,18 18,18 l 52,0 c 9.972,0 18,-8.028 18,-18 l 0,-52 c 0,-9.972 -8.028,-18 -18,-18 l -52,0 z m 0,1 52,0 c 9.4353,0 17,7.564703 17,17 l 0,52 c 0,9.4353 -7.5647,17 -17,17 l -52,0 c -9.4353,0 -17,-7.5647 -17,-17 l 0,-52 c 0,-9.435297 7.5647,-17 17,-17 z"
         id="rect4511"
         inkscape:connector-curvature="0" />
      <path
         style="opacity:0.41000001;color:#bebebe;fill:#000000;fill-opacity:1;fill-rule:nonzero;stroke:none;stroke-width:0;marker:none;visibility:visible;display:inline;overflow:visible;enable-background:accumulate"
         d="M 84,46 C 56.3,46 34,68.3 34,96 l 0,120 c 0,27.7 22.3,50 50,50 l 120,0 c 27.7,0 50,-22.3 50,-50 L 254,96 C 254,68.3 231.7,46 204,46 L 84,46 z m 0,1 120,0 c 27.1633,0 49,21.836703 49,49 l 0,120 c 0,27.1633 -21.8367,49 -49,49 L 84,265 C 56.836703,265 35,243.1633 35,216 L 35,96 C 35,68.836703 56.836703,47 84,47 z"
         id="rect4040"
         inkscape:connector-curvature="0" />
    </g>
  </g>
</svg>
