<?xml version="1.0" encoding="UTF-8" standalone="no"?>
<!-- Created with Inkscape (http://www.inkscape.org/) -->

<svg
   xmlns:dc="http://purl.org/dc/elements/1.1/"
   xmlns:cc="http://creativecommons.org/ns#"
   xmlns:rdf="http://www.w3.org/1999/02/22-rdf-syntax-ns#"
   xmlns:svg="http://www.w3.org/2000/svg"
   xmlns="http://www.w3.org/2000/svg"
   xmlns:xlink="http://www.w3.org/1999/xlink"
   xmlns:sodipodi="http://sodipodi.sourceforge.net/DTD/sodipodi-0.dtd"
   xmlns:inkscape="http://www.inkscape.org/namespaces/inkscape"
   inkscape:export-ydpi="90.000000"
   inkscape:export-xdpi="90.000000"
   width="480"
   height="300"
   id="svg11300"
   sodipodi:version="0.32"
   inkscape:version="0.48.4 r9939"
   sodipodi:docname="libreoffice-base.svg"
   inkscape:output_extension="org.inkscape.output.svg.inkscape"
   version="1.0"
   style="display:inline;enable-background:new"
   inkscape:export-filename="/home/sam/moka-next-template.png">
  <sodipodi:namedview
     stroke="#ef2929"
     fill="#f57900"
     id="base"
     pagecolor="#777777"
     bordercolor="#666666"
     borderopacity="0.25490196"
     inkscape:pageopacity="0"
     inkscape:pageshadow="2"
     inkscape:zoom="1"
     inkscape:cx="227.65027"
     inkscape:cy="67.664413"
     inkscape:current-layer="layer7"
     showgrid="false"
     inkscape:grid-bbox="true"
     inkscape:document-units="px"
     inkscape:showpageshadow="false"
     inkscape:window-width="1364"
     inkscape:window-height="700"
     inkscape:window-x="0"
     inkscape:window-y="28"
     width="400px"
     height="300px"
     inkscape:snap-nodes="true"
     inkscape:snap-bbox="true"
     gridtolerance="10000"
     inkscape:object-nodes="true"
     inkscape:snap-grids="true"
     showguides="true"
     inkscape:guide-bbox="true"
     inkscape:window-maximized="1"
     inkscape:bbox-nodes="true"
     inkscape:bbox-paths="true"
     inkscape:snap-bbox-edge-midpoints="true"
     inkscape:snap-bbox-midpoints="true">
    <inkscape:grid
       spacingy="1px"
       spacingx="1px"
       id="grid5883"
       type="xygrid"
       enabled="true"
       visible="true"
       empspacing="4"
       snapvisiblegridlinesonly="true"
       dotted="false"
       color="#000000"
       opacity="0.1254902"
       empcolor="#203ef3"
       empopacity="0.36470588" />
    <inkscape:grid
       type="xygrid"
       id="grid11592"
       empspacing="8"
       visible="true"
       enabled="false"
       spacingx="0.5px"
       spacingy="0.5px"
       color="#ff0000"
       opacity="0.1254902"
       empcolor="#ff0000"
       empopacity="0.25098039"
       snapvisiblegridlinesonly="true"
       dotted="true" />
  </sodipodi:namedview>
  <defs
     id="defs3">
    <linearGradient
       inkscape:collect="always"
       xlink:href="#outerBackgroundGradient-6"
       id="linearGradient4254"
       x1="35"
       y1="156"
       x2="253"
       y2="156"
       gradientUnits="userSpaceOnUse"
       gradientTransform="matrix(0,-1,1,0,-12,300)" />
    <linearGradient
       inkscape:collect="always"
       xlink:href="#outerBackgroundGradient-6"
       id="linearGradient4256"
       x1="417"
       y1="148"
       x2="431"
       y2="148"
       gradientUnits="userSpaceOnUse"
       gradientTransform="matrix(0,-1,1,0,276,572)" />
    <linearGradient
       inkscape:collect="always"
       xlink:href="#outerBackgroundGradient-6"
       id="linearGradient4260"
       x1="418"
       y1="68"
       x2="446"
       y2="68"
       gradientUnits="userSpaceOnUse"
       gradientTransform="matrix(0,-1,1,0,364,500)" />
    <linearGradient
       inkscape:collect="always"
       xlink:href="#outerBackgroundGradient-6"
       id="linearGradient4262"
       x1="292"
       y1="244"
       x2="332"
       y2="244"
       gradientUnits="userSpaceOnUse"
       gradientTransform="matrix(0,-1,1,0,68,556)" />
    <linearGradient
       inkscape:collect="always"
       xlink:href="#outerBackgroundGradient-6"
       id="linearGradient4264"
       x1="293"
       y1="76"
       x2="379"
       y2="76"
       gradientUnits="userSpaceOnUse"
       gradientTransform="matrix(0,-1,1,0,260,412)" />
    <linearGradient
       inkscape:collect="always"
       xlink:href="#outerBackgroundGradient-6"
       id="linearGradient4266"
       x1="291"
       y1="172"
       x2="349"
       y2="172"
       gradientUnits="userSpaceOnUse"
       gradientTransform="matrix(0,-1,1,0,148,492)" />
    <linearGradient
       inkscape:collect="always"
       xlink:href="#outerBackgroundGradient-6"
       id="linearGradient3870"
       gradientUnits="userSpaceOnUse"
       gradientTransform="matrix(0,-1,1,0,316,540)"
       x1="418"
       y1="112"
       x2="438"
       y2="112" />
    <linearGradient
       id="outerBackgroundGradient-6">
      <stop
         style="stop-color:#87039b;stop-opacity:1;"
         offset="0"
         id="stop3864-8-6-68" />
      <stop
         style="stop-color:#ca49de;stop-opacity:1;"
         offset="1"
         id="stop3866-9-1-2" />
    </linearGradient>
  </defs>
  <metadata
     id="metadata4">
    <rdf:RDF>
      <cc:Work
         rdf:about="">
        <dc:format>image/svg+xml</dc:format>
        <dc:type
           rdf:resource="http://purl.org/dc/dcmitype/StillImage" />
        <dc:creator>
          <cc:Agent>
            <dc:title>Sam Hewitt</dc:title>
          </cc:Agent>
        </dc:creator>
        <dc:source />
        <cc:license
           rdf:resource="" />
        <dc:title />
        <dc:subject>
          <rdf:Bag />
        </dc:subject>
        <dc:date />
        <dc:rights>
          <cc:Agent>
            <dc:title />
          </cc:Agent>
        </dc:rights>
        <dc:publisher>
          <cc:Agent>
            <dc:title />
          </cc:Agent>
        </dc:publisher>
        <dc:identifier />
        <dc:relation />
        <dc:language />
        <dc:coverage />
        <dc:description />
        <dc:contributor>
          <cc:Agent>
            <dc:title />
          </cc:Agent>
        </dc:contributor>
      </cc:Work>
      <cc:Work
         rdf:about="">
        <dc:format>image/svg+xml</dc:format>
        <dc:type
           rdf:resource="http://purl.org/dc/dcmitype/StillImage" />
      </cc:Work>
    </rdf:RDF>
  </metadata>
  <g
     style="display:inline"
     inkscape:groupmode="layer"
     inkscape:label="Icon"
     id="layer1">
    <g
       style="display:none"
       inkscape:label="Baseplate"
       id="layer7"
       inkscape:groupmode="layer">
      <text
         y="19.745117"
         xml:space="preserve"
         x="15.006836"
         style="font-style:normal;font-variant:normal;font-weight:normal;font-stretch:normal;line-height:0%;font-family:'DejaVu Sans';-inkscape-font-specification:'DejaVu Sans';display:inline;fill:#000000;fill-opacity:1;stroke:none;enable-background:new"
         inkscape:label="context"
         id="context"><tspan
           style="font-style:normal;font-variant:normal;font-weight:normal;font-stretch:normal;font-size:18px;line-height:1.25;font-family:'DejaVu Sans';-inkscape-font-specification:'DejaVu Sans'"
           y="19.745117"
           x="15.006836"
           sodipodi:role="line"
           id="tspan3933">apps</tspan></text>
      <text
         y="19.745117"
         xml:space="preserve"
         x="122.48828"
         style="font-style:normal;font-variant:normal;font-weight:bold;font-stretch:normal;line-height:0%;font-family:'DejaVu Sans';-inkscape-font-specification:'DejaVu Sans Bold';text-align:start;writing-mode:lr-tb;text-anchor:start;display:inline;fill:#000000;fill-opacity:1;stroke:none;enable-background:new"
         inkscape:label="icon-name"
         id="icon-name"><tspan
           style="font-style:normal;font-variant:normal;font-weight:bold;font-stretch:normal;font-size:18px;line-height:1.25;font-family:'DejaVu Sans';-inkscape-font-specification:'DejaVu Sans Bold'"
           y="19.745117"
           x="122.48828"
           sodipodi:role="line"
           id="tspan3937">libreoffice-base</tspan></text>
      <rect
         style="fill:#eeeeec;fill-opacity:1;fill-rule:nonzero;stroke:none;stroke-width:2;marker:none;visibility:visible;display:inline;overflow:visible;enable-background:accumulate"
         id="rect16x16"
         width="16"
         height="16"
         x="416"
         y="140"
         inkscape:label="16x16" />
      <rect
         style="fill:#d4d4d4;fill-opacity:1;fill-rule:nonzero;stroke:none;stroke-width:2;marker:none;visibility:visible;display:inline;overflow:visible;enable-background:accumulate"
         id="rect24x24"
         width="24"
         height="24"
         x="416"
         y="100"
         inkscape:label="24x24" />
      <rect
         style="fill:#eeeeec;fill-opacity:1;fill-rule:nonzero;stroke:none;stroke-width:2;marker:none;visibility:visible;display:inline;overflow:visible;enable-background:accumulate"
         id="rect32x32"
         width="32"
         height="32"
         x="416"
         y="52"
         inkscape:label="32x32" />
      <rect
         inkscape:label="22x22"
         y="101"
         x="417"
         height="22"
         width="22"
         id="rect22x22"
         style="fill:#eeeeec;fill-opacity:1;fill-rule:nonzero;stroke:none;stroke-width:2;marker:none;visibility:visible;display:inline;overflow:visible;enable-background:accumulate" />
      <rect
         inkscape:label="48x48"
         y="220"
         x="288"
         height="48"
         width="48"
         id="rect48x48"
         style="fill:#eeeeec;fill-opacity:1;fill-rule:nonzero;stroke:none;stroke-width:2;marker:none;visibility:visible;display:inline;overflow:visible;enable-background:accumulate" />
      <rect
         style="fill:#eeeeec;fill-opacity:1;fill-rule:nonzero;stroke:none;stroke-width:2;marker:none;visibility:visible;display:inline;overflow:visible;enable-background:accumulate"
         id="rect256x256"
         width="256"
         height="256"
         x="16"
         y="28"
         inkscape:label="256x256" />
      <rect
         style="fill:#eeeeec;fill-opacity:1;fill-rule:nonzero;stroke:none;stroke-width:2;marker:none;visibility:visible;display:inline;overflow:visible;enable-background:accumulate"
         id="rect64x64"
         width="64"
         height="64"
         x="288"
         y="140"
         inkscape:label="64x64" />
      <rect
         style="fill:#eeeeec;fill-opacity:1;fill-rule:nonzero;stroke:none;stroke-width:2;marker:none;visibility:visible;display:inline;overflow:visible;enable-background:accumulate"
         id="rect96x96"
         width="96"
         height="96"
         x="288"
         y="28"
         inkscape:label="96x96" />
    </g>
    <g
       inkscape:groupmode="layer"
       id="layer4"
       inkscape:label="Shadow"
       style="display:inline"
       sodipodi:insensitive="true">
      <rect
         ry="50"
         y="47"
         x="34"
         height="220"
         width="220"
         id="rect4114"
         style="opacity:0.1;color:#bebebe;fill:#000000;fill-opacity:1;fill-rule:nonzero;stroke:none;stroke-width:0;marker:none;visibility:visible;display:inline;overflow:visible;enable-background:accumulate" />
      <rect
         style="opacity:0.1;color:#bebebe;fill:#000000;fill-opacity:1;fill-rule:nonzero;stroke:none;stroke-width:0;marker:none;visibility:visible;display:inline;overflow:visible;enable-background:accumulate"
         id="rect4120"
         width="30"
         height="30"
         x="417"
         y="54"
         ry="7" />
      <rect
         transform="scale(1,-1)"
         ry="9"
         y="-266"
         x="291"
         height="42"
         width="42"
         id="rect4122"
         style="opacity:0.1;color:#bebebe;fill:#000000;fill-opacity:1;fill-rule:nonzero;stroke:none;stroke-width:0;marker:none;visibility:visible;display:inline;overflow:visible;enable-background:accumulate" />
      <rect
         style="opacity:0.1;color:#bebebe;fill:#000000;fill-opacity:1;fill-rule:nonzero;stroke:none;stroke-width:0;marker:none;visibility:visible;display:inline;overflow:visible;enable-background:accumulate"
         id="rect4124"
         width="88"
         height="88"
         x="292"
         y="33"
         ry="18" />
      <rect
         ry="12.5"
         y="143"
         x="290"
         height="60"
         width="60"
         id="rect4126"
         style="opacity:0.1;color:#bebebe;fill:#000000;fill-opacity:1;fill-rule:nonzero;stroke:none;stroke-width:0;marker:none;visibility:visible;display:inline;overflow:visible;enable-background:accumulate" />
      <path
         id="path4268"
         d="m 422,101 c -2.77,0 -5,2.23 -5,5 l 0,12 c 0,2.77 2.23,5 5,5 l 12,0 c 2.77,0 5,-2.23 5,-5 l 0,-12 c 0,-2.77 -2.23,-5 -5,-5 z"
         style="opacity:0.1;color:#bebebe;fill:#000000;fill-opacity:1;fill-rule:nonzero;stroke:none;stroke-width:0;marker:none;visibility:visible;display:inline;overflow:visible;enable-background:accumulate"
         inkscape:connector-curvature="0"
         sodipodi:nodetypes="sssssssss" />
      <path
         id="path4270"
         d="m 419,140 c -1.662,0 -3,1.338 -3,3 l 0,10 c 0,1.662 1.338,3 3,3 l 10,0 c 1.662,0 3,-1.338 3,-3 l 0,-10 c 0,-1.662 -1.338,-3 -3,-3 z"
         style="opacity:0.1;color:#bebebe;fill:#000000;fill-opacity:1;fill-rule:nonzero;stroke:none;stroke-width:0;marker:none;visibility:visible;display:inline;overflow:visible;enable-background:accumulate"
         inkscape:connector-curvature="0"
         sodipodi:nodetypes="sssssssss" />
    </g>
    <g
       inkscape:groupmode="layer"
       id="layer2"
       inkscape:label="Background"
       style="display:inline">
      <path
         style="color:#bebebe;fill:url(#linearGradient4254);fill-opacity:1.0;fill-rule:nonzero;stroke:none;stroke-width:2;marker:none;visibility:visible;display:inline;overflow:visible;enable-background:accumulate"
         d="M 84 46.5 C 56.568735 46.5 34.5 68.568732 34.5 96 L 34.5 216 C 34.5 243.43127 56.568735 265.5 84 265.5 L 204 265.5 C 231.43127 265.5 253.5 243.43127 253.5 216 L 253.5 96 C 253.5 68.568732 231.43127 46.5 204 46.5 L 84 46.5 z "
         id="path4200" />
      <path
         style="color:#bebebe;fill:url(#linearGradient4256);fill-opacity:1.0;fill-rule:nonzero;stroke:none;stroke-width:2;marker:none;visibility:visible;display:inline;overflow:visible;enable-background:accumulate"
         d="M 419 140.5 C 417.6156 140.5 416.5 141.6156 416.5 143 L 416.5 153 C 416.5 154.3844 417.6156 155.5 419 155.5 L 429 155.5 C 430.3844 155.5 431.5 154.3844 431.5 153 L 431.5 143 C 431.5 141.6156 430.3844 140.5 429 140.5 L 419 140.5 z "
         id="path4202" />
      <path
         style="color:#bebebe;fill:url(#linearGradient3870);fill-opacity:1.0;fill-rule:nonzero;stroke:none;stroke-width:2;marker:none;visibility:visible;display:inline;overflow:visible;enable-background:accumulate"
         d="M 422 101.5 C 419.50301 101.5 417.5 103.50301 417.5 106 L 417.5 118 C 417.5 120.49699 419.50301 122.5 422 122.5 L 434 122.5 C 436.49699 122.5 438.5 120.49699 438.5 118 L 438.5 106 C 438.5 103.50301 436.49699 101.5 434 101.5 L 422 101.5 z "
         id="path4204" />
      <path
         style="color:#bebebe;fill:url(#linearGradient4260);fill-opacity:1.0;fill-rule:nonzero;stroke:none;stroke-width:2;marker:none;visibility:visible;display:inline;overflow:visible;enable-background:accumulate"
         d="M 424 53.5 C 420.39346 53.5 417.5 56.393464 417.5 60 L 417.5 76 C 417.5 79.606536 420.39346 82.5 424 82.5 L 440 82.5 C 443.60654 82.5 446.5 79.606536 446.5 76 L 446.5 60 C 446.5 56.393464 443.60654 53.5 440 53.5 L 424 53.5 z "
         id="path4206" />
      <path
         style="color:#bebebe;fill:url(#linearGradient4262);fill-opacity:1.0;fill-rule:nonzero;stroke:none;stroke-width:2;marker:none;visibility:visible;display:inline;overflow:visible;enable-background:accumulate"
         d="M 300 223.5 C 295.28469 223.5 291.5 227.28469 291.5 232 L 291.5 256 C 291.5 260.71531 295.28469 264.5 300 264.5 L 324 264.5 C 328.71531 264.5 332.5 260.71531 332.5 256 L 332.5 232 C 332.5 227.28469 328.71531 223.5 324 223.5 L 300 223.5 z "
         id="path4208" />
      <path
         style="color:#bebebe;fill:url(#linearGradient4264);fill-opacity:1.0;fill-rule:nonzero;stroke:none;stroke-width:2;marker:none;visibility:visible;display:inline;overflow:visible;enable-background:accumulate"
         d="M 310 32.5 C 300.29745 32.5 292.5 40.297452 292.5 50 L 292.5 102 C 292.5 111.70255 300.29745 119.5 310 119.5 L 362 119.5 C 371.70255 119.5 379.5 111.70255 379.5 102 L 379.5 50 C 379.5 40.297452 371.70255 32.5 362 32.5 L 310 32.5 z "
         id="path4210" />
      <path
         style="color:#bebebe;fill:url(#linearGradient4266);fill-opacity:1.0;fill-rule:nonzero;stroke:none;stroke-width:2;marker:none;visibility:visible;display:inline;overflow:visible;enable-background:accumulate"
         d="M 302.5 142.5 C 295.84498 142.5 290.5 147.84498 290.5 154.5 L 290.5 189.5 C 290.5 196.15502 295.84498 201.5 302.5 201.5 L 337.5 201.5 C 344.15502 201.5 349.5 196.15502 349.5 189.5 L 349.5 154.5 C 349.5 147.84498 344.15502 142.5 337.5 142.5 L 302.5 142.5 z "
         id="path4212" />
    </g>
    <g
       inkscape:groupmode="layer"
       id="layer6"
       inkscape:label="Symbols"
       style="display:inline">
      <path
         style="opacity:0.2;color:#000000;fill:#000000;fill-opacity:1;fill-rule:nonzero;stroke:none;stroke-width:20;marker:none;visibility:visible;display:inline;overflow:visible;enable-background:new"
         d="m 88,77 c -4.432,0 -8,3.568 -8,8 l 0,144 c 0,4.432 3.568,8 8,8 l 112,0 c 4.432,0 8,-3.568 8,-8 L 208,115.75 169.25,77 z M 174.75,77 208,110.25 208,85 c 0,-4.432 -3.568,-8 -8,-8 z M 144,129 c 22.43,0 40,7.906 40,18 l 0,16 0,16 0,16 c 0,10.094 -17.57,18 -40,18 -22.43,0 -40,-7.906 -40,-18 l 0,-16 0,-16 0,-16 c 0,-10.094 17.57,-18 40,-18 z m 0,4 c -17.028,0 -36,5.75 -36,14 0,8.25 18.972,14 36,14 17.028,0 36,-5.75 36,-14 0,-8.25 -18.972,-14 -36,-14 z m -36,21.875 0,8.125 c 0,8.25 18.972,14 36,14 17.028,0 36,-5.75 36,-14 l 0,-8.125 C 173.59848,160.89472 160.08008,165 144,165 c -16.08008,0 -29.59848,-4.10528 -36,-10.125 z m 0,16 0,8.125 c 0,8.25 18.972,14 36,14 17.028,0 36,-5.75 36,-14 l 0,-8.125 C 173.59848,176.89472 160.08008,181 144,181 c -16.08008,0 -29.59848,-4.10528 -36,-10.125 z m 0,16 0,8.125 c 0,8.25 18.972,14 36,14 17.028,0 36,-5.75 36,-14 l 0,-8.125 C 173.59848,192.89472 160.08008,197 144,197 c -16.08008,0 -29.59848,-4.10528 -36,-10.125 z"
         id="path3086"
         inkscape:connector-curvature="0"
         sodipodi:nodetypes="ssssssccsccsscssccsssccssssssscssscsccssscsccssscsc" />
      <path
         inkscape:connector-curvature="0"
         style="opacity:0.2;color:#000000;fill:#000000;fill-opacity:1;fill-rule:nonzero;stroke:none;stroke-width:20;marker:none;visibility:visible;display:inline;overflow:visible;enable-background:new"
         d="m 316,49 c -1.108,0 -2,0.892 -2,2 l 0,52 c 0,1.108 0.892,2 2,2 l 40,0 c 1.108,0 2,-0.892 2,-2 L 358,64.375 342.625,49 316,49 z M 345.375,49 358,61.625 358,51 c 0,-1.108 -0.892,-2 -2,-2 l -10.625,0 z M 336,67 c 3.89656,0 7.72442,0.65302 10.6875,1.8125 1.48154,0.57974 2.73796,1.24512 3.6875,2.125 0.94954,0.87988 1.625,1.55802 1.625,2.8125 0,0.0204 0.002,0.0429 0,0.0625 0.0126,0.0636 0,0.12012 0,0.1875 l 0,1.5 0,4.25 0,1.75 0,4.3125 0,1.6875 0,4.125 0,0.375 c 0,0.1689 -0.0517,0.29826 -0.125,0.4375 -0.2149,0.93114 -0.75674,1.74878 -1.5,2.4375 -0.94954,0.87988 -2.20596,1.54526 -3.6875,2.125 -2.96308,1.15948 -6.79094,1.8125 -10.6875,1.8125 -3.89656,0 -7.72442,-0.65302 -10.6875,-1.8125 -1.48154,-0.57974 -2.73796,-1.24512 -3.6875,-2.125 C 320.67546,93.99512 320,92.87948 320,91.625 l 0,-1.625 0,-2.5 0,-1.6875 0,-4.3125 0,-1.75 0,-4.25 0,-1.5 c 0,-0.0674 -0.0126,-0.12392 0,-0.1875 -0.002,-0.0196 0,-0.0421 0,-0.0625 0,-1.25448 0.67546,-1.93262 1.625,-2.8125 0.94954,-0.87988 2.20596,-1.54526 3.6875,-2.125 C 328.27558,67.65302 332.10344,67 336,67 z m 0,2 c -3.67144,0 -7.35508,0.59002 -10,1.625 -1.32246,0.51748 -2.38204,1.18198 -3.0625,1.8125 C 322.25704,73.06802 322,73.17116 322,73.75 c 0,0.52346 0.32816,1.06374 0.875,1.625 0.98874,0.74048 2.1137,1.45848 3.5625,2 2.61224,0.95592 6.051,1.625 9.5625,1.625 3.5115,0 6.95026,-0.66908 9.5625,-1.625 1.4488,-0.54152 2.57376,-1.25952 3.5625,-2 0.54684,-0.56126 0.875,-1.10154 0.875,-1.625 0,-0.57884 -0.25704,-0.68198 -0.9375,-1.3125 C 348.38204,71.80698 347.32246,71.14248 346,70.625 343.35508,69.59002 339.67144,69 336,69 z m -14,8.25 0,2.5 c 0,0.51532 0.28392,1.07368 0.8125,1.625 1.03502,0.78142 2.2052,1.50282 3.75,2.0625 C 329.16268,84.36996 332.5369,85 336,85 c 3.4631,0 6.83732,-0.63004 9.4375,-1.5625 1.5448,-0.55968 2.71498,-1.28108 3.75,-2.0625 C 349.71608,80.82368 350,80.26532 350,79.75 l 0,-2.5 c -0.90846,0.75518 -1.98648,1.41862 -3.3125,1.9375 -0.1376,0.0544 -0.3586,0.0109 -0.5,0.0625 C 343.39442,80.27652 340.10364,81 336,81 c -4.10364,0 -7.39442,-0.72348 -10.1875,-1.75 -0.14132,-0.0524 -0.3624,-0.009 -0.5,-0.0625 C 323.98648,78.66862 322.90846,78.00518 322,77.25 z m 0,6 0,2.5625 c 0,0.5381 0.29442,1.04568 0.875,1.625 1.02088,0.76372 2.17682,1.44956 3.6875,2 C 329.16358,90.37164 332.5334,91 336,91 c 3.4666,0 6.83642,-0.62836 9.4375,-1.5625 1.51068,-0.55044 2.66662,-1.23628 3.6875,-2 0.58058,-0.57932 0.875,-1.0869 0.875,-1.625 l 0,-2.5625 c -0.90846,0.75518 -1.98648,1.41862 -3.3125,1.9375 -0.1376,0.0544 -0.3586,0.0109 -0.5,0.0625 C 343.39506,86.27568 340.10184,87 336,87 c -4.10184,0 -7.39506,-0.72432 -10.1875,-1.75 -0.14132,-0.0524 -0.3624,-0.009 -0.5,-0.0625 C 323.98648,84.66862 322.90846,84.00518 322,83.25 z m 0,6.0625 0,0.6875 0,1.625 c 0,0.57884 0.25704,1.11948 0.9375,1.75 0.68046,0.63052 1.74004,1.29502 3.0625,1.8125 2.64492,1.03498 6.32856,1.625 10,1.625 3.67144,0 7.35508,-0.59002 10,-1.625 1.32246,-0.51748 2.38204,-1.18198 3.0625,-1.8125 C 349.74296,92.74448 350,92.20384 350,91.625 l 0,-2.3125 c -0.90846,0.75518 -1.98648,1.41862 -3.3125,1.9375 -0.13776,0.0544 -0.3586,0.0109 -0.5,0.0625 C 343.39506,92.33818 340.10184,93 336,93 c -4.10184,0 -7.39506,-0.66182 -10.1875,-1.6875 -0.14148,-0.0524 -0.3622,-0.009 -0.5,-0.0625 -1.32602,-0.51888 -2.40404,-1.18232 -3.3125,-1.9375 z"
         id="path3088" />
      <path
         style="opacity:0.2;color:#000000;fill:#000000;fill-opacity:1;fill-rule:nonzero;stroke:none;stroke-width:20;marker:none;visibility:visible;display:inline;overflow:visible;enable-background:new"
         d="m 424,143.72222 c -2.365,0 -5,0.79862 -5,1.94445 0,1.14584 2.635,1.94444 5,1.94444 2.365,0 5,-0.7986 5,-1.94444 0,-1.14583 -2.635,-1.94445 -5,-1.94445 z m -5,3.0382 0,1.12847 c 0,1.14583 2.635,1.94445 5,1.94445 2.365,0 5,-0.79862 5,-1.94445 l 0,-1.12847 c -0.8891,0.83607 -2.76666,1.40625 -5,1.40625 -2.23334,0 -4.1109,-0.57018 -5,-1.40625 z m 0,2.22222 0,1.12847 c 0,1.14584 2.635,1.94445 5,1.94445 2.365,0 5,-0.79861 5,-1.94445 l 0,-1.12847 c -0.8891,0.83607 -2.76666,1.40625 -5,1.40625 -2.23334,0 -4.1109,-0.57018 -5,-1.40625 z m 0,2.22222 0,1.12848 c 0,1.14583 2.635,1.94444 5,1.94444 2.365,0 5,-0.79861 5,-1.94444 l 0,-1.12848 c -0.8891,0.83608 -2.76666,1.40625 -5,1.40625 -2.23334,0 -4.1109,-0.57017 -5,-1.40625 z"
         id="path3090"
         inkscape:connector-curvature="0"
         sodipodi:nodetypes="ssssscssscsccssscsccssscsc" />
      <path
         id="path3092"
         d="m 302,231 c -0.554,0 -1,0.446 -1,1 l 0,26 c 0,0.554 0.446,1 1,1 l 20,0 c 0.554,0 1,-0.446 1,-1 L 323,238.6875 315.3125,231 302,231 z m 14.6875,0 L 323,237.3125 323,232 c 0,-0.554 -0.446,-1 -1,-1 l -5.3125,0 z M 312,240 c 1.94828,0 3.86221,0.32651 5.34375,0.90625 0.74077,0.28987 1.36898,0.62256 1.84375,1.0625 0.47477,0.43994 0.8125,0.77901 0.8125,1.40625 0,0.0102 10e-4,0.0215 0,0.0312 0.006,0.0318 0,0.0601 0,0.0937 l 0,0.75 0,2.125 0,0.875 0,2.15625 0,0.84375 0,2.0625 0,0.1875 c 0,0.0845 -0.0258,0.14913 -0.0625,0.21875 -0.10745,0.46557 -0.37837,0.87439 -0.75,1.21875 -0.47477,0.43994 -1.10298,0.77263 -1.84375,1.0625 -1.48154,0.57974 -3.39547,0.90625 -5.34375,0.90625 -1.94828,0 -3.86221,-0.32651 -5.34375,-0.90625 -0.74077,-0.28987 -1.36898,-0.62256 -1.84375,-1.0625 C 304.33773,253.49756 304,252.93974 304,252.3125 l 0,-0.8125 0,-1.25 0,-0.84375 0,-2.15625 0,-0.875 0,-2.125 0,-0.75 c 0,-0.0337 -0.006,-0.062 0,-0.0937 -10e-4,-0.01 0,-0.0211 0,-0.0312 0,-0.62724 0.33773,-0.96631 0.8125,-1.40625 0.47477,-0.43994 1.10298,-0.77263 1.84375,-1.0625 C 308.13779,240.32651 310.05172,240 312,240 z m 0,1 c -1.83572,0 -3.67754,0.29501 -5,0.8125 -0.66123,0.25874 -1.19102,0.59099 -1.53125,0.90625 C 305.12852,243.03401 305,243.08558 305,243.375 c 0,0.26173 0.16408,0.53187 0.4375,0.8125 0.49437,0.37024 1.05685,0.72924 1.78125,1 1.30612,0.47796 3.0255,0.8125 4.78125,0.8125 1.75575,0 3.47513,-0.33454 4.78125,-0.8125 0.7244,-0.27076 1.28688,-0.62976 1.78125,-1 0.27342,-0.28063 0.4375,-0.55077 0.4375,-0.8125 0,-0.28942 -0.12852,-0.34099 -0.46875,-0.65625 C 318.19102,242.40349 317.66123,242.07124 317,241.8125 315.67754,241.29501 313.83572,241 312,241 z m -7,4.125 0,1.25 c 0,0.25766 0.14196,0.53684 0.40625,0.8125 0.51751,0.39071 1.1026,0.75141 1.875,1.03125 C 308.58134,248.68498 310.26845,249 312,249 c 1.73155,0 3.41866,-0.31502 4.71875,-0.78125 0.7724,-0.27984 1.35749,-0.64054 1.875,-1.03125 C 318.85804,246.91184 319,246.63266 319,246.375 l 0,-1.25 c -0.45423,0.37759 -0.99324,0.70931 -1.65625,0.96875 -0.0688,0.0272 -0.1793,0.005 -0.25,0.0312 C 315.69721,246.63826 314.05182,247 312,247 c -2.05182,0 -3.69721,-0.36174 -5.09375,-0.875 -0.0707,-0.0262 -0.1812,-0.004 -0.25,-0.0312 -0.66301,-0.25944 -1.20202,-0.59116 -1.65625,-0.96875 z m 0,3 0,1.28125 c 0,0.26905 0.14721,0.52284 0.4375,0.8125 0.51044,0.38186 1.08841,0.72478 1.84375,1 C 308.58179,251.68582 310.2667,252 312,252 c 1.7333,0 3.41821,-0.31418 4.71875,-0.78125 0.75534,-0.27522 1.33331,-0.61814 1.84375,-1 0.29029,-0.28966 0.4375,-0.54345 0.4375,-0.8125 l 0,-1.28125 c -0.45423,0.37759 -0.99324,0.70931 -1.65625,0.96875 -0.0688,0.0272 -0.1793,0.005 -0.25,0.0312 C 315.69753,249.63784 314.05092,250 312,250 c -2.05092,0 -3.69753,-0.36216 -5.09375,-0.875 -0.0707,-0.0262 -0.1812,-0.004 -0.25,-0.0312 -0.66301,-0.25944 -1.20202,-0.59116 -1.65625,-0.96875 z m 0,3.03125 0,0.34375 0,0.8125 c 0,0.28942 0.12852,0.55974 0.46875,0.875 0.34023,0.31526 0.87002,0.64751 1.53125,0.90625 1.32246,0.51749 3.16428,0.8125 5,0.8125 1.83572,0 3.67754,-0.29501 5,-0.8125 0.66123,-0.25874 1.19102,-0.59099 1.53125,-0.90625 0.34023,-0.31526 0.46875,-0.58558 0.46875,-0.875 l 0,-1.15625 c -0.45423,0.37759 -0.99324,0.70931 -1.65625,0.96875 -0.0689,0.0272 -0.1793,0.005 -0.25,0.0312 C 315.69753,252.66909 314.05092,253 312,253 c -2.05092,0 -3.69753,-0.33091 -5.09375,-0.84375 -0.0707,-0.0262 -0.1811,-0.004 -0.25,-0.0312 -0.66301,-0.25944 -1.20202,-0.59116 -1.65625,-0.96875 z"
         style="opacity:0.2;color:#000000;fill:#000000;fill-opacity:1;fill-rule:nonzero;stroke:none;stroke-width:20;marker:none;visibility:visible;display:inline;overflow:visible;enable-background:new"
         inkscape:connector-curvature="0" />
      <path
         sodipodi:nodetypes="ssssssccsccsscssccsssccssssssscssscsccssscsccssscsc"
         inkscape:connector-curvature="0"
         id="path3094"
         d="m 306,153 c -1.108,0 -2,0.892 -2,2 l 0,36 c 0,1.108 0.892,2 2,2 l 28,0 c 1.108,0 2,-0.892 2,-2 L 336,162.6875 326.3125,153 z m 21.6875,0 L 336,161.3125 336,155 c 0,-1.108 -0.892,-2 -2,-2 z M 320,166 c 5.6075,0 10,1.9765 10,4.5 l 0,4 0,4 0,4 c 0,2.5235 -4.3925,4.5 -10,4.5 -5.6075,0 -10,-1.9765 -10,-4.5 l 0,-4 0,-4 0,-4 c 0,-2.5235 4.3925,-4.5 10,-4.5 z m 0,1 c -4.257,0 -9,1.4375 -9,3.5 0,2.0625 4.743,3.5 9,3.5 4.257,0 9,-1.4375 9,-3.5 0,-2.0625 -4.743,-3.5 -9,-3.5 z m -9,5.46875 0,2.03125 c 0,2.0625 4.743,3.5 9,3.5 4.257,0 9,-1.4375 9,-3.5 l 0,-2.03125 C 327.39962,173.97368 324.02002,175 320,175 c -4.02002,0 -7.39962,-1.02632 -9,-2.53125 z m 0,4 0,2.03125 c 0,2.0625 4.743,3.5 9,3.5 4.257,0 9,-1.4375 9,-3.5 l 0,-2.03125 C 327.39962,177.97368 324.02002,179 320,179 c -4.02002,0 -7.39962,-1.02632 -9,-2.53125 z m 0,4 0,2.03125 c 0,2.0625 4.743,3.5 9,3.5 4.257,0 9,-1.4375 9,-3.5 l 0,-2.03125 C 327.39962,181.97368 324.02002,183 320,183 c -4.02002,0 -7.39962,-1.02632 -9,-2.53125 z"
         style="opacity:0.2;color:#000000;fill:#000000;fill-opacity:1;fill-rule:nonzero;stroke:none;stroke-width:20;marker:none;visibility:visible;display:inline;overflow:visible;enable-background:new" />
      <path
         style="opacity:0.2;color:#000000;fill:#000000;fill-opacity:1;fill-rule:nonzero;stroke:none;stroke-width:20;marker:none;visibility:visible;display:inline;overflow:visible;enable-background:new"
         d="m 432,60.555556 c -3.784,0 -8,1.277778 -8,3.111111 0,1.833334 4.216,3.111111 8,3.111111 3.784,0 8,-1.277777 8,-3.111111 0,-1.833333 -4.216,-3.111111 -8,-3.111111 z m -8,4.861111 0,1.805556 c 0,1.833333 4.216,3.111111 8,3.111111 3.784,0 8,-1.277778 8,-3.111111 l 0,-1.805556 c -1.42256,1.337716 -4.42665,2.25 -8,2.25 -3.57335,0 -6.57744,-0.912284 -8,-2.25 z m 0,3.555556 0,1.805555 c 0,1.833334 4.216,3.111111 8,3.111111 3.784,0 8,-1.277777 8,-3.111111 l 0,-1.805555 c -1.42256,1.337715 -4.42665,2.25 -8,2.25 -3.57335,0 -6.57744,-0.912285 -8,-2.25 z m 0,3.555555 0,1.805556 c 0,1.833333 4.216,3.111111 8,3.111111 3.784,0 8,-1.277778 8,-3.111111 l 0,-1.805556 c -1.42256,1.337716 -4.42665,2.25 -8,2.25 -3.57335,0 -6.57744,-0.912284 -8,-2.25 z"
         id="path3096"
         inkscape:connector-curvature="0"
         sodipodi:nodetypes="ssssscssscsccssscsccssscsc" />
      <path
         sodipodi:nodetypes="ssssscssscsccssscsccssscsc"
         inkscape:connector-curvature="0"
         id="path3098"
         d="m 428,106.66667 c -2.838,0 -6,0.95834 -6,2.33334 0,1.375 3.162,2.33333 6,2.33333 2.838,0 6,-0.95833 6,-2.33333 0,-1.375 -3.162,-2.33334 -6,-2.33334 z m -6,3.64584 0,1.35416 c 0,1.375 3.162,2.33334 6,2.33334 2.838,0 6,-0.95834 6,-2.33334 l 0,-1.35416 c -1.06692,1.00328 -3.31999,1.6875 -6,1.6875 -2.68001,0 -4.93308,-0.68422 -6,-1.6875 z m 0,2.66666 0,1.35417 c 0,1.375 3.162,2.33333 6,2.33333 2.838,0 6,-0.95833 6,-2.33333 l 0,-1.35417 c -1.06692,1.00329 -3.31999,1.6875 -6,1.6875 -2.68001,0 -4.93308,-0.68421 -6,-1.6875 z m 0,2.66667 0,1.35417 c 0,1.375 3.162,2.33333 6,2.33333 2.838,0 6,-0.95833 6,-2.33333 l 0,-1.35417 c -1.06692,1.00329 -3.31999,1.6875 -6,1.6875 -2.68001,0 -4.93308,-0.68421 -6,-1.6875 z"
         style="opacity:0.2;color:#000000;fill:#000000;fill-opacity:1;fill-rule:nonzero;stroke:none;stroke-width:20;marker:none;visibility:visible;display:inline;overflow:visible;enable-background:new" />
      <path
         sodipodi:nodetypes="ssssssccsccsscssccsssccssssssscssscsccssscsccssscsc"
         inkscape:connector-curvature="0"
         id="path3084"
         d="m 88,76 c -4.432,0 -8,3.568 -8,8 l 0,144 c 0,4.432 3.568,8 8,8 l 112,0 c 4.432,0 8,-3.568 8,-8 L 208,114.75 169.25,76 z M 174.75,76 208,109.25 208,84 c 0,-4.432 -3.568,-8 -8,-8 z M 144,128 c 22.43,0 40,7.906 40,18 l 0,16 0,16 0,16 c 0,10.094 -17.57,18 -40,18 -22.43,0 -40,-7.906 -40,-18 l 0,-16 0,-16 0,-16 c 0,-10.094 17.57,-18 40,-18 z m 0,4 c -17.028,0 -36,5.75 -36,14 0,8.25 18.972,14 36,14 17.028,0 36,-5.75 36,-14 0,-8.25 -18.972,-14 -36,-14 z m -36,21.875 0,8.125 c 0,8.25 18.972,14 36,14 17.028,0 36,-5.75 36,-14 l 0,-8.125 C 173.59848,159.89472 160.08008,164 144,164 c -16.08008,0 -29.59848,-4.10528 -36,-10.125 z m 0,16 0,8.125 c 0,8.25 18.972,14 36,14 17.028,0 36,-5.75 36,-14 l 0,-8.125 C 173.59848,175.89472 160.08008,180 144,180 c -16.08008,0 -29.59848,-4.10528 -36,-10.125 z m 0,16 0,8.125 c 0,8.25 18.972,14 36,14 17.028,0 36,-5.75 36,-14 l 0,-8.125 C 173.59848,191.89472 160.08008,196 144,196 c -16.08008,0 -29.59848,-4.10528 -36,-10.125 z"
         style="color:#000000;fill:#ffffff;fill-opacity:1;fill-rule:nonzero;stroke:none;stroke-width:20;marker:none;visibility:visible;display:inline;overflow:visible;enable-background:new" />
      <path
         id="path3082"
         d="m 316,48 c -1.108,0 -2,0.892 -2,2 l 0,52 c 0,1.108 0.892,2 2,2 l 40,0 c 1.108,0 2,-0.892 2,-2 L 358,63.375 342.625,48 316,48 z M 345.375,48 358,60.625 358,50 c 0,-1.108 -0.892,-2 -2,-2 l -10.625,0 z M 336,66 c 3.89656,0 7.72442,0.65302 10.6875,1.8125 1.48154,0.57974 2.73796,1.24512 3.6875,2.125 0.94954,0.87988 1.625,1.55802 1.625,2.8125 0,0.0204 0.002,0.0429 0,0.0625 0.0126,0.0636 0,0.12012 0,0.1875 l 0,1.5 0,4.25 0,1.75 0,4.3125 0,1.6875 0,4.125 0,0.375 c 0,0.1689 -0.0517,0.29826 -0.125,0.4375 -0.2149,0.93114 -0.75674,1.74878 -1.5,2.4375 -0.94954,0.87988 -2.20596,1.54526 -3.6875,2.125 -2.96308,1.15948 -6.79094,1.8125 -10.6875,1.8125 -3.89656,0 -7.72442,-0.65302 -10.6875,-1.8125 -1.48154,-0.57974 -2.73796,-1.24512 -3.6875,-2.125 C 320.67546,92.99512 320,91.87948 320,90.625 l 0,-1.625 0,-2.5 0,-1.6875 0,-4.3125 0,-1.75 0,-4.25 0,-1.5 c 0,-0.0674 -0.0126,-0.12392 0,-0.1875 -0.002,-0.0196 0,-0.0421 0,-0.0625 0,-1.25448 0.67546,-1.93262 1.625,-2.8125 0.94954,-0.87988 2.20596,-1.54526 3.6875,-2.125 C 328.27558,66.65302 332.10344,66 336,66 z m 0,2 c -3.67144,0 -7.35508,0.59002 -10,1.625 -1.32246,0.51748 -2.38204,1.18198 -3.0625,1.8125 C 322.25704,72.06802 322,72.17116 322,72.75 c 0,0.52346 0.32816,1.06374 0.875,1.625 0.98874,0.74048 2.1137,1.45848 3.5625,2 2.61224,0.95592 6.051,1.625 9.5625,1.625 3.5115,0 6.95026,-0.66908 9.5625,-1.625 1.4488,-0.54152 2.57376,-1.25952 3.5625,-2 0.54684,-0.56126 0.875,-1.10154 0.875,-1.625 0,-0.57884 -0.25704,-0.68198 -0.9375,-1.3125 C 348.38204,70.80698 347.32246,70.14248 346,69.625 343.35508,68.59002 339.67144,68 336,68 z m -14,8.25 0,2.5 c 0,0.51532 0.28392,1.07368 0.8125,1.625 1.03502,0.78142 2.2052,1.50282 3.75,2.0625 C 329.16268,83.36996 332.5369,84 336,84 c 3.4631,0 6.83732,-0.63004 9.4375,-1.5625 1.5448,-0.55968 2.71498,-1.28108 3.75,-2.0625 C 349.71608,79.82368 350,79.26532 350,78.75 l 0,-2.5 c -0.90846,0.75518 -1.98648,1.41862 -3.3125,1.9375 -0.1376,0.0544 -0.3586,0.0109 -0.5,0.0625 C 343.39442,79.27652 340.10364,80 336,80 c -4.10364,0 -7.39442,-0.72348 -10.1875,-1.75 -0.14132,-0.0524 -0.3624,-0.009 -0.5,-0.0625 C 323.98648,77.66862 322.90846,77.00518 322,76.25 z m 0,6 0,2.5625 c 0,0.5381 0.29442,1.04568 0.875,1.625 1.02088,0.76372 2.17682,1.44956 3.6875,2 C 329.16358,89.37164 332.5334,90 336,90 c 3.4666,0 6.83642,-0.62836 9.4375,-1.5625 1.51068,-0.55044 2.66662,-1.23628 3.6875,-2 0.58058,-0.57932 0.875,-1.0869 0.875,-1.625 l 0,-2.5625 c -0.90846,0.75518 -1.98648,1.41862 -3.3125,1.9375 -0.1376,0.0544 -0.3586,0.0109 -0.5,0.0625 C 343.39506,85.27568 340.10184,86 336,86 c -4.10184,0 -7.39506,-0.72432 -10.1875,-1.75 -0.14132,-0.0524 -0.3624,-0.009 -0.5,-0.0625 C 323.98648,83.66862 322.90846,83.00518 322,82.25 z m 0,6.0625 0,0.6875 0,1.625 c 0,0.57884 0.25704,1.11948 0.9375,1.75 0.68046,0.63052 1.74004,1.29502 3.0625,1.8125 2.64492,1.03498 6.32856,1.625 10,1.625 3.67144,0 7.35508,-0.59002 10,-1.625 1.32246,-0.51748 2.38204,-1.18198 3.0625,-1.8125 C 349.74296,91.74448 350,91.20384 350,90.625 l 0,-2.3125 c -0.90846,0.75518 -1.98648,1.41862 -3.3125,1.9375 -0.13776,0.0544 -0.3586,0.0109 -0.5,0.0625 C 343.39506,91.33818 340.10184,92 336,92 c -4.10184,0 -7.39506,-0.66182 -10.1875,-1.6875 -0.14148,-0.0524 -0.3622,-0.009 -0.5,-0.0625 -1.32602,-0.51888 -2.40404,-1.18232 -3.3125,-1.9375 z"
         style="color:#000000;fill:#ffffff;fill-opacity:1;fill-rule:nonzero;stroke:none;stroke-width:20;marker:none;visibility:visible;display:inline;overflow:visible;enable-background:new"
         inkscape:connector-curvature="0" />
      <path
         sodipodi:nodetypes="ssssscssscsccssscsccssscsc"
         inkscape:connector-curvature="0"
         id="path4164"
         d="m 424,142.72222 c -2.365,0 -5,0.79862 -5,1.94445 0,1.14584 2.635,1.94444 5,1.94444 2.365,0 5,-0.7986 5,-1.94444 0,-1.14583 -2.635,-1.94445 -5,-1.94445 z m -5,3.0382 0,1.12847 c 0,1.14583 2.635,1.94445 5,1.94445 2.365,0 5,-0.79862 5,-1.94445 l 0,-1.12847 c -0.8891,0.83607 -2.76666,1.40625 -5,1.40625 -2.23334,0 -4.1109,-0.57018 -5,-1.40625 z m 0,2.22222 0,1.12847 c 0,1.14584 2.635,1.94445 5,1.94445 2.365,0 5,-0.79861 5,-1.94445 l 0,-1.12847 c -0.8891,0.83607 -2.76666,1.40625 -5,1.40625 -2.23334,0 -4.1109,-0.57018 -5,-1.40625 z m 0,2.22222 0,1.12848 c 0,1.14583 2.635,1.94444 5,1.94444 2.365,0 5,-0.79861 5,-1.94444 l 0,-1.12848 c -0.8891,0.83608 -2.76666,1.40625 -5,1.40625 -2.23334,0 -4.1109,-0.57017 -5,-1.40625 z"
         style="color:#000000;fill:#ffffff;fill-opacity:1;fill-rule:nonzero;stroke:none;stroke-width:20;marker:none;visibility:visible;display:inline;overflow:visible;enable-background:new" />
      <path
         inkscape:connector-curvature="0"
         style="color:#000000;fill:#ffffff;fill-opacity:1;fill-rule:nonzero;stroke:none;stroke-width:20;marker:none;visibility:visible;display:inline;overflow:visible;enable-background:new"
         d="m 302,230 c -0.554,0 -1,0.446 -1,1 l 0,26 c 0,0.554 0.446,1 1,1 l 20,0 c 0.554,0 1,-0.446 1,-1 L 323,237.6875 315.3125,230 302,230 z m 14.6875,0 L 323,236.3125 323,231 c 0,-0.554 -0.446,-1 -1,-1 l -5.3125,0 z M 312,239 c 1.94828,0 3.86221,0.32651 5.34375,0.90625 0.74077,0.28987 1.36898,0.62256 1.84375,1.0625 0.47477,0.43994 0.8125,0.77901 0.8125,1.40625 0,0.0102 10e-4,0.0215 0,0.0312 0.006,0.0318 0,0.0601 0,0.0937 l 0,0.75 0,2.125 0,0.875 0,2.15625 0,0.84375 0,2.0625 0,0.1875 c 0,0.0845 -0.0258,0.14913 -0.0625,0.21875 -0.10745,0.46557 -0.37837,0.87439 -0.75,1.21875 -0.47477,0.43994 -1.10298,0.77263 -1.84375,1.0625 -1.48154,0.57974 -3.39547,0.90625 -5.34375,0.90625 -1.94828,0 -3.86221,-0.32651 -5.34375,-0.90625 -0.74077,-0.28987 -1.36898,-0.62256 -1.84375,-1.0625 C 304.33773,252.49756 304,251.93974 304,251.3125 l 0,-0.8125 0,-1.25 0,-0.84375 0,-2.15625 0,-0.875 0,-2.125 0,-0.75 c 0,-0.0337 -0.006,-0.062 0,-0.0937 -10e-4,-0.01 0,-0.0211 0,-0.0312 0,-0.62724 0.33773,-0.96631 0.8125,-1.40625 0.47477,-0.43994 1.10298,-0.77263 1.84375,-1.0625 C 308.13779,239.32651 310.05172,239 312,239 z m 0,1 c -1.83572,0 -3.67754,0.29501 -5,0.8125 -0.66123,0.25874 -1.19102,0.59099 -1.53125,0.90625 C 305.12852,242.03401 305,242.08558 305,242.375 c 0,0.26173 0.16408,0.53187 0.4375,0.8125 0.49437,0.37024 1.05685,0.72924 1.78125,1 1.30612,0.47796 3.0255,0.8125 4.78125,0.8125 1.75575,0 3.47513,-0.33454 4.78125,-0.8125 0.7244,-0.27076 1.28688,-0.62976 1.78125,-1 0.27342,-0.28063 0.4375,-0.55077 0.4375,-0.8125 0,-0.28942 -0.12852,-0.34099 -0.46875,-0.65625 C 318.19102,241.40349 317.66123,241.07124 317,240.8125 315.67754,240.29501 313.83572,240 312,240 z m -7,4.125 0,1.25 c 0,0.25766 0.14196,0.53684 0.40625,0.8125 0.51751,0.39071 1.1026,0.75141 1.875,1.03125 C 308.58134,247.68498 310.26845,248 312,248 c 1.73155,0 3.41866,-0.31502 4.71875,-0.78125 0.7724,-0.27984 1.35749,-0.64054 1.875,-1.03125 C 318.85804,245.91184 319,245.63266 319,245.375 l 0,-1.25 c -0.45423,0.37759 -0.99324,0.70931 -1.65625,0.96875 -0.0688,0.0272 -0.1793,0.005 -0.25,0.0312 C 315.69721,245.63826 314.05182,246 312,246 c -2.05182,0 -3.69721,-0.36174 -5.09375,-0.875 -0.0707,-0.0262 -0.1812,-0.004 -0.25,-0.0312 -0.66301,-0.25944 -1.20202,-0.59116 -1.65625,-0.96875 z m 0,3 0,1.28125 c 0,0.26905 0.14721,0.52284 0.4375,0.8125 0.51044,0.38186 1.08841,0.72478 1.84375,1 C 308.58179,250.68582 310.2667,251 312,251 c 1.7333,0 3.41821,-0.31418 4.71875,-0.78125 0.75534,-0.27522 1.33331,-0.61814 1.84375,-1 0.29029,-0.28966 0.4375,-0.54345 0.4375,-0.8125 l 0,-1.28125 c -0.45423,0.37759 -0.99324,0.70931 -1.65625,0.96875 -0.0688,0.0272 -0.1793,0.005 -0.25,0.0312 C 315.69753,248.63784 314.05092,249 312,249 c -2.05092,0 -3.69753,-0.36216 -5.09375,-0.875 -0.0707,-0.0262 -0.1812,-0.004 -0.25,-0.0312 -0.66301,-0.25944 -1.20202,-0.59116 -1.65625,-0.96875 z m 0,3.03125 0,0.34375 0,0.8125 c 0,0.28942 0.12852,0.55974 0.46875,0.875 0.34023,0.31526 0.87002,0.64751 1.53125,0.90625 1.32246,0.51749 3.16428,0.8125 5,0.8125 1.83572,0 3.67754,-0.29501 5,-0.8125 0.66123,-0.25874 1.19102,-0.59099 1.53125,-0.90625 0.34023,-0.31526 0.46875,-0.58558 0.46875,-0.875 l 0,-1.15625 c -0.45423,0.37759 -0.99324,0.70931 -1.65625,0.96875 -0.0689,0.0272 -0.1793,0.005 -0.25,0.0312 C 315.69753,251.66909 314.05092,252 312,252 c -2.05092,0 -3.69753,-0.33091 -5.09375,-0.84375 -0.0707,-0.0262 -0.1811,-0.004 -0.25,-0.0312 -0.66301,-0.25944 -1.20202,-0.59116 -1.65625,-0.96875 z"
         id="rect3833" />
      <path
         style="color:#000000;fill:#ffffff;fill-opacity:1;fill-rule:nonzero;stroke:none;stroke-width:20;marker:none;visibility:visible;display:inline;overflow:visible;enable-background:new"
         d="m 306,152 c -1.108,0 -2,0.892 -2,2 l 0,36 c 0,1.108 0.892,2 2,2 l 28,0 c 1.108,0 2,-0.892 2,-2 L 336,161.6875 326.3125,152 z m 21.6875,0 L 336,160.3125 336,154 c 0,-1.108 -0.892,-2 -2,-2 z M 320,165 c 5.6075,0 10,1.9765 10,4.5 l 0,4 0,4 0,4 c 0,2.5235 -4.3925,4.5 -10,4.5 -5.6075,0 -10,-1.9765 -10,-4.5 l 0,-4 0,-4 0,-4 c 0,-2.5235 4.3925,-4.5 10,-4.5 z m 0,1 c -4.257,0 -9,1.4375 -9,3.5 0,2.0625 4.743,3.5 9,3.5 4.257,0 9,-1.4375 9,-3.5 0,-2.0625 -4.743,-3.5 -9,-3.5 z m -9,5.46875 0,2.03125 c 0,2.0625 4.743,3.5 9,3.5 4.257,0 9,-1.4375 9,-3.5 l 0,-2.03125 C 327.39962,172.97368 324.02002,174 320,174 c -4.02002,0 -7.39962,-1.02632 -9,-2.53125 z m 0,4 0,2.03125 c 0,2.0625 4.743,3.5 9,3.5 4.257,0 9,-1.4375 9,-3.5 l 0,-2.03125 C 327.39962,176.97368 324.02002,178 320,178 c -4.02002,0 -7.39962,-1.02632 -9,-2.53125 z m 0,4 0,2.03125 c 0,2.0625 4.743,3.5 9,3.5 4.257,0 9,-1.4375 9,-3.5 l 0,-2.03125 C 327.39962,180.97368 324.02002,182 320,182 c -4.02002,0 -7.39962,-1.02632 -9,-2.53125 z"
         id="rect3939"
         inkscape:connector-curvature="0"
         sodipodi:nodetypes="ssssssccsccsscssccsssccssssssscssscsccssscsccssscsc" />
      <path
         sodipodi:nodetypes="ssssscssscsccssscsccssscsc"
         inkscape:connector-curvature="0"
         id="path4142"
         d="m 432,59.555556 c -3.784,0 -8,1.277778 -8,3.111111 0,1.833334 4.216,3.111111 8,3.111111 3.784,0 8,-1.277777 8,-3.111111 0,-1.833333 -4.216,-3.111111 -8,-3.111111 z m -8,4.861111 0,1.805556 c 0,1.833333 4.216,3.111111 8,3.111111 3.784,0 8,-1.277778 8,-3.111111 l 0,-1.805556 c -1.42256,1.337716 -4.42665,2.25 -8,2.25 -3.57335,0 -6.57744,-0.912284 -8,-2.25 z m 0,3.555556 0,1.805555 c 0,1.833334 4.216,3.111111 8,3.111111 3.784,0 8,-1.277777 8,-3.111111 l 0,-1.805555 c -1.42256,1.337715 -4.42665,2.25 -8,2.25 -3.57335,0 -6.57744,-0.912285 -8,-2.25 z m 0,3.555555 0,1.805556 c 0,1.833333 4.216,3.111111 8,3.111111 3.784,0 8,-1.277778 8,-3.111111 l 0,-1.805556 c -1.42256,1.337716 -4.42665,2.25 -8,2.25 -3.57335,0 -6.57744,-0.912284 -8,-2.25 z"
         style="color:#000000;fill:#ffffff;fill-opacity:1;fill-rule:nonzero;stroke:none;stroke-width:20;marker:none;visibility:visible;display:inline;overflow:visible;enable-background:new" />
      <path
         style="color:#000000;fill:#ffffff;fill-opacity:1;fill-rule:nonzero;stroke:none;stroke-width:20;marker:none;visibility:visible;display:inline;overflow:visible;enable-background:new"
         d="m 428,105.66667 c -2.838,0 -6,0.95834 -6,2.33334 0,1.375 3.162,2.33333 6,2.33333 2.838,0 6,-0.95833 6,-2.33333 0,-1.375 -3.162,-2.33334 -6,-2.33334 z m -6,3.64584 0,1.35416 c 0,1.375 3.162,2.33334 6,2.33334 2.838,0 6,-0.95834 6,-2.33334 l 0,-1.35416 c -1.06692,1.00328 -3.31999,1.6875 -6,1.6875 -2.68001,0 -4.93308,-0.68422 -6,-1.6875 z m 0,2.66666 0,1.35417 c 0,1.375 3.162,2.33333 6,2.33333 2.838,0 6,-0.95833 6,-2.33333 l 0,-1.35417 c -1.06692,1.00329 -3.31999,1.6875 -6,1.6875 -2.68001,0 -4.93308,-0.68421 -6,-1.6875 z m 0,2.66667 0,1.35417 c 0,1.375 3.162,2.33333 6,2.33333 2.838,0 6,-0.95833 6,-2.33333 l 0,-1.35417 c -1.06692,1.00329 -3.31999,1.6875 -6,1.6875 -2.68001,0 -4.93308,-0.68421 -6,-1.6875 z"
         id="path4162"
         inkscape:connector-curvature="0"
         sodipodi:nodetypes="ssssscssscsccssscsccssscsc" />
    </g>
    <g
       inkscape:groupmode="layer"
       id="layer5"
       inkscape:label="Highlights"
       style="display:inline"
       sodipodi:insensitive="true">
      <path
         style="opacity:0.12999998;color:#bebebe;fill:#ffffff;fill-opacity:1;fill-rule:nonzero;stroke:none;stroke-width:0;marker:none;visibility:visible;display:inline;overflow:visible;enable-background:accumulate"
         d="M 84,47 C 56.836703,47 35,68.836703 35,96 l 0,1 C 35,69.836703 56.836703,48 84,48 l 120,0 c 27.1633,0 49,21.836703 49,49 l 0,-1 C 253,68.836703 231.1633,47 204,47 L 84,47 z"
         id="rect3894"
         inkscape:connector-curvature="0" />
      <path
         style="opacity:0.12999998;color:#bebebe;fill:#ffffff;fill-opacity:1;fill-rule:nonzero;stroke:none;stroke-width:0;marker:none;visibility:visible;display:inline;overflow:visible;enable-background:accumulate"
         d="m 419,141 c -1.1253,0 -2,0.8747 -2,2 l 0,1 c 0,-1.1253 0.8747,-2 2,-2 l 10,0 c 1.1253,0 2,0.8747 2,2 l 0,-1 c 0,-1.1253 -0.8747,-2 -2,-2 l -10,0 z"
         id="rect3896"
         inkscape:connector-curvature="0" />
      <path
         style="opacity:0.12999998;color:#bebebe;fill:#ffffff;fill-opacity:1;fill-rule:nonzero;stroke:none;stroke-width:0;marker:none;visibility:visible;display:inline;overflow:visible;enable-background:accumulate"
         d="m 422,102 c -2.2333,0 -4,1.7667 -4,4 l 0,1 c 0,-2.2333 1.7667,-4 4,-4 l 12,0 c 2.2333,0 4,1.7667 4,4 l 0,-1 c 0,-2.2333 -1.7667,-4 -4,-4 l -12,0 z"
         id="rect3898"
         inkscape:connector-curvature="0" />
      <path
         style="opacity:0.12999998;color:#bebebe;fill:#ffffff;fill-opacity:1;fill-rule:nonzero;stroke:none;stroke-width:0;marker:none;visibility:visible;display:inline;overflow:visible;enable-background:accumulate"
         d="m 424,54 c -3.3413,0 -6,2.658703 -6,6 l 0,1 c 0,-3.341297 2.6587,-6 6,-6 l 16,0 c 3.3413,0 6,2.658703 6,6 l 0,-1 c 0,-3.341297 -2.6587,-6 -6,-6 l -16,0 z"
         id="rect3900"
         inkscape:connector-curvature="0" />
      <path
         style="opacity:0.12999998;color:#bebebe;fill:#ffffff;fill-opacity:1;fill-rule:nonzero;stroke:none;stroke-width:0;marker:none;visibility:visible;display:inline;overflow:visible;enable-background:accumulate"
         d="m 300,224 c -4.4493,0 -8,3.5507 -8,8 l 0,1 c 0,-4.4493 3.5507,-8 8,-8 l 24,0 c 4.4493,0 8,3.5507 8,8 l 0,-1 c 0,-4.4493 -3.5507,-8 -8,-8 l -24,0 z"
         id="rect3902"
         inkscape:connector-curvature="0" />
      <path
         style="opacity:0.12999998;color:#bebebe;fill:#ffffff;fill-opacity:1;fill-rule:nonzero;stroke:none;stroke-width:0;marker:none;visibility:visible;display:inline;overflow:visible;enable-background:accumulate"
         d="m 310,33 c -9.4353,0 -17,7.564703 -17,17 l 0,1 c 0,-9.435297 7.5647,-17 17,-17 l 52,0 c 9.4353,0 17,7.564703 17,17 l 0,-1 c 0,-9.435297 -7.5647,-17 -17,-17 l -52,0 z"
         id="rect3904"
         inkscape:connector-curvature="0" />
      <path
         style="opacity:0.12999998;color:#bebebe;fill:#ffffff;fill-opacity:1;fill-rule:nonzero;stroke:none;stroke-width:0;marker:none;visibility:visible;display:inline;overflow:visible;enable-background:accumulate"
         d="m 302.5,143 c -6.3883,0 -11.5,5.1117 -11.5,11.5 l 0,1 c 0,-6.3883 5.1117,-11.5 11.5,-11.5 l 35,0 c 6.3883,0 11.5,5.1117 11.5,11.5 l 0,-1 c 0,-6.3883 -5.1117,-11.5 -11.5,-11.5 l -35,0 z"
         id="rect3906"
         inkscape:connector-curvature="0" />
      <path
         id="path4085"
         d="m 204,266 c 27.1633,0 49,-21.8367 49,-49 l 0,-1 c 0,27.1633 -21.8367,49 -49,49 L 84,265 C 56.8367,265 35,243.1633 35,216 l 0,1 c 0,27.1633 21.8367,49 49,49 l 120,0 z"
         style="opacity:0.5;color:#bebebe;fill:#000000;fill-opacity:1;fill-rule:nonzero;stroke:none;stroke-width:0;marker:none;visibility:visible;display:inline;overflow:visible;enable-background:accumulate"
         inkscape:connector-curvature="0" />
      <path
         id="path4087"
         d="m 429,156 c 1.1253,0 2,-0.8747 2,-2 l 0,-1 c 0,1.1253 -0.8747,2 -2,2 l -10,0 c -1.1253,0 -2,-0.8747 -2,-2 l 0,1 c 0,1.1253 0.8747,2 2,2 l 10,0 z"
         style="opacity:0.3;color:#bebebe;fill:#000000;fill-opacity:1;fill-rule:nonzero;stroke:none;stroke-width:0;marker:none;visibility:visible;display:inline;overflow:visible;enable-background:accumulate"
         inkscape:connector-curvature="0" />
      <path
         id="path4089"
         d="m 434,123 c 2.2333,0 4,-1.7667 4,-4 l 0,-1 c 0,2.2333 -1.7667,4 -4,4 l -12,0 c -2.2333,0 -4,-1.7667 -4,-4 l 0,1 c 0,2.2333 1.7667,4 4,4 l 12,0 z"
         style="opacity:0.3;color:#bebebe;fill:#000000;fill-opacity:1;fill-rule:nonzero;stroke:none;stroke-width:0;marker:none;visibility:visible;display:inline;overflow:visible;enable-background:accumulate"
         inkscape:connector-curvature="0" />
      <path
         id="path4091"
         d="m 440,83 c 3.3413,0 6,-2.6587 6,-6 l 0,-1 c 0,3.3413 -2.6587,6 -6,6 l -16,0 c -3.3413,0 -6,-2.6587 -6,-6 l 0,1 c 0,3.3413 2.6587,6 6,6 l 16,0 z"
         style="opacity:0.5;color:#bebebe;fill:#000000;fill-opacity:1;fill-rule:nonzero;stroke:none;stroke-width:0;marker:none;visibility:visible;display:inline;overflow:visible;enable-background:accumulate"
         inkscape:connector-curvature="0" />
      <path
         id="path4093"
         d="m 324,265 c 4.4493,0 8,-3.5507 8,-8 l 0,-1 c 0,4.4493 -3.5507,8 -8,8 l -24,0 c -4.4493,0 -8,-3.5507 -8,-8 l 0,1 c 0,4.4493 3.5507,8 8,8 l 24,0 z"
         style="opacity:0.5;color:#bebebe;fill:#000000;fill-opacity:1;fill-rule:nonzero;stroke:none;stroke-width:0;marker:none;visibility:visible;display:inline;overflow:visible;enable-background:accumulate"
         inkscape:connector-curvature="0" />
      <path
         id="path4095"
         d="m 362,120 c 9.4353,0 17,-7.5647 17,-17 l 0,-1 c 0,9.4353 -7.5647,17 -17,17 l -52,0 c -9.4353,0 -17,-7.5647 -17,-17 l 0,1 c 0,9.4353 7.5647,17 17,17 l 52,0 z"
         style="opacity:0.5;color:#bebebe;fill:#000000;fill-opacity:1;fill-rule:nonzero;stroke:none;stroke-width:0;marker:none;visibility:visible;display:inline;overflow:visible;enable-background:accumulate"
         inkscape:connector-curvature="0" />
      <path
         id="path4097"
         d="m 337.5,202 c 6.3883,0 11.5,-5.1117 11.5,-11.5 l 0,-1 c 0,6.3883 -5.1117,11.5 -11.5,11.5 l -35,0 c -6.3883,0 -11.5,-5.1117 -11.5,-11.5 l 0,1 c 0,6.3883 5.1117,11.5 11.5,11.5 l 35,0 z"
         style="opacity:0.5;color:#bebebe;fill:#000000;fill-opacity:1;fill-rule:nonzero;stroke:none;stroke-width:0;marker:none;visibility:visible;display:inline;overflow:visible;enable-background:accumulate"
         inkscape:connector-curvature="0" />
      <path
         inkscape:connector-curvature="0"
         id="path4280"
         d="M 84,265 C 56.836703,265 35,243.1633 35,216 l 0,-1 c 0,27.1633 21.836703,49 49,49 l 120,0 c 27.1633,0 49,-21.8367 49,-49 l 0,1 c 0,27.1633 -21.8367,49 -49,49 l -120,0 z"
         style="opacity:0.1;color:#bebebe;fill:#ffffff;fill-opacity:1;fill-rule:nonzero;stroke:none;stroke-width:0;marker:none;visibility:visible;display:inline;overflow:visible;enable-background:accumulate" />
      <path
         style="opacity:0.1;color:#bebebe;fill:#ffffff;fill-opacity:1;fill-rule:nonzero;stroke:none;stroke-width:0;marker:none;visibility:visible;display:inline;overflow:visible;enable-background:accumulate"
         d="m 300,264 c -4.4493,0 -8,-3.5507 -8,-8 l 0,-1 c 0,4.4493 3.5507,8 8,8 l 24,0 c 4.4493,0 8,-3.5507 8,-8 l 0,1 c 0,4.4493 -3.5507,8 -8,8 l -24,0 z"
         id="path4294"
         inkscape:connector-curvature="0" />
      <path
         style="opacity:0.1;color:#bebebe;fill:#ffffff;fill-opacity:1;fill-rule:nonzero;stroke:none;stroke-width:0;marker:none;visibility:visible;display:inline;overflow:visible;enable-background:accumulate"
         d="m 302.5,201 c -6.3883,0 -11.5,-5.1117 -11.5,-11.5 l 0,-1 c 0,6.3883 5.1117,11.5 11.5,11.5 l 35,0 c 6.3883,0 11.5,-5.1117 11.5,-11.5 l 0,1 c 0,6.3883 -5.1117,11.5 -11.5,11.5 l -35,0 z"
         id="path4296"
         inkscape:connector-curvature="0" />
      <path
         style="opacity:0.1;color:#bebebe;fill:#ffffff;fill-opacity:1;fill-rule:nonzero;stroke:none;stroke-width:0;marker:none;visibility:visible;display:inline;overflow:visible;enable-background:accumulate"
         d="m 310,119 c -9.4353,0 -17,-7.5647 -17,-17 l 0,-1 c 0,9.4353 7.5647,17 17,17 l 52,0 c 9.4353,0 17,-7.5647 17,-17 l 0,1 c 0,9.4353 -7.5647,17 -17,17 l -52,0 z"
         id="path4298"
         inkscape:connector-curvature="0" />
      <path
         style="opacity:0.1;color:#bebebe;fill:#ffffff;fill-opacity:1;fill-rule:nonzero;stroke:none;stroke-width:0;marker:none;visibility:visible;display:inline;overflow:visible;enable-background:accumulate"
         d="m 424,82 c -3.3413,0 -6,-2.658703 -6,-6 l 0,-1 c 0,3.341297 2.6587,6 6,6 l 16,0 c 3.3413,0 6,-2.658703 6,-6 l 0,1 c 0,3.341297 -2.6587,6 -6,6 l -16,0 z"
         id="path4300"
         inkscape:connector-curvature="0" />
      <path
         style="opacity:0.1;color:#bebebe;fill:#ffffff;fill-opacity:1;fill-rule:nonzero;stroke:none;stroke-width:0;marker:none;visibility:visible;display:inline;overflow:visible;enable-background:accumulate"
         d="m 422,122 c -2.2333,0 -4,-1.7667 -4,-4 l 0,-1 c 0,2.2333 1.7667,4 4,4 l 12,0 c 2.2333,0 4,-1.7667 4,-4 l 0,1 c 0,2.2333 -1.7667,4 -4,4 l -12,0 z"
         id="path4302"
         inkscape:connector-curvature="0" />
      <path
         style="opacity:0.1;color:#bebebe;fill:#ffffff;fill-opacity:1;fill-rule:nonzero;stroke:none;stroke-width:0;marker:none;visibility:visible;display:inline;overflow:visible;enable-background:accumulate"
         d="m 419,154.5 c -1.1253,0 -2,-0.8747 -2,-2 l 0,-1 c 0,1.1253 0.8747,2 2,2 l 10,0 c 1.1253,0 2,-0.8747 2,-2 l 0,1 c 0,1.1253 -0.8747,2 -2,2 l -10,0 z"
         id="path4304"
         inkscape:connector-curvature="0" />
    </g>
    <g
       inkscape:groupmode="layer"
       id="layer3"
       inkscape:label="Border"
       style="display:inline"
       sodipodi:insensitive="true">
      <path
         style="opacity:0.41000001;color:#bebebe;fill:#000000;fill-opacity:1;fill-rule:nonzero;stroke:none;stroke-width:0;marker:none;visibility:visible;display:inline;overflow:visible;enable-background:accumulate"
         d="m 422,101 c -2.77,0 -5,2.23 -5,5 l 0,12 c 0,2.77 2.23,5 5,5 l 12,0 c 2.77,0 5,-2.23 5,-5 l 0,-12 c 0,-2.77 -2.23,-5 -5,-5 l -12,0 z m 0,1 12,0 c 2.2333,0 4,1.7667 4,4 l 0,12 c 0,2.2333 -1.7667,4 -4,4 l -12,0 c -2.2333,0 -4,-1.7667 -4,-4 l 0,-12 c 0,-2.2333 1.7667,-4 4,-4 z"
         id="rect4099"
         inkscape:connector-curvature="0" />
      <path
         style="opacity:0.41000001;color:#bebebe;fill:#000000;fill-opacity:1;fill-rule:nonzero;stroke:none;stroke-width:0;marker:none;visibility:visible;display:inline;overflow:visible;enable-background:accumulate"
         d="m 424,53 c -3.878,0 -7,3.122 -7,7 l 0,16 c 0,3.878 3.122,7 7,7 l 16,0 c 3.878,0 7,-3.122 7,-7 l 0,-16 c 0,-3.878 -3.122,-7 -7,-7 l -16,0 z m 0,1 16,0 c 3.3413,0 6,2.658703 6,6 l 0,16 c 0,3.341297 -2.6587,6 -6,6 l -16,0 c -3.3413,0 -6,-2.658703 -6,-6 l 0,-16 c 0,-3.341297 2.6587,-6 6,-6 z"
         id="rect4151"
         inkscape:connector-curvature="0" />
      <path
         style="opacity:0.41000001;color:#bebebe;fill:#000000;fill-opacity:1;fill-rule:nonzero;stroke:none;stroke-width:0;marker:none;visibility:visible;display:inline;overflow:visible;enable-background:accumulate"
         d="m 419,140 c -1.662,0 -3,1.338 -3,3 l 0,10 c 0,1.662 1.338,3 3,3 l 10,0 c 1.662,0 3,-1.338 3,-3 l 0,-10 c 0,-1.662 -1.338,-3 -3,-3 l -10,0 z m 0,1 10,0 c 1.1253,0 2,0.8747 2,2 l 0,10 c 0,1.1253 -0.8747,2 -2,2 l -10,0 c -1.1253,0 -2,-0.8747 -2,-2 l 0,-10 c 0,-1.1253 0.8747,-2 2,-2 z"
         id="rect4095"
         inkscape:connector-curvature="0" />
      <path
         style="opacity:0.41000001;color:#bebebe;fill:#000000;fill-opacity:1;fill-rule:nonzero;stroke:none;stroke-width:0;marker:none;visibility:visible;display:inline;overflow:visible;enable-background:accumulate"
         d="m 300,223 c -4.986,0 -9,4.014 -9,9 l 0,24 c 0,4.986 4.014,9 9,9 l 24,0 c 4.986,0 9,-4.014 9,-9 l 0,-24 c 0,-4.986 -4.014,-9 -9,-9 l -24,0 z m 0,1 24,0 c 4.4493,0 8,3.5507 8,8 l 0,24 c 0,4.4493 -3.5507,8 -8,8 l -24,0 c -4.4493,0 -8,-3.5507 -8,-8 l 0,-24 c 0,-4.4493 3.5507,-8 8,-8 z"
         id="rect4783"
         inkscape:connector-curvature="0" />
      <path
         style="opacity:0.41000001;color:#bebebe;fill:#000000;fill-opacity:1;fill-rule:nonzero;stroke:none;stroke-width:0;marker:none;visibility:visible;display:inline;overflow:visible;enable-background:accumulate"
         d="m 302.5,142 c -6.925,0 -12.5,5.575 -12.5,12.5 l 0,35 c 0,6.925 5.575,12.5 12.5,12.5 l 35,0 c 6.925,0 12.5,-5.575 12.5,-12.5 l 0,-35 c 0,-6.925 -5.575,-12.5 -12.5,-12.5 l -35,0 z m 0,1 35,0 c 6.3883,0 11.5,5.1117 11.5,11.5 l 0,35 c 0,6.3883 -5.1117,11.5 -11.5,11.5 l -35,0 c -6.3883,0 -11.5,-5.1117 -11.5,-11.5 l 0,-35 c 0,-6.3883 5.1117,-11.5 11.5,-11.5 z"
         id="rect4515"
         inkscape:connector-curvature="0" />
      <path
         style="opacity:0.41000001;color:#bebebe;fill:#000000;fill-opacity:1;fill-rule:nonzero;stroke:none;stroke-width:0;marker:none;visibility:visible;display:inline;overflow:visible;enable-background:accumulate"
         d="m 310,32 c -9.972,0 -18,8.028 -18,18 l 0,52 c 0,9.972 8.028,18 18,18 l 52,0 c 9.972,0 18,-8.028 18,-18 l 0,-52 c 0,-9.972 -8.028,-18 -18,-18 l -52,0 z m 0,1 52,0 c 9.4353,0 17,7.564703 17,17 l 0,52 c 0,9.4353 -7.5647,17 -17,17 l -52,0 c -9.4353,0 -17,-7.5647 -17,-17 l 0,-52 c 0,-9.435297 7.5647,-17 17,-17 z"
         id="rect4511"
         inkscape:connector-curvature="0" />
      <path
         style="opacity:0.41000001;color:#bebebe;fill:#000000;fill-opacity:1;fill-rule:nonzero;stroke:none;stroke-width:0;marker:none;visibility:visible;display:inline;overflow:visible;enable-background:accumulate"
         d="M 84,46 C 56.3,46 34,68.3 34,96 l 0,120 c 0,27.7 22.3,50 50,50 l 120,0 c 27.7,0 50,-22.3 50,-50 L 254,96 C 254,68.3 231.7,46 204,46 L 84,46 z m 0,1 120,0 c 27.1633,0 49,21.836703 49,49 l 0,120 c 0,27.1633 -21.8367,49 -49,49 L 84,265 C 56.836703,265 35,243.1633 35,216 L 35,96 C 35,68.836703 56.836703,47 84,47 z"
         id="rect4040"
         inkscape:connector-curvature="0" />
    </g>
  </g>
</svg>
