<?xml version="1.0" encoding="UTF-8" standalone="no"?>
<!-- Created with Inkscape (http://www.inkscape.org/) -->

<svg
   xmlns:dc="http://purl.org/dc/elements/1.1/"
   xmlns:cc="http://creativecommons.org/ns#"
   xmlns:rdf="http://www.w3.org/1999/02/22-rdf-syntax-ns#"
   xmlns:svg="http://www.w3.org/2000/svg"
   xmlns="http://www.w3.org/2000/svg"
   xmlns:xlink="http://www.w3.org/1999/xlink"
   xmlns:sodipodi="http://sodipodi.sourceforge.net/DTD/sodipodi-0.dtd"
   xmlns:inkscape="http://www.inkscape.org/namespaces/inkscape"
   inkscape:export-ydpi="90.000000"
   inkscape:export-xdpi="90.000000"
   width="480"
   height="300"
   id="svg11300"
   sodipodi:version="0.32"
   inkscape:version="0.48.4 r9939"
   sodipodi:docname="dart.svg"
   inkscape:output_extension="org.inkscape.output.svg.inkscape"
   version="1.0"
   style="display:inline;enable-background:new"
   inkscape:export-filename="/home/sam/moka2-template.png">
  <sodipodi:namedview
     stroke="#ef2929"
     fill="#f57900"
     id="base"
     pagecolor="#ffffff"
     bordercolor="#666666"
     borderopacity="0.25490196"
     inkscape:pageopacity="0"
     inkscape:pageshadow="2"
     inkscape:zoom="1"
     inkscape:cx="173.02242"
     inkscape:cy="73.680351"
     inkscape:current-layer="layer6"
     showgrid="false"
     inkscape:grid-bbox="true"
     inkscape:document-units="px"
     inkscape:showpageshadow="false"
     inkscape:window-width="1364"
     inkscape:window-height="701"
     inkscape:window-x="0"
     inkscape:window-y="27"
     width="400px"
     height="300px"
     inkscape:snap-nodes="true"
     inkscape:snap-bbox="true"
     gridtolerance="10000"
     inkscape:object-nodes="true"
     inkscape:snap-grids="true"
     showguides="true"
     inkscape:guide-bbox="true"
     inkscape:window-maximized="1"
     inkscape:bbox-nodes="true"
     inkscape:bbox-paths="true"
     inkscape:snap-bbox-edge-midpoints="true"
     inkscape:snap-bbox-midpoints="true"
     inkscape:snap-global="true">
    <inkscape:grid
       spacingy="1px"
       spacingx="1px"
       id="grid5883"
       type="xygrid"
       enabled="true"
       visible="true"
       empspacing="4"
       snapvisiblegridlinesonly="true"
       dotted="false"
       color="#000000"
       opacity="0.1254902"
       empcolor="#203ef3"
       empopacity="0.36470588" />
    <inkscape:grid
       type="xygrid"
       id="grid11592"
       empspacing="8"
       visible="true"
       enabled="false"
       spacingx="0.5px"
       spacingy="0.5px"
       color="#ff0000"
       opacity="0.1254902"
       empcolor="#ff0000"
       empopacity="0.25098039"
       snapvisiblegridlinesonly="true"
       dotted="true" />
  </sodipodi:namedview>
  <defs
     id="defs3">
    <linearGradient
       id="outerBackgroundGradient">
      <stop
         style="stop-color:#f2f2f2;stop-opacity:1;"
         offset="0"
         id="stop3864-8-6" />
      <stop
         style="stop-color:#ffffff;stop-opacity:1;"
         offset="1"
         id="stop3866-9-1" />
    </linearGradient>
    <linearGradient
       inkscape:collect="always"
       xlink:href="#outerBackgroundGradient"
       id="linearGradient4097"
       gradientUnits="userSpaceOnUse"
       x1="264"
       y1="280.00003"
       x2="264"
       y2="40.00005"
       gradientTransform="matrix(0.06666667,0,0,0.06666667,414.4,137.33333)" />
    <linearGradient
       inkscape:collect="always"
       xlink:href="#outerBackgroundGradient"
       id="linearGradient4101"
       gradientUnits="userSpaceOnUse"
       gradientTransform="matrix(0.0875,0,0,0.0875,414.9,97.5)"
       x1="286.85715"
       y1="302.85715"
       x2="286.85715"
       y2="28.571428" />
    <linearGradient
       inkscape:collect="always"
       xlink:href="#outerBackgroundGradient"
       id="linearGradient4153"
       gradientUnits="userSpaceOnUse"
       gradientTransform="matrix(0.11931818,0,0,0.11931818,414.13636,48.22727)"
       x1="283.80957"
       y1="299.80954"
       x2="283.80957"
       y2="31.61907" />
    <linearGradient
       inkscape:collect="always"
       xlink:href="#outerBackgroundGradient"
       id="linearGradient4869"
       gradientUnits="userSpaceOnUse"
       gradientTransform="matrix(0.175,0,0,-0.175,286.79999,-215.99997)"
       x1="281.14291"
       y1="297.14304"
       x2="281.14291"
       y2="22.857315" />
    <clipPath
       clipPathUnits="userSpaceOnUse"
       id="clipPath4891">
      <rect
         ry="9"
         y="223"
         x="307"
         height="42"
         width="42"
         id="rect4893"
         style="color:#bebebe;fill:url(#linearGradient4895);fill-opacity:1;fill-rule:nonzero;stroke:none;stroke-width:0;marker:none;visibility:visible;display:inline;overflow:visible;enable-background:accumulate"
         transform="matrix(0,1,-1,0,0,0)" />
    </clipPath>
    <linearGradient
       inkscape:collect="always"
       xlink:href="#outerBackgroundGradient"
       id="linearGradient4895"
       gradientUnits="userSpaceOnUse"
       gradientTransform="matrix(0.175,0,0,0.175,302.79999,215.99997)"
       x1="144.00006"
       y1="280.00018"
       x2="144.00006"
       y2="40.000172" />
    <clipPath
       clipPathUnits="userSpaceOnUse"
       id="clipPath4044">
      <rect
         ry="4"
         y="85"
         x="433"
         height="22"
         width="22"
         id="rect4046"
         style="color:#bebebe;fill:url(#linearGradient4048);fill-opacity:1;fill-rule:nonzero;stroke:none;stroke-width:0;marker:none;visibility:visible;display:inline;overflow:visible;enable-background:accumulate" />
    </clipPath>
    <linearGradient
       inkscape:collect="always"
       xlink:href="#outerBackgroundGradient"
       id="linearGradient4048"
       gradientUnits="userSpaceOnUse"
       gradientTransform="matrix(0.0875,0,0,0.0875,430.9,81.499996)"
       x1="149.71428"
       y1="291.42862"
       x2="149.71428"
       y2="40.000046" />
    <clipPath
       clipPathUnits="userSpaceOnUse"
       id="clipPath4089">
      <rect
         style="color:#bebebe;fill:url(#linearGradient4093);fill-opacity:1;fill-rule:nonzero;stroke:none;stroke-width:0;marker:none;visibility:visible;display:inline;overflow:visible;enable-background:accumulate"
         id="rect4091"
         width="30"
         height="30"
         x="433"
         y="37"
         ry="6" />
    </clipPath>
    <linearGradient
       inkscape:collect="always"
       xlink:href="#outerBackgroundGradient"
       id="linearGradient4093"
       gradientUnits="userSpaceOnUse"
       gradientTransform="matrix(0.11931818,0,0,0.11931818,430.13636,32.227267)"
       x1="149.71432"
       y1="291.42862"
       x2="149.71432"
       y2="40.00005" />
    <clipPath
       clipPathUnits="userSpaceOnUse"
       id="clipPath3855">
      <rect
         style="color:#bebebe;fill:url(#linearGradient3859);fill-opacity:1;fill-rule:nonzero;stroke:none;stroke-width:0;marker:none;visibility:visible;display:inline;overflow:visible;enable-background:accumulate"
         id="rect3857"
         width="16"
         height="16"
         x="304"
         y="212"
         ry="3"
         transform="matrix(0,1,-1,0,0,0)" />
    </clipPath>
    <linearGradient
       inkscape:collect="always"
       xlink:href="#outerBackgroundGradient"
       id="linearGradient3859"
       gradientUnits="userSpaceOnUse"
       gradientTransform="matrix(0.06666667,0,0,0.06666667,302.4,209.33333)"
       x1="144"
       y1="280.00003"
       x2="144"
       y2="40.00005" />
    <clipPath
       clipPathUnits="userSpaceOnUse"
       id="clipPath3862">
      <rect
         ry="50"
         y="46"
         x="34"
         height="220"
         width="220"
         id="rect3864"
         style="color:#bebebe;fill:url(#linearGradient3866);fill-opacity:1;fill-rule:nonzero;stroke:none;stroke-width:0;marker:none;visibility:visible;display:inline;overflow:visible;enable-background:accumulate" />
    </clipPath>
    <linearGradient
       inkscape:collect="always"
       xlink:href="#outerBackgroundGradient"
       id="linearGradient3866"
       gradientUnits="userSpaceOnUse"
       gradientTransform="translate(0,-4)"
       x1="144"
       y1="280"
       x2="144"
       y2="40" />
    <linearGradient
       inkscape:collect="always"
       xlink:href="#outerBackgroundGradient"
       id="linearGradient3876"
       gradientUnits="userSpaceOnUse"
       gradientTransform="translate(0,-4)"
       x1="272"
       y1="288"
       x2="272"
       y2="32" />
    <clipPath
       clipPathUnits="userSpaceOnUse"
       id="clipPath4187">
      <rect
         ry="12.5"
         y="142"
         x="290"
         height="60"
         width="60"
         id="rect4189"
         style="color:#bebebe;fill:url(#linearGradient4191);fill-opacity:1;fill-rule:nonzero;stroke:none;stroke-width:0;marker:none;visibility:visible;display:inline;overflow:visible;enable-background:accumulate" />
    </clipPath>
    <linearGradient
       inkscape:collect="always"
       xlink:href="#outerBackgroundGradient"
       id="linearGradient4191"
       gradientUnits="userSpaceOnUse"
       x1="352"
       y1="204"
       x2="352"
       y2="140" />
    <linearGradient
       inkscape:collect="always"
       xlink:href="#outerBackgroundGradient"
       id="linearGradient4197"
       gradientUnits="userSpaceOnUse"
       x1="384"
       y1="124"
       x2="384"
       y2="28" />
    <linearGradient
       inkscape:collect="always"
       xlink:href="#outerBackgroundGradient"
       id="linearGradient4199"
       gradientUnits="userSpaceOnUse"
       x1="352"
       y1="204"
       x2="352"
       y2="140" />
    <clipPath
       clipPathUnits="userSpaceOnUse"
       id="clipPath4346">
      <rect
         style="color:#bebebe;fill:url(#linearGradient4350);fill-opacity:1;fill-rule:nonzero;stroke:none;stroke-width:0;marker:none;visibility:visible;display:inline;overflow:visible;enable-background:accumulate"
         id="rect4348"
         width="88"
         height="88"
         x="292"
         y="32"
         ry="18" />
    </clipPath>
    <linearGradient
       inkscape:collect="always"
       xlink:href="#outerBackgroundGradient"
       id="linearGradient4350"
       gradientUnits="userSpaceOnUse"
       x1="384"
       y1="124"
       x2="384"
       y2="28" />
    <clipPath
       clipPathUnits="userSpaceOnUse"
       id="clipPath3871">
      <rect
         ry="5"
         y="101"
         x="417"
         height="22"
         width="22"
         id="rect3873"
         style="color:#bebebe;fill:url(#linearGradient3875);fill-opacity:1;fill-rule:nonzero;stroke:none;stroke-width:0;marker:none;visibility:visible;display:inline;overflow:visible;enable-background:accumulate" />
    </clipPath>
    <linearGradient
       inkscape:collect="always"
       xlink:href="#outerBackgroundGradient"
       id="linearGradient3875"
       gradientUnits="userSpaceOnUse"
       gradientTransform="matrix(0.0875,0,0,0.0875,414.9,97.5)"
       x1="286.85715"
       y1="302.85715"
       x2="286.85715"
       y2="28.571428" />
    <clipPath
       clipPathUnits="userSpaceOnUse"
       id="clipPath3881">
      <rect
         style="color:#bebebe;fill:url(#linearGradient3885);fill-opacity:1;fill-rule:nonzero;stroke:none;stroke-width:0;marker:none;visibility:visible;display:inline;overflow:visible;enable-background:accumulate"
         id="rect3883"
         width="30"
         height="30"
         x="417"
         y="53"
         ry="7" />
    </clipPath>
    <linearGradient
       inkscape:collect="always"
       xlink:href="#outerBackgroundGradient"
       id="linearGradient3885"
       gradientUnits="userSpaceOnUse"
       gradientTransform="matrix(0.11931818,0,0,0.11931818,414.13636,48.22727)"
       x1="283.80957"
       y1="299.80954"
       x2="283.80957"
       y2="31.61907" />
  </defs>
  <metadata
     id="metadata4">
    <rdf:RDF>
      <cc:Work
         rdf:about="">
        <dc:format>image/svg+xml</dc:format>
        <dc:type
           rdf:resource="http://purl.org/dc/dcmitype/StillImage" />
        <dc:creator>
          <cc:Agent>
            <dc:title>Sam Hewitt</dc:title>
          </cc:Agent>
        </dc:creator>
        <dc:source />
        <cc:license
           rdf:resource="" />
        <dc:title />
        <dc:subject>
          <rdf:Bag />
        </dc:subject>
        <dc:date />
        <dc:rights>
          <cc:Agent>
            <dc:title />
          </cc:Agent>
        </dc:rights>
        <dc:publisher>
          <cc:Agent>
            <dc:title />
          </cc:Agent>
        </dc:publisher>
        <dc:identifier />
        <dc:relation />
        <dc:language />
        <dc:coverage />
        <dc:description />
        <dc:contributor>
          <cc:Agent>
            <dc:title />
          </cc:Agent>
        </dc:contributor>
      </cc:Work>
      <cc:Work
         rdf:about="">
        <dc:format>image/svg+xml</dc:format>
        <dc:type
           rdf:resource="http://purl.org/dc/dcmitype/StillImage" />
      </cc:Work>
    </rdf:RDF>
  </metadata>
  <g
     style="display:inline"
     inkscape:groupmode="layer"
     inkscape:label="Icon"
     id="layer1">
    <g
       style="display:none"
       inkscape:label="Baseplate"
       id="layer7"
       inkscape:groupmode="layer"
       sodipodi:insensitive="true">
      <text
         y="19.745117"
         xml:space="preserve"
         x="15.006836"
         style="font-size:18px;font-style:normal;font-variant:normal;font-weight:normal;font-stretch:normal;fill:#000000;fill-opacity:1;stroke:none;display:inline;enable-background:new;font-family:DejaVu Sans;-inkscape-font-specification:DejaVu Sans"
         inkscape:label="context"
         id="context"><tspan
           style="font-style:normal;font-variant:normal;font-weight:normal;font-stretch:normal;font-family:DejaVu Sans;-inkscape-font-specification:DejaVu Sans"
           y="19.745117"
           x="15.006836"
           sodipodi:role="line"
           id="tspan3933">apps</tspan></text>
      <text
         y="19.745117"
         xml:space="preserve"
         x="122.48828"
         style="font-size:18px;font-style:normal;font-variant:normal;font-weight:bold;font-stretch:normal;text-align:start;line-height:125%;writing-mode:lr-tb;text-anchor:start;fill:#000000;fill-opacity:1;stroke:none;display:inline;enable-background:new;font-family:DejaVu Sans;-inkscape-font-specification:DejaVu Sans Bold"
         sodipodi:linespacing="125%"
         inkscape:label="icon-name"
         id="icon-name"><tspan
           style="font-size:18px;font-style:normal;font-variant:normal;font-weight:bold;font-stretch:normal;font-family:DejaVu Sans;-inkscape-font-specification:DejaVu Sans Bold"
           y="19.745117"
           x="122.48828"
           sodipodi:role="line"
           id="tspan3937">dart</tspan></text>
      <rect
         style="fill:#eeeeec;fill-opacity:1;fill-rule:nonzero;stroke:none;stroke-width:2;marker:none;visibility:visible;display:inline;overflow:visible;enable-background:accumulate"
         id="rect16x16"
         width="16"
         height="16"
         x="416"
         y="140"
         inkscape:label="16x16" />
      <rect
         style="fill:#d4d4d4;fill-opacity:1;fill-rule:nonzero;stroke:none;stroke-width:2;marker:none;visibility:visible;display:inline;overflow:visible;enable-background:accumulate"
         id="rect24x24"
         width="24"
         height="24"
         x="416"
         y="100"
         inkscape:label="24x24" />
      <rect
         style="fill:#eeeeec;fill-opacity:1;fill-rule:nonzero;stroke:none;stroke-width:2;marker:none;visibility:visible;display:inline;overflow:visible;enable-background:accumulate"
         id="rect32x32"
         width="32"
         height="32"
         x="416"
         y="52"
         inkscape:label="32x32" />
      <rect
         inkscape:label="22x22"
         y="101"
         x="417"
         height="22"
         width="22"
         id="rect22x22"
         style="fill:#eeeeec;fill-opacity:1;fill-rule:nonzero;stroke:none;stroke-width:2;marker:none;visibility:visible;display:inline;overflow:visible;enable-background:accumulate" />
      <rect
         inkscape:label="48x48"
         y="220"
         x="288"
         height="48"
         width="48"
         id="rect48x48"
         style="fill:#eeeeec;fill-opacity:1;fill-rule:nonzero;stroke:none;stroke-width:2;marker:none;visibility:visible;display:inline;overflow:visible;enable-background:accumulate" />
      <rect
         style="fill:#eeeeec;fill-opacity:1;fill-rule:nonzero;stroke:none;stroke-width:2;marker:none;visibility:visible;display:inline;overflow:visible;enable-background:accumulate"
         id="rect256x256"
         width="256"
         height="256"
         x="16"
         y="28"
         inkscape:label="256x256" />
      <rect
         style="fill:#eeeeec;fill-opacity:1;fill-rule:nonzero;stroke:none;stroke-width:2;marker:none;visibility:visible;display:inline;overflow:visible;enable-background:accumulate"
         id="rect64x64"
         width="64"
         height="64"
         x="288"
         y="140"
         inkscape:label="64x64" />
      <rect
         style="fill:#eeeeec;fill-opacity:1;fill-rule:nonzero;stroke:none;stroke-width:2;marker:none;visibility:visible;display:inline;overflow:visible;enable-background:accumulate"
         id="rect96x96"
         width="96"
         height="96"
         x="288"
         y="28"
         inkscape:label="96x96" />
    </g>
    <g
       inkscape:groupmode="layer"
       id="layer4"
       inkscape:label="Shadow"
       style="display:inline"
       sodipodi:insensitive="true">
      <rect
         style="opacity:0.1;color:#bebebe;fill:#000000;fill-opacity:1;stroke:#000000;stroke-width:1;stroke-miterlimit:4;stroke-opacity:1;stroke-dasharray:none;marker:none;visibility:visible;display:inline;overflow:visible;enable-background:accumulate"
         id="rect4156"
         width="42"
         height="42"
         x="-266.5"
         y="291"
         ry="9"
         transform="matrix(0,-1,1,0,0,0)" />
      <rect
         transform="matrix(0,-1,1,0,0,0)"
         ry="9"
         y="291"
         x="-266.5"
         height="42"
         width="40"
         id="rect4183"
         style="opacity:0.3;color:#bebebe;fill:#000000;fill-opacity:1;stroke:none;stroke-width:1;marker:none;visibility:visible;display:inline;overflow:visible;enable-background:accumulate" />
      <rect
         ry="9"
         y="237"
         x="291"
         height="29"
         width="42"
         id="rect4144"
         style="opacity:0.3;color:#bebebe;fill:#000000;fill-opacity:1;fill-rule:nonzero;stroke:none;stroke-width:0;marker:none;visibility:visible;display:inline;overflow:visible;enable-background:accumulate" />
      <rect
         style="opacity:0.05;color:#bebebe;fill:#000000;fill-opacity:1;fill-rule:nonzero;stroke:#000000;stroke-width:1;stroke-miterlimit:4;stroke-opacity:1;stroke-dasharray:none;marker:none;visibility:visible;display:inline;overflow:visible;enable-background:accumulate"
         id="rect4340"
         width="88"
         height="88"
         x="292"
         y="33.5"
         ry="18" />
      <rect
         ry="18"
         y="52.5"
         x="292"
         height="69"
         width="88"
         id="rect4338"
         style="opacity:0.3;color:#bebebe;fill:#000000;fill-opacity:1;fill-rule:nonzero;stroke:none;stroke-width:0;marker:none;visibility:visible;display:inline;overflow:visible;enable-background:accumulate" />
      <rect
         style="opacity:0.3;color:#bebebe;fill:#000000;fill-opacity:1;fill-rule:nonzero;stroke:none;stroke-width:0;marker:none;visibility:visible;display:inline;overflow:visible;enable-background:accumulate"
         id="rect4335"
         width="88"
         height="76.5"
         x="292"
         y="44.5"
         ry="18" />
      <rect
         style="opacity:0.05;color:#bebebe;fill:#000000;fill-opacity:1;fill-rule:nonzero;stroke:#000000;stroke-width:1;stroke-miterlimit:4;stroke-opacity:1;stroke-dasharray:none;marker:none;visibility:visible;display:inline;overflow:visible;enable-background:accumulate"
         id="rect4214"
         width="60"
         height="60"
         x="290"
         y="143.5"
         ry="12.5" />
      <rect
         ry="12.5"
         y="151.5"
         x="290"
         height="52"
         width="60"
         id="rect4206"
         style="opacity:0.3;color:#bebebe;fill:#000000;fill-opacity:1;fill-rule:nonzero;stroke:none;stroke-width:0;marker:none;visibility:visible;display:inline;overflow:visible;enable-background:accumulate" />
      <rect
         style="opacity:0.3;color:#bebebe;fill:#000000;fill-opacity:1;fill-rule:nonzero;stroke:none;stroke-width:0;marker:none;visibility:visible;display:inline;overflow:visible;enable-background:accumulate"
         id="rect4212"
         width="60"
         height="54.5"
         x="290"
         y="148.5"
         ry="12.5" />
      <rect
         style="opacity:0.5;color:#bebebe;fill:#000000;fill-opacity:1;fill-rule:nonzero;stroke:none;stroke-width:0;marker:none;visibility:visible;display:inline;overflow:visible;enable-background:accumulate"
         id="rect4058"
         width="30"
         height="30"
         x="417"
         y="54"
         ry="7" />
      <rect
         ry="50"
         y="48"
         x="34"
         height="220"
         width="220"
         id="rect3872"
         style="opacity:0.05;color:#bebebe;fill:#000000;fill-opacity:1;fill-rule:nonzero;stroke:#000000;stroke-width:2;stroke-miterlimit:4;stroke-opacity:1;stroke-dasharray:none;marker:none;visibility:visible;display:inline;overflow:visible;enable-background:accumulate" />
      <rect
         style="opacity:0.3;color:#bebebe;fill:#000000;fill-opacity:1;fill-rule:nonzero;stroke:none;stroke-width:0;marker:none;visibility:visible;display:inline;overflow:visible;enable-background:accumulate"
         id="rect3870"
         width="220"
         height="220"
         x="34"
         y="48"
         ry="50" />
      <rect
         ry="50"
         y="47"
         x="34"
         height="220"
         width="220"
         id="rect3868"
         style="opacity:0.3;color:#bebebe;fill:#000000;fill-opacity:1;fill-rule:nonzero;stroke:none;stroke-width:0;marker:none;visibility:visible;display:inline;overflow:visible;enable-background:accumulate" />
    </g>
    <g
       inkscape:groupmode="layer"
       id="layer2"
       inkscape:label="Background"
       style="display:inline">
      <rect
         style="color:#bebebe;fill:url(#linearGradient3876);fill-opacity:1;fill-rule:nonzero;stroke:none;stroke-width:0;marker:none;visibility:visible;display:inline;overflow:visible;enable-background:accumulate"
         id="rect4040"
         width="220"
         height="220"
         x="34"
         y="46"
         ry="50" />
      <rect
         ry="3"
         y="140"
         x="416"
         height="16"
         width="16"
         id="rect4095"
         style="color:#bebebe;fill:url(#linearGradient4097);fill-opacity:1;fill-rule:nonzero;stroke:none;stroke-width:0;marker:none;visibility:visible;display:inline;overflow:visible;enable-background:accumulate" />
      <rect
         style="color:#bebebe;fill:url(#linearGradient4101);fill-opacity:1;fill-rule:nonzero;stroke:none;stroke-width:0;marker:none;visibility:visible;display:inline;overflow:visible;enable-background:accumulate"
         id="rect4099"
         width="22"
         height="22"
         x="417"
         y="101"
         ry="5" />
      <rect
         ry="7"
         y="53"
         x="417"
         height="30"
         width="30"
         id="rect4151"
         style="color:#bebebe;fill:url(#linearGradient4153);fill-opacity:1;fill-rule:nonzero;stroke:none;stroke-width:0;marker:none;visibility:visible;display:inline;overflow:visible;enable-background:accumulate" />
      <rect
         style="color:#bebebe;fill:url(#linearGradient4869);fill-opacity:1;fill-rule:nonzero;stroke:none;stroke-width:0;marker:none;visibility:visible;display:inline;overflow:visible;enable-background:accumulate"
         id="rect4783"
         width="42"
         height="42"
         x="291"
         y="-265"
         ry="9"
         transform="scale(1,-1)" />
      <rect
         ry="18"
         y="32"
         x="292"
         height="88"
         width="88"
         id="rect4511"
         style="color:#bebebe;fill:url(#linearGradient4197);fill-opacity:1;fill-rule:nonzero;stroke:none;stroke-width:0;marker:none;visibility:visible;display:inline;overflow:visible;enable-background:accumulate" />
      <rect
         style="color:#bebebe;fill:url(#linearGradient4199);fill-opacity:1;fill-rule:nonzero;stroke:none;stroke-width:0;marker:none;visibility:visible;display:inline;overflow:visible;enable-background:accumulate"
         id="rect4515"
         width="60"
         height="60"
         x="290"
         y="142"
         ry="12.5" />
    </g>
    <g
       inkscape:groupmode="layer"
       id="layer6"
       inkscape:label="Symbols"
       style="display:inline">
      <g
         id="g3203"
         transform="matrix(0.37267071,0,0,0.37267071,104.83189,12.345025)">
        <path
           sodipodi:nodetypes="ccscccccccsscc"
           style="fill:#00a4df"
           d="m 674.49014,206.13076 -6.62422,-9.86924 -9.44239,-31.788 c -7.31133,-24.61375 -10.10188,-40.39793 -3.24016,-41.96624 0,0 7.46659,2.93275 7.47393,2.93611 l 5.78539,2.64863 14.77865,14.66076 14.89537,14.66075 0,30.62573 0,30.62573 -10.36671,3.18768 c -5.64307,1.7352 -11.00809,5.67462 -11.09996,5.30464 L 676.11435,225 z"
           id="path3189"
           inkscape:connector-curvature="0" />
        <path
           sodipodi:nodetypes="cccccsscccccc"
           style="fill:#47c0ba"
           d="m 592.8235,234.25 -14.59003,-14.75 -6.23346,-13.80936 c 10.5075,-9.6422 31.52204,-4.0874 36.99999,-1.35711 l 39.4773,20.79142 16.26135,5.77425 c -31.81221,-11.29621 10.30105,-4.6401 11.01876,-5.19108 l 1.25742,-0.96532 -0.36478,2.4145 -8.15005,21.45568 -30.54323,0.011 -30.54323,0.011 z"
           id="path3191"
           inkscape:connector-curvature="0" />
        <path
           sodipodi:nodetypes="ccccccccccccccsccc"
           style="fill:#0074bd"
           d="M 623.70773,174.21014 572,122.50242 582.96016,167.6403 572.00001,205.69064 561.5,201.72427 550.72145,191.11213 539.94291,180.5 l -1.12942,-3.74891 -1.12941,-3.7489 17.01458,-25.54423 17.30135,-24.95068 40.70282,-4.52915 41.29765,3.44558 1.18289,1.08357 c 0.40741,0.40742 7.2525,19.4076 15.21155,41.88544 l 14.471,40.8688 -8.21588,21.89579 c -8.63585,2.97477 -27.40413,-23.54089 -52.94231,-52.94717 z"
           id="path3185"
           inkscape:connector-curvature="0" />
        <path
           style="fill:#01b1a9"
           d="m 580.34375,67.125 c -0.49884,0 -15.0234,9.491818 -18.28125,11.875 -0.0625,10e-7 -1.06249,1.000001 -1.06249,1.000001 L 591.5,80 c 0.277,0 0.50001,10e-7 0.50001,10e-7 L 591.3125,77.75 590.71875,75.90625 587.125,72.25 l -3.59375,-3.6875 -1.375,-0.71875 c -0.76047,-0.394949 -1.5684,-0.71875 -1.8125,-0.71875 z M 561,80 l 0,15.5625 10e-6,15.4375 0,0 c 0.25621,0.0812 7.55997,2.79117 15.65624,5.65625 8.09627,2.86508 14.86034,5.19945 15.03125,5.21875 0.426,0.0481 8.31251,-2.875 8.31251,-2.875 C 586.58851,105.30292 575.58686,94.58686 561,80 z"
           transform="matrix(2.683334,0,0,2.683334,-933.35038,-92.159443)"
           id="path3187"
           inkscape:connector-curvature="0"
           sodipodi:nodetypes="sccsccccccsccccsscc" />
      </g>
      <g
         transform="matrix(0.26139621,0,0,0.26139621,158.48318,128.00776)"
         id="g4000">
        <path
           inkscape:connector-curvature="0"
           id="path4002"
           d="m 674.49014,206.13076 -6.62422,-9.86924 -9.44239,-31.788 c -7.31133,-24.61375 -10.10188,-40.39793 -3.24016,-41.96624 0,0 7.46659,2.93275 7.47393,2.93611 l 5.78539,2.64863 14.77865,14.66076 14.89537,14.66075 0,30.62573 0,30.62573 -10.36671,3.18768 c -5.64307,1.7352 -11.00809,5.67462 -11.09996,5.30464 L 676.11435,225 z"
           style="fill:#00a4df"
           sodipodi:nodetypes="ccscccccccsscc" />
        <path
           inkscape:connector-curvature="0"
           id="path4004"
           d="m 592.8235,234.25 -14.59003,-14.75 -6.23346,-13.80936 c 10.5075,-9.6422 31.52204,-4.0874 36.99999,-1.35711 l 39.4773,20.79142 16.26135,5.77425 c -31.81221,-11.29621 10.30105,-4.6401 11.01876,-5.19108 l 1.25742,-0.96532 -0.36478,2.4145 -8.15005,21.45568 -30.54323,0.011 -30.54323,0.011 z"
           style="fill:#47c0ba"
           sodipodi:nodetypes="cccccsscccccc" />
        <path
           inkscape:connector-curvature="0"
           id="path4006"
           d="M 623.70773,174.21014 572,122.50242 582.96016,167.6403 572.00001,205.69064 561.5,201.72427 550.72145,191.11213 539.94291,180.5 l -1.12942,-3.74891 -1.12941,-3.7489 17.01458,-25.54423 17.30135,-24.95068 40.70282,-4.52915 41.29765,3.44558 1.18289,1.08357 c 0.40741,0.40742 7.2525,19.4076 15.21155,41.88544 l 14.471,40.8688 -8.21588,21.89579 c -8.63585,2.97477 -27.40413,-23.54089 -52.94231,-52.94717 z"
           style="fill:#0074bd"
           sodipodi:nodetypes="ccccccccccccccsccc" />
        <path
           sodipodi:nodetypes="sccsccccccsccccsscc"
           inkscape:connector-curvature="0"
           id="path4008"
           transform="matrix(2.683334,0,0,2.683334,-933.35038,-92.159443)"
           d="m 580.34375,67.125 c -0.49884,0 -15.0234,9.491818 -18.28125,11.875 -0.0625,10e-7 -1.06249,1.000001 -1.06249,1.000001 L 591.5,80 c 0.277,0 0.50001,10e-7 0.50001,10e-7 L 591.3125,77.75 590.71875,75.90625 587.125,72.25 l -3.59375,-3.6875 -1.375,-0.71875 c -0.76047,-0.394949 -1.5684,-0.71875 -1.8125,-0.71875 z M 561,80 l 0,15.5625 10e-6,15.4375 0,0 c 0.25621,0.0812 7.55997,2.79117 15.65624,5.65625 8.09627,2.86508 14.86034,5.19945 15.03125,5.21875 0.426,0.0481 8.31251,-2.875 8.31251,-2.875 C 586.58851,105.30292 575.58686,94.58686 561,80 z"
           style="fill:#01b1a9" />
      </g>
      <g
         id="g4010"
         transform="matrix(0.17426414,0,0,0.17426414,204.32212,214.67184)">
        <path
           sodipodi:nodetypes="ccscccccccsscc"
           style="fill:#00a4df"
           d="m 674.49014,206.13076 -6.62422,-9.86924 -9.44239,-31.788 c -7.31133,-24.61375 -10.10188,-40.39793 -3.24016,-41.96624 0,0 7.46659,2.93275 7.47393,2.93611 l 5.78539,2.64863 14.77865,14.66076 14.89537,14.66075 0,30.62573 0,30.62573 -10.36671,3.18768 c -5.64307,1.7352 -11.00809,5.67462 -11.09996,5.30464 L 676.11435,225 z"
           id="path4012"
           inkscape:connector-curvature="0" />
        <path
           sodipodi:nodetypes="cccccsscccccc"
           style="fill:#47c0ba"
           d="m 592.8235,234.25 -14.59003,-14.75 -6.23346,-13.80936 c 10.5075,-9.6422 31.52204,-4.0874 36.99999,-1.35711 l 39.4773,20.79142 16.26135,5.77425 c -31.81221,-11.29621 10.30105,-4.6401 11.01876,-5.19108 l 1.25742,-0.96532 -0.36478,2.4145 -8.15005,21.45568 -30.54323,0.011 -30.54323,0.011 z"
           id="path4014"
           inkscape:connector-curvature="0" />
        <path
           sodipodi:nodetypes="ccccccccccccccsccc"
           style="fill:#0074bd"
           d="M 623.70773,174.21014 572,122.50242 582.96016,167.6403 572.00001,205.69064 561.5,201.72427 550.72145,191.11213 539.94291,180.5 l -1.12942,-3.74891 -1.12941,-3.7489 17.01458,-25.54423 17.30135,-24.95068 40.70282,-4.52915 41.29765,3.44558 1.18289,1.08357 c 0.40741,0.40742 7.2525,19.4076 15.21155,41.88544 l 14.471,40.8688 -8.21588,21.89579 c -8.63585,2.97477 -27.40413,-23.54089 -52.94231,-52.94717 z"
           id="path4016"
           inkscape:connector-curvature="0" />
        <path
           style="fill:#01b1a9"
           d="m 580.34375,67.125 c -0.49884,0 -15.0234,9.491818 -18.28125,11.875 -0.0625,10e-7 -1.06249,1.000001 -1.06249,1.000001 L 591.5,80 c 0.277,0 0.50001,10e-7 0.50001,10e-7 L 591.3125,77.75 590.71875,75.90625 587.125,72.25 l -3.59375,-3.6875 -1.375,-0.71875 c -0.76047,-0.394949 -1.5684,-0.71875 -1.8125,-0.71875 z M 561,80 l 0,15.5625 10e-6,15.4375 0,0 c 0.25621,0.0812 7.55997,2.79117 15.65624,5.65625 8.09627,2.86508 14.86034,5.19945 15.03125,5.21875 0.426,0.0481 8.31251,-2.875 8.31251,-2.875 C 586.58851,105.30292 575.58686,94.58686 561,80 z"
           transform="matrix(2.683334,0,0,2.683334,-933.35038,-92.159443)"
           id="path4018"
           inkscape:connector-curvature="0"
           sodipodi:nodetypes="sccsccccccsccccsscc" />
      </g>
      <g
         transform="matrix(0.99579508,0,0,0.99579508,-473.59481,-13.992146)"
         id="g4020">
        <path
           inkscape:connector-curvature="0"
           id="path4022"
           d="m 674.49014,206.13076 -6.62422,-9.86924 -9.44239,-31.788 c -7.31133,-24.61375 -10.10188,-40.39793 -3.24016,-41.96624 0,0 7.46659,2.93275 7.47393,2.93611 l 5.78539,2.64863 14.77865,14.66076 15.31074,14.66075 0,30.62573 0,30.62573 -10.78208,3.18768 c -5.66158,1.67382 -11.00809,5.67462 -11.09996,5.30464 L 676.11435,225 z"
           style="fill:#00a4df"
           sodipodi:nodetypes="ccscccccccsscc" />
        <path
           inkscape:connector-curvature="0"
           id="path4024"
           d="m 592.8235,234.25 -14.59003,-14.75 -6.23346,-13.80936 c 10.5075,-9.6422 31.52204,-4.0874 36.99999,-1.35711 l 39.4773,20.79142 16.26135,5.77425 c -31.81221,-11.29621 10.30105,-4.6401 11.01876,-5.19108 l 1.25742,-0.96532 -0.36478,2.4145 -8.15005,21.87104 -30.54323,0.011 -30.54323,0.011 z"
           style="fill:#47c0ba"
           sodipodi:nodetypes="cccccsscccccc" />
        <path
           inkscape:connector-curvature="0"
           id="path4026"
           d="M 623.70773,174.21014 572,122.50242 582.96016,167.6403 572.00001,205.69064 561.5,201.72427 550.72145,191.11213 539.94291,180.5 l -1.12942,-3.74891 -1.12941,-3.7489 17.01458,-25.54423 17.30135,-24.95068 40.70282,-4.52915 41.29765,3.44558 1.18289,1.08357 c 0.40741,0.40742 7.2525,19.4076 15.21155,41.88544 l 14.471,40.8688 -8.21588,21.89579 c -8.63585,2.97477 -27.40413,-23.54089 -52.94231,-52.94717 z"
           style="fill:#0074bd"
           sodipodi:nodetypes="ccccccccccccccsccc" />
        <path
           sodipodi:nodetypes="sccsccccccsccccsscc"
           inkscape:connector-curvature="0"
           id="path4028"
           transform="matrix(2.683334,0,0,2.683334,-933.35038,-92.159443)"
           d="m 580.34375,67.125 c -0.49884,0 -15.0234,9.491818 -18.28125,11.875 -0.0625,10e-7 -1.06249,1.000001 -1.06249,1.000001 L 591.5,80 c 0.277,0 0.50001,10e-7 0.50001,10e-7 L 591.3125,77.75 590.71875,75.90625 587.125,72.25 l -3.59375,-3.6875 -1.375,-0.71875 c -0.76047,-0.394949 -1.5684,-0.71875 -1.8125,-0.71875 z M 561,80 l 0,15.5625 10e-6,15.4375 0,0 c 0.25621,0.0812 7.55997,2.79117 15.65624,5.65625 8.09627,2.86508 14.86034,5.19945 15.03125,5.21875 0.426,0.0481 8.31251,-2.875 8.31251,-2.875 C 586.58851,105.30292 575.58686,94.58686 561,80 z"
           style="fill:#01b1a9" />
      </g>
      <g
         transform="matrix(0.12447438,0,0,0.12447438,354.80065,46.750982)"
         id="g4030">
        <path
           inkscape:connector-curvature="0"
           id="path4032"
           d="m 674.49014,206.13076 -6.62422,-9.86924 -9.44239,-31.788 c -7.31133,-24.61375 -10.10188,-40.39793 -3.24016,-41.96624 0,0 7.46659,2.93275 7.47393,2.93611 l 5.78539,2.64863 14.77865,14.66076 14.89537,14.66075 0,30.62573 0,30.62573 -10.36671,3.18768 c -5.64307,1.7352 -11.00809,5.67462 -11.09996,5.30464 L 676.11435,225 z"
           style="fill:#00a4df"
           sodipodi:nodetypes="ccscccccccsscc" />
        <path
           inkscape:connector-curvature="0"
           id="path4034"
           d="m 592.8235,234.25 -14.59003,-14.75 -6.23346,-13.80936 c 10.5075,-9.6422 31.52204,-4.0874 36.99999,-1.35711 l 39.4773,20.79142 16.26135,5.77425 c -31.81221,-11.29621 10.30105,-4.6401 11.01876,-5.19108 l 1.25742,-0.96532 -0.36478,2.4145 -8.15005,21.45568 -30.54323,0.011 -30.54323,0.011 z"
           style="fill:#47c0ba"
           sodipodi:nodetypes="cccccsscccccc" />
        <path
           inkscape:connector-curvature="0"
           id="path4036"
           d="M 623.70773,174.21014 572,122.50242 582.96016,167.6403 572.00001,205.69064 561.5,201.72427 550.72145,191.11213 539.94291,180.5 l -1.12942,-3.74891 -1.12941,-3.7489 17.01458,-25.54423 17.30135,-24.95068 40.70282,-4.52915 41.29765,3.44558 1.18289,1.08357 c 0.40741,0.40742 7.2525,19.4076 15.21155,41.88544 l 14.471,40.8688 -8.21588,21.89579 c -8.63585,2.97477 -27.40413,-23.54089 -52.94231,-52.94717 z"
           style="fill:#0074bd"
           sodipodi:nodetypes="ccccccccccccccsccc" />
        <path
           sodipodi:nodetypes="sccsccccccsccccsscc"
           inkscape:connector-curvature="0"
           id="path4038"
           transform="matrix(2.683334,0,0,2.683334,-933.35038,-92.159443)"
           d="m 580.34375,67.125 c -0.49884,0 -15.0234,9.491818 -18.28125,11.875 -0.0625,10e-7 -1.06249,1.000001 -1.06249,1.000001 L 591.5,80 c 0.277,0 0.50001,10e-7 0.50001,10e-7 L 591.3125,77.75 590.71875,75.90625 587.125,72.25 l -3.59375,-3.6875 -1.375,-0.71875 c -0.76047,-0.394949 -1.5684,-0.71875 -1.8125,-0.71875 z M 561,80 l 0,15.5625 10e-6,15.4375 0,0 c 0.25621,0.0812 7.55997,2.79117 15.65624,5.65625 8.09627,2.86508 14.86034,5.19945 15.03125,5.21875 0.426,0.0481 8.31251,-2.875 8.31251,-2.875 C 586.58851,105.30292 575.58686,94.58686 561,80 z"
           style="fill:#01b1a9" />
      </g>
      <g
         id="g4040"
         transform="matrix(0.09335579,0,0,0.09335579,370.60049,96.563236)">
        <path
           sodipodi:nodetypes="ccscccccccsscc"
           style="fill:#00a4df"
           d="m 674.49014,206.13076 -6.62422,-9.86924 -9.44239,-31.788 c -7.31133,-24.61375 -10.10188,-40.39793 -3.24016,-41.96624 0,0 7.46659,2.93275 7.47393,2.93611 l 5.78539,2.64863 14.77865,14.66076 14.89537,14.66075 0,30.62573 0,30.62573 -10.36671,3.18768 c -5.64307,1.7352 -11.00809,5.67462 -11.09996,5.30464 L 676.11435,225 z"
           id="path4042"
           inkscape:connector-curvature="0" />
        <path
           sodipodi:nodetypes="cccccsscccccc"
           style="fill:#47c0ba"
           d="m 592.8235,234.25 -14.59003,-14.75 -6.23346,-13.80936 c 10.5075,-9.6422 31.52204,-4.0874 36.99999,-1.35711 l 39.4773,20.79142 16.26135,5.77425 c -31.81221,-11.29621 10.30105,-4.6401 11.01876,-5.19108 l 1.25742,-0.96532 -0.36478,2.4145 -8.15005,21.45568 -30.54323,0.011 -30.54323,0.011 z"
           id="path4044"
           inkscape:connector-curvature="0" />
        <path
           sodipodi:nodetypes="ccccccccccccccsccc"
           style="fill:#0074bd"
           d="M 623.70773,174.21014 572,122.50242 582.96016,167.6403 572.00001,205.69064 561.5,201.72427 550.72145,191.11213 539.94291,180.5 l -1.12942,-3.74891 -1.12941,-3.7489 17.01458,-25.54423 17.30135,-24.95068 40.70282,-4.52915 41.29765,3.44558 1.18289,1.08357 c 0.40741,0.40742 7.2525,19.4076 15.21155,41.88544 l 14.471,40.8688 -8.21588,21.89579 c -8.63585,2.97477 -27.40413,-23.54089 -52.94231,-52.94717 z"
           id="path4046"
           inkscape:connector-curvature="0" />
        <path
           style="fill:#01b1a9"
           d="m 580.34375,67.125 c -0.49884,0 -15.0234,9.491818 -18.28125,11.875 -0.0625,10e-7 -1.06249,1.000001 -1.06249,1.000001 L 591.5,80 c 0.277,0 0.50001,10e-7 0.50001,10e-7 L 591.3125,77.75 590.71875,75.90625 587.125,72.25 l -3.59375,-3.6875 -1.375,-0.71875 c -0.76047,-0.394949 -1.5684,-0.71875 -1.8125,-0.71875 z M 561,80 l 0,15.5625 10e-6,15.4375 0,0 c 0.25621,0.0812 7.55997,2.79117 15.65624,5.65625 8.09627,2.86508 14.86034,5.19945 15.03125,5.21875 0.426,0.0481 8.31251,-2.875 8.31251,-2.875 C 586.58851,105.30292 575.58686,94.58686 561,80 z"
           transform="matrix(2.683334,0,0,2.683334,-933.35038,-92.159443)"
           id="path4048"
           inkscape:connector-curvature="0"
           sodipodi:nodetypes="sccsccccccsccccsscc" />
      </g>
      <g
         transform="matrix(0.07468463,0,0,0.07468463,377.28039,134.85059)"
         id="g4050">
        <path
           inkscape:connector-curvature="0"
           id="path4052"
           d="m 674.49014,206.13076 -6.62422,-9.86924 -9.44239,-31.788 c -7.31133,-24.61375 -10.10188,-40.39793 -3.24016,-41.96624 0,0 7.46659,2.93275 7.47393,2.93611 l 5.78539,2.64863 14.77865,14.66076 14.89537,14.66075 0,30.62573 0,30.62573 -10.36671,3.18768 c -5.64307,1.7352 -11.00809,5.67462 -11.09996,5.30464 L 676.11435,225 z"
           style="fill:#00a4df"
           sodipodi:nodetypes="ccscccccccsscc" />
        <path
           inkscape:connector-curvature="0"
           id="path4054"
           d="m 592.8235,234.25 -14.59003,-14.75 -6.23346,-13.80936 c 10.5075,-9.6422 31.52204,-4.0874 36.99999,-1.35711 l 39.4773,20.79142 16.26135,5.77425 c -31.81221,-11.29621 10.30105,-4.6401 11.01876,-5.19108 l 1.25742,-0.96532 -0.36478,2.4145 -8.15005,21.45568 -30.54323,0.011 -30.54323,0.011 z"
           style="fill:#47c0ba"
           sodipodi:nodetypes="cccccsscccccc" />
        <path
           inkscape:connector-curvature="0"
           id="path4056"
           d="M 623.70773,174.21014 572,122.50242 582.96016,167.6403 572.00001,205.69064 561.5,201.72427 550.72145,191.11213 539.94291,180.5 l -1.12942,-3.74891 -1.12941,-3.7489 17.01458,-25.54423 17.30135,-24.95068 40.70282,-4.52915 41.29765,3.44558 1.18289,1.08357 c 0.40741,0.40742 7.2525,19.4076 15.21155,41.88544 l 14.471,40.8688 -8.21588,21.89579 c -8.63585,2.97477 -27.40413,-23.54089 -52.94231,-52.94717 z"
           style="fill:#0074bd"
           sodipodi:nodetypes="ccccccccccccccsccc" />
        <path
           sodipodi:nodetypes="sccsccccccsccccsscc"
           inkscape:connector-curvature="0"
           id="path4058"
           transform="matrix(2.683334,0,0,2.683334,-933.35038,-92.159443)"
           d="m 580.34375,67.125 c -0.49884,0 -15.0234,9.491818 -18.28125,11.875 -0.0625,10e-7 -1.06249,1.000001 -1.06249,1.000001 L 591.5,80 c 0.277,0 0.50001,10e-7 0.50001,10e-7 L 591.3125,77.75 590.71875,75.90625 587.125,72.25 l -3.59375,-3.6875 -1.375,-0.71875 c -0.76047,-0.394949 -1.5684,-0.71875 -1.8125,-0.71875 z M 561,80 l 0,15.5625 10e-6,15.4375 0,0 c 0.25621,0.0812 7.55997,2.79117 15.65624,5.65625 8.09627,2.86508 14.86034,5.19945 15.03125,5.21875 0.426,0.0481 8.31251,-2.875 8.31251,-2.875 C 586.58851,105.30292 575.58686,94.58686 561,80 z"
           style="fill:#01b1a9" />
      </g>
    </g>
    <g
       inkscape:groupmode="layer"
       id="layer5"
       inkscape:label="Highlights"
       style="display:inline"
       sodipodi:insensitive="true">
      <rect
         ry="9"
         y="307"
         x="-265"
         height="42"
         width="42"
         id="rect4884"
         style="opacity:0.1;color:#bebebe;fill:none;stroke:#000000;stroke-width:2;stroke-miterlimit:4;stroke-opacity:1;stroke-dasharray:none;marker:none;visibility:visible;display:inline;overflow:visible;enable-background:accumulate"
         transform="matrix(0,1,1,0,-16,488)"
         clip-path="url(#clipPath4891)" />
      <rect
         style="opacity:0.1;color:#bebebe;fill:none;stroke:#000000;stroke-width:2;stroke-miterlimit:4;stroke-opacity:1;stroke-dasharray:none;marker:none;visibility:visible;display:inline;overflow:visible;enable-background:accumulate"
         id="rect5311"
         width="16"
         height="16"
         x="-228"
         y="304"
         ry="3"
         clip-path="url(#clipPath3855)"
         transform="matrix(0,-1,1,0,112,-72)" />
      <rect
         ry="50"
         y="46"
         x="34"
         height="220"
         width="220"
         id="rect3858"
         style="opacity:0.1;color:#bebebe;fill:none;stroke:#000000;stroke-width:2;stroke-miterlimit:4;stroke-opacity:1;stroke-dasharray:none;marker:none;visibility:visible;display:inline;overflow:visible;enable-background:accumulate"
         clip-path="url(#clipPath3862)" />
      <rect
         ry="12.5"
         y="142"
         x="290"
         height="60"
         width="60"
         id="rect4175"
         style="opacity:0.1;color:#bebebe;fill:none;stroke:#000000;stroke-width:2;stroke-miterlimit:4;stroke-opacity:1;stroke-dasharray:none;marker:none;visibility:visible;display:inline;overflow:visible;enable-background:accumulate"
         clip-path="url(#clipPath4187)" />
      <rect
         style="opacity:0.1;color:#bebebe;fill:none;stroke:#000000;stroke-width:2;stroke-miterlimit:4;stroke-opacity:1;stroke-dasharray:none;marker:none;visibility:visible;display:inline;overflow:visible;enable-background:accumulate"
         id="rect4342"
         width="88"
         height="88"
         x="292"
         y="32"
         ry="18"
         clip-path="url(#clipPath4346)" />
      <rect
         ry="5"
         y="101"
         x="417"
         height="22"
         width="22"
         id="rect3866"
         style="opacity:0.1;color:#bebebe;fill:none;stroke:#000000;stroke-width:2;stroke-miterlimit:4;stroke-opacity:1;stroke-dasharray:none;marker:none;visibility:visible;display:inline;overflow:visible;enable-background:accumulate"
         clip-path="url(#clipPath3871)" />
      <rect
         style="opacity:0.1;color:#bebebe;fill:none;stroke:#000000;stroke-width:2;stroke-miterlimit:4;stroke-opacity:1;stroke-dasharray:none;marker:none;visibility:visible;display:inline;overflow:visible;enable-background:accumulate"
         id="rect3877"
         width="30"
         height="30"
         x="417"
         y="53"
         ry="7"
         clip-path="url(#clipPath3881)" />
    </g>
  </g>
</svg>
