<?xml version="1.0" encoding="UTF-8" standalone="no"?>
<!-- Created with Inkscape (http://www.inkscape.org/) -->

<svg
   xmlns:dc="http://purl.org/dc/elements/1.1/"
   xmlns:cc="http://creativecommons.org/ns#"
   xmlns:rdf="http://www.w3.org/1999/02/22-rdf-syntax-ns#"
   xmlns:svg="http://www.w3.org/2000/svg"
   xmlns="http://www.w3.org/2000/svg"
   xmlns:xlink="http://www.w3.org/1999/xlink"
   xmlns:sodipodi="http://sodipodi.sourceforge.net/DTD/sodipodi-0.dtd"
   xmlns:inkscape="http://www.inkscape.org/namespaces/inkscape"
   inkscape:export-ydpi="90.000000"
   inkscape:export-xdpi="90.000000"
   width="480"
   height="300"
   id="svg11300"
   sodipodi:version="0.32"
   inkscape:version="0.48.4 r9939"
   sodipodi:docname="desktop-environment-gnome.svg"
   inkscape:output_extension="org.inkscape.output.svg.inkscape"
   version="1.0"
   style="display:inline;enable-background:new"
   inkscape:export-filename="/home/sam/moka2-template.png">
  <sodipodi:namedview
     stroke="#ef2929"
     fill="#f57900"
     id="base"
     pagecolor="#ffffff"
     bordercolor="#666666"
     borderopacity="0.25490196"
     inkscape:pageopacity="0"
     inkscape:pageshadow="2"
     inkscape:zoom="1"
     inkscape:cx="428.59719"
     inkscape:cy="148.20512"
     inkscape:current-layer="layer7"
     showgrid="false"
     inkscape:grid-bbox="true"
     inkscape:document-units="px"
     inkscape:showpageshadow="false"
     inkscape:window-width="1364"
     inkscape:window-height="701"
     inkscape:window-x="0"
     inkscape:window-y="27"
     width="400px"
     height="300px"
     inkscape:snap-nodes="true"
     inkscape:snap-bbox="true"
     gridtolerance="10000"
     inkscape:object-nodes="true"
     inkscape:snap-grids="true"
     showguides="true"
     inkscape:guide-bbox="true"
     inkscape:window-maximized="1"
     inkscape:bbox-nodes="true"
     inkscape:bbox-paths="true"
     inkscape:snap-bbox-edge-midpoints="true"
     inkscape:snap-bbox-midpoints="true"
     inkscape:snap-global="true">
    <inkscape:grid
       spacingy="1px"
       spacingx="1px"
       id="grid5883"
       type="xygrid"
       enabled="true"
       visible="true"
       empspacing="4"
       snapvisiblegridlinesonly="true"
       dotted="false"
       color="#000000"
       opacity="0.1254902"
       empcolor="#203ef3"
       empopacity="0.36470588" />
    <inkscape:grid
       type="xygrid"
       id="grid11592"
       empspacing="8"
       visible="true"
       enabled="false"
       spacingx="0.5px"
       spacingy="0.5px"
       color="#ff0000"
       opacity="0.1254902"
       empcolor="#ff0000"
       empopacity="0.25098039"
       snapvisiblegridlinesonly="true"
       dotted="true" />
  </sodipodi:namedview>
  <defs
     id="defs3">
    <linearGradient
       id="outerBackgroundGradient">
      <stop
         style="stop-color:#0068c6;stop-opacity:1;"
         offset="0"
         id="stop3864-8-6" />
      <stop
         style="stop-color:#2888e0;stop-opacity:1;"
         offset="1"
         id="stop3866-9-1" />
    </linearGradient>
    <linearGradient
       inkscape:collect="always"
       xlink:href="#outerBackgroundGradient"
       id="linearGradient4097"
       gradientUnits="userSpaceOnUse"
       x1="264"
       y1="280.00003"
       x2="264"
       y2="40.00005"
       gradientTransform="matrix(0.06666667,0,0,0.06666667,414.4,137.33333)" />
    <linearGradient
       inkscape:collect="always"
       xlink:href="#outerBackgroundGradient"
       id="linearGradient4101"
       gradientUnits="userSpaceOnUse"
       gradientTransform="matrix(0.0875,0,0,0.0875,414.9,97.5)"
       x1="286.85715"
       y1="302.85715"
       x2="286.85715"
       y2="28.571428" />
    <linearGradient
       inkscape:collect="always"
       xlink:href="#outerBackgroundGradient"
       id="linearGradient4153"
       gradientUnits="userSpaceOnUse"
       gradientTransform="matrix(0.11931818,0,0,0.11931818,414.13636,48.22727)"
       x1="283.80957"
       y1="299.80954"
       x2="283.80957"
       y2="31.61907" />
    <linearGradient
       inkscape:collect="always"
       xlink:href="#outerBackgroundGradient"
       id="linearGradient4869"
       gradientUnits="userSpaceOnUse"
       gradientTransform="matrix(0.175,0,0,-0.175,286.79999,-215.99997)"
       x1="281.14291"
       y1="297.14304"
       x2="281.14291"
       y2="22.857315" />
    <clipPath
       clipPathUnits="userSpaceOnUse"
       id="clipPath4891">
      <rect
         ry="9"
         y="223"
         x="307"
         height="42"
         width="42"
         id="rect4893"
         style="color:#bebebe;fill:url(#linearGradient4895);fill-opacity:1;fill-rule:nonzero;stroke:none;stroke-width:0;marker:none;visibility:visible;display:inline;overflow:visible;enable-background:accumulate"
         transform="matrix(0,1,-1,0,0,0)" />
    </clipPath>
    <linearGradient
       inkscape:collect="always"
       xlink:href="#outerBackgroundGradient"
       id="linearGradient4895"
       gradientUnits="userSpaceOnUse"
       gradientTransform="matrix(0.175,0,0,0.175,302.79999,215.99997)"
       x1="144.00006"
       y1="280.00018"
       x2="144.00006"
       y2="40.000172" />
    <clipPath
       clipPathUnits="userSpaceOnUse"
       id="clipPath4044">
      <rect
         ry="4"
         y="85"
         x="433"
         height="22"
         width="22"
         id="rect4046"
         style="color:#bebebe;fill:url(#linearGradient4048);fill-opacity:1;fill-rule:nonzero;stroke:none;stroke-width:0;marker:none;visibility:visible;display:inline;overflow:visible;enable-background:accumulate" />
    </clipPath>
    <linearGradient
       inkscape:collect="always"
       xlink:href="#outerBackgroundGradient"
       id="linearGradient4048"
       gradientUnits="userSpaceOnUse"
       gradientTransform="matrix(0.0875,0,0,0.0875,430.9,81.499996)"
       x1="149.71428"
       y1="291.42862"
       x2="149.71428"
       y2="40.000046" />
    <clipPath
       clipPathUnits="userSpaceOnUse"
       id="clipPath4089">
      <rect
         style="color:#bebebe;fill:url(#linearGradient4093);fill-opacity:1;fill-rule:nonzero;stroke:none;stroke-width:0;marker:none;visibility:visible;display:inline;overflow:visible;enable-background:accumulate"
         id="rect4091"
         width="30"
         height="30"
         x="433"
         y="37"
         ry="6" />
    </clipPath>
    <linearGradient
       inkscape:collect="always"
       xlink:href="#outerBackgroundGradient"
       id="linearGradient4093"
       gradientUnits="userSpaceOnUse"
       gradientTransform="matrix(0.11931818,0,0,0.11931818,430.13636,32.227267)"
       x1="149.71432"
       y1="291.42862"
       x2="149.71432"
       y2="40.00005" />
    <clipPath
       clipPathUnits="userSpaceOnUse"
       id="clipPath3855">
      <rect
         style="color:#bebebe;fill:url(#linearGradient3859);fill-opacity:1;fill-rule:nonzero;stroke:none;stroke-width:0;marker:none;visibility:visible;display:inline;overflow:visible;enable-background:accumulate"
         id="rect3857"
         width="16"
         height="16"
         x="304"
         y="212"
         ry="3"
         transform="matrix(0,1,-1,0,0,0)" />
    </clipPath>
    <linearGradient
       inkscape:collect="always"
       xlink:href="#outerBackgroundGradient"
       id="linearGradient3859"
       gradientUnits="userSpaceOnUse"
       gradientTransform="matrix(0.06666667,0,0,0.06666667,302.4,209.33333)"
       x1="144"
       y1="280.00003"
       x2="144"
       y2="40.00005" />
    <clipPath
       clipPathUnits="userSpaceOnUse"
       id="clipPath3862">
      <rect
         ry="50"
         y="46"
         x="34"
         height="220"
         width="220"
         id="rect3864"
         style="color:#bebebe;fill:url(#linearGradient3866);fill-opacity:1;fill-rule:nonzero;stroke:none;stroke-width:0;marker:none;visibility:visible;display:inline;overflow:visible;enable-background:accumulate" />
    </clipPath>
    <linearGradient
       inkscape:collect="always"
       xlink:href="#outerBackgroundGradient"
       id="linearGradient3866"
       gradientUnits="userSpaceOnUse"
       gradientTransform="translate(0,-4)"
       x1="144"
       y1="280"
       x2="144"
       y2="40" />
    <linearGradient
       inkscape:collect="always"
       xlink:href="#outerBackgroundGradient"
       id="linearGradient3876"
       gradientUnits="userSpaceOnUse"
       gradientTransform="translate(0,-4)"
       x1="272"
       y1="288"
       x2="272"
       y2="32" />
    <clipPath
       clipPathUnits="userSpaceOnUse"
       id="clipPath4187">
      <rect
         ry="12.5"
         y="142"
         x="290"
         height="60"
         width="60"
         id="rect4189"
         style="color:#bebebe;fill:url(#linearGradient4191);fill-opacity:1;fill-rule:nonzero;stroke:none;stroke-width:0;marker:none;visibility:visible;display:inline;overflow:visible;enable-background:accumulate" />
    </clipPath>
    <linearGradient
       inkscape:collect="always"
       xlink:href="#outerBackgroundGradient"
       id="linearGradient4191"
       gradientUnits="userSpaceOnUse"
       x1="352"
       y1="204"
       x2="352"
       y2="140" />
    <linearGradient
       inkscape:collect="always"
       xlink:href="#outerBackgroundGradient"
       id="linearGradient4197"
       gradientUnits="userSpaceOnUse"
       x1="384"
       y1="124"
       x2="384"
       y2="28" />
    <linearGradient
       inkscape:collect="always"
       xlink:href="#outerBackgroundGradient"
       id="linearGradient4199"
       gradientUnits="userSpaceOnUse"
       x1="352"
       y1="204"
       x2="352"
       y2="140" />
    <clipPath
       clipPathUnits="userSpaceOnUse"
       id="clipPath4346">
      <rect
         style="color:#bebebe;fill:url(#linearGradient4350);fill-opacity:1;fill-rule:nonzero;stroke:none;stroke-width:0;marker:none;visibility:visible;display:inline;overflow:visible;enable-background:accumulate"
         id="rect4348"
         width="88"
         height="88"
         x="292"
         y="32"
         ry="18" />
    </clipPath>
    <linearGradient
       inkscape:collect="always"
       xlink:href="#outerBackgroundGradient"
       id="linearGradient4350"
       gradientUnits="userSpaceOnUse"
       x1="384"
       y1="124"
       x2="384"
       y2="28" />
    <clipPath
       clipPathUnits="userSpaceOnUse"
       id="clipPath3871">
      <rect
         ry="5"
         y="101"
         x="417"
         height="22"
         width="22"
         id="rect3873"
         style="color:#bebebe;fill:url(#linearGradient3875);fill-opacity:1;fill-rule:nonzero;stroke:none;stroke-width:0;marker:none;visibility:visible;display:inline;overflow:visible;enable-background:accumulate" />
    </clipPath>
    <linearGradient
       inkscape:collect="always"
       xlink:href="#outerBackgroundGradient"
       id="linearGradient3875"
       gradientUnits="userSpaceOnUse"
       gradientTransform="matrix(0.0875,0,0,0.0875,414.9,97.5)"
       x1="286.85715"
       y1="302.85715"
       x2="286.85715"
       y2="28.571428" />
    <clipPath
       clipPathUnits="userSpaceOnUse"
       id="clipPath3881">
      <rect
         style="color:#bebebe;fill:url(#linearGradient3885);fill-opacity:1;fill-rule:nonzero;stroke:none;stroke-width:0;marker:none;visibility:visible;display:inline;overflow:visible;enable-background:accumulate"
         id="rect3883"
         width="30"
         height="30"
         x="417"
         y="53"
         ry="7" />
    </clipPath>
    <linearGradient
       inkscape:collect="always"
       xlink:href="#outerBackgroundGradient"
       id="linearGradient3885"
       gradientUnits="userSpaceOnUse"
       gradientTransform="matrix(0.11931818,0,0,0.11931818,414.13636,48.22727)"
       x1="283.80957"
       y1="299.80954"
       x2="283.80957"
       y2="31.61907" />
  </defs>
  <metadata
     id="metadata4">
    <rdf:RDF>
      <cc:Work
         rdf:about="">
        <dc:format>image/svg+xml</dc:format>
        <dc:type
           rdf:resource="http://purl.org/dc/dcmitype/StillImage" />
        <dc:creator>
          <cc:Agent>
            <dc:title>Sam Hewitt</dc:title>
          </cc:Agent>
        </dc:creator>
        <dc:source />
        <cc:license
           rdf:resource="" />
        <dc:title></dc:title>
        <dc:subject>
          <rdf:Bag />
        </dc:subject>
        <dc:date />
        <dc:rights>
          <cc:Agent>
            <dc:title />
          </cc:Agent>
        </dc:rights>
        <dc:publisher>
          <cc:Agent>
            <dc:title />
          </cc:Agent>
        </dc:publisher>
        <dc:identifier />
        <dc:relation />
        <dc:language />
        <dc:coverage />
        <dc:description />
        <dc:contributor>
          <cc:Agent>
            <dc:title />
          </cc:Agent>
        </dc:contributor>
      </cc:Work>
      <cc:Work
         rdf:about="">
        <dc:format>image/svg+xml</dc:format>
        <dc:type
           rdf:resource="http://purl.org/dc/dcmitype/StillImage" />
      </cc:Work>
    </rdf:RDF>
  </metadata>
  <g
     style="display:inline"
     inkscape:groupmode="layer"
     inkscape:label="Icon"
     id="layer1">
    <g
       style="display:none"
       inkscape:label="Baseplate"
       id="layer7"
       inkscape:groupmode="layer">
      <text
         y="19.745117"
         xml:space="preserve"
         x="15.006836"
         style="font-size:18px;font-style:normal;font-variant:normal;font-weight:normal;font-stretch:normal;fill:#000000;fill-opacity:1;stroke:none;display:inline;enable-background:new;font-family:DejaVu Sans;-inkscape-font-specification:DejaVu Sans"
         inkscape:label="context"
         id="context"><tspan
           style="font-style:normal;font-variant:normal;font-weight:normal;font-stretch:normal;font-family:DejaVu Sans;-inkscape-font-specification:DejaVu Sans"
           y="19.745117"
           x="15.006836"
           sodipodi:role="line"
           id="tspan3933">apps</tspan></text>
      <text
         y="19.745117"
         xml:space="preserve"
         x="122.48828"
         style="font-size:18px;font-style:normal;font-variant:normal;font-weight:bold;font-stretch:normal;text-align:start;line-height:125%;writing-mode:lr-tb;text-anchor:start;fill:#000000;fill-opacity:1;stroke:none;display:inline;enable-background:new;font-family:DejaVu Sans;-inkscape-font-specification:DejaVu Sans Bold"
         sodipodi:linespacing="125%"
         inkscape:label="icon-name"
         id="icon-name"><tspan
           style="font-size:18px;font-style:normal;font-variant:normal;font-weight:bold;font-stretch:normal;font-family:DejaVu Sans;-inkscape-font-specification:DejaVu Sans Bold"
           y="19.745117"
           x="122.48828"
           sodipodi:role="line"
           id="tspan3937">desktop-environment-kde</tspan></text>
      <rect
         style="fill:#eeeeec;fill-opacity:1;fill-rule:nonzero;stroke:none;stroke-width:2;marker:none;visibility:visible;display:inline;overflow:visible;enable-background:accumulate"
         id="rect16x16"
         width="16"
         height="16"
         x="416"
         y="140"
         inkscape:label="16x16" />
      <rect
         style="fill:#d4d4d4;fill-opacity:1;fill-rule:nonzero;stroke:none;stroke-width:2;marker:none;visibility:visible;display:inline;overflow:visible;enable-background:accumulate"
         id="rect24x24"
         width="24"
         height="24"
         x="416"
         y="100"
         inkscape:label="24x24" />
      <rect
         style="fill:#eeeeec;fill-opacity:1;fill-rule:nonzero;stroke:none;stroke-width:2;marker:none;visibility:visible;display:inline;overflow:visible;enable-background:accumulate"
         id="rect32x32"
         width="32"
         height="32"
         x="416"
         y="52"
         inkscape:label="32x32" />
      <rect
         inkscape:label="22x22"
         y="101"
         x="417"
         height="22"
         width="22"
         id="rect22x22"
         style="fill:#eeeeec;fill-opacity:1;fill-rule:nonzero;stroke:none;stroke-width:2;marker:none;visibility:visible;display:inline;overflow:visible;enable-background:accumulate" />
      <rect
         inkscape:label="48x48"
         y="220"
         x="288"
         height="48"
         width="48"
         id="rect48x48"
         style="fill:#eeeeec;fill-opacity:1;fill-rule:nonzero;stroke:none;stroke-width:2;marker:none;visibility:visible;display:inline;overflow:visible;enable-background:accumulate" />
      <rect
         style="fill:#eeeeec;fill-opacity:1;fill-rule:nonzero;stroke:none;stroke-width:2;marker:none;visibility:visible;display:inline;overflow:visible;enable-background:accumulate"
         id="rect256x256"
         width="256"
         height="256"
         x="16"
         y="28"
         inkscape:label="256x256" />
      <rect
         style="fill:#eeeeec;fill-opacity:1;fill-rule:nonzero;stroke:none;stroke-width:2;marker:none;visibility:visible;display:inline;overflow:visible;enable-background:accumulate"
         id="rect64x64"
         width="64"
         height="64"
         x="288"
         y="140"
         inkscape:label="64x64" />
      <rect
         style="fill:#eeeeec;fill-opacity:1;fill-rule:nonzero;stroke:none;stroke-width:2;marker:none;visibility:visible;display:inline;overflow:visible;enable-background:accumulate"
         id="rect96x96"
         width="96"
         height="96"
         x="288"
         y="28"
         inkscape:label="96x96" />
    </g>
    <g
       inkscape:groupmode="layer"
       id="layer4"
       inkscape:label="Shadow"
       style="display:inline"
       sodipodi:insensitive="true">
      <rect
         style="opacity:0.1;color:#bebebe;fill:#000000;fill-opacity:1;stroke:#000000;stroke-width:1;stroke-miterlimit:4;stroke-opacity:1;stroke-dasharray:none;marker:none;visibility:visible;display:inline;overflow:visible;enable-background:accumulate"
         id="rect4156"
         width="42"
         height="42"
         x="-266.5"
         y="291"
         ry="9"
         transform="matrix(0,-1,1,0,0,0)" />
      <rect
         transform="matrix(0,-1,1,0,0,0)"
         ry="9"
         y="291"
         x="-266.5"
         height="42"
         width="40"
         id="rect4183"
         style="opacity:0.3;color:#bebebe;fill:#000000;fill-opacity:1;stroke:none;stroke-width:1;marker:none;visibility:visible;display:inline;overflow:visible;enable-background:accumulate" />
      <rect
         ry="9"
         y="237"
         x="291"
         height="29"
         width="42"
         id="rect4144"
         style="opacity:0.3;color:#bebebe;fill:#000000;fill-opacity:1;fill-rule:nonzero;stroke:none;stroke-width:0;marker:none;visibility:visible;display:inline;overflow:visible;enable-background:accumulate" />
      <rect
         style="opacity:0.05;color:#bebebe;fill:#000000;fill-opacity:1;fill-rule:nonzero;stroke:#000000;stroke-width:1;stroke-miterlimit:4;stroke-opacity:1;stroke-dasharray:none;marker:none;visibility:visible;display:inline;overflow:visible;enable-background:accumulate"
         id="rect4340"
         width="88"
         height="88"
         x="292"
         y="33.5"
         ry="18" />
      <rect
         ry="18"
         y="52.5"
         x="292"
         height="69"
         width="88"
         id="rect4338"
         style="opacity:0.3;color:#bebebe;fill:#000000;fill-opacity:1;fill-rule:nonzero;stroke:none;stroke-width:0;marker:none;visibility:visible;display:inline;overflow:visible;enable-background:accumulate" />
      <rect
         style="opacity:0.3;color:#bebebe;fill:#000000;fill-opacity:1;fill-rule:nonzero;stroke:none;stroke-width:0;marker:none;visibility:visible;display:inline;overflow:visible;enable-background:accumulate"
         id="rect4335"
         width="88"
         height="76.5"
         x="292"
         y="44.5"
         ry="18" />
      <rect
         style="opacity:0.05;color:#bebebe;fill:#000000;fill-opacity:1;fill-rule:nonzero;stroke:#000000;stroke-width:1;stroke-miterlimit:4;stroke-opacity:1;stroke-dasharray:none;marker:none;visibility:visible;display:inline;overflow:visible;enable-background:accumulate"
         id="rect4214"
         width="60"
         height="60"
         x="290"
         y="143.5"
         ry="12.5" />
      <rect
         ry="12.5"
         y="151.5"
         x="290"
         height="52"
         width="60"
         id="rect4206"
         style="opacity:0.3;color:#bebebe;fill:#000000;fill-opacity:1;fill-rule:nonzero;stroke:none;stroke-width:0;marker:none;visibility:visible;display:inline;overflow:visible;enable-background:accumulate" />
      <rect
         style="opacity:0.3;color:#bebebe;fill:#000000;fill-opacity:1;fill-rule:nonzero;stroke:none;stroke-width:0;marker:none;visibility:visible;display:inline;overflow:visible;enable-background:accumulate"
         id="rect4212"
         width="60"
         height="54.5"
         x="290"
         y="148.5"
         ry="12.5" />
      <rect
         style="opacity:0.5;color:#bebebe;fill:#000000;fill-opacity:1;fill-rule:nonzero;stroke:none;stroke-width:0;marker:none;visibility:visible;display:inline;overflow:visible;enable-background:accumulate"
         id="rect4058"
         width="30"
         height="30"
         x="417"
         y="54"
         ry="7" />
      <rect
         ry="50"
         y="48"
         x="34"
         height="220"
         width="220"
         id="rect3872"
         style="opacity:0.05;color:#bebebe;fill:#000000;fill-opacity:1;fill-rule:nonzero;stroke:#000000;stroke-width:2;stroke-miterlimit:4;stroke-opacity:1;stroke-dasharray:none;marker:none;visibility:visible;display:inline;overflow:visible;enable-background:accumulate" />
      <rect
         style="opacity:0.3;color:#bebebe;fill:#000000;fill-opacity:1;fill-rule:nonzero;stroke:none;stroke-width:0;marker:none;visibility:visible;display:inline;overflow:visible;enable-background:accumulate"
         id="rect3870"
         width="220"
         height="220"
         x="34"
         y="48"
         ry="50" />
      <rect
         ry="50"
         y="47"
         x="34"
         height="220"
         width="220"
         id="rect3868"
         style="opacity:0.3;color:#bebebe;fill:#000000;fill-opacity:1;fill-rule:nonzero;stroke:none;stroke-width:0;marker:none;visibility:visible;display:inline;overflow:visible;enable-background:accumulate" />
    </g>
    <g
       inkscape:groupmode="layer"
       id="layer2"
       inkscape:label="Background"
       style="display:inline">
      <rect
         style="color:#bebebe;fill:url(#linearGradient3876);fill-opacity:1;fill-rule:nonzero;stroke:none;stroke-width:0;marker:none;visibility:visible;display:inline;overflow:visible;enable-background:accumulate"
         id="rect4040"
         width="220"
         height="220"
         x="34"
         y="46"
         ry="50" />
      <rect
         ry="3"
         y="140"
         x="416"
         height="16"
         width="16"
         id="rect4095"
         style="color:#bebebe;fill:url(#linearGradient4097);fill-opacity:1;fill-rule:nonzero;stroke:none;stroke-width:0;marker:none;visibility:visible;display:inline;overflow:visible;enable-background:accumulate" />
      <rect
         style="color:#bebebe;fill:url(#linearGradient4101);fill-opacity:1;fill-rule:nonzero;stroke:none;stroke-width:0;marker:none;visibility:visible;display:inline;overflow:visible;enable-background:accumulate"
         id="rect4099"
         width="22"
         height="22"
         x="417"
         y="101"
         ry="5" />
      <rect
         ry="7"
         y="53"
         x="417"
         height="30"
         width="30"
         id="rect4151"
         style="color:#bebebe;fill:url(#linearGradient4153);fill-opacity:1;fill-rule:nonzero;stroke:none;stroke-width:0;marker:none;visibility:visible;display:inline;overflow:visible;enable-background:accumulate" />
      <rect
         style="color:#bebebe;fill:url(#linearGradient4869);fill-opacity:1;fill-rule:nonzero;stroke:none;stroke-width:0;marker:none;visibility:visible;display:inline;overflow:visible;enable-background:accumulate"
         id="rect4783"
         width="42"
         height="42"
         x="291"
         y="-265"
         ry="9"
         transform="scale(1,-1)" />
      <rect
         ry="18"
         y="32"
         x="292"
         height="88"
         width="88"
         id="rect4511"
         style="color:#bebebe;fill:url(#linearGradient4197);fill-opacity:1;fill-rule:nonzero;stroke:none;stroke-width:0;marker:none;visibility:visible;display:inline;overflow:visible;enable-background:accumulate" />
      <rect
         style="color:#bebebe;fill:url(#linearGradient4199);fill-opacity:1;fill-rule:nonzero;stroke:none;stroke-width:0;marker:none;visibility:visible;display:inline;overflow:visible;enable-background:accumulate"
         id="rect4515"
         width="60"
         height="60"
         x="290"
         y="142"
         ry="12.5" />
    </g>
    <g
       inkscape:groupmode="layer"
       id="layer6"
       inkscape:label="Symbols"
       style="display:inline">
      <path
         id="path4507"
         d="M 156.06685,77.035471 129,79 l 0,110.77763 27.06685,-3.38336 0,-48.34925 c 11.75903,18.19461 21.18374,35.121 36.8895,52.71487 l 28.04911,-8.29468 c -15.01917,-17.85015 -26.23993,-33.58559 -36.45293,-50.75034 10.64094,-16.13485 23.95461,-32.317083 36.99863,-46.821282 l -29.03137,-7.312414 c -13.55896,15.705757 -25.63916,31.933606 -36.45294,48.240106 l 0,-48.785809 z M 94.402461,99.736699 c -0.36594,0.05763 -0.8361,0.290231 -1.20055,0.654841 -3.17548,3.08967 -6.21063,6.18727 -9.38608,9.27695 -1.37318,1.37318 0.0541,3.03162 0.65484,4.14734 l 6.43929,9.1678 4.80219,6.65757 c 0.68659,0.94406 0.88779,1.05966 0.5457,1.74625 -0.42794,0.68659 -0.77142,1.27794 -1.20055,1.96453 -6.26515,10.81381 -1.89118,11.65173 -15.27967,15.17053 l -10.25921,1.74625 c -1.54365,0.51497 -3.51464,0.47379 -3.60164,2.61937 0,4.37701 -0.10896,8.71986 -0.10896,13.09686 -0.0859,1.97396 2.09598,2.16814 3.38335,2.51023 l 10.91406,1.96453 8.18553,1.52797 c 1.11568,0.17288 1.37842,-0.0929 1.63711,0.76398 3.34829,14.5042 7.73277,11.17652 0.43656,23.79264 l -5.89358,8.40382 c -0.77244,1.46018 -2.2242,2.90778 -0.76399,4.36562 3.08964,3.17545 6.07813,6.31974 9.16781,9.49522 1.37318,1.37081 3.13958,-0.0541 4.25648,-0.65484 l 9.058659,-6.43929 6.76671,-4.69304 c 0.94525,-0.77244 1.05966,-0.97364 1.74625,-0.54571 13.55895,8.49774 14.06027,2.36477 18.00819,16.6985 l 1.96452,10.25921 c 0.51494,1.54603 0.55961,3.51583 2.61938,3.60164 l 13.206,0 c 1.97392,0 2.14481,-2.31427 2.40109,-3.60164 l 1.85539,-10.91405 1.30969,-8.0764 c 0.0859,-0.77243 0.0454,-1.16373 0.21828,-1.41882 15.87738,-3.34833 11.92583,-8.0982 24.88404,-0.54571 l 8.40382,5.89359 c 1.54602,0.7724 3.01573,2.11502 4.47476,0.65484 3.17548,-3.00382 6.2106,-6.05483 9.38608,-9.05866 1.37318,-1.46018 0.0314,-3.14199 -0.65484,-4.25648 l -0.10897,0 -6.11187,-8.6221 -4.0382,1.41883 c -1.02871,0.68659 -2.4013,0.42909 -3.60163,-1.20055 l -8.84038,-11.67803 c -8.23908,11.41456 -21.56624,18.77216 -36.67122,18.77216 -24.8877,0 -45.184169,-20.29409 -45.184169,-45.18417 0,-17.67972 10.255989,-33.00116 25.102319,-40.38199 l 0,-10.36835 c -0.51497,0.2574 -1.09647,0.37408 -1.52797,0.5457 -5.83485,2.40308 -6.18982,3.52819 -15.71624,-1.96453 l -8.403819,-6.00273 c -1.15954,-0.51493 -2.17638,-1.482665 -3.27421,-1.309681 z m 28.813099,23.356071 c -12.61609,7.1234 -21.17326,20.8085 -21.17326,36.34379 0,22.91375 18.68971,41.69168 41.69167,41.69168 14.24555,0 26.71764,-7.23984 34.27013,-18.22647 l -0.43657,-0.87312 c -8.83985,9.78273 -18.75191,16.13572 -33.9427,16.48022 -18.88124,0.34191 -38.00304,-16.49203 -38.09004,-38.63575 -0.17043,-14.24673 6.43786,-23.91172 17.68077,-30.77762 l 0,-6.00273 z"
         style="opacity:0.2;fill:#000000;fill-opacity:1;fill-rule:evenodd;overflow:visible"
         inkscape:connector-curvature="0" />
      <path
         inkscape:connector-curvature="0"
         style="opacity:0.2;fill:#000000;fill-opacity:1;fill-rule:evenodd;overflow:visible"
         d="M 340.15007,47.2633 330,48 l 0,41.54161 10.15007,-1.26876 0,-18.13097 c 4.40964,6.82298 7.94391,13.17038 13.83357,19.76808 l 10.51842,-3.11051 c -5.63219,-6.6938 -9.83998,-12.59459 -13.66985,-19.03138 3.99035,-6.05056 8.98298,-12.1189 13.87448,-17.55798 l -10.88676,-2.74215 c -5.08461,5.88966 -9.61468,11.9751 -13.66986,18.09004 l 0,-18.29468 z m -23.12414,8.51296 c -0.13723,0.0216 -0.31354,0.10884 -0.45021,0.24557 -1.1908,1.15862 -2.32898,2.32022 -3.51978,3.47885 -0.51494,0.51494 0.0203,1.13686 0.24557,1.55525 l 2.41473,3.43793 1.80082,2.49659 c 0.25747,0.35402 0.33292,0.39737 0.20464,0.65484 -0.16048,0.25747 -0.28928,0.47923 -0.45021,0.7367 -2.34943,4.05518 -0.70919,4.3694 -5.72987,5.68895 l -3.84721,0.65484 c -0.57887,0.19312 -1.31799,0.17767 -1.35061,0.98227 0,1.64138 -0.0409,3.26994 -0.0409,4.91132 -0.0322,0.74023 0.78599,0.81305 1.26875,0.94134 l 4.09278,0.73669 3.06957,0.57299 c 0.41838,0.0648 0.51691,-0.0348 0.61392,0.2865 1.25561,5.43907 2.89979,4.19119 0.16371,8.92224 l -2.2101,3.15143 c -0.28966,0.54757 -0.83407,1.09042 -0.28649,1.63711 1.15861,1.19079 2.2793,2.3699 3.43793,3.5607 0.51494,0.51406 1.17734,-0.0203 1.59618,-0.24556 l 3.39699,-2.41474 2.53752,-1.75989 c 0.35447,-0.28966 0.39737,-0.36511 0.65484,-0.20464 5.08461,3.18666 5.2726,0.88679 6.75307,6.26194 l 0.7367,3.8472 c 0.1931,0.57977 0.20985,1.31844 0.98227,1.35062 l 4.95225,0 c 0.74022,0 0.8043,-0.86785 0.90041,-1.35062 l 0.69577,-4.09276 0.49113,-3.02865 c 0.0322,-0.28967 0.017,-0.4364 0.0819,-0.53206 5.95402,-1.25563 4.47219,-3.03683 9.33152,-0.20464 l 3.15143,2.21009 c 0.57976,0.28965 1.1309,0.79314 1.67803,0.24557 1.19081,-1.12643 2.32898,-2.27056 3.51978,-3.397 0.51495,-0.54757 0.0118,-1.17825 -0.24556,-1.59618 l -0.0409,0 -2.29195,-3.23329 -1.51432,0.53206 c -0.38577,0.25748 -0.90049,0.16091 -1.35061,-0.4502 l -3.31515,-4.37926 c -3.08965,4.28046 -8.08734,7.03956 -13.7517,7.03956 -9.33289,0 -16.94407,-7.61029 -16.94407,-16.94407 0,-6.62989 3.846,-12.37543 9.41337,-15.14324 l 0,-3.88813 c -0.19311,0.0965 -0.41117,0.14028 -0.57299,0.20463 -2.18806,0.90116 -2.32118,1.32307 -5.89359,-0.7367 l -3.15143,-2.25102 c -0.43482,-0.1931 -0.81614,-0.556 -1.22783,-0.49113 z m 10.80491,8.75853 c -4.73103,2.67127 -7.93997,7.80318 -7.93997,13.62892 0,8.59265 7.00864,15.63438 15.63437,15.63438 5.34209,0 10.01912,-2.71494 12.85131,-6.83493 l -0.16372,-0.32742 c -3.31494,3.66853 -7.03196,6.0509 -12.72851,6.18008 -7.08047,0.12822 -14.25114,-6.18451 -14.28377,-14.4884 -0.0639,-5.34253 2.4142,-8.9669 6.63029,-11.54161 l 0,-2.25102 z"
         id="path4509" />
      <path
         id="path4511"
         d="m 322.78784,153 -6.76671,0.49113 0,27.69441 6.76671,-0.84584 0,-12.08731 c 2.93976,4.54865 5.29594,8.78025 9.22238,13.17872 l 7.01228,-2.07368 c -3.75479,-4.46253 -6.55998,-8.39639 -9.11323,-12.68758 2.66023,-4.03371 5.98865,-8.07927 9.24965,-11.70532 l -7.25784,-1.8281 c -3.38974,3.92644 -6.40978,7.9834 -9.11324,12.06002 l 0,-12.19645 z m -15.41609,5.67531 c -0.0915,0.0144 -0.20903,0.0726 -0.30014,0.16371 -0.79387,0.77241 -1.55265,1.54681 -2.34652,2.31923 -0.34329,0.3433 0.0135,0.75791 0.16371,1.03684 l 1.60982,2.29195 1.20055,1.66439 c 0.17165,0.23602 0.22195,0.26492 0.13643,0.43656 -0.10699,0.17165 -0.19286,0.31949 -0.30014,0.49114 -1.56629,2.70345 -0.4728,2.91293 -3.81992,3.79263 l -2.5648,0.43656 c -0.38592,0.12875 -0.87866,0.11845 -0.90041,0.65485 0,1.09425 -0.0273,2.17996 -0.0273,3.27421 -0.0215,0.49349 0.524,0.54203 0.84584,0.62756 l 2.72852,0.49113 2.04638,0.38199 c 0.27892,0.0432 0.3446,-0.0232 0.40928,0.191 0.83707,3.62605 1.93319,2.79413 0.10914,5.94816 l -1.4734,2.10095 c -0.19311,0.36505 -0.55605,0.72695 -0.191,1.09141 0.77241,0.79386 1.51954,1.57993 2.29196,2.3738 0.34329,0.34271 0.78489,-0.0135 1.06412,-0.16371 l 2.26466,-1.60982 1.69168,-1.17326 c 0.23631,-0.19311 0.26491,-0.24341 0.43656,-0.13643 3.38974,2.12444 3.51506,0.59119 4.50204,4.17463 l 0.49114,2.5648 c 0.12873,0.38651 0.1399,0.87896 0.65484,0.90041 l 3.3015,0 c 0.49348,0 0.5362,-0.57857 0.60028,-0.90041 l 0.46384,-2.72851 0.32742,-2.0191 c 0.0215,-0.19311 0.0113,-0.29093 0.0546,-0.35471 3.96935,-0.83708 2.98146,-2.02455 6.22102,-0.13642 l 2.10095,1.47339 c 0.38651,0.1931 0.75393,0.52876 1.11869,0.16371 0.79387,-0.75095 1.55265,-1.5137 2.34652,-2.26466 0.3433,-0.36505 0.008,-0.7855 -0.16371,-1.06412 l -0.0273,0 -1.52796,-2.15553 -1.00955,0.35471 c -0.25718,0.17165 -0.60033,0.10727 -0.90041,-0.30014 l -2.2101,-2.9195 c -2.05976,2.85364 -5.39156,4.69304 -9.1678,4.69304 -6.22192,0 -11.29604,-5.07353 -11.29604,-11.29605 0,-4.41993 2.564,-8.25029 6.27558,-10.09549 l 0,-2.59209 c -0.12874,0.0643 -0.27412,0.0935 -0.382,0.13642 -1.4587,0.60077 -1.54745,0.88205 -3.92906,-0.49113 l -2.10095,-1.50068 c -0.28988,-0.12874 -0.54409,-0.37067 -0.81855,-0.32742 z m 7.20327,5.83902 c -3.15402,1.78084 -5.29331,5.20212 -5.29331,9.08594 0,5.72844 4.67243,10.42292 10.42291,10.42292 3.5614,0 6.67942,-1.80996 8.56754,-4.55662 l -0.10914,-0.21828 c -2.20996,2.44569 -4.68798,4.03394 -8.48568,4.12006 -4.72031,0.0855 -9.50076,-4.12301 -9.52251,-9.65894 -0.0426,-3.56168 1.60947,-5.97793 4.42019,-7.6944 l 0,-1.50068 z"
         style="opacity:0.2;fill:#000000;fill-opacity:1;fill-rule:evenodd;overflow:visible"
         inkscape:connector-curvature="0" />
      <path
         inkscape:connector-curvature="0"
         style="opacity:0.2;fill:#000000;fill-opacity:1;fill-rule:evenodd;overflow:visible"
         d="m 313.77031,231 -4.7367,0.34379 0,19.38609 4.7367,-0.59209 0,-8.46112 c 2.05783,3.18406 3.70716,6.14618 6.45567,9.22511 l 4.90859,-1.45158 c -2.62835,-3.12377 -4.59198,-5.87747 -6.37926,-8.88131 1.86216,-2.82359 4.19206,-5.65548 6.47476,-8.19372 l -5.08049,-1.27967 c -2.37282,2.74851 -4.48685,5.58838 -6.37927,8.44201 l 0,-8.53751 z m -10.79126,3.97272 c -0.064,0.0101 -0.14632,0.0508 -0.2101,0.11459 -0.55571,0.54069 -1.08685,1.08277 -1.64256,1.62346 -0.24031,0.24031 0.009,0.53054 0.11459,0.72579 l 1.12688,1.60437 0.84038,1.16507 c 0.12016,0.16521 0.15537,0.18544 0.0955,0.30559 -0.0749,0.12016 -0.135,0.22365 -0.21009,0.3438 -1.09641,1.89242 -0.33096,2.03905 -2.67395,2.65484 l -1.79536,0.30559 c -0.27014,0.0901 -0.61506,0.0829 -0.63029,0.4584 0,0.76597 -0.0191,1.52597 -0.0191,2.29195 -0.0151,0.34544 0.3668,0.37942 0.59209,0.43929 l 1.90997,0.34379 1.43246,0.26739 c 0.19525,0.0302 0.24122,-0.0162 0.2865,0.1337 0.58595,2.53824 1.35323,1.95589 0.0764,4.16371 l -1.03138,1.47067 c -0.13518,0.25553 -0.38924,0.50886 -0.1337,0.76399 0.54068,0.5557 1.06367,1.10595 1.60437,1.66166 0.2403,0.23989 0.54942,-0.009 0.74488,-0.1146 l 1.58526,-1.12688 1.18418,-0.82128 c 0.16542,-0.13517 0.18544,-0.17038 0.30559,-0.0955 2.37282,1.48711 2.46054,0.41383 3.15143,2.92224 l 0.3438,1.79536 c 0.0901,0.27056 0.0979,0.61527 0.45839,0.63029 l 2.31105,0 c 0.34543,0 0.37534,-0.405 0.42019,-0.63029 l 0.32469,-1.90995 0.22919,-1.41337 c 0.015,-0.13518 0.008,-0.20366 0.0382,-0.2483 2.77855,-0.58596 2.08703,-1.41719 4.35472,-0.0955 l 1.47066,1.03138 c 0.27056,0.13517 0.52775,0.37013 0.78309,0.11459 0.55571,-0.52566 1.08685,-1.05959 1.64256,-1.58526 0.24031,-0.25553 0.006,-0.54985 -0.1146,-0.74488 l -0.0191,0 -1.06957,-1.50887 -0.70668,0.24829 c -0.18003,0.12016 -0.42023,0.0751 -0.63029,-0.21009 l -1.54707,-2.04365 c -1.44183,1.99754 -3.77409,3.28512 -6.41746,3.28512 -4.35534,0 -7.90723,-3.55147 -7.90723,-7.90723 0,-3.09395 1.7948,-5.7752 4.39291,-7.06684 l 0,-1.81447 c -0.0901,0.045 -0.19189,0.0654 -0.2674,0.0955 -1.02109,0.42054 -1.08322,0.61743 -2.75034,-0.34379 l -1.47067,-1.05048 c -0.20292,-0.0901 -0.38086,-0.25947 -0.57298,-0.22919 z m 5.04229,4.08731 c -2.20782,1.24659 -3.70532,3.64148 -3.70532,6.36016 0,4.00991 3.2707,7.29604 7.29604,7.29604 2.49298,0 4.67559,-1.26697 5.99728,-3.18963 l -0.0764,-0.1528 c -1.54697,1.71199 -3.28159,2.82376 -5.93998,2.88404 -3.30422,0.0599 -6.65053,-2.8861 -6.66576,-6.76125 -0.0298,-2.49318 1.12663,-4.18455 3.09414,-5.38608 l 0,-1.05048 z"
         id="path4513" />
      <path
         id="path4515"
         d="m 433.42356,59.000018 -3.38336,0.245567 0,13.847203 3.38336,-0.42292 0,-6.043656 c 1.46988,2.274326 2.64797,4.390126 4.61119,6.589356 l 3.50614,-1.036833 c -1.8774,-2.231267 -3.27999,-4.198197 -4.55662,-6.343793 1.33012,-2.016854 2.99433,-4.039634 4.62483,-5.85266 l -3.62892,-0.91405 c -1.69487,1.96322 -3.20489,3.9917 -4.55662,6.030013 l 0,-6.098227 z m -7.70805,2.837654 c -0.0458,0.0072 -0.10451,0.03628 -0.15007,0.08186 -0.39693,0.386207 -0.77632,0.773407 -1.17326,1.159617 -0.17164,0.171647 0.007,0.378953 0.0819,0.518417 l 0.80491,1.145976 0.60027,0.832197 c 0.0858,0.118007 0.11098,0.132457 0.0682,0.21828 -0.0535,0.08582 -0.0964,0.159743 -0.15007,0.245567 -0.78315,1.351726 -0.2364,1.456466 -1.90996,1.896316 l -1.2824,0.21828 c -0.19296,0.06437 -0.43933,0.05922 -0.45021,0.327424 0,0.547126 -0.0136,1.08998 -0.0136,1.637106 -0.0108,0.246744 0.262,0.271017 0.42292,0.31378 l 1.36426,0.245564 1.02319,0.190996 c 0.13946,0.0216 0.1723,-0.0116 0.20464,0.0955 0.41854,1.81302 0.9666,1.397064 0.0546,2.97408 l -0.7367,1.05048 c -0.0965,0.18252 -0.27802,0.36347 -0.0955,0.5457 0.38621,0.39693 0.75977,0.78997 1.14598,1.1869 0.17165,0.17136 0.39245,-0.007 0.53206,-0.0819 l 1.13233,-0.80492 0.84584,-0.58663 c 0.11816,-0.0965 0.13246,-0.1217 0.21828,-0.0682 1.69487,1.06222 1.75753,0.2956 2.25102,2.08732 l 0.24557,1.2824 c 0.0644,0.19325 0.07,0.43948 0.32742,0.4502 l 1.65075,0 c 0.24674,0 0.2681,-0.28928 0.30014,-0.4502 l 0.23192,-1.36426 0.16371,-1.00955 c 0.0107,-0.0965 0.006,-0.14546 0.0273,-0.17735 1.98468,-0.41855 1.49073,-1.01228 3.11051,-0.0682 l 1.05048,0.73669 c 0.19325,0.0966 0.37696,0.26438 0.55934,0.0819 0.39694,-0.37548 0.77633,-0.75685 1.17326,-1.13234 0.17165,-0.18252 0.004,-0.39275 -0.0818,-0.53206 l -0.0137,0 -0.76398,-1.07776 -0.50478,0.17735 c -0.12859,0.0858 -0.30016,0.0536 -0.4502,-0.15006 l -1.10505,-1.459756 c -1.02988,1.426816 -2.69578,2.346516 -4.5839,2.346516 -3.11096,0 -5.64802,-2.53676 -5.64802,-5.64802 0,-2.209963 1.282,-4.125143 3.13779,-5.047746 l 0,-1.296044 c -0.0644,0.03217 -0.13706,0.04676 -0.191,0.06821 -0.72935,0.300387 -0.77373,0.441024 -1.96453,-0.245566 l -1.05048,-0.75034 c -0.14494,-0.06437 -0.27204,-0.185334 -0.40927,-0.16371 z m 3.60164,2.91951 c -1.57701,0.890423 -2.64666,2.60106 -2.64666,4.542973 0,2.864217 2.33622,5.211463 5.21146,5.211463 1.7807,0 3.33971,-0.90498 4.28377,-2.278313 l -0.0546,-0.10914 c -1.10498,1.222843 -2.34399,2.016963 -4.24284,2.060023 -2.36016,0.0427 -4.75038,-2.0615 -4.76126,-4.829463 -0.0213,-1.780843 0.80474,-2.988967 2.2101,-3.847203 l 0,-0.75034 z"
         style="opacity:0.2;fill:#000000;fill-opacity:1;fill-rule:evenodd;overflow:visible"
         inkscape:connector-curvature="0" />
      <path
         inkscape:connector-curvature="0"
         style="opacity:0.2;fill:#000000;fill-opacity:1;fill-rule:evenodd;overflow:visible"
         d="m 429.36553,106 -2.36836,0.1719 0,9.69306 2.36836,-0.29605 0,-4.23056 c 1.02892,1.59203 1.85358,3.07309 3.22784,4.61255 l 2.4543,-0.72578 c -1.31418,-1.56189 -2.296,-2.93874 -3.18964,-4.44066 0.93109,-1.4118 2.09604,-2.82775 3.23739,-4.09687 l -2.54025,-0.63984 c -1.18641,1.37426 -2.24343,2.7942 -3.18964,4.22102 l 0,-4.26877 z m -5.39565,1.98636 c -0.0321,0.005 -0.0731,0.0254 -0.10505,0.0573 -0.27785,0.27035 -0.54342,0.54139 -0.82128,0.81174 -0.12015,0.12015 0.005,0.26526 0.0573,0.36289 l 0.56344,0.80218 0.42019,0.58254 c 0.0601,0.0826 0.0777,0.0927 0.0477,0.1528 -0.0374,0.0601 -0.0675,0.11182 -0.10505,0.1719 -0.54821,0.9462 -0.16548,1.01952 -1.33697,1.32742 l -0.89769,0.15279 c -0.13507,0.0451 -0.30753,0.0414 -0.31514,0.2292 0,0.38299 -0.01,0.76299 -0.01,1.14598 -0.008,0.17272 0.1834,0.18971 0.29604,0.21964 l 0.95498,0.1719 0.71624,0.1337 c 0.0976,0.0151 0.12061,-0.008 0.14325,0.0669 0.29298,1.26911 0.67662,0.97794 0.0382,2.08186 l -0.51569,0.73534 c -0.0676,0.12776 -0.19462,0.25442 -0.0669,0.38199 0.27034,0.27785 0.53184,0.55298 0.80218,0.83083 0.12016,0.11995 0.27472,-0.005 0.37245,-0.0573 l 0.79263,-0.56345 0.59209,-0.41064 c 0.0827,-0.0675 0.0927,-0.0852 0.15279,-0.0477 1.18642,0.74356 1.23028,0.20692 1.57572,1.46113 l 0.1719,0.89768 c 0.0451,0.13527 0.049,0.30764 0.22919,0.31514 l 1.15553,0 c 0.17272,0 0.18767,-0.2025 0.2101,-0.31514 l 0.16234,-0.95498 0.1146,-0.70669 c 0.007,-0.0675 0.004,-0.10182 0.0191,-0.12415 1.38928,-0.29298 1.04351,-0.70859 2.17736,-0.0477 l 0.73534,0.51569 c 0.13528,0.0676 0.26387,0.18506 0.39154,0.0573 0.27786,-0.26284 0.54343,-0.5298 0.82128,-0.79264 0.12016,-0.12777 0.003,-0.27493 -0.0573,-0.37244 l -0.01,0 -0.53478,-0.75444 -0.35335,0.12415 c -0.09,0.0601 -0.21011,0.0375 -0.31514,-0.10504 l -0.77354,-1.02184 c -0.72092,0.99878 -1.88705,1.64257 -3.20873,1.64257 -2.17768,0 -3.95363,-1.77574 -3.95363,-3.95362 0,-1.54698 0.89741,-2.88761 2.19646,-3.53343 l 0,-0.90723 c -0.0451,0.0225 -0.0959,0.0327 -0.1337,0.0477 -0.51054,0.21027 -0.54161,0.30871 -1.37517,-0.1719 l -0.73426,-0.52524 c -0.10146,-0.0451 -0.19043,-0.12973 -0.28649,-0.1146 z m 2.52116,2.04366 c -1.10391,0.6233 -1.85267,1.82075 -1.85267,3.18009 0,2.00496 1.63536,3.64803 3.64803,3.64803 1.24649,0 2.3378,-0.63349 2.99864,-1.59482 l -0.0382,-0.0764 c -0.77348,0.85599 -1.64079,1.41188 -2.96999,1.44202 -1.65211,0.0299 -3.32527,-1.44305 -3.33289,-3.38063 -0.0149,-1.24659 0.56332,-2.09228 1.54708,-2.69305 l 0,-0.52524 z"
         id="path4517" />
      <path
         id="path4519"
         d="m 425.02329,143.00002 -2.03,0.14734 0,8.30827 2.03,-0.25376 0,-3.62616 c 0.88193,1.36458 1.58877,2.63405 2.7667,3.95358 l 2.10367,-0.62209 c -1.12643,-1.33875 -1.96799,-2.5189 -2.73396,-3.80625 0.79807,-1.2101 1.79659,-2.42376 2.77489,-3.51157 l -2.17734,-0.54843 c -1.01692,1.17793 -1.92293,2.39501 -2.73396,3.61798 l 0,-3.65891 z m -4.6248,1.70258 c -0.0275,0.004 -0.0627,0.0218 -0.09,0.0491 -0.23816,0.23172 -0.46579,0.46404 -0.70395,0.69576 -0.10299,0.10299 0.004,0.22737 0.0491,0.31105 l 0.48295,0.68758 0.36016,0.49931 c 0.0515,0.0708 0.0666,0.0795 0.0409,0.13097 -0.0321,0.0515 -0.0579,0.0958 -0.09,0.14735 -0.46989,0.81102 -0.14184,0.87386 -1.14596,1.13777 l -0.76945,0.13098 c -0.11577,0.0386 -0.26359,0.0355 -0.27011,0.19644 0,0.32828 -0.009,0.65399 -0.009,0.98226 -0.007,0.14805 0.15719,0.16261 0.25374,0.18826 l 0.81855,0.14734 0.61391,0.1146 c 0.0837,0.013 0.10338,-0.007 0.12279,0.0573 0.25112,1.08779 0.57995,0.83822 0.0327,1.78443 l -0.44202,0.63029 c -0.0579,0.10951 -0.16681,0.21807 -0.0573,0.32741 0.23172,0.23816 0.45586,0.47398 0.68758,0.71214 0.10299,0.10282 0.23547,-0.004 0.31924,-0.0491 l 0.67939,-0.48295 0.5075,-0.35196 c 0.0709,-0.0579 0.0795,-0.073 0.13096,-0.0409 1.01693,0.63734 1.05452,0.17737 1.35061,1.2524 l 0.14734,0.76943 c 0.0387,0.11595 0.042,0.26368 0.19645,0.27011 l 0.99044,0 c 0.14805,0 0.16086,-0.17356 0.18009,-0.27011 l 0.13915,-0.81855 0.0982,-0.60573 c 0.006,-0.0579 0.003,-0.0873 0.0164,-0.10641 1.19081,-0.25112 0.89443,-0.60736 1.8663,-0.0409 l 0.63028,0.442 c 0.11596,0.0579 0.22618,0.15863 0.33561,0.0491 0.23816,-0.22529 0.46579,-0.45412 0.70394,-0.6794 0.103,-0.10953 0.003,-0.23566 -0.0491,-0.31923 l -0.009,0 -0.45838,-0.64666 -0.30287,0.10641 c -0.0771,0.0515 -0.18009,0.0321 -0.27012,-0.09 l -0.66303,-0.87586 c -0.61792,0.85609 -1.61745,1.40791 -2.75031,1.40791 -1.86657,0 -3.3888,-1.52204 -3.3888,-3.38879 0,-1.32597 0.7692,-2.47506 1.88267,-3.02862 l 0,-0.77763 c -0.0387,0.0193 -0.0822,0.028 -0.1146,0.0409 -0.43761,0.18023 -0.46424,0.2646 -1.17871,-0.14734 l -0.62861,-0.45016 c -0.087,-0.0387 -0.16323,-0.11118 -0.24556,-0.0982 z m 2.16098,1.75169 c -0.9462,0.53427 -1.58799,1.56063 -1.58799,2.72578 0,1.71851 1.40172,3.12685 3.12685,3.12685 1.06841,0 2.00381,-0.54299 2.57024,-1.36698 l -0.0327,-0.0655 c -0.66298,0.73369 -1.40638,1.21017 -2.54568,1.236 -1.41609,0.0256 -2.85021,-1.23689 -2.85674,-2.89766 -0.0128,-1.06849 0.48284,-1.79336 1.32606,-2.3083 l 0,-0.45021 z"
         style="opacity:0.2;fill:#000000;fill-opacity:1;fill-rule:evenodd;overflow:visible"
         inkscape:connector-curvature="0" />
      <path
         inkscape:connector-curvature="0"
         style="fill:#ffffff;fill-opacity:1;fill-rule:evenodd;overflow:visible"
         d="M 156.06685,76.035471 129,78 l 0,110.77763 27.06685,-3.38336 0,-48.34925 c 11.75903,18.19461 21.18374,35.121 36.8895,52.71487 l 28.04911,-8.29468 c -15.01917,-17.85015 -26.23993,-33.58559 -36.45293,-50.75034 10.64094,-16.13485 23.95461,-32.317083 36.99863,-46.821282 l -29.03137,-7.312414 c -13.55896,15.705757 -25.63916,31.933606 -36.45294,48.240106 l 0,-48.785809 z M 94.402461,98.736699 c -0.36594,0.05763 -0.8361,0.290226 -1.20055,0.654843 -3.17548,3.089668 -6.21063,6.187268 -9.38608,9.276948 -1.37318,1.37318 0.0541,3.03162 0.65484,4.14734 l 6.43929,9.1678 4.80219,6.65757 c 0.68659,0.94406 0.88779,1.05966 0.5457,1.74625 -0.42794,0.68659 -0.77142,1.27794 -1.20055,1.96453 -6.26515,10.81381 -1.89118,11.65173 -15.27967,15.17053 l -10.25921,1.74625 c -1.54365,0.51497 -3.51464,0.47379 -3.60164,2.61937 0,4.37701 -0.10896,8.71986 -0.10896,13.09686 -0.0859,1.97396 2.09598,2.16814 3.38335,2.51023 l 10.91406,1.96453 8.18553,1.52797 c 1.11568,0.17288 1.37842,-0.0929 1.63711,0.76398 3.34829,14.5042 7.73277,11.17652 0.43656,23.79264 l -5.89358,8.40382 c -0.77244,1.46018 -2.2242,2.90778 -0.76399,4.36562 3.08964,3.17545 6.07813,6.31974 9.16781,9.49522 1.37318,1.37081 3.13958,-0.0541 4.25648,-0.65484 l 9.058659,-6.43929 6.76671,-4.69304 c 0.94525,-0.77244 1.05966,-0.97364 1.74625,-0.54571 13.55895,8.49774 14.06027,2.36477 18.00819,16.6985 l 1.96452,10.25921 c 0.51494,1.54603 0.55961,3.51583 2.61938,3.60164 l 13.206,0 c 1.97392,0 2.14481,-2.31427 2.40109,-3.60164 l 1.85539,-10.91405 1.30969,-8.0764 c 0.0859,-0.77243 0.0454,-1.16373 0.21828,-1.41882 15.87738,-3.34833 11.92583,-8.0982 24.88404,-0.54571 l 8.40382,5.89359 c 1.54602,0.7724 3.01573,2.11502 4.47476,0.65484 3.17548,-3.00382 6.2106,-6.05483 9.38608,-9.05866 1.37318,-1.46018 0.0314,-3.14199 -0.65484,-4.25648 l -0.10897,0 -6.11187,-8.6221 -4.0382,1.41883 c -1.02871,0.68659 -2.4013,0.42909 -3.60163,-1.20055 l -8.84038,-11.67803 c -8.23908,11.41456 -21.56624,18.77216 -36.67122,18.77216 -24.8877,0 -45.184169,-20.29409 -45.184169,-45.18417 0,-17.67972 10.255989,-33.00116 25.102319,-40.38199 l 0,-10.36835 c -0.51497,0.2574 -1.09647,0.37408 -1.52797,0.5457 -5.83485,2.40308 -6.18982,3.52819 -15.71624,-1.96453 l -8.403819,-6.00273 c -1.15954,-0.514929 -2.17638,-1.482665 -3.27421,-1.309681 z m 28.813099,23.356071 c -12.61609,7.1234 -21.17326,20.8085 -21.17326,36.34379 0,22.91375 18.68971,41.69168 41.69167,41.69168 14.24555,0 26.71764,-7.23984 34.27013,-18.22647 l -0.43657,-0.87312 c -8.83985,9.78273 -18.75191,16.13572 -33.9427,16.48022 -18.88124,0.34191 -38.00304,-16.49203 -38.09004,-38.63575 -0.17043,-14.24673 6.43786,-23.91172 17.68077,-30.77762 l 0,-6.00273 z"
         id="path1084" />
      <path
         id="path4495"
         d="M 340.15007,46.2633 330,47 l 0,41.54161 10.15007,-1.26876 0,-18.13097 c 4.40964,6.82298 7.94391,13.17038 13.83357,19.76808 l 10.51842,-3.11051 c -5.63219,-6.6938 -9.83998,-12.59459 -13.66985,-19.03138 3.99035,-6.05056 8.98298,-12.1189 13.87448,-17.55798 l -10.88676,-2.74215 c -5.08461,5.88966 -9.61468,11.9751 -13.66986,18.09004 l 0,-18.29468 z m -23.12414,8.51296 c -0.13723,0.0216 -0.31354,0.10884 -0.45021,0.24557 -1.1908,1.15862 -2.32898,2.32022 -3.51978,3.47885 -0.51494,0.51494 0.0203,1.13686 0.24557,1.55525 l 2.41473,3.43793 1.80082,2.49659 c 0.25747,0.35402 0.33292,0.39737 0.20464,0.65484 -0.16048,0.25747 -0.28928,0.47923 -0.45021,0.7367 -2.34943,4.05518 -0.70919,4.3694 -5.72987,5.68895 l -3.84721,0.65484 c -0.57887,0.19312 -1.31799,0.17767 -1.35061,0.98227 0,1.64138 -0.0409,3.26994 -0.0409,4.91132 -0.0322,0.74023 0.78599,0.81305 1.26875,0.94134 l 4.09278,0.73669 3.06957,0.57299 c 0.41838,0.0648 0.51691,-0.0348 0.61392,0.2865 1.25561,5.43907 2.89979,4.19119 0.16371,8.92224 l -2.2101,3.15143 c -0.28966,0.54757 -0.83407,1.09042 -0.28649,1.63711 1.15861,1.19079 2.2793,2.3699 3.43793,3.5607 0.51494,0.51406 1.17734,-0.0203 1.59618,-0.24556 l 3.39699,-2.41474 2.53752,-1.75989 c 0.35447,-0.28966 0.39737,-0.36511 0.65484,-0.20464 5.08461,3.18666 5.2726,0.88679 6.75307,6.26194 l 0.7367,3.8472 c 0.1931,0.57977 0.20985,1.31844 0.98227,1.35062 l 4.95225,0 c 0.74022,0 0.8043,-0.86785 0.90041,-1.35062 l 0.69577,-4.09276 0.49113,-3.02865 c 0.0322,-0.28967 0.017,-0.4364 0.0819,-0.53206 5.95402,-1.25563 4.47219,-3.03683 9.33152,-0.20464 l 3.15143,2.21009 c 0.57976,0.28965 1.1309,0.79314 1.67803,0.24557 1.19081,-1.12643 2.32898,-2.27056 3.51978,-3.397 0.51495,-0.54757 0.0118,-1.17825 -0.24556,-1.59618 l -0.0409,0 -2.29195,-3.23329 -1.51432,0.53206 c -0.38577,0.25748 -0.90049,0.16091 -1.35061,-0.4502 l -3.31515,-4.37926 c -3.08965,4.28046 -8.08734,7.03956 -13.7517,7.03956 -9.33289,0 -16.94407,-7.61029 -16.94407,-16.94407 0,-6.62989 3.846,-12.37543 9.41337,-15.14324 l 0,-3.88813 c -0.19311,0.0965 -0.41117,0.14028 -0.57299,0.20463 -2.18806,0.90116 -2.32118,1.32307 -5.89359,-0.7367 l -3.15143,-2.25102 c -0.43482,-0.1931 -0.81614,-0.556 -1.22783,-0.49113 z m 10.80491,8.75853 c -4.73103,2.67127 -7.93997,7.80318 -7.93997,13.62892 0,8.59265 7.00864,15.63438 15.63437,15.63438 5.34209,0 10.01912,-2.71494 12.85131,-6.83493 l -0.16372,-0.32742 c -3.31494,3.66853 -7.03196,6.0509 -12.72851,6.18008 -7.08047,0.12822 -14.25114,-6.18451 -14.28377,-14.4884 -0.0639,-5.34253 2.4142,-8.9669 6.63029,-11.54161 l 0,-2.25102 z"
         style="fill:#ffffff;fill-opacity:1;fill-rule:evenodd;overflow:visible"
         inkscape:connector-curvature="0" />
      <path
         inkscape:connector-curvature="0"
         style="fill:#ffffff;fill-opacity:1;fill-rule:evenodd;overflow:visible"
         d="m 322.78784,152 -6.76671,0.49113 0,27.69441 6.76671,-0.84584 0,-12.08731 c 2.93976,4.54865 5.29594,8.78025 9.22238,13.17872 l 7.01228,-2.07368 c -3.75479,-4.46253 -6.55998,-8.39639 -9.11323,-12.68758 2.66023,-4.03371 5.98865,-8.07927 9.24965,-11.70532 l -7.25784,-1.8281 c -3.38974,3.92644 -6.40978,7.9834 -9.11324,12.06002 l 0,-12.19645 z m -15.41609,5.67531 c -0.0915,0.0144 -0.20903,0.0726 -0.30014,0.16371 -0.79387,0.77241 -1.55265,1.54681 -2.34652,2.31923 -0.34329,0.3433 0.0135,0.75791 0.16371,1.03684 l 1.60982,2.29195 1.20055,1.66439 c 0.17165,0.23602 0.22195,0.26492 0.13643,0.43656 -0.10699,0.17165 -0.19286,0.31949 -0.30014,0.49114 -1.56629,2.70345 -0.4728,2.91293 -3.81992,3.79263 l -2.5648,0.43656 c -0.38592,0.12875 -0.87866,0.11845 -0.90041,0.65485 0,1.09425 -0.0273,2.17996 -0.0273,3.27421 -0.0215,0.49349 0.524,0.54203 0.84584,0.62756 l 2.72852,0.49113 2.04638,0.38199 c 0.27892,0.0432 0.3446,-0.0232 0.40928,0.191 0.83707,3.62605 1.93319,2.79413 0.10914,5.94816 l -1.4734,2.10095 c -0.19311,0.36505 -0.55605,0.72695 -0.191,1.09141 0.77241,0.79386 1.51954,1.57993 2.29196,2.3738 0.34329,0.34271 0.78489,-0.0135 1.06412,-0.16371 l 2.26466,-1.60982 1.69168,-1.17326 c 0.23631,-0.19311 0.26491,-0.24341 0.43656,-0.13643 3.38974,2.12444 3.51506,0.59119 4.50204,4.17463 l 0.49114,2.5648 c 0.12873,0.38651 0.1399,0.87896 0.65484,0.90041 l 3.3015,0 c 0.49348,0 0.5362,-0.57857 0.60028,-0.90041 l 0.46384,-2.72851 0.32742,-2.0191 c 0.0215,-0.19311 0.0113,-0.29093 0.0546,-0.35471 3.96935,-0.83708 2.98146,-2.02455 6.22102,-0.13642 l 2.10095,1.47339 c 0.38651,0.1931 0.75393,0.52876 1.11869,0.16371 0.79387,-0.75095 1.55265,-1.5137 2.34652,-2.26466 0.3433,-0.36505 0.008,-0.7855 -0.16371,-1.06412 l -0.0273,0 -1.52796,-2.15553 -1.00955,0.35471 c -0.25718,0.17165 -0.60033,0.10727 -0.90041,-0.30014 l -2.2101,-2.9195 c -2.05976,2.85364 -5.39156,4.69304 -9.1678,4.69304 -6.22192,0 -11.29604,-5.07353 -11.29604,-11.29605 0,-4.41993 2.564,-8.25029 6.27558,-10.09549 l 0,-2.59209 c -0.12874,0.0643 -0.27412,0.0935 -0.382,0.13642 -1.4587,0.60077 -1.54745,0.88205 -3.92906,-0.49113 l -2.10095,-1.50068 c -0.28988,-0.12874 -0.54409,-0.37067 -0.81855,-0.32742 z m 7.20327,5.83902 c -3.15402,1.78084 -5.29331,5.20212 -5.29331,9.08594 0,5.72844 4.67243,10.42292 10.42291,10.42292 3.5614,0 6.67942,-1.80996 8.56754,-4.55662 l -0.10914,-0.21828 c -2.20996,2.44569 -4.68798,4.03394 -8.48568,4.12006 -4.72031,0.0855 -9.50076,-4.12301 -9.52251,-9.65894 -0.0426,-3.56168 1.60947,-5.97793 4.42019,-7.6944 l 0,-1.50068 z"
         id="path4497" />
      <path
         id="path4499"
         d="m 313.77031,230 -4.7367,0.34379 0,19.38609 4.7367,-0.59209 0,-8.46112 c 2.05783,3.18406 3.70716,6.14618 6.45567,9.22511 l 4.90859,-1.45158 c -2.62835,-3.12377 -4.59198,-5.87747 -6.37926,-8.88131 1.86216,-2.82359 4.19206,-5.65548 6.47476,-8.19372 l -5.08049,-1.27967 c -2.37282,2.74851 -4.48685,5.58838 -6.37927,8.44201 l 0,-8.53751 z m -10.79126,3.97272 c -0.064,0.0101 -0.14632,0.0508 -0.2101,0.11459 -0.55571,0.54069 -1.08685,1.08277 -1.64256,1.62346 -0.24031,0.24031 0.009,0.53054 0.11459,0.72579 l 1.12688,1.60437 0.84038,1.16507 c 0.12016,0.16521 0.15537,0.18544 0.0955,0.30559 -0.0749,0.12016 -0.135,0.22365 -0.21009,0.3438 -1.09641,1.89242 -0.33096,2.03905 -2.67395,2.65484 l -1.79536,0.30559 c -0.27014,0.0901 -0.61506,0.0829 -0.63029,0.4584 0,0.76597 -0.0191,1.52597 -0.0191,2.29195 -0.0151,0.34544 0.3668,0.37942 0.59209,0.43929 l 1.90997,0.34379 1.43246,0.26739 c 0.19525,0.0302 0.24122,-0.0162 0.2865,0.1337 0.58595,2.53824 1.35323,1.95589 0.0764,4.16371 l -1.03138,1.47067 c -0.13518,0.25553 -0.38924,0.50886 -0.1337,0.76399 0.54068,0.5557 1.06367,1.10595 1.60437,1.66166 0.2403,0.23989 0.54942,-0.009 0.74488,-0.1146 l 1.58526,-1.12688 1.18418,-0.82128 c 0.16542,-0.13517 0.18544,-0.17038 0.30559,-0.0955 2.37282,1.48711 2.46054,0.41383 3.15143,2.92224 l 0.3438,1.79536 c 0.0901,0.27056 0.0979,0.61527 0.45839,0.63029 l 2.31105,0 c 0.34543,0 0.37534,-0.405 0.42019,-0.63029 l 0.32469,-1.90995 0.22919,-1.41337 c 0.015,-0.13518 0.008,-0.20366 0.0382,-0.2483 2.77855,-0.58596 2.08703,-1.41719 4.35472,-0.0955 l 1.47066,1.03138 c 0.27056,0.13517 0.52775,0.37013 0.78309,0.11459 0.55571,-0.52566 1.08685,-1.05959 1.64256,-1.58526 0.24031,-0.25553 0.006,-0.54985 -0.1146,-0.74488 l -0.0191,0 -1.06957,-1.50887 -0.70668,0.24829 c -0.18003,0.12016 -0.42023,0.0751 -0.63029,-0.21009 l -1.54707,-2.04365 c -1.44183,1.99754 -3.77409,3.28512 -6.41746,3.28512 -4.35534,0 -7.90723,-3.55147 -7.90723,-7.90723 0,-3.09395 1.7948,-5.7752 4.39291,-7.06684 l 0,-1.81447 c -0.0901,0.045 -0.19189,0.0654 -0.2674,0.0955 -1.02109,0.42054 -1.08322,0.61743 -2.75034,-0.34379 l -1.47067,-1.05048 c -0.20292,-0.0901 -0.38086,-0.25947 -0.57298,-0.22919 z m 5.04229,4.08731 c -2.20782,1.24659 -3.70532,3.64148 -3.70532,6.36016 0,4.00991 3.2707,7.29604 7.29604,7.29604 2.49298,0 4.67559,-1.26697 5.99728,-3.18963 l -0.0764,-0.1528 c -1.54697,1.71199 -3.28159,2.82376 -5.93998,2.88404 -3.30422,0.0599 -6.65053,-2.8861 -6.66576,-6.76125 -0.0298,-2.49318 1.12663,-4.18455 3.09414,-5.38608 l 0,-1.05048 z"
         style="fill:#ffffff;fill-opacity:1;fill-rule:evenodd;overflow:visible"
         inkscape:connector-curvature="0" />
      <path
         inkscape:connector-curvature="0"
         style="fill:#ffffff;fill-opacity:1;fill-rule:evenodd;overflow:visible"
         d="m 433.42356,58.000018 -3.38336,0.245567 0,13.847203 3.38336,-0.42292 0,-6.043656 c 1.46988,2.274326 2.64797,4.390126 4.61119,6.589356 l 3.50614,-1.036833 c -1.8774,-2.231267 -3.27999,-4.198197 -4.55662,-6.343793 1.33012,-2.016854 2.99433,-4.039634 4.62483,-5.85266 l -3.62892,-0.91405 c -1.69487,1.96322 -3.20489,3.9917 -4.55662,6.030013 l 0,-6.098227 z m -7.70805,2.837654 c -0.0458,0.0072 -0.10451,0.03628 -0.15007,0.08186 -0.39693,0.386207 -0.77632,0.773407 -1.17326,1.159617 -0.17164,0.171647 0.007,0.378953 0.0819,0.518417 l 0.80491,1.145976 0.60027,0.832197 c 0.0858,0.118007 0.11098,0.132457 0.0682,0.21828 -0.0535,0.08582 -0.0964,0.159743 -0.15007,0.245567 -0.78315,1.351726 -0.2364,1.456466 -1.90996,1.896316 l -1.2824,0.21828 c -0.19296,0.06437 -0.43933,0.05922 -0.45021,0.327424 0,0.547126 -0.0136,1.08998 -0.0136,1.637106 -0.0108,0.246744 0.262,0.271017 0.42292,0.31378 l 1.36426,0.245564 1.02319,0.190996 c 0.13946,0.0216 0.1723,-0.0116 0.20464,0.0955 0.41854,1.81302 0.9666,1.397064 0.0546,2.97408 l -0.7367,1.05048 c -0.0965,0.18252 -0.27802,0.36347 -0.0955,0.5457 0.38621,0.39693 0.75977,0.78997 1.14598,1.1869 0.17165,0.17136 0.39245,-0.007 0.53206,-0.0819 l 1.13233,-0.80492 0.84584,-0.58663 c 0.11816,-0.0965 0.13246,-0.1217 0.21828,-0.0682 1.69487,1.06222 1.75753,0.2956 2.25102,2.08732 l 0.24557,1.2824 c 0.0644,0.19325 0.07,0.43948 0.32742,0.4502 l 1.65075,0 c 0.24674,0 0.2681,-0.28928 0.30014,-0.4502 l 0.23192,-1.36426 0.16371,-1.00955 c 0.0107,-0.0965 0.006,-0.14546 0.0273,-0.17735 1.98468,-0.41855 1.49073,-1.01228 3.11051,-0.0682 l 1.05048,0.73669 c 0.19325,0.0966 0.37696,0.26438 0.55934,0.0819 0.39694,-0.37548 0.77633,-0.75685 1.17326,-1.13234 0.17165,-0.18252 0.004,-0.39275 -0.0818,-0.53206 l -0.0137,0 -0.76398,-1.07776 -0.50478,0.17735 c -0.12859,0.0858 -0.30016,0.0536 -0.4502,-0.15006 l -1.10505,-1.459756 c -1.02988,1.426816 -2.69578,2.346516 -4.5839,2.346516 -3.11096,0 -5.64802,-2.53676 -5.64802,-5.64802 0,-2.209963 1.282,-4.125143 3.13779,-5.047746 l 0,-1.296044 c -0.0644,0.03217 -0.13706,0.04676 -0.191,0.06821 -0.72935,0.300387 -0.77373,0.441024 -1.96453,-0.245566 l -1.05048,-0.75034 c -0.14494,-0.06437 -0.27204,-0.185334 -0.40927,-0.16371 z m 3.60164,2.91951 c -1.57701,0.890423 -2.64666,2.60106 -2.64666,4.542973 0,2.864217 2.33622,5.211463 5.21146,5.211463 1.7807,0 3.33971,-0.90498 4.28377,-2.278313 l -0.0546,-0.10914 c -1.10498,1.222843 -2.34399,2.016963 -4.24284,2.060023 -2.36016,0.0427 -4.75038,-2.0615 -4.76126,-4.829463 -0.0213,-1.780843 0.80474,-2.988967 2.2101,-3.847203 l 0,-0.75034 z"
         id="path4501" />
      <path
         id="path4503"
         d="m 429.36553,105 -2.36836,0.1719 0,9.69306 2.36836,-0.29605 0,-4.23056 c 1.02892,1.59203 1.85358,3.07309 3.22784,4.61255 l 2.4543,-0.72578 c -1.31418,-1.56189 -2.296,-2.93874 -3.18964,-4.44066 0.93109,-1.4118 2.09604,-2.82775 3.23739,-4.09687 l -2.54025,-0.63984 c -1.18641,1.37426 -2.24343,2.7942 -3.18964,4.22102 l 0,-4.26877 z m -5.39565,1.98636 c -0.0321,0.005 -0.0731,0.0254 -0.10505,0.0573 -0.27785,0.27035 -0.54342,0.54139 -0.82128,0.81174 -0.12015,0.12015 0.005,0.26526 0.0573,0.36289 l 0.56344,0.80218 0.42019,0.58254 c 0.0601,0.0826 0.0777,0.0927 0.0477,0.1528 -0.0374,0.0601 -0.0675,0.11182 -0.10505,0.1719 -0.54821,0.9462 -0.16548,1.01952 -1.33697,1.32742 l -0.89769,0.15279 c -0.13507,0.0451 -0.30753,0.0414 -0.31514,0.2292 0,0.38299 -0.01,0.76299 -0.01,1.14598 -0.008,0.17272 0.1834,0.18971 0.29604,0.21964 l 0.95498,0.1719 0.71624,0.1337 c 0.0976,0.0151 0.12061,-0.008 0.14325,0.0669 0.29298,1.26911 0.67662,0.97794 0.0382,2.08186 l -0.51569,0.73534 c -0.0676,0.12776 -0.19462,0.25442 -0.0669,0.38199 0.27034,0.27785 0.53184,0.55298 0.80218,0.83083 0.12016,0.11995 0.27472,-0.005 0.37245,-0.0573 l 0.79263,-0.56345 0.59209,-0.41064 c 0.0827,-0.0675 0.0927,-0.0852 0.15279,-0.0477 1.18642,0.74356 1.23028,0.20692 1.57572,1.46113 l 0.1719,0.89768 c 0.0451,0.13527 0.049,0.30764 0.22919,0.31514 l 1.15553,0 c 0.17272,0 0.18767,-0.2025 0.2101,-0.31514 l 0.16234,-0.95498 0.1146,-0.70669 c 0.007,-0.0675 0.004,-0.10182 0.0191,-0.12415 1.38928,-0.29298 1.04351,-0.70859 2.17736,-0.0477 l 0.73534,0.51569 c 0.13528,0.0676 0.26387,0.18506 0.39154,0.0573 0.27786,-0.26284 0.54343,-0.5298 0.82128,-0.79264 0.12016,-0.12777 0.003,-0.27493 -0.0573,-0.37244 l -0.01,0 -0.53478,-0.75444 -0.35335,0.12415 c -0.09,0.0601 -0.21011,0.0375 -0.31514,-0.10504 l -0.77354,-1.02184 c -0.72092,0.99878 -1.88705,1.64257 -3.20873,1.64257 -2.17768,0 -3.95363,-1.77574 -3.95363,-3.95362 0,-1.54698 0.89741,-2.88761 2.19646,-3.53343 l 0,-0.90723 c -0.0451,0.0225 -0.0959,0.0327 -0.1337,0.0477 -0.51054,0.21027 -0.54161,0.30871 -1.37517,-0.1719 l -0.73426,-0.52524 c -0.10146,-0.0451 -0.19043,-0.12973 -0.28649,-0.1146 z m 2.52116,2.04366 c -1.10391,0.6233 -1.85267,1.82075 -1.85267,3.18009 0,2.00496 1.63536,3.64803 3.64803,3.64803 1.24649,0 2.3378,-0.63349 2.99864,-1.59482 l -0.0382,-0.0764 c -0.77348,0.85599 -1.64079,1.41188 -2.96999,1.44202 -1.65211,0.0299 -3.32527,-1.44305 -3.33289,-3.38063 -0.0149,-1.24659 0.56332,-2.09228 1.54708,-2.69305 l 0,-0.52524 z"
         style="fill:#ffffff;fill-opacity:1;fill-rule:evenodd;overflow:visible"
         inkscape:connector-curvature="0" />
      <path
         inkscape:connector-curvature="0"
         style="fill:#ffffff;fill-opacity:1;fill-rule:evenodd;overflow:visible"
         d="m 425.02329,142.00002 -2.03,0.14734 0,8.30827 2.03,-0.25376 0,-3.62616 c 0.88193,1.36458 1.58877,2.63405 2.7667,3.95358 l 2.10367,-0.62209 c -1.12643,-1.33875 -1.96799,-2.5189 -2.73396,-3.80625 0.79807,-1.2101 1.79659,-2.42376 2.77489,-3.51157 l -2.17734,-0.54843 c -1.01692,1.17793 -1.92293,2.39501 -2.73396,3.61798 l 0,-3.65891 z m -4.6248,1.70258 c -0.0275,0.004 -0.0627,0.0218 -0.09,0.0491 -0.23816,0.23172 -0.46579,0.46404 -0.70395,0.69576 -0.10299,0.10299 0.004,0.22737 0.0491,0.31105 l 0.48295,0.68758 0.36016,0.49931 c 0.0515,0.0708 0.0666,0.0795 0.0409,0.13097 -0.0321,0.0515 -0.0579,0.0958 -0.09,0.14735 -0.46989,0.81102 -0.14184,0.87386 -1.14596,1.13777 l -0.76945,0.13098 c -0.11577,0.0386 -0.26359,0.0355 -0.27011,0.19644 0,0.32828 -0.009,0.65399 -0.009,0.98226 -0.007,0.14805 0.15719,0.16261 0.25374,0.18826 l 0.81855,0.14734 0.61391,0.1146 c 0.0837,0.013 0.10338,-0.007 0.12279,0.0573 0.25112,1.08779 0.57995,0.83822 0.0327,1.78443 l -0.44202,0.63029 c -0.0579,0.10951 -0.16681,0.21807 -0.0573,0.32741 0.23172,0.23816 0.45586,0.47398 0.68758,0.71214 0.10299,0.10282 0.23547,-0.004 0.31924,-0.0491 l 0.67939,-0.48295 0.5075,-0.35196 c 0.0709,-0.0579 0.0795,-0.073 0.13096,-0.0409 1.01693,0.63734 1.05452,0.17737 1.35061,1.2524 l 0.14734,0.76943 c 0.0387,0.11595 0.042,0.26368 0.19645,0.27011 l 0.99044,0 c 0.14805,0 0.16086,-0.17356 0.18009,-0.27011 l 0.13915,-0.81855 0.0982,-0.60573 c 0.006,-0.0579 0.003,-0.0873 0.0164,-0.10641 1.19081,-0.25112 0.89443,-0.60736 1.8663,-0.0409 l 0.63028,0.442 c 0.11596,0.0579 0.22618,0.15863 0.33561,0.0491 0.23816,-0.22529 0.46579,-0.45412 0.70394,-0.6794 0.103,-0.10953 0.003,-0.23566 -0.0491,-0.31923 l -0.009,0 -0.45838,-0.64666 -0.30287,0.10641 c -0.0771,0.0515 -0.18009,0.0321 -0.27012,-0.09 l -0.66303,-0.87586 c -0.61792,0.85609 -1.61745,1.40791 -2.75031,1.40791 -1.86657,0 -3.3888,-1.52204 -3.3888,-3.38879 0,-1.32597 0.7692,-2.47506 1.88267,-3.02862 l 0,-0.77763 c -0.0387,0.0193 -0.0822,0.028 -0.1146,0.0409 -0.43761,0.18023 -0.46424,0.2646 -1.17871,-0.14734 l -0.62861,-0.45016 c -0.087,-0.0387 -0.16323,-0.11118 -0.24556,-0.0982 z m 2.16098,1.75169 c -0.9462,0.53427 -1.58799,1.56063 -1.58799,2.72578 0,1.71851 1.40172,3.12685 3.12685,3.12685 1.06841,0 2.00381,-0.54299 2.57024,-1.36698 l -0.0327,-0.0655 c -0.66298,0.73369 -1.40638,1.21017 -2.54568,1.236 -1.41609,0.0256 -2.85021,-1.23689 -2.85674,-2.89766 -0.0128,-1.06849 0.48284,-1.79336 1.32606,-2.3083 l 0,-0.45021 z"
         id="path4505" />
    </g>
    <g
       inkscape:groupmode="layer"
       id="layer5"
       inkscape:label="Highlights"
       style="display:inline"
       sodipodi:insensitive="true">
      <rect
         ry="9"
         y="307"
         x="-265"
         height="42"
         width="42"
         id="rect4884"
         style="opacity:0.1;color:#bebebe;fill:none;stroke:#000000;stroke-width:2;stroke-miterlimit:4;stroke-opacity:1;stroke-dasharray:none;marker:none;visibility:visible;display:inline;overflow:visible;enable-background:accumulate"
         transform="matrix(0,1,1,0,-16,488)"
         clip-path="url(#clipPath4891)" />
      <rect
         style="opacity:0.1;color:#bebebe;fill:none;stroke:#000000;stroke-width:2;stroke-miterlimit:4;stroke-opacity:1;stroke-dasharray:none;marker:none;visibility:visible;display:inline;overflow:visible;enable-background:accumulate"
         id="rect5311"
         width="16"
         height="16"
         x="-228"
         y="304"
         ry="3"
         clip-path="url(#clipPath3855)"
         transform="matrix(0,-1,1,0,112,-72)" />
      <rect
         ry="50"
         y="46"
         x="34"
         height="220"
         width="220"
         id="rect3858"
         style="opacity:0.1;color:#bebebe;fill:none;stroke:#000000;stroke-width:2;stroke-miterlimit:4;stroke-opacity:1;stroke-dasharray:none;marker:none;visibility:visible;display:inline;overflow:visible;enable-background:accumulate"
         clip-path="url(#clipPath3862)" />
      <rect
         ry="12.5"
         y="142"
         x="290"
         height="60"
         width="60"
         id="rect4175"
         style="opacity:0.1;color:#bebebe;fill:none;stroke:#000000;stroke-width:2;stroke-miterlimit:4;stroke-opacity:1;stroke-dasharray:none;marker:none;visibility:visible;display:inline;overflow:visible;enable-background:accumulate"
         clip-path="url(#clipPath4187)" />
      <rect
         style="opacity:0.1;color:#bebebe;fill:none;stroke:#000000;stroke-width:2;stroke-miterlimit:4;stroke-opacity:1;stroke-dasharray:none;marker:none;visibility:visible;display:inline;overflow:visible;enable-background:accumulate"
         id="rect4342"
         width="88"
         height="88"
         x="292"
         y="32"
         ry="18"
         clip-path="url(#clipPath4346)" />
      <rect
         ry="5"
         y="101"
         x="417"
         height="22"
         width="22"
         id="rect3866"
         style="opacity:0.1;color:#bebebe;fill:none;stroke:#000000;stroke-width:2;stroke-miterlimit:4;stroke-opacity:1;stroke-dasharray:none;marker:none;visibility:visible;display:inline;overflow:visible;enable-background:accumulate"
         clip-path="url(#clipPath3871)" />
      <rect
         style="opacity:0.1;color:#bebebe;fill:none;stroke:#000000;stroke-width:2;stroke-miterlimit:4;stroke-opacity:1;stroke-dasharray:none;marker:none;visibility:visible;display:inline;overflow:visible;enable-background:accumulate"
         id="rect3877"
         width="30"
         height="30"
         x="417"
         y="53"
         ry="7"
         clip-path="url(#clipPath3881)" />
    </g>
  </g>
</svg>
