<?xml version="1.0" encoding="UTF-8" standalone="no"?>
<!-- Created with Inkscape (http://www.inkscape.org/) -->

<svg
   xmlns:dc="http://purl.org/dc/elements/1.1/"
   xmlns:cc="http://creativecommons.org/ns#"
   xmlns:rdf="http://www.w3.org/1999/02/22-rdf-syntax-ns#"
   xmlns:svg="http://www.w3.org/2000/svg"
   xmlns="http://www.w3.org/2000/svg"
   xmlns:xlink="http://www.w3.org/1999/xlink"
   xmlns:sodipodi="http://sodipodi.sourceforge.net/DTD/sodipodi-0.dtd"
   xmlns:inkscape="http://www.inkscape.org/namespaces/inkscape"
   inkscape:export-ydpi="90.000000"
   inkscape:export-xdpi="90.000000"
   width="480"
   height="300"
   id="svg11300"
   sodipodi:version="0.32"
   inkscape:version="0.48.4 r9939"
   sodipodi:docname="distributor-logo-kubuntu.svg"
   inkscape:output_extension="org.inkscape.output.svg.inkscape"
   version="1.0"
   style="display:inline;enable-background:new"
   inkscape:export-filename="/home/sam/moka2-template.png">
  <sodipodi:namedview
     stroke="#ef2929"
     fill="#f57900"
     id="base"
     pagecolor="#ffffff"
     bordercolor="#666666"
     borderopacity="0.25490196"
     inkscape:pageopacity="0"
     inkscape:pageshadow="2"
     inkscape:zoom="1"
     inkscape:cx="406.35791"
     inkscape:cy="235.20688"
     inkscape:current-layer="layer7"
     showgrid="false"
     inkscape:grid-bbox="true"
     inkscape:document-units="px"
     inkscape:showpageshadow="false"
     inkscape:window-width="1364"
     inkscape:window-height="701"
     inkscape:window-x="0"
     inkscape:window-y="27"
     width="400px"
     height="300px"
     inkscape:snap-nodes="true"
     inkscape:snap-bbox="true"
     gridtolerance="10000"
     inkscape:object-nodes="true"
     inkscape:snap-grids="true"
     showguides="true"
     inkscape:guide-bbox="true"
     inkscape:window-maximized="1"
     inkscape:bbox-nodes="true"
     inkscape:bbox-paths="true"
     inkscape:snap-bbox-edge-midpoints="true"
     inkscape:snap-bbox-midpoints="true">
    <inkscape:grid
       spacingy="1px"
       spacingx="1px"
       id="grid5883"
       type="xygrid"
       enabled="true"
       visible="true"
       empspacing="4"
       snapvisiblegridlinesonly="true"
       dotted="false"
       color="#000000"
       opacity="0.1254902"
       empcolor="#203ef3"
       empopacity="0.36470588" />
    <inkscape:grid
       type="xygrid"
       id="grid11592"
       empspacing="8"
       visible="true"
       enabled="false"
       spacingx="0.5px"
       spacingy="0.5px"
       color="#ff0000"
       opacity="0.1254902"
       empcolor="#ff0000"
       empopacity="0.25098039"
       snapvisiblegridlinesonly="true"
       dotted="true" />
  </sodipodi:namedview>
  <defs
     id="defs3">
    <linearGradient
       id="outerBackgroundGradient">
      <stop
         style="stop-color:#0079c1;stop-opacity:1"
         offset="0"
         id="stop3864-8-6" />
      <stop
         style="stop-color:#31a2e5;stop-opacity:1"
         offset="1"
         id="stop3866-9-1" />
    </linearGradient>
    <linearGradient
       inkscape:collect="always"
       xlink:href="#outerBackgroundGradient"
       id="linearGradient4097"
       gradientUnits="userSpaceOnUse"
       x1="264"
       y1="280.00003"
       x2="264"
       y2="40.00005"
       gradientTransform="matrix(0.06666667,0,0,0.06666667,414.4,137.33333)" />
    <linearGradient
       inkscape:collect="always"
       xlink:href="#outerBackgroundGradient"
       id="linearGradient4101"
       gradientUnits="userSpaceOnUse"
       gradientTransform="matrix(0.0875,0,0,0.0875,414.9,97.5)"
       x1="286.85715"
       y1="302.85715"
       x2="286.85715"
       y2="28.571428" />
    <linearGradient
       inkscape:collect="always"
       xlink:href="#outerBackgroundGradient"
       id="linearGradient4153"
       gradientUnits="userSpaceOnUse"
       gradientTransform="matrix(0.11931818,0,0,0.11931818,414.13636,48.22727)"
       x1="283.80957"
       y1="299.80954"
       x2="283.80957"
       y2="31.61907" />
    <linearGradient
       inkscape:collect="always"
       xlink:href="#outerBackgroundGradient"
       id="linearGradient4869"
       gradientUnits="userSpaceOnUse"
       gradientTransform="matrix(0.175,0,0,-0.175,286.79999,-215.99997)"
       x1="281.14291"
       y1="297.14304"
       x2="281.14291"
       y2="22.857315" />
    <clipPath
       clipPathUnits="userSpaceOnUse"
       id="clipPath4891">
      <rect
         ry="9"
         y="223"
         x="307"
         height="42"
         width="42"
         id="rect4893"
         style="color:#bebebe;fill:url(#linearGradient4895);fill-opacity:1;fill-rule:nonzero;stroke:none;stroke-width:0;marker:none;visibility:visible;display:inline;overflow:visible;enable-background:accumulate"
         transform="matrix(0,1,-1,0,0,0)" />
    </clipPath>
    <linearGradient
       inkscape:collect="always"
       xlink:href="#outerBackgroundGradient"
       id="linearGradient4895"
       gradientUnits="userSpaceOnUse"
       gradientTransform="matrix(0.175,0,0,0.175,302.79999,215.99997)"
       x1="144.00006"
       y1="280.00018"
       x2="144.00006"
       y2="40.000172" />
    <clipPath
       clipPathUnits="userSpaceOnUse"
       id="clipPath4044">
      <rect
         ry="4"
         y="85"
         x="433"
         height="22"
         width="22"
         id="rect4046"
         style="color:#bebebe;fill:url(#linearGradient4048);fill-opacity:1;fill-rule:nonzero;stroke:none;stroke-width:0;marker:none;visibility:visible;display:inline;overflow:visible;enable-background:accumulate" />
    </clipPath>
    <linearGradient
       inkscape:collect="always"
       xlink:href="#outerBackgroundGradient"
       id="linearGradient4048"
       gradientUnits="userSpaceOnUse"
       gradientTransform="matrix(0.0875,0,0,0.0875,430.9,81.499996)"
       x1="149.71428"
       y1="291.42862"
       x2="149.71428"
       y2="40.000046" />
    <clipPath
       clipPathUnits="userSpaceOnUse"
       id="clipPath4089">
      <rect
         style="color:#bebebe;fill:url(#linearGradient4093);fill-opacity:1;fill-rule:nonzero;stroke:none;stroke-width:0;marker:none;visibility:visible;display:inline;overflow:visible;enable-background:accumulate"
         id="rect4091"
         width="30"
         height="30"
         x="433"
         y="37"
         ry="6" />
    </clipPath>
    <linearGradient
       inkscape:collect="always"
       xlink:href="#outerBackgroundGradient"
       id="linearGradient4093"
       gradientUnits="userSpaceOnUse"
       gradientTransform="matrix(0.11931818,0,0,0.11931818,430.13636,32.227267)"
       x1="149.71432"
       y1="291.42862"
       x2="149.71432"
       y2="40.00005" />
    <clipPath
       clipPathUnits="userSpaceOnUse"
       id="clipPath3855">
      <rect
         style="color:#bebebe;fill:url(#linearGradient3859);fill-opacity:1;fill-rule:nonzero;stroke:none;stroke-width:0;marker:none;visibility:visible;display:inline;overflow:visible;enable-background:accumulate"
         id="rect3857"
         width="16"
         height="16"
         x="304"
         y="212"
         ry="3"
         transform="matrix(0,1,-1,0,0,0)" />
    </clipPath>
    <linearGradient
       inkscape:collect="always"
       xlink:href="#outerBackgroundGradient"
       id="linearGradient3859"
       gradientUnits="userSpaceOnUse"
       gradientTransform="matrix(0.06666667,0,0,0.06666667,302.4,209.33333)"
       x1="144"
       y1="280.00003"
       x2="144"
       y2="40.00005" />
    <clipPath
       clipPathUnits="userSpaceOnUse"
       id="clipPath3862">
      <rect
         ry="50"
         y="46"
         x="34"
         height="220"
         width="220"
         id="rect3864"
         style="color:#bebebe;fill:url(#linearGradient3866);fill-opacity:1;fill-rule:nonzero;stroke:none;stroke-width:0;marker:none;visibility:visible;display:inline;overflow:visible;enable-background:accumulate" />
    </clipPath>
    <linearGradient
       inkscape:collect="always"
       xlink:href="#outerBackgroundGradient"
       id="linearGradient3866"
       gradientUnits="userSpaceOnUse"
       gradientTransform="translate(0,-4)"
       x1="144"
       y1="280"
       x2="144"
       y2="40" />
    <linearGradient
       inkscape:collect="always"
       xlink:href="#outerBackgroundGradient"
       id="linearGradient3876"
       gradientUnits="userSpaceOnUse"
       gradientTransform="translate(0,-4)"
       x1="272"
       y1="288"
       x2="272"
       y2="32" />
    <clipPath
       clipPathUnits="userSpaceOnUse"
       id="clipPath4187">
      <rect
         ry="12.5"
         y="142"
         x="290"
         height="60"
         width="60"
         id="rect4189"
         style="color:#bebebe;fill:url(#linearGradient4191);fill-opacity:1;fill-rule:nonzero;stroke:none;stroke-width:0;marker:none;visibility:visible;display:inline;overflow:visible;enable-background:accumulate" />
    </clipPath>
    <linearGradient
       inkscape:collect="always"
       xlink:href="#outerBackgroundGradient"
       id="linearGradient4191"
       gradientUnits="userSpaceOnUse"
       x1="352"
       y1="204"
       x2="352"
       y2="140" />
    <linearGradient
       inkscape:collect="always"
       xlink:href="#outerBackgroundGradient"
       id="linearGradient4197"
       gradientUnits="userSpaceOnUse"
       x1="384"
       y1="124"
       x2="384"
       y2="28" />
    <linearGradient
       inkscape:collect="always"
       xlink:href="#outerBackgroundGradient"
       id="linearGradient4199"
       gradientUnits="userSpaceOnUse"
       x1="352"
       y1="204"
       x2="352"
       y2="140" />
    <clipPath
       clipPathUnits="userSpaceOnUse"
       id="clipPath4346">
      <rect
         style="color:#bebebe;fill:url(#linearGradient4350);fill-opacity:1;fill-rule:nonzero;stroke:none;stroke-width:0;marker:none;visibility:visible;display:inline;overflow:visible;enable-background:accumulate"
         id="rect4348"
         width="88"
         height="88"
         x="292"
         y="32"
         ry="18" />
    </clipPath>
    <linearGradient
       inkscape:collect="always"
       xlink:href="#outerBackgroundGradient"
       id="linearGradient4350"
       gradientUnits="userSpaceOnUse"
       x1="384"
       y1="124"
       x2="384"
       y2="28" />
    <clipPath
       clipPathUnits="userSpaceOnUse"
       id="clipPath3871">
      <rect
         ry="5"
         y="101"
         x="417"
         height="22"
         width="22"
         id="rect3873"
         style="color:#bebebe;fill:url(#linearGradient3875);fill-opacity:1;fill-rule:nonzero;stroke:none;stroke-width:0;marker:none;visibility:visible;display:inline;overflow:visible;enable-background:accumulate" />
    </clipPath>
    <linearGradient
       inkscape:collect="always"
       xlink:href="#outerBackgroundGradient"
       id="linearGradient3875"
       gradientUnits="userSpaceOnUse"
       gradientTransform="matrix(0.0875,0,0,0.0875,414.9,97.5)"
       x1="286.85715"
       y1="302.85715"
       x2="286.85715"
       y2="28.571428" />
    <clipPath
       clipPathUnits="userSpaceOnUse"
       id="clipPath3881">
      <rect
         style="color:#bebebe;fill:url(#linearGradient3885);fill-opacity:1;fill-rule:nonzero;stroke:none;stroke-width:0;marker:none;visibility:visible;display:inline;overflow:visible;enable-background:accumulate"
         id="rect3883"
         width="30"
         height="30"
         x="417"
         y="53"
         ry="7" />
    </clipPath>
    <linearGradient
       inkscape:collect="always"
       xlink:href="#outerBackgroundGradient"
       id="linearGradient3885"
       gradientUnits="userSpaceOnUse"
       gradientTransform="matrix(0.11931818,0,0,0.11931818,414.13636,48.22727)"
       x1="283.80957"
       y1="299.80954"
       x2="283.80957"
       y2="31.61907" />
  </defs>
  <metadata
     id="metadata4">
    <rdf:RDF>
      <cc:Work
         rdf:about="">
        <dc:format>image/svg+xml</dc:format>
        <dc:type
           rdf:resource="http://purl.org/dc/dcmitype/StillImage" />
        <dc:creator>
          <cc:Agent>
            <dc:title>Sam Hewitt</dc:title>
          </cc:Agent>
        </dc:creator>
        <dc:source />
        <cc:license
           rdf:resource="" />
        <dc:title />
        <dc:subject>
          <rdf:Bag />
        </dc:subject>
        <dc:date />
        <dc:rights>
          <cc:Agent>
            <dc:title />
          </cc:Agent>
        </dc:rights>
        <dc:publisher>
          <cc:Agent>
            <dc:title />
          </cc:Agent>
        </dc:publisher>
        <dc:identifier />
        <dc:relation />
        <dc:language />
        <dc:coverage />
        <dc:description />
        <dc:contributor>
          <cc:Agent>
            <dc:title />
          </cc:Agent>
        </dc:contributor>
      </cc:Work>
      <cc:Work
         rdf:about="">
        <dc:format>image/svg+xml</dc:format>
        <dc:type
           rdf:resource="http://purl.org/dc/dcmitype/StillImage" />
      </cc:Work>
    </rdf:RDF>
  </metadata>
  <g
     style="display:inline"
     inkscape:groupmode="layer"
     inkscape:label="Icon"
     id="layer1">
    <g
       style="display:none"
       inkscape:label="Baseplate"
       id="layer7"
       inkscape:groupmode="layer">
      <text
         y="19.745117"
         xml:space="preserve"
         x="15.006836"
         style="font-size:18px;font-style:normal;font-variant:normal;font-weight:normal;font-stretch:normal;fill:#000000;fill-opacity:1;stroke:none;display:inline;enable-background:new;font-family:DejaVu Sans;-inkscape-font-specification:DejaVu Sans"
         inkscape:label="context"
         id="context"><tspan
           style="font-style:normal;font-variant:normal;font-weight:normal;font-stretch:normal;font-family:DejaVu Sans;-inkscape-font-specification:DejaVu Sans"
           y="19.745117"
           x="15.006836"
           sodipodi:role="line"
           id="tspan3933">places</tspan></text>
      <text
         y="19.745117"
         xml:space="preserve"
         x="122.48828"
         style="font-size:18px;font-style:normal;font-variant:normal;font-weight:bold;font-stretch:normal;text-align:start;line-height:125%;writing-mode:lr-tb;text-anchor:start;fill:#000000;fill-opacity:1;stroke:none;display:inline;enable-background:new;font-family:DejaVu Sans;-inkscape-font-specification:DejaVu Sans Bold"
         sodipodi:linespacing="125%"
         inkscape:label="icon-name"
         id="icon-name"><tspan
           style="font-size:18px;font-style:normal;font-variant:normal;font-weight:bold;font-stretch:normal;font-family:DejaVu Sans;-inkscape-font-specification:DejaVu Sans Bold"
           y="19.745117"
           x="122.48828"
           sodipodi:role="line"
           id="tspan3937">distributor-logo-kubuntu</tspan></text>
      <rect
         style="fill:#eeeeec;fill-opacity:1;fill-rule:nonzero;stroke:none;stroke-width:2;marker:none;visibility:visible;display:inline;overflow:visible;enable-background:accumulate"
         id="rect16x16"
         width="16"
         height="16"
         x="416"
         y="140"
         inkscape:label="16x16" />
      <rect
         style="fill:#d4d4d4;fill-opacity:1;fill-rule:nonzero;stroke:none;stroke-width:2;marker:none;visibility:visible;display:inline;overflow:visible;enable-background:accumulate"
         id="rect24x24"
         width="24"
         height="24"
         x="416"
         y="100"
         inkscape:label="24x24" />
      <rect
         style="fill:#eeeeec;fill-opacity:1;fill-rule:nonzero;stroke:none;stroke-width:2;marker:none;visibility:visible;display:inline;overflow:visible;enable-background:accumulate"
         id="rect32x32"
         width="32"
         height="32"
         x="416"
         y="52"
         inkscape:label="32x32" />
      <rect
         inkscape:label="22x22"
         y="101"
         x="417"
         height="22"
         width="22"
         id="rect22x22"
         style="fill:#eeeeec;fill-opacity:1;fill-rule:nonzero;stroke:none;stroke-width:2;marker:none;visibility:visible;display:inline;overflow:visible;enable-background:accumulate" />
      <rect
         inkscape:label="48x48"
         y="220"
         x="288"
         height="48"
         width="48"
         id="rect48x48"
         style="fill:#eeeeec;fill-opacity:1;fill-rule:nonzero;stroke:none;stroke-width:2;marker:none;visibility:visible;display:inline;overflow:visible;enable-background:accumulate" />
      <rect
         style="fill:#eeeeec;fill-opacity:1;fill-rule:nonzero;stroke:none;stroke-width:2;marker:none;visibility:visible;display:inline;overflow:visible;enable-background:accumulate"
         id="rect256x256"
         width="256"
         height="256"
         x="16"
         y="28"
         inkscape:label="256x256" />
      <rect
         style="fill:#eeeeec;fill-opacity:1;fill-rule:nonzero;stroke:none;stroke-width:2;marker:none;visibility:visible;display:inline;overflow:visible;enable-background:accumulate"
         id="rect64x64"
         width="64"
         height="64"
         x="288"
         y="140"
         inkscape:label="64x64" />
      <rect
         style="fill:#eeeeec;fill-opacity:1;fill-rule:nonzero;stroke:none;stroke-width:2;marker:none;visibility:visible;display:inline;overflow:visible;enable-background:accumulate"
         id="rect96x96"
         width="96"
         height="96"
         x="288"
         y="28"
         inkscape:label="96x96" />
    </g>
    <g
       inkscape:groupmode="layer"
       id="layer4"
       inkscape:label="Shadow"
       style="display:inline"
       sodipodi:insensitive="true">
      <rect
         style="opacity:0;color:#bebebe;fill:#000000;fill-opacity:1;stroke:#000000;stroke-width:1;stroke-miterlimit:4;stroke-opacity:1;stroke-dasharray:none;marker:none;visibility:visible;display:inline;overflow:visible;enable-background:accumulate"
         id="rect4156"
         width="42"
         height="42"
         x="-266.5"
         y="291"
         ry="9"
         transform="matrix(0,-1,1,0,0,0)" />
      <rect
         transform="matrix(0,-1,1,0,0,0)"
         ry="9"
         y="291"
         x="-266.5"
         height="42"
         width="40"
         id="rect4183"
         style="opacity:0.1;color:#bebebe;fill:#000000;fill-opacity:1;stroke:none;stroke-width:1;marker:none;visibility:visible;display:inline;overflow:visible;enable-background:accumulate" />
      <rect
         ry="9"
         y="237"
         x="291"
         height="29"
         width="42"
         id="rect4144"
         style="opacity:0.1;color:#bebebe;fill:#000000;fill-opacity:1;fill-rule:nonzero;stroke:none;stroke-width:0;marker:none;visibility:visible;display:inline;overflow:visible;enable-background:accumulate" />
      <rect
         style="opacity:0;color:#bebebe;fill:#000000;fill-opacity:1;fill-rule:nonzero;stroke:#000000;stroke-width:1;stroke-miterlimit:4;stroke-opacity:1;stroke-dasharray:none;marker:none;visibility:visible;display:inline;overflow:visible;enable-background:accumulate"
         id="rect4340"
         width="88"
         height="88"
         x="292"
         y="33.5"
         ry="18" />
      <rect
         ry="18"
         y="52.5"
         x="292"
         height="69"
         width="88"
         id="rect4338"
         style="opacity:0.1;color:#bebebe;fill:#000000;fill-opacity:1;fill-rule:nonzero;stroke:none;stroke-width:0;marker:none;visibility:visible;display:inline;overflow:visible;enable-background:accumulate" />
      <rect
         style="opacity:0.1;color:#bebebe;fill:#000000;fill-opacity:1;fill-rule:nonzero;stroke:none;stroke-width:0;marker:none;visibility:visible;display:inline;overflow:visible;enable-background:accumulate"
         id="rect4335"
         width="88"
         height="76.5"
         x="292"
         y="44.5"
         ry="18" />
      <rect
         style="opacity:0;color:#bebebe;fill:#000000;fill-opacity:1;fill-rule:nonzero;stroke:#000000;stroke-width:1;stroke-miterlimit:4;stroke-opacity:1;stroke-dasharray:none;marker:none;visibility:visible;display:inline;overflow:visible;enable-background:accumulate"
         id="rect4214"
         width="60"
         height="60"
         x="290"
         y="143.5"
         ry="12.5" />
      <rect
         ry="12.5"
         y="151.5"
         x="290"
         height="52"
         width="60"
         id="rect4206"
         style="opacity:0.1;color:#bebebe;fill:#000000;fill-opacity:1;fill-rule:nonzero;stroke:none;stroke-width:0;marker:none;visibility:visible;display:inline;overflow:visible;enable-background:accumulate" />
      <rect
         style="opacity:0.1;color:#bebebe;fill:#000000;fill-opacity:1;fill-rule:nonzero;stroke:none;stroke-width:0;marker:none;visibility:visible;display:inline;overflow:visible;enable-background:accumulate"
         id="rect4212"
         width="60"
         height="54.5"
         x="290"
         y="148.5"
         ry="12.5" />
      <rect
         style="opacity:0.2;color:#bebebe;fill:#000000;fill-opacity:1;fill-rule:nonzero;stroke:none;stroke-width:0;marker:none;visibility:visible;display:inline;overflow:visible;enable-background:accumulate"
         id="rect4058"
         width="30"
         height="30"
         x="417"
         y="54"
         ry="7" />
      <rect
         ry="50"
         y="48"
         x="34"
         height="220"
         width="220"
         id="rect3872"
         style="opacity:0;color:#bebebe;fill:#000000;fill-opacity:1;fill-rule:nonzero;stroke:#000000;stroke-width:2;stroke-miterlimit:4;stroke-opacity:1;stroke-dasharray:none;marker:none;visibility:visible;display:inline;overflow:visible;enable-background:accumulate" />
      <rect
         style="opacity:0.1;color:#bebebe;fill:#000000;fill-opacity:1;fill-rule:nonzero;stroke:none;stroke-width:0;marker:none;visibility:visible;display:inline;overflow:visible;enable-background:accumulate"
         id="rect3870"
         width="220"
         height="220"
         x="34"
         y="48"
         ry="50" />
      <rect
         ry="50"
         y="47"
         x="34"
         height="220"
         width="220"
         id="rect3868"
         style="opacity:0.1;color:#bebebe;fill:#000000;fill-opacity:1;fill-rule:nonzero;stroke:none;stroke-width:0;marker:none;visibility:visible;display:inline;overflow:visible;enable-background:accumulate" />
    </g>
    <g
       inkscape:groupmode="layer"
       id="layer2"
       inkscape:label="Background"
       style="display:inline">
      <rect
         style="color:#bebebe;fill:url(#linearGradient3876);fill-opacity:1;fill-rule:nonzero;stroke:none;stroke-width:0;marker:none;visibility:visible;display:inline;overflow:visible;enable-background:accumulate"
         id="rect4040"
         width="220"
         height="220"
         x="34"
         y="46"
         ry="50" />
      <rect
         ry="3"
         y="140"
         x="416"
         height="16"
         width="16"
         id="rect4095"
         style="color:#bebebe;fill:url(#linearGradient4097);fill-opacity:1;fill-rule:nonzero;stroke:none;stroke-width:0;marker:none;visibility:visible;display:inline;overflow:visible;enable-background:accumulate" />
      <rect
         style="color:#bebebe;fill:url(#linearGradient4101);fill-opacity:1;fill-rule:nonzero;stroke:none;stroke-width:0;marker:none;visibility:visible;display:inline;overflow:visible;enable-background:accumulate"
         id="rect4099"
         width="22"
         height="22"
         x="417"
         y="101"
         ry="5" />
      <rect
         ry="7"
         y="53"
         x="417"
         height="30"
         width="30"
         id="rect4151"
         style="color:#bebebe;fill:url(#linearGradient4153);fill-opacity:1;fill-rule:nonzero;stroke:none;stroke-width:0;marker:none;visibility:visible;display:inline;overflow:visible;enable-background:accumulate" />
      <rect
         style="color:#bebebe;fill:url(#linearGradient4869);fill-opacity:1;fill-rule:nonzero;stroke:none;stroke-width:0;marker:none;visibility:visible;display:inline;overflow:visible;enable-background:accumulate"
         id="rect4783"
         width="42"
         height="42"
         x="291"
         y="-265"
         ry="9"
         transform="scale(1,-1)" />
      <rect
         ry="18"
         y="32"
         x="292"
         height="88"
         width="88"
         id="rect4511"
         style="color:#bebebe;fill:url(#linearGradient4197);fill-opacity:1;fill-rule:nonzero;stroke:none;stroke-width:0;marker:none;visibility:visible;display:inline;overflow:visible;enable-background:accumulate" />
      <rect
         style="color:#bebebe;fill:url(#linearGradient4199);fill-opacity:1;fill-rule:nonzero;stroke:none;stroke-width:0;marker:none;visibility:visible;display:inline;overflow:visible;enable-background:accumulate"
         id="rect4515"
         width="60"
         height="60"
         x="290"
         y="142"
         ry="12.5" />
    </g>
    <g
       inkscape:groupmode="layer"
       id="layer6"
       inkscape:label="Symbols"
       style="display:inline">
      <path
         id="path3946"
         d="m 334.05785,46.851908 -5.42482,1.333974 c -0.22777,0.05578 -0.39896,0.252964 -0.40019,0.489123 l 2.40115,11.027512 0.0889,0.04447 c 1.82107,-0.609415 3.7544,-0.933782 5.78055,-0.933782 9.15115,0 16.73317,6.735801 18.0531,15.518554 l 11.16091,-2.445618 c 0.21889,-0.104583 0.32495,-0.342991 0.2668,-0.578055 l -1.28951,-5.424824 c -0.0561,-0.228348 -0.25333,-0.399993 -0.48912,-0.400192 l -8.93762,0 c -0.7516,-1.416601 -1.66153,-2.741653 -2.75688,-3.957454 l 2.89027,-8.181701 c 0.0808,-0.227167 -0.0152,-0.496622 -0.22233,-0.622521 l -4.75783,-2.890275 c -0.20171,-0.122654 -0.45733,-0.07684 -0.62252,0.08893 l -6.00288,6.002879 c -1.77943,-0.568152 -3.60586,-0.880365 -5.42483,-0.933781 l -3.73512,-7.870442 c -0.10444,-0.21917 -0.34254,-0.324664 -0.57806,-0.266795 z m -17.51951,7.959374 c -0.11355,0.01181 -0.22595,0.09192 -0.31126,0.177863 l -3.95746,3.912988 c -0.16598,0.166508 -0.1668,0.420966 -0.0444,0.622521 l 4.62444,7.648111 c -0.81979,1.378254 -1.48688,2.834498 -1.9565,4.402112 l -8.49296,1.778631 c -0.23609,0.04895 -0.40019,0.246831 -0.40019,0.489123 l 0,5.602688 c 0,0.236102 0.1727,0.434142 0.40019,0.489123 l 8.22617,2.00096 c 0.43921,1.815569 1.10143,3.531692 2.00096,5.113564 l -4.75784,7.292386 c -0.13304,0.203092 -0.0829,0.451389 0.0889,0.622521 l 3.91299,3.957454 c 0.166,0.16564 0.42011,0.210547 0.62252,0.08893 l 7.64812,-8.448497 0,-0.08893 c -3.61186,-3.335037 -5.86949,-8.125278 -5.86949,-13.428663 0,-5.884383 2.79107,-11.069186 7.11453,-14.406911 l -8.49297,-7.737043 c -0.10159,-0.06631 -0.24216,-0.100699 -0.35572,-0.08893 z m 37.7959,26.190339 c -1.80716,8.178766 -9.10827,14.317978 -17.83077,14.317978 -2.31692,0 -4.49725,-0.4576 -6.53647,-1.245041 l -0.0444,0.04447 -2.89028,11.071972 c -0.0142,0.24221 0.12166,0.42708 0.35573,0.48913 l 5.42482,1.46737 c 0.22714,0.0606 0.46449,-0.0601 0.57806,-0.2668 l 4.26871,-7.781506 c 1.60349,0.02234 3.20958,-0.157914 4.8023,-0.533589 l 5.78055,6.492005 c 0.16031,0.18012 0.4126,0.20989 0.62253,0.0889 l 4.84676,-2.80135 c 0.20458,-0.11781 0.28827,-0.35347 0.22233,-0.57805 l -2.35668,-8.137237 c 1.35389,-1.286918 2.50227,-2.744057 3.42386,-4.31318 l 8.67083,0.489124 c 0.24239,0.01423 0.47108,-0.121403 0.53359,-0.355727 l 1.46737,-5.380358 c 0.0606,-0.226512 -0.0603,-0.463397 -0.2668,-0.578055 l -11.07197,-2.490053 z"
         style="opacity:0.2;fill:#000000;fill-opacity:1;display:inline;enable-background:new"
         inkscape:connector-curvature="0" />
      <path
         inkscape:connector-curvature="0"
         style="opacity:0.2;fill:#000000;fill-opacity:1;display:inline;enable-background:new"
         d="m 318.70536,152.90171 -3.61633,0.88896 c -0.152,0.04 -0.26599,0.16899 -0.26699,0.32598 l 1.60073,7.35128 0.06,0.03 c 1.21405,-0.40599 2.50289,-0.62297 3.85353,-0.62297 6.10053,0 11.155,4.4903 12.03487,10.34524 l 7.44026,-1.63033 c 0.146,-0.07 0.217,-0.22899 0.178,-0.38499 l -0.85996,-3.61643 c -0.04,-0.152 -0.16899,-0.26699 -0.32599,-0.26699 l -5.95824,0 c -0.50097,-0.94396 -1.10765,-1.82762 -1.83781,-2.63818 l 1.92681,-5.45416 c 0.05,-0.15099 -0.01,-0.33098 -0.148,-0.41498 l -3.17165,-1.92682 c -0.135,-0.08 -0.30499,-0.05 -0.41498,0.06 l -4.00172,4.00172 c -1.18625,-0.37899 -2.40379,-0.58698 -3.61634,-0.62198 l -2.49,-5.24676 c -0.07,-0.146 -0.22798,-0.21599 -0.38498,-0.178 z m -11.67907,5.30597 c -0.08,0.008 -0.151,0.06 -0.20799,0.11899 l -2.63818,2.60858 c -0.111,0.111 -0.111,0.28099 -0.03,0.41499 l 3.08286,5.09847 c -0.54598,0.91896 -0.99096,1.88962 -1.30425,2.93467 l -5.66174,1.18565 c -0.157,0.03 -0.26699,0.16499 -0.26699,0.32598 l 0,3.73493 c 0,0.15699 0.11499,0.28899 0.26699,0.32598 l 5.48385,1.33395 c 0.29299,1.21035 0.73397,2.3543 1.33394,3.40885 l -3.17176,4.86138 c -0.09,0.135 -0.06,0.30099 0.06,0.41498 l 2.60849,2.63818 c 0.11099,0.11 0.27998,0.14 0.41498,0.06 l 5.09857,-5.63204 0,-0.06 c -2.4078,-2.2233 -3.91283,-5.41666 -3.91283,-8.9521 0,-3.92273 1.86063,-7.37908 4.74279,-9.60418 l -5.66175,-5.15777 c -0.07,-0.04 -0.16099,-0.07 -0.23698,-0.06 z m 25.19607,17.45952 c -1.20464,5.45226 -6.07192,9.54487 -11.88666,9.54487 -1.54454,0 -2.99797,-0.30499 -4.35741,-0.82996 l -0.03,0.03 -1.92682,7.38097 c -0.009,0.16099 0.08,0.28499 0.23699,0.32598 l 3.61634,0.97796 c 0.152,0.04 0.30999,-0.04 0.38499,-0.17799 l 2.84567,-5.18747 c 1.06895,0.01 2.1396,-0.105 3.20146,-0.35599 l 3.85352,4.32782 c 0.107,0.11999 0.275,0.13999 0.41499,0.06 l 3.23106,-1.86742 c 0.13599,-0.08 0.19199,-0.23598 0.14799,-0.38498 l -1.57104,-5.42456 c 0.90296,-0.85796 1.66803,-1.82931 2.2824,-2.87537 l 5.78034,0.32599 c 0.162,0.01 0.314,-0.08 0.35599,-0.23699 l 0.97796,-3.58674 c 0.04,-0.151 -0.04,-0.30899 -0.178,-0.38499 l -7.38096,-1.65992 z"
         id="path3948" />
      <path
         inkscape:connector-curvature="0"
         style="opacity:0.2;fill:#000000;fill-opacity:1;display:inline;enable-background:new"
         d="m 311.09365,230.93077 -2.53158,0.62252 c -0.10629,0.026 -0.18618,0.11805 -0.18676,0.22826 l 1.12054,5.14617 0.0415,0.0207 c 0.84983,-0.28439 1.75205,-0.43576 2.69759,-0.43576 4.27054,0 7.80881,3.14337 8.42478,7.24199 l 5.20843,-1.14129 c 0.10215,-0.0488 0.15164,-0.16006 0.1245,-0.26975 l -0.60177,-2.53159 c -0.0262,-0.10656 -0.11822,-0.18666 -0.22825,-0.18676 l -4.17089,0 c -0.35075,-0.66108 -0.77539,-1.27943 -1.28655,-1.84681 l 1.34879,-3.81813 c 0.0377,-0.10601 -0.007,-0.23175 -0.10375,-0.29051 l -2.22032,-1.34879 c -0.0941,-0.0572 -0.21342,-0.0359 -0.29051,0.0415 l -2.80135,2.80134 c -0.8304,-0.26513 -1.68273,-0.41083 -2.53158,-0.43576 l -1.74306,-3.67288 c -0.0487,-0.10227 -0.15985,-0.15151 -0.26976,-0.1245 z m -8.17577,3.71438 c -0.053,0.006 -0.10544,0.0429 -0.14526,0.083 l -1.84681,1.82606 c -0.0775,0.0777 -0.0778,0.19645 -0.0207,0.29051 l 2.15807,3.56912 c -0.38257,0.64318 -0.69388,1.32276 -0.91303,2.05432 l -3.96338,0.83003 c -0.11018,0.0228 -0.18676,0.11518 -0.18676,0.22825 l 0,2.61459 c 0,0.11018 0.0806,0.2026 0.18676,0.22826 l 3.83888,0.93378 c 0.20496,0.84727 0.514,1.64812 0.93378,2.38633 l -2.22033,3.40312 c -0.0621,0.0948 -0.0387,0.21065 0.0415,0.29051 l 1.82606,1.84682 c 0.0775,0.0773 0.19605,0.0983 0.29051,0.0415 l 3.56912,-3.94264 0,-0.0415 c -1.68553,-1.55635 -2.73909,-3.7918 -2.73909,-6.26671 0,-2.74605 1.3025,-5.16563 3.32011,-6.72323 l -3.96338,-3.61062 c -0.0474,-0.0309 -0.11301,-0.047 -0.16601,-0.0415 z m 17.63809,12.22216 c -0.84334,3.81676 -4.25053,6.68173 -8.32103,6.68173 -1.08123,0 -2.09871,-0.21355 -3.05035,-0.58102 l -0.0207,0.0207 -1.3488,5.16692 c -0.007,0.11303 0.0568,0.19931 0.16601,0.22826 l 2.53158,0.68478 c 0.106,0.0283 0.21676,-0.028 0.26976,-0.12451 l 1.99207,-3.63137 c 0.74829,0.0104 1.4978,-0.0737 2.24107,-0.24901 l 2.69759,3.0296 c 0.0748,0.0841 0.19255,0.0979 0.29052,0.0415 l 2.26182,-1.3073 c 0.0955,-0.055 0.13453,-0.16495 0.10375,-0.26975 l -1.09978,-3.79738 c 0.63181,-0.60057 1.16773,-1.28056 1.5978,-2.01282 l 4.04639,0.22826 c 0.11311,0.007 0.21984,-0.0566 0.24901,-0.16601 l 0.68477,-2.51083 c 0.0283,-0.10571 -0.0281,-0.21626 -0.12451,-0.26976 l -5.16692,-1.16203 z"
         id="path3950" />
      <path
         inkscape:connector-curvature="0"
         style="opacity:0.2;fill:#000000;fill-opacity:1;display:inline;enable-background:new"
         d="m 138.82093,78.605552 -14.46619,3.557265 c -0.60739,0.148747 -1.0639,0.674571 -1.06718,1.304329 l 6.40307,29.406704 0.23707,0.11859 c 4.85619,-1.62511 10.01174,-2.49008 15.4148,-2.49008 24.40308,0 44.6218,17.96214 48.14162,41.38282 l 29.76243,-6.52165 c 0.58371,-0.27889 0.86654,-0.91464 0.71147,-1.54148 l -3.43869,-14.4662 c -0.1496,-0.60893 -0.67555,-1.06665 -1.30432,-1.06718 l -23.83366,0 c -2.00427,-3.77761 -4.43075,-7.31108 -7.35169,-10.55322 l 7.70739,-21.817874 c 0.21547,-0.605779 -0.0405,-1.324326 -0.59288,-1.660056 l -12.68755,-7.707403 c -0.53789,-0.327077 -1.21954,-0.204906 -1.66005,0.237147 l -16.00769,16.007686 c -4.74514,-1.51507 -9.61563,-2.34764 -14.46621,-2.49009 l -9.96033,-20.987849 c -0.2785,-0.584453 -0.91344,-0.865771 -1.54149,-0.711453 z M 92.10222,99.830556 c -0.3028,0.03149 -0.60253,0.245124 -0.83003,0.474304 L 80.71897,110.7395 c -0.44262,0.44402 -0.44481,1.12257 -0.1184,1.66005 l 12.33184,20.39497 c -2.18611,3.67535 -3.96502,7.55867 -5.21734,11.73897 l -22.6479,4.74302 C 64.4376,149.40704 64,149.93472 64,150.58084 l 0,14.9405 c 0,0.62961 0.46053,1.15772 1.06717,1.30433 l 21.93646,5.3359 c 1.17123,4.84151 2.93715,9.41784 5.3359,13.63617 l -12.68758,19.44637 c -0.35477,0.54158 -0.22107,1.2037 0.23707,1.66006 l 10.43464,10.55321 c 0.44267,0.44171 1.12029,0.56146 1.66006,0.23715 l 20.39499,-22.52934 0,-0.23714 c -9.63163,-8.89344 -15.65198,-21.66742 -15.65198,-35.80978 0,-15.69169 7.44286,-29.51784 18.97209,-38.41844 L 93.05089,100.06771 C 92.77998,99.890879 92.40513,99.799175 92.1023,99.830559 z m 100.7891,69.840924 c -4.8191,21.81005 -24.28873,38.18129 -47.54874,38.18129 -6.17845,0 -11.99267,-1.22027 -17.43059,-3.32011 l -0.1184,0.11859 -7.70741,29.52525 c -0.0379,0.64589 0.32442,1.13888 0.94861,1.30435 l 14.46619,3.91299 c 0.60571,0.1616 1.23864,-0.16027 1.5415,-0.71147 l 11.38323,-20.75068 c 4.27597,0.0596 8.55888,-0.4211 12.80613,-1.4229 l 15.41481,17.312 c 0.42749,0.48032 1.10026,0.55971 1.66008,0.23707 l 12.9247,-7.47026 c 0.54554,-0.31416 0.76872,-0.94259 0.59288,-1.54147 l -6.28449,-21.6993 c 3.61038,-3.43178 6.67273,-7.31749 9.1303,-11.50182 l 23.12222,1.30434 c 0.64637,0.0379 1.25621,-0.32375 1.42291,-0.94861 l 3.91298,-14.34763 c 0.1616,-0.60403 -0.1608,-1.23572 -0.71146,-1.54148 l -29.52526,-6.64014 z"
         id="path3952" />
      <path
         inkscape:connector-curvature="0"
         style="opacity:0.2;fill:#000000;fill-opacity:1;display:inline;enable-background:new"
         d="m 423.67611,143.97551 -0.90414,0.22233 c -0.038,0.009 -0.0665,0.0422 -0.0667,0.0815 l 0.40019,1.83792 0.0148,0.007 c 0.30351,-0.10157 0.62573,-0.15563 0.96343,-0.15563 1.52519,0 2.78886,1.12264 3.00885,2.58643 l 1.86015,-0.40761 c 0.0365,-0.0174 0.0542,-0.0572 0.0445,-0.0963 l -0.21492,-0.90413 c -0.009,-0.0381 -0.0422,-0.0667 -0.0815,-0.0667 l -1.48961,0 c -0.12526,-0.2361 -0.27692,-0.45695 -0.45948,-0.65958 l 0.48172,-1.36362 c 0.0135,-0.0379 -0.003,-0.0828 -0.0371,-0.10375 l -0.79297,-0.48171 c -0.0336,-0.0204 -0.0762,-0.0128 -0.10375,0.0148 l -1.00048,1.00048 c -0.29658,-0.0947 -0.60098,-0.14673 -0.90414,-0.15563 l -0.62252,-1.31174 c -0.0174,-0.0365 -0.0571,-0.0541 -0.0963,-0.0445 z m -2.91992,1.32657 c -0.0189,0.002 -0.0377,0.0153 -0.0519,0.0296 l -0.65957,0.65216 c -0.0277,0.0277 -0.0278,0.0702 -0.007,0.10375 l 0.77074,1.27469 c -0.13664,0.22971 -0.24782,0.47242 -0.32609,0.73369 l -1.41549,0.29643 c -0.0394,0.008 -0.0667,0.0411 -0.0667,0.0815 l 0,0.93379 c 0,0.0393 0.0288,0.0724 0.0667,0.0815 l 1.37103,0.33349 c 0.0732,0.3026 0.18357,0.58862 0.33349,0.85226 l -0.79297,1.2154 c -0.0222,0.0339 -0.0138,0.0752 0.0148,0.10375 l 0.65217,0.65958 c 0.0277,0.0276 0.07,0.0351 0.10375,0.0148 l 1.27469,-1.40808 0,-0.0148 c -0.60198,-0.55584 -0.97825,-1.35422 -0.97825,-2.23812 0,-0.98073 0.46518,-1.84486 1.18576,-2.40115 l -1.4155,-1.28951 c -0.0169,-0.011 -0.0404,-0.0168 -0.0593,-0.0148 z m 6.29932,4.36505 c -0.3012,1.36313 -1.51805,2.38633 -2.9718,2.38633 -0.38615,0 -0.74954,-0.0763 -1.08941,-0.20751 l -0.007,0.007 -0.48171,1.84532 c -0.002,0.0404 0.0203,0.0712 0.0593,0.0815 l 0.90414,0.24456 c 0.0379,0.0101 0.0774,-0.01 0.0963,-0.0445 l 0.71146,-1.29692 c 0.26725,0.004 0.53493,-0.0263 0.80038,-0.0889 l 0.96343,1.082 c 0.0267,0.03 0.0688,0.035 0.10375,0.0148 l 0.80779,-0.46689 c 0.0341,-0.0196 0.048,-0.0589 0.0371,-0.0963 l -0.39278,-1.35621 c 0.22565,-0.21449 0.41704,-0.45734 0.57064,-0.71886 l 1.44514,0.0815 c 0.0404,0.002 0.0785,-0.0202 0.0889,-0.0593 l 0.24456,-0.89673 c 0.0101,-0.0378 -0.01,-0.0772 -0.0445,-0.0963 l -1.84533,-0.41501 z"
         id="path3954" />
      <path
         id="path3956"
         d="m 427.54669,105.96537 -1.26584,0.31128 c -0.0532,0.0126 -0.0931,0.0591 -0.0934,0.1141 l 0.56028,2.57318 0.0207,0.01 c 0.42493,-0.1422 0.87606,-0.21789 1.34885,-0.21789 2.13535,0 3.90455,1.57176 4.21255,3.62114 l 2.6043,-0.57068 c 0.0511,-0.0244 0.0759,-0.0801 0.0623,-0.13482 l -0.30089,-1.26583 c -0.0126,-0.0533 -0.0591,-0.0934 -0.11411,-0.0934 l -2.08553,0 c -0.17537,-0.33056 -0.3877,-0.63976 -0.64329,-0.92345 l 0.67443,-1.90914 c 0.0189,-0.0531 -0.004,-0.11592 -0.0519,-0.14525 l -1.1102,-0.67442 c -0.047,-0.0286 -0.10669,-0.0179 -0.14526,0.0207 l -1.40072,1.40072 c -0.41523,-0.13258 -0.8414,-0.20543 -1.26584,-0.21789 l -0.87156,-1.8365 c -0.0244,-0.0511 -0.08,-0.0757 -0.13483,-0.0623 z m -4.08804,1.85727 c -0.0265,0.003 -0.0528,0.0214 -0.0727,0.0414 l -0.92343,0.91306 c -0.0388,0.0388 -0.0389,0.0983 -0.01,0.14525 l 1.07907,1.78463 c -0.1913,0.32161 -0.34696,0.66142 -0.45654,1.02721 l -1.98176,0.41502 c -0.0552,0.0112 -0.0934,0.0575 -0.0934,0.1141 l 0,1.30735 c 0,0.055 0.0403,0.10137 0.0934,0.11411 l 1.91952,0.4669 c 0.10248,0.42366 0.257,0.8241 0.4669,1.19321 l -1.1102,1.70162 c -0.0311,0.0475 -0.0193,0.10528 0.0207,0.14526 l 0.91307,0.92344 c 0.0388,0.0386 0.098,0.0491 0.14526,0.0207 l 1.78463,-1.97138 0,-0.0207 c -0.8428,-0.77821 -1.3696,-1.89598 -1.3696,-3.13349 0,-1.37307 0.65127,-2.58289 1.66012,-3.36173 l -1.98177,-1.80538 c -0.0237,-0.0154 -0.0566,-0.0235 -0.083,-0.0207 z m 8.81937,6.11129 c -0.42169,1.90845 -2.12534,3.34099 -4.16067,3.34099 -0.54063,0 -1.04939,-0.10683 -1.52523,-0.29053 l -0.01,0.01 -0.67442,2.58354 c -0.003,0.0566 0.0284,0.0997 0.083,0.11411 l 1.26584,0.34239 c 0.0531,0.0142 0.10836,-0.014 0.13482,-0.0623 l 0.99608,-1.81575 c 0.37417,0.006 0.74893,-0.0368 1.12058,-0.12447 l 1.34885,1.51486 c 0.0374,0.042 0.0963,0.049 0.14525,0.0207 l 1.13095,-0.65367 c 0.0477,-0.0274 0.0672,-0.0825 0.0519,-0.13482 l -0.54991,-1.89877 c 0.31592,-0.3003 0.58388,-0.6403 0.79893,-1.00644 l 2.02326,0.11411 c 0.0566,0.003 0.10991,-0.0283 0.12447,-0.083 l 0.3424,-1.25547 c 0.0141,-0.0529 -0.014,-0.10808 -0.0623,-0.13482 l -2.58355,-0.58104 z"
         style="opacity:0.2;fill:#000000;fill-opacity:1;display:inline;enable-background:new"
         inkscape:connector-curvature="0" />
      <path
         inkscape:connector-curvature="0"
         style="opacity:0.2;fill:#000000;fill-opacity:1;display:inline;enable-background:new"
         d="m 431.35241,58.950801 -1.80831,0.444679 c -0.076,0.018 -0.133,0.08443 -0.13343,0.162997 l 0.80039,3.675908 0.0296,0.0143 c 0.60703,-0.20314 1.25149,-0.31127 1.9269,-0.31127 3.05045,0 5.57784,2.24534 6.01783,5.17298 l 3.72037,-0.81525 c 0.073,-0.0348 0.10843,-0.11442 0.089,-0.19259 l -0.42984,-1.8083 c -0.018,-0.0761 -0.0844,-0.13343 -0.16301,-0.13343 l -2.97928,0 c -0.25052,-0.47222 -0.55385,-0.91393 -0.91897,-1.31919 l 0.96346,-2.7273 c 0.027,-0.0759 -0.006,-0.1656 -0.0742,-0.2075 l -1.58597,-0.96344 c -0.0671,-0.04086 -0.15241,-0.02557 -0.20751,0.02957 l -2.001,2.001 c -0.59318,-0.1894 -1.20198,-0.29347 -1.80831,-0.31127 l -1.24507,-2.623529 c -0.0349,-0.073 -0.11428,-0.108142 -0.19261,-0.089 z m -5.83996,2.653204 c -0.0379,0.004 -0.0754,0.0306 -0.10386,0.0591 l -1.31916,1.30435 c -0.0554,0.0554 -0.0556,0.14043 -0.0143,0.2075 l 1.54151,2.54943 c -0.27328,0.45943 -0.49565,0.94487 -0.65219,1.46742 l -2.83104,0.59287 c -0.0789,0.016 -0.13343,0.0821 -0.13343,0.163 l 0,1.867609 c 0,0.0786 0.0576,0.14482 0.13343,0.16301 l 2.74212,0.66699 c 0.1464,0.60522 0.36714,1.17727 0.66699,1.70456 l -1.58597,2.43085 c -0.0444,0.0679 -0.0276,0.1504 0.0296,0.20751 l 1.30436,1.31918 c 0.0554,0.0551 0.14,0.0701 0.20752,0.0296 l 2.54943,-2.81621 0,-0.0296 c -1.20398,-1.11171 -1.95654,-2.7085 -1.95654,-4.47635 0,-1.961489 0.93037,-3.689779 2.37156,-4.802389 l -2.83106,-2.57907 c -0.0339,-0.022 -0.0808,-0.0336 -0.11857,-0.0296 z m 12.5989,8.730269 c -0.60241,2.72632 -3.03615,4.77277 -5.94372,4.77277 -0.77232,0 -1.49911,-0.15261 -2.17887,-0.41504 l -0.0143,0.0143 -0.96344,3.69071 c -0.004,0.0809 0.0406,0.14243 0.11857,0.16301 l 1.80831,0.48912 c 0.0759,0.0203 0.1548,-0.02 0.1926,-0.089 l 1.42295,-2.59388 c 0.53452,0.009 1.06988,-0.0526 1.6008,-0.17781 l 1.9269,2.16405 c 0.0534,0.06 0.13757,0.07 0.20749,0.0296 l 1.61562,-0.9338 c 0.0681,-0.0391 0.096,-0.11786 0.0741,-0.1926 l -0.78557,-2.71248 c 0.45131,-0.429 0.8341,-0.9147 1.14131,-1.43775 l 2.89032,0.16301 c 0.0809,0.004 0.15702,-0.0404 0.17782,-0.11857 l 0.48913,-1.7935 c 0.0201,-0.0756 -0.02,-0.1544 -0.089,-0.1926 l -3.69072,-0.83004 z"
         id="path3958" />
      <path
         inkscape:connector-curvature="0"
         style="fill:#ffffff;fill-opacity:1;display:inline;enable-background:new"
         d="m 334.05785,45.852201 -5.42482,1.333974 c -0.22777,0.05578 -0.39896,0.252964 -0.40019,0.489123 l 2.40115,11.027512 0.0889,0.04447 c 1.82107,-0.609415 3.7544,-0.933782 5.78055,-0.933782 9.15115,0 16.73317,6.735801 18.0531,15.518554 l 11.16091,-2.445618 c 0.21889,-0.104583 0.32495,-0.342991 0.2668,-0.578055 l -1.28951,-5.424824 c -0.0561,-0.228348 -0.25333,-0.399993 -0.48912,-0.400192 l -8.93762,0 c -0.7516,-1.416601 -1.66153,-2.741653 -2.75688,-3.957454 l 2.89027,-8.181701 c 0.0808,-0.227167 -0.0152,-0.496622 -0.22233,-0.622521 l -4.75783,-2.890275 c -0.20171,-0.122654 -0.45733,-0.07684 -0.62252,0.08893 l -6.00288,6.002879 C 342.0164,54.355069 340.18997,54.042856 338.371,53.98944 l -3.73512,-7.870442 c -0.10444,-0.21917 -0.34254,-0.324664 -0.57806,-0.266795 z m -17.51951,7.959374 c -0.11355,0.01181 -0.22595,0.09192 -0.31126,0.177863 l -3.95746,3.912988 c -0.16598,0.166508 -0.1668,0.420966 -0.0444,0.622521 l 4.62444,7.648111 c -0.81979,1.378254 -1.48688,2.834498 -1.9565,4.402112 l -8.49296,1.778631 c -0.23609,0.04895 -0.40019,0.246831 -0.40019,0.489123 l 0,5.602688 c 0,0.236102 0.1727,0.434142 0.40019,0.489123 l 8.22617,2.00096 c 0.43921,1.815569 1.10143,3.531692 2.00096,5.113564 l -4.75784,7.292386 c -0.13304,0.203092 -0.0829,0.451389 0.0889,0.622521 l 3.91299,3.957454 c 0.166,0.16564 0.42011,0.210547 0.62252,0.08893 l 7.64812,-8.448497 0,-0.08893 c -3.61186,-3.335037 -5.86949,-8.125278 -5.86949,-13.428663 0,-5.884383 2.79107,-11.069186 7.11453,-14.406911 l -8.49297,-7.737043 c -0.10159,-0.06631 -0.24216,-0.100699 -0.35572,-0.08893 z m 37.7959,26.190339 c -1.80716,8.178766 -9.10827,14.317978 -17.83077,14.317978 -2.31692,0 -4.49725,-0.4576 -6.53647,-1.245041 l -0.0444,0.04447 -2.89028,11.071969 c -0.0142,0.24221 0.12166,0.42708 0.35573,0.48913 l 5.42482,1.46737 c 0.22714,0.0606 0.46449,-0.0601 0.57806,-0.2668 l 4.26871,-7.781503 c 1.60349,0.02234 3.20958,-0.157914 4.8023,-0.533589 l 5.78055,6.492002 c 0.16031,0.18012 0.4126,0.20989 0.62253,0.0889 l 4.84676,-2.80135 c 0.20458,-0.11781 0.28827,-0.35347 0.22233,-0.57805 l -2.35668,-8.137234 c 1.35389,-1.286918 2.50227,-2.744057 3.42386,-4.31318 l 8.67083,0.489124 c 0.24239,0.01423 0.47108,-0.121403 0.53359,-0.355727 l 1.46737,-5.380358 c 0.0606,-0.226512 -0.0603,-0.463397 -0.2668,-0.578055 l -11.07197,-2.490053 z"
         id="path79-9-8-1" />
      <path
         id="path3855"
         d="m 318.70536,151.902 -3.61633,0.88896 c -0.152,0.04 -0.26599,0.16899 -0.26699,0.32598 l 1.60073,7.35128 0.06,0.03 c 1.21405,-0.40599 2.50289,-0.62297 3.85353,-0.62297 6.10053,0 11.155,4.4903 12.03487,10.34524 l 7.44026,-1.63033 c 0.146,-0.07 0.217,-0.22899 0.178,-0.38499 l -0.85996,-3.61643 c -0.04,-0.152 -0.16899,-0.26699 -0.32599,-0.26699 l -5.95824,0 c -0.50097,-0.94396 -1.10765,-1.82762 -1.83781,-2.63818 l 1.92681,-5.45416 c 0.05,-0.15099 -0.01,-0.33098 -0.148,-0.41498 l -3.17165,-1.92682 c -0.135,-0.08 -0.30499,-0.05 -0.41498,0.06 l -4.00172,4.00172 c -1.18625,-0.37899 -2.40379,-0.58698 -3.61634,-0.62198 l -2.49,-5.24676 c -0.07,-0.146 -0.22798,-0.21599 -0.38498,-0.178 z m -11.67907,5.30597 c -0.08,0.008 -0.151,0.06 -0.20799,0.11899 l -2.63818,2.60858 c -0.111,0.111 -0.111,0.28099 -0.03,0.41499 l 3.08286,5.09847 c -0.54598,0.91896 -0.99096,1.88962 -1.30425,2.93467 l -5.66174,1.18565 c -0.157,0.03 -0.26699,0.16499 -0.26699,0.32598 l 0,3.73493 c 0,0.15699 0.11499,0.28899 0.26699,0.32598 l 5.48385,1.33395 c 0.29299,1.21035 0.73397,2.3543 1.33394,3.40885 l -3.17176,4.86138 c -0.09,0.135 -0.06,0.30099 0.06,0.41498 l 2.60849,2.63818 c 0.11099,0.11 0.27998,0.14 0.41498,0.06 l 5.09857,-5.63204 0,-0.06 c -2.4078,-2.2233 -3.91283,-5.41666 -3.91283,-8.9521 0,-3.92273 1.86063,-7.37908 4.74279,-9.60418 l -5.66175,-5.15777 c -0.07,-0.04 -0.16099,-0.07 -0.23698,-0.06 z m 25.19607,17.45952 c -1.20464,5.45226 -6.07192,9.54487 -11.88666,9.54487 -1.54454,0 -2.99797,-0.30499 -4.35741,-0.82996 l -0.03,0.03 -1.92682,7.38097 c -0.009,0.16099 0.08,0.28499 0.23699,0.32598 l 3.61634,0.97796 c 0.152,0.04 0.30999,-0.04 0.38499,-0.17799 l 2.84567,-5.18747 c 1.06895,0.01 2.1396,-0.105 3.20146,-0.35599 l 3.85352,4.32782 c 0.107,0.11999 0.275,0.13999 0.41499,0.06 l 3.23106,-1.86742 c 0.13599,-0.08 0.19199,-0.23598 0.14799,-0.38498 l -1.57104,-5.42456 c 0.90296,-0.85796 1.66803,-1.82931 2.2824,-2.87537 l 5.78034,0.32599 c 0.162,0.01 0.314,-0.08 0.35599,-0.23699 l 0.97796,-3.58674 c 0.04,-0.151 -0.04,-0.30899 -0.178,-0.38499 l -7.38096,-1.65992 z"
         style="fill:#ffffff;fill-opacity:1;display:inline;enable-background:new"
         inkscape:connector-curvature="0" />
      <path
         id="path3857"
         d="m 311.09365,229.93106 -2.53158,0.62252 c -0.10629,0.026 -0.18618,0.11805 -0.18676,0.22826 l 1.12054,5.14617 0.0415,0.0207 c 0.84983,-0.28439 1.75205,-0.43576 2.69759,-0.43576 4.27054,0 7.80881,3.14337 8.42478,7.24199 l 5.20843,-1.14129 c 0.10215,-0.0488 0.15164,-0.16006 0.1245,-0.26975 l -0.60177,-2.53159 c -0.0262,-0.10656 -0.11822,-0.18666 -0.22825,-0.18676 l -4.17089,0 c -0.35075,-0.66108 -0.77539,-1.27943 -1.28655,-1.84681 l 1.34879,-3.81813 c 0.0377,-0.10601 -0.007,-0.23175 -0.10375,-0.29051 l -2.22032,-1.34879 c -0.0941,-0.0572 -0.21342,-0.0359 -0.29051,0.0415 l -2.80135,2.80134 c -0.8304,-0.26513 -1.68273,-0.41083 -2.53158,-0.43576 l -1.74306,-3.67288 c -0.0487,-0.10227 -0.15985,-0.15151 -0.26976,-0.1245 z m -8.17577,3.71438 c -0.053,0.006 -0.10544,0.0429 -0.14526,0.083 l -1.84681,1.82606 c -0.0775,0.0777 -0.0778,0.19645 -0.0207,0.29051 l 2.15807,3.56912 c -0.38257,0.64318 -0.69388,1.32276 -0.91303,2.05432 l -3.96338,0.83003 c -0.11018,0.0228 -0.18676,0.11518 -0.18676,0.22825 l 0,2.61459 c 0,0.11018 0.0806,0.2026 0.18676,0.22826 l 3.83888,0.93378 c 0.20496,0.84727 0.514,1.64812 0.93378,2.38633 l -2.22033,3.40312 c -0.0621,0.0948 -0.0387,0.21065 0.0415,0.29051 l 1.82606,1.84682 c 0.0775,0.0773 0.19605,0.0983 0.29051,0.0415 l 3.56912,-3.94264 0,-0.0415 c -1.68553,-1.55635 -2.73909,-3.7918 -2.73909,-6.26671 0,-2.74605 1.3025,-5.16563 3.32011,-6.72323 l -3.96338,-3.61062 c -0.0474,-0.0309 -0.11301,-0.047 -0.16601,-0.0415 z m 17.63809,12.22216 c -0.84334,3.81676 -4.25053,6.68173 -8.32103,6.68173 -1.08123,0 -2.09871,-0.21355 -3.05035,-0.58102 l -0.0207,0.0207 -1.3488,5.16692 c -0.007,0.11303 0.0568,0.19931 0.16601,0.22826 l 2.53158,0.68478 c 0.106,0.0283 0.21676,-0.028 0.26976,-0.12451 l 1.99207,-3.63137 c 0.74829,0.0104 1.4978,-0.0737 2.24107,-0.24901 l 2.69759,3.0296 c 0.0748,0.0841 0.19255,0.0979 0.29052,0.0415 l 2.26182,-1.3073 c 0.0955,-0.055 0.13453,-0.16495 0.10375,-0.26975 l -1.09978,-3.79738 c 0.63181,-0.60057 1.16773,-1.28056 1.5978,-2.01282 l 4.04639,0.22826 c 0.11311,0.007 0.21984,-0.0566 0.24901,-0.16601 l 0.68477,-2.51083 c 0.0283,-0.10571 -0.0281,-0.21626 -0.12451,-0.26976 l -5.16692,-1.16203 z"
         style="fill:#ffffff;fill-opacity:1;display:inline;enable-background:new"
         inkscape:connector-curvature="0" />
      <path
         id="path3877"
         d="m 138.82093,77.605845 -14.46619,3.557265 c -0.60739,0.148747 -1.0639,0.674571 -1.06718,1.304329 l 6.40307,29.406701 0.23707,0.11859 c 4.85619,-1.62511 10.01174,-2.49008 15.4148,-2.49008 24.40308,0 44.6218,17.96214 48.14162,41.38282 l 29.76243,-6.52165 c 0.58371,-0.27889 0.86654,-0.91464 0.71147,-1.54148 l -3.43869,-14.4662 c -0.1496,-0.60893 -0.67555,-1.06665 -1.30432,-1.06718 l -23.83366,0 c -2.00427,-3.77761 -4.43075,-7.31108 -7.35169,-10.55322 l 7.70739,-21.817871 c 0.21547,-0.605779 -0.0405,-1.324326 -0.59288,-1.660056 L 182.45662,85.55041 c -0.53789,-0.327077 -1.21954,-0.204906 -1.66005,0.237147 l -16.00769,16.007683 c -4.74514,-1.51507 -9.61563,-2.347642 -14.46621,-2.490084 l -9.96033,-20.987852 c -0.2785,-0.584453 -0.91344,-0.865771 -1.54149,-0.711453 z M 92.10222,98.830849 c -0.3028,0.03149 -0.60253,0.24512 -0.83003,0.474301 l -10.55322,10.43464 c -0.44262,0.44402 -0.44481,1.12257 -0.1184,1.66005 l 12.33184,20.39497 c -2.18611,3.67535 -3.96502,7.55867 -5.21734,11.73897 l -22.6479,4.74302 C 64.4376,148.40733 64,148.93501 64,149.58113 l 0,14.9405 c 0,0.62961 0.46053,1.15772 1.06717,1.30433 l 21.93646,5.3359 c 1.17123,4.84151 2.93715,9.41784 5.3359,13.63617 L 79.65195,204.2444 c -0.35477,0.54158 -0.22107,1.2037 0.23707,1.66006 l 10.43464,10.55321 c 0.44267,0.44171 1.12029,0.56146 1.66006,0.23715 l 20.39499,-22.52934 0,-0.23714 c -9.63163,-8.89344 -15.65198,-21.66742 -15.65198,-35.80978 0,-15.69169 7.44286,-29.51784 18.97209,-38.41844 L 93.05089,99.067998 c -0.27091,-0.176826 -0.64576,-0.26853 -0.94859,-0.237146 z m 100.7891,69.840921 c -4.8191,21.81005 -24.28873,38.18129 -47.54874,38.18129 -6.17845,0 -11.99267,-1.22027 -17.43059,-3.32011 l -0.1184,0.11859 -7.70741,29.52525 c -0.0379,0.64589 0.32442,1.13888 0.94861,1.30435 l 14.46619,3.91299 c 0.60571,0.1616 1.23864,-0.16027 1.5415,-0.71147 l 11.38323,-20.75068 c 4.27597,0.0596 8.55888,-0.4211 12.80613,-1.4229 l 15.41481,17.312 c 0.42749,0.48032 1.10026,0.55971 1.66008,0.23707 l 12.9247,-7.47026 c 0.54554,-0.31416 0.76872,-0.94259 0.59288,-1.54147 l -6.28449,-21.6993 c 3.61038,-3.43178 6.67273,-7.31749 9.1303,-11.50182 l 23.12222,1.30434 c 0.64637,0.0379 1.25621,-0.32375 1.42291,-0.94861 l 3.91298,-14.34763 c 0.1616,-0.60403 -0.1608,-1.23572 -0.71146,-1.54148 l -29.52526,-6.64014 z"
         style="fill:#ffffff;fill-opacity:1;display:inline;enable-background:new"
         inkscape:connector-curvature="0" />
      <path
         id="path3879"
         d="m 423.67611,142.9758 -0.90414,0.22233 c -0.038,0.009 -0.0665,0.0422 -0.0667,0.0815 l 0.40019,1.83792 0.0148,0.007 c 0.30351,-0.10157 0.62573,-0.15563 0.96343,-0.15563 1.52519,0 2.78886,1.12264 3.00885,2.58643 l 1.86015,-0.40761 c 0.0365,-0.0174 0.0542,-0.0572 0.0445,-0.0963 l -0.21492,-0.90413 c -0.009,-0.0381 -0.0422,-0.0667 -0.0815,-0.0667 l -1.48961,0 c -0.12526,-0.2361 -0.27692,-0.45695 -0.45948,-0.65958 l 0.48172,-1.36362 c 0.0135,-0.0379 -0.003,-0.0828 -0.0371,-0.10375 l -0.79297,-0.48171 c -0.0336,-0.0204 -0.0762,-0.0128 -0.10375,0.0148 l -1.00048,1.00048 c -0.29658,-0.0947 -0.60098,-0.14673 -0.90414,-0.15563 l -0.62252,-1.31174 c -0.0174,-0.0365 -0.0571,-0.0541 -0.0963,-0.0445 z m -2.91992,1.32657 c -0.0189,0.002 -0.0377,0.0153 -0.0519,0.0296 l -0.65957,0.65216 c -0.0277,0.0277 -0.0278,0.0702 -0.007,0.10375 l 0.77074,1.27469 c -0.13664,0.22971 -0.24782,0.47242 -0.32609,0.73369 l -1.41549,0.29643 c -0.0394,0.008 -0.0667,0.0411 -0.0667,0.0815 l 0,0.93379 c 0,0.0393 0.0288,0.0724 0.0667,0.0815 l 1.37103,0.33349 c 0.0732,0.3026 0.18357,0.58862 0.33349,0.85226 l -0.79297,1.2154 c -0.0222,0.0339 -0.0138,0.0752 0.0148,0.10375 l 0.65217,0.65958 c 0.0277,0.0276 0.07,0.0351 0.10375,0.0148 l 1.27469,-1.40808 0,-0.0148 c -0.60198,-0.55584 -0.97825,-1.35422 -0.97825,-2.23812 0,-0.98073 0.46518,-1.84486 1.18576,-2.40115 l -1.4155,-1.28951 c -0.0169,-0.011 -0.0404,-0.0168 -0.0593,-0.0148 z m 6.29932,4.36505 c -0.3012,1.36313 -1.51805,2.38633 -2.9718,2.38633 -0.38615,0 -0.74954,-0.0763 -1.08941,-0.20751 l -0.007,0.007 -0.48171,1.84532 c -0.002,0.0404 0.0203,0.0712 0.0593,0.0815 l 0.90414,0.24456 c 0.0379,0.0101 0.0774,-0.01 0.0963,-0.0445 l 0.71146,-1.29692 c 0.26725,0.004 0.53493,-0.0263 0.80038,-0.0889 l 0.96343,1.082 c 0.0267,0.03 0.0688,0.035 0.10375,0.0148 l 0.80779,-0.46689 c 0.0341,-0.0196 0.048,-0.0589 0.0371,-0.0963 l -0.39278,-1.35621 c 0.22565,-0.21449 0.41704,-0.45734 0.57064,-0.71886 l 1.44514,0.0815 c 0.0404,0.002 0.0785,-0.0202 0.0889,-0.0593 l 0.24456,-0.89673 c 0.0101,-0.0378 -0.01,-0.0772 -0.0445,-0.0963 l -1.84533,-0.41501 z"
         style="fill:#ffffff;fill-opacity:1;display:inline;enable-background:new"
         inkscape:connector-curvature="0" />
      <path
         inkscape:connector-curvature="0"
         style="fill:#ffffff;fill-opacity:1;display:inline;enable-background:new"
         d="m 427.54669,104.96566 -1.26584,0.31128 c -0.0532,0.0126 -0.0931,0.0591 -0.0934,0.1141 l 0.56028,2.57318 0.0207,0.01 c 0.42493,-0.1422 0.87606,-0.21789 1.34885,-0.21789 2.13535,0 3.90455,1.57176 4.21255,3.62114 l 2.6043,-0.57068 c 0.0511,-0.0244 0.0759,-0.0801 0.0623,-0.13482 l -0.30089,-1.26583 c -0.0126,-0.0533 -0.0591,-0.0934 -0.11411,-0.0934 l -2.08553,0 c -0.17537,-0.33056 -0.3877,-0.63976 -0.64329,-0.92345 l 0.67443,-1.90914 c 0.0189,-0.0531 -0.004,-0.11592 -0.0519,-0.14525 l -1.1102,-0.67442 c -0.047,-0.0286 -0.10669,-0.0179 -0.14526,0.0207 l -1.40072,1.40072 c -0.41523,-0.13258 -0.8414,-0.20543 -1.26584,-0.21789 l -0.87156,-1.8365 c -0.0244,-0.0511 -0.08,-0.0757 -0.13483,-0.0623 z m -4.08804,1.85727 c -0.0265,0.003 -0.0528,0.0214 -0.0727,0.0414 l -0.92343,0.91306 c -0.0388,0.0388 -0.0389,0.0983 -0.01,0.14525 l 1.07907,1.78463 c -0.1913,0.32161 -0.34696,0.66142 -0.45654,1.02721 l -1.98176,0.41502 c -0.0552,0.0112 -0.0934,0.0575 -0.0934,0.1141 l 0,1.30735 c 0,0.055 0.0403,0.10137 0.0934,0.11411 l 1.91952,0.4669 c 0.10248,0.42366 0.257,0.8241 0.4669,1.19321 l -1.1102,1.70162 c -0.0311,0.0475 -0.0193,0.10528 0.0207,0.14526 l 0.91307,0.92344 c 0.0388,0.0386 0.098,0.0491 0.14526,0.0207 l 1.78463,-1.97138 0,-0.0207 c -0.8428,-0.77821 -1.3696,-1.89598 -1.3696,-3.13349 0,-1.37307 0.65127,-2.58289 1.66012,-3.36173 l -1.98177,-1.80538 c -0.0237,-0.0154 -0.0566,-0.0235 -0.083,-0.0207 z m 8.81937,6.11129 c -0.42169,1.90845 -2.12534,3.34099 -4.16067,3.34099 -0.54063,0 -1.04939,-0.10683 -1.52523,-0.29053 l -0.01,0.01 -0.67442,2.58354 c -0.003,0.0566 0.0284,0.0997 0.083,0.11411 l 1.26584,0.34239 c 0.0531,0.0142 0.10836,-0.014 0.13482,-0.0623 l 0.99608,-1.81575 c 0.37417,0.006 0.74893,-0.0368 1.12058,-0.12447 l 1.34885,1.51486 c 0.0374,0.042 0.0963,0.049 0.14525,0.0207 l 1.13095,-0.65367 c 0.0477,-0.0274 0.0672,-0.0825 0.0519,-0.13482 l -0.54991,-1.89877 c 0.31592,-0.3003 0.58388,-0.6403 0.79893,-1.00644 l 2.02326,0.11411 c 0.0566,0.003 0.10991,-0.0283 0.12447,-0.083 l 0.3424,-1.25547 c 0.0141,-0.0529 -0.014,-0.10808 -0.0623,-0.13482 l -2.58355,-0.58104 z"
         id="path3899" />
      <path
         id="path3919"
         d="m 431.35241,57.951094 -1.80831,0.444679 c -0.076,0.018 -0.133,0.08443 -0.13343,0.162997 l 0.80039,3.675908 0.0296,0.0143 c 0.60703,-0.20314 1.25149,-0.31127 1.9269,-0.31127 3.05045,0 5.57784,2.24534 6.01783,5.17298 l 3.72037,-0.81525 c 0.073,-0.0348 0.10843,-0.11442 0.089,-0.19259 l -0.42984,-1.8083 c -0.018,-0.0761 -0.0844,-0.13343 -0.16301,-0.13343 l -2.97928,0 c -0.25052,-0.47222 -0.55385,-0.91393 -0.91897,-1.31919 l 0.96346,-2.7273 c 0.027,-0.0759 -0.006,-0.1656 -0.0742,-0.2075 l -1.58597,-0.96344 c -0.0671,-0.04086 -0.15241,-0.02557 -0.20751,0.02957 l -2.001,2.001 c -0.59318,-0.1894 -1.20198,-0.29347 -1.80831,-0.31127 l -1.24507,-2.623529 c -0.0349,-0.073 -0.11428,-0.108142 -0.19261,-0.089 z m -5.83996,2.653204 c -0.0379,0.004 -0.0754,0.0306 -0.10386,0.0591 l -1.31916,1.30435 c -0.0554,0.0554 -0.0556,0.14043 -0.0143,0.2075 l 1.54151,2.54943 c -0.27328,0.45943 -0.49565,0.94487 -0.65219,1.46742 l -2.83104,0.59287 c -0.0789,0.016 -0.13343,0.0821 -0.13343,0.163 l 0,1.867609 c 0,0.0786 0.0576,0.14482 0.13343,0.16301 l 2.74212,0.66699 c 0.1464,0.60522 0.36714,1.17727 0.66699,1.70456 l -1.58597,2.43085 c -0.0444,0.0679 -0.0276,0.1504 0.0296,0.20751 l 1.30436,1.31918 c 0.0554,0.0551 0.14,0.0701 0.20752,0.0296 l 2.54943,-2.81621 0,-0.0296 c -1.20398,-1.11171 -1.95654,-2.7085 -1.95654,-4.47635 0,-1.961489 0.93037,-3.689779 2.37156,-4.802389 l -2.83106,-2.57907 c -0.0339,-0.022 -0.0808,-0.0336 -0.11857,-0.0296 z m 12.5989,8.730269 c -0.60241,2.72632 -3.03615,4.77277 -5.94372,4.77277 -0.77232,0 -1.49911,-0.15261 -2.17887,-0.41504 l -0.0143,0.0143 -0.96344,3.69071 c -0.004,0.0809 0.0406,0.14243 0.11857,0.16301 l 1.80831,0.48912 c 0.0759,0.0203 0.1548,-0.02 0.1926,-0.089 l 1.42295,-2.59388 c 0.53452,0.009 1.06988,-0.0526 1.6008,-0.17781 l 1.9269,2.16405 c 0.0534,0.06 0.13757,0.07 0.20749,0.0296 l 1.61562,-0.9338 c 0.0681,-0.0391 0.096,-0.11786 0.0741,-0.1926 l -0.78557,-2.71248 c 0.45131,-0.429 0.8341,-0.9147 1.14131,-1.43775 l 2.89032,0.16301 c 0.0809,0.004 0.15702,-0.0404 0.17782,-0.11857 l 0.48913,-1.7935 c 0.0201,-0.0756 -0.02,-0.1544 -0.089,-0.1926 l -3.69072,-0.83004 z"
         style="fill:#ffffff;fill-opacity:1;display:inline;enable-background:new"
         inkscape:connector-curvature="0" />
    </g>
    <g
       inkscape:groupmode="layer"
       id="layer5"
       inkscape:label="Highlights"
       style="display:inline"
       sodipodi:insensitive="true">
      <rect
         ry="9"
         y="307"
         x="-265"
         height="42"
         width="42"
         id="rect4884"
         style="color:#bebebe;display:inline;overflow:visible;visibility:visible;opacity:0.20;fill:none;stroke:#000000;stroke-width:2;stroke-miterlimit:4;stroke-dasharray:none;stroke-opacity:1;marker:none;enable-background:accumulate"
         transform="matrix(0,1,1,0,-16,488)"
         clip-path="url(#clipPath4891)" />
      <rect
         style="color:#bebebe;display:inline;overflow:visible;visibility:visible;opacity:0.20;fill:none;stroke:#000000;stroke-width:2;stroke-miterlimit:4;stroke-dasharray:none;stroke-opacity:1;marker:none;enable-background:accumulate"
         id="rect5311"
         width="16"
         height="16"
         x="-228"
         y="304"
         ry="3"
         clip-path="url(#clipPath3855)"
         transform="matrix(0,-1,1,0,112,-72)" />
      <rect
         ry="50"
         y="46"
         x="34"
         height="220"
         width="220"
         id="rect3858"
         style="color:#bebebe;display:inline;overflow:visible;visibility:visible;opacity:0.20;fill:none;stroke:#000000;stroke-width:2;stroke-miterlimit:4;stroke-dasharray:none;stroke-opacity:1;marker:none;enable-background:accumulate"
         clip-path="url(#clipPath3862)" />
      <rect
         ry="12.5"
         y="142"
         x="290"
         height="60"
         width="60"
         id="rect4175"
         style="color:#bebebe;display:inline;overflow:visible;visibility:visible;opacity:0.20;fill:none;stroke:#000000;stroke-width:2;stroke-miterlimit:4;stroke-dasharray:none;stroke-opacity:1;marker:none;enable-background:accumulate"
         clip-path="url(#clipPath4187)" />
      <rect
         style="color:#bebebe;display:inline;overflow:visible;visibility:visible;opacity:0.20;fill:none;stroke:#000000;stroke-width:2;stroke-miterlimit:4;stroke-dasharray:none;stroke-opacity:1;marker:none;enable-background:accumulate"
         id="rect4342"
         width="88"
         height="88"
         x="292"
         y="32"
         ry="18"
         clip-path="url(#clipPath4346)" />
      <rect
         ry="5"
         y="101"
         x="417"
         height="22"
         width="22"
         id="rect3866"
         style="color:#bebebe;display:inline;overflow:visible;visibility:visible;opacity:0.20;fill:none;stroke:#000000;stroke-width:2;stroke-miterlimit:4;stroke-dasharray:none;stroke-opacity:1;marker:none;enable-background:accumulate"
         clip-path="url(#clipPath3871)" />
      <rect
         style="color:#bebebe;display:inline;overflow:visible;visibility:visible;opacity:0.20;fill:none;stroke:#000000;stroke-width:2;stroke-miterlimit:4;stroke-dasharray:none;stroke-opacity:1;marker:none;enable-background:accumulate"
         id="rect3877"
         width="30"
         height="30"
         x="417"
         y="53"
         ry="7"
         clip-path="url(#clipPath3881)" />
    </g>
  </g>
</svg>
