<?xml version="1.0" encoding="UTF-8" standalone="no"?>
<!-- Created with Inkscape (http://www.inkscape.org/) -->

<svg
   xmlns:dc="http://purl.org/dc/elements/1.1/"
   xmlns:cc="http://creativecommons.org/ns#"
   xmlns:rdf="http://www.w3.org/1999/02/22-rdf-syntax-ns#"
   xmlns:svg="http://www.w3.org/2000/svg"
   xmlns="http://www.w3.org/2000/svg"
   xmlns:xlink="http://www.w3.org/1999/xlink"
   xmlns:sodipodi="http://sodipodi.sourceforge.net/DTD/sodipodi-0.dtd"
   xmlns:inkscape="http://www.inkscape.org/namespaces/inkscape"
   inkscape:export-ydpi="90.000000"
   inkscape:export-xdpi="90.000000"
   width="480"
   height="300"
   id="svg11300"
   sodipodi:version="0.32"
   inkscape:version="0.48.4 r9939"
   sodipodi:docname="distributor-logo-deepin.svg"
   inkscape:output_extension="org.inkscape.output.svg.inkscape"
   version="1.0"
   style="display:inline;enable-background:new"
   inkscape:export-filename="/home/sam/moka-next-template.png">
  <sodipodi:namedview
     stroke="#ef2929"
     fill="#f57900"
     id="base"
     pagecolor="#777777"
     bordercolor="#666666"
     borderopacity="0.25490196"
     inkscape:pageopacity="0"
     inkscape:pageshadow="2"
     inkscape:zoom="1"
     inkscape:cx="137.65695"
     inkscape:cy="31.816406"
     inkscape:current-layer="layer7"
     showgrid="false"
     inkscape:grid-bbox="true"
     inkscape:document-units="px"
     inkscape:showpageshadow="false"
     inkscape:window-width="1364"
     inkscape:window-height="700"
     inkscape:window-x="0"
     inkscape:window-y="28"
     width="400px"
     height="300px"
     inkscape:snap-nodes="true"
     inkscape:snap-bbox="true"
     gridtolerance="10000"
     inkscape:object-nodes="true"
     inkscape:snap-grids="true"
     showguides="true"
     inkscape:guide-bbox="true"
     inkscape:window-maximized="1"
     inkscape:bbox-nodes="true"
     inkscape:bbox-paths="true"
     inkscape:snap-bbox-edge-midpoints="true"
     inkscape:snap-bbox-midpoints="true">
    <inkscape:grid
       spacingy="1px"
       spacingx="1px"
       id="grid5883"
       type="xygrid"
       enabled="true"
       visible="true"
       empspacing="4"
       snapvisiblegridlinesonly="true"
       dotted="false"
       color="#000000"
       opacity="0.1254902"
       empcolor="#203ef3"
       empopacity="0.36470588" />
    <inkscape:grid
       type="xygrid"
       id="grid11592"
       empspacing="8"
       visible="true"
       enabled="false"
       spacingx="0.5px"
       spacingy="0.5px"
       color="#ff0000"
       opacity="0.1254902"
       empcolor="#ff0000"
       empopacity="0.25098039"
       snapvisiblegridlinesonly="true"
       dotted="true" />
  </sodipodi:namedview>
  <defs
     id="defs3">
    <linearGradient
       id="outerBackgroundGradient">
      <stop
         style="stop-color:#7469b3;stop-opacity:1;"
         offset="0"
         id="stop3864-8-6" />
      <stop
         style="stop-color:#a6afe2;stop-opacity:1;"
         offset="1"
         id="stop3866-9-1" />
    </linearGradient>
    <linearGradient
       inkscape:collect="always"
       xlink:href="#outerBackgroundGradient"
       id="linearGradient4097"
       gradientUnits="userSpaceOnUse"
       x1="264"
       y1="280.00003"
       x2="264"
       y2="40.00005"
       gradientTransform="matrix(0.06666667,0,0,0.06666667,414.4,137.33333)" />
    <linearGradient
       inkscape:collect="always"
       xlink:href="#outerBackgroundGradient"
       id="linearGradient4101"
       gradientUnits="userSpaceOnUse"
       gradientTransform="matrix(0.0875,0,0,0.0875,414.9,97.5)"
       x1="286.85715"
       y1="302.85715"
       x2="286.85715"
       y2="28.571428" />
    <linearGradient
       inkscape:collect="always"
       xlink:href="#outerBackgroundGradient"
       id="linearGradient4153"
       gradientUnits="userSpaceOnUse"
       gradientTransform="matrix(0.11931818,0,0,0.11931818,414.13636,48.22727)"
       x1="283.80957"
       y1="299.80954"
       x2="283.80957"
       y2="31.61907" />
    <linearGradient
       inkscape:collect="always"
       xlink:href="#outerBackgroundGradient"
       id="linearGradient4869"
       gradientUnits="userSpaceOnUse"
       gradientTransform="matrix(0.175,0,0,-0.175,286.79999,-215.99997)"
       x1="281.14291"
       y1="297.14304"
       x2="281.14291"
       y2="22.857315" />
    <clipPath
       clipPathUnits="userSpaceOnUse"
       id="clipPath4891">
      <rect
         ry="9"
         y="223"
         x="307"
         height="42"
         width="42"
         id="rect4893"
         style="color:#bebebe;fill:url(#linearGradient4895);fill-opacity:1;fill-rule:nonzero;stroke:none;stroke-width:0;marker:none;visibility:visible;display:inline;overflow:visible;enable-background:accumulate"
         transform="matrix(0,1,-1,0,0,0)" />
    </clipPath>
    <linearGradient
       inkscape:collect="always"
       xlink:href="#outerBackgroundGradient"
       id="linearGradient4895"
       gradientUnits="userSpaceOnUse"
       gradientTransform="matrix(0.175,0,0,0.175,302.79999,215.99997)"
       x1="144.00006"
       y1="280.00018"
       x2="144.00006"
       y2="40.000172" />
    <clipPath
       clipPathUnits="userSpaceOnUse"
       id="clipPath4044">
      <rect
         ry="4"
         y="85"
         x="433"
         height="22"
         width="22"
         id="rect4046"
         style="color:#bebebe;fill:url(#linearGradient4048);fill-opacity:1;fill-rule:nonzero;stroke:none;stroke-width:0;marker:none;visibility:visible;display:inline;overflow:visible;enable-background:accumulate" />
    </clipPath>
    <linearGradient
       inkscape:collect="always"
       xlink:href="#outerBackgroundGradient"
       id="linearGradient4048"
       gradientUnits="userSpaceOnUse"
       gradientTransform="matrix(0.0875,0,0,0.0875,430.9,81.499996)"
       x1="149.71428"
       y1="291.42862"
       x2="149.71428"
       y2="40.000046" />
    <clipPath
       clipPathUnits="userSpaceOnUse"
       id="clipPath4089">
      <rect
         style="color:#bebebe;fill:url(#linearGradient4093);fill-opacity:1;fill-rule:nonzero;stroke:none;stroke-width:0;marker:none;visibility:visible;display:inline;overflow:visible;enable-background:accumulate"
         id="rect4091"
         width="30"
         height="30"
         x="433"
         y="37"
         ry="6" />
    </clipPath>
    <linearGradient
       inkscape:collect="always"
       xlink:href="#outerBackgroundGradient"
       id="linearGradient4093"
       gradientUnits="userSpaceOnUse"
       gradientTransform="matrix(0.11931818,0,0,0.11931818,430.13636,32.227267)"
       x1="149.71432"
       y1="291.42862"
       x2="149.71432"
       y2="40.00005" />
    <clipPath
       clipPathUnits="userSpaceOnUse"
       id="clipPath3855">
      <rect
         style="color:#bebebe;fill:url(#linearGradient3859);fill-opacity:1;fill-rule:nonzero;stroke:none;stroke-width:0;marker:none;visibility:visible;display:inline;overflow:visible;enable-background:accumulate"
         id="rect3857"
         width="16"
         height="16"
         x="304"
         y="212"
         ry="3"
         transform="matrix(0,1,-1,0,0,0)" />
    </clipPath>
    <linearGradient
       inkscape:collect="always"
       xlink:href="#outerBackgroundGradient"
       id="linearGradient3859"
       gradientUnits="userSpaceOnUse"
       gradientTransform="matrix(0.06666667,0,0,0.06666667,302.4,209.33333)"
       x1="144"
       y1="280.00003"
       x2="144"
       y2="40.00005" />
    <clipPath
       clipPathUnits="userSpaceOnUse"
       id="clipPath3862">
      <rect
         ry="50"
         y="46"
         x="34"
         height="220"
         width="220"
         id="rect3864"
         style="color:#bebebe;fill:url(#linearGradient3866);fill-opacity:1;fill-rule:nonzero;stroke:none;stroke-width:0;marker:none;visibility:visible;display:inline;overflow:visible;enable-background:accumulate" />
    </clipPath>
    <linearGradient
       inkscape:collect="always"
       xlink:href="#outerBackgroundGradient"
       id="linearGradient3866"
       gradientUnits="userSpaceOnUse"
       gradientTransform="translate(0,-4)"
       x1="144"
       y1="280"
       x2="144"
       y2="40" />
    <linearGradient
       inkscape:collect="always"
       xlink:href="#outerBackgroundGradient"
       id="linearGradient3876"
       gradientUnits="userSpaceOnUse"
       gradientTransform="translate(0,-4)"
       x1="272"
       y1="288"
       x2="272"
       y2="32" />
    <clipPath
       clipPathUnits="userSpaceOnUse"
       id="clipPath4187">
      <rect
         ry="12.5"
         y="142"
         x="290"
         height="60"
         width="60"
         id="rect4189"
         style="color:#bebebe;fill:url(#linearGradient4191);fill-opacity:1;fill-rule:nonzero;stroke:none;stroke-width:0;marker:none;visibility:visible;display:inline;overflow:visible;enable-background:accumulate" />
    </clipPath>
    <linearGradient
       inkscape:collect="always"
       xlink:href="#outerBackgroundGradient"
       id="linearGradient4191"
       gradientUnits="userSpaceOnUse"
       x1="352"
       y1="204"
       x2="352"
       y2="140" />
    <linearGradient
       inkscape:collect="always"
       xlink:href="#outerBackgroundGradient"
       id="linearGradient4197"
       gradientUnits="userSpaceOnUse"
       x1="384"
       y1="124"
       x2="384"
       y2="28" />
    <linearGradient
       inkscape:collect="always"
       xlink:href="#outerBackgroundGradient"
       id="linearGradient4199"
       gradientUnits="userSpaceOnUse"
       x1="352"
       y1="204"
       x2="352"
       y2="140" />
    <clipPath
       clipPathUnits="userSpaceOnUse"
       id="clipPath4346">
      <rect
         style="color:#bebebe;fill:url(#linearGradient4350);fill-opacity:1;fill-rule:nonzero;stroke:none;stroke-width:0;marker:none;visibility:visible;display:inline;overflow:visible;enable-background:accumulate"
         id="rect4348"
         width="88"
         height="88"
         x="292"
         y="32"
         ry="18" />
    </clipPath>
    <linearGradient
       inkscape:collect="always"
       xlink:href="#outerBackgroundGradient"
       id="linearGradient4350"
       gradientUnits="userSpaceOnUse"
       x1="384"
       y1="124"
       x2="384"
       y2="28" />
    <clipPath
       clipPathUnits="userSpaceOnUse"
       id="clipPath3871">
      <rect
         ry="5"
         y="101"
         x="417"
         height="22"
         width="22"
         id="rect3873"
         style="color:#bebebe;fill:url(#linearGradient3875);fill-opacity:1;fill-rule:nonzero;stroke:none;stroke-width:0;marker:none;visibility:visible;display:inline;overflow:visible;enable-background:accumulate" />
    </clipPath>
    <linearGradient
       inkscape:collect="always"
       xlink:href="#outerBackgroundGradient"
       id="linearGradient3875"
       gradientUnits="userSpaceOnUse"
       gradientTransform="matrix(0.0875,0,0,0.0875,414.9,97.5)"
       x1="286.85715"
       y1="302.85715"
       x2="286.85715"
       y2="28.571428" />
    <clipPath
       clipPathUnits="userSpaceOnUse"
       id="clipPath3881">
      <rect
         style="color:#bebebe;fill:url(#linearGradient3885);fill-opacity:1;fill-rule:nonzero;stroke:none;stroke-width:0;marker:none;visibility:visible;display:inline;overflow:visible;enable-background:accumulate"
         id="rect3883"
         width="30"
         height="30"
         x="417"
         y="53"
         ry="7" />
    </clipPath>
    <linearGradient
       inkscape:collect="always"
       xlink:href="#outerBackgroundGradient"
       id="linearGradient3885"
       gradientUnits="userSpaceOnUse"
       gradientTransform="matrix(0.11931818,0,0,0.11931818,414.13636,48.22727)"
       x1="283.80957"
       y1="299.80954"
       x2="283.80957"
       y2="31.61907" />
    <linearGradient
       inkscape:collect="always"
       xlink:href="#outerBackgroundGradient"
       id="linearGradient4235"
       gradientUnits="userSpaceOnUse"
       x1="384"
       y1="124"
       x2="384"
       y2="28" />
    <linearGradient
       inkscape:collect="always"
       xlink:href="#outerBackgroundGradient-6"
       id="linearGradient4254"
       x1="35"
       y1="156"
       x2="253"
       y2="156"
       gradientUnits="userSpaceOnUse"
       gradientTransform="matrix(0,-1,1,0,-12,300)" />
    <linearGradient
       inkscape:collect="always"
       xlink:href="#outerBackgroundGradient-6"
       id="linearGradient4256"
       x1="417"
       y1="148"
       x2="431"
       y2="148"
       gradientUnits="userSpaceOnUse"
       gradientTransform="matrix(0,-1,1,0,276,572)" />
    <linearGradient
       inkscape:collect="always"
       xlink:href="#outerBackgroundGradient"
       id="linearGradient4258"
       x1="418"
       y1="112"
       x2="438"
       y2="112"
       gradientUnits="userSpaceOnUse"
       gradientTransform="matrix(0,-1,1,0,316,540)" />
    <linearGradient
       inkscape:collect="always"
       xlink:href="#outerBackgroundGradient-6"
       id="linearGradient4260"
       x1="418"
       y1="68"
       x2="446"
       y2="68"
       gradientUnits="userSpaceOnUse"
       gradientTransform="matrix(0,-1,1,0,364,500)" />
    <linearGradient
       inkscape:collect="always"
       xlink:href="#outerBackgroundGradient-6"
       id="linearGradient4262"
       x1="292"
       y1="244"
       x2="332"
       y2="244"
       gradientUnits="userSpaceOnUse"
       gradientTransform="matrix(0,-1,1,0,68,556)" />
    <linearGradient
       inkscape:collect="always"
       xlink:href="#outerBackgroundGradient-6"
       id="linearGradient4264"
       x1="293"
       y1="76"
       x2="379"
       y2="76"
       gradientUnits="userSpaceOnUse"
       gradientTransform="matrix(0,-1,1,0,260,412)" />
    <linearGradient
       inkscape:collect="always"
       xlink:href="#outerBackgroundGradient-6"
       id="linearGradient4266"
       x1="291"
       y1="172"
       x2="349"
       y2="172"
       gradientUnits="userSpaceOnUse"
       gradientTransform="matrix(0,-1,1,0,148,492)" />
    <linearGradient
       inkscape:collect="always"
       xlink:href="#outerBackgroundGradient-6"
       id="linearGradient3870"
       gradientUnits="userSpaceOnUse"
       gradientTransform="matrix(0,-1,1,0,316,540)"
       x1="418"
       y1="112"
       x2="438"
       y2="112" />
    <linearGradient
       inkscape:collect="always"
       xlink:href="#outerBackgroundGradient-0"
       id="linearGradient3876-9"
       gradientUnits="userSpaceOnUse"
       gradientTransform="translate(0,-4)"
       x1="272"
       y1="288"
       x2="272"
       y2="32" />
    <linearGradient
       id="outerBackgroundGradient-0">
      <stop
         style="stop-color:#a4c639;stop-opacity:1"
         offset="0"
         id="stop3864-8-6-3" />
      <stop
         style="stop-color:#aacd3b;stop-opacity:1"
         offset="1"
         id="stop3866-9-1-3" />
    </linearGradient>
    <linearGradient
       inkscape:collect="always"
       xlink:href="#outerBackgroundGradient-06"
       id="linearGradient3876-97"
       gradientUnits="userSpaceOnUse"
       gradientTransform="translate(0,-4)"
       x1="272"
       y1="288"
       x2="272"
       y2="32" />
    <linearGradient
       id="outerBackgroundGradient-06">
      <stop
         style="stop-color:#0d3b80;stop-opacity:1;"
         offset="0"
         id="stop3864-8-6-36" />
      <stop
         style="stop-color:#466ba3;stop-opacity:1;"
         offset="1"
         id="stop3866-9-1-31" />
    </linearGradient>
    <linearGradient
       y2="32"
       x2="272"
       y1="288"
       x1="272"
       gradientTransform="translate(321,67)"
       gradientUnits="userSpaceOnUse"
       id="linearGradient6297"
       xlink:href="#outerBackgroundGradient-06"
       inkscape:collect="always" />
    <linearGradient
       inkscape:collect="always"
       xlink:href="#outerBackgroundGradient-5"
       id="linearGradient3876-7"
       gradientUnits="userSpaceOnUse"
       gradientTransform="translate(0,-4)"
       x1="272"
       y1="288"
       x2="272"
       y2="32" />
    <linearGradient
       id="outerBackgroundGradient-5">
      <stop
         style="stop-color:#000000;stop-opacity:1;"
         offset="0"
         id="stop3864-8-6-7" />
      <stop
         style="stop-color:#131313;stop-opacity:1;"
         offset="1"
         id="stop3866-9-1-6" />
    </linearGradient>
    <linearGradient
       inkscape:collect="always"
       xlink:href="#outerBackgroundGradient-2"
       id="linearGradient3876-1"
       gradientUnits="userSpaceOnUse"
       gradientTransform="translate(0,-4)"
       x1="272"
       y1="288"
       x2="272"
       y2="32" />
    <linearGradient
       id="outerBackgroundGradient-2">
      <stop
         style="stop-color:#0a52bc;stop-opacity:1"
         offset="0"
         id="stop3864-8-6-4" />
      <stop
         style="stop-color:#21defc;stop-opacity:1"
         offset="1"
         id="stop3866-9-1-8" />
    </linearGradient>
    <linearGradient
       inkscape:collect="always"
       xlink:href="#outerBackgroundGradient-6"
       id="linearGradient3876-95"
       gradientUnits="userSpaceOnUse"
       gradientTransform="translate(0,-4)"
       x1="272"
       y1="288"
       x2="272"
       y2="32" />
    <linearGradient
       id="outerBackgroundGradient-6">
      <stop
         style="stop-color:#aa0000;stop-opacity:1"
         offset="0"
         id="stop3864-8-6-9" />
      <stop
         style="stop-color:#c31c1c;stop-opacity:1"
         offset="1"
         id="stop3866-9-1-81" />
    </linearGradient>
    <linearGradient
       y2="32"
       x2="272"
       y1="288"
       x1="272"
       gradientTransform="translate(0,-5.0001005)"
       gradientUnits="userSpaceOnUse"
       id="linearGradient6588"
       xlink:href="#outerBackgroundGradient-6"
       inkscape:collect="always" />
  </defs>
  <metadata
     id="metadata4">
    <rdf:RDF>
      <cc:Work
         rdf:about="">
        <dc:format>image/svg+xml</dc:format>
        <dc:type
           rdf:resource="http://purl.org/dc/dcmitype/StillImage" />
        <dc:creator>
          <cc:Agent>
            <dc:title>Sam Hewitt</dc:title>
          </cc:Agent>
        </dc:creator>
        <dc:source />
        <cc:license
           rdf:resource="" />
        <dc:title></dc:title>
        <dc:subject>
          <rdf:Bag />
        </dc:subject>
        <dc:date />
        <dc:rights>
          <cc:Agent>
            <dc:title />
          </cc:Agent>
        </dc:rights>
        <dc:publisher>
          <cc:Agent>
            <dc:title />
          </cc:Agent>
        </dc:publisher>
        <dc:identifier />
        <dc:relation />
        <dc:language />
        <dc:coverage />
        <dc:description />
        <dc:contributor>
          <cc:Agent>
            <dc:title />
          </cc:Agent>
        </dc:contributor>
      </cc:Work>
      <cc:Work
         rdf:about="">
        <dc:format>image/svg+xml</dc:format>
        <dc:type
           rdf:resource="http://purl.org/dc/dcmitype/StillImage" />
      </cc:Work>
    </rdf:RDF>
  </metadata>
  <g
     style="display:inline"
     inkscape:groupmode="layer"
     inkscape:label="Icon"
     id="layer1">
    <g
       style="display:none"
       inkscape:label="Baseplate"
       id="layer7"
       inkscape:groupmode="layer">
      <text
         y="19.745117"
         xml:space="preserve"
         x="15.006836"
         style="font-size:18px;font-style:normal;font-variant:normal;font-weight:normal;font-stretch:normal;fill:#000000;fill-opacity:1;stroke:none;display:inline;enable-background:new;font-family:DejaVu Sans;-inkscape-font-specification:DejaVu Sans"
         inkscape:label="context"
         id="context"><tspan
           style="font-style:normal;font-variant:normal;font-weight:normal;font-stretch:normal;font-family:DejaVu Sans;-inkscape-font-specification:DejaVu Sans"
           y="19.745117"
           x="15.006836"
           sodipodi:role="line"
           id="tspan3933">places</tspan></text>
      <text
         y="19.745117"
         xml:space="preserve"
         x="122.48828"
         style="font-size:18px;font-style:normal;font-variant:normal;font-weight:bold;font-stretch:normal;text-align:start;line-height:125%;writing-mode:lr-tb;text-anchor:start;fill:#000000;fill-opacity:1;stroke:none;display:inline;enable-background:new;font-family:DejaVu Sans;-inkscape-font-specification:DejaVu Sans Bold"
         sodipodi:linespacing="125%"
         inkscape:label="icon-name"
         id="icon-name"><tspan
           style="font-size:18px;font-style:normal;font-variant:normal;font-weight:bold;font-stretch:normal;font-family:DejaVu Sans;-inkscape-font-specification:DejaVu Sans Bold"
           y="19.745117"
           x="122.48828"
           sodipodi:role="line"
           id="tspan3937">distributor-logo-edubuntu</tspan></text>
      <rect
         style="fill:#eeeeec;fill-opacity:1;fill-rule:nonzero;stroke:none;stroke-width:2;marker:none;visibility:visible;display:inline;overflow:visible;enable-background:accumulate"
         id="rect16x16"
         width="16"
         height="16"
         x="416"
         y="140"
         inkscape:label="16x16" />
      <rect
         style="fill:#d4d4d4;fill-opacity:1;fill-rule:nonzero;stroke:none;stroke-width:2;marker:none;visibility:visible;display:inline;overflow:visible;enable-background:accumulate"
         id="rect24x24"
         width="24"
         height="24"
         x="416"
         y="100"
         inkscape:label="24x24" />
      <rect
         style="fill:#eeeeec;fill-opacity:1;fill-rule:nonzero;stroke:none;stroke-width:2;marker:none;visibility:visible;display:inline;overflow:visible;enable-background:accumulate"
         id="rect32x32"
         width="32"
         height="32"
         x="416"
         y="52"
         inkscape:label="32x32" />
      <rect
         inkscape:label="22x22"
         y="101"
         x="417"
         height="22"
         width="22"
         id="rect22x22"
         style="fill:#eeeeec;fill-opacity:1;fill-rule:nonzero;stroke:none;stroke-width:2;marker:none;visibility:visible;display:inline;overflow:visible;enable-background:accumulate" />
      <rect
         inkscape:label="48x48"
         y="220"
         x="288"
         height="48"
         width="48"
         id="rect48x48"
         style="fill:#eeeeec;fill-opacity:1;fill-rule:nonzero;stroke:none;stroke-width:2;marker:none;visibility:visible;display:inline;overflow:visible;enable-background:accumulate" />
      <rect
         style="fill:#eeeeec;fill-opacity:1;fill-rule:nonzero;stroke:none;stroke-width:2;marker:none;visibility:visible;display:inline;overflow:visible;enable-background:accumulate"
         id="rect256x256"
         width="256"
         height="256"
         x="16"
         y="28"
         inkscape:label="256x256" />
      <rect
         style="fill:#eeeeec;fill-opacity:1;fill-rule:nonzero;stroke:none;stroke-width:2;marker:none;visibility:visible;display:inline;overflow:visible;enable-background:accumulate"
         id="rect64x64"
         width="64"
         height="64"
         x="288"
         y="140"
         inkscape:label="64x64" />
      <rect
         style="fill:#eeeeec;fill-opacity:1;fill-rule:nonzero;stroke:none;stroke-width:2;marker:none;visibility:visible;display:inline;overflow:visible;enable-background:accumulate"
         id="rect96x96"
         width="96"
         height="96"
         x="288"
         y="28"
         inkscape:label="96x96" />
    </g>
    <g
       inkscape:groupmode="layer"
       id="layer4"
       inkscape:label="Shadow"
       style="display:inline"
       sodipodi:insensitive="true">
      <rect
         ry="50"
         y="47"
         x="34"
         height="220"
         width="220"
         id="rect4114"
         style="opacity:0.1;color:#bebebe;fill:#000000;fill-opacity:1;fill-rule:nonzero;stroke:none;stroke-width:0;marker:none;visibility:visible;display:inline;overflow:visible;enable-background:accumulate" />
      <rect
         style="opacity:0.1;color:#bebebe;fill:#000000;fill-opacity:1;fill-rule:nonzero;stroke:none;stroke-width:0;marker:none;visibility:visible;display:inline;overflow:visible;enable-background:accumulate"
         id="rect4120"
         width="30"
         height="30"
         x="417"
         y="54"
         ry="7" />
      <rect
         transform="scale(1,-1)"
         ry="9"
         y="-266"
         x="291"
         height="42"
         width="42"
         id="rect4122"
         style="opacity:0.1;color:#bebebe;fill:#000000;fill-opacity:1;fill-rule:nonzero;stroke:none;stroke-width:0;marker:none;visibility:visible;display:inline;overflow:visible;enable-background:accumulate" />
      <rect
         style="opacity:0.1;color:#bebebe;fill:#000000;fill-opacity:1;fill-rule:nonzero;stroke:none;stroke-width:0;marker:none;visibility:visible;display:inline;overflow:visible;enable-background:accumulate"
         id="rect4124"
         width="88"
         height="88"
         x="292"
         y="33"
         ry="18" />
      <rect
         ry="12.5"
         y="143"
         x="290"
         height="60"
         width="60"
         id="rect4126"
         style="opacity:0.1;color:#bebebe;fill:#000000;fill-opacity:1;fill-rule:nonzero;stroke:none;stroke-width:0;marker:none;visibility:visible;display:inline;overflow:visible;enable-background:accumulate" />
      <path
         id="path4268"
         d="m 422,101 c -2.77,0 -5,2.23 -5,5 l 0,12 c 0,2.77 2.23,5 5,5 l 12,0 c 2.77,0 5,-2.23 5,-5 l 0,-12 c 0,-2.77 -2.23,-5 -5,-5 z"
         style="opacity:0.1;color:#bebebe;fill:#000000;fill-opacity:1;fill-rule:nonzero;stroke:none;stroke-width:0;marker:none;visibility:visible;display:inline;overflow:visible;enable-background:accumulate"
         inkscape:connector-curvature="0"
         sodipodi:nodetypes="sssssssss" />
      <path
         id="path4270"
         d="m 419,140 c -1.662,0 -3,1.338 -3,3 l 0,10 c 0,1.662 1.338,3 3,3 l 10,0 c 1.662,0 3,-1.338 3,-3 l 0,-10 c 0,-1.662 -1.338,-3 -3,-3 z"
         style="opacity:0.1;color:#bebebe;fill:#000000;fill-opacity:1;fill-rule:nonzero;stroke:none;stroke-width:0;marker:none;visibility:visible;display:inline;overflow:visible;enable-background:accumulate"
         inkscape:connector-curvature="0"
         sodipodi:nodetypes="sssssssss" />
    </g>
    <g
       inkscape:groupmode="layer"
       id="layer2"
       inkscape:label="Background"
       style="display:inline">
      <path
         style="color:#bebebe;fill:url(#linearGradient4254);fill-opacity:1.0;fill-rule:nonzero;stroke:none;stroke-width:2;marker:none;visibility:visible;display:inline;overflow:visible;enable-background:accumulate"
         d="M 84,46.5 C 56.568735,46.5 34.5,68.568732 34.5,96 l 0,120 c 0,27.43127 22.068735,49.5 49.5,49.5 l 120,0 c 27.43127,0 49.5,-22.06873 49.5,-49.5 l 0,-120 C 253.5,68.568732 231.43127,46.5 204,46.5 l -120,0 z"
         id="path4200"
         inkscape:connector-curvature="0" />
      <path
         style="color:#bebebe;fill:url(#linearGradient4256);fill-opacity:1.0;fill-rule:nonzero;stroke:none;stroke-width:2;marker:none;visibility:visible;display:inline;overflow:visible;enable-background:accumulate"
         d="M 419 140.5 C 417.6156 140.5 416.5 141.6156 416.5 143 L 416.5 153 C 416.5 154.3844 417.6156 155.5 419 155.5 L 429 155.5 C 430.3844 155.5 431.5 154.3844 431.5 153 L 431.5 143 C 431.5 141.6156 430.3844 140.5 429 140.5 L 419 140.5 z "
         id="path4202" />
      <path
         style="color:#bebebe;fill:url(#linearGradient3870);fill-opacity:1.0;fill-rule:nonzero;stroke:none;stroke-width:2;marker:none;visibility:visible;display:inline;overflow:visible;enable-background:accumulate"
         d="M 422 101.5 C 419.50301 101.5 417.5 103.50301 417.5 106 L 417.5 118 C 417.5 120.49699 419.50301 122.5 422 122.5 L 434 122.5 C 436.49699 122.5 438.5 120.49699 438.5 118 L 438.5 106 C 438.5 103.50301 436.49699 101.5 434 101.5 L 422 101.5 z "
         id="path4204" />
      <path
         style="color:#bebebe;fill:url(#linearGradient4260);fill-opacity:1.0;fill-rule:nonzero;stroke:none;stroke-width:2;marker:none;visibility:visible;display:inline;overflow:visible;enable-background:accumulate"
         d="M 424 53.5 C 420.39346 53.5 417.5 56.393464 417.5 60 L 417.5 76 C 417.5 79.606536 420.39346 82.5 424 82.5 L 440 82.5 C 443.60654 82.5 446.5 79.606536 446.5 76 L 446.5 60 C 446.5 56.393464 443.60654 53.5 440 53.5 L 424 53.5 z "
         id="path4206" />
      <path
         style="color:#bebebe;fill:url(#linearGradient4262);fill-opacity:1.0;fill-rule:nonzero;stroke:none;stroke-width:2;marker:none;visibility:visible;display:inline;overflow:visible;enable-background:accumulate"
         d="M 300 223.5 C 295.28469 223.5 291.5 227.28469 291.5 232 L 291.5 256 C 291.5 260.71531 295.28469 264.5 300 264.5 L 324 264.5 C 328.71531 264.5 332.5 260.71531 332.5 256 L 332.5 232 C 332.5 227.28469 328.71531 223.5 324 223.5 L 300 223.5 z "
         id="path4208" />
      <path
         style="color:#bebebe;fill:url(#linearGradient4264);fill-opacity:1.0;fill-rule:nonzero;stroke:none;stroke-width:2;marker:none;visibility:visible;display:inline;overflow:visible;enable-background:accumulate"
         d="M 310 32.5 C 300.29745 32.5 292.5 40.297452 292.5 50 L 292.5 102 C 292.5 111.70255 300.29745 119.5 310 119.5 L 362 119.5 C 371.70255 119.5 379.5 111.70255 379.5 102 L 379.5 50 C 379.5 40.297452 371.70255 32.5 362 32.5 L 310 32.5 z "
         id="path4210" />
      <path
         style="color:#bebebe;fill:url(#linearGradient4266);fill-opacity:1.0;fill-rule:nonzero;stroke:none;stroke-width:2;marker:none;visibility:visible;display:inline;overflow:visible;enable-background:accumulate"
         d="M 302.5 142.5 C 295.84498 142.5 290.5 147.84498 290.5 154.5 L 290.5 189.5 C 290.5 196.15502 295.84498 201.5 302.5 201.5 L 337.5 201.5 C 344.15502 201.5 349.5 196.15502 349.5 189.5 L 349.5 154.5 C 349.5 147.84498 344.15502 142.5 337.5 142.5 L 302.5 142.5 z "
         id="path4212" />
    </g>
    <g
       inkscape:groupmode="layer"
       id="layer6"
       inkscape:label="Symbols"
       style="display:inline">
      <path
         id="path4522"
         d="M 336.03421,46.034207 C 319.47768,46.034207 306,59.442883 306,76 c 0,16.555965 13.47768,29.96579 30.03421,29.96579 C 352.59115,105.96579 366,92.555965 366,76 366,59.442883 352.59115,46.034207 336.03421,46.034207 z m 1.71037,2.873433 c -0.0311,3.781414 -0.48856,8.05253 0.20514,11.767388 1.12654,2.917408 4.03695,5.646398 7.32041,5.678449 1.29415,-0.06533 2.49204,-0.436486 3.48917,-1.231471 2.35291,2.787994 3.73822,5.893438 4.03649,9.509692 l -6.77309,0 c -0.39677,-3.119541 -2.55382,-6.036147 -5.40468,-7.59407 -2.08913,-1.064911 -4.65869,-1.521078 -7.11517,-0.957811 -0.92685,-1.790872 -0.68098,-4.240803 -0.61573,-6.431015 0.39689,-4.080921 2.13851,-7.588341 4.85746,-10.741163 z m 6.29419,7.594071 c 1.69102,-0.263764 3.23968,0.4563 4.1049,1.91562 0.69751,1.127769 0.76973,2.7041 0.20514,3.899658 -0.59654,1.191863 -1.81533,2.093764 -3.07868,2.257697 -1.12652,0.136808 -2.28184,-0.08945 -3.14709,-0.752566 -1.22633,-1.062443 -1.80154,-2.617253 -1.43672,-4.241733 0.3981,-1.491367 1.7932,-2.911053 3.35234,-3.078676 z m -17.7195,5.746863 c 1.22637,1.795802 2.26096,3.822881 3.42075,5.746866 -2.95316,2.519299 -4.15473,6.003795 -3.62599,9.851766 0.46342,2.354141 1.66873,4.461388 3.62599,6.157355 l -3.35233,5.746864 c -3.01725,-1.991776 -5.13129,-5.021239 -6.22577,-8.209806 1.58996,-0.724729 3.12436,-2.349774 3.48916,-4.104903 0.46468,-2.090377 -0.0823,-4.184617 -1.57354,-5.67845 -0.53123,-0.596545 -1.2149,-0.933822 -1.84721,-1.299886 1.02796,-3.085032 3.10127,-6.118197 6.08894,-8.209806 z m -8.55188,9.714937 c 0.41778,0.01073 0.82507,0.08076 1.23147,0.205246 0.99588,0.36483 1.96438,1.265507 2.39453,2.257697 0.59653,1.396461 0.27539,3.181147 -0.75257,4.310149 -0.8295,0.930561 -1.92193,1.302971 -3.14709,1.368301 -1.59242,0 -3.13113,-1.140453 -3.69441,-2.599772 -0.46343,-1.326207 -0.1804,-2.938302 0.61573,-4.036489 0.87079,-1.042725 2.09904,-1.53738 3.35234,-1.505132 z m 28.25542,5.610035 6.70467,0 c -0.30195,3.585444 -1.61703,6.859137 -4.03649,9.578107 -1.56039,-1.159814 -3.88694,-1.650477 -5.74686,-0.820981 -1.6565,0.629825 -3.19215,2.243759 -3.626,3.968073 -0.16398,0.69515 -0.23852,1.462713 -0.20514,2.257698 -3.48435,0.700079 -7.17596,0.230946 -10.12542,-1.163057 0.92932,-1.954799 2.1241,-3.996075 3.28392,-5.952109 3.35249,1.324975 7.54019,0.612344 10.19384,-1.641961 2.05466,-1.692272 3.02883,-3.870396 3.55758,-6.22577 z m -0.82099,10.193842 c 0.36343,-5.47e-4 0.72181,0.03761 1.09465,0.13683 0.96137,0.264995 1.92928,1.01957 2.46294,1.915622 0.79499,1.391531 0.65137,3.356206 -0.34208,4.583809 -1.09571,1.292924 -2.68568,1.730666 -4.31015,1.368301 -1.3262,-0.400574 -2.67374,-1.618734 -2.87343,-3.010263 -0.29829,-1.393996 0.0315,-2.765707 1.02623,-3.762827 0.79313,-0.770025 1.85165,-1.229796 2.94184,-1.231471 z"
         style="opacity:0.2;fill:#000000;fill-opacity:1;fill-rule:nonzero;stroke:none;display:inline;enable-background:new"
         inkscape:connector-curvature="0" />
      <path
         inkscape:connector-curvature="0"
         style="opacity:0.2;fill:#000000;fill-opacity:1;fill-rule:nonzero;stroke:none;display:inline;enable-background:new"
         d="M 320.02281,152.02281 C 308.98512,152.02281 300,160.96192 300,172 c 0,11.03731 8.98512,19.97719 20.02281,19.97719 C 331.06077,191.97719 340,183.03731 340,172 c 0,-11.03808 -8.93923,-19.97719 -19.97719,-19.97719 z m 1.14024,1.91562 c -0.0207,2.52094 -0.3257,5.36835 0.13676,7.84492 0.75103,1.94494 2.6913,3.76427 4.88028,3.78564 0.86276,-0.0436 1.66136,-0.291 2.32611,-0.82099 1.56861,1.85867 2.49215,3.92896 2.69099,6.3398 l -4.51539,0 c -0.26451,-2.0797 -1.70255,-4.0241 -3.60312,-5.06271 -1.39275,-0.70994 -3.10579,-1.01406 -4.74345,-0.63854 -0.6179,-1.19392 -0.45398,-2.82721 -0.41048,-4.28735 0.26459,-2.72061 1.42567,-5.05889 3.2383,-7.16077 z m 4.19613,5.06271 c 1.12735,-0.17584 2.15979,0.3042 2.7366,1.27708 0.46501,0.75185 0.51315,1.80274 0.13676,2.59977 -0.39769,0.79458 -1.21022,1.39585 -2.05245,1.50513 -0.75102,0.0912 -1.52123,-0.0596 -2.09806,-0.50171 -0.81756,-0.70829 -1.20103,-1.74483 -0.95782,-2.82782 0.2654,-0.99424 1.19547,-1.9407 2.2349,-2.05245 z m -11.813,3.83124 c 0.81758,1.1972 1.50731,2.54859 2.2805,3.83125 -1.96877,1.67953 -2.76982,4.00253 -2.41733,6.56784 0.30895,1.56943 1.11249,2.97426 2.41733,4.1049 l -2.23489,3.83125 c -2.0115,-1.32785 -3.42086,-3.34749 -4.15051,-5.47321 1.05997,-0.48315 2.08291,-1.56651 2.32611,-2.7366 0.30978,-1.39358 -0.0549,-2.78974 -1.04903,-3.78563 -0.35415,-0.3977 -0.80993,-0.62255 -1.23147,-0.86659 0.6853,-2.05669 2.06751,-4.0788 4.05929,-5.47321 z m -5.70125,6.47663 c 0.27852,0.007 0.55004,0.0538 0.82098,0.13683 0.66392,0.24322 1.30958,0.84367 1.59635,1.50513 0.39769,0.93098 0.18359,2.12077 -0.50171,2.87343 -0.553,0.62038 -1.28129,0.86865 -2.09806,0.9122 -1.06162,0 -2.08742,-0.7603 -2.46294,-1.73318 -0.30896,-0.88413 -0.12027,-1.95887 0.41048,-2.69099 0.58053,-0.69515 1.39936,-1.02492 2.2349,-1.00342 z m 18.83694,3.74002 4.46978,0 c -0.2013,2.3903 -1.07802,4.57276 -2.69099,6.38541 -1.04026,-0.77321 -2.59129,-1.10032 -3.83124,-0.54732 -1.10433,0.41988 -2.1281,1.49583 -2.41733,2.64538 -0.10932,0.46343 -0.15902,0.97514 -0.13676,1.50513 -2.3229,0.46672 -4.78398,0.15396 -6.75028,-0.77537 0.61954,-1.3032 1.41606,-2.66405 2.18928,-3.96807 2.23499,0.88331 5.02679,0.40823 6.79589,-1.09465 1.36977,-1.12818 2.01922,-2.58026 2.37172,-4.15051 z m -0.54732,6.7959 c 0.24228,-3.7e-4 0.4812,0.0251 0.72976,0.0912 0.64092,0.17666 1.28619,0.67971 1.64196,1.27708 0.53,0.92768 0.43425,2.23747 -0.22805,3.05587 -0.73047,0.86195 -1.79045,1.15378 -2.87343,0.9122 -0.88414,-0.26705 -1.7825,-1.07916 -1.91562,-2.00684 -0.19886,-0.92933 0.021,-1.84381 0.68415,-2.50855 0.52875,-0.51335 1.23443,-0.81987 1.96123,-0.82098 z"
         id="path4524" />
      <path
         inkscape:connector-curvature="0"
         style="opacity:0.2;fill:#000000;fill-opacity:1;fill-rule:nonzero;stroke:none;display:inline;enable-background:new"
         d="M 312.01711,229.0171 C 303.73884,229.0171 297,235.72144 297,244 c 0,8.27798 6.73884,14.9829 15.01711,14.9829 C 320.29557,258.9829 327,252.27798 327,244 c 0,-8.27856 -6.70443,-14.9829 -14.98289,-14.9829 z m 0.85518,1.43672 c -0.0156,1.89071 -0.24428,4.02627 0.10257,5.88369 0.56327,1.45871 2.01847,2.8232 3.6602,2.83923 0.64708,-0.0327 1.24602,-0.21824 1.74459,-0.61574 1.17645,1.394 1.86911,2.94672 2.01824,4.75485 l -3.38654,0 c -0.19839,-1.55977 -1.27691,-3.01807 -2.70234,-3.79704 -1.04457,-0.53245 -2.32935,-0.76053 -3.55759,-0.4789 -0.46342,-0.89544 -0.34049,-2.1204 -0.30786,-3.21551 0.19844,-2.04046 1.06925,-3.79417 2.42873,-5.37058 z m 3.14709,3.79704 c 0.84551,-0.13189 1.61984,0.22815 2.05245,0.95781 0.34876,0.56388 0.38487,1.35205 0.10257,1.94983 -0.29827,0.59593 -0.90766,1.04688 -1.53934,1.12884 -0.56326,0.0684 -1.14092,-0.0447 -1.57354,-0.37628 -0.61317,-0.53122 -0.90077,-1.30863 -0.71836,-2.12087 0.19905,-0.74568 0.8966,-1.45552 1.67617,-1.53933 z m -8.85975,2.87343 c 0.61319,0.8979 1.13049,1.91144 1.71038,2.87343 -1.47658,1.25965 -2.07737,3.0019 -1.813,4.92588 0.23171,1.17707 0.83437,2.2307 1.813,3.07868 l -1.67617,2.87343 c -1.50862,-0.99588 -2.56564,-2.51062 -3.11288,-4.1049 0.79498,-0.36236 1.56218,-1.17489 1.74458,-2.05245 0.23234,-1.04519 -0.0412,-2.09231 -0.78677,-2.83923 -0.26561,-0.29827 -0.60745,-0.46691 -0.9236,-0.64994 0.51397,-1.54252 1.55063,-3.0591 3.04446,-4.1049 z m -4.27594,4.85747 c 0.20889,0.005 0.41254,0.0404 0.61574,0.10262 0.49794,0.18241 0.98219,0.63275 1.19726,1.12885 0.29827,0.69823 0.1377,1.59057 -0.37628,2.15507 -0.41475,0.46528 -0.96096,0.65149 -1.57354,0.68415 -0.79622,0 -1.56557,-0.57022 -1.84721,-1.29988 -0.23171,-0.66311 -0.0902,-1.46915 0.30787,-2.01825 0.43539,-0.52136 1.04951,-0.76869 1.67616,-0.75256 z m 14.12772,2.80501 3.35233,0 c -0.15097,1.79273 -0.80851,3.42957 -2.01824,4.78906 -0.7802,-0.57991 -1.94347,-0.82524 -2.87343,-0.41049 -0.82825,0.31491 -1.59608,1.12188 -1.813,1.98403 -0.082,0.34758 -0.11927,0.73136 -0.10257,1.12885 -1.74218,0.35004 -3.58798,0.11548 -5.06272,-0.58153 0.46467,-0.9774 1.06205,-1.99803 1.64197,-2.97605 1.67624,0.66249 3.77009,0.30617 5.09692,-0.82098 1.02733,-0.84614 1.51441,-1.9352 1.77879,-3.11289 z m -0.4105,5.09692 c 0.18172,-2.7e-4 0.3609,0.0188 0.54732,0.0684 0.48069,0.1325 0.96465,0.50979 1.23148,0.95782 0.39749,0.69576 0.32568,1.6781 -0.17105,2.29191 -0.54785,0.64646 -1.34283,0.86533 -2.15507,0.68415 -0.6631,-0.20029 -1.33687,-0.80937 -1.43671,-1.50514 -0.14915,-0.697 0.0158,-1.38285 0.51311,-1.88141 0.39657,-0.38502 0.92583,-0.6149 1.47092,-0.61574 z"
         id="path4526" />
      <path
         inkscape:connector-curvature="0"
         style="opacity:0.2;fill:#000000;fill-opacity:1;fill-rule:nonzero;stroke:none;display:inline;enable-background:new"
         d="M 432.0114,58.011402 C 426.49256,58.011402 422,62.480961 422,68 c 0,5.518656 4.49256,9.988596 10.0114,9.988596 5.51898,0 9.9886,-4.46994 9.9886,-9.988596 0,-5.519039 -4.46962,-9.988598 -9.9886,-9.988598 z m 0.57013,0.957811 c -0.0104,1.260471 -0.16286,2.684177 0.0684,3.922463 0.37551,0.972469 1.34565,1.882132 2.44013,1.892816 0.43139,-0.02178 0.83068,-0.145494 1.16306,-0.410489 0.7843,0.92933 1.24607,1.964478 1.3455,3.169896 l -2.2577,0 c -0.13226,-1.039847 -0.85127,-2.012048 -1.80156,-2.531357 -0.69638,-0.35497 -1.5529,-0.507026 -2.37172,-0.31927 -0.30895,-0.596956 -0.227,-1.413601 -0.20525,-2.143672 0.1323,-1.360307 0.71284,-2.529447 1.61916,-3.580387 z m 2.09806,2.531357 c 0.56367,-0.08792 1.07989,0.1521 1.3683,0.63854 0.2325,0.375923 0.25658,0.901367 0.0684,1.299886 -0.19885,0.397288 -0.60511,0.697921 -1.02623,0.752567 -0.3755,0.0456 -0.76061,-0.02982 -1.04903,-0.250857 -0.40877,-0.354147 -0.60051,-0.872417 -0.4789,-1.413911 0.1327,-0.497122 0.59773,-0.970351 1.11744,-1.026225 z m -5.9065,1.915621 c 0.40879,0.598601 0.75365,1.274293 1.14025,1.915622 -0.98439,0.839766 -1.38491,2.001265 -1.20866,3.283922 0.15447,0.784714 0.55624,1.487129 1.20866,2.052453 l -1.11744,1.915618 c -1.00575,-0.663923 -1.71043,-1.673745 -2.07526,-2.7366 0.52999,-0.241575 1.04145,-0.783258 1.16305,-1.368301 0.1549,-0.696792 -0.0274,-1.394871 -0.52451,-1.892816 -0.17708,-0.198848 -0.40497,-0.311274 -0.61574,-0.433295 0.34266,-1.028345 1.03376,-2.0394 2.02965,-2.736603 z m -2.85063,3.238313 c 0.13926,0.0036 0.27503,0.02692 0.41049,0.06842 0.33196,0.12161 0.6548,0.421835 0.79818,0.752565 0.19884,0.465487 0.0918,1.060383 -0.25086,1.436717 -0.2765,0.310187 -0.64064,0.434324 -1.04903,0.4561 -0.5308,0 -1.04371,-0.380151 -1.23147,-0.866591 -0.15447,-0.442068 -0.0601,-0.979434 0.20525,-1.345496 0.29026,-0.347574 0.69968,-0.51246 1.11744,-0.501711 z m 9.41848,1.870011 2.23489,0 c -0.10065,1.195148 -0.53901,2.286379 -1.3455,3.192703 -0.52013,-0.386605 -1.29565,-0.55016 -1.91562,-0.273661 -0.55217,0.209941 -1.06405,0.747919 -1.20867,1.322689 -0.0547,0.23172 -0.0795,0.48757 -0.0684,0.75257 -1.16145,0.23336 -2.39198,0.077 -3.37514,-0.38769 0.30978,-0.6516 0.70804,-1.332023 1.09464,-1.984034 1.1175,0.441659 2.5134,0.204115 3.39795,-0.54732 0.68489,-0.564091 1.00961,-1.290132 1.18586,-2.075256 z m -0.27367,3.397947 c 0.12115,-1.82e-4 0.24061,0.01254 0.36489,0.04561 0.32045,0.08833 0.64309,0.339854 0.82098,0.638544 0.26499,0.46384 0.21712,1.11873 -0.11403,1.52793 -0.36524,0.430981 -0.89523,0.57689 -1.43672,0.4561 -0.44206,-0.13352 -0.89124,-0.53957 -0.95781,-1.00342 -0.0994,-0.46466 0.0105,-0.9219 0.34208,-1.25427 0.26438,-0.25668 0.61722,-0.409935 0.98061,-0.410494 z"
         id="path4528" />
      <path
         sodipodi:nodetypes="ccccccccccccccccccccccccccccccccccccccccccccccccccccccccc"
         id="path4530"
         d="m 428.58154,102.96922 c -0.01,1.26047 -0.16287,2.68418 0.0683,3.92246 0.37551,0.97247 1.34565,1.88214 2.44013,1.89282 0.43138,-0.0217 0.83068,-0.1455 1.16306,-0.41048 0.7843,0.92931 1.24607,1.96446 1.3455,3.16988 l -2.2577,0 c -0.13227,-1.03985 -0.85128,-2.01205 -1.80156,-2.53135 -0.69638,-0.35497 -1.5529,-0.50702 -2.37172,-0.31927 -0.30895,-0.59695 -0.227,-1.4136 -0.20525,-2.14368 0.1323,-1.3603 0.71284,-2.52945 1.61916,-3.58038 z m 2.09805,2.53136 c 0.56366,-0.0879 1.07988,0.1521 1.3683,0.63854 0.2325,0.37592 0.25658,0.90136 0.0685,1.29988 -0.19885,0.39729 -0.60512,0.69793 -1.02624,0.75257 -0.3755,0.0455 -0.76061,-0.0297 -1.04903,-0.25085 -0.40877,-0.35415 -0.6005,-0.87243 -0.4789,-1.41392 0.1327,-0.49712 0.59773,-0.97035 1.11745,-1.02622 z m -5.9065,1.91562 c 0.40878,0.5986 0.75366,1.27429 1.14026,1.91562 -0.9844,0.83976 -1.38491,2.00126 -1.20868,3.28392 0.15448,0.78471 0.55626,1.48713 1.20868,2.05245 l -1.11745,1.91562 c -1.00575,-0.66392 -1.71043,-1.67374 -2.07525,-2.73659 0.52999,-0.24158 1.04144,-0.78327 1.16304,-1.3683 0.1549,-0.6968 -0.0275,-1.39488 -0.52452,-1.89283 -0.17707,-0.19884 -0.40495,-0.31126 -0.61572,-0.43329 0.34265,-1.02835 1.03375,-2.0394 2.02964,-2.7366 z m -2.85064,3.23832 c 0.13927,0.004 0.27504,0.0269 0.4105,0.0684 0.33197,0.12163 0.6548,0.42184 0.79819,0.75256 0.19883,0.46549 0.0917,1.06039 -0.25087,1.43673 -0.2765,0.31019 -0.64063,0.43431 -1.04902,0.4561 -0.5308,0 -1.04371,-0.38016 -1.23148,-0.86659 -0.15447,-0.44207 -0.0601,-0.97944 0.20525,-1.3455 0.29025,-0.34759 0.69968,-0.51246 1.11743,-0.5017 z m 9.4185,1.87001 2.23489,0 c -0.10062,1.19514 -0.53901,2.28637 -1.3455,3.1927 -0.52014,-0.38661 -1.29566,-0.55016 -1.91562,-0.27368 -0.55217,0.20995 -1.06407,0.74793 -1.20867,1.3227 -0.0547,0.23172 -0.0795,0.48758 -0.0685,0.75258 -1.16145,0.23335 -2.39198,0.077 -3.37515,-0.3877 0.30979,-0.65159 0.70805,-1.33201 1.09465,-1.98403 1.1175,0.44165 2.5134,0.20412 3.39795,-0.54732 0.68489,-0.5641 1.0096,-1.29013 1.18585,-2.07526 z m -0.27368,3.39794 c 0.12112,-1.8e-4 0.2406,0.0125 0.36488,0.0455 0.32047,0.0884 0.6431,0.33985 0.821,0.63853 0.26499,0.46384 0.2171,1.11873 -0.114,1.52794 -0.36525,0.43098 -0.89524,0.57689 -1.43672,0.4561 -0.44206,-0.13352 -0.89124,-0.53957 -0.95782,-1.00342 -0.0995,-0.46467 0.01,-0.9219 0.34207,-1.25428 0.26441,-0.25667 0.61724,-0.40994 0.98062,-0.41049 z"
         style="opacity:0.2;fill:#000000;fill-opacity:1;fill-rule:nonzero;stroke:none;display:inline;enable-background:new"
         inkscape:connector-curvature="0" />
      <path
         sodipodi:nodetypes="cccccccccccccccccccccccccccccccccccccccccccccccccccccccccc"
         id="path4532"
         d="m 424.40707,141.67845 c -0.007,0.88233 -0.114,1.87892 0.0479,2.74572 0.26286,0.68074 0.94195,1.3175 1.7081,1.32497 0.30197,-0.0152 0.58147,-0.10184 0.81414,-0.28734 0.54901,0.65054 0.87224,1.37514 0.94185,2.21893 l -1.58039,0 c -0.0926,-0.7279 -0.59589,-1.40843 -1.26109,-1.77195 -0.48748,-0.24848 -1.08703,-0.35492 -1.66021,-0.22349 -0.21627,-0.41787 -0.1589,-0.98952 -0.14368,-1.50057 0.0926,-0.95221 0.49899,-1.77062 1.13342,-2.50627 z m 1.46864,1.77195 c 0.39457,-0.0615 0.75592,0.10647 0.95781,0.44698 0.16275,0.26315 0.17961,0.63095 0.0479,0.90992 -0.13919,0.2781 -0.42357,0.48854 -0.71835,0.52679 -0.26285,0.0319 -0.53243,-0.0209 -0.73433,-0.17559 -0.28613,-0.24791 -0.42035,-0.6107 -0.33523,-0.98974 0.0929,-0.34799 0.41842,-0.67925 0.78221,-0.71836 z m -4.13455,1.34093 c 0.28615,0.41902 0.52756,0.89201 0.79818,1.34094 -0.68908,0.58783 -0.96944,1.40088 -0.84607,2.29875 0.10813,0.5493 0.38938,1.04098 0.84607,1.43671 l -0.78221,1.34094 c -0.70403,-0.46475 -1.1973,-1.17163 -1.45268,-1.91562 0.37099,-0.16911 0.72901,-0.54828 0.81413,-0.95782 0.10843,-0.48775 -0.0192,-0.9764 -0.36716,-1.32497 -0.12395,-0.13919 -0.28347,-0.21789 -0.43101,-0.3033 0.23986,-0.71984 0.72363,-1.42758 1.42075,-1.91563 z m -1.99544,2.26682 c 0.0975,0.003 0.19252,0.0188 0.28735,0.0479 0.23237,0.0851 0.45835,0.29529 0.55872,0.52681 0.13919,0.32583 0.0642,0.74226 -0.1756,1.00569 -0.19355,0.21714 -0.44845,0.30403 -0.73432,0.31927 -0.37156,0 -0.7306,-0.2661 -0.86203,-0.60661 -0.10813,-0.30945 -0.0421,-0.6856 0.14368,-0.94185 0.20317,-0.2433 0.48977,-0.35872 0.7822,-0.3512 z m 6.59294,1.30901 1.56442,0 c -0.0704,0.8366 -0.3773,1.60047 -0.94185,2.23489 -0.36409,-0.27062 -0.90696,-0.38511 -1.34093,-0.19156 -0.38652,0.14696 -0.74484,0.52354 -0.84607,0.92589 -0.0383,0.16219 -0.0557,0.34129 -0.0479,0.52679 -0.81301,0.16335 -1.67438,0.0539 -2.36259,-0.27138 0.21684,-0.45612 0.49562,-0.93242 0.76624,-1.38883 0.78225,0.30917 1.75938,0.14289 2.37857,-0.38312 0.47942,-0.39486 0.70673,-0.90309 0.8301,-1.45268 z m -0.19157,2.37856 c 0.0848,-1.3e-4 0.16842,0.009 0.25542,0.0319 0.22432,0.0619 0.45016,0.2379 0.57469,0.44699 0.18549,0.32468 0.15198,0.7831 -0.0798,1.06954 -0.25567,0.30169 -0.62667,0.40383 -1.00571,0.31927 -0.30945,-0.0935 -0.62387,-0.3777 -0.67047,-0.70239 -0.0696,-0.32526 0.007,-0.64533 0.23946,-0.87799 0.18506,-0.17968 0.43205,-0.28695 0.68643,-0.28735 z"
         style="opacity:0.2;fill:#000000;fill-opacity:1;fill-rule:nonzero;stroke:none;display:inline;enable-background:new"
         inkscape:connector-curvature="0" />
      <path
         inkscape:connector-curvature="0"
         style="opacity:0.2;fill:#000000;fill-opacity:1;fill-rule:nonzero;stroke:none;display:inline;enable-background:new"
         d="M 144.08552,81.08552 C 102.6942,81.08552 69,114.60721 69,156.00001 c 0,41.38991 33.6942,74.91447 75.08552,74.91447 41.39236,0 74.91448,-33.52456 74.91448,-74.91447 0,-41.3928 -33.52212,-74.91449 -74.91448,-74.91449 z m 4.27593,7.183582 c -0.0777,9.453537 -1.2214,20.131328 0.51285,29.418478 2.81635,7.29351 10.09237,14.11599 18.30102,14.19612 3.23538,-0.16333 6.2301,-1.09122 8.72293,-3.07868 5.88227,6.96999 9.34555,14.73359 10.09122,23.77423 l -16.93272,0 c -0.99193,-7.79885 -6.38455,-15.09037 -13.5117,-18.98518 -5.22283,-2.66227 -11.64673,-3.80269 -17.78793,-2.39452 -2.31712,-4.47718 -1.70245,-10.60201 -1.53932,-16.07754 0.99222,-10.2023 5.34627,-18.970854 12.14365,-26.852908 z m 15.73548,18.985178 c 4.22754,-0.65941 8.0992,1.14075 10.26224,4.78905 1.74378,2.81943 1.92433,6.76025 0.51285,9.74915 -1.49135,2.97966 -4.53832,5.23441 -7.6967,5.64424 -2.8163,0.34202 -5.7046,-0.22363 -7.86772,-1.88141 -3.06583,-2.65611 -4.50385,-6.54314 -3.5918,-10.60434 0.99525,-3.72841 4.483,-7.27763 8.38085,-7.69669 z m -44.29875,14.36716 c 3.06592,4.48951 5.6524,9.5572 8.55187,14.36716 -7.3829,6.29825 -10.38682,15.00949 -9.06498,24.62942 1.15855,5.88535 4.17183,11.15347 9.06498,15.39339 l -8.38082,14.36716 c -7.54313,-4.97944 -12.82823,-12.5531 -15.56443,-20.52452 3.9749,-1.81182 7.8109,-5.87443 8.7229,-10.26225 1.1617,-5.22595 -0.20575,-10.46155 -3.93385,-14.19613 -1.32807,-1.49136 -3.03725,-2.33456 -4.61802,-3.24971 2.5699,-7.71259 7.75317,-15.2955 15.22235,-20.52452 z m -21.3797,24.28734 c 1.04445,0.0268 2.06267,0.2019 3.07867,0.51312 2.4897,0.91207 4.91095,3.16377 5.98632,5.64424 1.49133,3.49115 0.68848,7.95287 -1.88142,10.77537 -2.07375,2.32641 -4.80482,3.25743 -7.86772,3.42075 -3.98105,0 -7.82783,-2.85113 -9.23603,-6.49943 -1.15857,-3.31551 -0.451,-7.34575 1.53933,-10.09122 2.17697,-2.60681 5.2476,-3.84345 8.38085,-3.76283 z m 70.63855,14.02509 16.76167,0 c -0.75487,8.96361 -4.04257,17.14784 -10.09122,23.94527 -3.90098,-2.89954 -9.71735,-4.1262 -14.36715,-2.05245 -4.14125,1.57456 -7.98038,5.60939 -9.065,9.92018 -0.40995,1.73787 -0.5963,3.65678 -0.51285,5.64424 -8.71088,1.7502 -17.9399,0.57737 -25.31355,-2.90764 2.3233,-4.887 5.31025,-9.99019 8.2098,-14.88027 8.38122,3.31244 18.85047,1.53086 25.4846,-4.10491 5.13665,-4.23068 7.57207,-9.67599 8.89395,-15.56442 z m -2.05248,25.48461 c 0.90858,-10e-4 1.80453,0.094 2.73663,0.34207 2.40342,0.66249 4.8232,2.54892 6.15735,4.78906 1.98747,3.47882 1.62842,8.39051 -0.8552,11.45952 -2.73928,3.23231 -6.7142,4.32666 -10.77538,3.42075 -3.3155,-1.00143 -6.68435,-4.04683 -7.18357,-7.52566 -0.74573,-3.48499 0.0788,-6.91427 2.56557,-9.40707 1.98283,-1.92506 4.62913,-3.07449 7.3546,-3.07867 z"
         id="path4534" />
      <path
         inkscape:connector-curvature="0"
         style="fill:#ffffff;fill-opacity:1;fill-rule:nonzero;stroke:none;display:inline;enable-background:new"
         d="M 336.03421,45.034107 C 319.47768,45.034107 306,58.442783 306,74.9999 c 0,16.555965 13.47768,29.96579 30.03421,29.96579 C 352.59115,104.96569 366,91.555865 366,74.9999 366,58.442783 352.59115,45.034107 336.03421,45.034107 z m 1.71037,2.873432 c -0.0311,3.781415 -0.48856,8.052531 0.20514,11.767389 1.12654,2.917409 4.03695,5.646398 7.32041,5.678449 1.29415,-0.06533 2.49204,-0.436486 3.48917,-1.231471 2.35291,2.787994 3.73822,5.893437 4.03649,9.509692 l -6.77309,0 c -0.39677,-3.119542 -2.55382,-6.036147 -5.40468,-7.59407 -2.08913,-1.064911 -4.65869,-1.521078 -7.11517,-0.957811 -0.92685,-1.790872 -0.68098,-4.240802 -0.61573,-6.431015 0.39689,-4.080921 2.13851,-7.588341 4.85746,-10.741163 z m 6.29419,7.594071 c 1.69102,-0.263763 3.23968,0.456301 4.1049,1.915621 0.69751,1.127769 0.76973,2.7041 0.20514,3.899659 -0.59654,1.191862 -1.81533,2.093763 -3.07868,2.257696 -1.12652,0.136808 -2.28184,-0.08945 -3.14709,-0.752566 -1.22633,-1.062443 -1.80154,-2.617252 -1.43672,-4.241733 0.3981,-1.491367 1.7932,-2.911052 3.35234,-3.078677 z m -17.7195,5.746864 c 1.22637,1.795802 2.26096,3.82288 3.42075,5.746865 -2.95316,2.5193 -4.15473,6.003796 -3.62599,9.851767 0.46342,2.354141 1.66873,4.461388 3.62599,6.157355 l -3.35233,5.746865 c -3.01725,-1.991777 -5.13129,-5.02124 -6.22577,-8.209807 1.58996,-0.724729 3.12436,-2.349774 3.48916,-4.104903 0.46468,-2.090377 -0.0823,-4.184617 -1.57354,-5.678449 -0.53123,-0.596547 -1.2149,-0.933823 -1.84721,-1.299887 1.02796,-3.085031 3.10127,-6.118197 6.08894,-8.209806 z m -8.55188,9.714938 c 0.41778,0.01073 0.82507,0.08076 1.23147,0.205245 0.99588,0.364831 1.96438,1.265507 2.39453,2.257697 0.59653,1.396462 0.27539,3.181146 -0.75257,4.310148 -0.8295,0.930562 -1.92193,1.302972 -3.14709,1.368302 -1.59242,0 -3.13113,-1.140453 -3.69441,-2.599773 -0.46343,-1.326205 -0.1804,-2.9383 0.61573,-4.036488 0.87079,-1.042725 2.09904,-1.53738 3.35234,-1.505132 z m 28.25542,5.610035 6.70467,0 c -0.30195,3.585442 -1.61703,6.859136 -4.03649,9.578107 -1.56039,-1.159815 -3.88694,-1.650479 -5.74686,-0.820981 -1.6565,0.629824 -3.19215,2.243758 -3.626,3.968072 -0.16398,0.695151 -0.23852,1.462713 -0.20514,2.257697 -3.48435,0.70008 -7.17596,0.230947 -10.12542,-1.163055 0.92932,-1.954799 2.1241,-3.996077 3.28392,-5.952109 3.35249,1.324975 7.54019,0.612344 10.19384,-1.641962 2.05466,-1.692273 3.02883,-3.870396 3.55758,-6.225769 z m -0.82099,10.193842 c 0.36343,-5.48e-4 0.72181,0.03761 1.09465,0.136829 0.96137,0.264995 1.92928,1.019569 2.46294,1.915622 0.79499,1.391531 0.65137,3.356206 -0.34208,4.583808 -1.09571,1.292924 -2.68568,1.730667 -4.31015,1.368302 -1.3262,-0.400574 -2.67374,-1.618733 -2.87343,-3.010262 -0.29829,-1.393997 0.0315,-2.765709 1.02623,-3.762828 0.79313,-0.770025 1.85165,-1.229796 2.94184,-1.231471 z"
         id="roundel" />
      <path
         id="path4471"
         d="m 320.02281,151.02271 c -11.03769,0 -20.02281,8.93911 -20.02281,19.97719 0,11.03731 8.98512,19.97719 20.02281,19.97719 11.03796,0 19.97719,-8.93988 19.97719,-19.97719 0,-11.03808 -8.93923,-19.97719 -19.97719,-19.97719 z m 1.14024,1.91562 c -0.0207,2.52094 -0.3257,5.36835 0.13676,7.84492 0.75103,1.94494 2.6913,3.76427 4.88028,3.78564 0.86276,-0.0436 1.66136,-0.291 2.32611,-0.82099 1.56861,1.85867 2.49215,3.92896 2.69099,6.3398 l -4.51539,0 c -0.26451,-2.0797 -1.70255,-4.0241 -3.60312,-5.06271 -1.39275,-0.70994 -3.10579,-1.01406 -4.74345,-0.63854 -0.6179,-1.19392 -0.45398,-2.82721 -0.41048,-4.28735 0.26459,-2.72061 1.42567,-5.05889 3.2383,-7.16077 z m 4.19613,5.06271 c 1.12735,-0.17584 2.15979,0.3042 2.7366,1.27708 0.46501,0.75185 0.51315,1.80274 0.13676,2.59977 -0.39769,0.79458 -1.21022,1.39585 -2.05245,1.50513 -0.75102,0.0912 -1.52123,-0.0596 -2.09806,-0.50171 -0.81756,-0.70829 -1.20103,-1.74483 -0.95782,-2.82782 0.2654,-0.99424 1.19547,-1.9407 2.2349,-2.05245 z m -11.813,3.83124 c 0.81758,1.1972 1.50731,2.54859 2.2805,3.83125 -1.96877,1.67953 -2.76982,4.00253 -2.41733,6.56784 0.30895,1.56943 1.11249,2.97426 2.41733,4.1049 l -2.23489,3.83125 c -2.0115,-1.32785 -3.42086,-3.34749 -4.15051,-5.47321 1.05997,-0.48315 2.08291,-1.56651 2.32611,-2.7366 0.30978,-1.39358 -0.0549,-2.78974 -1.04903,-3.78563 -0.35415,-0.3977 -0.80993,-0.62255 -1.23147,-0.86659 0.6853,-2.05669 2.06751,-4.0788 4.05929,-5.47321 z m -5.70125,6.47663 c 0.27852,0.007 0.55004,0.0538 0.82098,0.13683 0.66392,0.24322 1.30958,0.84367 1.59635,1.50513 0.39769,0.93098 0.18359,2.12077 -0.50171,2.87343 -0.553,0.62038 -1.28129,0.86865 -2.09806,0.9122 -1.06162,0 -2.08742,-0.7603 -2.46294,-1.73318 -0.30896,-0.88413 -0.12027,-1.95887 0.41048,-2.69099 0.58053,-0.69515 1.39936,-1.02492 2.2349,-1.00342 z m 18.83694,3.74002 4.46978,0 c -0.2013,2.3903 -1.07802,4.57276 -2.69099,6.38541 -1.04026,-0.77321 -2.59129,-1.10032 -3.83124,-0.54732 -1.10433,0.41988 -2.1281,1.49583 -2.41733,2.64538 -0.10932,0.46343 -0.15902,0.97514 -0.13676,1.50513 -2.3229,0.46672 -4.78398,0.15396 -6.75028,-0.77537 0.61954,-1.3032 1.41606,-2.66405 2.18928,-3.96807 2.23499,0.88331 5.02679,0.40823 6.79589,-1.09465 1.36977,-1.12818 2.01922,-2.58026 2.37172,-4.15051 z m -0.54732,6.7959 c 0.24228,-3.7e-4 0.4812,0.0251 0.72976,0.0912 0.64092,0.17666 1.28619,0.67971 1.64196,1.27708 0.53,0.92768 0.43425,2.23747 -0.22805,3.05587 -0.73047,0.86195 -1.79045,1.15378 -2.87343,0.9122 -0.88414,-0.26705 -1.7825,-1.07916 -1.91562,-2.00684 -0.19886,-0.92933 0.021,-1.84381 0.68415,-2.50855 0.52875,-0.51335 1.23443,-0.81987 1.96123,-0.82098 z"
         style="fill:#ffffff;fill-opacity:1;fill-rule:nonzero;stroke:none;display:inline;enable-background:new"
         inkscape:connector-curvature="0" />
      <path
         id="path4473"
         d="m 312.01711,228.017 c -8.27827,0 -15.01711,6.70434 -15.01711,14.9829 0,8.27798 6.73884,14.9829 15.01711,14.9829 8.27846,0 14.98289,-6.70492 14.98289,-14.9829 0,-8.27856 -6.70443,-14.9829 -14.98289,-14.9829 z m 0.85518,1.43672 c -0.0156,1.89071 -0.24428,4.02627 0.10257,5.88369 0.56327,1.45871 2.01847,2.8232 3.6602,2.83923 0.64708,-0.0327 1.24602,-0.21824 1.74459,-0.61574 1.17645,1.394 1.86911,2.94672 2.01824,4.75485 l -3.38654,0 c -0.19839,-1.55977 -1.27691,-3.01807 -2.70234,-3.79704 -1.04457,-0.53245 -2.32935,-0.76053 -3.55759,-0.4789 -0.46342,-0.89544 -0.34049,-2.1204 -0.30786,-3.21551 0.19844,-2.04046 1.06925,-3.79417 2.42873,-5.37058 z m 3.14709,3.79704 c 0.84551,-0.13189 1.61984,0.22815 2.05245,0.95781 0.34876,0.56388 0.38487,1.35205 0.10257,1.94983 -0.29827,0.59593 -0.90766,1.04688 -1.53934,1.12884 -0.56326,0.0684 -1.14092,-0.0447 -1.57354,-0.37628 -0.61317,-0.53122 -0.90077,-1.30863 -0.71836,-2.12087 0.19905,-0.74568 0.8966,-1.45552 1.67617,-1.53933 z m -8.85975,2.87343 c 0.61319,0.8979 1.13049,1.91144 1.71038,2.87343 -1.47658,1.25965 -2.07737,3.0019 -1.813,4.92588 0.23171,1.17707 0.83437,2.2307 1.813,3.07868 l -1.67617,2.87343 c -1.50862,-0.99588 -2.56564,-2.51062 -3.11288,-4.1049 0.79498,-0.36236 1.56218,-1.17489 1.74458,-2.05245 0.23234,-1.04519 -0.0412,-2.09231 -0.78677,-2.83923 -0.26561,-0.29827 -0.60745,-0.46691 -0.9236,-0.64994 0.51397,-1.54252 1.55063,-3.0591 3.04446,-4.1049 z m -4.27594,4.85747 c 0.20889,0.005 0.41254,0.0404 0.61574,0.10262 0.49794,0.18241 0.98219,0.63275 1.19726,1.12885 0.29827,0.69823 0.1377,1.59057 -0.37628,2.15507 -0.41475,0.46528 -0.96096,0.65149 -1.57354,0.68415 -0.79622,0 -1.56557,-0.57022 -1.84721,-1.29988 -0.23171,-0.66311 -0.0902,-1.46915 0.30787,-2.01825 0.43539,-0.52136 1.04951,-0.76869 1.67616,-0.75256 z m 14.12772,2.80501 3.35233,0 c -0.15097,1.79273 -0.80851,3.42957 -2.01824,4.78906 -0.7802,-0.57991 -1.94347,-0.82524 -2.87343,-0.41049 -0.82825,0.31491 -1.59608,1.12188 -1.813,1.98403 -0.082,0.34758 -0.11927,0.73136 -0.10257,1.12885 -1.74218,0.35004 -3.58798,0.11548 -5.06272,-0.58153 0.46467,-0.9774 1.06205,-1.99803 1.64197,-2.97605 1.67624,0.66249 3.77009,0.30617 5.09692,-0.82098 1.02733,-0.84614 1.51441,-1.9352 1.77879,-3.11289 z m -0.4105,5.09692 c 0.18172,-2.7e-4 0.3609,0.0188 0.54732,0.0684 0.48069,0.1325 0.96465,0.50979 1.23148,0.95782 0.39749,0.69576 0.32568,1.6781 -0.17105,2.29191 -0.54785,0.64646 -1.34283,0.86533 -2.15507,0.68415 -0.6631,-0.20029 -1.33687,-0.80937 -1.43671,-1.50514 -0.14915,-0.697 0.0158,-1.38285 0.51311,-1.88141 0.39657,-0.38502 0.92583,-0.6149 1.47092,-0.61574 z"
         style="fill:#ffffff;fill-opacity:1;fill-rule:nonzero;stroke:none;display:inline;enable-background:new"
         inkscape:connector-curvature="0" />
      <path
         id="path4496"
         d="m 432.0114,57.011302 c -5.51884,0 -10.0114,4.469559 -10.0114,9.988598 0,5.518657 4.49256,9.988596 10.0114,9.988596 5.51898,0 9.9886,-4.46994 9.9886,-9.988596 0,-5.519039 -4.46962,-9.988598 -9.9886,-9.988598 z m 0.57013,0.957811 c -0.0104,1.260472 -0.16286,2.684177 0.0684,3.922463 0.37551,0.972469 1.34565,1.882132 2.44013,1.892816 0.43139,-0.02178 0.83068,-0.145495 1.16306,-0.41049 0.7843,0.929332 1.24607,1.964479 1.3455,3.169898 l -2.2577,0 c -0.13226,-1.039848 -0.85127,-2.01205 -1.80156,-2.531358 -0.69638,-0.35497 -1.5529,-0.507026 -2.37172,-0.31927 -0.30895,-0.596957 -0.227,-1.413601 -0.20525,-2.143672 0.1323,-1.360306 0.71284,-2.529447 1.61916,-3.580387 z m 2.09806,2.531357 c 0.56367,-0.08792 1.07989,0.1521 1.3683,0.63854 0.2325,0.375923 0.25658,0.901367 0.0684,1.299886 -0.19885,0.397288 -0.60511,0.697921 -1.02623,0.752566 -0.3755,0.0456 -0.76061,-0.02982 -1.04903,-0.250856 -0.40877,-0.354147 -0.60051,-0.872417 -0.4789,-1.413911 0.1327,-0.497122 0.59773,-0.970351 1.11744,-1.026225 z m -5.9065,1.915621 c 0.40879,0.598601 0.75365,1.274293 1.14025,1.915622 -0.98439,0.839767 -1.38491,2.001265 -1.20866,3.283922 0.15447,0.784715 0.55624,1.487129 1.20866,2.052452 l -1.11744,1.91562 c -1.00575,-0.663924 -1.71043,-1.673746 -2.07526,-2.736601 0.52999,-0.241576 1.04145,-0.783257 1.16305,-1.368301 0.1549,-0.696791 -0.0274,-1.394872 -0.52451,-1.892817 -0.17708,-0.198848 -0.40497,-0.311273 -0.61574,-0.433295 0.34266,-1.028344 1.03376,-2.039399 2.02965,-2.736602 z m -2.85063,3.238312 c 0.13926,0.0036 0.27503,0.02692 0.41049,0.06842 0.33196,0.121609 0.6548,0.421834 0.79818,0.752564 0.19884,0.465488 0.0918,1.060382 -0.25086,1.436716 -0.2765,0.310188 -0.64064,0.434325 -1.04903,0.456102 -0.5308,0 -1.04371,-0.380151 -1.23147,-0.866591 -0.15447,-0.44207 -0.0601,-0.979434 0.20525,-1.345497 0.29026,-0.347575 0.69968,-0.51246 1.11744,-0.501711 z m 9.41848,1.870013 2.23489,0 c -0.10065,1.195147 -0.53901,2.286378 -1.3455,3.192701 -0.52013,-0.386604 -1.29565,-0.550159 -1.91562,-0.27366 -0.55217,0.209941 -1.06405,0.747919 -1.20867,1.322689 -0.0547,0.23172 -0.0795,0.48757 -0.0684,0.75257 -1.16145,0.23336 -2.39198,0.077 -3.37514,-0.387689 0.30978,-0.6516 0.70804,-1.332024 1.09464,-1.984035 1.1175,0.441658 2.5134,0.204115 3.39795,-0.547321 0.68489,-0.564089 1.00961,-1.290132 1.18586,-2.075255 z m -0.27367,3.397946 c 0.12115,-1.82e-4 0.24061,0.01254 0.36489,0.04561 0.32045,0.08833 0.64309,0.339854 0.82098,0.638543 0.26499,0.463841 0.21712,1.11873 -0.11403,1.52793 -0.36524,0.43098 -0.89523,0.576891 -1.43672,0.4561 -0.44206,-0.13352 -0.89124,-0.53957 -0.95781,-1.00342 -0.0994,-0.464659 0.0105,-0.9219 0.34208,-1.25427 0.26438,-0.256679 0.61722,-0.409935 0.98061,-0.410494 z"
         style="fill:#ffffff;fill-opacity:1;fill-rule:nonzero;stroke:none;display:inline;enable-background:new"
         inkscape:connector-curvature="0" />
      <path
         inkscape:connector-curvature="0"
         style="fill:#ffffff;fill-opacity:1;fill-rule:nonzero;stroke:none;display:inline;enable-background:new"
         d="m 428.58154,101.96912 c -0.01,1.26047 -0.16287,2.68418 0.0683,3.92246 0.37551,0.97247 1.34565,1.88214 2.44013,1.89282 0.43138,-0.0217 0.83068,-0.1455 1.16306,-0.41048 0.7843,0.92931 1.24607,1.96446 1.3455,3.16988 l -2.2577,0 c -0.13227,-1.03985 -0.85128,-2.01205 -1.80156,-2.53135 -0.69638,-0.35497 -1.5529,-0.50702 -2.37172,-0.31927 -0.30895,-0.59695 -0.227,-1.4136 -0.20525,-2.14368 0.1323,-1.3603 0.71284,-2.52945 1.61916,-3.58038 z m 2.09805,2.53136 c 0.56366,-0.0879 1.07988,0.1521 1.3683,0.63854 0.2325,0.37592 0.25658,0.90136 0.0685,1.29988 -0.19885,0.39729 -0.60512,0.69793 -1.02624,0.75257 -0.3755,0.0455 -0.76061,-0.0297 -1.04903,-0.25085 -0.40877,-0.35415 -0.6005,-0.87243 -0.4789,-1.41392 0.1327,-0.49712 0.59773,-0.97035 1.11745,-1.02622 z m -5.9065,1.91562 c 0.40878,0.5986 0.75366,1.27429 1.14026,1.91562 -0.9844,0.83976 -1.38491,2.00126 -1.20868,3.28392 0.15448,0.78471 0.55626,1.48713 1.20868,2.05245 l -1.11745,1.91562 c -1.00575,-0.66392 -1.71043,-1.67374 -2.07525,-2.73659 0.52999,-0.24158 1.04144,-0.78327 1.16304,-1.3683 0.1549,-0.6968 -0.0275,-1.39488 -0.52452,-1.89283 -0.17707,-0.19884 -0.40495,-0.31126 -0.61572,-0.43329 0.34265,-1.02835 1.03375,-2.0394 2.02964,-2.7366 z m -2.85064,3.23832 c 0.13927,0.004 0.27504,0.0269 0.4105,0.0684 0.33197,0.12163 0.6548,0.42184 0.79819,0.75256 0.19883,0.46549 0.0917,1.06039 -0.25087,1.43673 -0.2765,0.31019 -0.64063,0.43431 -1.04902,0.4561 -0.5308,0 -1.04371,-0.38016 -1.23148,-0.86659 -0.15447,-0.44207 -0.0601,-0.97944 0.20525,-1.3455 0.29025,-0.34759 0.69968,-0.51246 1.11743,-0.5017 z m 9.4185,1.87001 2.23489,0 c -0.10062,1.19514 -0.53901,2.28637 -1.3455,3.1927 -0.52014,-0.38661 -1.29566,-0.55016 -1.91562,-0.27368 -0.55217,0.20995 -1.06407,0.74793 -1.20867,1.3227 -0.0547,0.23172 -0.0795,0.48758 -0.0685,0.75258 -1.16145,0.23335 -2.39198,0.077 -3.37515,-0.3877 0.30979,-0.65159 0.70805,-1.33201 1.09465,-1.98403 1.1175,0.44165 2.5134,0.20412 3.39795,-0.54732 0.68489,-0.5641 1.0096,-1.29013 1.18585,-2.07526 z m -0.27368,3.39794 c 0.12112,-1.8e-4 0.2406,0.0125 0.36488,0.0455 0.32047,0.0884 0.6431,0.33985 0.821,0.63853 0.26499,0.46384 0.2171,1.11873 -0.114,1.52794 -0.36525,0.43098 -0.89524,0.57689 -1.43672,0.4561 -0.44206,-0.13352 -0.89124,-0.53957 -0.95782,-1.00342 -0.0995,-0.46467 0.01,-0.9219 0.34207,-1.25428 0.26441,-0.25667 0.61724,-0.40994 0.98062,-0.41049 z"
         id="path4498"
         sodipodi:nodetypes="ccccccccccccccccccccccccccccccccccccccccccccccccccccccccc" />
      <path
         inkscape:connector-curvature="0"
         style="fill:#ffffff;fill-opacity:1;fill-rule:nonzero;stroke:none;display:inline;enable-background:new"
         d="m 424.40707,140.67835 c -0.007,0.88233 -0.114,1.87892 0.0479,2.74572 0.26286,0.68074 0.94195,1.3175 1.7081,1.32497 0.30197,-0.0152 0.58147,-0.10184 0.81414,-0.28734 0.54901,0.65054 0.87224,1.37514 0.94185,2.21893 l -1.58039,0 c -0.0926,-0.7279 -0.59589,-1.40843 -1.26109,-1.77195 -0.48748,-0.24848 -1.08703,-0.35492 -1.66021,-0.22349 -0.21627,-0.41787 -0.1589,-0.98952 -0.14368,-1.50057 0.0926,-0.95221 0.49899,-1.77062 1.13342,-2.50627 z m 1.46864,1.77195 c 0.39457,-0.0615 0.75592,0.10647 0.95781,0.44698 0.16275,0.26315 0.17961,0.63095 0.0479,0.90992 -0.13919,0.2781 -0.42357,0.48854 -0.71835,0.52679 -0.26285,0.0319 -0.53243,-0.0209 -0.73433,-0.17559 -0.28613,-0.24791 -0.42035,-0.6107 -0.33523,-0.98974 0.0929,-0.34799 0.41842,-0.67925 0.78221,-0.71836 z m -4.13455,1.34093 c 0.28615,0.41902 0.52756,0.89201 0.79818,1.34094 -0.68908,0.58783 -0.96944,1.40088 -0.84607,2.29875 0.10813,0.5493 0.38938,1.04098 0.84607,1.43671 l -0.78221,1.34094 c -0.70403,-0.46475 -1.1973,-1.17163 -1.45268,-1.91562 0.37099,-0.16911 0.72901,-0.54828 0.81413,-0.95782 0.10843,-0.48775 -0.0192,-0.9764 -0.36716,-1.32497 -0.12395,-0.13919 -0.28347,-0.21789 -0.43101,-0.3033 0.23986,-0.71984 0.72363,-1.42758 1.42075,-1.91563 z m -1.99544,2.26682 c 0.0975,0.003 0.19252,0.0188 0.28735,0.0479 0.23237,0.0851 0.45835,0.29529 0.55872,0.52681 0.13919,0.32583 0.0642,0.74226 -0.1756,1.00569 -0.19355,0.21714 -0.44845,0.30403 -0.73432,0.31927 -0.37156,0 -0.7306,-0.2661 -0.86203,-0.60661 -0.10813,-0.30945 -0.0421,-0.6856 0.14368,-0.94185 0.20317,-0.2433 0.48977,-0.35872 0.7822,-0.3512 z m 6.59294,1.30901 1.56442,0 c -0.0704,0.8366 -0.3773,1.60047 -0.94185,2.23489 -0.36409,-0.27062 -0.90696,-0.38511 -1.34093,-0.19156 -0.38652,0.14696 -0.74484,0.52354 -0.84607,0.92589 -0.0383,0.16219 -0.0557,0.34129 -0.0479,0.52679 -0.81301,0.16335 -1.67438,0.0539 -2.36259,-0.27138 0.21684,-0.45612 0.49562,-0.93242 0.76624,-1.38883 0.78225,0.30917 1.75938,0.14289 2.37857,-0.38312 0.47942,-0.39486 0.70673,-0.90309 0.8301,-1.45268 z m -0.19157,2.37856 c 0.0848,-1.3e-4 0.16842,0.009 0.25542,0.0319 0.22432,0.0619 0.45016,0.2379 0.57469,0.44699 0.18549,0.32468 0.15198,0.7831 -0.0798,1.06954 -0.25567,0.30169 -0.62667,0.40383 -1.00571,0.31927 -0.30945,-0.0935 -0.62387,-0.3777 -0.67047,-0.70239 -0.0696,-0.32526 0.007,-0.64533 0.23946,-0.87799 0.18506,-0.17968 0.43205,-0.28695 0.68643,-0.28735 z"
         id="path4500"
         sodipodi:nodetypes="cccccccccccccccccccccccccccccccccccccccccccccccccccccccccc" />
      <path
         id="path4520"
         d="M 144.08552,80.08542 C 102.6942,80.08542 69,113.60711 69,154.99991 c 0,41.38991 33.6942,74.91447 75.08552,74.91447 41.39236,0 74.91448,-33.52456 74.91448,-74.91447 0,-41.3928 -33.52212,-74.91449 -74.91448,-74.91449 z m 4.27593,7.183582 c -0.0777,9.453537 -1.2214,20.131328 0.51285,29.418478 2.81635,7.29351 10.09237,14.11599 18.30102,14.19612 3.23538,-0.16333 6.2301,-1.09122 8.72293,-3.07868 5.88227,6.96999 9.34555,14.73359 10.09122,23.77423 l -16.93272,0 c -0.99193,-7.79885 -6.38455,-15.09037 -13.5117,-18.98518 -5.22283,-2.66227 -11.64673,-3.80269 -17.78793,-2.39452 -2.31712,-4.47718 -1.70245,-10.60201 -1.53932,-16.07754 0.99222,-10.2023 5.34627,-18.970854 12.14365,-26.852908 z m 15.73548,18.985178 c 4.22754,-0.65941 8.0992,1.14075 10.26224,4.78905 1.74378,2.81943 1.92433,6.76025 0.51285,9.74915 -1.49135,2.97966 -4.53832,5.23441 -7.6967,5.64424 -2.8163,0.34202 -5.7046,-0.22363 -7.86772,-1.88141 -3.06583,-2.65611 -4.50385,-6.54314 -3.5918,-10.60434 0.99525,-3.72841 4.483,-7.27763 8.38085,-7.69669 z m -44.29875,14.36716 c 3.06592,4.48951 5.6524,9.5572 8.55187,14.36716 -7.3829,6.29825 -10.38682,15.00949 -9.06498,24.62942 1.15855,5.88535 4.17183,11.15347 9.06498,15.39339 l -8.38082,14.36716 c -7.54313,-4.97944 -12.82823,-12.5531 -15.56443,-20.52452 3.9749,-1.81182 7.8109,-5.87443 8.7229,-10.26225 1.1617,-5.22595 -0.20575,-10.46155 -3.93385,-14.19613 -1.32807,-1.49136 -3.03725,-2.33456 -4.61802,-3.24971 2.5699,-7.71259 7.75317,-15.2955 15.22235,-20.52452 z m -21.3797,24.28734 c 1.04445,0.0268 2.06267,0.2019 3.07867,0.51312 2.4897,0.91207 4.91095,3.16377 5.98632,5.64424 1.49133,3.49115 0.68848,7.95287 -1.88142,10.77537 -2.07375,2.32641 -4.80482,3.25743 -7.86772,3.42075 -3.98105,0 -7.82783,-2.85113 -9.23603,-6.49943 -1.15857,-3.31551 -0.451,-7.34575 1.53933,-10.09122 2.17697,-2.60681 5.2476,-3.84345 8.38085,-3.76283 z m 70.63855,14.02509 16.76167,0 c -0.75487,8.96361 -4.04257,17.14784 -10.09122,23.94527 -3.90098,-2.89954 -9.71735,-4.1262 -14.36715,-2.05245 -4.14125,1.57456 -7.98038,5.60939 -9.065,9.92018 -0.40995,1.73787 -0.5963,3.65678 -0.51285,5.64424 -8.71088,1.7502 -17.9399,0.57737 -25.31355,-2.90764 2.3233,-4.887 5.31025,-9.99019 8.2098,-14.88027 8.38122,3.31244 18.85047,1.53086 25.4846,-4.10491 5.13665,-4.23068 7.57207,-9.67599 8.89395,-15.56442 z m -2.05248,25.48461 c 0.90858,-0.001 1.80453,0.094 2.73663,0.34207 2.40342,0.66249 4.8232,2.54892 6.15735,4.78906 1.98747,3.47882 1.62842,8.39051 -0.8552,11.45952 -2.73928,3.23231 -6.7142,4.32666 -10.77538,3.42075 -3.3155,-1.00143 -6.68435,-4.04683 -7.18357,-7.52566 -0.74573,-3.48499 0.0788,-6.91427 2.56557,-9.40707 1.98283,-1.92506 4.62913,-3.07449 7.3546,-3.07867 z"
         style="fill:#ffffff;fill-opacity:1;fill-rule:nonzero;stroke:none;display:inline;enable-background:new"
         inkscape:connector-curvature="0" />
    </g>
    <g
       inkscape:groupmode="layer"
       id="layer5"
       inkscape:label="Highlights"
       style="display:inline"
       sodipodi:insensitive="true">
      <path
         style="opacity:0.12999998;color:#bebebe;fill:#ffffff;fill-opacity:1;fill-rule:nonzero;stroke:none;stroke-width:0;marker:none;visibility:visible;display:inline;overflow:visible;enable-background:accumulate"
         d="M 84,47 C 56.836703,47 35,68.836703 35,96 l 0,1 C 35,69.836703 56.836703,48 84,48 l 120,0 c 27.1633,0 49,21.836703 49,49 l 0,-1 C 253,68.836703 231.1633,47 204,47 L 84,47 z"
         id="rect3894"
         inkscape:connector-curvature="0" />
      <path
         style="opacity:0.12999998;color:#bebebe;fill:#ffffff;fill-opacity:1;fill-rule:nonzero;stroke:none;stroke-width:0;marker:none;visibility:visible;display:inline;overflow:visible;enable-background:accumulate"
         d="m 419,141 c -1.1253,0 -2,0.8747 -2,2 l 0,1 c 0,-1.1253 0.8747,-2 2,-2 l 10,0 c 1.1253,0 2,0.8747 2,2 l 0,-1 c 0,-1.1253 -0.8747,-2 -2,-2 l -10,0 z"
         id="rect3896"
         inkscape:connector-curvature="0" />
      <path
         style="opacity:0.12999998;color:#bebebe;fill:#ffffff;fill-opacity:1;fill-rule:nonzero;stroke:none;stroke-width:0;marker:none;visibility:visible;display:inline;overflow:visible;enable-background:accumulate"
         d="m 422,102 c -2.2333,0 -4,1.7667 -4,4 l 0,1 c 0,-2.2333 1.7667,-4 4,-4 l 12,0 c 2.2333,0 4,1.7667 4,4 l 0,-1 c 0,-2.2333 -1.7667,-4 -4,-4 l -12,0 z"
         id="rect3898"
         inkscape:connector-curvature="0" />
      <path
         style="opacity:0.12999998;color:#bebebe;fill:#ffffff;fill-opacity:1;fill-rule:nonzero;stroke:none;stroke-width:0;marker:none;visibility:visible;display:inline;overflow:visible;enable-background:accumulate"
         d="m 424,54 c -3.3413,0 -6,2.658703 -6,6 l 0,1 c 0,-3.341297 2.6587,-6 6,-6 l 16,0 c 3.3413,0 6,2.658703 6,6 l 0,-1 c 0,-3.341297 -2.6587,-6 -6,-6 l -16,0 z"
         id="rect3900"
         inkscape:connector-curvature="0" />
      <path
         style="opacity:0.12999998;color:#bebebe;fill:#ffffff;fill-opacity:1;fill-rule:nonzero;stroke:none;stroke-width:0;marker:none;visibility:visible;display:inline;overflow:visible;enable-background:accumulate"
         d="m 300,224 c -4.4493,0 -8,3.5507 -8,8 l 0,1 c 0,-4.4493 3.5507,-8 8,-8 l 24,0 c 4.4493,0 8,3.5507 8,8 l 0,-1 c 0,-4.4493 -3.5507,-8 -8,-8 l -24,0 z"
         id="rect3902"
         inkscape:connector-curvature="0" />
      <path
         style="opacity:0.12999998;color:#bebebe;fill:#ffffff;fill-opacity:1;fill-rule:nonzero;stroke:none;stroke-width:0;marker:none;visibility:visible;display:inline;overflow:visible;enable-background:accumulate"
         d="m 310,33 c -9.4353,0 -17,7.564703 -17,17 l 0,1 c 0,-9.435297 7.5647,-17 17,-17 l 52,0 c 9.4353,0 17,7.564703 17,17 l 0,-1 c 0,-9.435297 -7.5647,-17 -17,-17 l -52,0 z"
         id="rect3904"
         inkscape:connector-curvature="0" />
      <path
         style="opacity:0.12999998;color:#bebebe;fill:#ffffff;fill-opacity:1;fill-rule:nonzero;stroke:none;stroke-width:0;marker:none;visibility:visible;display:inline;overflow:visible;enable-background:accumulate"
         d="m 302.5,143 c -6.3883,0 -11.5,5.1117 -11.5,11.5 l 0,1 c 0,-6.3883 5.1117,-11.5 11.5,-11.5 l 35,0 c 6.3883,0 11.5,5.1117 11.5,11.5 l 0,-1 c 0,-6.3883 -5.1117,-11.5 -11.5,-11.5 l -35,0 z"
         id="rect3906"
         inkscape:connector-curvature="0" />
      <path
         id="path4085"
         d="m 204,266 c 27.1633,0 49,-21.8367 49,-49 l 0,-1 c 0,27.1633 -21.8367,49 -49,49 L 84,265 C 56.8367,265 35,243.1633 35,216 l 0,1 c 0,27.1633 21.8367,49 49,49 l 120,0 z"
         style="opacity:0.5;color:#bebebe;fill:#000000;fill-opacity:1;fill-rule:nonzero;stroke:none;stroke-width:0;marker:none;visibility:visible;display:inline;overflow:visible;enable-background:accumulate"
         inkscape:connector-curvature="0" />
      <path
         id="path4087"
         d="m 429,156 c 1.1253,0 2,-0.8747 2,-2 l 0,-1 c 0,1.1253 -0.8747,2 -2,2 l -10,0 c -1.1253,0 -2,-0.8747 -2,-2 l 0,1 c 0,1.1253 0.8747,2 2,2 l 10,0 z"
         style="opacity:0.3;color:#bebebe;fill:#000000;fill-opacity:1;fill-rule:nonzero;stroke:none;stroke-width:0;marker:none;visibility:visible;display:inline;overflow:visible;enable-background:accumulate"
         inkscape:connector-curvature="0" />
      <path
         id="path4089"
         d="m 434,123 c 2.2333,0 4,-1.7667 4,-4 l 0,-1 c 0,2.2333 -1.7667,4 -4,4 l -12,0 c -2.2333,0 -4,-1.7667 -4,-4 l 0,1 c 0,2.2333 1.7667,4 4,4 l 12,0 z"
         style="opacity:0.3;color:#bebebe;fill:#000000;fill-opacity:1;fill-rule:nonzero;stroke:none;stroke-width:0;marker:none;visibility:visible;display:inline;overflow:visible;enable-background:accumulate"
         inkscape:connector-curvature="0" />
      <path
         id="path4091"
         d="m 440,83 c 3.3413,0 6,-2.6587 6,-6 l 0,-1 c 0,3.3413 -2.6587,6 -6,6 l -16,0 c -3.3413,0 -6,-2.6587 -6,-6 l 0,1 c 0,3.3413 2.6587,6 6,6 l 16,0 z"
         style="opacity:0.5;color:#bebebe;fill:#000000;fill-opacity:1;fill-rule:nonzero;stroke:none;stroke-width:0;marker:none;visibility:visible;display:inline;overflow:visible;enable-background:accumulate"
         inkscape:connector-curvature="0" />
      <path
         id="path4093"
         d="m 324,265 c 4.4493,0 8,-3.5507 8,-8 l 0,-1 c 0,4.4493 -3.5507,8 -8,8 l -24,0 c -4.4493,0 -8,-3.5507 -8,-8 l 0,1 c 0,4.4493 3.5507,8 8,8 l 24,0 z"
         style="opacity:0.5;color:#bebebe;fill:#000000;fill-opacity:1;fill-rule:nonzero;stroke:none;stroke-width:0;marker:none;visibility:visible;display:inline;overflow:visible;enable-background:accumulate"
         inkscape:connector-curvature="0" />
      <path
         id="path4095"
         d="m 362,120 c 9.4353,0 17,-7.5647 17,-17 l 0,-1 c 0,9.4353 -7.5647,17 -17,17 l -52,0 c -9.4353,0 -17,-7.5647 -17,-17 l 0,1 c 0,9.4353 7.5647,17 17,17 l 52,0 z"
         style="opacity:0.5;color:#bebebe;fill:#000000;fill-opacity:1;fill-rule:nonzero;stroke:none;stroke-width:0;marker:none;visibility:visible;display:inline;overflow:visible;enable-background:accumulate"
         inkscape:connector-curvature="0" />
      <path
         id="path4097"
         d="m 337.5,202 c 6.3883,0 11.5,-5.1117 11.5,-11.5 l 0,-1 c 0,6.3883 -5.1117,11.5 -11.5,11.5 l -35,0 c -6.3883,0 -11.5,-5.1117 -11.5,-11.5 l 0,1 c 0,6.3883 5.1117,11.5 11.5,11.5 l 35,0 z"
         style="opacity:0.5;color:#bebebe;fill:#000000;fill-opacity:1;fill-rule:nonzero;stroke:none;stroke-width:0;marker:none;visibility:visible;display:inline;overflow:visible;enable-background:accumulate"
         inkscape:connector-curvature="0" />
      <path
         inkscape:connector-curvature="0"
         id="path4280"
         d="M 84,265 C 56.836703,265 35,243.1633 35,216 l 0,-1 c 0,27.1633 21.836703,49 49,49 l 120,0 c 27.1633,0 49,-21.8367 49,-49 l 0,1 c 0,27.1633 -21.8367,49 -49,49 l -120,0 z"
         style="opacity:0.1;color:#bebebe;fill:#ffffff;fill-opacity:1;fill-rule:nonzero;stroke:none;stroke-width:0;marker:none;visibility:visible;display:inline;overflow:visible;enable-background:accumulate" />
      <path
         style="opacity:0.1;color:#bebebe;fill:#ffffff;fill-opacity:1;fill-rule:nonzero;stroke:none;stroke-width:0;marker:none;visibility:visible;display:inline;overflow:visible;enable-background:accumulate"
         d="m 300,264 c -4.4493,0 -8,-3.5507 -8,-8 l 0,-1 c 0,4.4493 3.5507,8 8,8 l 24,0 c 4.4493,0 8,-3.5507 8,-8 l 0,1 c 0,4.4493 -3.5507,8 -8,8 l -24,0 z"
         id="path4294"
         inkscape:connector-curvature="0" />
      <path
         style="opacity:0.1;color:#bebebe;fill:#ffffff;fill-opacity:1;fill-rule:nonzero;stroke:none;stroke-width:0;marker:none;visibility:visible;display:inline;overflow:visible;enable-background:accumulate"
         d="m 302.5,201 c -6.3883,0 -11.5,-5.1117 -11.5,-11.5 l 0,-1 c 0,6.3883 5.1117,11.5 11.5,11.5 l 35,0 c 6.3883,0 11.5,-5.1117 11.5,-11.5 l 0,1 c 0,6.3883 -5.1117,11.5 -11.5,11.5 l -35,0 z"
         id="path4296"
         inkscape:connector-curvature="0" />
      <path
         style="opacity:0.1;color:#bebebe;fill:#ffffff;fill-opacity:1;fill-rule:nonzero;stroke:none;stroke-width:0;marker:none;visibility:visible;display:inline;overflow:visible;enable-background:accumulate"
         d="m 310,119 c -9.4353,0 -17,-7.5647 -17,-17 l 0,-1 c 0,9.4353 7.5647,17 17,17 l 52,0 c 9.4353,0 17,-7.5647 17,-17 l 0,1 c 0,9.4353 -7.5647,17 -17,17 l -52,0 z"
         id="path4298"
         inkscape:connector-curvature="0" />
      <path
         style="opacity:0.1;color:#bebebe;fill:#ffffff;fill-opacity:1;fill-rule:nonzero;stroke:none;stroke-width:0;marker:none;visibility:visible;display:inline;overflow:visible;enable-background:accumulate"
         d="m 424,82 c -3.3413,0 -6,-2.658703 -6,-6 l 0,-1 c 0,3.341297 2.6587,6 6,6 l 16,0 c 3.3413,0 6,-2.658703 6,-6 l 0,1 c 0,3.341297 -2.6587,6 -6,6 l -16,0 z"
         id="path4300"
         inkscape:connector-curvature="0" />
      <path
         style="opacity:0.1;color:#bebebe;fill:#ffffff;fill-opacity:1;fill-rule:nonzero;stroke:none;stroke-width:0;marker:none;visibility:visible;display:inline;overflow:visible;enable-background:accumulate"
         d="m 422,122 c -2.2333,0 -4,-1.7667 -4,-4 l 0,-1 c 0,2.2333 1.7667,4 4,4 l 12,0 c 2.2333,0 4,-1.7667 4,-4 l 0,1 c 0,2.2333 -1.7667,4 -4,4 l -12,0 z"
         id="path4302"
         inkscape:connector-curvature="0" />
      <path
         style="opacity:0.1;color:#bebebe;fill:#ffffff;fill-opacity:1;fill-rule:nonzero;stroke:none;stroke-width:0;marker:none;visibility:visible;display:inline;overflow:visible;enable-background:accumulate"
         d="m 419,154.5 c -1.1253,0 -2,-0.8747 -2,-2 l 0,-1 c 0,1.1253 0.8747,2 2,2 l 10,0 c 1.1253,0 2,-0.8747 2,-2 l 0,1 c 0,1.1253 -0.8747,2 -2,2 l -10,0 z"
         id="path4304"
         inkscape:connector-curvature="0" />
    </g>
    <g
       inkscape:groupmode="layer"
       id="layer3"
       inkscape:label="Border"
       style="display:inline"
       sodipodi:insensitive="true">
      <path
         style="opacity:0.41000001;color:#bebebe;fill:#000000;fill-opacity:1;fill-rule:nonzero;stroke:none;stroke-width:0;marker:none;visibility:visible;display:inline;overflow:visible;enable-background:accumulate"
         d="m 422,101 c -2.77,0 -5,2.23 -5,5 l 0,12 c 0,2.77 2.23,5 5,5 l 12,0 c 2.77,0 5,-2.23 5,-5 l 0,-12 c 0,-2.77 -2.23,-5 -5,-5 l -12,0 z m 0,1 12,0 c 2.2333,0 4,1.7667 4,4 l 0,12 c 0,2.2333 -1.7667,4 -4,4 l -12,0 c -2.2333,0 -4,-1.7667 -4,-4 l 0,-12 c 0,-2.2333 1.7667,-4 4,-4 z"
         id="rect4099"
         inkscape:connector-curvature="0" />
      <path
         style="opacity:0.41000001;color:#bebebe;fill:#000000;fill-opacity:1;fill-rule:nonzero;stroke:none;stroke-width:0;marker:none;visibility:visible;display:inline;overflow:visible;enable-background:accumulate"
         d="m 424,53 c -3.878,0 -7,3.122 -7,7 l 0,16 c 0,3.878 3.122,7 7,7 l 16,0 c 3.878,0 7,-3.122 7,-7 l 0,-16 c 0,-3.878 -3.122,-7 -7,-7 l -16,0 z m 0,1 16,0 c 3.3413,0 6,2.658703 6,6 l 0,16 c 0,3.341297 -2.6587,6 -6,6 l -16,0 c -3.3413,0 -6,-2.658703 -6,-6 l 0,-16 c 0,-3.341297 2.6587,-6 6,-6 z"
         id="rect4151"
         inkscape:connector-curvature="0" />
      <path
         style="opacity:0.41000001;color:#bebebe;fill:#000000;fill-opacity:1;fill-rule:nonzero;stroke:none;stroke-width:0;marker:none;visibility:visible;display:inline;overflow:visible;enable-background:accumulate"
         d="m 419,140 c -1.662,0 -3,1.338 -3,3 l 0,10 c 0,1.662 1.338,3 3,3 l 10,0 c 1.662,0 3,-1.338 3,-3 l 0,-10 c 0,-1.662 -1.338,-3 -3,-3 l -10,0 z m 0,1 10,0 c 1.1253,0 2,0.8747 2,2 l 0,10 c 0,1.1253 -0.8747,2 -2,2 l -10,0 c -1.1253,0 -2,-0.8747 -2,-2 l 0,-10 c 0,-1.1253 0.8747,-2 2,-2 z"
         id="rect4095"
         inkscape:connector-curvature="0" />
      <path
         style="opacity:0.41000001;color:#bebebe;fill:#000000;fill-opacity:1;fill-rule:nonzero;stroke:none;stroke-width:0;marker:none;visibility:visible;display:inline;overflow:visible;enable-background:accumulate"
         d="m 300,223 c -4.986,0 -9,4.014 -9,9 l 0,24 c 0,4.986 4.014,9 9,9 l 24,0 c 4.986,0 9,-4.014 9,-9 l 0,-24 c 0,-4.986 -4.014,-9 -9,-9 l -24,0 z m 0,1 24,0 c 4.4493,0 8,3.5507 8,8 l 0,24 c 0,4.4493 -3.5507,8 -8,8 l -24,0 c -4.4493,0 -8,-3.5507 -8,-8 l 0,-24 c 0,-4.4493 3.5507,-8 8,-8 z"
         id="rect4783"
         inkscape:connector-curvature="0" />
      <path
         style="opacity:0.41000001;color:#bebebe;fill:#000000;fill-opacity:1;fill-rule:nonzero;stroke:none;stroke-width:0;marker:none;visibility:visible;display:inline;overflow:visible;enable-background:accumulate"
         d="m 302.5,142 c -6.925,0 -12.5,5.575 -12.5,12.5 l 0,35 c 0,6.925 5.575,12.5 12.5,12.5 l 35,0 c 6.925,0 12.5,-5.575 12.5,-12.5 l 0,-35 c 0,-6.925 -5.575,-12.5 -12.5,-12.5 l -35,0 z m 0,1 35,0 c 6.3883,0 11.5,5.1117 11.5,11.5 l 0,35 c 0,6.3883 -5.1117,11.5 -11.5,11.5 l -35,0 c -6.3883,0 -11.5,-5.1117 -11.5,-11.5 l 0,-35 c 0,-6.3883 5.1117,-11.5 11.5,-11.5 z"
         id="rect4515"
         inkscape:connector-curvature="0" />
      <path
         style="opacity:0.41000001;color:#bebebe;fill:#000000;fill-opacity:1;fill-rule:nonzero;stroke:none;stroke-width:0;marker:none;visibility:visible;display:inline;overflow:visible;enable-background:accumulate"
         d="m 310,32 c -9.972,0 -18,8.028 -18,18 l 0,52 c 0,9.972 8.028,18 18,18 l 52,0 c 9.972,0 18,-8.028 18,-18 l 0,-52 c 0,-9.972 -8.028,-18 -18,-18 l -52,0 z m 0,1 52,0 c 9.4353,0 17,7.564703 17,17 l 0,52 c 0,9.4353 -7.5647,17 -17,17 l -52,0 c -9.4353,0 -17,-7.5647 -17,-17 l 0,-52 c 0,-9.435297 7.5647,-17 17,-17 z"
         id="rect4511"
         inkscape:connector-curvature="0" />
      <path
         style="opacity:0.41000001;color:#bebebe;fill:#000000;fill-opacity:1;fill-rule:nonzero;stroke:none;stroke-width:0;marker:none;visibility:visible;display:inline;overflow:visible;enable-background:accumulate"
         d="M 84,46 C 56.3,46 34,68.3 34,96 l 0,120 c 0,27.7 22.3,50 50,50 l 120,0 c 27.7,0 50,-22.3 50,-50 L 254,96 C 254,68.3 231.7,46 204,46 L 84,46 z m 0,1 120,0 c 27.1633,0 49,21.836703 49,49 l 0,120 c 0,27.1633 -21.8367,49 -49,49 L 84,265 C 56.836703,265 35,243.1633 35,216 L 35,96 C 35,68.836703 56.836703,47 84,47 z"
         id="rect4040"
         inkscape:connector-curvature="0" />
    </g>
  </g>
</svg>
