<?xml version="1.0" encoding="UTF-8" standalone="no"?>
<!-- Created with Inkscape (http://www.inkscape.org/) -->

<svg
   xmlns:dc="http://purl.org/dc/elements/1.1/"
   xmlns:cc="http://creativecommons.org/ns#"
   xmlns:rdf="http://www.w3.org/1999/02/22-rdf-syntax-ns#"
   xmlns:svg="http://www.w3.org/2000/svg"
   xmlns="http://www.w3.org/2000/svg"
   xmlns:xlink="http://www.w3.org/1999/xlink"
   xmlns:sodipodi="http://sodipodi.sourceforge.net/DTD/sodipodi-0.dtd"
   xmlns:inkscape="http://www.inkscape.org/namespaces/inkscape"
   inkscape:export-ydpi="90.000000"
   inkscape:export-xdpi="90.000000"
   width="480"
   height="300"
   id="svg11300"
   sodipodi:version="0.32"
   inkscape:version="0.48.4 r9939"
   sodipodi:docname="distributor-logo-steamos.svg"
   inkscape:output_extension="org.inkscape.output.svg.inkscape"
   version="1.0"
   style="display:inline;enable-background:new"
   inkscape:export-filename="/home/sam/moka2-template.png">
  <sodipodi:namedview
     stroke="#ef2929"
     fill="#f57900"
     id="base"
     pagecolor="#ffffff"
     bordercolor="#666666"
     borderopacity="0.25490196"
     inkscape:pageopacity="0"
     inkscape:pageshadow="2"
     inkscape:zoom="1"
     inkscape:cx="306.81628"
     inkscape:cy="72.593836"
     inkscape:current-layer="layer7"
     showgrid="false"
     inkscape:grid-bbox="true"
     inkscape:document-units="px"
     inkscape:showpageshadow="false"
     inkscape:window-width="1364"
     inkscape:window-height="702"
     inkscape:window-x="0"
     inkscape:window-y="27"
     width="400px"
     height="300px"
     inkscape:snap-nodes="true"
     inkscape:snap-bbox="true"
     gridtolerance="10000"
     inkscape:object-nodes="true"
     inkscape:snap-grids="true"
     showguides="true"
     inkscape:guide-bbox="true"
     inkscape:window-maximized="1"
     inkscape:bbox-nodes="true"
     inkscape:bbox-paths="true"
     inkscape:snap-bbox-edge-midpoints="true"
     inkscape:snap-bbox-midpoints="true">
    <inkscape:grid
       spacingy="1px"
       spacingx="1px"
       id="grid5883"
       type="xygrid"
       enabled="true"
       visible="true"
       empspacing="4"
       snapvisiblegridlinesonly="true"
       dotted="false"
       color="#000000"
       opacity="0.1254902"
       empcolor="#203ef3"
       empopacity="0.36470588" />
    <inkscape:grid
       type="xygrid"
       id="grid11592"
       empspacing="8"
       visible="true"
       enabled="false"
       spacingx="0.5px"
       spacingy="0.5px"
       color="#ff0000"
       opacity="0.1254902"
       empcolor="#ff0000"
       empopacity="0.25098039"
       snapvisiblegridlinesonly="true"
       dotted="true" />
  </sodipodi:namedview>
  <defs
     id="defs3">
    <linearGradient
       id="outerBackgroundGradient">
      <stop
         style="stop-color:#ffffff;stop-opacity:1;"
         offset="0"
         id="stop3864-8-6" />
      <stop
         id="stop3926"
         offset="0.5"
         style="stop-color:#f897fe;stop-opacity:1;" />
      <stop
         style="stop-color:#bd65ff;stop-opacity:1;"
         offset="1"
         id="stop3866-9-1" />
    </linearGradient>
    <linearGradient
       inkscape:collect="always"
       xlink:href="#outerBackgroundGradient"
       id="linearGradient4097"
       gradientUnits="userSpaceOnUse"
       x1="264"
       y1="280.00003"
       x2="264"
       y2="40.00005"
       gradientTransform="matrix(0.06666667,0,0,0.06666667,414.4,137.33333)" />
    <linearGradient
       inkscape:collect="always"
       xlink:href="#outerBackgroundGradient"
       id="linearGradient4101"
       gradientUnits="userSpaceOnUse"
       gradientTransform="matrix(0.0875,0,0,0.0875,414.9,97.5)"
       x1="286.85715"
       y1="302.85715"
       x2="286.85715"
       y2="28.571428" />
    <linearGradient
       inkscape:collect="always"
       xlink:href="#outerBackgroundGradient"
       id="linearGradient4153"
       gradientUnits="userSpaceOnUse"
       gradientTransform="matrix(0.11931818,0,0,0.11931818,414.13636,48.22727)"
       x1="283.80957"
       y1="299.80954"
       x2="283.80957"
       y2="31.61907" />
    <linearGradient
       inkscape:collect="always"
       xlink:href="#outerBackgroundGradient"
       id="linearGradient4869"
       gradientUnits="userSpaceOnUse"
       gradientTransform="matrix(0.175,0,0,-0.175,287.79999,-216.99997)"
       x1="281.14291"
       y1="297.14304"
       x2="281.14291"
       y2="22.857315" />
    <clipPath
       clipPathUnits="userSpaceOnUse"
       id="clipPath4891">
      <rect
         ry="9"
         y="223"
         x="307"
         height="42"
         width="42"
         id="rect4893"
         style="color:#bebebe;fill:url(#linearGradient4895);fill-opacity:1;fill-rule:nonzero;stroke:none;stroke-width:0;marker:none;visibility:visible;display:inline;overflow:visible;enable-background:accumulate"
         transform="matrix(0,1,-1,0,0,0)" />
    </clipPath>
    <linearGradient
       inkscape:collect="always"
       xlink:href="#outerBackgroundGradient"
       id="linearGradient4895"
       gradientUnits="userSpaceOnUse"
       gradientTransform="matrix(0.175,0,0,0.175,302.79999,215.99997)"
       x1="144.00006"
       y1="280.00018"
       x2="144.00006"
       y2="40.000172" />
    <clipPath
       clipPathUnits="userSpaceOnUse"
       id="clipPath4044">
      <rect
         ry="4"
         y="85"
         x="433"
         height="22"
         width="22"
         id="rect4046"
         style="color:#bebebe;fill:url(#linearGradient4048);fill-opacity:1;fill-rule:nonzero;stroke:none;stroke-width:0;marker:none;visibility:visible;display:inline;overflow:visible;enable-background:accumulate" />
    </clipPath>
    <linearGradient
       inkscape:collect="always"
       xlink:href="#outerBackgroundGradient"
       id="linearGradient4048"
       gradientUnits="userSpaceOnUse"
       gradientTransform="matrix(0.0875,0,0,0.0875,430.9,81.499996)"
       x1="149.71428"
       y1="291.42862"
       x2="149.71428"
       y2="40.000046" />
    <clipPath
       clipPathUnits="userSpaceOnUse"
       id="clipPath4089">
      <rect
         style="color:#bebebe;fill:url(#linearGradient4093);fill-opacity:1;fill-rule:nonzero;stroke:none;stroke-width:0;marker:none;visibility:visible;display:inline;overflow:visible;enable-background:accumulate"
         id="rect4091"
         width="30"
         height="30"
         x="433"
         y="37"
         ry="6" />
    </clipPath>
    <linearGradient
       inkscape:collect="always"
       xlink:href="#outerBackgroundGradient"
       id="linearGradient4093"
       gradientUnits="userSpaceOnUse"
       gradientTransform="matrix(0.11931818,0,0,0.11931818,430.13636,32.227267)"
       x1="149.71432"
       y1="291.42862"
       x2="149.71432"
       y2="40.00005" />
    <clipPath
       clipPathUnits="userSpaceOnUse"
       id="clipPath3855">
      <rect
         style="color:#bebebe;fill:url(#linearGradient3859);fill-opacity:1;fill-rule:nonzero;stroke:none;stroke-width:0;marker:none;visibility:visible;display:inline;overflow:visible;enable-background:accumulate"
         id="rect3857"
         width="16"
         height="16"
         x="304"
         y="212"
         ry="3"
         transform="matrix(0,1,-1,0,0,0)" />
    </clipPath>
    <linearGradient
       inkscape:collect="always"
       xlink:href="#outerBackgroundGradient"
       id="linearGradient3859"
       gradientUnits="userSpaceOnUse"
       gradientTransform="matrix(0.06666667,0,0,0.06666667,302.4,209.33333)"
       x1="144"
       y1="280.00003"
       x2="144"
       y2="40.00005" />
    <clipPath
       clipPathUnits="userSpaceOnUse"
       id="clipPath3862">
      <rect
         ry="50"
         y="46"
         x="34"
         height="220"
         width="220"
         id="rect3864"
         style="color:#bebebe;fill:url(#linearGradient3866);fill-opacity:1;fill-rule:nonzero;stroke:none;stroke-width:0;marker:none;visibility:visible;display:inline;overflow:visible;enable-background:accumulate" />
    </clipPath>
    <linearGradient
       inkscape:collect="always"
       xlink:href="#outerBackgroundGradient"
       id="linearGradient3866"
       gradientUnits="userSpaceOnUse"
       gradientTransform="translate(0,-4)"
       x1="144"
       y1="280"
       x2="144"
       y2="40" />
    <linearGradient
       inkscape:collect="always"
       xlink:href="#outerBackgroundGradient"
       id="linearGradient3876"
       gradientUnits="userSpaceOnUse"
       gradientTransform="translate(0,-4)"
       x1="272"
       y1="288"
       x2="272"
       y2="32" />
    <clipPath
       clipPathUnits="userSpaceOnUse"
       id="clipPath4187">
      <rect
         ry="12.5"
         y="142"
         x="290"
         height="60"
         width="60"
         id="rect4189"
         style="color:#bebebe;fill:url(#linearGradient4191);fill-opacity:1;fill-rule:nonzero;stroke:none;stroke-width:0;marker:none;visibility:visible;display:inline;overflow:visible;enable-background:accumulate" />
    </clipPath>
    <linearGradient
       inkscape:collect="always"
       xlink:href="#outerBackgroundGradient"
       id="linearGradient4191"
       gradientUnits="userSpaceOnUse"
       x1="352"
       y1="204"
       x2="352"
       y2="140" />
    <linearGradient
       inkscape:collect="always"
       xlink:href="#outerBackgroundGradient"
       id="linearGradient4197"
       gradientUnits="userSpaceOnUse"
       x1="384"
       y1="124"
       x2="384"
       y2="28" />
    <linearGradient
       inkscape:collect="always"
       xlink:href="#outerBackgroundGradient"
       id="linearGradient4199"
       gradientUnits="userSpaceOnUse"
       x1="352"
       y1="204"
       x2="352"
       y2="140" />
    <clipPath
       clipPathUnits="userSpaceOnUse"
       id="clipPath4346">
      <rect
         style="color:#bebebe;fill:url(#linearGradient4350);fill-opacity:1;fill-rule:nonzero;stroke:none;stroke-width:0;marker:none;visibility:visible;display:inline;overflow:visible;enable-background:accumulate"
         id="rect4348"
         width="88"
         height="88"
         x="292"
         y="32"
         ry="18" />
    </clipPath>
    <linearGradient
       inkscape:collect="always"
       xlink:href="#outerBackgroundGradient"
       id="linearGradient4350"
       gradientUnits="userSpaceOnUse"
       x1="384"
       y1="124"
       x2="384"
       y2="28" />
    <clipPath
       clipPathUnits="userSpaceOnUse"
       id="clipPath3871">
      <rect
         ry="5"
         y="101"
         x="417"
         height="22"
         width="22"
         id="rect3873"
         style="color:#bebebe;fill:url(#linearGradient3875);fill-opacity:1;fill-rule:nonzero;stroke:none;stroke-width:0;marker:none;visibility:visible;display:inline;overflow:visible;enable-background:accumulate" />
    </clipPath>
    <linearGradient
       inkscape:collect="always"
       xlink:href="#outerBackgroundGradient"
       id="linearGradient3875"
       gradientUnits="userSpaceOnUse"
       gradientTransform="matrix(0.0875,0,0,0.0875,414.9,97.5)"
       x1="286.85715"
       y1="302.85715"
       x2="286.85715"
       y2="28.571428" />
    <clipPath
       clipPathUnits="userSpaceOnUse"
       id="clipPath3881">
      <rect
         style="color:#bebebe;fill:url(#linearGradient3885);fill-opacity:1;fill-rule:nonzero;stroke:none;stroke-width:0;marker:none;visibility:visible;display:inline;overflow:visible;enable-background:accumulate"
         id="rect3883"
         width="30"
         height="30"
         x="417"
         y="53"
         ry="7" />
    </clipPath>
    <linearGradient
       inkscape:collect="always"
       xlink:href="#outerBackgroundGradient"
       id="linearGradient3885"
       gradientUnits="userSpaceOnUse"
       gradientTransform="matrix(0.11931818,0,0,0.11931818,414.13636,48.22727)"
       x1="283.80957"
       y1="299.80954"
       x2="283.80957"
       y2="31.61907" />
    <clipPath
       clipPathUnits="userSpaceOnUse"
       id="clipPath3891">
      <rect
         style="color:#bebebe;fill:url(#linearGradient3895);fill-opacity:1;fill-rule:nonzero;stroke:none;stroke-width:0;marker:none;visibility:visible;display:inline;overflow:visible;enable-background:accumulate"
         id="rect3893"
         width="16"
         height="16"
         x="432"
         y="123.59377"
         ry="3" />
    </clipPath>
    <linearGradient
       inkscape:collect="always"
       xlink:href="#outerBackgroundGradient"
       id="linearGradient3895"
       gradientUnits="userSpaceOnUse"
       gradientTransform="matrix(0.06666667,0,0,0.06666667,430.4,120.9271)"
       x1="264"
       y1="280.00003"
       x2="264"
       y2="40.00005" />
    <clipPath
       clipPathUnits="userSpaceOnUse"
       id="clipPath3898">
      <rect
         ry="12.5"
         y="142"
         x="290"
         height="60"
         width="60"
         id="rect3900"
         style="color:#bebebe;fill:url(#linearGradient3902);fill-opacity:1;fill-rule:nonzero;stroke:none;stroke-width:0;marker:none;visibility:visible;display:inline;overflow:visible;enable-background:accumulate" />
    </clipPath>
    <linearGradient
       inkscape:collect="always"
       xlink:href="#outerBackgroundGradient"
       id="linearGradient3902"
       gradientUnits="userSpaceOnUse"
       x1="352"
       y1="204"
       x2="352"
       y2="140" />
    <clipPath
       clipPathUnits="userSpaceOnUse"
       id="clipPath3911">
      <rect
         style="color:#bebebe;fill:url(#linearGradient3915);fill-opacity:1;fill-rule:nonzero;stroke:none;stroke-width:0;marker:none;visibility:visible;display:inline;overflow:visible;enable-background:accumulate"
         id="rect3913"
         width="88"
         height="88"
         x="292"
         y="32"
         ry="18" />
    </clipPath>
    <linearGradient
       inkscape:collect="always"
       xlink:href="#outerBackgroundGradient"
       id="linearGradient3915"
       gradientUnits="userSpaceOnUse"
       gradientTransform="translate(-3.3496094e-6,0)"
       x1="384"
       y1="124"
       x2="384"
       y2="28" />
    <clipPath
       clipPathUnits="userSpaceOnUse"
       id="clipPath3920">
      <rect
         ry="50"
         y="46"
         x="34"
         height="220"
         width="220"
         id="rect3922"
         style="color:#bebebe;fill:url(#linearGradient3924);fill-opacity:1;fill-rule:nonzero;stroke:none;stroke-width:0;marker:none;visibility:visible;display:inline;overflow:visible;enable-background:accumulate" />
    </clipPath>
    <linearGradient
       inkscape:collect="always"
       xlink:href="#outerBackgroundGradient"
       id="linearGradient3924"
       gradientUnits="userSpaceOnUse"
       gradientTransform="translate(0,-4)"
       x1="272"
       y1="288"
       x2="272"
       y2="32" />
    <clipPath
       clipPathUnits="userSpaceOnUse"
       id="clipPath3931">
      <rect
         transform="scale(1,-1)"
         ry="9"
         y="-266"
         x="292"
         height="42"
         width="42"
         id="rect3933"
         style="color:#bebebe;fill:url(#linearGradient3935);fill-opacity:1;fill-rule:nonzero;stroke:none;stroke-width:0;marker:none;visibility:visible;display:inline;overflow:visible;enable-background:accumulate" />
    </clipPath>
    <linearGradient
       inkscape:collect="always"
       xlink:href="#outerBackgroundGradient"
       id="linearGradient3935"
       gradientUnits="userSpaceOnUse"
       gradientTransform="matrix(0.175,0,0,-0.175,287.79999,-216.99997)"
       x1="281.14291"
       y1="297.14304"
       x2="281.14291"
       y2="22.857315" />
  </defs>
  <metadata
     id="metadata4">
    <rdf:RDF>
      <cc:Work
         rdf:about="">
        <dc:format>image/svg+xml</dc:format>
        <dc:type
           rdf:resource="http://purl.org/dc/dcmitype/StillImage" />
        <dc:creator>
          <cc:Agent>
            <dc:title>Sam Hewitt</dc:title>
          </cc:Agent>
        </dc:creator>
        <dc:source />
        <cc:license
           rdf:resource="" />
        <dc:title />
        <dc:subject>
          <rdf:Bag />
        </dc:subject>
        <dc:date />
        <dc:rights>
          <cc:Agent>
            <dc:title />
          </cc:Agent>
        </dc:rights>
        <dc:publisher>
          <cc:Agent>
            <dc:title />
          </cc:Agent>
        </dc:publisher>
        <dc:identifier />
        <dc:relation />
        <dc:language />
        <dc:coverage />
        <dc:description />
        <dc:contributor>
          <cc:Agent>
            <dc:title />
          </cc:Agent>
        </dc:contributor>
      </cc:Work>
      <cc:Work
         rdf:about="">
        <dc:format>image/svg+xml</dc:format>
        <dc:type
           rdf:resource="http://purl.org/dc/dcmitype/StillImage" />
      </cc:Work>
    </rdf:RDF>
  </metadata>
  <g
     style="display:inline"
     inkscape:groupmode="layer"
     inkscape:label="Icon"
     id="layer1">
    <g
       style="display:none"
       inkscape:label="Baseplate"
       id="layer7"
       inkscape:groupmode="layer">
      <text
         y="19.745117"
         xml:space="preserve"
         x="15.006836"
         style="font-size:18px;font-style:normal;font-variant:normal;font-weight:normal;font-stretch:normal;fill:#000000;fill-opacity:1;stroke:none;display:inline;enable-background:new;font-family:DejaVu Sans;-inkscape-font-specification:DejaVu Sans"
         inkscape:label="context"
         id="context"><tspan
           style="font-style:normal;font-variant:normal;font-weight:normal;font-stretch:normal;font-family:DejaVu Sans;-inkscape-font-specification:DejaVu Sans"
           y="19.745117"
           x="15.006836"
           sodipodi:role="line"
           id="tspan3933">places</tspan></text>
      <text
         y="19.745117"
         xml:space="preserve"
         x="122.48828"
         style="font-size:18px;font-style:normal;font-variant:normal;font-weight:bold;font-stretch:normal;text-align:start;line-height:125%;writing-mode:lr-tb;text-anchor:start;fill:#000000;fill-opacity:1;stroke:none;display:inline;enable-background:new;font-family:DejaVu Sans;-inkscape-font-specification:DejaVu Sans Bold"
         sodipodi:linespacing="125%"
         inkscape:label="icon-name"
         id="icon-name"><tspan
           style="font-size:18px;font-style:normal;font-variant:normal;font-weight:bold;font-stretch:normal;font-family:DejaVu Sans;-inkscape-font-specification:DejaVu Sans Bold"
           y="19.745117"
           x="122.48828"
           sodipodi:role="line"
           id="tspan3937">distributor-logo-steamos</tspan></text>
      <rect
         style="fill:#eeeeec;fill-opacity:1;fill-rule:nonzero;stroke:none;stroke-width:2;marker:none;visibility:visible;display:inline;overflow:visible;enable-background:accumulate"
         id="rect16x16"
         width="16"
         height="16"
         x="416"
         y="140"
         inkscape:label="16x16" />
      <rect
         style="fill:#d4d4d4;fill-opacity:1;fill-rule:nonzero;stroke:none;stroke-width:2;marker:none;visibility:visible;display:inline;overflow:visible;enable-background:accumulate"
         id="rect24x24"
         width="24"
         height="24"
         x="416"
         y="100"
         inkscape:label="24x24" />
      <rect
         style="fill:#eeeeec;fill-opacity:1;fill-rule:nonzero;stroke:none;stroke-width:2;marker:none;visibility:visible;display:inline;overflow:visible;enable-background:accumulate"
         id="rect32x32"
         width="32"
         height="32"
         x="416"
         y="52"
         inkscape:label="32x32" />
      <rect
         inkscape:label="22x22"
         y="101"
         x="417"
         height="22"
         width="22"
         id="rect22x22"
         style="fill:#eeeeec;fill-opacity:1;fill-rule:nonzero;stroke:none;stroke-width:2;marker:none;visibility:visible;display:inline;overflow:visible;enable-background:accumulate" />
      <rect
         inkscape:label="48x48"
         y="221"
         x="289"
         height="48"
         width="48"
         id="rect48x48"
         style="fill:#eeeeec;fill-opacity:1;fill-rule:nonzero;stroke:none;stroke-width:2;marker:none;visibility:visible;display:inline;overflow:visible;enable-background:accumulate" />
      <rect
         style="fill:#eeeeec;fill-opacity:1;fill-rule:nonzero;stroke:none;stroke-width:2;marker:none;visibility:visible;display:inline;overflow:visible;enable-background:accumulate"
         id="rect256x256"
         width="256"
         height="256"
         x="16"
         y="28"
         inkscape:label="256x256" />
      <rect
         style="fill:#eeeeec;fill-opacity:1;fill-rule:nonzero;stroke:none;stroke-width:2;marker:none;visibility:visible;display:inline;overflow:visible;enable-background:accumulate"
         id="rect64x64"
         width="64"
         height="64"
         x="288"
         y="140"
         inkscape:label="64x64" />
      <rect
         style="fill:#eeeeec;fill-opacity:1;fill-rule:nonzero;stroke:none;stroke-width:2;marker:none;visibility:visible;display:inline;overflow:visible;enable-background:accumulate"
         id="rect96x96"
         width="96"
         height="96"
         x="288"
         y="28"
         inkscape:label="96x96" />
    </g>
    <g
       inkscape:groupmode="layer"
       id="layer4"
       inkscape:label="Shadow"
       style="display:inline">
      <rect
         style="opacity:0.1;color:#bebebe;fill:#000000;fill-opacity:1;stroke:#000000;stroke-width:1;stroke-miterlimit:4;stroke-opacity:1;stroke-dasharray:none;marker:none;visibility:visible;display:inline;overflow:visible;enable-background:accumulate"
         id="rect4156"
         width="42"
         height="42"
         x="-267.5"
         y="292"
         ry="9"
         transform="matrix(0,-1,1,0,0,0)" />
      <rect
         transform="matrix(0,-1,1,0,0,0)"
         ry="9"
         y="292"
         x="-267.5"
         height="42"
         width="40"
         id="rect4183"
         style="opacity:0.3;color:#bebebe;fill:#000000;fill-opacity:1;stroke:none;stroke-width:1;marker:none;visibility:visible;display:inline;overflow:visible;enable-background:accumulate" />
      <rect
         ry="9"
         y="238"
         x="292"
         height="29"
         width="42"
         id="rect4144"
         style="opacity:0.3;color:#bebebe;fill:#000000;fill-opacity:1;fill-rule:nonzero;stroke:none;stroke-width:0;marker:none;visibility:visible;display:inline;overflow:visible;enable-background:accumulate" />
      <rect
         style="opacity:0.05;color:#bebebe;fill:#000000;fill-opacity:1;fill-rule:nonzero;stroke:#000000;stroke-width:1;stroke-miterlimit:4;stroke-opacity:1;stroke-dasharray:none;marker:none;visibility:visible;display:inline;overflow:visible;enable-background:accumulate"
         id="rect4340"
         width="88"
         height="88"
         x="292"
         y="33.5"
         ry="18" />
      <rect
         ry="18"
         y="52.5"
         x="292"
         height="69"
         width="88"
         id="rect4338"
         style="opacity:0.3;color:#bebebe;fill:#000000;fill-opacity:1;fill-rule:nonzero;stroke:none;stroke-width:0;marker:none;visibility:visible;display:inline;overflow:visible;enable-background:accumulate" />
      <rect
         style="opacity:0.3;color:#bebebe;fill:#000000;fill-opacity:1;fill-rule:nonzero;stroke:none;stroke-width:0;marker:none;visibility:visible;display:inline;overflow:visible;enable-background:accumulate"
         id="rect4335"
         width="88"
         height="76.5"
         x="292"
         y="44.5"
         ry="18" />
      <rect
         style="opacity:0.05;color:#bebebe;fill:#000000;fill-opacity:1;fill-rule:nonzero;stroke:#000000;stroke-width:1;stroke-miterlimit:4;stroke-opacity:1;stroke-dasharray:none;marker:none;visibility:visible;display:inline;overflow:visible;enable-background:accumulate"
         id="rect4214"
         width="60"
         height="60"
         x="290"
         y="143.5"
         ry="12.5" />
      <rect
         ry="12.5"
         y="151.5"
         x="290"
         height="52"
         width="60"
         id="rect4206"
         style="opacity:0.3;color:#bebebe;fill:#000000;fill-opacity:1;fill-rule:nonzero;stroke:none;stroke-width:0;marker:none;visibility:visible;display:inline;overflow:visible;enable-background:accumulate" />
      <rect
         style="opacity:0.3;color:#bebebe;fill:#000000;fill-opacity:1;fill-rule:nonzero;stroke:none;stroke-width:0;marker:none;visibility:visible;display:inline;overflow:visible;enable-background:accumulate"
         id="rect4212"
         width="60"
         height="54.5"
         x="290"
         y="148.5"
         ry="12.5" />
      <rect
         style="opacity:0.5;color:#bebebe;fill:#000000;fill-opacity:1;fill-rule:nonzero;stroke:none;stroke-width:0;marker:none;visibility:visible;display:inline;overflow:visible;enable-background:accumulate"
         id="rect4058"
         width="30"
         height="30"
         x="417"
         y="54"
         ry="7" />
      <rect
         ry="50"
         y="48"
         x="34"
         height="220"
         width="220"
         id="rect3872"
         style="opacity:0.05;color:#bebebe;fill:#000000;fill-opacity:1;fill-rule:nonzero;stroke:#000000;stroke-width:2;stroke-miterlimit:4;stroke-opacity:1;stroke-dasharray:none;marker:none;visibility:visible;display:inline;overflow:visible;enable-background:accumulate" />
      <rect
         style="opacity:0.3;color:#bebebe;fill:#000000;fill-opacity:1;fill-rule:nonzero;stroke:none;stroke-width:0;marker:none;visibility:visible;display:inline;overflow:visible;enable-background:accumulate"
         id="rect3870"
         width="220"
         height="220"
         x="34"
         y="48"
         ry="50" />
      <rect
         ry="50"
         y="47"
         x="34"
         height="220"
         width="220"
         id="rect3868"
         style="opacity:0.3;color:#bebebe;fill:#000000;fill-opacity:1;fill-rule:nonzero;stroke:none;stroke-width:0;marker:none;visibility:visible;display:inline;overflow:visible;enable-background:accumulate" />
    </g>
    <g
       inkscape:groupmode="layer"
       id="layer2"
       inkscape:label="Background"
       style="display:inline">
      <rect
         style="color:#bebebe;fill:url(#linearGradient3876);fill-opacity:1;fill-rule:nonzero;stroke:none;stroke-width:0;marker:none;visibility:visible;display:inline;overflow:visible;enable-background:accumulate"
         id="rect4040"
         width="220"
         height="220"
         x="34"
         y="46"
         ry="50" />
      <rect
         ry="3"
         y="140"
         x="416"
         height="16"
         width="16"
         id="rect4095"
         style="color:#bebebe;fill:url(#linearGradient4097);fill-opacity:1;fill-rule:nonzero;stroke:none;stroke-width:0;marker:none;visibility:visible;display:inline;overflow:visible;enable-background:accumulate" />
      <rect
         style="color:#bebebe;fill:url(#linearGradient4101);fill-opacity:1;fill-rule:nonzero;stroke:none;stroke-width:0;marker:none;visibility:visible;display:inline;overflow:visible;enable-background:accumulate"
         id="rect4099"
         width="22"
         height="22"
         x="417"
         y="101"
         ry="5" />
      <rect
         ry="7"
         y="53"
         x="417"
         height="30"
         width="30"
         id="rect4151"
         style="color:#bebebe;fill:url(#linearGradient4153);fill-opacity:1;fill-rule:nonzero;stroke:none;stroke-width:0;marker:none;visibility:visible;display:inline;overflow:visible;enable-background:accumulate" />
      <rect
         style="color:#bebebe;fill:url(#linearGradient4869);fill-opacity:1;fill-rule:nonzero;stroke:none;stroke-width:0;marker:none;visibility:visible;display:inline;overflow:visible;enable-background:accumulate"
         id="rect4783"
         width="42"
         height="42"
         x="292"
         y="-266"
         ry="9"
         transform="scale(1,-1)" />
      <rect
         ry="18"
         y="32"
         x="292"
         height="88"
         width="88"
         id="rect4511"
         style="color:#bebebe;fill:url(#linearGradient4197);fill-opacity:1;fill-rule:nonzero;stroke:none;stroke-width:0;marker:none;visibility:visible;display:inline;overflow:visible;enable-background:accumulate" />
      <rect
         style="color:#bebebe;fill:url(#linearGradient4199);fill-opacity:1;fill-rule:nonzero;stroke:none;stroke-width:0;marker:none;visibility:visible;display:inline;overflow:visible;enable-background:accumulate"
         id="rect4515"
         width="60"
         height="60"
         x="290"
         y="142"
         ry="12.5" />
      <rect
         ry="5"
         y="101"
         x="417"
         height="22"
         width="22"
         id="rect3866"
         style="color:#bebebe;fill:none;fill-opacity:1;fill-rule:nonzero;stroke:#000000;stroke-width:2;marker:none;visibility:visible;display:inline;overflow:visible;enable-background:accumulate;stroke-opacity:1;stroke-miterlimit:4;stroke-dasharray:none;opacity:0.1"
         clip-path="url(#clipPath3871)" />
      <rect
         style="color:#bebebe;fill:none;fill-opacity:1;fill-rule:nonzero;stroke:#000000;stroke-width:2;marker:none;visibility:visible;display:inline;overflow:visible;enable-background:accumulate;stroke-opacity:1;stroke-miterlimit:4;stroke-dasharray:none;opacity:0.10000000000000001"
         id="rect3877"
         width="30"
         height="30"
         x="417"
         y="53"
         ry="7"
         clip-path="url(#clipPath3881)" />
    </g>
    <g
       inkscape:groupmode="layer"
       id="layer6"
       inkscape:label="Symbols"
       style="display:inline">
      <path
         inkscape:connector-curvature="0"
         id="path4029-6"
         d="m 171.79182,88.501946 c -21.60685,0.969895 -38.42239,18.771084 -38.71498,40.235974 l -27.23877,37.74711 c -0.45858,2.5e-4 -0.92007,-0.0207 -1.38272,0 -5.565764,0.24991 -10.678161,2.04581 -15.071186,4.83937 L -24.272043,122.79235 c -2.983146,-13.98185 -15.194925,-24.47339 -30.004115,-24.47339 -17.041942,0 -30.833732,13.8369 -30.833732,30.97199 0,17.1351 13.79179,31.1103 30.833732,31.1103 6.114455,0 11.801377,-1.87918 16.592142,-4.97763 l 113.379671,48.53201 c 3.091279,14.5621 16.239492,25.15953 31.525085,24.47339 16.33083,-0.73307 29.11354,-14.08325 29.45104,-30.28066 l 37.05581,-27.93011 c 0.60124,-4.7e-4 1.1909,0.0291 1.79748,0 22.42049,-1.00641 39.72688,-20.18174 38.71496,-42.72477 -1.01189,-22.54301 -20.0277,-39.997962 -42.44821,-38.991534 z m 0.69134,12.858934 c 15.35029,-0.68906 28.34346,11.25152 29.03626,26.68569 0.69281,15.43418 -11.19714,28.48544 -26.54745,29.17452 -15.35028,0.68907 -28.34345,-11.25153 -29.03623,-26.6857 -0.69282,-15.43417 11.19713,-28.48546 26.54742,-29.17451 z m -229.248133,3.45669 c 0.821918,-0.0841 1.644902,0 2.488815,0 10.019483,0 18.615982,6.0142 22.399412,14.65641 l -15.485986,-6.63685 a 17.700057,17.700057 0 0 0 -8.710902,-1.52098 17.700057,17.700057 0 0 0 -5.254151,34.01391 l 16.039048,6.91339 c -2.771633,1.09722 -5.83128,1.65921 -8.987421,1.65921 -13.50316,0 -24.473392,-11.03473 -24.473392,-24.61171 0,-12.7284 9.65569,-23.21448 21.984577,-24.47338 z m 229.524693,4.00977 c -11.25701,0.50532 -20.00388,10.11297 -19.4958,21.43149 0.50806,11.31856 10.03625,20.13935 21.29329,19.63406 11.25697,-0.50531 20.00382,-10.11297 19.49574,-21.43153 -0.50804,-11.31852 -10.03624,-20.13932 -21.29323,-19.63402 z m -68.02779,64.01803 c 13.48969,-0.60558 24.9707,9.94209 25.57953,23.50552 0.60883,13.56342 -9.87755,25.11227 -23.36727,25.71782 -10.424104,0.46795 -19.607789,-5.69754 -23.505537,-14.79467 l 15.071209,6.36035 a 17.700057,17.700057 0 1 0 13.965048,-32.49295 l -15.486025,-6.63685 c 2.418929,-0.95423 4.998115,-1.53602 7.743045,-1.65922 z"
         style="color:#000000;fill:#32124c;fill-opacity:1;fill-rule:nonzero;stroke:none;stroke-width:1.5;marker:none;visibility:visible;display:inline;overflow:visible;enable-background:accumulate"
         clip-path="url(#clipPath3920)" />
      <path
         style="color:#000000;fill:#32124c;fill-opacity:1;fill-rule:nonzero;stroke:none;stroke-width:1.5;marker:none;visibility:visible;display:inline;overflow:visible;enable-background:accumulate"
         d="m 349.40656,46.37181 c -9.26009,0.41567 -16.46674,8.044752 -16.59214,17.243989 l -11.67376,16.177333 c -0.19655,1.09e-4 -0.39431,-0.009 -0.59259,0 -2.38532,0.107094 -4.57634,0.876772 -6.45907,2.074019 L 265.3792,61.067702 c -1.27849,-5.992227 -6.51213,-10.488599 -12.85892,-10.488599 -7.30369,0 -13.21446,5.930104 -13.21446,13.273715 0,7.343606 5.91077,13.332981 13.21446,13.332981 2.62048,0 5.05773,-0.805366 7.11093,-2.133276 l 48.59128,20.799435 c 1.32483,6.240902 6.95979,10.782662 13.51074,10.488602 6.99893,-0.31417 12.47724,-6.03568 12.62189,-12.977428 l 15.88106,-11.970055 c 0.25767,-1.93e-4 0.51039,0.01257 0.77034,0 9.60877,-0.431316 17.02582,-8.649311 16.59214,-18.310609 -0.43367,-9.661292 -8.5833,-17.141982 -18.1921,-16.710658 z m 0.29629,5.510968 c 6.57869,-0.295308 12.1472,4.822088 12.44411,11.43673 0.29692,6.614643 -4.79878,12.208051 -11.37747,12.503365 -6.57869,0.295306 -12.1472,-4.822089 -12.44412,-11.43673 -0.29691,-6.614642 4.79879,-12.20805 11.37748,-12.503365 z m -98.2492,1.481442 c 0.35226,-0.036 0.70497,0 1.06663,0 4.29407,0 7.97829,2.577516 9.59974,6.281318 l -6.63683,-2.844367 a 7.5857389,7.5857389 0 0 0 -3.73325,-0.651841 7.5857389,7.5857389 0 0 0 -2.25178,14.577388 l 6.87388,2.962879 c -1.18784,0.470238 -2.49912,0.711092 -3.85176,0.711092 -5.78706,0 -10.4886,-4.729171 -10.4886,-10.547871 0,-5.455032 4.13816,-9.949071 9.42197,-10.488598 z m 98.36773,1.718475 c -4.82443,0.21656 -8.5731,4.33413 -8.35535,9.184924 0.21775,4.850809 4.30126,8.631154 9.12569,8.414594 4.82443,-0.21656 8.57308,-4.334129 8.35533,-9.184944 -0.21773,-4.850795 -4.30126,-8.631134 -9.12567,-8.414574 z M 320.6666,82.518992 c 5.7813,-0.25953 10.70174,4.260899 10.96266,10.073798 0.26093,5.812889 -4.23323,10.7624 -10.01455,11.02192 -4.46746,0.20055 -8.40333,-2.4418 -10.0738,-6.340567 L 318,100 a 7.5857389,7.5857389 0 1 0 5.98503,-13.925547 l -6.63688,-2.84437 c 1.03669,-0.408954 2.14205,-0.658292 3.31845,-0.711091 z"
         id="path3088"
         inkscape:connector-curvature="0"
         clip-path="url(#clipPath3911)" />
      <path
         inkscape:connector-curvature="0"
         id="path3096"
         d="m 329.93765,152.24787 c -6.17339,0.27712 -10.97782,5.36317 -11.06143,11.49599 l -7.7825,10.7849 c -0.13096,6e-5 -0.26287,-0.006 -0.39506,0 -1.59021,0.0715 -3.05091,0.58451 -4.30605,1.38267 l -32.4732,-13.8663 c -0.85234,-3.99481 -4.34142,-6.99239 -8.57261,-6.99239 -4.86911,0 -8.80964,3.95339 -8.80964,8.84914 0,4.89574 3.94053,8.88866 8.80964,8.88866 1.74699,0 3.37182,-0.53691 4.74061,-1.42218 l 32.3942,13.86628 c 0.88321,4.1606 4.63986,7.18844 9.00716,6.99239 4.66595,-0.20944 8.31816,-4.02379 8.41458,-8.65161 l 10.58738,-7.98004 c 0.17169,-1.2e-4 0.34026,0.009 0.51356,0 6.40586,-0.28754 11.35053,-5.7662 11.06142,-12.20706 -0.28911,-6.44088 -5.7222,-11.42801 -12.12806,-11.14045 z m 0.19756,3.674 c 4.3858,-0.19695 8.09812,3.21471 8.29608,7.62447 0.19796,4.40975 -3.19918,8.1387 -7.58499,8.33556 -4.38578,0.19696 -8.09812,-3.21471 -8.29605,-7.62447 -0.19797,-4.40975 3.19917,-8.1387 7.58496,-8.33556 z m -65.49945,0.98761 c 0.23484,-0.024 0.46996,0 0.71107,0 2.86272,0 5.31886,1.71834 6.39983,4.18755 l -4.42456,-1.89625 a 5.0571591,5.0571591 0 0 0 -2.48881,-0.43456 5.0571591,5.0571591 0 0 0 -1.5012,9.71826 l 4.5826,1.97525 c -0.79189,0.31349 -1.66609,0.47406 -2.56786,0.47406 -3.85803,0 -6.99238,-3.15277 -6.99238,-7.03191 0,-3.63668 2.75876,-6.63272 6.28131,-6.9924 z m 65.57847,1.14566 c -3.2163,0.1444 -5.7154,2.8894 -5.57022,6.12326 0.14521,3.23388 2.8675,5.7541 6.0838,5.60974 3.21627,-0.1444 5.71538,-2.88942 5.5702,-6.12328 -0.14521,-3.23387 -2.86751,-5.7541 -6.08378,-5.60972 z M 310.77772,176.346 c 3.85419,-0.17312 7.13449,2.84058 7.30843,6.71586 0.17394,3.87526 -2.82215,7.17493 -6.67635,7.34794 -2.97831,0.13362 -5.60223,-1.62787 -6.71588,-4.22703 L 309,188 a 5.0571591,5.0571591 0 1 0 3.99001,-9.28371 l -4.42459,-1.89625 c 0.69111,-0.27262 1.42804,-0.43885 2.2123,-0.47404 z"
         style="color:#000000;fill:#32124c;fill-opacity:1;fill-rule:nonzero;stroke:none;stroke-width:1.5;marker:none;visibility:visible;display:inline;overflow:visible;enable-background:accumulate"
         clip-path="url(#clipPath3898)" />
      <path
         inkscape:connector-curvature="0"
         style="color:#000000;fill:#32124c;fill-opacity:1;fill-rule:nonzero;stroke:none;stroke-width:8;marker:none;visibility:visible;display:inline;overflow:visible;enable-background:accumulate"
         d="m 427,143.00005 c -1.65685,0 -3,1.34315 -3,3 0,0.0658 0.0271,0.12273 0.0312,0.1875 l -1.3437,2.375 c 1.04512,0.29732 1.81514,1.24143 1.84375,2.375 l 2.6875,-1.96875 C 428.76924,148.85245 430,147.5803 430,146.00005 c 0,-1.65685 -1.34315,-3 -3,-3 z m 0,1 c 1.10457,0 2,0.89543 2,2 0,1.10457 -0.89543,2 -2,2 -1.10457,0 -2,-0.89543 -2,-2 0,-1.10457 0.89543,-2 2,-2 z m 0,1 c -0.55228,0 -1,0.44772 -1,1 0,0.55228 0.44772,1 1,1 0.55229,0 1,-0.44772 1,-1 0,-0.55228 -0.44771,-1 -1,-1 z m -11,1.59375 0,2.8125 4.03125,2 0,0.0312 C 420.22883,152.33426 421.04386,153 422,153 c 1.10457,0 2,-0.89543 2,-2 0,-1.10457 -0.89543,-2 -2,-2 -0.29109,0 -0.56302,0.0757 -0.8125,0.1875 L 416,146.59375 z"
         id="path3877-5"
         sodipodi:nodetypes="ssccccssssssssssssccccsssccc" />
      <path
         inkscape:connector-curvature="0"
         style="color:#000000;fill:#32124c;fill-opacity:1;fill-rule:nonzero;stroke:none;stroke-width:1.5;marker:none;visibility:visible;display:inline;overflow:visible;enable-background:accumulate"
         d="m 319.71381,231.25828 c -4.32475,0.19413 -7.67664,3.73078 -7.73521,8.0271 l -5.47301,7.58925 c -0.0918,5e-5 -0.16281,-0.005 -0.25541,0 -1.11403,0.0499 -2.14912,0.38952 -3.02841,0.94865 L 286,240.45295 l 0,7.69872 14.48526,6.20275 c 0.61874,2.9147 3.25271,5.02657 6.31221,4.88925 3.26872,-0.14674 5.84332,-2.81481 5.91087,-6.05682 l 7.40683,-5.58248 c 0.12034,-9e-5 0.24346,0.006 0.36486,0 4.4876,-0.20145 7.93774,-4.02579 7.7352,-8.53791 -0.20253,-4.51213 -4.01381,-8.00962 -8.50142,-7.80818 z m 0.14594,2.55408 c 3.07246,-0.13793 5.66274,2.27431 5.80141,5.36356 0.13867,3.08924 -2.21813,5.69997 -5.29058,5.83788 -3.07246,0.13794 -5.69923,-2.27431 -5.8379,-5.36355 -0.13867,-3.08925 2.25462,-5.69998 5.32707,-5.83789 z m 0.0729,1.49595 c -2.25315,0.10115 -4.00577,2.03998 -3.90409,4.30545 0.10174,2.26549 1.97931,4.04171 4.23247,3.94058 2.25316,-0.10115 4.00578,-2.03997 3.9041,-4.30545 -0.10174,-2.26548 -1.97932,-4.04171 -4.23248,-3.94058 z m -13.64607,12.80687 c 2.70005,-0.1212 5.02279,1.99199 5.14465,4.7068 0.12187,2.71481 -2.00676,5.02344 -4.7068,5.14464 -2.08645,0.0937 -3.89017,-1.13458 -4.67032,-2.95543 l 2.99192,1.27704 a 3.5427762,3.5427762 0 1 0 2.80949,-6.49466 l -3.10138,-1.31352 c 0.48417,-0.191 0.98304,-0.3402 1.53244,-0.36487 z"
         id="path4075-7"
         clip-path="url(#clipPath3931)" />
      <path
         style="color:#bebebe;fill:#32124c;fill-opacity:1;fill-rule:nonzero;stroke:none;stroke-width:2;marker:none;visibility:visible;display:inline;overflow:visible;enable-background:accumulate"
         d="m 437,58 c -3.31371,0 -6,2.686292 -6,6 0,0.293868 0.0217,0.592437 0.0625,0.875 l -2.625,5.28125 c -0.44147,0.108006 -0.8704,0.272487 -1.25,0.5 l -10.1875,-4.75 0,5.53125 8.0625,3.78125 C 425.4082,77.360508 427.26069,79 429.5,79 c 2.48528,0 4.5,-2.014719 4.5,-4.5 0,-0.450124 -0.0958,-0.871172 -0.21875,-1.28125 L 437,70 c 3.31371,0 6,-2.686292 6,-6 0,-3.313708 -2.68629,-6 -6,-6 z m 0,2 c 2.20914,0 4,1.790861 4,4 0,2.209139 -1.79086,4 -4,4 -2.20914,0 -4,-1.790861 -4,-4 0,-2.209139 1.79086,-4 4,-4 z m 0,1 c -1.65685,0 -3,1.343146 -3,3 0,1.656854 1.34315,3 3,3 1.65685,0 3,-1.343146 3,-3 0,-1.656854 -1.34315,-3 -3,-3 z m -7.5,10 c 1.933,0 3.5,1.567003 3.5,3.5 0,1.932997 -1.567,3.5 -3.5,3.5 -1.49462,0 -2.7482,-0.931498 -3.25,-2.25 l 2.1875,1.03125 C 428.75895,76.931706 429.12163,77 429.5,77 c 1.38071,0 2.5,-1.119288 2.5,-2.5 0,-0.997033 -0.59322,-1.848633 -1.4375,-2.25 -0.005,-0.0021 0.005,-0.02914 0,-0.03125 l -0.0937,-0.03125 -2.125,-0.96875 C 428.7047,71.0929 429.09614,71 429.5,71 z"
         id="path4659"
         inkscape:connector-curvature="0" />
      <path
         style="color:#bebebe;fill:#32124c;fill-opacity:1;fill-rule:nonzero;stroke:none;stroke-width:1;marker:none;visibility:visible;display:inline;overflow:visible;enable-background:accumulate"
         d="m 432.0156,105 c -2.20914,0 -4,1.79086 -4,4 l -2,4 c 1.68268,0 3.13126,1.04925 3.71875,2.53125 l 3.0625,-2.625 c 1.83751,-0.36146 3.21875,-1.96277 3.21875,-3.90625 0,-2.20914 -1.79086,-4 -4,-4 z m 0,1 c 1.65685,0 3,1.34315 3,3 0,1.65685 -1.34315,3 -3,3 -1.65685,0 -3,-1.34315 -3,-3 0,-1.65685 1.34315,-3 3,-3 z m 0,1 c -1.10457,0 -2,0.89543 -2,2 0,1.10457 0.89543,2 2,2 1.10457,0 2,-0.89543 2,-2 0,-1.10457 -0.89543,-2 -2,-2 z m -15,2.5 0,4.59375 6.0625,3.5 c 0.27974,1.36705 1.48776,2.40625 2.9375,2.40625 1.65685,0 3,-1.34315 3,-3 0,-1.65685 -1.34315,-3 -3,-3 -0.32101,0 -0.61627,0.0629 -0.90625,0.15625 L 417.0156,109.5 z"
         id="path4122-4"
         inkscape:connector-curvature="0" />
    </g>
    <g
       inkscape:groupmode="layer"
       id="layer5"
       inkscape:label="Highlights"
       style="display:inline">
      <rect
         ry="9"
         y="307"
         x="-265"
         height="42"
         width="42"
         id="rect4884"
         style="opacity:0.10000000000000001;color:#bebebe;fill:none;stroke:#000000;stroke-width:2;stroke-miterlimit:4;stroke-opacity:1;stroke-dasharray:none;marker:none;visibility:visible;display:inline;overflow:visible;enable-background:accumulate"
         transform="matrix(0,1,1,0,-15,489)"
         clip-path="url(#clipPath4891)" />
      <rect
         style="opacity:0.1;color:#bebebe;fill:none;stroke:#000000;stroke-width:2;stroke-miterlimit:4;stroke-opacity:1;stroke-dasharray:none;marker:none;visibility:visible;display:inline;overflow:visible;enable-background:accumulate"
         id="rect5311"
         width="16"
         height="16"
         x="-228"
         y="304"
         ry="3"
         clip-path="url(#clipPath3855)"
         transform="matrix(0,-1,1,0,112,-72)" />
      <rect
         ry="50"
         y="46"
         x="34"
         height="220"
         width="220"
         id="rect3858"
         style="opacity:0.1;color:#bebebe;fill:none;stroke:#000000;stroke-width:2;stroke-miterlimit:4;stroke-opacity:1;stroke-dasharray:none;marker:none;visibility:visible;display:inline;overflow:visible;enable-background:accumulate"
         clip-path="url(#clipPath3862)" />
      <rect
         ry="12.5"
         y="142"
         x="290"
         height="60"
         width="60"
         id="rect4175"
         style="opacity:0.1;color:#bebebe;fill:none;stroke:#000000;stroke-width:2;stroke-miterlimit:4;stroke-opacity:1;stroke-dasharray:none;marker:none;visibility:visible;display:inline;overflow:visible;enable-background:accumulate"
         clip-path="url(#clipPath4187)" />
      <rect
         style="opacity:0.10000000000000001;color:#bebebe;fill:none;stroke:#000000;stroke-width:2;stroke-miterlimit:4;stroke-opacity:1;stroke-dasharray:none;marker:none;visibility:visible;display:inline;overflow:visible;enable-background:accumulate"
         id="rect4342"
         width="88"
         height="88"
         x="292"
         y="32"
         ry="18"
         clip-path="url(#clipPath4346)" />
    </g>
  </g>
</svg>
