<?xml version="1.0" encoding="UTF-8" standalone="no"?>
<!-- Created with Inkscape (http://www.inkscape.org/) -->

<svg
   xmlns:dc="http://purl.org/dc/elements/1.1/"
   xmlns:cc="http://creativecommons.org/ns#"
   xmlns:rdf="http://www.w3.org/1999/02/22-rdf-syntax-ns#"
   xmlns:svg="http://www.w3.org/2000/svg"
   xmlns="http://www.w3.org/2000/svg"
   xmlns:xlink="http://www.w3.org/1999/xlink"
   xmlns:sodipodi="http://sodipodi.sourceforge.net/DTD/sodipodi-0.dtd"
   xmlns:inkscape="http://www.inkscape.org/namespaces/inkscape"
   inkscape:export-ydpi="90.000000"
   inkscape:export-xdpi="90.000000"
   width="480"
   height="300"
   id="svg11300"
   sodipodi:version="0.32"
   inkscape:version="0.48.4 r9939"
   sodipodi:docname="doxbox.svg"
   inkscape:output_extension="org.inkscape.output.svg.inkscape"
   version="1.0"
   style="display:inline;enable-background:new"
   inkscape:export-filename="/home/sam/moka2-template.png">
  <sodipodi:namedview
     stroke="#ef2929"
     fill="#f57900"
     id="base"
     pagecolor="#ffffff"
     bordercolor="#666666"
     borderopacity="0.25490196"
     inkscape:pageopacity="0"
     inkscape:pageshadow="2"
     inkscape:zoom="1"
     inkscape:cx="434.37758"
     inkscape:cy="234.53031"
     inkscape:current-layer="layer6"
     showgrid="false"
     inkscape:grid-bbox="true"
     inkscape:document-units="px"
     inkscape:showpageshadow="false"
     inkscape:window-width="1364"
     inkscape:window-height="701"
     inkscape:window-x="0"
     inkscape:window-y="27"
     width="400px"
     height="300px"
     inkscape:snap-nodes="true"
     inkscape:snap-bbox="true"
     gridtolerance="10000"
     inkscape:object-nodes="true"
     inkscape:snap-grids="true"
     showguides="true"
     inkscape:guide-bbox="true"
     inkscape:window-maximized="1"
     inkscape:bbox-nodes="true"
     inkscape:bbox-paths="true"
     inkscape:snap-bbox-edge-midpoints="true"
     inkscape:snap-bbox-midpoints="true">
    <inkscape:grid
       spacingy="1px"
       spacingx="1px"
       id="grid5883"
       type="xygrid"
       enabled="true"
       visible="true"
       empspacing="4"
       snapvisiblegridlinesonly="true"
       dotted="false"
       color="#000000"
       opacity="0.1254902"
       empcolor="#203ef3"
       empopacity="0.36470588" />
    <inkscape:grid
       type="xygrid"
       id="grid11592"
       empspacing="8"
       visible="true"
       enabled="false"
       spacingx="0.5px"
       spacingy="0.5px"
       color="#ff0000"
       opacity="0.1254902"
       empcolor="#ff0000"
       empopacity="0.25098039"
       snapvisiblegridlinesonly="true"
       dotted="true" />
  </sodipodi:namedview>
  <defs
     id="defs3">
    <linearGradient
       id="outerBackgroundGradient">
      <stop
         style="stop-color:#171717;stop-opacity:1"
         offset="0"
         id="stop3864-8-6" />
      <stop
         style="stop-color:#313131;stop-opacity:1"
         offset="1"
         id="stop3866-9-1" />
    </linearGradient>
    <linearGradient
       inkscape:collect="always"
       xlink:href="#outerBackgroundGradient"
       id="linearGradient4097"
       gradientUnits="userSpaceOnUse"
       x1="264"
       y1="280.00003"
       x2="264"
       y2="40.00005"
       gradientTransform="matrix(0.06666667,0,0,0.06666667,414.4,137.33333)" />
    <linearGradient
       inkscape:collect="always"
       xlink:href="#outerBackgroundGradient"
       id="linearGradient4101"
       gradientUnits="userSpaceOnUse"
       gradientTransform="matrix(0.0875,0,0,0.0875,414.9,97.5)"
       x1="286.85715"
       y1="302.85715"
       x2="286.85715"
       y2="28.571428" />
    <linearGradient
       inkscape:collect="always"
       xlink:href="#outerBackgroundGradient"
       id="linearGradient4153"
       gradientUnits="userSpaceOnUse"
       gradientTransform="matrix(0.11931818,0,0,0.11931818,414.13636,48.22727)"
       x1="283.80957"
       y1="299.80954"
       x2="283.80957"
       y2="31.61907" />
    <linearGradient
       inkscape:collect="always"
       xlink:href="#outerBackgroundGradient"
       id="linearGradient4869"
       gradientUnits="userSpaceOnUse"
       gradientTransform="matrix(0.175,0,0,-0.175,286.79999,-215.99997)"
       x1="281.14291"
       y1="297.14304"
       x2="281.14291"
       y2="22.857315" />
    <clipPath
       clipPathUnits="userSpaceOnUse"
       id="clipPath4891">
      <rect
         ry="9"
         y="223"
         x="307"
         height="42"
         width="42"
         id="rect4893"
         style="color:#bebebe;fill:url(#linearGradient4895);fill-opacity:1;fill-rule:nonzero;stroke:none;stroke-width:0;marker:none;visibility:visible;display:inline;overflow:visible;enable-background:accumulate"
         transform="matrix(0,1,-1,0,0,0)" />
    </clipPath>
    <linearGradient
       inkscape:collect="always"
       xlink:href="#outerBackgroundGradient"
       id="linearGradient4895"
       gradientUnits="userSpaceOnUse"
       gradientTransform="matrix(0.175,0,0,0.175,302.79999,215.99997)"
       x1="144.00006"
       y1="280.00018"
       x2="144.00006"
       y2="40.000172" />
    <clipPath
       clipPathUnits="userSpaceOnUse"
       id="clipPath4044">
      <rect
         ry="4"
         y="85"
         x="433"
         height="22"
         width="22"
         id="rect4046"
         style="color:#bebebe;fill:url(#linearGradient4048);fill-opacity:1;fill-rule:nonzero;stroke:none;stroke-width:0;marker:none;visibility:visible;display:inline;overflow:visible;enable-background:accumulate" />
    </clipPath>
    <linearGradient
       inkscape:collect="always"
       xlink:href="#outerBackgroundGradient"
       id="linearGradient4048"
       gradientUnits="userSpaceOnUse"
       gradientTransform="matrix(0.0875,0,0,0.0875,430.9,81.499996)"
       x1="149.71428"
       y1="291.42862"
       x2="149.71428"
       y2="40.000046" />
    <clipPath
       clipPathUnits="userSpaceOnUse"
       id="clipPath4089">
      <rect
         style="color:#bebebe;fill:url(#linearGradient4093);fill-opacity:1;fill-rule:nonzero;stroke:none;stroke-width:0;marker:none;visibility:visible;display:inline;overflow:visible;enable-background:accumulate"
         id="rect4091"
         width="30"
         height="30"
         x="433"
         y="37"
         ry="6" />
    </clipPath>
    <linearGradient
       inkscape:collect="always"
       xlink:href="#outerBackgroundGradient"
       id="linearGradient4093"
       gradientUnits="userSpaceOnUse"
       gradientTransform="matrix(0.11931818,0,0,0.11931818,430.13636,32.227267)"
       x1="149.71432"
       y1="291.42862"
       x2="149.71432"
       y2="40.00005" />
    <clipPath
       clipPathUnits="userSpaceOnUse"
       id="clipPath3855">
      <rect
         style="color:#bebebe;fill:url(#linearGradient3859);fill-opacity:1;fill-rule:nonzero;stroke:none;stroke-width:0;marker:none;visibility:visible;display:inline;overflow:visible;enable-background:accumulate"
         id="rect3857"
         width="16"
         height="16"
         x="304"
         y="212"
         ry="3"
         transform="matrix(0,1,-1,0,0,0)" />
    </clipPath>
    <linearGradient
       inkscape:collect="always"
       xlink:href="#outerBackgroundGradient"
       id="linearGradient3859"
       gradientUnits="userSpaceOnUse"
       gradientTransform="matrix(0.06666667,0,0,0.06666667,302.4,209.33333)"
       x1="144"
       y1="280.00003"
       x2="144"
       y2="40.00005" />
    <clipPath
       clipPathUnits="userSpaceOnUse"
       id="clipPath3862">
      <rect
         ry="50"
         y="46"
         x="34"
         height="220"
         width="220"
         id="rect3864"
         style="color:#bebebe;fill:url(#linearGradient3866);fill-opacity:1;fill-rule:nonzero;stroke:none;stroke-width:0;marker:none;visibility:visible;display:inline;overflow:visible;enable-background:accumulate" />
    </clipPath>
    <linearGradient
       inkscape:collect="always"
       xlink:href="#outerBackgroundGradient"
       id="linearGradient3866"
       gradientUnits="userSpaceOnUse"
       gradientTransform="translate(0,-4)"
       x1="144"
       y1="280"
       x2="144"
       y2="40" />
    <linearGradient
       inkscape:collect="always"
       xlink:href="#outerBackgroundGradient"
       id="linearGradient3876"
       gradientUnits="userSpaceOnUse"
       gradientTransform="translate(0,-4)"
       x1="272"
       y1="288"
       x2="272"
       y2="32" />
    <clipPath
       clipPathUnits="userSpaceOnUse"
       id="clipPath4187">
      <rect
         ry="12.5"
         y="142"
         x="290"
         height="60"
         width="60"
         id="rect4189"
         style="color:#bebebe;fill:url(#linearGradient4191);fill-opacity:1;fill-rule:nonzero;stroke:none;stroke-width:0;marker:none;visibility:visible;display:inline;overflow:visible;enable-background:accumulate" />
    </clipPath>
    <linearGradient
       inkscape:collect="always"
       xlink:href="#outerBackgroundGradient"
       id="linearGradient4191"
       gradientUnits="userSpaceOnUse"
       x1="352"
       y1="204"
       x2="352"
       y2="140" />
    <linearGradient
       inkscape:collect="always"
       xlink:href="#outerBackgroundGradient"
       id="linearGradient4197"
       gradientUnits="userSpaceOnUse"
       x1="384"
       y1="124"
       x2="384"
       y2="28" />
    <linearGradient
       inkscape:collect="always"
       xlink:href="#outerBackgroundGradient"
       id="linearGradient4199"
       gradientUnits="userSpaceOnUse"
       x1="352"
       y1="204"
       x2="352"
       y2="140" />
    <clipPath
       clipPathUnits="userSpaceOnUse"
       id="clipPath4346">
      <rect
         style="color:#bebebe;fill:url(#linearGradient4350);fill-opacity:1;fill-rule:nonzero;stroke:none;stroke-width:0;marker:none;visibility:visible;display:inline;overflow:visible;enable-background:accumulate"
         id="rect4348"
         width="88"
         height="88"
         x="292"
         y="32"
         ry="18" />
    </clipPath>
    <linearGradient
       inkscape:collect="always"
       xlink:href="#outerBackgroundGradient"
       id="linearGradient4350"
       gradientUnits="userSpaceOnUse"
       x1="384"
       y1="124"
       x2="384"
       y2="28" />
    <clipPath
       clipPathUnits="userSpaceOnUse"
       id="clipPath3871">
      <rect
         ry="5"
         y="101"
         x="417"
         height="22"
         width="22"
         id="rect3873"
         style="color:#bebebe;fill:url(#linearGradient3875);fill-opacity:1;fill-rule:nonzero;stroke:none;stroke-width:0;marker:none;visibility:visible;display:inline;overflow:visible;enable-background:accumulate" />
    </clipPath>
    <linearGradient
       inkscape:collect="always"
       xlink:href="#outerBackgroundGradient"
       id="linearGradient3875"
       gradientUnits="userSpaceOnUse"
       gradientTransform="matrix(0.0875,0,0,0.0875,414.9,97.5)"
       x1="286.85715"
       y1="302.85715"
       x2="286.85715"
       y2="28.571428" />
    <clipPath
       clipPathUnits="userSpaceOnUse"
       id="clipPath3881">
      <rect
         style="color:#bebebe;fill:url(#linearGradient3885);fill-opacity:1;fill-rule:nonzero;stroke:none;stroke-width:0;marker:none;visibility:visible;display:inline;overflow:visible;enable-background:accumulate"
         id="rect3883"
         width="30"
         height="30"
         x="417"
         y="53"
         ry="7" />
    </clipPath>
    <linearGradient
       inkscape:collect="always"
       xlink:href="#outerBackgroundGradient"
       id="linearGradient3885"
       gradientUnits="userSpaceOnUse"
       gradientTransform="matrix(0.11931818,0,0,0.11931818,414.13636,48.22727)"
       x1="283.80957"
       y1="299.80954"
       x2="283.80957"
       y2="31.61907" />
    <filter
       inkscape:collect="always"
       id="filter3849">
      <feGaussianBlur
         inkscape:collect="always"
         stdDeviation="2.8986223"
         id="feGaussianBlur3851" />
    </filter>
    <filter
       inkscape:collect="always"
       id="filter3922"
       x="-0.14239351"
       width="1.284787"
       y="-0.10369276"
       height="1.2073855">
      <feGaussianBlur
         inkscape:collect="always"
         stdDeviation="5.484375"
         id="feGaussianBlur3924" />
    </filter>
    <filter
       inkscape:collect="always"
       id="filter3932">
      <feGaussianBlur
         inkscape:collect="always"
         stdDeviation="2.7421875"
         id="feGaussianBlur3934" />
    </filter>
    <filter
       inkscape:collect="always"
       id="filter3942">
      <feGaussianBlur
         inkscape:collect="always"
         stdDeviation="1.6453125"
         id="feGaussianBlur3944" />
    </filter>
  </defs>
  <metadata
     id="metadata4">
    <rdf:RDF>
      <cc:Work
         rdf:about="">
        <dc:format>image/svg+xml</dc:format>
        <dc:type
           rdf:resource="http://purl.org/dc/dcmitype/StillImage" />
        <dc:creator>
          <cc:Agent>
            <dc:title>Sam Hewitt</dc:title>
          </cc:Agent>
        </dc:creator>
        <dc:source />
        <cc:license
           rdf:resource="" />
        <dc:title />
        <dc:subject>
          <rdf:Bag />
        </dc:subject>
        <dc:date />
        <dc:rights>
          <cc:Agent>
            <dc:title />
          </cc:Agent>
        </dc:rights>
        <dc:publisher>
          <cc:Agent>
            <dc:title />
          </cc:Agent>
        </dc:publisher>
        <dc:identifier />
        <dc:relation />
        <dc:language />
        <dc:coverage />
        <dc:description />
        <dc:contributor>
          <cc:Agent>
            <dc:title />
          </cc:Agent>
        </dc:contributor>
      </cc:Work>
      <cc:Work
         rdf:about="">
        <dc:format>image/svg+xml</dc:format>
        <dc:type
           rdf:resource="http://purl.org/dc/dcmitype/StillImage" />
      </cc:Work>
    </rdf:RDF>
  </metadata>
  <g
     style="display:inline"
     inkscape:groupmode="layer"
     inkscape:label="Icon"
     id="layer1">
    <g
       style="display:none"
       inkscape:label="Baseplate"
       id="layer7"
       inkscape:groupmode="layer">
      <text
         y="19.745117"
         xml:space="preserve"
         x="15.006836"
         style="font-size:18px;font-style:normal;font-variant:normal;font-weight:normal;font-stretch:normal;fill:#000000;fill-opacity:1;stroke:none;display:inline;enable-background:new;font-family:DejaVu Sans;-inkscape-font-specification:DejaVu Sans"
         inkscape:label="context"
         id="context"><tspan
           style="font-style:normal;font-variant:normal;font-weight:normal;font-stretch:normal;font-family:DejaVu Sans;-inkscape-font-specification:DejaVu Sans"
           y="19.745117"
           x="15.006836"
           sodipodi:role="line"
           id="tspan3933">apps</tspan></text>
      <text
         y="19.745117"
         xml:space="preserve"
         x="122.48828"
         style="font-size:18px;font-style:normal;font-variant:normal;font-weight:bold;font-stretch:normal;text-align:start;line-height:125%;writing-mode:lr-tb;text-anchor:start;fill:#000000;fill-opacity:1;stroke:none;display:inline;enable-background:new;font-family:DejaVu Sans;-inkscape-font-specification:DejaVu Sans Bold"
         sodipodi:linespacing="125%"
         inkscape:label="icon-name"
         id="icon-name"><tspan
           style="font-size:18px;font-style:normal;font-variant:normal;font-weight:bold;font-stretch:normal;font-family:DejaVu Sans;-inkscape-font-specification:DejaVu Sans Bold"
           y="19.745117"
           x="122.48828"
           sodipodi:role="line"
           id="tspan3937">dosbox</tspan></text>
      <rect
         style="fill:#eeeeec;fill-opacity:1;fill-rule:nonzero;stroke:none;stroke-width:2;marker:none;visibility:visible;display:inline;overflow:visible;enable-background:accumulate"
         id="rect16x16"
         width="16"
         height="16"
         x="416"
         y="140"
         inkscape:label="16x16" />
      <rect
         style="fill:#d4d4d4;fill-opacity:1;fill-rule:nonzero;stroke:none;stroke-width:2;marker:none;visibility:visible;display:inline;overflow:visible;enable-background:accumulate"
         id="rect24x24"
         width="24"
         height="24"
         x="416"
         y="100"
         inkscape:label="24x24" />
      <rect
         style="fill:#eeeeec;fill-opacity:1;fill-rule:nonzero;stroke:none;stroke-width:2;marker:none;visibility:visible;display:inline;overflow:visible;enable-background:accumulate"
         id="rect32x32"
         width="32"
         height="32"
         x="416"
         y="52"
         inkscape:label="32x32" />
      <rect
         inkscape:label="22x22"
         y="101"
         x="417"
         height="22"
         width="22"
         id="rect22x22"
         style="fill:#eeeeec;fill-opacity:1;fill-rule:nonzero;stroke:none;stroke-width:2;marker:none;visibility:visible;display:inline;overflow:visible;enable-background:accumulate" />
      <rect
         inkscape:label="48x48"
         y="220"
         x="288"
         height="48"
         width="48"
         id="rect48x48"
         style="fill:#eeeeec;fill-opacity:1;fill-rule:nonzero;stroke:none;stroke-width:2;marker:none;visibility:visible;display:inline;overflow:visible;enable-background:accumulate" />
      <rect
         style="fill:#eeeeec;fill-opacity:1;fill-rule:nonzero;stroke:none;stroke-width:2;marker:none;visibility:visible;display:inline;overflow:visible;enable-background:accumulate"
         id="rect256x256"
         width="256"
         height="256"
         x="16"
         y="28"
         inkscape:label="256x256" />
      <rect
         style="fill:#eeeeec;fill-opacity:1;fill-rule:nonzero;stroke:none;stroke-width:2;marker:none;visibility:visible;display:inline;overflow:visible;enable-background:accumulate"
         id="rect64x64"
         width="64"
         height="64"
         x="288"
         y="140"
         inkscape:label="64x64" />
      <rect
         style="fill:#eeeeec;fill-opacity:1;fill-rule:nonzero;stroke:none;stroke-width:2;marker:none;visibility:visible;display:inline;overflow:visible;enable-background:accumulate"
         id="rect96x96"
         width="96"
         height="96"
         x="288"
         y="28"
         inkscape:label="96x96" />
    </g>
    <g
       inkscape:groupmode="layer"
       id="layer4"
       inkscape:label="Shadow"
       style="display:inline"
       sodipodi:insensitive="true">
      <rect
         style="opacity:0;color:#bebebe;fill:#000000;fill-opacity:1;stroke:#000000;stroke-width:1;stroke-miterlimit:4;stroke-opacity:1;stroke-dasharray:none;marker:none;visibility:visible;display:inline;overflow:visible;enable-background:accumulate"
         id="rect4156"
         width="42"
         height="42"
         x="-266.5"
         y="291"
         ry="9"
         transform="matrix(0,-1,1,0,0,0)" />
      <rect
         transform="matrix(0,-1,1,0,0,0)"
         ry="9"
         y="291"
         x="-266.5"
         height="42"
         width="40"
         id="rect4183"
         style="opacity:0.1;color:#bebebe;fill:#000000;fill-opacity:1;stroke:none;stroke-width:1;marker:none;visibility:visible;display:inline;overflow:visible;enable-background:accumulate" />
      <rect
         ry="9"
         y="237"
         x="291"
         height="29"
         width="42"
         id="rect4144"
         style="opacity:0.1;color:#bebebe;fill:#000000;fill-opacity:1;fill-rule:nonzero;stroke:none;stroke-width:0;marker:none;visibility:visible;display:inline;overflow:visible;enable-background:accumulate" />
      <rect
         style="opacity:0;color:#bebebe;fill:#000000;fill-opacity:1;fill-rule:nonzero;stroke:#000000;stroke-width:1;stroke-miterlimit:4;stroke-opacity:1;stroke-dasharray:none;marker:none;visibility:visible;display:inline;overflow:visible;enable-background:accumulate"
         id="rect4340"
         width="88"
         height="88"
         x="292"
         y="33.5"
         ry="18" />
      <rect
         ry="18"
         y="52.5"
         x="292"
         height="69"
         width="88"
         id="rect4338"
         style="opacity:0.1;color:#bebebe;fill:#000000;fill-opacity:1;fill-rule:nonzero;stroke:none;stroke-width:0;marker:none;visibility:visible;display:inline;overflow:visible;enable-background:accumulate" />
      <rect
         style="opacity:0.1;color:#bebebe;fill:#000000;fill-opacity:1;fill-rule:nonzero;stroke:none;stroke-width:0;marker:none;visibility:visible;display:inline;overflow:visible;enable-background:accumulate"
         id="rect4335"
         width="88"
         height="76.5"
         x="292"
         y="44.5"
         ry="18" />
      <rect
         style="opacity:0;color:#bebebe;fill:#000000;fill-opacity:1;fill-rule:nonzero;stroke:#000000;stroke-width:1;stroke-miterlimit:4;stroke-opacity:1;stroke-dasharray:none;marker:none;visibility:visible;display:inline;overflow:visible;enable-background:accumulate"
         id="rect4214"
         width="60"
         height="60"
         x="290"
         y="143.5"
         ry="12.5" />
      <rect
         ry="12.5"
         y="151.5"
         x="290"
         height="52"
         width="60"
         id="rect4206"
         style="opacity:0.1;color:#bebebe;fill:#000000;fill-opacity:1;fill-rule:nonzero;stroke:none;stroke-width:0;marker:none;visibility:visible;display:inline;overflow:visible;enable-background:accumulate" />
      <rect
         style="opacity:0.1;color:#bebebe;fill:#000000;fill-opacity:1;fill-rule:nonzero;stroke:none;stroke-width:0;marker:none;visibility:visible;display:inline;overflow:visible;enable-background:accumulate"
         id="rect4212"
         width="60"
         height="54.5"
         x="290"
         y="148.5"
         ry="12.5" />
      <rect
         style="opacity:0.2;color:#bebebe;fill:#000000;fill-opacity:1;fill-rule:nonzero;stroke:none;stroke-width:0;marker:none;visibility:visible;display:inline;overflow:visible;enable-background:accumulate"
         id="rect4058"
         width="30"
         height="30"
         x="417"
         y="54"
         ry="7" />
      <rect
         ry="50"
         y="48"
         x="34"
         height="220"
         width="220"
         id="rect3872"
         style="opacity:0;color:#bebebe;fill:#000000;fill-opacity:1;fill-rule:nonzero;stroke:#000000;stroke-width:2;stroke-miterlimit:4;stroke-opacity:1;stroke-dasharray:none;marker:none;visibility:visible;display:inline;overflow:visible;enable-background:accumulate" />
      <rect
         style="opacity:0.1;color:#bebebe;fill:#000000;fill-opacity:1;fill-rule:nonzero;stroke:none;stroke-width:0;marker:none;visibility:visible;display:inline;overflow:visible;enable-background:accumulate"
         id="rect3870"
         width="220"
         height="220"
         x="34"
         y="48"
         ry="50" />
      <rect
         ry="50"
         y="47"
         x="34"
         height="220"
         width="220"
         id="rect3868"
         style="opacity:0.1;color:#bebebe;fill:#000000;fill-opacity:1;fill-rule:nonzero;stroke:none;stroke-width:0;marker:none;visibility:visible;display:inline;overflow:visible;enable-background:accumulate" />
    </g>
    <g
       inkscape:groupmode="layer"
       id="layer2"
       inkscape:label="Background"
       style="display:inline">
      <rect
         style="color:#bebebe;fill:url(#linearGradient3876);fill-opacity:1;fill-rule:nonzero;stroke:none;stroke-width:0;marker:none;visibility:visible;display:inline;overflow:visible;enable-background:accumulate"
         id="rect4040"
         width="220"
         height="220"
         x="34"
         y="46"
         ry="50" />
      <rect
         ry="3"
         y="140"
         x="416"
         height="16"
         width="16"
         id="rect4095"
         style="color:#bebebe;fill:url(#linearGradient4097);fill-opacity:1;fill-rule:nonzero;stroke:none;stroke-width:0;marker:none;visibility:visible;display:inline;overflow:visible;enable-background:accumulate" />
      <rect
         style="color:#bebebe;fill:url(#linearGradient4101);fill-opacity:1;fill-rule:nonzero;stroke:none;stroke-width:0;marker:none;visibility:visible;display:inline;overflow:visible;enable-background:accumulate"
         id="rect4099"
         width="22"
         height="22"
         x="417"
         y="101"
         ry="5" />
      <rect
         ry="7"
         y="53"
         x="417"
         height="30"
         width="30"
         id="rect4151"
         style="color:#bebebe;fill:url(#linearGradient4153);fill-opacity:1;fill-rule:nonzero;stroke:none;stroke-width:0;marker:none;visibility:visible;display:inline;overflow:visible;enable-background:accumulate" />
      <rect
         style="color:#bebebe;fill:url(#linearGradient4869);fill-opacity:1;fill-rule:nonzero;stroke:none;stroke-width:0;marker:none;visibility:visible;display:inline;overflow:visible;enable-background:accumulate"
         id="rect4783"
         width="42"
         height="42"
         x="291"
         y="-265"
         ry="9"
         transform="scale(1,-1)" />
      <rect
         ry="18"
         y="32"
         x="292"
         height="88"
         width="88"
         id="rect4511"
         style="color:#bebebe;fill:url(#linearGradient4197);fill-opacity:1;fill-rule:nonzero;stroke:none;stroke-width:0;marker:none;visibility:visible;display:inline;overflow:visible;enable-background:accumulate" />
      <rect
         style="color:#bebebe;fill:url(#linearGradient4199);fill-opacity:1;fill-rule:nonzero;stroke:none;stroke-width:0;marker:none;visibility:visible;display:inline;overflow:visible;enable-background:accumulate"
         id="rect4515"
         width="60"
         height="60"
         x="290"
         y="142"
         ry="12.5" />
    </g>
    <g
       inkscape:groupmode="layer"
       id="layer6"
       inkscape:label="Symbols"
       style="display:inline">
      <path
         inkscape:connector-curvature="0"
         id="path4028"
         d="m 429.75774,57 0,0.644511 0.6391,0 0,5.123585 -0.6391,0 0,0.64451 3.84539,0 0,-0.64451 0.6391,0 0,-2.561793 -0.6391,0 0,-0.639093 0.6391,0 0,-1.922699 -0.6391,0 0,-0.64451 -3.84539,0 z m 1.92271,0.644511 1.28361,0 0,1.922698 -1.28361,0 0,-1.922699 z m 0,2.561791 1.28361,0 0,2.561793 -1.28361,0 0,-2.561793 z m -7.69081,4.587396 0,0.644511 0.6391,0 0,5.123583 -0.6391,0 0,0.64451 3.20089,0 0,-0.64451 0.64452,0 0,-0.639093 0.63911,0 0,-3.845396 -0.63911,0 0,-0.639094 -0.64452,0 0,-0.64451 -3.20089,0 z m 6.40719,0 0,0.644511 -0.63909,0 0,5.123583 0.63909,0 0,0.64451 3.2063,0 0,-0.64451 0.6391,0 0,-5.123583 -0.6391,0 0,-0.644511 -3.2063,0 z m 5.76811,0 0,0.644511 -0.6391,0 0,1.278189 0.6391,0 0,0.64451 0.64452,0 0,0.639093 1.27818,0 0,0.639092 0.6445,0 0,1.922699 -1.92268,0 0,-1.278189 -1.2836,0 0,1.278189 0.6391,0 0,0.64451 3.2063,0 0,-0.64451 0.63909,0 0,-1.922699 -0.63909,0 0,-0.639092 -0.6391,0 0,-0.639093 -1.28361,0 0,-0.64451 -0.63909,0 0,-1.278189 1.92268,0 0,1.278189 1.27819,0 0,-1.278189 -0.63909,0 0,-0.644511 -3.2063,0 z m -10.25259,0.644511 0.63911,0 0,0.639093 0.63909,0 0,3.845396 -0.63909,0 0,0.639094 -0.63911,0 0,-5.123584 z m 5.12358,0 1.92812,0 0,5.123583 -1.92812,0 0,-5.123583 z m -1.27819,7.149187 0,1.283604 0.6391,0 0,1.283604 0.63909,0 0,1.278189 -0.63909,0 0,1.283603 -0.6391,0 0,1.283604 1.27819,0 0,-1.283604 0.64453,0 0,-0.639094 0.63908,0 0,0.639094 0.64451,0 0,1.283604 1.27818,0 0,-1.283604 -0.63907,0 0,-1.283603 -0.6391,0 0,-1.278189 0.6391,0 0,-1.283604 0.63907,0 0,-1.283604 -1.27818,0 0,1.283604 -0.64451,0 0,0.639094 -0.63908,0 0,-0.639094 -0.64453,0 0,-1.283604 -1.27819,0 z"
         style="font-size:59.17159652999999508px;font-style:normal;font-variant:normal;font-weight:normal;font-stretch:normal;text-align:center;line-height:75.99999904999999956%;letter-spacing:0px;word-spacing:0px;text-anchor:middle;fill:#fbd13d;fill-opacity:1;stroke:#fbd13d;font-family:Perfect DOS VGA 437 Win;-inkscape-font-specification:Perfect DOS VGA 437 Win;stroke-opacity:1;opacity:0.1" />
      <path
         sodipodi:nodetypes="ccccccccccccccccccccccccccccccccccccccccccccccccccccccccccccccccccccccccccccccccccccccccccccccccccccccccccccccccccccccccccccccccccccccccccccccccccccccccccccccccccc"
         inkscape:connector-curvature="0"
         id="path4030"
         d="m 418.5581,142.83932 0,0.44 0.44,0 0,3.52 -0.44,0 0,0.44 2.37678,0 0,-0.44 0.44,0 0,-0.44 0.44,0 0,-2.64 -0.44,0 0,-0.44 -0.44,0 0,-0.44 z m 4.93033,0 0,0.44 -0.44,0 0,3.52 0.44,0 0,0.44 1.97903,0 0,-0.44 0.44,0 0,-3.52 -0.44,0 0,-0.44 z m 4.00419,0 0,0.44 -0.44,0 0,0.88 0.44,0 0,0.44 0.44,0 0,0.44 0.88,0 0,0.44 0.44,0 0,1.32 -1.32,0 0,-0.88 -0.88,0 0,0.88 0.44,0 0,0.44 2.2,0 0,-0.44 0.44,0 0,-1.32 -0.44,0 0,-0.44 -0.44,0 0,-0.44 -0.88,0 0,-0.44 -0.44,0 0,-0.88 1.32,0 0,0.88 0.88,0 0,-0.88 -0.44,0 0,-0.44 z m -7.61452,0.44 0.61678,0 0,0.44 0.44,0 0,2.64 -0.44,0 0,0.44 -0.61678,0 z m 4.05033,0 1.09903,0 0,3.52 -1.09903,0 z m -5.37033,5.18834 0,0.44 0.44,0 0,3.52 -0.44,0 0,0.44 2.81678,0 0,-0.44 0.44,0 0,-1.76 -0.44,0 0,-0.44 0.44,0 0,-1.32 -0.44,0 0,-0.44 z m 4.93033,0 0,0.44 -0.44,0 0,3.52 0.44,0 0,0.44 1.97903,0 0,-0.44 0.44,0 0,-3.52 -0.44,0 0,-0.44 z m 3.56419,0 0,0.88 0.44,0 0,0.88 0.44,0 0,0.88 -0.44,0 0,0.88001 -0.44,0 0,0.88 0.88,0 0,-0.88 0.44,0 0,-0.44001 0.44,0 0,0.44001 0.44,0 0,0.88 0.88,0 0,-0.88 -0.44,0 0,-0.88001 -0.44,0 0,-0.88 0.44,0 0,-0.88 0.44,0 0,-0.88 -0.88,0 0,0.88 -0.44,0 0,0.44 -0.44,0 0,-0.44 -0.44,0 0,-0.88 z m -7.17452,0.44 1.05678,0 0,1.32 -1.05678,0 z m 4.05033,0 1.09903,0 0,3.52 -1.09903,0 z m -4.05033,1.76 1.05678,0 0,1.76 -1.05678,0 z"
         style="font-size:12px;font-style:normal;font-variant:normal;font-weight:normal;font-stretch:normal;text-align:center;line-height:80.00000119000000609%;letter-spacing:0px;word-spacing:0px;text-anchor:middle;fill:#fbd13d;fill-opacity:1;stroke:#fbd13d;font-family:Perfect DOS VGA 437;-inkscape-font-specification:Perfect DOS VGA 437;stroke-opacity:1;opacity:0.1" />
      <path
         style="font-size:12px;font-style:normal;font-variant:normal;font-weight:normal;font-stretch:normal;text-align:center;line-height:80.00000119000000609%;letter-spacing:0px;word-spacing:0px;text-anchor:middle;fill:#fbd13d;fill-opacity:1;stroke:#fbd13d;font-family:Perfect DOS VGA 437;-inkscape-font-specification:Perfect DOS VGA 437;stroke-opacity:1;opacity:0.1"
         d="m 421,105.61833 0,0.56 0.56,0 0,4.48 -0.56,0 0,0.56 2.8,0 0,-0.56 0.56,0 0,-0.56 0.56,0 0,-3.36 -0.56,0 0,-0.55999 -0.56,0 0,-0.56 -2.8,0 z m 5.6,0 0,0.56 -0.56,0 0,4.48 0.56,0 0,0.56 2.8,0 0,-0.56 0.56,0 0,-4.48 -0.56,0 0,-0.56 -2.8,0 z m 5.04,0 0,0.56 -0.56,0 0,1.12 0.56,0 0,0.56 0.56,0 0,0.56 1.12,0 0,0.56 0.56,0 0,1.68 -1.68,0 0,-1.12 -1.12,0 0,1.12 0.56,0 0,0.56 2.8,0 0,-0.56 0.56,0 0,-1.68 -0.56,0 0,-0.56 -0.56,0 0,-0.56 -1.12,0 0,-0.56 -0.56,0 0,-1.12 1.68,0 0,1.12 1.12,0 0,-1.12 -0.56,0 0,-0.56 -2.8,0 z m -8.96,0.56 0.56,0 0,0.56 0.56,0 0,3.36 -0.56,0 0,0.56 -0.56,0 0,-4.48 z m 4.48,0 1.68,0 0,4.48 -1.68,0 0,-4.48 z m -6.16,6.60334 0,0.56 0.56,0 0,4.48 -0.56,0 0,0.56 3.36,0 0,-0.56 0.56,0 0,-2.24 -0.56,0 0,-0.56 0.56,0 0,-1.68 -0.56,0 0,-0.55999 -3.36,0 z m 5.6,0 0,0.56 -0.56,0 0,4.48 0.56,0 0,0.56 2.8,0 0,-0.56 0.56,0 0,-4.48 -0.56,0 0,-0.56 -2.8,0 z m 4.48,0 0,1.12 0.56,0 0,1.12 0.56,0 0,1.12 -0.56,0 0,1.12 -0.56,0 0,1.12 1.12,0 0,-1.12 0.56,0 0,-0.56 0.56,0 0,0.56 0.56,0 0,1.12 1.12,0 0,-1.12 -0.56,0 0,-1.12 -0.56,0 0,-1.12 0.56,0 0,-1.12 0.56,0 0,-1.12 -1.12,0 0,1.12 -0.56,0 0,0.56 -0.56,0 0,-0.56 -0.56,0 0,-1.12 -1.12,0 z m -8.4,0.56 1.12,0 0,1.68 -1.12,0 0,-1.68 z m 4.48,0 1.68,0 0,4.48 -1.68,0 0,-4.48 z m -4.48,2.24 1.12,0 0,2.24 -1.12,0 0,-2.24 z"
         id="path4032"
         inkscape:connector-curvature="0" />
      <path
         style="font-size:59.17159653px;font-style:normal;font-variant:normal;font-weight:normal;font-stretch:normal;text-align:center;line-height:75.99999905%;letter-spacing:0px;word-spacing:0px;text-anchor:middle;fill:#fbd13d;fill-opacity:1;stroke:none;font-family:Perfect DOS VGA 437 Win;-inkscape-font-specification:Perfect DOS VGA 437 Win"
         d="m 429.75774,57 0,0.644511 0.6391,0 0,5.123585 -0.6391,0 0,0.64451 3.84539,0 0,-0.64451 0.6391,0 0,-2.561793 -0.6391,0 0,-0.639093 0.6391,0 0,-1.922699 -0.6391,0 0,-0.64451 -3.84539,0 z m 1.92271,0.644511 1.28361,0 0,1.922698 -1.28361,0 0,-1.922699 z m 0,2.561791 1.28361,0 0,2.561793 -1.28361,0 0,-2.561793 z m -7.69081,4.587396 0,0.644511 0.6391,0 0,5.123583 -0.6391,0 0,0.64451 3.20089,0 0,-0.64451 0.64452,0 0,-0.639093 0.63911,0 0,-3.845396 -0.63911,0 0,-0.639094 -0.64452,0 0,-0.64451 -3.20089,0 z m 6.40719,0 0,0.644511 -0.63909,0 0,5.123583 0.63909,0 0,0.64451 3.2063,0 0,-0.64451 0.6391,0 0,-5.123583 -0.6391,0 0,-0.644511 -3.2063,0 z m 5.76811,0 0,0.644511 -0.6391,0 0,1.278189 0.6391,0 0,0.64451 0.64452,0 0,0.639093 1.27818,0 0,0.639092 0.6445,0 0,1.922699 -1.92268,0 0,-1.278189 -1.2836,0 0,1.278189 0.6391,0 0,0.64451 3.2063,0 0,-0.64451 0.63909,0 0,-1.922699 -0.63909,0 0,-0.639092 -0.6391,0 0,-0.639093 -1.28361,0 0,-0.64451 -0.63909,0 0,-1.278189 1.92268,0 0,1.278189 1.27819,0 0,-1.278189 -0.63909,0 0,-0.644511 -3.2063,0 z m -10.25259,0.644511 0.63911,0 0,0.639093 0.63909,0 0,3.845396 -0.63909,0 0,0.639094 -0.63911,0 0,-5.123584 z m 5.12358,0 1.92812,0 0,5.123583 -1.92812,0 0,-5.123583 z m -1.27819,7.149187 0,1.283604 0.6391,0 0,1.283604 0.63909,0 0,1.278189 -0.63909,0 0,1.283603 -0.6391,0 0,1.283604 1.27819,0 0,-1.283604 0.64453,0 0,-0.639094 0.63908,0 0,0.639094 0.64451,0 0,1.283604 1.27818,0 0,-1.283604 -0.63907,0 0,-1.283603 -0.6391,0 0,-1.278189 0.6391,0 0,-1.283604 0.63907,0 0,-1.283604 -1.27818,0 0,1.283604 -0.64451,0 0,0.639094 -0.63908,0 0,-0.639094 -0.64453,0 0,-1.283604 -1.27819,0 z"
         id="path3988"
         inkscape:connector-curvature="0" />
      <g
         id="g3946">
        <path
           id="path3926"
           d="M 131.0625 92.53125 L 131.0625 96.25 L 134.75 96.25 L 134.75 125.8125 L 131.0625 125.8125 L 131.0625 129.53125 L 153.25 129.53125 L 153.25 125.8125 L 156.9375 125.8125 L 156.9375 111.03125 L 153.25 111.03125 L 153.25 107.34375 L 156.9375 107.34375 L 156.9375 96.25 L 153.25 96.25 L 153.25 92.53125 L 131.0625 92.53125 z M 142.15625 96.25 L 149.5625 96.25 L 149.5625 107.34375 L 142.15625 107.34375 L 142.15625 96.25 z M 142.15625 111.03125 L 149.5625 111.03125 L 149.5625 125.8125 L 142.15625 125.8125 L 142.15625 111.03125 z M 97.78125 137.5 L 97.78125 141.21875 L 101.46875 141.21875 L 101.46875 170.78125 L 97.78125 170.78125 L 97.78125 174.5 L 116.25 174.5 L 116.25 170.78125 L 119.96875 170.78125 L 119.96875 167.09375 L 123.65625 167.09375 L 123.65625 144.90625 L 119.96875 144.90625 L 119.96875 141.21875 L 116.25 141.21875 L 116.25 137.5 L 97.78125 137.5 z M 134.75 137.5 L 134.75 141.21875 L 131.0625 141.21875 L 131.0625 170.78125 L 134.75 170.78125 L 134.75 174.5 L 153.25 174.5 L 153.25 170.78125 L 156.9375 170.78125 L 156.9375 141.21875 L 153.25 141.21875 L 153.25 137.5 L 134.75 137.5 z M 168.03125 137.5 L 168.03125 141.21875 L 164.34375 141.21875 L 164.34375 148.59375 L 168.03125 148.59375 L 168.03125 152.3125 L 171.75 152.3125 L 171.75 156 L 179.125 156 L 179.125 159.6875 L 182.84375 159.6875 L 182.84375 170.78125 L 171.75 170.78125 L 171.75 163.40625 L 164.34375 163.40625 L 164.34375 170.78125 L 168.03125 170.78125 L 168.03125 174.5 L 186.53125 174.5 L 186.53125 170.78125 L 190.21875 170.78125 L 190.21875 159.6875 L 186.53125 159.6875 L 186.53125 156 L 182.84375 156 L 182.84375 152.3125 L 175.4375 152.3125 L 175.4375 148.59375 L 171.75 148.59375 L 171.75 141.21875 L 182.84375 141.21875 L 182.84375 148.59375 L 190.21875 148.59375 L 190.21875 141.21875 L 186.53125 141.21875 L 186.53125 137.5 L 168.03125 137.5 z M 108.875 141.21875 L 112.5625 141.21875 L 112.5625 144.90625 L 116.25 144.90625 L 116.25 167.09375 L 112.5625 167.09375 L 112.5625 170.78125 L 108.875 170.78125 L 108.875 141.21875 z M 138.4375 141.21875 L 149.5625 141.21875 L 149.5625 170.78125 L 138.4375 170.78125 L 138.4375 141.21875 z M 131.0625 182.46875 L 131.0625 189.875 L 134.75 189.875 L 134.75 197.28125 L 138.4375 197.28125 L 138.4375 204.65625 L 134.75 204.65625 L 134.75 212.0625 L 131.0625 212.0625 L 131.0625 219.46875 L 138.4375 219.46875 L 138.4375 212.0625 L 142.15625 212.0625 L 142.15625 208.375 L 145.84375 208.375 L 145.84375 212.0625 L 149.5625 212.0625 L 149.5625 219.46875 L 156.9375 219.46875 L 156.9375 212.0625 L 153.25 212.0625 L 153.25 204.65625 L 149.5625 204.65625 L 149.5625 197.28125 L 153.25 197.28125 L 153.25 189.875 L 156.9375 189.875 L 156.9375 182.46875 L 149.5625 182.46875 L 149.5625 189.875 L 145.84375 189.875 L 145.84375 193.5625 L 142.15625 193.5625 L 142.15625 189.875 L 138.4375 189.875 L 138.4375 182.46875 L 131.0625 182.46875 z "
           style="font-size:59.17159652999999508px;font-style:normal;font-variant:normal;font-weight:normal;font-stretch:normal;text-align:center;line-height:75.99999904999999956%;letter-spacing:0px;word-spacing:0px;text-anchor:middle;fill:#000000;fill-opacity:1;stroke:none;font-family:Perfect DOS VGA 437 Win;-inkscape-font-specification:Perfect DOS VGA 437 Win;filter:url(#filter3922);opacity:1" />
        <path
           style="font-size:59.17159652999999508px;font-style:normal;font-variant:normal;font-weight:normal;font-stretch:normal;text-align:center;line-height:75.99999904999999956%;letter-spacing:0px;word-spacing:0px;text-anchor:middle;fill:#fbd13d;fill-opacity:1;stroke:none;font-family:Perfect DOS VGA 437 Win;-inkscape-font-specification:Perfect DOS VGA 437 Win;opacity:0.50000000000000000;filter:url(#filter3932)"
           d="M 131.0625 92.53125 L 131.0625 96.25 L 134.75 96.25 L 134.75 125.8125 L 131.0625 125.8125 L 131.0625 129.53125 L 153.25 129.53125 L 153.25 125.8125 L 156.9375 125.8125 L 156.9375 111.03125 L 153.25 111.03125 L 153.25 107.34375 L 156.9375 107.34375 L 156.9375 96.25 L 153.25 96.25 L 153.25 92.53125 L 131.0625 92.53125 z M 142.15625 96.25 L 149.5625 96.25 L 149.5625 107.34375 L 142.15625 107.34375 L 142.15625 96.25 z M 142.15625 111.03125 L 149.5625 111.03125 L 149.5625 125.8125 L 142.15625 125.8125 L 142.15625 111.03125 z M 97.78125 137.5 L 97.78125 141.21875 L 101.46875 141.21875 L 101.46875 170.78125 L 97.78125 170.78125 L 97.78125 174.5 L 116.25 174.5 L 116.25 170.78125 L 119.96875 170.78125 L 119.96875 167.09375 L 123.65625 167.09375 L 123.65625 144.90625 L 119.96875 144.90625 L 119.96875 141.21875 L 116.25 141.21875 L 116.25 137.5 L 97.78125 137.5 z M 134.75 137.5 L 134.75 141.21875 L 131.0625 141.21875 L 131.0625 170.78125 L 134.75 170.78125 L 134.75 174.5 L 153.25 174.5 L 153.25 170.78125 L 156.9375 170.78125 L 156.9375 141.21875 L 153.25 141.21875 L 153.25 137.5 L 134.75 137.5 z M 168.03125 137.5 L 168.03125 141.21875 L 164.34375 141.21875 L 164.34375 148.59375 L 168.03125 148.59375 L 168.03125 152.3125 L 171.75 152.3125 L 171.75 156 L 179.125 156 L 179.125 159.6875 L 182.84375 159.6875 L 182.84375 170.78125 L 171.75 170.78125 L 171.75 163.40625 L 164.34375 163.40625 L 164.34375 170.78125 L 168.03125 170.78125 L 168.03125 174.5 L 186.53125 174.5 L 186.53125 170.78125 L 190.21875 170.78125 L 190.21875 159.6875 L 186.53125 159.6875 L 186.53125 156 L 182.84375 156 L 182.84375 152.3125 L 175.4375 152.3125 L 175.4375 148.59375 L 171.75 148.59375 L 171.75 141.21875 L 182.84375 141.21875 L 182.84375 148.59375 L 190.21875 148.59375 L 190.21875 141.21875 L 186.53125 141.21875 L 186.53125 137.5 L 168.03125 137.5 z M 108.875 141.21875 L 112.5625 141.21875 L 112.5625 144.90625 L 116.25 144.90625 L 116.25 167.09375 L 112.5625 167.09375 L 112.5625 170.78125 L 108.875 170.78125 L 108.875 141.21875 z M 138.4375 141.21875 L 149.5625 141.21875 L 149.5625 170.78125 L 138.4375 170.78125 L 138.4375 141.21875 z M 131.0625 182.46875 L 131.0625 189.875 L 134.75 189.875 L 134.75 197.28125 L 138.4375 197.28125 L 138.4375 204.65625 L 134.75 204.65625 L 134.75 212.0625 L 131.0625 212.0625 L 131.0625 219.46875 L 138.4375 219.46875 L 138.4375 212.0625 L 142.15625 212.0625 L 142.15625 208.375 L 145.84375 208.375 L 145.84375 212.0625 L 149.5625 212.0625 L 149.5625 219.46875 L 156.9375 219.46875 L 156.9375 212.0625 L 153.25 212.0625 L 153.25 204.65625 L 149.5625 204.65625 L 149.5625 197.28125 L 153.25 197.28125 L 153.25 189.875 L 156.9375 189.875 L 156.9375 182.46875 L 149.5625 182.46875 L 149.5625 189.875 L 145.84375 189.875 L 145.84375 193.5625 L 142.15625 193.5625 L 142.15625 189.875 L 138.4375 189.875 L 138.4375 182.46875 L 131.0625 182.46875 z "
           id="path3916" />
        <path
           id="path3900"
           d="M 131.0625 92.53125 L 131.0625 96.25 L 134.75 96.25 L 134.75 125.8125 L 131.0625 125.8125 L 131.0625 129.53125 L 153.25 129.53125 L 153.25 125.8125 L 156.9375 125.8125 L 156.9375 111.03125 L 153.25 111.03125 L 153.25 107.34375 L 156.9375 107.34375 L 156.9375 96.25 L 153.25 96.25 L 153.25 92.53125 L 131.0625 92.53125 z M 142.15625 96.25 L 149.5625 96.25 L 149.5625 107.34375 L 142.15625 107.34375 L 142.15625 96.25 z M 142.15625 111.03125 L 149.5625 111.03125 L 149.5625 125.8125 L 142.15625 125.8125 L 142.15625 111.03125 z M 97.78125 137.5 L 97.78125 141.21875 L 101.46875 141.21875 L 101.46875 170.78125 L 97.78125 170.78125 L 97.78125 174.5 L 116.25 174.5 L 116.25 170.78125 L 119.96875 170.78125 L 119.96875 167.09375 L 123.65625 167.09375 L 123.65625 144.90625 L 119.96875 144.90625 L 119.96875 141.21875 L 116.25 141.21875 L 116.25 137.5 L 97.78125 137.5 z M 134.75 137.5 L 134.75 141.21875 L 131.0625 141.21875 L 131.0625 170.78125 L 134.75 170.78125 L 134.75 174.5 L 153.25 174.5 L 153.25 170.78125 L 156.9375 170.78125 L 156.9375 141.21875 L 153.25 141.21875 L 153.25 137.5 L 134.75 137.5 z M 168.03125 137.5 L 168.03125 141.21875 L 164.34375 141.21875 L 164.34375 148.59375 L 168.03125 148.59375 L 168.03125 152.3125 L 171.75 152.3125 L 171.75 156 L 179.125 156 L 179.125 159.6875 L 182.84375 159.6875 L 182.84375 170.78125 L 171.75 170.78125 L 171.75 163.40625 L 164.34375 163.40625 L 164.34375 170.78125 L 168.03125 170.78125 L 168.03125 174.5 L 186.53125 174.5 L 186.53125 170.78125 L 190.21875 170.78125 L 190.21875 159.6875 L 186.53125 159.6875 L 186.53125 156 L 182.84375 156 L 182.84375 152.3125 L 175.4375 152.3125 L 175.4375 148.59375 L 171.75 148.59375 L 171.75 141.21875 L 182.84375 141.21875 L 182.84375 148.59375 L 190.21875 148.59375 L 190.21875 141.21875 L 186.53125 141.21875 L 186.53125 137.5 L 168.03125 137.5 z M 108.875 141.21875 L 112.5625 141.21875 L 112.5625 144.90625 L 116.25 144.90625 L 116.25 167.09375 L 112.5625 167.09375 L 112.5625 170.78125 L 108.875 170.78125 L 108.875 141.21875 z M 138.4375 141.21875 L 149.5625 141.21875 L 149.5625 170.78125 L 138.4375 170.78125 L 138.4375 141.21875 z M 131.0625 182.46875 L 131.0625 189.875 L 134.75 189.875 L 134.75 197.28125 L 138.4375 197.28125 L 138.4375 204.65625 L 134.75 204.65625 L 134.75 212.0625 L 131.0625 212.0625 L 131.0625 219.46875 L 138.4375 219.46875 L 138.4375 212.0625 L 142.15625 212.0625 L 142.15625 208.375 L 145.84375 208.375 L 145.84375 212.0625 L 149.5625 212.0625 L 149.5625 219.46875 L 156.9375 219.46875 L 156.9375 212.0625 L 153.25 212.0625 L 153.25 204.65625 L 149.5625 204.65625 L 149.5625 197.28125 L 153.25 197.28125 L 153.25 189.875 L 156.9375 189.875 L 156.9375 182.46875 L 149.5625 182.46875 L 149.5625 189.875 L 145.84375 189.875 L 145.84375 193.5625 L 142.15625 193.5625 L 142.15625 189.875 L 138.4375 189.875 L 138.4375 182.46875 L 131.0625 182.46875 z "
           style="font-size:59.17159653px;font-style:normal;font-variant:normal;font-weight:normal;font-stretch:normal;text-align:center;line-height:75.99999905%;letter-spacing:0px;word-spacing:0px;text-anchor:middle;fill:#fbd13d;fill-opacity:1;stroke:none;font-family:Perfect DOS VGA 437 Win;-inkscape-font-specification:Perfect DOS VGA 437 Win" />
        <path
           style="font-size:59.17159652999999508px;font-style:normal;font-variant:normal;font-weight:normal;font-stretch:normal;text-align:center;line-height:75.99999904999999956%;letter-spacing:0px;word-spacing:0px;text-anchor:middle;fill:#ffffff;fill-opacity:1;stroke:none;font-family:Perfect DOS VGA 437 Win;-inkscape-font-specification:Perfect DOS VGA 437 Win;opacity:0.20000000000000001;filter:url(#filter3942)"
           d="M 131.0625 92.53125 L 131.0625 96.25 L 134.75 96.25 L 134.75 125.8125 L 131.0625 125.8125 L 131.0625 129.53125 L 153.25 129.53125 L 153.25 125.8125 L 156.9375 125.8125 L 156.9375 111.03125 L 153.25 111.03125 L 153.25 107.34375 L 156.9375 107.34375 L 156.9375 96.25 L 153.25 96.25 L 153.25 92.53125 L 131.0625 92.53125 z M 142.15625 96.25 L 149.5625 96.25 L 149.5625 107.34375 L 142.15625 107.34375 L 142.15625 96.25 z M 142.15625 111.03125 L 149.5625 111.03125 L 149.5625 125.8125 L 142.15625 125.8125 L 142.15625 111.03125 z M 97.78125 137.5 L 97.78125 141.21875 L 101.46875 141.21875 L 101.46875 170.78125 L 97.78125 170.78125 L 97.78125 174.5 L 116.25 174.5 L 116.25 170.78125 L 119.96875 170.78125 L 119.96875 167.09375 L 123.65625 167.09375 L 123.65625 144.90625 L 119.96875 144.90625 L 119.96875 141.21875 L 116.25 141.21875 L 116.25 137.5 L 97.78125 137.5 z M 134.75 137.5 L 134.75 141.21875 L 131.0625 141.21875 L 131.0625 170.78125 L 134.75 170.78125 L 134.75 174.5 L 153.25 174.5 L 153.25 170.78125 L 156.9375 170.78125 L 156.9375 141.21875 L 153.25 141.21875 L 153.25 137.5 L 134.75 137.5 z M 168.03125 137.5 L 168.03125 141.21875 L 164.34375 141.21875 L 164.34375 148.59375 L 168.03125 148.59375 L 168.03125 152.3125 L 171.75 152.3125 L 171.75 156 L 179.125 156 L 179.125 159.6875 L 182.84375 159.6875 L 182.84375 170.78125 L 171.75 170.78125 L 171.75 163.40625 L 164.34375 163.40625 L 164.34375 170.78125 L 168.03125 170.78125 L 168.03125 174.5 L 186.53125 174.5 L 186.53125 170.78125 L 190.21875 170.78125 L 190.21875 159.6875 L 186.53125 159.6875 L 186.53125 156 L 182.84375 156 L 182.84375 152.3125 L 175.4375 152.3125 L 175.4375 148.59375 L 171.75 148.59375 L 171.75 141.21875 L 182.84375 141.21875 L 182.84375 148.59375 L 190.21875 148.59375 L 190.21875 141.21875 L 186.53125 141.21875 L 186.53125 137.5 L 168.03125 137.5 z M 108.875 141.21875 L 112.5625 141.21875 L 112.5625 144.90625 L 116.25 144.90625 L 116.25 167.09375 L 112.5625 167.09375 L 112.5625 170.78125 L 108.875 170.78125 L 108.875 141.21875 z M 138.4375 141.21875 L 149.5625 141.21875 L 149.5625 170.78125 L 138.4375 170.78125 L 138.4375 141.21875 z M 131.0625 182.46875 L 131.0625 189.875 L 134.75 189.875 L 134.75 197.28125 L 138.4375 197.28125 L 138.4375 204.65625 L 134.75 204.65625 L 134.75 212.0625 L 131.0625 212.0625 L 131.0625 219.46875 L 138.4375 219.46875 L 138.4375 212.0625 L 142.15625 212.0625 L 142.15625 208.375 L 145.84375 208.375 L 145.84375 212.0625 L 149.5625 212.0625 L 149.5625 219.46875 L 156.9375 219.46875 L 156.9375 212.0625 L 153.25 212.0625 L 153.25 204.65625 L 149.5625 204.65625 L 149.5625 197.28125 L 153.25 197.28125 L 153.25 189.875 L 156.9375 189.875 L 156.9375 182.46875 L 149.5625 182.46875 L 149.5625 189.875 L 145.84375 189.875 L 145.84375 193.5625 L 142.15625 193.5625 L 142.15625 189.875 L 138.4375 189.875 L 138.4375 182.46875 L 131.0625 182.46875 z "
           id="path3936" />
      </g>
      <g
         id="g3952"
         transform="matrix(0.43063372,0,0,0.43063372,273.98874,8.8211397)">
        <path
           style="font-size:59.17159653px;font-style:normal;font-variant:normal;font-weight:normal;font-stretch:normal;text-align:center;line-height:75.99999905%;letter-spacing:0px;word-spacing:0px;text-anchor:middle;fill:#000000;fill-opacity:1;stroke:none;filter:url(#filter3922);font-family:Perfect DOS VGA 437 Win;-inkscape-font-specification:Perfect DOS VGA 437 Win"
           d="m 131.0625,92.53125 0,3.71875 3.6875,0 0,29.5625 -3.6875,0 0,3.71875 22.1875,0 0,-3.71875 3.6875,0 0,-14.78125 -3.6875,0 0,-3.6875 3.6875,0 0,-11.09375 -3.6875,0 0,-3.71875 -22.1875,0 z m 11.09375,3.71875 7.40625,0 0,11.09375 -7.40625,0 0,-11.09375 z m 0,14.78125 7.40625,0 0,14.78125 -7.40625,0 0,-14.78125 z m -44.375,26.46875 0,3.71875 3.6875,0 0,29.5625 -3.6875,0 0,3.71875 18.46875,0 0,-3.71875 3.71875,0 0,-3.6875 3.6875,0 0,-22.1875 -3.6875,0 0,-3.6875 -3.71875,0 0,-3.71875 -18.46875,0 z m 36.96875,0 0,3.71875 -3.6875,0 0,29.5625 3.6875,0 0,3.71875 18.5,0 0,-3.71875 3.6875,0 0,-29.5625 -3.6875,0 0,-3.71875 -18.5,0 z m 33.28125,0 0,3.71875 -3.6875,0 0,7.375 3.6875,0 0,3.71875 3.71875,0 0,3.6875 7.375,0 0,3.6875 3.71875,0 0,11.09375 -11.09375,0 0,-7.375 -7.40625,0 0,7.375 3.6875,0 0,3.71875 18.5,0 0,-3.71875 3.6875,0 0,-11.09375 -3.6875,0 0,-3.6875 -3.6875,0 0,-3.6875 -7.40625,0 0,-3.71875 -3.6875,0 0,-7.375 11.09375,0 0,7.375 7.375,0 0,-7.375 -3.6875,0 0,-3.71875 -18.5,0 z m -59.15625,3.71875 3.6875,0 0,3.6875 3.6875,0 0,22.1875 -3.6875,0 0,3.6875 -3.6875,0 0,-29.5625 z m 29.5625,0 11.125,0 0,29.5625 -11.125,0 0,-29.5625 z m -7.375,41.25 0,7.40625 3.6875,0 0,7.40625 3.6875,0 0,7.375 -3.6875,0 0,7.40625 -3.6875,0 0,7.40625 7.375,0 0,-7.40625 3.71875,0 0,-3.6875 3.6875,0 0,3.6875 3.71875,0 0,7.40625 7.375,0 0,-7.40625 -3.6875,0 0,-7.40625 -3.6875,0 0,-7.375 3.6875,0 0,-7.40625 3.6875,0 0,-7.40625 -7.375,0 0,7.40625 -3.71875,0 0,3.6875 -3.6875,0 0,-3.6875 -3.71875,0 0,-7.40625 -7.375,0 z"
           id="path3954"
           inkscape:connector-curvature="0" />
        <path
           id="path3956"
           d="m 131.0625,92.53125 0,3.71875 3.6875,0 0,29.5625 -3.6875,0 0,3.71875 22.1875,0 0,-3.71875 3.6875,0 0,-14.78125 -3.6875,0 0,-3.6875 3.6875,0 0,-11.09375 -3.6875,0 0,-3.71875 -22.1875,0 z m 11.09375,3.71875 7.40625,0 0,11.09375 -7.40625,0 0,-11.09375 z m 0,14.78125 7.40625,0 0,14.78125 -7.40625,0 0,-14.78125 z m -44.375,26.46875 0,3.71875 3.6875,0 0,29.5625 -3.6875,0 0,3.71875 18.46875,0 0,-3.71875 3.71875,0 0,-3.6875 3.6875,0 0,-22.1875 -3.6875,0 0,-3.6875 -3.71875,0 0,-3.71875 -18.46875,0 z m 36.96875,0 0,3.71875 -3.6875,0 0,29.5625 3.6875,0 0,3.71875 18.5,0 0,-3.71875 3.6875,0 0,-29.5625 -3.6875,0 0,-3.71875 -18.5,0 z m 33.28125,0 0,3.71875 -3.6875,0 0,7.375 3.6875,0 0,3.71875 3.71875,0 0,3.6875 7.375,0 0,3.6875 3.71875,0 0,11.09375 -11.09375,0 0,-7.375 -7.40625,0 0,7.375 3.6875,0 0,3.71875 18.5,0 0,-3.71875 3.6875,0 0,-11.09375 -3.6875,0 0,-3.6875 -3.6875,0 0,-3.6875 -7.40625,0 0,-3.71875 -3.6875,0 0,-7.375 11.09375,0 0,7.375 7.375,0 0,-7.375 -3.6875,0 0,-3.71875 -18.5,0 z m -59.15625,3.71875 3.6875,0 0,3.6875 3.6875,0 0,22.1875 -3.6875,0 0,3.6875 -3.6875,0 0,-29.5625 z m 29.5625,0 11.125,0 0,29.5625 -11.125,0 0,-29.5625 z m -7.375,41.25 0,7.40625 3.6875,0 0,7.40625 3.6875,0 0,7.375 -3.6875,0 0,7.40625 -3.6875,0 0,7.40625 7.375,0 0,-7.40625 3.71875,0 0,-3.6875 3.6875,0 0,3.6875 3.71875,0 0,7.40625 7.375,0 0,-7.40625 -3.6875,0 0,-7.40625 -3.6875,0 0,-7.375 3.6875,0 0,-7.40625 3.6875,0 0,-7.40625 -7.375,0 0,7.40625 -3.71875,0 0,3.6875 -3.6875,0 0,-3.6875 -3.71875,0 0,-7.40625 -7.375,0 z"
           style="font-size:59.17159653px;font-style:normal;font-variant:normal;font-weight:normal;font-stretch:normal;text-align:center;line-height:75.99999905%;letter-spacing:0px;word-spacing:0px;text-anchor:middle;opacity:0.5;fill:#fbd13d;fill-opacity:1;stroke:none;filter:url(#filter3932);font-family:Perfect DOS VGA 437 Win;-inkscape-font-specification:Perfect DOS VGA 437 Win"
           inkscape:connector-curvature="0" />
        <path
           style="font-size:59.17159653px;font-style:normal;font-variant:normal;font-weight:normal;font-stretch:normal;text-align:center;line-height:75.99999905%;letter-spacing:0px;word-spacing:0px;text-anchor:middle;fill:#fbd13d;fill-opacity:1;stroke:none;font-family:Perfect DOS VGA 437 Win;-inkscape-font-specification:Perfect DOS VGA 437 Win"
           d="m 131.0625,92.53125 0,3.71875 3.6875,0 0,29.5625 -3.6875,0 0,3.71875 22.1875,0 0,-3.71875 3.6875,0 0,-14.78125 -3.6875,0 0,-3.6875 3.6875,0 0,-11.09375 -3.6875,0 0,-3.71875 -22.1875,0 z m 11.09375,3.71875 7.40625,0 0,11.09375 -7.40625,0 0,-11.09375 z m 0,14.78125 7.40625,0 0,14.78125 -7.40625,0 0,-14.78125 z m -44.375,26.46875 0,3.71875 3.6875,0 0,29.5625 -3.6875,0 0,3.71875 18.46875,0 0,-3.71875 3.71875,0 0,-3.6875 3.6875,0 0,-22.1875 -3.6875,0 0,-3.6875 -3.71875,0 0,-3.71875 -18.46875,0 z m 36.96875,0 0,3.71875 -3.6875,0 0,29.5625 3.6875,0 0,3.71875 18.5,0 0,-3.71875 3.6875,0 0,-29.5625 -3.6875,0 0,-3.71875 -18.5,0 z m 33.28125,0 0,3.71875 -3.6875,0 0,7.375 3.6875,0 0,3.71875 3.71875,0 0,3.6875 7.375,0 0,3.6875 3.71875,0 0,11.09375 -11.09375,0 0,-7.375 -7.40625,0 0,7.375 3.6875,0 0,3.71875 18.5,0 0,-3.71875 3.6875,0 0,-11.09375 -3.6875,0 0,-3.6875 -3.6875,0 0,-3.6875 -7.40625,0 0,-3.71875 -3.6875,0 0,-7.375 11.09375,0 0,7.375 7.375,0 0,-7.375 -3.6875,0 0,-3.71875 -18.5,0 z m -59.15625,3.71875 3.6875,0 0,3.6875 3.6875,0 0,22.1875 -3.6875,0 0,3.6875 -3.6875,0 0,-29.5625 z m 29.5625,0 11.125,0 0,29.5625 -11.125,0 0,-29.5625 z m -7.375,41.25 0,7.40625 3.6875,0 0,7.40625 3.6875,0 0,7.375 -3.6875,0 0,7.40625 -3.6875,0 0,7.40625 7.375,0 0,-7.40625 3.71875,0 0,-3.6875 3.6875,0 0,3.6875 3.71875,0 0,7.40625 7.375,0 0,-7.40625 -3.6875,0 0,-7.40625 -3.6875,0 0,-7.375 3.6875,0 0,-7.40625 3.6875,0 0,-7.40625 -7.375,0 0,7.40625 -3.71875,0 0,3.6875 -3.6875,0 0,-3.6875 -3.71875,0 0,-7.40625 -7.375,0 z"
           id="path3958"
           inkscape:connector-curvature="0" />
        <path
           id="path3960"
           d="m 131.0625,92.53125 0,3.71875 3.6875,0 0,29.5625 -3.6875,0 0,3.71875 22.1875,0 0,-3.71875 3.6875,0 0,-14.78125 -3.6875,0 0,-3.6875 3.6875,0 0,-11.09375 -3.6875,0 0,-3.71875 -22.1875,0 z m 11.09375,3.71875 7.40625,0 0,11.09375 -7.40625,0 0,-11.09375 z m 0,14.78125 7.40625,0 0,14.78125 -7.40625,0 0,-14.78125 z m -44.375,26.46875 0,3.71875 3.6875,0 0,29.5625 -3.6875,0 0,3.71875 18.46875,0 0,-3.71875 3.71875,0 0,-3.6875 3.6875,0 0,-22.1875 -3.6875,0 0,-3.6875 -3.71875,0 0,-3.71875 -18.46875,0 z m 36.96875,0 0,3.71875 -3.6875,0 0,29.5625 3.6875,0 0,3.71875 18.5,0 0,-3.71875 3.6875,0 0,-29.5625 -3.6875,0 0,-3.71875 -18.5,0 z m 33.28125,0 0,3.71875 -3.6875,0 0,7.375 3.6875,0 0,3.71875 3.71875,0 0,3.6875 7.375,0 0,3.6875 3.71875,0 0,11.09375 -11.09375,0 0,-7.375 -7.40625,0 0,7.375 3.6875,0 0,3.71875 18.5,0 0,-3.71875 3.6875,0 0,-11.09375 -3.6875,0 0,-3.6875 -3.6875,0 0,-3.6875 -7.40625,0 0,-3.71875 -3.6875,0 0,-7.375 11.09375,0 0,7.375 7.375,0 0,-7.375 -3.6875,0 0,-3.71875 -18.5,0 z m -59.15625,3.71875 3.6875,0 0,3.6875 3.6875,0 0,22.1875 -3.6875,0 0,3.6875 -3.6875,0 0,-29.5625 z m 29.5625,0 11.125,0 0,29.5625 -11.125,0 0,-29.5625 z m -7.375,41.25 0,7.40625 3.6875,0 0,7.40625 3.6875,0 0,7.375 -3.6875,0 0,7.40625 -3.6875,0 0,7.40625 7.375,0 0,-7.40625 3.71875,0 0,-3.6875 3.6875,0 0,3.6875 3.71875,0 0,7.40625 7.375,0 0,-7.40625 -3.6875,0 0,-7.40625 -3.6875,0 0,-7.375 3.6875,0 0,-7.40625 3.6875,0 0,-7.40625 -7.375,0 0,7.40625 -3.71875,0 0,3.6875 -3.6875,0 0,-3.6875 -3.71875,0 0,-7.40625 -7.375,0 z"
           style="font-size:59.17159653px;font-style:normal;font-variant:normal;font-weight:normal;font-stretch:normal;text-align:center;line-height:75.99999905%;letter-spacing:0px;word-spacing:0px;text-anchor:middle;opacity:0.2;fill:#ffffff;fill-opacity:1;stroke:none;filter:url(#filter3942);font-family:Perfect DOS VGA 437 Win;-inkscape-font-specification:Perfect DOS VGA 437 Win"
           inkscape:connector-curvature="0" />
      </g>
      <g
         transform="matrix(0.31318816,0,0,0.31318816,274.9009,123.14265)"
         id="g3962">
        <path
           inkscape:connector-curvature="0"
           id="path3964"
           d="m 131.0625,92.53125 0,3.71875 3.6875,0 0,29.5625 -3.6875,0 0,3.71875 22.1875,0 0,-3.71875 3.6875,0 0,-14.78125 -3.6875,0 0,-3.6875 3.6875,0 0,-11.09375 -3.6875,0 0,-3.71875 -22.1875,0 z m 11.09375,3.71875 7.40625,0 0,11.09375 -7.40625,0 0,-11.09375 z m 0,14.78125 7.40625,0 0,14.78125 -7.40625,0 0,-14.78125 z m -44.375,26.46875 0,3.71875 3.6875,0 0,29.5625 -3.6875,0 0,3.71875 18.46875,0 0,-3.71875 3.71875,0 0,-3.6875 3.6875,0 0,-22.1875 -3.6875,0 0,-3.6875 -3.71875,0 0,-3.71875 -18.46875,0 z m 36.96875,0 0,3.71875 -3.6875,0 0,29.5625 3.6875,0 0,3.71875 18.5,0 0,-3.71875 3.6875,0 0,-29.5625 -3.6875,0 0,-3.71875 -18.5,0 z m 33.28125,0 0,3.71875 -3.6875,0 0,7.375 3.6875,0 0,3.71875 3.71875,0 0,3.6875 7.375,0 0,3.6875 3.71875,0 0,11.09375 -11.09375,0 0,-7.375 -7.40625,0 0,7.375 3.6875,0 0,3.71875 18.5,0 0,-3.71875 3.6875,0 0,-11.09375 -3.6875,0 0,-3.6875 -3.6875,0 0,-3.6875 -7.40625,0 0,-3.71875 -3.6875,0 0,-7.375 11.09375,0 0,7.375 7.375,0 0,-7.375 -3.6875,0 0,-3.71875 -18.5,0 z m -59.15625,3.71875 3.6875,0 0,3.6875 3.6875,0 0,22.1875 -3.6875,0 0,3.6875 -3.6875,0 0,-29.5625 z m 29.5625,0 11.125,0 0,29.5625 -11.125,0 0,-29.5625 z m -7.375,41.25 0,7.40625 3.6875,0 0,7.40625 3.6875,0 0,7.375 -3.6875,0 0,7.40625 -3.6875,0 0,7.40625 7.375,0 0,-7.40625 3.71875,0 0,-3.6875 3.6875,0 0,3.6875 3.71875,0 0,7.40625 7.375,0 0,-7.40625 -3.6875,0 0,-7.40625 -3.6875,0 0,-7.375 3.6875,0 0,-7.40625 3.6875,0 0,-7.40625 -7.375,0 0,7.40625 -3.71875,0 0,3.6875 -3.6875,0 0,-3.6875 -3.71875,0 0,-7.40625 -7.375,0 z"
           style="font-size:59.17159653px;font-style:normal;font-variant:normal;font-weight:normal;font-stretch:normal;text-align:center;line-height:75.99999905%;letter-spacing:0px;word-spacing:0px;text-anchor:middle;fill:#000000;fill-opacity:1;stroke:none;filter:url(#filter3922);font-family:Perfect DOS VGA 437 Win;-inkscape-font-specification:Perfect DOS VGA 437 Win" />
        <path
           inkscape:connector-curvature="0"
           style="font-size:59.17159653px;font-style:normal;font-variant:normal;font-weight:normal;font-stretch:normal;text-align:center;line-height:75.99999905%;letter-spacing:0px;word-spacing:0px;text-anchor:middle;opacity:0.5;fill:#fbd13d;fill-opacity:1;stroke:none;filter:url(#filter3932);font-family:Perfect DOS VGA 437 Win;-inkscape-font-specification:Perfect DOS VGA 437 Win"
           d="m 131.0625,92.53125 0,3.71875 3.6875,0 0,29.5625 -3.6875,0 0,3.71875 22.1875,0 0,-3.71875 3.6875,0 0,-14.78125 -3.6875,0 0,-3.6875 3.6875,0 0,-11.09375 -3.6875,0 0,-3.71875 -22.1875,0 z m 11.09375,3.71875 7.40625,0 0,11.09375 -7.40625,0 0,-11.09375 z m 0,14.78125 7.40625,0 0,14.78125 -7.40625,0 0,-14.78125 z m -44.375,26.46875 0,3.71875 3.6875,0 0,29.5625 -3.6875,0 0,3.71875 18.46875,0 0,-3.71875 3.71875,0 0,-3.6875 3.6875,0 0,-22.1875 -3.6875,0 0,-3.6875 -3.71875,0 0,-3.71875 -18.46875,0 z m 36.96875,0 0,3.71875 -3.6875,0 0,29.5625 3.6875,0 0,3.71875 18.5,0 0,-3.71875 3.6875,0 0,-29.5625 -3.6875,0 0,-3.71875 -18.5,0 z m 33.28125,0 0,3.71875 -3.6875,0 0,7.375 3.6875,0 0,3.71875 3.71875,0 0,3.6875 7.375,0 0,3.6875 3.71875,0 0,11.09375 -11.09375,0 0,-7.375 -7.40625,0 0,7.375 3.6875,0 0,3.71875 18.5,0 0,-3.71875 3.6875,0 0,-11.09375 -3.6875,0 0,-3.6875 -3.6875,0 0,-3.6875 -7.40625,0 0,-3.71875 -3.6875,0 0,-7.375 11.09375,0 0,7.375 7.375,0 0,-7.375 -3.6875,0 0,-3.71875 -18.5,0 z m -59.15625,3.71875 3.6875,0 0,3.6875 3.6875,0 0,22.1875 -3.6875,0 0,3.6875 -3.6875,0 0,-29.5625 z m 29.5625,0 11.125,0 0,29.5625 -11.125,0 0,-29.5625 z m -7.375,41.25 0,7.40625 3.6875,0 0,7.40625 3.6875,0 0,7.375 -3.6875,0 0,7.40625 -3.6875,0 0,7.40625 7.375,0 0,-7.40625 3.71875,0 0,-3.6875 3.6875,0 0,3.6875 3.71875,0 0,7.40625 7.375,0 0,-7.40625 -3.6875,0 0,-7.40625 -3.6875,0 0,-7.375 3.6875,0 0,-7.40625 3.6875,0 0,-7.40625 -7.375,0 0,7.40625 -3.71875,0 0,3.6875 -3.6875,0 0,-3.6875 -3.71875,0 0,-7.40625 -7.375,0 z"
           id="path3966" />
        <path
           inkscape:connector-curvature="0"
           id="path3968"
           d="m 131.0625,92.53125 0,3.71875 3.6875,0 0,29.5625 -3.6875,0 0,3.71875 22.1875,0 0,-3.71875 3.6875,0 0,-14.78125 -3.6875,0 0,-3.6875 3.6875,0 0,-11.09375 -3.6875,0 0,-3.71875 -22.1875,0 z m 11.09375,3.71875 7.40625,0 0,11.09375 -7.40625,0 0,-11.09375 z m 0,14.78125 7.40625,0 0,14.78125 -7.40625,0 0,-14.78125 z m -44.375,26.46875 0,3.71875 3.6875,0 0,29.5625 -3.6875,0 0,3.71875 18.46875,0 0,-3.71875 3.71875,0 0,-3.6875 3.6875,0 0,-22.1875 -3.6875,0 0,-3.6875 -3.71875,0 0,-3.71875 -18.46875,0 z m 36.96875,0 0,3.71875 -3.6875,0 0,29.5625 3.6875,0 0,3.71875 18.5,0 0,-3.71875 3.6875,0 0,-29.5625 -3.6875,0 0,-3.71875 -18.5,0 z m 33.28125,0 0,3.71875 -3.6875,0 0,7.375 3.6875,0 0,3.71875 3.71875,0 0,3.6875 7.375,0 0,3.6875 3.71875,0 0,11.09375 -11.09375,0 0,-7.375 -7.40625,0 0,7.375 3.6875,0 0,3.71875 18.5,0 0,-3.71875 3.6875,0 0,-11.09375 -3.6875,0 0,-3.6875 -3.6875,0 0,-3.6875 -7.40625,0 0,-3.71875 -3.6875,0 0,-7.375 11.09375,0 0,7.375 7.375,0 0,-7.375 -3.6875,0 0,-3.71875 -18.5,0 z m -59.15625,3.71875 3.6875,0 0,3.6875 3.6875,0 0,22.1875 -3.6875,0 0,3.6875 -3.6875,0 0,-29.5625 z m 29.5625,0 11.125,0 0,29.5625 -11.125,0 0,-29.5625 z m -7.375,41.25 0,7.40625 3.6875,0 0,7.40625 3.6875,0 0,7.375 -3.6875,0 0,7.40625 -3.6875,0 0,7.40625 7.375,0 0,-7.40625 3.71875,0 0,-3.6875 3.6875,0 0,3.6875 3.71875,0 0,7.40625 7.375,0 0,-7.40625 -3.6875,0 0,-7.40625 -3.6875,0 0,-7.375 3.6875,0 0,-7.40625 3.6875,0 0,-7.40625 -7.375,0 0,7.40625 -3.71875,0 0,3.6875 -3.6875,0 0,-3.6875 -3.71875,0 0,-7.40625 -7.375,0 z"
           style="font-size:59.17159653px;font-style:normal;font-variant:normal;font-weight:normal;font-stretch:normal;text-align:center;line-height:75.99999905%;letter-spacing:0px;word-spacing:0px;text-anchor:middle;fill:#fbd13d;fill-opacity:1;stroke:none;font-family:Perfect DOS VGA 437 Win;-inkscape-font-specification:Perfect DOS VGA 437 Win" />
        <path
           inkscape:connector-curvature="0"
           style="font-size:59.17159653px;font-style:normal;font-variant:normal;font-weight:normal;font-stretch:normal;text-align:center;line-height:75.99999905%;letter-spacing:0px;word-spacing:0px;text-anchor:middle;opacity:0.2;fill:#ffffff;fill-opacity:1;stroke:none;filter:url(#filter3942);font-family:Perfect DOS VGA 437 Win;-inkscape-font-specification:Perfect DOS VGA 437 Win"
           d="m 131.0625,92.53125 0,3.71875 3.6875,0 0,29.5625 -3.6875,0 0,3.71875 22.1875,0 0,-3.71875 3.6875,0 0,-14.78125 -3.6875,0 0,-3.6875 3.6875,0 0,-11.09375 -3.6875,0 0,-3.71875 -22.1875,0 z m 11.09375,3.71875 7.40625,0 0,11.09375 -7.40625,0 0,-11.09375 z m 0,14.78125 7.40625,0 0,14.78125 -7.40625,0 0,-14.78125 z m -44.375,26.46875 0,3.71875 3.6875,0 0,29.5625 -3.6875,0 0,3.71875 18.46875,0 0,-3.71875 3.71875,0 0,-3.6875 3.6875,0 0,-22.1875 -3.6875,0 0,-3.6875 -3.71875,0 0,-3.71875 -18.46875,0 z m 36.96875,0 0,3.71875 -3.6875,0 0,29.5625 3.6875,0 0,3.71875 18.5,0 0,-3.71875 3.6875,0 0,-29.5625 -3.6875,0 0,-3.71875 -18.5,0 z m 33.28125,0 0,3.71875 -3.6875,0 0,7.375 3.6875,0 0,3.71875 3.71875,0 0,3.6875 7.375,0 0,3.6875 3.71875,0 0,11.09375 -11.09375,0 0,-7.375 -7.40625,0 0,7.375 3.6875,0 0,3.71875 18.5,0 0,-3.71875 3.6875,0 0,-11.09375 -3.6875,0 0,-3.6875 -3.6875,0 0,-3.6875 -7.40625,0 0,-3.71875 -3.6875,0 0,-7.375 11.09375,0 0,7.375 7.375,0 0,-7.375 -3.6875,0 0,-3.71875 -18.5,0 z m -59.15625,3.71875 3.6875,0 0,3.6875 3.6875,0 0,22.1875 -3.6875,0 0,3.6875 -3.6875,0 0,-29.5625 z m 29.5625,0 11.125,0 0,29.5625 -11.125,0 0,-29.5625 z m -7.375,41.25 0,7.40625 3.6875,0 0,7.40625 3.6875,0 0,7.375 -3.6875,0 0,7.40625 -3.6875,0 0,7.40625 7.375,0 0,-7.40625 3.71875,0 0,-3.6875 3.6875,0 0,3.6875 3.71875,0 0,7.40625 7.375,0 0,-7.40625 -3.6875,0 0,-7.40625 -3.6875,0 0,-7.375 3.6875,0 0,-7.40625 3.6875,0 0,-7.40625 -7.375,0 0,7.40625 -3.71875,0 0,3.6875 -3.6875,0 0,-3.6875 -3.71875,0 0,-7.40625 -7.375,0 z"
           id="path3970" />
      </g>
      <g
         id="g3972"
         transform="matrix(0.23489112,0,0,0.23489112,278.17568,207.73199)">
        <path
           style="font-size:59.17159653px;font-style:normal;font-variant:normal;font-weight:normal;font-stretch:normal;text-align:center;line-height:75.99999905%;letter-spacing:0px;word-spacing:0px;text-anchor:middle;fill:#000000;fill-opacity:1;stroke:none;filter:url(#filter3922);font-family:Perfect DOS VGA 437 Win;-inkscape-font-specification:Perfect DOS VGA 437 Win"
           d="m 131.0625,92.53125 0,3.71875 3.6875,0 0,29.5625 -3.6875,0 0,3.71875 22.1875,0 0,-3.71875 3.6875,0 0,-14.78125 -3.6875,0 0,-3.6875 3.6875,0 0,-11.09375 -3.6875,0 0,-3.71875 -22.1875,0 z m 11.09375,3.71875 7.40625,0 0,11.09375 -7.40625,0 0,-11.09375 z m 0,14.78125 7.40625,0 0,14.78125 -7.40625,0 0,-14.78125 z m -44.375,26.46875 0,3.71875 3.6875,0 0,29.5625 -3.6875,0 0,3.71875 18.46875,0 0,-3.71875 3.71875,0 0,-3.6875 3.6875,0 0,-22.1875 -3.6875,0 0,-3.6875 -3.71875,0 0,-3.71875 -18.46875,0 z m 36.96875,0 0,3.71875 -3.6875,0 0,29.5625 3.6875,0 0,3.71875 18.5,0 0,-3.71875 3.6875,0 0,-29.5625 -3.6875,0 0,-3.71875 -18.5,0 z m 33.28125,0 0,3.71875 -3.6875,0 0,7.375 3.6875,0 0,3.71875 3.71875,0 0,3.6875 7.375,0 0,3.6875 3.71875,0 0,11.09375 -11.09375,0 0,-7.375 -7.40625,0 0,7.375 3.6875,0 0,3.71875 18.5,0 0,-3.71875 3.6875,0 0,-11.09375 -3.6875,0 0,-3.6875 -3.6875,0 0,-3.6875 -7.40625,0 0,-3.71875 -3.6875,0 0,-7.375 11.09375,0 0,7.375 7.375,0 0,-7.375 -3.6875,0 0,-3.71875 -18.5,0 z m -59.15625,3.71875 3.6875,0 0,3.6875 3.6875,0 0,22.1875 -3.6875,0 0,3.6875 -3.6875,0 0,-29.5625 z m 29.5625,0 11.125,0 0,29.5625 -11.125,0 0,-29.5625 z m -7.375,41.25 0,7.40625 3.6875,0 0,7.40625 3.6875,0 0,7.375 -3.6875,0 0,7.40625 -3.6875,0 0,7.40625 7.375,0 0,-7.40625 3.71875,0 0,-3.6875 3.6875,0 0,3.6875 3.71875,0 0,7.40625 7.375,0 0,-7.40625 -3.6875,0 0,-7.40625 -3.6875,0 0,-7.375 3.6875,0 0,-7.40625 3.6875,0 0,-7.40625 -7.375,0 0,7.40625 -3.71875,0 0,3.6875 -3.6875,0 0,-3.6875 -3.71875,0 0,-7.40625 -7.375,0 z"
           id="path3974"
           inkscape:connector-curvature="0" />
        <path
           id="path3976"
           d="m 131.0625,92.53125 0,3.71875 3.6875,0 0,29.5625 -3.6875,0 0,3.71875 22.1875,0 0,-3.71875 3.6875,0 0,-14.78125 -3.6875,0 0,-3.6875 3.6875,0 0,-11.09375 -3.6875,0 0,-3.71875 -22.1875,0 z m 11.09375,3.71875 7.40625,0 0,11.09375 -7.40625,0 0,-11.09375 z m 0,14.78125 7.40625,0 0,14.78125 -7.40625,0 0,-14.78125 z m -44.375,26.46875 0,3.71875 3.6875,0 0,29.5625 -3.6875,0 0,3.71875 18.46875,0 0,-3.71875 3.71875,0 0,-3.6875 3.6875,0 0,-22.1875 -3.6875,0 0,-3.6875 -3.71875,0 0,-3.71875 -18.46875,0 z m 36.96875,0 0,3.71875 -3.6875,0 0,29.5625 3.6875,0 0,3.71875 18.5,0 0,-3.71875 3.6875,0 0,-29.5625 -3.6875,0 0,-3.71875 -18.5,0 z m 33.28125,0 0,3.71875 -3.6875,0 0,7.375 3.6875,0 0,3.71875 3.71875,0 0,3.6875 7.375,0 0,3.6875 3.71875,0 0,11.09375 -11.09375,0 0,-7.375 -7.40625,0 0,7.375 3.6875,0 0,3.71875 18.5,0 0,-3.71875 3.6875,0 0,-11.09375 -3.6875,0 0,-3.6875 -3.6875,0 0,-3.6875 -7.40625,0 0,-3.71875 -3.6875,0 0,-7.375 11.09375,0 0,7.375 7.375,0 0,-7.375 -3.6875,0 0,-3.71875 -18.5,0 z m -59.15625,3.71875 3.6875,0 0,3.6875 3.6875,0 0,22.1875 -3.6875,0 0,3.6875 -3.6875,0 0,-29.5625 z m 29.5625,0 11.125,0 0,29.5625 -11.125,0 0,-29.5625 z m -7.375,41.25 0,7.40625 3.6875,0 0,7.40625 3.6875,0 0,7.375 -3.6875,0 0,7.40625 -3.6875,0 0,7.40625 7.375,0 0,-7.40625 3.71875,0 0,-3.6875 3.6875,0 0,3.6875 3.71875,0 0,7.40625 7.375,0 0,-7.40625 -3.6875,0 0,-7.40625 -3.6875,0 0,-7.375 3.6875,0 0,-7.40625 3.6875,0 0,-7.40625 -7.375,0 0,7.40625 -3.71875,0 0,3.6875 -3.6875,0 0,-3.6875 -3.71875,0 0,-7.40625 -7.375,0 z"
           style="font-size:59.17159653px;font-style:normal;font-variant:normal;font-weight:normal;font-stretch:normal;text-align:center;line-height:75.99999905%;letter-spacing:0px;word-spacing:0px;text-anchor:middle;opacity:0.5;fill:#fbd13d;fill-opacity:1;stroke:none;filter:url(#filter3932);font-family:Perfect DOS VGA 437 Win;-inkscape-font-specification:Perfect DOS VGA 437 Win"
           inkscape:connector-curvature="0" />
        <path
           style="font-size:59.17159653px;font-style:normal;font-variant:normal;font-weight:normal;font-stretch:normal;text-align:center;line-height:75.99999905%;letter-spacing:0px;word-spacing:0px;text-anchor:middle;fill:#fbd13d;fill-opacity:1;stroke:none;font-family:Perfect DOS VGA 437 Win;-inkscape-font-specification:Perfect DOS VGA 437 Win"
           d="m 131.0625,92.53125 0,3.71875 3.6875,0 0,29.5625 -3.6875,0 0,3.71875 22.1875,0 0,-3.71875 3.6875,0 0,-14.78125 -3.6875,0 0,-3.6875 3.6875,0 0,-11.09375 -3.6875,0 0,-3.71875 -22.1875,0 z m 11.09375,3.71875 7.40625,0 0,11.09375 -7.40625,0 0,-11.09375 z m 0,14.78125 7.40625,0 0,14.78125 -7.40625,0 0,-14.78125 z m -44.375,26.46875 0,3.71875 3.6875,0 0,29.5625 -3.6875,0 0,3.71875 18.46875,0 0,-3.71875 3.71875,0 0,-3.6875 3.6875,0 0,-22.1875 -3.6875,0 0,-3.6875 -3.71875,0 0,-3.71875 -18.46875,0 z m 36.96875,0 0,3.71875 -3.6875,0 0,29.5625 3.6875,0 0,3.71875 18.5,0 0,-3.71875 3.6875,0 0,-29.5625 -3.6875,0 0,-3.71875 -18.5,0 z m 33.28125,0 0,3.71875 -3.6875,0 0,7.375 3.6875,0 0,3.71875 3.71875,0 0,3.6875 7.375,0 0,3.6875 3.71875,0 0,11.09375 -11.09375,0 0,-7.375 -7.40625,0 0,7.375 3.6875,0 0,3.71875 18.5,0 0,-3.71875 3.6875,0 0,-11.09375 -3.6875,0 0,-3.6875 -3.6875,0 0,-3.6875 -7.40625,0 0,-3.71875 -3.6875,0 0,-7.375 11.09375,0 0,7.375 7.375,0 0,-7.375 -3.6875,0 0,-3.71875 -18.5,0 z m -59.15625,3.71875 3.6875,0 0,3.6875 3.6875,0 0,22.1875 -3.6875,0 0,3.6875 -3.6875,0 0,-29.5625 z m 29.5625,0 11.125,0 0,29.5625 -11.125,0 0,-29.5625 z m -7.375,41.25 0,7.40625 3.6875,0 0,7.40625 3.6875,0 0,7.375 -3.6875,0 0,7.40625 -3.6875,0 0,7.40625 7.375,0 0,-7.40625 3.71875,0 0,-3.6875 3.6875,0 0,3.6875 3.71875,0 0,7.40625 7.375,0 0,-7.40625 -3.6875,0 0,-7.40625 -3.6875,0 0,-7.375 3.6875,0 0,-7.40625 3.6875,0 0,-7.40625 -7.375,0 0,7.40625 -3.71875,0 0,3.6875 -3.6875,0 0,-3.6875 -3.71875,0 0,-7.40625 -7.375,0 z"
           id="path3978"
           inkscape:connector-curvature="0" />
        <path
           id="path3980"
           d="m 131.0625,92.53125 0,3.71875 3.6875,0 0,29.5625 -3.6875,0 0,3.71875 22.1875,0 0,-3.71875 3.6875,0 0,-14.78125 -3.6875,0 0,-3.6875 3.6875,0 0,-11.09375 -3.6875,0 0,-3.71875 -22.1875,0 z m 11.09375,3.71875 7.40625,0 0,11.09375 -7.40625,0 0,-11.09375 z m 0,14.78125 7.40625,0 0,14.78125 -7.40625,0 0,-14.78125 z m -44.375,26.46875 0,3.71875 3.6875,0 0,29.5625 -3.6875,0 0,3.71875 18.46875,0 0,-3.71875 3.71875,0 0,-3.6875 3.6875,0 0,-22.1875 -3.6875,0 0,-3.6875 -3.71875,0 0,-3.71875 -18.46875,0 z m 36.96875,0 0,3.71875 -3.6875,0 0,29.5625 3.6875,0 0,3.71875 18.5,0 0,-3.71875 3.6875,0 0,-29.5625 -3.6875,0 0,-3.71875 -18.5,0 z m 33.28125,0 0,3.71875 -3.6875,0 0,7.375 3.6875,0 0,3.71875 3.71875,0 0,3.6875 7.375,0 0,3.6875 3.71875,0 0,11.09375 -11.09375,0 0,-7.375 -7.40625,0 0,7.375 3.6875,0 0,3.71875 18.5,0 0,-3.71875 3.6875,0 0,-11.09375 -3.6875,0 0,-3.6875 -3.6875,0 0,-3.6875 -7.40625,0 0,-3.71875 -3.6875,0 0,-7.375 11.09375,0 0,7.375 7.375,0 0,-7.375 -3.6875,0 0,-3.71875 -18.5,0 z m -59.15625,3.71875 3.6875,0 0,3.6875 3.6875,0 0,22.1875 -3.6875,0 0,3.6875 -3.6875,0 0,-29.5625 z m 29.5625,0 11.125,0 0,29.5625 -11.125,0 0,-29.5625 z m -7.375,41.25 0,7.40625 3.6875,0 0,7.40625 3.6875,0 0,7.375 -3.6875,0 0,7.40625 -3.6875,0 0,7.40625 7.375,0 0,-7.40625 3.71875,0 0,-3.6875 3.6875,0 0,3.6875 3.71875,0 0,7.40625 7.375,0 0,-7.40625 -3.6875,0 0,-7.40625 -3.6875,0 0,-7.375 3.6875,0 0,-7.40625 3.6875,0 0,-7.40625 -7.375,0 0,7.40625 -3.71875,0 0,3.6875 -3.6875,0 0,-3.6875 -3.71875,0 0,-7.40625 -7.375,0 z"
           style="font-size:59.17159653px;font-style:normal;font-variant:normal;font-weight:normal;font-stretch:normal;text-align:center;line-height:75.99999905%;letter-spacing:0px;word-spacing:0px;text-anchor:middle;opacity:0.2;fill:#ffffff;fill-opacity:1;stroke:none;filter:url(#filter3942);font-family:Perfect DOS VGA 437 Win;-inkscape-font-specification:Perfect DOS VGA 437 Win"
           inkscape:connector-curvature="0" />
      </g>
      <path
         style="font-size:12px;font-style:normal;font-variant:normal;font-weight:normal;font-stretch:normal;text-align:center;line-height:80.00000119%;letter-spacing:0px;word-spacing:0px;text-anchor:middle;fill:#fbd13d;fill-opacity:1;stroke:none;font-family:Perfect DOS VGA 437;-inkscape-font-specification:Perfect DOS VGA 437"
         d="m 418.5581,142.83932 0,0.44 0.44,0 0,3.52 -0.44,0 0,0.44 2.37678,0 0,-0.44 0.44,0 0,-0.44 0.44,0 0,-2.64 -0.44,0 0,-0.44 -0.44,0 0,-0.44 z m 4.93033,0 0,0.44 -0.44,0 0,3.52 0.44,0 0,0.44 1.97903,0 0,-0.44 0.44,0 0,-3.52 -0.44,0 0,-0.44 z m 4.00419,0 0,0.44 -0.44,0 0,0.88 0.44,0 0,0.44 0.44,0 0,0.44 0.88,0 0,0.44 0.44,0 0,1.32 -1.32,0 0,-0.88 -0.88,0 0,0.88 0.44,0 0,0.44 2.2,0 0,-0.44 0.44,0 0,-1.32 -0.44,0 0,-0.44 -0.44,0 0,-0.44 -0.88,0 0,-0.44 -0.44,0 0,-0.88 1.32,0 0,0.88 0.88,0 0,-0.88 -0.44,0 0,-0.44 z m -7.61452,0.44 0.61678,0 0,0.44 0.44,0 0,2.64 -0.44,0 0,0.44 -0.61678,0 z m 4.05033,0 1.09903,0 0,3.52 -1.09903,0 z m -5.37033,5.18834 0,0.44 0.44,0 0,3.52 -0.44,0 0,0.44 2.81678,0 0,-0.44 0.44,0 0,-1.76 -0.44,0 0,-0.44 0.44,0 0,-1.32 -0.44,0 0,-0.44 z m 4.93033,0 0,0.44 -0.44,0 0,3.52 0.44,0 0,0.44 1.97903,0 0,-0.44 0.44,0 0,-3.52 -0.44,0 0,-0.44 z m 3.56419,0 0,0.88 0.44,0 0,0.88 0.44,0 0,0.88 -0.44,0 0,0.88001 -0.44,0 0,0.88 0.88,0 0,-0.88 0.44,0 0,-0.44001 0.44,0 0,0.44001 0.44,0 0,0.88 0.88,0 0,-0.88 -0.44,0 0,-0.88001 -0.44,0 0,-0.88 0.44,0 0,-0.88 0.44,0 0,-0.88 -0.88,0 0,0.88 -0.44,0 0,0.44 -0.44,0 0,-0.44 -0.44,0 0,-0.88 z m -7.17452,0.44 1.05678,0 0,1.32 -1.05678,0 z m 4.05033,0 1.09903,0 0,3.52 -1.09903,0 z m -4.05033,1.76 1.05678,0 0,1.76 -1.05678,0 z"
         id="path4007"
         inkscape:connector-curvature="0"
         sodipodi:nodetypes="ccccccccccccccccccccccccccccccccccccccccccccccccccccccccccccccccccccccccccccccccccccccccccccccccccccccccccccccccccccccccccccccccccccccccccccccccccccccccccccccccccc" />
      <path
         inkscape:connector-curvature="0"
         id="path4026"
         d="m 421,105.61833 0,0.56 0.56,0 0,4.48 -0.56,0 0,0.56 2.8,0 0,-0.56 0.56,0 0,-0.56 0.56,0 0,-3.36 -0.56,0 0,-0.55999 -0.56,0 0,-0.56 -2.8,0 z m 5.6,0 0,0.56 -0.56,0 0,4.48 0.56,0 0,0.56 2.8,0 0,-0.56 0.56,0 0,-4.48 -0.56,0 0,-0.56 -2.8,0 z m 5.04,0 0,0.56 -0.56,0 0,1.12 0.56,0 0,0.56 0.56,0 0,0.56 1.12,0 0,0.56 0.56,0 0,1.68 -1.68,0 0,-1.12 -1.12,0 0,1.12 0.56,0 0,0.56 2.8,0 0,-0.56 0.56,0 0,-1.68 -0.56,0 0,-0.56 -0.56,0 0,-0.56 -1.12,0 0,-0.56 -0.56,0 0,-1.12 1.68,0 0,1.12 1.12,0 0,-1.12 -0.56,0 0,-0.56 -2.8,0 z m -8.96,0.56 0.56,0 0,0.56 0.56,0 0,3.36 -0.56,0 0,0.56 -0.56,0 0,-4.48 z m 4.48,0 1.68,0 0,4.48 -1.68,0 0,-4.48 z m -6.16,6.60334 0,0.56 0.56,0 0,4.48 -0.56,0 0,0.56 3.36,0 0,-0.56 0.56,0 0,-2.24 -0.56,0 0,-0.56 0.56,0 0,-1.68 -0.56,0 0,-0.55999 -3.36,0 z m 5.6,0 0,0.56 -0.56,0 0,4.48 0.56,0 0,0.56 2.8,0 0,-0.56 0.56,0 0,-4.48 -0.56,0 0,-0.56 -2.8,0 z m 4.48,0 0,1.12 0.56,0 0,1.12 0.56,0 0,1.12 -0.56,0 0,1.12 -0.56,0 0,1.12 1.12,0 0,-1.12 0.56,0 0,-0.56 0.56,0 0,0.56 0.56,0 0,1.12 1.12,0 0,-1.12 -0.56,0 0,-1.12 -0.56,0 0,-1.12 0.56,0 0,-1.12 0.56,0 0,-1.12 -1.12,0 0,1.12 -0.56,0 0,0.56 -0.56,0 0,-0.56 -0.56,0 0,-1.12 -1.12,0 z m -8.4,0.56 1.12,0 0,1.68 -1.12,0 0,-1.68 z m 4.48,0 1.68,0 0,4.48 -1.68,0 0,-4.48 z m -4.48,2.24 1.12,0 0,2.24 -1.12,0 0,-2.24 z"
         style="font-size:12px;font-style:normal;font-variant:normal;font-weight:normal;font-stretch:normal;text-align:center;line-height:80.00000119%;letter-spacing:0px;word-spacing:0px;text-anchor:middle;fill:#fbd13d;fill-opacity:1;stroke:none;font-family:Perfect DOS VGA 437;-inkscape-font-specification:Perfect DOS VGA 437" />
    </g>
    <g
       inkscape:groupmode="layer"
       id="layer5"
       inkscape:label="Highlights"
       style="display:inline"
       sodipodi:insensitive="true">
      <rect
         ry="9"
         y="307"
         x="-265"
         height="42"
         width="42"
         id="rect4884"
         style="color:#bebebe;display:inline;overflow:visible;visibility:visible;opacity:0.20;fill:none;stroke:#000000;stroke-width:2;stroke-miterlimit:4;stroke-dasharray:none;stroke-opacity:1;marker:none;enable-background:accumulate"
         transform="matrix(0,1,1,0,-16,488)"
         clip-path="url(#clipPath4891)" />
      <rect
         style="color:#bebebe;display:inline;overflow:visible;visibility:visible;opacity:0.20;fill:none;stroke:#000000;stroke-width:2;stroke-miterlimit:4;stroke-dasharray:none;stroke-opacity:1;marker:none;enable-background:accumulate"
         id="rect5311"
         width="16"
         height="16"
         x="-228"
         y="304"
         ry="3"
         clip-path="url(#clipPath3855)"
         transform="matrix(0,-1,1,0,112,-72)" />
      <rect
         ry="50"
         y="46"
         x="34"
         height="220"
         width="220"
         id="rect3858"
         style="color:#bebebe;display:inline;overflow:visible;visibility:visible;opacity:0.20;fill:none;stroke:#000000;stroke-width:2;stroke-miterlimit:4;stroke-dasharray:none;stroke-opacity:1;marker:none;enable-background:accumulate"
         clip-path="url(#clipPath3862)" />
      <rect
         ry="12.5"
         y="142"
         x="290"
         height="60"
         width="60"
         id="rect4175"
         style="color:#bebebe;display:inline;overflow:visible;visibility:visible;opacity:0.20;fill:none;stroke:#000000;stroke-width:2;stroke-miterlimit:4;stroke-dasharray:none;stroke-opacity:1;marker:none;enable-background:accumulate"
         clip-path="url(#clipPath4187)" />
      <rect
         style="color:#bebebe;display:inline;overflow:visible;visibility:visible;opacity:0.20;fill:none;stroke:#000000;stroke-width:2;stroke-miterlimit:4;stroke-dasharray:none;stroke-opacity:1;marker:none;enable-background:accumulate"
         id="rect4342"
         width="88"
         height="88"
         x="292"
         y="32"
         ry="18"
         clip-path="url(#clipPath4346)" />
      <rect
         ry="5"
         y="101"
         x="417"
         height="22"
         width="22"
         id="rect3866"
         style="color:#bebebe;display:inline;overflow:visible;visibility:visible;opacity:0.20;fill:none;stroke:#000000;stroke-width:2;stroke-miterlimit:4;stroke-dasharray:none;stroke-opacity:1;marker:none;enable-background:accumulate"
         clip-path="url(#clipPath3871)" />
      <rect
         style="color:#bebebe;display:inline;overflow:visible;visibility:visible;opacity:0.20;fill:none;stroke:#000000;stroke-width:2;stroke-miterlimit:4;stroke-dasharray:none;stroke-opacity:1;marker:none;enable-background:accumulate"
         id="rect3877"
         width="30"
         height="30"
         x="417"
         y="53"
         ry="7"
         clip-path="url(#clipPath3881)" />
    </g>
  </g>
</svg>
