<?xml version="1.0" encoding="UTF-8" standalone="no"?>
<!-- Created with Inkscape (http://www.inkscape.org/) -->

<svg
   xmlns:dc="http://purl.org/dc/elements/1.1/"
   xmlns:cc="http://creativecommons.org/ns#"
   xmlns:rdf="http://www.w3.org/1999/02/22-rdf-syntax-ns#"
   xmlns:svg="http://www.w3.org/2000/svg"
   xmlns="http://www.w3.org/2000/svg"
   xmlns:xlink="http://www.w3.org/1999/xlink"
   xmlns:sodipodi="http://sodipodi.sourceforge.net/DTD/sodipodi-0.dtd"
   xmlns:inkscape="http://www.inkscape.org/namespaces/inkscape"
   inkscape:export-ydpi="90.000000"
   inkscape:export-xdpi="90.000000"
   width="480"
   height="300"
   id="svg11300"
   sodipodi:version="0.32"
   inkscape:version="0.48.4 r9939"
   sodipodi:docname="tweetdeck.svg"
   inkscape:output_extension="org.inkscape.output.svg.inkscape"
   version="1.0"
   style="display:inline;enable-background:new"
   inkscape:export-filename="/home/sam/moka-next-mail.png">
  <sodipodi:namedview
     stroke="#ef2929"
     fill="#f57900"
     id="base"
     pagecolor="#777777"
     bordercolor="#666666"
     borderopacity="0.25490196"
     inkscape:pageopacity="0"
     inkscape:pageshadow="2"
     inkscape:zoom="1"
     inkscape:cx="265.28953"
     inkscape:cy="209.3078"
     inkscape:current-layer="layer7"
     showgrid="false"
     inkscape:grid-bbox="true"
     inkscape:document-units="px"
     inkscape:showpageshadow="false"
     inkscape:window-width="1364"
     inkscape:window-height="700"
     inkscape:window-x="0"
     inkscape:window-y="28"
     width="400px"
     height="300px"
     inkscape:snap-nodes="true"
     inkscape:snap-bbox="true"
     gridtolerance="10000"
     inkscape:object-nodes="true"
     inkscape:snap-grids="true"
     showguides="true"
     inkscape:guide-bbox="true"
     inkscape:window-maximized="1"
     inkscape:bbox-nodes="true"
     inkscape:bbox-paths="true"
     inkscape:snap-bbox-edge-midpoints="true"
     inkscape:snap-bbox-midpoints="true">
    <inkscape:grid
       spacingy="1px"
       spacingx="1px"
       id="grid5883"
       type="xygrid"
       enabled="true"
       visible="true"
       empspacing="4"
       snapvisiblegridlinesonly="true"
       dotted="false"
       color="#000000"
       opacity="0.1254902"
       empcolor="#203ef3"
       empopacity="0.36470588" />
    <inkscape:grid
       type="xygrid"
       id="grid11592"
       empspacing="8"
       visible="true"
       enabled="false"
       spacingx="0.5px"
       spacingy="0.5px"
       color="#ff0000"
       opacity="0.1254902"
       empcolor="#ff0000"
       empopacity="0.25098039"
       snapvisiblegridlinesonly="true"
       dotted="true" />
  </sodipodi:namedview>
  <defs
     id="defs3">
    <linearGradient
       inkscape:collect="always"
       xlink:href="#outerBackgroundGradient-5"
       id="linearGradient4254"
       x1="35"
       y1="156"
       x2="253"
       y2="156"
       gradientUnits="userSpaceOnUse"
       gradientTransform="matrix(0,-1,1,0,-12,300)" />
    <linearGradient
       inkscape:collect="always"
       xlink:href="#outerBackgroundGradient-5"
       id="linearGradient4256"
       x1="417"
       y1="148"
       x2="431"
       y2="148"
       gradientUnits="userSpaceOnUse"
       gradientTransform="matrix(0,-1,1,0,276,572)" />
    <linearGradient
       inkscape:collect="always"
       xlink:href="#outerBackgroundGradient-5"
       id="linearGradient4260"
       x1="418"
       y1="68"
       x2="446"
       y2="68"
       gradientUnits="userSpaceOnUse"
       gradientTransform="matrix(0,-1,1,0,364,500)" />
    <linearGradient
       inkscape:collect="always"
       xlink:href="#outerBackgroundGradient-5"
       id="linearGradient4262"
       x1="292"
       y1="244"
       x2="332"
       y2="244"
       gradientUnits="userSpaceOnUse"
       gradientTransform="matrix(0,-1,1,0,68,556)" />
    <linearGradient
       inkscape:collect="always"
       xlink:href="#outerBackgroundGradient-5"
       id="linearGradient4264"
       x1="293"
       y1="76"
       x2="379"
       y2="76"
       gradientUnits="userSpaceOnUse"
       gradientTransform="matrix(0,-1,1,0,260,412)" />
    <linearGradient
       inkscape:collect="always"
       xlink:href="#outerBackgroundGradient-5"
       id="linearGradient4266"
       x1="291"
       y1="172"
       x2="349"
       y2="172"
       gradientUnits="userSpaceOnUse"
       gradientTransform="matrix(0,-1,1,0,148,492)" />
    <linearGradient
       inkscape:collect="always"
       xlink:href="#outerBackgroundGradient-5"
       id="linearGradient3870"
       gradientUnits="userSpaceOnUse"
       x1="418"
       y1="112"
       x2="438"
       y2="112"
       gradientTransform="matrix(0,-1,1,0,316,540)" />
    <linearGradient
       id="outerBackgroundGradient-5">
      <stop
         style="stop-color:#1fa1ec;stop-opacity:1;"
         offset="0"
         id="stop3864-8-6-6" />
      <stop
         style="stop-color:#84d2ff;stop-opacity:1;"
         offset="1"
         id="stop3866-9-1-8" />
    </linearGradient>
  </defs>
  <metadata
     id="metadata4">
    <rdf:RDF>
      <cc:Work
         rdf:about="">
        <dc:format>image/svg+xml</dc:format>
        <dc:type
           rdf:resource="http://purl.org/dc/dcmitype/StillImage" />
        <dc:creator>
          <cc:Agent>
            <dc:title>Sam Hewitt</dc:title>
          </cc:Agent>
        </dc:creator>
        <dc:source />
        <cc:license
           rdf:resource="" />
        <dc:title />
        <dc:subject>
          <rdf:Bag />
        </dc:subject>
        <dc:date />
        <dc:rights>
          <cc:Agent>
            <dc:title />
          </cc:Agent>
        </dc:rights>
        <dc:publisher>
          <cc:Agent>
            <dc:title />
          </cc:Agent>
        </dc:publisher>
        <dc:identifier />
        <dc:relation />
        <dc:language />
        <dc:coverage />
        <dc:description />
        <dc:contributor>
          <cc:Agent>
            <dc:title />
          </cc:Agent>
        </dc:contributor>
      </cc:Work>
      <cc:Work
         rdf:about="">
        <dc:format>image/svg+xml</dc:format>
        <dc:type
           rdf:resource="http://purl.org/dc/dcmitype/StillImage" />
      </cc:Work>
    </rdf:RDF>
  </metadata>
  <g
     style="display:inline"
     inkscape:groupmode="layer"
     inkscape:label="Icon"
     id="layer1">
    <g
       style="display:none"
       inkscape:label="Baseplate"
       id="layer7"
       inkscape:groupmode="layer">
      <text
         y="19.745117"
         xml:space="preserve"
         x="15.006836"
         style="font-style:normal;font-variant:normal;font-weight:normal;font-stretch:normal;line-height:0%;font-family:'DejaVu Sans';-inkscape-font-specification:'DejaVu Sans';display:inline;fill:#000000;fill-opacity:1;stroke:none;enable-background:new"
         inkscape:label="context"
         id="context"><tspan
           style="font-style:normal;font-variant:normal;font-weight:normal;font-stretch:normal;font-size:18px;line-height:1.25;font-family:'DejaVu Sans';-inkscape-font-specification:'DejaVu Sans'"
           y="19.745117"
           x="15.006836"
           sodipodi:role="line"
           id="tspan3933">apps</tspan></text>
      <text
         y="19.745117"
         xml:space="preserve"
         x="122.48828"
         style="font-style:normal;font-variant:normal;font-weight:bold;font-stretch:normal;line-height:0%;font-family:'DejaVu Sans';-inkscape-font-specification:'DejaVu Sans Bold';text-align:start;writing-mode:lr-tb;text-anchor:start;display:inline;fill:#000000;fill-opacity:1;stroke:none;enable-background:new"
         inkscape:label="icon-name"
         id="icon-name"><tspan
           style="font-style:normal;font-variant:normal;font-weight:bold;font-stretch:normal;font-size:18px;line-height:1.25;font-family:'DejaVu Sans';-inkscape-font-specification:'DejaVu Sans Bold'"
           y="19.745117"
           x="122.48828"
           sodipodi:role="line"
           id="tspan3937">tweetdeck</tspan></text>
      <rect
         style="fill:#eeeeec;fill-opacity:1;fill-rule:nonzero;stroke:none;stroke-width:2;marker:none;visibility:visible;display:inline;overflow:visible;enable-background:accumulate"
         id="rect16x16"
         width="16"
         height="16"
         x="416"
         y="140"
         inkscape:label="16x16" />
      <rect
         style="fill:#d4d4d4;fill-opacity:1;fill-rule:nonzero;stroke:none;stroke-width:2;marker:none;visibility:visible;display:inline;overflow:visible;enable-background:accumulate"
         id="rect24x24"
         width="24"
         height="24"
         x="416"
         y="100"
         inkscape:label="24x24" />
      <rect
         style="fill:#eeeeec;fill-opacity:1;fill-rule:nonzero;stroke:none;stroke-width:2;marker:none;visibility:visible;display:inline;overflow:visible;enable-background:accumulate"
         id="rect32x32"
         width="32"
         height="32"
         x="416"
         y="52"
         inkscape:label="32x32" />
      <rect
         inkscape:label="22x22"
         y="101"
         x="417"
         height="22"
         width="22"
         id="rect22x22"
         style="fill:#eeeeec;fill-opacity:1;fill-rule:nonzero;stroke:none;stroke-width:2;marker:none;visibility:visible;display:inline;overflow:visible;enable-background:accumulate" />
      <rect
         inkscape:label="48x48"
         y="220"
         x="288"
         height="48"
         width="48"
         id="rect48x48"
         style="fill:#eeeeec;fill-opacity:1;fill-rule:nonzero;stroke:none;stroke-width:2;marker:none;visibility:visible;display:inline;overflow:visible;enable-background:accumulate" />
      <rect
         style="fill:#eeeeec;fill-opacity:1;fill-rule:nonzero;stroke:none;stroke-width:2;marker:none;visibility:visible;display:inline;overflow:visible;enable-background:accumulate"
         id="rect256x256"
         width="256"
         height="256"
         x="16"
         y="28"
         inkscape:label="256x256" />
      <rect
         style="fill:#eeeeec;fill-opacity:1;fill-rule:nonzero;stroke:none;stroke-width:2;marker:none;visibility:visible;display:inline;overflow:visible;enable-background:accumulate"
         id="rect64x64"
         width="64"
         height="64"
         x="288"
         y="140"
         inkscape:label="64x64" />
      <rect
         style="fill:#eeeeec;fill-opacity:1;fill-rule:nonzero;stroke:none;stroke-width:2;marker:none;visibility:visible;display:inline;overflow:visible;enable-background:accumulate"
         id="rect96x96"
         width="96"
         height="96"
         x="288"
         y="28"
         inkscape:label="96x96" />
    </g>
    <g
       inkscape:groupmode="layer"
       id="layer4"
       inkscape:label="Shadow"
       style="display:inline"
       sodipodi:insensitive="true">
      <rect
         ry="50"
         y="47"
         x="34"
         height="220"
         width="220"
         id="rect4114"
         style="opacity:0.1;color:#bebebe;fill:#000000;fill-opacity:1;fill-rule:nonzero;stroke:none;stroke-width:0;marker:none;visibility:visible;display:inline;overflow:visible;enable-background:accumulate" />
      <rect
         style="opacity:0.1;color:#bebebe;fill:#000000;fill-opacity:1;fill-rule:nonzero;stroke:none;stroke-width:0;marker:none;visibility:visible;display:inline;overflow:visible;enable-background:accumulate"
         id="rect4120"
         width="30"
         height="30"
         x="417"
         y="54"
         ry="7" />
      <rect
         transform="scale(1,-1)"
         ry="9"
         y="-266"
         x="291"
         height="42"
         width="42"
         id="rect4122"
         style="opacity:0.1;color:#bebebe;fill:#000000;fill-opacity:1;fill-rule:nonzero;stroke:none;stroke-width:0;marker:none;visibility:visible;display:inline;overflow:visible;enable-background:accumulate" />
      <rect
         style="opacity:0.1;color:#bebebe;fill:#000000;fill-opacity:1;fill-rule:nonzero;stroke:none;stroke-width:0;marker:none;visibility:visible;display:inline;overflow:visible;enable-background:accumulate"
         id="rect4124"
         width="88"
         height="88"
         x="292"
         y="33"
         ry="18" />
      <rect
         ry="12.5"
         y="143"
         x="290"
         height="60"
         width="60"
         id="rect4126"
         style="opacity:0.1;color:#bebebe;fill:#000000;fill-opacity:1;fill-rule:nonzero;stroke:none;stroke-width:0;marker:none;visibility:visible;display:inline;overflow:visible;enable-background:accumulate" />
      <path
         id="path4268"
         d="m 422,101 c -2.77,0 -5,2.23 -5,5 l 0,12 c 0,2.77 2.23,5 5,5 l 12,0 c 2.77,0 5,-2.23 5,-5 l 0,-12 c 0,-2.77 -2.23,-5 -5,-5 z"
         style="opacity:0.1;color:#bebebe;fill:#000000;fill-opacity:1;fill-rule:nonzero;stroke:none;stroke-width:0;marker:none;visibility:visible;display:inline;overflow:visible;enable-background:accumulate"
         inkscape:connector-curvature="0"
         sodipodi:nodetypes="sssssssss" />
      <path
         id="path4270"
         d="m 419,140 c -1.662,0 -3,1.338 -3,3 l 0,10 c 0,1.662 1.338,3 3,3 l 10,0 c 1.662,0 3,-1.338 3,-3 l 0,-10 c 0,-1.662 -1.338,-3 -3,-3 z"
         style="opacity:0.1;color:#bebebe;fill:#000000;fill-opacity:1;fill-rule:nonzero;stroke:none;stroke-width:0;marker:none;visibility:visible;display:inline;overflow:visible;enable-background:accumulate"
         inkscape:connector-curvature="0"
         sodipodi:nodetypes="sssssssss" />
    </g>
    <g
       inkscape:groupmode="layer"
       id="layer2"
       inkscape:label="Background"
       style="display:inline">
      <path
         style="color:#bebebe;fill:url(#linearGradient4254);fill-opacity:1.0;fill-rule:nonzero;stroke:none;stroke-width:2;marker:none;visibility:visible;display:inline;overflow:visible;enable-background:accumulate"
         d="M 84,46.5 C 56.56874,46.5 34.5,68.56873 34.5,96 l 0,120 c 0,27.43127 22.06874,49.5 49.5,49.5 l 120,0 c 27.43127,0 49.5,-22.06873 49.5,-49.5 l 0,-120 C 253.5,68.56873 231.43127,46.5 204,46.5 l -120,0 z"
         id="path4200"
         inkscape:connector-curvature="0" />
      <path
         style="color:#bebebe;fill:url(#linearGradient4256);fill-opacity:1.0;fill-rule:nonzero;stroke:none;stroke-width:2;marker:none;visibility:visible;display:inline;overflow:visible;enable-background:accumulate"
         d="m 419,140.5 c -1.3844,0 -2.5,1.1156 -2.5,2.5 l 0,10 c 0,1.3844 1.1156,2.5 2.5,2.5 l 10,0 c 1.3844,0 2.5,-1.1156 2.5,-2.5 l 0,-10 c 0,-1.3844 -1.1156,-2.5 -2.5,-2.5 l -10,0 z"
         id="path4202"
         inkscape:connector-curvature="0" />
      <path
         style="color:#bebebe;fill:url(#linearGradient3870);fill-opacity:1.0;fill-rule:nonzero;stroke:none;stroke-width:2;marker:none;visibility:visible;display:inline;overflow:visible;enable-background:accumulate"
         d="m 422,101.5 c -2.49699,0 -4.5,2.00301 -4.5,4.5 l 0,12 c 0,2.49699 2.00301,4.5 4.5,4.5 l 12,0 c 2.49699,0 4.5,-2.00301 4.5,-4.5 l 0,-12 c 0,-2.49699 -2.00301,-4.5 -4.5,-4.5 l -12,0 z"
         id="path4204"
         inkscape:connector-curvature="0" />
      <path
         style="color:#bebebe;fill:url(#linearGradient4260);fill-opacity:1.0;fill-rule:nonzero;stroke:none;stroke-width:2;marker:none;visibility:visible;display:inline;overflow:visible;enable-background:accumulate"
         d="m 424,53.5 c -3.60654,0 -6.5,2.89346 -6.5,6.5 l 0,16 c 0,3.60654 2.89346,6.5 6.5,6.5 l 16,0 c 3.60654,0 6.5,-2.89346 6.5,-6.5 l 0,-16 c 0,-3.60654 -2.89346,-6.5 -6.5,-6.5 l -16,0 z"
         id="path4206"
         inkscape:connector-curvature="0" />
      <path
         style="color:#bebebe;fill:url(#linearGradient4262);fill-opacity:1.0;fill-rule:nonzero;stroke:none;stroke-width:2;marker:none;visibility:visible;display:inline;overflow:visible;enable-background:accumulate"
         d="m 300,223.5 c -4.71531,0 -8.5,3.78469 -8.5,8.5 l 0,24 c 0,4.71531 3.78469,8.5 8.5,8.5 l 24,0 c 4.71531,0 8.5,-3.78469 8.5,-8.5 l 0,-24 c 0,-4.71531 -3.78469,-8.5 -8.5,-8.5 l -24,0 z"
         id="path4208"
         inkscape:connector-curvature="0" />
      <path
         style="color:#bebebe;fill:url(#linearGradient4264);fill-opacity:1.0;fill-rule:nonzero;stroke:none;stroke-width:2;marker:none;visibility:visible;display:inline;overflow:visible;enable-background:accumulate"
         d="m 310,32.5 c -9.70255,0 -17.5,7.79745 -17.5,17.5 l 0,52 c 0,9.70255 7.79745,17.5 17.5,17.5 l 52,0 c 9.70255,0 17.5,-7.79745 17.5,-17.5 l 0,-52 c 0,-9.70255 -7.79745,-17.5 -17.5,-17.5 l -52,0 z"
         id="path4210"
         inkscape:connector-curvature="0" />
      <path
         style="color:#bebebe;fill:url(#linearGradient4266);fill-opacity:1.0;fill-rule:nonzero;stroke:none;stroke-width:2;marker:none;visibility:visible;display:inline;overflow:visible;enable-background:accumulate"
         d="m 302.5,142.5 c -6.65502,0 -12,5.34498 -12,12 l 0,35 c 0,6.65502 5.34498,12 12,12 l 35,0 c 6.65502,0 12,-5.34498 12,-12 l 0,-35 c 0,-6.65502 -5.34498,-12 -12,-12 l -35,0 z"
         id="path4212"
         inkscape:connector-curvature="0" />
    </g>
    <g
       inkscape:groupmode="layer"
       id="layer6"
       inkscape:label="Symbols"
       style="display:inline">
      <path
         style="opacity:0.1;fill:none;stroke:#ffffff;stroke-opacity:1;display:inline;enable-background:new"
         id="path3882"
         inkscape:connector-curvature="0"
         d="m 159.12203,103.47685 c -9.78381,2.96931 -19.19848,16.18204 -16.24504,31.12938 C 110.4053,132.6508 96.065004,115.2502 87.441657,106.923 c -8.78892,15.51541 0.224,30.59565 8.096807,35.47703 -4.154873,0.22866 -9.180313,-1.56735 -11.674647,-3.1298 -0.947847,14.31384 10.715554,24.2362 20.638383,26.80791 -3.17208,0.94616 -6.161496,1.07342 -11.271729,0.31313 4.35176,14.39601 16.043019,18.24905 24.752049,18.88315 -11.21181,9.72926 -24.675889,11.85049 -39.315876,11.13495 37.958156,23.22334 76.290016,8.93559 94.946876,-9.28947 15.66674,-15.30452 22.67052,-38.22177 22.91291,-58.72729 3.58586,-2.91424 10.83646,-9.09137 12.80687,-13.92599 -2.85973,1.10017 -8.51704,3.71733 -14.42037,3.95262 4.86187,-3.18575 10.4335,-9.56979 11.01706,-14.56065 -5.38318,2.93188 -11.61276,5.47232 -16.94821,6.28245 -10.0582,-9.70979 -19.85227,-9.70135 -29.85975,-6.664 z" />
      <path
         d="m 342.25021,55.937878 c -4.04381,1.227269 -7.93508,6.688333 -6.71437,12.866339 -13.42113,-0.808213 -19.34825,-8.0002 -22.91243,-11.441984 -3.63263,6.412802 0.0926,12.645741 3.34655,14.663304 -1.71728,0.09451 -3.79439,-0.647813 -4.82534,-1.2936 -0.39176,5.916169 4.42893,10.017262 8.53022,11.080195 -1.31108,0.391068 -2.54666,0.443667 -4.65881,0.129424 1.79866,5.950135 6.63087,7.542665 10.23047,7.804753 -4.63404,4.021278 -10.19899,4.898022 -16.24997,4.602277 15.6888,9.598634 31.53206,3.693244 39.24328,-3.839507 6.47537,-6.325638 9.37015,-15.797758 9.47033,-24.273064 1.4821,-1.204509 4.47891,-3.757629 5.29332,-5.755866 -1.18198,0.454719 -3.52025,1.53644 -5.96021,1.633691 2.0095,-1.316728 4.31236,-3.955371 4.55356,-6.018185 -2.22497,1.2118 -4.79977,2.26181 -7.00501,2.596653 -4.15724,-4.013235 -8.20531,-4.009744 -12.34159,-2.754353 z"
         inkscape:connector-curvature="0"
         id="path3884"
         style="opacity:0.1;fill:none;stroke:#ffffff;stroke-opacity:1;display:inline;enable-background:new" />
      <path
         style="opacity:0.1;fill:none;stroke:#ffffff;stroke-opacity:1;display:inline;enable-background:new"
         id="path3886"
         inkscape:connector-curvature="0"
         d="m 324.16573,157.71236 c -2.69519,0.81797 -5.28868,4.45773 -4.47509,8.57533 -8.9451,-0.53867 -12.89548,-5.33208 -15.27099,-7.626 -2.42111,4.27409 0.0617,8.4283 2.23046,9.77299 -1.14456,0.063 -2.52893,-0.43176 -3.21606,-0.86217 -0.2611,3.94308 2.95186,6.67643 5.68534,7.38487 -0.87383,0.26065 -1.69733,0.2957 -3.10507,0.0863 1.1988,3.96573 4.41943,5.02714 6.81854,5.20182 -3.08856,2.68015 -6.79756,3.2645 -10.83049,3.06738 10.45648,6.39743 21.0159,2.46153 26.15538,-2.559 4.31578,-4.216 6.24514,-10.5291 6.31191,-16.17784 0.98782,-0.80279 2.98517,-2.50443 3.52796,-3.83624 -0.78778,0.30306 -2.34622,1.02402 -3.97243,1.08884 1.33931,-0.87759 2.87415,-2.63623 3.03491,-4.01108 -1.48293,0.80766 -3.19901,1.50748 -4.66879,1.73065 -2.77077,-2.67479 -5.46879,-2.67246 -8.22558,-1.83575 z" />
      <path
         d="m 314.783,235.17523 c -1.80058,0.54646 -3.53322,2.97809 -2.98968,5.72894 -5.97597,-0.35987 -8.61511,-3.56221 -10.20212,-5.09472 -1.61748,2.8554 0.0412,5.63071 1.49011,6.52906 -0.76465,0.0421 -1.68951,-0.28845 -2.14856,-0.57599 -0.17444,2.63426 1.97206,4.46034 3.79821,4.93362 -0.58377,0.17413 -1.13394,0.19755 -2.07441,0.0576 0.80089,2.64939 2.9525,3.35849 4.55528,3.47519 -2.06338,1.79053 -4.54126,2.18092 -7.23555,2.04923 6.98568,4.27394 14.04014,1.64448 17.47368,-1.7096 2.88325,-2.81658 4.1722,-7.03419 4.21681,-10.80795 0.65993,-0.53633 1.9943,-1.67315 2.35693,-2.56289 -0.5263,0.20247 -1.56745,0.68412 -2.65387,0.72742 0.89476,-0.58629 1.92014,-1.76119 2.02754,-2.67969 -0.99071,0.53958 -2.13717,1.00711 -3.11909,1.1562 -1.85108,-1.78695 -3.65354,-1.7854 -5.49528,-1.22641 z"
         inkscape:connector-curvature="0"
         id="path3888"
         style="opacity:0.1;fill:none;stroke:#ffffff;stroke-width:1;stroke-opacity:1;display:inline;enable-background:new" />
      <path
         style="opacity:0.1;fill:none;stroke:#ffffff;stroke-opacity:1;display:inline;enable-background:new"
         id="path3890"
         inkscape:connector-curvature="0"
         d="m 434.08838,60.872886 c -1.35116,0.410068 -2.65134,2.234779 -2.24347,4.299041 -4.48442,-0.270049 -6.46484,-2.673114 -7.65576,-3.82312 -1.21377,2.142715 0.0309,4.225332 1.1182,4.899463 -0.5738,0.03158 -1.26783,-0.216455 -1.6123,-0.432232 -0.1309,1.976774 1.47984,3.347076 2.8502,3.702235 -0.43806,0.130668 -0.85091,0.148243 -1.55665,0.04325 0.601,1.988124 2.21559,2.520237 3.41832,2.607808 -1.54837,1.343634 -3.40779,1.636581 -5.42962,1.537763 5.24211,3.207199 10.53584,1.234027 13.11239,-1.282897 2.16363,-2.113591 3.13086,-5.278519 3.16434,-8.110381 0.49522,-0.402463 1.49654,-1.255539 1.76865,-1.923212 -0.39492,0.151936 -1.17621,0.513372 -1.99149,0.545867 0.67145,-0.43996 1.4409,-1.321612 1.5215,-2.010862 -0.74343,0.4049 -1.60375,0.755741 -2.34059,0.867622 -1.38906,-1.340946 -2.74165,-1.339779 -4.12372,-0.920314 z" />
      <path
         d="m 429.6259,106.45119 c -1.05195,0.31926 -2.06421,1.73989 -1.74666,3.34702 -3.49134,-0.21025 -5.0332,-2.08115 -5.96037,-2.97649 -0.94498,1.66821 0.0241,3.28963 0.87056,3.81447 -0.44673,0.0246 -0.98706,-0.16852 -1.25525,-0.33651 -0.10191,1.53901 1.15213,2.60586 2.21903,2.88237 -0.34106,0.10173 -0.66248,0.11541 -1.21193,0.0337 0.46789,1.54785 1.72493,1.96213 2.66132,2.0303 -1.20548,1.04609 -2.65314,1.27416 -4.22722,1.19723 4.08124,2.49696 8.20266,0.96075 10.20864,-0.9988 1.68448,-1.64553 2.43752,-4.10959 2.46358,-6.31433 0.38555,-0.31334 1.16514,-0.9775 1.37699,-1.49731 -0.30747,0.11829 -0.91575,0.39968 -1.55047,0.42498 0.52275,-0.34253 1.12181,-1.02894 1.18455,-1.56555 -0.5788,0.31523 -1.2486,0.58838 -1.82226,0.67548 -1.08146,-1.04399 -2.13451,-1.04308 -3.21051,-0.71651 z"
         inkscape:connector-curvature="0"
         id="path3892"
         style="opacity:0.1;fill:none;stroke:#ffffff;stroke-opacity:1;display:inline;enable-background:new" />
      <path
         style="opacity:0.1;fill:none;stroke:#ffffff;stroke-opacity:1;display:inline;enable-background:new"
         id="path3894"
         inkscape:connector-curvature="0"
         d="m 425.38731,143.26546 c -0.89758,0.27241 -1.7613,1.48456 -1.49034,2.85585 -2.979,-0.17939 -4.2946,-1.77575 -5.08572,-2.5397 -0.80631,1.42341 0.0206,2.80689 0.74282,3.25472 -0.38117,0.021 -0.84222,-0.14379 -1.07105,-0.28714 -0.087,1.31318 0.98306,2.22347 1.8934,2.4594 -0.29101,0.0868 -0.56527,0.0985 -1.03408,0.0287 0.39923,1.32071 1.47179,1.67419 2.27077,1.73236 -1.02857,0.89258 -2.26379,1.08718 -3.60689,1.02154 3.48233,2.13054 6.99895,0.81976 8.71056,-0.85223 1.4373,-1.40406 2.07983,-3.50652 2.10206,-5.38772 0.32898,-0.26736 0.99416,-0.83406 1.17492,-1.27759 -0.26235,0.10093 -0.78136,0.34103 -1.32294,0.36262 0.44603,-0.29227 0.95718,-0.87795 1.01072,-1.33582 -0.49386,0.26898 -1.06537,0.50204 -1.55485,0.57636 -0.92276,-0.89079 -1.82128,-0.89001 -2.73938,-0.61136 z" />
      <path
         d="m 159.12203,103.47685 c -9.78381,2.96931 -19.19848,16.18204 -16.24504,31.12938 C 110.4053,132.6508 96.065004,115.2502 87.441657,106.923 c -8.78892,15.51541 0.224,30.59565 8.096807,35.47703 -4.154873,0.22866 -9.180313,-1.56735 -11.674647,-3.1298 -0.947847,14.31384 10.715554,24.2362 20.638383,26.80791 -3.17208,0.94616 -6.161496,1.07342 -11.271729,0.31313 4.35176,14.39601 16.043019,18.24905 24.752049,18.88315 -11.21181,9.72926 -24.675889,11.85049 -39.315876,11.13495 37.958156,23.22334 76.290016,8.93559 94.946876,-9.28947 15.66674,-15.30452 22.67052,-38.22177 22.91291,-58.72729 3.58586,-2.91424 10.83646,-9.09137 12.80687,-13.92599 -2.85973,1.10017 -8.51704,3.71733 -14.42037,3.95262 4.86187,-3.18575 10.4335,-9.56979 11.01706,-14.56065 -5.38318,2.93188 -11.61276,5.47232 -16.94821,6.28245 -10.0582,-9.70979 -19.85227,-9.70135 -29.85975,-6.664 z"
         inkscape:connector-curvature="0"
         id="path4060"
         style="fill:#222222;fill-opacity:1;stroke:none;display:inline;enable-background:new" />
      <path
         style="fill:#222222;fill-opacity:1;stroke:none;display:inline;enable-background:new"
         id="path3088"
         inkscape:connector-curvature="0"
         d="m 342.25021,55.937878 c -4.04381,1.227269 -7.93508,6.688333 -6.71437,12.866339 -13.42113,-0.808213 -19.34825,-8.0002 -22.91243,-11.441984 -3.63263,6.412802 0.0926,12.645741 3.34655,14.663304 -1.71728,0.09451 -3.79439,-0.647813 -4.82534,-1.2936 -0.39176,5.916169 4.42893,10.017262 8.53022,11.080195 -1.31108,0.391068 -2.54666,0.443667 -4.65881,0.129424 1.79866,5.950135 6.63087,7.542665 10.23047,7.804753 -4.63404,4.021278 -10.19899,4.898022 -16.24997,4.602277 15.6888,9.598634 31.53206,3.693244 39.24328,-3.839507 6.47537,-6.325638 9.37015,-15.797758 9.47033,-24.273064 1.4821,-1.204509 4.47891,-3.757629 5.29332,-5.755866 -1.18198,0.454719 -3.52025,1.53644 -5.96021,1.633691 2.0095,-1.316728 4.31236,-3.955371 4.55356,-6.018185 -2.22497,1.2118 -4.79977,2.26181 -7.00501,2.596653 -4.15724,-4.013235 -8.20531,-4.009744 -12.34159,-2.754353 z" />
      <path
         d="m 324.16573,157.71236 c -2.69519,0.81797 -5.28868,4.45773 -4.47509,8.57533 -8.9451,-0.53867 -12.89548,-5.33208 -15.27099,-7.626 -2.42111,4.27409 0.0617,8.4283 2.23046,9.77299 -1.14456,0.063 -2.52893,-0.43176 -3.21606,-0.86217 -0.2611,3.94308 2.95186,6.67643 5.68534,7.38487 -0.87383,0.26065 -1.69733,0.2957 -3.10507,0.0863 1.1988,3.96573 4.41943,5.02714 6.81854,5.20182 -3.08856,2.68015 -6.79756,3.2645 -10.83049,3.06738 10.45648,6.39743 21.0159,2.46153 26.15538,-2.559 4.31578,-4.216 6.24514,-10.5291 6.31191,-16.17784 0.98782,-0.80279 2.98517,-2.50443 3.52796,-3.83624 -0.78778,0.30306 -2.34622,1.02402 -3.97243,1.08884 1.33931,-0.87759 2.87415,-2.63623 3.03491,-4.01108 -1.48293,0.80766 -3.19901,1.50748 -4.66879,1.73065 -2.77077,-2.67479 -5.46879,-2.67246 -8.22558,-1.83575 z"
         inkscape:connector-curvature="0"
         id="path3096"
         style="fill:#222222;fill-opacity:1;stroke:none;display:inline;enable-background:new" />
      <path
         style="fill:#222222;fill-opacity:1;stroke:none;display:inline;enable-background:new"
         id="path3104"
         inkscape:connector-curvature="0"
         d="m 314.783,235.17523 c -1.80058,0.54646 -3.53322,2.97809 -2.98968,5.72894 -5.97597,-0.35987 -8.61511,-3.56221 -10.20212,-5.09472 -1.61748,2.8554 0.0412,5.63071 1.49011,6.52906 -0.76465,0.0421 -1.68951,-0.28845 -2.14856,-0.57599 -0.17444,2.63426 1.97206,4.46034 3.79821,4.93362 -0.58377,0.17413 -1.13394,0.19755 -2.07441,0.0576 0.80089,2.64939 2.9525,3.35849 4.55528,3.47519 -2.06338,1.79053 -4.54126,2.18092 -7.23555,2.04923 6.98568,4.27394 14.04014,1.64448 17.47368,-1.7096 2.88325,-2.81658 4.1722,-7.03419 4.21681,-10.80795 0.65993,-0.53633 1.9943,-1.67315 2.35693,-2.56289 -0.5263,0.20247 -1.56745,0.68412 -2.65387,0.72742 0.89476,-0.58629 1.92014,-1.76119 2.02754,-2.67969 -0.99071,0.53958 -2.13717,1.00711 -3.11909,1.1562 -1.85108,-1.78695 -3.65354,-1.7854 -5.49528,-1.22641 z" />
      <path
         d="m 434.08838,60.872886 c -1.35116,0.410068 -2.65134,2.234779 -2.24347,4.299041 -4.48442,-0.270049 -6.46484,-2.673114 -7.65576,-3.82312 -1.21377,2.142715 0.0309,4.225332 1.1182,4.899463 -0.5738,0.03158 -1.26783,-0.216455 -1.6123,-0.432232 -0.1309,1.976774 1.47984,3.347076 2.8502,3.702235 -0.43806,0.130668 -0.85091,0.148243 -1.55665,0.04325 0.601,1.988124 2.21559,2.520237 3.41832,2.607808 -1.54837,1.343634 -3.40779,1.636581 -5.42962,1.537763 5.24211,3.207199 10.53584,1.234027 13.11239,-1.282897 2.16363,-2.113591 3.13086,-5.278519 3.16434,-8.110381 0.49522,-0.402463 1.49654,-1.255539 1.76865,-1.923212 -0.39492,0.151936 -1.17621,0.513372 -1.99149,0.545867 0.67145,-0.43996 1.4409,-1.321612 1.5215,-2.010862 -0.74343,0.4049 -1.60375,0.755741 -2.34059,0.867622 -1.38906,-1.340946 -2.74165,-1.339779 -4.12372,-0.920314 z"
         inkscape:connector-curvature="0"
         id="path3112"
         style="fill:#222222;fill-opacity:1;stroke:none;display:inline;enable-background:new" />
      <path
         style="fill:#222222;fill-opacity:1;stroke:none;display:inline;enable-background:new"
         id="path3120"
         inkscape:connector-curvature="0"
         d="m 429.6259,106.45119 c -1.05195,0.31926 -2.06421,1.73989 -1.74666,3.34702 -3.49134,-0.21025 -5.0332,-2.08115 -5.96037,-2.97649 -0.94498,1.66821 0.0241,3.28963 0.87056,3.81447 -0.44673,0.0246 -0.98706,-0.16852 -1.25525,-0.33651 -0.10191,1.53901 1.15213,2.60586 2.21903,2.88237 -0.34106,0.10173 -0.66248,0.11541 -1.21193,0.0337 0.46789,1.54785 1.72493,1.96213 2.66132,2.0303 -1.20548,1.04609 -2.65314,1.27416 -4.22722,1.19723 4.08124,2.49696 8.20266,0.96075 10.20864,-0.9988 1.68448,-1.64553 2.43752,-4.10959 2.46358,-6.31433 0.38555,-0.31334 1.16514,-0.9775 1.37699,-1.49731 -0.30747,0.11829 -0.91575,0.39968 -1.55047,0.42498 0.52275,-0.34253 1.12181,-1.02894 1.18455,-1.56555 -0.5788,0.31523 -1.2486,0.58838 -1.82226,0.67548 -1.08146,-1.04399 -2.13451,-1.04308 -3.21051,-0.71651 z" />
      <path
         d="m 425.38731,143.26546 c -0.89758,0.27241 -1.7613,1.48456 -1.49034,2.85585 -2.979,-0.17939 -4.2946,-1.77575 -5.08572,-2.5397 -0.80631,1.42341 0.0206,2.80689 0.74282,3.25472 -0.38117,0.021 -0.84222,-0.14379 -1.07105,-0.28714 -0.087,1.31318 0.98306,2.22347 1.8934,2.4594 -0.29101,0.0868 -0.56527,0.0985 -1.03408,0.0287 0.39923,1.32071 1.47179,1.67419 2.27077,1.73236 -1.02857,0.89258 -2.26379,1.08718 -3.60689,1.02154 3.48233,2.13054 6.99895,0.81976 8.71056,-0.85223 1.4373,-1.40406 2.07983,-3.50652 2.10206,-5.38772 0.32898,-0.26736 0.99416,-0.83406 1.17492,-1.27759 -0.26235,0.10093 -0.78136,0.34103 -1.32294,0.36262 0.44603,-0.29227 0.95718,-0.87795 1.01072,-1.33582 -0.49386,0.26898 -1.06537,0.50204 -1.55485,0.57636 -0.92276,-0.89079 -1.82128,-0.89001 -2.73938,-0.61136 z"
         inkscape:connector-curvature="0"
         id="path3128"
         style="fill:#222222;fill-opacity:1;stroke:none;display:inline;enable-background:new" />
    </g>
    <g
       inkscape:groupmode="layer"
       id="layer5"
       inkscape:label="Highlights"
       style="display:inline"
       sodipodi:insensitive="true">
      <path
         style="opacity:0.12999998;color:#bebebe;fill:#ffffff;fill-opacity:1;fill-rule:nonzero;stroke:none;stroke-width:0;marker:none;visibility:visible;display:inline;overflow:visible;enable-background:accumulate"
         d="M 84,47 C 56.836703,47 35,68.836703 35,96 l 0,1 C 35,69.836703 56.836703,48 84,48 l 120,0 c 27.1633,0 49,21.836703 49,49 l 0,-1 C 253,68.836703 231.1633,47 204,47 L 84,47 z"
         id="rect3894"
         inkscape:connector-curvature="0" />
      <path
         style="opacity:0.12999998;color:#bebebe;fill:#ffffff;fill-opacity:1;fill-rule:nonzero;stroke:none;stroke-width:0;marker:none;visibility:visible;display:inline;overflow:visible;enable-background:accumulate"
         d="m 419,141 c -1.1253,0 -2,0.8747 -2,2 l 0,1 c 0,-1.1253 0.8747,-2 2,-2 l 10,0 c 1.1253,0 2,0.8747 2,2 l 0,-1 c 0,-1.1253 -0.8747,-2 -2,-2 l -10,0 z"
         id="rect3896"
         inkscape:connector-curvature="0" />
      <path
         style="opacity:0.12999998;color:#bebebe;fill:#ffffff;fill-opacity:1;fill-rule:nonzero;stroke:none;stroke-width:0;marker:none;visibility:visible;display:inline;overflow:visible;enable-background:accumulate"
         d="m 422,102 c -2.2333,0 -4,1.7667 -4,4 l 0,1 c 0,-2.2333 1.7667,-4 4,-4 l 12,0 c 2.2333,0 4,1.7667 4,4 l 0,-1 c 0,-2.2333 -1.7667,-4 -4,-4 l -12,0 z"
         id="rect3898"
         inkscape:connector-curvature="0" />
      <path
         style="opacity:0.12999998;color:#bebebe;fill:#ffffff;fill-opacity:1;fill-rule:nonzero;stroke:none;stroke-width:0;marker:none;visibility:visible;display:inline;overflow:visible;enable-background:accumulate"
         d="m 424,54 c -3.3413,0 -6,2.658703 -6,6 l 0,1 c 0,-3.341297 2.6587,-6 6,-6 l 16,0 c 3.3413,0 6,2.658703 6,6 l 0,-1 c 0,-3.341297 -2.6587,-6 -6,-6 l -16,0 z"
         id="rect3900"
         inkscape:connector-curvature="0" />
      <path
         style="opacity:0.12999998;color:#bebebe;fill:#ffffff;fill-opacity:1;fill-rule:nonzero;stroke:none;stroke-width:0;marker:none;visibility:visible;display:inline;overflow:visible;enable-background:accumulate"
         d="m 300,224 c -4.4493,0 -8,3.5507 -8,8 l 0,1 c 0,-4.4493 3.5507,-8 8,-8 l 24,0 c 4.4493,0 8,3.5507 8,8 l 0,-1 c 0,-4.4493 -3.5507,-8 -8,-8 l -24,0 z"
         id="rect3902"
         inkscape:connector-curvature="0" />
      <path
         style="opacity:0.12999998;color:#bebebe;fill:#ffffff;fill-opacity:1;fill-rule:nonzero;stroke:none;stroke-width:0;marker:none;visibility:visible;display:inline;overflow:visible;enable-background:accumulate"
         d="m 310,33 c -9.4353,0 -17,7.564703 -17,17 l 0,1 c 0,-9.435297 7.5647,-17 17,-17 l 52,0 c 9.4353,0 17,7.564703 17,17 l 0,-1 c 0,-9.435297 -7.5647,-17 -17,-17 l -52,0 z"
         id="rect3904"
         inkscape:connector-curvature="0" />
      <path
         style="opacity:0.12999998;color:#bebebe;fill:#ffffff;fill-opacity:1;fill-rule:nonzero;stroke:none;stroke-width:0;marker:none;visibility:visible;display:inline;overflow:visible;enable-background:accumulate"
         d="m 302.5,143 c -6.3883,0 -11.5,5.1117 -11.5,11.5 l 0,1 c 0,-6.3883 5.1117,-11.5 11.5,-11.5 l 35,0 c 6.3883,0 11.5,5.1117 11.5,11.5 l 0,-1 c 0,-6.3883 -5.1117,-11.5 -11.5,-11.5 l -35,0 z"
         id="rect3906"
         inkscape:connector-curvature="0" />
      <path
         id="path4085"
         d="m 204,266 c 27.1633,0 49,-21.8367 49,-49 l 0,-1 c 0,27.1633 -21.8367,49 -49,49 L 84,265 C 56.8367,265 35,243.1633 35,216 l 0,1 c 0,27.1633 21.8367,49 49,49 l 120,0 z"
         style="opacity:0.41;color:#bebebe;fill:#000000;fill-opacity:1;fill-rule:nonzero;stroke:none;stroke-width:0;marker:none;visibility:visible;display:inline;overflow:visible;enable-background:accumulate"
         inkscape:connector-curvature="0" />
      <path
         id="path4087"
         d="m 429,156 c 1.1253,0 2,-0.8747 2,-2 l 0,-1 c 0,1.1253 -0.8747,2 -2,2 l -10,0 c -1.1253,0 -2,-0.8747 -2,-2 l 0,1 c 0,1.1253 0.8747,2 2,2 l 10,0 z"
         style="opacity:0.3;color:#bebebe;fill:#000000;fill-opacity:1;fill-rule:nonzero;stroke:none;stroke-width:0;marker:none;visibility:visible;display:inline;overflow:visible;enable-background:accumulate"
         inkscape:connector-curvature="0" />
      <path
         id="path4089"
         d="m 434,123 c 2.2333,0 4,-1.7667 4,-4 l 0,-1 c 0,2.2333 -1.7667,4 -4,4 l -12,0 c -2.2333,0 -4,-1.7667 -4,-4 l 0,1 c 0,2.2333 1.7667,4 4,4 l 12,0 z"
         style="opacity:0.3;color:#bebebe;fill:#000000;fill-opacity:1;fill-rule:nonzero;stroke:none;stroke-width:0;marker:none;visibility:visible;display:inline;overflow:visible;enable-background:accumulate"
         inkscape:connector-curvature="0" />
      <path
         id="path4091"
         d="m 440,83 c 3.3413,0 6,-2.6587 6,-6 l 0,-1 c 0,3.3413 -2.6587,6 -6,6 l -16,0 c -3.3413,0 -6,-2.6587 -6,-6 l 0,1 c 0,3.3413 2.6587,6 6,6 l 16,0 z"
         style="opacity:0.41;color:#bebebe;fill:#000000;fill-opacity:1;fill-rule:nonzero;stroke:none;stroke-width:0;marker:none;visibility:visible;display:inline;overflow:visible;enable-background:accumulate"
         inkscape:connector-curvature="0" />
      <path
         id="path4093"
         d="m 324,265 c 4.4493,0 8,-3.5507 8,-8 l 0,-1 c 0,4.4493 -3.5507,8 -8,8 l -24,0 c -4.4493,0 -8,-3.5507 -8,-8 l 0,1 c 0,4.4493 3.5507,8 8,8 l 24,0 z"
         style="opacity:0.41;color:#bebebe;fill:#000000;fill-opacity:1;fill-rule:nonzero;stroke:none;stroke-width:0;marker:none;visibility:visible;display:inline;overflow:visible;enable-background:accumulate"
         inkscape:connector-curvature="0" />
      <path
         id="path4095"
         d="m 362,120 c 9.4353,0 17,-7.5647 17,-17 l 0,-1 c 0,9.4353 -7.5647,17 -17,17 l -52,0 c -9.4353,0 -17,-7.5647 -17,-17 l 0,1 c 0,9.4353 7.5647,17 17,17 l 52,0 z"
         style="opacity:0.41;color:#bebebe;fill:#000000;fill-opacity:1;fill-rule:nonzero;stroke:none;stroke-width:0;marker:none;visibility:visible;display:inline;overflow:visible;enable-background:accumulate"
         inkscape:connector-curvature="0" />
      <path
         id="path4097"
         d="m 337.5,202 c 6.3883,0 11.5,-5.1117 11.5,-11.5 l 0,-1 c 0,6.3883 -5.1117,11.5 -11.5,11.5 l -35,0 c -6.3883,0 -11.5,-5.1117 -11.5,-11.5 l 0,1 c 0,6.3883 5.1117,11.5 11.5,11.5 l 35,0 z"
         style="opacity:0.41;color:#bebebe;fill:#000000;fill-opacity:1;fill-rule:nonzero;stroke:none;stroke-width:0;marker:none;visibility:visible;display:inline;overflow:visible;enable-background:accumulate"
         inkscape:connector-curvature="0" />
      <path
         inkscape:connector-curvature="0"
         id="path4280"
         d="M 84,265 C 56.836703,265 35,243.1633 35,216 l 0,-1 c 0,27.1633 21.836703,49 49,49 l 120,0 c 27.1633,0 49,-21.8367 49,-49 l 0,1 c 0,27.1633 -21.8367,49 -49,49 l -120,0 z"
         style="opacity:0.1;color:#bebebe;fill:#ffffff;fill-opacity:1;fill-rule:nonzero;stroke:none;stroke-width:0;marker:none;visibility:visible;display:inline;overflow:visible;enable-background:accumulate" />
      <path
         style="opacity:0.1;color:#bebebe;fill:#ffffff;fill-opacity:1;fill-rule:nonzero;stroke:none;stroke-width:0;marker:none;visibility:visible;display:inline;overflow:visible;enable-background:accumulate"
         d="m 300,264 c -4.4493,0 -8,-3.5507 -8,-8 l 0,-1 c 0,4.4493 3.5507,8 8,8 l 24,0 c 4.4493,0 8,-3.5507 8,-8 l 0,1 c 0,4.4493 -3.5507,8 -8,8 l -24,0 z"
         id="path4294"
         inkscape:connector-curvature="0" />
      <path
         style="opacity:0.1;color:#bebebe;fill:#ffffff;fill-opacity:1;fill-rule:nonzero;stroke:none;stroke-width:0;marker:none;visibility:visible;display:inline;overflow:visible;enable-background:accumulate"
         d="m 302.5,201 c -6.3883,0 -11.5,-5.1117 -11.5,-11.5 l 0,-1 c 0,6.3883 5.1117,11.5 11.5,11.5 l 35,0 c 6.3883,0 11.5,-5.1117 11.5,-11.5 l 0,1 c 0,6.3883 -5.1117,11.5 -11.5,11.5 l -35,0 z"
         id="path4296"
         inkscape:connector-curvature="0" />
      <path
         style="opacity:0.1;color:#bebebe;fill:#ffffff;fill-opacity:1;fill-rule:nonzero;stroke:none;stroke-width:0;marker:none;visibility:visible;display:inline;overflow:visible;enable-background:accumulate"
         d="m 310,119 c -9.4353,0 -17,-7.5647 -17,-17 l 0,-1 c 0,9.4353 7.5647,17 17,17 l 52,0 c 9.4353,0 17,-7.5647 17,-17 l 0,1 c 0,9.4353 -7.5647,17 -17,17 l -52,0 z"
         id="path4298"
         inkscape:connector-curvature="0" />
      <path
         style="opacity:0.1;color:#bebebe;fill:#ffffff;fill-opacity:1;fill-rule:nonzero;stroke:none;stroke-width:0;marker:none;visibility:visible;display:inline;overflow:visible;enable-background:accumulate"
         d="m 424,82 c -3.3413,0 -6,-2.658703 -6,-6 l 0,-1 c 0,3.341297 2.6587,6 6,6 l 16,0 c 3.3413,0 6,-2.658703 6,-6 l 0,1 c 0,3.341297 -2.6587,6 -6,6 l -16,0 z"
         id="path4300"
         inkscape:connector-curvature="0" />
      <path
         style="opacity:0.1;color:#bebebe;fill:#ffffff;fill-opacity:1;fill-rule:nonzero;stroke:none;stroke-width:0;marker:none;visibility:visible;display:inline;overflow:visible;enable-background:accumulate"
         d="m 422,122 c -2.2333,0 -4,-1.7667 -4,-4 l 0,-1 c 0,2.2333 1.7667,4 4,4 l 12,0 c 2.2333,0 4,-1.7667 4,-4 l 0,1 c 0,2.2333 -1.7667,4 -4,4 l -12,0 z"
         id="path4302"
         inkscape:connector-curvature="0" />
      <path
         style="opacity:0.1;color:#bebebe;fill:#ffffff;fill-opacity:1;fill-rule:nonzero;stroke:none;stroke-width:0;marker:none;visibility:visible;display:inline;overflow:visible;enable-background:accumulate"
         d="m 419,154.5 c -1.1253,0 -2,-0.8747 -2,-2 l 0,-1 c 0,1.1253 0.8747,2 2,2 l 10,0 c 1.1253,0 2,-0.8747 2,-2 l 0,1 c 0,1.1253 -0.8747,2 -2,2 l -10,0 z"
         id="path4304"
         inkscape:connector-curvature="0" />
    </g>
    <g
       inkscape:groupmode="layer"
       id="layer3"
       inkscape:label="Border"
       style="display:inline"
       sodipodi:insensitive="true">
      <path
         style="opacity:0.41;color:#bebebe;fill:#000000;fill-opacity:1;fill-rule:nonzero;stroke:none;stroke-width:0;marker:none;visibility:visible;display:inline;overflow:visible;enable-background:accumulate"
         d="m 422,101 c -2.77,0 -5,2.23 -5,5 l 0,12 c 0,2.77 2.23,5 5,5 l 12,0 c 2.77,0 5,-2.23 5,-5 l 0,-12 c 0,-2.77 -2.23,-5 -5,-5 l -12,0 z m 0,1 12,0 c 2.2333,0 4,1.7667 4,4 l 0,12 c 0,2.2333 -1.7667,4 -4,4 l -12,0 c -2.2333,0 -4,-1.7667 -4,-4 l 0,-12 c 0,-2.2333 1.7667,-4 4,-4 z"
         id="rect4099"
         inkscape:connector-curvature="0" />
      <path
         style="opacity:0.41;color:#bebebe;fill:#000000;fill-opacity:1;fill-rule:nonzero;stroke:none;stroke-width:0;marker:none;visibility:visible;display:inline;overflow:visible;enable-background:accumulate"
         d="m 424,53 c -3.878,0 -7,3.122 -7,7 l 0,16 c 0,3.878 3.122,7 7,7 l 16,0 c 3.878,0 7,-3.122 7,-7 l 0,-16 c 0,-3.878 -3.122,-7 -7,-7 l -16,0 z m 0,1 16,0 c 3.3413,0 6,2.658703 6,6 l 0,16 c 0,3.341297 -2.6587,6 -6,6 l -16,0 c -3.3413,0 -6,-2.658703 -6,-6 l 0,-16 c 0,-3.341297 2.6587,-6 6,-6 z"
         id="rect4151"
         inkscape:connector-curvature="0" />
      <path
         style="opacity:0.41;color:#bebebe;fill:#000000;fill-opacity:1;fill-rule:nonzero;stroke:none;stroke-width:0;marker:none;visibility:visible;display:inline;overflow:visible;enable-background:accumulate"
         d="m 419,140 c -1.662,0 -3,1.338 -3,3 l 0,10 c 0,1.662 1.338,3 3,3 l 10,0 c 1.662,0 3,-1.338 3,-3 l 0,-10 c 0,-1.662 -1.338,-3 -3,-3 l -10,0 z m 0,1 10,0 c 1.1253,0 2,0.8747 2,2 l 0,10 c 0,1.1253 -0.8747,2 -2,2 l -10,0 c -1.1253,0 -2,-0.8747 -2,-2 l 0,-10 c 0,-1.1253 0.8747,-2 2,-2 z"
         id="rect4095"
         inkscape:connector-curvature="0" />
      <path
         style="opacity:0.41;color:#bebebe;fill:#000000;fill-opacity:1;fill-rule:nonzero;stroke:none;stroke-width:0;marker:none;visibility:visible;display:inline;overflow:visible;enable-background:accumulate"
         d="m 300,223 c -4.986,0 -9,4.014 -9,9 l 0,24 c 0,4.986 4.014,9 9,9 l 24,0 c 4.986,0 9,-4.014 9,-9 l 0,-24 c 0,-4.986 -4.014,-9 -9,-9 l -24,0 z m 0,1 24,0 c 4.4493,0 8,3.5507 8,8 l 0,24 c 0,4.4493 -3.5507,8 -8,8 l -24,0 c -4.4493,0 -8,-3.5507 -8,-8 l 0,-24 c 0,-4.4493 3.5507,-8 8,-8 z"
         id="rect4783"
         inkscape:connector-curvature="0" />
      <path
         style="opacity:0.41;color:#bebebe;fill:#000000;fill-opacity:1;fill-rule:nonzero;stroke:none;stroke-width:0;marker:none;visibility:visible;display:inline;overflow:visible;enable-background:accumulate"
         d="m 302.5,142 c -6.925,0 -12.5,5.575 -12.5,12.5 l 0,35 c 0,6.925 5.575,12.5 12.5,12.5 l 35,0 c 6.925,0 12.5,-5.575 12.5,-12.5 l 0,-35 c 0,-6.925 -5.575,-12.5 -12.5,-12.5 l -35,0 z m 0,1 35,0 c 6.3883,0 11.5,5.1117 11.5,11.5 l 0,35 c 0,6.3883 -5.1117,11.5 -11.5,11.5 l -35,0 c -6.3883,0 -11.5,-5.1117 -11.5,-11.5 l 0,-35 c 0,-6.3883 5.1117,-11.5 11.5,-11.5 z"
         id="rect4515"
         inkscape:connector-curvature="0" />
      <path
         style="opacity:0.41;color:#bebebe;fill:#000000;fill-opacity:1;fill-rule:nonzero;stroke:none;stroke-width:0;marker:none;visibility:visible;display:inline;overflow:visible;enable-background:accumulate"
         d="m 310,32 c -9.972,0 -18,8.028 -18,18 l 0,52 c 0,9.972 8.028,18 18,18 l 52,0 c 9.972,0 18,-8.028 18,-18 l 0,-52 c 0,-9.972 -8.028,-18 -18,-18 l -52,0 z m 0,1 52,0 c 9.4353,0 17,7.564703 17,17 l 0,52 c 0,9.4353 -7.5647,17 -17,17 l -52,0 c -9.4353,0 -17,-7.5647 -17,-17 l 0,-52 c 0,-9.435297 7.5647,-17 17,-17 z"
         id="rect4511"
         inkscape:connector-curvature="0" />
      <path
         style="opacity:0.41;color:#bebebe;fill:#000000;fill-opacity:1;fill-rule:nonzero;stroke:none;stroke-width:0;marker:none;visibility:visible;display:inline;overflow:visible;enable-background:accumulate"
         d="M 84,46 C 56.3,46 34,68.3 34,96 l 0,120 c 0,27.7 22.3,50 50,50 l 120,0 c 27.7,0 50,-22.3 50,-50 L 254,96 C 254,68.3 231.7,46 204,46 L 84,46 z m 0,1 120,0 c 27.1633,0 49,21.836703 49,49 l 0,120 c 0,27.1633 -21.8367,49 -49,49 L 84,265 C 56.836703,265 35,243.1633 35,216 L 35,96 C 35,68.836703 56.836703,47 84,47 z"
         id="rect4040"
         inkscape:connector-curvature="0" />
    </g>
  </g>
</svg>
