<?xml version="1.0" encoding="UTF-8" standalone="no"?>
<!-- Created with Inkscape (http://www.inkscape.org/) -->

<svg
   xmlns:dc="http://purl.org/dc/elements/1.1/"
   xmlns:cc="http://creativecommons.org/ns#"
   xmlns:rdf="http://www.w3.org/1999/02/22-rdf-syntax-ns#"
   xmlns:svg="http://www.w3.org/2000/svg"
   xmlns="http://www.w3.org/2000/svg"
   xmlns:xlink="http://www.w3.org/1999/xlink"
   xmlns:sodipodi="http://sodipodi.sourceforge.net/DTD/sodipodi-0.dtd"
   xmlns:inkscape="http://www.inkscape.org/namespaces/inkscape"
   inkscape:export-ydpi="90.000000"
   inkscape:export-xdpi="90.000000"
   width="480"
   height="300"
   id="svg11300"
   sodipodi:version="0.32"
   inkscape:version="0.48.4 r9939"
   sodipodi:docname="desktop-environment-unity.svg"
   inkscape:output_extension="org.inkscape.output.svg.inkscape"
   version="1.0"
   style="display:inline;enable-background:new"
   inkscape:export-filename="/home/sam/moka-next-template.png">
  <sodipodi:namedview
     stroke="#ef2929"
     fill="#f57900"
     id="base"
     pagecolor="#777777"
     bordercolor="#666666"
     borderopacity="0.25490196"
     inkscape:pageopacity="0"
     inkscape:pageshadow="2"
     inkscape:zoom="1"
     inkscape:cx="187.65027"
     inkscape:cy="67.664413"
     inkscape:current-layer="layer7"
     showgrid="false"
     inkscape:grid-bbox="true"
     inkscape:document-units="px"
     inkscape:showpageshadow="false"
     inkscape:window-width="1364"
     inkscape:window-height="700"
     inkscape:window-x="0"
     inkscape:window-y="28"
     width="400px"
     height="300px"
     inkscape:snap-nodes="true"
     inkscape:snap-bbox="true"
     gridtolerance="10000"
     inkscape:object-nodes="true"
     inkscape:snap-grids="true"
     showguides="true"
     inkscape:guide-bbox="true"
     inkscape:window-maximized="1"
     inkscape:bbox-nodes="true"
     inkscape:bbox-paths="true"
     inkscape:snap-bbox-edge-midpoints="true"
     inkscape:snap-bbox-midpoints="true">
    <inkscape:grid
       spacingy="1px"
       spacingx="1px"
       id="grid5883"
       type="xygrid"
       enabled="true"
       visible="true"
       empspacing="4"
       snapvisiblegridlinesonly="true"
       dotted="false"
       color="#000000"
       opacity="0.1254902"
       empcolor="#203ef3"
       empopacity="0.36470588" />
    <inkscape:grid
       type="xygrid"
       id="grid11592"
       empspacing="8"
       visible="true"
       enabled="false"
       spacingx="0.5px"
       spacingy="0.5px"
       color="#ff0000"
       opacity="0.1254902"
       empcolor="#ff0000"
       empopacity="0.25098039"
       snapvisiblegridlinesonly="true"
       dotted="true" />
  </sodipodi:namedview>
  <defs
     id="defs3">
    <linearGradient
       inkscape:collect="always"
       xlink:href="#outerBackgroundGradient-5"
       id="linearGradient4254"
       x1="35"
       y1="156"
       x2="253"
       y2="156"
       gradientUnits="userSpaceOnUse"
       gradientTransform="matrix(0,-1,1,0,-12,300)" />
    <linearGradient
       inkscape:collect="always"
       xlink:href="#outerBackgroundGradient-5"
       id="linearGradient4256"
       x1="417"
       y1="148"
       x2="431"
       y2="148"
       gradientUnits="userSpaceOnUse"
       gradientTransform="matrix(0,-1,1,0,276,572)" />
    <linearGradient
       inkscape:collect="always"
       xlink:href="#outerBackgroundGradient-5"
       id="linearGradient4260"
       x1="418"
       y1="68"
       x2="446"
       y2="68"
       gradientUnits="userSpaceOnUse"
       gradientTransform="matrix(0,-1,1,0,364,500)" />
    <linearGradient
       inkscape:collect="always"
       xlink:href="#outerBackgroundGradient-5"
       id="linearGradient4262"
       x1="292"
       y1="244"
       x2="332"
       y2="244"
       gradientUnits="userSpaceOnUse"
       gradientTransform="matrix(0,-1,1,0,68,556)" />
    <linearGradient
       inkscape:collect="always"
       xlink:href="#outerBackgroundGradient-5"
       id="linearGradient4264"
       x1="293"
       y1="76"
       x2="379"
       y2="76"
       gradientUnits="userSpaceOnUse"
       gradientTransform="matrix(0,-1,1,0,260,412)" />
    <linearGradient
       inkscape:collect="always"
       xlink:href="#outerBackgroundGradient-5"
       id="linearGradient4266"
       x1="291"
       y1="172"
       x2="349"
       y2="172"
       gradientUnits="userSpaceOnUse"
       gradientTransform="matrix(0,-1,1,0,148,492)" />
    <linearGradient
       inkscape:collect="always"
       xlink:href="#outerBackgroundGradient-5"
       id="linearGradient3870"
       gradientUnits="userSpaceOnUse"
       gradientTransform="matrix(0,-1,1,0,316,540)"
       x1="418"
       y1="112"
       x2="438"
       y2="112" />
    <linearGradient
       id="outerBackgroundGradient-5">
      <stop
         style="stop-color:#772953;stop-opacity:1;"
         offset="0"
         id="stop3864-8-6-47" />
      <stop
         style="stop-color:#9e4374;stop-opacity:1;"
         offset="1"
         id="stop3866-9-1-22" />
    </linearGradient>
  </defs>
  <metadata
     id="metadata4">
    <rdf:RDF>
      <cc:Work
         rdf:about="">
        <dc:format>image/svg+xml</dc:format>
        <dc:type
           rdf:resource="http://purl.org/dc/dcmitype/StillImage" />
        <dc:creator>
          <cc:Agent>
            <dc:title>Sam Hewitt</dc:title>
          </cc:Agent>
        </dc:creator>
        <dc:source />
        <cc:license
           rdf:resource="" />
        <dc:title />
        <dc:subject>
          <rdf:Bag />
        </dc:subject>
        <dc:date />
        <dc:rights>
          <cc:Agent>
            <dc:title />
          </cc:Agent>
        </dc:rights>
        <dc:publisher>
          <cc:Agent>
            <dc:title />
          </cc:Agent>
        </dc:publisher>
        <dc:identifier />
        <dc:relation />
        <dc:language />
        <dc:coverage />
        <dc:description />
        <dc:contributor>
          <cc:Agent>
            <dc:title />
          </cc:Agent>
        </dc:contributor>
      </cc:Work>
      <cc:Work
         rdf:about="">
        <dc:format>image/svg+xml</dc:format>
        <dc:type
           rdf:resource="http://purl.org/dc/dcmitype/StillImage" />
      </cc:Work>
    </rdf:RDF>
  </metadata>
  <g
     style="display:inline"
     inkscape:groupmode="layer"
     inkscape:label="Icon"
     id="layer1">
    <g
       style="display:none"
       inkscape:label="Baseplate"
       id="layer7"
       inkscape:groupmode="layer">
      <text
         y="19.745117"
         xml:space="preserve"
         x="15.006836"
         style="font-style:normal;font-variant:normal;font-weight:normal;font-stretch:normal;line-height:0%;font-family:'DejaVu Sans';-inkscape-font-specification:'DejaVu Sans';display:inline;fill:#000000;fill-opacity:1;stroke:none;enable-background:new"
         inkscape:label="context"
         id="context"><tspan
           style="font-style:normal;font-variant:normal;font-weight:normal;font-stretch:normal;font-size:18px;line-height:1.25;font-family:'DejaVu Sans';-inkscape-font-specification:'DejaVu Sans'"
           y="19.745117"
           x="15.006836"
           sodipodi:role="line"
           id="tspan3933">apps</tspan></text>
      <text
         y="19.745117"
         xml:space="preserve"
         x="122.48828"
         style="font-style:normal;font-variant:normal;font-weight:bold;font-stretch:normal;line-height:0%;font-family:'DejaVu Sans';-inkscape-font-specification:'DejaVu Sans Bold';text-align:start;writing-mode:lr-tb;text-anchor:start;display:inline;fill:#000000;fill-opacity:1;stroke:none;enable-background:new"
         inkscape:label="icon-name"
         id="icon-name"><tspan
           style="font-style:normal;font-variant:normal;font-weight:bold;font-stretch:normal;font-size:18px;line-height:1.25;font-family:'DejaVu Sans';-inkscape-font-specification:'DejaVu Sans Bold'"
           y="19.745117"
           x="122.48828"
           sodipodi:role="line"
           id="tspan3937">desktop-environment-unity</tspan></text>
      <rect
         style="fill:#eeeeec;fill-opacity:1;fill-rule:nonzero;stroke:none;stroke-width:2;marker:none;visibility:visible;display:inline;overflow:visible;enable-background:accumulate"
         id="rect16x16"
         width="16"
         height="16"
         x="416"
         y="140"
         inkscape:label="16x16" />
      <rect
         style="fill:#d4d4d4;fill-opacity:1;fill-rule:nonzero;stroke:none;stroke-width:2;marker:none;visibility:visible;display:inline;overflow:visible;enable-background:accumulate"
         id="rect24x24"
         width="24"
         height="24"
         x="416"
         y="100"
         inkscape:label="24x24" />
      <rect
         style="fill:#eeeeec;fill-opacity:1;fill-rule:nonzero;stroke:none;stroke-width:2;marker:none;visibility:visible;display:inline;overflow:visible;enable-background:accumulate"
         id="rect32x32"
         width="32"
         height="32"
         x="416"
         y="52"
         inkscape:label="32x32" />
      <rect
         inkscape:label="22x22"
         y="101"
         x="417"
         height="22"
         width="22"
         id="rect22x22"
         style="fill:#eeeeec;fill-opacity:1;fill-rule:nonzero;stroke:none;stroke-width:2;marker:none;visibility:visible;display:inline;overflow:visible;enable-background:accumulate" />
      <rect
         inkscape:label="48x48"
         y="220"
         x="288"
         height="48"
         width="48"
         id="rect48x48"
         style="fill:#eeeeec;fill-opacity:1;fill-rule:nonzero;stroke:none;stroke-width:2;marker:none;visibility:visible;display:inline;overflow:visible;enable-background:accumulate" />
      <rect
         style="fill:#eeeeec;fill-opacity:1;fill-rule:nonzero;stroke:none;stroke-width:2;marker:none;visibility:visible;display:inline;overflow:visible;enable-background:accumulate"
         id="rect256x256"
         width="256"
         height="256"
         x="16"
         y="28"
         inkscape:label="256x256" />
      <rect
         style="fill:#eeeeec;fill-opacity:1;fill-rule:nonzero;stroke:none;stroke-width:2;marker:none;visibility:visible;display:inline;overflow:visible;enable-background:accumulate"
         id="rect64x64"
         width="64"
         height="64"
         x="288"
         y="140"
         inkscape:label="64x64" />
      <rect
         style="fill:#eeeeec;fill-opacity:1;fill-rule:nonzero;stroke:none;stroke-width:2;marker:none;visibility:visible;display:inline;overflow:visible;enable-background:accumulate"
         id="rect96x96"
         width="96"
         height="96"
         x="288"
         y="28"
         inkscape:label="96x96" />
    </g>
    <g
       inkscape:groupmode="layer"
       id="layer4"
       inkscape:label="Shadow"
       style="display:inline"
       sodipodi:insensitive="true">
      <rect
         ry="50"
         y="47"
         x="34"
         height="220"
         width="220"
         id="rect4114"
         style="opacity:0.1;color:#bebebe;fill:#000000;fill-opacity:1;fill-rule:nonzero;stroke:none;stroke-width:0;marker:none;visibility:visible;display:inline;overflow:visible;enable-background:accumulate" />
      <rect
         style="opacity:0.1;color:#bebebe;fill:#000000;fill-opacity:1;fill-rule:nonzero;stroke:none;stroke-width:0;marker:none;visibility:visible;display:inline;overflow:visible;enable-background:accumulate"
         id="rect4120"
         width="30"
         height="30"
         x="417"
         y="54"
         ry="7" />
      <rect
         transform="scale(1,-1)"
         ry="9"
         y="-266"
         x="291"
         height="42"
         width="42"
         id="rect4122"
         style="opacity:0.1;color:#bebebe;fill:#000000;fill-opacity:1;fill-rule:nonzero;stroke:none;stroke-width:0;marker:none;visibility:visible;display:inline;overflow:visible;enable-background:accumulate" />
      <rect
         style="opacity:0.1;color:#bebebe;fill:#000000;fill-opacity:1;fill-rule:nonzero;stroke:none;stroke-width:0;marker:none;visibility:visible;display:inline;overflow:visible;enable-background:accumulate"
         id="rect4124"
         width="88"
         height="88"
         x="292"
         y="33"
         ry="18" />
      <rect
         ry="12.5"
         y="143"
         x="290"
         height="60"
         width="60"
         id="rect4126"
         style="opacity:0.1;color:#bebebe;fill:#000000;fill-opacity:1;fill-rule:nonzero;stroke:none;stroke-width:0;marker:none;visibility:visible;display:inline;overflow:visible;enable-background:accumulate" />
      <path
         id="path4268"
         d="m 422,101 c -2.77,0 -5,2.23 -5,5 l 0,12 c 0,2.77 2.23,5 5,5 l 12,0 c 2.77,0 5,-2.23 5,-5 l 0,-12 c 0,-2.77 -2.23,-5 -5,-5 z"
         style="opacity:0.1;color:#bebebe;fill:#000000;fill-opacity:1;fill-rule:nonzero;stroke:none;stroke-width:0;marker:none;visibility:visible;display:inline;overflow:visible;enable-background:accumulate"
         inkscape:connector-curvature="0"
         sodipodi:nodetypes="sssssssss" />
      <path
         id="path4270"
         d="m 419,140 c -1.662,0 -3,1.338 -3,3 l 0,10 c 0,1.662 1.338,3 3,3 l 10,0 c 1.662,0 3,-1.338 3,-3 l 0,-10 c 0,-1.662 -1.338,-3 -3,-3 z"
         style="opacity:0.1;color:#bebebe;fill:#000000;fill-opacity:1;fill-rule:nonzero;stroke:none;stroke-width:0;marker:none;visibility:visible;display:inline;overflow:visible;enable-background:accumulate"
         inkscape:connector-curvature="0"
         sodipodi:nodetypes="sssssssss" />
    </g>
    <g
       inkscape:groupmode="layer"
       id="layer2"
       inkscape:label="Background"
       style="display:inline">
      <path
         style="color:#bebebe;fill:url(#linearGradient4254);fill-opacity:1.0;fill-rule:nonzero;stroke:none;stroke-width:2;marker:none;visibility:visible;display:inline;overflow:visible;enable-background:accumulate"
         d="M 84 46.5 C 56.568735 46.5 34.5 68.568732 34.5 96 L 34.5 216 C 34.5 243.43127 56.568735 265.5 84 265.5 L 204 265.5 C 231.43127 265.5 253.5 243.43127 253.5 216 L 253.5 96 C 253.5 68.568732 231.43127 46.5 204 46.5 L 84 46.5 z "
         id="path4200" />
      <path
         style="color:#bebebe;fill:url(#linearGradient4256);fill-opacity:1.0;fill-rule:nonzero;stroke:none;stroke-width:2;marker:none;visibility:visible;display:inline;overflow:visible;enable-background:accumulate"
         d="M 419 140.5 C 417.6156 140.5 416.5 141.6156 416.5 143 L 416.5 153 C 416.5 154.3844 417.6156 155.5 419 155.5 L 429 155.5 C 430.3844 155.5 431.5 154.3844 431.5 153 L 431.5 143 C 431.5 141.6156 430.3844 140.5 429 140.5 L 419 140.5 z "
         id="path4202" />
      <path
         style="color:#bebebe;fill:url(#linearGradient3870);fill-opacity:1.0;fill-rule:nonzero;stroke:none;stroke-width:2;marker:none;visibility:visible;display:inline;overflow:visible;enable-background:accumulate"
         d="M 422 101.5 C 419.50301 101.5 417.5 103.50301 417.5 106 L 417.5 118 C 417.5 120.49699 419.50301 122.5 422 122.5 L 434 122.5 C 436.49699 122.5 438.5 120.49699 438.5 118 L 438.5 106 C 438.5 103.50301 436.49699 101.5 434 101.5 L 422 101.5 z "
         id="path4204" />
      <path
         style="color:#bebebe;fill:url(#linearGradient4260);fill-opacity:1.0;fill-rule:nonzero;stroke:none;stroke-width:2;marker:none;visibility:visible;display:inline;overflow:visible;enable-background:accumulate"
         d="M 424 53.5 C 420.39346 53.5 417.5 56.393464 417.5 60 L 417.5 76 C 417.5 79.606536 420.39346 82.5 424 82.5 L 440 82.5 C 443.60654 82.5 446.5 79.606536 446.5 76 L 446.5 60 C 446.5 56.393464 443.60654 53.5 440 53.5 L 424 53.5 z "
         id="path4206" />
      <path
         style="color:#bebebe;fill:url(#linearGradient4262);fill-opacity:1.0;fill-rule:nonzero;stroke:none;stroke-width:2;marker:none;visibility:visible;display:inline;overflow:visible;enable-background:accumulate"
         d="M 300 223.5 C 295.28469 223.5 291.5 227.28469 291.5 232 L 291.5 256 C 291.5 260.71531 295.28469 264.5 300 264.5 L 324 264.5 C 328.71531 264.5 332.5 260.71531 332.5 256 L 332.5 232 C 332.5 227.28469 328.71531 223.5 324 223.5 L 300 223.5 z "
         id="path4208" />
      <path
         style="color:#bebebe;fill:url(#linearGradient4264);fill-opacity:1.0;fill-rule:nonzero;stroke:none;stroke-width:2;marker:none;visibility:visible;display:inline;overflow:visible;enable-background:accumulate"
         d="M 310 32.5 C 300.29745 32.5 292.5 40.297452 292.5 50 L 292.5 102 C 292.5 111.70255 300.29745 119.5 310 119.5 L 362 119.5 C 371.70255 119.5 379.5 111.70255 379.5 102 L 379.5 50 C 379.5 40.297452 371.70255 32.5 362 32.5 L 310 32.5 z "
         id="path4210" />
      <path
         style="color:#bebebe;fill:url(#linearGradient4266);fill-opacity:1.0;fill-rule:nonzero;stroke:none;stroke-width:2;marker:none;visibility:visible;display:inline;overflow:visible;enable-background:accumulate"
         d="M 302.5 142.5 C 295.84498 142.5 290.5 147.84498 290.5 154.5 L 290.5 189.5 C 290.5 196.15502 295.84498 201.5 302.5 201.5 L 337.5 201.5 C 344.15502 201.5 349.5 196.15502 349.5 189.5 L 349.5 154.5 C 349.5 147.84498 344.15502 142.5 337.5 142.5 L 302.5 142.5 z "
         id="path4212" />
    </g>
    <g
       inkscape:groupmode="layer"
       id="layer6"
       inkscape:label="Symbols"
       style="display:inline">
      <path
         d="m 336,47 c -16.57227,0 -30,13.427728 -30,30 0,16.57227 13.42773,30 30,30 16.57227,0 30,-13.42773 30,-30 0,-2.061037 -0.19307,-4.068231 -0.58884,-6.012397 -0.30184,1.190635 -0.63221,2.328803 -0.99174,3.440083 -0.40727,1.249589 -0.8296,2.440828 -1.30165,3.533058 -0.18513,0.416528 -0.38521,0.757519 -0.58884,1.053719 -0.19438,0.305452 -0.41018,0.549419 -0.65083,0.743801 -0.24067,0.194379 -0.53132,0.34132 -0.83678,0.433885 -0.2962,0.09256 -0.61224,0.154955 -0.99173,0.154958 -0.10182,-3e-6 -0.22984,-0.01249 -0.34091,-0.03099 -0.11108,-0.0092 -0.19885,-0.03421 -0.30992,-0.06198 -0.10182,-0.01851 -0.21736,-0.03422 -0.30992,-0.06198 -0.0833,-0.02777 -0.14893,-0.04348 -0.18595,-0.06198 l 0.24794,-1.053719 c 0.10182,0.04627 0.24553,0.08695 0.40289,0.123967 0.16661,0.04628 0.30752,0.06198 0.46488,0.06198 0.50908,-2e-6 0.92172,-0.109506 1.20867,-0.340909 0.28694,-0.22215 0.54338,-0.575621 0.7748,-1.084711 -0.58314,-1.110743 -1.13348,-2.292725 -1.64257,-3.533058 -0.49983,-1.249582 -0.90644,-2.50363 -1.23967,-3.780992 l 1.36364,0 c 0.10181,0.416536 0.23306,0.851329 0.3719,1.332645 0.1481,0.481328 0.32,0.978518 0.49587,1.487603 0.17586,0.509095 0.35421,1.009508 0.55785,1.518595 0.20363,0.509094 0.42868,1.015539 0.65083,1.487604 0.35173,-0.971899 0.63958,-1.92884 0.89876,-2.882232 0.25917,-0.953383 0.51239,-1.935282 0.7438,-2.944215 l 1.1157,0 C 362.35564,57.065753 350.34715,47 336,47 z m 29.31818,23.522727 c 0.0317,0.144058 0.0634,0.289058 0.0929,0.433885 0.0375,-0.148335 0.0874,-0.28432 0.12396,-0.433885 l -0.21694,0 z m -13.91529,-3.006198 c 0.2314,10e-6 0.43149,0.05959 0.58885,0.216942 0.16661,0.148109 0.24793,0.36067 0.24793,0.619835 0,0.259183 -0.0813,0.462488 -0.24793,0.619834 -0.15736,0.148108 -0.35745,0.216952 -0.58885,0.216943 -0.23141,9e-6 -0.42223,-0.06884 -0.58884,-0.216943 -0.15736,-0.157346 -0.21694,-0.360651 -0.21694,-0.619834 0,-0.259165 0.0596,-0.471726 0.21694,-0.619835 0.16661,-0.157345 0.35743,-0.216932 0.58884,-0.216942 z m 4.1529,0.743802 0,2.262396 2.75826,0 0,1.084711 -2.75826,0 0,3.316116 c 0,0.360993 0.0375,0.658101 0.0929,0.89876 0.0555,0.231407 0.13686,0.419009 0.24793,0.557851 0.11108,0.129588 0.26728,0.22339 0.43389,0.278926 0.16661,0.05554 0.3357,0.09297 0.55785,0.09297 0.38876,10e-7 0.69834,-0.04066 0.92975,-0.123967 0.24066,-0.09256 0.4033,-0.179916 0.49587,-0.216942 l 0.27898,1.084711 c -0.12959,0.06479 -0.35786,0.155372 -0.68182,0.247934 -0.32397,0.101818 -0.69918,0.123967 -1.11571,0.123967 -0.49058,0 -0.9157,-0.03463 -1.23966,-0.154959 -0.31472,-0.129587 -0.54943,-0.338926 -0.74381,-0.588843 -0.19438,-0.249916 -0.35058,-0.537768 -0.43388,-0.89876 -0.0741,-0.370246 -0.0929,-0.789337 -0.0929,-1.270662 l 0,-6.446281 1.27066,-0.247933 z m -38.61571,1.890495 5.14463,0 0,15.123967 c -10e-6,3.517367 0.5628,6.012987 1.67355,7.530997 1.11074,1.51801 2.98074,2.29338 5.60951,2.29338 0.55535,0 1.14312,-0.025 1.73554,-0.062 0.59237,-0.037 1.15518,-0.087 1.67355,-0.12397 0.51833,-0.0741 0.95634,-0.11792 1.36364,-0.15496 0.44427,-0.0741 0.77559,-0.14288 0.96074,-0.21694 l 0,-24.390494 5.14463,0 0,28.047524 c -1.18482,0.2962 -2.74846,0.62752 -4.71075,0.96074 -1.9253,0.33322 -4.17051,0.49587 -6.7252,0.49587 -2.2215,0 -4.0915,-0.33132 -5.60951,-0.96075 -1.51803,-0.66644 -2.73141,-1.57346 -3.65702,-2.75826 -0.92563,-1.18479 -1.57621,-2.59181 -1.98347,-4.18388 -0.40728,-1.62909 -0.61984,-3.43024 -0.61984,-5.392566 l 0,-16.208678 z m 28.69835,0.216943 c 0.57388,7e-6 1.04611,0.08133 1.42562,0.247933 0.3795,0.157363 0.6766,0.385627 0.89876,0.681819 0.2314,0.286948 0.4033,0.61546 0.49587,1.022727 0.0925,0.407278 0.12395,0.873062 0.12396,1.363636 l 0,4.059918 -1.30165,0 0,-3.780992 c -10e-6,-0.444294 -0.0282,-0.831979 -0.0929,-1.146694 -0.0556,-0.314706 -0.14015,-0.580408 -0.27898,-0.774794 -0.13884,-0.194374 -0.32645,-0.319581 -0.55785,-0.402892 -0.23141,-0.09256 -0.52529,-0.154953 -0.86777,-0.154959 -0.13884,6e-6 -0.28579,0.02174 -0.43388,0.03099 -0.14811,0.0092 -0.29504,0.01249 -0.43389,0.03099 -0.12959,0.0092 -0.22983,0.04348 -0.34091,0.06198 -0.10182,0.01852 -0.17066,0.02174 -0.21694,0.03099 l 0,6.105372 -1.30165,0 0,-7.035124 c 0.2962,-0.07404 0.6871,-0.13363 1.17768,-0.216942 0.49058,-0.0833 1.06587,-0.12396 1.70455,-0.123967 z m 5.14463,0.154958 1.30165,0 0,7.221075 -1.30165,0 0,-7.221075 z"
         id="path4027"
         style="opacity:0.2;fill:#000000;fill-opacity:1;stroke:none;display:inline;enable-background:new"
         inkscape:connector-curvature="0" />
      <path
         inkscape:connector-curvature="0"
         style="opacity:0.2;fill:#000000;fill-opacity:1;stroke:none;display:inline;enable-background:new"
         id="path4029"
         d="m 144,77 c -44.19272,0 -80,35.80728 -80,80 0,44.19272 35.80728,80 80,80 44.19272,0 80,-35.80728 80,-80 0,-5.4961 -0.51485,-10.84862 -1.57024,-16.03306 -0.80491,3.17503 -1.68589,6.21014 -2.64464,9.17356 -1.08605,3.33223 -2.21227,6.50887 -3.47107,9.42148 -0.49368,1.11075 -1.02722,2.02005 -1.57024,2.80992 -0.51834,0.81454 -1.09381,1.46512 -1.73554,1.98347 -0.64179,0.51834 -1.41686,0.91019 -2.23142,1.15703 -0.78986,0.24682 -1.63264,0.41321 -2.64461,0.41322 -0.27152,-1e-5 -0.61291,-0.0333 -0.90909,-0.0826 -0.29622,-0.0245 -0.53027,-0.0912 -0.82646,-0.16528 -0.27152,-0.0494 -0.57962,-0.0912 -0.82645,-0.16528 -0.22213,-0.074 -0.39715,-0.11595 -0.49587,-0.16528 l 0.66118,-2.80992 c 0.27152,0.12339 0.65474,0.23187 1.07437,0.33058 0.44429,0.12341 0.82005,0.16528 1.23968,0.16528 1.35755,-1e-5 2.45792,-0.29202 3.22312,-0.90909 0.76517,-0.5924 1.44901,-1.53499 2.06613,-2.89256 -1.55504,-2.96199 -3.02261,-6.11394 -4.38018,-9.42149 -1.33288,-3.33222 -2.41718,-6.67635 -3.30579,-10.08265 l 3.63637,0 c 0.2715,1.11077 0.6215,2.27021 0.99174,3.55372 0.39493,1.28354 0.85333,2.60938 1.32232,3.96694 0.46896,1.35759 0.94456,2.69203 1.4876,4.04959 0.54301,1.35758 1.14314,2.7081 1.73554,3.96694 0.93795,-2.59173 1.70555,-5.14357 2.3967,-7.68595 0.69112,-2.54235 1.36637,-5.16075 1.98346,-7.85124 l 2.9752,0 C 214.28171,103.84201 182.25907,77 144,77 z m 78.18181,62.72727 c 0.0845,0.38416 0.16907,0.77082 0.24774,1.15703 0.1,-0.39556 0.23306,-0.75819 0.33056,-1.15703 l -0.57851,0 z m -37.10744,-8.01653 c 0.61707,3e-5 1.15064,0.15891 1.57027,0.57852 0.44429,0.39495 0.66115,0.96178 0.66115,1.65289 0,0.69115 -0.2168,1.2333 -0.66115,1.65289 -0.41963,0.39495 -0.9532,0.57854 -1.57027,0.57851 -0.61709,3e-5 -1.12594,-0.18357 -1.57024,-0.57851 -0.41962,-0.41959 -0.5785,-0.96174 -0.5785,-1.65289 0,-0.69111 0.15893,-1.25794 0.5785,-1.65289 0.4443,-0.41959 0.95315,-0.57849 1.57024,-0.57852 z m 11.0744,1.98348 0,6.03305 7.35536,0 0,2.89256 -7.35536,0 0,8.84298 c 0,0.96265 0.1,1.75494 0.24774,2.39669 0.148,0.61709 0.36496,1.11736 0.66114,1.48761 0.29622,0.34556 0.71275,0.5957 1.15704,0.7438 0.4443,0.14811 0.8952,0.24792 1.4876,0.24792 1.0367,0 1.86224,-0.10843 2.47934,-0.33058 0.64176,-0.24683 1.07546,-0.47978 1.32232,-0.57851 l 0.74394,2.89256 c -0.34557,0.17277 -0.95429,0.41433 -1.81818,0.66116 -0.86392,0.27151 -1.86448,0.33058 -2.97523,0.33058 -1.30821,0 -2.44187,-0.0924 -3.30576,-0.41323 -0.83925,-0.34556 -1.46515,-0.9038 -1.98349,-1.57025 -0.51835,-0.66644 -0.93488,-1.43404 -1.15702,-2.39669 -0.1976,-0.98732 -0.24773,-2.1049 -0.24773,-3.38843 l 0,-17.19008 3.38843,-0.66116 z m -102.97522,5.04132 13.71901,0 0,40.33057 c -3e-5,9.37965 1.5008,16.03464 4.4628,20.08266 2.96197,4.04803 7.94864,6.11568 14.95869,6.11568 1.48094,0 3.04832,-0.0667 4.62811,-0.16533 1.57965,-0.0987 3.08048,-0.232 4.4628,-0.33059 1.38221,-0.1976 2.55024,-0.31445 3.63637,-0.41322 1.18472,-0.1976 2.06824,-0.38102 2.56198,-0.57851 l 0,-65.04132 13.71901,0 0,74.7934 c -3.15952,0.78987 -7.32923,1.67339 -12.562,2.56197 -5.13413,0.88859 -11.12136,1.32232 -17.93387,1.32232 -5.924,0 -10.91066,-0.88352 -14.95869,-2.562 -4.04808,-1.77717 -7.28376,-4.19589 -9.75205,-7.35536 -2.46835,-3.15944 -4.20323,-6.91149 -5.28926,-11.15701 -1.08608,-4.34424 -1.6529,-9.14731 -1.6529,-14.38018 l 0,-43.22314 z m 76.52893,0.57851 c 1.53035,2e-5 2.78963,0.21688 3.80165,0.66116 1.012,0.41963 1.80427,1.02833 2.3967,1.81818 0.61706,0.76519 1.07546,1.64123 1.32232,2.72727 0.24666,1.08608 0.33053,2.32817 0.33056,3.63636 l 0,10.82645 -3.47107,0 0,-10.08264 c -3e-5,-1.18479 -0.0752,-2.21861 -0.24773,-3.05785 -0.14827,-0.83922 -0.37374,-1.54776 -0.74395,-2.06612 -0.37024,-0.51833 -0.87053,-0.85222 -1.4876,-1.07438 -0.61709,-0.24683 -1.40077,-0.41321 -2.31405,-0.41322 -0.37024,10e-6 -0.76211,0.058 -1.15702,0.0826 -0.39496,0.0245 -0.78677,0.0333 -1.15704,0.0826 -0.34557,0.0245 -0.61288,0.11594 -0.90909,0.16528 -0.27152,0.0494 -0.45509,0.058 -0.57851,0.0826 l 0,16.28099 -3.47106,0 0,-18.76033 c 0.78986,-0.19744 1.83226,-0.35635 3.14048,-0.57851 1.30821,-0.22214 2.84232,-0.33056 4.54546,-0.33058 z m 13.71901,0.41322 3.47107,0 0,19.2562 -3.47107,0 0,-19.2562 z" />
      <path
         inkscape:connector-curvature="0"
         style="opacity:0.2;fill:#000000;fill-opacity:1;stroke:none;display:inline;enable-background:new"
         id="path4031"
         d="m 320,153 c -11.04818,0 -20,8.95182 -20,20 0,11.04818 8.95182,20 20,20 11.04818,0 20,-8.95182 20,-20 0,-1.37403 -0.12871,-2.71215 -0.39256,-4.00827 -0.20123,0.79376 -0.42147,1.55254 -0.66116,2.29339 -0.27151,0.83306 -0.55307,1.62722 -0.86777,2.35538 -0.12342,0.27768 -0.2568,0.50501 -0.39256,0.70248 -0.12958,0.20363 -0.27345,0.36628 -0.43388,0.49586 -0.16045,0.12959 -0.35422,0.22755 -0.55786,0.28926 -0.19746,0.0617 -0.40816,0.1033 -0.66115,0.1033 -0.0679,0 -0.15323,-0.008 -0.22727,-0.0207 -0.0741,-0.006 -0.13257,-0.0228 -0.20662,-0.0413 -0.0679,-0.0123 -0.1449,-0.0228 -0.20661,-0.0413 -0.0555,-0.0185 -0.0993,-0.029 -0.12397,-0.0413 l 0.1653,-0.70249 c 0.0679,0.0309 0.16368,0.058 0.26859,0.0826 0.11107,0.0309 0.20501,0.0413 0.30992,0.0413 0.33939,0 0.61448,-0.073 0.80578,-0.22727 0.19129,-0.1481 0.36225,-0.38375 0.51653,-0.72314 -0.38876,-0.74049 -0.75565,-1.52848 -1.09504,-2.35537 -0.33322,-0.83306 -0.6043,-1.66909 -0.82645,-2.52066 l 0.90909,0 c 0.0679,0.27769 0.15538,0.56755 0.24794,0.88843 0.0987,0.32088 0.21333,0.65234 0.33058,0.99173 0.11724,0.3394 0.23614,0.67301 0.3719,1.0124 0.13575,0.3394 0.28578,0.67703 0.43388,0.99174 0.23449,-0.64794 0.42639,-1.2859 0.59918,-1.92149 0.17278,-0.63559 0.34159,-1.29019 0.49586,-1.96281 l 0.7438,0 C 337.57043,159.7105 329.56477,153 320,153 z m 19.54545,15.68182 c 0.0211,0.096 0.0423,0.1927 0.0619,0.28925 0.025,-0.0989 0.0583,-0.18954 0.0826,-0.28925 l -0.14463,0 z m -9.27686,-2.00413 c 0.15427,0 0.28766,0.0397 0.39257,0.14462 0.11107,0.0987 0.16529,0.24045 0.16529,0.41323 0,0.17279 -0.0542,0.30832 -0.16529,0.41322 -0.10491,0.0987 -0.2383,0.14463 -0.39257,0.14463 -0.15427,0 -0.28148,-0.0459 -0.39256,-0.14463 -0.1049,-0.1049 -0.14462,-0.24043 -0.14462,-0.41322 0,-0.17278 0.0397,-0.31449 0.14462,-0.41323 0.11108,-0.10489 0.23829,-0.14462 0.39256,-0.14462 z m 2.7686,0.49586 0,1.50827 1.83884,0 0,0.72314 -1.83884,0 0,2.21074 c 0,0.24066 0.025,0.43874 0.0619,0.59918 0.037,0.15427 0.0912,0.27933 0.16528,0.3719 0.0741,0.0864 0.17819,0.14892 0.28926,0.18595 0.11108,0.037 0.2238,0.062 0.3719,0.062 0.25918,0 0.46556,-0.0271 0.61984,-0.0826 0.16044,-0.0617 0.26886,-0.11995 0.33058,-0.14463 l 0.18598,0.72314 c -0.0864,0.0432 -0.23857,0.10358 -0.45454,0.16529 -0.21598,0.0679 -0.46612,0.0826 -0.74381,0.0826 -0.32705,0 -0.61047,-0.0231 -0.82644,-0.10331 -0.20981,-0.0864 -0.36629,-0.22595 -0.49587,-0.39256 -0.12959,-0.16661 -0.23372,-0.35851 -0.28926,-0.59917 -0.0494,-0.24683 -0.0619,-0.52623 -0.0619,-0.84711 l 0,-4.29752 0.84711,-0.16529 z m -25.7438,1.26033 3.42975,0 0,10.08265 c -10e-6,2.34491 0.3752,4.00866 1.1157,5.02066 0.74049,1.01201 1.98716,1.52892 3.73967,1.52892 0.37024,0 0.76208,-0.0167 1.15703,-0.0413 0.39491,-0.0247 0.77012,-0.058 1.1157,-0.0827 0.34555,-0.0494 0.63756,-0.0786 0.90909,-0.1033 0.29618,-0.0494 0.51706,-0.0952 0.6405,-0.14463 l 0,-16.26033 3.42975,0 0,18.69835 c -0.78988,0.19747 -1.83231,0.41835 -3.1405,0.64049 -1.28353,0.22215 -2.78034,0.33058 -4.48347,0.33058 -1.481,0 -2.72766,-0.22088 -3.73967,-0.6405 -1.01202,-0.44429 -1.82094,-1.04897 -2.43801,-1.83884 -0.61709,-0.78986 -1.05081,-1.72787 -1.32232,-2.78925 -0.27152,-1.08606 -0.41322,-2.28683 -0.41322,-3.59504 l 0,-10.80579 z m 19.13223,0.14463 c 0.38259,1e-5 0.69741,0.0542 0.95041,0.16529 0.253,0.10491 0.45107,0.25709 0.59918,0.45455 0.15426,0.1913 0.26886,0.4103 0.33058,0.68181 0.0617,0.27152 0.0826,0.58205 0.0826,0.9091 l 0,2.70661 -0.86777,0 0,-2.52066 c -1e-5,-0.2962 -0.0188,-0.55466 -0.0619,-0.76447 -0.0371,-0.2098 -0.0934,-0.38694 -0.18599,-0.51653 -0.0926,-0.12958 -0.21763,-0.21305 -0.3719,-0.26859 -0.15427,-0.0617 -0.35019,-0.1033 -0.57851,-0.10331 -0.0926,1e-5 -0.19053,0.0145 -0.28926,0.0207 -0.0987,0.006 -0.19669,0.008 -0.28926,0.0207 -0.0864,0.006 -0.15322,0.029 -0.22727,0.0413 -0.0679,0.0123 -0.11377,0.0145 -0.14463,0.0207 l 0,4.07025 -0.86776,0 0,-4.69008 c 0.19746,-0.0494 0.45806,-0.0891 0.78512,-0.14463 0.32705,-0.0555 0.71058,-0.0826 1.13636,-0.0826 z m 3.42975,0.10331 0.86777,0 0,4.81405 -0.86777,0 0,-4.81405 z" />
      <path
         d="m 312,231 c -7.73373,0 -14,6.26627 -14,14 0,7.73373 6.26627,14 14,14 7.73373,0 14,-6.26627 14,-14 0,-0.96182 -0.0901,-1.89851 -0.27479,-2.80579 -0.14086,0.55563 -0.29503,1.08678 -0.46281,1.60537 -0.19006,0.58315 -0.38715,1.13906 -0.60744,1.64877 -0.0864,0.19438 -0.17976,0.35351 -0.2748,0.49174 -0.0907,0.14254 -0.19141,0.25639 -0.30371,0.3471 -0.11232,0.0907 -0.24796,0.15928 -0.3905,0.20248 -0.13822,0.0432 -0.28572,0.0723 -0.46281,0.0723 -0.0475,0 -0.10726,-0.006 -0.15909,-0.0145 -0.0519,-0.004 -0.0928,-0.016 -0.14463,-0.0289 -0.0475,-0.009 -0.10143,-0.016 -0.14463,-0.0289 -0.0388,-0.0129 -0.0695,-0.0203 -0.0868,-0.0289 l 0.11571,-0.49174 c 0.0475,0.0216 0.11458,0.0406 0.18802,0.0578 0.0777,0.0216 0.1435,0.0289 0.21694,0.0289 0.23757,0 0.43014,-0.0511 0.56405,-0.15909 0.1339,-0.10367 0.25357,-0.26863 0.36157,-0.5062 -0.27214,-0.51834 -0.52896,-1.06994 -0.76653,-1.64876 -0.23325,-0.58314 -0.42301,-1.16836 -0.57852,-1.76446 l 0.63637,0 c 0.0475,0.19438 0.10876,0.39728 0.17355,0.6219 0.0691,0.22462 0.14934,0.45664 0.23141,0.69421 0.0821,0.23758 0.1653,0.47111 0.26033,0.70868 0.095,0.23758 0.20005,0.47392 0.30372,0.69422 0.16414,-0.45356 0.29847,-0.90013 0.41942,-1.34504 0.12095,-0.44492 0.23912,-0.90314 0.3471,-1.37397 l 0.52067,0 C 324.2993,235.69735 318.69534,231 312,231 z m 13.68182,10.97727 c 0.0148,0.0672 0.0296,0.13489 0.0433,0.20248 0.0175,-0.0692 0.0408,-0.13268 0.0578,-0.20248 l -0.10124,0 z m -6.49381,-1.40289 c 0.10799,0 0.20136,0.0278 0.2748,0.10124 0.0778,0.0691 0.11571,0.16831 0.11571,0.28926 0,0.12095 -0.038,0.21582 -0.11571,0.28925 -0.0734,0.0691 -0.16681,0.10124 -0.2748,0.10124 -0.10799,0 -0.19703,-0.0321 -0.27479,-0.10124 -0.0734,-0.0734 -0.10123,-0.1683 -0.10123,-0.28925 0,-0.12095 0.0278,-0.22015 0.10123,-0.28926 0.0778,-0.0734 0.1668,-0.10124 0.27479,-0.10124 z m 1.93802,0.3471 0,1.05579 1.28719,0 0,0.5062 -1.28719,0 0,1.54752 c 0,0.16846 0.0175,0.30712 0.0433,0.41943 0.0259,0.10798 0.0638,0.19553 0.1157,0.26033 0.0519,0.0605 0.12473,0.10424 0.20248,0.13016 0.0778,0.0259 0.15666,0.0434 0.26033,0.0434 0.18143,0 0.32589,-0.019 0.43389,-0.0578 0.11231,-0.0432 0.1882,-0.084 0.2314,-0.10124 l 0.13019,0.5062 c -0.0605,0.0302 -0.167,0.0725 -0.31818,0.1157 -0.15118,0.0475 -0.32628,0.0578 -0.52066,0.0578 -0.22894,0 -0.42733,-0.0162 -0.57851,-0.0723 -0.14687,-0.0605 -0.25641,-0.15816 -0.34711,-0.27479 -0.0907,-0.11663 -0.16361,-0.25096 -0.20248,-0.41942 -0.0346,-0.17278 -0.0433,-0.36836 -0.0433,-0.59297 l 0,-3.00827 0.59297,-0.1157 z m -18.02066,0.88224 2.40083,0 0,7.05785 c -10e-6,1.64144 0.26264,2.80606 0.78099,3.51446 0.51834,0.70841 1.39101,1.07025 2.61777,1.07025 0.25917,0 0.53345,-0.0117 0.80992,-0.0289 0.27643,-0.0173 0.53908,-0.0406 0.78099,-0.0579 0.24188,-0.0346 0.44629,-0.055 0.63636,-0.0723 0.20733,-0.0346 0.36194,-0.0666 0.44835,-0.10124 l 0,-11.38224 2.40083,0 0,13.08885 c -0.55292,0.13823 -1.28262,0.29284 -2.19835,0.44834 -0.89847,0.15551 -1.94624,0.23141 -3.13843,0.23141 -1.0367,0 -1.90936,-0.15462 -2.61777,-0.44835 -0.70842,-0.311 -1.27466,-0.73428 -1.70661,-1.28719 -0.43196,-0.5529 -0.73557,-1.20951 -0.92562,-1.95247 -0.19007,-0.76025 -0.28926,-1.60079 -0.28926,-2.51653 l 0,-7.56406 z m 13.39256,0.10124 c 0.26782,0 0.48819,0.0379 0.66529,0.1157 0.1771,0.0734 0.31575,0.17996 0.41943,0.31818 0.10798,0.13391 0.1882,0.28721 0.2314,0.47727 0.0432,0.19007 0.0578,0.40744 0.0578,0.63637 l 0,1.89463 -0.60744,0 0,-1.76446 c 0,-0.20734 -0.0132,-0.38827 -0.0433,-0.53513 -0.026,-0.14686 -0.0654,-0.27086 -0.13019,-0.36157 -0.0648,-0.0907 -0.15234,-0.14914 -0.26033,-0.18802 -0.10799,-0.0432 -0.24513,-0.0723 -0.40496,-0.0723 -0.0648,0 -0.13337,0.0101 -0.20248,0.0145 -0.0691,0.004 -0.13768,0.006 -0.20248,0.0145 -0.0605,0.004 -0.10725,0.0203 -0.15909,0.0289 -0.0475,0.009 -0.0796,0.0102 -0.10124,0.0145 l 0,2.84917 -0.60743,0 0,-3.28305 c 0.13822,-0.0346 0.32064,-0.0624 0.54958,-0.10124 0.22894,-0.0389 0.49741,-0.0578 0.79545,-0.0578 z m 2.40083,0.0723 0.60744,0 0,3.36984 -0.60744,0 0,-3.36984 z"
         id="path4033"
         style="opacity:0.2;fill:#000000;fill-opacity:1;stroke:none;display:inline;enable-background:new"
         inkscape:connector-curvature="0" />
      <path
         inkscape:connector-curvature="0"
         style="opacity:0.2;fill:#000000;fill-opacity:1;stroke:none;display:inline;enable-background:new"
         id="path4035"
         d="m 432,59 c -5.52409,0 -10,4.475909 -10,10 0,5.52409 4.47591,10 10,10 5.52409,0 10,-4.47591 10,-10 0,-0.687012 -0.0644,-1.356077 -0.19628,-2.004132 -0.10061,0.396878 -0.21074,0.776267 -0.33058,1.146694 -0.13576,0.41653 -0.27653,0.813609 -0.43388,1.177686 -0.0617,0.138843 -0.12841,0.252506 -0.19628,0.35124 -0.0648,0.101817 -0.13673,0.183139 -0.21695,0.247933 -0.0802,0.06479 -0.1771,0.113774 -0.27892,0.144629 -0.0987,0.03085 -0.20408,0.05165 -0.33058,0.05165 -0.0339,-10e-7 -0.0766,-0.0042 -0.11364,-0.01033 -0.037,-0.0031 -0.0663,-0.0114 -0.1033,-0.02066 -0.0339,-0.0062 -0.0725,-0.01141 -0.10331,-0.02066 -0.0278,-0.0093 -0.0496,-0.01449 -0.062,-0.02066 l 0.0826,-0.351239 c 0.0339,0.01542 0.0818,0.02898 0.1343,0.04132 0.0555,0.01543 0.10251,0.02066 0.15496,0.02066 0.16969,-10e-7 0.30724,-0.0365 0.40289,-0.113636 0.0957,-0.07405 0.18113,-0.191874 0.25827,-0.361571 -0.19438,-0.370247 -0.37783,-0.764241 -0.54753,-1.177686 -0.16661,-0.416527 -0.30214,-0.834543 -0.41322,-1.26033 l 0.45455,0 c 0.0339,0.138845 0.0777,0.283776 0.12396,0.444215 0.0494,0.160442 0.10667,0.326172 0.16529,0.495867 0.0586,0.169699 0.11807,0.336503 0.18595,0.506199 0.0679,0.169698 0.1429,0.338513 0.21695,0.495868 0.11724,-0.323967 0.21319,-0.642947 0.29958,-0.960744 0.0864,-0.317795 0.1708,-0.645094 0.24794,-0.981405 l 0.3719,0 C 440.78521,62.355251 436.78238,59 432,59 z m 9.77273,7.840909 c 0.0106,0.04802 0.0211,0.09635 0.031,0.144628 0.0125,-0.04944 0.0291,-0.09477 0.0413,-0.144628 l -0.0723,0 z m -4.63843,-1.002066 c 0.0771,3e-6 0.14383,0.01986 0.19628,0.07231 0.0555,0.04937 0.0826,0.120223 0.0826,0.206612 0,0.08639 -0.0271,0.154162 -0.0826,0.206611 -0.0525,0.04937 -0.11915,0.07232 -0.19628,0.07231 -0.0771,3e-6 -0.14075,-0.02295 -0.19628,-0.07231 -0.0525,-0.05245 -0.0723,-0.120217 -0.0723,-0.206611 0,-0.08639 0.0199,-0.157242 0.0723,-0.206612 0.0555,-0.05245 0.11914,-0.07231 0.19628,-0.07231 z m 1.3843,0.247934 0,0.754132 0.91942,0 0,0.36157 -0.91942,0 0,1.105372 c 0,0.120331 0.0125,0.219367 0.031,0.299587 0.0185,0.07714 0.0456,0.13967 0.0827,0.18595 0.037,0.0432 0.0891,0.07446 0.14463,0.09298 0.0555,0.01851 0.1119,0.03099 0.18595,0.03099 0.12958,0 0.23278,-0.01355 0.30991,-0.04132 0.0802,-0.03085 0.13444,-0.05997 0.16529,-0.07231 l 0.093,0.361571 c -0.0432,0.0216 -0.11929,0.05179 -0.22728,0.08264 -0.10799,0.03394 -0.23306,0.04132 -0.3719,0.04132 -0.16353,0 -0.30523,-0.01154 -0.41322,-0.05165 -0.10491,-0.0432 -0.18314,-0.112976 -0.24794,-0.196281 -0.0648,-0.08331 -0.11686,-0.179256 -0.14462,-0.299587 -0.0247,-0.123415 -0.031,-0.263112 -0.031,-0.423554 l 0,-2.14876 0.42355,-0.08264 z m -12.87191,0.630165 1.71488,0 0,5.041322 c 0,1.172456 0.1876,2.004326 0.55785,2.510336 0.37025,0.506 0.99358,0.76446 1.86984,0.76446 0.18511,0 0.38104,-0.008 0.57851,-0.0207 0.19746,-0.0123 0.38506,-0.029 0.55785,-0.0413 0.17278,-0.0247 0.31878,-0.0393 0.45455,-0.0517 0.14809,-0.0247 0.25853,-0.0476 0.32024,-0.0723 l 0,-8.130165 1.71488,0 0,9.349175 c -0.39494,0.0987 -0.91615,0.20917 -1.57025,0.32025 -0.64177,0.11107 -1.39017,0.16529 -2.24173,0.16529 -0.7405,0 -1.36384,-0.11044 -1.86984,-0.32025 -0.50601,-0.22215 -0.91047,-0.52449 -1.21901,-0.91942 -0.30854,-0.39493 -0.5254,-0.86394 -0.66115,-1.39463 -0.13576,-0.54303 -0.20662,-1.143413 -0.20662,-1.797522 l 0,-5.402893 z m 9.56612,0.07231 c 0.19129,3e-6 0.3487,0.02711 0.47521,0.08264 0.1265,0.05245 0.22553,0.128542 0.29958,0.227273 0.0771,0.09565 0.13444,0.205153 0.16529,0.340909 0.0308,0.135759 0.0413,0.29102 0.0413,0.454545 l 0,1.353306 -0.43388,0 0,-1.260331 c 0,-0.148098 -0.009,-0.277326 -0.031,-0.382231 -0.0185,-0.104902 -0.0467,-0.193469 -0.093,-0.258265 -0.0463,-0.06479 -0.10882,-0.106527 -0.18595,-0.134297 -0.0771,-0.03085 -0.1751,-0.05165 -0.28926,-0.05165 -0.0463,2e-6 -0.0953,0.0072 -0.14462,0.01033 -0.0494,0.0031 -0.0984,0.0042 -0.14463,0.01033 -0.0432,0.0031 -0.0766,0.01449 -0.11364,0.02066 -0.0339,0.0062 -0.0569,0.0072 -0.0723,0.01033 l 0,2.035124 -0.43389,0 0,-2.345041 c 0.0987,-0.02468 0.22904,-0.04454 0.39256,-0.07231 0.16353,-0.02777 0.35529,-0.04132 0.56819,-0.04132 z m 1.71488,0.05165 0.43388,0 0,2.407025 -0.43388,0 0,-2.407025 z" />
      <path
         d="m 428,106 c -3.86686,0 -7,3.13314 -7,7 0,3.86686 3.13314,7 7,7 3.86686,0 7,-3.13314 7,-7 0,-0.48091 -0.0451,-0.94925 -0.1374,-1.40289 -0.0704,0.27781 -0.14751,0.54338 -0.2314,0.80268 -0.095,0.29157 -0.19357,0.56953 -0.30372,0.82438 -0.0432,0.0972 -0.0899,0.17676 -0.13739,0.24587 -0.0454,0.0713 -0.0957,0.1282 -0.15187,0.17356 -0.0561,0.0453 -0.12397,0.0796 -0.19524,0.10124 -0.0691,0.0216 -0.14286,0.0362 -0.23141,0.0362 -0.0237,-1e-5 -0.0536,-0.003 -0.0795,-0.007 -0.0259,-0.002 -0.0464,-0.008 -0.0723,-0.0145 -0.0237,-0.004 -0.0507,-0.008 -0.0723,-0.0145 -0.0195,-0.006 -0.0347,-0.0101 -0.0434,-0.0145 l 0.0578,-0.24587 c 0.0237,0.0108 0.0573,0.0203 0.094,0.0289 0.0388,0.0108 0.0718,0.0145 0.10847,0.0145 0.11878,0 0.21507,-0.0255 0.28202,-0.0795 0.067,-0.0518 0.12679,-0.13431 0.18079,-0.2531 -0.13607,-0.25917 -0.26448,-0.53497 -0.38327,-0.82438 -0.11663,-0.29157 -0.2115,-0.58418 -0.28926,-0.88223 l 0.31819,0 c 0.0237,0.0972 0.0544,0.19864 0.0868,0.31095 0.0346,0.11231 0.0747,0.22832 0.11571,0.3471 0.041,0.11879 0.0826,0.23556 0.13016,0.35434 0.0475,0.11879 0.10003,0.23696 0.15186,0.34711 0.0821,-0.22678 0.14924,-0.45006 0.20971,-0.67252 0.0605,-0.22246 0.11956,-0.45157 0.17356,-0.68698 l 0.26033,0 C 434.14965,108.34868 431.34767,106 428,106 z m 6.84091,5.48864 c 0.007,0.0336 0.0148,0.0674 0.0217,0.10124 0.009,-0.0346 0.0204,-0.0663 0.0289,-0.10124 l -0.0506,0 z m -3.2469,-0.70145 c 0.054,0 0.10068,0.0139 0.1374,0.0506 0.0389,0.0346 0.0578,0.0842 0.0578,0.14463 0,0.0605 -0.019,0.10791 -0.0578,0.14463 -0.0367,0.0346 -0.0834,0.0506 -0.1374,0.0506 -0.054,0 -0.0985,-0.0161 -0.1374,-0.0506 -0.0367,-0.0367 -0.0506,-0.0842 -0.0506,-0.14463 0,-0.0605 0.0139,-0.11007 0.0506,-0.14463 0.0388,-0.0367 0.0834,-0.0506 0.1374,-0.0506 z m 0.96901,0.17355 0,0.5279 0.64359,0 0,0.25309 -0.64359,0 0,0.77377 c 0,0.0842 0.009,0.15355 0.0217,0.20971 0.0129,0.054 0.0319,0.0978 0.0579,0.13016 0.0259,0.0302 0.0624,0.0521 0.10124,0.0651 0.0388,0.013 0.0783,0.0217 0.13017,0.0217 0.0907,0 0.16294,-0.01 0.21693,-0.0289 0.0561,-0.0216 0.0941,-0.042 0.11571,-0.0506 l 0.0651,0.2531 c -0.0302,0.0151 -0.0835,0.0362 -0.1591,0.0578 -0.0756,0.0238 -0.16314,0.0289 -0.26033,0.0289 -0.11447,0 -0.21366,-0.008 -0.28925,-0.0362 -0.0734,-0.0302 -0.1282,-0.0791 -0.17356,-0.13739 -0.0454,-0.0583 -0.0818,-0.12548 -0.10124,-0.20972 -0.0173,-0.0864 -0.0217,-0.18417 -0.0217,-0.29648 l 0,-1.50414 0.29649,-0.0579 z m -9.01034,0.44112 1.20042,0 0,3.52892 c 0,0.82072 0.13132,1.40303 0.39049,1.75724 0.25918,0.3542 0.69551,0.53512 1.30889,0.53512 0.12958,0 0.26673,-0.006 0.40496,-0.0145 0.13822,-0.009 0.26954,-0.0203 0.39049,-0.0289 0.12095,-0.0173 0.22315,-0.0275 0.31819,-0.0362 0.10366,-0.0173 0.18097,-0.0333 0.22417,-0.0506 l 0,-5.69111 1.20041,0 0,6.54442 c -0.27646,0.0691 -0.6413,0.14642 -1.09917,0.22417 -0.44924,0.0778 -0.97312,0.11571 -1.56921,0.11571 -0.51835,0 -0.95469,-0.0773 -1.30889,-0.22418 -0.35421,-0.1555 -0.63733,-0.36714 -0.85331,-0.64359 -0.21598,-0.27645 -0.36778,-0.60476 -0.4628,-0.97624 -0.095,-0.38012 -0.14464,-0.80039 -0.14464,-1.25827 l 0,-3.78202 z m 6.69629,0.0506 c 0.1339,0 0.24409,0.019 0.33264,0.0579 0.0885,0.0367 0.15788,0.09 0.20971,0.15909 0.054,0.0669 0.0941,0.14361 0.1157,0.23864 0.0216,0.095 0.0289,0.20371 0.0289,0.31818 l 0,0.94731 -0.30371,0 0,-0.88223 c 0,-0.10367 -0.006,-0.19413 -0.0217,-0.26756 -0.0129,-0.0734 -0.0327,-0.13543 -0.0651,-0.18079 -0.0324,-0.0453 -0.0762,-0.0746 -0.13017,-0.094 -0.054,-0.0216 -0.12257,-0.0361 -0.20248,-0.0361 -0.0324,0 -0.0667,0.005 -0.10123,0.007 -0.0346,0.002 -0.0689,0.003 -0.10124,0.007 -0.0302,0.002 -0.0536,0.0101 -0.0795,0.0145 -0.0237,0.004 -0.0398,0.005 -0.0506,0.007 l 0,1.42459 -0.30373,0 0,-1.64153 c 0.0691,-0.0173 0.16033,-0.0312 0.2748,-0.0506 0.11447,-0.0194 0.2487,-0.0289 0.39773,-0.0289 z m 1.20041,0.0362 0.30372,0 0,1.68492 -0.30372,0 0,-1.68492 z"
         id="path4037"
         style="opacity:0.2;fill:#000000;fill-opacity:1;stroke:none;display:inline;enable-background:new"
         inkscape:connector-curvature="0" />
      <path
         inkscape:connector-curvature="0"
         style="opacity:0.2;fill:#000000;fill-opacity:1;stroke:none;display:inline;enable-background:new"
         id="path4039"
         d="m 424,144 c -2.76204,0 -5,2.23796 -5,5 0,2.76204 2.23796,5 5,5 2.76204,0 5,-2.23796 5,-5 0,-0.34351 -0.0322,-0.67804 -0.0981,-1.00206 -0.0503,0.19843 -0.10537,0.38812 -0.16529,0.57334 -0.0679,0.20826 -0.13826,0.40681 -0.21694,0.58884 -0.0309,0.0694 -0.0642,0.12626 -0.0981,0.17562 -0.0324,0.0509 -0.0684,0.0916 -0.10848,0.12397 -0.0401,0.0324 -0.0885,0.0569 -0.13945,0.0723 -0.0494,0.0154 -0.10205,0.0259 -0.1653,0.0259 -0.0169,-1e-5 -0.0383,-0.002 -0.0568,-0.005 -0.0185,-0.001 -0.0331,-0.006 -0.0516,-0.0104 -0.0169,-0.003 -0.0362,-0.006 -0.0516,-0.0104 -0.0139,-0.004 -0.0248,-0.007 -0.031,-0.0104 l 0.0413,-0.17562 c 0.0169,0.008 0.0409,0.0145 0.0671,0.0206 0.0277,0.008 0.0513,0.0104 0.0775,0.0104 0.0848,0 0.15362,-0.0182 0.20144,-0.0568 0.0479,-0.037 0.0906,-0.0959 0.12914,-0.18079 -0.0972,-0.18512 -0.18892,-0.38212 -0.27377,-0.58884 -0.0833,-0.20827 -0.15107,-0.41727 -0.20661,-0.63017 l 0.22728,0 c 0.0169,0.0694 0.0389,0.14189 0.062,0.22211 0.0247,0.0802 0.0534,0.16309 0.0827,0.24793 0.0293,0.0849 0.059,0.16826 0.093,0.2531 0.0339,0.0849 0.0715,0.16926 0.10847,0.24794 0.0586,-0.16199 0.1066,-0.32148 0.14979,-0.48038 0.0432,-0.1589 0.0854,-0.32255 0.12398,-0.4907 l 0.18595,0 C 428.39261,145.67763 426.39119,144 424,144 z m 4.88636,3.92046 c 0.005,0.024 0.0106,0.0481 0.0155,0.0723 0.006,-0.0247 0.0146,-0.0474 0.0206,-0.0723 l -0.0361,0 z m -2.31921,-0.50104 c 0.0386,0 0.0719,0.01 0.0981,0.0361 0.0278,0.0247 0.0413,0.0601 0.0413,0.10331 0,0.0432 -0.0136,0.0771 -0.0413,0.10331 -0.0262,0.0247 -0.0596,0.0361 -0.0981,0.0361 -0.0386,0 -0.0704,-0.0115 -0.0981,-0.0361 -0.0262,-0.0262 -0.0362,-0.0601 -0.0362,-0.10331 0,-0.0432 0.01,-0.0786 0.0362,-0.10331 0.0277,-0.0262 0.0596,-0.0361 0.0981,-0.0361 z m 0.69215,0.12397 0,0.37707 0.45971,0 0,0.18078 -0.45971,0 0,0.55269 c 0,0.0601 0.006,0.10968 0.0155,0.14979 0.009,0.0386 0.0228,0.0699 0.0414,0.093 0.0185,0.0216 0.0446,0.0372 0.0723,0.0465 0.0277,0.009 0.0559,0.0155 0.093,0.0155 0.0648,0 0.11639,-0.007 0.15495,-0.0206 0.0401,-0.0154 0.0672,-0.03 0.0827,-0.0361 l 0.0465,0.18078 c -0.0216,0.0108 -0.0596,0.0259 -0.11364,0.0413 -0.054,0.017 -0.11653,0.0206 -0.18595,0.0206 -0.0818,0 -0.15262,-0.006 -0.20661,-0.0259 -0.0524,-0.0216 -0.0916,-0.0565 -0.12397,-0.0981 -0.0324,-0.0416 -0.0584,-0.0896 -0.0723,-0.1498 -0.0124,-0.0617 -0.0155,-0.13155 -0.0155,-0.21177 l 0,-1.07439 0.21178,-0.0414 z m -6.43596,0.31508 0.85745,0 0,2.52066 c 0,0.58623 0.0938,1.00216 0.27892,1.25517 0.18513,0.253 0.49679,0.38223 0.93492,0.38223 0.0926,0 0.19052,-0.004 0.28926,-0.0104 0.0987,-0.006 0.19252,-0.0145 0.27892,-0.0206 0.0864,-0.0124 0.15939,-0.0196 0.22728,-0.0259 0.074,-0.0124 0.12926,-0.0238 0.16012,-0.0361 l 0,-4.06508 0.85743,0 0,4.67459 c -0.19747,0.0494 -0.45807,0.10458 -0.78512,0.16012 -0.32088,0.0556 -0.69508,0.0827 -1.12086,0.0827 -0.37025,0 -0.68192,-0.0552 -0.93492,-0.16013 -0.25301,-0.11107 -0.45524,-0.26224 -0.60951,-0.45971 -0.15427,-0.19746 -0.2627,-0.43197 -0.33057,-0.69731 -0.0679,-0.27152 -0.10332,-0.57171 -0.10332,-0.89877 l 0,-2.70144 z m 4.78307,0.0361 c 0.0956,0 0.17435,0.0136 0.2376,0.0414 0.0632,0.0262 0.11277,0.0643 0.14979,0.11364 0.0386,0.0478 0.0672,0.10258 0.0826,0.17045 0.0154,0.0679 0.0206,0.14551 0.0206,0.22728 l 0,0.67665 -0.21694,0 0,-0.63017 c 0,-0.074 -0.004,-0.13866 -0.0155,-0.19111 -0.009,-0.0524 -0.0234,-0.0967 -0.0465,-0.12914 -0.0231,-0.0324 -0.0544,-0.0533 -0.093,-0.0671 -0.0386,-0.0154 -0.0875,-0.0258 -0.14463,-0.0258 -0.0231,0 -0.0476,0.004 -0.0723,0.005 -0.0247,0.001 -0.0492,0.002 -0.0723,0.005 -0.0216,0.001 -0.0383,0.007 -0.0568,0.0104 -0.0169,0.003 -0.0284,0.004 -0.0362,0.005 l 0,1.01756 -0.21695,0 0,-1.17252 c 0.0494,-0.0124 0.11452,-0.0223 0.19629,-0.0361 0.0818,-0.0139 0.17764,-0.0206 0.28409,-0.0206 z m 0.85743,0.0259 0.21695,0 0,1.20352 -0.21695,0 0,-1.20352 z" />
      <path
         inkscape:connector-curvature="0"
         style="fill:#ffffff;fill-opacity:1;stroke:none;display:inline;enable-background:new"
         id="path3047"
         d="m 336,46 c -16.57227,0 -30,13.427728 -30,30 0,16.57227 13.42773,30 30,30 16.57227,0 30,-13.42773 30,-30 0,-2.061037 -0.19307,-4.068231 -0.58884,-6.012397 -0.30184,1.190635 -0.63221,2.328803 -0.99174,3.440083 -0.40727,1.249589 -0.8296,2.440828 -1.30165,3.533058 -0.18513,0.416528 -0.38521,0.757519 -0.58884,1.053719 -0.19438,0.305452 -0.41018,0.549419 -0.65083,0.743801 -0.24067,0.194379 -0.53132,0.34132 -0.83678,0.433885 -0.2962,0.09256 -0.61224,0.154955 -0.99173,0.154958 -0.10182,-3e-6 -0.22984,-0.01249 -0.34091,-0.03099 -0.11108,-0.0092 -0.19885,-0.03421 -0.30992,-0.06198 -0.10182,-0.01851 -0.21736,-0.03422 -0.30992,-0.06198 -0.0833,-0.02777 -0.14893,-0.04348 -0.18595,-0.06198 l 0.24794,-1.053719 c 0.10182,0.04627 0.24553,0.08695 0.40289,0.123967 0.16661,0.04628 0.30752,0.06198 0.46488,0.06198 0.50908,-2e-6 0.92172,-0.109506 1.20867,-0.340909 0.28694,-0.22215 0.54338,-0.575621 0.7748,-1.084711 -0.58314,-1.110743 -1.13348,-2.292725 -1.64257,-3.533058 -0.49983,-1.249582 -0.90644,-2.50363 -1.23967,-3.780992 l 1.36364,0 c 0.10181,0.416536 0.23306,0.851329 0.3719,1.332645 0.1481,0.481328 0.32,0.978518 0.49587,1.487603 0.17586,0.509095 0.35421,1.009508 0.55785,1.518595 0.20363,0.509094 0.42868,1.015539 0.65083,1.487604 0.35173,-0.971899 0.63958,-1.92884 0.89876,-2.882232 0.25917,-0.953383 0.51239,-1.935282 0.7438,-2.944215 l 1.1157,0 C 362.35564,56.065753 350.34715,46 336,46 z m 29.31818,23.522727 c 0.0317,0.144058 0.0634,0.289058 0.0929,0.433885 0.0375,-0.148335 0.0874,-0.28432 0.12396,-0.433885 l -0.21694,0 z m -13.91529,-3.006198 c 0.2314,10e-6 0.43149,0.05959 0.58885,0.216942 0.16661,0.148109 0.24793,0.36067 0.24793,0.619835 0,0.259183 -0.0813,0.462488 -0.24793,0.619834 -0.15736,0.148108 -0.35745,0.216952 -0.58885,0.216943 -0.23141,9e-6 -0.42223,-0.06884 -0.58884,-0.216943 -0.15736,-0.157346 -0.21694,-0.360651 -0.21694,-0.619834 0,-0.259165 0.0596,-0.471726 0.21694,-0.619835 0.16661,-0.157345 0.35743,-0.216932 0.58884,-0.216942 z m 4.1529,0.743802 0,2.262396 2.75826,0 0,1.084711 -2.75826,0 0,3.316116 c 0,0.360993 0.0375,0.658101 0.0929,0.89876 0.0555,0.231407 0.13686,0.419009 0.24793,0.557851 0.11108,0.129588 0.26728,0.22339 0.43389,0.278926 0.16661,0.05554 0.3357,0.09297 0.55785,0.09297 0.38876,10e-7 0.69834,-0.04066 0.92975,-0.123967 0.24066,-0.09256 0.4033,-0.179916 0.49587,-0.216942 l 0.27898,1.084711 c -0.12959,0.06479 -0.35786,0.155372 -0.68182,0.247934 -0.32397,0.101818 -0.69918,0.123967 -1.11571,0.123967 -0.49058,0 -0.9157,-0.03463 -1.23966,-0.154959 -0.31472,-0.129587 -0.54943,-0.338926 -0.74381,-0.588843 -0.19438,-0.249916 -0.35058,-0.537768 -0.43388,-0.89876 -0.0741,-0.370246 -0.0929,-0.789337 -0.0929,-1.270662 l 0,-6.446281 1.27066,-0.247933 z m -38.61571,1.890495 5.14463,0 0,15.123967 c -10e-6,3.517367 0.5628,6.012987 1.67355,7.530997 1.11074,1.51801 2.98074,2.29338 5.60951,2.29338 0.55535,0 1.14312,-0.025 1.73554,-0.062 0.59237,-0.037 1.15518,-0.087 1.67355,-0.12397 0.51833,-0.0741 0.95634,-0.11792 1.36364,-0.15496 0.44427,-0.0741 0.77559,-0.14288 0.96074,-0.21694 l 0,-24.390494 5.14463,0 0,28.047524 c -1.18482,0.2962 -2.74846,0.62752 -4.71075,0.96074 -1.9253,0.33322 -4.17051,0.49587 -6.7252,0.49587 -2.2215,0 -4.0915,-0.33132 -5.60951,-0.96075 -1.51803,-0.66644 -2.73141,-1.57346 -3.65702,-2.75826 -0.92563,-1.18479 -1.57621,-2.59181 -1.98347,-4.18388 -0.40728,-1.62909 -0.61984,-3.43024 -0.61984,-5.392566 l 0,-16.208678 z m 28.69835,0.216943 c 0.57388,7e-6 1.04611,0.08133 1.42562,0.247933 0.3795,0.157363 0.6766,0.385627 0.89876,0.681819 0.2314,0.286948 0.4033,0.61546 0.49587,1.022727 0.0925,0.407278 0.12395,0.873062 0.12396,1.363636 l 0,4.059918 -1.30165,0 0,-3.780992 c -10e-6,-0.444294 -0.0282,-0.831979 -0.0929,-1.146694 -0.0556,-0.314706 -0.14015,-0.580408 -0.27898,-0.774794 -0.13884,-0.194374 -0.32645,-0.319581 -0.55785,-0.402892 -0.23141,-0.09256 -0.52529,-0.154953 -0.86777,-0.154959 -0.13884,6e-6 -0.28579,0.02174 -0.43388,0.03099 -0.14811,0.0092 -0.29504,0.01249 -0.43389,0.03099 -0.12959,0.0092 -0.22983,0.04348 -0.34091,0.06198 -0.10182,0.01852 -0.17066,0.02174 -0.21694,0.03099 l 0,6.105372 -1.30165,0 0,-7.035124 c 0.2962,-0.07404 0.6871,-0.13363 1.17768,-0.216942 0.49058,-0.0833 1.06587,-0.12396 1.70455,-0.123967 z m 5.14463,0.154958 1.30165,0 0,7.221075 -1.30165,0 0,-7.221075 z" />
      <path
         d="m 144,76 c -44.19272,0 -80,35.80728 -80,80 0,44.19272 35.80728,80 80,80 44.19272,0 80,-35.80728 80,-80 0,-5.4961 -0.51485,-10.84862 -1.57024,-16.03306 -0.80491,3.17503 -1.68589,6.21014 -2.64464,9.17356 -1.08605,3.33223 -2.21227,6.50887 -3.47107,9.42148 -0.49368,1.11075 -1.02722,2.02005 -1.57024,2.80992 -0.51834,0.81454 -1.09381,1.46512 -1.73554,1.98347 -0.64179,0.51834 -1.41686,0.91019 -2.23142,1.15703 -0.78986,0.24682 -1.63264,0.41321 -2.64461,0.41322 -0.27152,-1e-5 -0.61291,-0.0333 -0.90909,-0.0826 -0.29622,-0.0245 -0.53027,-0.0912 -0.82646,-0.16528 -0.27152,-0.0494 -0.57962,-0.0912 -0.82645,-0.16528 -0.22213,-0.074 -0.39715,-0.11595 -0.49587,-0.16528 l 0.66118,-2.80992 c 0.27152,0.12339 0.65474,0.23187 1.07437,0.33058 0.44429,0.12341 0.82005,0.16528 1.23968,0.16528 1.35755,-1e-5 2.45792,-0.29202 3.22312,-0.90909 0.76517,-0.5924 1.44901,-1.53499 2.06613,-2.89256 -1.55504,-2.96199 -3.02261,-6.11394 -4.38018,-9.42149 -1.33288,-3.33222 -2.41718,-6.67635 -3.30579,-10.08265 l 3.63637,0 c 0.2715,1.11077 0.6215,2.27021 0.99174,3.55372 0.39493,1.28354 0.85333,2.60938 1.32232,3.96694 0.46896,1.35759 0.94456,2.69203 1.4876,4.04959 0.54301,1.35758 1.14314,2.7081 1.73554,3.96694 0.93795,-2.59173 1.70555,-5.14357 2.3967,-7.68595 0.69112,-2.54235 1.36637,-5.16075 1.98346,-7.85124 l 2.9752,0 C 214.28171,102.84201 182.25907,76 144,76 z m 78.18181,62.72727 c 0.0845,0.38416 0.16907,0.77082 0.24774,1.15703 0.1,-0.39556 0.23306,-0.75819 0.33056,-1.15703 l -0.57851,0 z m -37.10744,-8.01653 c 0.61707,3e-5 1.15064,0.15891 1.57027,0.57852 0.44429,0.39495 0.66115,0.96178 0.66115,1.65289 0,0.69115 -0.2168,1.2333 -0.66115,1.65289 -0.41963,0.39495 -0.9532,0.57854 -1.57027,0.57851 -0.61709,3e-5 -1.12594,-0.18357 -1.57024,-0.57851 -0.41962,-0.41959 -0.5785,-0.96174 -0.5785,-1.65289 0,-0.69111 0.15893,-1.25794 0.5785,-1.65289 0.4443,-0.41959 0.95315,-0.57849 1.57024,-0.57852 z m 11.0744,1.98348 0,6.03305 7.35536,0 0,2.89256 -7.35536,0 0,8.84298 c 0,0.96265 0.1,1.75494 0.24774,2.39669 0.148,0.61709 0.36496,1.11736 0.66114,1.48761 0.29622,0.34556 0.71275,0.5957 1.15704,0.7438 0.4443,0.14811 0.8952,0.24792 1.4876,0.24792 1.0367,0 1.86224,-0.10843 2.47934,-0.33058 0.64176,-0.24683 1.07546,-0.47978 1.32232,-0.57851 l 0.74394,2.89256 c -0.34557,0.17277 -0.95429,0.41433 -1.81818,0.66116 -0.86392,0.27151 -1.86448,0.33058 -2.97523,0.33058 -1.30821,0 -2.44187,-0.0924 -3.30576,-0.41323 -0.83925,-0.34556 -1.46515,-0.9038 -1.98349,-1.57025 -0.51835,-0.66644 -0.93488,-1.43404 -1.15702,-2.39669 -0.1976,-0.98732 -0.24773,-2.1049 -0.24773,-3.38843 l 0,-17.19008 3.38843,-0.66116 z m -102.97522,5.04132 13.71901,0 0,40.33057 c -3e-5,9.37965 1.5008,16.03464 4.4628,20.08266 2.96197,4.04803 7.94864,6.11568 14.95869,6.11568 1.48094,0 3.04832,-0.0667 4.62811,-0.16533 1.57965,-0.0987 3.08048,-0.232 4.4628,-0.33059 1.38221,-0.1976 2.55024,-0.31445 3.63637,-0.41322 1.18472,-0.1976 2.06824,-0.38102 2.56198,-0.57851 l 0,-65.04132 13.71901,0 0,74.7934 c -3.15952,0.78987 -7.32923,1.67339 -12.562,2.56197 -5.13413,0.88859 -11.12136,1.32232 -17.93387,1.32232 -5.924,0 -10.91066,-0.88352 -14.95869,-2.562 -4.04808,-1.77717 -7.28376,-4.19589 -9.75205,-7.35536 -2.46835,-3.15944 -4.20323,-6.91149 -5.28926,-11.15701 -1.08608,-4.34424 -1.6529,-9.14731 -1.6529,-14.38018 l 0,-43.22314 z m 76.52893,0.57851 c 1.53035,2e-5 2.78963,0.21688 3.80165,0.66116 1.012,0.41963 1.80427,1.02833 2.3967,1.81818 0.61706,0.76519 1.07546,1.64123 1.32232,2.72727 0.24666,1.08608 0.33053,2.32817 0.33056,3.63636 l 0,10.82645 -3.47107,0 0,-10.08264 c -3e-5,-1.18479 -0.0752,-2.21861 -0.24773,-3.05785 -0.14827,-0.83922 -0.37374,-1.54776 -0.74395,-2.06612 -0.37024,-0.51833 -0.87053,-0.85222 -1.4876,-1.07438 -0.61709,-0.24683 -1.40077,-0.41321 -2.31405,-0.41322 -0.37024,10e-6 -0.76211,0.058 -1.15702,0.0826 -0.39496,0.0245 -0.78677,0.0333 -1.15704,0.0826 -0.34557,0.0245 -0.61288,0.11594 -0.90909,0.16528 -0.27152,0.0494 -0.45509,0.058 -0.57851,0.0826 l 0,16.28099 -3.47106,0 0,-18.76033 c 0.78986,-0.19744 1.83226,-0.35635 3.14048,-0.57851 1.30821,-0.22214 2.84232,-0.33056 4.54546,-0.33058 z m 13.71901,0.41322 3.47107,0 0,19.2562 -3.47107,0 0,-19.2562 z"
         id="path4008"
         style="fill:#ffffff;fill-opacity:1;stroke:none;display:inline;enable-background:new"
         inkscape:connector-curvature="0" />
      <path
         d="m 320,152 c -11.04818,0 -20,8.95182 -20,20 0,11.04818 8.95182,20 20,20 11.04818,0 20,-8.95182 20,-20 0,-1.37403 -0.12871,-2.71215 -0.39256,-4.00827 -0.20123,0.79376 -0.42147,1.55254 -0.66116,2.29339 -0.27151,0.83306 -0.55307,1.62722 -0.86777,2.35538 -0.12342,0.27768 -0.2568,0.50501 -0.39256,0.70248 -0.12958,0.20363 -0.27345,0.36628 -0.43388,0.49586 -0.16045,0.12959 -0.35422,0.22755 -0.55786,0.28926 -0.19746,0.0617 -0.40816,0.1033 -0.66115,0.1033 -0.0679,0 -0.15323,-0.008 -0.22727,-0.0207 -0.0741,-0.006 -0.13257,-0.0228 -0.20662,-0.0413 -0.0679,-0.0123 -0.1449,-0.0228 -0.20661,-0.0413 -0.0555,-0.0185 -0.0993,-0.029 -0.12397,-0.0413 l 0.1653,-0.70249 c 0.0679,0.0309 0.16368,0.058 0.26859,0.0826 0.11107,0.0309 0.20501,0.0413 0.30992,0.0413 0.33939,0 0.61448,-0.073 0.80578,-0.22727 0.19129,-0.1481 0.36225,-0.38375 0.51653,-0.72314 -0.38876,-0.74049 -0.75565,-1.52848 -1.09504,-2.35537 -0.33322,-0.83306 -0.6043,-1.66909 -0.82645,-2.52066 l 0.90909,0 c 0.0679,0.27769 0.15538,0.56755 0.24794,0.88843 0.0987,0.32088 0.21333,0.65234 0.33058,0.99173 0.11724,0.3394 0.23614,0.67301 0.3719,1.0124 0.13575,0.3394 0.28578,0.67703 0.43388,0.99174 0.23449,-0.64794 0.42639,-1.2859 0.59918,-1.92149 0.17278,-0.63559 0.34159,-1.29019 0.49586,-1.96281 l 0.7438,0 C 337.57043,158.7105 329.56477,152 320,152 z m 19.54545,15.68182 c 0.0211,0.096 0.0423,0.1927 0.0619,0.28925 0.025,-0.0989 0.0583,-0.18954 0.0826,-0.28925 l -0.14463,0 z m -9.27686,-2.00413 c 0.15427,0 0.28766,0.0397 0.39257,0.14462 0.11107,0.0987 0.16529,0.24045 0.16529,0.41323 0,0.17279 -0.0542,0.30832 -0.16529,0.41322 -0.10491,0.0987 -0.2383,0.14463 -0.39257,0.14463 -0.15427,0 -0.28148,-0.0459 -0.39256,-0.14463 -0.1049,-0.1049 -0.14462,-0.24043 -0.14462,-0.41322 0,-0.17278 0.0397,-0.31449 0.14462,-0.41323 0.11108,-0.10489 0.23829,-0.14462 0.39256,-0.14462 z m 2.7686,0.49586 0,1.50827 1.83884,0 0,0.72314 -1.83884,0 0,2.21074 c 0,0.24066 0.025,0.43874 0.0619,0.59918 0.037,0.15427 0.0912,0.27933 0.16528,0.3719 0.0741,0.0864 0.17819,0.14892 0.28926,0.18595 0.11108,0.037 0.2238,0.062 0.3719,0.062 0.25918,0 0.46556,-0.0271 0.61984,-0.0826 0.16044,-0.0617 0.26886,-0.11995 0.33058,-0.14463 l 0.18598,0.72314 c -0.0864,0.0432 -0.23857,0.10358 -0.45454,0.16529 -0.21598,0.0679 -0.46612,0.0826 -0.74381,0.0826 -0.32705,0 -0.61047,-0.0231 -0.82644,-0.10331 -0.20981,-0.0864 -0.36629,-0.22595 -0.49587,-0.39256 -0.12959,-0.16661 -0.23372,-0.35851 -0.28926,-0.59917 -0.0494,-0.24683 -0.0619,-0.52623 -0.0619,-0.84711 l 0,-4.29752 0.84711,-0.16529 z m -25.7438,1.26033 3.42975,0 0,10.08265 c -10e-6,2.34491 0.3752,4.00866 1.1157,5.02066 0.74049,1.01201 1.98716,1.52892 3.73967,1.52892 0.37024,0 0.76208,-0.0167 1.15703,-0.0413 0.39491,-0.0247 0.77012,-0.058 1.1157,-0.0827 0.34555,-0.0494 0.63756,-0.0786 0.90909,-0.1033 0.29618,-0.0494 0.51706,-0.0952 0.6405,-0.14463 l 0,-16.26033 3.42975,0 0,18.69835 c -0.78988,0.19747 -1.83231,0.41835 -3.1405,0.64049 -1.28353,0.22215 -2.78034,0.33058 -4.48347,0.33058 -1.481,0 -2.72766,-0.22088 -3.73967,-0.6405 -1.01202,-0.44429 -1.82094,-1.04897 -2.43801,-1.83884 -0.61709,-0.78986 -1.05081,-1.72787 -1.32232,-2.78925 -0.27152,-1.08606 -0.41322,-2.28683 -0.41322,-3.59504 l 0,-10.80579 z m 19.13223,0.14463 c 0.38259,1e-5 0.69741,0.0542 0.95041,0.16529 0.253,0.10491 0.45107,0.25709 0.59918,0.45455 0.15426,0.1913 0.26886,0.4103 0.33058,0.68181 0.0617,0.27152 0.0826,0.58205 0.0826,0.9091 l 0,2.70661 -0.86777,0 0,-2.52066 c -1e-5,-0.2962 -0.0188,-0.55466 -0.0619,-0.76447 -0.0371,-0.2098 -0.0934,-0.38694 -0.18599,-0.51653 -0.0926,-0.12958 -0.21763,-0.21305 -0.3719,-0.26859 -0.15427,-0.0617 -0.35019,-0.1033 -0.57851,-0.10331 -0.0926,1e-5 -0.19053,0.0145 -0.28926,0.0207 -0.0987,0.006 -0.19669,0.008 -0.28926,0.0207 -0.0864,0.006 -0.15322,0.029 -0.22727,0.0413 -0.0679,0.0123 -0.11377,0.0145 -0.14463,0.0207 l 0,4.07025 -0.86776,0 0,-4.69008 c 0.19746,-0.0494 0.45806,-0.0891 0.78512,-0.14463 0.32705,-0.0555 0.71058,-0.0826 1.13636,-0.0826 z m 3.42975,0.10331 0.86777,0 0,4.81405 -0.86777,0 0,-4.81405 z"
         id="path4010"
         style="fill:#ffffff;fill-opacity:1;stroke:none;display:inline;enable-background:new"
         inkscape:connector-curvature="0" />
      <path
         inkscape:connector-curvature="0"
         style="fill:#ffffff;fill-opacity:1;stroke:none;display:inline;enable-background:new"
         id="path4012"
         d="m 312,230 c -7.73373,0 -14,6.26627 -14,14 0,7.73373 6.26627,14 14,14 7.73373,0 14,-6.26627 14,-14 0,-0.96182 -0.0901,-1.89851 -0.27479,-2.80579 -0.14086,0.55563 -0.29503,1.08678 -0.46281,1.60537 -0.19006,0.58315 -0.38715,1.13906 -0.60744,1.64877 -0.0864,0.19438 -0.17976,0.35351 -0.2748,0.49174 -0.0907,0.14254 -0.19141,0.25639 -0.30371,0.3471 -0.11232,0.0907 -0.24796,0.15928 -0.3905,0.20248 -0.13822,0.0432 -0.28572,0.0723 -0.46281,0.0723 -0.0475,0 -0.10726,-0.006 -0.15909,-0.0145 -0.0519,-0.004 -0.0928,-0.016 -0.14463,-0.0289 -0.0475,-0.009 -0.10143,-0.016 -0.14463,-0.0289 -0.0388,-0.0129 -0.0695,-0.0203 -0.0868,-0.0289 l 0.11571,-0.49174 c 0.0475,0.0216 0.11458,0.0406 0.18802,0.0578 0.0777,0.0216 0.1435,0.0289 0.21694,0.0289 0.23757,0 0.43014,-0.0511 0.56405,-0.15909 0.1339,-0.10367 0.25357,-0.26863 0.36157,-0.5062 -0.27214,-0.51834 -0.52896,-1.06994 -0.76653,-1.64876 -0.23325,-0.58314 -0.42301,-1.16836 -0.57852,-1.76446 l 0.63637,0 c 0.0475,0.19438 0.10876,0.39728 0.17355,0.6219 0.0691,0.22462 0.14934,0.45664 0.23141,0.69421 0.0821,0.23758 0.1653,0.47111 0.26033,0.70868 0.095,0.23758 0.20005,0.47392 0.30372,0.69422 0.16414,-0.45356 0.29847,-0.90013 0.41942,-1.34504 0.12095,-0.44492 0.23912,-0.90314 0.3471,-1.37397 l 0.52067,0 C 324.2993,234.69735 318.69534,230 312,230 z m 13.68182,10.97727 c 0.0148,0.0672 0.0296,0.13489 0.0433,0.20248 0.0175,-0.0692 0.0408,-0.13268 0.0578,-0.20248 l -0.10124,0 z m -6.49381,-1.40289 c 0.10799,0 0.20136,0.0278 0.2748,0.10124 0.0778,0.0691 0.11571,0.16831 0.11571,0.28926 0,0.12095 -0.038,0.21582 -0.11571,0.28925 -0.0734,0.0691 -0.16681,0.10124 -0.2748,0.10124 -0.10799,0 -0.19703,-0.0321 -0.27479,-0.10124 -0.0734,-0.0734 -0.10123,-0.1683 -0.10123,-0.28925 0,-0.12095 0.0278,-0.22015 0.10123,-0.28926 0.0778,-0.0734 0.1668,-0.10124 0.27479,-0.10124 z m 1.93802,0.3471 0,1.05579 1.28719,0 0,0.5062 -1.28719,0 0,1.54752 c 0,0.16846 0.0175,0.30712 0.0433,0.41943 0.0259,0.10798 0.0638,0.19553 0.1157,0.26033 0.0519,0.0605 0.12473,0.10424 0.20248,0.13016 0.0778,0.0259 0.15666,0.0434 0.26033,0.0434 0.18143,0 0.32589,-0.019 0.43389,-0.0578 0.11231,-0.0432 0.1882,-0.084 0.2314,-0.10124 l 0.13019,0.5062 c -0.0605,0.0302 -0.167,0.0725 -0.31818,0.1157 -0.15118,0.0475 -0.32628,0.0578 -0.52066,0.0578 -0.22894,0 -0.42733,-0.0162 -0.57851,-0.0723 -0.14687,-0.0605 -0.25641,-0.15816 -0.34711,-0.27479 -0.0907,-0.11663 -0.16361,-0.25096 -0.20248,-0.41942 -0.0346,-0.17278 -0.0433,-0.36836 -0.0433,-0.59297 l 0,-3.00827 0.59297,-0.1157 z m -18.02066,0.88224 2.40083,0 0,7.05785 c -10e-6,1.64144 0.26264,2.80606 0.78099,3.51446 0.51834,0.70841 1.39101,1.07025 2.61777,1.07025 0.25917,0 0.53345,-0.0117 0.80992,-0.0289 0.27643,-0.0173 0.53908,-0.0406 0.78099,-0.0579 0.24188,-0.0346 0.44629,-0.055 0.63636,-0.0723 0.20733,-0.0346 0.36194,-0.0666 0.44835,-0.10124 l 0,-11.38224 2.40083,0 0,13.08885 c -0.55292,0.13823 -1.28262,0.29284 -2.19835,0.44834 -0.89847,0.15551 -1.94624,0.23141 -3.13843,0.23141 -1.0367,0 -1.90936,-0.15462 -2.61777,-0.44835 -0.70842,-0.311 -1.27466,-0.73428 -1.70661,-1.28719 -0.43196,-0.5529 -0.73557,-1.20951 -0.92562,-1.95247 -0.19007,-0.76025 -0.28926,-1.60079 -0.28926,-2.51653 l 0,-7.56406 z m 13.39256,0.10124 c 0.26782,0 0.48819,0.0379 0.66529,0.1157 0.1771,0.0734 0.31575,0.17996 0.41943,0.31818 0.10798,0.13391 0.1882,0.28721 0.2314,0.47727 0.0432,0.19007 0.0578,0.40744 0.0578,0.63637 l 0,1.89463 -0.60744,0 0,-1.76446 c 0,-0.20734 -0.0132,-0.38827 -0.0433,-0.53513 -0.026,-0.14686 -0.0654,-0.27086 -0.13019,-0.36157 -0.0648,-0.0907 -0.15234,-0.14914 -0.26033,-0.18802 -0.10799,-0.0432 -0.24513,-0.0723 -0.40496,-0.0723 -0.0648,0 -0.13337,0.0101 -0.20248,0.0145 -0.0691,0.004 -0.13768,0.006 -0.20248,0.0145 -0.0605,0.004 -0.10725,0.0203 -0.15909,0.0289 -0.0475,0.009 -0.0796,0.0102 -0.10124,0.0145 l 0,2.84917 -0.60743,0 0,-3.28305 c 0.13822,-0.0346 0.32064,-0.0624 0.54958,-0.10124 0.22894,-0.0389 0.49741,-0.0578 0.79545,-0.0578 z m 2.40083,0.0723 0.60744,0 0,3.36984 -0.60744,0 0,-3.36984 z" />
      <path
         d="m 432,58 c -5.52409,0 -10,4.475909 -10,10 0,5.52409 4.47591,10 10,10 5.52409,0 10,-4.47591 10,-10 0,-0.687012 -0.0644,-1.356077 -0.19628,-2.004132 -0.10061,0.396878 -0.21074,0.776267 -0.33058,1.146694 -0.13576,0.41653 -0.27653,0.813609 -0.43388,1.177686 -0.0617,0.138843 -0.12841,0.252506 -0.19628,0.35124 -0.0648,0.101817 -0.13673,0.183139 -0.21695,0.247933 -0.0802,0.06479 -0.1771,0.113774 -0.27892,0.144629 -0.0987,0.03085 -0.20408,0.05165 -0.33058,0.05165 -0.0339,-10e-7 -0.0766,-0.0042 -0.11364,-0.01033 -0.037,-0.0031 -0.0663,-0.0114 -0.1033,-0.02066 -0.0339,-0.0062 -0.0725,-0.01141 -0.10331,-0.02066 -0.0278,-0.0093 -0.0496,-0.01449 -0.062,-0.02066 l 0.0826,-0.351239 c 0.0339,0.01542 0.0818,0.02898 0.1343,0.04132 0.0555,0.01543 0.10251,0.02066 0.15496,0.02066 0.16969,-10e-7 0.30724,-0.0365 0.40289,-0.113636 0.0957,-0.07405 0.18113,-0.191874 0.25827,-0.361571 -0.19438,-0.370247 -0.37783,-0.764241 -0.54753,-1.177686 -0.16661,-0.416527 -0.30214,-0.834543 -0.41322,-1.26033 l 0.45455,0 c 0.0339,0.138845 0.0777,0.283776 0.12396,0.444215 0.0494,0.160442 0.10667,0.326172 0.16529,0.495867 0.0586,0.169699 0.11807,0.336503 0.18595,0.506199 0.0679,0.169698 0.1429,0.338513 0.21695,0.495868 0.11724,-0.323967 0.21319,-0.642947 0.29958,-0.960744 0.0864,-0.317795 0.1708,-0.645094 0.24794,-0.981405 l 0.3719,0 C 440.78521,61.355251 436.78238,58 432,58 z m 9.77273,7.840909 c 0.0106,0.04802 0.0211,0.09635 0.031,0.144628 0.0125,-0.04944 0.0291,-0.09477 0.0413,-0.144628 l -0.0723,0 z m -4.63843,-1.002066 c 0.0771,3e-6 0.14383,0.01986 0.19628,0.07231 0.0555,0.04937 0.0826,0.120223 0.0826,0.206612 0,0.08639 -0.0271,0.154162 -0.0826,0.206611 -0.0525,0.04937 -0.11915,0.07232 -0.19628,0.07231 -0.0771,3e-6 -0.14075,-0.02295 -0.19628,-0.07231 -0.0525,-0.05245 -0.0723,-0.120217 -0.0723,-0.206611 0,-0.08639 0.0199,-0.157242 0.0723,-0.206612 0.0555,-0.05245 0.11914,-0.07231 0.19628,-0.07231 z m 1.3843,0.247934 0,0.754132 0.91942,0 0,0.36157 -0.91942,0 0,1.105372 c 0,0.120331 0.0125,0.219367 0.031,0.299587 0.0185,0.07714 0.0456,0.13967 0.0827,0.18595 0.037,0.0432 0.0891,0.07446 0.14463,0.09298 0.0555,0.01851 0.1119,0.03099 0.18595,0.03099 0.12958,0 0.23278,-0.01355 0.30991,-0.04132 0.0802,-0.03085 0.13444,-0.05997 0.16529,-0.07231 l 0.093,0.361571 c -0.0432,0.0216 -0.11929,0.05179 -0.22728,0.08264 -0.10799,0.03394 -0.23306,0.04132 -0.3719,0.04132 -0.16353,0 -0.30523,-0.01154 -0.41322,-0.05165 -0.10491,-0.0432 -0.18314,-0.112976 -0.24794,-0.196281 -0.0648,-0.08331 -0.11686,-0.179256 -0.14462,-0.299587 -0.0247,-0.123415 -0.031,-0.263112 -0.031,-0.423554 l 0,-2.14876 0.42355,-0.08264 z m -12.87191,0.630165 1.71488,0 0,5.041322 c 0,1.172456 0.1876,2.004326 0.55785,2.510336 0.37025,0.506 0.99358,0.76446 1.86984,0.76446 0.18511,0 0.38104,-0.008 0.57851,-0.0207 0.19746,-0.0123 0.38506,-0.029 0.55785,-0.0413 0.17278,-0.0247 0.31878,-0.0393 0.45455,-0.0517 0.14809,-0.0247 0.25853,-0.0476 0.32024,-0.0723 l 0,-8.130165 1.71488,0 0,9.349175 c -0.39494,0.0987 -0.91615,0.20917 -1.57025,0.32025 -0.64177,0.11107 -1.39017,0.16529 -2.24173,0.16529 -0.7405,0 -1.36384,-0.11044 -1.86984,-0.32025 -0.50601,-0.22215 -0.91047,-0.52449 -1.21901,-0.91942 -0.30854,-0.39493 -0.5254,-0.86394 -0.66115,-1.39463 -0.13576,-0.54303 -0.20662,-1.143413 -0.20662,-1.797522 l 0,-5.402893 z m 9.56612,0.07231 c 0.19129,3e-6 0.3487,0.02711 0.47521,0.08264 0.1265,0.05245 0.22553,0.128542 0.29958,0.227273 0.0771,0.09565 0.13444,0.205153 0.16529,0.340909 0.0308,0.135759 0.0413,0.29102 0.0413,0.454545 l 0,1.353306 -0.43388,0 0,-1.260331 c 0,-0.148098 -0.009,-0.277326 -0.031,-0.382231 -0.0185,-0.104902 -0.0467,-0.193469 -0.093,-0.258265 -0.0463,-0.06479 -0.10882,-0.106527 -0.18595,-0.134297 -0.0771,-0.03085 -0.1751,-0.05165 -0.28926,-0.05165 -0.0463,2e-6 -0.0953,0.0072 -0.14462,0.01033 -0.0494,0.0031 -0.0984,0.0042 -0.14463,0.01033 -0.0432,0.0031 -0.0766,0.01449 -0.11364,0.02066 -0.0339,0.0062 -0.0569,0.0072 -0.0723,0.01033 l 0,2.035124 -0.43389,0 0,-2.345041 c 0.0987,-0.02468 0.22904,-0.04454 0.39256,-0.07231 0.16353,-0.02777 0.35529,-0.04132 0.56819,-0.04132 z m 1.71488,0.05165 0.43388,0 0,2.407025 -0.43388,0 0,-2.407025 z"
         id="path4014"
         style="fill:#ffffff;fill-opacity:1;stroke:none;display:inline;enable-background:new"
         inkscape:connector-curvature="0" />
      <path
         inkscape:connector-curvature="0"
         style="fill:#ffffff;fill-opacity:1;stroke:none;display:inline;enable-background:new"
         id="path4016"
         d="m 428,105 c -3.86686,0 -7,3.13314 -7,7 0,3.86686 3.13314,7 7,7 3.86686,0 7,-3.13314 7,-7 0,-0.48091 -0.0451,-0.94925 -0.1374,-1.40289 -0.0704,0.27781 -0.14751,0.54338 -0.2314,0.80268 -0.095,0.29157 -0.19357,0.56953 -0.30372,0.82438 -0.0432,0.0972 -0.0899,0.17676 -0.13739,0.24587 -0.0454,0.0713 -0.0957,0.1282 -0.15187,0.17356 -0.0561,0.0453 -0.12397,0.0796 -0.19524,0.10124 -0.0691,0.0216 -0.14286,0.0362 -0.23141,0.0362 -0.0237,-1e-5 -0.0536,-0.003 -0.0795,-0.007 -0.0259,-0.002 -0.0464,-0.008 -0.0723,-0.0145 -0.0237,-0.004 -0.0507,-0.008 -0.0723,-0.0145 -0.0195,-0.006 -0.0347,-0.0101 -0.0434,-0.0145 l 0.0578,-0.24587 c 0.0237,0.0108 0.0573,0.0203 0.094,0.0289 0.0388,0.0108 0.0718,0.0145 0.10847,0.0145 0.11878,0 0.21507,-0.0255 0.28202,-0.0795 0.067,-0.0518 0.12679,-0.13431 0.18079,-0.2531 -0.13607,-0.25917 -0.26448,-0.53497 -0.38327,-0.82438 -0.11663,-0.29157 -0.2115,-0.58418 -0.28926,-0.88223 l 0.31819,0 c 0.0237,0.0972 0.0544,0.19864 0.0868,0.31095 0.0346,0.11231 0.0747,0.22832 0.11571,0.3471 0.041,0.11879 0.0826,0.23556 0.13016,0.35434 0.0475,0.11879 0.10003,0.23696 0.15186,0.34711 0.0821,-0.22678 0.14924,-0.45006 0.20971,-0.67252 0.0605,-0.22246 0.11956,-0.45157 0.17356,-0.68698 l 0.26033,0 C 434.14965,107.34868 431.34767,105 428,105 z m 6.84091,5.48864 c 0.007,0.0336 0.0148,0.0674 0.0217,0.10124 0.009,-0.0346 0.0204,-0.0663 0.0289,-0.10124 l -0.0506,0 z m -3.2469,-0.70145 c 0.054,0 0.10068,0.0139 0.1374,0.0506 0.0389,0.0346 0.0578,0.0842 0.0578,0.14463 0,0.0605 -0.019,0.10791 -0.0578,0.14463 -0.0367,0.0346 -0.0834,0.0506 -0.1374,0.0506 -0.054,0 -0.0985,-0.0161 -0.1374,-0.0506 -0.0367,-0.0367 -0.0506,-0.0842 -0.0506,-0.14463 0,-0.0605 0.0139,-0.11007 0.0506,-0.14463 0.0388,-0.0367 0.0834,-0.0506 0.1374,-0.0506 z m 0.96901,0.17355 0,0.5279 0.64359,0 0,0.25309 -0.64359,0 0,0.77377 c 0,0.0842 0.009,0.15355 0.0217,0.20971 0.0129,0.054 0.0319,0.0978 0.0579,0.13016 0.0259,0.0302 0.0624,0.0521 0.10124,0.0651 0.0388,0.013 0.0783,0.0217 0.13017,0.0217 0.0907,0 0.16294,-0.01 0.21693,-0.0289 0.0561,-0.0216 0.0941,-0.042 0.11571,-0.0506 l 0.0651,0.2531 c -0.0302,0.0151 -0.0835,0.0362 -0.1591,0.0578 -0.0756,0.0238 -0.16314,0.0289 -0.26033,0.0289 -0.11447,0 -0.21366,-0.008 -0.28925,-0.0362 -0.0734,-0.0302 -0.1282,-0.0791 -0.17356,-0.13739 -0.0454,-0.0583 -0.0818,-0.12548 -0.10124,-0.20972 -0.0173,-0.0864 -0.0217,-0.18417 -0.0217,-0.29648 l 0,-1.50414 0.29649,-0.0579 z m -9.01034,0.44112 1.20042,0 0,3.52892 c 0,0.82072 0.13132,1.40303 0.39049,1.75724 0.25918,0.3542 0.69551,0.53512 1.30889,0.53512 0.12958,0 0.26673,-0.006 0.40496,-0.0145 0.13822,-0.009 0.26954,-0.0203 0.39049,-0.0289 0.12095,-0.0173 0.22315,-0.0275 0.31819,-0.0362 0.10366,-0.0173 0.18097,-0.0333 0.22417,-0.0506 l 0,-5.69111 1.20041,0 0,6.54442 c -0.27646,0.0691 -0.6413,0.14642 -1.09917,0.22417 -0.44924,0.0778 -0.97312,0.11571 -1.56921,0.11571 -0.51835,0 -0.95469,-0.0773 -1.30889,-0.22418 -0.35421,-0.1555 -0.63733,-0.36714 -0.85331,-0.64359 -0.21598,-0.27645 -0.36778,-0.60476 -0.4628,-0.97624 -0.095,-0.38012 -0.14464,-0.80039 -0.14464,-1.25827 l 0,-3.78202 z m 6.69629,0.0506 c 0.1339,0 0.24409,0.019 0.33264,0.0579 0.0885,0.0367 0.15788,0.09 0.20971,0.15909 0.054,0.0669 0.0941,0.14361 0.1157,0.23864 0.0216,0.095 0.0289,0.20371 0.0289,0.31818 l 0,0.94731 -0.30371,0 0,-0.88223 c 0,-0.10367 -0.006,-0.19413 -0.0217,-0.26756 -0.0129,-0.0734 -0.0327,-0.13543 -0.0651,-0.18079 -0.0324,-0.0453 -0.0762,-0.0746 -0.13017,-0.094 -0.054,-0.0216 -0.12257,-0.0361 -0.20248,-0.0361 -0.0324,0 -0.0667,0.005 -0.10123,0.007 -0.0346,0.002 -0.0689,0.003 -0.10124,0.007 -0.0302,0.002 -0.0536,0.0101 -0.0795,0.0145 -0.0237,0.004 -0.0398,0.005 -0.0506,0.007 l 0,1.42459 -0.30373,0 0,-1.64153 c 0.0691,-0.0173 0.16033,-0.0312 0.2748,-0.0506 0.11447,-0.0194 0.2487,-0.0289 0.39773,-0.0289 z m 1.20041,0.0362 0.30372,0 0,1.68492 -0.30372,0 0,-1.68492 z" />
      <path
         d="m 424,143 c -2.76204,0 -5,2.23796 -5,5 0,2.76204 2.23796,5 5,5 2.76204,0 5,-2.23796 5,-5 0,-0.34351 -0.0322,-0.67804 -0.0981,-1.00206 -0.0503,0.19843 -0.10537,0.38812 -0.16529,0.57334 -0.0679,0.20826 -0.13826,0.40681 -0.21694,0.58884 -0.0309,0.0694 -0.0642,0.12626 -0.0981,0.17562 -0.0324,0.0509 -0.0684,0.0916 -0.10848,0.12397 -0.0401,0.0324 -0.0885,0.0569 -0.13945,0.0723 -0.0494,0.0154 -0.10205,0.0259 -0.1653,0.0259 -0.0169,-1e-5 -0.0383,-0.002 -0.0568,-0.005 -0.0185,-0.001 -0.0331,-0.006 -0.0516,-0.0104 -0.0169,-0.003 -0.0362,-0.006 -0.0516,-0.0104 -0.0139,-0.004 -0.0248,-0.007 -0.031,-0.0104 l 0.0413,-0.17562 c 0.0169,0.008 0.0409,0.0145 0.0671,0.0206 0.0277,0.008 0.0513,0.0104 0.0775,0.0104 0.0848,0 0.15362,-0.0182 0.20144,-0.0568 0.0479,-0.037 0.0906,-0.0959 0.12914,-0.18079 -0.0972,-0.18512 -0.18892,-0.38212 -0.27377,-0.58884 -0.0833,-0.20827 -0.15107,-0.41727 -0.20661,-0.63017 l 0.22728,0 c 0.0169,0.0694 0.0389,0.14189 0.062,0.22211 0.0247,0.0802 0.0534,0.16309 0.0827,0.24793 0.0293,0.0849 0.059,0.16826 0.093,0.2531 0.0339,0.0849 0.0715,0.16926 0.10847,0.24794 0.0586,-0.16199 0.1066,-0.32148 0.14979,-0.48038 0.0432,-0.1589 0.0854,-0.32255 0.12398,-0.4907 l 0.18595,0 C 428.39261,144.67763 426.39119,143 424,143 z m 4.88636,3.92046 c 0.005,0.024 0.0106,0.0481 0.0155,0.0723 0.006,-0.0247 0.0146,-0.0474 0.0206,-0.0723 l -0.0361,0 z m -2.31921,-0.50104 c 0.0386,0 0.0719,0.01 0.0981,0.0361 0.0278,0.0247 0.0413,0.0601 0.0413,0.10331 0,0.0432 -0.0136,0.0771 -0.0413,0.10331 -0.0262,0.0247 -0.0596,0.0361 -0.0981,0.0361 -0.0386,0 -0.0704,-0.0115 -0.0981,-0.0361 -0.0262,-0.0262 -0.0362,-0.0601 -0.0362,-0.10331 0,-0.0432 0.01,-0.0786 0.0362,-0.10331 0.0277,-0.0262 0.0596,-0.0361 0.0981,-0.0361 z m 0.69215,0.12397 0,0.37707 0.45971,0 0,0.18078 -0.45971,0 0,0.55269 c 0,0.0601 0.006,0.10968 0.0155,0.14979 0.009,0.0386 0.0228,0.0699 0.0414,0.093 0.0185,0.0216 0.0446,0.0372 0.0723,0.0465 0.0277,0.009 0.0559,0.0155 0.093,0.0155 0.0648,0 0.11639,-0.007 0.15495,-0.0206 0.0401,-0.0154 0.0672,-0.03 0.0827,-0.0361 l 0.0465,0.18078 c -0.0216,0.0108 -0.0596,0.0259 -0.11364,0.0413 -0.054,0.017 -0.11653,0.0206 -0.18595,0.0206 -0.0818,0 -0.15262,-0.006 -0.20661,-0.0259 -0.0524,-0.0216 -0.0916,-0.0565 -0.12397,-0.0981 -0.0324,-0.0416 -0.0584,-0.0896 -0.0723,-0.1498 -0.0124,-0.0617 -0.0155,-0.13155 -0.0155,-0.21177 l 0,-1.07439 0.21178,-0.0414 z m -6.43596,0.31508 0.85745,0 0,2.52066 c 0,0.58623 0.0938,1.00216 0.27892,1.25517 0.18513,0.253 0.49679,0.38223 0.93492,0.38223 0.0926,0 0.19052,-0.004 0.28926,-0.0104 0.0987,-0.006 0.19252,-0.0145 0.27892,-0.0206 0.0864,-0.0124 0.15939,-0.0196 0.22728,-0.0259 0.074,-0.0124 0.12926,-0.0238 0.16012,-0.0361 l 0,-4.06508 0.85743,0 0,4.67459 c -0.19747,0.0494 -0.45807,0.10458 -0.78512,0.16012 -0.32088,0.0556 -0.69508,0.0827 -1.12086,0.0827 -0.37025,0 -0.68192,-0.0552 -0.93492,-0.16013 -0.25301,-0.11107 -0.45524,-0.26224 -0.60951,-0.45971 -0.15427,-0.19746 -0.2627,-0.43197 -0.33057,-0.69731 -0.0679,-0.27152 -0.10332,-0.57171 -0.10332,-0.89877 l 0,-2.70144 z m 4.78307,0.0361 c 0.0956,0 0.17435,0.0136 0.2376,0.0414 0.0632,0.0262 0.11277,0.0643 0.14979,0.11364 0.0386,0.0478 0.0672,0.10258 0.0826,0.17045 0.0154,0.0679 0.0206,0.14551 0.0206,0.22728 l 0,0.67665 -0.21694,0 0,-0.63017 c 0,-0.074 -0.004,-0.13866 -0.0155,-0.19111 -0.009,-0.0524 -0.0234,-0.0967 -0.0465,-0.12914 -0.0231,-0.0324 -0.0544,-0.0533 -0.093,-0.0671 -0.0386,-0.0154 -0.0875,-0.0258 -0.14463,-0.0258 -0.0231,0 -0.0476,0.004 -0.0723,0.005 -0.0247,0.001 -0.0492,0.002 -0.0723,0.005 -0.0216,0.001 -0.0383,0.007 -0.0568,0.0104 -0.0169,0.003 -0.0284,0.004 -0.0362,0.005 l 0,1.01756 -0.21695,0 0,-1.17252 c 0.0494,-0.0124 0.11452,-0.0223 0.19629,-0.0361 0.0818,-0.0139 0.17764,-0.0206 0.28409,-0.0206 z m 0.85743,0.0259 0.21695,0 0,1.20352 -0.21695,0 0,-1.20352 z"
         id="path4018"
         style="fill:#ffffff;fill-opacity:1;stroke:none;display:inline;enable-background:new"
         inkscape:connector-curvature="0" />
    </g>
    <g
       inkscape:groupmode="layer"
       id="layer5"
       inkscape:label="Highlights"
       style="display:inline"
       sodipodi:insensitive="true">
      <path
         style="opacity:0.12999998;color:#bebebe;fill:#ffffff;fill-opacity:1;fill-rule:nonzero;stroke:none;stroke-width:0;marker:none;visibility:visible;display:inline;overflow:visible;enable-background:accumulate"
         d="M 84,47 C 56.836703,47 35,68.836703 35,96 l 0,1 C 35,69.836703 56.836703,48 84,48 l 120,0 c 27.1633,0 49,21.836703 49,49 l 0,-1 C 253,68.836703 231.1633,47 204,47 L 84,47 z"
         id="rect3894"
         inkscape:connector-curvature="0" />
      <path
         style="opacity:0.12999998;color:#bebebe;fill:#ffffff;fill-opacity:1;fill-rule:nonzero;stroke:none;stroke-width:0;marker:none;visibility:visible;display:inline;overflow:visible;enable-background:accumulate"
         d="m 419,141 c -1.1253,0 -2,0.8747 -2,2 l 0,1 c 0,-1.1253 0.8747,-2 2,-2 l 10,0 c 1.1253,0 2,0.8747 2,2 l 0,-1 c 0,-1.1253 -0.8747,-2 -2,-2 l -10,0 z"
         id="rect3896"
         inkscape:connector-curvature="0" />
      <path
         style="opacity:0.12999998;color:#bebebe;fill:#ffffff;fill-opacity:1;fill-rule:nonzero;stroke:none;stroke-width:0;marker:none;visibility:visible;display:inline;overflow:visible;enable-background:accumulate"
         d="m 422,102 c -2.2333,0 -4,1.7667 -4,4 l 0,1 c 0,-2.2333 1.7667,-4 4,-4 l 12,0 c 2.2333,0 4,1.7667 4,4 l 0,-1 c 0,-2.2333 -1.7667,-4 -4,-4 l -12,0 z"
         id="rect3898"
         inkscape:connector-curvature="0" />
      <path
         style="opacity:0.12999998;color:#bebebe;fill:#ffffff;fill-opacity:1;fill-rule:nonzero;stroke:none;stroke-width:0;marker:none;visibility:visible;display:inline;overflow:visible;enable-background:accumulate"
         d="m 424,54 c -3.3413,0 -6,2.658703 -6,6 l 0,1 c 0,-3.341297 2.6587,-6 6,-6 l 16,0 c 3.3413,0 6,2.658703 6,6 l 0,-1 c 0,-3.341297 -2.6587,-6 -6,-6 l -16,0 z"
         id="rect3900"
         inkscape:connector-curvature="0" />
      <path
         style="opacity:0.12999998;color:#bebebe;fill:#ffffff;fill-opacity:1;fill-rule:nonzero;stroke:none;stroke-width:0;marker:none;visibility:visible;display:inline;overflow:visible;enable-background:accumulate"
         d="m 300,224 c -4.4493,0 -8,3.5507 -8,8 l 0,1 c 0,-4.4493 3.5507,-8 8,-8 l 24,0 c 4.4493,0 8,3.5507 8,8 l 0,-1 c 0,-4.4493 -3.5507,-8 -8,-8 l -24,0 z"
         id="rect3902"
         inkscape:connector-curvature="0" />
      <path
         style="opacity:0.12999998;color:#bebebe;fill:#ffffff;fill-opacity:1;fill-rule:nonzero;stroke:none;stroke-width:0;marker:none;visibility:visible;display:inline;overflow:visible;enable-background:accumulate"
         d="m 310,33 c -9.4353,0 -17,7.564703 -17,17 l 0,1 c 0,-9.435297 7.5647,-17 17,-17 l 52,0 c 9.4353,0 17,7.564703 17,17 l 0,-1 c 0,-9.435297 -7.5647,-17 -17,-17 l -52,0 z"
         id="rect3904"
         inkscape:connector-curvature="0" />
      <path
         style="opacity:0.12999998;color:#bebebe;fill:#ffffff;fill-opacity:1;fill-rule:nonzero;stroke:none;stroke-width:0;marker:none;visibility:visible;display:inline;overflow:visible;enable-background:accumulate"
         d="m 302.5,143 c -6.3883,0 -11.5,5.1117 -11.5,11.5 l 0,1 c 0,-6.3883 5.1117,-11.5 11.5,-11.5 l 35,0 c 6.3883,0 11.5,5.1117 11.5,11.5 l 0,-1 c 0,-6.3883 -5.1117,-11.5 -11.5,-11.5 l -35,0 z"
         id="rect3906"
         inkscape:connector-curvature="0" />
      <path
         id="path4085"
         d="m 204,266 c 27.1633,0 49,-21.8367 49,-49 l 0,-1 c 0,27.1633 -21.8367,49 -49,49 L 84,265 C 56.8367,265 35,243.1633 35,216 l 0,1 c 0,27.1633 21.8367,49 49,49 l 120,0 z"
         style="opacity:0.5;color:#bebebe;fill:#000000;fill-opacity:1;fill-rule:nonzero;stroke:none;stroke-width:0;marker:none;visibility:visible;display:inline;overflow:visible;enable-background:accumulate"
         inkscape:connector-curvature="0" />
      <path
         id="path4087"
         d="m 429,156 c 1.1253,0 2,-0.8747 2,-2 l 0,-1 c 0,1.1253 -0.8747,2 -2,2 l -10,0 c -1.1253,0 -2,-0.8747 -2,-2 l 0,1 c 0,1.1253 0.8747,2 2,2 l 10,0 z"
         style="opacity:0.3;color:#bebebe;fill:#000000;fill-opacity:1;fill-rule:nonzero;stroke:none;stroke-width:0;marker:none;visibility:visible;display:inline;overflow:visible;enable-background:accumulate"
         inkscape:connector-curvature="0" />
      <path
         id="path4089"
         d="m 434,123 c 2.2333,0 4,-1.7667 4,-4 l 0,-1 c 0,2.2333 -1.7667,4 -4,4 l -12,0 c -2.2333,0 -4,-1.7667 -4,-4 l 0,1 c 0,2.2333 1.7667,4 4,4 l 12,0 z"
         style="opacity:0.3;color:#bebebe;fill:#000000;fill-opacity:1;fill-rule:nonzero;stroke:none;stroke-width:0;marker:none;visibility:visible;display:inline;overflow:visible;enable-background:accumulate"
         inkscape:connector-curvature="0" />
      <path
         id="path4091"
         d="m 440,83 c 3.3413,0 6,-2.6587 6,-6 l 0,-1 c 0,3.3413 -2.6587,6 -6,6 l -16,0 c -3.3413,0 -6,-2.6587 -6,-6 l 0,1 c 0,3.3413 2.6587,6 6,6 l 16,0 z"
         style="opacity:0.5;color:#bebebe;fill:#000000;fill-opacity:1;fill-rule:nonzero;stroke:none;stroke-width:0;marker:none;visibility:visible;display:inline;overflow:visible;enable-background:accumulate"
         inkscape:connector-curvature="0" />
      <path
         id="path4093"
         d="m 324,265 c 4.4493,0 8,-3.5507 8,-8 l 0,-1 c 0,4.4493 -3.5507,8 -8,8 l -24,0 c -4.4493,0 -8,-3.5507 -8,-8 l 0,1 c 0,4.4493 3.5507,8 8,8 l 24,0 z"
         style="opacity:0.5;color:#bebebe;fill:#000000;fill-opacity:1;fill-rule:nonzero;stroke:none;stroke-width:0;marker:none;visibility:visible;display:inline;overflow:visible;enable-background:accumulate"
         inkscape:connector-curvature="0" />
      <path
         id="path4095"
         d="m 362,120 c 9.4353,0 17,-7.5647 17,-17 l 0,-1 c 0,9.4353 -7.5647,17 -17,17 l -52,0 c -9.4353,0 -17,-7.5647 -17,-17 l 0,1 c 0,9.4353 7.5647,17 17,17 l 52,0 z"
         style="opacity:0.5;color:#bebebe;fill:#000000;fill-opacity:1;fill-rule:nonzero;stroke:none;stroke-width:0;marker:none;visibility:visible;display:inline;overflow:visible;enable-background:accumulate"
         inkscape:connector-curvature="0" />
      <path
         id="path4097"
         d="m 337.5,202 c 6.3883,0 11.5,-5.1117 11.5,-11.5 l 0,-1 c 0,6.3883 -5.1117,11.5 -11.5,11.5 l -35,0 c -6.3883,0 -11.5,-5.1117 -11.5,-11.5 l 0,1 c 0,6.3883 5.1117,11.5 11.5,11.5 l 35,0 z"
         style="opacity:0.5;color:#bebebe;fill:#000000;fill-opacity:1;fill-rule:nonzero;stroke:none;stroke-width:0;marker:none;visibility:visible;display:inline;overflow:visible;enable-background:accumulate"
         inkscape:connector-curvature="0" />
      <path
         inkscape:connector-curvature="0"
         id="path4280"
         d="M 84,265 C 56.836703,265 35,243.1633 35,216 l 0,-1 c 0,27.1633 21.836703,49 49,49 l 120,0 c 27.1633,0 49,-21.8367 49,-49 l 0,1 c 0,27.1633 -21.8367,49 -49,49 l -120,0 z"
         style="opacity:0.1;color:#bebebe;fill:#ffffff;fill-opacity:1;fill-rule:nonzero;stroke:none;stroke-width:0;marker:none;visibility:visible;display:inline;overflow:visible;enable-background:accumulate" />
      <path
         style="opacity:0.1;color:#bebebe;fill:#ffffff;fill-opacity:1;fill-rule:nonzero;stroke:none;stroke-width:0;marker:none;visibility:visible;display:inline;overflow:visible;enable-background:accumulate"
         d="m 300,264 c -4.4493,0 -8,-3.5507 -8,-8 l 0,-1 c 0,4.4493 3.5507,8 8,8 l 24,0 c 4.4493,0 8,-3.5507 8,-8 l 0,1 c 0,4.4493 -3.5507,8 -8,8 l -24,0 z"
         id="path4294"
         inkscape:connector-curvature="0" />
      <path
         style="opacity:0.1;color:#bebebe;fill:#ffffff;fill-opacity:1;fill-rule:nonzero;stroke:none;stroke-width:0;marker:none;visibility:visible;display:inline;overflow:visible;enable-background:accumulate"
         d="m 302.5,201 c -6.3883,0 -11.5,-5.1117 -11.5,-11.5 l 0,-1 c 0,6.3883 5.1117,11.5 11.5,11.5 l 35,0 c 6.3883,0 11.5,-5.1117 11.5,-11.5 l 0,1 c 0,6.3883 -5.1117,11.5 -11.5,11.5 l -35,0 z"
         id="path4296"
         inkscape:connector-curvature="0" />
      <path
         style="opacity:0.1;color:#bebebe;fill:#ffffff;fill-opacity:1;fill-rule:nonzero;stroke:none;stroke-width:0;marker:none;visibility:visible;display:inline;overflow:visible;enable-background:accumulate"
         d="m 310,119 c -9.4353,0 -17,-7.5647 -17,-17 l 0,-1 c 0,9.4353 7.5647,17 17,17 l 52,0 c 9.4353,0 17,-7.5647 17,-17 l 0,1 c 0,9.4353 -7.5647,17 -17,17 l -52,0 z"
         id="path4298"
         inkscape:connector-curvature="0" />
      <path
         style="opacity:0.1;color:#bebebe;fill:#ffffff;fill-opacity:1;fill-rule:nonzero;stroke:none;stroke-width:0;marker:none;visibility:visible;display:inline;overflow:visible;enable-background:accumulate"
         d="m 424,82 c -3.3413,0 -6,-2.658703 -6,-6 l 0,-1 c 0,3.341297 2.6587,6 6,6 l 16,0 c 3.3413,0 6,-2.658703 6,-6 l 0,1 c 0,3.341297 -2.6587,6 -6,6 l -16,0 z"
         id="path4300"
         inkscape:connector-curvature="0" />
      <path
         style="opacity:0.1;color:#bebebe;fill:#ffffff;fill-opacity:1;fill-rule:nonzero;stroke:none;stroke-width:0;marker:none;visibility:visible;display:inline;overflow:visible;enable-background:accumulate"
         d="m 422,122 c -2.2333,0 -4,-1.7667 -4,-4 l 0,-1 c 0,2.2333 1.7667,4 4,4 l 12,0 c 2.2333,0 4,-1.7667 4,-4 l 0,1 c 0,2.2333 -1.7667,4 -4,4 l -12,0 z"
         id="path4302"
         inkscape:connector-curvature="0" />
      <path
         style="opacity:0.1;color:#bebebe;fill:#ffffff;fill-opacity:1;fill-rule:nonzero;stroke:none;stroke-width:0;marker:none;visibility:visible;display:inline;overflow:visible;enable-background:accumulate"
         d="m 419,154.5 c -1.1253,0 -2,-0.8747 -2,-2 l 0,-1 c 0,1.1253 0.8747,2 2,2 l 10,0 c 1.1253,0 2,-0.8747 2,-2 l 0,1 c 0,1.1253 -0.8747,2 -2,2 l -10,0 z"
         id="path4304"
         inkscape:connector-curvature="0" />
    </g>
    <g
       inkscape:groupmode="layer"
       id="layer3"
       inkscape:label="Border"
       style="display:inline"
       sodipodi:insensitive="true">
      <path
         style="opacity:0.41000001;color:#bebebe;fill:#000000;fill-opacity:1;fill-rule:nonzero;stroke:none;stroke-width:0;marker:none;visibility:visible;display:inline;overflow:visible;enable-background:accumulate"
         d="m 422,101 c -2.77,0 -5,2.23 -5,5 l 0,12 c 0,2.77 2.23,5 5,5 l 12,0 c 2.77,0 5,-2.23 5,-5 l 0,-12 c 0,-2.77 -2.23,-5 -5,-5 l -12,0 z m 0,1 12,0 c 2.2333,0 4,1.7667 4,4 l 0,12 c 0,2.2333 -1.7667,4 -4,4 l -12,0 c -2.2333,0 -4,-1.7667 -4,-4 l 0,-12 c 0,-2.2333 1.7667,-4 4,-4 z"
         id="rect4099"
         inkscape:connector-curvature="0" />
      <path
         style="opacity:0.41000001;color:#bebebe;fill:#000000;fill-opacity:1;fill-rule:nonzero;stroke:none;stroke-width:0;marker:none;visibility:visible;display:inline;overflow:visible;enable-background:accumulate"
         d="m 424,53 c -3.878,0 -7,3.122 -7,7 l 0,16 c 0,3.878 3.122,7 7,7 l 16,0 c 3.878,0 7,-3.122 7,-7 l 0,-16 c 0,-3.878 -3.122,-7 -7,-7 l -16,0 z m 0,1 16,0 c 3.3413,0 6,2.658703 6,6 l 0,16 c 0,3.341297 -2.6587,6 -6,6 l -16,0 c -3.3413,0 -6,-2.658703 -6,-6 l 0,-16 c 0,-3.341297 2.6587,-6 6,-6 z"
         id="rect4151"
         inkscape:connector-curvature="0" />
      <path
         style="opacity:0.41000001;color:#bebebe;fill:#000000;fill-opacity:1;fill-rule:nonzero;stroke:none;stroke-width:0;marker:none;visibility:visible;display:inline;overflow:visible;enable-background:accumulate"
         d="m 419,140 c -1.662,0 -3,1.338 -3,3 l 0,10 c 0,1.662 1.338,3 3,3 l 10,0 c 1.662,0 3,-1.338 3,-3 l 0,-10 c 0,-1.662 -1.338,-3 -3,-3 l -10,0 z m 0,1 10,0 c 1.1253,0 2,0.8747 2,2 l 0,10 c 0,1.1253 -0.8747,2 -2,2 l -10,0 c -1.1253,0 -2,-0.8747 -2,-2 l 0,-10 c 0,-1.1253 0.8747,-2 2,-2 z"
         id="rect4095"
         inkscape:connector-curvature="0" />
      <path
         style="opacity:0.41000001;color:#bebebe;fill:#000000;fill-opacity:1;fill-rule:nonzero;stroke:none;stroke-width:0;marker:none;visibility:visible;display:inline;overflow:visible;enable-background:accumulate"
         d="m 300,223 c -4.986,0 -9,4.014 -9,9 l 0,24 c 0,4.986 4.014,9 9,9 l 24,0 c 4.986,0 9,-4.014 9,-9 l 0,-24 c 0,-4.986 -4.014,-9 -9,-9 l -24,0 z m 0,1 24,0 c 4.4493,0 8,3.5507 8,8 l 0,24 c 0,4.4493 -3.5507,8 -8,8 l -24,0 c -4.4493,0 -8,-3.5507 -8,-8 l 0,-24 c 0,-4.4493 3.5507,-8 8,-8 z"
         id="rect4783"
         inkscape:connector-curvature="0" />
      <path
         style="opacity:0.41000001;color:#bebebe;fill:#000000;fill-opacity:1;fill-rule:nonzero;stroke:none;stroke-width:0;marker:none;visibility:visible;display:inline;overflow:visible;enable-background:accumulate"
         d="m 302.5,142 c -6.925,0 -12.5,5.575 -12.5,12.5 l 0,35 c 0,6.925 5.575,12.5 12.5,12.5 l 35,0 c 6.925,0 12.5,-5.575 12.5,-12.5 l 0,-35 c 0,-6.925 -5.575,-12.5 -12.5,-12.5 l -35,0 z m 0,1 35,0 c 6.3883,0 11.5,5.1117 11.5,11.5 l 0,35 c 0,6.3883 -5.1117,11.5 -11.5,11.5 l -35,0 c -6.3883,0 -11.5,-5.1117 -11.5,-11.5 l 0,-35 c 0,-6.3883 5.1117,-11.5 11.5,-11.5 z"
         id="rect4515"
         inkscape:connector-curvature="0" />
      <path
         style="opacity:0.41000001;color:#bebebe;fill:#000000;fill-opacity:1;fill-rule:nonzero;stroke:none;stroke-width:0;marker:none;visibility:visible;display:inline;overflow:visible;enable-background:accumulate"
         d="m 310,32 c -9.972,0 -18,8.028 -18,18 l 0,52 c 0,9.972 8.028,18 18,18 l 52,0 c 9.972,0 18,-8.028 18,-18 l 0,-52 c 0,-9.972 -8.028,-18 -18,-18 l -52,0 z m 0,1 52,0 c 9.4353,0 17,7.564703 17,17 l 0,52 c 0,9.4353 -7.5647,17 -17,17 l -52,0 c -9.4353,0 -17,-7.5647 -17,-17 l 0,-52 c 0,-9.435297 7.5647,-17 17,-17 z"
         id="rect4511"
         inkscape:connector-curvature="0" />
      <path
         style="opacity:0.41000001;color:#bebebe;fill:#000000;fill-opacity:1;fill-rule:nonzero;stroke:none;stroke-width:0;marker:none;visibility:visible;display:inline;overflow:visible;enable-background:accumulate"
         d="M 84,46 C 56.3,46 34,68.3 34,96 l 0,120 c 0,27.7 22.3,50 50,50 l 120,0 c 27.7,0 50,-22.3 50,-50 L 254,96 C 254,68.3 231.7,46 204,46 L 84,46 z m 0,1 120,0 c 27.1633,0 49,21.836703 49,49 l 0,120 c 0,27.1633 -21.8367,49 -49,49 L 84,265 C 56.836703,265 35,243.1633 35,216 L 35,96 C 35,68.836703 56.836703,47 84,47 z"
         id="rect4040"
         inkscape:connector-curvature="0" />
    </g>
  </g>
</svg>
