<?xml version="1.0" encoding="UTF-8" standalone="no"?>
<!-- Created with Inkscape (http://www.inkscape.org/) -->

<svg
   xmlns:dc="http://purl.org/dc/elements/1.1/"
   xmlns:cc="http://creativecommons.org/ns#"
   xmlns:rdf="http://www.w3.org/1999/02/22-rdf-syntax-ns#"
   xmlns:svg="http://www.w3.org/2000/svg"
   xmlns="http://www.w3.org/2000/svg"
   xmlns:xlink="http://www.w3.org/1999/xlink"
   xmlns:sodipodi="http://sodipodi.sourceforge.net/DTD/sodipodi-0.dtd"
   xmlns:inkscape="http://www.inkscape.org/namespaces/inkscape"
   inkscape:export-ydpi="90.000000"
   inkscape:export-xdpi="90.000000"
   width="480"
   height="300"
   id="svg11300"
   sodipodi:version="0.32"
   inkscape:version="0.48.4 r9939"
   sodipodi:docname="web-jolicloud.svg"
   inkscape:output_extension="org.inkscape.output.svg.inkscape"
   version="1.0"
   style="display:inline;enable-background:new"
   inkscape:export-filename="/home/sam/moka2-template.png">
  <sodipodi:namedview
     stroke="#ef2929"
     fill="#f57900"
     id="base"
     pagecolor="#ffffff"
     bordercolor="#666666"
     borderopacity="0.25490196"
     inkscape:pageopacity="0"
     inkscape:pageshadow="2"
     inkscape:zoom="1"
     inkscape:cx="270.52052"
     inkscape:cy="174.53131"
     inkscape:current-layer="layer7"
     showgrid="false"
     inkscape:grid-bbox="true"
     inkscape:document-units="px"
     inkscape:showpageshadow="false"
     inkscape:window-width="1366"
     inkscape:window-height="702"
     inkscape:window-x="0"
     inkscape:window-y="27"
     width="400px"
     height="300px"
     inkscape:snap-nodes="true"
     inkscape:snap-bbox="true"
     gridtolerance="10000"
     inkscape:object-nodes="true"
     inkscape:snap-grids="true"
     showguides="true"
     inkscape:guide-bbox="true"
     inkscape:window-maximized="1"
     inkscape:bbox-nodes="true"
     inkscape:bbox-paths="true"
     inkscape:snap-bbox-edge-midpoints="true"
     inkscape:snap-bbox-midpoints="true">
    <inkscape:grid
       spacingy="1px"
       spacingx="1px"
       id="grid5883"
       type="xygrid"
       enabled="true"
       visible="true"
       empspacing="4"
       snapvisiblegridlinesonly="true"
       dotted="false"
       color="#000000"
       opacity="0.1254902"
       empcolor="#203ef3"
       empopacity="0.36470588" />
    <inkscape:grid
       type="xygrid"
       id="grid11592"
       empspacing="8"
       visible="true"
       enabled="false"
       spacingx="0.5px"
       spacingy="0.5px"
       color="#ff0000"
       opacity="0.1254902"
       empcolor="#ff0000"
       empopacity="0.25098039"
       snapvisiblegridlinesonly="true"
       dotted="true" />
  </sodipodi:namedview>
  <defs
     id="defs3">
    <linearGradient
       id="outerBackgroundGradient">
      <stop
         style="stop-color:#00a5f7;stop-opacity:1;"
         offset="0"
         id="stop3864-8-6" />
      <stop
         style="stop-color:#00bffa;stop-opacity:1;"
         offset="1"
         id="stop3866-9-1" />
    </linearGradient>
    <linearGradient
       inkscape:collect="always"
       xlink:href="#outerBackgroundGradient"
       id="linearGradient4097"
       gradientUnits="userSpaceOnUse"
       x1="264"
       y1="280.00003"
       x2="264"
       y2="40.00005"
       gradientTransform="matrix(0.06666667,0,0,0.06666667,414.4,137.33333)" />
    <linearGradient
       inkscape:collect="always"
       xlink:href="#outerBackgroundGradient"
       id="linearGradient4101"
       gradientUnits="userSpaceOnUse"
       gradientTransform="matrix(0.0875,0,0,0.0875,414.9,97.5)"
       x1="286.85715"
       y1="302.85715"
       x2="286.85715"
       y2="28.571428" />
    <linearGradient
       inkscape:collect="always"
       xlink:href="#outerBackgroundGradient"
       id="linearGradient4153"
       gradientUnits="userSpaceOnUse"
       gradientTransform="matrix(0.11931818,0,0,0.11931818,414.13636,48.22727)"
       x1="283.80957"
       y1="299.80954"
       x2="283.80957"
       y2="31.61907" />
    <linearGradient
       inkscape:collect="always"
       xlink:href="#outerBackgroundGradient"
       id="linearGradient4869"
       gradientUnits="userSpaceOnUse"
       gradientTransform="matrix(0.175,0,0,-0.175,286.79999,-215.99997)"
       x1="281.14291"
       y1="297.14304"
       x2="281.14291"
       y2="22.857315" />
    <clipPath
       clipPathUnits="userSpaceOnUse"
       id="clipPath4891">
      <rect
         ry="9"
         y="223"
         x="307"
         height="42"
         width="42"
         id="rect4893"
         style="color:#bebebe;fill:url(#linearGradient4895);fill-opacity:1;fill-rule:nonzero;stroke:none;stroke-width:0;marker:none;visibility:visible;display:inline;overflow:visible;enable-background:accumulate"
         transform="matrix(0,1,-1,0,0,0)" />
    </clipPath>
    <linearGradient
       inkscape:collect="always"
       xlink:href="#outerBackgroundGradient"
       id="linearGradient4895"
       gradientUnits="userSpaceOnUse"
       gradientTransform="matrix(0.175,0,0,0.175,302.79999,215.99997)"
       x1="144.00006"
       y1="280.00018"
       x2="144.00006"
       y2="40.000172" />
    <clipPath
       clipPathUnits="userSpaceOnUse"
       id="clipPath4044">
      <rect
         ry="4"
         y="85"
         x="433"
         height="22"
         width="22"
         id="rect4046"
         style="color:#bebebe;fill:url(#linearGradient4048);fill-opacity:1;fill-rule:nonzero;stroke:none;stroke-width:0;marker:none;visibility:visible;display:inline;overflow:visible;enable-background:accumulate" />
    </clipPath>
    <linearGradient
       inkscape:collect="always"
       xlink:href="#outerBackgroundGradient"
       id="linearGradient4048"
       gradientUnits="userSpaceOnUse"
       gradientTransform="matrix(0.0875,0,0,0.0875,430.9,81.499996)"
       x1="149.71428"
       y1="291.42862"
       x2="149.71428"
       y2="40.000046" />
    <clipPath
       clipPathUnits="userSpaceOnUse"
       id="clipPath4089">
      <rect
         style="color:#bebebe;fill:url(#linearGradient4093);fill-opacity:1;fill-rule:nonzero;stroke:none;stroke-width:0;marker:none;visibility:visible;display:inline;overflow:visible;enable-background:accumulate"
         id="rect4091"
         width="30"
         height="30"
         x="433"
         y="37"
         ry="6" />
    </clipPath>
    <linearGradient
       inkscape:collect="always"
       xlink:href="#outerBackgroundGradient"
       id="linearGradient4093"
       gradientUnits="userSpaceOnUse"
       gradientTransform="matrix(0.11931818,0,0,0.11931818,430.13636,32.227267)"
       x1="149.71432"
       y1="291.42862"
       x2="149.71432"
       y2="40.00005" />
    <clipPath
       clipPathUnits="userSpaceOnUse"
       id="clipPath3855">
      <rect
         style="color:#bebebe;fill:url(#linearGradient3859);fill-opacity:1;fill-rule:nonzero;stroke:none;stroke-width:0;marker:none;visibility:visible;display:inline;overflow:visible;enable-background:accumulate"
         id="rect3857"
         width="16"
         height="16"
         x="304"
         y="212"
         ry="3"
         transform="matrix(0,1,-1,0,0,0)" />
    </clipPath>
    <linearGradient
       inkscape:collect="always"
       xlink:href="#outerBackgroundGradient"
       id="linearGradient3859"
       gradientUnits="userSpaceOnUse"
       gradientTransform="matrix(0.06666667,0,0,0.06666667,302.4,209.33333)"
       x1="144"
       y1="280.00003"
       x2="144"
       y2="40.00005" />
    <clipPath
       clipPathUnits="userSpaceOnUse"
       id="clipPath3862">
      <rect
         ry="50"
         y="46"
         x="34"
         height="220"
         width="220"
         id="rect3864"
         style="color:#bebebe;fill:url(#linearGradient3866);fill-opacity:1;fill-rule:nonzero;stroke:none;stroke-width:0;marker:none;visibility:visible;display:inline;overflow:visible;enable-background:accumulate" />
    </clipPath>
    <linearGradient
       inkscape:collect="always"
       xlink:href="#outerBackgroundGradient"
       id="linearGradient3866"
       gradientUnits="userSpaceOnUse"
       gradientTransform="translate(0,-4)"
       x1="144"
       y1="280"
       x2="144"
       y2="40" />
    <linearGradient
       inkscape:collect="always"
       xlink:href="#outerBackgroundGradient"
       id="linearGradient3876"
       gradientUnits="userSpaceOnUse"
       gradientTransform="translate(0,-4)"
       x1="272"
       y1="288"
       x2="272"
       y2="32" />
    <clipPath
       clipPathUnits="userSpaceOnUse"
       id="clipPath4187">
      <rect
         ry="12.5"
         y="142"
         x="290"
         height="60"
         width="60"
         id="rect4189"
         style="color:#bebebe;fill:url(#linearGradient4191);fill-opacity:1;fill-rule:nonzero;stroke:none;stroke-width:0;marker:none;visibility:visible;display:inline;overflow:visible;enable-background:accumulate" />
    </clipPath>
    <linearGradient
       inkscape:collect="always"
       xlink:href="#outerBackgroundGradient"
       id="linearGradient4191"
       gradientUnits="userSpaceOnUse"
       x1="352"
       y1="204"
       x2="352"
       y2="140" />
    <linearGradient
       inkscape:collect="always"
       xlink:href="#outerBackgroundGradient"
       id="linearGradient4197"
       gradientUnits="userSpaceOnUse"
       x1="384"
       y1="124"
       x2="384"
       y2="28" />
    <linearGradient
       inkscape:collect="always"
       xlink:href="#outerBackgroundGradient"
       id="linearGradient4199"
       gradientUnits="userSpaceOnUse"
       x1="352"
       y1="204"
       x2="352"
       y2="140" />
    <clipPath
       clipPathUnits="userSpaceOnUse"
       id="clipPath4346">
      <rect
         style="color:#bebebe;fill:url(#linearGradient4350);fill-opacity:1;fill-rule:nonzero;stroke:none;stroke-width:0;marker:none;visibility:visible;display:inline;overflow:visible;enable-background:accumulate"
         id="rect4348"
         width="88"
         height="88"
         x="292"
         y="32"
         ry="18" />
    </clipPath>
    <linearGradient
       inkscape:collect="always"
       xlink:href="#outerBackgroundGradient"
       id="linearGradient4350"
       gradientUnits="userSpaceOnUse"
       x1="384"
       y1="124"
       x2="384"
       y2="28" />
    <clipPath
       clipPathUnits="userSpaceOnUse"
       id="clipPath3871">
      <rect
         ry="5"
         y="101"
         x="417"
         height="22"
         width="22"
         id="rect3873"
         style="color:#bebebe;fill:url(#linearGradient3875);fill-opacity:1;fill-rule:nonzero;stroke:none;stroke-width:0;marker:none;visibility:visible;display:inline;overflow:visible;enable-background:accumulate" />
    </clipPath>
    <linearGradient
       inkscape:collect="always"
       xlink:href="#outerBackgroundGradient"
       id="linearGradient3875"
       gradientUnits="userSpaceOnUse"
       gradientTransform="matrix(0.0875,0,0,0.0875,414.9,97.5)"
       x1="286.85715"
       y1="302.85715"
       x2="286.85715"
       y2="28.571428" />
    <clipPath
       clipPathUnits="userSpaceOnUse"
       id="clipPath3881">
      <rect
         style="color:#bebebe;fill:url(#linearGradient3885);fill-opacity:1;fill-rule:nonzero;stroke:none;stroke-width:0;marker:none;visibility:visible;display:inline;overflow:visible;enable-background:accumulate"
         id="rect3883"
         width="30"
         height="30"
         x="417"
         y="53"
         ry="7" />
    </clipPath>
    <linearGradient
       inkscape:collect="always"
       xlink:href="#outerBackgroundGradient"
       id="linearGradient3885"
       gradientUnits="userSpaceOnUse"
       gradientTransform="matrix(0.11931818,0,0,0.11931818,414.13636,48.22727)"
       x1="283.80957"
       y1="299.80954"
       x2="283.80957"
       y2="31.61907" />
  </defs>
  <metadata
     id="metadata4">
    <rdf:RDF>
      <cc:Work
         rdf:about="">
        <dc:format>image/svg+xml</dc:format>
        <dc:type
           rdf:resource="http://purl.org/dc/dcmitype/StillImage" />
        <dc:creator>
          <cc:Agent>
            <dc:title>Sam Hewitt</dc:title>
          </cc:Agent>
        </dc:creator>
        <dc:source />
        <cc:license
           rdf:resource="" />
        <dc:title />
        <dc:subject>
          <rdf:Bag />
        </dc:subject>
        <dc:date />
        <dc:rights>
          <cc:Agent>
            <dc:title />
          </cc:Agent>
        </dc:rights>
        <dc:publisher>
          <cc:Agent>
            <dc:title />
          </cc:Agent>
        </dc:publisher>
        <dc:identifier />
        <dc:relation />
        <dc:language />
        <dc:coverage />
        <dc:description />
        <dc:contributor>
          <cc:Agent>
            <dc:title />
          </cc:Agent>
        </dc:contributor>
      </cc:Work>
      <cc:Work
         rdf:about="">
        <dc:format>image/svg+xml</dc:format>
        <dc:type
           rdf:resource="http://purl.org/dc/dcmitype/StillImage" />
      </cc:Work>
    </rdf:RDF>
  </metadata>
  <g
     style="display:inline"
     inkscape:groupmode="layer"
     inkscape:label="Icon"
     id="layer1">
    <g
       style="display:none"
       inkscape:label="Baseplate"
       id="layer7"
       inkscape:groupmode="layer">
      <text
         y="19.745117"
         xml:space="preserve"
         x="15.006836"
         style="font-size:18px;font-style:normal;font-variant:normal;font-weight:normal;font-stretch:normal;fill:#000000;fill-opacity:1;stroke:none;display:inline;enable-background:new;font-family:DejaVu Sans;-inkscape-font-specification:DejaVu Sans"
         inkscape:label="context"
         id="context"><tspan
           style="font-style:normal;font-variant:normal;font-weight:normal;font-stretch:normal;font-family:DejaVu Sans;-inkscape-font-specification:DejaVu Sans"
           y="19.745117"
           x="15.006836"
           sodipodi:role="line"
           id="tspan3933">web</tspan></text>
      <text
         y="19.745117"
         xml:space="preserve"
         x="122.48828"
         style="font-size:18px;font-style:normal;font-variant:normal;font-weight:bold;font-stretch:normal;text-align:start;line-height:125%;writing-mode:lr-tb;text-anchor:start;fill:#000000;fill-opacity:1;stroke:none;display:inline;enable-background:new;font-family:DejaVu Sans;-inkscape-font-specification:DejaVu Sans Bold"
         sodipodi:linespacing="125%"
         inkscape:label="icon-name"
         id="icon-name"><tspan
           style="font-size:18px;font-style:normal;font-variant:normal;font-weight:bold;font-stretch:normal;font-family:DejaVu Sans;-inkscape-font-specification:DejaVu Sans Bold"
           y="19.745117"
           x="122.48828"
           sodipodi:role="line"
           id="tspan3937">web-jolidrive</tspan></text>
      <rect
         style="fill:#eeeeec;fill-opacity:1;fill-rule:nonzero;stroke:none;stroke-width:2;marker:none;visibility:visible;display:inline;overflow:visible;enable-background:accumulate"
         id="rect16x16"
         width="16"
         height="16"
         x="416"
         y="140"
         inkscape:label="16x16" />
      <rect
         style="fill:#d4d4d4;fill-opacity:1;fill-rule:nonzero;stroke:none;stroke-width:2;marker:none;visibility:visible;display:inline;overflow:visible;enable-background:accumulate"
         id="rect24x24"
         width="24"
         height="24"
         x="416"
         y="100"
         inkscape:label="24x24" />
      <rect
         style="fill:#eeeeec;fill-opacity:1;fill-rule:nonzero;stroke:none;stroke-width:2;marker:none;visibility:visible;display:inline;overflow:visible;enable-background:accumulate"
         id="rect32x32"
         width="32"
         height="32"
         x="416"
         y="52"
         inkscape:label="32x32" />
      <rect
         inkscape:label="22x22"
         y="101"
         x="417"
         height="22"
         width="22"
         id="rect22x22"
         style="fill:#eeeeec;fill-opacity:1;fill-rule:nonzero;stroke:none;stroke-width:2;marker:none;visibility:visible;display:inline;overflow:visible;enable-background:accumulate" />
      <rect
         inkscape:label="48x48"
         y="220"
         x="288"
         height="48"
         width="48"
         id="rect48x48"
         style="fill:#eeeeec;fill-opacity:1;fill-rule:nonzero;stroke:none;stroke-width:2;marker:none;visibility:visible;display:inline;overflow:visible;enable-background:accumulate" />
      <rect
         style="fill:#eeeeec;fill-opacity:1;fill-rule:nonzero;stroke:none;stroke-width:2;marker:none;visibility:visible;display:inline;overflow:visible;enable-background:accumulate"
         id="rect256x256"
         width="256"
         height="256"
         x="16"
         y="28"
         inkscape:label="256x256" />
      <rect
         style="fill:#eeeeec;fill-opacity:1;fill-rule:nonzero;stroke:none;stroke-width:2;marker:none;visibility:visible;display:inline;overflow:visible;enable-background:accumulate"
         id="rect64x64"
         width="64"
         height="64"
         x="288"
         y="140"
         inkscape:label="64x64" />
      <rect
         style="fill:#eeeeec;fill-opacity:1;fill-rule:nonzero;stroke:none;stroke-width:2;marker:none;visibility:visible;display:inline;overflow:visible;enable-background:accumulate"
         id="rect96x96"
         width="96"
         height="96"
         x="288"
         y="28"
         inkscape:label="96x96" />
    </g>
    <g
       inkscape:groupmode="layer"
       id="layer4"
       inkscape:label="Shadow"
       style="display:inline"
       sodipodi:insensitive="true">
      <rect
         style="opacity:0.0;color:#bebebe;fill:#000000;fill-opacity:1;stroke:#000000;stroke-width:1;stroke-miterlimit:4;stroke-opacity:1;stroke-dasharray:none;marker:none;visibility:visible;display:inline;overflow:visible;enable-background:accumulate"
         id="rect4156"
         width="42"
         height="42"
         x="-266.5"
         y="291"
         ry="9"
         transform="matrix(0,-1,1,0,0,0)" />
      <rect
         transform="matrix(0,-1,1,0,0,0)"
         ry="9"
         y="291"
         x="-266.5"
         height="42"
         width="40"
         id="rect4183"
         style="opacity:0.1;color:#bebebe;fill:#000000;fill-opacity:1;stroke:none;stroke-width:1;marker:none;visibility:visible;display:inline;overflow:visible;enable-background:accumulate" />
      <rect
         ry="9"
         y="237"
         x="291"
         height="29"
         width="42"
         id="rect4144"
         style="opacity:0.1;color:#bebebe;fill:#000000;fill-opacity:1;fill-rule:nonzero;stroke:none;stroke-width:0;marker:none;visibility:visible;display:inline;overflow:visible;enable-background:accumulate" />
      <rect
         style="opacity:0.0;color:#bebebe;fill:#000000;fill-opacity:1;fill-rule:nonzero;stroke:#000000;stroke-width:1;stroke-miterlimit:4;stroke-opacity:1;stroke-dasharray:none;marker:none;visibility:visible;display:inline;overflow:visible;enable-background:accumulate"
         id="rect4340"
         width="88"
         height="88"
         x="292"
         y="33.5"
         ry="18" />
      <rect
         ry="18"
         y="52.5"
         x="292"
         height="69"
         width="88"
         id="rect4338"
         style="opacity:0.1;color:#bebebe;fill:#000000;fill-opacity:1;fill-rule:nonzero;stroke:none;stroke-width:0;marker:none;visibility:visible;display:inline;overflow:visible;enable-background:accumulate" />
      <rect
         style="opacity:0.1;color:#bebebe;fill:#000000;fill-opacity:1;fill-rule:nonzero;stroke:none;stroke-width:0;marker:none;visibility:visible;display:inline;overflow:visible;enable-background:accumulate"
         id="rect4335"
         width="88"
         height="76.5"
         x="292"
         y="44.5"
         ry="18" />
      <rect
         style="opacity:0.0;color:#bebebe;fill:#000000;fill-opacity:1;fill-rule:nonzero;stroke:#000000;stroke-width:1;stroke-miterlimit:4;stroke-opacity:1;stroke-dasharray:none;marker:none;visibility:visible;display:inline;overflow:visible;enable-background:accumulate"
         id="rect4214"
         width="60"
         height="60"
         x="290"
         y="143.5"
         ry="12.5" />
      <rect
         ry="12.5"
         y="151.5"
         x="290"
         height="52"
         width="60"
         id="rect4206"
         style="opacity:0.1;color:#bebebe;fill:#000000;fill-opacity:1;fill-rule:nonzero;stroke:none;stroke-width:0;marker:none;visibility:visible;display:inline;overflow:visible;enable-background:accumulate" />
      <rect
         style="opacity:0.1;color:#bebebe;fill:#000000;fill-opacity:1;fill-rule:nonzero;stroke:none;stroke-width:0;marker:none;visibility:visible;display:inline;overflow:visible;enable-background:accumulate"
         id="rect4212"
         width="60"
         height="54.5"
         x="290"
         y="148.5"
         ry="12.5" />
      <rect
         style="opacity:0.2;color:#bebebe;fill:#000000;fill-opacity:1;fill-rule:nonzero;stroke:none;stroke-width:0;marker:none;visibility:visible;display:inline;overflow:visible;enable-background:accumulate"
         id="rect4058"
         width="30"
         height="30"
         x="417"
         y="54"
         ry="7" />
      <rect
         ry="50"
         y="48"
         x="34"
         height="220"
         width="220"
         id="rect3872"
         style="opacity:0.0;color:#bebebe;fill:#000000;fill-opacity:1;fill-rule:nonzero;stroke:#000000;stroke-width:2;stroke-miterlimit:4;stroke-opacity:1;stroke-dasharray:none;marker:none;visibility:visible;display:inline;overflow:visible;enable-background:accumulate" />
      <rect
         style="opacity:0.1;color:#bebebe;fill:#000000;fill-opacity:1;fill-rule:nonzero;stroke:none;stroke-width:0;marker:none;visibility:visible;display:inline;overflow:visible;enable-background:accumulate"
         id="rect3870"
         width="220"
         height="220"
         x="34"
         y="48"
         ry="50" />
      <rect
         ry="50"
         y="47"
         x="34"
         height="220"
         width="220"
         id="rect3868"
         style="opacity:0.1;color:#bebebe;fill:#000000;fill-opacity:1;fill-rule:nonzero;stroke:none;stroke-width:0;marker:none;visibility:visible;display:inline;overflow:visible;enable-background:accumulate" />
    </g>
    <g
       inkscape:groupmode="layer"
       id="layer2"
       inkscape:label="Background"
       style="display:inline">
      <rect
         style="color:#bebebe;fill:url(#linearGradient3876);fill-opacity:1;fill-rule:nonzero;stroke:none;stroke-width:0;marker:none;visibility:visible;display:inline;overflow:visible;enable-background:accumulate"
         id="rect4040"
         width="220"
         height="220"
         x="34"
         y="46"
         ry="50" />
      <rect
         ry="3"
         y="140"
         x="416"
         height="16"
         width="16"
         id="rect4095"
         style="color:#bebebe;fill:url(#linearGradient4097);fill-opacity:1;fill-rule:nonzero;stroke:none;stroke-width:0;marker:none;visibility:visible;display:inline;overflow:visible;enable-background:accumulate" />
      <rect
         style="color:#bebebe;fill:url(#linearGradient4101);fill-opacity:1;fill-rule:nonzero;stroke:none;stroke-width:0;marker:none;visibility:visible;display:inline;overflow:visible;enable-background:accumulate"
         id="rect4099"
         width="22"
         height="22"
         x="417"
         y="101"
         ry="5" />
      <rect
         ry="7"
         y="53"
         x="417"
         height="30"
         width="30"
         id="rect4151"
         style="color:#bebebe;fill:url(#linearGradient4153);fill-opacity:1;fill-rule:nonzero;stroke:none;stroke-width:0;marker:none;visibility:visible;display:inline;overflow:visible;enable-background:accumulate" />
      <rect
         style="color:#bebebe;fill:url(#linearGradient4869);fill-opacity:1;fill-rule:nonzero;stroke:none;stroke-width:0;marker:none;visibility:visible;display:inline;overflow:visible;enable-background:accumulate"
         id="rect4783"
         width="42"
         height="42"
         x="291"
         y="-265"
         ry="9"
         transform="scale(1,-1)" />
      <rect
         ry="18"
         y="32"
         x="292"
         height="88"
         width="88"
         id="rect4511"
         style="color:#bebebe;fill:url(#linearGradient4197);fill-opacity:1;fill-rule:nonzero;stroke:none;stroke-width:0;marker:none;visibility:visible;display:inline;overflow:visible;enable-background:accumulate" />
      <rect
         style="color:#bebebe;fill:url(#linearGradient4199);fill-opacity:1;fill-rule:nonzero;stroke:none;stroke-width:0;marker:none;visibility:visible;display:inline;overflow:visible;enable-background:accumulate"
         id="rect4515"
         width="60"
         height="60"
         x="290"
         y="142"
         ry="12.5" />
    </g>
    <g
       inkscape:groupmode="layer"
       id="layer6"
       inkscape:label="Symbols"
       style="display:inline">
      <path
         sodipodi:nodetypes="sssssssssssssssscs"
         inkscape:connector-curvature="0"
         id="path3961"
         d="m 223.99433,189.98169 c -0.008,-1.53061 -0.33548,-1.78371 -2.95652,-2.28878 -3.82881,-0.73781 -8.80273,-2.45589 -12.34865,-4.26542 -9.21376,-4.70195 -16.42728,-12.49292 -19.74496,-21.32554 -1.74255,-4.6392 -2.33251,-7.81722 -2.71197,-14.609 -0.18204,-3.2584 -0.5866,-7.12825 -0.89903,-8.59969 -3.46083,-16.29995 -15.58177,-28.89377 -32.0552,-33.30575 -4.77381,-1.27854 -13.4072,-1.60993 -18.32847,-0.70352 -15.48941,2.85288 -27.77092,12.86485 -33.45589,27.27347 -0.60931,1.54431 -1.22541,3.43457 -1.36912,4.20057 -0.29075,1.54985 0.0792,1.50124 -4.42384,0.58126 -3.09148,-0.6316 -8.963913,-0.26983 -12.218988,0.75275 -5.265988,1.65431 -9.610285,4.51029 -13.049588,8.57891 -7.114423,8.4162 -8.450628,20.21978 -3.390103,29.94676 2.819955,5.42031 8.839738,10.85506 14.259943,12.87408 5.170685,1.92608 2.025085,1.84712 74.845666,1.87871 L 224,191 z"
         style="opacity:0.2;fill:#000000;fill-opacity:1;display:inline;enable-background:new" />
      <path
         style="opacity:0.2;fill:#000000;fill-opacity:1;display:inline;enable-background:new"
         d="m 365.99787,91.618133 c -0.003,-0.573975 -0.1258,-0.668891 -1.1087,-0.858291 -1.4358,-0.276684 -3.30101,-0.920959 -4.63074,-1.599534 -3.45516,-1.763233 -6.16022,-4.684841 -7.40436,-7.997075 -0.65345,-1.7397 -0.87469,-2.931458 -1.01699,-5.478375 -0.0683,-1.2219 -0.21997,-2.6731 -0.33713,-3.224883 -1.29781,-6.112483 -5.84317,-10.835166 -12.0207,-12.489658 -1.79018,-0.47945 -5.0277,-0.603725 -6.87318,-0.263817 -5.80853,1.069825 -10.4141,4.824317 -12.54595,10.22755 -0.2285,0.579117 -0.45954,1.287958 -0.51343,1.575208 -0.10902,0.5812 0.0297,0.562967 -1.65893,0.217975 -1.15931,-0.23685 -3.36148,-0.101183 -4.58213,0.282284 -1.97474,0.620366 -3.60386,1.691358 -4.89359,3.217091 -2.66791,3.156075 -3.16899,7.582417 -1.27129,11.230034 1.05748,2.032616 3.3149,4.07065 5.34747,4.827783 1.93901,0.722275 0.75941,0.692667 28.06713,0.704508 L 366,92 z"
         id="path3963"
         inkscape:connector-curvature="0"
         sodipodi:nodetypes="sssssssssssssssscs" />
      <path
         sodipodi:nodetypes="sssssssssssssssscs"
         inkscape:connector-curvature="0"
         id="path3965"
         d="m 341.99844,183.71996 c -0.002,-0.42091 -0.0923,-0.49052 -0.81305,-0.62941 -1.05292,-0.2029 -2.42074,-0.67537 -3.39588,-1.17299 -2.53378,-1.29304 -4.51749,-3.43555 -5.42986,-5.86452 -0.4792,-1.27578 -0.64144,-2.14974 -0.74579,-4.01748 -0.0501,-0.89606 -0.16131,-1.96027 -0.24723,-2.36491 -0.95173,-4.48249 -4.28499,-7.94579 -8.81518,-9.15908 -1.3128,-0.3516 -3.68698,-0.44273 -5.04033,-0.19347 -4.25959,0.78454 -7.63701,3.53783 -9.20037,7.5002 -0.16756,0.42469 -0.33699,0.94451 -0.37651,1.15516 -0.0799,0.42621 0.0218,0.41284 -1.21655,0.15984 -0.85016,-0.17368 -2.46509,-0.0742 -3.36023,0.20701 -1.44814,0.45494 -2.64283,1.24033 -3.58863,2.3592 -1.95647,2.31446 -2.32393,5.56044 -0.93228,8.23536 0.77548,1.49059 2.43093,2.98514 3.92148,3.54038 1.42194,0.52966 0.5569,0.50795 20.58256,0.51663 L 342,184 z"
         style="opacity:0.2;fill:#000000;fill-opacity:1;display:inline;enable-background:new" />
      <path
         style="opacity:0.2;fill:#000000;fill-opacity:1;display:inline;enable-background:new"
         d="m 326.99893,252.80906 c -10e-4,-0.28698 -0.0629,-0.33444 -0.55435,-0.42914 -0.7179,-0.13834 -1.6505,-0.46048 -2.31537,-0.79977 -1.72758,-0.88161 -3.08011,-2.34242 -3.70218,-3.99853 -0.32673,-0.86985 -0.43734,-1.46573 -0.50849,-2.73919 -0.0342,-0.61095 -0.10999,-1.33655 -0.16857,-1.61244 -0.6489,-3.05624 -2.92158,-5.41758 -6.01035,-6.24483 -0.89509,-0.23972 -2.51385,-0.30186 -3.43659,-0.13191 -2.90426,0.53491 -5.20705,2.41216 -6.27297,5.11377 -0.11425,0.28956 -0.22977,0.64399 -0.25672,0.78761 -0.0545,0.2906 0.0149,0.28148 -0.82946,0.10898 -0.57966,-0.11841 -1.68074,-0.0506 -2.29107,0.14115 -0.98737,0.31018 -1.80193,0.84568 -2.44679,1.60854 -1.33396,1.57804 -1.5845,3.79121 -0.63565,5.61502 0.52874,1.01631 1.65746,2.03532 2.67374,2.4139 0.9695,0.36113 0.3797,0.34633 14.03356,0.35224 L 327,253 z"
         id="path3967"
         inkscape:connector-curvature="0"
         sodipodi:nodetypes="sssssssssssssssscs" />
      <path
         sodipodi:nodetypes="sssssssssssssssscs"
         inkscape:connector-curvature="0"
         id="path3969"
         d="m 441.99929,73.872711 c -10e-4,-0.191325 -0.0419,-0.222964 -0.36957,-0.286097 -0.4786,-0.09223 -1.10033,-0.306986 -1.54358,-0.533178 -1.15172,-0.587744 -2.0534,-1.561614 -2.46812,-2.665692 -0.21781,-0.5799 -0.29156,-0.977152 -0.33899,-1.826125 -0.0228,-0.4073 -0.0733,-0.891033 -0.11238,-1.074961 -0.4326,-2.037494 -1.94772,-3.611721 -4.0069,-4.163219 -0.59673,-0.159816 -1.6759,-0.201241 -2.29106,-0.08794 -1.93618,0.356609 -3.47137,1.608106 -4.18198,3.409184 -0.0762,0.193039 -0.15318,0.429319 -0.17115,0.525069 -0.0363,0.193733 0.01,0.187655 -0.55297,0.07266 -0.38644,-0.07895 -1.1205,-0.03373 -1.52738,0.09409 -0.65825,0.206788 -1.20129,0.563786 -1.6312,1.072363 -0.8893,1.052025 -1.05633,2.527473 -0.42376,3.743345 0.35249,0.677539 1.10497,1.356883 1.78249,1.609261 0.64634,0.240758 0.25314,0.230889 9.35571,0.234836 L 442,74 z"
         style="opacity:0.2;fill:#000000;fill-opacity:1;display:inline;enable-background:new" />
      <path
         style="opacity:0.2;fill:#000000;fill-opacity:1;display:inline;enable-background:new"
         d="m 435.99943,116.89807 c -8e-4,-0.15306 -0.0335,-0.17837 -0.29566,-0.22888 -0.38288,-0.0738 -0.88026,-0.24559 -1.23486,-0.42654 -0.92138,-0.4702 -1.64272,-1.24929 -1.9745,-2.13255 -0.17424,-0.46392 -0.23324,-0.78173 -0.27119,-1.4609 -0.0182,-0.32584 -0.0586,-0.71283 -0.0899,-0.85997 -0.34608,-1.63 -1.55818,-2.88938 -3.20552,-3.33058 -0.47739,-0.12785 -1.34072,-0.16099 -1.83285,-0.0703 -1.54894,0.28529 -2.77709,1.28649 -3.34558,2.72735 -0.061,0.15443 -0.12255,0.34345 -0.13692,0.42005 -0.029,0.15499 0.008,0.15013 -0.44238,0.0581 -0.30915,-0.0632 -0.8964,-0.027 -1.2219,0.0753 -0.5266,0.16544 -0.96103,0.45103 -1.30496,0.85789 -0.71144,0.84162 -0.84507,2.02198 -0.33901,2.99468 0.28199,0.54203 0.88398,1.08551 1.42599,1.28741 0.51707,0.1926 0.20251,0.18471 7.48457,0.18787 L 436,117 z"
         id="path3971"
         inkscape:connector-curvature="0"
         sodipodi:nodetypes="sssssssssssssssscs" />
      <path
         sodipodi:nodetypes="sssssssssssssssscs"
         inkscape:connector-curvature="0"
         id="path3973"
         d="m 429.99961,151.92282 c -6e-4,-0.11479 -0.0251,-0.13377 -0.22174,-0.17166 -0.28716,-0.0554 -0.6602,-0.18419 -0.92615,-0.3199 -0.69103,-0.35265 -1.23204,-0.93696 -1.48087,-1.59941 -0.13068,-0.34794 -0.17493,-0.5863 -0.20339,-1.09567 -0.0136,-0.24438 -0.044,-0.53463 -0.0675,-0.64497 -0.25956,-1.2225 -1.16862,-2.16704 -2.40413,-2.49793 -0.35804,-0.0959 -1.00554,-0.12075 -1.37463,-0.0527 -1.1617,0.21397 -2.08281,0.96487 -2.50918,2.04551 -0.0458,0.11581 -0.0919,0.25759 -0.10269,0.31503 -0.0218,0.11625 0.006,0.1126 -0.33178,0.0435 -0.23187,-0.0474 -0.6723,-0.0202 -0.91643,0.0565 -0.39495,0.12408 -0.72077,0.33827 -0.97871,0.64341 -0.53358,0.63122 -0.63381,1.51648 -0.25427,2.24601 0.2115,0.40652 0.66299,0.81413 1.0695,0.96555 0.3878,0.14445 0.15188,0.13853 5.61341,0.14091 L 430,152 z"
         style="opacity:0.2;fill:#000000;fill-opacity:1;display:inline;enable-background:new" />
      <path
         style="display:inline;enable-background:new;fill:#ffffff;fill-opacity:1"
         d="m 223.99433,188.98169 c -0.008,-1.53061 -0.33548,-1.78371 -2.95652,-2.28878 -3.82881,-0.73781 -8.80273,-2.45589 -12.34865,-4.26542 -9.21376,-4.70195 -16.42728,-12.49292 -19.74496,-21.32554 -1.74255,-4.6392 -2.33251,-7.81722 -2.71197,-14.609 -0.18204,-3.2584 -0.5866,-7.12825 -0.89903,-8.59969 -3.46083,-16.29995 -15.58177,-28.89377 -32.0552,-33.30575 -4.77381,-1.27854 -13.4072,-1.60993 -18.32847,-0.70352 -15.48941,2.85288 -27.77092,12.86485 -33.45589,27.27347 -0.60931,1.54431 -1.22541,3.43457 -1.36912,4.20057 -0.29075,1.54985 0.0792,1.50124 -4.42384,0.58126 -3.09148,-0.6316 -8.963913,-0.26983 -12.218988,0.75275 -5.265988,1.65431 -9.610285,4.51029 -13.049588,8.57891 -7.114423,8.4162 -8.450628,20.21978 -3.390103,29.94676 2.819955,5.42031 8.839738,10.85506 14.259943,12.87408 5.170685,1.92608 2.025085,1.84712 74.845666,1.87871 L 224,190 z"
         id="path3946"
         inkscape:connector-curvature="0"
         sodipodi:nodetypes="sssssssssssssssscs" />
      <path
         sodipodi:nodetypes="sssssssssssssssscs"
         inkscape:connector-curvature="0"
         id="path3949"
         d="m 365.99787,90.618133 c -0.003,-0.573975 -0.1258,-0.668891 -1.1087,-0.858291 -1.4358,-0.276684 -3.30101,-0.920959 -4.63074,-1.599534 -3.45516,-1.763233 -6.16022,-4.684841 -7.40436,-7.997075 -0.65345,-1.7397 -0.87469,-2.931458 -1.01699,-5.478375 -0.0683,-1.2219 -0.21997,-2.6731 -0.33713,-3.224883 -1.29781,-6.112483 -5.84317,-10.835166 -12.0207,-12.489658 -1.79018,-0.47945 -5.0277,-0.603725 -6.87318,-0.263817 -5.80853,1.069825 -10.4141,4.824317 -12.54595,10.22755 -0.2285,0.579117 -0.45954,1.287958 -0.51343,1.575208 -0.10902,0.5812 0.0297,0.562967 -1.65893,0.217975 -1.15931,-0.23685 -3.36148,-0.101183 -4.58213,0.282284 -1.97474,0.620366 -3.60386,1.691358 -4.89359,3.217091 -2.66791,3.156075 -3.16899,7.582417 -1.27129,11.230034 1.05748,2.032616 3.3149,4.07065 5.34747,4.827783 1.93901,0.722275 0.75941,0.692667 28.06713,0.704508 L 366,91 z"
         style="fill:#ffffff;fill-opacity:1;display:inline;enable-background:new" />
      <path
         style="fill:#ffffff;fill-opacity:1;display:inline;enable-background:new"
         d="m 341.99844,182.71996 c -0.002,-0.42091 -0.0923,-0.49052 -0.81305,-0.62941 -1.05292,-0.2029 -2.42074,-0.67537 -3.39588,-1.17299 -2.53378,-1.29304 -4.51749,-3.43555 -5.42986,-5.86452 -0.4792,-1.27578 -0.64144,-2.14974 -0.74579,-4.01748 -0.0501,-0.89606 -0.16131,-1.96027 -0.24723,-2.36491 -0.95173,-4.48249 -4.28499,-7.94579 -8.81518,-9.15908 -1.3128,-0.3516 -3.68698,-0.44273 -5.04033,-0.19347 -4.25959,0.78454 -7.63701,3.53783 -9.20037,7.5002 -0.16756,0.42469 -0.33699,0.94451 -0.37651,1.15516 -0.0799,0.42621 0.0218,0.41284 -1.21655,0.15984 -0.85016,-0.17368 -2.46509,-0.0742 -3.36023,0.20701 -1.44814,0.45494 -2.64283,1.24033 -3.58863,2.3592 -1.95647,2.31446 -2.32393,5.56044 -0.93228,8.23536 0.77548,1.49059 2.43093,2.98514 3.92148,3.54038 1.42194,0.52966 0.5569,0.50795 20.58256,0.51663 L 342,183 z"
         id="path3951"
         inkscape:connector-curvature="0"
         sodipodi:nodetypes="sssssssssssssssscs" />
      <path
         sodipodi:nodetypes="sssssssssssssssscs"
         inkscape:connector-curvature="0"
         id="path3953"
         d="m 326.99893,251.80906 c -10e-4,-0.28698 -0.0629,-0.33444 -0.55435,-0.42914 -0.7179,-0.13834 -1.6505,-0.46048 -2.31537,-0.79977 -1.72758,-0.88161 -3.08011,-2.34242 -3.70218,-3.99853 -0.32673,-0.86985 -0.43734,-1.46573 -0.50849,-2.73919 -0.0342,-0.61095 -0.10999,-1.33655 -0.16857,-1.61244 -0.6489,-3.05624 -2.92158,-5.41758 -6.01035,-6.24483 -0.89509,-0.23972 -2.51385,-0.30186 -3.43659,-0.13191 -2.90426,0.53491 -5.20705,2.41216 -6.27297,5.11377 -0.11425,0.28956 -0.22977,0.64399 -0.25672,0.78761 -0.0545,0.2906 0.0149,0.28148 -0.82946,0.10898 -0.57966,-0.11841 -1.68074,-0.0506 -2.29107,0.14115 -0.98737,0.31018 -1.80193,0.84568 -2.44679,1.60854 -1.33396,1.57804 -1.5845,3.79121 -0.63565,5.61502 0.52874,1.01631 1.65746,2.03532 2.67374,2.4139 0.9695,0.36113 0.3797,0.34633 14.03356,0.35224 L 327,252 z"
         style="fill:#ffffff;fill-opacity:1;display:inline;enable-background:new" />
      <path
         style="fill:#ffffff;fill-opacity:1;display:inline;enable-background:new"
         d="m 441.99929,72.872711 c -10e-4,-0.191325 -0.0419,-0.222964 -0.36957,-0.286097 -0.4786,-0.09223 -1.10033,-0.306986 -1.54358,-0.533178 -1.15172,-0.587744 -2.0534,-1.561614 -2.46812,-2.665692 -0.21781,-0.5799 -0.29156,-0.977152 -0.33899,-1.826125 -0.0228,-0.4073 -0.0733,-0.891033 -0.11238,-1.074961 -0.4326,-2.037494 -1.94772,-3.611721 -4.0069,-4.163219 -0.59673,-0.159816 -1.6759,-0.201241 -2.29106,-0.08794 -1.93618,0.356609 -3.47137,1.608106 -4.18198,3.409184 -0.0762,0.193039 -0.15318,0.429319 -0.17115,0.525069 -0.0363,0.193733 0.01,0.187655 -0.55297,0.07266 -0.38644,-0.07895 -1.1205,-0.03373 -1.52738,0.09409 -0.65825,0.206788 -1.20129,0.563786 -1.6312,1.072363 -0.8893,1.052025 -1.05633,2.527473 -0.42376,3.743345 0.35249,0.677539 1.10497,1.356883 1.78249,1.609261 0.64634,0.240758 0.25314,0.230889 9.35571,0.234836 L 442,73 z"
         id="path3955"
         inkscape:connector-curvature="0"
         sodipodi:nodetypes="sssssssssssssssscs" />
      <path
         sodipodi:nodetypes="sssssssssssssssscs"
         inkscape:connector-curvature="0"
         id="path3957"
         d="m 435.99943,115.89807 c -8e-4,-0.15306 -0.0335,-0.17837 -0.29566,-0.22888 -0.38288,-0.0738 -0.88026,-0.24559 -1.23486,-0.42654 -0.92138,-0.4702 -1.64272,-1.24929 -1.9745,-2.13255 -0.17424,-0.46392 -0.23324,-0.78173 -0.27119,-1.4609 -0.0182,-0.32584 -0.0586,-0.71283 -0.0899,-0.85997 -0.34608,-1.63 -1.55818,-2.88938 -3.20552,-3.33058 -0.47739,-0.12785 -1.34072,-0.16099 -1.83285,-0.0703 -1.54894,0.28529 -2.77709,1.28649 -3.34558,2.72735 -0.061,0.15443 -0.12255,0.34345 -0.13692,0.42005 -0.029,0.15499 0.008,0.15013 -0.44238,0.0581 -0.30915,-0.0632 -0.8964,-0.027 -1.2219,0.0753 -0.5266,0.16544 -0.96103,0.45103 -1.30496,0.85789 -0.71144,0.84162 -0.84507,2.02198 -0.33901,2.99468 0.28199,0.54203 0.88398,1.08551 1.42599,1.28741 0.51707,0.1926 0.20251,0.18471 7.48457,0.18787 L 436,116 z"
         style="fill:#ffffff;fill-opacity:1;display:inline;enable-background:new" />
      <path
         style="fill:#ffffff;fill-opacity:1;display:inline;enable-background:new"
         d="m 429.99961,150.92282 c -6e-4,-0.11479 -0.0251,-0.13377 -0.22174,-0.17166 -0.28716,-0.0554 -0.6602,-0.18419 -0.92615,-0.3199 -0.69103,-0.35265 -1.23204,-0.93696 -1.48087,-1.59941 -0.13068,-0.34794 -0.17493,-0.5863 -0.20339,-1.09567 -0.0136,-0.24438 -0.044,-0.53463 -0.0675,-0.64497 -0.25956,-1.2225 -1.16862,-2.16704 -2.40413,-2.49793 -0.35804,-0.0959 -1.00554,-0.12075 -1.37463,-0.0527 -1.1617,0.21397 -2.08281,0.96487 -2.50918,2.04551 -0.0458,0.11581 -0.0919,0.25759 -0.10269,0.31503 -0.0218,0.11625 0.006,0.1126 -0.33178,0.0435 -0.23187,-0.0474 -0.6723,-0.0202 -0.91643,0.0565 -0.39495,0.12408 -0.72077,0.33827 -0.97871,0.64341 -0.53358,0.63122 -0.63381,1.51648 -0.25427,2.24601 0.2115,0.40652 0.66299,0.81413 1.0695,0.96555 0.3878,0.14445 0.15188,0.13853 5.61341,0.14091 L 430,151 z"
         id="path3959"
         inkscape:connector-curvature="0"
         sodipodi:nodetypes="sssssssssssssssscs" />
    </g>
    <g
       inkscape:groupmode="layer"
       id="layer5"
       inkscape:label="Highlights"
       style="display:inline"
       sodipodi:insensitive="true">
      <rect
         ry="9"
         y="307"
         x="-265"
         height="42"
         width="42"
         id="rect4884"
         style="opacity:0.20;color:#bebebe;fill:none;stroke:#000000;stroke-width:2;stroke-miterlimit:4;stroke-opacity:1;stroke-dasharray:none;marker:none;visibility:visible;display:inline;overflow:visible;enable-background:accumulate"
         transform="matrix(0,1,1,0,-16,488)"
         clip-path="url(#clipPath4891)" />
      <rect
         style="opacity:0.20;color:#bebebe;fill:none;stroke:#000000;stroke-width:2;stroke-miterlimit:4;stroke-opacity:1;stroke-dasharray:none;marker:none;visibility:visible;display:inline;overflow:visible;enable-background:accumulate"
         id="rect5311"
         width="16"
         height="16"
         x="-228"
         y="304"
         ry="3"
         clip-path="url(#clipPath3855)"
         transform="matrix(0,-1,1,0,112,-72)" />
      <rect
         ry="50"
         y="46"
         x="34"
         height="220"
         width="220"
         id="rect3858"
         style="opacity:0.20;color:#bebebe;fill:none;stroke:#000000;stroke-width:2;stroke-miterlimit:4;stroke-opacity:1;stroke-dasharray:none;marker:none;visibility:visible;display:inline;overflow:visible;enable-background:accumulate"
         clip-path="url(#clipPath3862)" />
      <rect
         ry="12.5"
         y="142"
         x="290"
         height="60"
         width="60"
         id="rect4175"
         style="opacity:0.20;color:#bebebe;fill:none;stroke:#000000;stroke-width:2;stroke-miterlimit:4;stroke-opacity:1;stroke-dasharray:none;marker:none;visibility:visible;display:inline;overflow:visible;enable-background:accumulate"
         clip-path="url(#clipPath4187)" />
      <rect
         style="opacity:0.20;color:#bebebe;fill:none;stroke:#000000;stroke-width:2;stroke-miterlimit:4;stroke-opacity:1;stroke-dasharray:none;marker:none;visibility:visible;display:inline;overflow:visible;enable-background:accumulate"
         id="rect4342"
         width="88"
         height="88"
         x="292"
         y="32"
         ry="18"
         clip-path="url(#clipPath4346)" />
      <rect
         ry="5"
         y="101"
         x="417"
         height="22"
         width="22"
         id="rect3866"
         style="opacity:0.20;color:#bebebe;fill:none;stroke:#000000;stroke-width:2;stroke-miterlimit:4;stroke-opacity:1;stroke-dasharray:none;marker:none;visibility:visible;display:inline;overflow:visible;enable-background:accumulate"
         clip-path="url(#clipPath3871)" />
      <rect
         style="opacity:0.20;color:#bebebe;fill:none;stroke:#000000;stroke-width:2;stroke-miterlimit:4;stroke-opacity:1;stroke-dasharray:none;marker:none;visibility:visible;display:inline;overflow:visible;enable-background:accumulate"
         id="rect3877"
         width="30"
         height="30"
         x="417"
         y="53"
         ry="7"
         clip-path="url(#clipPath3881)" />
    </g>
  </g>
</svg>
