<?xml version="1.0" encoding="UTF-8" standalone="no"?>
<!-- Created with Inkscape (http://www.inkscape.org/) -->

<svg
   xmlns:dc="http://purl.org/dc/elements/1.1/"
   xmlns:cc="http://creativecommons.org/ns#"
   xmlns:rdf="http://www.w3.org/1999/02/22-rdf-syntax-ns#"
   xmlns:svg="http://www.w3.org/2000/svg"
   xmlns="http://www.w3.org/2000/svg"
   xmlns:xlink="http://www.w3.org/1999/xlink"
   xmlns:sodipodi="http://sodipodi.sourceforge.net/DTD/sodipodi-0.dtd"
   xmlns:inkscape="http://www.inkscape.org/namespaces/inkscape"
   inkscape:export-ydpi="90.000000"
   inkscape:export-xdpi="90.000000"
   width="480"
   height="300"
   id="svg11300"
   sodipodi:version="0.32"
   inkscape:version="0.48.4 r9939"
   sodipodi:docname="webapp-deviantart.svg"
   inkscape:output_extension="org.inkscape.output.svg.inkscape"
   version="1.0"
   style="display:inline;enable-background:new"
   inkscape:export-filename="/home/sam/moka2-template.png">
  <sodipodi:namedview
     stroke="#ef2929"
     fill="#f57900"
     id="base"
     pagecolor="#ffffff"
     bordercolor="#666666"
     borderopacity="0.25490196"
     inkscape:pageopacity="0"
     inkscape:pageshadow="2"
     inkscape:zoom="1"
     inkscape:cx="337.50988"
     inkscape:cy="76.439194"
     inkscape:current-layer="layer7"
     showgrid="false"
     inkscape:grid-bbox="true"
     inkscape:document-units="px"
     inkscape:showpageshadow="false"
     inkscape:window-width="1366"
     inkscape:window-height="702"
     inkscape:window-x="0"
     inkscape:window-y="27"
     width="400px"
     height="300px"
     inkscape:snap-nodes="true"
     inkscape:snap-bbox="true"
     gridtolerance="10000"
     inkscape:object-nodes="true"
     inkscape:snap-grids="true"
     showguides="true"
     inkscape:guide-bbox="true"
     inkscape:window-maximized="1"
     inkscape:bbox-nodes="true"
     inkscape:bbox-paths="true"
     inkscape:snap-bbox-edge-midpoints="true"
     inkscape:snap-bbox-midpoints="true">
    <inkscape:grid
       spacingy="1px"
       spacingx="1px"
       id="grid5883"
       type="xygrid"
       enabled="true"
       visible="true"
       empspacing="4"
       snapvisiblegridlinesonly="true"
       dotted="false"
       color="#000000"
       opacity="0.1254902"
       empcolor="#203ef3"
       empopacity="0.36470588" />
    <inkscape:grid
       type="xygrid"
       id="grid11592"
       empspacing="8"
       visible="true"
       enabled="false"
       spacingx="0.5px"
       spacingy="0.5px"
       color="#ff0000"
       opacity="0.1254902"
       empcolor="#ff0000"
       empopacity="0.25098039"
       snapvisiblegridlinesonly="true"
       dotted="true" />
  </sodipodi:namedview>
  <defs
     id="defs3">
    <linearGradient
       id="outerBackgroundGradient">
      <stop
         style="stop-color:#435d4a;stop-opacity:1;"
         offset="0"
         id="stop3864-8-6" />
      <stop
         style="stop-color:#4a8259;stop-opacity:1;"
         offset="1"
         id="stop3866-9-1" />
    </linearGradient>
    <linearGradient
       inkscape:collect="always"
       xlink:href="#outerBackgroundGradient"
       id="linearGradient4097"
       gradientUnits="userSpaceOnUse"
       x1="264"
       y1="280.00003"
       x2="264"
       y2="40.00005"
       gradientTransform="matrix(0.06666667,0,0,0.06666667,414.4,137.33333)" />
    <linearGradient
       inkscape:collect="always"
       xlink:href="#outerBackgroundGradient"
       id="linearGradient4101"
       gradientUnits="userSpaceOnUse"
       gradientTransform="matrix(0.0875,0,0,0.0875,414.9,97.5)"
       x1="286.85715"
       y1="302.85715"
       x2="286.85715"
       y2="28.571428" />
    <linearGradient
       inkscape:collect="always"
       xlink:href="#outerBackgroundGradient"
       id="linearGradient4153"
       gradientUnits="userSpaceOnUse"
       gradientTransform="matrix(0.11931818,0,0,0.11931818,414.13636,48.22727)"
       x1="283.80957"
       y1="299.80954"
       x2="283.80957"
       y2="31.61907" />
    <linearGradient
       inkscape:collect="always"
       xlink:href="#outerBackgroundGradient"
       id="linearGradient4869"
       gradientUnits="userSpaceOnUse"
       gradientTransform="matrix(0.175,0,0,-0.175,286.79999,-215.99997)"
       x1="281.14291"
       y1="297.14304"
       x2="281.14291"
       y2="22.857315" />
    <clipPath
       clipPathUnits="userSpaceOnUse"
       id="clipPath4891">
      <rect
         ry="9"
         y="223"
         x="307"
         height="42"
         width="42"
         id="rect4893"
         style="color:#bebebe;fill:url(#linearGradient4895);fill-opacity:1;fill-rule:nonzero;stroke:none;stroke-width:0;marker:none;visibility:visible;display:inline;overflow:visible;enable-background:accumulate"
         transform="matrix(0,1,-1,0,0,0)" />
    </clipPath>
    <linearGradient
       inkscape:collect="always"
       xlink:href="#outerBackgroundGradient"
       id="linearGradient4895"
       gradientUnits="userSpaceOnUse"
       gradientTransform="matrix(0.175,0,0,0.175,302.79999,215.99997)"
       x1="144.00006"
       y1="280.00018"
       x2="144.00006"
       y2="40.000172" />
    <clipPath
       clipPathUnits="userSpaceOnUse"
       id="clipPath4044">
      <rect
         ry="4"
         y="85"
         x="433"
         height="22"
         width="22"
         id="rect4046"
         style="color:#bebebe;fill:url(#linearGradient4048);fill-opacity:1;fill-rule:nonzero;stroke:none;stroke-width:0;marker:none;visibility:visible;display:inline;overflow:visible;enable-background:accumulate" />
    </clipPath>
    <linearGradient
       inkscape:collect="always"
       xlink:href="#outerBackgroundGradient"
       id="linearGradient4048"
       gradientUnits="userSpaceOnUse"
       gradientTransform="matrix(0.0875,0,0,0.0875,430.9,81.499996)"
       x1="149.71428"
       y1="291.42862"
       x2="149.71428"
       y2="40.000046" />
    <clipPath
       clipPathUnits="userSpaceOnUse"
       id="clipPath4089">
      <rect
         style="color:#bebebe;fill:url(#linearGradient4093);fill-opacity:1;fill-rule:nonzero;stroke:none;stroke-width:0;marker:none;visibility:visible;display:inline;overflow:visible;enable-background:accumulate"
         id="rect4091"
         width="30"
         height="30"
         x="433"
         y="37"
         ry="6" />
    </clipPath>
    <linearGradient
       inkscape:collect="always"
       xlink:href="#outerBackgroundGradient"
       id="linearGradient4093"
       gradientUnits="userSpaceOnUse"
       gradientTransform="matrix(0.11931818,0,0,0.11931818,430.13636,32.227267)"
       x1="149.71432"
       y1="291.42862"
       x2="149.71432"
       y2="40.00005" />
    <clipPath
       clipPathUnits="userSpaceOnUse"
       id="clipPath3855">
      <rect
         style="color:#bebebe;fill:url(#linearGradient3859);fill-opacity:1;fill-rule:nonzero;stroke:none;stroke-width:0;marker:none;visibility:visible;display:inline;overflow:visible;enable-background:accumulate"
         id="rect3857"
         width="16"
         height="16"
         x="304"
         y="212"
         ry="3"
         transform="matrix(0,1,-1,0,0,0)" />
    </clipPath>
    <linearGradient
       inkscape:collect="always"
       xlink:href="#outerBackgroundGradient"
       id="linearGradient3859"
       gradientUnits="userSpaceOnUse"
       gradientTransform="matrix(0.06666667,0,0,0.06666667,302.4,209.33333)"
       x1="144"
       y1="280.00003"
       x2="144"
       y2="40.00005" />
    <clipPath
       clipPathUnits="userSpaceOnUse"
       id="clipPath3862">
      <rect
         ry="50"
         y="46"
         x="34"
         height="220"
         width="220"
         id="rect3864"
         style="color:#bebebe;fill:url(#linearGradient3866);fill-opacity:1;fill-rule:nonzero;stroke:none;stroke-width:0;marker:none;visibility:visible;display:inline;overflow:visible;enable-background:accumulate" />
    </clipPath>
    <linearGradient
       inkscape:collect="always"
       xlink:href="#outerBackgroundGradient"
       id="linearGradient3866"
       gradientUnits="userSpaceOnUse"
       gradientTransform="translate(0,-4)"
       x1="144"
       y1="280"
       x2="144"
       y2="40" />
    <linearGradient
       inkscape:collect="always"
       xlink:href="#outerBackgroundGradient"
       id="linearGradient3876"
       gradientUnits="userSpaceOnUse"
       gradientTransform="translate(0,-4)"
       x1="272"
       y1="288"
       x2="272"
       y2="32" />
    <clipPath
       clipPathUnits="userSpaceOnUse"
       id="clipPath4187">
      <rect
         ry="12.5"
         y="142"
         x="290"
         height="60"
         width="60"
         id="rect4189"
         style="color:#bebebe;fill:url(#linearGradient4191);fill-opacity:1;fill-rule:nonzero;stroke:none;stroke-width:0;marker:none;visibility:visible;display:inline;overflow:visible;enable-background:accumulate" />
    </clipPath>
    <linearGradient
       inkscape:collect="always"
       xlink:href="#outerBackgroundGradient"
       id="linearGradient4191"
       gradientUnits="userSpaceOnUse"
       x1="352"
       y1="204"
       x2="352"
       y2="140" />
    <linearGradient
       inkscape:collect="always"
       xlink:href="#outerBackgroundGradient"
       id="linearGradient4197"
       gradientUnits="userSpaceOnUse"
       x1="384"
       y1="124"
       x2="384"
       y2="28" />
    <linearGradient
       inkscape:collect="always"
       xlink:href="#outerBackgroundGradient"
       id="linearGradient4199"
       gradientUnits="userSpaceOnUse"
       x1="352"
       y1="204"
       x2="352"
       y2="140" />
    <clipPath
       clipPathUnits="userSpaceOnUse"
       id="clipPath4346">
      <rect
         style="color:#bebebe;fill:url(#linearGradient4350);fill-opacity:1;fill-rule:nonzero;stroke:none;stroke-width:0;marker:none;visibility:visible;display:inline;overflow:visible;enable-background:accumulate"
         id="rect4348"
         width="88"
         height="88"
         x="292"
         y="32"
         ry="18" />
    </clipPath>
    <linearGradient
       inkscape:collect="always"
       xlink:href="#outerBackgroundGradient"
       id="linearGradient4350"
       gradientUnits="userSpaceOnUse"
       x1="384"
       y1="124"
       x2="384"
       y2="28" />
    <clipPath
       clipPathUnits="userSpaceOnUse"
       id="clipPath3871">
      <rect
         ry="5"
         y="101"
         x="417"
         height="22"
         width="22"
         id="rect3873"
         style="color:#bebebe;fill:url(#linearGradient3875);fill-opacity:1;fill-rule:nonzero;stroke:none;stroke-width:0;marker:none;visibility:visible;display:inline;overflow:visible;enable-background:accumulate" />
    </clipPath>
    <linearGradient
       inkscape:collect="always"
       xlink:href="#outerBackgroundGradient"
       id="linearGradient3875"
       gradientUnits="userSpaceOnUse"
       gradientTransform="matrix(0.0875,0,0,0.0875,414.9,97.5)"
       x1="286.85715"
       y1="302.85715"
       x2="286.85715"
       y2="28.571428" />
    <clipPath
       clipPathUnits="userSpaceOnUse"
       id="clipPath3881">
      <rect
         style="color:#bebebe;fill:url(#linearGradient3885);fill-opacity:1;fill-rule:nonzero;stroke:none;stroke-width:0;marker:none;visibility:visible;display:inline;overflow:visible;enable-background:accumulate"
         id="rect3883"
         width="30"
         height="30"
         x="417"
         y="53"
         ry="7" />
    </clipPath>
    <linearGradient
       inkscape:collect="always"
       xlink:href="#outerBackgroundGradient"
       id="linearGradient3885"
       gradientUnits="userSpaceOnUse"
       gradientTransform="matrix(0.11931818,0,0,0.11931818,414.13636,48.22727)"
       x1="283.80957"
       y1="299.80954"
       x2="283.80957"
       y2="31.61907" />
  </defs>
  <metadata
     id="metadata4">
    <rdf:RDF>
      <cc:Work
         rdf:about="">
        <dc:format>image/svg+xml</dc:format>
        <dc:type
           rdf:resource="http://purl.org/dc/dcmitype/StillImage" />
        <dc:creator>
          <cc:Agent>
            <dc:title>Sam Hewitt</dc:title>
          </cc:Agent>
        </dc:creator>
        <dc:source />
        <cc:license
           rdf:resource="" />
        <dc:title />
        <dc:subject>
          <rdf:Bag />
        </dc:subject>
        <dc:date />
        <dc:rights>
          <cc:Agent>
            <dc:title />
          </cc:Agent>
        </dc:rights>
        <dc:publisher>
          <cc:Agent>
            <dc:title />
          </cc:Agent>
        </dc:publisher>
        <dc:identifier />
        <dc:relation />
        <dc:language />
        <dc:coverage />
        <dc:description />
        <dc:contributor>
          <cc:Agent>
            <dc:title />
          </cc:Agent>
        </dc:contributor>
      </cc:Work>
      <cc:Work
         rdf:about="">
        <dc:format>image/svg+xml</dc:format>
        <dc:type
           rdf:resource="http://purl.org/dc/dcmitype/StillImage" />
      </cc:Work>
    </rdf:RDF>
  </metadata>
  <g
     style="display:inline"
     inkscape:groupmode="layer"
     inkscape:label="Icon"
     id="layer1">
    <g
       style="display:none"
       inkscape:label="Baseplate"
       id="layer7"
       inkscape:groupmode="layer">
      <text
         y="19.745117"
         xml:space="preserve"
         x="15.006836"
         style="font-size:18px;font-style:normal;font-variant:normal;font-weight:normal;font-stretch:normal;fill:#000000;fill-opacity:1;stroke:none;display:inline;enable-background:new;font-family:DejaVu Sans;-inkscape-font-specification:DejaVu Sans"
         inkscape:label="context"
         id="context"><tspan
           style="font-style:normal;font-variant:normal;font-weight:normal;font-stretch:normal;font-family:DejaVu Sans;-inkscape-font-specification:DejaVu Sans"
           y="19.745117"
           x="15.006836"
           sodipodi:role="line"
           id="tspan3933">web</tspan></text>
      <text
         y="19.745117"
         xml:space="preserve"
         x="122.48828"
         style="font-size:18px;font-style:normal;font-variant:normal;font-weight:bold;font-stretch:normal;text-align:start;line-height:125%;writing-mode:lr-tb;text-anchor:start;fill:#000000;fill-opacity:1;stroke:none;display:inline;enable-background:new;font-family:DejaVu Sans;-inkscape-font-specification:DejaVu Sans Bold"
         sodipodi:linespacing="125%"
         inkscape:label="icon-name"
         id="icon-name"><tspan
           style="font-size:18px;font-style:normal;font-variant:normal;font-weight:bold;font-stretch:normal;font-family:DejaVu Sans;-inkscape-font-specification:DejaVu Sans Bold"
           y="19.745117"
           x="122.48828"
           sodipodi:role="line"
           id="tspan3937">web-deviantart</tspan></text>
      <rect
         style="fill:#eeeeec;fill-opacity:1;fill-rule:nonzero;stroke:none;stroke-width:2;marker:none;visibility:visible;display:inline;overflow:visible;enable-background:accumulate"
         id="rect16x16"
         width="16"
         height="16"
         x="416"
         y="140"
         inkscape:label="16x16" />
      <rect
         style="fill:#d4d4d4;fill-opacity:1;fill-rule:nonzero;stroke:none;stroke-width:2;marker:none;visibility:visible;display:inline;overflow:visible;enable-background:accumulate"
         id="rect24x24"
         width="24"
         height="24"
         x="416"
         y="100"
         inkscape:label="24x24" />
      <rect
         style="fill:#eeeeec;fill-opacity:1;fill-rule:nonzero;stroke:none;stroke-width:2;marker:none;visibility:visible;display:inline;overflow:visible;enable-background:accumulate"
         id="rect32x32"
         width="32"
         height="32"
         x="416"
         y="52"
         inkscape:label="32x32" />
      <rect
         inkscape:label="22x22"
         y="101"
         x="417"
         height="22"
         width="22"
         id="rect22x22"
         style="fill:#eeeeec;fill-opacity:1;fill-rule:nonzero;stroke:none;stroke-width:2;marker:none;visibility:visible;display:inline;overflow:visible;enable-background:accumulate" />
      <rect
         inkscape:label="48x48"
         y="220"
         x="288"
         height="48"
         width="48"
         id="rect48x48"
         style="fill:#eeeeec;fill-opacity:1;fill-rule:nonzero;stroke:none;stroke-width:2;marker:none;visibility:visible;display:inline;overflow:visible;enable-background:accumulate" />
      <rect
         style="fill:#eeeeec;fill-opacity:1;fill-rule:nonzero;stroke:none;stroke-width:2;marker:none;visibility:visible;display:inline;overflow:visible;enable-background:accumulate"
         id="rect256x256"
         width="256"
         height="256"
         x="16"
         y="28"
         inkscape:label="256x256" />
      <rect
         style="fill:#eeeeec;fill-opacity:1;fill-rule:nonzero;stroke:none;stroke-width:2;marker:none;visibility:visible;display:inline;overflow:visible;enable-background:accumulate"
         id="rect64x64"
         width="64"
         height="64"
         x="288"
         y="140"
         inkscape:label="64x64" />
      <rect
         style="fill:#eeeeec;fill-opacity:1;fill-rule:nonzero;stroke:none;stroke-width:2;marker:none;visibility:visible;display:inline;overflow:visible;enable-background:accumulate"
         id="rect96x96"
         width="96"
         height="96"
         x="288"
         y="28"
         inkscape:label="96x96" />
    </g>
    <g
       inkscape:groupmode="layer"
       id="layer4"
       inkscape:label="Shadow"
       style="display:inline"
       sodipodi:insensitive="true">
      <rect
         style="opacity:0.0;color:#bebebe;fill:#000000;fill-opacity:1;stroke:#000000;stroke-width:1;stroke-miterlimit:4;stroke-opacity:1;stroke-dasharray:none;marker:none;visibility:visible;display:inline;overflow:visible;enable-background:accumulate"
         id="rect4156"
         width="42"
         height="42"
         x="-266.5"
         y="291"
         ry="9"
         transform="matrix(0,-1,1,0,0,0)" />
      <rect
         transform="matrix(0,-1,1,0,0,0)"
         ry="9"
         y="291"
         x="-266.5"
         height="42"
         width="40"
         id="rect4183"
         style="opacity:0.1;color:#bebebe;fill:#000000;fill-opacity:1;stroke:none;stroke-width:1;marker:none;visibility:visible;display:inline;overflow:visible;enable-background:accumulate" />
      <rect
         ry="9"
         y="237"
         x="291"
         height="29"
         width="42"
         id="rect4144"
         style="opacity:0.1;color:#bebebe;fill:#000000;fill-opacity:1;fill-rule:nonzero;stroke:none;stroke-width:0;marker:none;visibility:visible;display:inline;overflow:visible;enable-background:accumulate" />
      <rect
         style="opacity:0.0;color:#bebebe;fill:#000000;fill-opacity:1;fill-rule:nonzero;stroke:#000000;stroke-width:1;stroke-miterlimit:4;stroke-opacity:1;stroke-dasharray:none;marker:none;visibility:visible;display:inline;overflow:visible;enable-background:accumulate"
         id="rect4340"
         width="88"
         height="88"
         x="292"
         y="33.5"
         ry="18" />
      <rect
         ry="18"
         y="52.5"
         x="292"
         height="69"
         width="88"
         id="rect4338"
         style="opacity:0.1;color:#bebebe;fill:#000000;fill-opacity:1;fill-rule:nonzero;stroke:none;stroke-width:0;marker:none;visibility:visible;display:inline;overflow:visible;enable-background:accumulate" />
      <rect
         style="opacity:0.1;color:#bebebe;fill:#000000;fill-opacity:1;fill-rule:nonzero;stroke:none;stroke-width:0;marker:none;visibility:visible;display:inline;overflow:visible;enable-background:accumulate"
         id="rect4335"
         width="88"
         height="76.5"
         x="292"
         y="44.5"
         ry="18" />
      <rect
         style="opacity:0.0;color:#bebebe;fill:#000000;fill-opacity:1;fill-rule:nonzero;stroke:#000000;stroke-width:1;stroke-miterlimit:4;stroke-opacity:1;stroke-dasharray:none;marker:none;visibility:visible;display:inline;overflow:visible;enable-background:accumulate"
         id="rect4214"
         width="60"
         height="60"
         x="290"
         y="143.5"
         ry="12.5" />
      <rect
         ry="12.5"
         y="151.5"
         x="290"
         height="52"
         width="60"
         id="rect4206"
         style="opacity:0.1;color:#bebebe;fill:#000000;fill-opacity:1;fill-rule:nonzero;stroke:none;stroke-width:0;marker:none;visibility:visible;display:inline;overflow:visible;enable-background:accumulate" />
      <rect
         style="opacity:0.1;color:#bebebe;fill:#000000;fill-opacity:1;fill-rule:nonzero;stroke:none;stroke-width:0;marker:none;visibility:visible;display:inline;overflow:visible;enable-background:accumulate"
         id="rect4212"
         width="60"
         height="54.5"
         x="290"
         y="148.5"
         ry="12.5" />
      <rect
         style="opacity:0.2;color:#bebebe;fill:#000000;fill-opacity:1;fill-rule:nonzero;stroke:none;stroke-width:0;marker:none;visibility:visible;display:inline;overflow:visible;enable-background:accumulate"
         id="rect4058"
         width="30"
         height="30"
         x="417"
         y="54"
         ry="7" />
      <rect
         ry="50"
         y="48"
         x="34"
         height="220"
         width="220"
         id="rect3872"
         style="opacity:0.0;color:#bebebe;fill:#000000;fill-opacity:1;fill-rule:nonzero;stroke:#000000;stroke-width:2;stroke-miterlimit:4;stroke-opacity:1;stroke-dasharray:none;marker:none;visibility:visible;display:inline;overflow:visible;enable-background:accumulate" />
      <rect
         style="opacity:0.1;color:#bebebe;fill:#000000;fill-opacity:1;fill-rule:nonzero;stroke:none;stroke-width:0;marker:none;visibility:visible;display:inline;overflow:visible;enable-background:accumulate"
         id="rect3870"
         width="220"
         height="220"
         x="34"
         y="48"
         ry="50" />
      <rect
         ry="50"
         y="47"
         x="34"
         height="220"
         width="220"
         id="rect3868"
         style="opacity:0.1;color:#bebebe;fill:#000000;fill-opacity:1;fill-rule:nonzero;stroke:none;stroke-width:0;marker:none;visibility:visible;display:inline;overflow:visible;enable-background:accumulate" />
    </g>
    <g
       inkscape:groupmode="layer"
       id="layer2"
       inkscape:label="Background"
       style="display:inline">
      <rect
         style="color:#bebebe;fill:url(#linearGradient3876);fill-opacity:1;fill-rule:nonzero;stroke:none;stroke-width:0;marker:none;visibility:visible;display:inline;overflow:visible;enable-background:accumulate"
         id="rect4040"
         width="220"
         height="220"
         x="34"
         y="46"
         ry="50" />
      <rect
         ry="3"
         y="140"
         x="416"
         height="16"
         width="16"
         id="rect4095"
         style="color:#bebebe;fill:url(#linearGradient4097);fill-opacity:1;fill-rule:nonzero;stroke:none;stroke-width:0;marker:none;visibility:visible;display:inline;overflow:visible;enable-background:accumulate" />
      <rect
         style="color:#bebebe;fill:url(#linearGradient4101);fill-opacity:1;fill-rule:nonzero;stroke:none;stroke-width:0;marker:none;visibility:visible;display:inline;overflow:visible;enable-background:accumulate"
         id="rect4099"
         width="22"
         height="22"
         x="417"
         y="101"
         ry="5" />
      <rect
         ry="7"
         y="53"
         x="417"
         height="30"
         width="30"
         id="rect4151"
         style="color:#bebebe;fill:url(#linearGradient4153);fill-opacity:1;fill-rule:nonzero;stroke:none;stroke-width:0;marker:none;visibility:visible;display:inline;overflow:visible;enable-background:accumulate" />
      <rect
         style="color:#bebebe;fill:url(#linearGradient4869);fill-opacity:1;fill-rule:nonzero;stroke:none;stroke-width:0;marker:none;visibility:visible;display:inline;overflow:visible;enable-background:accumulate"
         id="rect4783"
         width="42"
         height="42"
         x="291"
         y="-265"
         ry="9"
         transform="scale(1,-1)" />
      <rect
         ry="18"
         y="32"
         x="292"
         height="88"
         width="88"
         id="rect4511"
         style="color:#bebebe;fill:url(#linearGradient4197);fill-opacity:1;fill-rule:nonzero;stroke:none;stroke-width:0;marker:none;visibility:visible;display:inline;overflow:visible;enable-background:accumulate" />
      <rect
         style="color:#bebebe;fill:url(#linearGradient4199);fill-opacity:1;fill-rule:nonzero;stroke:none;stroke-width:0;marker:none;visibility:visible;display:inline;overflow:visible;enable-background:accumulate"
         id="rect4515"
         width="60"
         height="60"
         x="290"
         y="142"
         ry="12.5" />
    </g>
    <g
       inkscape:groupmode="layer"
       id="layer6"
       inkscape:label="Symbols"
       style="display:inline">
      <g
         transform="matrix(0.91891963,0,0,0.91891963,12.54029,-1.1892489)"
         style="display:inline;enable-background:new"
         id="g4072">
        <path
           style="fill:#c8da2f;fill-opacity:1;fill-rule:evenodd;stroke:none;display:inline;enable-background:new"
           d="m 334.64165,78.50145 5.14254,10.75405 -11.4988,2.78764 c -1.03779,-4.73573 -0.21201,-10.02135 6.35626,-13.54169 z m 32.52744,-6.99411 c -8.06096,-1.88935 -16.79096,-1.81035 -25.73162,-0.46031 -0.32239,0.0481 -0.64302,0.10018 -0.96197,0.15358 l -2.97207,-5.50474 c -2.89281,0.38616 -5.61151,0.9877 -8.12847,1.79137 l 2.83075,5.92004 c -4.62367,1.79093 -8.41812,4.34254 -11.15575,7.41289 -4.51506,5.13738 -6.29932,11.59536 -4.13061,17.88436 0.43617,1.26883 1.02574,2.47213 1.75328,3.5996 l 1.89292,-0.52064 10.54888,-2.89625 11.73495,-3.2238 9.43707,-2.59111 -3.26895,-6.05452 -6.06467,-11.23175 c 0.32067,-0.0618 0.64651,-0.12401 0.97923,-0.18447 15.09487,-2.69258 23.35089,1.46743 27.87279,5.8944 l -11.50026,2.78763 -4.7995,-7.66653 c -2.74465,-0.1602 -5.91165,0.004 -9.58001,0.62934 l 5.1477,9.27488 2.30818,4.16508 1.00535,1.81017 21.17163,-5.81319 10.76279,-2.95658 L 388,83.26648 c -0.36233,-0.86197 -0.89149,-1.70328 -1.59321,-2.51697 -3.47903,-4.02738 -11.02097,-7.61983 -19.2377,-9.24041"
           id="path14"
           inkscape:connector-curvature="0" />
        <rect
           transform="translate(0,-4)"
           ry="8.705904"
           y="51"
           x="315"
           height="74"
           width="74"
           id="rect4056"
           style="color:#bebebe;fill:none;stroke:#c8da2f;stroke-width:4.35293818;stroke-linecap:round;stroke-linejoin:round;stroke-miterlimit:4;stroke-opacity:1;stroke-dasharray:none;marker:none;visibility:visible;display:inline;overflow:visible;enable-background:accumulate" />
      </g>
      <g
         style="display:inline;enable-background:new"
         id="g4062"
         transform="matrix(2.2895654,0,0,2.2895654,-661.92702,-36.323494)">
        <path
           inkscape:connector-curvature="0"
           id="path4058"
           d="m 334.64165,78.50145 5.14254,10.75405 -11.4988,2.78764 c -1.03779,-4.73573 -0.21201,-10.02135 6.35626,-13.54169 z m 32.52744,-6.99411 c -8.06096,-1.88935 -16.79096,-1.81035 -25.73162,-0.46031 -0.32239,0.0481 -0.64302,0.10018 -0.96197,0.15358 l -2.97207,-5.50474 c -2.89281,0.38616 -5.61151,0.9877 -8.12847,1.79137 l 2.83075,5.92004 c -4.62367,1.79093 -8.41812,4.34254 -11.15575,7.41289 -4.51506,5.13738 -6.29932,11.59536 -4.13061,17.88436 0.43617,1.26883 1.02574,2.47213 1.75328,3.5996 l 1.89292,-0.52064 10.54888,-2.89625 11.73495,-3.2238 9.43707,-2.59111 -3.26895,-6.05452 -6.06467,-11.23175 c 0.32067,-0.0618 0.64651,-0.12401 0.97923,-0.18447 15.09487,-2.69258 23.35089,1.46743 27.87279,5.8944 l -11.50026,2.78763 -4.7995,-7.66653 c -2.74465,-0.1602 -5.91165,0.004 -9.58001,0.62934 l 5.1477,9.27488 2.30818,4.16508 1.00535,1.81017 21.17163,-5.81319 10.76279,-2.95658 L 388,83.26648 c -0.36233,-0.86197 -0.89149,-1.70328 -1.59321,-2.51697 -3.47903,-4.02738 -11.02097,-7.61983 -19.2377,-9.24041"
           style="fill:#c8da2f;fill-opacity:1;fill-rule:evenodd;stroke:none;display:inline;enable-background:new" />
        <rect
           style="color:#bebebe;fill:none;stroke:#c8da2f;stroke-width:4.36764145;stroke-linecap:round;stroke-linejoin:round;stroke-miterlimit:4;stroke-opacity:1;stroke-dasharray:none;marker:none;visibility:visible;display:inline;overflow:visible;enable-background:accumulate"
           id="rect4060"
           width="74.25"
           height="74.25"
           x="314.875"
           y="50.875"
           transform="translate(0,-4)"
           ry="10" />
      </g>
      <g
         style="display:inline;enable-background:new"
         transform="matrix(0.66666667,0,0,0.66666667,85.333332,116.48901)"
         id="g4066">
        <path
           style="fill:#c8da2f;fill-opacity:1;fill-rule:evenodd;stroke:none;display:inline;enable-background:new"
           d="m 334.64165,78.50145 5.14254,10.75405 -11.4988,2.78764 c -1.03779,-4.73573 -0.21201,-10.02135 6.35626,-13.54169 z m 32.52744,-6.99411 c -8.06096,-1.88935 -16.79096,-1.81035 -25.73162,-0.46031 -0.32239,0.0481 -0.64302,0.10018 -0.96197,0.15358 l -2.97207,-5.50474 c -2.89281,0.38616 -5.61151,0.9877 -8.12847,1.79137 l 2.83075,5.92004 c -4.62367,1.79093 -8.41812,4.34254 -11.15575,7.41289 -4.51506,5.13738 -6.29932,11.59536 -4.13061,17.88436 0.43617,1.26883 1.02574,2.47213 1.75328,3.5996 l 1.89292,-0.52064 10.54888,-2.89625 11.73495,-3.2238 9.43707,-2.59111 -3.26895,-6.05452 -6.06467,-11.23175 c 0.32067,-0.0618 0.64651,-0.12401 0.97923,-0.18447 15.09487,-2.69258 23.35089,1.46743 27.87279,5.8944 l -11.50026,2.78763 -4.7995,-7.66653 c -2.74465,-0.1602 -5.91165,0.004 -9.58001,0.62934 l 5.1477,9.27488 2.30818,4.16508 1.00535,1.81017 21.17163,-5.81319 10.76279,-2.95658 L 388,83.26648 c -0.36233,-0.86197 -0.89149,-1.70328 -1.59321,-2.51697 -3.47903,-4.02738 -11.02097,-7.61983 -19.2377,-9.24041"
           id="path4068"
           inkscape:connector-curvature="0" />
        <rect
           ry="10.500001"
           transform="translate(0,-4)"
           y="50.516483"
           x="315.25"
           height="73.5"
           width="73.5"
           id="rect4070"
           style="color:#bebebe;fill:none;stroke:#c8da2f;stroke-width:4.5;stroke-linecap:round;stroke-linejoin:round;stroke-miterlimit:4;stroke-opacity:1;stroke-dasharray:none;marker:none;visibility:visible;display:inline;overflow:visible;enable-background:accumulate" />
      </g>
      <g
         style="display:inline;enable-background:new"
         id="g4076"
         transform="matrix(0.46153846,0,0,0.46153846,149.61539,205.30769)">
        <path
           inkscape:connector-curvature="0"
           id="path4078"
           d="m 334.64165,78.50145 5.14254,10.75405 -11.4988,2.78764 c -1.03779,-4.73573 -0.21201,-10.02135 6.35626,-13.54169 z m 32.52744,-6.99411 c -8.06096,-1.88935 -16.79096,-1.81035 -25.73162,-0.46031 -0.32239,0.0481 -0.64302,0.10018 -0.96197,0.15358 l -2.97207,-5.50474 c -2.89281,0.38616 -5.61151,0.9877 -8.12847,1.79137 l 2.83075,5.92004 c -4.62367,1.79093 -8.41812,4.34254 -11.15575,7.41289 -4.51506,5.13738 -6.29932,11.59536 -4.13061,17.88436 0.43617,1.26883 1.02574,2.47213 1.75328,3.5996 l 1.89292,-0.52064 10.54888,-2.89625 11.73495,-3.2238 9.43707,-2.59111 -3.26895,-6.05452 -6.06467,-11.23175 c 0.32067,-0.0618 0.64651,-0.12401 0.97923,-0.18447 15.09487,-2.69258 23.35089,1.46743 27.87279,5.8944 l -11.50026,2.78763 -4.7995,-7.66653 c -2.74465,-0.1602 -5.91165,0.004 -9.58001,0.62934 l 5.1477,9.27488 2.30818,4.16508 1.00535,1.81017 21.17163,-5.81319 10.76279,-2.95658 L 388,83.26648 c -0.36233,-0.86197 -0.89149,-1.70328 -1.59321,-2.51697 -3.47903,-4.02738 -11.02097,-7.61983 -19.2377,-9.24041"
           style="fill:#c8da2f;fill-opacity:1;fill-rule:evenodd;stroke:none;display:inline;enable-background:new" />
        <rect
           style="color:#bebebe;fill:none;stroke:#c8da2f;stroke-width:4.33333349;stroke-linecap:round;stroke-linejoin:round;stroke-miterlimit:4;stroke-opacity:1;stroke-dasharray:none;marker:none;visibility:visible;display:inline;overflow:visible;enable-background:accumulate"
           id="rect4080"
           width="73.666656"
           height="73.666672"
           x="315"
           y="51"
           ry="10.833339"
           transform="translate(0,-4)" />
      </g>
      <g
         transform="translate(-16.000001,16)"
         style="display:inline;enable-background:new"
         id="g4140">
        <path
           inkscape:connector-curvature="0"
           id="path4134"
           d="m 442.69607,50.319894 1.57133,3.28596 -3.51353,0.851779 c -0.3171,-1.447028 -0.0648,-3.06208 1.9422,-4.137739 z m 9.93894,-2.137089 c -2.46308,-0.577302 -5.13058,-0.553163 -7.86245,-0.140651 -0.0985,0.01469 -0.19647,0.03061 -0.29393,0.04692 l -0.90814,-1.682003 c -0.88391,0.117993 -1.71462,0.301797 -2.4837,0.547362 l 0.86496,1.808902 c -1.41279,0.547229 -2.5722,1.326887 -3.40871,2.26505 -1.3796,1.569755 -1.92479,3.543027 -1.26213,5.464667 0.13328,0.387697 0.31343,0.755373 0.53573,1.099877 l 0.57839,-0.159084 3.22328,-0.884966 3.58567,-0.98505 2.88355,-0.791728 -0.99884,-1.849993 -1.8531,-3.431923 c 0.098,-0.01888 0.19754,-0.03789 0.29921,-0.05637 4.61232,-0.822733 7.135,0.448381 8.51669,1.801067 l -3.51397,0.851776 -1.46651,-2.342551 c -0.83865,-0.04895 -1.80634,0.0012 -2.92723,0.192298 l 1.57291,2.833991 0.70527,1.272664 0.3072,0.553107 6.46911,-1.776253 3.28863,-0.903399 L 459,51.775876 c -0.1107,-0.26338 -0.27239,-0.520447 -0.48681,-0.769075 -1.06303,-1.230588 -3.36751,-2.328281 -5.87818,-2.823459"
           style="fill:#c8da2f;fill-opacity:1;fill-rule:evenodd;stroke:none;display:inline;enable-background:new" />
        <rect
           style="color:#bebebe;fill:none;stroke:#c8da2f;stroke-width:2;stroke-linecap:round;stroke-linejoin:miter;stroke-miterlimit:4;stroke-opacity:1;stroke-dasharray:none;marker:none;visibility:visible;display:inline;overflow:visible;enable-background:accumulate"
           id="rect4136"
           width="22.000002"
           height="22"
           x="437"
           y="41"
           ry="3" />
      </g>
      <g
         style="display:inline;enable-background:new"
         id="g4144"
         transform="matrix(0.58333329,0,0,0.58333329,162.66668,117.66667)">
        <path
           style="fill:#c8da2f;fill-opacity:1;fill-rule:evenodd;stroke:none;display:inline;enable-background:new"
           d="m 442.69607,50.319894 1.57133,3.28596 -3.51353,0.851779 c -0.3171,-1.447028 -0.0648,-3.06208 1.9422,-4.137739 z m 9.93894,-2.137089 c -2.46308,-0.577302 -5.13058,-0.553163 -7.86245,-0.140651 -0.0985,0.01469 -0.19647,0.03061 -0.29393,0.04692 l -0.90814,-1.682003 c -0.88391,0.117993 -1.71462,0.301797 -2.4837,0.547362 l 0.86496,1.808902 c -1.41279,0.547229 -2.5722,1.326887 -3.40871,2.26505 -1.3796,1.569755 -1.92479,3.543027 -1.26213,5.464667 0.13328,0.387697 0.31343,0.755373 0.53573,1.099877 l 0.57839,-0.159084 3.22328,-0.884966 3.58567,-0.98505 2.88355,-0.791728 -0.99884,-1.849993 -1.8531,-3.431923 c 0.098,-0.01888 0.19754,-0.03789 0.29921,-0.05637 4.61232,-0.822733 7.135,0.448381 8.51669,1.801067 l -3.51397,0.851776 -1.46651,-2.342551 c -0.83865,-0.04895 -1.80634,0.0012 -2.92723,0.192298 l 1.57291,2.833991 0.70527,1.272664 0.3072,0.553107 6.46911,-1.776253 3.28863,-0.903399 L 459,51.775876 c -0.1107,-0.26338 -0.27239,-0.520447 -0.48681,-0.769075 -1.06303,-1.230588 -3.36751,-2.328281 -5.87818,-2.823459"
           id="path4146"
           inkscape:connector-curvature="0" />
        <rect
           ry="2.5714293"
           y="40.85714"
           x="436.85715"
           height="22.285713"
           width="22.285717"
           id="rect4148"
           style="color:#bebebe;fill:none;stroke:#c8da2f;stroke-width:1.71428585;stroke-linecap:round;stroke-linejoin:miter;stroke-miterlimit:4;stroke-opacity:1;stroke-dasharray:none;marker:none;visibility:visible;display:inline;overflow:visible;enable-background:accumulate" />
      </g>
      <g
         style="display:inline;enable-background:new"
         id="g4150"
         transform="matrix(0.74999994,0,0,0.74999994,92.000032,73.000004)">
        <path
           style="fill:#c8da2f;fill-opacity:1;fill-rule:evenodd;stroke:none;display:inline;enable-background:new"
           d="m 442.69607,50.319894 1.57133,3.28596 -3.51353,0.851779 c -0.3171,-1.447028 -0.0648,-3.06208 1.9422,-4.137739 z m 9.93894,-2.137089 c -2.46308,-0.577302 -5.13058,-0.553163 -7.86245,-0.140651 -0.0985,0.01469 -0.19647,0.03061 -0.29393,0.04692 l -0.90814,-1.682003 c -0.88391,0.117993 -1.71462,0.301797 -2.4837,0.547362 l 0.86496,1.808902 c -1.41279,0.547229 -2.5722,1.326887 -3.40871,2.26505 -1.3796,1.569755 -1.92479,3.543027 -1.26213,5.464667 0.13328,0.387697 0.31343,0.755373 0.53573,1.099877 l 0.57839,-0.159084 3.22328,-0.884966 3.58567,-0.98505 2.88355,-0.791728 -0.99884,-1.849993 -1.8531,-3.431923 c 0.098,-0.01888 0.19754,-0.03789 0.29921,-0.05637 4.61232,-0.822733 7.135,0.448381 8.51669,1.801067 l -3.51397,0.851776 -1.46651,-2.342551 c -0.83865,-0.04895 -1.80634,0.0012 -2.92723,0.192298 l 1.57291,2.833991 0.70527,1.272664 0.3072,0.553107 6.46911,-1.776253 3.28863,-0.903399 L 459,51.775876 c -0.1107,-0.26338 -0.27239,-0.520447 -0.48681,-0.769075 -1.06303,-1.230588 -3.36751,-2.328281 -5.87818,-2.823459"
           id="path4152"
           inkscape:connector-curvature="0" />
        <rect
           ry="3.333334"
           y="40.666664"
           x="436.66666"
           height="22.66667"
           width="22.666674"
           id="rect4155"
           style="color:#bebebe;fill:none;stroke:#c8da2f;stroke-width:1.33333349;stroke-linecap:round;stroke-linejoin:miter;stroke-miterlimit:4;stroke-opacity:1;stroke-dasharray:none;marker:none;visibility:visible;display:inline;overflow:visible;enable-background:accumulate" />
      </g>
    </g>
    <g
       inkscape:groupmode="layer"
       id="layer5"
       inkscape:label="Highlights"
       style="display:inline"
       sodipodi:insensitive="true">
      <rect
         ry="9"
         y="307"
         x="-265"
         height="42"
         width="42"
         id="rect4884"
         style="opacity:0.20;color:#bebebe;fill:none;stroke:#000000;stroke-width:2;stroke-miterlimit:4;stroke-opacity:1;stroke-dasharray:none;marker:none;visibility:visible;display:inline;overflow:visible;enable-background:accumulate"
         transform="matrix(0,1,1,0,-16,488)"
         clip-path="url(#clipPath4891)" />
      <rect
         style="opacity:0.20;color:#bebebe;fill:none;stroke:#000000;stroke-width:2;stroke-miterlimit:4;stroke-opacity:1;stroke-dasharray:none;marker:none;visibility:visible;display:inline;overflow:visible;enable-background:accumulate"
         id="rect5311"
         width="16"
         height="16"
         x="-228"
         y="304"
         ry="3"
         clip-path="url(#clipPath3855)"
         transform="matrix(0,-1,1,0,112,-72)" />
      <rect
         ry="50"
         y="46"
         x="34"
         height="220"
         width="220"
         id="rect3858"
         style="opacity:0.20;color:#bebebe;fill:none;stroke:#000000;stroke-width:2;stroke-miterlimit:4;stroke-opacity:1;stroke-dasharray:none;marker:none;visibility:visible;display:inline;overflow:visible;enable-background:accumulate"
         clip-path="url(#clipPath3862)" />
      <rect
         ry="12.5"
         y="142"
         x="290"
         height="60"
         width="60"
         id="rect4175"
         style="opacity:0.20;color:#bebebe;fill:none;stroke:#000000;stroke-width:2;stroke-miterlimit:4;stroke-opacity:1;stroke-dasharray:none;marker:none;visibility:visible;display:inline;overflow:visible;enable-background:accumulate"
         clip-path="url(#clipPath4187)" />
      <rect
         style="opacity:0.20;color:#bebebe;fill:none;stroke:#000000;stroke-width:2;stroke-miterlimit:4;stroke-opacity:1;stroke-dasharray:none;marker:none;visibility:visible;display:inline;overflow:visible;enable-background:accumulate"
         id="rect4342"
         width="88"
         height="88"
         x="292"
         y="32"
         ry="18"
         clip-path="url(#clipPath4346)" />
      <rect
         ry="5"
         y="101"
         x="417"
         height="22"
         width="22"
         id="rect3866"
         style="opacity:0.20;color:#bebebe;fill:none;stroke:#000000;stroke-width:2;stroke-miterlimit:4;stroke-opacity:1;stroke-dasharray:none;marker:none;visibility:visible;display:inline;overflow:visible;enable-background:accumulate"
         clip-path="url(#clipPath3871)" />
      <rect
         style="opacity:0.20;color:#bebebe;fill:none;stroke:#000000;stroke-width:2;stroke-miterlimit:4;stroke-opacity:1;stroke-dasharray:none;marker:none;visibility:visible;display:inline;overflow:visible;enable-background:accumulate"
         id="rect3877"
         width="30"
         height="30"
         x="417"
         y="53"
         ry="7"
         clip-path="url(#clipPath3881)" />
    </g>
  </g>
</svg>
