<?xml version="1.0" encoding="UTF-8" standalone="no"?>
<!-- Created with Inkscape (http://www.inkscape.org/) -->

<svg
   xmlns:dc="http://purl.org/dc/elements/1.1/"
   xmlns:cc="http://creativecommons.org/ns#"
   xmlns:rdf="http://www.w3.org/1999/02/22-rdf-syntax-ns#"
   xmlns:svg="http://www.w3.org/2000/svg"
   xmlns="http://www.w3.org/2000/svg"
   xmlns:xlink="http://www.w3.org/1999/xlink"
   xmlns:sodipodi="http://sodipodi.sourceforge.net/DTD/sodipodi-0.dtd"
   xmlns:inkscape="http://www.inkscape.org/namespaces/inkscape"
   inkscape:export-ydpi="90.000000"
   inkscape:export-xdpi="90.000000"
   width="480"
   height="300"
   id="svg11300"
   sodipodi:version="0.32"
   inkscape:version="0.48.4 r9939"
   sodipodi:docname="wine.svg"
   inkscape:output_extension="org.inkscape.output.svg.inkscape"
   version="1.0"
   style="display:inline;enable-background:new"
   inkscape:export-filename="/home/sam/moka2-template.png">
  <sodipodi:namedview
     stroke="#ef2929"
     fill="#f57900"
     id="base"
     pagecolor="#ffffff"
     bordercolor="#666666"
     borderopacity="0.25490196"
     inkscape:pageopacity="0"
     inkscape:pageshadow="2"
     inkscape:zoom="1"
     inkscape:cx="413.416"
     inkscape:cy="230.66282"
     inkscape:current-layer="layer6"
     showgrid="false"
     inkscape:grid-bbox="true"
     inkscape:document-units="px"
     inkscape:showpageshadow="false"
     inkscape:window-width="1364"
     inkscape:window-height="701"
     inkscape:window-x="0"
     inkscape:window-y="27"
     width="400px"
     height="300px"
     inkscape:snap-nodes="true"
     inkscape:snap-bbox="true"
     gridtolerance="10000"
     inkscape:object-nodes="true"
     inkscape:snap-grids="true"
     showguides="true"
     inkscape:guide-bbox="true"
     inkscape:window-maximized="1"
     inkscape:bbox-nodes="true"
     inkscape:bbox-paths="true"
     inkscape:snap-bbox-edge-midpoints="true"
     inkscape:snap-bbox-midpoints="true">
    <inkscape:grid
       spacingy="1px"
       spacingx="1px"
       id="grid5883"
       type="xygrid"
       enabled="true"
       visible="true"
       empspacing="4"
       snapvisiblegridlinesonly="true"
       dotted="false"
       color="#000000"
       opacity="0.1254902"
       empcolor="#203ef3"
       empopacity="0.36470588" />
    <inkscape:grid
       type="xygrid"
       id="grid11592"
       empspacing="8"
       visible="true"
       enabled="false"
       spacingx="0.5px"
       spacingy="0.5px"
       color="#ff0000"
       opacity="0.1254902"
       empcolor="#ff0000"
       empopacity="0.25098039"
       snapvisiblegridlinesonly="true"
       dotted="true" />
  </sodipodi:namedview>
  <defs
     id="defs3">
    <linearGradient
       id="outerBackgroundGradient">
      <stop
         style="stop-color:#e18299;stop-opacity:1;"
         offset="0"
         id="stop3864-8-6" />
      <stop
         style="stop-color:#ea96aa;stop-opacity:1;"
         offset="1"
         id="stop3866-9-1" />
    </linearGradient>
    <linearGradient
       inkscape:collect="always"
       xlink:href="#linearGradient4041"
       id="linearGradient4097"
       gradientUnits="userSpaceOnUse"
       x1="264"
       y1="280.00003"
       x2="264"
       y2="40.00005"
       gradientTransform="matrix(0.06666667,0,0,0.06666667,414.4,137.33333)" />
    <linearGradient
       inkscape:collect="always"
       xlink:href="#linearGradient4041"
       id="linearGradient4101"
       gradientUnits="userSpaceOnUse"
       gradientTransform="matrix(0.0875,0,0,0.0875,414.9,97.5)"
       x1="286.85715"
       y1="302.85715"
       x2="286.85715"
       y2="28.571428" />
    <linearGradient
       inkscape:collect="always"
       xlink:href="#linearGradient4041"
       id="linearGradient4153"
       gradientUnits="userSpaceOnUse"
       gradientTransform="matrix(0.11931818,0,0,0.11931818,414.13636,48.22727)"
       x1="283.80957"
       y1="299.80954"
       x2="283.80957"
       y2="31.61907" />
    <linearGradient
       inkscape:collect="always"
       xlink:href="#linearGradient4041"
       id="linearGradient4869"
       gradientUnits="userSpaceOnUse"
       gradientTransform="matrix(0.175,0,0,-0.175,286.79999,-215.99997)"
       x1="281.14291"
       y1="297.14304"
       x2="281.14291"
       y2="22.857315" />
    <clipPath
       clipPathUnits="userSpaceOnUse"
       id="clipPath4891">
      <rect
         ry="9"
         y="223"
         x="307"
         height="42"
         width="42"
         id="rect4893"
         style="color:#bebebe;fill:url(#linearGradient4895);fill-opacity:1;fill-rule:nonzero;stroke:none;stroke-width:0;marker:none;visibility:visible;display:inline;overflow:visible;enable-background:accumulate"
         transform="matrix(0,1,-1,0,0,0)" />
    </clipPath>
    <linearGradient
       inkscape:collect="always"
       xlink:href="#outerBackgroundGradient"
       id="linearGradient4895"
       gradientUnits="userSpaceOnUse"
       gradientTransform="matrix(0.175,0,0,0.175,302.79999,215.99997)"
       x1="144.00006"
       y1="280.00018"
       x2="144.00006"
       y2="40.000172" />
    <clipPath
       clipPathUnits="userSpaceOnUse"
       id="clipPath4044">
      <rect
         ry="4"
         y="85"
         x="433"
         height="22"
         width="22"
         id="rect4046"
         style="color:#bebebe;fill:url(#linearGradient4048);fill-opacity:1;fill-rule:nonzero;stroke:none;stroke-width:0;marker:none;visibility:visible;display:inline;overflow:visible;enable-background:accumulate" />
    </clipPath>
    <linearGradient
       inkscape:collect="always"
       xlink:href="#outerBackgroundGradient"
       id="linearGradient4048"
       gradientUnits="userSpaceOnUse"
       gradientTransform="matrix(0.0875,0,0,0.0875,430.9,81.499996)"
       x1="149.71428"
       y1="291.42862"
       x2="149.71428"
       y2="40.000046" />
    <clipPath
       clipPathUnits="userSpaceOnUse"
       id="clipPath4089">
      <rect
         style="color:#bebebe;fill:url(#linearGradient4093);fill-opacity:1;fill-rule:nonzero;stroke:none;stroke-width:0;marker:none;visibility:visible;display:inline;overflow:visible;enable-background:accumulate"
         id="rect4091"
         width="30"
         height="30"
         x="433"
         y="37"
         ry="6" />
    </clipPath>
    <linearGradient
       inkscape:collect="always"
       xlink:href="#outerBackgroundGradient"
       id="linearGradient4093"
       gradientUnits="userSpaceOnUse"
       gradientTransform="matrix(0.11931818,0,0,0.11931818,430.13636,32.227267)"
       x1="149.71432"
       y1="291.42862"
       x2="149.71432"
       y2="40.00005" />
    <clipPath
       clipPathUnits="userSpaceOnUse"
       id="clipPath3855">
      <rect
         style="color:#bebebe;fill:url(#linearGradient3859);fill-opacity:1;fill-rule:nonzero;stroke:none;stroke-width:0;marker:none;visibility:visible;display:inline;overflow:visible;enable-background:accumulate"
         id="rect3857"
         width="16"
         height="16"
         x="304"
         y="212"
         ry="3"
         transform="matrix(0,1,-1,0,0,0)" />
    </clipPath>
    <linearGradient
       inkscape:collect="always"
       xlink:href="#outerBackgroundGradient"
       id="linearGradient3859"
       gradientUnits="userSpaceOnUse"
       gradientTransform="matrix(0.06666667,0,0,0.06666667,302.4,209.33333)"
       x1="144"
       y1="280.00003"
       x2="144"
       y2="40.00005" />
    <clipPath
       clipPathUnits="userSpaceOnUse"
       id="clipPath3862">
      <rect
         ry="50"
         y="46"
         x="34"
         height="220"
         width="220"
         id="rect3864"
         style="color:#bebebe;fill:url(#linearGradient3866);fill-opacity:1;fill-rule:nonzero;stroke:none;stroke-width:0;marker:none;visibility:visible;display:inline;overflow:visible;enable-background:accumulate" />
    </clipPath>
    <linearGradient
       inkscape:collect="always"
       xlink:href="#outerBackgroundGradient"
       id="linearGradient3866"
       gradientUnits="userSpaceOnUse"
       gradientTransform="translate(0,-4)"
       x1="144"
       y1="280"
       x2="144"
       y2="40" />
    <linearGradient
       inkscape:collect="always"
       xlink:href="#linearGradient4041"
       id="linearGradient3876"
       gradientUnits="userSpaceOnUse"
       gradientTransform="translate(0,-4)"
       x1="272"
       y1="288"
       x2="272"
       y2="32" />
    <clipPath
       clipPathUnits="userSpaceOnUse"
       id="clipPath4187">
      <rect
         ry="12.5"
         y="142"
         x="290"
         height="60"
         width="60"
         id="rect4189"
         style="color:#bebebe;fill:url(#linearGradient4191);fill-opacity:1;fill-rule:nonzero;stroke:none;stroke-width:0;marker:none;visibility:visible;display:inline;overflow:visible;enable-background:accumulate" />
    </clipPath>
    <linearGradient
       inkscape:collect="always"
       xlink:href="#outerBackgroundGradient"
       id="linearGradient4191"
       gradientUnits="userSpaceOnUse"
       x1="352"
       y1="204"
       x2="352"
       y2="140" />
    <linearGradient
       inkscape:collect="always"
       xlink:href="#linearGradient4041"
       id="linearGradient4197"
       gradientUnits="userSpaceOnUse"
       x1="384"
       y1="124"
       x2="384"
       y2="28" />
    <linearGradient
       inkscape:collect="always"
       xlink:href="#linearGradient4041"
       id="linearGradient4199"
       gradientUnits="userSpaceOnUse"
       x1="352"
       y1="204"
       x2="352"
       y2="140" />
    <clipPath
       clipPathUnits="userSpaceOnUse"
       id="clipPath4346">
      <rect
         style="color:#bebebe;fill:url(#linearGradient4350);fill-opacity:1;fill-rule:nonzero;stroke:none;stroke-width:0;marker:none;visibility:visible;display:inline;overflow:visible;enable-background:accumulate"
         id="rect4348"
         width="88"
         height="88"
         x="292"
         y="32"
         ry="18" />
    </clipPath>
    <linearGradient
       inkscape:collect="always"
       xlink:href="#outerBackgroundGradient"
       id="linearGradient4350"
       gradientUnits="userSpaceOnUse"
       x1="384"
       y1="124"
       x2="384"
       y2="28" />
    <clipPath
       clipPathUnits="userSpaceOnUse"
       id="clipPath3871">
      <rect
         ry="5"
         y="101"
         x="417"
         height="22"
         width="22"
         id="rect3873"
         style="color:#bebebe;fill:url(#linearGradient3875);fill-opacity:1;fill-rule:nonzero;stroke:none;stroke-width:0;marker:none;visibility:visible;display:inline;overflow:visible;enable-background:accumulate" />
    </clipPath>
    <linearGradient
       inkscape:collect="always"
       xlink:href="#outerBackgroundGradient"
       id="linearGradient3875"
       gradientUnits="userSpaceOnUse"
       gradientTransform="matrix(0.0875,0,0,0.0875,414.9,97.5)"
       x1="286.85715"
       y1="302.85715"
       x2="286.85715"
       y2="28.571428" />
    <clipPath
       clipPathUnits="userSpaceOnUse"
       id="clipPath3881">
      <rect
         style="color:#bebebe;fill:url(#linearGradient3885);fill-opacity:1;fill-rule:nonzero;stroke:none;stroke-width:0;marker:none;visibility:visible;display:inline;overflow:visible;enable-background:accumulate"
         id="rect3883"
         width="30"
         height="30"
         x="417"
         y="53"
         ry="7" />
    </clipPath>
    <linearGradient
       inkscape:collect="always"
       xlink:href="#outerBackgroundGradient"
       id="linearGradient3885"
       gradientUnits="userSpaceOnUse"
       gradientTransform="matrix(0.11931818,0,0,0.11931818,414.13636,48.22727)"
       x1="283.80957"
       y1="299.80954"
       x2="283.80957"
       y2="31.61907" />
    <linearGradient
       inkscape:collect="always"
       xlink:href="#linearGradient4041"
       id="linearGradient4047"
       x1="264"
       y1="276"
       x2="264"
       y2="37"
       gradientUnits="userSpaceOnUse" />
    <linearGradient
       id="linearGradient4041">
      <stop
         style="stop-color:#94262f;stop-opacity:1;"
         offset="0"
         id="stop4043" />
      <stop
         style="stop-color:#b0212c;stop-opacity:1;"
         offset="1"
         id="stop4045" />
    </linearGradient>
    <clipPath
       clipPathUnits="userSpaceOnUse"
       id="clipPath4148">
      <path
         sodipodi:nodetypes="cccsssscccsssscc"
         d="m 143.96038,237 0.0792,0 -30.01797,0 c -0.56685,-2.16762 11.399,-5.19363 14.56423,-6.83042 10.90898,-5.64125 12.21986,-8.98384 12.42133,-31.67263 0.2111,-23.7764 -1.04699,-29.10341 -7.53433,-31.90163 -21.72065,-9.36891 -31.69279,-25.62609 -28.94663,-47.19051 C 105.50604,111.71058 114.35509,80.12669 116.2875,77 L 144,77 l 27.7125,0 c 1.93241,3.12669 10.78146,34.71058 11.76129,42.40481 2.74616,21.56442 -7.22598,37.8216 -28.94663,47.19051 -6.48734,2.79822 -7.74543,8.12523 -7.53432,31.90163 0.20146,22.68879 1.51234,26.03138 12.42133,31.67263 3.16522,1.63679 15.13107,4.6628 14.56423,6.83042 l -30.01798,0 z"
         style="fill:url(#linearGradient4154);fill-opacity:1;stroke:none;display:inline;enable-background:new"
         id="path4151"
         inkscape:connector-curvature="0" />
    </clipPath>
    <clipPath
       clipPathUnits="userSpaceOnUse"
       id="clipPath3341">
      <path
         sodipodi:nodetypes="cccsssscccsssscc"
         d="m 143.96038,237 0.0792,0 -30.01797,0 c -0.56685,-2.16762 11.399,-5.19363 14.56423,-6.83042 10.90898,-5.64125 12.21986,-8.98384 12.42133,-31.67263 0.2111,-23.7764 -1.04699,-29.10341 -7.53433,-31.90163 -21.72065,-9.36891 -31.69279,-25.62609 -28.94663,-47.19051 C 105.50604,111.71058 114.35509,80.12669 116.2875,77 L 144,77 l 27.7125,0 c 1.93241,3.12669 10.78146,34.71058 11.76129,42.40481 2.74616,21.56442 -7.22598,37.8216 -28.94663,47.19051 -6.48734,2.79822 -7.74543,8.12523 -7.53432,31.90163 0.20146,22.68879 1.51234,26.03138 12.42133,31.67263 3.16522,1.63679 15.13107,4.6628 14.56423,6.83042 l -30.01798,0 z"
         style="fill:url(#linearGradient4154);fill-opacity:1;stroke:none;display:inline;enable-background:new"
         id="path3343"
         inkscape:connector-curvature="0" />
    </clipPath>
    <linearGradient
       inkscape:collect="always"
       xlink:href="#linearGradient4041"
       id="linearGradient3872"
       gradientUnits="userSpaceOnUse"
       x1="264"
       y1="276"
       x2="264"
       y2="37" />
    <linearGradient
       inkscape:collect="always"
       xlink:href="#linearGradient4041"
       id="linearGradient3890"
       gradientUnits="userSpaceOnUse"
       x1="264"
       y1="276"
       x2="264"
       y2="37" />
    <linearGradient
       inkscape:collect="always"
       xlink:href="#linearGradient4041"
       id="linearGradient3900"
       gradientUnits="userSpaceOnUse"
       x1="264"
       y1="276"
       x2="264"
       y2="37" />
    <linearGradient
       inkscape:collect="always"
       xlink:href="#linearGradient4041"
       id="linearGradient3910"
       gradientUnits="userSpaceOnUse"
       x1="264"
       y1="276"
       x2="264"
       y2="37" />
    <linearGradient
       inkscape:collect="always"
       xlink:href="#linearGradient4041"
       id="linearGradient3920"
       gradientUnits="userSpaceOnUse"
       x1="264"
       y1="276"
       x2="264"
       y2="37" />
    <linearGradient
       inkscape:collect="always"
       xlink:href="#linearGradient4041"
       id="linearGradient3930"
       gradientUnits="userSpaceOnUse"
       x1="264"
       y1="276"
       x2="264"
       y2="37" />
  </defs>
  <metadata
     id="metadata4">
    <rdf:RDF>
      <cc:Work
         rdf:about="">
        <dc:format>image/svg+xml</dc:format>
        <dc:type
           rdf:resource="http://purl.org/dc/dcmitype/StillImage" />
        <dc:creator>
          <cc:Agent>
            <dc:title>Sam Hewitt</dc:title>
          </cc:Agent>
        </dc:creator>
        <dc:source />
        <cc:license
           rdf:resource="" />
        <dc:title />
        <dc:subject>
          <rdf:Bag />
        </dc:subject>
        <dc:date />
        <dc:rights>
          <cc:Agent>
            <dc:title />
          </cc:Agent>
        </dc:rights>
        <dc:publisher>
          <cc:Agent>
            <dc:title />
          </cc:Agent>
        </dc:publisher>
        <dc:identifier />
        <dc:relation />
        <dc:language />
        <dc:coverage />
        <dc:description />
        <dc:contributor>
          <cc:Agent>
            <dc:title />
          </cc:Agent>
        </dc:contributor>
      </cc:Work>
      <cc:Work
         rdf:about="">
        <dc:format>image/svg+xml</dc:format>
        <dc:type
           rdf:resource="http://purl.org/dc/dcmitype/StillImage" />
      </cc:Work>
    </rdf:RDF>
  </metadata>
  <g
     style="display:inline"
     inkscape:groupmode="layer"
     inkscape:label="Icon"
     id="layer1">
    <g
       style="display:none"
       inkscape:label="Baseplate"
       id="layer7"
       inkscape:groupmode="layer">
      <text
         y="19.745117"
         xml:space="preserve"
         x="15.006836"
         style="font-size:18px;font-style:normal;font-variant:normal;font-weight:normal;font-stretch:normal;fill:#000000;fill-opacity:1;stroke:none;display:inline;enable-background:new;font-family:DejaVu Sans;-inkscape-font-specification:DejaVu Sans"
         inkscape:label="context"
         id="context"><tspan
           style="font-style:normal;font-variant:normal;font-weight:normal;font-stretch:normal;font-family:DejaVu Sans;-inkscape-font-specification:DejaVu Sans"
           y="19.745117"
           x="15.006836"
           sodipodi:role="line"
           id="tspan3933">apps</tspan></text>
      <text
         y="19.745117"
         xml:space="preserve"
         x="122.48828"
         style="font-size:18px;font-style:normal;font-variant:normal;font-weight:bold;font-stretch:normal;text-align:start;line-height:125%;writing-mode:lr-tb;text-anchor:start;fill:#000000;fill-opacity:1;stroke:none;display:inline;enable-background:new;font-family:DejaVu Sans;-inkscape-font-specification:DejaVu Sans Bold"
         sodipodi:linespacing="125%"
         inkscape:label="icon-name"
         id="icon-name"><tspan
           style="font-size:18px;font-style:normal;font-variant:normal;font-weight:bold;font-stretch:normal;font-family:DejaVu Sans;-inkscape-font-specification:DejaVu Sans Bold"
           y="19.745117"
           x="122.48828"
           sodipodi:role="line"
           id="tspan3937">wine</tspan></text>
      <rect
         style="fill:#eeeeec;fill-opacity:1;fill-rule:nonzero;stroke:none;stroke-width:2;marker:none;visibility:visible;display:inline;overflow:visible;enable-background:accumulate"
         id="rect16x16"
         width="16"
         height="16"
         x="416"
         y="140"
         inkscape:label="16x16" />
      <rect
         style="fill:#d4d4d4;fill-opacity:1;fill-rule:nonzero;stroke:none;stroke-width:2;marker:none;visibility:visible;display:inline;overflow:visible;enable-background:accumulate"
         id="rect24x24"
         width="24"
         height="24"
         x="416"
         y="100"
         inkscape:label="24x24" />
      <rect
         style="fill:#eeeeec;fill-opacity:1;fill-rule:nonzero;stroke:none;stroke-width:2;marker:none;visibility:visible;display:inline;overflow:visible;enable-background:accumulate"
         id="rect32x32"
         width="32"
         height="32"
         x="416"
         y="52"
         inkscape:label="32x32" />
      <rect
         inkscape:label="22x22"
         y="101"
         x="417"
         height="22"
         width="22"
         id="rect22x22"
         style="fill:#eeeeec;fill-opacity:1;fill-rule:nonzero;stroke:none;stroke-width:2;marker:none;visibility:visible;display:inline;overflow:visible;enable-background:accumulate" />
      <rect
         inkscape:label="48x48"
         y="220"
         x="288"
         height="48"
         width="48"
         id="rect48x48"
         style="fill:#eeeeec;fill-opacity:1;fill-rule:nonzero;stroke:none;stroke-width:2;marker:none;visibility:visible;display:inline;overflow:visible;enable-background:accumulate" />
      <rect
         style="fill:#eeeeec;fill-opacity:1;fill-rule:nonzero;stroke:none;stroke-width:2;marker:none;visibility:visible;display:inline;overflow:visible;enable-background:accumulate"
         id="rect256x256"
         width="256"
         height="256"
         x="16"
         y="28"
         inkscape:label="256x256" />
      <rect
         style="fill:#eeeeec;fill-opacity:1;fill-rule:nonzero;stroke:none;stroke-width:2;marker:none;visibility:visible;display:inline;overflow:visible;enable-background:accumulate"
         id="rect64x64"
         width="64"
         height="64"
         x="288"
         y="140"
         inkscape:label="64x64" />
      <rect
         style="fill:#eeeeec;fill-opacity:1;fill-rule:nonzero;stroke:none;stroke-width:2;marker:none;visibility:visible;display:inline;overflow:visible;enable-background:accumulate"
         id="rect96x96"
         width="96"
         height="96"
         x="288"
         y="28"
         inkscape:label="96x96" />
    </g>
    <g
       inkscape:groupmode="layer"
       id="layer4"
       inkscape:label="Shadow"
       style="display:inline"
       sodipodi:insensitive="true">
      <rect
         style="opacity:0.0;color:#bebebe;fill:#000000;fill-opacity:1;stroke:#000000;stroke-width:1;stroke-miterlimit:4;stroke-opacity:1;stroke-dasharray:none;marker:none;visibility:visible;display:inline;overflow:visible;enable-background:accumulate"
         id="rect4156"
         width="42"
         height="42"
         x="-266.5"
         y="291"
         ry="9"
         transform="matrix(0,-1,1,0,0,0)" />
      <rect
         transform="matrix(0,-1,1,0,0,0)"
         ry="9"
         y="291"
         x="-266.5"
         height="42"
         width="40"
         id="rect4183"
         style="opacity:0.1;color:#bebebe;fill:#000000;fill-opacity:1;stroke:none;stroke-width:1;marker:none;visibility:visible;display:inline;overflow:visible;enable-background:accumulate" />
      <rect
         ry="9"
         y="237"
         x="291"
         height="29"
         width="42"
         id="rect4144"
         style="opacity:0.1;color:#bebebe;fill:#000000;fill-opacity:1;fill-rule:nonzero;stroke:none;stroke-width:0;marker:none;visibility:visible;display:inline;overflow:visible;enable-background:accumulate" />
      <rect
         style="opacity:0.0;color:#bebebe;fill:#000000;fill-opacity:1;fill-rule:nonzero;stroke:#000000;stroke-width:1;stroke-miterlimit:4;stroke-opacity:1;stroke-dasharray:none;marker:none;visibility:visible;display:inline;overflow:visible;enable-background:accumulate"
         id="rect4340"
         width="88"
         height="88"
         x="292"
         y="33.5"
         ry="18" />
      <rect
         ry="18"
         y="52.5"
         x="292"
         height="69"
         width="88"
         id="rect4338"
         style="opacity:0.1;color:#bebebe;fill:#000000;fill-opacity:1;fill-rule:nonzero;stroke:none;stroke-width:0;marker:none;visibility:visible;display:inline;overflow:visible;enable-background:accumulate" />
      <rect
         style="opacity:0.1;color:#bebebe;fill:#000000;fill-opacity:1;fill-rule:nonzero;stroke:none;stroke-width:0;marker:none;visibility:visible;display:inline;overflow:visible;enable-background:accumulate"
         id="rect4335"
         width="88"
         height="76.5"
         x="292"
         y="44.5"
         ry="18" />
      <rect
         style="opacity:0.0;color:#bebebe;fill:#000000;fill-opacity:1;fill-rule:nonzero;stroke:#000000;stroke-width:1;stroke-miterlimit:4;stroke-opacity:1;stroke-dasharray:none;marker:none;visibility:visible;display:inline;overflow:visible;enable-background:accumulate"
         id="rect4214"
         width="60"
         height="60"
         x="290"
         y="143.5"
         ry="12.5" />
      <rect
         ry="12.5"
         y="151.5"
         x="290"
         height="52"
         width="60"
         id="rect4206"
         style="opacity:0.1;color:#bebebe;fill:#000000;fill-opacity:1;fill-rule:nonzero;stroke:none;stroke-width:0;marker:none;visibility:visible;display:inline;overflow:visible;enable-background:accumulate" />
      <rect
         style="opacity:0.1;color:#bebebe;fill:#000000;fill-opacity:1;fill-rule:nonzero;stroke:none;stroke-width:0;marker:none;visibility:visible;display:inline;overflow:visible;enable-background:accumulate"
         id="rect4212"
         width="60"
         height="54.5"
         x="290"
         y="148.5"
         ry="12.5" />
      <rect
         style="opacity:0.5;color:#bebebe;fill:#000000;fill-opacity:1;fill-rule:nonzero;stroke:none;stroke-width:0;marker:none;visibility:visible;display:inline;overflow:visible;enable-background:accumulate"
         id="rect4058"
         width="30"
         height="30"
         x="417"
         y="54"
         ry="7" />
      <rect
         ry="50"
         y="48"
         x="34"
         height="220"
         width="220"
         id="rect3872"
         style="opacity:0.0;color:#bebebe;fill:#000000;fill-opacity:1;fill-rule:nonzero;stroke:#000000;stroke-width:2;stroke-miterlimit:4;stroke-opacity:1;stroke-dasharray:none;marker:none;visibility:visible;display:inline;overflow:visible;enable-background:accumulate" />
      <rect
         style="opacity:0.1;color:#bebebe;fill:#000000;fill-opacity:1;fill-rule:nonzero;stroke:none;stroke-width:0;marker:none;visibility:visible;display:inline;overflow:visible;enable-background:accumulate"
         id="rect3870"
         width="220"
         height="220"
         x="34"
         y="48"
         ry="50" />
      <rect
         ry="50"
         y="47"
         x="34"
         height="220"
         width="220"
         id="rect3868"
         style="opacity:0.1;color:#bebebe;fill:#000000;fill-opacity:1;fill-rule:nonzero;stroke:none;stroke-width:0;marker:none;visibility:visible;display:inline;overflow:visible;enable-background:accumulate" />
    </g>
    <g
       inkscape:groupmode="layer"
       id="layer2"
       inkscape:label="Background"
       style="display:inline">
      <rect
         style="color:#bebebe;fill:url(#linearGradient3876);fill-opacity:1.0;fill-rule:nonzero;stroke:none;stroke-width:0;marker:none;visibility:visible;display:inline;overflow:visible;enable-background:accumulate"
         id="rect4040"
         width="220"
         height="220"
         x="34"
         y="46"
         ry="50" />
      <rect
         ry="3"
         y="140"
         x="416"
         height="16"
         width="16"
         id="rect4095"
         style="color:#bebebe;fill:url(#linearGradient4097);fill-opacity:1.0;fill-rule:nonzero;stroke:none;stroke-width:0;marker:none;visibility:visible;display:inline;overflow:visible;enable-background:accumulate" />
      <rect
         style="color:#bebebe;fill:url(#linearGradient4101);fill-opacity:1.0;fill-rule:nonzero;stroke:none;stroke-width:0;marker:none;visibility:visible;display:inline;overflow:visible;enable-background:accumulate"
         id="rect4099"
         width="22"
         height="22"
         x="417"
         y="101"
         ry="5" />
      <rect
         ry="7"
         y="53"
         x="417"
         height="30"
         width="30"
         id="rect4151"
         style="color:#bebebe;fill:url(#linearGradient4153);fill-opacity:1.0;fill-rule:nonzero;stroke:none;stroke-width:0;marker:none;visibility:visible;display:inline;overflow:visible;enable-background:accumulate" />
      <rect
         style="color:#bebebe;fill:url(#linearGradient4869);fill-opacity:1.0;fill-rule:nonzero;stroke:none;stroke-width:0;marker:none;visibility:visible;display:inline;overflow:visible;enable-background:accumulate"
         id="rect4783"
         width="42"
         height="42"
         x="291"
         y="-265"
         ry="9"
         transform="scale(1,-1)" />
      <rect
         ry="18"
         y="32"
         x="292"
         height="88"
         width="88"
         id="rect4511"
         style="color:#bebebe;fill:url(#linearGradient4197);fill-opacity:1.0;fill-rule:nonzero;stroke:none;stroke-width:0;marker:none;visibility:visible;display:inline;overflow:visible;enable-background:accumulate" />
      <rect
         style="color:#bebebe;fill:url(#linearGradient4199);fill-opacity:1.0;fill-rule:nonzero;stroke:none;stroke-width:0;marker:none;visibility:visible;display:inline;overflow:visible;enable-background:accumulate"
         id="rect4515"
         width="60"
         height="60"
         x="290"
         y="142"
         ry="12.5" />
    </g>
    <g
       inkscape:groupmode="layer"
       id="layer6"
       inkscape:label="Symbols"
       style="display:inline">
      <path
         sodipodi:nodetypes="cccsssscccsssscc"
         d="m 143.96038,237 0.0792,0 -30.01797,0 c -0.56685,-2.16762 11.399,-5.19363 14.56423,-6.83042 10.90898,-5.64125 12.21986,-8.98384 12.42133,-31.67263 0.2111,-23.7764 -1.04699,-29.10341 -7.53433,-31.90163 -21.72065,-9.36891 -31.69279,-25.62609 -28.94663,-47.19051 C 105.50604,111.71058 114.35509,80.12669 116.2875,77 L 144,77 l 27.7125,0 c 1.93241,3.12669 10.78146,34.71058 11.76129,42.40481 2.74616,21.56442 -7.22598,37.8216 -28.94663,47.19051 -6.48734,2.79822 -7.74543,8.12523 -7.53432,31.90163 0.20146,22.68879 1.51234,26.03138 12.42133,31.67263 3.16522,1.63679 15.13107,4.6628 14.56423,6.83042 l -30.01798,0 z"
         style="opacity:0.2;fill:#000000;fill-opacity:1;stroke:none;display:inline;enable-background:new"
         id="path3910"
         inkscape:connector-curvature="0" />
      <path
         inkscape:connector-curvature="0"
         id="path3912"
         style="opacity:0.2;fill:#000000;fill-opacity:1;stroke:none;display:inline;enable-background:new"
         d="m 335.98514,107 0.0297,0 -11.25674,0 c -0.21257,-0.81286 4.27463,-1.94761 5.46159,-2.56141 4.09087,-2.11547 4.58245,-3.36894 4.658,-11.877234 0.0792,-8.91615 -0.39262,-10.913779 -2.82537,-11.963111 -8.14525,-3.513341 -11.8848,-9.609784 -10.85499,-17.696441 C 321.56477,60.016467 324.88316,48.172509 325.60781,47 L 336,47 l 10.39219,0 c 0.72465,1.172509 4.04305,13.016467 4.41048,15.901804 1.02981,8.086657 -2.70974,14.1831 -10.85499,17.696441 -2.43275,1.049332 -2.90453,3.046961 -2.82536,11.963111 0.0755,8.508294 0.56712,9.761764 4.65799,11.877234 1.18696,0.6138 5.67416,1.74855 5.46159,2.56141 l -11.25674,0 z"
         sodipodi:nodetypes="cccsssscccsssscc" />
      <path
         sodipodi:nodetypes="cccsssscccsssscc"
         d="m 319.99009,193 0.0198,0 -7.50449,0 c -0.14171,-0.5419 2.84975,-1.29841 3.64106,-1.70761 2.72724,-1.41031 3.05496,-2.24596 3.10533,-7.91815 0.0528,-5.9441 -0.26175,-7.27586 -1.88358,-7.97541 -5.43016,-2.34223 -7.9232,-6.40652 -7.23666,-11.79763 0.24496,-1.92356 2.45722,-9.81953 2.94032,-10.6012 l 6.92813,0 6.92813,0 c 0.4831,0.78167 2.69536,8.67764 2.94032,10.6012 0.68654,5.39111 -1.8065,9.4554 -7.23666,11.79763 -1.62184,0.69955 -1.93636,2.03131 -1.88358,7.97541 0.0504,5.67219 0.37809,6.50784 3.10533,7.91815 0.79131,0.4092 3.78277,1.16571 3.64106,1.70761 l -7.50449,0 z"
         style="opacity:0.2;fill:#000000;fill-opacity:1;stroke:none;display:inline;enable-background:new"
         id="path3915"
         inkscape:connector-curvature="0" />
      <path
         inkscape:connector-curvature="0"
         id="path3917"
         style="opacity:0.2;fill:#000000;fill-opacity:1;stroke:none;display:inline;enable-background:new"
         d="m 311.99307,259 0.0139,0 -5.25315,0 c -0.0992,-0.37933 1.99483,-0.90889 2.54874,-1.19532 1.90907,-0.98722 2.13848,-1.57218 2.17373,-5.54271 0.0369,-4.16087 -0.18322,-5.0931 -1.3185,-5.58279 -3.80112,-1.63956 -5.54624,-4.48456 -5.06566,-8.25834 0.17147,-1.34649 1.72005,-6.87367 2.05822,-7.42084 l 4.84969,0 4.84969,0 c 0.33817,0.54717 1.88675,6.07435 2.05822,7.42084 0.48058,3.77378 -1.26454,6.61878 -5.06566,8.25834 -1.13528,0.48969 -1.35545,1.42192 -1.3185,5.58279 0.0353,3.97053 0.26466,4.55549 2.17373,5.54271 0.55391,0.28643 2.64794,0.81599 2.54874,1.19532 l -5.25315,0 z"
         sodipodi:nodetypes="cccsssscccsssscc" />
      <path
         sodipodi:nodetypes="cccsssscccsssscc"
         d="m 431.99505,79 0.01,0 -3.75225,0 c -0.0709,-0.270952 1.42488,-0.649204 1.82053,-0.853803 1.36362,-0.705156 1.52748,-1.12298 1.55267,-3.959078 0.0264,-2.97205 -0.13088,-3.637926 -0.9418,-3.987704 -2.71508,-1.171114 -3.96159,-3.203261 -3.61832,-5.898814 0.12248,-0.961779 1.22861,-4.909765 1.47016,-5.300601 L 432,59 l 3.46406,0 c 0.24155,0.390836 1.34768,4.338822 1.47016,5.300601 0.34327,2.695553 -0.90324,4.7277 -3.61833,5.898814 -0.81091,0.349778 -0.96817,1.015654 -0.94179,3.987704 0.0252,2.836098 0.18905,3.253922 1.55267,3.959078 0.39565,0.204599 1.89138,0.582851 1.82053,0.853803 l -3.75225,0 z"
         style="opacity:0.2;fill:#000000;fill-opacity:1;stroke:none;display:inline;enable-background:new"
         id="path3919"
         inkscape:connector-curvature="0" />
      <path
         inkscape:connector-curvature="0"
         id="path3921"
         style="opacity:0.2;fill:#000000;fill-opacity:1;stroke:none;display:inline;enable-background:new"
         d="m 427.99653,120 0.007,0 -2.62657,0 c -0.0496,-0.18967 0.99741,-0.45444 1.27437,-0.59766 0.95454,-0.49361 1.06924,-0.78609 1.08687,-2.77136 0.0185,-2.08043 -0.0916,-2.54655 -0.65926,-2.79139 -1.90055,-0.81978 -2.77312,-2.24228 -2.53283,-4.12917 0.0857,-0.67324 0.86003,-3.43683 1.02912,-3.71042 l 2.42484,0 2.42484,0 c 0.16909,0.27359 0.94338,3.03718 1.02912,3.71042 0.24029,1.88689 -0.63228,3.30939 -2.53283,4.12917 -0.56765,0.24484 -0.67773,0.71096 -0.65926,2.79139 0.0176,1.98527 0.13233,2.27775 1.08687,2.77136 0.27696,0.14322 1.32397,0.40799 1.27437,0.59766 l -2.62657,0 z"
         sodipodi:nodetypes="cccsssscccsssscc" />
      <path
         sodipodi:nodetypes="cccsssscccsssscc"
         d="m 423.99752,154 0.005,0 -1.87612,0 c -0.0354,-0.13548 0.71244,-0.3246 0.91026,-0.4269 0.68182,-0.35258 0.76375,-0.56149 0.77634,-1.97954 0.0132,-1.48603 -0.0654,-1.81896 -0.4709,-1.99385 -1.35754,-0.58556 -1.9808,-1.60163 -1.80916,-2.94941 0.0612,-0.48089 0.6143,-2.45488 0.73508,-2.6503 l 1.73203,0 1.73203,0 c 0.12078,0.19542 0.67384,2.16941 0.73508,2.6503 0.17164,1.34778 -0.45162,2.36385 -1.80916,2.94941 -0.40546,0.17489 -0.48409,0.50782 -0.4709,1.99385 0.0126,1.41805 0.0945,1.62696 0.77634,1.97954 0.19782,0.1023 0.94569,0.29142 0.91026,0.4269 l -1.87612,0 z"
         style="opacity:0.2;fill:#000000;fill-opacity:1;stroke:none;display:inline;enable-background:new"
         id="path3923"
         inkscape:connector-curvature="0" />
      <path
         inkscape:connector-curvature="0"
         id="path3406"
         style="fill:#ffffff;fill-opacity:1;stroke:none;display:inline;enable-background:new"
         d="m 143.96038,236 0.0792,0 -30.01797,0 c -0.56685,-2.16762 11.399,-5.19363 14.56423,-6.83042 10.90898,-5.64125 12.21986,-8.98384 12.42133,-31.67263 0.2111,-23.7764 -1.04699,-29.10341 -7.53433,-31.90163 -21.72065,-9.36891 -31.69279,-25.62609 -28.94663,-47.19051 C 105.50604,110.71058 114.35509,79.12669 116.2875,76 L 144,76 l 27.7125,0 c 1.93241,3.12669 10.78146,34.71058 11.76129,42.40481 2.74616,21.56442 -7.22598,37.8216 -28.94663,47.19051 -6.48734,2.79822 -7.74543,8.12523 -7.53432,31.90163 0.20146,22.68879 1.51234,26.03138 12.42133,31.67263 3.16522,1.63679 15.13107,4.6628 14.56423,6.83042 l -30.01798,0 z"
         sodipodi:nodetypes="cccsssscccsssscc" />
      <path
         sodipodi:nodetypes="cccsssscccsssscc"
         d="m 335.98514,106 0.0297,0 -11.25674,0 c -0.21257,-0.81286 4.27463,-1.94761 5.46159,-2.56141 4.09087,-2.11547 4.58245,-3.36894 4.658,-11.877234 0.0792,-8.91615 -0.39262,-10.913779 -2.82537,-11.963111 -8.14525,-3.513341 -11.8848,-9.609784 -10.85499,-17.696441 C 321.56477,59.016467 324.88316,47.172509 325.60781,46 L 336,46 l 10.39219,0 c 0.72465,1.172509 4.04305,13.016467 4.41048,15.901804 1.02981,8.086657 -2.70974,14.1831 -10.85499,17.696441 -2.43275,1.049332 -2.90453,3.046961 -2.82536,11.963111 0.0755,8.508294 0.56712,9.761764 4.65799,11.877234 1.18696,0.6138 5.67416,1.74855 5.46159,2.56141 l -11.25674,0 z"
         style="fill:#ffffff;fill-opacity:1;stroke:none;display:inline;enable-background:new"
         id="path3864"
         inkscape:connector-curvature="0" />
      <path
         inkscape:connector-curvature="0"
         id="path3884"
         style="fill:#ffffff;fill-opacity:1;stroke:none;display:inline;enable-background:new"
         d="m 319.99009,192 0.0198,0 -7.50449,0 c -0.14171,-0.5419 2.84975,-1.29841 3.64106,-1.70761 2.72724,-1.41031 3.05496,-2.24596 3.10533,-7.91815 0.0528,-5.9441 -0.26175,-7.27586 -1.88358,-7.97541 -5.43016,-2.34223 -7.9232,-6.40652 -7.23666,-11.79763 0.24496,-1.92356 2.45722,-9.81953 2.94032,-10.6012 l 6.92813,0 6.92813,0 c 0.4831,0.78167 2.69536,8.67764 2.94032,10.6012 0.68654,5.39111 -1.8065,9.4554 -7.23666,11.79763 -1.62184,0.69955 -1.93636,2.03131 -1.88358,7.97541 0.0504,5.67219 0.37809,6.50784 3.10533,7.91815 0.79131,0.4092 3.78277,1.16571 3.64106,1.70761 l -7.50449,0 z"
         sodipodi:nodetypes="cccsssscccsssscc" />
      <path
         sodipodi:nodetypes="cccsssscccsssscc"
         d="m 311.99307,258 0.0139,0 -5.25315,0 c -0.0992,-0.37933 1.99483,-0.90889 2.54874,-1.19532 1.90907,-0.98722 2.13848,-1.57218 2.17373,-5.54271 0.0369,-4.16087 -0.18322,-5.0931 -1.3185,-5.58279 -3.80112,-1.63956 -5.54624,-4.48456 -5.06566,-8.25834 0.17147,-1.34649 1.72005,-6.87367 2.05822,-7.42084 l 4.84969,0 4.84969,0 c 0.33817,0.54717 1.88675,6.07435 2.05822,7.42084 0.48058,3.77378 -1.26454,6.61878 -5.06566,8.25834 -1.13528,0.48969 -1.35545,1.42192 -1.3185,5.58279 0.0353,3.97053 0.26466,4.55549 2.17373,5.54271 0.55391,0.28643 2.64794,0.81599 2.54874,1.19532 l -5.25315,0 z"
         style="fill:#ffffff;fill-opacity:1;stroke:none;display:inline;enable-background:new"
         id="path3894"
         inkscape:connector-curvature="0" />
      <path
         inkscape:connector-curvature="0"
         id="path3904"
         style="fill:#ffffff;fill-opacity:1;stroke:none;display:inline;enable-background:new"
         d="m 431.99505,78 0.01,0 -3.75225,0 c -0.0709,-0.270952 1.42488,-0.649204 1.82053,-0.853803 1.36362,-0.705156 1.52748,-1.12298 1.55267,-3.959078 0.0264,-2.97205 -0.13088,-3.637926 -0.9418,-3.987704 -2.71508,-1.171114 -3.96159,-3.203261 -3.61832,-5.898814 0.12248,-0.961779 1.22861,-4.909765 1.47016,-5.300601 L 432,58 l 3.46406,0 c 0.24155,0.390836 1.34768,4.338822 1.47016,5.300601 0.34327,2.695553 -0.90324,4.7277 -3.61833,5.898814 -0.81091,0.349778 -0.96817,1.015654 -0.94179,3.987704 0.0252,2.836098 0.18905,3.253922 1.55267,3.959078 0.39565,0.204599 1.89138,0.582851 1.82053,0.853803 l -3.75225,0 z"
         sodipodi:nodetypes="cccsssscccsssscc" />
      <path
         sodipodi:nodetypes="cccsssscccsssscc"
         d="m 427.99653,119 0.007,0 -2.62657,0 c -0.0496,-0.18967 0.99741,-0.45444 1.27437,-0.59766 0.95454,-0.49361 1.06924,-0.78609 1.08687,-2.77136 0.0185,-2.08043 -0.0916,-2.54655 -0.65926,-2.79139 -1.90055,-0.81978 -2.77312,-2.24228 -2.53283,-4.12917 0.0857,-0.67324 0.86003,-3.43683 1.02912,-3.71042 l 2.42484,0 2.42484,0 c 0.16909,0.27359 0.94338,3.03718 1.02912,3.71042 0.24029,1.88689 -0.63228,3.30939 -2.53283,4.12917 -0.56765,0.24484 -0.67773,0.71096 -0.65926,2.79139 0.0176,1.98527 0.13233,2.27775 1.08687,2.77136 0.27696,0.14322 1.32397,0.40799 1.27437,0.59766 l -2.62657,0 z"
         style="fill:#ffffff;fill-opacity:1;stroke:none;display:inline;enable-background:new"
         id="path3914"
         inkscape:connector-curvature="0" />
      <path
         inkscape:connector-curvature="0"
         id="path3924"
         style="fill:#ffffff;fill-opacity:1;stroke:none;display:inline;enable-background:new"
         d="m 423.99752,153 0.005,0 -1.87612,0 c -0.0354,-0.13548 0.71244,-0.3246 0.91026,-0.4269 0.68182,-0.35258 0.76375,-0.56149 0.77634,-1.97954 0.0132,-1.48603 -0.0654,-1.81896 -0.4709,-1.99385 -1.35754,-0.58556 -1.9808,-1.60163 -1.80916,-2.94941 0.0612,-0.48089 0.6143,-2.45488 0.73508,-2.6503 l 1.73203,0 1.73203,0 c 0.12078,0.19542 0.67384,2.16941 0.73508,2.6503 0.17164,1.34778 -0.45162,2.36385 -1.80916,2.94941 -0.40546,0.17489 -0.48409,0.50782 -0.4709,1.99385 0.0126,1.41805 0.0945,1.62696 0.77634,1.97954 0.19782,0.1023 0.94569,0.29142 0.91026,0.4269 l -1.87612,0 z"
         sodipodi:nodetypes="cccsssscccsssscc" />
    </g>
    <g
       inkscape:groupmode="layer"
       id="layer5"
       inkscape:label="Highlights"
       style="display:inline"
       sodipodi:insensitive="true">
      <rect
         ry="9"
         y="307"
         x="-265"
         height="42"
         width="42"
         id="rect4884"
         style="opacity:0.15;color:#bebebe;fill:none;stroke:#000000;stroke-width:2;stroke-miterlimit:4;stroke-opacity:1;stroke-dasharray:none;marker:none;visibility:visible;display:inline;overflow:visible;enable-background:accumulate"
         transform="matrix(0,1,1,0,-16,488)"
         clip-path="url(#clipPath4891)" />
      <rect
         style="opacity:0.15;color:#bebebe;fill:none;stroke:#000000;stroke-width:2;stroke-miterlimit:4;stroke-opacity:1;stroke-dasharray:none;marker:none;visibility:visible;display:inline;overflow:visible;enable-background:accumulate"
         id="rect5311"
         width="16"
         height="16"
         x="-228"
         y="304"
         ry="3"
         clip-path="url(#clipPath3855)"
         transform="matrix(0,-1,1,0,112,-72)" />
      <rect
         ry="50"
         y="46"
         x="34"
         height="220"
         width="220"
         id="rect3858"
         style="opacity:0.15;color:#bebebe;fill:none;stroke:#000000;stroke-width:2;stroke-miterlimit:4;stroke-opacity:1;stroke-dasharray:none;marker:none;visibility:visible;display:inline;overflow:visible;enable-background:accumulate"
         clip-path="url(#clipPath3862)" />
      <rect
         ry="12.5"
         y="142"
         x="290"
         height="60"
         width="60"
         id="rect4175"
         style="opacity:0.15;color:#bebebe;fill:none;stroke:#000000;stroke-width:2;stroke-miterlimit:4;stroke-opacity:1;stroke-dasharray:none;marker:none;visibility:visible;display:inline;overflow:visible;enable-background:accumulate"
         clip-path="url(#clipPath4187)" />
      <rect
         style="opacity:0.15;color:#bebebe;fill:none;stroke:#000000;stroke-width:2;stroke-miterlimit:4;stroke-opacity:1;stroke-dasharray:none;marker:none;visibility:visible;display:inline;overflow:visible;enable-background:accumulate"
         id="rect4342"
         width="88"
         height="88"
         x="292"
         y="32"
         ry="18"
         clip-path="url(#clipPath4346)" />
      <rect
         ry="5"
         y="101"
         x="417"
         height="22"
         width="22"
         id="rect3866"
         style="opacity:0.15;color:#bebebe;fill:none;stroke:#000000;stroke-width:2;stroke-miterlimit:4;stroke-opacity:1;stroke-dasharray:none;marker:none;visibility:visible;display:inline;overflow:visible;enable-background:accumulate"
         clip-path="url(#clipPath3871)" />
      <rect
         style="opacity:0.15;color:#bebebe;fill:none;stroke:#000000;stroke-width:2;stroke-miterlimit:4;stroke-opacity:1;stroke-dasharray:none;marker:none;visibility:visible;display:inline;overflow:visible;enable-background:accumulate"
         id="rect3877"
         width="30"
         height="30"
         x="417"
         y="53"
         ry="7"
         clip-path="url(#clipPath3881)" />
    </g>
  </g>
</svg>
