<?xml version="1.0" encoding="UTF-8" standalone="no"?>
<!-- Created with Inkscape (http://www.inkscape.org/) -->

<svg
   xmlns:dc="http://purl.org/dc/elements/1.1/"
   xmlns:cc="http://creativecommons.org/ns#"
   xmlns:rdf="http://www.w3.org/1999/02/22-rdf-syntax-ns#"
   xmlns:svg="http://www.w3.org/2000/svg"
   xmlns="http://www.w3.org/2000/svg"
   xmlns:xlink="http://www.w3.org/1999/xlink"
   xmlns:sodipodi="http://sodipodi.sourceforge.net/DTD/sodipodi-0.dtd"
   xmlns:inkscape="http://www.inkscape.org/namespaces/inkscape"
   inkscape:export-ydpi="90.000000"
   inkscape:export-xdpi="90.000000"
   width="480"
   height="300"
   id="svg11300"
   sodipodi:version="0.32"
   inkscape:version="0.48.4 r9939"
   sodipodi:docname="cherrytree.svg"
   inkscape:output_extension="org.inkscape.output.svg.inkscape"
   version="1.0"
   style="display:inline;enable-background:new"
   inkscape:export-filename="/home/sam/moka-next-template.png">
  <sodipodi:namedview
     stroke="#ef2929"
     fill="#f57900"
     id="base"
     pagecolor="#777777"
     bordercolor="#666666"
     borderopacity="0.25490196"
     inkscape:pageopacity="0"
     inkscape:pageshadow="2"
     inkscape:zoom="1"
     inkscape:cx="418.86352"
     inkscape:cy="237.52947"
     inkscape:current-layer="layer7"
     showgrid="false"
     inkscape:grid-bbox="true"
     inkscape:document-units="px"
     inkscape:showpageshadow="false"
     inkscape:window-width="1364"
     inkscape:window-height="700"
     inkscape:window-x="0"
     inkscape:window-y="28"
     width="400px"
     height="300px"
     inkscape:snap-nodes="true"
     inkscape:snap-bbox="true"
     gridtolerance="10000"
     inkscape:object-nodes="true"
     inkscape:snap-grids="true"
     showguides="true"
     inkscape:guide-bbox="true"
     inkscape:window-maximized="1"
     inkscape:bbox-nodes="true"
     inkscape:bbox-paths="true"
     inkscape:snap-bbox-edge-midpoints="true"
     inkscape:snap-bbox-midpoints="true">
    <inkscape:grid
       spacingy="1px"
       spacingx="1px"
       id="grid5883"
       type="xygrid"
       enabled="true"
       visible="true"
       empspacing="4"
       snapvisiblegridlinesonly="true"
       dotted="false"
       color="#000000"
       opacity="0.1254902"
       empcolor="#203ef3"
       empopacity="0.36470588" />
    <inkscape:grid
       type="xygrid"
       id="grid11592"
       empspacing="8"
       visible="true"
       enabled="false"
       spacingx="0.5px"
       spacingy="0.5px"
       color="#ff0000"
       opacity="0.1254902"
       empcolor="#ff0000"
       empopacity="0.25098039"
       snapvisiblegridlinesonly="true"
       dotted="true" />
  </sodipodi:namedview>
  <defs
     id="defs3">
    <linearGradient
       id="outerBackgroundGradient-0">
      <stop
         style="stop-color:#860000;stop-opacity:1"
         offset="0"
         id="stop3864-8-6-4" />
      <stop
         style="stop-color:#b90909;stop-opacity:1"
         offset="1"
         id="stop3866-9-1-8" />
    </linearGradient>
    <linearGradient
       inkscape:collect="always"
       xlink:href="#outerBackgroundGradient-0"
       id="linearGradient11628"
       gradientUnits="userSpaceOnUse"
       gradientTransform="matrix(0,-1,1,0,-12,300)"
       x1="35"
       y1="156"
       x2="253"
       y2="156" />
    <linearGradient
       inkscape:collect="always"
       xlink:href="#outerBackgroundGradient-0"
       id="linearGradient11630"
       gradientUnits="userSpaceOnUse"
       gradientTransform="matrix(0,-1,1,0,276,572)"
       x1="417"
       y1="148"
       x2="431"
       y2="148" />
    <linearGradient
       inkscape:collect="always"
       xlink:href="#outerBackgroundGradient-0"
       id="linearGradient11632"
       gradientUnits="userSpaceOnUse"
       gradientTransform="matrix(0,-1,1,0,316,540)"
       x1="418"
       y1="112"
       x2="438"
       y2="112" />
    <linearGradient
       inkscape:collect="always"
       xlink:href="#outerBackgroundGradient-0"
       id="linearGradient11634"
       gradientUnits="userSpaceOnUse"
       gradientTransform="matrix(0,-1,1,0,364,500)"
       x1="418"
       y1="68"
       x2="446"
       y2="68" />
    <linearGradient
       inkscape:collect="always"
       xlink:href="#outerBackgroundGradient-0"
       id="linearGradient11636"
       gradientUnits="userSpaceOnUse"
       gradientTransform="matrix(0,-1,1,0,68,556)"
       x1="292"
       y1="244"
       x2="332"
       y2="244" />
    <linearGradient
       inkscape:collect="always"
       xlink:href="#outerBackgroundGradient-0"
       id="linearGradient11638"
       gradientUnits="userSpaceOnUse"
       gradientTransform="matrix(0,-1,1,0,260,412)"
       x1="293"
       y1="76"
       x2="379"
       y2="76" />
    <linearGradient
       inkscape:collect="always"
       xlink:href="#outerBackgroundGradient-0"
       id="linearGradient11640"
       gradientUnits="userSpaceOnUse"
       gradientTransform="matrix(0,-1,1,0,148,492)"
       x1="291"
       y1="172"
       x2="349"
       y2="172" />
  </defs>
  <metadata
     id="metadata4">
    <rdf:RDF>
      <cc:Work
         rdf:about="">
        <dc:format>image/svg+xml</dc:format>
        <dc:type
           rdf:resource="http://purl.org/dc/dcmitype/StillImage" />
        <dc:creator>
          <cc:Agent>
            <dc:title>Sam Hewitt</dc:title>
          </cc:Agent>
        </dc:creator>
        <dc:source />
        <cc:license
           rdf:resource="" />
        <dc:title />
        <dc:subject>
          <rdf:Bag />
        </dc:subject>
        <dc:date />
        <dc:rights>
          <cc:Agent>
            <dc:title />
          </cc:Agent>
        </dc:rights>
        <dc:publisher>
          <cc:Agent>
            <dc:title />
          </cc:Agent>
        </dc:publisher>
        <dc:identifier />
        <dc:relation />
        <dc:language />
        <dc:coverage />
        <dc:description />
        <dc:contributor>
          <cc:Agent>
            <dc:title />
          </cc:Agent>
        </dc:contributor>
      </cc:Work>
      <cc:Work
         rdf:about="">
        <dc:format>image/svg+xml</dc:format>
        <dc:type
           rdf:resource="http://purl.org/dc/dcmitype/StillImage" />
      </cc:Work>
    </rdf:RDF>
  </metadata>
  <g
     style="display:inline"
     inkscape:groupmode="layer"
     inkscape:label="Icon"
     id="layer1">
    <g
       style="display:none"
       inkscape:label="Baseplate"
       id="layer7"
       inkscape:groupmode="layer">
      <text
         y="19.745117"
         xml:space="preserve"
         x="15.006836"
         style="font-style:normal;font-variant:normal;font-weight:normal;font-stretch:normal;line-height:0%;font-family:'DejaVu Sans';-inkscape-font-specification:'DejaVu Sans';display:inline;fill:#000000;fill-opacity:1;stroke:none;enable-background:new"
         inkscape:label="context"
         id="context"><tspan
           style="font-style:normal;font-variant:normal;font-weight:normal;font-stretch:normal;font-size:18px;line-height:1.25;font-family:'DejaVu Sans';-inkscape-font-specification:'DejaVu Sans'"
           y="19.745117"
           x="15.006836"
           sodipodi:role="line"
           id="tspan3933">apps</tspan></text>
      <text
         y="19.745117"
         xml:space="preserve"
         x="122.48828"
         style="font-style:normal;font-variant:normal;font-weight:bold;font-stretch:normal;line-height:0%;font-family:'DejaVu Sans';-inkscape-font-specification:'DejaVu Sans Bold';text-align:start;writing-mode:lr-tb;text-anchor:start;display:inline;fill:#000000;fill-opacity:1;stroke:none;enable-background:new"
         inkscape:label="icon-name"
         id="icon-name"><tspan
           style="font-style:normal;font-variant:normal;font-weight:bold;font-stretch:normal;font-size:18px;line-height:1.25;font-family:'DejaVu Sans';-inkscape-font-specification:'DejaVu Sans Bold'"
           y="19.745117"
           x="122.48828"
           sodipodi:role="line"
           id="tspan3937">cherrytree</tspan></text>
      <rect
         style="fill:#eeeeec;fill-opacity:1;fill-rule:nonzero;stroke:none;stroke-width:2;marker:none;visibility:visible;display:inline;overflow:visible;enable-background:accumulate"
         id="rect16x16"
         width="16"
         height="16"
         x="416"
         y="140"
         inkscape:label="16x16" />
      <rect
         style="fill:#d4d4d4;fill-opacity:1;fill-rule:nonzero;stroke:none;stroke-width:2;marker:none;visibility:visible;display:inline;overflow:visible;enable-background:accumulate"
         id="rect24x24"
         width="24"
         height="24"
         x="416"
         y="100"
         inkscape:label="24x24" />
      <rect
         style="fill:#eeeeec;fill-opacity:1;fill-rule:nonzero;stroke:none;stroke-width:2;marker:none;visibility:visible;display:inline;overflow:visible;enable-background:accumulate"
         id="rect32x32"
         width="32"
         height="32"
         x="416"
         y="52"
         inkscape:label="32x32" />
      <rect
         inkscape:label="22x22"
         y="101"
         x="417"
         height="22"
         width="22"
         id="rect22x22"
         style="fill:#eeeeec;fill-opacity:1;fill-rule:nonzero;stroke:none;stroke-width:2;marker:none;visibility:visible;display:inline;overflow:visible;enable-background:accumulate" />
      <rect
         inkscape:label="48x48"
         y="220"
         x="288"
         height="48"
         width="48"
         id="rect48x48"
         style="fill:#eeeeec;fill-opacity:1;fill-rule:nonzero;stroke:none;stroke-width:2;marker:none;visibility:visible;display:inline;overflow:visible;enable-background:accumulate" />
      <rect
         style="fill:#eeeeec;fill-opacity:1;fill-rule:nonzero;stroke:none;stroke-width:2;marker:none;visibility:visible;display:inline;overflow:visible;enable-background:accumulate"
         id="rect256x256"
         width="256"
         height="256"
         x="16"
         y="28"
         inkscape:label="256x256" />
      <rect
         style="fill:#eeeeec;fill-opacity:1;fill-rule:nonzero;stroke:none;stroke-width:2;marker:none;visibility:visible;display:inline;overflow:visible;enable-background:accumulate"
         id="rect64x64"
         width="64"
         height="64"
         x="288"
         y="140"
         inkscape:label="64x64" />
      <rect
         style="fill:#eeeeec;fill-opacity:1;fill-rule:nonzero;stroke:none;stroke-width:2;marker:none;visibility:visible;display:inline;overflow:visible;enable-background:accumulate"
         id="rect96x96"
         width="96"
         height="96"
         x="288"
         y="28"
         inkscape:label="96x96" />
    </g>
    <g
       inkscape:groupmode="layer"
       id="layer4"
       inkscape:label="Shadow"
       style="display:inline"
       sodipodi:insensitive="true">
      <rect
         ry="50"
         y="47"
         x="34"
         height="220"
         width="220"
         id="rect4114"
         style="opacity:0.1;color:#bebebe;fill:#000000;fill-opacity:1;fill-rule:nonzero;stroke:none;stroke-width:0;marker:none;visibility:visible;display:inline;overflow:visible;enable-background:accumulate" />
      <rect
         style="opacity:0.1;color:#bebebe;fill:#000000;fill-opacity:1;fill-rule:nonzero;stroke:none;stroke-width:0;marker:none;visibility:visible;display:inline;overflow:visible;enable-background:accumulate"
         id="rect4120"
         width="30"
         height="30"
         x="417"
         y="54"
         ry="7" />
      <rect
         transform="scale(1,-1)"
         ry="9"
         y="-266"
         x="291"
         height="42"
         width="42"
         id="rect4122"
         style="opacity:0.1;color:#bebebe;fill:#000000;fill-opacity:1;fill-rule:nonzero;stroke:none;stroke-width:0;marker:none;visibility:visible;display:inline;overflow:visible;enable-background:accumulate" />
      <rect
         style="opacity:0.1;color:#bebebe;fill:#000000;fill-opacity:1;fill-rule:nonzero;stroke:none;stroke-width:0;marker:none;visibility:visible;display:inline;overflow:visible;enable-background:accumulate"
         id="rect4124"
         width="88"
         height="88"
         x="292"
         y="33"
         ry="18" />
      <rect
         ry="12.5"
         y="143"
         x="290"
         height="60"
         width="60"
         id="rect4126"
         style="opacity:0.1;color:#bebebe;fill:#000000;fill-opacity:1;fill-rule:nonzero;stroke:none;stroke-width:0;marker:none;visibility:visible;display:inline;overflow:visible;enable-background:accumulate" />
      <path
         id="path4268"
         d="m 422,101 c -2.77,0 -5,2.23 -5,5 l 0,12 c 0,2.77 2.23,5 5,5 l 12,0 c 2.77,0 5,-2.23 5,-5 l 0,-12 c 0,-2.77 -2.23,-5 -5,-5 z"
         style="opacity:0.1;color:#bebebe;fill:#000000;fill-opacity:1;fill-rule:nonzero;stroke:none;stroke-width:0;marker:none;visibility:visible;display:inline;overflow:visible;enable-background:accumulate"
         inkscape:connector-curvature="0"
         sodipodi:nodetypes="sssssssss" />
      <path
         id="path4270"
         d="m 419,140 c -1.662,0 -3,1.338 -3,3 l 0,10 c 0,1.662 1.338,3 3,3 l 10,0 c 1.662,0 3,-1.338 3,-3 l 0,-10 c 0,-1.662 -1.338,-3 -3,-3 z"
         style="opacity:0.1;color:#bebebe;fill:#000000;fill-opacity:1;fill-rule:nonzero;stroke:none;stroke-width:0;marker:none;visibility:visible;display:inline;overflow:visible;enable-background:accumulate"
         inkscape:connector-curvature="0"
         sodipodi:nodetypes="sssssssss" />
    </g>
    <g
       inkscape:groupmode="layer"
       id="layer2"
       inkscape:label="Background"
       style="display:inline">
      <path
         style="color:#bebebe;fill:url(#linearGradient11628);fill-opacity:1;fill-rule:nonzero;stroke:none;stroke-width:2;marker:none;visibility:visible;display:inline;overflow:visible;enable-background:accumulate"
         d="M 84 46.5 C 56.568735 46.5 34.5 68.568732 34.5 96 L 34.5 216 C 34.5 243.43127 56.568735 265.5 84 265.5 L 204 265.5 C 231.43127 265.5 253.5 243.43127 253.5 216 L 253.5 96 C 253.5 68.568732 231.43127 46.5 204 46.5 L 84 46.5 z "
         id="path4200" />
      <path
         style="color:#bebebe;fill:url(#linearGradient11630);fill-opacity:1;fill-rule:nonzero;stroke:none;stroke-width:2;marker:none;visibility:visible;display:inline;overflow:visible;enable-background:accumulate"
         d="M 419 140.5 C 417.6156 140.5 416.5 141.6156 416.5 143 L 416.5 153 C 416.5 154.3844 417.6156 155.5 419 155.5 L 429 155.5 C 430.3844 155.5 431.5 154.3844 431.5 153 L 431.5 143 C 431.5 141.6156 430.3844 140.5 429 140.5 L 419 140.5 z "
         id="path4202" />
      <path
         style="color:#bebebe;fill:url(#linearGradient11632);fill-opacity:1;fill-rule:nonzero;stroke:none;stroke-width:2;marker:none;visibility:visible;display:inline;overflow:visible;enable-background:accumulate"
         d="M 422 101.5 C 419.50301 101.5 417.5 103.50301 417.5 106 L 417.5 118 C 417.5 120.49699 419.50301 122.5 422 122.5 L 434 122.5 C 436.49699 122.5 438.5 120.49699 438.5 118 L 438.5 106 C 438.5 103.50301 436.49699 101.5 434 101.5 L 422 101.5 z "
         id="path4204" />
      <path
         style="color:#bebebe;fill:url(#linearGradient11634);fill-opacity:1;fill-rule:nonzero;stroke:none;stroke-width:2;marker:none;visibility:visible;display:inline;overflow:visible;enable-background:accumulate"
         d="M 424 53.5 C 420.39346 53.5 417.5 56.393464 417.5 60 L 417.5 76 C 417.5 79.606536 420.39346 82.5 424 82.5 L 440 82.5 C 443.60654 82.5 446.5 79.606536 446.5 76 L 446.5 60 C 446.5 56.393464 443.60654 53.5 440 53.5 L 424 53.5 z "
         id="path4206" />
      <path
         style="color:#bebebe;fill:url(#linearGradient11636);fill-opacity:1;fill-rule:nonzero;stroke:none;stroke-width:2;marker:none;visibility:visible;display:inline;overflow:visible;enable-background:accumulate"
         d="M 300 223.5 C 295.28469 223.5 291.5 227.28469 291.5 232 L 291.5 256 C 291.5 260.71531 295.28469 264.5 300 264.5 L 324 264.5 C 328.71531 264.5 332.5 260.71531 332.5 256 L 332.5 232 C 332.5 227.28469 328.71531 223.5 324 223.5 L 300 223.5 z "
         id="path4208" />
      <path
         style="color:#bebebe;fill:url(#linearGradient11638);fill-opacity:1;fill-rule:nonzero;stroke:none;stroke-width:2;marker:none;visibility:visible;display:inline;overflow:visible;enable-background:accumulate"
         d="M 310 32.5 C 300.29745 32.5 292.5 40.297452 292.5 50 L 292.5 102 C 292.5 111.70255 300.29745 119.5 310 119.5 L 362 119.5 C 371.70255 119.5 379.5 111.70255 379.5 102 L 379.5 50 C 379.5 40.297452 371.70255 32.5 362 32.5 L 310 32.5 z "
         id="path4210" />
      <path
         style="color:#bebebe;fill:url(#linearGradient11640);fill-opacity:1;fill-rule:nonzero;stroke:none;stroke-width:2;marker:none;visibility:visible;display:inline;overflow:visible;enable-background:accumulate"
         d="M 302.5 142.5 C 295.84498 142.5 290.5 147.84498 290.5 154.5 L 290.5 189.5 C 290.5 196.15502 295.84498 201.5 302.5 201.5 L 337.5 201.5 C 344.15502 201.5 349.5 196.15502 349.5 189.5 L 349.5 154.5 C 349.5 147.84498 344.15502 142.5 337.5 142.5 L 302.5 142.5 z "
         id="path4212" />
    </g>
    <g
       inkscape:groupmode="layer"
       id="layer6"
       inkscape:label="Symbols"
       style="display:inline">
      <path
         inkscape:connector-curvature="0"
         id="path4786"
         d="m 318.28517,106.91824 c -6.81001,-1.05678 -11.86015,-7.273614 -11.49179,-14.146661 0.23367,-4.36002 2.27794,-7.411603 5.78265,-8.63204 0.88373,-0.307746 1.17918,-0.345964 2.71295,-0.350936 1.27043,-0.0045 1.96117,0.05591 2.63742,0.229272 l 0.9162,0.234855 0.5915,-0.406964 c 0.83321,-0.573264 2.32102,-1.238382 3.27119,-1.462382 0.95882,-0.226037 2.75741,-0.250891 3.70156,-0.05118 3.23397,0.684191 5.99266,3.68762 7.12936,7.761894 0.27001,0.967846 0.30152,1.335946 0.29467,3.442428 -0.007,2.187956 -0.0328,2.441765 -0.35431,3.506174 -0.71549,2.368578 -1.71837,4.09978 -3.37315,5.82292 -2.56761,2.67368 -5.6333,4.02918 -9.33205,4.12617 -0.94667,0.0248 -2.06545,-0.008 -2.4862,-0.0735 z m 31.36433,-0.12688 c -5.94863,-0.92663 -10.51492,-5.46302 -11.47839,-11.403199 -0.70982,-4.376365 0.84008,-8.356703 3.95412,-10.154658 1.57866,-0.911464 4.11601,-1.337828 6.10598,-1.026009 l 0.87666,0.137363 0.58956,-0.4906 c 3.82237,-3.18081 8.46574,-3.032319 11.8779,0.379828 2.26695,2.266955 3.56509,5.584593 3.56509,9.11123 0,3.809893 -1.41295,7.111655 -4.1856,9.780915 -1.7442,1.67916 -3.74269,2.78682 -6.14502,3.40587 -1.23853,0.31916 -3.91313,0.45353 -5.1603,0.25926 z m -6.2167,-25.942895 c -0.86048,-0.172736 -1.64817,-0.407173 -1.84871,-0.550209 -0.65673,-0.468437 -2.77499,-2.760974 -3.70579,-4.010674 -1.85591,-2.491755 -3.6406,-5.391502 -6.0453,-9.822303 -0.91992,-1.695001 -1.68615,-3.100892 -1.70271,-3.12421 -0.0535,-0.07509 -2.27408,1.462464 -3.27428,2.267073 -4.00196,3.219419 -6.36333,7.795794 -6.79492,13.168677 l -0.0894,1.113673 -0.52611,0.308309 c -0.87766,0.514346 -1.89638,0.748073 -2.99044,0.686128 -0.53617,-0.03036 -1.14134,-0.124109 -1.3448,-0.208337 l -0.36994,-0.153127 0.0738,-1.812655 c 0.18304,-4.496319 1.63065,-8.172657 4.73899,-12.035222 0.46154,-0.573528 2.06478,-2.323428 3.56274,-3.888665 1.49797,-1.565246 3.00759,-3.190138 3.3547,-3.610874 2.24389,-2.719865 2.86699,-4.808929 2.20562,-7.394848 -0.76428,-2.988302 0.30485,-4.781148 2.85115,-4.781148 1.00545,0 1.82596,0.382437 2.06913,0.964419 0.13973,0.334427 0.14588,0.566609 0.0307,1.161137 -0.19692,1.016709 -0.19336,5.30382 0.005,6.863002 0.49953,3.912456 1.79299,7.995521 3.61485,11.411004 1.87946,3.523502 4.6343,7.095967 7.3809,9.57154 1.98404,1.788264 2.27965,2.102791 2.27965,2.4255 0,0.346628 -1.44121,1.779028 -1.77357,1.762728 -0.11145,-0.0055 -0.87732,-0.145372 -1.70194,-0.310918 z"
         style="opacity:0.2;fill:#000000;fill-opacity:1;display:inline;enable-background:new" />
      <path
         style="opacity:0.2;fill:#000000;fill-opacity:1;display:inline;enable-background:new"
         d="m 308.17593,192.9455 c -4.54,-0.70452 -7.90676,-4.84908 -7.66119,-9.43111 0.15578,-2.90668 1.51863,-4.94107 3.8551,-5.75469 0.58915,-0.20517 0.78612,-0.23065 1.80863,-0.23396 0.84696,-0.003 1.30745,0.0373 1.75828,0.15285 l 0.6108,0.15657 0.39434,-0.27131 c 0.55547,-0.38218 1.54734,-0.82559 2.18079,-0.97492 0.63921,-0.15069 1.83827,-0.16726 2.4677,-0.0341 2.15598,0.45612 3.99511,2.45841 4.75291,5.17459 0.18001,0.64523 0.20101,0.89063 0.19645,2.29495 -0.005,1.45864 -0.0219,1.62785 -0.23621,2.33745 -0.47699,1.57905 -1.14558,2.73319 -2.24877,3.88195 -1.71174,1.78245 -3.75553,2.68612 -6.22136,2.75078 -0.63111,0.0165 -1.37697,-0.005 -1.65747,-0.049 z m 20.90955,-0.0846 c -3.96575,-0.61775 -7.00994,-3.64201 -7.65226,-7.60213 -0.47321,-2.91758 0.56006,-5.57114 2.63608,-6.76977 1.05244,-0.60765 2.74401,-0.89189 4.07065,-0.68401 l 0.58444,0.0916 0.39304,-0.32707 c 2.54825,-2.12054 5.64383,-2.02154 7.9186,0.25322 1.5113,1.51131 2.37673,3.72306 2.37673,6.07415 0,2.53993 -0.94197,4.74112 -2.7904,6.52062 -1.1628,1.11944 -2.49513,1.85788 -4.09668,2.27058 -0.82569,0.21277 -2.60875,0.30235 -3.4402,0.17284 z m -4.14447,-17.29525 c -0.57365,-0.11516 -1.09878,-0.27145 -1.23247,-0.36681 -0.43782,-0.31229 -1.84999,-1.84065 -2.47052,-2.67378 -1.23728,-1.66117 -2.42707,-3.59433 -4.0302,-6.5482 -0.61328,-1.13 -1.1241,-2.06726 -1.13514,-2.08281 -0.0357,-0.0501 -1.51606,0.97498 -2.18286,1.51139 -2.66797,2.14627 -4.24221,5.19719 -4.52994,8.77911 l -0.0596,0.74245 -0.35074,0.20554 c -0.58511,0.3429 -1.26425,0.49871 -1.99363,0.45742 -0.35744,-0.0202 -0.76089,-0.0827 -0.89653,-0.13889 l -0.24663,-0.10209 0.0492,-1.20843 c 0.12203,-2.99755 1.0871,-5.44844 3.15933,-8.02348 0.30769,-0.38236 1.37652,-1.54896 2.37516,-2.59245 0.99864,-1.04349 2.00506,-2.12675 2.23646,-2.40725 1.49593,-1.81324 1.91133,-3.20595 1.47042,-4.92989 -0.50952,-1.9922 0.20323,-3.18743 1.90076,-3.18743 0.6703,0 1.21731,0.25495 1.37942,0.64294 0.0932,0.22295 0.0973,0.37774 0.0205,0.77409 -0.13128,0.67781 -0.12891,3.53588 0.003,4.57534 0.33302,2.6083 1.19533,5.33034 2.4099,7.60733 1.25298,2.349 3.08953,4.73064 4.9206,6.38103 1.32269,1.19217 1.51977,1.40186 1.51977,1.617 0,0.23108 -0.96081,1.18601 -1.18238,1.17515 -0.0743,-0.004 -0.58488,-0.0969 -1.13463,-0.20728 z"
         id="path4788"
         inkscape:connector-curvature="0" />
      <path
         inkscape:connector-curvature="0"
         id="path4790"
         d="m 303.71039,258.9619 c -3.17799,-0.49317 -5.53472,-3.39435 -5.36283,-6.60177 0.10905,-2.03468 1.06304,-3.45875 2.69857,-4.02828 0.41241,-0.14362 0.55029,-0.16146 1.26604,-0.16377 0.59287,-0.002 0.91522,0.0261 1.2308,0.10699 l 0.42756,0.1096 0.27603,-0.18992 c 0.38883,-0.26752 1.08314,-0.57791 1.52655,-0.68244 0.44745,-0.10548 1.28679,-0.11708 1.72739,-0.0239 1.50919,0.31929 2.79658,1.72089 3.32704,3.62221 0.126,0.45166 0.1407,0.62344 0.13751,1.60646 -0.003,1.02105 -0.0153,1.1395 -0.16535,1.63622 -0.33389,1.10533 -0.8019,1.91323 -1.57413,2.71736 -1.19822,1.24771 -2.62887,1.88028 -4.35495,1.92554 -0.44178,0.0115 -0.96388,-0.004 -1.16023,-0.0343 z m 14.63667,-0.0592 c -2.77602,-0.43243 -4.90695,-2.54941 -5.35658,-5.32149 -0.33124,-2.0423 0.39205,-3.89979 1.84526,-4.73883 0.73671,-0.42536 1.9208,-0.62432 2.84945,-0.47881 l 0.40911,0.0641 0.27513,-0.22895 c 1.78377,-1.48437 3.95067,-1.41507 5.54301,0.17726 1.05791,1.05791 1.66371,2.60614 1.66371,4.2519 0,1.77795 -0.65938,3.31878 -1.95328,4.56443 -0.81396,0.7836 -1.74659,1.30051 -2.86767,1.5894 -0.57798,0.14894 -1.82612,0.21165 -2.40814,0.12099 z m -2.90113,-12.10666 c -0.40155,-0.0806 -0.76914,-0.19002 -0.86272,-0.25677 -0.30648,-0.2186 -1.29499,-1.28845 -1.72937,-1.87164 -0.86609,-1.16282 -1.69894,-2.51603 -2.82113,-4.58374 -0.4293,-0.791 -0.78687,-1.44708 -0.7946,-1.45796 -0.025,-0.0351 -1.06124,0.68248 -1.528,1.05797 -1.86758,1.50238 -2.96954,3.63803 -3.17095,6.14537 l -0.0417,0.51971 -0.24552,0.14388 c -0.40958,0.24003 -0.88498,0.3491 -1.39554,0.32019 -0.25021,-0.0141 -0.53262,-0.0579 -0.62757,-0.0972 l -0.17264,-0.0715 0.0344,-0.8459 c 0.0854,-2.09829 0.76097,-3.81391 2.21153,-5.61643 0.21538,-0.26765 0.96356,-1.08427 1.66261,-1.81472 0.69904,-0.73044 1.40354,-1.48872 1.56552,-1.68507 1.04715,-1.26927 1.33793,-2.24416 1.02929,-3.45092 -0.35666,-1.39454 0.14226,-2.2312 1.33053,-2.2312 0.46921,0 0.85212,0.17847 0.96559,0.45006 0.0652,0.15607 0.0681,0.26442 0.0144,0.54186 -0.0919,0.47447 -0.0902,2.47512 0.002,3.20274 0.23312,1.82581 0.83673,3.73123 1.68693,5.32512 0.87709,1.6443 2.16267,3.31145 3.44442,4.46672 0.92588,0.83452 1.06384,0.9813 1.06384,1.1319 0,0.16175 -0.67257,0.8302 -0.82767,0.8226 -0.052,-0.003 -0.40942,-0.0678 -0.79424,-0.14509 z"
         style="opacity:0.2;fill:#000000;fill-opacity:1;display:inline;enable-background:new" />
      <path
         style="opacity:0.2;fill:#000000;fill-opacity:1;display:inline;enable-background:new"
         d="m 99.776789,231.79549 c -17.02502,-2.64195 -29.65037,-18.18403 -28.72947,-35.36665 0.58418,-10.90004 5.69485,-18.529 14.45662,-21.58009 2.20933,-0.76937 2.94795,-0.86491 6.78238,-0.87734 3.17607,-0.0112 4.90292,0.13977 6.59354,0.57318 l 2.290501,0.58714 1.47875,-1.01741 c 2.08303,-1.43316 5.80255,-3.09596 8.17798,-3.65596 2.39705,-0.56509 6.89352,-0.62722 9.25389,-0.12795 8.08493,1.71048 14.98165,9.21905 17.8234,19.40473 0.67502,2.41962 0.7538,3.33987 0.73667,8.60607 -0.0175,5.46989 -0.082,6.10441 -0.88577,8.76543 -1.78873,5.92145 -4.29593,10.24946 -8.43287,14.55731 -6.41903,6.68419 -14.08325,10.07294 -23.33012,10.31542 -2.36668,0.062 -5.16363,-0.02 -6.215501,-0.18375 z m 78.410801,-0.3172 c -14.87157,-2.31657 -26.28729,-13.65754 -28.69596,-28.50799 -1.77455,-10.94091 2.10019,-20.89176 9.88529,-25.38664 3.94665,-2.27866 10.29003,-3.34457 15.26495,-2.56502 l 2.19165,0.3434 1.4739,-1.2265 c 9.55592,-7.95202 21.16434,-7.58079 29.69474,0.94957 5.66737,5.66739 8.91272,13.96148 8.91272,22.77807 0,9.52473 -3.53237,17.77915 -10.46399,24.45229 -4.3605,4.1979 -9.35673,6.96705 -15.36255,8.51467 -3.09632,0.7979 -9.78282,1.13383 -12.90075,0.64815 z m -15.54174,-64.85722 c -2.1512,-0.43184 -4.12043,-1.01794 -4.62178,-1.37553 -1.64182,-1.17109 -6.93747,-6.90243 -9.26447,-10.02668 -4.63977,-6.22938 -9.1015,-13.47875 -15.11325,-24.55575 -2.29979,-4.2375 -4.21537,-7.75223 -4.25677,-7.81052 -0.13375,-0.18773 -5.6852,3.65616 -8.1857,5.66768 -10.00489,8.04854 -15.90832,19.48948 -16.98729,32.92168 l -0.2235,2.78418 -1.31528,0.77078 c -2.19415,1.28586 -4.740951,1.87018 -7.476101,1.71532 -1.34042,-0.0759 -2.85334,-0.31028 -3.36199,-0.52085 l -0.92485,-0.38281 0.1845,-4.53164 c 0.4576,-11.24079 4.07662,-20.43164 11.847471,-30.08805 1.15385,-1.43382 5.16195,-5.80857 8.90685,-9.72166 3.74492,-3.91311 7.51897,-7.97534 8.38674,-9.02718 5.60973,-6.79966 7.16748,-12.02232 5.51405,-18.487112 -1.9107,-7.470753 0.76213,-11.952867 7.12787,-11.952867 2.51363,0 4.5649,0.956092 5.17283,2.411047 0.34932,0.836067 0.3647,1.416522 0.0768,2.902842 -0.4923,2.541771 -0.4834,13.25954 0.0125,17.1575 1.24882,9.78113 4.48247,19.98879 9.03712,28.5275 4.69865,8.80875 11.58575,17.73991 18.45225,23.92884 4.96009,4.47066 5.69912,5.25698 5.69912,6.06375 0,0.86657 -3.60302,4.44757 -4.43392,4.40682 -0.27863,-0.0138 -2.1933,-0.36343 -4.25485,-0.77729 z"
         id="path4792"
         inkscape:connector-curvature="0" />
      <path
         style="opacity:0.2;fill:#000000;fill-opacity:1;display:inline;enable-background:new"
         d="m 426.06669,78.972865 c -2.27001,-0.35226 -3.95339,-2.42454 -3.8306,-4.71555 0.0779,-1.453342 0.75931,-2.470536 1.92755,-2.877349 0.29458,-0.102582 0.39306,-0.115321 0.90432,-0.116978 0.42347,-0.0015 0.65372,0.01864 0.87914,0.07642 l 0.3054,0.07829 0.19716,-0.135655 c 0.27774,-0.191088 0.77368,-0.412794 1.0904,-0.487461 0.31961,-0.07534 0.91914,-0.08363 1.23385,-0.01706 1.07799,0.228064 1.99756,1.229207 2.37646,2.587294 0.09,0.32262 0.1005,0.44532 0.0982,1.14748 -0.002,0.72932 -0.0109,0.81392 -0.1181,1.16872 -0.2385,0.78953 -0.57279,1.3666 -1.12439,1.94098 -0.85587,0.89122 -1.87776,1.34306 -3.11068,1.37539 -0.31556,0.008 -0.68848,-0.003 -0.82873,-0.0245 z m 10.45477,-0.0423 c -1.98287,-0.30888 -3.50497,-1.82101 -3.82613,-3.80107 -0.2366,-1.45879 0.28003,-2.785566 1.31804,-3.384884 0.52622,-0.303821 1.372,-0.445943 2.03533,-0.342003 l 0.29222,0.04579 0.19652,-0.163534 c 1.27412,-1.060269 2.82191,-1.010772 3.9593,0.12661 0.75565,0.755651 1.18836,1.861533 1.18836,3.037073 0,1.26997 -0.47098,2.37056 -1.3952,3.26031 -0.5814,0.55972 -1.24756,0.92894 -2.04834,1.13529 -0.41284,0.10638 -1.30438,0.15117 -1.7201,0.0864 z m -2.07223,-8.647633 c -0.28683,-0.05758 -0.54939,-0.135724 -0.61624,-0.183403 -0.21891,-0.156146 -0.92499,-0.920324 -1.23526,-1.336891 -0.61864,-0.830585 -1.21353,-1.797167 -2.0151,-3.2741 -0.30664,-0.565 -0.56205,-1.033631 -0.56757,-1.041403 -0.0178,-0.02503 -0.75803,0.487488 -1.09143,0.755691 -1.33398,1.073139 -2.12111,2.598597 -2.26497,4.389557 l -0.0298,0.371225 -0.17537,0.102769 c -0.29255,0.171449 -0.63213,0.249358 -0.99681,0.22871 -0.17873,-0.01012 -0.38045,-0.04137 -0.44827,-0.06945 l -0.12331,-0.05104 0.0246,-0.604219 c 0.061,-1.498772 0.54355,-2.724218 1.57966,-4.011739 0.15385,-0.191176 0.68826,-0.774476 1.18758,-1.296221 0.49932,-0.521749 1.00253,-1.06338 1.11823,-1.203625 0.74797,-0.906621 0.95567,-1.602976 0.73521,-2.464949 -0.25476,-0.9961 0.10162,-1.593715 0.95038,-1.593715 0.33515,0 0.60866,0.127479 0.68971,0.321473 0.0466,0.111475 0.0486,0.188869 0.0102,0.387045 -0.0656,0.338903 -0.0645,1.76794 0.002,2.287667 0.16651,1.304152 0.59767,2.665173 1.20495,3.803667 0.62649,1.1745 1.54477,2.365322 2.4603,3.190513 0.66135,0.596087 0.75988,0.70093 0.75988,0.808499 0,0.115543 -0.4804,0.59301 -0.59119,0.587576 -0.0371,-0.0018 -0.29244,-0.04846 -0.56731,-0.103639 z"
         id="path4794"
         inkscape:connector-curvature="0" />
      <path
         inkscape:connector-curvature="0"
         id="path4796"
         d="m 423.83388,119.98098 c -1.58901,-0.24659 -2.76739,-1.69719 -2.68143,-3.30091 0.0545,-1.01735 0.53152,-1.72939 1.34929,-2.01416 0.20621,-0.0718 0.27514,-0.0807 0.63303,-0.0819 0.29643,-0.001 0.45761,0.0131 0.6154,0.0535 l 0.21378,0.0548 0.13802,-0.095 c 0.19441,-0.13376 0.54158,-0.28895 0.76328,-0.34122 0.22373,-0.0527 0.6434,-0.0585 0.8637,-0.0119 0.7546,0.15964 1.3983,0.86045 1.66353,1.81112 0.063,0.22583 0.0703,0.31172 0.0687,0.80324 -0.001,0.51052 -0.008,0.56975 -0.0827,0.81811 -0.16695,0.55267 -0.40095,0.95662 -0.78707,1.35869 -0.59912,0.62386 -1.31444,0.94015 -2.17749,0.96278 -0.2209,0.006 -0.48194,-0.002 -0.58012,-0.0172 z m 7.31839,-0.0296 c -1.38802,-0.21622 -2.45349,-1.27472 -2.67831,-2.66077 -0.16562,-1.02116 0.19603,-1.94991 0.92264,-2.36943 0.36835,-0.21268 0.9604,-0.31217 1.42474,-0.23941 l 0.20455,0.032 0.13757,-0.11447 c 0.89189,-0.74219 1.97535,-0.70755 2.77153,0.0886 0.52895,0.52896 0.83185,1.30308 0.83185,2.12596 0,0.88899 -0.32968,1.65941 -0.97664,2.28224 -0.40699,0.3918 -0.8733,0.65026 -1.43385,0.7947 -0.28899,0.0745 -0.91307,0.10582 -1.20408,0.0605 z m -1.45057,-6.05339 c -0.20078,-0.0403 -0.38457,-0.095 -0.43137,-0.12838 -0.15324,-0.1093 -0.6475,-0.64423 -0.86469,-0.93583 -0.43305,-0.58141 -0.84947,-1.25802 -1.41058,-2.29188 -0.21465,-0.39551 -0.39343,-0.72355 -0.3973,-0.72899 -0.0125,-0.0175 -0.53062,0.34124 -0.764,0.52899 -0.9338,0.7512 -1.48479,1.81903 -1.58549,3.07271 l -0.0209,0.25986 -0.12276,0.0719 c -0.20479,0.12001 -0.4425,0.17455 -0.69778,0.16009 -0.12511,-0.007 -0.26631,-0.029 -0.31379,-0.0486 l -0.0863,-0.0357 0.0172,-0.42295 c 0.0427,-1.04915 0.38048,-1.90697 1.10577,-2.80824 0.10769,-0.13382 0.48178,-0.54214 0.83131,-0.90736 0.34952,-0.36523 0.70177,-0.74437 0.78276,-0.84254 0.52359,-0.63464 0.66898,-1.12209 0.51465,-1.72548 -0.17833,-0.69727 0.0711,-1.11561 0.66527,-1.11561 0.23461,0 0.42607,0.0892 0.4828,0.22503 0.0326,0.078 0.034,0.13221 0.007,0.27094 -0.0459,0.23723 -0.0452,1.23756 10e-4,1.60138 0.11656,0.91291 0.41838,1.86563 0.84347,2.66258 0.43855,0.82216 1.08135,1.65574 1.72223,2.23338 0.46294,0.41726 0.53192,0.49065 0.53192,0.56595 0,0.0809 -0.33629,0.41511 -0.41384,0.4113 -0.026,-0.001 -0.20471,-0.0339 -0.39712,-0.0725 z"
         style="opacity:0.2;fill:#000000;fill-opacity:1;display:inline;enable-background:new" />
      <path
         style="opacity:0.2;fill:#000000;fill-opacity:1;display:inline;enable-background:new"
         d="m 421.01205,153.98616 c -1.13499,-0.17613 -1.97668,-1.21226 -1.91528,-2.35777 0.0389,-0.72667 0.37965,-1.23526 0.96377,-1.43867 0.14729,-0.0513 0.19652,-0.0576 0.45216,-0.0585 0.21173,-7.2e-4 0.32686,0.009 0.43956,0.0382 l 0.1527,0.0391 0.0986,-0.0679 c 0.13886,-0.0955 0.38683,-0.20639 0.54519,-0.24372 0.1598,-0.0376 0.45957,-0.0418 0.61692,-0.008 0.539,0.11403 0.99878,0.6146 1.18822,1.29364 0.045,0.16131 0.0502,0.22266 0.0491,0.57374 -7.1e-4,0.36465 -0.006,0.40696 -0.0591,0.58436 -0.11924,0.39476 -0.28639,0.68329 -0.56218,0.97048 -0.42794,0.44561 -0.93888,0.67153 -1.55534,0.68769 -0.15778,0.004 -0.34424,-0.001 -0.41436,-0.0123 z m 5.22737,-0.0211 c -0.99143,-0.15444 -1.75247,-0.91051 -1.91306,-1.90053 -0.1183,-0.72939 0.14002,-1.39278 0.65902,-1.69243 0.26311,-0.15191 0.686,-0.22298 1.01766,-0.17101 l 0.14611,0.0229 0.0983,-0.0818 c 0.63706,-0.53013 1.41095,-0.50539 1.97964,0.0633 0.37782,0.37783 0.59418,0.93076 0.59418,1.51853 0,0.63498 -0.23549,1.18528 -0.6976,1.63015 -0.2907,0.27986 -0.62377,0.46447 -1.02416,0.56764 -0.20642,0.0532 -0.65219,0.0756 -0.86005,0.0432 z m -1.03611,-4.3238 c -0.14341,-0.0288 -0.27469,-0.0679 -0.30812,-0.0917 -0.10946,-0.0781 -0.46249,-0.46016 -0.61763,-0.66845 -0.30932,-0.41528 -0.60676,-0.89857 -1.00754,-1.63704 -0.15332,-0.2825 -0.28102,-0.51681 -0.28379,-0.5207 -0.009,-0.0125 -0.37901,0.24374 -0.54571,0.37785 -0.66699,0.53656 -1.06055,1.29929 -1.13248,2.19477 l -0.0149,0.18561 -0.0877,0.0514 c -0.14628,0.0857 -0.31607,0.12467 -0.49841,0.11435 -0.0894,-0.005 -0.19022,-0.0207 -0.22413,-0.0347 l -0.0616,-0.0255 0.0123,-0.3021 c 0.0305,-0.74939 0.27177,-1.36211 0.78983,-2.00587 0.0769,-0.0956 0.34412,-0.38723 0.59379,-0.6481 0.24965,-0.26088 0.50125,-0.53169 0.5591,-0.60181 0.37399,-0.45331 0.47784,-0.80148 0.36761,-1.23247 -0.12738,-0.49805 0.0508,-0.79686 0.47518,-0.79686 0.16758,0 0.30434,0.0637 0.34486,0.16074 0.0233,0.0557 0.0243,0.0944 0.005,0.19352 -0.0328,0.16945 -0.0323,0.88396 7.1e-4,1.14383 0.0833,0.65207 0.29884,1.33258 0.60247,1.90182 0.31325,0.58726 0.77239,1.18266 1.23016,1.59526 0.33066,0.29804 0.37993,0.35046 0.37993,0.40424 0,0.0578 -0.2402,0.29651 -0.29559,0.29379 -0.0186,-7.2e-4 -0.14622,-0.0242 -0.28366,-0.0518 z"
         id="path4798"
         inkscape:connector-curvature="0" />
      <path
         style="fill:#ffffff;fill-opacity:1;display:inline;enable-background:new"
         d="m 318.28517,105.91818 c -6.81001,-1.05678 -11.86015,-7.273613 -11.49179,-14.14666 0.23367,-4.36002 2.27794,-7.411603 5.78265,-8.63204 0.88373,-0.307746 1.17918,-0.345964 2.71295,-0.350936 1.27043,-0.0045 1.96117,0.05591 2.63742,0.229272 l 0.9162,0.234855 0.5915,-0.406964 c 0.83321,-0.573264 2.32102,-1.238382 3.27119,-1.462382 0.95882,-0.226037 2.75741,-0.250891 3.70156,-0.05118 3.23397,0.684191 5.99266,3.68762 7.12936,7.761894 0.27001,0.967846 0.30152,1.335946 0.29467,3.442428 -0.007,2.187956 -0.0328,2.441765 -0.35431,3.506174 -0.71549,2.368578 -1.71837,4.099779 -3.37315,5.822919 -2.56761,2.67368 -5.6333,4.02918 -9.33205,4.12617 -0.94667,0.0248 -2.06545,-0.008 -2.4862,-0.0735 z m 31.36433,-0.12688 c -5.94863,-0.92663 -10.51492,-5.46302 -11.47839,-11.403198 -0.70982,-4.376365 0.84008,-8.356703 3.95412,-10.154658 1.57866,-0.911464 4.11601,-1.337828 6.10598,-1.026009 l 0.87666,0.137363 0.58956,-0.4906 c 3.82237,-3.18081 8.46574,-3.032319 11.8779,0.379828 2.26695,2.266955 3.56509,5.584593 3.56509,9.11123 0,3.809893 -1.41295,7.111661 -4.1856,9.780914 -1.7442,1.67916 -3.74269,2.78682 -6.14502,3.40587 -1.23853,0.31916 -3.91313,0.45353 -5.1603,0.25926 z m -6.2167,-25.942894 c -0.86048,-0.172736 -1.64817,-0.407173 -1.84871,-0.550209 -0.65673,-0.468437 -2.77499,-2.760974 -3.70579,-4.010674 -1.85591,-2.491755 -3.6406,-5.391502 -6.0453,-9.822303 -0.91992,-1.695001 -1.68615,-3.100892 -1.70271,-3.12421 -0.0535,-0.07509 -2.27408,1.462464 -3.27428,2.267073 -4.00196,3.219419 -6.36333,7.795794 -6.79492,13.168677 l -0.0894,1.113673 -0.52611,0.308309 c -0.87766,0.514346 -1.89638,0.748073 -2.99044,0.686128 -0.53617,-0.03036 -1.14134,-0.124109 -1.3448,-0.208337 l -0.36994,-0.153127 0.0738,-1.812655 c 0.18304,-4.496319 1.63065,-8.172657 4.73899,-12.035222 0.46154,-0.573528 2.06478,-2.323428 3.56274,-3.888665 1.49797,-1.565246 3.00759,-3.190138 3.3547,-3.610874 2.24389,-2.719865 2.86699,-4.808929 2.20562,-7.394848 -0.76428,-2.988302 0.30485,-4.781148 2.85115,-4.781148 1.00545,0 1.82596,0.382437 2.06913,0.964419 0.13973,0.334427 0.14588,0.566609 0.0307,1.161137 -0.19692,1.016709 -0.19336,5.30382 0.005,6.863002 0.49953,3.912456 1.79299,7.995521 3.61485,11.411004 1.87946,3.523502 4.6343,7.095967 7.3809,9.57154 1.98404,1.788264 2.27965,2.102791 2.27965,2.4255 0,0.346628 -1.44121,1.779028 -1.77357,1.762728 -0.11145,-0.0055 -0.87732,-0.145372 -1.70194,-0.310918 z"
         id="path3985"
         inkscape:connector-curvature="0" />
      <path
         inkscape:connector-curvature="0"
         id="path4774"
         d="m 308.17593,191.94544 c -4.54,-0.70452 -7.90676,-4.84908 -7.66119,-9.43111 0.15578,-2.90668 1.51863,-4.94107 3.8551,-5.75469 0.58915,-0.20517 0.78612,-0.23065 1.80863,-0.23396 0.84696,-0.003 1.30745,0.0373 1.75828,0.15285 l 0.6108,0.15657 0.39434,-0.27131 c 0.55547,-0.38218 1.54734,-0.82559 2.18079,-0.97492 0.63921,-0.15069 1.83827,-0.16726 2.4677,-0.0341 2.15598,0.45612 3.99511,2.45841 4.75291,5.17459 0.18001,0.64523 0.20101,0.89063 0.19645,2.29495 -0.005,1.45864 -0.0219,1.62785 -0.23621,2.33745 -0.47699,1.57905 -1.14558,2.73319 -2.24877,3.88195 -1.71174,1.78245 -3.75553,2.68612 -6.22136,2.75078 -0.63111,0.0165 -1.37697,-0.005 -1.65747,-0.049 z m 20.90955,-0.0846 c -3.96575,-0.61775 -7.00994,-3.64201 -7.65226,-7.60213 -0.47321,-2.91758 0.56006,-5.57114 2.63608,-6.76977 1.05244,-0.60765 2.74401,-0.89189 4.07065,-0.68401 l 0.58444,0.0916 0.39304,-0.32707 c 2.54825,-2.12054 5.64383,-2.02154 7.9186,0.25322 1.5113,1.51131 2.37673,3.72306 2.37673,6.07415 0,2.53993 -0.94197,4.74112 -2.7904,6.52062 -1.1628,1.11944 -2.49513,1.85788 -4.09668,2.27058 -0.82569,0.21277 -2.60875,0.30235 -3.4402,0.17284 z m -4.14447,-17.29525 c -0.57365,-0.11516 -1.09878,-0.27145 -1.23247,-0.36681 -0.43782,-0.31229 -1.84999,-1.84065 -2.47052,-2.67378 -1.23728,-1.66117 -2.42707,-3.59433 -4.0302,-6.5482 -0.61328,-1.13 -1.1241,-2.06726 -1.13514,-2.08281 -0.0357,-0.0501 -1.51606,0.97498 -2.18286,1.51139 -2.66797,2.14627 -4.24221,5.19719 -4.52994,8.77911 l -0.0596,0.74245 -0.35074,0.20554 c -0.58511,0.3429 -1.26425,0.49871 -1.99363,0.45742 -0.35744,-0.0202 -0.76089,-0.0827 -0.89653,-0.13889 l -0.24663,-0.10209 0.0492,-1.20843 c 0.12203,-2.99755 1.0871,-5.44844 3.15933,-8.02348 0.30769,-0.38236 1.37652,-1.54896 2.37516,-2.59245 0.99864,-1.04349 2.00506,-2.12675 2.23646,-2.40725 1.49593,-1.81324 1.91133,-3.20595 1.47042,-4.92989 -0.50952,-1.9922 0.20323,-3.18743 1.90076,-3.18743 0.6703,0 1.21731,0.25495 1.37942,0.64294 0.0932,0.22295 0.0973,0.37774 0.0205,0.77409 -0.13128,0.67781 -0.12891,3.53588 0.003,4.57534 0.33302,2.6083 1.19533,5.33034 2.4099,7.60733 1.25298,2.349 3.08953,4.73064 4.9206,6.38103 1.32269,1.19217 1.51977,1.40186 1.51977,1.617 0,0.23108 -0.96081,1.18601 -1.18238,1.17515 -0.0743,-0.004 -0.58488,-0.0969 -1.13463,-0.20728 z"
         style="fill:#ffffff;fill-opacity:1;display:inline;enable-background:new" />
      <path
         style="fill:#ffffff;fill-opacity:1;display:inline;enable-background:new"
         d="m 303.71039,257.96184 c -3.17799,-0.49317 -5.53472,-3.39435 -5.36283,-6.60177 0.10905,-2.03468 1.06304,-3.45875 2.69857,-4.02828 0.41241,-0.14362 0.55029,-0.16146 1.26604,-0.16377 0.59287,-0.002 0.91522,0.0261 1.2308,0.10699 l 0.42756,0.1096 0.27603,-0.18992 c 0.38883,-0.26752 1.08314,-0.57791 1.52655,-0.68244 0.44745,-0.10548 1.28679,-0.11708 1.72739,-0.0239 1.50919,0.31929 2.79658,1.72089 3.32704,3.62221 0.126,0.45166 0.1407,0.62344 0.13751,1.60646 -0.003,1.02105 -0.0153,1.1395 -0.16535,1.63622 -0.33389,1.10533 -0.8019,1.91323 -1.57413,2.71736 -1.19822,1.24771 -2.62887,1.88028 -4.35495,1.92554 -0.44178,0.0115 -0.96388,-0.004 -1.16023,-0.0343 z m 14.63667,-0.0592 c -2.77602,-0.43243 -4.90695,-2.54941 -5.35658,-5.32149 -0.33124,-2.0423 0.39205,-3.89979 1.84526,-4.73883 0.73671,-0.42536 1.9208,-0.62432 2.84945,-0.47881 l 0.40911,0.0641 0.27513,-0.22895 c 1.78377,-1.48437 3.95067,-1.41507 5.54301,0.17726 1.05791,1.05791 1.66371,2.60614 1.66371,4.2519 0,1.77795 -0.65938,3.31878 -1.95328,4.56443 -0.81396,0.7836 -1.74659,1.30051 -2.86767,1.5894 -0.57798,0.14894 -1.82612,0.21165 -2.40814,0.12099 z m -2.90113,-12.10666 c -0.40155,-0.0806 -0.76914,-0.19002 -0.86272,-0.25677 -0.30648,-0.2186 -1.29499,-1.28845 -1.72937,-1.87164 -0.86609,-1.16282 -1.69894,-2.51603 -2.82113,-4.58374 -0.4293,-0.791 -0.78687,-1.44708 -0.7946,-1.45796 -0.025,-0.0351 -1.06124,0.68248 -1.528,1.05797 -1.86758,1.50238 -2.96954,3.63803 -3.17095,6.14537 l -0.0417,0.51971 -0.24552,0.14388 c -0.40958,0.24003 -0.88498,0.3491 -1.39554,0.32019 -0.25021,-0.0141 -0.53262,-0.0579 -0.62757,-0.0972 l -0.17264,-0.0715 0.0344,-0.8459 c 0.0854,-2.09829 0.76097,-3.81391 2.21153,-5.61643 0.21538,-0.26765 0.96356,-1.08427 1.66261,-1.81472 0.69904,-0.73044 1.40354,-1.48872 1.56552,-1.68507 1.04715,-1.26927 1.33793,-2.24416 1.02929,-3.45092 -0.35666,-1.39454 0.14226,-2.2312 1.33053,-2.2312 0.46921,0 0.85212,0.17847 0.96559,0.45006 0.0652,0.15607 0.0681,0.26442 0.0144,0.54186 -0.0919,0.47447 -0.0902,2.47512 0.002,3.20274 0.23312,1.82581 0.83673,3.73123 1.68693,5.32512 0.87709,1.6443 2.16267,3.31145 3.44442,4.46672 0.92588,0.83452 1.06384,0.9813 1.06384,1.1319 0,0.16175 -0.67257,0.8302 -0.82767,0.8226 -0.052,-0.003 -0.40942,-0.0678 -0.79424,-0.14509 z"
         id="path4776"
         inkscape:connector-curvature="0" />
      <path
         inkscape:connector-curvature="0"
         id="path4778"
         d="m 99.776789,230.79543 c -17.02502,-2.64195 -29.65037,-18.18403 -28.72947,-35.36665 0.58418,-10.90004 5.69485,-18.529 14.45662,-21.58009 2.20933,-0.76937 2.94795,-0.86491 6.78238,-0.87734 3.17607,-0.0112 4.90292,0.13977 6.59354,0.57318 l 2.290501,0.58714 1.47875,-1.01741 c 2.08303,-1.43316 5.80255,-3.09596 8.17798,-3.65596 2.39705,-0.56509 6.89352,-0.62722 9.25389,-0.12795 8.08493,1.71048 14.98165,9.21905 17.8234,19.40473 0.67502,2.41962 0.7538,3.33987 0.73667,8.60607 -0.0175,5.46989 -0.082,6.10441 -0.88577,8.76543 -1.78873,5.92145 -4.29593,10.24946 -8.43287,14.55731 -6.41903,6.68419 -14.08325,10.07294 -23.33012,10.31542 -2.36668,0.062 -5.16363,-0.02 -6.215501,-0.18375 z m 78.410801,-0.3172 c -14.87157,-2.31657 -26.28729,-13.65754 -28.69596,-28.50799 -1.77455,-10.94091 2.10019,-20.89176 9.88529,-25.38664 3.94665,-2.27866 10.29003,-3.34457 15.26495,-2.56502 l 2.19165,0.3434 1.4739,-1.2265 c 9.55592,-7.95202 21.16434,-7.58079 29.69474,0.94957 5.66737,5.66739 8.91272,13.96148 8.91272,22.77807 0,9.52473 -3.53237,17.77915 -10.46399,24.45229 -4.3605,4.1979 -9.35673,6.96705 -15.36255,8.51467 -3.09632,0.7979 -9.78282,1.13383 -12.90075,0.64815 z m -15.54174,-64.85722 c -2.1512,-0.43184 -4.12043,-1.01794 -4.62178,-1.37553 -1.64182,-1.17109 -6.93747,-6.90243 -9.26447,-10.02668 -4.63977,-6.22938 -9.1015,-13.47875 -15.11325,-24.55575 -2.29979,-4.2375 -4.21537,-7.75223 -4.25677,-7.81052 -0.13375,-0.18773 -5.6852,3.65616 -8.1857,5.66768 -10.00489,8.04854 -15.90832,19.48948 -16.98729,32.92168 l -0.2235,2.78418 -1.31528,0.77078 c -2.19415,1.28586 -4.740951,1.87018 -7.476101,1.71532 -1.34042,-0.0759 -2.85334,-0.31028 -3.36199,-0.52085 l -0.92485,-0.38281 0.1845,-4.53164 c 0.4576,-11.24079 4.07662,-20.43164 11.847471,-30.08805 1.15385,-1.43382 5.16195,-5.80857 8.90685,-9.72166 3.74492,-3.91311 7.51897,-7.97534 8.38674,-9.02718 5.60973,-6.79966 7.16748,-12.022315 5.51405,-18.487111 -1.9107,-7.470753 0.76213,-11.952867 7.12787,-11.952867 2.51363,0 4.5649,0.956092 5.17283,2.411047 0.34932,0.836067 0.3647,1.416522 0.0768,2.902842 -0.4923,2.541771 -0.4834,13.259546 0.0125,17.157499 1.24882,9.78113 4.48247,19.98879 9.03712,28.5275 4.69865,8.80875 11.58575,17.73991 18.45225,23.92884 4.96009,4.47066 5.69912,5.25698 5.69912,6.06375 0,0.86657 -3.60302,4.44757 -4.43392,4.40682 -0.27863,-0.0138 -2.1933,-0.36343 -4.25485,-0.77729 z"
         style="fill:#ffffff;fill-opacity:1;display:inline;enable-background:new" />
      <path
         inkscape:connector-curvature="0"
         id="path4780"
         d="m 426.06669,77.972806 c -2.27001,-0.35226 -3.95339,-2.42454 -3.8306,-4.71555 0.0779,-1.453342 0.75931,-2.470536 1.92755,-2.877349 0.29458,-0.102582 0.39306,-0.115321 0.90432,-0.116978 0.42347,-0.0015 0.65372,0.01864 0.87914,0.07642 l 0.3054,0.07829 0.19716,-0.135655 c 0.27774,-0.191088 0.77368,-0.412794 1.0904,-0.487461 0.31961,-0.07534 0.91914,-0.08363 1.23385,-0.01706 1.07799,0.228064 1.99756,1.229207 2.37646,2.587294 0.09,0.32262 0.1005,0.44532 0.0982,1.14748 -0.002,0.72932 -0.0109,0.81392 -0.1181,1.16872 -0.2385,0.78953 -0.57279,1.3666 -1.12439,1.94098 -0.85587,0.89122 -1.87776,1.34306 -3.11068,1.37539 -0.31556,0.008 -0.68848,-0.003 -0.82873,-0.0245 z m 10.45477,-0.0423 c -1.98287,-0.30888 -3.50497,-1.82101 -3.82613,-3.80107 -0.2366,-1.45879 0.28003,-2.785566 1.31804,-3.384884 0.52622,-0.303821 1.372,-0.445943 2.03533,-0.342003 l 0.29222,0.04579 0.19652,-0.163534 c 1.27412,-1.060269 2.82191,-1.010772 3.9593,0.12661 0.75565,0.755651 1.18836,1.861533 1.18836,3.037073 0,1.26997 -0.47098,2.37056 -1.3952,3.26031 -0.5814,0.55972 -1.24756,0.92894 -2.04834,1.13529 -0.41284,0.10638 -1.30438,0.15117 -1.7201,0.0864 z m -2.07223,-8.647633 c -0.28683,-0.05758 -0.54939,-0.135724 -0.61624,-0.183403 -0.21891,-0.156146 -0.92499,-0.920324 -1.23526,-1.336891 -0.61864,-0.830585 -1.21353,-1.797167 -2.0151,-3.2741 -0.30664,-0.565 -0.56205,-1.033631 -0.56757,-1.041403 -0.0178,-0.02503 -0.75803,0.487488 -1.09143,0.755691 -1.33398,1.073139 -2.12111,2.598597 -2.26497,4.389557 l -0.0298,0.371225 -0.17537,0.102769 c -0.29255,0.171449 -0.63213,0.249358 -0.99681,0.22871 -0.17873,-0.01012 -0.38045,-0.04137 -0.44827,-0.06945 l -0.12331,-0.05104 0.0246,-0.604219 c 0.061,-1.498772 0.54355,-2.724218 1.57966,-4.011739 0.15385,-0.191176 0.68826,-0.774476 1.18758,-1.296221 0.49932,-0.521749 1.00253,-1.06338 1.11823,-1.203625 0.74797,-0.906621 0.95567,-1.602976 0.73521,-2.464949 -0.25476,-0.9961 0.10162,-1.593715 0.95038,-1.593715 0.33515,0 0.60866,0.127479 0.68971,0.321473 0.0466,0.111475 0.0486,0.188869 0.0102,0.387045 -0.0656,0.338903 -0.0645,1.76794 0.002,2.287667 0.16651,1.304152 0.59767,2.665173 1.20495,3.803667 0.62649,1.1745 1.54477,2.365322 2.4603,3.190513 0.66135,0.596087 0.75988,0.70093 0.75988,0.808499 0,0.115543 -0.4804,0.59301 -0.59119,0.587576 -0.0371,-0.0018 -0.29244,-0.04846 -0.56731,-0.103639 z"
         style="fill:#ffffff;fill-opacity:1;display:inline;enable-background:new" />
      <path
         style="fill:#ffffff;fill-opacity:1;display:inline;enable-background:new"
         d="m 423.83388,118.98092 c -1.58901,-0.24659 -2.76739,-1.69719 -2.68143,-3.30091 0.0545,-1.01735 0.53152,-1.72939 1.34929,-2.01416 0.20621,-0.0718 0.27514,-0.0807 0.63303,-0.0819 0.29643,-0.001 0.45761,0.0131 0.6154,0.0535 l 0.21378,0.0548 0.13802,-0.095 c 0.19441,-0.13376 0.54158,-0.28895 0.76328,-0.34122 0.22373,-0.0527 0.6434,-0.0585 0.8637,-0.0119 0.7546,0.15964 1.3983,0.86045 1.66353,1.81112 0.063,0.22583 0.0703,0.31172 0.0687,0.80324 -0.001,0.51052 -0.008,0.56975 -0.0827,0.81811 -0.16695,0.55267 -0.40095,0.95662 -0.78707,1.35869 -0.59912,0.62386 -1.31444,0.94015 -2.17749,0.96278 -0.2209,0.006 -0.48194,-0.002 -0.58012,-0.0172 z m 7.31839,-0.0296 c -1.38802,-0.21622 -2.45349,-1.27472 -2.67831,-2.66077 -0.16562,-1.02116 0.19603,-1.94991 0.92264,-2.36943 0.36835,-0.21268 0.9604,-0.31217 1.42474,-0.23941 l 0.20455,0.032 0.13757,-0.11447 c 0.89189,-0.74219 1.97535,-0.70755 2.77153,0.0886 0.52895,0.52896 0.83185,1.30308 0.83185,2.12596 0,0.88899 -0.32968,1.65941 -0.97664,2.28224 -0.40699,0.3918 -0.8733,0.65026 -1.43385,0.7947 -0.28899,0.0745 -0.91307,0.10582 -1.20408,0.0605 z m -1.45057,-6.05339 c -0.20078,-0.0403 -0.38457,-0.095 -0.43137,-0.12838 -0.15324,-0.1093 -0.6475,-0.64423 -0.86469,-0.93583 -0.43305,-0.58141 -0.84947,-1.25802 -1.41058,-2.29188 -0.21465,-0.39551 -0.39343,-0.72355 -0.3973,-0.72899 -0.0125,-0.0175 -0.53062,0.34124 -0.764,0.52899 -0.9338,0.7512 -1.48479,1.81903 -1.58549,3.07271 l -0.0209,0.25986 -0.12276,0.0719 c -0.20479,0.12001 -0.4425,0.17455 -0.69778,0.16009 -0.12511,-0.007 -0.26631,-0.029 -0.31379,-0.0486 l -0.0863,-0.0357 0.0172,-0.42295 c 0.0427,-1.04915 0.38048,-1.90697 1.10577,-2.80824 0.10769,-0.13382 0.48178,-0.54214 0.83131,-0.90736 0.34952,-0.36523 0.70177,-0.74437 0.78276,-0.84254 0.52359,-0.63464 0.66898,-1.12209 0.51465,-1.72548 -0.17833,-0.69727 0.0711,-1.11561 0.66527,-1.11561 0.23461,0 0.42607,0.0892 0.4828,0.22503 0.0326,0.078 0.034,0.13221 0.007,0.27094 -0.0459,0.23723 -0.0452,1.23756 10e-4,1.60138 0.11656,0.91291 0.41838,1.86563 0.84347,2.66258 0.43855,0.82216 1.08135,1.65574 1.72223,2.23338 0.46294,0.41726 0.53192,0.49065 0.53192,0.56595 0,0.0809 -0.33629,0.41511 -0.41384,0.4113 -0.026,-10e-4 -0.20471,-0.0339 -0.39712,-0.0725 z"
         id="path4782"
         inkscape:connector-curvature="0" />
      <path
         inkscape:connector-curvature="0"
         id="path4784"
         d="m 421.01205,152.9861 c -1.13499,-0.17613 -1.97668,-1.21226 -1.91528,-2.35777 0.0389,-0.72667 0.37965,-1.23526 0.96377,-1.43867 0.14729,-0.0513 0.19652,-0.0576 0.45216,-0.0585 0.21173,-7.2e-4 0.32686,0.009 0.43956,0.0382 l 0.1527,0.0391 0.0986,-0.0679 c 0.13886,-0.0955 0.38683,-0.20639 0.54519,-0.24372 0.1598,-0.0376 0.45957,-0.0418 0.61692,-0.008 0.539,0.11403 0.99878,0.6146 1.18822,1.29364 0.045,0.16131 0.0502,0.22266 0.0491,0.57374 -7.1e-4,0.36465 -0.006,0.40696 -0.0591,0.58436 -0.11924,0.39476 -0.28639,0.68329 -0.56218,0.97048 -0.42794,0.44561 -0.93888,0.67153 -1.55534,0.68769 -0.15778,0.004 -0.34424,-0.001 -0.41436,-0.0123 z m 5.22737,-0.0211 c -0.99143,-0.15444 -1.75247,-0.91051 -1.91306,-1.90053 -0.1183,-0.72939 0.14002,-1.39278 0.65902,-1.69243 0.26311,-0.15191 0.686,-0.22298 1.01766,-0.17101 l 0.14611,0.0229 0.0983,-0.0818 c 0.63706,-0.53013 1.41095,-0.50539 1.97964,0.0633 0.37782,0.37783 0.59418,0.93076 0.59418,1.51853 0,0.63498 -0.23549,1.18528 -0.6976,1.63015 -0.2907,0.27986 -0.62377,0.46447 -1.02416,0.56764 -0.20642,0.0532 -0.65219,0.0756 -0.86005,0.0432 z m -1.03611,-4.3238 c -0.14341,-0.0288 -0.27469,-0.0679 -0.30812,-0.0917 -0.10946,-0.0781 -0.46249,-0.46016 -0.61763,-0.66845 -0.30932,-0.41528 -0.60676,-0.89857 -1.00754,-1.63704 -0.15332,-0.2825 -0.28102,-0.51681 -0.28379,-0.5207 -0.009,-0.0125 -0.37901,0.24374 -0.54571,0.37785 -0.66699,0.53656 -1.06055,1.29929 -1.13248,2.19477 l -0.0149,0.18561 -0.0877,0.0514 c -0.14628,0.0857 -0.31607,0.12467 -0.49841,0.11435 -0.0894,-0.005 -0.19022,-0.0207 -0.22413,-0.0347 l -0.0616,-0.0255 0.0123,-0.3021 c 0.0305,-0.74939 0.27177,-1.36211 0.78983,-2.00587 0.0769,-0.0956 0.34412,-0.38723 0.59379,-0.6481 0.24965,-0.26088 0.50125,-0.53169 0.5591,-0.60181 0.37399,-0.45331 0.47784,-0.80148 0.36761,-1.23247 -0.12738,-0.49805 0.0508,-0.79686 0.47518,-0.79686 0.16758,0 0.30434,0.0637 0.34486,0.16074 0.0233,0.0557 0.0243,0.0944 0.005,0.19352 -0.0328,0.16945 -0.0323,0.88396 7.1e-4,1.14383 0.0833,0.65207 0.29884,1.33258 0.60247,1.90182 0.31325,0.58726 0.77239,1.18266 1.23016,1.59526 0.33066,0.29804 0.37993,0.35046 0.37993,0.40424 0,0.0578 -0.2402,0.29651 -0.29559,0.29379 -0.0186,-7.2e-4 -0.14622,-0.0242 -0.28366,-0.0518 z"
         style="fill:#ffffff;fill-opacity:1;display:inline;enable-background:new" />
    </g>
    <g
       inkscape:groupmode="layer"
       id="layer5"
       inkscape:label="Highlights"
       style="display:inline"
       sodipodi:insensitive="true">
      <path
         style="opacity:0.12999998;color:#bebebe;fill:#ffffff;fill-opacity:1;fill-rule:nonzero;stroke:none;stroke-width:0;marker:none;visibility:visible;display:inline;overflow:visible;enable-background:accumulate"
         d="M 84,47 C 56.836703,47 35,68.836703 35,96 l 0,1 C 35,69.836703 56.836703,48 84,48 l 120,0 c 27.1633,0 49,21.836703 49,49 l 0,-1 C 253,68.836703 231.1633,47 204,47 L 84,47 z"
         id="rect3894"
         inkscape:connector-curvature="0" />
      <path
         style="opacity:0.12999998;color:#bebebe;fill:#ffffff;fill-opacity:1;fill-rule:nonzero;stroke:none;stroke-width:0;marker:none;visibility:visible;display:inline;overflow:visible;enable-background:accumulate"
         d="m 419,141 c -1.1253,0 -2,0.8747 -2,2 l 0,1 c 0,-1.1253 0.8747,-2 2,-2 l 10,0 c 1.1253,0 2,0.8747 2,2 l 0,-1 c 0,-1.1253 -0.8747,-2 -2,-2 l -10,0 z"
         id="rect3896"
         inkscape:connector-curvature="0" />
      <path
         style="opacity:0.12999998;color:#bebebe;fill:#ffffff;fill-opacity:1;fill-rule:nonzero;stroke:none;stroke-width:0;marker:none;visibility:visible;display:inline;overflow:visible;enable-background:accumulate"
         d="m 422,102 c -2.2333,0 -4,1.7667 -4,4 l 0,1 c 0,-2.2333 1.7667,-4 4,-4 l 12,0 c 2.2333,0 4,1.7667 4,4 l 0,-1 c 0,-2.2333 -1.7667,-4 -4,-4 l -12,0 z"
         id="rect3898"
         inkscape:connector-curvature="0" />
      <path
         style="opacity:0.12999998;color:#bebebe;fill:#ffffff;fill-opacity:1;fill-rule:nonzero;stroke:none;stroke-width:0;marker:none;visibility:visible;display:inline;overflow:visible;enable-background:accumulate"
         d="m 424,54 c -3.3413,0 -6,2.658703 -6,6 l 0,1 c 0,-3.341297 2.6587,-6 6,-6 l 16,0 c 3.3413,0 6,2.658703 6,6 l 0,-1 c 0,-3.341297 -2.6587,-6 -6,-6 l -16,0 z"
         id="rect3900"
         inkscape:connector-curvature="0" />
      <path
         style="opacity:0.12999998;color:#bebebe;fill:#ffffff;fill-opacity:1;fill-rule:nonzero;stroke:none;stroke-width:0;marker:none;visibility:visible;display:inline;overflow:visible;enable-background:accumulate"
         d="m 300,224 c -4.4493,0 -8,3.5507 -8,8 l 0,1 c 0,-4.4493 3.5507,-8 8,-8 l 24,0 c 4.4493,0 8,3.5507 8,8 l 0,-1 c 0,-4.4493 -3.5507,-8 -8,-8 l -24,0 z"
         id="rect3902"
         inkscape:connector-curvature="0" />
      <path
         style="opacity:0.12999998;color:#bebebe;fill:#ffffff;fill-opacity:1;fill-rule:nonzero;stroke:none;stroke-width:0;marker:none;visibility:visible;display:inline;overflow:visible;enable-background:accumulate"
         d="m 310,33 c -9.4353,0 -17,7.564703 -17,17 l 0,1 c 0,-9.435297 7.5647,-17 17,-17 l 52,0 c 9.4353,0 17,7.564703 17,17 l 0,-1 c 0,-9.435297 -7.5647,-17 -17,-17 l -52,0 z"
         id="rect3904"
         inkscape:connector-curvature="0" />
      <path
         style="opacity:0.12999998;color:#bebebe;fill:#ffffff;fill-opacity:1;fill-rule:nonzero;stroke:none;stroke-width:0;marker:none;visibility:visible;display:inline;overflow:visible;enable-background:accumulate"
         d="m 302.5,143 c -6.3883,0 -11.5,5.1117 -11.5,11.5 l 0,1 c 0,-6.3883 5.1117,-11.5 11.5,-11.5 l 35,0 c 6.3883,0 11.5,5.1117 11.5,11.5 l 0,-1 c 0,-6.3883 -5.1117,-11.5 -11.5,-11.5 l -35,0 z"
         id="rect3906"
         inkscape:connector-curvature="0" />
      <path
         id="path4085"
         d="m 204,266 c 27.1633,0 49,-21.8367 49,-49 l 0,-1 c 0,27.1633 -21.8367,49 -49,49 L 84,265 C 56.8367,265 35,243.1633 35,216 l 0,1 c 0,27.1633 21.8367,49 49,49 l 120,0 z"
         style="opacity:0.5;color:#bebebe;fill:#000000;fill-opacity:1;fill-rule:nonzero;stroke:none;stroke-width:0;marker:none;visibility:visible;display:inline;overflow:visible;enable-background:accumulate"
         inkscape:connector-curvature="0" />
      <path
         id="path4087"
         d="m 429,156 c 1.1253,0 2,-0.8747 2,-2 l 0,-1 c 0,1.1253 -0.8747,2 -2,2 l -10,0 c -1.1253,0 -2,-0.8747 -2,-2 l 0,1 c 0,1.1253 0.8747,2 2,2 l 10,0 z"
         style="opacity:0.3;color:#bebebe;fill:#000000;fill-opacity:1;fill-rule:nonzero;stroke:none;stroke-width:0;marker:none;visibility:visible;display:inline;overflow:visible;enable-background:accumulate"
         inkscape:connector-curvature="0" />
      <path
         id="path4089"
         d="m 434,123 c 2.2333,0 4,-1.7667 4,-4 l 0,-1 c 0,2.2333 -1.7667,4 -4,4 l -12,0 c -2.2333,0 -4,-1.7667 -4,-4 l 0,1 c 0,2.2333 1.7667,4 4,4 l 12,0 z"
         style="opacity:0.3;color:#bebebe;fill:#000000;fill-opacity:1;fill-rule:nonzero;stroke:none;stroke-width:0;marker:none;visibility:visible;display:inline;overflow:visible;enable-background:accumulate"
         inkscape:connector-curvature="0" />
      <path
         id="path4091"
         d="m 440,83 c 3.3413,0 6,-2.6587 6,-6 l 0,-1 c 0,3.3413 -2.6587,6 -6,6 l -16,0 c -3.3413,0 -6,-2.6587 -6,-6 l 0,1 c 0,3.3413 2.6587,6 6,6 l 16,0 z"
         style="opacity:0.5;color:#bebebe;fill:#000000;fill-opacity:1;fill-rule:nonzero;stroke:none;stroke-width:0;marker:none;visibility:visible;display:inline;overflow:visible;enable-background:accumulate"
         inkscape:connector-curvature="0" />
      <path
         id="path4093"
         d="m 324,265 c 4.4493,0 8,-3.5507 8,-8 l 0,-1 c 0,4.4493 -3.5507,8 -8,8 l -24,0 c -4.4493,0 -8,-3.5507 -8,-8 l 0,1 c 0,4.4493 3.5507,8 8,8 l 24,0 z"
         style="opacity:0.5;color:#bebebe;fill:#000000;fill-opacity:1;fill-rule:nonzero;stroke:none;stroke-width:0;marker:none;visibility:visible;display:inline;overflow:visible;enable-background:accumulate"
         inkscape:connector-curvature="0" />
      <path
         id="path4095"
         d="m 362,120 c 9.4353,0 17,-7.5647 17,-17 l 0,-1 c 0,9.4353 -7.5647,17 -17,17 l -52,0 c -9.4353,0 -17,-7.5647 -17,-17 l 0,1 c 0,9.4353 7.5647,17 17,17 l 52,0 z"
         style="opacity:0.5;color:#bebebe;fill:#000000;fill-opacity:1;fill-rule:nonzero;stroke:none;stroke-width:0;marker:none;visibility:visible;display:inline;overflow:visible;enable-background:accumulate"
         inkscape:connector-curvature="0" />
      <path
         id="path4097"
         d="m 337.5,202 c 6.3883,0 11.5,-5.1117 11.5,-11.5 l 0,-1 c 0,6.3883 -5.1117,11.5 -11.5,11.5 l -35,0 c -6.3883,0 -11.5,-5.1117 -11.5,-11.5 l 0,1 c 0,6.3883 5.1117,11.5 11.5,11.5 l 35,0 z"
         style="opacity:0.5;color:#bebebe;fill:#000000;fill-opacity:1;fill-rule:nonzero;stroke:none;stroke-width:0;marker:none;visibility:visible;display:inline;overflow:visible;enable-background:accumulate"
         inkscape:connector-curvature="0" />
      <path
         inkscape:connector-curvature="0"
         id="path4280"
         d="M 84,265 C 56.836703,265 35,243.1633 35,216 l 0,-1 c 0,27.1633 21.836703,49 49,49 l 120,0 c 27.1633,0 49,-21.8367 49,-49 l 0,1 c 0,27.1633 -21.8367,49 -49,49 l -120,0 z"
         style="opacity:0.1;color:#bebebe;fill:#ffffff;fill-opacity:1;fill-rule:nonzero;stroke:none;stroke-width:0;marker:none;visibility:visible;display:inline;overflow:visible;enable-background:accumulate" />
      <path
         style="opacity:0.1;color:#bebebe;fill:#ffffff;fill-opacity:1;fill-rule:nonzero;stroke:none;stroke-width:0;marker:none;visibility:visible;display:inline;overflow:visible;enable-background:accumulate"
         d="m 300,264 c -4.4493,0 -8,-3.5507 -8,-8 l 0,-1 c 0,4.4493 3.5507,8 8,8 l 24,0 c 4.4493,0 8,-3.5507 8,-8 l 0,1 c 0,4.4493 -3.5507,8 -8,8 l -24,0 z"
         id="path4294"
         inkscape:connector-curvature="0" />
      <path
         style="opacity:0.1;color:#bebebe;fill:#ffffff;fill-opacity:1;fill-rule:nonzero;stroke:none;stroke-width:0;marker:none;visibility:visible;display:inline;overflow:visible;enable-background:accumulate"
         d="m 302.5,201 c -6.3883,0 -11.5,-5.1117 -11.5,-11.5 l 0,-1 c 0,6.3883 5.1117,11.5 11.5,11.5 l 35,0 c 6.3883,0 11.5,-5.1117 11.5,-11.5 l 0,1 c 0,6.3883 -5.1117,11.5 -11.5,11.5 l -35,0 z"
         id="path4296"
         inkscape:connector-curvature="0" />
      <path
         style="opacity:0.1;color:#bebebe;fill:#ffffff;fill-opacity:1;fill-rule:nonzero;stroke:none;stroke-width:0;marker:none;visibility:visible;display:inline;overflow:visible;enable-background:accumulate"
         d="m 310,119 c -9.4353,0 -17,-7.5647 -17,-17 l 0,-1 c 0,9.4353 7.5647,17 17,17 l 52,0 c 9.4353,0 17,-7.5647 17,-17 l 0,1 c 0,9.4353 -7.5647,17 -17,17 l -52,0 z"
         id="path4298"
         inkscape:connector-curvature="0" />
      <path
         style="opacity:0.1;color:#bebebe;fill:#ffffff;fill-opacity:1;fill-rule:nonzero;stroke:none;stroke-width:0;marker:none;visibility:visible;display:inline;overflow:visible;enable-background:accumulate"
         d="m 424,82 c -3.3413,0 -6,-2.658703 -6,-6 l 0,-1 c 0,3.341297 2.6587,6 6,6 l 16,0 c 3.3413,0 6,-2.658703 6,-6 l 0,1 c 0,3.341297 -2.6587,6 -6,6 l -16,0 z"
         id="path4300"
         inkscape:connector-curvature="0" />
      <path
         style="opacity:0.1;color:#bebebe;fill:#ffffff;fill-opacity:1;fill-rule:nonzero;stroke:none;stroke-width:0;marker:none;visibility:visible;display:inline;overflow:visible;enable-background:accumulate"
         d="m 422,122 c -2.2333,0 -4,-1.7667 -4,-4 l 0,-1 c 0,2.2333 1.7667,4 4,4 l 12,0 c 2.2333,0 4,-1.7667 4,-4 l 0,1 c 0,2.2333 -1.7667,4 -4,4 l -12,0 z"
         id="path4302"
         inkscape:connector-curvature="0" />
      <path
         style="opacity:0.1;color:#bebebe;fill:#ffffff;fill-opacity:1;fill-rule:nonzero;stroke:none;stroke-width:0;marker:none;visibility:visible;display:inline;overflow:visible;enable-background:accumulate"
         d="m 419,154.5 c -1.1253,0 -2,-0.8747 -2,-2 l 0,-1 c 0,1.1253 0.8747,2 2,2 l 10,0 c 1.1253,0 2,-0.8747 2,-2 l 0,1 c 0,1.1253 -0.8747,2 -2,2 l -10,0 z"
         id="path4304"
         inkscape:connector-curvature="0" />
    </g>
    <g
       inkscape:groupmode="layer"
       id="layer3"
       inkscape:label="Border"
       style="display:inline"
       sodipodi:insensitive="true">
      <path
         style="opacity:0.41000001;color:#bebebe;fill:#000000;fill-opacity:1;fill-rule:nonzero;stroke:none;stroke-width:0;marker:none;visibility:visible;display:inline;overflow:visible;enable-background:accumulate"
         d="m 422,101 c -2.77,0 -5,2.23 -5,5 l 0,12 c 0,2.77 2.23,5 5,5 l 12,0 c 2.77,0 5,-2.23 5,-5 l 0,-12 c 0,-2.77 -2.23,-5 -5,-5 l -12,0 z m 0,1 12,0 c 2.2333,0 4,1.7667 4,4 l 0,12 c 0,2.2333 -1.7667,4 -4,4 l -12,0 c -2.2333,0 -4,-1.7667 -4,-4 l 0,-12 c 0,-2.2333 1.7667,-4 4,-4 z"
         id="rect4099"
         inkscape:connector-curvature="0" />
      <path
         style="opacity:0.41000001;color:#bebebe;fill:#000000;fill-opacity:1;fill-rule:nonzero;stroke:none;stroke-width:0;marker:none;visibility:visible;display:inline;overflow:visible;enable-background:accumulate"
         d="m 424,53 c -3.878,0 -7,3.122 -7,7 l 0,16 c 0,3.878 3.122,7 7,7 l 16,0 c 3.878,0 7,-3.122 7,-7 l 0,-16 c 0,-3.878 -3.122,-7 -7,-7 l -16,0 z m 0,1 16,0 c 3.3413,0 6,2.658703 6,6 l 0,16 c 0,3.341297 -2.6587,6 -6,6 l -16,0 c -3.3413,0 -6,-2.658703 -6,-6 l 0,-16 c 0,-3.341297 2.6587,-6 6,-6 z"
         id="rect4151"
         inkscape:connector-curvature="0" />
      <path
         style="opacity:0.41000001;color:#bebebe;fill:#000000;fill-opacity:1;fill-rule:nonzero;stroke:none;stroke-width:0;marker:none;visibility:visible;display:inline;overflow:visible;enable-background:accumulate"
         d="m 419,140 c -1.662,0 -3,1.338 -3,3 l 0,10 c 0,1.662 1.338,3 3,3 l 10,0 c 1.662,0 3,-1.338 3,-3 l 0,-10 c 0,-1.662 -1.338,-3 -3,-3 l -10,0 z m 0,1 10,0 c 1.1253,0 2,0.8747 2,2 l 0,10 c 0,1.1253 -0.8747,2 -2,2 l -10,0 c -1.1253,0 -2,-0.8747 -2,-2 l 0,-10 c 0,-1.1253 0.8747,-2 2,-2 z"
         id="rect4095"
         inkscape:connector-curvature="0" />
      <path
         style="opacity:0.41000001;color:#bebebe;fill:#000000;fill-opacity:1;fill-rule:nonzero;stroke:none;stroke-width:0;marker:none;visibility:visible;display:inline;overflow:visible;enable-background:accumulate"
         d="m 300,223 c -4.986,0 -9,4.014 -9,9 l 0,24 c 0,4.986 4.014,9 9,9 l 24,0 c 4.986,0 9,-4.014 9,-9 l 0,-24 c 0,-4.986 -4.014,-9 -9,-9 l -24,0 z m 0,1 24,0 c 4.4493,0 8,3.5507 8,8 l 0,24 c 0,4.4493 -3.5507,8 -8,8 l -24,0 c -4.4493,0 -8,-3.5507 -8,-8 l 0,-24 c 0,-4.4493 3.5507,-8 8,-8 z"
         id="rect4783"
         inkscape:connector-curvature="0" />
      <path
         style="opacity:0.41000001;color:#bebebe;fill:#000000;fill-opacity:1;fill-rule:nonzero;stroke:none;stroke-width:0;marker:none;visibility:visible;display:inline;overflow:visible;enable-background:accumulate"
         d="m 302.5,142 c -6.925,0 -12.5,5.575 -12.5,12.5 l 0,35 c 0,6.925 5.575,12.5 12.5,12.5 l 35,0 c 6.925,0 12.5,-5.575 12.5,-12.5 l 0,-35 c 0,-6.925 -5.575,-12.5 -12.5,-12.5 l -35,0 z m 0,1 35,0 c 6.3883,0 11.5,5.1117 11.5,11.5 l 0,35 c 0,6.3883 -5.1117,11.5 -11.5,11.5 l -35,0 c -6.3883,0 -11.5,-5.1117 -11.5,-11.5 l 0,-35 c 0,-6.3883 5.1117,-11.5 11.5,-11.5 z"
         id="rect4515"
         inkscape:connector-curvature="0" />
      <path
         style="opacity:0.41000001;color:#bebebe;fill:#000000;fill-opacity:1;fill-rule:nonzero;stroke:none;stroke-width:0;marker:none;visibility:visible;display:inline;overflow:visible;enable-background:accumulate"
         d="m 310,32 c -9.972,0 -18,8.028 -18,18 l 0,52 c 0,9.972 8.028,18 18,18 l 52,0 c 9.972,0 18,-8.028 18,-18 l 0,-52 c 0,-9.972 -8.028,-18 -18,-18 l -52,0 z m 0,1 52,0 c 9.4353,0 17,7.564703 17,17 l 0,52 c 0,9.4353 -7.5647,17 -17,17 l -52,0 c -9.4353,0 -17,-7.5647 -17,-17 l 0,-52 c 0,-9.435297 7.5647,-17 17,-17 z"
         id="rect4511"
         inkscape:connector-curvature="0" />
      <path
         style="opacity:0.41000001;color:#bebebe;fill:#000000;fill-opacity:1;fill-rule:nonzero;stroke:none;stroke-width:0;marker:none;visibility:visible;display:inline;overflow:visible;enable-background:accumulate"
         d="M 84,46 C 56.3,46 34,68.3 34,96 l 0,120 c 0,27.7 22.3,50 50,50 l 120,0 c 27.7,0 50,-22.3 50,-50 L 254,96 C 254,68.3 231.7,46 204,46 L 84,46 z m 0,1 120,0 c 27.1633,0 49,21.836703 49,49 l 0,120 c 0,27.1633 -21.8367,49 -49,49 L 84,265 C 56.836703,265 35,243.1633 35,216 L 35,96 C 35,68.836703 56.836703,47 84,47 z"
         id="rect4040"
         inkscape:connector-curvature="0" />
    </g>
  </g>
</svg>
