<?xml version="1.0" encoding="UTF-8" standalone="no"?>
<!-- Created with Inkscape (http://www.inkscape.org/) -->

<svg
   xmlns:dc="http://purl.org/dc/elements/1.1/"
   xmlns:cc="http://creativecommons.org/ns#"
   xmlns:rdf="http://www.w3.org/1999/02/22-rdf-syntax-ns#"
   xmlns:svg="http://www.w3.org/2000/svg"
   xmlns="http://www.w3.org/2000/svg"
   xmlns:xlink="http://www.w3.org/1999/xlink"
   xmlns:sodipodi="http://sodipodi.sourceforge.net/DTD/sodipodi-0.dtd"
   xmlns:inkscape="http://www.inkscape.org/namespaces/inkscape"
   inkscape:export-ydpi="90.000000"
   inkscape:export-xdpi="90.000000"
   width="480"
   height="300"
   id="svg11300"
   sodipodi:version="0.32"
   inkscape:version="0.48.4 r9939"
   sodipodi:docname="mono-runtime-common.svg"
   inkscape:output_extension="org.inkscape.output.svg.inkscape"
   version="1.0"
   style="display:inline;enable-background:new"
   inkscape:export-filename="/home/sam/moka2-template.png">
  <sodipodi:namedview
     stroke="#ef2929"
     fill="#f57900"
     id="base"
     pagecolor="#ffffff"
     bordercolor="#666666"
     borderopacity="0.25490196"
     inkscape:pageopacity="0"
     inkscape:pageshadow="2"
     inkscape:zoom="1"
     inkscape:cx="456.11753"
     inkscape:cy="158.69083"
     inkscape:current-layer="layer7"
     showgrid="false"
     inkscape:grid-bbox="true"
     inkscape:document-units="px"
     inkscape:showpageshadow="false"
     inkscape:window-width="1364"
     inkscape:window-height="701"
     inkscape:window-x="0"
     inkscape:window-y="27"
     width="400px"
     height="300px"
     inkscape:snap-nodes="true"
     inkscape:snap-bbox="true"
     gridtolerance="10000"
     inkscape:object-nodes="true"
     inkscape:snap-grids="true"
     showguides="true"
     inkscape:guide-bbox="true"
     inkscape:window-maximized="1"
     inkscape:bbox-nodes="true"
     inkscape:bbox-paths="true"
     inkscape:snap-bbox-edge-midpoints="true"
     inkscape:snap-bbox-midpoints="true">
    <inkscape:grid
       spacingy="1px"
       spacingx="1px"
       id="grid5883"
       type="xygrid"
       enabled="true"
       visible="true"
       empspacing="4"
       snapvisiblegridlinesonly="true"
       dotted="false"
       color="#000000"
       opacity="0.1254902"
       empcolor="#203ef3"
       empopacity="0.36470588" />
    <inkscape:grid
       type="xygrid"
       id="grid11592"
       empspacing="8"
       visible="true"
       enabled="false"
       spacingx="0.5px"
       spacingy="0.5px"
       color="#ff0000"
       opacity="0.1254902"
       empcolor="#ff0000"
       empopacity="0.25098039"
       snapvisiblegridlinesonly="true"
       dotted="true" />
  </sodipodi:namedview>
  <defs
     id="defs3">
    <linearGradient
       id="outerBackgroundGradient">
      <stop
         style="stop-color:#34679e;stop-opacity:1;"
         offset="0"
         id="stop3864-8-6" />
      <stop
         style="stop-color:#81a4ca;stop-opacity:1;"
         offset="1"
         id="stop3866-9-1" />
    </linearGradient>
    <linearGradient
       inkscape:collect="always"
       xlink:href="#outerBackgroundGradient"
       id="linearGradient4097"
       gradientUnits="userSpaceOnUse"
       x1="264"
       y1="280.00003"
       x2="264"
       y2="40.00005"
       gradientTransform="matrix(0.06666667,0,0,0.06666667,414.4,137.33333)" />
    <linearGradient
       inkscape:collect="always"
       xlink:href="#outerBackgroundGradient"
       id="linearGradient4101"
       gradientUnits="userSpaceOnUse"
       gradientTransform="matrix(0.0875,0,0,0.0875,414.9,97.5)"
       x1="286.85715"
       y1="302.85715"
       x2="286.85715"
       y2="28.571428" />
    <linearGradient
       inkscape:collect="always"
       xlink:href="#outerBackgroundGradient"
       id="linearGradient4153"
       gradientUnits="userSpaceOnUse"
       gradientTransform="matrix(0.11931818,0,0,0.11931818,414.13636,48.22727)"
       x1="283.80957"
       y1="299.80954"
       x2="283.80957"
       y2="31.61907" />
    <linearGradient
       inkscape:collect="always"
       xlink:href="#outerBackgroundGradient"
       id="linearGradient4869"
       gradientUnits="userSpaceOnUse"
       gradientTransform="matrix(0.175,0,0,-0.175,286.79999,-215.99997)"
       x1="281.14291"
       y1="297.14304"
       x2="281.14291"
       y2="22.857315" />
    <clipPath
       clipPathUnits="userSpaceOnUse"
       id="clipPath4891">
      <rect
         ry="9"
         y="223"
         x="307"
         height="42"
         width="42"
         id="rect4893"
         style="color:#bebebe;fill:url(#linearGradient4895);fill-opacity:1;fill-rule:nonzero;stroke:none;stroke-width:0;marker:none;visibility:visible;display:inline;overflow:visible;enable-background:accumulate"
         transform="matrix(0,1,-1,0,0,0)" />
    </clipPath>
    <linearGradient
       inkscape:collect="always"
       xlink:href="#outerBackgroundGradient"
       id="linearGradient4895"
       gradientUnits="userSpaceOnUse"
       gradientTransform="matrix(0.175,0,0,0.175,302.79999,215.99997)"
       x1="144.00006"
       y1="280.00018"
       x2="144.00006"
       y2="40.000172" />
    <clipPath
       clipPathUnits="userSpaceOnUse"
       id="clipPath4044">
      <rect
         ry="4"
         y="85"
         x="433"
         height="22"
         width="22"
         id="rect4046"
         style="color:#bebebe;fill:url(#linearGradient4048);fill-opacity:1;fill-rule:nonzero;stroke:none;stroke-width:0;marker:none;visibility:visible;display:inline;overflow:visible;enable-background:accumulate" />
    </clipPath>
    <linearGradient
       inkscape:collect="always"
       xlink:href="#outerBackgroundGradient"
       id="linearGradient4048"
       gradientUnits="userSpaceOnUse"
       gradientTransform="matrix(0.0875,0,0,0.0875,430.9,81.499996)"
       x1="149.71428"
       y1="291.42862"
       x2="149.71428"
       y2="40.000046" />
    <clipPath
       clipPathUnits="userSpaceOnUse"
       id="clipPath4089">
      <rect
         style="color:#bebebe;fill:url(#linearGradient4093);fill-opacity:1;fill-rule:nonzero;stroke:none;stroke-width:0;marker:none;visibility:visible;display:inline;overflow:visible;enable-background:accumulate"
         id="rect4091"
         width="30"
         height="30"
         x="433"
         y="37"
         ry="6" />
    </clipPath>
    <linearGradient
       inkscape:collect="always"
       xlink:href="#outerBackgroundGradient"
       id="linearGradient4093"
       gradientUnits="userSpaceOnUse"
       gradientTransform="matrix(0.11931818,0,0,0.11931818,430.13636,32.227267)"
       x1="149.71432"
       y1="291.42862"
       x2="149.71432"
       y2="40.00005" />
    <clipPath
       clipPathUnits="userSpaceOnUse"
       id="clipPath3855">
      <rect
         style="color:#bebebe;fill:url(#linearGradient3859);fill-opacity:1;fill-rule:nonzero;stroke:none;stroke-width:0;marker:none;visibility:visible;display:inline;overflow:visible;enable-background:accumulate"
         id="rect3857"
         width="16"
         height="16"
         x="304"
         y="212"
         ry="3"
         transform="matrix(0,1,-1,0,0,0)" />
    </clipPath>
    <linearGradient
       inkscape:collect="always"
       xlink:href="#outerBackgroundGradient"
       id="linearGradient3859"
       gradientUnits="userSpaceOnUse"
       gradientTransform="matrix(0.06666667,0,0,0.06666667,302.4,209.33333)"
       x1="144"
       y1="280.00003"
       x2="144"
       y2="40.00005" />
    <clipPath
       clipPathUnits="userSpaceOnUse"
       id="clipPath3862">
      <rect
         ry="50"
         y="46"
         x="34"
         height="220"
         width="220"
         id="rect3864"
         style="color:#bebebe;fill:url(#linearGradient3866);fill-opacity:1;fill-rule:nonzero;stroke:none;stroke-width:0;marker:none;visibility:visible;display:inline;overflow:visible;enable-background:accumulate" />
    </clipPath>
    <linearGradient
       inkscape:collect="always"
       xlink:href="#outerBackgroundGradient"
       id="linearGradient3866"
       gradientUnits="userSpaceOnUse"
       gradientTransform="translate(0,-4)"
       x1="144"
       y1="280"
       x2="144"
       y2="40" />
    <linearGradient
       inkscape:collect="always"
       xlink:href="#outerBackgroundGradient"
       id="linearGradient3876"
       gradientUnits="userSpaceOnUse"
       gradientTransform="translate(0,-4)"
       x1="272"
       y1="288"
       x2="272"
       y2="32" />
    <clipPath
       clipPathUnits="userSpaceOnUse"
       id="clipPath4187">
      <rect
         ry="12.5"
         y="142"
         x="290"
         height="60"
         width="60"
         id="rect4189"
         style="color:#bebebe;fill:url(#linearGradient4191);fill-opacity:1;fill-rule:nonzero;stroke:none;stroke-width:0;marker:none;visibility:visible;display:inline;overflow:visible;enable-background:accumulate" />
    </clipPath>
    <linearGradient
       inkscape:collect="always"
       xlink:href="#outerBackgroundGradient"
       id="linearGradient4191"
       gradientUnits="userSpaceOnUse"
       x1="352"
       y1="204"
       x2="352"
       y2="140" />
    <linearGradient
       inkscape:collect="always"
       xlink:href="#outerBackgroundGradient"
       id="linearGradient4197"
       gradientUnits="userSpaceOnUse"
       x1="384"
       y1="124"
       x2="384"
       y2="28" />
    <linearGradient
       inkscape:collect="always"
       xlink:href="#outerBackgroundGradient"
       id="linearGradient4199"
       gradientUnits="userSpaceOnUse"
       x1="352"
       y1="204"
       x2="352"
       y2="140" />
    <clipPath
       clipPathUnits="userSpaceOnUse"
       id="clipPath4346">
      <rect
         style="color:#bebebe;fill:url(#linearGradient4350);fill-opacity:1;fill-rule:nonzero;stroke:none;stroke-width:0;marker:none;visibility:visible;display:inline;overflow:visible;enable-background:accumulate"
         id="rect4348"
         width="88"
         height="88"
         x="292"
         y="32"
         ry="18" />
    </clipPath>
    <linearGradient
       inkscape:collect="always"
       xlink:href="#outerBackgroundGradient"
       id="linearGradient4350"
       gradientUnits="userSpaceOnUse"
       x1="384"
       y1="124"
       x2="384"
       y2="28" />
    <clipPath
       clipPathUnits="userSpaceOnUse"
       id="clipPath3871">
      <rect
         ry="5"
         y="101"
         x="417"
         height="22"
         width="22"
         id="rect3873"
         style="color:#bebebe;fill:url(#linearGradient3875);fill-opacity:1;fill-rule:nonzero;stroke:none;stroke-width:0;marker:none;visibility:visible;display:inline;overflow:visible;enable-background:accumulate" />
    </clipPath>
    <linearGradient
       inkscape:collect="always"
       xlink:href="#outerBackgroundGradient"
       id="linearGradient3875"
       gradientUnits="userSpaceOnUse"
       gradientTransform="matrix(0.0875,0,0,0.0875,414.9,97.5)"
       x1="286.85715"
       y1="302.85715"
       x2="286.85715"
       y2="28.571428" />
    <clipPath
       clipPathUnits="userSpaceOnUse"
       id="clipPath3881">
      <rect
         style="color:#bebebe;fill:url(#linearGradient3885);fill-opacity:1;fill-rule:nonzero;stroke:none;stroke-width:0;marker:none;visibility:visible;display:inline;overflow:visible;enable-background:accumulate"
         id="rect3883"
         width="30"
         height="30"
         x="417"
         y="53"
         ry="7" />
    </clipPath>
    <linearGradient
       inkscape:collect="always"
       xlink:href="#outerBackgroundGradient"
       id="linearGradient3885"
       gradientUnits="userSpaceOnUse"
       gradientTransform="matrix(0.11931818,0,0,0.11931818,414.13636,48.22727)"
       x1="283.80957"
       y1="299.80954"
       x2="283.80957"
       y2="31.61907" />
  </defs>
  <metadata
     id="metadata4">
    <rdf:RDF>
      <cc:Work
         rdf:about="">
        <dc:format>image/svg+xml</dc:format>
        <dc:type
           rdf:resource="http://purl.org/dc/dcmitype/StillImage" />
        <dc:creator>
          <cc:Agent>
            <dc:title>Sam Hewitt</dc:title>
          </cc:Agent>
        </dc:creator>
        <dc:source />
        <cc:license
           rdf:resource="" />
        <dc:title></dc:title>
        <dc:subject>
          <rdf:Bag />
        </dc:subject>
        <dc:date />
        <dc:rights>
          <cc:Agent>
            <dc:title />
          </cc:Agent>
        </dc:rights>
        <dc:publisher>
          <cc:Agent>
            <dc:title />
          </cc:Agent>
        </dc:publisher>
        <dc:identifier />
        <dc:relation />
        <dc:language />
        <dc:coverage />
        <dc:description />
        <dc:contributor>
          <cc:Agent>
            <dc:title />
          </cc:Agent>
        </dc:contributor>
      </cc:Work>
      <cc:Work
         rdf:about="">
        <dc:format>image/svg+xml</dc:format>
        <dc:type
           rdf:resource="http://purl.org/dc/dcmitype/StillImage" />
      </cc:Work>
    </rdf:RDF>
  </metadata>
  <g
     style="display:inline"
     inkscape:groupmode="layer"
     inkscape:label="Icon"
     id="layer1">
    <g
       style="display:none"
       inkscape:label="Baseplate"
       id="layer7"
       inkscape:groupmode="layer">
      <text
         y="19.745117"
         xml:space="preserve"
         x="15.006836"
         style="font-size:18px;font-style:normal;font-variant:normal;font-weight:normal;font-stretch:normal;fill:#000000;fill-opacity:1;stroke:none;display:inline;enable-background:new;font-family:DejaVu Sans;-inkscape-font-specification:DejaVu Sans"
         inkscape:label="context"
         id="context"><tspan
           style="font-style:normal;font-variant:normal;font-weight:normal;font-stretch:normal;font-family:DejaVu Sans;-inkscape-font-specification:DejaVu Sans"
           y="19.745117"
           x="15.006836"
           sodipodi:role="line"
           id="tspan3933">apps</tspan></text>
      <text
         y="19.745117"
         xml:space="preserve"
         x="122.48828"
         style="font-size:18px;font-style:normal;font-variant:normal;font-weight:bold;font-stretch:normal;text-align:start;line-height:125%;writing-mode:lr-tb;text-anchor:start;fill:#000000;fill-opacity:1;stroke:none;display:inline;enable-background:new;font-family:DejaVu Sans;-inkscape-font-specification:DejaVu Sans Bold"
         sodipodi:linespacing="125%"
         inkscape:label="icon-name"
         id="icon-name"><tspan
           style="font-size:18px;font-style:normal;font-variant:normal;font-weight:bold;font-stretch:normal;font-family:DejaVu Sans;-inkscape-font-specification:DejaVu Sans Bold"
           y="19.745117"
           x="122.48828"
           sodipodi:role="line"
           id="tspan3937">mono-runtime-common</tspan></text>
      <rect
         style="fill:#eeeeec;fill-opacity:1;fill-rule:nonzero;stroke:none;stroke-width:2;marker:none;visibility:visible;display:inline;overflow:visible;enable-background:accumulate"
         id="rect16x16"
         width="16"
         height="16"
         x="416"
         y="140"
         inkscape:label="16x16" />
      <rect
         style="fill:#d4d4d4;fill-opacity:1;fill-rule:nonzero;stroke:none;stroke-width:2;marker:none;visibility:visible;display:inline;overflow:visible;enable-background:accumulate"
         id="rect24x24"
         width="24"
         height="24"
         x="416"
         y="100"
         inkscape:label="24x24" />
      <rect
         style="fill:#eeeeec;fill-opacity:1;fill-rule:nonzero;stroke:none;stroke-width:2;marker:none;visibility:visible;display:inline;overflow:visible;enable-background:accumulate"
         id="rect32x32"
         width="32"
         height="32"
         x="416"
         y="52"
         inkscape:label="32x32" />
      <rect
         inkscape:label="22x22"
         y="101"
         x="417"
         height="22"
         width="22"
         id="rect22x22"
         style="fill:#eeeeec;fill-opacity:1;fill-rule:nonzero;stroke:none;stroke-width:2;marker:none;visibility:visible;display:inline;overflow:visible;enable-background:accumulate" />
      <rect
         inkscape:label="48x48"
         y="220"
         x="288"
         height="48"
         width="48"
         id="rect48x48"
         style="fill:#eeeeec;fill-opacity:1;fill-rule:nonzero;stroke:none;stroke-width:2;marker:none;visibility:visible;display:inline;overflow:visible;enable-background:accumulate" />
      <rect
         style="fill:#eeeeec;fill-opacity:1;fill-rule:nonzero;stroke:none;stroke-width:2;marker:none;visibility:visible;display:inline;overflow:visible;enable-background:accumulate"
         id="rect256x256"
         width="256"
         height="256"
         x="16"
         y="28"
         inkscape:label="256x256" />
      <rect
         style="fill:#eeeeec;fill-opacity:1;fill-rule:nonzero;stroke:none;stroke-width:2;marker:none;visibility:visible;display:inline;overflow:visible;enable-background:accumulate"
         id="rect64x64"
         width="64"
         height="64"
         x="288"
         y="140"
         inkscape:label="64x64" />
      <rect
         style="fill:#eeeeec;fill-opacity:1;fill-rule:nonzero;stroke:none;stroke-width:2;marker:none;visibility:visible;display:inline;overflow:visible;enable-background:accumulate"
         id="rect96x96"
         width="96"
         height="96"
         x="288"
         y="28"
         inkscape:label="96x96" />
    </g>
    <g
       inkscape:groupmode="layer"
       id="layer4"
       inkscape:label="Shadow"
       style="display:inline"
       sodipodi:insensitive="true">
      <rect
         style="opacity:0.0;color:#bebebe;fill:#000000;fill-opacity:1;stroke:#000000;stroke-width:1;stroke-miterlimit:4;stroke-opacity:1;stroke-dasharray:none;marker:none;visibility:visible;display:inline;overflow:visible;enable-background:accumulate"
         id="rect4156"
         width="42"
         height="42"
         x="-266.5"
         y="291"
         ry="9"
         transform="matrix(0,-1,1,0,0,0)" />
      <rect
         transform="matrix(0,-1,1,0,0,0)"
         ry="9"
         y="291"
         x="-266.5"
         height="42"
         width="40"
         id="rect4183"
         style="opacity:0.1;color:#bebebe;fill:#000000;fill-opacity:1;stroke:none;stroke-width:1;marker:none;visibility:visible;display:inline;overflow:visible;enable-background:accumulate" />
      <rect
         ry="9"
         y="237"
         x="291"
         height="29"
         width="42"
         id="rect4144"
         style="opacity:0.1;color:#bebebe;fill:#000000;fill-opacity:1;fill-rule:nonzero;stroke:none;stroke-width:0;marker:none;visibility:visible;display:inline;overflow:visible;enable-background:accumulate" />
      <rect
         style="opacity:0.0;color:#bebebe;fill:#000000;fill-opacity:1;fill-rule:nonzero;stroke:#000000;stroke-width:1;stroke-miterlimit:4;stroke-opacity:1;stroke-dasharray:none;marker:none;visibility:visible;display:inline;overflow:visible;enable-background:accumulate"
         id="rect4340"
         width="88"
         height="88"
         x="292"
         y="33.5"
         ry="18" />
      <rect
         ry="18"
         y="52.5"
         x="292"
         height="69"
         width="88"
         id="rect4338"
         style="opacity:0.1;color:#bebebe;fill:#000000;fill-opacity:1;fill-rule:nonzero;stroke:none;stroke-width:0;marker:none;visibility:visible;display:inline;overflow:visible;enable-background:accumulate" />
      <rect
         style="opacity:0.1;color:#bebebe;fill:#000000;fill-opacity:1;fill-rule:nonzero;stroke:none;stroke-width:0;marker:none;visibility:visible;display:inline;overflow:visible;enable-background:accumulate"
         id="rect4335"
         width="88"
         height="76.5"
         x="292"
         y="44.5"
         ry="18" />
      <rect
         style="opacity:0.0;color:#bebebe;fill:#000000;fill-opacity:1;fill-rule:nonzero;stroke:#000000;stroke-width:1;stroke-miterlimit:4;stroke-opacity:1;stroke-dasharray:none;marker:none;visibility:visible;display:inline;overflow:visible;enable-background:accumulate"
         id="rect4214"
         width="60"
         height="60"
         x="290"
         y="143.5"
         ry="12.5" />
      <rect
         ry="12.5"
         y="151.5"
         x="290"
         height="52"
         width="60"
         id="rect4206"
         style="opacity:0.1;color:#bebebe;fill:#000000;fill-opacity:1;fill-rule:nonzero;stroke:none;stroke-width:0;marker:none;visibility:visible;display:inline;overflow:visible;enable-background:accumulate" />
      <rect
         style="opacity:0.1;color:#bebebe;fill:#000000;fill-opacity:1;fill-rule:nonzero;stroke:none;stroke-width:0;marker:none;visibility:visible;display:inline;overflow:visible;enable-background:accumulate"
         id="rect4212"
         width="60"
         height="54.5"
         x="290"
         y="148.5"
         ry="12.5" />
      <rect
         style="opacity:0.2;color:#bebebe;fill:#000000;fill-opacity:1;fill-rule:nonzero;stroke:none;stroke-width:0;marker:none;visibility:visible;display:inline;overflow:visible;enable-background:accumulate"
         id="rect4058"
         width="30"
         height="30"
         x="417"
         y="54"
         ry="7" />
      <rect
         ry="50"
         y="48"
         x="34"
         height="220"
         width="220"
         id="rect3872"
         style="opacity:0.0;color:#bebebe;fill:#000000;fill-opacity:1;fill-rule:nonzero;stroke:#000000;stroke-width:2;stroke-miterlimit:4;stroke-opacity:1;stroke-dasharray:none;marker:none;visibility:visible;display:inline;overflow:visible;enable-background:accumulate" />
      <rect
         style="opacity:0.1;color:#bebebe;fill:#000000;fill-opacity:1;fill-rule:nonzero;stroke:none;stroke-width:0;marker:none;visibility:visible;display:inline;overflow:visible;enable-background:accumulate"
         id="rect3870"
         width="220"
         height="220"
         x="34"
         y="48"
         ry="50" />
      <rect
         ry="50"
         y="47"
         x="34"
         height="220"
         width="220"
         id="rect3868"
         style="opacity:0.1;color:#bebebe;fill:#000000;fill-opacity:1;fill-rule:nonzero;stroke:none;stroke-width:0;marker:none;visibility:visible;display:inline;overflow:visible;enable-background:accumulate" />
    </g>
    <g
       inkscape:groupmode="layer"
       id="layer2"
       inkscape:label="Background"
       style="display:inline">
      <rect
         style="color:#bebebe;fill:url(#linearGradient3876);fill-opacity:1;fill-rule:nonzero;stroke:none;stroke-width:0;marker:none;visibility:visible;display:inline;overflow:visible;enable-background:accumulate"
         id="rect4040"
         width="220"
         height="220"
         x="34"
         y="46"
         ry="50" />
      <rect
         ry="3"
         y="140"
         x="416"
         height="16"
         width="16"
         id="rect4095"
         style="color:#bebebe;fill:url(#linearGradient4097);fill-opacity:1;fill-rule:nonzero;stroke:none;stroke-width:0;marker:none;visibility:visible;display:inline;overflow:visible;enable-background:accumulate" />
      <rect
         style="color:#bebebe;fill:url(#linearGradient4101);fill-opacity:1;fill-rule:nonzero;stroke:none;stroke-width:0;marker:none;visibility:visible;display:inline;overflow:visible;enable-background:accumulate"
         id="rect4099"
         width="22"
         height="22"
         x="417"
         y="101"
         ry="5" />
      <rect
         ry="7"
         y="53"
         x="417"
         height="30"
         width="30"
         id="rect4151"
         style="color:#bebebe;fill:url(#linearGradient4153);fill-opacity:1;fill-rule:nonzero;stroke:none;stroke-width:0;marker:none;visibility:visible;display:inline;overflow:visible;enable-background:accumulate" />
      <rect
         style="color:#bebebe;fill:url(#linearGradient4869);fill-opacity:1;fill-rule:nonzero;stroke:none;stroke-width:0;marker:none;visibility:visible;display:inline;overflow:visible;enable-background:accumulate"
         id="rect4783"
         width="42"
         height="42"
         x="291"
         y="-265"
         ry="9"
         transform="scale(1,-1)" />
      <rect
         ry="18"
         y="32"
         x="292"
         height="88"
         width="88"
         id="rect4511"
         style="color:#bebebe;fill:url(#linearGradient4197);fill-opacity:1;fill-rule:nonzero;stroke:none;stroke-width:0;marker:none;visibility:visible;display:inline;overflow:visible;enable-background:accumulate" />
      <rect
         style="color:#bebebe;fill:url(#linearGradient4199);fill-opacity:1;fill-rule:nonzero;stroke:none;stroke-width:0;marker:none;visibility:visible;display:inline;overflow:visible;enable-background:accumulate"
         id="rect4515"
         width="60"
         height="60"
         x="290"
         y="142"
         ry="12.5" />
    </g>
    <g
       inkscape:groupmode="layer"
       id="layer6"
       inkscape:label="Symbols"
       style="display:inline">
      <path
         sodipodi:nodetypes="scssscssssssscsssssssssssssssssscssssscsssscssss"
         inkscape:connector-curvature="0"
         id="path3854"
         style="opacity:0.2;fill:#000000;fill-opacity:1;display:inline;enable-background:new"
         d="m 81.710758,231.5408 c 0,-0.9362 31.320882,-38.5682 31.981212,-38.42539 0.37722,0.0816 14.36634,6.02364 31.08693,13.20458 28.55672,12.26415 30.45093,12.98943 31.22311,11.95489 1.16777,-1.56456 5.18992,-9.97631 7.31744,-15.3034 l 1.80497,-4.51948 -3.04083,-1.66257 c -4.30933,-2.35615 -10.62977,-7.60332 -14.58762,-12.11051 -3.61165,-4.11297 -10.12594,-14.03694 -10.12594,-15.42602 0,-0.45979 2.06997,1.63069 4.59992,4.64551 7.10632,8.46823 23.48193,21.71902 24.51035,19.83324 1.22038,-2.23777 2.00924,-8.84397 1.97015,-16.49876 -0.0477,-9.34502 -1.27295,-16.62003 -4.49023,-26.66186 l -1.8028,-5.62692 -8.91337,-2.80135 c -4.90236,-1.54074 -9.81683,-3.0853 -10.92106,-3.43238 -3.85094,-1.21035 -1.44169,-1.14519 4.19614,0.11351 6.74095,1.50498 13.58819,2.77612 17.82809,3.30968 3.73316,0.46979 4.5546,-0.26254 4.95381,-4.41639 0.50898,-5.29619 -2.90935,-19.92274 -6.35806,-27.20517 -1.37642,-2.9065 -1.99778,-3.53323 -4.7535,-4.7946 -9.17325,-4.19888 -37.88627,-8.131513 -50.07928,-6.859051 -5.27079,0.550058 -10.68506,1.830621 -12.37249,2.926271 -0.47561,0.30882 2.92393,1.18441 8.77648,2.26047 5.25404,0.96602 9.08279,1.8482 8.50834,1.9604 -0.57444,0.11219 -8.83047,-0.79489 -18.34671,-2.01575 -16.706517,-2.14332 -17.343768,-2.18221 -18.507396,-1.12933 -2.42612,2.19519 -5.916759,8.19558 -6.635402,11.40621 -0.695763,3.10843 -0.64682,3.46865 0.901138,6.63198 2.638475,5.39183 7.544688,9.31512 18.70894,14.96074 5.2792,2.66963 9.47054,4.98186 9.31407,5.1383 -0.15646,0.15643 -4.66168,-1.52536 -10.0116,-3.73732 l -9.727137,-4.02172 -14.273527,3.99359 c -7.850443,2.19648 -14.537094,3.9936 -14.859214,3.9936 C 69.217541,141.2258 69,131.7436 69,115.69751 c 0,-24.58299 0.04642,-25.624157 1.253493,-28.11718 0.735819,-1.519712 2.173146,-3.160641 3.480326,-3.973321 l 2.226834,-1.384433 65.369607,-0.181879 c 35.95329,-0.100034 66.82383,-0.0093 68.60122,0.201571 4.00534,0.475258 7.61994,3.407449 8.57586,6.956808 0.41208,1.53005 0.56694,24.800354 0.45972,69.074454 l -0.1617,66.76709 -1.3847,2.22642 c -0.81283,1.30694 -2.45406,2.744 -3.97406,3.47968 -2.56934,1.24357 -3.08901,1.25326 -67.1626,1.25326 -35.51529,0 -64.573242,-0.20663 -64.573242,-0.45918 z" />
      <path
         d="m 311.08431,106.81639 c 0,-0.37448 12.52835,-15.427279 12.79248,-15.370159 0.15089,0.03259 5.74654,2.40946 12.43477,5.281835 11.42269,4.905654 12.18037,5.195774 12.48924,4.781964 0.46711,-0.62583 2.07597,-3.990532 2.92698,-6.121374 l 0.72199,-1.807793 -1.21633,-0.665026 c -1.72374,-0.942455 -4.25191,-3.041323 -5.83505,-4.844207 -1.44466,-1.645183 -4.05038,-5.614773 -4.05038,-6.170409 0,-0.183906 0.82799,0.652278 1.83997,1.858213 2.84253,3.387289 9.39277,8.6876 9.80414,7.933291 0.48815,-0.895103 0.8037,-3.53759 0.78806,-6.599499 -0.0191,-3.738013 -0.50918,-6.64802 -1.79609,-10.664751 l -0.72112,-2.250761 -3.56535,-1.120541 c -1.96094,-0.616295 -3.92673,-1.234119 -4.36842,-1.372954 -1.54038,-0.484139 -0.57668,-0.458074 1.67845,0.04539 2.69638,0.601998 5.43528,1.110453 7.13124,1.323873 1.49326,0.187915 1.82184,-0.10501 1.98152,-1.76656 0.20359,-2.118475 -1.16374,-7.969094 -2.54322,-10.882061 -0.55057,-1.162603 -0.79911,-1.413296 -1.9014,-1.917842 -3.6693,-1.679557 -15.15451,-3.252604 -20.03171,-2.743619 -2.10832,0.220019 -4.27403,0.732244 -4.949,1.170502 -0.19024,0.123537 1.16957,0.473772 3.51059,0.904192 2.10162,0.386407 3.63312,0.739282 3.40334,0.784163 -0.22978,0.04489 -3.53219,-0.31796 -7.33868,-0.806299 -6.68261,-0.85733 -6.93751,-0.872888 -7.40296,-0.451736 -0.97045,0.878076 -2.36671,3.278229 -2.65416,4.562489 -0.27831,1.243368 -0.25873,1.387451 0.36045,2.652785 1.05539,2.156738 3.01788,3.726045 7.48358,5.984304 2.11168,1.067841 3.78821,1.992739 3.72563,2.055317 -0.0626,0.06259 -1.86468,-0.610146 -4.00464,-1.494931 l -3.89086,-1.60869 -5.70941,1.597442 c -3.14018,0.878586 -5.81484,1.597442 -5.94368,1.597442 C 306.08702,70.690392 306,66.897509 306,60.479066 c 0,-9.833196 0.0186,-10.249658 0.5014,-11.246872 0.29433,-0.607877 0.86926,-1.264254 1.39213,-1.589324 l 0.89073,-0.553776 26.14785,-0.07279 c 14.38131,-0.03999 26.72953,-0.004 27.44048,0.08058 1.60214,0.190105 3.04798,1.362976 3.43035,2.782721 0.16483,0.612026 0.22677,9.92015 0.18388,27.629787 l -0.0647,26.706848 -0.55388,0.89056 c -0.32513,0.52278 -0.98162,1.09761 -1.58962,1.39187 -1.02774,0.49743 -1.2356,0.50131 -26.86504,0.50131 -14.20611,0 -25.82929,-0.0827 -25.82929,-0.18368 z"
         style="opacity:0.2;fill:#000000;fill-opacity:1;display:inline;enable-background:new"
         id="path3856"
         inkscape:connector-curvature="0"
         sodipodi:nodetypes="scssscssssssscsssssssssssssssssscssssscsssscssss" />
      <path
         sodipodi:nodetypes="scssscssssssscsssssssssssssssssscssssscsssscssss"
         inkscape:connector-curvature="0"
         id="path3858"
         style="opacity:0.2;fill:#000000;fill-opacity:1;display:inline;enable-background:new"
         d="m 303.38954,192.8776 c 0,-0.24966 8.35223,-10.28486 8.52832,-10.24678 0.10059,0.0217 3.83103,1.60631 8.28985,3.52122 7.61512,3.27044 8.12024,3.46386 8.32616,3.18798 0.3114,-0.41722 1.38398,-2.66036 1.95132,-4.08092 l 0.48132,-1.20519 -0.81088,-0.44335 c -1.14916,-0.62831 -2.83461,-2.02755 -3.89004,-3.22947 -0.9631,-1.09679 -2.70025,-3.74319 -2.70025,-4.11361 0,-0.1226 0.55199,0.43485 1.22665,1.23881 1.89502,2.25819 6.26184,5.79173 6.53609,5.28886 0.32543,-0.59674 0.5358,-2.35839 0.52537,-4.39967 -0.0127,-2.49201 -0.33945,-4.43201 -1.19739,-7.10983 l -0.48075,-1.50051 -2.3769,-0.74703 c -1.30729,-0.41086 -2.61782,-0.82274 -2.91228,-0.9153 -1.02692,-0.32276 -0.38445,-0.30538 1.11897,0.0303 1.79759,0.40133 3.62352,0.7403 4.75416,0.88258 0.99551,0.12528 1.21456,-0.07 1.32101,-1.1777 0.13573,-1.41232 -0.77582,-5.31273 -1.69548,-7.25471 -0.36704,-0.77507 -0.53274,-0.9422 -1.2676,-1.27856 -2.4462,-1.11971 -10.103,-2.1684 -13.35447,-1.82908 -1.40555,0.14668 -2.84935,0.48816 -3.29933,0.78033 -0.12683,0.0824 0.77971,0.31585 2.34039,0.6028 1.40108,0.2576 2.42208,0.49285 2.26889,0.52277 -0.15318,0.0299 -2.35479,-0.21197 -4.89245,-0.53753 -4.45507,-0.57155 -4.62501,-0.58192 -4.93531,-0.30116 -0.64696,0.58539 -1.5778,2.18549 -1.76944,3.04166 -0.18554,0.82891 -0.17248,0.92497 0.2403,1.76853 0.7036,1.43782 2.01192,2.48403 4.98906,3.98953 1.40778,0.7119 2.52547,1.32849 2.48375,1.37021 -0.0417,0.0417 -1.24312,-0.40676 -2.66976,-0.99662 l -2.59391,-1.07246 -3.80627,1.06496 c -2.09345,0.58573 -3.87656,1.06497 -3.96245,1.06497 -0.0982,0 -0.15619,-2.52859 -0.15619,-6.80755 0,-6.55546 0.0124,-6.8331 0.33427,-7.49791 0.19622,-0.40525 0.5795,-0.84284 0.92808,-1.05955 l 0.59382,-0.36919 17.4319,-0.0485 c 9.58754,-0.0267 17.81969,-0.003 18.29366,0.0537 1.06809,0.12674 2.03198,0.90866 2.2869,1.85515 0.10988,0.40802 0.15118,6.61344 0.12258,18.41986 l -0.0431,17.80456 -0.36925,0.59371 c -0.21676,0.34852 -0.65442,0.73174 -1.05975,0.92791 -0.68516,0.33162 -0.82373,0.33421 -17.91003,0.33421 -9.47074,0 -17.21952,-0.0551 -17.21952,-0.12245 z" />
      <path
         d="m 300.37268,258.91435 c 0,-0.17476 5.84656,-7.1994 5.96982,-7.17275 0.0704,0.0152 2.68172,1.12442 5.8029,2.46486 5.33058,2.2893 5.68417,2.4247 5.82831,2.23158 0.21798,-0.29205 0.96879,-1.86225 1.36592,-2.85664 l 0.33693,-0.84363 -0.56762,-0.31035 c -0.80441,-0.43982 -1.98422,-1.41928 -2.72303,-2.26063 -0.67417,-0.76775 -1.89017,-2.62023 -1.89017,-2.87953 0,-0.0858 0.38639,0.3044 0.85865,0.86717 1.32652,1.58073 4.38329,4.05421 4.57527,3.7022 0.2278,-0.41771 0.37506,-1.65087 0.36776,-3.07977 -0.009,-1.7444 -0.23762,-3.1024 -0.83818,-4.97688 l -0.33652,-1.05035 -1.66383,-0.52292 c -0.9151,-0.28761 -1.83248,-0.57592 -2.0386,-0.64071 -0.71884,-0.22594 -0.26911,-0.21377 0.78328,0.0212 1.25831,0.28093 2.53647,0.51821 3.32791,0.6178 0.69686,0.0877 0.8502,-0.049 0.92471,-0.82439 0.095,-0.98862 -0.54307,-3.71891 -1.18684,-5.0783 -0.25692,-0.54255 -0.37291,-0.65954 -0.88732,-0.89499 -1.71234,-0.7838 -7.0721,-1.51788 -9.34813,-1.28035 -0.98388,0.10267 -1.99454,0.34171 -2.30953,0.54623 -0.0888,0.0577 0.5458,0.22109 1.63828,0.42196 0.98075,0.18032 1.69545,0.34499 1.58822,0.36594 -0.10723,0.0209 -1.64835,-0.14838 -3.42472,-0.37628 -3.11854,-0.40008 -3.2375,-0.40734 -3.45471,-0.21081 -0.45287,0.40978 -1.10446,1.52985 -1.23861,2.12916 -0.12988,0.58024 -0.12074,0.64748 0.16821,1.23798 0.49252,1.00647 1.40834,1.73882 3.49234,2.79267 0.98545,0.49833 1.76783,0.92994 1.73863,0.95914 -0.0292,0.0292 -0.87019,-0.28473 -1.86884,-0.69763 l -1.81573,-0.75072 -2.66439,0.74547 c -1.46542,0.41001 -2.71359,0.74548 -2.77372,0.74548 -0.0687,0 -0.10933,-1.77001 -0.10933,-4.76529 0,-4.58882 0.009,-4.78317 0.23399,-5.24853 0.13735,-0.28368 0.40565,-0.58999 0.64966,-0.74169 l 0.41567,-0.25843 12.20233,-0.034 c 6.71128,-0.0187 12.47378,-0.002 12.80556,0.0376 0.74767,0.0887 1.42239,0.63606 1.60083,1.2986 0.0769,0.28562 0.10583,4.62941 0.0858,12.89391 l -0.0302,12.46319 -0.25848,0.4156 c -0.15173,0.24396 -0.45809,0.51221 -0.74182,0.64953 -0.47961,0.23214 -0.57661,0.23395 -12.53702,0.23395 -6.62952,0 -12.05367,-0.0386 -12.05367,-0.0857 z"
         style="opacity:0.2;fill:#000000;fill-opacity:1;display:inline;enable-background:new"
         id="path3860"
         inkscape:connector-curvature="0"
         sodipodi:nodetypes="scssscssssssscsssssssssssssssssscssssscsssscssss" />
      <path
         sodipodi:nodetypes="scssscssssssscsssssssssssssssssscssssscsssscssss"
         inkscape:connector-curvature="0"
         id="path3862"
         style="opacity:0.2;fill:#000000;fill-opacity:1;display:inline;enable-background:new"
         d="m 423.69478,79.938774 c 0,-0.12482 4.17612,-5.14242 4.26416,-5.12338 0.0503,0.0109 1.91551,0.80315 4.14492,1.76061 3.80757,1.63522 4.06013,1.73192 4.16308,1.59399 0.15571,-0.20861 0.69199,-1.33018 0.97566,-2.04046 l 0.24067,-0.6026 -0.40545,-0.22167 c -0.57458,-0.31416 -1.4173,-1.01378 -1.94501,-1.61474 -0.48156,-0.548395 -1.35013,-1.871591 -1.35013,-2.056803 0,-0.0613 0.276,0.217426 0.61332,0.619404 0.94751,1.129096 3.13093,2.895869 3.26805,2.644429 0.16272,-0.29837 0.2679,-1.179195 0.26269,-2.199832 -0.006,-1.246004 -0.16973,-2.216006 -0.5987,-3.554917 l -0.24037,-0.750253 -1.18845,-0.373514 c -0.65365,-0.205432 -1.30891,-0.411373 -1.45614,-0.457651 -0.51346,-0.16138 -0.19223,-0.152692 0.55948,0.01513 0.89879,0.200666 1.81176,0.370151 2.37708,0.441291 0.49775,0.06264 0.60728,-0.035 0.66051,-0.588854 0.0679,-0.706158 -0.38792,-2.656365 -0.84774,-3.627354 -0.18353,-0.387534 -0.26637,-0.471098 -0.6338,-0.63928 -1.2231,-0.559853 -5.05151,-1.084202 -6.67724,-0.91454 -0.70277,0.07334 -1.42468,0.244081 -1.64967,0.390167 -0.0634,0.04118 0.38986,0.157924 1.1702,0.301398 0.70054,0.128802 1.21104,0.246427 1.13445,0.261387 -0.0766,0.01496 -1.1774,-0.105986 -2.44623,-0.268766 -2.22754,-0.285777 -2.3125,-0.290963 -2.46765,-0.150579 -0.32349,0.292692 -0.78891,1.092743 -0.88472,1.52083 -0.0928,0.414456 -0.0862,0.462484 0.12015,0.884262 0.35179,0.718912 1.00596,1.242015 2.49452,1.994768 0.7039,0.355947 1.26274,0.664246 1.24188,0.685106 -0.0209,0.02086 -0.62156,-0.203382 -1.33488,-0.498311 l -1.29695,-0.53623 -1.90314,0.532481 c -1.04673,0.292862 -1.93828,0.532481 -1.98123,0.532481 -0.0491,4e-6 -0.0781,-1.264291 -0.0781,-3.403772 0,-3.277732 0.006,-3.416553 0.16713,-3.748957 0.0981,-0.202626 0.28976,-0.421418 0.46405,-0.529775 l 0.29691,-0.184592 8.71595,-0.02426 c 4.79377,-0.01333 8.90984,-0.0013 9.14682,0.02686 0.53405,0.06337 1.016,0.454325 1.14345,0.927573 0.055,0.204009 0.0756,3.306717 0.0613,9.20993 l -0.0216,8.902286 -0.18463,0.29685 c -0.10837,0.17426 -0.3272,0.36587 -0.52987,0.46396 -0.34258,0.16581 -0.41187,0.1671 -8.95501,0.1671 -4.73537,0 -8.60977,-0.0276 -8.60977,-0.0612 z" />
      <path
         d="m 422.1864,119.95713 c 0,-0.0874 2.92328,-3.5997 2.98491,-3.58637 0.0352,0.008 1.34085,0.56221 2.90144,1.23243 2.6653,1.14465 2.84209,1.21234 2.91415,1.11579 0.109,-0.14603 0.4844,-0.93112 0.68297,-1.42832 l 0.16846,-0.42182 -0.28381,-0.15517 c -0.40221,-0.21991 -0.99211,-0.70964 -1.36151,-1.13032 -0.33709,-0.38387 -0.94509,-1.31011 -0.94509,-1.43976 0,-0.0429 0.1932,0.1522 0.42933,0.43358 0.66325,0.79037 2.19165,2.02711 2.28763,1.8511 0.1139,-0.20885 0.18753,-0.82543 0.18388,-1.53988 -0.004,-0.8722 -0.11881,-1.5512 -0.41909,-2.48844 l -0.16826,-0.52518 -0.83191,-0.26146 c -0.45756,-0.1438 -0.91624,-0.28796 -1.0193,-0.32035 -0.35942,-0.11297 -0.13456,-0.10689 0.39164,0.0106 0.62915,0.14047 1.26823,0.2591 1.66395,0.3089 0.34843,0.0438 0.4251,-0.0245 0.46236,-0.41219 0.0475,-0.49432 -0.27154,-1.85946 -0.59342,-2.53915 -0.12847,-0.27128 -0.18646,-0.32977 -0.44366,-0.4475 -0.85617,-0.39189 -3.53605,-0.75894 -4.67406,-0.64017 -0.49194,0.0513 -0.99728,0.17085 -1.15477,0.27311 -0.0444,0.0288 0.2729,0.11055 0.81914,0.21098 0.49038,0.0902 0.84773,0.1725 0.79411,0.18297 -0.0536,0.0105 -0.82418,-0.0742 -1.71236,-0.18813 -1.55928,-0.20005 -1.61875,-0.20368 -1.72735,-0.10541 -0.22645,0.20488 -0.55224,0.76492 -0.61931,1.06458 -0.065,0.29012 -0.0603,0.32374 0.0841,0.61898 0.24625,0.50324 0.70417,0.86941 1.74616,1.39634 0.49273,0.24916 0.88392,0.46497 0.86932,0.47957 -0.0146,0.0146 -0.43509,-0.14236 -0.93442,-0.34881 l -0.90786,-0.37536 -1.3322,0.37273 c -0.73271,0.20501 -1.3568,0.37274 -1.38686,0.37274 -0.0344,0 -0.0547,-0.885 -0.0547,-2.38264 0,-2.29441 0.004,-2.39159 0.11699,-2.62427 0.0687,-0.14184 0.20283,-0.29499 0.32484,-0.37084 l 0.20783,-0.12922 6.10117,-0.017 c 3.35563,-0.009 6.23688,-9.1e-4 6.40277,0.0188 0.37383,0.0444 0.7112,0.31803 0.80041,0.64931 0.0385,0.1428 0.0529,2.3147 0.0429,6.44694 l -0.0151,6.2316 -0.12924,0.2078 c -0.0759,0.12198 -0.22904,0.2561 -0.37091,0.32477 -0.2398,0.11606 -0.28831,0.11697 -6.2685,0.11697 -3.31476,0 -6.02684,-0.0193 -6.02684,-0.0428 z"
         style="opacity:0.2;fill:#000000;fill-opacity:1;display:inline;enable-background:new"
         id="path3864"
         inkscape:connector-curvature="0"
         sodipodi:nodetypes="scssscssssssscsssssssssssssssssscssssscsssscssss" />
      <path
         sodipodi:nodetypes="scssscssssssscsssssssssssssssssscssssscsssscssss"
         inkscape:connector-curvature="0"
         id="path3866"
         style="opacity:0.2;fill:#000000;fill-opacity:1;display:inline;enable-background:new"
         d="m 419.01691,154.96345 c 0,-0.0749 2.50567,-3.08546 2.55849,-3.07404 0.0302,0.007 1.1493,0.4819 2.48695,1.05637 2.28455,0.98113 2.43608,1.03915 2.49785,0.9564 0.0934,-0.12517 0.4152,-0.79811 0.5854,-1.22428 l 0.1444,-0.36156 -0.24327,-0.133 c -0.34475,-0.1885 -0.85038,-0.60827 -1.16701,-0.96885 -0.28893,-0.32903 -0.81008,-1.12295 -0.81008,-1.23408 0,-0.0368 0.1656,0.13046 0.368,0.37164 0.5685,0.67746 1.87856,1.73752 1.96083,1.58666 0.0976,-0.17902 0.16074,-0.70751 0.15761,-1.3199 -0.003,-0.7476 -0.10184,-1.3296 -0.35922,-2.13295 l -0.14422,-0.45016 -0.71307,-0.2241 c -0.39219,-0.12326 -0.78535,-0.24683 -0.87369,-0.27459 -0.30807,-0.0968 -0.11533,-0.0916 0.3357,0.009 0.53927,0.1204 1.08705,0.22208 1.42624,0.26477 0.29865,0.0375 0.36437,-0.021 0.39631,-0.35331 0.0407,-0.4237 -0.23275,-1.59382 -0.50865,-2.17642 -0.11011,-0.23252 -0.15982,-0.28266 -0.38028,-0.38357 -0.73386,-0.3359 -3.0309,-0.65052 -4.00634,-0.54871 -0.42166,0.044 -0.85481,0.14644 -0.9898,0.23409 -0.0381,0.0247 0.23391,0.0948 0.70212,0.18084 0.42032,0.0773 0.72663,0.14786 0.68066,0.15683 -0.0459,0.009 -0.70644,-0.0636 -1.46773,-0.16125 -1.33653,-0.17147 -1.3875,-0.17459 -1.48059,-0.0904 -0.1941,0.17561 -0.47335,0.65564 -0.53084,0.91249 -0.0557,0.24868 -0.0517,0.2775 0.0721,0.53056 0.21107,0.43135 0.60357,0.74521 1.49671,1.19686 0.42234,0.21357 0.75764,0.39855 0.74513,0.41106 -0.0125,0.0125 -0.37294,-0.12202 -0.80093,-0.29898 l -0.77817,-0.32173 -1.14189,0.31948 c -0.62803,0.17572 -1.16297,0.31949 -1.18873,0.31949 -0.0295,0 -0.0469,-0.75857 -0.0469,-2.04226 0,-1.96664 0.003,-2.04994 0.10028,-2.24938 0.0589,-0.12158 0.17385,-0.25285 0.27843,-0.31786 l 0.17814,-0.11076 5.22958,-0.0146 c 2.87626,-0.008 5.3459,-7.8e-4 5.4881,0.0161 0.32042,0.0381 0.6096,0.2726 0.68606,0.55655 0.033,0.1224 0.0453,1.98403 0.0368,5.52595 l -0.0129,5.34138 -0.11078,0.17812 c -0.065,0.10455 -0.19632,0.21951 -0.31792,0.27837 -0.20554,0.0995 -0.24712,0.10026 -5.37301,0.10026 -2.84122,0 -5.16586,-0.0165 -5.16586,-0.0367 z" />
      <path
         d="m 81.710758,230.54082 c 0,-0.9362 31.320882,-38.5682 31.981212,-38.42539 0.37722,0.0816 14.36634,6.02364 31.08693,13.20458 28.55672,12.26415 30.45093,12.98943 31.22311,11.95489 1.16777,-1.56456 5.18992,-9.97631 7.31744,-15.3034 l 1.80497,-4.51948 -3.04083,-1.66257 c -4.30933,-2.35615 -10.62977,-7.60332 -14.58762,-12.11051 -3.61165,-4.11297 -10.12594,-14.03694 -10.12594,-15.42602 0,-0.45979 2.06997,1.63069 4.59992,4.64551 7.10632,8.46823 23.48193,21.71902 24.51035,19.83324 1.22038,-2.23777 2.00924,-8.84397 1.97015,-16.49876 -0.0477,-9.34502 -1.27295,-16.62003 -4.49023,-26.66186 l -1.8028,-5.62692 -8.91337,-2.80135 c -4.90236,-1.54074 -9.81683,-3.0853 -10.92106,-3.43238 -3.85094,-1.21035 -1.44169,-1.14519 4.19614,0.11351 6.74095,1.50498 13.58819,2.77612 17.82809,3.30968 3.73316,0.46979 4.5546,-0.26254 4.95381,-4.41639 0.50898,-5.29619 -2.90935,-19.92274 -6.35806,-27.20517 -1.37642,-2.9065 -1.99778,-3.53323 -4.7535,-4.7946 -9.17325,-4.19888 -37.88627,-8.131513 -50.07928,-6.859051 -5.27079,0.550058 -10.68506,1.830619 -12.37249,2.926271 -0.47561,0.30882 2.92393,1.18441 8.77648,2.26047 5.25404,0.96602 9.08279,1.8482 8.50834,1.9604 -0.57444,0.11219 -8.83047,-0.79489 -18.34671,-2.01575 -16.706517,-2.14332 -17.343768,-2.18221 -18.507396,-1.12933 -2.42612,2.19519 -5.916759,8.19558 -6.635402,11.40621 -0.695763,3.10843 -0.64682,3.46865 0.901138,6.63198 2.638475,5.39183 7.544688,9.31512 18.70894,14.96074 5.2792,2.66963 9.47054,4.98186 9.31407,5.1383 -0.15646,0.15643 -4.66168,-1.52536 -10.0116,-3.73732 l -9.727137,-4.02172 -14.273527,3.99359 c -7.850443,2.19648 -14.537094,3.9936 -14.859214,3.9936 -0.368141,0 -0.585682,-9.4822 -0.585682,-25.52829 0,-24.58299 0.04642,-25.624157 1.253493,-28.11718 0.735819,-1.519712 2.173146,-3.160641 3.480326,-3.973321 l 2.226834,-1.384433 65.369607,-0.181879 c 35.95329,-0.100034 66.82383,-0.0093 68.60122,0.201571 4.00534,0.475258 7.61994,3.407449 8.57586,6.956808 0.41208,1.53005 0.56694,24.800354 0.45972,69.074454 l -0.1617,66.76709 -1.3847,2.22642 c -0.81283,1.30694 -2.45406,2.744 -3.97406,3.47968 C 210.87726,230.99031 210.35759,231 146.284,231 c -35.51529,0 -64.573242,-0.20663 -64.573242,-0.45918 z"
         style="fill:#ffffff;fill-opacity:1;display:inline;enable-background:new"
         id="path2228"
         inkscape:connector-curvature="0"
         sodipodi:nodetypes="scssscssssssscsssssssssssssssssscssssscsssscssss" />
      <path
         sodipodi:nodetypes="scssscssssssscsssssssssssssssssscssssscsssscssss"
         inkscape:connector-curvature="0"
         id="path3840"
         style="fill:#ffffff;fill-opacity:1;display:inline;enable-background:new"
         d="m 311.08431,105.81641 c 0,-0.37448 12.52835,-15.427279 12.79248,-15.370159 0.15089,0.03259 5.74654,2.40946 12.43477,5.281835 11.42269,4.905654 12.18037,5.195774 12.48924,4.781964 0.46711,-0.62583 2.07597,-3.990532 2.92698,-6.121374 l 0.72199,-1.807793 -1.21633,-0.665026 c -1.72374,-0.942455 -4.25191,-3.041323 -5.83505,-4.844207 -1.44466,-1.645183 -4.05038,-5.614773 -4.05038,-6.170409 0,-0.183906 0.82799,0.652278 1.83997,1.858213 2.84253,3.387289 9.39277,8.6876 9.80414,7.933291 0.48815,-0.895103 0.8037,-3.53759 0.78806,-6.599499 -0.0191,-3.738013 -0.50918,-6.64802 -1.79609,-10.664751 l -0.72112,-2.250761 -3.56535,-1.120541 c -1.96094,-0.616295 -3.92673,-1.234119 -4.36842,-1.372954 -1.54038,-0.484139 -0.57668,-0.458074 1.67845,0.04539 2.69638,0.601998 5.43528,1.110453 7.13124,1.323873 1.49326,0.187915 1.82184,-0.10501 1.98152,-1.76656 0.20359,-2.118475 -1.16374,-7.969094 -2.54322,-10.882061 -0.55057,-1.162603 -0.79911,-1.413296 -1.9014,-1.917842 -3.6693,-1.679557 -15.15451,-3.252604 -20.03171,-2.743619 -2.10832,0.220019 -4.27403,0.732244 -4.949,1.170502 -0.19024,0.123537 1.16957,0.473772 3.51059,0.904192 2.10162,0.386407 3.63312,0.739282 3.40334,0.784163 -0.22978,0.04489 -3.53219,-0.31796 -7.33868,-0.806299 -6.68261,-0.85733 -6.93751,-0.872888 -7.40296,-0.451736 -0.97045,0.878076 -2.36671,3.278229 -2.65416,4.562489 -0.27831,1.243368 -0.25873,1.387451 0.36045,2.652785 1.05539,2.156738 3.01788,3.726045 7.48358,5.984304 2.11168,1.067841 3.78821,1.992739 3.72563,2.055317 -0.0626,0.06259 -1.86468,-0.610146 -4.00464,-1.494931 l -3.89086,-1.60869 -5.70941,1.597442 C 309.03778,68.971544 306.36312,69.6904 306.23428,69.6904 306.08702,69.690412 306,65.897529 306,59.479086 c 0,-9.833196 0.0186,-10.249658 0.5014,-11.246872 0.29433,-0.607877 0.86926,-1.264254 1.39213,-1.589324 l 0.89073,-0.553776 26.14785,-0.07279 c 14.38131,-0.03999 26.72953,-0.004 27.44048,0.08058 1.60214,0.190105 3.04798,1.362976 3.43035,2.782721 0.16483,0.612026 0.22677,9.92015 0.18388,27.629787 l -0.0647,26.706848 -0.55388,0.89056 c -0.32513,0.52278 -0.98162,1.09761 -1.58962,1.39187 -1.02774,0.49743 -1.2356,0.50131 -26.86504,0.50131 -14.20611,0 -25.82929,-0.0827 -25.82929,-0.18368 z" />
      <path
         d="m 303.38954,191.87762 c 0,-0.24966 8.35223,-10.28486 8.52832,-10.24678 0.10059,0.0217 3.83103,1.60631 8.28985,3.52122 7.61512,3.27044 8.12024,3.46386 8.32616,3.18798 0.3114,-0.41722 1.38398,-2.66036 1.95132,-4.08092 l 0.48132,-1.20519 -0.81088,-0.44335 c -1.14916,-0.62831 -2.83461,-2.02755 -3.89004,-3.22947 -0.9631,-1.09679 -2.70025,-3.74319 -2.70025,-4.11361 0,-0.1226 0.55199,0.43485 1.22665,1.23881 1.89502,2.25819 6.26184,5.79173 6.53609,5.28886 0.32543,-0.59674 0.5358,-2.35839 0.52537,-4.39967 -0.0127,-2.49201 -0.33945,-4.43201 -1.19739,-7.10983 l -0.48075,-1.50051 -2.3769,-0.74703 c -1.30729,-0.41086 -2.61782,-0.82274 -2.91228,-0.9153 -1.02692,-0.32276 -0.38445,-0.30538 1.11897,0.0303 1.79759,0.40133 3.62352,0.7403 4.75416,0.88258 0.99551,0.12528 1.21456,-0.07 1.32101,-1.1777 0.13573,-1.41232 -0.77582,-5.31273 -1.69548,-7.25471 -0.36704,-0.77507 -0.53274,-0.9422 -1.2676,-1.27856 -2.4462,-1.11971 -10.103,-2.1684 -13.35447,-1.82908 -1.40555,0.14668 -2.84935,0.48816 -3.29933,0.78033 -0.12683,0.0824 0.77971,0.31585 2.34039,0.6028 1.40108,0.2576 2.42208,0.49285 2.26889,0.52277 -0.15318,0.0299 -2.35479,-0.21197 -4.89245,-0.53753 -4.45507,-0.57155 -4.62501,-0.58192 -4.93531,-0.30116 -0.64696,0.58539 -1.5778,2.18549 -1.76944,3.04166 -0.18554,0.82891 -0.17248,0.92497 0.2403,1.76853 0.7036,1.43782 2.01192,2.48403 4.98906,3.98953 1.40778,0.7119 2.52547,1.32849 2.48375,1.37021 -0.0417,0.0417 -1.24312,-0.40676 -2.66976,-0.99662 l -2.59391,-1.07246 -3.80627,1.06496 c -2.09345,0.58573 -3.87656,1.06497 -3.96245,1.06497 -0.0982,0 -0.15619,-2.52859 -0.15619,-6.80755 0,-6.55546 0.0124,-6.8331 0.33427,-7.49791 0.19622,-0.40525 0.5795,-0.84284 0.92808,-1.05955 l 0.59382,-0.36919 17.4319,-0.0485 c 9.58754,-0.0267 17.81969,-0.003 18.29366,0.0537 1.06809,0.12674 2.03198,0.90866 2.2869,1.85515 0.10988,0.40802 0.15118,6.61344 0.12258,18.41986 l -0.0431,17.80456 -0.36925,0.59371 c -0.21676,0.34852 -0.65442,0.73174 -1.05975,0.92791 -0.68516,0.33162 -0.82373,0.33421 -17.91003,0.33421 -9.47074,0 -17.21952,-0.0551 -17.21952,-0.12245 z"
         style="fill:#ffffff;fill-opacity:1;display:inline;enable-background:new"
         id="path3844"
         inkscape:connector-curvature="0"
         sodipodi:nodetypes="scssscssssssscsssssssssssssssssscssssscsssscssss" />
      <path
         sodipodi:nodetypes="scssscssssssscsssssssssssssssssscssssscsssscssss"
         inkscape:connector-curvature="0"
         id="path3846"
         style="fill:#ffffff;fill-opacity:1;display:inline;enable-background:new"
         d="m 300.37268,257.91437 c 0,-0.17476 5.84656,-7.1994 5.96982,-7.17275 0.0704,0.0152 2.68172,1.12442 5.8029,2.46486 5.33058,2.2893 5.68417,2.4247 5.82831,2.23158 0.21798,-0.29205 0.96879,-1.86225 1.36592,-2.85664 l 0.33693,-0.84363 -0.56762,-0.31035 c -0.80441,-0.43982 -1.98422,-1.41928 -2.72303,-2.26063 -0.67417,-0.76775 -1.89017,-2.62023 -1.89017,-2.87953 0,-0.0858 0.38639,0.3044 0.85865,0.86717 1.32652,1.58073 4.38329,4.05421 4.57527,3.7022 0.2278,-0.41771 0.37506,-1.65087 0.36776,-3.07977 -0.009,-1.7444 -0.23762,-3.1024 -0.83818,-4.97688 l -0.33652,-1.05035 -1.66383,-0.52292 c -0.9151,-0.28761 -1.83248,-0.57592 -2.0386,-0.64071 -0.71884,-0.22594 -0.26911,-0.21377 0.78328,0.0212 1.25831,0.28093 2.53647,0.51821 3.32791,0.6178 0.69686,0.0877 0.8502,-0.049 0.92471,-0.82439 0.095,-0.98862 -0.54307,-3.71891 -1.18684,-5.0783 -0.25692,-0.54255 -0.37291,-0.65954 -0.88732,-0.89499 -1.71234,-0.7838 -7.0721,-1.51788 -9.34813,-1.28035 -0.98388,0.10267 -1.99454,0.34171 -2.30953,0.54623 -0.0888,0.0577 0.5458,0.22109 1.63828,0.42196 0.98075,0.18032 1.69545,0.34499 1.58822,0.36594 -0.10723,0.0209 -1.64835,-0.14838 -3.42472,-0.37628 -3.11854,-0.40008 -3.2375,-0.40734 -3.45471,-0.21081 -0.45287,0.40978 -1.10446,1.52985 -1.23861,2.12916 -0.12988,0.58024 -0.12074,0.64748 0.16821,1.23798 0.49252,1.00647 1.40834,1.73882 3.49234,2.79267 0.98545,0.49833 1.76783,0.92994 1.73863,0.95914 -0.0292,0.0292 -0.87019,-0.28473 -1.86884,-0.69763 l -1.81573,-0.75072 -2.66439,0.74547 c -1.46542,0.41001 -2.71359,0.74548 -2.77372,0.74548 -0.0687,0 -0.10933,-1.77001 -0.10933,-4.76529 0,-4.58882 0.009,-4.78317 0.23399,-5.24853 0.13735,-0.28368 0.40565,-0.58999 0.64966,-0.74169 l 0.41567,-0.25843 12.20233,-0.034 c 6.71128,-0.0187 12.47378,-0.002 12.80556,0.0376 0.74767,0.0887 1.42239,0.63606 1.60083,1.2986 0.0769,0.28562 0.10583,4.62941 0.0858,12.89391 l -0.0302,12.46319 -0.25848,0.4156 c -0.15173,0.24396 -0.45809,0.51221 -0.74182,0.64953 -0.47961,0.23214 -0.57661,0.23395 -12.53702,0.23395 -6.62952,0 -12.05367,-0.0386 -12.05367,-0.0857 z" />
      <path
         d="m 423.69478,78.938794 c 0,-0.12482 4.17612,-5.14242 4.26416,-5.12338 0.0503,0.0109 1.91551,0.80315 4.14492,1.76061 3.80757,1.63522 4.06013,1.73192 4.16308,1.59399 0.15571,-0.20861 0.69199,-1.33018 0.97566,-2.04046 l 0.24067,-0.6026 -0.40545,-0.22167 c -0.57458,-0.31416 -1.4173,-1.01378 -1.94501,-1.61474 -0.48156,-0.548395 -1.35013,-1.871591 -1.35013,-2.056803 0,-0.0613 0.276,0.217426 0.61332,0.619404 0.94751,1.129096 3.13093,2.895869 3.26805,2.644429 0.16272,-0.29837 0.2679,-1.179195 0.26269,-2.199832 -0.006,-1.246004 -0.16973,-2.216006 -0.5987,-3.554917 l -0.24037,-0.750253 -1.18845,-0.373514 c -0.65365,-0.205432 -1.30891,-0.411373 -1.45614,-0.457651 -0.51346,-0.16138 -0.19223,-0.152692 0.55948,0.01513 0.89879,0.200666 1.81176,0.370151 2.37708,0.441291 0.49775,0.06264 0.60728,-0.035 0.66051,-0.588854 0.0679,-0.706158 -0.38792,-2.656365 -0.84774,-3.627354 -0.18353,-0.387534 -0.26637,-0.471098 -0.6338,-0.63928 -1.2231,-0.559853 -5.05151,-1.084202 -6.67724,-0.91454 -0.70277,0.07334 -1.42468,0.244081 -1.64967,0.390167 -0.0634,0.04118 0.38986,0.157924 1.1702,0.301398 0.70054,0.128802 1.21104,0.246427 1.13445,0.261387 -0.0766,0.01496 -1.1774,-0.105986 -2.44623,-0.268766 -2.22754,-0.285777 -2.3125,-0.290963 -2.46765,-0.150579 -0.32349,0.292692 -0.78891,1.092743 -0.88472,1.52083 -0.0928,0.414456 -0.0862,0.462484 0.12015,0.884262 0.35179,0.718912 1.00596,1.242015 2.49452,1.994768 0.7039,0.355947 1.26274,0.664246 1.24188,0.685106 -0.0209,0.02086 -0.62156,-0.203382 -1.33488,-0.498311 l -1.29695,-0.53623 -1.90314,0.532481 c -1.04673,0.292862 -1.93828,0.532481 -1.98123,0.532481 -0.0491,4e-6 -0.0781,-1.264291 -0.0781,-3.403772 0,-3.277732 0.006,-3.416553 0.16713,-3.748957 0.0981,-0.202626 0.28976,-0.421418 0.46405,-0.529775 l 0.29691,-0.184592 8.71595,-0.02426 c 4.79377,-0.01333 8.90984,-0.0013 9.14682,0.02686 0.53405,0.06337 1.016,0.454325 1.14345,0.927573 0.055,0.204009 0.0756,3.306717 0.0613,9.20993 l -0.0216,8.902286 -0.18463,0.29685 c -0.10837,0.17426 -0.3272,0.36587 -0.52987,0.46396 -0.34258,0.16581 -0.41187,0.1671 -8.95501,0.1671 -4.73537,0 -8.60977,-0.0276 -8.60977,-0.0612 z"
         style="fill:#ffffff;fill-opacity:1;display:inline;enable-background:new"
         id="path3848"
         inkscape:connector-curvature="0"
         sodipodi:nodetypes="scssscssssssscsssssssssssssssssscssssscsssscssss" />
      <path
         sodipodi:nodetypes="scssscssssssscsssssssssssssssssscssssscsssscssss"
         inkscape:connector-curvature="0"
         id="path3850"
         style="fill:#ffffff;fill-opacity:1;display:inline;enable-background:new"
         d="m 422.1864,118.95715 c 0,-0.0874 2.92328,-3.5997 2.98491,-3.58637 0.0352,0.008 1.34085,0.56221 2.90144,1.23243 2.6653,1.14465 2.84209,1.21234 2.91415,1.11579 0.109,-0.14603 0.4844,-0.93112 0.68297,-1.42832 l 0.16846,-0.42182 -0.28381,-0.15517 c -0.40221,-0.21991 -0.99211,-0.70964 -1.36151,-1.13032 -0.33709,-0.38387 -0.94509,-1.31011 -0.94509,-1.43976 0,-0.0429 0.1932,0.1522 0.42933,0.43358 0.66325,0.79037 2.19165,2.02711 2.28763,1.8511 0.1139,-0.20885 0.18753,-0.82543 0.18388,-1.53988 -0.004,-0.8722 -0.11881,-1.5512 -0.41909,-2.48844 l -0.16826,-0.52518 -0.83191,-0.26146 c -0.45756,-0.1438 -0.91624,-0.28796 -1.0193,-0.32035 -0.35942,-0.11297 -0.13456,-0.10689 0.39164,0.0106 0.62915,0.14047 1.26823,0.2591 1.66395,0.3089 0.34843,0.0438 0.4251,-0.0245 0.46236,-0.41219 0.0475,-0.49432 -0.27154,-1.85946 -0.59342,-2.53915 -0.12847,-0.27128 -0.18646,-0.32977 -0.44366,-0.4475 -0.85617,-0.39189 -3.53605,-0.75894 -4.67406,-0.64017 -0.49194,0.0513 -0.99728,0.17085 -1.15477,0.27311 -0.0444,0.0288 0.2729,0.11055 0.81914,0.21098 0.49038,0.0902 0.84773,0.1725 0.79411,0.18297 -0.0536,0.0105 -0.82418,-0.0742 -1.71236,-0.18813 -1.55928,-0.20005 -1.61875,-0.20368 -1.72735,-0.10541 -0.22645,0.20488 -0.55224,0.76492 -0.61931,1.06458 -0.065,0.29012 -0.0603,0.32374 0.0841,0.61898 0.24625,0.50324 0.70417,0.86941 1.74616,1.39634 0.49273,0.24916 0.88392,0.46497 0.86932,0.47957 -0.0146,0.0146 -0.43509,-0.14236 -0.93442,-0.34881 l -0.90786,-0.37536 -1.3322,0.37273 c -0.73271,0.20501 -1.3568,0.37274 -1.38686,0.37274 -0.0344,0 -0.0547,-0.885 -0.0547,-2.38264 0,-2.29441 0.004,-2.39159 0.11699,-2.62427 0.0687,-0.14184 0.20283,-0.29499 0.32484,-0.37084 l 0.20783,-0.12922 6.10117,-0.017 c 3.35563,-0.009 6.23688,-9.1e-4 6.40277,0.0188 0.37383,0.0444 0.7112,0.31803 0.80041,0.64931 0.0385,0.1428 0.0529,2.3147 0.0429,6.44694 l -0.0151,6.2316 -0.12924,0.2078 c -0.0759,0.12198 -0.22904,0.2561 -0.37091,0.32477 -0.2398,0.11606 -0.28831,0.11697 -6.2685,0.11697 -3.31476,0 -6.02684,-0.0193 -6.02684,-0.0428 z" />
      <path
         d="m 419.01691,153.96347 c 0,-0.0749 2.50567,-3.08546 2.55849,-3.07404 0.0302,0.007 1.1493,0.4819 2.48695,1.05637 2.28455,0.98113 2.43608,1.03915 2.49785,0.9564 0.0934,-0.12517 0.4152,-0.79811 0.5854,-1.22428 l 0.1444,-0.36156 -0.24327,-0.133 c -0.34475,-0.1885 -0.85038,-0.60827 -1.16701,-0.96885 -0.28893,-0.32903 -0.81008,-1.12295 -0.81008,-1.23408 0,-0.0368 0.1656,0.13046 0.368,0.37164 0.5685,0.67746 1.87856,1.73752 1.96083,1.58666 0.0976,-0.17902 0.16074,-0.70751 0.15761,-1.3199 -0.003,-0.7476 -0.10184,-1.3296 -0.35922,-2.13295 l -0.14422,-0.45016 -0.71307,-0.2241 c -0.39219,-0.12326 -0.78535,-0.24683 -0.87369,-0.27459 -0.30807,-0.0968 -0.11533,-0.0916 0.3357,0.009 0.53927,0.1204 1.08705,0.22208 1.42624,0.26477 0.29865,0.0375 0.36437,-0.021 0.39631,-0.35331 0.0407,-0.4237 -0.23275,-1.59382 -0.50865,-2.17642 -0.11011,-0.23252 -0.15982,-0.28266 -0.38028,-0.38357 -0.73386,-0.3359 -3.0309,-0.65052 -4.00634,-0.54871 -0.42166,0.044 -0.85481,0.14644 -0.9898,0.23409 -0.0381,0.0247 0.23391,0.0948 0.70212,0.18084 0.42032,0.0773 0.72663,0.14786 0.68066,0.15683 -0.0459,0.009 -0.70644,-0.0636 -1.46773,-0.16125 -1.33653,-0.17147 -1.3875,-0.17459 -1.48059,-0.0904 -0.1941,0.17561 -0.47335,0.65564 -0.53084,0.91249 -0.0557,0.24868 -0.0517,0.2775 0.0721,0.53056 0.21107,0.43135 0.60357,0.74521 1.49671,1.19686 0.42234,0.21357 0.75764,0.39855 0.74513,0.41106 -0.0125,0.0125 -0.37294,-0.12202 -0.80093,-0.29898 l -0.77817,-0.32173 -1.14189,0.31948 c -0.62803,0.17572 -1.16297,0.31949 -1.18873,0.31949 -0.0295,0 -0.0469,-0.75857 -0.0469,-2.04226 0,-1.96664 0.003,-2.04994 0.10028,-2.24938 0.0589,-0.12158 0.17385,-0.25285 0.27843,-0.31786 l 0.17814,-0.11076 5.22958,-0.0146 c 2.87626,-0.008 5.3459,-7.8e-4 5.4881,0.0161 0.32042,0.0381 0.6096,0.2726 0.68606,0.55655 0.033,0.1224 0.0453,1.98403 0.0368,5.52595 l -0.0129,5.34138 -0.11078,0.17812 c -0.065,0.10455 -0.19632,0.21951 -0.31792,0.27837 -0.20554,0.0995 -0.24712,0.10026 -5.37301,0.10026 -2.84122,0 -5.16586,-0.0165 -5.16586,-0.0367 z"
         style="fill:#ffffff;fill-opacity:1;display:inline;enable-background:new"
         id="path3852"
         inkscape:connector-curvature="0"
         sodipodi:nodetypes="scssscssssssscsssssssssssssssssscssssscsssscssss" />
    </g>
    <g
       inkscape:groupmode="layer"
       id="layer5"
       inkscape:label="Highlights"
       style="display:inline"
       sodipodi:insensitive="true">
      <rect
         ry="9"
         y="307"
         x="-265"
         height="42"
         width="42"
         id="rect4884"
         style="opacity:0.20;color:#bebebe;fill:none;stroke:#000000;stroke-width:2;stroke-miterlimit:4;stroke-opacity:1;stroke-dasharray:none;marker:none;visibility:visible;display:inline;overflow:visible;enable-background:accumulate"
         transform="matrix(0,1,1,0,-16,488)"
         clip-path="url(#clipPath4891)" />
      <rect
         style="opacity:0.20;color:#bebebe;fill:none;stroke:#000000;stroke-width:2;stroke-miterlimit:4;stroke-opacity:1;stroke-dasharray:none;marker:none;visibility:visible;display:inline;overflow:visible;enable-background:accumulate"
         id="rect5311"
         width="16"
         height="16"
         x="-228"
         y="304"
         ry="3"
         clip-path="url(#clipPath3855)"
         transform="matrix(0,-1,1,0,112,-72)" />
      <rect
         ry="50"
         y="46"
         x="34"
         height="220"
         width="220"
         id="rect3858"
         style="opacity:0.20;color:#bebebe;fill:none;stroke:#000000;stroke-width:2;stroke-miterlimit:4;stroke-opacity:1;stroke-dasharray:none;marker:none;visibility:visible;display:inline;overflow:visible;enable-background:accumulate"
         clip-path="url(#clipPath3862)" />
      <rect
         ry="12.5"
         y="142"
         x="290"
         height="60"
         width="60"
         id="rect4175"
         style="opacity:0.20;color:#bebebe;fill:none;stroke:#000000;stroke-width:2;stroke-miterlimit:4;stroke-opacity:1;stroke-dasharray:none;marker:none;visibility:visible;display:inline;overflow:visible;enable-background:accumulate"
         clip-path="url(#clipPath4187)" />
      <rect
         style="opacity:0.20;color:#bebebe;fill:none;stroke:#000000;stroke-width:2;stroke-miterlimit:4;stroke-opacity:1;stroke-dasharray:none;marker:none;visibility:visible;display:inline;overflow:visible;enable-background:accumulate"
         id="rect4342"
         width="88"
         height="88"
         x="292"
         y="32"
         ry="18"
         clip-path="url(#clipPath4346)" />
      <rect
         ry="5"
         y="101"
         x="417"
         height="22"
         width="22"
         id="rect3866"
         style="opacity:0.20;color:#bebebe;fill:none;stroke:#000000;stroke-width:2;stroke-miterlimit:4;stroke-opacity:1;stroke-dasharray:none;marker:none;visibility:visible;display:inline;overflow:visible;enable-background:accumulate"
         clip-path="url(#clipPath3871)" />
      <rect
         style="opacity:0.20;color:#bebebe;fill:none;stroke:#000000;stroke-width:2;stroke-miterlimit:4;stroke-opacity:1;stroke-dasharray:none;marker:none;visibility:visible;display:inline;overflow:visible;enable-background:accumulate"
         id="rect3877"
         width="30"
         height="30"
         x="417"
         y="53"
         ry="7"
         clip-path="url(#clipPath3881)" />
    </g>
  </g>
</svg>
