<?xml version="1.0" encoding="UTF-8" standalone="no"?>
<!-- Created with Inkscape (http://www.inkscape.org/) -->

<svg
   xmlns:dc="http://purl.org/dc/elements/1.1/"
   xmlns:cc="http://creativecommons.org/ns#"
   xmlns:rdf="http://www.w3.org/1999/02/22-rdf-syntax-ns#"
   xmlns:svg="http://www.w3.org/2000/svg"
   xmlns="http://www.w3.org/2000/svg"
   xmlns:xlink="http://www.w3.org/1999/xlink"
   xmlns:sodipodi="http://sodipodi.sourceforge.net/DTD/sodipodi-0.dtd"
   xmlns:inkscape="http://www.inkscape.org/namespaces/inkscape"
   inkscape:export-ydpi="90.000000"
   inkscape:export-xdpi="90.000000"
   width="480"
   height="300"
   id="svg11300"
   sodipodi:version="0.32"
   inkscape:version="0.48.4 r9939"
   sodipodi:docname="patchage.svg"
   inkscape:output_extension="org.inkscape.output.svg.inkscape"
   version="1.0"
   style="display:inline;enable-background:new"
   inkscape:export-filename="/home/sam/moka2-template.png">
  <sodipodi:namedview
     stroke="#ef2929"
     fill="#f57900"
     id="base"
     pagecolor="#ffffff"
     bordercolor="#666666"
     borderopacity="0.25490196"
     inkscape:pageopacity="0"
     inkscape:pageshadow="2"
     inkscape:zoom="1"
     inkscape:cx="422.64322"
     inkscape:cy="154.78774"
     inkscape:current-layer="layer7"
     showgrid="false"
     inkscape:grid-bbox="true"
     inkscape:document-units="px"
     inkscape:showpageshadow="false"
     inkscape:window-width="1364"
     inkscape:window-height="701"
     inkscape:window-x="0"
     inkscape:window-y="27"
     width="400px"
     height="300px"
     inkscape:snap-nodes="true"
     inkscape:snap-bbox="true"
     gridtolerance="10000"
     inkscape:object-nodes="true"
     inkscape:snap-grids="true"
     showguides="true"
     inkscape:guide-bbox="true"
     inkscape:window-maximized="1"
     inkscape:bbox-nodes="true"
     inkscape:bbox-paths="true"
     inkscape:snap-bbox-edge-midpoints="true"
     inkscape:snap-bbox-midpoints="true">
    <inkscape:grid
       spacingy="1px"
       spacingx="1px"
       id="grid5883"
       type="xygrid"
       enabled="true"
       visible="true"
       empspacing="4"
       snapvisiblegridlinesonly="true"
       dotted="false"
       color="#000000"
       opacity="0.1254902"
       empcolor="#203ef3"
       empopacity="0.36470588" />
    <inkscape:grid
       type="xygrid"
       id="grid11592"
       empspacing="8"
       visible="true"
       enabled="false"
       spacingx="0.5px"
       spacingy="0.5px"
       color="#ff0000"
       opacity="0.1254902"
       empcolor="#ff0000"
       empopacity="0.25098039"
       snapvisiblegridlinesonly="true"
       dotted="true" />
  </sodipodi:namedview>
  <defs
     id="defs3">
    <linearGradient
       id="outerBackgroundGradient">
      <stop
         style="stop-color:#73d216;stop-opacity:1"
         offset="0"
         id="stop3864-8-6" />
      <stop
         style="stop-color:#97ea45;stop-opacity:1"
         offset="1"
         id="stop3866-9-1" />
    </linearGradient>
    <linearGradient
       inkscape:collect="always"
       xlink:href="#outerBackgroundGradient"
       id="linearGradient4097"
       gradientUnits="userSpaceOnUse"
       x1="264"
       y1="280.00003"
       x2="264"
       y2="40.00005"
       gradientTransform="matrix(0.06666667,0,0,0.06666667,414.4,137.33333)" />
    <linearGradient
       inkscape:collect="always"
       xlink:href="#outerBackgroundGradient"
       id="linearGradient4101"
       gradientUnits="userSpaceOnUse"
       gradientTransform="matrix(0.0875,0,0,0.0875,414.9,97.5)"
       x1="286.85715"
       y1="302.85715"
       x2="286.85715"
       y2="28.571428" />
    <linearGradient
       inkscape:collect="always"
       xlink:href="#outerBackgroundGradient"
       id="linearGradient4153"
       gradientUnits="userSpaceOnUse"
       gradientTransform="matrix(0.11931818,0,0,0.11931818,414.13636,48.22727)"
       x1="283.80957"
       y1="299.80954"
       x2="283.80957"
       y2="31.61907" />
    <linearGradient
       inkscape:collect="always"
       xlink:href="#outerBackgroundGradient"
       id="linearGradient4869"
       gradientUnits="userSpaceOnUse"
       gradientTransform="matrix(0.175,0,0,-0.175,286.79999,-215.99997)"
       x1="281.14291"
       y1="297.14304"
       x2="281.14291"
       y2="22.857315" />
    <clipPath
       clipPathUnits="userSpaceOnUse"
       id="clipPath4891">
      <rect
         ry="9"
         y="223"
         x="307"
         height="42"
         width="42"
         id="rect4893"
         style="color:#bebebe;fill:url(#linearGradient4895);fill-opacity:1;fill-rule:nonzero;stroke:none;stroke-width:0;marker:none;visibility:visible;display:inline;overflow:visible;enable-background:accumulate"
         transform="matrix(0,1,-1,0,0,0)" />
    </clipPath>
    <linearGradient
       inkscape:collect="always"
       xlink:href="#outerBackgroundGradient"
       id="linearGradient4895"
       gradientUnits="userSpaceOnUse"
       gradientTransform="matrix(0.175,0,0,0.175,302.79999,215.99997)"
       x1="144.00006"
       y1="280.00018"
       x2="144.00006"
       y2="40.000172" />
    <clipPath
       clipPathUnits="userSpaceOnUse"
       id="clipPath4044">
      <rect
         ry="4"
         y="85"
         x="433"
         height="22"
         width="22"
         id="rect4046"
         style="color:#bebebe;fill:url(#linearGradient4048);fill-opacity:1;fill-rule:nonzero;stroke:none;stroke-width:0;marker:none;visibility:visible;display:inline;overflow:visible;enable-background:accumulate" />
    </clipPath>
    <linearGradient
       inkscape:collect="always"
       xlink:href="#outerBackgroundGradient"
       id="linearGradient4048"
       gradientUnits="userSpaceOnUse"
       gradientTransform="matrix(0.0875,0,0,0.0875,430.9,81.499996)"
       x1="149.71428"
       y1="291.42862"
       x2="149.71428"
       y2="40.000046" />
    <clipPath
       clipPathUnits="userSpaceOnUse"
       id="clipPath4089">
      <rect
         style="color:#bebebe;fill:url(#linearGradient4093);fill-opacity:1;fill-rule:nonzero;stroke:none;stroke-width:0;marker:none;visibility:visible;display:inline;overflow:visible;enable-background:accumulate"
         id="rect4091"
         width="30"
         height="30"
         x="433"
         y="37"
         ry="6" />
    </clipPath>
    <linearGradient
       inkscape:collect="always"
       xlink:href="#outerBackgroundGradient"
       id="linearGradient4093"
       gradientUnits="userSpaceOnUse"
       gradientTransform="matrix(0.11931818,0,0,0.11931818,430.13636,32.227267)"
       x1="149.71432"
       y1="291.42862"
       x2="149.71432"
       y2="40.00005" />
    <clipPath
       clipPathUnits="userSpaceOnUse"
       id="clipPath3855">
      <rect
         style="color:#bebebe;fill:url(#linearGradient3859);fill-opacity:1;fill-rule:nonzero;stroke:none;stroke-width:0;marker:none;visibility:visible;display:inline;overflow:visible;enable-background:accumulate"
         id="rect3857"
         width="16"
         height="16"
         x="304"
         y="212"
         ry="3"
         transform="matrix(0,1,-1,0,0,0)" />
    </clipPath>
    <linearGradient
       inkscape:collect="always"
       xlink:href="#outerBackgroundGradient"
       id="linearGradient3859"
       gradientUnits="userSpaceOnUse"
       gradientTransform="matrix(0.06666667,0,0,0.06666667,302.4,209.33333)"
       x1="144"
       y1="280.00003"
       x2="144"
       y2="40.00005" />
    <clipPath
       clipPathUnits="userSpaceOnUse"
       id="clipPath3862">
      <rect
         ry="50"
         y="46"
         x="34"
         height="220"
         width="220"
         id="rect3864"
         style="color:#bebebe;fill:url(#linearGradient3866);fill-opacity:1;fill-rule:nonzero;stroke:none;stroke-width:0;marker:none;visibility:visible;display:inline;overflow:visible;enable-background:accumulate" />
    </clipPath>
    <linearGradient
       inkscape:collect="always"
       xlink:href="#outerBackgroundGradient"
       id="linearGradient3866"
       gradientUnits="userSpaceOnUse"
       gradientTransform="translate(0,-4)"
       x1="144"
       y1="280"
       x2="144"
       y2="40" />
    <linearGradient
       inkscape:collect="always"
       xlink:href="#outerBackgroundGradient"
       id="linearGradient3876"
       gradientUnits="userSpaceOnUse"
       gradientTransform="translate(0,-4)"
       x1="272"
       y1="288"
       x2="272"
       y2="32" />
    <clipPath
       clipPathUnits="userSpaceOnUse"
       id="clipPath4187">
      <rect
         ry="12.5"
         y="142"
         x="290"
         height="60"
         width="60"
         id="rect4189"
         style="color:#bebebe;fill:url(#linearGradient4191);fill-opacity:1;fill-rule:nonzero;stroke:none;stroke-width:0;marker:none;visibility:visible;display:inline;overflow:visible;enable-background:accumulate" />
    </clipPath>
    <linearGradient
       inkscape:collect="always"
       xlink:href="#outerBackgroundGradient"
       id="linearGradient4191"
       gradientUnits="userSpaceOnUse"
       x1="352"
       y1="204"
       x2="352"
       y2="140" />
    <linearGradient
       inkscape:collect="always"
       xlink:href="#outerBackgroundGradient"
       id="linearGradient4197"
       gradientUnits="userSpaceOnUse"
       x1="384"
       y1="124"
       x2="384"
       y2="28" />
    <linearGradient
       inkscape:collect="always"
       xlink:href="#outerBackgroundGradient"
       id="linearGradient4199"
       gradientUnits="userSpaceOnUse"
       x1="352"
       y1="204"
       x2="352"
       y2="140" />
    <clipPath
       clipPathUnits="userSpaceOnUse"
       id="clipPath4346">
      <rect
         style="color:#bebebe;fill:url(#linearGradient4350);fill-opacity:1;fill-rule:nonzero;stroke:none;stroke-width:0;marker:none;visibility:visible;display:inline;overflow:visible;enable-background:accumulate"
         id="rect4348"
         width="88"
         height="88"
         x="292"
         y="32"
         ry="18" />
    </clipPath>
    <linearGradient
       inkscape:collect="always"
       xlink:href="#outerBackgroundGradient"
       id="linearGradient4350"
       gradientUnits="userSpaceOnUse"
       x1="384"
       y1="124"
       x2="384"
       y2="28" />
    <clipPath
       clipPathUnits="userSpaceOnUse"
       id="clipPath3871">
      <rect
         ry="5"
         y="101"
         x="417"
         height="22"
         width="22"
         id="rect3873"
         style="color:#bebebe;fill:url(#linearGradient3875);fill-opacity:1;fill-rule:nonzero;stroke:none;stroke-width:0;marker:none;visibility:visible;display:inline;overflow:visible;enable-background:accumulate" />
    </clipPath>
    <linearGradient
       inkscape:collect="always"
       xlink:href="#outerBackgroundGradient"
       id="linearGradient3875"
       gradientUnits="userSpaceOnUse"
       gradientTransform="matrix(0.0875,0,0,0.0875,414.9,97.5)"
       x1="286.85715"
       y1="302.85715"
       x2="286.85715"
       y2="28.571428" />
    <clipPath
       clipPathUnits="userSpaceOnUse"
       id="clipPath3881">
      <rect
         style="color:#bebebe;fill:url(#linearGradient3885);fill-opacity:1;fill-rule:nonzero;stroke:none;stroke-width:0;marker:none;visibility:visible;display:inline;overflow:visible;enable-background:accumulate"
         id="rect3883"
         width="30"
         height="30"
         x="417"
         y="53"
         ry="7" />
    </clipPath>
    <linearGradient
       inkscape:collect="always"
       xlink:href="#outerBackgroundGradient"
       id="linearGradient3885"
       gradientUnits="userSpaceOnUse"
       gradientTransform="matrix(0.11931818,0,0,0.11931818,414.13636,48.22727)"
       x1="283.80957"
       y1="299.80954"
       x2="283.80957"
       y2="31.61907" />
  </defs>
  <metadata
     id="metadata4">
    <rdf:RDF>
      <cc:Work
         rdf:about="">
        <dc:format>image/svg+xml</dc:format>
        <dc:type
           rdf:resource="http://purl.org/dc/dcmitype/StillImage" />
        <dc:creator>
          <cc:Agent>
            <dc:title>Sam Hewitt</dc:title>
          </cc:Agent>
        </dc:creator>
        <dc:source />
        <cc:license
           rdf:resource="" />
        <dc:title />
        <dc:subject>
          <rdf:Bag />
        </dc:subject>
        <dc:date />
        <dc:rights>
          <cc:Agent>
            <dc:title />
          </cc:Agent>
        </dc:rights>
        <dc:publisher>
          <cc:Agent>
            <dc:title />
          </cc:Agent>
        </dc:publisher>
        <dc:identifier />
        <dc:relation />
        <dc:language />
        <dc:coverage />
        <dc:description />
        <dc:contributor>
          <cc:Agent>
            <dc:title />
          </cc:Agent>
        </dc:contributor>
      </cc:Work>
      <cc:Work
         rdf:about="">
        <dc:format>image/svg+xml</dc:format>
        <dc:type
           rdf:resource="http://purl.org/dc/dcmitype/StillImage" />
      </cc:Work>
    </rdf:RDF>
  </metadata>
  <g
     style="display:inline"
     inkscape:groupmode="layer"
     inkscape:label="Icon"
     id="layer1">
    <g
       style="display:none"
       inkscape:label="Baseplate"
       id="layer7"
       inkscape:groupmode="layer">
      <text
         y="19.745117"
         xml:space="preserve"
         x="15.006836"
         style="font-size:18px;font-style:normal;font-variant:normal;font-weight:normal;font-stretch:normal;fill:#000000;fill-opacity:1;stroke:none;display:inline;enable-background:new;font-family:DejaVu Sans;-inkscape-font-specification:DejaVu Sans"
         inkscape:label="context"
         id="context"><tspan
           style="font-style:normal;font-variant:normal;font-weight:normal;font-stretch:normal;font-family:DejaVu Sans;-inkscape-font-specification:DejaVu Sans"
           y="19.745117"
           x="15.006836"
           sodipodi:role="line"
           id="tspan3933">apps</tspan></text>
      <text
         y="19.745117"
         xml:space="preserve"
         x="122.48828"
         style="font-size:18px;font-style:normal;font-variant:normal;font-weight:bold;font-stretch:normal;text-align:start;line-height:125%;writing-mode:lr-tb;text-anchor:start;fill:#000000;fill-opacity:1;stroke:none;display:inline;enable-background:new;font-family:DejaVu Sans;-inkscape-font-specification:DejaVu Sans Bold"
         sodipodi:linespacing="125%"
         inkscape:label="icon-name"
         id="icon-name"><tspan
           style="font-size:18px;font-style:normal;font-variant:normal;font-weight:bold;font-stretch:normal;font-family:DejaVu Sans;-inkscape-font-specification:DejaVu Sans Bold"
           y="19.745117"
           x="122.48828"
           sodipodi:role="line"
           id="tspan3937">patchage</tspan></text>
      <rect
         style="fill:#eeeeec;fill-opacity:1;fill-rule:nonzero;stroke:none;stroke-width:2;marker:none;visibility:visible;display:inline;overflow:visible;enable-background:accumulate"
         id="rect16x16"
         width="16"
         height="16"
         x="416"
         y="140"
         inkscape:label="16x16" />
      <rect
         style="fill:#d4d4d4;fill-opacity:1;fill-rule:nonzero;stroke:none;stroke-width:2;marker:none;visibility:visible;display:inline;overflow:visible;enable-background:accumulate"
         id="rect24x24"
         width="24"
         height="24"
         x="416"
         y="100"
         inkscape:label="24x24" />
      <rect
         style="fill:#eeeeec;fill-opacity:1;fill-rule:nonzero;stroke:none;stroke-width:2;marker:none;visibility:visible;display:inline;overflow:visible;enable-background:accumulate"
         id="rect32x32"
         width="32"
         height="32"
         x="416"
         y="52"
         inkscape:label="32x32" />
      <rect
         inkscape:label="22x22"
         y="101"
         x="417"
         height="22"
         width="22"
         id="rect22x22"
         style="fill:#eeeeec;fill-opacity:1;fill-rule:nonzero;stroke:none;stroke-width:2;marker:none;visibility:visible;display:inline;overflow:visible;enable-background:accumulate" />
      <rect
         inkscape:label="48x48"
         y="220"
         x="288"
         height="48"
         width="48"
         id="rect48x48"
         style="fill:#eeeeec;fill-opacity:1;fill-rule:nonzero;stroke:none;stroke-width:2;marker:none;visibility:visible;display:inline;overflow:visible;enable-background:accumulate" />
      <rect
         style="fill:#eeeeec;fill-opacity:1;fill-rule:nonzero;stroke:none;stroke-width:2;marker:none;visibility:visible;display:inline;overflow:visible;enable-background:accumulate"
         id="rect256x256"
         width="256"
         height="256"
         x="16"
         y="28"
         inkscape:label="256x256" />
      <rect
         style="fill:#eeeeec;fill-opacity:1;fill-rule:nonzero;stroke:none;stroke-width:2;marker:none;visibility:visible;display:inline;overflow:visible;enable-background:accumulate"
         id="rect64x64"
         width="64"
         height="64"
         x="288"
         y="140"
         inkscape:label="64x64" />
      <rect
         style="fill:#eeeeec;fill-opacity:1;fill-rule:nonzero;stroke:none;stroke-width:2;marker:none;visibility:visible;display:inline;overflow:visible;enable-background:accumulate"
         id="rect96x96"
         width="96"
         height="96"
         x="288"
         y="28"
         inkscape:label="96x96" />
    </g>
    <g
       inkscape:groupmode="layer"
       id="layer4"
       inkscape:label="Shadow"
       style="display:inline"
       sodipodi:insensitive="true">
      <rect
         style="opacity:0;color:#bebebe;fill:#000000;fill-opacity:1;stroke:#000000;stroke-width:1;stroke-miterlimit:4;stroke-opacity:1;stroke-dasharray:none;marker:none;visibility:visible;display:inline;overflow:visible;enable-background:accumulate"
         id="rect4156"
         width="42"
         height="42"
         x="-266.5"
         y="291"
         ry="9"
         transform="matrix(0,-1,1,0,0,0)" />
      <rect
         transform="matrix(0,-1,1,0,0,0)"
         ry="9"
         y="291"
         x="-266.5"
         height="42"
         width="40"
         id="rect4183"
         style="opacity:0.1;color:#bebebe;fill:#000000;fill-opacity:1;stroke:none;stroke-width:1;marker:none;visibility:visible;display:inline;overflow:visible;enable-background:accumulate" />
      <rect
         ry="9"
         y="237"
         x="291"
         height="29"
         width="42"
         id="rect4144"
         style="opacity:0.1;color:#bebebe;fill:#000000;fill-opacity:1;fill-rule:nonzero;stroke:none;stroke-width:0;marker:none;visibility:visible;display:inline;overflow:visible;enable-background:accumulate" />
      <rect
         style="opacity:0;color:#bebebe;fill:#000000;fill-opacity:1;fill-rule:nonzero;stroke:#000000;stroke-width:1;stroke-miterlimit:4;stroke-opacity:1;stroke-dasharray:none;marker:none;visibility:visible;display:inline;overflow:visible;enable-background:accumulate"
         id="rect4340"
         width="88"
         height="88"
         x="292"
         y="33.5"
         ry="18" />
      <rect
         ry="18"
         y="52.5"
         x="292"
         height="69"
         width="88"
         id="rect4338"
         style="opacity:0.1;color:#bebebe;fill:#000000;fill-opacity:1;fill-rule:nonzero;stroke:none;stroke-width:0;marker:none;visibility:visible;display:inline;overflow:visible;enable-background:accumulate" />
      <rect
         style="opacity:0.1;color:#bebebe;fill:#000000;fill-opacity:1;fill-rule:nonzero;stroke:none;stroke-width:0;marker:none;visibility:visible;display:inline;overflow:visible;enable-background:accumulate"
         id="rect4335"
         width="88"
         height="76.5"
         x="292"
         y="44.5"
         ry="18" />
      <rect
         style="opacity:0;color:#bebebe;fill:#000000;fill-opacity:1;fill-rule:nonzero;stroke:#000000;stroke-width:1;stroke-miterlimit:4;stroke-opacity:1;stroke-dasharray:none;marker:none;visibility:visible;display:inline;overflow:visible;enable-background:accumulate"
         id="rect4214"
         width="60"
         height="60"
         x="290"
         y="143.5"
         ry="12.5" />
      <rect
         ry="12.5"
         y="151.5"
         x="290"
         height="52"
         width="60"
         id="rect4206"
         style="opacity:0.1;color:#bebebe;fill:#000000;fill-opacity:1;fill-rule:nonzero;stroke:none;stroke-width:0;marker:none;visibility:visible;display:inline;overflow:visible;enable-background:accumulate" />
      <rect
         style="opacity:0.1;color:#bebebe;fill:#000000;fill-opacity:1;fill-rule:nonzero;stroke:none;stroke-width:0;marker:none;visibility:visible;display:inline;overflow:visible;enable-background:accumulate"
         id="rect4212"
         width="60"
         height="54.5"
         x="290"
         y="148.5"
         ry="12.5" />
      <rect
         style="opacity:0.2;color:#bebebe;fill:#000000;fill-opacity:1;fill-rule:nonzero;stroke:none;stroke-width:0;marker:none;visibility:visible;display:inline;overflow:visible;enable-background:accumulate"
         id="rect4058"
         width="30"
         height="30"
         x="417"
         y="54"
         ry="7" />
      <rect
         ry="50"
         y="48"
         x="34"
         height="220"
         width="220"
         id="rect3872"
         style="opacity:0;color:#bebebe;fill:#000000;fill-opacity:1;fill-rule:nonzero;stroke:#000000;stroke-width:2;stroke-miterlimit:4;stroke-opacity:1;stroke-dasharray:none;marker:none;visibility:visible;display:inline;overflow:visible;enable-background:accumulate" />
      <rect
         style="opacity:0.1;color:#bebebe;fill:#000000;fill-opacity:1;fill-rule:nonzero;stroke:none;stroke-width:0;marker:none;visibility:visible;display:inline;overflow:visible;enable-background:accumulate"
         id="rect3870"
         width="220"
         height="220"
         x="34"
         y="48"
         ry="50" />
      <rect
         ry="50"
         y="47"
         x="34"
         height="220"
         width="220"
         id="rect3868"
         style="opacity:0.1;color:#bebebe;fill:#000000;fill-opacity:1;fill-rule:nonzero;stroke:none;stroke-width:0;marker:none;visibility:visible;display:inline;overflow:visible;enable-background:accumulate" />
    </g>
    <g
       inkscape:groupmode="layer"
       id="layer2"
       inkscape:label="Background"
       style="display:inline">
      <rect
         style="color:#bebebe;fill:url(#linearGradient3876);fill-opacity:1;fill-rule:nonzero;stroke:none;stroke-width:0;marker:none;visibility:visible;display:inline;overflow:visible;enable-background:accumulate"
         id="rect4040"
         width="220"
         height="220"
         x="34"
         y="46"
         ry="50" />
      <rect
         ry="3"
         y="140"
         x="416"
         height="16"
         width="16"
         id="rect4095"
         style="color:#bebebe;fill:url(#linearGradient4097);fill-opacity:1;fill-rule:nonzero;stroke:none;stroke-width:0;marker:none;visibility:visible;display:inline;overflow:visible;enable-background:accumulate" />
      <rect
         style="color:#bebebe;fill:url(#linearGradient4101);fill-opacity:1;fill-rule:nonzero;stroke:none;stroke-width:0;marker:none;visibility:visible;display:inline;overflow:visible;enable-background:accumulate"
         id="rect4099"
         width="22"
         height="22"
         x="417"
         y="101"
         ry="5" />
      <rect
         ry="7"
         y="53"
         x="417"
         height="30"
         width="30"
         id="rect4151"
         style="color:#bebebe;fill:url(#linearGradient4153);fill-opacity:1;fill-rule:nonzero;stroke:none;stroke-width:0;marker:none;visibility:visible;display:inline;overflow:visible;enable-background:accumulate" />
      <rect
         style="color:#bebebe;fill:url(#linearGradient4869);fill-opacity:1;fill-rule:nonzero;stroke:none;stroke-width:0;marker:none;visibility:visible;display:inline;overflow:visible;enable-background:accumulate"
         id="rect4783"
         width="42"
         height="42"
         x="291"
         y="-265"
         ry="9"
         transform="scale(1,-1)" />
      <rect
         ry="18"
         y="32"
         x="292"
         height="88"
         width="88"
         id="rect4511"
         style="color:#bebebe;fill:url(#linearGradient4197);fill-opacity:1;fill-rule:nonzero;stroke:none;stroke-width:0;marker:none;visibility:visible;display:inline;overflow:visible;enable-background:accumulate" />
      <rect
         style="color:#bebebe;fill:url(#linearGradient4199);fill-opacity:1;fill-rule:nonzero;stroke:none;stroke-width:0;marker:none;visibility:visible;display:inline;overflow:visible;enable-background:accumulate"
         id="rect4515"
         width="60"
         height="60"
         x="290"
         y="142"
         ry="12.5" />
    </g>
    <g
       inkscape:groupmode="layer"
       id="layer6"
       inkscape:label="Symbols"
       style="display:inline">
      <path
         id="path3919"
         d="m 330,151 c -7.20068,0 -13,5.79932 -13,13 l 0,6 2,0 0,-6 c 0,-6.13431 4.86569,-11 11,-11 6.13431,0 11,4.86569 11,11 0,6.13431 -4.86569,11 -11,11 l -2,0 -4,0 -1,0 -2,0 -2,0 -2,0 -1,0 -6.09375,0 c -0.19581,-0.57571 -0.67738,-1 -1.25,-1 0.57262,0 1.05419,-0.42429 1.25,-1 l 6.09375,0 1,0 2,0 2,0 2,0 1,0 4,0 2,0 c 4.95706,0 9,-4.04294 9,-9 0,-4.95706 -4.04294,-9 -9,-9 -4.95706,0 -9,4.04294 -9,9 l 0,6 2,0 0,-6 c 0,-3.87494 3.12506,-7 7,-7 3.87494,0 7,3.12506 7,7 0,3.87494 -3.12506,7 -7,7 l -2,0 -4,0 -1,0 -2,0 -2,0 -2,0 -2,0 -5.09375,0 c -0.19581,-0.57571 -0.67738,-1 -1.25,-1 L 303,170 l 0,1 -4,0 c -0.554,0 -1,0.446 -1,1 0,0.554 0.446,1 1,1 l 4,0 0,1 0,1 -4,0 c -0.554,0 -1,0.446 -1,1 0,0.554 0.446,1 1,1 l 4,0 0,1 5.65625,0 c 0.57262,0 1.05419,-0.42429 1.25,-1 l 6.09375,0 1,0 2,0 2,0 2,0 1,0 4,0 2,0 c 7.20068,0 13,-5.79932 13,-13 0,-7.20068 -5.79932,-13 -13,-13 z m -32,25 c 0,-0.554 -0.446,-1 -1,-1 -0.554,0 -1,0.446 -1,1 0,0.554 0.446,1 1,1 0.554,0 1,-0.446 1,-1 z m 0,-4 c 0,-0.554 -0.446,-1 -1,-1 -0.554,0 -1,0.446 -1,1 0,0.554 0.446,1 1,1 0.554,0 1,-0.446 1,-1 z m 19,6 0,6.09375 c -0.57571,0.19581 -1,0.67738 -1,1.25 l 0,5.65625 1,0 0,3 c 0,0.554 0.446,1 1,1 0.554,0 1,-0.446 1,-1 l 0,-3 1,0 1,0 0,3 c 0,0.554 0.446,1 1,1 0.554,0 1,-0.446 1,-1 l 0,-3 1,0 0,-5.65625 c 0,-0.57262 -0.42429,-1.05419 -1,-1.25 L 323,178 l -2,0 0,6.09375 c -0.57571,0.19581 -1,0.67738 -1,1.25 0,-0.57262 -0.42429,-1.05419 -1,-1.25 L 319,178 l -2,0 z m 5,17 c -0.554,0 -1,0.446 -1,1 0,0.554 0.446,1 1,1 0.554,0 1,-0.446 1,-1 0,-0.554 -0.446,-1 -1,-1 z m -4,0 c -0.554,0 -1,0.446 -1,1 0,0.554 0.446,1 1,1 0.554,0 1,-0.446 1,-1 0,-0.554 -0.446,-1 -1,-1 z"
         style="opacity:0.2;color:#000000;fill:#000000;fill-opacity:1;fill-rule:evenodd;stroke:none;stroke-width:1;marker:none;visibility:visible;display:inline;overflow:visible;enable-background:accumulate"
         inkscape:connector-curvature="0" />
      <path
         inkscape:connector-curvature="0"
         style="opacity:0.2;color:#000000;fill:#000000;fill-opacity:1;fill-rule:evenodd;stroke:none;stroke-width:1;marker:none;visibility:visible;display:inline;overflow:visible;enable-background:accumulate"
         d="m 186,65 c -28.80272,0 -52,23.19728 -52,52 l 0,24 8,0 0,-24 c 0,-24.53724 19.46276,-44 44,-44 24.53724,0 44,19.46276 44,44 0,24.53724 -19.46276,44 -44,44 l -8,0 -16,0 -4,0 -8,0 -8,0 -8,0 -4,0 -24.375,0 c -0.78324,-2.30284 -2.70952,-4 -5,-4 2.29048,0 4.21676,-1.69716 5,-4 l 24.375,0 4,0 8,0 8,0 8,0 4,0 16,0 8,0 c 19.82824,0 36,-16.17176 36,-36 0,-19.82824 -16.17176,-36 -36,-36 -19.82824,0 -36,16.17176 -36,36 l 0,24 8,0 0,-24 c 0,-15.49976 12.50024,-28 28,-28 15.49976,0 28,12.50024 28,28 0,15.49976 -12.50024,28 -28,28 l -8,0 -16,0 -4,0 -8,0 -8,0 -8,0 -8,0 -20.375,0 c -0.78324,-2.30284 -2.70952,-4 -5,-4 L 78,141 l 0,4 -16,0 c -2.216,0 -4,1.784 -4,4 0,2.216 1.784,4 4,4 l 16,0 0,4 0,4 -16,0 c -2.216,0 -4,1.784 -4,4 0,2.216 1.784,4 4,4 l 16,0 0,4 22.625,0 c 2.29048,0 4.21676,-1.69716 5,-4 l 24.375,0 4,0 8,0 8,0 8,0 4,0 16,0 8,0 c 28.80272,0 52,-23.19728 52,-52 0,-28.80272 -23.19728,-52 -52,-52 z M 58,165 c 0,-2.216 -1.784,-4 -4,-4 -2.216,0 -4,1.784 -4,4 0,2.216 1.784,4 4,4 2.216,0 4,-1.784 4,-4 z m 0,-16 c 0,-2.216 -1.784,-4 -4,-4 -2.216,0 -4,1.784 -4,4 0,2.216 1.784,4 4,4 2.216,0 4,-1.784 4,-4 z m 76,24 0,24.375 c -2.30284,0.78324 -4,2.70952 -4,5 l 0,22.625 4,0 0,12 c 0,2.216 1.784,4 4,4 2.216,0 4,-1.784 4,-4 l 0,-12 4,0 4,0 0,12 c 0,2.216 1.784,4 4,4 2.216,0 4,-1.784 4,-4 l 0,-12 4,0 0,-22.625 c 0,-2.29048 -1.69716,-4.21676 -4,-5 l 0,-24.375 -8,0 0,24.375 c -2.30284,0.78324 -4,2.70952 -4,5 0,-2.29048 -1.69716,-4.21676 -4,-5 l 0,-24.375 -8,0 z m 20,68 c -2.216,0 -4,1.784 -4,4 0,2.216 1.784,4 4,4 2.216,0 4,-1.784 4,-4 0,-2.216 -1.784,-4 -4,-4 z m -16,0 c -2.216,0 -4,1.784 -4,4 0,2.216 1.784,4 4,4 2.216,0 4,-1.784 4,-4 0,-2.216 -1.784,-4 -4,-4 z"
         id="path3921" />
      <path
         id="path3923"
         d="m 318.5,229 c -5.23306,0 -9.5,4.26694 -9.5,9.5 l 0,2.5 2,0 0,-2.5 c 0,-4.15094 3.34906,-7.5 7.5,-7.5 4.15094,0 7.5,3.34906 7.5,7.5 0,4.15094 -3.34906,7.5 -7.5,7.5 l -0.5,0 -2.5,0 -0.5,0 -2,0 -2,0 -2,0 -0.5,0 -0.5,0 -1,0 -0.0625,0 c -0.14241,-0.57545 -0.49735,-1 -0.90625,-1 0.4089,0 0.76384,-0.42455 0.90625,-1 l 0.0625,0 1,0 0.5,0 0.5,0 2,0 2,0 2,0 0.5,0 2.5,0 0.5,0 c 3.04966,0 5.5,-2.45034 5.5,-5.5 0,-3.04966 -2.45034,-5.5 -5.5,-5.5 -3.04966,0 -5.5,2.45034 -5.5,5.5 l 0,2.5 2,0 0,-2.5 c 0,-2.00507 1.49493,-3.53125 3.5,-3.53125 2.00507,0 3.53125,1.52618 3.53125,3.53125 0,2.00507 -1.52618,3.5 -3.53125,3.5 l -0.5,0 -2.5,0 -0.5,0 -2,0 -2,0 -2,0 -0.5,0 -0.5,0 -1,0 -0.0625,0 c -0.14241,-0.57545 -0.49735,-1 -0.90625,-1 L 302,241 l 0,1 -2,0 c -0.554,0 -1,0.446 -1,1 0,0.554 0.446,1 1,1 l 2,0 0,1 0,1 -2,0 c -0.554,0 -1,0.446 -1,1 0,0.554 0.446,1 1,1 l 2,0 0,1 4.03125,0 c 0.4089,0 0.76384,-0.42455 0.90625,-1 l 0.0625,0 1,0 0.5,0 0.5,0 2,0 2,0 2,0 0.5,0 2.5,0 0.5,0 c 5.23306,0 9.5,-4.26694 9.5,-9.5 0,-5.23306 -4.26694,-9.5 -9.5,-9.5 z M 299,247 c 0,-0.554 -0.446,-1 -1,-1 -0.554,0 -1,0.446 -1,1 0,0.554 0.446,1 1,1 0.554,0 1,-0.446 1,-1 z m 0,-4 c 0,-0.554 -0.446,-1 -1,-1 -0.554,0 -1,0.446 -1,1 0,0.554 0.446,1 1,1 0.554,0 1,-0.446 1,-1 z m 10,6 0,1 0,0.0625 c -0.57545,0.14241 -1,0.49735 -1,0.90625 l 0,4.03125 1,0 0,2 c 0,0.554 0.446,1 1,1 0.554,0 1,-0.446 1,-1 l 0,-2 1,0 1,0 0,2 c 0,0.554 0.446,1 1,1 0.554,0 1,-0.446 1,-1 l 0,-2 1,0 0,-4.03125 c 0,-0.4089 -0.42455,-0.76384 -1,-0.90625 l 0,-0.0625 0,-1 -2,0 0,1 0,0.0625 c -0.57545,0.14241 -1,0.49735 -1,0.90625 0,-0.4089 -0.42455,-0.76384 -1,-0.90625 l 0,-0.0625 0,-1 -2,0 z m 5,9 c -0.554,0 -1,0.446 -1,1 0,0.554 0.446,1 1,1 0.554,0 1,-0.446 1,-1 0,-0.554 -0.446,-1 -1,-1 z m -4,0 c -0.554,0 -1,0.446 -1,1 0,0.554 0.446,1 1,1 0.554,0 1,-0.446 1,-1 0,-0.554 -0.446,-1 -1,-1 z"
         style="opacity:0.2;color:#000000;fill:#000000;fill-opacity:1;fill-rule:evenodd;stroke:none;stroke-width:1;marker:none;visibility:visible;display:inline;overflow:visible;enable-background:accumulate"
         inkscape:connector-curvature="0" />
      <path
         id="path3925"
         d="m 435.5,58 c -4.12182,0 -7.5,3.378182 -7.5,7.5 l 0,2.5 4,0 0,-2.5 c 0,-1.951093 1.54891,-3.5 3.5,-3.5 1.95109,0 3.5,1.548907 3.5,3.5 0,1.951093 -1.54891,3.5 -3.5,3.5 l -1.5,0 -1,0 -1,0 -4,0 -1,0 -1,0 -1,0 -1,0 0,1 0,1 0,1 0,1 1,0 1,0 1,0 1,0 4,0 1,0 2,0 0.5,0 c 4.12182,0 7.5,-3.37818 7.5,-7.5 0,-4.121818 -3.37818,-7.5 -7.5,-7.5 z M 424,72 c 0,-0.55228 -0.44772,-1 -1,-1 -0.55228,0 -1,0.44772 -1,1 0,0.55228 0.44772,1 1,1 0.55228,0 1,-0.44772 1,-1 z m -1,-1 c 0.55228,0 1,-0.44772 1,-1 0,-0.55228 -0.44772,-1 -1,-1 -0.55228,0 -1,0.44772 -1,1 0,0.55228 0.44772,1 1,1 z m 5,3 0,1 0,1 0,1 1,0 1,0 1,0 1,0 0,-1 0,-1 0,-1 -4,0 z m 3,3 c -0.55228,0 -1,0.44772 -1,1 0,0.55228 0.44772,1 1,1 0.55228,0 1,-0.44772 1,-1 0,-0.55228 -0.44772,-1 -1,-1 z m -1,1 c 0,-0.55228 -0.44772,-1 -1,-1 -0.55228,0 -1,0.44772 -1,1 0,0.55228 0.44772,1 1,1 0.55228,0 1,-0.44772 1,-1 z"
         style="opacity:0.2;color:#000000;fill:#000000;fill-opacity:1;fill-rule:evenodd;stroke:none;stroke-width:0.89999998;marker:none;visibility:visible;display:inline;overflow:visible;enable-background:accumulate"
         inkscape:connector-curvature="0" />
      <path
         id="path3927"
         d="m 429.5,105 c -3.5713,0 -6.5,2.92931 -6.5,6.5 l 0,1.5 4,0 0,-1.5 c 0,-1.40499 1.09501,-2.5 2.5,-2.5 1.40499,0 2.5,1.09501 2.5,2.5 0,1.40499 -1.09501,2.5 -2.5,2.5 l -1,0 -1.5,0 -4,0 -3,0 0,2 0,2 3,0 4,0 1.5,0 1,0 c 3.5713,0 6.5,-2.92931 6.5,-6.5 0,-3.57069 -2.9287,-6.5 -6.5,-6.5 z m -6.5,14 0,2 2,0 2,0 0,-2 -4,0 z"
         style="opacity:0.2;color:#000000;fill:#000000;fill-opacity:1;fill-rule:evenodd;stroke:none;stroke-width:0.89999998;marker:none;visibility:visible;display:inline;overflow:visible;enable-background:accumulate"
         inkscape:connector-curvature="0" />
      <path
         inkscape:connector-curvature="0"
         style="opacity:0.2;color:#000000;fill:#000000;fill-opacity:1;fill-rule:evenodd;stroke:none;stroke-width:1;marker:none;visibility:visible;display:inline;overflow:visible;enable-background:accumulate"
         d="m 348,46 c -10.46612,0 -19,8.53388 -19,19 l 0,5 4,0 0,-5 c 0,-8.30188 6.69812,-15 15,-15 8.30188,0 15,6.69812 15,15 0,8.30188 -6.69812,15 -15,15 l -1,0 -5,0 -1,0 -4,0 -4,0 -4,0 -1,0 -1,0 -2,0 -0.125,0 c -0.28482,-1.1509 -0.9947,-2 -1.8125,-2 0.8178,0 1.52768,-0.8491 1.8125,-2 l 0.125,0 2,0 1,0 1,0 4,0 4,0 4,0 1,0 5,0 1,0 c 6.09932,0 11,-4.90068 11,-11 0,-6.09932 -4.90068,-11 -11,-11 -6.09932,0 -11,4.90068 -11,11 l 0,5 4,0 0,-5 c 0,-4.01014 2.98986,-7.0625 7,-7.0625 4.01014,0 7.0625,3.05236 7.0625,7.0625 0,4.01014 -3.05236,7 -7.0625,7 l -1,0 -5,0 -1,0 -4,0 -4,0 -4,0 -1,0 -1,0 -2,0 -0.125,0 c -0.28482,-1.1509 -0.9947,-2 -1.8125,-2 L 315,70 l 0,2 -4,0 c -1.108,0 -2,0.892 -2,2 0,1.108 0.892,2 2,2 l 4,0 0,2 0,2 -4,0 c -1.108,0 -2,0.892 -2,2 0,1.108 0.892,2 2,2 l 4,0 0,2 8.0625,0 c 0.8178,0 1.52768,-0.8491 1.8125,-2 l 0.125,0 2,0 1,0 1,0 4,0 4,0 4,0 1,0 5,0 1,0 c 10.46612,0 19,-8.53388 19,-19 0,-10.46612 -8.53388,-19 -19,-19 z m -39,36 c 0,-1.108 -0.892,-2 -2,-2 -1.108,0 -2,0.892 -2,2 0,1.108 0.892,2 2,2 1.108,0 2,-0.892 2,-2 z m 0,-8 c 0,-1.108 -0.892,-2 -2,-2 -1.108,0 -2,0.892 -2,2 0,1.108 0.892,2 2,2 1.108,0 2,-0.892 2,-2 z m 20,12 0,2 0,0.125 c -1.1509,0.28482 -2,0.9947 -2,1.8125 l 0,8.0625 2,0 0,4 c 0,1.108 0.892,2 2,2 1.108,0 2,-0.892 2,-2 l 0,-4 2,0 2,0 0,4 c 0,1.108 0.892,2 2,2 1.108,0 2,-0.892 2,-2 l 0,-4 2,0 0,-8.0625 c 0,-0.8178 -0.8491,-1.52768 -2,-1.8125 l 0,-0.125 0,-2 -4,0 0,2 0,0.125 c -1.1509,0.28482 -2,0.9947 -2,1.8125 0,-0.8178 -0.8491,-1.52768 -2,-1.8125 l 0,-0.125 0,-2 -4,0 z m 10,18 c -1.108,0 -2,0.892 -2,2 0,1.108 0.892,2 2,2 1.108,0 2,-0.892 2,-2 0,-1.108 -0.892,-2 -2,-2 z m -8,0 c -1.108,0 -2,0.892 -2,2 0,1.108 0.892,2 2,2 1.108,0 2,-0.892 2,-2 0,-1.108 -0.892,-2 -2,-2 z"
         id="path3929" />
      <path
         id="path3931"
         d="m 425.75,143.5 c -2.06091,0 -3.75,1.68909 -3.75,3.75 l 0,0.75 2,0 0,-0.75 c 0,-0.97555 0.77445,-1.75 1.75,-1.75 0.97555,0 1.75,0.77445 1.75,1.75 0,0.97555 -0.77445,1.75 -1.75,1.75 l -0.75,0 -0.5,0 -0.5,0 -2,0 -0.5,0 -0.5,0 -0.5,0 -0.5,0 0,0.5 0,0.5 0,0.5 0,0.5 0.5,0 0.5,0 0.5,0 0.5,0 2,0 0.5,0 1,0 0.25,0 c 2.06091,0 3.75,-1.68909 3.75,-3.75 0,-2.06091 -1.68909,-3.75 -3.75,-3.75 z m -5.75,7 c 0,-0.27614 -0.22386,-0.5 -0.5,-0.5 -0.27614,0 -0.5,0.22386 -0.5,0.5 0,0.27614 0.22386,0.5 0.5,0.5 0.27614,0 0.5,-0.22386 0.5,-0.5 z m -0.5,-0.5 c 0.27614,0 0.5,-0.22386 0.5,-0.5 0,-0.27614 -0.22386,-0.5 -0.5,-0.5 -0.27614,0 -0.5,0.22386 -0.5,0.5 0,0.27614 0.22386,0.5 0.5,0.5 z m 2.5,2 0,0.5 0,0.5 0.5,0 0.5,0 0.5,0 0.5,0 0,-0.5 0,-0.5 -2,0 z m 1.5,1 c -0.27614,0 -0.5,0.22386 -0.5,0.5 0,0.27614 0.22386,0.5 0.5,0.5 0.27614,0 0.5,-0.22386 0.5,-0.5 0,-0.27614 -0.22386,-0.5 -0.5,-0.5 z m -0.5,0.5 c 0,-0.27614 -0.22386,-0.5 -0.5,-0.5 -0.27614,0 -0.5,0.22386 -0.5,0.5 0,0.27614 0.22386,0.5 0.5,0.5 0.27614,0 0.5,-0.22386 0.5,-0.5 z"
         style="opacity:0.2;color:#000000;fill:#000000;fill-opacity:1;fill-rule:evenodd;stroke:none;stroke-width:0.89999998;marker:none;visibility:visible;display:inline;overflow:visible;enable-background:accumulate"
         inkscape:connector-curvature="0" />
      <path
         style="display:inline;enable-background:accumulate;color:#000000;fill:#ffffff;fill-opacity:1;fill-rule:evenodd;stroke:none;stroke-width:1;marker:none;visibility:visible;overflow:visible"
         d="M 330 150 C 322.79932 150 317 155.79932 317 163 L 317 169 L 319 169 L 319 163 C 319 156.86569 323.86569 152 330 152 C 336.13431 152 341 156.86569 341 163 C 341 169.13431 336.13431 174 330 174 L 328 174 L 324 174 L 323 174 L 321 174 L 319 174 L 317 174 L 316 174 L 309.90625 174 C 309.71044 173.42429 309.22887 173 308.65625 173 C 309.22887 173 309.71044 172.57571 309.90625 172 L 316 172 L 317 172 L 319 172 L 321 172 L 323 172 L 324 172 L 328 172 L 330 172 C 334.95706 172 339 167.95706 339 163 C 339 158.04294 334.95706 154 330 154 C 325.04294 154 321 158.04294 321 163 L 321 169 L 323 169 L 323 163 C 323 159.12506 326.12506 156 330 156 C 333.87494 156 337 159.12506 337 163 C 337 166.87494 333.87494 170 330 170 L 328 170 L 324 170 L 323 170 L 321 170 L 319 170 L 317 170 L 315 170 L 309.90625 170 C 309.71044 169.42429 309.22887 169 308.65625 169 L 303 169 L 303 170 L 299 170 C 298.446 170 298 170.446 298 171 C 298 171.554 298.446 172 299 172 L 303 172 L 303 173 L 303 174 L 299 174 C 298.446 174 298 174.446 298 175 C 298 175.554 298.446 176 299 176 L 303 176 L 303 177 L 308.65625 177 C 309.22887 177 309.71044 176.57571 309.90625 176 L 316 176 L 317 176 L 319 176 L 321 176 L 323 176 L 324 176 L 328 176 L 330 176 C 337.20068 176 343 170.20068 343 163 C 343 155.79932 337.20068 150 330 150 z M 298 175 C 298 174.446 297.554 174 297 174 C 296.446 174 296 174.446 296 175 C 296 175.554 296.446 176 297 176 C 297.554 176 298 175.554 298 175 z M 298 171 C 298 170.446 297.554 170 297 170 C 296.446 170 296 170.446 296 171 C 296 171.554 296.446 172 297 172 C 297.554 172 298 171.554 298 171 z M 317 177 L 317 183.09375 C 316.42429 183.28956 316 183.77113 316 184.34375 L 316 190 L 317 190 L 317 193 C 317 193.554 317.446 194 318 194 C 318.554 194 319 193.554 319 193 L 319 190 L 320 190 L 321 190 L 321 193 C 321 193.554 321.446 194 322 194 C 322.554 194 323 193.554 323 193 L 323 190 L 324 190 L 324 184.34375 C 324 183.77113 323.57571 183.28956 323 183.09375 L 323 177 L 321 177 L 321 183.09375 C 320.42429 183.28956 320 183.77113 320 184.34375 C 320 183.77113 319.57571 183.28956 319 183.09375 L 319 177 L 317 177 z M 322 194 C 321.446 194 321 194.446 321 195 C 321 195.554 321.446 196 322 196 C 322.554 196 323 195.554 323 195 C 323 194.446 322.554 194 322 194 z M 318 194 C 317.446 194 317 194.446 317 195 C 317 195.554 317.446 196 318 196 C 318.554 196 319 195.554 319 195 C 319 194.446 318.554 194 318 194 z "
         id="path3477" />
      <path
         id="path3852"
         d="m 186,64 c -28.80272,0 -52,23.19728 -52,52 l 0,24 8,0 0,-24 c 0,-24.53724 19.46276,-44 44,-44 24.53724,0 44,19.46276 44,44 0,24.53724 -19.46276,44 -44,44 l -8,0 -16,0 -4,0 -8,0 -8,0 -8,0 -4,0 -24.375,0 c -0.78324,-2.30284 -2.70952,-4 -5,-4 2.29048,0 4.21676,-1.69716 5,-4 l 24.375,0 4,0 8,0 8,0 8,0 4,0 16,0 8,0 c 19.82824,0 36,-16.17176 36,-36 0,-19.82824 -16.17176,-36 -36,-36 -19.82824,0 -36,16.17176 -36,36 l 0,24 8,0 0,-24 c 0,-15.49976 12.50024,-28 28,-28 15.49976,0 28,12.50024 28,28 0,15.49976 -12.50024,28 -28,28 l -8,0 -16,0 -4,0 -8,0 -8,0 -8,0 -8,0 -20.375,0 c -0.78324,-2.30284 -2.70952,-4 -5,-4 L 78,140 l 0,4 -16,0 c -2.216,0 -4,1.784 -4,4 0,2.216 1.784,4 4,4 l 16,0 0,4 0,4 -16,0 c -2.216,0 -4,1.784 -4,4 0,2.216 1.784,4 4,4 l 16,0 0,4 22.625,0 c 2.29048,0 4.21676,-1.69716 5,-4 l 24.375,0 4,0 8,0 8,0 8,0 4,0 16,0 8,0 c 28.80272,0 52,-23.19728 52,-52 0,-28.80272 -23.19728,-52 -52,-52 z M 58,164 c 0,-2.216 -1.784,-4 -4,-4 -2.216,0 -4,1.784 -4,4 0,2.216 1.784,4 4,4 2.216,0 4,-1.784 4,-4 z m 0,-16 c 0,-2.216 -1.784,-4 -4,-4 -2.216,0 -4,1.784 -4,4 0,2.216 1.784,4 4,4 2.216,0 4,-1.784 4,-4 z m 76,24 0,24.375 c -2.30284,0.78324 -4,2.70952 -4,5 l 0,22.625 4,0 0,12 c 0,2.216 1.784,4 4,4 2.216,0 4,-1.784 4,-4 l 0,-12 4,0 4,0 0,12 c 0,2.216 1.784,4 4,4 2.216,0 4,-1.784 4,-4 l 0,-12 4,0 0,-22.625 c 0,-2.29048 -1.69716,-4.21676 -4,-5 l 0,-24.375 -8,0 0,24.375 c -2.30284,0.78324 -4,2.70952 -4,5 0,-2.29048 -1.69716,-4.21676 -4,-5 l 0,-24.375 -8,0 z m 20,68 c -2.216,0 -4,1.784 -4,4 0,2.216 1.784,4 4,4 2.216,0 4,-1.784 4,-4 0,-2.216 -1.784,-4 -4,-4 z m -16,0 c -2.216,0 -4,1.784 -4,4 0,2.216 1.784,4 4,4 2.216,0 4,-1.784 4,-4 0,-2.216 -1.784,-4 -4,-4 z"
         style="display:inline;enable-background:accumulate;color:#000000;fill:#ffffff;fill-opacity:1;fill-rule:evenodd;stroke:none;stroke-width:1;marker:none;visibility:visible;overflow:visible"
         inkscape:connector-curvature="0" />
      <path
         style="display:inline;enable-background:accumulate;color:#000000;fill:#ffffff;fill-opacity:1;fill-rule:evenodd;stroke:none;stroke-width:1;marker:none;visibility:visible;overflow:visible"
         d="M 318.5 228 C 313.26694 228 309 232.26694 309 237.5 L 309 240 L 311 240 L 311 237.5 C 311 233.34906 314.34906 230 318.5 230 C 322.65094 230 326 233.34906 326 237.5 C 326 241.65094 322.65094 245 318.5 245 L 318 245 L 315.5 245 L 315 245 L 313 245 L 311 245 L 309 245 L 308.5 245 L 308 245 L 307 245 L 306.9375 245 C 306.79509 244.42455 306.44015 244 306.03125 244 C 306.44015 244 306.79509 243.57545 306.9375 243 L 307 243 L 308 243 L 308.5 243 L 309 243 L 311 243 L 313 243 L 315 243 L 315.5 243 L 318 243 L 318.5 243 C 321.54966 243 324 240.54966 324 237.5 C 324 234.45034 321.54966 232 318.5 232 C 315.45034 232 313 234.45034 313 237.5 L 313 240 L 315 240 L 315 237.5 C 315 235.49493 316.49493 233.96875 318.5 233.96875 C 320.50507 233.96875 322.03125 235.49493 322.03125 237.5 C 322.03125 239.50507 320.50507 241 318.5 241 L 318 241 L 315.5 241 L 315 241 L 313 241 L 311 241 L 309 241 L 308.5 241 L 308 241 L 307 241 L 306.9375 241 C 306.79509 240.42455 306.44015 240 306.03125 240 L 302 240 L 302 241 L 300 241 C 299.446 241 299 241.446 299 242 C 299 242.554 299.446 243 300 243 L 302 243 L 302 244 L 302 245 L 300 245 C 299.446 245 299 245.446 299 246 C 299 246.554 299.446 247 300 247 L 302 247 L 302 248 L 306.03125 248 C 306.44015 248 306.79509 247.57545 306.9375 247 L 307 247 L 308 247 L 308.5 247 L 309 247 L 311 247 L 313 247 L 315 247 L 315.5 247 L 318 247 L 318.5 247 C 323.73306 247 328 242.73306 328 237.5 C 328 232.26694 323.73306 228 318.5 228 z M 299 246 C 299 245.446 298.554 245 298 245 C 297.446 245 297 245.446 297 246 C 297 246.554 297.446 247 298 247 C 298.554 247 299 246.554 299 246 z M 299 242 C 299 241.446 298.554 241 298 241 C 297.446 241 297 241.446 297 242 C 297 242.554 297.446 243 298 243 C 298.554 243 299 242.554 299 242 z M 309 248 L 309 249 L 309 249.0625 C 308.42455 249.20491 308 249.55985 308 249.96875 L 308 254 L 309 254 L 309 256 C 309 256.554 309.446 257 310 257 C 310.554 257 311 256.554 311 256 L 311 254 L 312 254 L 313 254 L 313 256 C 313 256.554 313.446 257 314 257 C 314.554 257 315 256.554 315 256 L 315 254 L 316 254 L 316 249.96875 C 316 249.55985 315.57545 249.20491 315 249.0625 L 315 249 L 315 248 L 313 248 L 313 249 L 313 249.0625 C 312.42455 249.20491 312 249.55985 312 249.96875 C 312 249.55985 311.57545 249.20491 311 249.0625 L 311 249 L 311 248 L 309 248 z M 314 257 C 313.446 257 313 257.446 313 258 C 313 258.554 313.446 259 314 259 C 314.554 259 315 258.554 315 258 C 315 257.446 314.554 257 314 257 z M 310 257 C 309.446 257 309 257.446 309 258 C 309 258.554 309.446 259 310 259 C 310.554 259 311 258.554 311 258 C 311 257.446 310.554 257 310 257 z "
         id="path2569" />
      <path
         style="display:inline;enable-background:accumulate;color:#000000;fill:#ffffff;fill-opacity:1;fill-rule:evenodd;stroke:none;stroke-width:0.89999998000000003;marker:none;visibility:visible;overflow:visible"
         d="M 435.5 57 C 431.37818 57 428 60.378182 428 64.5 L 428 67 L 432 67 L 432 64.5 C 432 62.548907 433.54891 61 435.5 61 C 437.45109 61 439 62.548907 439 64.5 C 439 66.451093 437.45109 68 435.5 68 L 434 68 L 433 68 L 432 68 L 428 68 L 427 68 L 426 68 L 425 68 L 424 68 L 424 69 L 424 70 L 424 71 L 424 72 L 425 72 L 426 72 L 427 72 L 428 72 L 432 72 L 433 72 L 435 72 L 435.5 72 C 439.62182 72 443 68.62182 443 64.5 C 443 60.378182 439.62182 57 435.5 57 z M 424 71 C 424 70.44772 423.55228 70 423 70 C 422.44772 70 422 70.44772 422 71 C 422 71.55228 422.44772 72 423 72 C 423.55228 72 424 71.55228 424 71 z M 423 70 C 423.55228 70 424 69.55228 424 69 C 424 68.44772 423.55228 68 423 68 C 422.44772 68 422 68.44772 422 69 C 422 69.55228 422.44772 70 423 70 z M 428 73 L 428 74 L 428 75 L 428 76 L 429 76 L 430 76 L 431 76 L 432 76 L 432 75 L 432 74 L 432 73 L 428 73 z M 431 76 C 430.44772 76 430 76.44772 430 77 C 430 77.55228 430.44772 78 431 78 C 431.55228 78 432 77.55228 432 77 C 432 76.44772 431.55228 76 431 76 z M 430 77 C 430 76.44772 429.55228 76 429 76 C 428.44772 76 428 76.44772 428 77 C 428 77.55228 428.44772 78 429 78 C 429.55228 78 430 77.55228 430 77 z "
         id="path3981" />
      <path
         style="display:inline;enable-background:accumulate;color:#000000;fill:#ffffff;fill-opacity:1;fill-rule:evenodd;stroke:none;stroke-width:0.89999998000000003;marker:none;visibility:visible;overflow:visible"
         d="M 429.5 104 C 425.9287 104 423 106.92931 423 110.5 L 423 112 L 427 112 L 427 110.5 C 427 109.09501 428.09501 108 429.5 108 C 430.90499 108 432 109.09501 432 110.5 C 432 111.90499 430.90499 113 429.5 113 L 428.5 113 L 427 113 L 423 113 L 420 113 L 420 115 L 420 117 L 423 117 L 427 117 L 428.5 117 L 429.5 117 C 433.0713 117 436 114.07069 436 110.5 C 436 106.92931 433.0713 104 429.5 104 z M 423 118 L 423 120 L 425 120 L 427 120 L 427 118 L 423 118 z "
         id="path4187" />
      <path
         id="path3903"
         d="m 348,45 c -10.46612,0 -19,8.53388 -19,19 l 0,5 4,0 0,-5 c 0,-8.30188 6.69812,-15 15,-15 8.30188,0 15,6.69812 15,15 0,8.30188 -6.69812,15 -15,15 l -1,0 -5,0 -1,0 -4,0 -4,0 -4,0 -1,0 -1,0 -2,0 -0.125,0 c -0.28482,-1.1509 -0.9947,-2 -1.8125,-2 0.8178,0 1.52768,-0.8491 1.8125,-2 l 0.125,0 2,0 1,0 1,0 4,0 4,0 4,0 1,0 5,0 1,0 c 6.09932,0 11,-4.90068 11,-11 0,-6.09932 -4.90068,-11 -11,-11 -6.09932,0 -11,4.90068 -11,11 l 0,5 4,0 0,-5 c 0,-4.01014 2.98986,-7.0625 7,-7.0625 4.01014,0 7.0625,3.05236 7.0625,7.0625 0,4.01014 -3.05236,7 -7.0625,7 l -1,0 -5,0 -1,0 -4,0 -4,0 -4,0 -1,0 -1,0 -2,0 -0.125,0 c -0.28482,-1.1509 -0.9947,-2 -1.8125,-2 L 315,69 l 0,2 -4,0 c -1.108,0 -2,0.892 -2,2 0,1.108 0.892,2 2,2 l 4,0 0,2 0,2 -4,0 c -1.108,0 -2,0.892 -2,2 0,1.108 0.892,2 2,2 l 4,0 0,2 8.0625,0 c 0.8178,0 1.52768,-0.8491 1.8125,-2 l 0.125,0 2,0 1,0 1,0 4,0 4,0 4,0 1,0 5,0 1,0 c 10.46612,0 19,-8.53388 19,-19 0,-10.46612 -8.53388,-19 -19,-19 z m -39,36 c 0,-1.108 -0.892,-2 -2,-2 -1.108,0 -2,0.892 -2,2 0,1.108 0.892,2 2,2 1.108,0 2,-0.892 2,-2 z m 0,-8 c 0,-1.108 -0.892,-2 -2,-2 -1.108,0 -2,0.892 -2,2 0,1.108 0.892,2 2,2 1.108,0 2,-0.892 2,-2 z m 20,12 0,2 0,0.125 c -1.1509,0.28482 -2,0.9947 -2,1.8125 l 0,8.0625 2,0 0,4 c 0,1.108 0.892,2 2,2 1.108,0 2,-0.892 2,-2 l 0,-4 2,0 2,0 0,4 c 0,1.108 0.892,2 2,2 1.108,0 2,-0.892 2,-2 l 0,-4 2,0 0,-8.0625 c 0,-0.8178 -0.8491,-1.52768 -2,-1.8125 l 0,-0.125 0,-2 -4,0 0,2 0,0.125 c -1.1509,0.28482 -2,0.9947 -2,1.8125 0,-0.8178 -0.8491,-1.52768 -2,-1.8125 l 0,-0.125 0,-2 -4,0 z m 10,18 c -1.108,0 -2,0.892 -2,2 0,1.108 0.892,2 2,2 1.108,0 2,-0.892 2,-2 0,-1.108 -0.892,-2 -2,-2 z m -8,0 c -1.108,0 -2,0.892 -2,2 0,1.108 0.892,2 2,2 1.108,0 2,-0.892 2,-2 0,-1.108 -0.892,-2 -2,-2 z"
         style="display:inline;enable-background:accumulate;color:#000000;fill:#ffffff;fill-opacity:1;fill-rule:evenodd;stroke:none;stroke-width:1;marker:none;visibility:visible;overflow:visible"
         inkscape:connector-curvature="0" />
      <path
         style="color:#000000;fill:#ffffff;fill-opacity:1;fill-rule:evenodd;stroke:none;stroke-width:0.89999998;marker:none;visibility:visible;display:inline;overflow:visible;enable-background:accumulate"
         d="M 425.75 142.5 C 423.68909 142.5 422 144.18909 422 146.25 L 422 147 L 424 147 L 424 146.25 C 424 145.27445 424.77445 144.5 425.75 144.5 C 426.72555 144.5 427.5 145.27445 427.5 146.25 C 427.5 147.22555 426.72555 148 425.75 148 L 425 148 L 424.5 148 L 424 148 L 422 148 L 421.5 148 L 421 148 L 420.5 148 L 420 148 L 420 148.5 L 420 149 L 420 149.5 L 420 150 L 420.5 150 L 421 150 L 421.5 150 L 422 150 L 424 150 L 424.5 150 L 425.5 150 L 425.75 150 C 427.81091 150 429.5 148.31091 429.5 146.25 C 429.5 144.18909 427.81091 142.5 425.75 142.5 z M 420 149.5 C 420 149.22386 419.77614 149 419.5 149 C 419.22386 149 419 149.22386 419 149.5 C 419 149.77614 419.22386 150 419.5 150 C 419.77614 150 420 149.77614 420 149.5 z M 419.5 149 C 419.77614 149 420 148.77614 420 148.5 C 420 148.22386 419.77614 148 419.5 148 C 419.22386 148 419 148.22386 419 148.5 C 419 148.77614 419.22386 149 419.5 149 z M 422 151 L 422 151.5 L 422 152 L 422.5 152 L 423 152 L 423.5 152 L 424 152 L 424 151.5 L 424 151 L 422 151 z M 423.5 152 C 423.22386 152 423 152.22386 423 152.5 C 423 152.77614 423.22386 153 423.5 153 C 423.77614 153 424 152.77614 424 152.5 C 424 152.22386 423.77614 152 423.5 152 z M 423 152.5 C 423 152.22386 422.77614 152 422.5 152 C 422.22386 152 422 152.22386 422 152.5 C 422 152.77614 422.22386 153 422.5 153 C 422.77614 153 423 152.77614 423 152.5 z "
         id="path3911" />
    </g>
    <g
       inkscape:groupmode="layer"
       id="layer5"
       inkscape:label="Highlights"
       style="display:inline"
       sodipodi:insensitive="true">
      <rect
         ry="9"
         y="307"
         x="-265"
         height="42"
         width="42"
         id="rect4884"
         style="color:#bebebe;display:inline;overflow:visible;visibility:visible;opacity:0.20;fill:none;stroke:#000000;stroke-width:2;stroke-miterlimit:4;stroke-dasharray:none;stroke-opacity:1;marker:none;enable-background:accumulate"
         transform="matrix(0,1,1,0,-16,488)"
         clip-path="url(#clipPath4891)" />
      <rect
         style="color:#bebebe;display:inline;overflow:visible;visibility:visible;opacity:0.20;fill:none;stroke:#000000;stroke-width:2;stroke-miterlimit:4;stroke-dasharray:none;stroke-opacity:1;marker:none;enable-background:accumulate"
         id="rect5311"
         width="16"
         height="16"
         x="-228"
         y="304"
         ry="3"
         clip-path="url(#clipPath3855)"
         transform="matrix(0,-1,1,0,112,-72)" />
      <rect
         ry="50"
         y="46"
         x="34"
         height="220"
         width="220"
         id="rect3858"
         style="color:#bebebe;display:inline;overflow:visible;visibility:visible;opacity:0.20;fill:none;stroke:#000000;stroke-width:2;stroke-miterlimit:4;stroke-dasharray:none;stroke-opacity:1;marker:none;enable-background:accumulate"
         clip-path="url(#clipPath3862)" />
      <rect
         ry="12.5"
         y="142"
         x="290"
         height="60"
         width="60"
         id="rect4175"
         style="color:#bebebe;display:inline;overflow:visible;visibility:visible;opacity:0.20;fill:none;stroke:#000000;stroke-width:2;stroke-miterlimit:4;stroke-dasharray:none;stroke-opacity:1;marker:none;enable-background:accumulate"
         clip-path="url(#clipPath4187)" />
      <rect
         style="color:#bebebe;display:inline;overflow:visible;visibility:visible;opacity:0.20;fill:none;stroke:#000000;stroke-width:2;stroke-miterlimit:4;stroke-dasharray:none;stroke-opacity:1;marker:none;enable-background:accumulate"
         id="rect4342"
         width="88"
         height="88"
         x="292"
         y="32"
         ry="18"
         clip-path="url(#clipPath4346)" />
      <rect
         ry="5"
         y="101"
         x="417"
         height="22"
         width="22"
         id="rect3866"
         style="color:#bebebe;display:inline;overflow:visible;visibility:visible;opacity:0.20;fill:none;stroke:#000000;stroke-width:2;stroke-miterlimit:4;stroke-dasharray:none;stroke-opacity:1;marker:none;enable-background:accumulate"
         clip-path="url(#clipPath3871)" />
      <rect
         style="color:#bebebe;display:inline;overflow:visible;visibility:visible;opacity:0.20;fill:none;stroke:#000000;stroke-width:2;stroke-miterlimit:4;stroke-dasharray:none;stroke-opacity:1;marker:none;enable-background:accumulate"
         id="rect3877"
         width="30"
         height="30"
         x="417"
         y="53"
         ry="7"
         clip-path="url(#clipPath3881)" />
    </g>
  </g>
</svg>
