<?xml version="1.0" encoding="UTF-8" standalone="no"?>
<!-- Created with Inkscape (http://www.inkscape.org/) -->

<svg
   xmlns:dc="http://purl.org/dc/elements/1.1/"
   xmlns:cc="http://creativecommons.org/ns#"
   xmlns:rdf="http://www.w3.org/1999/02/22-rdf-syntax-ns#"
   xmlns:svg="http://www.w3.org/2000/svg"
   xmlns="http://www.w3.org/2000/svg"
   xmlns:xlink="http://www.w3.org/1999/xlink"
   xmlns:sodipodi="http://sodipodi.sourceforge.net/DTD/sodipodi-0.dtd"
   xmlns:inkscape="http://www.inkscape.org/namespaces/inkscape"
   inkscape:export-ydpi="90.000000"
   inkscape:export-xdpi="90.000000"
   width="480"
   height="300"
   id="svg11300"
   sodipodi:version="0.32"
   inkscape:version="0.48.4 r9939"
   sodipodi:docname="pithos.svg"
   inkscape:output_extension="org.inkscape.output.svg.inkscape"
   version="1.0"
   style="display:inline;enable-background:new"
   inkscape:export-filename="/home/sam/moka2-template.png">
  <sodipodi:namedview
     stroke="#ef2929"
     fill="#f57900"
     id="base"
     pagecolor="#ffffff"
     bordercolor="#666666"
     borderopacity="0.25490196"
     inkscape:pageopacity="0"
     inkscape:pageshadow="2"
     inkscape:zoom="1"
     inkscape:cx="414.6916"
     inkscape:cy="162.46113"
     inkscape:current-layer="layer7"
     showgrid="false"
     inkscape:grid-bbox="true"
     inkscape:document-units="px"
     inkscape:showpageshadow="false"
     inkscape:window-width="1364"
     inkscape:window-height="702"
     inkscape:window-x="0"
     inkscape:window-y="27"
     width="400px"
     height="300px"
     inkscape:snap-nodes="true"
     inkscape:snap-bbox="true"
     gridtolerance="10000"
     inkscape:object-nodes="true"
     inkscape:snap-grids="true"
     showguides="true"
     inkscape:guide-bbox="true"
     inkscape:window-maximized="1"
     inkscape:bbox-nodes="true"
     inkscape:bbox-paths="true"
     inkscape:snap-bbox-edge-midpoints="true"
     inkscape:snap-bbox-midpoints="true">
    <inkscape:grid
       spacingy="1px"
       spacingx="1px"
       id="grid5883"
       type="xygrid"
       enabled="true"
       visible="true"
       empspacing="4"
       snapvisiblegridlinesonly="true"
       dotted="false"
       color="#000000"
       opacity="0.1254902"
       empcolor="#203ef3"
       empopacity="0.36470588" />
    <inkscape:grid
       type="xygrid"
       id="grid11592"
       empspacing="8"
       visible="true"
       enabled="false"
       spacingx="0.5px"
       spacingy="0.5px"
       color="#ff0000"
       opacity="0.1254902"
       empcolor="#ff0000"
       empopacity="0.25098039"
       snapvisiblegridlinesonly="true"
       dotted="true" />
  </sodipodi:namedview>
  <defs
     id="defs3">
    <linearGradient
       inkscape:collect="always"
       id="linearGradient3841">
      <stop
         style="stop-color:#204a87;stop-opacity:1"
         offset="0"
         id="stop3843" />
      <stop
         style="stop-color:#3465a4;stop-opacity:1"
         offset="1"
         id="stop3845" />
    </linearGradient>
    <linearGradient
       id="outerBackgroundGradient">
      <stop
         style="stop-color:#a89d8d;stop-opacity:1;"
         offset="0"
         id="stop3864-8-6" />
      <stop
         style="stop-color:#e9d8bd;stop-opacity:1;"
         offset="1"
         id="stop3866-9-1" />
    </linearGradient>
    <linearGradient
       inkscape:collect="always"
       xlink:href="#outerBackgroundGradient"
       id="linearGradient4097"
       gradientUnits="userSpaceOnUse"
       x1="264"
       y1="280.00003"
       x2="264"
       y2="40.00005"
       gradientTransform="matrix(0.06666667,0,0,0.06666667,414.4,137.33333)" />
    <linearGradient
       inkscape:collect="always"
       xlink:href="#outerBackgroundGradient"
       id="linearGradient4101"
       gradientUnits="userSpaceOnUse"
       gradientTransform="matrix(0.0875,0,0,0.0875,414.9,97.5)"
       x1="286.85715"
       y1="302.85715"
       x2="286.85715"
       y2="28.571428" />
    <linearGradient
       inkscape:collect="always"
       xlink:href="#outerBackgroundGradient"
       id="linearGradient4153"
       gradientUnits="userSpaceOnUse"
       gradientTransform="matrix(0.11931818,0,0,0.11931818,414.13636,48.22727)"
       x1="283.80957"
       y1="299.80954"
       x2="283.80957"
       y2="31.61907" />
    <linearGradient
       inkscape:collect="always"
       xlink:href="#outerBackgroundGradient"
       id="linearGradient4869"
       gradientUnits="userSpaceOnUse"
       gradientTransform="matrix(0.175,0,0,-0.175,286.79999,-215.99997)"
       x1="281.14291"
       y1="297.14304"
       x2="281.14291"
       y2="22.857315" />
    <clipPath
       clipPathUnits="userSpaceOnUse"
       id="clipPath4891">
      <rect
         ry="9"
         y="223"
         x="307"
         height="42"
         width="42"
         id="rect4893"
         style="color:#bebebe;fill:url(#linearGradient4895);fill-opacity:1;fill-rule:nonzero;stroke:none;stroke-width:0;marker:none;visibility:visible;display:inline;overflow:visible;enable-background:accumulate"
         transform="matrix(0,1,-1,0,0,0)" />
    </clipPath>
    <linearGradient
       inkscape:collect="always"
       xlink:href="#outerBackgroundGradient"
       id="linearGradient4895"
       gradientUnits="userSpaceOnUse"
       gradientTransform="matrix(0.175,0,0,0.175,302.79999,215.99997)"
       x1="144.00006"
       y1="280.00018"
       x2="144.00006"
       y2="40.000172" />
    <clipPath
       clipPathUnits="userSpaceOnUse"
       id="clipPath4044">
      <rect
         ry="4"
         y="85"
         x="433"
         height="22"
         width="22"
         id="rect4046"
         style="color:#bebebe;fill:url(#linearGradient4048);fill-opacity:1;fill-rule:nonzero;stroke:none;stroke-width:0;marker:none;visibility:visible;display:inline;overflow:visible;enable-background:accumulate" />
    </clipPath>
    <linearGradient
       inkscape:collect="always"
       xlink:href="#outerBackgroundGradient"
       id="linearGradient4048"
       gradientUnits="userSpaceOnUse"
       gradientTransform="matrix(0.0875,0,0,0.0875,430.9,81.499996)"
       x1="149.71428"
       y1="291.42862"
       x2="149.71428"
       y2="40.000046" />
    <clipPath
       clipPathUnits="userSpaceOnUse"
       id="clipPath4089">
      <rect
         style="color:#bebebe;fill:url(#linearGradient4093);fill-opacity:1;fill-rule:nonzero;stroke:none;stroke-width:0;marker:none;visibility:visible;display:inline;overflow:visible;enable-background:accumulate"
         id="rect4091"
         width="30"
         height="30"
         x="433"
         y="37"
         ry="6" />
    </clipPath>
    <linearGradient
       inkscape:collect="always"
       xlink:href="#outerBackgroundGradient"
       id="linearGradient4093"
       gradientUnits="userSpaceOnUse"
       gradientTransform="matrix(0.11931818,0,0,0.11931818,430.13636,32.227267)"
       x1="149.71432"
       y1="291.42862"
       x2="149.71432"
       y2="40.00005" />
    <clipPath
       clipPathUnits="userSpaceOnUse"
       id="clipPath3855">
      <rect
         style="color:#bebebe;fill:url(#linearGradient3859);fill-opacity:1;fill-rule:nonzero;stroke:none;stroke-width:0;marker:none;visibility:visible;display:inline;overflow:visible;enable-background:accumulate"
         id="rect3857"
         width="16"
         height="16"
         x="304"
         y="212"
         ry="3"
         transform="matrix(0,1,-1,0,0,0)" />
    </clipPath>
    <linearGradient
       inkscape:collect="always"
       xlink:href="#outerBackgroundGradient"
       id="linearGradient3859"
       gradientUnits="userSpaceOnUse"
       gradientTransform="matrix(0.06666667,0,0,0.06666667,302.4,209.33333)"
       x1="144"
       y1="280.00003"
       x2="144"
       y2="40.00005" />
    <clipPath
       clipPathUnits="userSpaceOnUse"
       id="clipPath3862">
      <rect
         ry="50"
         y="46"
         x="34"
         height="220"
         width="220"
         id="rect3864"
         style="color:#bebebe;fill:url(#linearGradient3866);fill-opacity:1;fill-rule:nonzero;stroke:none;stroke-width:0;marker:none;visibility:visible;display:inline;overflow:visible;enable-background:accumulate" />
    </clipPath>
    <linearGradient
       inkscape:collect="always"
       xlink:href="#outerBackgroundGradient"
       id="linearGradient3866"
       gradientUnits="userSpaceOnUse"
       gradientTransform="translate(0,-4)"
       x1="144"
       y1="280"
       x2="144"
       y2="40" />
    <linearGradient
       inkscape:collect="always"
       xlink:href="#outerBackgroundGradient"
       id="linearGradient3876"
       gradientUnits="userSpaceOnUse"
       gradientTransform="translate(0,-4)"
       x1="272"
       y1="288"
       x2="272"
       y2="32" />
    <clipPath
       clipPathUnits="userSpaceOnUse"
       id="clipPath4187">
      <rect
         ry="12.5"
         y="142"
         x="290"
         height="60"
         width="60"
         id="rect4189"
         style="color:#bebebe;fill:url(#linearGradient4191);fill-opacity:1;fill-rule:nonzero;stroke:none;stroke-width:0;marker:none;visibility:visible;display:inline;overflow:visible;enable-background:accumulate" />
    </clipPath>
    <linearGradient
       inkscape:collect="always"
       xlink:href="#outerBackgroundGradient"
       id="linearGradient4191"
       gradientUnits="userSpaceOnUse"
       x1="352"
       y1="204"
       x2="352"
       y2="140" />
    <linearGradient
       inkscape:collect="always"
       xlink:href="#outerBackgroundGradient"
       id="linearGradient4197"
       gradientUnits="userSpaceOnUse"
       x1="384"
       y1="124"
       x2="384"
       y2="28" />
    <linearGradient
       inkscape:collect="always"
       xlink:href="#outerBackgroundGradient"
       id="linearGradient4199"
       gradientUnits="userSpaceOnUse"
       x1="352"
       y1="204"
       x2="352"
       y2="140" />
    <clipPath
       clipPathUnits="userSpaceOnUse"
       id="clipPath4346">
      <rect
         style="color:#bebebe;fill:url(#linearGradient4350);fill-opacity:1;fill-rule:nonzero;stroke:none;stroke-width:0;marker:none;visibility:visible;display:inline;overflow:visible;enable-background:accumulate"
         id="rect4348"
         width="88"
         height="88"
         x="292"
         y="32"
         ry="18" />
    </clipPath>
    <linearGradient
       inkscape:collect="always"
       xlink:href="#outerBackgroundGradient"
       id="linearGradient4350"
       gradientUnits="userSpaceOnUse"
       x1="384"
       y1="124"
       x2="384"
       y2="28" />
    <clipPath
       clipPathUnits="userSpaceOnUse"
       id="clipPath3871">
      <rect
         ry="5"
         y="101"
         x="417"
         height="22"
         width="22"
         id="rect3873"
         style="color:#bebebe;fill:url(#linearGradient3875);fill-opacity:1;fill-rule:nonzero;stroke:none;stroke-width:0;marker:none;visibility:visible;display:inline;overflow:visible;enable-background:accumulate" />
    </clipPath>
    <linearGradient
       inkscape:collect="always"
       xlink:href="#outerBackgroundGradient"
       id="linearGradient3875"
       gradientUnits="userSpaceOnUse"
       gradientTransform="matrix(0.0875,0,0,0.0875,414.9,97.5)"
       x1="286.85715"
       y1="302.85715"
       x2="286.85715"
       y2="28.571428" />
    <clipPath
       clipPathUnits="userSpaceOnUse"
       id="clipPath3881">
      <rect
         style="color:#bebebe;fill:url(#linearGradient3885);fill-opacity:1;fill-rule:nonzero;stroke:none;stroke-width:0;marker:none;visibility:visible;display:inline;overflow:visible;enable-background:accumulate"
         id="rect3883"
         width="30"
         height="30"
         x="417"
         y="53"
         ry="7" />
    </clipPath>
    <linearGradient
       inkscape:collect="always"
       xlink:href="#outerBackgroundGradient"
       id="linearGradient3885"
       gradientUnits="userSpaceOnUse"
       gradientTransform="matrix(0.11931818,0,0,0.11931818,414.13636,48.22727)"
       x1="283.80957"
       y1="299.80954"
       x2="283.80957"
       y2="31.61907" />
    <linearGradient
       inkscape:collect="always"
       xlink:href="#linearGradient3841"
       id="linearGradient3870"
       x1="384"
       y1="124"
       x2="384"
       y2="28"
       gradientUnits="userSpaceOnUse" />
    <linearGradient
       inkscape:collect="always"
       xlink:href="#linearGradient3841"
       id="linearGradient3874"
       gradientUnits="userSpaceOnUse"
       x1="384"
       y1="124"
       x2="384"
       y2="28"
       gradientTransform="matrix(0.66666662,0,0,0.66666662,96.00002,121.33334)" />
    <linearGradient
       inkscape:collect="always"
       xlink:href="#linearGradient3841"
       id="linearGradient3878"
       gradientUnits="userSpaceOnUse"
       gradientTransform="matrix(0.46666664,0,0,0.46666664,155.20002,208.53334)"
       x1="384"
       y1="124"
       x2="384"
       y2="28" />
    <linearGradient
       inkscape:collect="always"
       xlink:href="#linearGradient3841"
       id="linearGradient3882"
       gradientUnits="userSpaceOnUse"
       x1="384"
       y1="124"
       x2="384"
       y2="28"
       gradientTransform="matrix(2.6666665,0,0,2.6666665,-751.99994,-46.666638)" />
    <linearGradient
       inkscape:collect="always"
       xlink:href="#linearGradient3841"
       id="linearGradient3886"
       gradientUnits="userSpaceOnUse"
       x1="384"
       y1="124"
       x2="384"
       y2="28"
       gradientTransform="matrix(0.33333331,0,0,0.33333331,320.00001,42.666671)" />
    <linearGradient
       inkscape:collect="always"
       xlink:href="#linearGradient3841"
       id="linearGradient3890"
       gradientUnits="userSpaceOnUse"
       gradientTransform="matrix(0.23333334,0,0,0.23333334,349.6,94.266668)"
       x1="384"
       y1="124"
       x2="384"
       y2="28" />
    <linearGradient
       inkscape:collect="always"
       xlink:href="#linearGradient3841"
       id="linearGradient3894"
       gradientUnits="userSpaceOnUse"
       gradientTransform="matrix(0.16666672,0,0,0.16666672,367.99998,135.33333)"
       x1="384"
       y1="124"
       x2="384"
       y2="28" />
  </defs>
  <metadata
     id="metadata4">
    <rdf:RDF>
      <cc:Work
         rdf:about="">
        <dc:format>image/svg+xml</dc:format>
        <dc:type
           rdf:resource="http://purl.org/dc/dcmitype/StillImage" />
        <dc:creator>
          <cc:Agent>
            <dc:title>Sam Hewitt</dc:title>
          </cc:Agent>
        </dc:creator>
        <dc:source />
        <cc:license
           rdf:resource="" />
        <dc:title />
        <dc:subject>
          <rdf:Bag />
        </dc:subject>
        <dc:date />
        <dc:rights>
          <cc:Agent>
            <dc:title />
          </cc:Agent>
        </dc:rights>
        <dc:publisher>
          <cc:Agent>
            <dc:title />
          </cc:Agent>
        </dc:publisher>
        <dc:identifier />
        <dc:relation />
        <dc:language />
        <dc:coverage />
        <dc:description />
        <dc:contributor>
          <cc:Agent>
            <dc:title />
          </cc:Agent>
        </dc:contributor>
      </cc:Work>
      <cc:Work
         rdf:about="">
        <dc:format>image/svg+xml</dc:format>
        <dc:type
           rdf:resource="http://purl.org/dc/dcmitype/StillImage" />
      </cc:Work>
    </rdf:RDF>
  </metadata>
  <g
     style="display:inline"
     inkscape:groupmode="layer"
     inkscape:label="Icon"
     id="layer1">
    <g
       style="display:none"
       inkscape:label="Baseplate"
       id="layer7"
       inkscape:groupmode="layer">
      <text
         y="19.745117"
         xml:space="preserve"
         x="15.006836"
         style="font-size:18px;font-style:normal;font-variant:normal;font-weight:normal;font-stretch:normal;fill:#000000;fill-opacity:1;stroke:none;display:inline;enable-background:new;font-family:DejaVu Sans;-inkscape-font-specification:DejaVu Sans"
         inkscape:label="context"
         id="context"><tspan
           style="font-style:normal;font-variant:normal;font-weight:normal;font-stretch:normal;font-family:DejaVu Sans;-inkscape-font-specification:DejaVu Sans"
           y="19.745117"
           x="15.006836"
           sodipodi:role="line"
           id="tspan3933">apps</tspan></text>
      <text
         y="19.745117"
         xml:space="preserve"
         x="122.48828"
         style="font-size:18px;font-style:normal;font-variant:normal;font-weight:bold;font-stretch:normal;text-align:start;line-height:125%;writing-mode:lr-tb;text-anchor:start;fill:#000000;fill-opacity:1;stroke:none;display:inline;enable-background:new;font-family:DejaVu Sans;-inkscape-font-specification:DejaVu Sans Bold"
         sodipodi:linespacing="125%"
         inkscape:label="icon-name"
         id="icon-name"><tspan
           style="font-size:18px;font-style:normal;font-variant:normal;font-weight:bold;font-stretch:normal;font-family:DejaVu Sans;-inkscape-font-specification:DejaVu Sans Bold"
           y="19.745117"
           x="122.48828"
           sodipodi:role="line"
           id="tspan3937">pithos</tspan></text>
      <rect
         style="fill:#eeeeec;fill-opacity:1;fill-rule:nonzero;stroke:none;stroke-width:2;marker:none;visibility:visible;display:inline;overflow:visible;enable-background:accumulate"
         id="rect16x16"
         width="16"
         height="16"
         x="416"
         y="140"
         inkscape:label="16x16" />
      <rect
         style="fill:#d4d4d4;fill-opacity:1;fill-rule:nonzero;stroke:none;stroke-width:2;marker:none;visibility:visible;display:inline;overflow:visible;enable-background:accumulate"
         id="rect24x24"
         width="24"
         height="24"
         x="416"
         y="100"
         inkscape:label="24x24" />
      <rect
         style="fill:#eeeeec;fill-opacity:1;fill-rule:nonzero;stroke:none;stroke-width:2;marker:none;visibility:visible;display:inline;overflow:visible;enable-background:accumulate"
         id="rect32x32"
         width="32"
         height="32"
         x="416"
         y="52"
         inkscape:label="32x32" />
      <rect
         inkscape:label="22x22"
         y="101"
         x="417"
         height="22"
         width="22"
         id="rect22x22"
         style="fill:#eeeeec;fill-opacity:1;fill-rule:nonzero;stroke:none;stroke-width:2;marker:none;visibility:visible;display:inline;overflow:visible;enable-background:accumulate" />
      <rect
         inkscape:label="48x48"
         y="220"
         x="288"
         height="48"
         width="48"
         id="rect48x48"
         style="fill:#eeeeec;fill-opacity:1;fill-rule:nonzero;stroke:none;stroke-width:2;marker:none;visibility:visible;display:inline;overflow:visible;enable-background:accumulate" />
      <rect
         style="fill:#eeeeec;fill-opacity:1;fill-rule:nonzero;stroke:none;stroke-width:2;marker:none;visibility:visible;display:inline;overflow:visible;enable-background:accumulate"
         id="rect256x256"
         width="256"
         height="256"
         x="16"
         y="28"
         inkscape:label="256x256" />
      <rect
         style="fill:#eeeeec;fill-opacity:1;fill-rule:nonzero;stroke:none;stroke-width:2;marker:none;visibility:visible;display:inline;overflow:visible;enable-background:accumulate"
         id="rect64x64"
         width="64"
         height="64"
         x="288"
         y="140"
         inkscape:label="64x64" />
      <rect
         style="fill:#eeeeec;fill-opacity:1;fill-rule:nonzero;stroke:none;stroke-width:2;marker:none;visibility:visible;display:inline;overflow:visible;enable-background:accumulate"
         id="rect96x96"
         width="96"
         height="96"
         x="288"
         y="28"
         inkscape:label="96x96" />
    </g>
    <g
       inkscape:groupmode="layer"
       id="layer4"
       inkscape:label="Shadow"
       style="display:inline"
       sodipodi:insensitive="true">
      <rect
         style="opacity:0.0;color:#bebebe;fill:#000000;fill-opacity:1;stroke:#000000;stroke-width:1;stroke-miterlimit:4;stroke-opacity:1;stroke-dasharray:none;marker:none;visibility:visible;display:inline;overflow:visible;enable-background:accumulate"
         id="rect4156"
         width="42"
         height="42"
         x="-266.5"
         y="291"
         ry="9"
         transform="matrix(0,-1,1,0,0,0)" />
      <rect
         transform="matrix(0,-1,1,0,0,0)"
         ry="9"
         y="291"
         x="-266.5"
         height="42"
         width="40"
         id="rect4183"
         style="opacity:0.1;color:#bebebe;fill:#000000;fill-opacity:1;stroke:none;stroke-width:1;marker:none;visibility:visible;display:inline;overflow:visible;enable-background:accumulate" />
      <rect
         ry="9"
         y="237"
         x="291"
         height="29"
         width="42"
         id="rect4144"
         style="opacity:0.1;color:#bebebe;fill:#000000;fill-opacity:1;fill-rule:nonzero;stroke:none;stroke-width:0;marker:none;visibility:visible;display:inline;overflow:visible;enable-background:accumulate" />
      <rect
         style="opacity:0.0;color:#bebebe;fill:#000000;fill-opacity:1;fill-rule:nonzero;stroke:#000000;stroke-width:1;stroke-miterlimit:4;stroke-opacity:1;stroke-dasharray:none;marker:none;visibility:visible;display:inline;overflow:visible;enable-background:accumulate"
         id="rect4340"
         width="88"
         height="88"
         x="292"
         y="33.5"
         ry="18" />
      <rect
         ry="18"
         y="52.5"
         x="292"
         height="69"
         width="88"
         id="rect4338"
         style="opacity:0.1;color:#bebebe;fill:#000000;fill-opacity:1;fill-rule:nonzero;stroke:none;stroke-width:0;marker:none;visibility:visible;display:inline;overflow:visible;enable-background:accumulate" />
      <rect
         style="opacity:0.1;color:#bebebe;fill:#000000;fill-opacity:1;fill-rule:nonzero;stroke:none;stroke-width:0;marker:none;visibility:visible;display:inline;overflow:visible;enable-background:accumulate"
         id="rect4335"
         width="88"
         height="76.5"
         x="292"
         y="44.5"
         ry="18" />
      <rect
         style="opacity:0.0;color:#bebebe;fill:#000000;fill-opacity:1;fill-rule:nonzero;stroke:#000000;stroke-width:1;stroke-miterlimit:4;stroke-opacity:1;stroke-dasharray:none;marker:none;visibility:visible;display:inline;overflow:visible;enable-background:accumulate"
         id="rect4214"
         width="60"
         height="60"
         x="290"
         y="143.5"
         ry="12.5" />
      <rect
         ry="12.5"
         y="151.5"
         x="290"
         height="52"
         width="60"
         id="rect4206"
         style="opacity:0.1;color:#bebebe;fill:#000000;fill-opacity:1;fill-rule:nonzero;stroke:none;stroke-width:0;marker:none;visibility:visible;display:inline;overflow:visible;enable-background:accumulate" />
      <rect
         style="opacity:0.1;color:#bebebe;fill:#000000;fill-opacity:1;fill-rule:nonzero;stroke:none;stroke-width:0;marker:none;visibility:visible;display:inline;overflow:visible;enable-background:accumulate"
         id="rect4212"
         width="60"
         height="54.5"
         x="290"
         y="148.5"
         ry="12.5" />
      <rect
         style="opacity:0.2;color:#bebebe;fill:#000000;fill-opacity:1;fill-rule:nonzero;stroke:none;stroke-width:0;marker:none;visibility:visible;display:inline;overflow:visible;enable-background:accumulate"
         id="rect4058"
         width="30"
         height="30"
         x="417"
         y="54"
         ry="7" />
      <rect
         ry="50"
         y="48"
         x="34"
         height="220"
         width="220"
         id="rect3872"
         style="opacity:0.0;color:#bebebe;fill:#000000;fill-opacity:1;fill-rule:nonzero;stroke:#000000;stroke-width:2;stroke-miterlimit:4;stroke-opacity:1;stroke-dasharray:none;marker:none;visibility:visible;display:inline;overflow:visible;enable-background:accumulate" />
      <rect
         style="opacity:0.1;color:#bebebe;fill:#000000;fill-opacity:1;fill-rule:nonzero;stroke:none;stroke-width:0;marker:none;visibility:visible;display:inline;overflow:visible;enable-background:accumulate"
         id="rect3870"
         width="220"
         height="220"
         x="34"
         y="48"
         ry="50" />
      <rect
         ry="50"
         y="47"
         x="34"
         height="220"
         width="220"
         id="rect3868"
         style="opacity:0.1;color:#bebebe;fill:#000000;fill-opacity:1;fill-rule:nonzero;stroke:none;stroke-width:0;marker:none;visibility:visible;display:inline;overflow:visible;enable-background:accumulate" />
    </g>
    <g
       inkscape:groupmode="layer"
       id="layer2"
       inkscape:label="Background"
       style="display:inline">
      <rect
         style="color:#bebebe;fill:url(#linearGradient3876);fill-opacity:1;fill-rule:nonzero;stroke:none;stroke-width:0;marker:none;visibility:visible;display:inline;overflow:visible;enable-background:accumulate"
         id="rect4040"
         width="220"
         height="220"
         x="34"
         y="46"
         ry="50" />
      <rect
         ry="3"
         y="140"
         x="416"
         height="16"
         width="16"
         id="rect4095"
         style="color:#bebebe;fill:url(#linearGradient4097);fill-opacity:1;fill-rule:nonzero;stroke:none;stroke-width:0;marker:none;visibility:visible;display:inline;overflow:visible;enable-background:accumulate" />
      <rect
         style="color:#bebebe;fill:url(#linearGradient4101);fill-opacity:1;fill-rule:nonzero;stroke:none;stroke-width:0;marker:none;visibility:visible;display:inline;overflow:visible;enable-background:accumulate"
         id="rect4099"
         width="22"
         height="22"
         x="417"
         y="101"
         ry="5" />
      <rect
         ry="7"
         y="53"
         x="417"
         height="30"
         width="30"
         id="rect4151"
         style="color:#bebebe;fill:url(#linearGradient4153);fill-opacity:1;fill-rule:nonzero;stroke:none;stroke-width:0;marker:none;visibility:visible;display:inline;overflow:visible;enable-background:accumulate" />
      <rect
         style="color:#bebebe;fill:url(#linearGradient4869);fill-opacity:1;fill-rule:nonzero;stroke:none;stroke-width:0;marker:none;visibility:visible;display:inline;overflow:visible;enable-background:accumulate"
         id="rect4783"
         width="42"
         height="42"
         x="291"
         y="-265"
         ry="9"
         transform="scale(1,-1)" />
      <rect
         ry="18"
         y="32"
         x="292"
         height="88"
         width="88"
         id="rect4511"
         style="color:#bebebe;fill:url(#linearGradient4197);fill-opacity:1;fill-rule:nonzero;stroke:none;stroke-width:0;marker:none;visibility:visible;display:inline;overflow:visible;enable-background:accumulate" />
      <rect
         style="color:#bebebe;fill:url(#linearGradient4199);fill-opacity:1;fill-rule:nonzero;stroke:none;stroke-width:0;marker:none;visibility:visible;display:inline;overflow:visible;enable-background:accumulate"
         id="rect4515"
         width="60"
         height="60"
         x="290"
         y="142"
         ry="12.5" />
    </g>
    <g
       inkscape:groupmode="layer"
       id="layer6"
       inkscape:label="Symbols"
       style="display:inline">
      <path
         d="m 339.34111,47.20266 c -1.59385,4.32249 -1.11304,9.482802 -1.93582,14.114178 -0.7903,7.640159 -1.58061,15.280309 -2.37092,22.920469 -7.73618,-5.83033 -20.29319,1.36025 -19.11215,11.04259 0.16872,9.286533 12.29226,15.223223 19.70892,9.423703 6.94902,-5.702213 5.11456,-15.684193 6.41496,-23.598563 0.64516,-7.15758 1.29032,-14.31516 1.93547,-21.472736 3.20876,5.022536 7.75438,12.083566 3.15094,17.646936 -3.10651,2.33298 -0.79423,8.50132 3.21476,6.30921 6.84774,-4.65395 7.51713,-15.45434 2.65922,-21.85245 -3.60964,-4.777294 -7.83894,-9.177908 -11.85443,-13.647251 -0.5148,-0.299633 -1.07716,-1.578258 -1.81095,-0.886086 z"
         id="path3896"
         style="opacity:0.2;fill:#ffffff;fill-opacity:1;stroke:none"
         inkscape:connector-curvature="0" />
      <path
         inkscape:connector-curvature="0"
         style="opacity:0.2;fill:#ffffff;fill-opacity:1;stroke:none"
         id="path3898"
         d="m 322.22741,153.13511 c -1.06257,2.88166 -0.74203,6.32187 -1.29055,9.40945 -0.52687,5.09344 -1.05374,10.18687 -1.58061,15.28031 -5.15746,-3.88688 -13.5288,0.90684 -12.74144,7.36173 0.11248,6.19102 8.19484,10.14881 13.13928,6.28247 4.63268,-3.80148 3.40971,-10.45613 4.27664,-15.73238 0.43011,-4.77172 0.86022,-9.54344 1.29032,-14.31515 2.13917,3.34835 5.16958,8.05571 2.10062,11.76462 -2.071,1.55532 -0.52949,5.66755 2.14317,4.20614 4.56516,-3.10263 5.01142,-10.30289 1.77282,-14.5683 -2.40643,-3.18486 -5.22596,-6.1186 -7.90295,-9.09817 -0.3432,-0.19975 -0.71811,-1.05217 -1.2073,-0.59072 z" />
      <path
         d="m 313.55919,231.09458 c -0.7438,2.01716 -0.51942,4.42531 -0.90338,6.58661 -0.36881,3.56541 -0.73762,7.13081 -1.10643,10.69622 -3.61022,-2.72082 -9.47016,0.63479 -8.91901,5.15321 0.0787,4.33371 5.73639,7.10417 9.1975,4.39773 3.24287,-2.66104 2.38679,-7.31929 2.99365,-11.01267 0.30107,-3.3402 0.60215,-6.68041 0.90322,-10.0206 1.49742,2.34384 3.61871,5.63899 1.47043,8.23523 -1.4497,1.08873 -0.37064,3.96729 1.50022,2.9443 3.19561,-2.17184 3.508,-7.21202 1.24098,-10.19781 -1.6845,-2.2294 -3.65818,-4.28302 -5.53207,-6.36872 -0.24024,-0.13982 -0.50268,-0.73652 -0.84511,-0.4135 z"
         id="path3900"
         style="opacity:0.2;fill:#ffffff;fill-opacity:1;stroke:none"
         inkscape:connector-curvature="0" />
      <path
         inkscape:connector-curvature="0"
         style="opacity:0.2;fill:#ffffff;fill-opacity:1;stroke:none"
         id="path3902"
         d="m 152.90962,77.540443 c -4.25026,11.52664 -2.9681,25.287467 -5.16218,37.637807 -2.10747,20.37376 -4.21496,40.74749 -6.32245,61.12125 -20.62982,-15.54755 -54.115169,3.62733 -50.965729,29.4469 0.44992,24.76409 32.779349,40.59526 52.557109,25.12987 18.53072,-15.2059 13.63883,-41.82451 17.10656,-62.92949 1.72043,-19.08688 3.44085,-38.17376 5.16125,-57.26063 8.5567,13.39343 20.67835,32.22284 8.40251,47.05849 -8.28403,6.22128 -2.11795,22.67019 8.57269,16.82456 18.26064,-12.41053 20.04568,-41.21157 7.09126,-58.27319 -9.62571,-12.73945 -20.90384,-24.474424 -31.61182,-36.392671 -1.3728,-0.799021 -2.87242,-4.208688 -4.8292,-2.362896 z" />
      <path
         inkscape:connector-curvature="0"
         style="opacity:0.2;fill:#ffffff;fill-opacity:1;stroke:none"
         id="path3904"
         d="m 433.1137,59.067557 c -0.53128,1.44083 -0.37101,3.160934 -0.64527,4.704725 -0.26343,2.54672 -0.52687,5.093436 -0.79031,7.640156 -2.57872,-1.943443 -6.76439,0.453417 -6.37071,3.680866 0.0562,3.09551 4.09742,5.0744 6.56964,3.14123 2.31634,-1.90074 1.70485,-5.22806 2.13832,-7.866186 0.21505,-2.385859 0.4301,-4.771719 0.64515,-7.157578 1.06959,1.674179 2.5848,4.027855 1.05032,5.882312 -1.03551,0.77766 -0.26475,2.833773 1.07158,2.10307 2.28258,-1.551317 2.50571,-5.151447 0.88641,-7.28415 -1.20321,-1.592431 -2.61298,-3.059302 -3.95148,-4.549083 -0.1716,-0.09988 -0.35905,-0.526086 -0.60365,-0.295362 z" />
      <path
         d="m 428.77959,106.04729 c -0.37189,1.00858 -0.2597,2.21265 -0.45168,3.29331 -0.18441,1.7827 -0.36881,3.5654 -0.55322,5.34811 -1.80511,-1.36041 -4.73508,0.31739 -4.4595,2.5766 0.0393,2.16686 2.8682,3.55208 4.59875,2.19886 1.62144,-1.33051 1.19339,-3.65964 1.49682,-5.50633 0.15054,-1.6701 0.30107,-3.3402 0.45161,-5.0103 0.74871,1.17192 1.80936,2.8195 0.73522,4.11762 -0.72485,0.54436 -0.18532,1.98364 0.75011,1.47215 1.5978,-1.08593 1.754,-3.60602 0.62049,-5.09891 -0.84225,-1.1147 -1.82909,-2.14151 -2.76604,-3.18436 -0.12012,-0.0699 -0.25134,-0.36826 -0.42256,-0.20675 z"
         id="path3906"
         style="opacity:0.2;fill:#ffffff;fill-opacity:1;stroke:none"
         inkscape:connector-curvature="0" />
      <path
         inkscape:connector-curvature="0"
         style="opacity:0.2;fill:#ffffff;fill-opacity:1;stroke:none"
         id="path3908"
         d="m 424.55684,144.03377 c -0.26563,0.72042 -0.1855,1.58047 -0.32262,2.35237 -0.13173,1.27336 -0.26344,2.54671 -0.39516,3.82008 -1.28937,-0.97172 -3.3822,0.22671 -3.18536,1.84043 0.0281,1.54776 2.04872,2.5372 3.28482,1.57061 1.15817,-0.95036 0.85242,-2.61403 1.06916,-3.93309 0.10753,-1.19293 0.21505,-2.38586 0.32258,-3.57879 0.53479,0.83709 1.2924,2.01393 0.52516,2.94116 -0.51775,0.38883 -0.13238,1.41689 0.53579,1.05154 1.14129,-0.77567 1.25286,-2.57573 0.44321,-3.64208 -0.60161,-0.79622 -1.3065,-1.52965 -1.97575,-2.27455 -0.0858,-0.0499 -0.17953,-0.26304 -0.30183,-0.14768 z" />
      <path
         inkscape:connector-curvature="0"
         style="fill:url(#linearGradient3870);fill-opacity:1;stroke:none"
         id="path9681"
         d="m 339.34111,46.20266 c -1.59385,4.32249 -1.11304,9.482802 -1.93582,14.114178 -0.7903,7.640159 -1.58061,15.280309 -2.37092,22.920469 -7.73618,-5.83033 -20.29319,1.36025 -19.11215,11.04259 0.16872,9.286533 12.29226,15.223223 19.70892,9.423703 6.94902,-5.702213 5.11456,-15.684193 6.41496,-23.598563 0.64516,-7.15758 1.29032,-14.31516 1.93547,-21.472736 3.20876,5.022536 7.75438,12.083566 3.15094,17.646936 -3.10651,2.33298 -0.79423,8.50132 3.21476,6.30921 6.84774,-4.65395 7.51713,-15.45434 2.65922,-21.85245 -3.60964,-4.777294 -7.83894,-9.177908 -11.85443,-13.647251 -0.5148,-0.299633 -1.07716,-1.578258 -1.81095,-0.886086 z" />
      <path
         d="m 322.22741,152.13511 c -1.06257,2.88166 -0.74203,6.32187 -1.29055,9.40945 -0.52687,5.09344 -1.05374,10.18687 -1.58061,15.28031 -5.15746,-3.88688 -13.5288,0.90684 -12.74144,7.36173 0.11248,6.19102 8.19484,10.14881 13.13928,6.28247 4.63268,-3.80148 3.40971,-10.45613 4.27664,-15.73238 0.43011,-4.77172 0.86022,-9.54344 1.29032,-14.31515 2.13917,3.34835 5.16958,8.05571 2.10062,11.76462 -2.071,1.55532 -0.52949,5.66755 2.14317,4.20614 4.56516,-3.10263 5.01142,-10.30289 1.77282,-14.5683 -2.40643,-3.18486 -5.22596,-6.1186 -7.90295,-9.09817 -0.3432,-0.19975 -0.71811,-1.05217 -1.2073,-0.59072 z"
         id="path3872"
         style="fill:url(#linearGradient3874);fill-opacity:1;stroke:none"
         inkscape:connector-curvature="0" />
      <path
         inkscape:connector-curvature="0"
         style="fill:url(#linearGradient3878);fill-opacity:1;stroke:none"
         id="path3876"
         d="m 313.55919,230.09458 c -0.7438,2.01716 -0.51942,4.42531 -0.90338,6.58661 -0.36881,3.56541 -0.73762,7.13081 -1.10643,10.69622 -3.61022,-2.72082 -9.47016,0.63479 -8.91901,5.15321 0.0787,4.33371 5.73639,7.10417 9.1975,4.39773 3.24287,-2.66104 2.38679,-7.31929 2.99365,-11.01267 0.30107,-3.3402 0.60215,-6.68041 0.90322,-10.0206 1.49742,2.34384 3.61871,5.63899 1.47043,8.23523 -1.4497,1.08873 -0.37064,3.96729 1.50022,2.9443 3.19561,-2.17184 3.508,-7.21202 1.24098,-10.19781 -1.6845,-2.2294 -3.65818,-4.28302 -5.53207,-6.36872 -0.24024,-0.13982 -0.50268,-0.73652 -0.84511,-0.4135 z" />
      <path
         d="m 152.90962,76.540443 c -4.25026,11.52664 -2.9681,25.287467 -5.16218,37.637807 -2.10747,20.37376 -4.21496,40.74749 -6.32245,61.12125 -20.62982,-15.54755 -54.115169,3.62733 -50.965729,29.4469 0.44992,24.76409 32.779349,40.59526 52.557109,25.12987 18.53072,-15.2059 13.63883,-41.82451 17.10656,-62.92949 1.72043,-19.08688 3.44085,-38.17376 5.16125,-57.26063 8.5567,13.39343 20.67835,32.22284 8.40251,47.05849 -8.28403,6.22128 -2.11795,22.67019 8.57269,16.82456 18.26064,-12.41053 20.04568,-41.21157 7.09126,-58.27319 -9.62571,-12.73945 -20.90384,-24.474424 -31.61182,-36.392671 -1.3728,-0.799021 -2.87242,-4.208688 -4.8292,-2.362896 z"
         id="path3880"
         style="fill:url(#linearGradient3882);fill-opacity:1;stroke:none"
         inkscape:connector-curvature="0" />
      <path
         d="m 433.1137,58.067557 c -0.53128,1.44083 -0.37101,3.160934 -0.64527,4.704725 -0.26343,2.54672 -0.52687,5.093436 -0.79031,7.640156 -2.57872,-1.943443 -6.76439,0.453417 -6.37071,3.680866 0.0562,3.09551 4.09742,5.0744 6.56964,3.14123 2.31634,-1.90074 1.70485,-5.22806 2.13832,-7.866186 0.21505,-2.385859 0.4301,-4.771719 0.64515,-7.157578 1.06959,1.674179 2.5848,4.027855 1.05032,5.882312 -1.03551,0.77766 -0.26475,2.833773 1.07158,2.10307 2.28258,-1.551317 2.50571,-5.151447 0.88641,-7.28415 -1.20321,-1.592431 -2.61298,-3.059302 -3.95148,-4.549083 -0.1716,-0.09988 -0.35905,-0.526086 -0.60365,-0.295362 z"
         id="path3884"
         style="fill:url(#linearGradient3886);fill-opacity:1;stroke:none"
         inkscape:connector-curvature="0" />
      <path
         inkscape:connector-curvature="0"
         style="fill:url(#linearGradient3890);fill-opacity:1;stroke:none"
         id="path3888"
         d="m 428.77959,105.04729 c -0.37189,1.00858 -0.2597,2.21265 -0.45168,3.29331 -0.18441,1.7827 -0.36881,3.5654 -0.55322,5.34811 -1.80511,-1.36041 -4.73508,0.31739 -4.4595,2.5766 0.0393,2.16686 2.8682,3.55208 4.59875,2.19886 1.62144,-1.33051 1.19339,-3.65964 1.49682,-5.50633 0.15054,-1.6701 0.30107,-3.3402 0.45161,-5.0103 0.74871,1.17192 1.80936,2.8195 0.73522,4.11762 -0.72485,0.54436 -0.18532,1.98364 0.75011,1.47215 1.5978,-1.08593 1.754,-3.60602 0.62049,-5.09891 -0.84225,-1.1147 -1.82909,-2.14151 -2.76604,-3.18436 -0.12012,-0.0699 -0.25134,-0.36826 -0.42256,-0.20675 z" />
      <path
         d="m 424.55684,143.03377 c -0.26563,0.72042 -0.1855,1.58047 -0.32262,2.35237 -0.13173,1.27336 -0.26344,2.54671 -0.39516,3.82008 -1.28937,-0.97172 -3.3822,0.22671 -3.18536,1.84043 0.0281,1.54776 2.04872,2.5372 3.28482,1.57061 1.15817,-0.95036 0.85242,-2.61403 1.06916,-3.93309 0.10753,-1.19293 0.21505,-2.38586 0.32258,-3.57879 0.53479,0.83709 1.2924,2.01393 0.52516,2.94116 -0.51775,0.38883 -0.13238,1.41689 0.53579,1.05154 1.14129,-0.77567 1.25286,-2.57573 0.44321,-3.64208 -0.60161,-0.79622 -1.3065,-1.52965 -1.97575,-2.27455 -0.0858,-0.0499 -0.17953,-0.26304 -0.30183,-0.14768 z"
         id="path3892"
         style="fill:url(#linearGradient3894);fill-opacity:1;stroke:none"
         inkscape:connector-curvature="0" />
    </g>
    <g
       inkscape:groupmode="layer"
       id="layer5"
       inkscape:label="Highlights"
       style="display:inline"
       sodipodi:insensitive="true">
      <rect
         ry="9"
         y="307"
         x="-265"
         height="42"
         width="42"
         id="rect4884"
         style="opacity:0.20;color:#bebebe;fill:none;stroke:#000000;stroke-width:2;stroke-miterlimit:4;stroke-opacity:1;stroke-dasharray:none;marker:none;visibility:visible;display:inline;overflow:visible;enable-background:accumulate"
         transform="matrix(0,1,1,0,-16,488)"
         clip-path="url(#clipPath4891)" />
      <rect
         style="opacity:0.20;color:#bebebe;fill:none;stroke:#000000;stroke-width:2;stroke-miterlimit:4;stroke-opacity:1;stroke-dasharray:none;marker:none;visibility:visible;display:inline;overflow:visible;enable-background:accumulate"
         id="rect5311"
         width="16"
         height="16"
         x="-228"
         y="304"
         ry="3"
         clip-path="url(#clipPath3855)"
         transform="matrix(0,-1,1,0,112,-72)" />
      <rect
         ry="50"
         y="46"
         x="34"
         height="220"
         width="220"
         id="rect3858"
         style="opacity:0.20;color:#bebebe;fill:none;stroke:#000000;stroke-width:2;stroke-miterlimit:4;stroke-opacity:1;stroke-dasharray:none;marker:none;visibility:visible;display:inline;overflow:visible;enable-background:accumulate"
         clip-path="url(#clipPath3862)" />
      <rect
         ry="12.5"
         y="142"
         x="290"
         height="60"
         width="60"
         id="rect4175"
         style="opacity:0.20;color:#bebebe;fill:none;stroke:#000000;stroke-width:2;stroke-miterlimit:4;stroke-opacity:1;stroke-dasharray:none;marker:none;visibility:visible;display:inline;overflow:visible;enable-background:accumulate"
         clip-path="url(#clipPath4187)" />
      <rect
         style="opacity:0.20;color:#bebebe;fill:none;stroke:#000000;stroke-width:2;stroke-miterlimit:4;stroke-opacity:1;stroke-dasharray:none;marker:none;visibility:visible;display:inline;overflow:visible;enable-background:accumulate"
         id="rect4342"
         width="88"
         height="88"
         x="292"
         y="32"
         ry="18"
         clip-path="url(#clipPath4346)" />
      <rect
         ry="5"
         y="101"
         x="417"
         height="22"
         width="22"
         id="rect3866"
         style="opacity:0.20;color:#bebebe;fill:none;stroke:#000000;stroke-width:2;stroke-miterlimit:4;stroke-opacity:1;stroke-dasharray:none;marker:none;visibility:visible;display:inline;overflow:visible;enable-background:accumulate"
         clip-path="url(#clipPath3871)" />
      <rect
         style="opacity:0.20;color:#bebebe;fill:none;stroke:#000000;stroke-width:2;stroke-miterlimit:4;stroke-opacity:1;stroke-dasharray:none;marker:none;visibility:visible;display:inline;overflow:visible;enable-background:accumulate"
         id="rect3877"
         width="30"
         height="30"
         x="417"
         y="53"
         ry="7"
         clip-path="url(#clipPath3881)" />
    </g>
  </g>
</svg>
