<?xml version="1.0" encoding="UTF-8" standalone="no"?>
<!-- Created with Inkscape (http://www.inkscape.org/) -->

<svg
   xmlns:dc="http://purl.org/dc/elements/1.1/"
   xmlns:cc="http://creativecommons.org/ns#"
   xmlns:rdf="http://www.w3.org/1999/02/22-rdf-syntax-ns#"
   xmlns:svg="http://www.w3.org/2000/svg"
   xmlns="http://www.w3.org/2000/svg"
   xmlns:xlink="http://www.w3.org/1999/xlink"
   xmlns:sodipodi="http://sodipodi.sourceforge.net/DTD/sodipodi-0.dtd"
   xmlns:inkscape="http://www.inkscape.org/namespaces/inkscape"
   inkscape:export-ydpi="90.000000"
   inkscape:export-xdpi="90.000000"
   width="480"
   height="300"
   id="svg11300"
   sodipodi:version="0.32"
   inkscape:version="0.48.4 r9939"
   sodipodi:docname="preferences-online-accounts.svg"
   inkscape:output_extension="org.inkscape.output.svg.inkscape"
   version="1.0"
   style="display:inline;enable-background:new"
   inkscape:export-filename="/home/sam/moka2-template.png">
  <sodipodi:namedview
     stroke="#ef2929"
     fill="#f57900"
     id="base"
     pagecolor="#ffffff"
     bordercolor="#666666"
     borderopacity="0.25490196"
     inkscape:pageopacity="0"
     inkscape:pageshadow="2"
     inkscape:zoom="1"
     inkscape:cx="169.95152"
     inkscape:cy="123.95635"
     inkscape:current-layer="layer2"
     showgrid="false"
     inkscape:grid-bbox="true"
     inkscape:document-units="px"
     inkscape:showpageshadow="false"
     inkscape:window-width="1364"
     inkscape:window-height="701"
     inkscape:window-x="0"
     inkscape:window-y="27"
     width="400px"
     height="300px"
     inkscape:snap-nodes="true"
     inkscape:snap-bbox="true"
     gridtolerance="10000"
     inkscape:object-nodes="true"
     inkscape:snap-grids="true"
     showguides="true"
     inkscape:guide-bbox="true"
     inkscape:window-maximized="1"
     inkscape:bbox-nodes="true"
     inkscape:bbox-paths="true"
     inkscape:snap-bbox-edge-midpoints="true"
     inkscape:snap-bbox-midpoints="true">
    <inkscape:grid
       spacingy="1px"
       spacingx="1px"
       id="grid5883"
       type="xygrid"
       enabled="true"
       visible="true"
       empspacing="4"
       snapvisiblegridlinesonly="true"
       dotted="false"
       color="#000000"
       opacity="0.1254902"
       empcolor="#203ef3"
       empopacity="0.36470588" />
    <inkscape:grid
       type="xygrid"
       id="grid11592"
       empspacing="8"
       visible="true"
       enabled="false"
       spacingx="0.5px"
       spacingy="0.5px"
       color="#ff0000"
       opacity="0.1254902"
       empcolor="#ff0000"
       empopacity="0.25098039"
       snapvisiblegridlinesonly="true"
       dotted="true" />
  </sodipodi:namedview>
  <defs
     id="defs3">
    <linearGradient
       id="outerBackgroundGradient">
      <stop
         style="stop-color:#2a6de8;stop-opacity:1;"
         offset="0"
         id="stop3864-8-6" />
      <stop
         style="stop-color:#46cfec;stop-opacity:1;"
         offset="1"
         id="stop3866-9-1" />
    </linearGradient>
    <linearGradient
       inkscape:collect="always"
       xlink:href="#outerBackgroundGradient"
       id="linearGradient4097"
       gradientUnits="userSpaceOnUse"
       x1="264"
       y1="280.00003"
       x2="264"
       y2="40.00005"
       gradientTransform="matrix(0.06666667,0,0,0.06666667,414.4,137.33333)" />
    <linearGradient
       inkscape:collect="always"
       xlink:href="#outerBackgroundGradient"
       id="linearGradient4101"
       gradientUnits="userSpaceOnUse"
       gradientTransform="matrix(0.0875,0,0,0.0875,414.9,97.5)"
       x1="286.85715"
       y1="302.85715"
       x2="286.85715"
       y2="28.571428" />
    <linearGradient
       inkscape:collect="always"
       xlink:href="#outerBackgroundGradient"
       id="linearGradient4153"
       gradientUnits="userSpaceOnUse"
       gradientTransform="matrix(0.11931818,0,0,0.11931818,414.13636,48.22727)"
       x1="283.80957"
       y1="299.80954"
       x2="283.80957"
       y2="31.61907" />
    <linearGradient
       inkscape:collect="always"
       xlink:href="#outerBackgroundGradient"
       id="linearGradient4869"
       gradientUnits="userSpaceOnUse"
       gradientTransform="matrix(0.175,0,0,-0.175,286.79999,-215.99997)"
       x1="281.14291"
       y1="297.14304"
       x2="281.14291"
       y2="22.857315" />
    <clipPath
       clipPathUnits="userSpaceOnUse"
       id="clipPath4891">
      <rect
         ry="9"
         y="223"
         x="307"
         height="42"
         width="42"
         id="rect4893"
         style="color:#bebebe;fill:url(#linearGradient4895);fill-opacity:1;fill-rule:nonzero;stroke:none;stroke-width:0;marker:none;visibility:visible;display:inline;overflow:visible;enable-background:accumulate"
         transform="matrix(0,1,-1,0,0,0)" />
    </clipPath>
    <linearGradient
       inkscape:collect="always"
       xlink:href="#outerBackgroundGradient"
       id="linearGradient4895"
       gradientUnits="userSpaceOnUse"
       gradientTransform="matrix(0.175,0,0,0.175,302.79999,215.99997)"
       x1="144.00006"
       y1="280.00018"
       x2="144.00006"
       y2="40.000172" />
    <clipPath
       clipPathUnits="userSpaceOnUse"
       id="clipPath4044">
      <rect
         ry="4"
         y="85"
         x="433"
         height="22"
         width="22"
         id="rect4046"
         style="color:#bebebe;fill:url(#linearGradient4048);fill-opacity:1;fill-rule:nonzero;stroke:none;stroke-width:0;marker:none;visibility:visible;display:inline;overflow:visible;enable-background:accumulate" />
    </clipPath>
    <linearGradient
       inkscape:collect="always"
       xlink:href="#outerBackgroundGradient"
       id="linearGradient4048"
       gradientUnits="userSpaceOnUse"
       gradientTransform="matrix(0.0875,0,0,0.0875,430.9,81.499996)"
       x1="149.71428"
       y1="291.42862"
       x2="149.71428"
       y2="40.000046" />
    <clipPath
       clipPathUnits="userSpaceOnUse"
       id="clipPath4089">
      <rect
         style="color:#bebebe;fill:url(#linearGradient4093);fill-opacity:1;fill-rule:nonzero;stroke:none;stroke-width:0;marker:none;visibility:visible;display:inline;overflow:visible;enable-background:accumulate"
         id="rect4091"
         width="30"
         height="30"
         x="433"
         y="37"
         ry="6" />
    </clipPath>
    <linearGradient
       inkscape:collect="always"
       xlink:href="#outerBackgroundGradient"
       id="linearGradient4093"
       gradientUnits="userSpaceOnUse"
       gradientTransform="matrix(0.11931818,0,0,0.11931818,430.13636,32.227267)"
       x1="149.71432"
       y1="291.42862"
       x2="149.71432"
       y2="40.00005" />
    <clipPath
       clipPathUnits="userSpaceOnUse"
       id="clipPath3855">
      <rect
         style="color:#bebebe;fill:url(#linearGradient3859);fill-opacity:1;fill-rule:nonzero;stroke:none;stroke-width:0;marker:none;visibility:visible;display:inline;overflow:visible;enable-background:accumulate"
         id="rect3857"
         width="16"
         height="16"
         x="304"
         y="212"
         ry="3"
         transform="matrix(0,1,-1,0,0,0)" />
    </clipPath>
    <linearGradient
       inkscape:collect="always"
       xlink:href="#outerBackgroundGradient"
       id="linearGradient3859"
       gradientUnits="userSpaceOnUse"
       gradientTransform="matrix(0.06666667,0,0,0.06666667,302.4,209.33333)"
       x1="144"
       y1="280.00003"
       x2="144"
       y2="40.00005" />
    <clipPath
       clipPathUnits="userSpaceOnUse"
       id="clipPath3862">
      <rect
         ry="50"
         y="46"
         x="34"
         height="220"
         width="220"
         id="rect3864"
         style="color:#bebebe;fill:url(#linearGradient3866);fill-opacity:1;fill-rule:nonzero;stroke:none;stroke-width:0;marker:none;visibility:visible;display:inline;overflow:visible;enable-background:accumulate" />
    </clipPath>
    <linearGradient
       inkscape:collect="always"
       xlink:href="#outerBackgroundGradient"
       id="linearGradient3866"
       gradientUnits="userSpaceOnUse"
       gradientTransform="translate(0,-4)"
       x1="144"
       y1="280"
       x2="144"
       y2="40" />
    <linearGradient
       inkscape:collect="always"
       xlink:href="#outerBackgroundGradient"
       id="linearGradient3876"
       gradientUnits="userSpaceOnUse"
       gradientTransform="translate(0,-4)"
       x1="272"
       y1="288"
       x2="272"
       y2="32" />
    <clipPath
       clipPathUnits="userSpaceOnUse"
       id="clipPath4187">
      <rect
         ry="12.5"
         y="142"
         x="290"
         height="60"
         width="60"
         id="rect4189"
         style="color:#bebebe;fill:url(#linearGradient4191);fill-opacity:1;fill-rule:nonzero;stroke:none;stroke-width:0;marker:none;visibility:visible;display:inline;overflow:visible;enable-background:accumulate" />
    </clipPath>
    <linearGradient
       inkscape:collect="always"
       xlink:href="#outerBackgroundGradient"
       id="linearGradient4191"
       gradientUnits="userSpaceOnUse"
       x1="352"
       y1="204"
       x2="352"
       y2="140" />
    <linearGradient
       inkscape:collect="always"
       xlink:href="#outerBackgroundGradient"
       id="linearGradient4197"
       gradientUnits="userSpaceOnUse"
       x1="384"
       y1="124"
       x2="384"
       y2="28" />
    <linearGradient
       inkscape:collect="always"
       xlink:href="#outerBackgroundGradient"
       id="linearGradient4199"
       gradientUnits="userSpaceOnUse"
       x1="352"
       y1="204"
       x2="352"
       y2="140" />
    <clipPath
       clipPathUnits="userSpaceOnUse"
       id="clipPath4346">
      <rect
         style="color:#bebebe;fill:url(#linearGradient4350);fill-opacity:1;fill-rule:nonzero;stroke:none;stroke-width:0;marker:none;visibility:visible;display:inline;overflow:visible;enable-background:accumulate"
         id="rect4348"
         width="88"
         height="88"
         x="292"
         y="32"
         ry="18" />
    </clipPath>
    <linearGradient
       inkscape:collect="always"
       xlink:href="#outerBackgroundGradient"
       id="linearGradient4350"
       gradientUnits="userSpaceOnUse"
       x1="384"
       y1="124"
       x2="384"
       y2="28" />
    <clipPath
       clipPathUnits="userSpaceOnUse"
       id="clipPath3871">
      <rect
         ry="5"
         y="101"
         x="417"
         height="22"
         width="22"
         id="rect3873"
         style="color:#bebebe;fill:url(#linearGradient3875);fill-opacity:1;fill-rule:nonzero;stroke:none;stroke-width:0;marker:none;visibility:visible;display:inline;overflow:visible;enable-background:accumulate" />
    </clipPath>
    <linearGradient
       inkscape:collect="always"
       xlink:href="#outerBackgroundGradient"
       id="linearGradient3875"
       gradientUnits="userSpaceOnUse"
       gradientTransform="matrix(0.0875,0,0,0.0875,414.9,97.5)"
       x1="286.85715"
       y1="302.85715"
       x2="286.85715"
       y2="28.571428" />
    <clipPath
       clipPathUnits="userSpaceOnUse"
       id="clipPath3881">
      <rect
         style="color:#bebebe;fill:url(#linearGradient3885);fill-opacity:1;fill-rule:nonzero;stroke:none;stroke-width:0;marker:none;visibility:visible;display:inline;overflow:visible;enable-background:accumulate"
         id="rect3883"
         width="30"
         height="30"
         x="417"
         y="53"
         ry="7" />
    </clipPath>
    <linearGradient
       inkscape:collect="always"
       xlink:href="#outerBackgroundGradient"
       id="linearGradient3885"
       gradientUnits="userSpaceOnUse"
       gradientTransform="matrix(0.11931818,0,0,0.11931818,414.13636,48.22727)"
       x1="283.80957"
       y1="299.80954"
       x2="283.80957"
       y2="31.61907" />
  </defs>
  <metadata
     id="metadata4">
    <rdf:RDF>
      <cc:Work
         rdf:about="">
        <dc:format>image/svg+xml</dc:format>
        <dc:type
           rdf:resource="http://purl.org/dc/dcmitype/StillImage" />
        <dc:creator>
          <cc:Agent>
            <dc:title>Sam Hewitt</dc:title>
          </cc:Agent>
        </dc:creator>
        <dc:source />
        <cc:license
           rdf:resource="" />
        <dc:title></dc:title>
        <dc:subject>
          <rdf:Bag />
        </dc:subject>
        <dc:date />
        <dc:rights>
          <cc:Agent>
            <dc:title />
          </cc:Agent>
        </dc:rights>
        <dc:publisher>
          <cc:Agent>
            <dc:title />
          </cc:Agent>
        </dc:publisher>
        <dc:identifier />
        <dc:relation />
        <dc:language />
        <dc:coverage />
        <dc:description />
        <dc:contributor>
          <cc:Agent>
            <dc:title />
          </cc:Agent>
        </dc:contributor>
      </cc:Work>
      <cc:Work
         rdf:about="">
        <dc:format>image/svg+xml</dc:format>
        <dc:type
           rdf:resource="http://purl.org/dc/dcmitype/StillImage" />
      </cc:Work>
    </rdf:RDF>
  </metadata>
  <g
     style="display:inline"
     inkscape:groupmode="layer"
     inkscape:label="Icon"
     id="layer1">
    <g
       style="display:none"
       inkscape:label="Baseplate"
       id="layer7"
       inkscape:groupmode="layer">
      <text
         y="19.745117"
         xml:space="preserve"
         x="15.006836"
         style="font-size:18px;font-style:normal;font-variant:normal;font-weight:normal;font-stretch:normal;fill:#000000;fill-opacity:1;stroke:none;display:inline;enable-background:new;font-family:DejaVu Sans;-inkscape-font-specification:DejaVu Sans"
         inkscape:label="context"
         id="context"><tspan
           style="font-style:normal;font-variant:normal;font-weight:normal;font-stretch:normal;font-family:DejaVu Sans;-inkscape-font-specification:DejaVu Sans"
           y="19.745117"
           x="15.006836"
           sodipodi:role="line"
           id="tspan3933">apps</tspan></text>
      <text
         y="19.745117"
         xml:space="preserve"
         x="122.48828"
         style="font-size:18px;font-style:normal;font-variant:normal;font-weight:bold;font-stretch:normal;text-align:start;line-height:125%;writing-mode:lr-tb;text-anchor:start;fill:#000000;fill-opacity:1;stroke:none;display:inline;enable-background:new;font-family:DejaVu Sans;-inkscape-font-specification:DejaVu Sans Bold"
         sodipodi:linespacing="125%"
         inkscape:label="icon-name"
         id="icon-name"><tspan
           style="font-size:18px;font-style:normal;font-variant:normal;font-weight:bold;font-stretch:normal;font-family:DejaVu Sans;-inkscape-font-specification:DejaVu Sans Bold"
           y="19.745117"
           x="122.48828"
           sodipodi:role="line"
           id="tspan3937">preferences-desktop-online-accounts</tspan></text>
      <rect
         style="fill:#eeeeec;fill-opacity:1;fill-rule:nonzero;stroke:none;stroke-width:2;marker:none;visibility:visible;display:inline;overflow:visible;enable-background:accumulate"
         id="rect16x16"
         width="16"
         height="16"
         x="416"
         y="140"
         inkscape:label="16x16" />
      <rect
         style="fill:#d4d4d4;fill-opacity:1;fill-rule:nonzero;stroke:none;stroke-width:2;marker:none;visibility:visible;display:inline;overflow:visible;enable-background:accumulate"
         id="rect24x24"
         width="24"
         height="24"
         x="416"
         y="100"
         inkscape:label="24x24" />
      <rect
         style="fill:#eeeeec;fill-opacity:1;fill-rule:nonzero;stroke:none;stroke-width:2;marker:none;visibility:visible;display:inline;overflow:visible;enable-background:accumulate"
         id="rect32x32"
         width="32"
         height="32"
         x="416"
         y="52"
         inkscape:label="32x32" />
      <rect
         inkscape:label="22x22"
         y="101"
         x="417"
         height="22"
         width="22"
         id="rect22x22"
         style="fill:#eeeeec;fill-opacity:1;fill-rule:nonzero;stroke:none;stroke-width:2;marker:none;visibility:visible;display:inline;overflow:visible;enable-background:accumulate" />
      <rect
         inkscape:label="48x48"
         y="220"
         x="288"
         height="48"
         width="48"
         id="rect48x48"
         style="fill:#eeeeec;fill-opacity:1;fill-rule:nonzero;stroke:none;stroke-width:2;marker:none;visibility:visible;display:inline;overflow:visible;enable-background:accumulate" />
      <rect
         style="fill:#eeeeec;fill-opacity:1;fill-rule:nonzero;stroke:none;stroke-width:2;marker:none;visibility:visible;display:inline;overflow:visible;enable-background:accumulate"
         id="rect256x256"
         width="256"
         height="256"
         x="16"
         y="28"
         inkscape:label="256x256" />
      <rect
         style="fill:#eeeeec;fill-opacity:1;fill-rule:nonzero;stroke:none;stroke-width:2;marker:none;visibility:visible;display:inline;overflow:visible;enable-background:accumulate"
         id="rect64x64"
         width="64"
         height="64"
         x="288"
         y="140"
         inkscape:label="64x64" />
      <rect
         style="fill:#eeeeec;fill-opacity:1;fill-rule:nonzero;stroke:none;stroke-width:2;marker:none;visibility:visible;display:inline;overflow:visible;enable-background:accumulate"
         id="rect96x96"
         width="96"
         height="96"
         x="288"
         y="28"
         inkscape:label="96x96" />
    </g>
    <g
       inkscape:groupmode="layer"
       id="layer4"
       inkscape:label="Shadow"
       style="display:inline"
       sodipodi:insensitive="true">
      <rect
         style="opacity:0.0;color:#bebebe;fill:#000000;fill-opacity:1;stroke:#000000;stroke-width:1;stroke-miterlimit:4;stroke-opacity:1;stroke-dasharray:none;marker:none;visibility:visible;display:inline;overflow:visible;enable-background:accumulate"
         id="rect4156"
         width="42"
         height="42"
         x="-266.5"
         y="291"
         ry="9"
         transform="matrix(0,-1,1,0,0,0)" />
      <rect
         transform="matrix(0,-1,1,0,0,0)"
         ry="9"
         y="291"
         x="-266.5"
         height="42"
         width="40"
         id="rect4183"
         style="opacity:0.1;color:#bebebe;fill:#000000;fill-opacity:1;stroke:none;stroke-width:1;marker:none;visibility:visible;display:inline;overflow:visible;enable-background:accumulate" />
      <rect
         ry="9"
         y="237"
         x="291"
         height="29"
         width="42"
         id="rect4144"
         style="opacity:0.1;color:#bebebe;fill:#000000;fill-opacity:1;fill-rule:nonzero;stroke:none;stroke-width:0;marker:none;visibility:visible;display:inline;overflow:visible;enable-background:accumulate" />
      <rect
         style="opacity:0.0;color:#bebebe;fill:#000000;fill-opacity:1;fill-rule:nonzero;stroke:#000000;stroke-width:1;stroke-miterlimit:4;stroke-opacity:1;stroke-dasharray:none;marker:none;visibility:visible;display:inline;overflow:visible;enable-background:accumulate"
         id="rect4340"
         width="88"
         height="88"
         x="292"
         y="33.5"
         ry="18" />
      <rect
         ry="18"
         y="52.5"
         x="292"
         height="69"
         width="88"
         id="rect4338"
         style="opacity:0.1;color:#bebebe;fill:#000000;fill-opacity:1;fill-rule:nonzero;stroke:none;stroke-width:0;marker:none;visibility:visible;display:inline;overflow:visible;enable-background:accumulate" />
      <rect
         style="opacity:0.1;color:#bebebe;fill:#000000;fill-opacity:1;fill-rule:nonzero;stroke:none;stroke-width:0;marker:none;visibility:visible;display:inline;overflow:visible;enable-background:accumulate"
         id="rect4335"
         width="88"
         height="76.5"
         x="292"
         y="44.5"
         ry="18" />
      <rect
         style="opacity:0.0;color:#bebebe;fill:#000000;fill-opacity:1;fill-rule:nonzero;stroke:#000000;stroke-width:1;stroke-miterlimit:4;stroke-opacity:1;stroke-dasharray:none;marker:none;visibility:visible;display:inline;overflow:visible;enable-background:accumulate"
         id="rect4214"
         width="60"
         height="60"
         x="290"
         y="143.5"
         ry="12.5" />
      <rect
         ry="12.5"
         y="151.5"
         x="290"
         height="52"
         width="60"
         id="rect4206"
         style="opacity:0.1;color:#bebebe;fill:#000000;fill-opacity:1;fill-rule:nonzero;stroke:none;stroke-width:0;marker:none;visibility:visible;display:inline;overflow:visible;enable-background:accumulate" />
      <rect
         style="opacity:0.1;color:#bebebe;fill:#000000;fill-opacity:1;fill-rule:nonzero;stroke:none;stroke-width:0;marker:none;visibility:visible;display:inline;overflow:visible;enable-background:accumulate"
         id="rect4212"
         width="60"
         height="54.5"
         x="290"
         y="148.5"
         ry="12.5" />
      <rect
         style="opacity:0.2;color:#bebebe;fill:#000000;fill-opacity:1;fill-rule:nonzero;stroke:none;stroke-width:0;marker:none;visibility:visible;display:inline;overflow:visible;enable-background:accumulate"
         id="rect4058"
         width="30"
         height="30"
         x="417"
         y="54"
         ry="7" />
      <rect
         ry="50"
         y="48"
         x="34"
         height="220"
         width="220"
         id="rect3872"
         style="opacity:0.0;color:#bebebe;fill:#000000;fill-opacity:1;fill-rule:nonzero;stroke:#000000;stroke-width:2;stroke-miterlimit:4;stroke-opacity:1;stroke-dasharray:none;marker:none;visibility:visible;display:inline;overflow:visible;enable-background:accumulate" />
      <rect
         style="opacity:0.1;color:#bebebe;fill:#000000;fill-opacity:1;fill-rule:nonzero;stroke:none;stroke-width:0;marker:none;visibility:visible;display:inline;overflow:visible;enable-background:accumulate"
         id="rect3870"
         width="220"
         height="220"
         x="34"
         y="48"
         ry="50" />
      <rect
         ry="50"
         y="47"
         x="34"
         height="220"
         width="220"
         id="rect3868"
         style="opacity:0.1;color:#bebebe;fill:#000000;fill-opacity:1;fill-rule:nonzero;stroke:none;stroke-width:0;marker:none;visibility:visible;display:inline;overflow:visible;enable-background:accumulate" />
    </g>
    <g
       inkscape:groupmode="layer"
       id="layer2"
       inkscape:label="Background"
       style="display:inline">
      <rect
         style="color:#bebebe;fill:url(#linearGradient3876);fill-opacity:1;fill-rule:nonzero;stroke:none;stroke-width:0;marker:none;visibility:visible;display:inline;overflow:visible;enable-background:accumulate"
         id="rect4040"
         width="220"
         height="220"
         x="34"
         y="46"
         ry="50" />
      <rect
         ry="3"
         y="140"
         x="416"
         height="16"
         width="16"
         id="rect4095"
         style="color:#bebebe;fill:url(#linearGradient4097);fill-opacity:1;fill-rule:nonzero;stroke:none;stroke-width:0;marker:none;visibility:visible;display:inline;overflow:visible;enable-background:accumulate" />
      <rect
         style="color:#bebebe;fill:url(#linearGradient4101);fill-opacity:1;fill-rule:nonzero;stroke:none;stroke-width:0;marker:none;visibility:visible;display:inline;overflow:visible;enable-background:accumulate"
         id="rect4099"
         width="22"
         height="22"
         x="417"
         y="101"
         ry="5" />
      <rect
         ry="7"
         y="53"
         x="417"
         height="30"
         width="30"
         id="rect4151"
         style="color:#bebebe;fill:url(#linearGradient4153);fill-opacity:1;fill-rule:nonzero;stroke:none;stroke-width:0;marker:none;visibility:visible;display:inline;overflow:visible;enable-background:accumulate" />
      <rect
         style="color:#bebebe;fill:url(#linearGradient4869);fill-opacity:1;fill-rule:nonzero;stroke:none;stroke-width:0;marker:none;visibility:visible;display:inline;overflow:visible;enable-background:accumulate"
         id="rect4783"
         width="42"
         height="42"
         x="291"
         y="-265"
         ry="9"
         transform="scale(1,-1)" />
      <rect
         ry="18"
         y="32"
         x="292"
         height="88"
         width="88"
         id="rect4511"
         style="color:#bebebe;fill:url(#linearGradient4197);fill-opacity:1;fill-rule:nonzero;stroke:none;stroke-width:0;marker:none;visibility:visible;display:inline;overflow:visible;enable-background:accumulate" />
      <rect
         style="color:#bebebe;fill:url(#linearGradient4199);fill-opacity:1;fill-rule:nonzero;stroke:none;stroke-width:0;marker:none;visibility:visible;display:inline;overflow:visible;enable-background:accumulate"
         id="rect4515"
         width="60"
         height="60"
         x="290"
         y="142"
         ry="12.5" />
    </g>
    <g
       inkscape:groupmode="layer"
       id="layer6"
       inkscape:label="Symbols"
       style="display:inline">
      <path
         sodipodi:nodetypes="sscssssscscs"
         inkscape:connector-curvature="0"
         id="path3984"
         d="m 309,234 c -3.85414,0 -7,3.14586 -7,7 0,0.35704 0.073,0.71956 0.125,1.0625 -3.44882,0.42874 -6.125,3.37622 -6.125,6.9375 0,3.85414 3.14586,7 7,7 l 19,0 c 3.30186,0 6,-2.69814 6,-6 0,-3.30186 -2.69814,-6 -6,-6 -0.34828,0 -0.66762,0.0674 -1,0.125 -0.20026,-2.29226 -2.1584,-4.125 -4.5,-4.125 -0.1994,0 -0.36982,0.037 -0.5625,0.0624 C 315.48198,236.64274 312.5405,234 309,234 z"
         style="font-style:normal;font-variant:normal;font-weight:normal;font-stretch:normal;text-indent:0;text-align:start;text-decoration:none;line-height:normal;letter-spacing:normal;word-spacing:normal;text-transform:none;direction:ltr;block-progression:tb;writing-mode:lr-tb;text-anchor:start;baseline-shift:baseline;color:#000000;fill:#000000;fill-opacity:1;stroke:none;stroke-width:1px;marker:none;visibility:visible;display:inline;overflow:visible;enable-background:accumulate;font-family:Sans;-inkscape-font-specification:Sans;opacity:0.2" />
      <path
         style="font-style:normal;font-variant:normal;font-weight:normal;font-stretch:normal;text-indent:0;text-align:start;text-decoration:none;line-height:normal;letter-spacing:normal;word-spacing:normal;text-transform:none;direction:ltr;block-progression:tb;writing-mode:lr-tb;text-anchor:start;baseline-shift:baseline;color:#000000;fill:#000000;fill-opacity:1;stroke:none;stroke-width:1px;marker:none;visibility:visible;display:inline;overflow:visible;enable-background:accumulate;font-family:Sans;-inkscape-font-specification:Sans;opacity:0.2"
         d="m 330,55 c -7.70828,0 -14,6.29172 -14,14 0,0.71408 0.146,1.43912 0.25,2.125 C 309.35236,71.98248 304,77.87744 304,85 c 0,7.70828 6.29172,14 14,14 l 38,0 c 6.60372,0 12,-5.39628 12,-12 0,-6.60372 -5.39628,-12 -12,-12 -0.69656,0 -1.33524,0.1348 -2,0.25 -0.40052,-4.58452 -4.3168,-8.25 -9,-8.25 -0.3988,0 -0.73964,0.074 -1.125,0.1248 C 342.96396,60.28548 337.081,55 330,55 z"
         id="path3986"
         inkscape:connector-curvature="0"
         sodipodi:nodetypes="sscssssscscs" />
      <path
         sodipodi:nodetypes="sscssssscscs"
         inkscape:connector-curvature="0"
         id="path3988"
         d="m 426.5,107 c -1.92707,0 -3.5,1.57293 -3.5,3.5 0,0.17852 0.0365,0.35978 0.0625,0.53125 C 421.33809,111.24562 420,112.71936 420,114.5 c 0,1.92707 1.57293,3.5 3.5,3.5 l 9.5,0 c 1.65093,0 3,-1.34907 3,-3 0,-1.65093 -1.34907,-3 -3,-3 -0.17414,0 -0.33381,0.0337 -0.5,0.0625 -0.10013,-1.14613 -1.0792,-2.0625 -2.25,-2.0625 -0.0997,0 -0.18491,0.0185 -0.28125,0.0312 C 429.74099,108.32137 428.27025,107 426.5,107 z"
         style="font-style:normal;font-variant:normal;font-weight:normal;font-stretch:normal;text-indent:0;text-align:start;text-decoration:none;line-height:normal;letter-spacing:normal;word-spacing:normal;text-transform:none;direction:ltr;block-progression:tb;writing-mode:lr-tb;text-anchor:start;baseline-shift:baseline;color:#000000;fill:#000000;fill-opacity:1;stroke:none;stroke-width:1px;marker:none;visibility:visible;display:inline;overflow:visible;enable-background:accumulate;font-family:Sans;-inkscape-font-specification:Sans;opacity:0.2" />
      <path
         style="font-style:normal;font-variant:normal;font-weight:normal;font-stretch:normal;text-indent:0;text-align:start;text-decoration:none;line-height:normal;letter-spacing:normal;word-spacing:normal;text-transform:none;direction:ltr;block-progression:tb;writing-mode:lr-tb;text-anchor:start;baseline-shift:baseline;color:#000000;fill:#000000;fill-opacity:1;stroke:none;stroke-width:1px;marker:none;visibility:visible;display:inline;overflow:visible;enable-background:accumulate;font-family:Sans;-inkscape-font-specification:Sans;opacity:0.2"
         d="m 422.87498,144.75 c -1.4453,0 -2.625,1.1797 -2.625,2.625 0,0.1339 0.0273,0.2698 0.0469,0.3984 -1.29331,0.1608 -2.29688,1.2661 -2.29688,2.6016 0,1.4453 1.17969,2.625 2.625,2.625 l 7.125,0 c 1.23819,0 2.25,-1.0118 2.25,-2.25 0,-1.2382 -1.01181,-2.25 -2.25,-2.25 -0.1306,0 -0.25035,0.025 -0.375,0.047 -0.0751,-0.8596 -0.80941,-1.5469 -1.68751,-1.5469 -0.0747,0 -0.13868,0.014 -0.21093,0.023 -0.17082,-1.2824 -1.27388,-2.2734 -2.60157,-2.2734 z"
         id="path3990"
         inkscape:connector-curvature="0"
         sodipodi:nodetypes="sscssssscscs" />
      <path
         style="font-style:normal;font-variant:normal;font-weight:normal;font-stretch:normal;text-indent:0;text-align:start;text-decoration:none;line-height:normal;letter-spacing:normal;word-spacing:normal;text-transform:none;direction:ltr;block-progression:tb;writing-mode:lr-tb;text-anchor:start;baseline-shift:baseline;color:#000000;fill:#000000;fill-opacity:1;stroke:none;stroke-width:1px;marker:none;visibility:visible;display:inline;overflow:visible;enable-background:accumulate;font-family:Sans;-inkscape-font-specification:Sans;opacity:0.2"
         d="m 429.9375,60.875 c -2.64973,0 -4.8125,2.1628 -4.8125,4.8125 0,0.2455 0.0502,0.4947 0.0859,0.7305 C 422.83988,66.7127 421,68.7391 421,71.1875 421,73.8372 423.16277,76 425.8125,76 l 13.0625,0 c 2.27003,0 4.125,-1.855 4.125,-4.125 0,-2.27 -1.85497,-4.125 -4.125,-4.125 -0.23944,0 -0.45899,0.046 -0.6875,0.086 -0.13767,-1.5759 -1.4839,-2.8359 -3.09375,-2.8359 -0.13709,0 -0.25426,0.025 -0.38672,0.043 -0.31316,-2.351 -2.33544,-4.1679 -4.76953,-4.1679 z"
         id="path3992"
         inkscape:connector-curvature="0"
         sodipodi:nodetypes="sscssssscscs" />
      <path
         sodipodi:nodetypes="sscssssscscs"
         inkscape:connector-curvature="0"
         id="path3994"
         d="m 315.5,156 c -5.78121,0 -10.5,4.71879 -10.5,10.5 0,0.53556 0.1095,1.07934 0.1875,1.59375 C 300.01427,168.73686 296,173.15808 296,178.5 c 0,5.78121 4.71879,10.5 10.5,10.5 l 28.5,0 c 4.95279,0 9,-4.04721 9,-9 0,-4.95279 -4.04721,-9 -9,-9 -0.52242,0 -1.00143,0.1011 -1.5,0.1875 -0.30039,-3.43839 -3.2376,-6.1875 -6.75,-6.1875 -0.2991,0 -0.55473,0.0555 -0.84375,0.0936 C 325.22297,159.96411 320.81075,156 315.5,156 z"
         style="font-style:normal;font-variant:normal;font-weight:normal;font-stretch:normal;text-indent:0;text-align:start;text-decoration:none;line-height:normal;letter-spacing:normal;word-spacing:normal;text-transform:none;direction:ltr;block-progression:tb;writing-mode:lr-tb;text-anchor:start;baseline-shift:baseline;color:#000000;fill:#000000;fill-opacity:1;stroke:none;stroke-width:1px;marker:none;visibility:visible;display:inline;overflow:visible;enable-background:accumulate;font-family:Sans;-inkscape-font-specification:Sans;opacity:0.2" />
      <path
         style="font-style:normal;font-variant:normal;font-weight:normal;font-stretch:normal;text-indent:0;text-align:start;text-decoration:none;line-height:normal;letter-spacing:normal;word-spacing:normal;text-transform:none;direction:ltr;block-progression:tb;writing-mode:lr-tb;text-anchor:start;baseline-shift:baseline;color:#000000;fill:#000000;fill-opacity:1;stroke:none;stroke-width:1px;marker:none;visibility:visible;display:inline;overflow:visible;enable-background:accumulate;font-family:Sans;-inkscape-font-specification:Sans;opacity:0.2"
         d="m 129,101 c -19.27069,0 -35,15.72929 -35,35 0,1.7852 0.365,3.5978 0.625,5.31249 C 77.380907,143.4562 64,158.1936 64,176 c 0,19.27069 15.729307,35 35,35 l 95,0 c 16.50931,0 30,-13.49069 30,-30 0,-16.50931 -13.49069,-30 -30,-30 -1.7414,0 -3.33811,0.337 -5,0.625 C 187.99869,140.16369 178.208,131 166.5,131 c -0.997,0 -1.84909,0.185 -2.81251,0.312 C 161.40989,114.21369 146.70251,101 129,101 z"
         id="path3996"
         inkscape:connector-curvature="0"
         sodipodi:nodetypes="sscssssscscs" />
      <path
         style="font-style:normal;font-variant:normal;font-weight:normal;font-stretch:normal;text-indent:0;text-align:start;text-decoration:none;line-height:normal;letter-spacing:normal;word-spacing:normal;text-transform:none;direction:ltr;block-progression:tb;writing-mode:lr-tb;text-anchor:start;baseline-shift:baseline;color:#000000;fill:#ffffff;fill-opacity:1;stroke:none;stroke-width:1px;marker:none;visibility:visible;display:inline;overflow:visible;enable-background:accumulate;font-family:Sans;-inkscape-font-specification:Sans"
         d="m 309,233 c -3.85414,0 -7,3.14586 -7,7 0,0.35704 0.073,0.71956 0.125,1.0625 -3.44882,0.42874 -6.125,3.37622 -6.125,6.9375 0,3.85414 3.14586,7 7,7 l 19,0 c 3.30186,0 6,-2.69814 6,-6 0,-3.30186 -2.69814,-6 -6,-6 -0.34828,0 -0.66762,0.0674 -1,0.125 -0.20026,-2.29226 -2.1584,-4.125 -4.5,-4.125 -0.1994,0 -0.36982,0.037 -0.5625,0.0624 C 315.48198,235.64274 312.5405,233 309,233 z"
         id="path6093"
         inkscape:connector-curvature="0"
         sodipodi:nodetypes="sscssssscscs" />
      <path
         sodipodi:nodetypes="sscssssscscs"
         inkscape:connector-curvature="0"
         id="path3944"
         d="m 330,54 c -7.70828,0 -14,6.29172 -14,14 0,0.71408 0.146,1.43912 0.25,2.125 C 309.35236,70.98248 304,76.87744 304,84 c 0,7.70828 6.29172,14 14,14 l 38,0 c 6.60372,0 12,-5.39628 12,-12 0,-6.60372 -5.39628,-12 -12,-12 -0.69656,0 -1.33524,0.1348 -2,0.25 -0.40052,-4.58452 -4.3168,-8.25 -9,-8.25 -0.3988,0 -0.73964,0.074 -1.125,0.1248 C 342.96396,59.28548 337.081,54 330,54 z"
         style="font-style:normal;font-variant:normal;font-weight:normal;font-stretch:normal;text-indent:0;text-align:start;text-decoration:none;line-height:normal;letter-spacing:normal;word-spacing:normal;text-transform:none;direction:ltr;block-progression:tb;writing-mode:lr-tb;text-anchor:start;baseline-shift:baseline;color:#000000;fill:#ffffff;fill-opacity:1;stroke:none;stroke-width:1px;marker:none;visibility:visible;display:inline;overflow:visible;enable-background:accumulate;font-family:Sans;-inkscape-font-specification:Sans" />
      <path
         style="font-style:normal;font-variant:normal;font-weight:normal;font-stretch:normal;text-indent:0;text-align:start;text-decoration:none;line-height:normal;letter-spacing:normal;word-spacing:normal;text-transform:none;direction:ltr;block-progression:tb;writing-mode:lr-tb;text-anchor:start;baseline-shift:baseline;color:#000000;fill:#ffffff;fill-opacity:1;stroke:none;stroke-width:1px;marker:none;visibility:visible;display:inline;overflow:visible;enable-background:accumulate;font-family:Sans;-inkscape-font-specification:Sans"
         d="m 426.5,106 c -1.92707,0 -3.5,1.57293 -3.5,3.5 0,0.17852 0.0365,0.35978 0.0625,0.53125 C 421.33809,110.24562 420,111.71936 420,113.5 c 0,1.92707 1.57293,3.5 3.5,3.5 l 9.5,0 c 1.65093,0 3,-1.34907 3,-3 0,-1.65093 -1.34907,-3 -3,-3 -0.17414,0 -0.33381,0.0337 -0.5,0.0625 -0.10013,-1.14613 -1.0792,-2.0625 -2.25,-2.0625 -0.0997,0 -0.18491,0.0185 -0.28125,0.0312 C 429.74099,107.32137 428.27025,106 426.5,106 z"
         id="path3946"
         inkscape:connector-curvature="0"
         sodipodi:nodetypes="sscssssscscs" />
      <path
         sodipodi:nodetypes="sscssssscscs"
         inkscape:connector-curvature="0"
         id="path3948"
         d="m 422.87498,143.75 c -1.4453,0 -2.625,1.1797 -2.625,2.625 0,0.1339 0.0273,0.2698 0.0469,0.3984 -1.29331,0.1608 -2.29688,1.2661 -2.29688,2.6016 0,1.4453 1.17969,2.625 2.625,2.625 l 7.125,0 c 1.23819,0 2.25,-1.0118 2.25,-2.25 0,-1.2382 -1.01181,-2.25 -2.25,-2.25 -0.1306,0 -0.25035,0.025 -0.375,0.047 -0.0751,-0.8596 -0.80941,-1.5469 -1.68751,-1.5469 -0.0747,0 -0.13868,0.014 -0.21093,0.023 -0.17082,-1.2824 -1.27388,-2.2734 -2.60157,-2.2734 z"
         style="font-style:normal;font-variant:normal;font-weight:normal;font-stretch:normal;text-indent:0;text-align:start;text-decoration:none;line-height:normal;letter-spacing:normal;word-spacing:normal;text-transform:none;direction:ltr;block-progression:tb;writing-mode:lr-tb;text-anchor:start;baseline-shift:baseline;color:#000000;fill:#ffffff;fill-opacity:1;stroke:none;stroke-width:1px;marker:none;visibility:visible;display:inline;overflow:visible;enable-background:accumulate;font-family:Sans;-inkscape-font-specification:Sans" />
      <path
         sodipodi:nodetypes="sscssssscscs"
         inkscape:connector-curvature="0"
         id="path3950"
         d="m 429.9375,59.875 c -2.64973,0 -4.8125,2.1628 -4.8125,4.8125 0,0.2455 0.0502,0.4947 0.0859,0.7305 C 422.83988,65.7127 421,67.7391 421,70.1875 421,72.8372 423.16277,75 425.8125,75 l 13.0625,0 c 2.27003,0 4.125,-1.855 4.125,-4.125 0,-2.27 -1.85497,-4.125 -4.125,-4.125 -0.23944,0 -0.45899,0.046 -0.6875,0.086 -0.13767,-1.5759 -1.4839,-2.8359 -3.09375,-2.8359 -0.13709,0 -0.25426,0.025 -0.38672,0.043 -0.31316,-2.351 -2.33544,-4.1679 -4.76953,-4.1679 z"
         style="font-style:normal;font-variant:normal;font-weight:normal;font-stretch:normal;text-indent:0;text-align:start;text-decoration:none;line-height:normal;letter-spacing:normal;word-spacing:normal;text-transform:none;direction:ltr;block-progression:tb;writing-mode:lr-tb;text-anchor:start;baseline-shift:baseline;color:#000000;fill:#ffffff;fill-opacity:1;stroke:none;stroke-width:1px;marker:none;visibility:visible;display:inline;overflow:visible;enable-background:accumulate;font-family:Sans;-inkscape-font-specification:Sans" />
      <path
         style="font-style:normal;font-variant:normal;font-weight:normal;font-stretch:normal;text-indent:0;text-align:start;text-decoration:none;line-height:normal;letter-spacing:normal;word-spacing:normal;text-transform:none;direction:ltr;block-progression:tb;writing-mode:lr-tb;text-anchor:start;baseline-shift:baseline;color:#000000;fill:#ffffff;fill-opacity:1;stroke:none;stroke-width:1px;marker:none;visibility:visible;display:inline;overflow:visible;enable-background:accumulate;font-family:Sans;-inkscape-font-specification:Sans"
         d="m 315.5,155 c -5.78121,0 -10.5,4.71879 -10.5,10.5 0,0.53556 0.1095,1.07934 0.1875,1.59375 C 300.01427,167.73686 296,172.15808 296,177.5 c 0,5.78121 4.71879,10.5 10.5,10.5 l 28.5,0 c 4.95279,0 9,-4.04721 9,-9 0,-4.95279 -4.04721,-9 -9,-9 -0.52242,0 -1.00143,0.1011 -1.5,0.1875 -0.30039,-3.43839 -3.2376,-6.1875 -6.75,-6.1875 -0.2991,0 -0.55473,0.0555 -0.84375,0.0936 C 325.22297,158.96411 320.81075,155 315.5,155 z"
         id="path3952"
         inkscape:connector-curvature="0"
         sodipodi:nodetypes="sscssssscscs" />
      <path
         sodipodi:nodetypes="sscssssscscs"
         inkscape:connector-curvature="0"
         id="path3954"
         d="m 129,100 c -19.27069,0 -35,15.72929 -35,35 0,1.7852 0.365,3.5978 0.625,5.31249 C 77.380907,142.4562 64,157.1936 64,175 c 0,19.27069 15.729307,35 35,35 l 95,0 c 16.50931,0 30,-13.49069 30,-30 0,-16.50931 -13.49069,-30 -30,-30 -1.7414,0 -3.33811,0.337 -5,0.625 C 187.99869,139.16369 178.208,130 166.5,130 c -0.997,0 -1.84909,0.185 -2.81251,0.312 C 161.40989,113.21369 146.70251,100 129,100 z"
         style="font-style:normal;font-variant:normal;font-weight:normal;font-stretch:normal;text-indent:0;text-align:start;text-decoration:none;line-height:normal;letter-spacing:normal;word-spacing:normal;text-transform:none;direction:ltr;block-progression:tb;writing-mode:lr-tb;text-anchor:start;baseline-shift:baseline;color:#000000;fill:#ffffff;fill-opacity:1;stroke:none;stroke-width:1px;marker:none;visibility:visible;display:inline;overflow:visible;enable-background:accumulate;font-family:Sans;-inkscape-font-specification:Sans" />
    </g>
    <g
       inkscape:groupmode="layer"
       id="layer5"
       inkscape:label="Highlights"
       style="display:inline"
       sodipodi:insensitive="true">
      <rect
         ry="9"
         y="307"
         x="-265"
         height="42"
         width="42"
         id="rect4884"
         style="opacity:0.15;color:#bebebe;fill:none;stroke:#000000;stroke-width:2;stroke-miterlimit:4;stroke-opacity:1;stroke-dasharray:none;marker:none;visibility:visible;display:inline;overflow:visible;enable-background:accumulate"
         transform="matrix(0,1,1,0,-16,488)"
         clip-path="url(#clipPath4891)" />
      <rect
         style="opacity:0.15;color:#bebebe;fill:none;stroke:#000000;stroke-width:2;stroke-miterlimit:4;stroke-opacity:1;stroke-dasharray:none;marker:none;visibility:visible;display:inline;overflow:visible;enable-background:accumulate"
         id="rect5311"
         width="16"
         height="16"
         x="-228"
         y="304"
         ry="3"
         clip-path="url(#clipPath3855)"
         transform="matrix(0,-1,1,0,112,-72)" />
      <rect
         ry="50"
         y="46"
         x="34"
         height="220"
         width="220"
         id="rect3858"
         style="opacity:0.15;color:#bebebe;fill:none;stroke:#000000;stroke-width:2;stroke-miterlimit:4;stroke-opacity:1;stroke-dasharray:none;marker:none;visibility:visible;display:inline;overflow:visible;enable-background:accumulate"
         clip-path="url(#clipPath3862)" />
      <rect
         ry="12.5"
         y="142"
         x="290"
         height="60"
         width="60"
         id="rect4175"
         style="opacity:0.15;color:#bebebe;fill:none;stroke:#000000;stroke-width:2;stroke-miterlimit:4;stroke-opacity:1;stroke-dasharray:none;marker:none;visibility:visible;display:inline;overflow:visible;enable-background:accumulate"
         clip-path="url(#clipPath4187)" />
      <rect
         style="opacity:0.15;color:#bebebe;fill:none;stroke:#000000;stroke-width:2;stroke-miterlimit:4;stroke-opacity:1;stroke-dasharray:none;marker:none;visibility:visible;display:inline;overflow:visible;enable-background:accumulate"
         id="rect4342"
         width="88"
         height="88"
         x="292"
         y="32"
         ry="18"
         clip-path="url(#clipPath4346)" />
      <rect
         ry="5"
         y="101"
         x="417"
         height="22"
         width="22"
         id="rect3866"
         style="opacity:0.15;color:#bebebe;fill:none;stroke:#000000;stroke-width:2;stroke-miterlimit:4;stroke-opacity:1;stroke-dasharray:none;marker:none;visibility:visible;display:inline;overflow:visible;enable-background:accumulate"
         clip-path="url(#clipPath3871)" />
      <rect
         style="opacity:0.15;color:#bebebe;fill:none;stroke:#000000;stroke-width:2;stroke-miterlimit:4;stroke-opacity:1;stroke-dasharray:none;marker:none;visibility:visible;display:inline;overflow:visible;enable-background:accumulate"
         id="rect3877"
         width="30"
         height="30"
         x="417"
         y="53"
         ry="7"
         clip-path="url(#clipPath3881)" />
    </g>
  </g>
</svg>
