<?xml version="1.0" encoding="UTF-8" standalone="no"?>
<!-- Created with Inkscape (http://www.inkscape.org/) -->

<svg
   xmlns:dc="http://purl.org/dc/elements/1.1/"
   xmlns:cc="http://creativecommons.org/ns#"
   xmlns:rdf="http://www.w3.org/1999/02/22-rdf-syntax-ns#"
   xmlns:svg="http://www.w3.org/2000/svg"
   xmlns="http://www.w3.org/2000/svg"
   xmlns:xlink="http://www.w3.org/1999/xlink"
   xmlns:sodipodi="http://sodipodi.sourceforge.net/DTD/sodipodi-0.dtd"
   xmlns:inkscape="http://www.inkscape.org/namespaces/inkscape"
   inkscape:export-ydpi="90.000000"
   inkscape:export-xdpi="90.000000"
   width="480"
   height="300"
   id="svg11300"
   sodipodi:version="0.32"
   inkscape:version="0.48.4 r9939"
   sodipodi:docname="openttd.svg"
   inkscape:output_extension="org.inkscape.output.svg.inkscape"
   version="1.0"
   style="display:inline;enable-background:new"
   inkscape:export-filename="/home/sam/moka-next-template.png">
  <sodipodi:namedview
     stroke="#ef2929"
     fill="#f57900"
     id="base"
     pagecolor="#777777"
     bordercolor="#666666"
     borderopacity="0.25490196"
     inkscape:pageopacity="0"
     inkscape:pageshadow="2"
     inkscape:zoom="1"
     inkscape:cx="343.81113"
     inkscape:cy="201.85659"
     inkscape:current-layer="layer7"
     showgrid="false"
     inkscape:grid-bbox="true"
     inkscape:document-units="px"
     inkscape:showpageshadow="false"
     inkscape:window-width="1364"
     inkscape:window-height="700"
     inkscape:window-x="0"
     inkscape:window-y="28"
     width="400px"
     height="300px"
     inkscape:snap-nodes="true"
     inkscape:snap-bbox="true"
     gridtolerance="10000"
     inkscape:object-nodes="true"
     inkscape:snap-grids="true"
     showguides="true"
     inkscape:guide-bbox="true"
     inkscape:window-maximized="1"
     inkscape:bbox-nodes="true"
     inkscape:bbox-paths="true"
     inkscape:snap-bbox-edge-midpoints="true"
     inkscape:snap-bbox-midpoints="true">
    <inkscape:grid
       spacingy="1px"
       spacingx="1px"
       id="grid5883"
       type="xygrid"
       enabled="true"
       visible="true"
       empspacing="4"
       snapvisiblegridlinesonly="true"
       dotted="false"
       color="#000000"
       opacity="0.1254902"
       empcolor="#203ef3"
       empopacity="0.36470588" />
    <inkscape:grid
       type="xygrid"
       id="grid11592"
       empspacing="8"
       visible="true"
       enabled="false"
       spacingx="0.5px"
       spacingy="0.5px"
       color="#ff0000"
       opacity="0.1254902"
       empcolor="#ff0000"
       empopacity="0.25098039"
       snapvisiblegridlinesonly="true"
       dotted="true" />
  </sodipodi:namedview>
  <defs
     id="defs3">
    <linearGradient
       inkscape:collect="always"
       xlink:href="#linearGradient3421"
       id="linearGradient4254"
       x1="35"
       y1="156"
       x2="253"
       y2="156"
       gradientUnits="userSpaceOnUse"
       gradientTransform="matrix(0,-1,1,0,-12,300)" />
    <linearGradient
       inkscape:collect="always"
       xlink:href="#linearGradient3421"
       id="linearGradient4256"
       x1="417"
       y1="148"
       x2="431"
       y2="148"
       gradientUnits="userSpaceOnUse"
       gradientTransform="matrix(0,-1,1,0,276,572)" />
    <linearGradient
       inkscape:collect="always"
       xlink:href="#linearGradient3421"
       id="linearGradient4260"
       x1="418"
       y1="68"
       x2="446"
       y2="68"
       gradientUnits="userSpaceOnUse"
       gradientTransform="matrix(0,-1,1,0,364,500)" />
    <linearGradient
       inkscape:collect="always"
       xlink:href="#linearGradient3421"
       id="linearGradient4262"
       x1="292"
       y1="244"
       x2="332"
       y2="244"
       gradientUnits="userSpaceOnUse"
       gradientTransform="matrix(0,-1,1,0,68,556)" />
    <linearGradient
       inkscape:collect="always"
       xlink:href="#linearGradient3421"
       id="linearGradient4264"
       x1="293"
       y1="76"
       x2="379"
       y2="76"
       gradientUnits="userSpaceOnUse"
       gradientTransform="matrix(0,-1,1,0,260,412)" />
    <linearGradient
       inkscape:collect="always"
       xlink:href="#linearGradient3421"
       id="linearGradient4266"
       x1="291"
       y1="172"
       x2="349"
       y2="172"
       gradientUnits="userSpaceOnUse"
       gradientTransform="matrix(0,-1,1,0,148,492)" />
    <linearGradient
       inkscape:collect="always"
       xlink:href="#linearGradient3421"
       id="linearGradient3870"
       gradientUnits="userSpaceOnUse"
       gradientTransform="matrix(0,-1,1,0,316,540)"
       x1="418"
       y1="112"
       x2="438"
       y2="112" />
    <linearGradient
       id="linearGradient3421">
      <stop
         style="stop-color:#fe7600;stop-opacity:1"
         offset="0"
         id="stop3423" />
      <stop
         style="stop-color:#f69e3f;stop-opacity:1"
         offset="1"
         id="stop3425" />
    </linearGradient>
  </defs>
  <metadata
     id="metadata4">
    <rdf:RDF>
      <cc:Work
         rdf:about="">
        <dc:format>image/svg+xml</dc:format>
        <dc:type
           rdf:resource="http://purl.org/dc/dcmitype/StillImage" />
        <dc:creator>
          <cc:Agent>
            <dc:title>Sam Hewitt</dc:title>
          </cc:Agent>
        </dc:creator>
        <dc:source />
        <cc:license
           rdf:resource="" />
        <dc:title />
        <dc:subject>
          <rdf:Bag />
        </dc:subject>
        <dc:date />
        <dc:rights>
          <cc:Agent>
            <dc:title />
          </cc:Agent>
        </dc:rights>
        <dc:publisher>
          <cc:Agent>
            <dc:title />
          </cc:Agent>
        </dc:publisher>
        <dc:identifier />
        <dc:relation />
        <dc:language />
        <dc:coverage />
        <dc:description />
        <dc:contributor>
          <cc:Agent>
            <dc:title />
          </cc:Agent>
        </dc:contributor>
      </cc:Work>
      <cc:Work
         rdf:about="">
        <dc:format>image/svg+xml</dc:format>
        <dc:type
           rdf:resource="http://purl.org/dc/dcmitype/StillImage" />
      </cc:Work>
    </rdf:RDF>
  </metadata>
  <g
     style="display:inline"
     inkscape:groupmode="layer"
     inkscape:label="Icon"
     id="layer1">
    <g
       style="display:none"
       inkscape:label="Baseplate"
       id="layer7"
       inkscape:groupmode="layer">
      <text
         y="19.745117"
         xml:space="preserve"
         x="15.006836"
         style="font-style:normal;font-variant:normal;font-weight:normal;font-stretch:normal;line-height:0%;font-family:'DejaVu Sans';-inkscape-font-specification:'DejaVu Sans';display:inline;fill:#000000;fill-opacity:1;stroke:none;enable-background:new"
         inkscape:label="context"
         id="context"><tspan
           style="font-style:normal;font-variant:normal;font-weight:normal;font-stretch:normal;font-size:18px;line-height:1.25;font-family:'DejaVu Sans';-inkscape-font-specification:'DejaVu Sans'"
           y="19.745117"
           x="15.006836"
           sodipodi:role="line"
           id="tspan3933">apps</tspan></text>
      <text
         y="19.745117"
         xml:space="preserve"
         x="122.48828"
         style="font-style:normal;font-variant:normal;font-weight:bold;font-stretch:normal;line-height:0%;font-family:'DejaVu Sans';-inkscape-font-specification:'DejaVu Sans Bold';text-align:start;writing-mode:lr-tb;text-anchor:start;display:inline;fill:#000000;fill-opacity:1;stroke:none;enable-background:new"
         inkscape:label="icon-name"
         id="icon-name"><tspan
           style="font-style:normal;font-variant:normal;font-weight:bold;font-stretch:normal;font-size:18px;line-height:1.25;font-family:'DejaVu Sans';-inkscape-font-specification:'DejaVu Sans Bold'"
           y="19.745117"
           x="122.48828"
           sodipodi:role="line"
           id="tspan3937">openttd</tspan></text>
      <rect
         style="fill:#eeeeec;fill-opacity:1;fill-rule:nonzero;stroke:none;stroke-width:2;marker:none;visibility:visible;display:inline;overflow:visible;enable-background:accumulate"
         id="rect16x16"
         width="16"
         height="16"
         x="416"
         y="140"
         inkscape:label="16x16" />
      <rect
         style="fill:#d4d4d4;fill-opacity:1;fill-rule:nonzero;stroke:none;stroke-width:2;marker:none;visibility:visible;display:inline;overflow:visible;enable-background:accumulate"
         id="rect24x24"
         width="24"
         height="24"
         x="416"
         y="100"
         inkscape:label="24x24" />
      <rect
         style="fill:#eeeeec;fill-opacity:1;fill-rule:nonzero;stroke:none;stroke-width:2;marker:none;visibility:visible;display:inline;overflow:visible;enable-background:accumulate"
         id="rect32x32"
         width="32"
         height="32"
         x="416"
         y="52"
         inkscape:label="32x32" />
      <rect
         inkscape:label="22x22"
         y="101"
         x="417"
         height="22"
         width="22"
         id="rect22x22"
         style="fill:#eeeeec;fill-opacity:1;fill-rule:nonzero;stroke:none;stroke-width:2;marker:none;visibility:visible;display:inline;overflow:visible;enable-background:accumulate" />
      <rect
         inkscape:label="48x48"
         y="220"
         x="288"
         height="48"
         width="48"
         id="rect48x48"
         style="fill:#eeeeec;fill-opacity:1;fill-rule:nonzero;stroke:none;stroke-width:2;marker:none;visibility:visible;display:inline;overflow:visible;enable-background:accumulate" />
      <rect
         style="fill:#eeeeec;fill-opacity:1;fill-rule:nonzero;stroke:none;stroke-width:2;marker:none;visibility:visible;display:inline;overflow:visible;enable-background:accumulate"
         id="rect256x256"
         width="256"
         height="256"
         x="16"
         y="28"
         inkscape:label="256x256" />
      <rect
         style="fill:#eeeeec;fill-opacity:1;fill-rule:nonzero;stroke:none;stroke-width:2;marker:none;visibility:visible;display:inline;overflow:visible;enable-background:accumulate"
         id="rect64x64"
         width="64"
         height="64"
         x="288"
         y="140"
         inkscape:label="64x64" />
      <rect
         style="fill:#eeeeec;fill-opacity:1;fill-rule:nonzero;stroke:none;stroke-width:2;marker:none;visibility:visible;display:inline;overflow:visible;enable-background:accumulate"
         id="rect96x96"
         width="96"
         height="96"
         x="288"
         y="28"
         inkscape:label="96x96" />
    </g>
    <g
       inkscape:groupmode="layer"
       id="layer4"
       inkscape:label="Shadow"
       style="display:inline"
       sodipodi:insensitive="true">
      <rect
         ry="50"
         y="47"
         x="34"
         height="220"
         width="220"
         id="rect4114"
         style="opacity:0.1;color:#bebebe;fill:#000000;fill-opacity:1;fill-rule:nonzero;stroke:none;stroke-width:0;marker:none;visibility:visible;display:inline;overflow:visible;enable-background:accumulate" />
      <rect
         style="opacity:0.1;color:#bebebe;fill:#000000;fill-opacity:1;fill-rule:nonzero;stroke:none;stroke-width:0;marker:none;visibility:visible;display:inline;overflow:visible;enable-background:accumulate"
         id="rect4120"
         width="30"
         height="30"
         x="417"
         y="54"
         ry="7" />
      <rect
         transform="scale(1,-1)"
         ry="9"
         y="-266"
         x="291"
         height="42"
         width="42"
         id="rect4122"
         style="opacity:0.1;color:#bebebe;fill:#000000;fill-opacity:1;fill-rule:nonzero;stroke:none;stroke-width:0;marker:none;visibility:visible;display:inline;overflow:visible;enable-background:accumulate" />
      <rect
         style="opacity:0.1;color:#bebebe;fill:#000000;fill-opacity:1;fill-rule:nonzero;stroke:none;stroke-width:0;marker:none;visibility:visible;display:inline;overflow:visible;enable-background:accumulate"
         id="rect4124"
         width="88"
         height="88"
         x="292"
         y="33"
         ry="18" />
      <rect
         ry="12.5"
         y="143"
         x="290"
         height="60"
         width="60"
         id="rect4126"
         style="opacity:0.1;color:#bebebe;fill:#000000;fill-opacity:1;fill-rule:nonzero;stroke:none;stroke-width:0;marker:none;visibility:visible;display:inline;overflow:visible;enable-background:accumulate" />
      <path
         id="path4268"
         d="m 422,101 c -2.77,0 -5,2.23 -5,5 l 0,12 c 0,2.77 2.23,5 5,5 l 12,0 c 2.77,0 5,-2.23 5,-5 l 0,-12 c 0,-2.77 -2.23,-5 -5,-5 z"
         style="opacity:0.1;color:#bebebe;fill:#000000;fill-opacity:1;fill-rule:nonzero;stroke:none;stroke-width:0;marker:none;visibility:visible;display:inline;overflow:visible;enable-background:accumulate"
         inkscape:connector-curvature="0"
         sodipodi:nodetypes="sssssssss" />
      <path
         id="path4270"
         d="m 419,140 c -1.662,0 -3,1.338 -3,3 l 0,10 c 0,1.662 1.338,3 3,3 l 10,0 c 1.662,0 3,-1.338 3,-3 l 0,-10 c 0,-1.662 -1.338,-3 -3,-3 z"
         style="opacity:0.1;color:#bebebe;fill:#000000;fill-opacity:1;fill-rule:nonzero;stroke:none;stroke-width:0;marker:none;visibility:visible;display:inline;overflow:visible;enable-background:accumulate"
         inkscape:connector-curvature="0"
         sodipodi:nodetypes="sssssssss" />
    </g>
    <g
       inkscape:groupmode="layer"
       id="layer2"
       inkscape:label="Background"
       style="display:inline">
      <path
         style="color:#bebebe;fill:url(#linearGradient4254);fill-opacity:1.0;fill-rule:nonzero;stroke:none;stroke-width:2;marker:none;visibility:visible;display:inline;overflow:visible;enable-background:accumulate"
         d="M 84 46.5 C 56.568735 46.5 34.5 68.568732 34.5 96 L 34.5 216 C 34.5 243.43127 56.568735 265.5 84 265.5 L 204 265.5 C 231.43127 265.5 253.5 243.43127 253.5 216 L 253.5 96 C 253.5 68.568732 231.43127 46.5 204 46.5 L 84 46.5 z "
         id="path4200" />
      <path
         style="color:#bebebe;fill:url(#linearGradient4256);fill-opacity:1.0;fill-rule:nonzero;stroke:none;stroke-width:2;marker:none;visibility:visible;display:inline;overflow:visible;enable-background:accumulate"
         d="M 419 140.5 C 417.6156 140.5 416.5 141.6156 416.5 143 L 416.5 153 C 416.5 154.3844 417.6156 155.5 419 155.5 L 429 155.5 C 430.3844 155.5 431.5 154.3844 431.5 153 L 431.5 143 C 431.5 141.6156 430.3844 140.5 429 140.5 L 419 140.5 z "
         id="path4202" />
      <path
         style="color:#bebebe;fill:url(#linearGradient3870);fill-opacity:1.0;fill-rule:nonzero;stroke:none;stroke-width:2;marker:none;visibility:visible;display:inline;overflow:visible;enable-background:accumulate"
         d="M 422 101.5 C 419.50301 101.5 417.5 103.50301 417.5 106 L 417.5 118 C 417.5 120.49699 419.50301 122.5 422 122.5 L 434 122.5 C 436.49699 122.5 438.5 120.49699 438.5 118 L 438.5 106 C 438.5 103.50301 436.49699 101.5 434 101.5 L 422 101.5 z "
         id="path4204" />
      <path
         style="color:#bebebe;fill:url(#linearGradient4260);fill-opacity:1.0;fill-rule:nonzero;stroke:none;stroke-width:2;marker:none;visibility:visible;display:inline;overflow:visible;enable-background:accumulate"
         d="M 424 53.5 C 420.39346 53.5 417.5 56.393464 417.5 60 L 417.5 76 C 417.5 79.606536 420.39346 82.5 424 82.5 L 440 82.5 C 443.60654 82.5 446.5 79.606536 446.5 76 L 446.5 60 C 446.5 56.393464 443.60654 53.5 440 53.5 L 424 53.5 z "
         id="path4206" />
      <path
         style="color:#bebebe;fill:url(#linearGradient4262);fill-opacity:1.0;fill-rule:nonzero;stroke:none;stroke-width:2;marker:none;visibility:visible;display:inline;overflow:visible;enable-background:accumulate"
         d="M 300 223.5 C 295.28469 223.5 291.5 227.28469 291.5 232 L 291.5 256 C 291.5 260.71531 295.28469 264.5 300 264.5 L 324 264.5 C 328.71531 264.5 332.5 260.71531 332.5 256 L 332.5 232 C 332.5 227.28469 328.71531 223.5 324 223.5 L 300 223.5 z "
         id="path4208" />
      <path
         style="color:#bebebe;fill:url(#linearGradient4264);fill-opacity:1.0;fill-rule:nonzero;stroke:none;stroke-width:2;marker:none;visibility:visible;display:inline;overflow:visible;enable-background:accumulate"
         d="M 310 32.5 C 300.29745 32.5 292.5 40.297452 292.5 50 L 292.5 102 C 292.5 111.70255 300.29745 119.5 310 119.5 L 362 119.5 C 371.70255 119.5 379.5 111.70255 379.5 102 L 379.5 50 C 379.5 40.297452 371.70255 32.5 362 32.5 L 310 32.5 z "
         id="path4210" />
      <path
         style="color:#bebebe;fill:url(#linearGradient4266);fill-opacity:1.0;fill-rule:nonzero;stroke:none;stroke-width:2;marker:none;visibility:visible;display:inline;overflow:visible;enable-background:accumulate"
         d="M 302.5 142.5 C 295.84498 142.5 290.5 147.84498 290.5 154.5 L 290.5 189.5 C 290.5 196.15502 295.84498 201.5 302.5 201.5 L 337.5 201.5 C 344.15502 201.5 349.5 196.15502 349.5 189.5 L 349.5 154.5 C 349.5 147.84498 344.15502 142.5 337.5 142.5 L 302.5 142.5 z "
         id="path4212" />
    </g>
    <g
       inkscape:groupmode="layer"
       id="layer6"
       inkscape:label="Symbols"
       style="display:inline">
      <path
         d="m 335.99564,44 -33,33 33,33 33.00871,-33 -33.00871,-33 z m -1.97756,11.307813 4.50396,0 0,5.784581 c 0.66864,0.202191 1.23132,0.408639 1.69009,0.61853 0.4587,0.209957 1.07805,0.554675 1.85559,1.036695 l 0.87988,-1.655225 2.54382,0 2.72676,10.567326 -4.28616,1.23706 c -1.11962,-2.907828 -2.922,-5.041531 -5.40998,-6.394399 l 0,6.699308 c 3.06334,0.870826 5.29109,1.756128 6.6906,2.665784 1.39948,0.9097 2.46727,2.033218 3.20592,3.362733 0.73859,1.329537 1.10636,2.707474 1.10639,4.138057 -4e-5,1.539461 -0.43692,3.020157 -1.31548,4.442987 -0.8786,1.42283 -2.17494,2.61548 -3.88542,3.5718 -1.71051,0.95633 -3.64057,1.50844 -5.80201,1.66394 l 0,5.6452 -4.50396,0 0,-6.03723 c -1.78827,-0.41985 -3.65789,-1.33784 -5.60164,-2.75291 l -1.11509,2.75291 -2.54382,0 -2.29119,-12.292238 4.4604,-1.071543 c 0.8086,1.772716 1.58834,3.163116 2.33475,4.181628 0.74639,1.018534 1.58468,1.901977 2.51768,2.648363 0.68419,0.55981 1.4303,0.98331 2.23892,1.2632 l 0,-7.770858 c -3.34327,-1.11958 -5.63827,-2.095192 -6.88226,-2.927133 -1.24401,-0.831908 -2.22056,-1.889107 -2.93585,-3.179781 -0.7153,-1.29063 -1.08026,-2.598497 -1.08026,-3.920268 0,-1.508331 0.44748,-2.96505 1.34162,-4.36458 0.89411,-1.399475 2.13378,-2.5124 3.7199,-3.336586 1.58609,-0.82412 3.53543,-1.283117 5.83685,-1.376452 l 0,-5.200899 z m 0,10.358238 c -1.27512,0.171083 -2.18066,0.445731 -2.70934,0.818906 -0.76197,0.544269 -1.14125,1.198208 -1.14124,1.960134 0,0.637571 0.27558,1.24729 0.82763,1.838177 0.55201,0.59092 1.56124,1.140216 3.02296,1.637801 l 0,-6.255018 z m 4.50396,15.297777 0,7.004232 c 1.21289,-0.1555 2.17791,-0.49928 2.901,-1.02799 0.72306,-0.52869 1.08023,-1.241171 1.08026,-2.143083 -2e-5,-0.793034 -0.26596,-1.4806 -0.8102,-2.055966 -0.74641,-0.761937 -1.80268,-1.357323 -3.17106,-1.777193 z"
         style="opacity:0.2;fill:#000000;fill-opacity:1;fill-rule:evenodd;stroke:none;display:inline;enable-background:new"
         id="path3863"
         inkscape:connector-curvature="0" />
      <path
         inkscape:connector-curvature="0"
         id="path3865"
         style="opacity:0.2;fill:#000000;fill-opacity:1;fill-rule:evenodd;stroke:none;display:inline;enable-background:new"
         d="m 319.99709,151 -22,22 22,22 22.00581,-22 -22.00581,-22 z m -1.31837,7.53854 3.00264,0 0,3.85639 c 0.44576,0.13479 0.82088,0.27243 1.12671,0.41235 0.3058,0.13997 0.71871,0.36979 1.23706,0.69113 l 0.5866,-1.10348 1.69587,0 1.81785,7.04488 -2.85744,0.82471 c -0.74641,-1.93855 -1.948,-3.36102 -3.60665,-4.26293 l 0,4.4662 c 2.04222,0.58055 3.52739,1.17075 4.4604,1.77719 0.93298,0.60647 1.64484,1.35548 2.13727,2.24182 0.4924,0.88636 0.73758,1.80499 0.7376,2.75871 -2e-5,1.02631 -0.29128,2.01344 -0.87699,2.96199 -0.58574,0.94855 -1.44996,1.74365 -2.59028,2.3812 -1.14035,0.63755 -2.42705,1.00563 -3.868,1.10929 l 0,3.76347 -3.00264,0 0,-4.02482 c -1.19218,-0.2799 -2.4386,-0.8919 -3.73442,-1.83527 l -0.74341,1.83527 -1.69587,0 -1.52747,-8.19483 2.9736,-0.71436 c 0.53907,1.18181 1.05889,2.10875 1.5565,2.78775 0.4976,0.67903 1.05645,1.26799 1.67846,1.76558 0.45612,0.37321 0.95353,0.65554 1.49261,0.84214 l 0,-5.18058 c -2.22885,-0.74639 -3.75884,-1.39679 -4.58818,-1.95142 -0.82933,-0.55461 -1.48037,-1.25941 -1.95723,-2.11985 -0.47687,-0.86042 -0.72017,-1.73234 -0.72017,-2.61352 0,-1.00555 0.29832,-1.9767 0.89441,-2.90972 0.59607,-0.93298 1.42252,-1.67493 2.47993,-2.22439 1.0574,-0.54941 2.35697,-0.85541 3.89124,-0.91763 l 0,-3.46727 z m 0,6.90549 c -0.85008,0.11406 -1.45377,0.29716 -1.80623,0.54594 -0.50798,0.36285 -0.76083,0.79881 -0.76083,1.30676 0,0.42504 0.18372,0.83152 0.55175,1.22545 0.368,0.39395 1.04084,0.76014 2.01531,1.09187 l 0,-4.17002 z m 3.00264,10.19852 0,4.66949 c 0.80858,-0.10367 1.45193,-0.33286 1.93399,-0.68532 0.48205,-0.35247 0.72016,-0.82745 0.72017,-1.42873 -10e-6,-0.52869 -0.1773,-0.98707 -0.54012,-1.37064 -0.49762,-0.50796 -1.20179,-0.90488 -2.11404,-1.1848 z" />
      <path
         inkscape:connector-curvature="0"
         id="path3867"
         style="opacity:0.2;fill:#000000;fill-opacity:1;fill-rule:evenodd;stroke:none;display:inline;enable-background:new"
         d="m 311.99788,229 -16,16 16,16 16.00423,-16 -16.00423,-16 z m -0.95881,5.48258 2.18373,0 0,2.80464 c 0.32419,0.098 0.597,0.19813 0.81944,0.29989 0.2224,0.1018 0.52269,0.26894 0.89968,0.50264 l 0.42661,-0.80253 1.23336,0 1.32207,5.12355 -2.07813,0.59979 c -0.54286,-1.40986 -1.41674,-2.44438 -2.62303,-3.10032 l 0,3.24815 c 1.48525,0.42222 2.56537,0.85146 3.24393,1.29251 0.67854,0.44106 1.19626,0.9858 1.55439,1.63041 0.35809,0.64463 0.53641,1.31272 0.53643,2.00633 -3e-5,0.74641 -0.21184,1.46432 -0.63782,2.15417 -0.42597,0.68987 -1.0545,1.26812 -1.88384,1.73179 -0.82933,0.46368 -1.76512,0.73136 -2.81309,0.80676 l 0,2.73707 -2.18373,0 0,-2.92715 c -0.86704,-0.20356 -1.77352,-0.64865 -2.71595,-1.33473 l -0.54065,1.33473 -1.23338,0 -1.11088,-5.95987 2.16263,-0.51954 c 0.39204,0.8595 0.77011,1.53364 1.132,2.02746 0.36188,0.49383 0.76833,0.92218 1.22069,1.28406 0.33172,0.27142 0.69348,0.47676 1.08554,0.61246 l 0,-3.76769 c -1.62098,-0.54283 -2.73371,-1.01585 -3.33686,-1.41922 -0.60316,-0.40335 -1.07664,-0.91593 -1.42344,-1.54171 -0.34681,-0.62576 -0.52376,-1.25988 -0.52376,-1.90074 0,-0.73131 0.21696,-1.4376 0.65048,-2.11616 0.43351,-0.67853 1.03456,-1.21813 1.80359,-1.61774 0.76901,-0.39957 1.71415,-0.62211 2.82999,-0.66737 l 0,-2.52164 z m 0,5.02217 c -0.61824,0.083 -1.0573,0.21611 -1.31363,0.39705 -0.36944,0.26388 -0.55333,0.58095 -0.55332,0.95037 0,0.30912 0.13361,0.60474 0.40127,0.89123 0.26764,0.28651 0.75698,0.55283 1.46569,0.79409 l 0,-3.03274 z m 2.18373,7.41711 0,3.39598 c 0.58807,-0.0753 1.05597,-0.24207 1.40655,-0.49841 0.35057,-0.25634 0.52374,-0.60178 0.52376,-1.03907 -2e-5,-0.3845 -0.12894,-0.71787 -0.39283,-0.99684 -0.36189,-0.36942 -0.87403,-0.65809 -1.53748,-0.86166 z" />
      <path
         inkscape:connector-curvature="0"
         id="path3869"
         style="opacity:0.2;fill:#000000;fill-opacity:1;fill-rule:evenodd;stroke:none;display:inline;enable-background:new"
         d="M 143.98944,77.010556 64,157 143.98944,236.98944 224,157 143.98944,77.010556 z m -4.79345,27.409264 10.91725,0 0,14.02138 c 1.62073,0.49009 2.98463,0.9905 4.09665,1.49926 1.11185,0.50892 2.61311,1.34449 4.49781,2.51287 l 2.13276,-4.01213 6.16602,0 6.60945,25.61437 -10.38932,2.99854 c -2.71387,-7.04835 -7.0827,-12.22028 -13.11337,-15.49953 l 0,16.23861 c 7.4253,2.11081 12.82519,4.25672 16.2175,6.46165 3.39223,2.20504 5.98047,4.92836 7.7709,8.15101 1.79028,3.22269 2.68173,6.5627 2.6818,10.03033 -9e-5,3.73153 -1.05906,7.32063 -3.18862,10.76945 -2.12966,3.44883 -5.27188,6.33973 -9.41796,8.65777 -4.14614,2.31807 -8.82446,3.65634 -14.06362,4.03325 l 0,13.68353 -10.91725,0 0,-14.63377 c -4.33463,-1.01768 -8.86644,-3.24283 -13.57794,-6.67283 l -2.70289,6.67283 -6.16602,0 -5.55367,-29.79543 10.81166,-2.59734 c 1.95999,4.29693 3.85002,7.66715 5.65926,10.13594 1.80919,2.46885 3.84114,4.61025 6.10266,6.41942 1.65842,1.35694 3.46693,2.38347 5.42697,3.06192 l 0,-18.83597 c -8.10383,-2.71377 -13.66673,-5.07858 -16.68207,-7.09514 -3.01538,-2.01648 -5.38246,-4.57905 -7.11627,-7.70755 -1.73383,-3.12838 -2.61847,-6.29855 -2.61847,-9.50242 0,-3.65608 1.08466,-7.18705 3.25198,-10.57941 2.16726,-3.39221 5.17212,-6.08986 9.01675,-8.08762 3.84456,-1.9976 8.56961,-3.11018 14.14808,-3.33642 l 0,-12.60657 z m 0,25.10757 c -3.09079,0.41469 -5.28575,1.08041 -6.56723,1.98496 -1.84695,1.31927 -2.7663,2.90436 -2.76628,4.75121 0,1.54543 0.66799,3.02334 2.00611,4.4556 1.33803,1.43235 3.78433,2.7638 7.32743,3.9699 l 0,-15.16167 z m 10.91725,37.08062 0,16.97771 c 2.93995,-0.37691 5.27909,-1.21022 7.0318,-2.49175 1.75264,-1.28151 2.61839,-3.00851 2.61847,-5.19468 -5e-5,-1.92225 -0.64467,-3.58886 -1.96386,-4.9835 -1.80924,-1.84688 -4.36956,-3.29005 -7.68641,-4.30778 z" />
      <path
         inkscape:connector-curvature="0"
         id="path3871"
         style="opacity:0.2;fill:#000000;fill-opacity:1;fill-rule:evenodd;stroke:none;display:inline;enable-background:new"
         d="M 431.99855,58.001452 421,69 431.99855,79.998548 443,69 431.99855,58.001452 z m -0.6591,3.768774 1.50112,0 0,1.927939 c 0.22285,0.06739 0.41039,0.136195 0.56329,0.206149 0.15288,0.06998 0.3593,0.184868 0.61845,0.34552 l 0.29325,-0.551669 0.84783,0 0.9088,3.521977 -1.42853,0.412299 c -0.37316,-0.969148 -0.97387,-1.680289 -1.80309,-2.131185 l 0,2.232808 c 1.02098,0.290237 1.76346,0.585299 2.22991,0.888477 0.46643,0.303194 0.82231,0.67765 1.0685,1.120763 0.24616,0.443121 0.36873,0.902373 0.36874,1.379175 -1e-5,0.51308 -0.14562,1.00658 -0.43843,1.4808 -0.29283,0.47421 -0.72489,0.87171 -1.29497,1.19044 -0.5701,0.31873 -1.21336,0.50275 -1.93375,0.55457 l 0,1.88149 -1.50112,0 0,-2.01215 c -0.59601,-0.139931 -1.21914,-0.445891 -1.86697,-0.917511 l -0.37165,0.91751 -0.84782,0 -0.76363,-4.096869 1.4866,-0.357134 c 0.2695,0.590827 0.52938,1.054233 0.77815,1.393693 0.24876,0.33947 0.52816,0.63391 0.83911,0.88267 0.22804,0.18658 0.47671,0.32773 0.74621,0.42101 l 0,-2.589943 c -1.11427,-0.373144 -1.87917,-0.698305 -2.29378,-0.975582 -0.41462,-0.277266 -0.74009,-0.629619 -0.97849,-1.059787 -0.2384,-0.430153 -0.36004,-0.866052 -0.36004,-1.306584 0,-0.50271 0.14914,-0.988219 0.44715,-1.454668 0.298,-0.46643 0.71117,-0.837356 1.2398,-1.112048 0.52863,-0.274671 1.17832,-0.42765 1.94536,-0.458757 l 0,-1.733404 z m 0,3.452289 c -0.42499,0.05702 -0.72679,0.148557 -0.903,0.272933 -0.25395,0.181399 -0.38036,0.39935 -0.38036,0.653291 0,0.212496 0.0918,0.415709 0.27584,0.612645 0.18398,0.196948 0.52035,0.380022 1.00752,0.545862 l 0,-2.084731 z m 1.50112,5.098586 0,2.334437 c 0.40424,-0.0518 0.72587,-0.16641 0.96687,-0.34262 0.24099,-0.17621 0.36003,-0.41367 0.36004,-0.71427 0,-0.26431 -0.0886,-0.49346 -0.27003,-0.685227 -0.24877,-0.253946 -0.60081,-0.452382 -1.05688,-0.59232 z" />
      <path
         d="M 427.99895,105.00106 420,113 427.99895,120.99894 436,113 l -8.00105,-7.99894 z m -0.47935,2.74092 1.09172,0 0,1.40214 c 0.16208,0.049 0.29847,0.0991 0.40967,0.14993 0.11118,0.0509 0.26131,0.13445 0.44978,0.25128 l 0.21327,-0.40121 0.61661,0 0.66094,2.56144 -1.03893,0.29985 c -0.27139,-0.70483 -0.70827,-1.22203 -1.31134,-1.54995 l 0,1.62386 c 0.74253,0.21108 1.28252,0.42567 1.62176,0.64616 0.33922,0.22051 0.59804,0.49284 0.77709,0.81511 0.17902,0.32227 0.26816,0.65627 0.26817,1.00303 -1e-5,0.37315 -0.1059,0.73206 -0.31886,1.07695 -0.21296,0.34488 -0.52719,0.63397 -0.94179,0.86577 -0.41462,0.23181 -0.88245,0.36564 -1.40637,0.40333 l 0,1.36835 -1.09172,0 0,-1.46338 c -0.43346,-0.10177 -0.88665,-0.32428 -1.3578,-0.66728 l -0.27029,0.66728 -0.61659,0 -0.55537,-2.97954 1.08116,-0.25974 c 0.196,0.4297 0.38501,0.76672 0.56593,1.0136 0.18092,0.24689 0.38412,0.46102 0.61026,0.64194 0.16585,0.1357 0.3467,0.23835 0.5427,0.30619 l 0,-1.88359 c -0.81038,-0.27138 -1.36667,-0.50786 -1.6682,-0.70952 -0.30155,-0.20165 -0.53825,-0.4579 -0.71163,-0.77075 -0.17338,-0.31284 -0.26185,-0.62986 -0.26185,-0.95025 0,-0.3656 0.10847,-0.7187 0.3252,-1.05794 0.21673,-0.33922 0.51721,-0.60898 0.90167,-0.80876 0.38446,-0.19976 0.85696,-0.31102 1.41481,-0.33364 l 0,-1.26066 z m 0,2.51076 c -0.30908,0.0415 -0.52857,0.10804 -0.65673,0.1985 -0.18469,0.13192 -0.27662,0.29043 -0.27662,0.47512 0,0.15454 0.0668,0.30233 0.20061,0.44556 0.1338,0.14323 0.37843,0.27638 0.73274,0.39699 l 0,-1.51617 z m 1.09172,3.70806 0,1.69777 c 0.294,-0.0377 0.52791,-0.12102 0.70318,-0.24917 0.17527,-0.12816 0.26184,-0.30086 0.26185,-0.51947 0,-0.19223 -0.0644,-0.35888 -0.19639,-0.49835 -0.18092,-0.18469 -0.43695,-0.32901 -0.76864,-0.43078 z"
         style="opacity:0.2;fill:#000000;fill-opacity:1;fill-rule:evenodd;stroke:none;display:inline;enable-background:new"
         id="path3873"
         inkscape:connector-curvature="0" />
      <path
         inkscape:connector-curvature="0"
         id="path3875"
         style="opacity:0.2;fill:#000000;fill-opacity:1;fill-rule:evenodd;stroke:none;display:inline;enable-background:new"
         d="M 423.99921,143.00079 418,149 423.99921,154.99921 430,149 l -6.00079,-5.99921 z m -0.35951,2.05569 0.81879,0 0,1.05161 c 0.12156,0.0367 0.22385,0.0743 0.30725,0.11244 0.0834,0.0382 0.19598,0.10084 0.33734,0.18846 l 0.15995,-0.3009 0.46246,0 0.4957,1.92107 -0.7792,0.22489 c -0.20354,-0.52862 -0.5312,-0.91652 -0.9835,-1.16246 l 0,1.21789 c 0.5569,0.15832 0.96189,0.31926 1.21632,0.48462 0.25441,0.16539 0.44853,0.36964 0.58282,0.61135 0.13426,0.2417 0.20112,0.49219 0.20112,0.75226 0,0.27986 -0.0794,0.54905 -0.23914,0.80771 -0.15972,0.25866 -0.39539,0.47549 -0.70634,0.64933 -0.31097,0.17387 -0.66184,0.27424 -1.05478,0.3025 l 0,1.02626 -0.81879,0 0,-1.09754 c -0.3251,-0.0763 -0.66499,-0.24321 -1.01835,-0.50046 l -0.20272,0.50046 -0.46244,0 -0.41653,-2.23464 0.81087,-0.19482 c 0.147,0.32228 0.28876,0.57504 0.42445,0.7602 0.13569,0.18517 0.28809,0.34578 0.45769,0.48146 0.12439,0.10178 0.26003,0.17876 0.40703,0.22964 l 0,-1.41269 c -0.60778,-0.20353 -1.025,-0.3809 -1.25115,-0.53213 -0.22616,-0.15125 -0.40369,-0.34344 -0.53372,-0.57806 -0.13004,-0.23463 -0.19639,-0.4724 -0.19639,-0.71269 0,-0.27421 0.0814,-0.53903 0.2439,-0.79346 0.16255,-0.25441 0.38791,-0.45673 0.67625,-0.60658 0.28835,-0.14981 0.64272,-0.23325 1.06111,-0.25022 l 0,-0.9455 z m 0,1.88308 c -0.23181,0.0311 -0.39643,0.081 -0.49255,0.14887 -0.13851,0.0989 -0.20746,0.21783 -0.20746,0.35634 0,0.1159 0.0501,0.22674 0.15045,0.33417 0.10035,0.10742 0.28383,0.20729 0.54956,0.29774 l 0,-1.13712 z m 0.81879,2.78103 0,1.27334 c 0.2205,-0.0283 0.39593,-0.0908 0.52738,-0.18688 0.13146,-0.0961 0.19638,-0.22564 0.19639,-0.3896 0,-0.14418 -0.0483,-0.26916 -0.14729,-0.37377 -0.13569,-0.13852 -0.32771,-0.24675 -0.57648,-0.32309 z" />
      <path
         inkscape:connector-curvature="0"
         id="rect3418"
         style="fill:#ffffff;fill-opacity:1;fill-rule:evenodd;stroke:none;display:inline;enable-background:new"
         d="m 335.99564,43 -33,33 33,33 33.00871,-33 -33.00871,-33 z m -1.97756,11.307813 4.50396,0 0,5.784581 c 0.66864,0.202191 1.23132,0.408639 1.69009,0.61853 0.4587,0.209957 1.07805,0.554675 1.85559,1.036695 l 0.87988,-1.655225 2.54382,0 2.72676,10.567326 -4.28616,1.23706 c -1.11962,-2.907828 -2.922,-5.041531 -5.40998,-6.394399 l 0,6.699308 c 3.06334,0.870826 5.29109,1.756128 6.6906,2.665784 1.39948,0.9097 2.46727,2.033218 3.20592,3.362733 0.73859,1.329537 1.10636,2.707474 1.10639,4.138057 -4e-5,1.539461 -0.43692,3.02016 -1.31548,4.442987 -0.8786,1.42283 -2.17494,2.61548 -3.88542,3.5718 -1.71051,0.95633 -3.64057,1.50844 -5.80201,1.66394 l 0,5.6452 -4.50396,0 0,-6.03723 c -1.78827,-0.41985 -3.65789,-1.33784 -5.60164,-2.75291 l -1.11509,2.75291 -2.54382,0 -2.29119,-12.292238 4.4604,-1.071543 c 0.8086,1.772716 1.58834,3.163116 2.33475,4.181628 0.74639,1.018534 1.58468,1.901977 2.51768,2.64836 0.68419,0.559812 1.4303,0.983313 2.23892,1.263203 l 0,-7.770858 c -3.34327,-1.11958 -5.63827,-2.095192 -6.88226,-2.927133 -1.24401,-0.831908 -2.22056,-1.889107 -2.93585,-3.179781 -0.7153,-1.29063 -1.08026,-2.598497 -1.08026,-3.920268 0,-1.508331 0.44748,-2.96505 1.34162,-4.36458 0.89411,-1.399475 2.13378,-2.5124 3.7199,-3.336586 1.58609,-0.82412 3.53543,-1.283117 5.83685,-1.376452 l 0,-5.200899 z m 0,10.358238 c -1.27512,0.171083 -2.18066,0.445731 -2.70934,0.818906 -0.76197,0.544269 -1.14125,1.198208 -1.14124,1.960134 0,0.637571 0.27558,1.24729 0.82763,1.838177 0.55201,0.59092 1.56124,1.140216 3.02296,1.637801 l 0,-6.255018 z m 4.50396,15.297777 0,7.004232 c 1.21289,-0.1555 2.17791,-0.49928 2.901,-1.027987 0.72306,-0.528693 1.08023,-1.241174 1.08026,-2.143086 -2e-5,-0.793034 -0.26596,-1.4806 -0.8102,-2.055966 -0.74641,-0.761937 -1.80268,-1.357323 -3.17106,-1.777193 z" />
      <path
         d="m 319.99709,150 -22,22 22,22 22.00581,-22 -22.00581,-22 z m -1.31837,7.53854 3.00264,0 0,3.85639 c 0.44576,0.13479 0.82088,0.27243 1.12671,0.41235 0.3058,0.13997 0.71871,0.36979 1.23706,0.69113 l 0.5866,-1.10348 1.69587,0 1.81785,7.04488 -2.85744,0.82471 c -0.74641,-1.93855 -1.948,-3.36102 -3.60665,-4.26293 l 0,4.4662 c 2.04222,0.58055 3.52739,1.17075 4.4604,1.77719 0.93298,0.60647 1.64484,1.35548 2.13727,2.24182 0.4924,0.88636 0.73758,1.80499 0.7376,2.75871 -2e-5,1.02631 -0.29128,2.01344 -0.87699,2.96199 -0.58574,0.94855 -1.44996,1.74365 -2.59028,2.3812 -1.14035,0.63755 -2.42705,1.00563 -3.868,1.10929 l 0,3.76347 -3.00264,0 0,-4.02482 c -1.19218,-0.2799 -2.4386,-0.8919 -3.73442,-1.83527 l -0.74341,1.83527 -1.69587,0 -1.52747,-8.19483 2.9736,-0.71436 c 0.53907,1.18181 1.05889,2.10875 1.5565,2.78775 0.4976,0.67903 1.05645,1.26799 1.67846,1.76558 0.45612,0.37321 0.95353,0.65554 1.49261,0.84214 l 0,-5.18058 c -2.22885,-0.74639 -3.75884,-1.39679 -4.58818,-1.95142 -0.82933,-0.55461 -1.48037,-1.25941 -1.95723,-2.11985 -0.47687,-0.86042 -0.72017,-1.73234 -0.72017,-2.61352 0,-1.00555 0.29832,-1.9767 0.89441,-2.90972 0.59607,-0.93298 1.42252,-1.67493 2.47993,-2.22439 1.0574,-0.54941 2.35697,-0.85541 3.89124,-0.91763 l 0,-3.46727 z m 0,6.90549 c -0.85008,0.11406 -1.45377,0.29716 -1.80623,0.54594 -0.50798,0.36285 -0.76083,0.79881 -0.76083,1.30676 0,0.42504 0.18372,0.83152 0.55175,1.22545 0.368,0.39395 1.04084,0.76014 2.01531,1.09187 l 0,-4.17002 z m 3.00264,10.19852 0,4.66949 c 0.80858,-0.10367 1.45193,-0.33286 1.93399,-0.68532 0.48205,-0.35247 0.72016,-0.82745 0.72017,-1.42873 -10e-6,-0.52869 -0.1773,-0.98707 -0.54012,-1.37064 -0.49762,-0.50796 -1.20179,-0.90488 -2.11404,-1.1848 z"
         style="fill:#ffffff;fill-opacity:1;fill-rule:evenodd;stroke:none;display:inline;enable-background:new"
         id="path3851"
         inkscape:connector-curvature="0" />
      <path
         d="m 311.99788,228 -16,16 16,16 16.00423,-16 -16.00423,-16 z m -0.95881,5.48258 2.18373,0 0,2.80464 c 0.32419,0.098 0.597,0.19813 0.81944,0.29989 0.2224,0.1018 0.52269,0.26894 0.89968,0.50264 l 0.42661,-0.80253 1.23336,0 1.32207,5.12355 -2.07813,0.59979 c -0.54286,-1.40986 -1.41674,-2.44438 -2.62303,-3.10032 l 0,3.24815 c 1.48525,0.42222 2.56537,0.85146 3.24393,1.29251 0.67854,0.44106 1.19626,0.9858 1.55439,1.63041 0.35809,0.64463 0.53641,1.31272 0.53643,2.00633 -3e-5,0.74641 -0.21184,1.46432 -0.63782,2.15417 -0.42597,0.68987 -1.0545,1.26812 -1.88384,1.73179 -0.82933,0.46368 -1.76512,0.73136 -2.81309,0.80676 l 0,2.73707 -2.18373,0 0,-2.92715 c -0.86704,-0.20356 -1.77352,-0.64865 -2.71595,-1.33473 l -0.54065,1.33473 -1.23338,0 -1.11088,-5.95987 2.16263,-0.51954 c 0.39204,0.8595 0.77011,1.53364 1.132,2.02746 0.36188,0.49383 0.76833,0.92218 1.22069,1.28406 0.33172,0.27142 0.69348,0.47676 1.08554,0.61246 l 0,-3.76769 c -1.62098,-0.54283 -2.73371,-1.01585 -3.33686,-1.41922 -0.60316,-0.40335 -1.07664,-0.91593 -1.42344,-1.54171 -0.34681,-0.62576 -0.52376,-1.25988 -0.52376,-1.90074 0,-0.73131 0.21696,-1.4376 0.65048,-2.11616 0.43351,-0.67853 1.03456,-1.21813 1.80359,-1.61774 0.76901,-0.39957 1.71415,-0.62211 2.82999,-0.66737 l 0,-2.52164 z m 0,5.02217 c -0.61824,0.083 -1.0573,0.21611 -1.31363,0.39705 -0.36944,0.26388 -0.55333,0.58095 -0.55332,0.95037 0,0.30912 0.13361,0.60474 0.40127,0.89123 0.26764,0.28651 0.75698,0.55283 1.46569,0.79409 l 0,-3.03274 z m 2.18373,7.41711 0,3.39598 c 0.58807,-0.0753 1.05597,-0.24207 1.40655,-0.49841 0.35057,-0.25634 0.52374,-0.60178 0.52376,-1.03907 -2e-5,-0.3845 -0.12894,-0.71787 -0.39283,-0.99684 -0.36189,-0.36942 -0.87403,-0.65809 -1.53748,-0.86166 z"
         style="fill:#ffffff;fill-opacity:1;fill-rule:evenodd;stroke:none;display:inline;enable-background:new"
         id="path3853"
         inkscape:connector-curvature="0" />
      <path
         d="M 143.98944,76.010556 64,156 143.98944,235.98944 224,156 143.98944,76.010556 z m -4.79345,27.409264 10.91725,0 0,14.02138 c 1.62073,0.49009 2.98463,0.9905 4.09665,1.49926 1.11185,0.50892 2.61311,1.34449 4.49781,2.51287 l 2.13276,-4.01213 6.16602,0 6.60945,25.61437 -10.38932,2.99854 c -2.71387,-7.04835 -7.0827,-12.22028 -13.11337,-15.49953 l 0,16.23861 c 7.4253,2.11081 12.82519,4.25672 16.2175,6.46165 3.39223,2.20504 5.98047,4.92836 7.7709,8.15101 1.79028,3.22269 2.68173,6.5627 2.6818,10.03033 -9e-5,3.73153 -1.05906,7.32063 -3.18862,10.76945 -2.12966,3.44883 -5.27188,6.33973 -9.41796,8.65777 -4.14614,2.31807 -8.82446,3.65634 -14.06362,4.03325 l 0,13.68353 -10.91725,0 0,-14.63377 c -4.33463,-1.01768 -8.86644,-3.24283 -13.57794,-6.67283 l -2.70289,6.67283 -6.16602,0 -5.55367,-29.79543 10.81166,-2.59734 c 1.95999,4.29693 3.85002,7.66715 5.65926,10.13594 1.80919,2.46885 3.84114,4.61025 6.10266,6.41942 1.65842,1.35694 3.46693,2.38347 5.42697,3.06192 l 0,-18.83597 c -8.10383,-2.71377 -13.66673,-5.07858 -16.68207,-7.09514 -3.01538,-2.01648 -5.38246,-4.57905 -7.11627,-7.70755 -1.73383,-3.12838 -2.61847,-6.29855 -2.61847,-9.50242 0,-3.65608 1.08466,-7.18705 3.25198,-10.57941 2.16726,-3.39221 5.17212,-6.08986 9.01675,-8.08762 3.84456,-1.9976 8.56961,-3.11018 14.14808,-3.33642 l 0,-12.60657 z m 0,25.10757 c -3.09079,0.41469 -5.28575,1.08041 -6.56723,1.98496 -1.84695,1.31927 -2.7663,2.90436 -2.76628,4.75121 0,1.54543 0.66799,3.02334 2.00611,4.4556 1.33803,1.43235 3.78433,2.7638 7.32743,3.9699 l 0,-15.16167 z m 10.91725,37.08062 0,16.97771 c 2.93995,-0.37691 5.27909,-1.21022 7.0318,-2.49175 1.75264,-1.28151 2.61839,-3.00851 2.61847,-5.19468 -5e-5,-1.92225 -0.64467,-3.58886 -1.96386,-4.9835 -1.80924,-1.84688 -4.36956,-3.29005 -7.68641,-4.30778 z"
         style="fill:#ffffff;fill-opacity:1;fill-rule:evenodd;stroke:none;display:inline;enable-background:new"
         id="path3855"
         inkscape:connector-curvature="0" />
      <path
         d="M 431.99855,57.001452 421,68 431.99855,78.998548 443,68 431.99855,57.001452 z m -0.6591,3.768774 1.50112,0 0,1.927939 c 0.22285,0.06739 0.41039,0.136195 0.56329,0.206149 0.15288,0.06998 0.3593,0.184868 0.61845,0.34552 l 0.29325,-0.551669 0.84783,0 0.9088,3.521977 -1.42853,0.412299 c -0.37316,-0.969148 -0.97387,-1.680289 -1.80309,-2.131185 l 0,2.232808 c 1.02098,0.290237 1.76346,0.585299 2.22991,0.888477 0.46643,0.303194 0.82231,0.67765 1.0685,1.120763 0.24616,0.443121 0.36873,0.902373 0.36874,1.379175 -1e-5,0.51308 -0.14562,1.00658 -0.43843,1.4808 -0.29283,0.47421 -0.72489,0.87171 -1.29497,1.19044 -0.5701,0.31873 -1.21336,0.50275 -1.93375,0.55457 l 0,1.88149 -1.50112,0 0,-2.01215 c -0.59601,-0.139931 -1.21914,-0.445891 -1.86697,-0.917511 l -0.37165,0.91751 -0.84782,0 -0.76363,-4.096869 1.4866,-0.357134 c 0.2695,0.590827 0.52938,1.054233 0.77815,1.393693 0.24876,0.33947 0.52816,0.63391 0.83911,0.88267 0.22804,0.18658 0.47671,0.32773 0.74621,0.42101 l 0,-2.589943 c -1.11427,-0.373144 -1.87917,-0.698305 -2.29378,-0.975582 -0.41462,-0.277266 -0.74009,-0.629619 -0.97849,-1.059787 -0.2384,-0.430153 -0.36004,-0.866052 -0.36004,-1.306584 0,-0.50271 0.14914,-0.988219 0.44715,-1.454668 0.298,-0.46643 0.71117,-0.837356 1.2398,-1.112048 0.52863,-0.274671 1.17832,-0.42765 1.94536,-0.458757 l 0,-1.733404 z m 0,3.452289 c -0.42499,0.05702 -0.72679,0.148557 -0.903,0.272933 -0.25395,0.181399 -0.38036,0.39935 -0.38036,0.653291 0,0.212496 0.0918,0.415709 0.27584,0.612645 0.18398,0.196948 0.52035,0.380022 1.00752,0.545862 l 0,-2.084731 z m 1.50112,5.098586 0,2.334437 c 0.40424,-0.0518 0.72587,-0.16641 0.96687,-0.34262 0.24099,-0.17621 0.36003,-0.41367 0.36004,-0.71427 0,-0.26431 -0.0886,-0.49346 -0.27003,-0.685227 -0.24877,-0.253946 -0.60081,-0.452382 -1.05688,-0.59232 z"
         style="fill:#ffffff;fill-opacity:1;fill-rule:evenodd;stroke:none;display:inline;enable-background:new"
         id="path3857"
         inkscape:connector-curvature="0" />
      <path
         inkscape:connector-curvature="0"
         id="path3859"
         style="fill:#ffffff;fill-opacity:1;fill-rule:evenodd;stroke:none;display:inline;enable-background:new"
         d="M 427.99895,104.00106 420,112 427.99895,119.99894 436,112 l -8.00105,-7.99894 z m -0.47935,2.74092 1.09172,0 0,1.40214 c 0.16208,0.049 0.29847,0.0991 0.40967,0.14993 0.11118,0.0509 0.26131,0.13445 0.44978,0.25128 l 0.21327,-0.40121 0.61661,0 0.66094,2.56144 -1.03893,0.29985 c -0.27139,-0.70483 -0.70827,-1.22203 -1.31134,-1.54995 l 0,1.62386 c 0.74253,0.21108 1.28252,0.42567 1.62176,0.64616 0.33922,0.22051 0.59804,0.49284 0.77709,0.81511 0.17902,0.32227 0.26816,0.65627 0.26817,1.00303 -1e-5,0.37315 -0.1059,0.73206 -0.31886,1.07695 -0.21296,0.34488 -0.52719,0.63397 -0.94179,0.86577 -0.41462,0.23181 -0.88245,0.36564 -1.40637,0.40333 l 0,1.36835 -1.09172,0 0,-1.46338 c -0.43346,-0.10177 -0.88665,-0.32428 -1.3578,-0.66728 l -0.27029,0.66728 -0.61659,0 -0.55537,-2.97954 1.08116,-0.25974 c 0.196,0.4297 0.38501,0.76672 0.56593,1.0136 0.18092,0.24689 0.38412,0.46102 0.61026,0.64194 0.16585,0.1357 0.3467,0.23835 0.5427,0.30619 l 0,-1.88359 c -0.81038,-0.27138 -1.36667,-0.50786 -1.6682,-0.70952 -0.30155,-0.20165 -0.53825,-0.4579 -0.71163,-0.77075 -0.17338,-0.31284 -0.26185,-0.62986 -0.26185,-0.95025 0,-0.3656 0.10847,-0.7187 0.3252,-1.05794 0.21673,-0.33922 0.51721,-0.60898 0.90167,-0.80876 0.38446,-0.19976 0.85696,-0.31102 1.41481,-0.33364 l 0,-1.26066 z m 0,2.51076 c -0.30908,0.0415 -0.52857,0.10804 -0.65673,0.1985 -0.18469,0.13192 -0.27662,0.29043 -0.27662,0.47512 0,0.15454 0.0668,0.30233 0.20061,0.44556 0.1338,0.14323 0.37843,0.27638 0.73274,0.39699 l 0,-1.51617 z m 1.09172,3.70806 0,1.69777 c 0.294,-0.0377 0.52791,-0.12102 0.70318,-0.24917 0.17527,-0.12816 0.26184,-0.30086 0.26185,-0.51947 0,-0.19223 -0.0644,-0.35888 -0.19639,-0.49835 -0.18092,-0.18469 -0.43695,-0.32901 -0.76864,-0.43078 z" />
      <path
         d="M 423.99921,142.00079 418,148 423.99921,153.99921 430,148 l -6.00079,-5.99921 z m -0.35951,2.05569 0.81879,0 0,1.05161 c 0.12156,0.0367 0.22385,0.0743 0.30725,0.11244 0.0834,0.0382 0.19598,0.10084 0.33734,0.18846 l 0.15995,-0.3009 0.46246,0 0.4957,1.92107 -0.7792,0.22489 c -0.20354,-0.52862 -0.5312,-0.91652 -0.9835,-1.16246 l 0,1.21789 c 0.5569,0.15832 0.96189,0.31926 1.21632,0.48462 0.25441,0.16539 0.44853,0.36964 0.58282,0.61135 0.13426,0.2417 0.20112,0.49219 0.20112,0.75226 0,0.27986 -0.0794,0.54905 -0.23914,0.80771 -0.15972,0.25866 -0.39539,0.47549 -0.70634,0.64933 -0.31097,0.17387 -0.66184,0.27424 -1.05478,0.3025 l 0,1.02626 -0.81879,0 0,-1.09754 c -0.3251,-0.0763 -0.66499,-0.24321 -1.01835,-0.50046 l -0.20272,0.50046 -0.46244,0 -0.41653,-2.23464 0.81087,-0.19482 c 0.147,0.32228 0.28876,0.57504 0.42445,0.7602 0.13569,0.18517 0.28809,0.34578 0.45769,0.48146 0.12439,0.10178 0.26003,0.17876 0.40703,0.22964 l 0,-1.41269 c -0.60778,-0.20353 -1.025,-0.3809 -1.25115,-0.53213 -0.22616,-0.15125 -0.40369,-0.34344 -0.53372,-0.57806 -0.13004,-0.23463 -0.19639,-0.4724 -0.19639,-0.71269 0,-0.27421 0.0814,-0.53903 0.2439,-0.79346 0.16255,-0.25441 0.38791,-0.45673 0.67625,-0.60658 0.28835,-0.14981 0.64272,-0.23325 1.06111,-0.25022 l 0,-0.9455 z m 0,1.88308 c -0.23181,0.0311 -0.39643,0.081 -0.49255,0.14887 -0.13851,0.0989 -0.20746,0.21783 -0.20746,0.35634 0,0.1159 0.0501,0.22674 0.15045,0.33417 0.10035,0.10742 0.28383,0.20729 0.54956,0.29774 l 0,-1.13712 z m 0.81879,2.78103 0,1.27334 c 0.2205,-0.0283 0.39593,-0.0908 0.52738,-0.18688 0.13146,-0.0961 0.19638,-0.22564 0.19639,-0.3896 0,-0.14418 -0.0483,-0.26916 -0.14729,-0.37377 -0.13569,-0.13852 -0.32771,-0.24675 -0.57648,-0.32309 z"
         style="fill:#ffffff;fill-opacity:1;fill-rule:evenodd;stroke:none;display:inline;enable-background:new"
         id="path3861"
         inkscape:connector-curvature="0" />
    </g>
    <g
       inkscape:groupmode="layer"
       id="layer5"
       inkscape:label="Highlights"
       style="display:inline"
       sodipodi:insensitive="true">
      <path
         style="opacity:0.12999998;color:#bebebe;fill:#ffffff;fill-opacity:1;fill-rule:nonzero;stroke:none;stroke-width:0;marker:none;visibility:visible;display:inline;overflow:visible;enable-background:accumulate"
         d="M 84,47 C 56.836703,47 35,68.836703 35,96 l 0,1 C 35,69.836703 56.836703,48 84,48 l 120,0 c 27.1633,0 49,21.836703 49,49 l 0,-1 C 253,68.836703 231.1633,47 204,47 L 84,47 z"
         id="rect3894"
         inkscape:connector-curvature="0" />
      <path
         style="opacity:0.12999998;color:#bebebe;fill:#ffffff;fill-opacity:1;fill-rule:nonzero;stroke:none;stroke-width:0;marker:none;visibility:visible;display:inline;overflow:visible;enable-background:accumulate"
         d="m 419,141 c -1.1253,0 -2,0.8747 -2,2 l 0,1 c 0,-1.1253 0.8747,-2 2,-2 l 10,0 c 1.1253,0 2,0.8747 2,2 l 0,-1 c 0,-1.1253 -0.8747,-2 -2,-2 l -10,0 z"
         id="rect3896"
         inkscape:connector-curvature="0" />
      <path
         style="opacity:0.12999998;color:#bebebe;fill:#ffffff;fill-opacity:1;fill-rule:nonzero;stroke:none;stroke-width:0;marker:none;visibility:visible;display:inline;overflow:visible;enable-background:accumulate"
         d="m 422,102 c -2.2333,0 -4,1.7667 -4,4 l 0,1 c 0,-2.2333 1.7667,-4 4,-4 l 12,0 c 2.2333,0 4,1.7667 4,4 l 0,-1 c 0,-2.2333 -1.7667,-4 -4,-4 l -12,0 z"
         id="rect3898"
         inkscape:connector-curvature="0" />
      <path
         style="opacity:0.12999998;color:#bebebe;fill:#ffffff;fill-opacity:1;fill-rule:nonzero;stroke:none;stroke-width:0;marker:none;visibility:visible;display:inline;overflow:visible;enable-background:accumulate"
         d="m 424,54 c -3.3413,0 -6,2.658703 -6,6 l 0,1 c 0,-3.341297 2.6587,-6 6,-6 l 16,0 c 3.3413,0 6,2.658703 6,6 l 0,-1 c 0,-3.341297 -2.6587,-6 -6,-6 l -16,0 z"
         id="rect3900"
         inkscape:connector-curvature="0" />
      <path
         style="opacity:0.12999998;color:#bebebe;fill:#ffffff;fill-opacity:1;fill-rule:nonzero;stroke:none;stroke-width:0;marker:none;visibility:visible;display:inline;overflow:visible;enable-background:accumulate"
         d="m 300,224 c -4.4493,0 -8,3.5507 -8,8 l 0,1 c 0,-4.4493 3.5507,-8 8,-8 l 24,0 c 4.4493,0 8,3.5507 8,8 l 0,-1 c 0,-4.4493 -3.5507,-8 -8,-8 l -24,0 z"
         id="rect3902"
         inkscape:connector-curvature="0" />
      <path
         style="opacity:0.12999998;color:#bebebe;fill:#ffffff;fill-opacity:1;fill-rule:nonzero;stroke:none;stroke-width:0;marker:none;visibility:visible;display:inline;overflow:visible;enable-background:accumulate"
         d="m 310,33 c -9.4353,0 -17,7.564703 -17,17 l 0,1 c 0,-9.435297 7.5647,-17 17,-17 l 52,0 c 9.4353,0 17,7.564703 17,17 l 0,-1 c 0,-9.435297 -7.5647,-17 -17,-17 l -52,0 z"
         id="rect3904"
         inkscape:connector-curvature="0" />
      <path
         style="opacity:0.12999998;color:#bebebe;fill:#ffffff;fill-opacity:1;fill-rule:nonzero;stroke:none;stroke-width:0;marker:none;visibility:visible;display:inline;overflow:visible;enable-background:accumulate"
         d="m 302.5,143 c -6.3883,0 -11.5,5.1117 -11.5,11.5 l 0,1 c 0,-6.3883 5.1117,-11.5 11.5,-11.5 l 35,0 c 6.3883,0 11.5,5.1117 11.5,11.5 l 0,-1 c 0,-6.3883 -5.1117,-11.5 -11.5,-11.5 l -35,0 z"
         id="rect3906"
         inkscape:connector-curvature="0" />
      <path
         id="path4085"
         d="m 204,266 c 27.1633,0 49,-21.8367 49,-49 l 0,-1 c 0,27.1633 -21.8367,49 -49,49 L 84,265 C 56.8367,265 35,243.1633 35,216 l 0,1 c 0,27.1633 21.8367,49 49,49 l 120,0 z"
         style="opacity:0.5;color:#bebebe;fill:#000000;fill-opacity:1;fill-rule:nonzero;stroke:none;stroke-width:0;marker:none;visibility:visible;display:inline;overflow:visible;enable-background:accumulate"
         inkscape:connector-curvature="0" />
      <path
         id="path4087"
         d="m 429,156 c 1.1253,0 2,-0.8747 2,-2 l 0,-1 c 0,1.1253 -0.8747,2 -2,2 l -10,0 c -1.1253,0 -2,-0.8747 -2,-2 l 0,1 c 0,1.1253 0.8747,2 2,2 l 10,0 z"
         style="opacity:0.3;color:#bebebe;fill:#000000;fill-opacity:1;fill-rule:nonzero;stroke:none;stroke-width:0;marker:none;visibility:visible;display:inline;overflow:visible;enable-background:accumulate"
         inkscape:connector-curvature="0" />
      <path
         id="path4089"
         d="m 434,123 c 2.2333,0 4,-1.7667 4,-4 l 0,-1 c 0,2.2333 -1.7667,4 -4,4 l -12,0 c -2.2333,0 -4,-1.7667 -4,-4 l 0,1 c 0,2.2333 1.7667,4 4,4 l 12,0 z"
         style="opacity:0.3;color:#bebebe;fill:#000000;fill-opacity:1;fill-rule:nonzero;stroke:none;stroke-width:0;marker:none;visibility:visible;display:inline;overflow:visible;enable-background:accumulate"
         inkscape:connector-curvature="0" />
      <path
         id="path4091"
         d="m 440,83 c 3.3413,0 6,-2.6587 6,-6 l 0,-1 c 0,3.3413 -2.6587,6 -6,6 l -16,0 c -3.3413,0 -6,-2.6587 -6,-6 l 0,1 c 0,3.3413 2.6587,6 6,6 l 16,0 z"
         style="opacity:0.5;color:#bebebe;fill:#000000;fill-opacity:1;fill-rule:nonzero;stroke:none;stroke-width:0;marker:none;visibility:visible;display:inline;overflow:visible;enable-background:accumulate"
         inkscape:connector-curvature="0" />
      <path
         id="path4093"
         d="m 324,265 c 4.4493,0 8,-3.5507 8,-8 l 0,-1 c 0,4.4493 -3.5507,8 -8,8 l -24,0 c -4.4493,0 -8,-3.5507 -8,-8 l 0,1 c 0,4.4493 3.5507,8 8,8 l 24,0 z"
         style="opacity:0.5;color:#bebebe;fill:#000000;fill-opacity:1;fill-rule:nonzero;stroke:none;stroke-width:0;marker:none;visibility:visible;display:inline;overflow:visible;enable-background:accumulate"
         inkscape:connector-curvature="0" />
      <path
         id="path4095"
         d="m 362,120 c 9.4353,0 17,-7.5647 17,-17 l 0,-1 c 0,9.4353 -7.5647,17 -17,17 l -52,0 c -9.4353,0 -17,-7.5647 -17,-17 l 0,1 c 0,9.4353 7.5647,17 17,17 l 52,0 z"
         style="opacity:0.5;color:#bebebe;fill:#000000;fill-opacity:1;fill-rule:nonzero;stroke:none;stroke-width:0;marker:none;visibility:visible;display:inline;overflow:visible;enable-background:accumulate"
         inkscape:connector-curvature="0" />
      <path
         id="path4097"
         d="m 337.5,202 c 6.3883,0 11.5,-5.1117 11.5,-11.5 l 0,-1 c 0,6.3883 -5.1117,11.5 -11.5,11.5 l -35,0 c -6.3883,0 -11.5,-5.1117 -11.5,-11.5 l 0,1 c 0,6.3883 5.1117,11.5 11.5,11.5 l 35,0 z"
         style="opacity:0.5;color:#bebebe;fill:#000000;fill-opacity:1;fill-rule:nonzero;stroke:none;stroke-width:0;marker:none;visibility:visible;display:inline;overflow:visible;enable-background:accumulate"
         inkscape:connector-curvature="0" />
      <path
         inkscape:connector-curvature="0"
         id="path4280"
         d="M 84,265 C 56.836703,265 35,243.1633 35,216 l 0,-1 c 0,27.1633 21.836703,49 49,49 l 120,0 c 27.1633,0 49,-21.8367 49,-49 l 0,1 c 0,27.1633 -21.8367,49 -49,49 l -120,0 z"
         style="opacity:0.1;color:#bebebe;fill:#ffffff;fill-opacity:1;fill-rule:nonzero;stroke:none;stroke-width:0;marker:none;visibility:visible;display:inline;overflow:visible;enable-background:accumulate" />
      <path
         style="opacity:0.1;color:#bebebe;fill:#ffffff;fill-opacity:1;fill-rule:nonzero;stroke:none;stroke-width:0;marker:none;visibility:visible;display:inline;overflow:visible;enable-background:accumulate"
         d="m 300,264 c -4.4493,0 -8,-3.5507 -8,-8 l 0,-1 c 0,4.4493 3.5507,8 8,8 l 24,0 c 4.4493,0 8,-3.5507 8,-8 l 0,1 c 0,4.4493 -3.5507,8 -8,8 l -24,0 z"
         id="path4294"
         inkscape:connector-curvature="0" />
      <path
         style="opacity:0.1;color:#bebebe;fill:#ffffff;fill-opacity:1;fill-rule:nonzero;stroke:none;stroke-width:0;marker:none;visibility:visible;display:inline;overflow:visible;enable-background:accumulate"
         d="m 302.5,201 c -6.3883,0 -11.5,-5.1117 -11.5,-11.5 l 0,-1 c 0,6.3883 5.1117,11.5 11.5,11.5 l 35,0 c 6.3883,0 11.5,-5.1117 11.5,-11.5 l 0,1 c 0,6.3883 -5.1117,11.5 -11.5,11.5 l -35,0 z"
         id="path4296"
         inkscape:connector-curvature="0" />
      <path
         style="opacity:0.1;color:#bebebe;fill:#ffffff;fill-opacity:1;fill-rule:nonzero;stroke:none;stroke-width:0;marker:none;visibility:visible;display:inline;overflow:visible;enable-background:accumulate"
         d="m 310,119 c -9.4353,0 -17,-7.5647 -17,-17 l 0,-1 c 0,9.4353 7.5647,17 17,17 l 52,0 c 9.4353,0 17,-7.5647 17,-17 l 0,1 c 0,9.4353 -7.5647,17 -17,17 l -52,0 z"
         id="path4298"
         inkscape:connector-curvature="0" />
      <path
         style="opacity:0.1;color:#bebebe;fill:#ffffff;fill-opacity:1;fill-rule:nonzero;stroke:none;stroke-width:0;marker:none;visibility:visible;display:inline;overflow:visible;enable-background:accumulate"
         d="m 424,82 c -3.3413,0 -6,-2.658703 -6,-6 l 0,-1 c 0,3.341297 2.6587,6 6,6 l 16,0 c 3.3413,0 6,-2.658703 6,-6 l 0,1 c 0,3.341297 -2.6587,6 -6,6 l -16,0 z"
         id="path4300"
         inkscape:connector-curvature="0" />
      <path
         style="opacity:0.1;color:#bebebe;fill:#ffffff;fill-opacity:1;fill-rule:nonzero;stroke:none;stroke-width:0;marker:none;visibility:visible;display:inline;overflow:visible;enable-background:accumulate"
         d="m 422,122 c -2.2333,0 -4,-1.7667 -4,-4 l 0,-1 c 0,2.2333 1.7667,4 4,4 l 12,0 c 2.2333,0 4,-1.7667 4,-4 l 0,1 c 0,2.2333 -1.7667,4 -4,4 l -12,0 z"
         id="path4302"
         inkscape:connector-curvature="0" />
      <path
         style="opacity:0.1;color:#bebebe;fill:#ffffff;fill-opacity:1;fill-rule:nonzero;stroke:none;stroke-width:0;marker:none;visibility:visible;display:inline;overflow:visible;enable-background:accumulate"
         d="m 419,154.5 c -1.1253,0 -2,-0.8747 -2,-2 l 0,-1 c 0,1.1253 0.8747,2 2,2 l 10,0 c 1.1253,0 2,-0.8747 2,-2 l 0,1 c 0,1.1253 -0.8747,2 -2,2 l -10,0 z"
         id="path4304"
         inkscape:connector-curvature="0" />
    </g>
    <g
       inkscape:groupmode="layer"
       id="layer3"
       inkscape:label="Border"
       style="display:inline"
       sodipodi:insensitive="true">
      <path
         style="opacity:0.41000001;color:#bebebe;fill:#000000;fill-opacity:1;fill-rule:nonzero;stroke:none;stroke-width:0;marker:none;visibility:visible;display:inline;overflow:visible;enable-background:accumulate"
         d="m 422,101 c -2.77,0 -5,2.23 -5,5 l 0,12 c 0,2.77 2.23,5 5,5 l 12,0 c 2.77,0 5,-2.23 5,-5 l 0,-12 c 0,-2.77 -2.23,-5 -5,-5 l -12,0 z m 0,1 12,0 c 2.2333,0 4,1.7667 4,4 l 0,12 c 0,2.2333 -1.7667,4 -4,4 l -12,0 c -2.2333,0 -4,-1.7667 -4,-4 l 0,-12 c 0,-2.2333 1.7667,-4 4,-4 z"
         id="rect4099"
         inkscape:connector-curvature="0" />
      <path
         style="opacity:0.41000001;color:#bebebe;fill:#000000;fill-opacity:1;fill-rule:nonzero;stroke:none;stroke-width:0;marker:none;visibility:visible;display:inline;overflow:visible;enable-background:accumulate"
         d="m 424,53 c -3.878,0 -7,3.122 -7,7 l 0,16 c 0,3.878 3.122,7 7,7 l 16,0 c 3.878,0 7,-3.122 7,-7 l 0,-16 c 0,-3.878 -3.122,-7 -7,-7 l -16,0 z m 0,1 16,0 c 3.3413,0 6,2.658703 6,6 l 0,16 c 0,3.341297 -2.6587,6 -6,6 l -16,0 c -3.3413,0 -6,-2.658703 -6,-6 l 0,-16 c 0,-3.341297 2.6587,-6 6,-6 z"
         id="rect4151"
         inkscape:connector-curvature="0" />
      <path
         style="opacity:0.41000001;color:#bebebe;fill:#000000;fill-opacity:1;fill-rule:nonzero;stroke:none;stroke-width:0;marker:none;visibility:visible;display:inline;overflow:visible;enable-background:accumulate"
         d="m 419,140 c -1.662,0 -3,1.338 -3,3 l 0,10 c 0,1.662 1.338,3 3,3 l 10,0 c 1.662,0 3,-1.338 3,-3 l 0,-10 c 0,-1.662 -1.338,-3 -3,-3 l -10,0 z m 0,1 10,0 c 1.1253,0 2,0.8747 2,2 l 0,10 c 0,1.1253 -0.8747,2 -2,2 l -10,0 c -1.1253,0 -2,-0.8747 -2,-2 l 0,-10 c 0,-1.1253 0.8747,-2 2,-2 z"
         id="rect4095"
         inkscape:connector-curvature="0" />
      <path
         style="opacity:0.41000001;color:#bebebe;fill:#000000;fill-opacity:1;fill-rule:nonzero;stroke:none;stroke-width:0;marker:none;visibility:visible;display:inline;overflow:visible;enable-background:accumulate"
         d="m 300,223 c -4.986,0 -9,4.014 -9,9 l 0,24 c 0,4.986 4.014,9 9,9 l 24,0 c 4.986,0 9,-4.014 9,-9 l 0,-24 c 0,-4.986 -4.014,-9 -9,-9 l -24,0 z m 0,1 24,0 c 4.4493,0 8,3.5507 8,8 l 0,24 c 0,4.4493 -3.5507,8 -8,8 l -24,0 c -4.4493,0 -8,-3.5507 -8,-8 l 0,-24 c 0,-4.4493 3.5507,-8 8,-8 z"
         id="rect4783"
         inkscape:connector-curvature="0" />
      <path
         style="opacity:0.41000001;color:#bebebe;fill:#000000;fill-opacity:1;fill-rule:nonzero;stroke:none;stroke-width:0;marker:none;visibility:visible;display:inline;overflow:visible;enable-background:accumulate"
         d="m 302.5,142 c -6.925,0 -12.5,5.575 -12.5,12.5 l 0,35 c 0,6.925 5.575,12.5 12.5,12.5 l 35,0 c 6.925,0 12.5,-5.575 12.5,-12.5 l 0,-35 c 0,-6.925 -5.575,-12.5 -12.5,-12.5 l -35,0 z m 0,1 35,0 c 6.3883,0 11.5,5.1117 11.5,11.5 l 0,35 c 0,6.3883 -5.1117,11.5 -11.5,11.5 l -35,0 c -6.3883,0 -11.5,-5.1117 -11.5,-11.5 l 0,-35 c 0,-6.3883 5.1117,-11.5 11.5,-11.5 z"
         id="rect4515"
         inkscape:connector-curvature="0" />
      <path
         style="opacity:0.41000001;color:#bebebe;fill:#000000;fill-opacity:1;fill-rule:nonzero;stroke:none;stroke-width:0;marker:none;visibility:visible;display:inline;overflow:visible;enable-background:accumulate"
         d="m 310,32 c -9.972,0 -18,8.028 -18,18 l 0,52 c 0,9.972 8.028,18 18,18 l 52,0 c 9.972,0 18,-8.028 18,-18 l 0,-52 c 0,-9.972 -8.028,-18 -18,-18 l -52,0 z m 0,1 52,0 c 9.4353,0 17,7.564703 17,17 l 0,52 c 0,9.4353 -7.5647,17 -17,17 l -52,0 c -9.4353,0 -17,-7.5647 -17,-17 l 0,-52 c 0,-9.435297 7.5647,-17 17,-17 z"
         id="rect4511"
         inkscape:connector-curvature="0" />
      <path
         style="opacity:0.41000001;color:#bebebe;fill:#000000;fill-opacity:1;fill-rule:nonzero;stroke:none;stroke-width:0;marker:none;visibility:visible;display:inline;overflow:visible;enable-background:accumulate"
         d="M 84,46 C 56.3,46 34,68.3 34,96 l 0,120 c 0,27.7 22.3,50 50,50 l 120,0 c 27.7,0 50,-22.3 50,-50 L 254,96 C 254,68.3 231.7,46 204,46 L 84,46 z m 0,1 120,0 c 27.1633,0 49,21.836703 49,49 l 0,120 c 0,27.1633 -21.8367,49 -49,49 L 84,265 C 56.836703,265 35,243.1633 35,216 L 35,96 C 35,68.836703 56.836703,47 84,47 z"
         id="rect4040"
         inkscape:connector-curvature="0" />
    </g>
  </g>
</svg>
