<?xml version="1.0" encoding="UTF-8" standalone="no"?>
<!-- Created with Inkscape (http://www.inkscape.org/) -->

<svg
   xmlns:dc="http://purl.org/dc/elements/1.1/"
   xmlns:cc="http://creativecommons.org/ns#"
   xmlns:rdf="http://www.w3.org/1999/02/22-rdf-syntax-ns#"
   xmlns:svg="http://www.w3.org/2000/svg"
   xmlns="http://www.w3.org/2000/svg"
   xmlns:xlink="http://www.w3.org/1999/xlink"
   xmlns:sodipodi="http://sodipodi.sourceforge.net/DTD/sodipodi-0.dtd"
   xmlns:inkscape="http://www.inkscape.org/namespaces/inkscape"
   inkscape:export-ydpi="90.000000"
   inkscape:export-xdpi="90.000000"
   width="480"
   height="300"
   id="svg11300"
   sodipodi:version="0.32"
   inkscape:version="0.48.4 r9939"
   sodipodi:docname="ibus-pinyin.svg"
   inkscape:output_extension="org.inkscape.output.svg.inkscape"
   version="1.0"
   style="display:inline;enable-background:new"
   inkscape:export-filename="/home/sam/moka2-template.png">
  <sodipodi:namedview
     stroke="#ef2929"
     fill="#f57900"
     id="base"
     pagecolor="#ffffff"
     bordercolor="#666666"
     borderopacity="0.25490196"
     inkscape:pageopacity="0"
     inkscape:pageshadow="2"
     inkscape:zoom="1"
     inkscape:cx="367.95357"
     inkscape:cy="188.39678"
     inkscape:current-layer="layer7"
     showgrid="false"
     inkscape:grid-bbox="true"
     inkscape:document-units="px"
     inkscape:showpageshadow="false"
     inkscape:window-width="1364"
     inkscape:window-height="701"
     inkscape:window-x="0"
     inkscape:window-y="27"
     width="400px"
     height="300px"
     inkscape:snap-nodes="true"
     inkscape:snap-bbox="true"
     gridtolerance="10000"
     inkscape:object-nodes="true"
     inkscape:snap-grids="true"
     showguides="true"
     inkscape:guide-bbox="true"
     inkscape:window-maximized="1"
     inkscape:bbox-nodes="true"
     inkscape:bbox-paths="true"
     inkscape:snap-bbox-edge-midpoints="true"
     inkscape:snap-bbox-midpoints="true">
    <inkscape:grid
       spacingy="1px"
       spacingx="1px"
       id="grid5883"
       type="xygrid"
       enabled="true"
       visible="true"
       empspacing="4"
       snapvisiblegridlinesonly="true"
       dotted="false"
       color="#000000"
       opacity="0.1254902"
       empcolor="#203ef3"
       empopacity="0.36470588" />
    <inkscape:grid
       type="xygrid"
       id="grid11592"
       empspacing="8"
       visible="true"
       enabled="false"
       spacingx="0.5px"
       spacingy="0.5px"
       color="#ff0000"
       opacity="0.1254902"
       empcolor="#ff0000"
       empopacity="0.25098039"
       snapvisiblegridlinesonly="true"
       dotted="true" />
  </sodipodi:namedview>
  <defs
     id="defs3">
    <linearGradient
       id="outerBackgroundGradient">
      <stop
         style="stop-color:#1217b4;stop-opacity:1;"
         offset="0"
         id="stop3864-8-6" />
      <stop
         style="stop-color:#3e44eb;stop-opacity:1;"
         offset="1"
         id="stop3866-9-1" />
    </linearGradient>
    <linearGradient
       inkscape:collect="always"
       xlink:href="#outerBackgroundGradient"
       id="linearGradient4097"
       gradientUnits="userSpaceOnUse"
       x1="264"
       y1="280.00003"
       x2="264"
       y2="40.00005"
       gradientTransform="matrix(0.06666667,0,0,0.06666667,414.4,137.33333)" />
    <linearGradient
       inkscape:collect="always"
       xlink:href="#outerBackgroundGradient"
       id="linearGradient4101"
       gradientUnits="userSpaceOnUse"
       gradientTransform="matrix(0.0875,0,0,0.0875,414.9,97.5)"
       x1="286.85715"
       y1="302.85715"
       x2="286.85715"
       y2="28.571428" />
    <linearGradient
       inkscape:collect="always"
       xlink:href="#outerBackgroundGradient"
       id="linearGradient4153"
       gradientUnits="userSpaceOnUse"
       gradientTransform="matrix(0.11931818,0,0,0.11931818,414.13636,48.22727)"
       x1="283.80957"
       y1="299.80954"
       x2="283.80957"
       y2="31.61907" />
    <linearGradient
       inkscape:collect="always"
       xlink:href="#outerBackgroundGradient"
       id="linearGradient4869"
       gradientUnits="userSpaceOnUse"
       gradientTransform="matrix(0.175,0,0,-0.175,286.79999,-215.99997)"
       x1="281.14291"
       y1="297.14304"
       x2="281.14291"
       y2="22.857315" />
    <clipPath
       clipPathUnits="userSpaceOnUse"
       id="clipPath4891">
      <rect
         ry="9"
         y="223"
         x="307"
         height="42"
         width="42"
         id="rect4893"
         style="color:#bebebe;fill:url(#linearGradient4895);fill-opacity:1;fill-rule:nonzero;stroke:none;stroke-width:0;marker:none;visibility:visible;display:inline;overflow:visible;enable-background:accumulate"
         transform="matrix(0,1,-1,0,0,0)" />
    </clipPath>
    <linearGradient
       inkscape:collect="always"
       xlink:href="#outerBackgroundGradient"
       id="linearGradient4895"
       gradientUnits="userSpaceOnUse"
       gradientTransform="matrix(0.175,0,0,0.175,302.79999,215.99997)"
       x1="144.00006"
       y1="280.00018"
       x2="144.00006"
       y2="40.000172" />
    <clipPath
       clipPathUnits="userSpaceOnUse"
       id="clipPath4044">
      <rect
         ry="4"
         y="85"
         x="433"
         height="22"
         width="22"
         id="rect4046"
         style="color:#bebebe;fill:url(#linearGradient4048);fill-opacity:1;fill-rule:nonzero;stroke:none;stroke-width:0;marker:none;visibility:visible;display:inline;overflow:visible;enable-background:accumulate" />
    </clipPath>
    <linearGradient
       inkscape:collect="always"
       xlink:href="#outerBackgroundGradient"
       id="linearGradient4048"
       gradientUnits="userSpaceOnUse"
       gradientTransform="matrix(0.0875,0,0,0.0875,430.9,81.499996)"
       x1="149.71428"
       y1="291.42862"
       x2="149.71428"
       y2="40.000046" />
    <clipPath
       clipPathUnits="userSpaceOnUse"
       id="clipPath4089">
      <rect
         style="color:#bebebe;fill:url(#linearGradient4093);fill-opacity:1;fill-rule:nonzero;stroke:none;stroke-width:0;marker:none;visibility:visible;display:inline;overflow:visible;enable-background:accumulate"
         id="rect4091"
         width="30"
         height="30"
         x="433"
         y="37"
         ry="6" />
    </clipPath>
    <linearGradient
       inkscape:collect="always"
       xlink:href="#outerBackgroundGradient"
       id="linearGradient4093"
       gradientUnits="userSpaceOnUse"
       gradientTransform="matrix(0.11931818,0,0,0.11931818,430.13636,32.227267)"
       x1="149.71432"
       y1="291.42862"
       x2="149.71432"
       y2="40.00005" />
    <clipPath
       clipPathUnits="userSpaceOnUse"
       id="clipPath3855">
      <rect
         style="color:#bebebe;fill:url(#linearGradient3859);fill-opacity:1;fill-rule:nonzero;stroke:none;stroke-width:0;marker:none;visibility:visible;display:inline;overflow:visible;enable-background:accumulate"
         id="rect3857"
         width="16"
         height="16"
         x="304"
         y="212"
         ry="3"
         transform="matrix(0,1,-1,0,0,0)" />
    </clipPath>
    <linearGradient
       inkscape:collect="always"
       xlink:href="#outerBackgroundGradient"
       id="linearGradient3859"
       gradientUnits="userSpaceOnUse"
       gradientTransform="matrix(0.06666667,0,0,0.06666667,302.4,209.33333)"
       x1="144"
       y1="280.00003"
       x2="144"
       y2="40.00005" />
    <clipPath
       clipPathUnits="userSpaceOnUse"
       id="clipPath3862">
      <rect
         ry="50"
         y="46"
         x="34"
         height="220"
         width="220"
         id="rect3864"
         style="color:#bebebe;fill:url(#linearGradient3866);fill-opacity:1;fill-rule:nonzero;stroke:none;stroke-width:0;marker:none;visibility:visible;display:inline;overflow:visible;enable-background:accumulate" />
    </clipPath>
    <linearGradient
       inkscape:collect="always"
       xlink:href="#outerBackgroundGradient"
       id="linearGradient3866"
       gradientUnits="userSpaceOnUse"
       gradientTransform="translate(0,-4)"
       x1="144"
       y1="280"
       x2="144"
       y2="40" />
    <linearGradient
       inkscape:collect="always"
       xlink:href="#outerBackgroundGradient"
       id="linearGradient3876"
       gradientUnits="userSpaceOnUse"
       gradientTransform="translate(0,-4)"
       x1="272"
       y1="288"
       x2="272"
       y2="32" />
    <clipPath
       clipPathUnits="userSpaceOnUse"
       id="clipPath4187">
      <rect
         ry="12.5"
         y="142"
         x="290"
         height="60"
         width="60"
         id="rect4189"
         style="color:#bebebe;fill:url(#linearGradient4191);fill-opacity:1;fill-rule:nonzero;stroke:none;stroke-width:0;marker:none;visibility:visible;display:inline;overflow:visible;enable-background:accumulate" />
    </clipPath>
    <linearGradient
       inkscape:collect="always"
       xlink:href="#outerBackgroundGradient"
       id="linearGradient4191"
       gradientUnits="userSpaceOnUse"
       x1="352"
       y1="204"
       x2="352"
       y2="140" />
    <linearGradient
       inkscape:collect="always"
       xlink:href="#outerBackgroundGradient"
       id="linearGradient4197"
       gradientUnits="userSpaceOnUse"
       x1="384"
       y1="124"
       x2="384"
       y2="28" />
    <linearGradient
       inkscape:collect="always"
       xlink:href="#outerBackgroundGradient"
       id="linearGradient4199"
       gradientUnits="userSpaceOnUse"
       x1="352"
       y1="204"
       x2="352"
       y2="140" />
    <clipPath
       clipPathUnits="userSpaceOnUse"
       id="clipPath4346">
      <rect
         style="color:#bebebe;fill:url(#linearGradient4350);fill-opacity:1;fill-rule:nonzero;stroke:none;stroke-width:0;marker:none;visibility:visible;display:inline;overflow:visible;enable-background:accumulate"
         id="rect4348"
         width="88"
         height="88"
         x="292"
         y="32"
         ry="18" />
    </clipPath>
    <linearGradient
       inkscape:collect="always"
       xlink:href="#outerBackgroundGradient"
       id="linearGradient4350"
       gradientUnits="userSpaceOnUse"
       x1="384"
       y1="124"
       x2="384"
       y2="28" />
    <clipPath
       clipPathUnits="userSpaceOnUse"
       id="clipPath3871">
      <rect
         ry="5"
         y="101"
         x="417"
         height="22"
         width="22"
         id="rect3873"
         style="color:#bebebe;fill:url(#linearGradient3875);fill-opacity:1;fill-rule:nonzero;stroke:none;stroke-width:0;marker:none;visibility:visible;display:inline;overflow:visible;enable-background:accumulate" />
    </clipPath>
    <linearGradient
       inkscape:collect="always"
       xlink:href="#outerBackgroundGradient"
       id="linearGradient3875"
       gradientUnits="userSpaceOnUse"
       gradientTransform="matrix(0.0875,0,0,0.0875,414.9,97.5)"
       x1="286.85715"
       y1="302.85715"
       x2="286.85715"
       y2="28.571428" />
    <clipPath
       clipPathUnits="userSpaceOnUse"
       id="clipPath3881">
      <rect
         style="color:#bebebe;fill:url(#linearGradient3885);fill-opacity:1;fill-rule:nonzero;stroke:none;stroke-width:0;marker:none;visibility:visible;display:inline;overflow:visible;enable-background:accumulate"
         id="rect3883"
         width="30"
         height="30"
         x="417"
         y="53"
         ry="7" />
    </clipPath>
    <linearGradient
       inkscape:collect="always"
       xlink:href="#outerBackgroundGradient"
       id="linearGradient3885"
       gradientUnits="userSpaceOnUse"
       gradientTransform="matrix(0.11931818,0,0,0.11931818,414.13636,48.22727)"
       x1="283.80957"
       y1="299.80954"
       x2="283.80957"
       y2="31.61907" />
  </defs>
  <metadata
     id="metadata4">
    <rdf:RDF>
      <cc:Work
         rdf:about="">
        <dc:format>image/svg+xml</dc:format>
        <dc:type
           rdf:resource="http://purl.org/dc/dcmitype/StillImage" />
        <dc:creator>
          <cc:Agent>
            <dc:title>Sam Hewitt</dc:title>
          </cc:Agent>
        </dc:creator>
        <dc:source />
        <cc:license
           rdf:resource="" />
        <dc:title />
        <dc:subject>
          <rdf:Bag />
        </dc:subject>
        <dc:date />
        <dc:rights>
          <cc:Agent>
            <dc:title />
          </cc:Agent>
        </dc:rights>
        <dc:publisher>
          <cc:Agent>
            <dc:title />
          </cc:Agent>
        </dc:publisher>
        <dc:identifier />
        <dc:relation />
        <dc:language />
        <dc:coverage />
        <dc:description />
        <dc:contributor>
          <cc:Agent>
            <dc:title />
          </cc:Agent>
        </dc:contributor>
      </cc:Work>
      <cc:Work
         rdf:about="">
        <dc:format>image/svg+xml</dc:format>
        <dc:type
           rdf:resource="http://purl.org/dc/dcmitype/StillImage" />
      </cc:Work>
    </rdf:RDF>
  </metadata>
  <g
     style="display:inline"
     inkscape:groupmode="layer"
     inkscape:label="Icon"
     id="layer1">
    <g
       style="display:none"
       inkscape:label="Baseplate"
       id="layer7"
       inkscape:groupmode="layer">
      <text
         y="19.745117"
         xml:space="preserve"
         x="15.006836"
         style="font-size:18px;font-style:normal;font-variant:normal;font-weight:normal;font-stretch:normal;fill:#000000;fill-opacity:1;stroke:none;display:inline;enable-background:new;font-family:DejaVu Sans;-inkscape-font-specification:DejaVu Sans"
         inkscape:label="context"
         id="context"><tspan
           style="font-style:normal;font-variant:normal;font-weight:normal;font-stretch:normal;font-family:DejaVu Sans;-inkscape-font-specification:DejaVu Sans"
           y="19.745117"
           x="15.006836"
           sodipodi:role="line"
           id="tspan3933">apps</tspan></text>
      <text
         y="19.745117"
         xml:space="preserve"
         x="122.48828"
         style="font-size:18px;font-style:normal;font-variant:normal;font-weight:bold;font-stretch:normal;text-align:start;line-height:125%;writing-mode:lr-tb;text-anchor:start;fill:#000000;fill-opacity:1;stroke:none;display:inline;enable-background:new;font-family:DejaVu Sans;-inkscape-font-specification:DejaVu Sans Bold"
         sodipodi:linespacing="125%"
         inkscape:label="icon-name"
         id="icon-name"><tspan
           style="font-size:18px;font-style:normal;font-variant:normal;font-weight:bold;font-stretch:normal;font-family:DejaVu Sans;-inkscape-font-specification:DejaVu Sans Bold"
           y="19.745117"
           x="122.48828"
           sodipodi:role="line"
           id="tspan3937">ibus-pinyin</tspan></text>
      <rect
         style="fill:#eeeeec;fill-opacity:1;fill-rule:nonzero;stroke:none;stroke-width:2;marker:none;visibility:visible;display:inline;overflow:visible;enable-background:accumulate"
         id="rect16x16"
         width="16"
         height="16"
         x="416"
         y="140"
         inkscape:label="16x16" />
      <rect
         style="fill:#d4d4d4;fill-opacity:1;fill-rule:nonzero;stroke:none;stroke-width:2;marker:none;visibility:visible;display:inline;overflow:visible;enable-background:accumulate"
         id="rect24x24"
         width="24"
         height="24"
         x="416"
         y="100"
         inkscape:label="24x24" />
      <rect
         style="fill:#eeeeec;fill-opacity:1;fill-rule:nonzero;stroke:none;stroke-width:2;marker:none;visibility:visible;display:inline;overflow:visible;enable-background:accumulate"
         id="rect32x32"
         width="32"
         height="32"
         x="416"
         y="52"
         inkscape:label="32x32" />
      <rect
         inkscape:label="22x22"
         y="101"
         x="417"
         height="22"
         width="22"
         id="rect22x22"
         style="fill:#eeeeec;fill-opacity:1;fill-rule:nonzero;stroke:none;stroke-width:2;marker:none;visibility:visible;display:inline;overflow:visible;enable-background:accumulate" />
      <rect
         inkscape:label="48x48"
         y="220"
         x="288"
         height="48"
         width="48"
         id="rect48x48"
         style="fill:#eeeeec;fill-opacity:1;fill-rule:nonzero;stroke:none;stroke-width:2;marker:none;visibility:visible;display:inline;overflow:visible;enable-background:accumulate" />
      <rect
         style="fill:#eeeeec;fill-opacity:1;fill-rule:nonzero;stroke:none;stroke-width:2;marker:none;visibility:visible;display:inline;overflow:visible;enable-background:accumulate"
         id="rect256x256"
         width="256"
         height="256"
         x="16"
         y="28"
         inkscape:label="256x256" />
      <rect
         style="fill:#eeeeec;fill-opacity:1;fill-rule:nonzero;stroke:none;stroke-width:2;marker:none;visibility:visible;display:inline;overflow:visible;enable-background:accumulate"
         id="rect64x64"
         width="64"
         height="64"
         x="288"
         y="140"
         inkscape:label="64x64" />
      <rect
         style="fill:#eeeeec;fill-opacity:1;fill-rule:nonzero;stroke:none;stroke-width:2;marker:none;visibility:visible;display:inline;overflow:visible;enable-background:accumulate"
         id="rect96x96"
         width="96"
         height="96"
         x="288"
         y="28"
         inkscape:label="96x96" />
    </g>
    <g
       inkscape:groupmode="layer"
       id="layer4"
       inkscape:label="Shadow"
       style="display:inline"
       sodipodi:insensitive="true">
      <rect
         style="opacity:0.0;color:#bebebe;fill:#000000;fill-opacity:1;stroke:#000000;stroke-width:1;stroke-miterlimit:4;stroke-opacity:1;stroke-dasharray:none;marker:none;visibility:visible;display:inline;overflow:visible;enable-background:accumulate"
         id="rect4156"
         width="42"
         height="42"
         x="-266.5"
         y="291"
         ry="9"
         transform="matrix(0,-1,1,0,0,0)" />
      <rect
         transform="matrix(0,-1,1,0,0,0)"
         ry="9"
         y="291"
         x="-266.5"
         height="42"
         width="40"
         id="rect4183"
         style="opacity:0.1;color:#bebebe;fill:#000000;fill-opacity:1;stroke:none;stroke-width:1;marker:none;visibility:visible;display:inline;overflow:visible;enable-background:accumulate" />
      <rect
         ry="9"
         y="237"
         x="291"
         height="29"
         width="42"
         id="rect4144"
         style="opacity:0.1;color:#bebebe;fill:#000000;fill-opacity:1;fill-rule:nonzero;stroke:none;stroke-width:0;marker:none;visibility:visible;display:inline;overflow:visible;enable-background:accumulate" />
      <rect
         style="opacity:0.0;color:#bebebe;fill:#000000;fill-opacity:1;fill-rule:nonzero;stroke:#000000;stroke-width:1;stroke-miterlimit:4;stroke-opacity:1;stroke-dasharray:none;marker:none;visibility:visible;display:inline;overflow:visible;enable-background:accumulate"
         id="rect4340"
         width="88"
         height="88"
         x="292"
         y="33.5"
         ry="18" />
      <rect
         ry="18"
         y="52.5"
         x="292"
         height="69"
         width="88"
         id="rect4338"
         style="opacity:0.1;color:#bebebe;fill:#000000;fill-opacity:1;fill-rule:nonzero;stroke:none;stroke-width:0;marker:none;visibility:visible;display:inline;overflow:visible;enable-background:accumulate" />
      <rect
         style="opacity:0.1;color:#bebebe;fill:#000000;fill-opacity:1;fill-rule:nonzero;stroke:none;stroke-width:0;marker:none;visibility:visible;display:inline;overflow:visible;enable-background:accumulate"
         id="rect4335"
         width="88"
         height="76.5"
         x="292"
         y="44.5"
         ry="18" />
      <rect
         style="opacity:0.0;color:#bebebe;fill:#000000;fill-opacity:1;fill-rule:nonzero;stroke:#000000;stroke-width:1;stroke-miterlimit:4;stroke-opacity:1;stroke-dasharray:none;marker:none;visibility:visible;display:inline;overflow:visible;enable-background:accumulate"
         id="rect4214"
         width="60"
         height="60"
         x="290"
         y="143.5"
         ry="12.5" />
      <rect
         ry="12.5"
         y="151.5"
         x="290"
         height="52"
         width="60"
         id="rect4206"
         style="opacity:0.1;color:#bebebe;fill:#000000;fill-opacity:1;fill-rule:nonzero;stroke:none;stroke-width:0;marker:none;visibility:visible;display:inline;overflow:visible;enable-background:accumulate" />
      <rect
         style="opacity:0.1;color:#bebebe;fill:#000000;fill-opacity:1;fill-rule:nonzero;stroke:none;stroke-width:0;marker:none;visibility:visible;display:inline;overflow:visible;enable-background:accumulate"
         id="rect4212"
         width="60"
         height="54.5"
         x="290"
         y="148.5"
         ry="12.5" />
      <rect
         style="opacity:0.5;color:#bebebe;fill:#000000;fill-opacity:1;fill-rule:nonzero;stroke:none;stroke-width:0;marker:none;visibility:visible;display:inline;overflow:visible;enable-background:accumulate"
         id="rect4058"
         width="30"
         height="30"
         x="417"
         y="54"
         ry="7" />
      <rect
         ry="50"
         y="48"
         x="34"
         height="220"
         width="220"
         id="rect3872"
         style="opacity:0.0;color:#bebebe;fill:#000000;fill-opacity:1;fill-rule:nonzero;stroke:#000000;stroke-width:2;stroke-miterlimit:4;stroke-opacity:1;stroke-dasharray:none;marker:none;visibility:visible;display:inline;overflow:visible;enable-background:accumulate" />
      <rect
         style="opacity:0.1;color:#bebebe;fill:#000000;fill-opacity:1;fill-rule:nonzero;stroke:none;stroke-width:0;marker:none;visibility:visible;display:inline;overflow:visible;enable-background:accumulate"
         id="rect3870"
         width="220"
         height="220"
         x="34"
         y="48"
         ry="50" />
      <rect
         ry="50"
         y="47"
         x="34"
         height="220"
         width="220"
         id="rect3868"
         style="opacity:0.1;color:#bebebe;fill:#000000;fill-opacity:1;fill-rule:nonzero;stroke:none;stroke-width:0;marker:none;visibility:visible;display:inline;overflow:visible;enable-background:accumulate" />
    </g>
    <g
       inkscape:groupmode="layer"
       id="layer2"
       inkscape:label="Background"
       style="display:inline">
      <rect
         style="color:#bebebe;fill:url(#linearGradient3876);fill-opacity:1;fill-rule:nonzero;stroke:none;stroke-width:0;marker:none;visibility:visible;display:inline;overflow:visible;enable-background:accumulate"
         id="rect4040"
         width="220"
         height="220"
         x="34"
         y="46"
         ry="50" />
      <rect
         ry="3"
         y="140"
         x="416"
         height="16"
         width="16"
         id="rect4095"
         style="color:#bebebe;fill:url(#linearGradient4097);fill-opacity:1;fill-rule:nonzero;stroke:none;stroke-width:0;marker:none;visibility:visible;display:inline;overflow:visible;enable-background:accumulate" />
      <rect
         style="color:#bebebe;fill:url(#linearGradient4101);fill-opacity:1;fill-rule:nonzero;stroke:none;stroke-width:0;marker:none;visibility:visible;display:inline;overflow:visible;enable-background:accumulate"
         id="rect4099"
         width="22"
         height="22"
         x="417"
         y="101"
         ry="5" />
      <rect
         ry="7"
         y="53"
         x="417"
         height="30"
         width="30"
         id="rect4151"
         style="color:#bebebe;fill:url(#linearGradient4153);fill-opacity:1;fill-rule:nonzero;stroke:none;stroke-width:0;marker:none;visibility:visible;display:inline;overflow:visible;enable-background:accumulate" />
      <rect
         style="color:#bebebe;fill:url(#linearGradient4869);fill-opacity:1;fill-rule:nonzero;stroke:none;stroke-width:0;marker:none;visibility:visible;display:inline;overflow:visible;enable-background:accumulate"
         id="rect4783"
         width="42"
         height="42"
         x="291"
         y="-265"
         ry="9"
         transform="scale(1,-1)" />
      <rect
         ry="18"
         y="32"
         x="292"
         height="88"
         width="88"
         id="rect4511"
         style="color:#bebebe;fill:url(#linearGradient4197);fill-opacity:1;fill-rule:nonzero;stroke:none;stroke-width:0;marker:none;visibility:visible;display:inline;overflow:visible;enable-background:accumulate" />
      <rect
         style="color:#bebebe;fill:url(#linearGradient4199);fill-opacity:1;fill-rule:nonzero;stroke:none;stroke-width:0;marker:none;visibility:visible;display:inline;overflow:visible;enable-background:accumulate"
         id="rect4515"
         width="60"
         height="60"
         x="290"
         y="142"
         ry="12.5" />
    </g>
    <g
       inkscape:groupmode="layer"
       id="layer6"
       inkscape:label="Symbols"
       style="display:inline">
      <g
         id="g3864"
         style="font-size:120px;font-style:normal;font-variant:normal;font-weight:normal;font-stretch:normal;line-height:125%;letter-spacing:0px;word-spacing:0px;opacity:0.2;fill:#000000;fill-opacity:1;stroke:none;font-family:Ubuntu;-inkscape-font-specification:Ubuntu"
         transform="translate(0,1.0004307)">
        <path
           inkscape:connector-curvature="0"
           id="path3866"
           style="fill:#000000;fill-opacity:1;font-family:Roboto;-inkscape-font-specification:Roboto"
           d="m 124.06329,140.49367 1.89873,11.3924 -18.35443,10.12658 0,49.36709 c -4e-5,6.32911 -1.05488,10.75949 -3.16455,13.29114 -2.10975,2.53163 -5.696249,3.79746 -10.759499,3.79746 -5.907197,0 -11.392416,-0.63292 -16.455694,-1.89872 l -2.531644,-13.29115 c 5.485219,1.68777 11.181403,2.53165 17.08861,2.53165 2.109675,0 3.164531,-2.53165 3.16455,-7.59493 l 0,-39.87343 c -6.751079,2.95363 -13.92406,5.90722 -21.518982,8.86077 L 69,163.91139 c 9.282684,-3.37548 17.932462,-6.751 25.949363,-10.12658 l 0,-32.27848 -20.886075,0 0,-12.02532 20.886075,0 0,-26.582275 12.658227,0 0,26.582275 17.72153,0 0,12.02532 -17.72153,0 0,27.21518 c 5.48518,-2.95352 10.97042,-5.69613 16.4557,-8.22784 m 63.29114,-57.594935 13.92405,3.79747 c -4.64148,9.28282 -9.28283,17.510645 -13.92405,24.683535 l 26.58228,0 0,12.02532 -17.72152,0 0,34.17721 22.78481,0 0,12.02531 -22.78481,0 0,58.86076 -12.65823,0 0,-58.86076 -27.8481,0 c -2.95368,27.00424 -13.08024,46.83545 -30.37974,59.49368 l -8.86077,-9.49367 c 14.76787,-10.97046 23.41765,-27.63711 25.94937,-50.00001 l -19.62025,0 0,-12.02531 20.88608,0 c 0.42185,-3.37547 0.63283,-6.96196 0.6329,-10.75949 l 0,-23.41772 -16.45569,0 0,-12.02532 46.20253,0 c 5.06317,-8.86065 9.49355,-18.3543 13.29114,-28.481004 m -3.79747,74.683534 0,-34.17721 -26.58228,0 0,25.31645 c -9e-5,2.95366 -0.21106,5.90723 -0.63291,8.86076 l 27.21519,0 M 149.37975,84.797469 c 5.06319,5.907296 8.86066,12.447375 11.39241,19.620251 l -13.29115,4.43038 c -2.53173,-7.59483 -6.11823,-14.34587 -10.75949,-20.253163 l 12.65823,-3.797468" />
      </g>
      <g
         transform="matrix(0.4,0,0,0.4,278.4,14.600432)"
         style="font-size:120px;font-style:normal;font-variant:normal;font-weight:normal;font-stretch:normal;line-height:125%;letter-spacing:0px;word-spacing:0px;opacity:0.2;fill:#000000;fill-opacity:1;stroke:none;font-family:Ubuntu;-inkscape-font-specification:Ubuntu"
         id="g3868">
        <path
           d="m 124.06329,140.49367 1.89873,11.3924 -18.35443,10.12658 0,49.36709 c -4e-5,6.32911 -1.05488,10.75949 -3.16455,13.29114 -2.10975,2.53163 -5.696249,3.79746 -10.759499,3.79746 -5.907197,0 -11.392416,-0.63292 -16.455694,-1.89872 l -2.531644,-13.29115 c 5.485219,1.68777 11.181403,2.53165 17.08861,2.53165 2.109675,0 3.164531,-2.53165 3.16455,-7.59493 l 0,-39.87343 c -6.751079,2.95363 -13.92406,5.90722 -21.518982,8.86077 L 69,163.91139 c 9.282684,-3.37548 17.932462,-6.751 25.949363,-10.12658 l 0,-32.27848 -20.886075,0 0,-12.02532 20.886075,0 0,-26.582275 12.658227,0 0,26.582275 17.72153,0 0,12.02532 -17.72153,0 0,27.21518 c 5.48518,-2.95352 10.97042,-5.69613 16.4557,-8.22784 m 63.29114,-57.594935 13.92405,3.79747 c -4.64148,9.28282 -9.28283,17.510645 -13.92405,24.683535 l 26.58228,0 0,12.02532 -17.72152,0 0,34.17721 22.78481,0 0,12.02531 -22.78481,0 0,58.86076 -12.65823,0 0,-58.86076 -27.8481,0 c -2.95368,27.00424 -13.08024,46.83545 -30.37974,59.49368 l -8.86077,-9.49367 c 14.76787,-10.97046 23.41765,-27.63711 25.94937,-50.00001 l -19.62025,0 0,-12.02531 20.88608,0 c 0.42185,-3.37547 0.63283,-6.96196 0.6329,-10.75949 l 0,-23.41772 -16.45569,0 0,-12.02532 46.20253,0 c 5.06317,-8.86065 9.49355,-18.3543 13.29114,-28.481004 m -3.79747,74.683534 0,-34.17721 -26.58228,0 0,25.31645 c -9e-5,2.95366 -0.21106,5.90723 -0.63291,8.86076 l 27.21519,0 M 149.37975,84.797469 c 5.06319,5.907296 8.86066,12.447375 11.39241,19.620251 l -13.29115,4.43038 c -2.53173,-7.59483 -6.11823,-14.34587 -10.75949,-20.253163 l 12.65823,-3.797468"
           style="fill:#000000;fill-opacity:1;font-family:Roboto;-inkscape-font-specification:Roboto"
           id="path3870"
           inkscape:connector-curvature="0" />
      </g>
      <g
         id="g3872"
         style="font-size:120px;font-style:normal;font-variant:normal;font-weight:normal;font-stretch:normal;line-height:125%;letter-spacing:0px;word-spacing:0px;opacity:0.2;fill:#000000;fill-opacity:1;stroke:none;font-family:Ubuntu;-inkscape-font-specification:Ubuntu"
         transform="matrix(0.26666667,0,0,0.26666667,281.6,131.40043)">
        <path
           inkscape:connector-curvature="0"
           id="path3874"
           style="fill:#000000;fill-opacity:1;font-family:Roboto;-inkscape-font-specification:Roboto"
           d="m 124.06329,140.49367 1.89873,11.3924 -18.35443,10.12658 0,49.36709 c -4e-5,6.32911 -1.05488,10.75949 -3.16455,13.29114 -2.10975,2.53163 -5.696249,3.79746 -10.759499,3.79746 -5.907197,0 -11.392416,-0.63292 -16.455694,-1.89872 l -2.531644,-13.29115 c 5.485219,1.68777 11.181403,2.53165 17.08861,2.53165 2.109675,0 3.164531,-2.53165 3.16455,-7.59493 l 0,-39.87343 c -6.751079,2.95363 -13.92406,5.90722 -21.518982,8.86077 L 69,163.91139 c 9.282684,-3.37548 17.932462,-6.751 25.949363,-10.12658 l 0,-32.27848 -20.886075,0 0,-12.02532 20.886075,0 0,-26.582275 12.658227,0 0,26.582275 17.72153,0 0,12.02532 -17.72153,0 0,27.21518 c 5.48518,-2.95352 10.97042,-5.69613 16.4557,-8.22784 m 63.29114,-57.594935 13.92405,3.79747 c -4.64148,9.28282 -9.28283,17.510645 -13.92405,24.683535 l 26.58228,0 0,12.02532 -17.72152,0 0,34.17721 22.78481,0 0,12.02531 -22.78481,0 0,58.86076 -12.65823,0 0,-58.86076 -27.8481,0 c -2.95368,27.00424 -13.08024,46.83545 -30.37974,59.49368 l -8.86077,-9.49367 c 14.76787,-10.97046 23.41765,-27.63711 25.94937,-50.00001 l -19.62025,0 0,-12.02531 20.88608,0 c 0.42185,-3.37547 0.63283,-6.96196 0.6329,-10.75949 l 0,-23.41772 -16.45569,0 0,-12.02532 46.20253,0 c 5.06317,-8.86065 9.49355,-18.3543 13.29114,-28.481004 m -3.79747,74.683534 0,-34.17721 -26.58228,0 0,25.31645 c -9e-5,2.95366 -0.21106,5.90723 -0.63291,8.86076 l 27.21519,0 M 149.37975,84.797469 c 5.06319,5.907296 8.86066,12.447375 11.39241,19.620251 l -13.29115,4.43038 c -2.53173,-7.59483 -6.11823,-14.34587 -10.75949,-20.253163 l 12.65823,-3.797468" />
      </g>
      <g
         transform="matrix(0.18666667,0,0,0.18666667,285.12,215.88043)"
         style="font-size:120px;font-style:normal;font-variant:normal;font-weight:normal;font-stretch:normal;line-height:125%;letter-spacing:0px;word-spacing:0px;opacity:0.2;fill:#000000;fill-opacity:1;stroke:none;font-family:Ubuntu;-inkscape-font-specification:Ubuntu"
         id="g3876">
        <path
           d="m 124.06329,140.49367 1.89873,11.3924 -18.35443,10.12658 0,49.36709 c -4e-5,6.32911 -1.05488,10.75949 -3.16455,13.29114 -2.10975,2.53163 -5.696249,3.79746 -10.759499,3.79746 -5.907197,0 -11.392416,-0.63292 -16.455694,-1.89872 l -2.531644,-13.29115 c 5.485219,1.68777 11.181403,2.53165 17.08861,2.53165 2.109675,0 3.164531,-2.53165 3.16455,-7.59493 l 0,-39.87343 c -6.751079,2.95363 -13.92406,5.90722 -21.518982,8.86077 L 69,163.91139 c 9.282684,-3.37548 17.932462,-6.751 25.949363,-10.12658 l 0,-32.27848 -20.886075,0 0,-12.02532 20.886075,0 0,-26.582275 12.658227,0 0,26.582275 17.72153,0 0,12.02532 -17.72153,0 0,27.21518 c 5.48518,-2.95352 10.97042,-5.69613 16.4557,-8.22784 m 63.29114,-57.594935 13.92405,3.79747 c -4.64148,9.28282 -9.28283,17.510645 -13.92405,24.683535 l 26.58228,0 0,12.02532 -17.72152,0 0,34.17721 22.78481,0 0,12.02531 -22.78481,0 0,58.86076 -12.65823,0 0,-58.86076 -27.8481,0 c -2.95368,27.00424 -13.08024,46.83545 -30.37974,59.49368 l -8.86077,-9.49367 c 14.76787,-10.97046 23.41765,-27.63711 25.94937,-50.00001 l -19.62025,0 0,-12.02531 20.88608,0 c 0.42185,-3.37547 0.63283,-6.96196 0.6329,-10.75949 l 0,-23.41772 -16.45569,0 0,-12.02532 46.20253,0 c 5.06317,-8.86065 9.49355,-18.3543 13.29114,-28.481004 m -3.79747,74.683534 0,-34.17721 -26.58228,0 0,25.31645 c -9e-5,2.95366 -0.21106,5.90723 -0.63291,8.86076 l 27.21519,0 M 149.37975,84.797469 c 5.06319,5.907296 8.86066,12.447375 11.39241,19.620251 l -13.29115,4.43038 c -2.53173,-7.59483 -6.11823,-14.34587 -10.75949,-20.253163 l 12.65823,-3.797468"
           style="fill:#000000;fill-opacity:1;font-family:Roboto;-inkscape-font-specification:Roboto"
           id="path3878"
           inkscape:connector-curvature="0" />
      </g>
      <g
         id="g3880"
         style="font-size:120px;font-style:normal;font-variant:normal;font-weight:normal;font-stretch:normal;line-height:125%;letter-spacing:0px;word-spacing:0px;opacity:0.2;fill:#000000;fill-opacity:1;stroke:none;font-family:Ubuntu;-inkscape-font-specification:Ubuntu"
         transform="matrix(0.13333333,0,0,0.13333333,412.8,48.200432)">
        <path
           inkscape:connector-curvature="0"
           id="path3882"
           style="fill:#000000;fill-opacity:1;font-family:Roboto;-inkscape-font-specification:Roboto"
           d="m 124.06329,140.49367 1.89873,11.3924 -18.35443,10.12658 0,49.36709 c -4e-5,6.32911 -1.05488,10.75949 -3.16455,13.29114 -2.10975,2.53163 -5.696249,3.79746 -10.759499,3.79746 -5.907197,0 -11.392416,-0.63292 -16.455694,-1.89872 l -2.531644,-13.29115 c 5.485219,1.68777 11.181403,2.53165 17.08861,2.53165 2.109675,0 3.164531,-2.53165 3.16455,-7.59493 l 0,-39.87343 c -6.751079,2.95363 -13.92406,5.90722 -21.518982,8.86077 L 69,163.91139 c 9.282684,-3.37548 17.932462,-6.751 25.949363,-10.12658 l 0,-32.27848 -20.886075,0 0,-12.02532 20.886075,0 0,-26.582275 12.658227,0 0,26.582275 17.72153,0 0,12.02532 -17.72153,0 0,27.21518 c 5.48518,-2.95352 10.97042,-5.69613 16.4557,-8.22784 m 63.29114,-57.594935 13.92405,3.79747 c -4.64148,9.28282 -9.28283,17.510645 -13.92405,24.683535 l 26.58228,0 0,12.02532 -17.72152,0 0,34.17721 22.78481,0 0,12.02531 -22.78481,0 0,58.86076 -12.65823,0 0,-58.86076 -27.8481,0 c -2.95368,27.00424 -13.08024,46.83545 -30.37974,59.49368 l -8.86077,-9.49367 c 14.76787,-10.97046 23.41765,-27.63711 25.94937,-50.00001 l -19.62025,0 0,-12.02531 20.88608,0 c 0.42185,-3.37547 0.63283,-6.96196 0.6329,-10.75949 l 0,-23.41772 -16.45569,0 0,-12.02532 46.20253,0 c 5.06317,-8.86065 9.49355,-18.3543 13.29114,-28.481004 m -3.79747,74.683534 0,-34.17721 -26.58228,0 0,25.31645 c -9e-5,2.95366 -0.21106,5.90723 -0.63291,8.86076 l 27.21519,0 M 149.37975,84.797469 c 5.06319,5.907296 8.86066,12.447375 11.39241,19.620251 l -13.29115,4.43038 c -2.53173,-7.59483 -6.11823,-14.34587 -10.75949,-20.253163 l 12.65823,-3.797468" />
      </g>
      <g
         transform="matrix(0.09333333,0,0,0.09333333,414.56,98.440432)"
         style="font-size:120px;font-style:normal;font-variant:normal;font-weight:normal;font-stretch:normal;line-height:125%;letter-spacing:0px;word-spacing:0px;opacity:0.2;fill:#000000;fill-opacity:1;stroke:none;font-family:Ubuntu;-inkscape-font-specification:Ubuntu"
         id="g3884">
        <path
           d="m 124.06329,140.49367 1.89873,11.3924 -18.35443,10.12658 0,49.36709 c -4e-5,6.32911 -1.05488,10.75949 -3.16455,13.29114 -2.10975,2.53163 -5.696249,3.79746 -10.759499,3.79746 -5.907197,0 -11.392416,-0.63292 -16.455694,-1.89872 l -2.531644,-13.29115 c 5.485219,1.68777 11.181403,2.53165 17.08861,2.53165 2.109675,0 3.164531,-2.53165 3.16455,-7.59493 l 0,-39.87343 c -6.751079,2.95363 -13.92406,5.90722 -21.518982,8.86077 L 69,163.91139 c 9.282684,-3.37548 17.932462,-6.751 25.949363,-10.12658 l 0,-32.27848 -20.886075,0 0,-12.02532 20.886075,0 0,-26.582275 12.658227,0 0,26.582275 17.72153,0 0,12.02532 -17.72153,0 0,27.21518 c 5.48518,-2.95352 10.97042,-5.69613 16.4557,-8.22784 m 63.29114,-57.594935 13.92405,3.79747 c -4.64148,9.28282 -9.28283,17.510645 -13.92405,24.683535 l 26.58228,0 0,12.02532 -17.72152,0 0,34.17721 22.78481,0 0,12.02531 -22.78481,0 0,58.86076 -12.65823,0 0,-58.86076 -27.8481,0 c -2.95368,27.00424 -13.08024,46.83545 -30.37974,59.49368 l -8.86077,-9.49367 c 14.76787,-10.97046 23.41765,-27.63711 25.94937,-50.00001 l -19.62025,0 0,-12.02531 20.88608,0 c 0.42185,-3.37547 0.63283,-6.96196 0.6329,-10.75949 l 0,-23.41772 -16.45569,0 0,-12.02532 46.20253,0 c 5.06317,-8.86065 9.49355,-18.3543 13.29114,-28.481004 m -3.79747,74.683534 0,-34.17721 -26.58228,0 0,25.31645 c -9e-5,2.95366 -0.21106,5.90723 -0.63291,8.86076 l 27.21519,0 M 149.37975,84.797469 c 5.06319,5.907296 8.86066,12.447375 11.39241,19.620251 l -13.29115,4.43038 c -2.53173,-7.59483 -6.11823,-14.34587 -10.75949,-20.253163 l 12.65823,-3.797468"
           style="fill:#000000;fill-opacity:1;font-family:Roboto;-inkscape-font-specification:Roboto"
           id="path3886"
           inkscape:connector-curvature="0" />
      </g>
      <g
         id="g3888"
         style="font-size:120px;font-style:normal;font-variant:normal;font-weight:normal;font-stretch:normal;line-height:125%;letter-spacing:0px;word-spacing:0px;opacity:0.2;fill:#000000;fill-opacity:1;stroke:none;font-family:Ubuntu;-inkscape-font-specification:Ubuntu"
         transform="matrix(0.06666667,0,0,0.06666667,414.4,138.60043)">
        <path
           inkscape:connector-curvature="0"
           id="path3890"
           style="fill:#000000;fill-opacity:1;font-family:Roboto;-inkscape-font-specification:Roboto"
           d="m 124.06329,140.49367 1.89873,11.3924 -18.35443,10.12658 0,49.36709 c -4e-5,6.32911 -1.05488,10.75949 -3.16455,13.29114 -2.10975,2.53163 -5.696249,3.79746 -10.759499,3.79746 -5.907197,0 -11.392416,-0.63292 -16.455694,-1.89872 l -2.531644,-13.29115 c 5.485219,1.68777 11.181403,2.53165 17.08861,2.53165 2.109675,0 3.164531,-2.53165 3.16455,-7.59493 l 0,-39.87343 c -6.751079,2.95363 -13.92406,5.90722 -21.518982,8.86077 L 69,163.91139 c 9.282684,-3.37548 17.932462,-6.751 25.949363,-10.12658 l 0,-32.27848 -20.886075,0 0,-12.02532 20.886075,0 0,-26.582275 12.658227,0 0,26.582275 17.72153,0 0,12.02532 -17.72153,0 0,27.21518 c 5.48518,-2.95352 10.97042,-5.69613 16.4557,-8.22784 m 63.29114,-57.594935 13.92405,3.79747 c -4.64148,9.28282 -9.28283,17.510645 -13.92405,24.683535 l 26.58228,0 0,12.02532 -17.72152,0 0,34.17721 22.78481,0 0,12.02531 -22.78481,0 0,58.86076 -12.65823,0 0,-58.86076 -27.8481,0 c -2.95368,27.00424 -13.08024,46.83545 -30.37974,59.49368 l -8.86077,-9.49367 c 14.76787,-10.97046 23.41765,-27.63711 25.94937,-50.00001 l -19.62025,0 0,-12.02531 20.88608,0 c 0.42185,-3.37547 0.63283,-6.96196 0.6329,-10.75949 l 0,-23.41772 -16.45569,0 0,-12.02532 46.20253,0 c 5.06317,-8.86065 9.49355,-18.3543 13.29114,-28.481004 m -3.79747,74.683534 0,-34.17721 -26.58228,0 0,25.31645 c -9e-5,2.95366 -0.21106,5.90723 -0.63291,8.86076 l 27.21519,0 M 149.37975,84.797469 c 5.06319,5.907296 8.86066,12.447375 11.39241,19.620251 l -13.29115,4.43038 c -2.53173,-7.59483 -6.11823,-14.34587 -10.75949,-20.253163 l 12.65823,-3.797468" />
      </g>
      <g
         style="font-size:120px;font-style:normal;font-variant:normal;font-weight:normal;font-stretch:normal;line-height:125%;letter-spacing:0px;word-spacing:0px;fill:#000000;fill-opacity:1;stroke:none;font-family:Ubuntu;-inkscape-font-specification:Ubuntu"
         id="text3065">
        <path
           d="m 124.06329,140.49367 1.89873,11.3924 -18.35443,10.12658 0,49.36709 c -4e-5,6.32911 -1.05488,10.75949 -3.16455,13.29114 -2.10975,2.53163 -5.696249,3.79746 -10.759499,3.79746 -5.907197,0 -11.392416,-0.63292 -16.455694,-1.89872 l -2.531644,-13.29115 c 5.485219,1.68777 11.181403,2.53165 17.08861,2.53165 2.109675,0 3.164531,-2.53165 3.16455,-7.59493 l 0,-39.87343 c -6.751079,2.95363 -13.92406,5.90722 -21.518982,8.86077 L 69,163.91139 c 9.282684,-3.37548 17.932462,-6.751 25.949363,-10.12658 l 0,-32.27848 -20.886075,0 0,-12.02532 20.886075,0 0,-26.582275 12.658227,0 0,26.582275 17.72153,0 0,12.02532 -17.72153,0 0,27.21518 c 5.48518,-2.95352 10.97042,-5.69613 16.4557,-8.22784 m 63.29114,-57.594935 13.92405,3.79747 c -4.64148,9.28282 -9.28283,17.510645 -13.92405,24.683535 l 26.58228,0 0,12.02532 -17.72152,0 0,34.17721 22.78481,0 0,12.02531 -22.78481,0 0,58.86076 -12.65823,0 0,-58.86076 -27.8481,0 c -2.95368,27.00424 -13.08024,46.83545 -30.37974,59.49368 l -8.86077,-9.49367 c 14.76787,-10.97046 23.41765,-27.63711 25.94937,-50.00001 l -19.62025,0 0,-12.02531 20.88608,0 c 0.42185,-3.37547 0.63283,-6.96196 0.6329,-10.75949 l 0,-23.41772 -16.45569,0 0,-12.02532 46.20253,0 c 5.06317,-8.86065 9.49355,-18.3543 13.29114,-28.481004 m -3.79747,74.683534 0,-34.17721 -26.58228,0 0,25.31645 c -9e-5,2.95366 -0.21106,5.90723 -0.63291,8.86076 l 27.21519,0 M 149.37975,84.797469 c 5.06319,5.907296 8.86066,12.447375 11.39241,19.620251 l -13.29115,4.43038 c -2.53173,-7.59483 -6.11823,-14.34587 -10.75949,-20.253163 l 12.65823,-3.797468"
           style="font-family:Roboto;-inkscape-font-specification:Roboto;fill:#ffffff;fill-opacity:1"
           id="path3070"
           inkscape:connector-curvature="0" />
      </g>
      <g
         id="g3840"
         style="font-size:120px;font-style:normal;font-variant:normal;font-weight:normal;font-stretch:normal;line-height:125%;letter-spacing:0px;word-spacing:0px;fill:#000000;fill-opacity:1;stroke:none;font-family:Ubuntu;-inkscape-font-specification:Ubuntu"
         transform="matrix(0.4,0,0,0.4,278.4,13.600001)">
        <path
           inkscape:connector-curvature="0"
           id="path3842"
           style="fill:#ffffff;fill-opacity:1;font-family:Roboto;-inkscape-font-specification:Roboto"
           d="m 124.06329,140.49367 1.89873,11.3924 -18.35443,10.12658 0,49.36709 c -4e-5,6.32911 -1.05488,10.75949 -3.16455,13.29114 -2.10975,2.53163 -5.696249,3.79746 -10.759499,3.79746 -5.907197,0 -11.392416,-0.63292 -16.455694,-1.89872 l -2.531644,-13.29115 c 5.485219,1.68777 11.181403,2.53165 17.08861,2.53165 2.109675,0 3.164531,-2.53165 3.16455,-7.59493 l 0,-39.87343 c -6.751079,2.95363 -13.92406,5.90722 -21.518982,8.86077 L 69,163.91139 c 9.282684,-3.37548 17.932462,-6.751 25.949363,-10.12658 l 0,-32.27848 -20.886075,0 0,-12.02532 20.886075,0 0,-26.582275 12.658227,0 0,26.582275 17.72153,0 0,12.02532 -17.72153,0 0,27.21518 c 5.48518,-2.95352 10.97042,-5.69613 16.4557,-8.22784 m 63.29114,-57.594935 13.92405,3.79747 c -4.64148,9.28282 -9.28283,17.510645 -13.92405,24.683535 l 26.58228,0 0,12.02532 -17.72152,0 0,34.17721 22.78481,0 0,12.02531 -22.78481,0 0,58.86076 -12.65823,0 0,-58.86076 -27.8481,0 c -2.95368,27.00424 -13.08024,46.83545 -30.37974,59.49368 l -8.86077,-9.49367 c 14.76787,-10.97046 23.41765,-27.63711 25.94937,-50.00001 l -19.62025,0 0,-12.02531 20.88608,0 c 0.42185,-3.37547 0.63283,-6.96196 0.6329,-10.75949 l 0,-23.41772 -16.45569,0 0,-12.02532 46.20253,0 c 5.06317,-8.86065 9.49355,-18.3543 13.29114,-28.481004 m -3.79747,74.683534 0,-34.17721 -26.58228,0 0,25.31645 c -9e-5,2.95366 -0.21106,5.90723 -0.63291,8.86076 l 27.21519,0 M 149.37975,84.797469 c 5.06319,5.907296 8.86066,12.447375 11.39241,19.620251 l -13.29115,4.43038 c -2.53173,-7.59483 -6.11823,-14.34587 -10.75949,-20.253163 l 12.65823,-3.797468" />
      </g>
      <g
         transform="matrix(0.26666667,0,0,0.26666667,281.6,130.4)"
         style="font-size:120px;font-style:normal;font-variant:normal;font-weight:normal;font-stretch:normal;line-height:125%;letter-spacing:0px;word-spacing:0px;fill:#000000;fill-opacity:1;stroke:none;font-family:Ubuntu;-inkscape-font-specification:Ubuntu"
         id="g3844">
        <path
           d="m 124.06329,140.49367 1.89873,11.3924 -18.35443,10.12658 0,49.36709 c -4e-5,6.32911 -1.05488,10.75949 -3.16455,13.29114 -2.10975,2.53163 -5.696249,3.79746 -10.759499,3.79746 -5.907197,0 -11.392416,-0.63292 -16.455694,-1.89872 l -2.531644,-13.29115 c 5.485219,1.68777 11.181403,2.53165 17.08861,2.53165 2.109675,0 3.164531,-2.53165 3.16455,-7.59493 l 0,-39.87343 c -6.751079,2.95363 -13.92406,5.90722 -21.518982,8.86077 L 69,163.91139 c 9.282684,-3.37548 17.932462,-6.751 25.949363,-10.12658 l 0,-32.27848 -20.886075,0 0,-12.02532 20.886075,0 0,-26.582275 12.658227,0 0,26.582275 17.72153,0 0,12.02532 -17.72153,0 0,27.21518 c 5.48518,-2.95352 10.97042,-5.69613 16.4557,-8.22784 m 63.29114,-57.594935 13.92405,3.79747 c -4.64148,9.28282 -9.28283,17.510645 -13.92405,24.683535 l 26.58228,0 0,12.02532 -17.72152,0 0,34.17721 22.78481,0 0,12.02531 -22.78481,0 0,58.86076 -12.65823,0 0,-58.86076 -27.8481,0 c -2.95368,27.00424 -13.08024,46.83545 -30.37974,59.49368 l -8.86077,-9.49367 c 14.76787,-10.97046 23.41765,-27.63711 25.94937,-50.00001 l -19.62025,0 0,-12.02531 20.88608,0 c 0.42185,-3.37547 0.63283,-6.96196 0.6329,-10.75949 l 0,-23.41772 -16.45569,0 0,-12.02532 46.20253,0 c 5.06317,-8.86065 9.49355,-18.3543 13.29114,-28.481004 m -3.79747,74.683534 0,-34.17721 -26.58228,0 0,25.31645 c -9e-5,2.95366 -0.21106,5.90723 -0.63291,8.86076 l 27.21519,0 M 149.37975,84.797469 c 5.06319,5.907296 8.86066,12.447375 11.39241,19.620251 l -13.29115,4.43038 c -2.53173,-7.59483 -6.11823,-14.34587 -10.75949,-20.253163 l 12.65823,-3.797468"
           style="fill:#ffffff;fill-opacity:1;font-family:Roboto;-inkscape-font-specification:Roboto"
           id="path3846"
           inkscape:connector-curvature="0" />
      </g>
      <g
         id="g3848"
         style="font-size:120px;font-style:normal;font-variant:normal;font-weight:normal;font-stretch:normal;line-height:125%;letter-spacing:0px;word-spacing:0px;fill:#000000;fill-opacity:1;stroke:none;font-family:Ubuntu;-inkscape-font-specification:Ubuntu"
         transform="matrix(0.18666667,0,0,0.18666667,285.12,214.88)">
        <path
           inkscape:connector-curvature="0"
           id="path3850"
           style="fill:#ffffff;fill-opacity:1;font-family:Roboto;-inkscape-font-specification:Roboto"
           d="m 124.06329,140.49367 1.89873,11.3924 -18.35443,10.12658 0,49.36709 c -4e-5,6.32911 -1.05488,10.75949 -3.16455,13.29114 -2.10975,2.53163 -5.696249,3.79746 -10.759499,3.79746 -5.907197,0 -11.392416,-0.63292 -16.455694,-1.89872 l -2.531644,-13.29115 c 5.485219,1.68777 11.181403,2.53165 17.08861,2.53165 2.109675,0 3.164531,-2.53165 3.16455,-7.59493 l 0,-39.87343 c -6.751079,2.95363 -13.92406,5.90722 -21.518982,8.86077 L 69,163.91139 c 9.282684,-3.37548 17.932462,-6.751 25.949363,-10.12658 l 0,-32.27848 -20.886075,0 0,-12.02532 20.886075,0 0,-26.582275 12.658227,0 0,26.582275 17.72153,0 0,12.02532 -17.72153,0 0,27.21518 c 5.48518,-2.95352 10.97042,-5.69613 16.4557,-8.22784 m 63.29114,-57.594935 13.92405,3.79747 c -4.64148,9.28282 -9.28283,17.510645 -13.92405,24.683535 l 26.58228,0 0,12.02532 -17.72152,0 0,34.17721 22.78481,0 0,12.02531 -22.78481,0 0,58.86076 -12.65823,0 0,-58.86076 -27.8481,0 c -2.95368,27.00424 -13.08024,46.83545 -30.37974,59.49368 l -8.86077,-9.49367 c 14.76787,-10.97046 23.41765,-27.63711 25.94937,-50.00001 l -19.62025,0 0,-12.02531 20.88608,0 c 0.42185,-3.37547 0.63283,-6.96196 0.6329,-10.75949 l 0,-23.41772 -16.45569,0 0,-12.02532 46.20253,0 c 5.06317,-8.86065 9.49355,-18.3543 13.29114,-28.481004 m -3.79747,74.683534 0,-34.17721 -26.58228,0 0,25.31645 c -9e-5,2.95366 -0.21106,5.90723 -0.63291,8.86076 l 27.21519,0 M 149.37975,84.797469 c 5.06319,5.907296 8.86066,12.447375 11.39241,19.620251 l -13.29115,4.43038 c -2.53173,-7.59483 -6.11823,-14.34587 -10.75949,-20.253163 l 12.65823,-3.797468" />
      </g>
      <g
         transform="matrix(0.13333333,0,0,0.13333333,412.8,47.200001)"
         style="font-size:120px;font-style:normal;font-variant:normal;font-weight:normal;font-stretch:normal;line-height:125%;letter-spacing:0px;word-spacing:0px;fill:#000000;fill-opacity:1;stroke:none;font-family:Ubuntu;-inkscape-font-specification:Ubuntu"
         id="g3852">
        <path
           d="m 124.06329,140.49367 1.89873,11.3924 -18.35443,10.12658 0,49.36709 c -4e-5,6.32911 -1.05488,10.75949 -3.16455,13.29114 -2.10975,2.53163 -5.696249,3.79746 -10.759499,3.79746 -5.907197,0 -11.392416,-0.63292 -16.455694,-1.89872 l -2.531644,-13.29115 c 5.485219,1.68777 11.181403,2.53165 17.08861,2.53165 2.109675,0 3.164531,-2.53165 3.16455,-7.59493 l 0,-39.87343 c -6.751079,2.95363 -13.92406,5.90722 -21.518982,8.86077 L 69,163.91139 c 9.282684,-3.37548 17.932462,-6.751 25.949363,-10.12658 l 0,-32.27848 -20.886075,0 0,-12.02532 20.886075,0 0,-26.582275 12.658227,0 0,26.582275 17.72153,0 0,12.02532 -17.72153,0 0,27.21518 c 5.48518,-2.95352 10.97042,-5.69613 16.4557,-8.22784 m 63.29114,-57.594935 13.92405,3.79747 c -4.64148,9.28282 -9.28283,17.510645 -13.92405,24.683535 l 26.58228,0 0,12.02532 -17.72152,0 0,34.17721 22.78481,0 0,12.02531 -22.78481,0 0,58.86076 -12.65823,0 0,-58.86076 -27.8481,0 c -2.95368,27.00424 -13.08024,46.83545 -30.37974,59.49368 l -8.86077,-9.49367 c 14.76787,-10.97046 23.41765,-27.63711 25.94937,-50.00001 l -19.62025,0 0,-12.02531 20.88608,0 c 0.42185,-3.37547 0.63283,-6.96196 0.6329,-10.75949 l 0,-23.41772 -16.45569,0 0,-12.02532 46.20253,0 c 5.06317,-8.86065 9.49355,-18.3543 13.29114,-28.481004 m -3.79747,74.683534 0,-34.17721 -26.58228,0 0,25.31645 c -9e-5,2.95366 -0.21106,5.90723 -0.63291,8.86076 l 27.21519,0 M 149.37975,84.797469 c 5.06319,5.907296 8.86066,12.447375 11.39241,19.620251 l -13.29115,4.43038 c -2.53173,-7.59483 -6.11823,-14.34587 -10.75949,-20.253163 l 12.65823,-3.797468"
           style="fill:#ffffff;fill-opacity:1;font-family:Roboto;-inkscape-font-specification:Roboto"
           id="path3854"
           inkscape:connector-curvature="0" />
      </g>
      <g
         id="g3856"
         style="font-size:120px;font-style:normal;font-variant:normal;font-weight:normal;font-stretch:normal;line-height:125%;letter-spacing:0px;word-spacing:0px;fill:#000000;fill-opacity:1;stroke:none;font-family:Ubuntu;-inkscape-font-specification:Ubuntu"
         transform="matrix(0.09333333,0,0,0.09333333,414.56,97.440001)">
        <path
           inkscape:connector-curvature="0"
           id="path3858"
           style="fill:#ffffff;fill-opacity:1;font-family:Roboto;-inkscape-font-specification:Roboto"
           d="m 124.06329,140.49367 1.89873,11.3924 -18.35443,10.12658 0,49.36709 c -4e-5,6.32911 -1.05488,10.75949 -3.16455,13.29114 -2.10975,2.53163 -5.696249,3.79746 -10.759499,3.79746 -5.907197,0 -11.392416,-0.63292 -16.455694,-1.89872 l -2.531644,-13.29115 c 5.485219,1.68777 11.181403,2.53165 17.08861,2.53165 2.109675,0 3.164531,-2.53165 3.16455,-7.59493 l 0,-39.87343 c -6.751079,2.95363 -13.92406,5.90722 -21.518982,8.86077 L 69,163.91139 c 9.282684,-3.37548 17.932462,-6.751 25.949363,-10.12658 l 0,-32.27848 -20.886075,0 0,-12.02532 20.886075,0 0,-26.582275 12.658227,0 0,26.582275 17.72153,0 0,12.02532 -17.72153,0 0,27.21518 c 5.48518,-2.95352 10.97042,-5.69613 16.4557,-8.22784 m 63.29114,-57.594935 13.92405,3.79747 c -4.64148,9.28282 -9.28283,17.510645 -13.92405,24.683535 l 26.58228,0 0,12.02532 -17.72152,0 0,34.17721 22.78481,0 0,12.02531 -22.78481,0 0,58.86076 -12.65823,0 0,-58.86076 -27.8481,0 c -2.95368,27.00424 -13.08024,46.83545 -30.37974,59.49368 l -8.86077,-9.49367 c 14.76787,-10.97046 23.41765,-27.63711 25.94937,-50.00001 l -19.62025,0 0,-12.02531 20.88608,0 c 0.42185,-3.37547 0.63283,-6.96196 0.6329,-10.75949 l 0,-23.41772 -16.45569,0 0,-12.02532 46.20253,0 c 5.06317,-8.86065 9.49355,-18.3543 13.29114,-28.481004 m -3.79747,74.683534 0,-34.17721 -26.58228,0 0,25.31645 c -9e-5,2.95366 -0.21106,5.90723 -0.63291,8.86076 l 27.21519,0 M 149.37975,84.797469 c 5.06319,5.907296 8.86066,12.447375 11.39241,19.620251 l -13.29115,4.43038 c -2.53173,-7.59483 -6.11823,-14.34587 -10.75949,-20.253163 l 12.65823,-3.797468" />
      </g>
      <g
         transform="matrix(0.06666667,0,0,0.06666667,414.4,137.6)"
         style="font-size:120px;font-style:normal;font-variant:normal;font-weight:normal;font-stretch:normal;line-height:125%;letter-spacing:0px;word-spacing:0px;fill:#000000;fill-opacity:1;stroke:none;font-family:Ubuntu;-inkscape-font-specification:Ubuntu"
         id="g3860">
        <path
           d="m 124.06329,140.49367 1.89873,11.3924 -18.35443,10.12658 0,49.36709 c -4e-5,6.32911 -1.05488,10.75949 -3.16455,13.29114 -2.10975,2.53163 -5.696249,3.79746 -10.759499,3.79746 -5.907197,0 -11.392416,-0.63292 -16.455694,-1.89872 l -2.531644,-13.29115 c 5.485219,1.68777 11.181403,2.53165 17.08861,2.53165 2.109675,0 3.164531,-2.53165 3.16455,-7.59493 l 0,-39.87343 c -6.751079,2.95363 -13.92406,5.90722 -21.518982,8.86077 L 69,163.91139 c 9.282684,-3.37548 17.932462,-6.751 25.949363,-10.12658 l 0,-32.27848 -20.886075,0 0,-12.02532 20.886075,0 0,-26.582275 12.658227,0 0,26.582275 17.72153,0 0,12.02532 -17.72153,0 0,27.21518 c 5.48518,-2.95352 10.97042,-5.69613 16.4557,-8.22784 m 63.29114,-57.594935 13.92405,3.79747 c -4.64148,9.28282 -9.28283,17.510645 -13.92405,24.683535 l 26.58228,0 0,12.02532 -17.72152,0 0,34.17721 22.78481,0 0,12.02531 -22.78481,0 0,58.86076 -12.65823,0 0,-58.86076 -27.8481,0 c -2.95368,27.00424 -13.08024,46.83545 -30.37974,59.49368 l -8.86077,-9.49367 c 14.76787,-10.97046 23.41765,-27.63711 25.94937,-50.00001 l -19.62025,0 0,-12.02531 20.88608,0 c 0.42185,-3.37547 0.63283,-6.96196 0.6329,-10.75949 l 0,-23.41772 -16.45569,0 0,-12.02532 46.20253,0 c 5.06317,-8.86065 9.49355,-18.3543 13.29114,-28.481004 m -3.79747,74.683534 0,-34.17721 -26.58228,0 0,25.31645 c -9e-5,2.95366 -0.21106,5.90723 -0.63291,8.86076 l 27.21519,0 M 149.37975,84.797469 c 5.06319,5.907296 8.86066,12.447375 11.39241,19.620251 l -13.29115,4.43038 c -2.53173,-7.59483 -6.11823,-14.34587 -10.75949,-20.253163 l 12.65823,-3.797468"
           style="fill:#ffffff;fill-opacity:1;font-family:Roboto;-inkscape-font-specification:Roboto"
           id="path3862"
           inkscape:connector-curvature="0" />
      </g>
    </g>
    <g
       inkscape:groupmode="layer"
       id="layer5"
       inkscape:label="Highlights"
       style="display:inline"
       sodipodi:insensitive="true">
      <rect
         ry="9"
         y="307"
         x="-265"
         height="42"
         width="42"
         id="rect4884"
         style="opacity:0.2;color:#bebebe;fill:none;stroke:#000000;stroke-width:2;stroke-miterlimit:4;stroke-opacity:1;stroke-dasharray:none;marker:none;visibility:visible;display:inline;overflow:visible;enable-background:accumulate"
         transform="matrix(0,1,1,0,-16,488)"
         clip-path="url(#clipPath4891)" />
      <rect
         style="opacity:0.2;color:#bebebe;fill:none;stroke:#000000;stroke-width:2;stroke-miterlimit:4;stroke-opacity:1;stroke-dasharray:none;marker:none;visibility:visible;display:inline;overflow:visible;enable-background:accumulate"
         id="rect5311"
         width="16"
         height="16"
         x="-228"
         y="304"
         ry="3"
         clip-path="url(#clipPath3855)"
         transform="matrix(0,-1,1,0,112,-72)" />
      <rect
         ry="50"
         y="46"
         x="34"
         height="220"
         width="220"
         id="rect3858"
         style="opacity:0.2;color:#bebebe;fill:none;stroke:#000000;stroke-width:2;stroke-miterlimit:4;stroke-opacity:1;stroke-dasharray:none;marker:none;visibility:visible;display:inline;overflow:visible;enable-background:accumulate"
         clip-path="url(#clipPath3862)" />
      <rect
         ry="12.5"
         y="142"
         x="290"
         height="60"
         width="60"
         id="rect4175"
         style="opacity:0.2;color:#bebebe;fill:none;stroke:#000000;stroke-width:2;stroke-miterlimit:4;stroke-opacity:1;stroke-dasharray:none;marker:none;visibility:visible;display:inline;overflow:visible;enable-background:accumulate"
         clip-path="url(#clipPath4187)" />
      <rect
         style="opacity:0.2;color:#bebebe;fill:none;stroke:#000000;stroke-width:2;stroke-miterlimit:4;stroke-opacity:1;stroke-dasharray:none;marker:none;visibility:visible;display:inline;overflow:visible;enable-background:accumulate"
         id="rect4342"
         width="88"
         height="88"
         x="292"
         y="32"
         ry="18"
         clip-path="url(#clipPath4346)" />
      <rect
         ry="5"
         y="101"
         x="417"
         height="22"
         width="22"
         id="rect3866"
         style="opacity:0.2;color:#bebebe;fill:none;stroke:#000000;stroke-width:2;stroke-miterlimit:4;stroke-opacity:1;stroke-dasharray:none;marker:none;visibility:visible;display:inline;overflow:visible;enable-background:accumulate"
         clip-path="url(#clipPath3871)" />
      <rect
         style="opacity:0.2;color:#bebebe;fill:none;stroke:#000000;stroke-width:2;stroke-miterlimit:4;stroke-opacity:1;stroke-dasharray:none;marker:none;visibility:visible;display:inline;overflow:visible;enable-background:accumulate"
         id="rect3877"
         width="30"
         height="30"
         x="417"
         y="53"
         ry="7"
         clip-path="url(#clipPath3881)" />
    </g>
  </g>
</svg>
