<?xml version="1.0" encoding="UTF-8" standalone="no"?>
<!-- Created with Inkscape (http://www.inkscape.org/) -->

<svg
   xmlns:dc="http://purl.org/dc/elements/1.1/"
   xmlns:cc="http://creativecommons.org/ns#"
   xmlns:rdf="http://www.w3.org/1999/02/22-rdf-syntax-ns#"
   xmlns:svg="http://www.w3.org/2000/svg"
   xmlns="http://www.w3.org/2000/svg"
   xmlns:xlink="http://www.w3.org/1999/xlink"
   xmlns:sodipodi="http://sodipodi.sourceforge.net/DTD/sodipodi-0.dtd"
   xmlns:inkscape="http://www.inkscape.org/namespaces/inkscape"
   inkscape:export-ydpi="90.000000"
   inkscape:export-xdpi="90.000000"
   width="480"
   height="300"
   id="svg11300"
   sodipodi:version="0.32"
   inkscape:version="0.48.4 r9939"
   sodipodi:docname="QtProject-qtcreator.svg"
   inkscape:output_extension="org.inkscape.output.svg.inkscape"
   version="1.0"
   style="display:inline;enable-background:new"
   inkscape:export-filename="/home/sam/moka-next-template.png">
  <sodipodi:namedview
     stroke="#ef2929"
     fill="#f57900"
     id="base"
     pagecolor="#777777"
     bordercolor="#666666"
     borderopacity="0.25490196"
     inkscape:pageopacity="0"
     inkscape:pageshadow="2"
     inkscape:zoom="1"
     inkscape:cx="232"
     inkscape:cy="164.25006"
     inkscape:current-layer="layer7"
     showgrid="false"
     inkscape:grid-bbox="true"
     inkscape:document-units="px"
     inkscape:showpageshadow="false"
     inkscape:window-width="1364"
     inkscape:window-height="700"
     inkscape:window-x="0"
     inkscape:window-y="28"
     width="400px"
     height="300px"
     inkscape:snap-nodes="true"
     inkscape:snap-bbox="true"
     gridtolerance="10000"
     inkscape:object-nodes="true"
     inkscape:snap-grids="true"
     showguides="true"
     inkscape:guide-bbox="true"
     inkscape:window-maximized="1"
     inkscape:bbox-nodes="true"
     inkscape:bbox-paths="true"
     inkscape:snap-bbox-edge-midpoints="true"
     inkscape:snap-bbox-midpoints="true">
    <inkscape:grid
       spacingy="1px"
       spacingx="1px"
       id="grid5883"
       type="xygrid"
       enabled="true"
       visible="true"
       empspacing="4"
       snapvisiblegridlinesonly="true"
       dotted="false"
       color="#000000"
       opacity="0.1254902"
       empcolor="#203ef3"
       empopacity="0.36470588" />
    <inkscape:grid
       type="xygrid"
       id="grid11592"
       empspacing="8"
       visible="true"
       enabled="false"
       spacingx="0.5px"
       spacingy="0.5px"
       color="#ff0000"
       opacity="0.1254902"
       empcolor="#ff0000"
       empopacity="0.25098039"
       snapvisiblegridlinesonly="true"
       dotted="true" />
  </sodipodi:namedview>
  <defs
     id="defs3">
    <linearGradient
       inkscape:collect="always"
       xlink:href="#outerBackgroundGradient-2"
       id="linearGradient4254"
       x1="35"
       y1="156"
       x2="253"
       y2="156"
       gradientUnits="userSpaceOnUse"
       gradientTransform="matrix(0,-1,1,0,-12,300)" />
    <linearGradient
       inkscape:collect="always"
       xlink:href="#outerBackgroundGradient-2"
       id="linearGradient4256"
       x1="417"
       y1="148"
       x2="431"
       y2="148"
       gradientUnits="userSpaceOnUse"
       gradientTransform="matrix(0,-1,1,0,276,572)" />
    <linearGradient
       inkscape:collect="always"
       xlink:href="#outerBackgroundGradient-2"
       id="linearGradient4260"
       x1="418"
       y1="68"
       x2="446"
       y2="68"
       gradientUnits="userSpaceOnUse"
       gradientTransform="matrix(0,-1,1,0,364,500)" />
    <linearGradient
       inkscape:collect="always"
       xlink:href="#outerBackgroundGradient-2"
       id="linearGradient4262"
       x1="292"
       y1="244"
       x2="332"
       y2="244"
       gradientUnits="userSpaceOnUse"
       gradientTransform="matrix(0,-1,1,0,68,556)" />
    <linearGradient
       inkscape:collect="always"
       xlink:href="#outerBackgroundGradient-2"
       id="linearGradient4264"
       x1="293"
       y1="76"
       x2="379"
       y2="76"
       gradientUnits="userSpaceOnUse"
       gradientTransform="matrix(0,-1,1,0,260,412)" />
    <linearGradient
       inkscape:collect="always"
       xlink:href="#outerBackgroundGradient-2"
       id="linearGradient4266"
       x1="291"
       y1="172"
       x2="349"
       y2="172"
       gradientUnits="userSpaceOnUse"
       gradientTransform="matrix(0,-1,1,0,148,492)" />
    <linearGradient
       inkscape:collect="always"
       xlink:href="#outerBackgroundGradient-2"
       id="linearGradient3870"
       gradientUnits="userSpaceOnUse"
       gradientTransform="matrix(0,-1,1,0,316,540)"
       x1="418"
       y1="112"
       x2="438"
       y2="112" />
    <linearGradient
       id="outerBackgroundGradient-2">
      <stop
         style="stop-color:#3c8610;stop-opacity:1;"
         offset="0"
         id="stop3864-8-6-4" />
      <stop
         style="stop-color:#5aa72d;stop-opacity:1;"
         offset="1"
         id="stop3866-9-1-6" />
    </linearGradient>
    <clipPath
       clipPathUnits="userSpaceOnUse"
       id="clipPath4381">
      <path
         d="M 49.777382,174.9193 C 46.214412,159.47975 43.843602,152.06829 49.645364,143.24842 57.761475,130.91036 81.844095,131.37183 105.86117,103 92.137125,137.31013 97.679545,177.03069 49.77732,174.9193 z"
         inkscape:connector-curvature="0"
         id="path4383"
         style="opacity:0.1;fill:#000000;fill-opacity:1;stroke:none" />
    </clipPath>
  </defs>
  <metadata
     id="metadata4">
    <rdf:RDF>
      <cc:Work
         rdf:about="">
        <dc:format>image/svg+xml</dc:format>
        <dc:type
           rdf:resource="http://purl.org/dc/dcmitype/StillImage" />
        <dc:creator>
          <cc:Agent>
            <dc:title>Sam Hewitt</dc:title>
          </cc:Agent>
        </dc:creator>
        <dc:source />
        <cc:license
           rdf:resource="" />
        <dc:title />
        <dc:subject>
          <rdf:Bag />
        </dc:subject>
        <dc:date />
        <dc:rights>
          <cc:Agent>
            <dc:title />
          </cc:Agent>
        </dc:rights>
        <dc:publisher>
          <cc:Agent>
            <dc:title />
          </cc:Agent>
        </dc:publisher>
        <dc:identifier />
        <dc:relation />
        <dc:language />
        <dc:coverage />
        <dc:description />
        <dc:contributor>
          <cc:Agent>
            <dc:title />
          </cc:Agent>
        </dc:contributor>
      </cc:Work>
      <cc:Work
         rdf:about="">
        <dc:format>image/svg+xml</dc:format>
        <dc:type
           rdf:resource="http://purl.org/dc/dcmitype/StillImage" />
      </cc:Work>
    </rdf:RDF>
  </metadata>
  <g
     style="display:inline"
     inkscape:groupmode="layer"
     inkscape:label="Icon"
     id="layer1">
    <g
       style="display:none"
       inkscape:label="Baseplate"
       id="layer7"
       inkscape:groupmode="layer">
      <text
         y="19.745117"
         xml:space="preserve"
         x="15.006836"
         style="font-style:normal;font-variant:normal;font-weight:normal;font-stretch:normal;line-height:0%;font-family:'DejaVu Sans';-inkscape-font-specification:'DejaVu Sans';display:inline;fill:#000000;fill-opacity:1;stroke:none;enable-background:new"
         inkscape:label="context"
         id="context"><tspan
           style="font-style:normal;font-variant:normal;font-weight:normal;font-stretch:normal;font-size:18px;line-height:1.25;font-family:'DejaVu Sans';-inkscape-font-specification:'DejaVu Sans'"
           y="19.745117"
           x="15.006836"
           sodipodi:role="line"
           id="tspan3933">apps</tspan></text>
      <text
         y="19.745117"
         xml:space="preserve"
         x="122.48828"
         style="font-style:normal;font-variant:normal;font-weight:bold;font-stretch:normal;line-height:0%;font-family:'DejaVu Sans';-inkscape-font-specification:'DejaVu Sans Bold';text-align:start;writing-mode:lr-tb;text-anchor:start;display:inline;fill:#000000;fill-opacity:1;stroke:none;enable-background:new"
         inkscape:label="icon-name"
         id="icon-name"><tspan
           style="font-style:normal;font-variant:normal;font-weight:bold;font-stretch:normal;font-size:18px;line-height:1.25;font-family:'DejaVu Sans';-inkscape-font-specification:'DejaVu Sans Bold'"
           y="19.745117"
           x="122.48828"
           sodipodi:role="line"
           id="tspan3937">QtProject-qtcreator</tspan></text>
      <rect
         style="fill:#eeeeec;fill-opacity:1;fill-rule:nonzero;stroke:none;stroke-width:2;marker:none;visibility:visible;display:inline;overflow:visible;enable-background:accumulate"
         id="rect16x16"
         width="16"
         height="16"
         x="416"
         y="140"
         inkscape:label="16x16" />
      <rect
         style="fill:#d4d4d4;fill-opacity:1;fill-rule:nonzero;stroke:none;stroke-width:2;marker:none;visibility:visible;display:inline;overflow:visible;enable-background:accumulate"
         id="rect24x24"
         width="24"
         height="24"
         x="416"
         y="100"
         inkscape:label="24x24" />
      <rect
         style="fill:#eeeeec;fill-opacity:1;fill-rule:nonzero;stroke:none;stroke-width:2;marker:none;visibility:visible;display:inline;overflow:visible;enable-background:accumulate"
         id="rect32x32"
         width="32"
         height="32"
         x="416"
         y="52"
         inkscape:label="32x32" />
      <rect
         inkscape:label="22x22"
         y="101"
         x="417"
         height="22"
         width="22"
         id="rect22x22"
         style="fill:#eeeeec;fill-opacity:1;fill-rule:nonzero;stroke:none;stroke-width:2;marker:none;visibility:visible;display:inline;overflow:visible;enable-background:accumulate" />
      <rect
         inkscape:label="48x48"
         y="220"
         x="288"
         height="48"
         width="48"
         id="rect48x48"
         style="fill:#eeeeec;fill-opacity:1;fill-rule:nonzero;stroke:none;stroke-width:2;marker:none;visibility:visible;display:inline;overflow:visible;enable-background:accumulate" />
      <rect
         style="fill:#eeeeec;fill-opacity:1;fill-rule:nonzero;stroke:none;stroke-width:2;marker:none;visibility:visible;display:inline;overflow:visible;enable-background:accumulate"
         id="rect256x256"
         width="256"
         height="256"
         x="16"
         y="28"
         inkscape:label="256x256" />
      <rect
         style="fill:#eeeeec;fill-opacity:1;fill-rule:nonzero;stroke:none;stroke-width:2;marker:none;visibility:visible;display:inline;overflow:visible;enable-background:accumulate"
         id="rect64x64"
         width="64"
         height="64"
         x="288"
         y="140"
         inkscape:label="64x64" />
      <rect
         style="fill:#eeeeec;fill-opacity:1;fill-rule:nonzero;stroke:none;stroke-width:2;marker:none;visibility:visible;display:inline;overflow:visible;enable-background:accumulate"
         id="rect96x96"
         width="96"
         height="96"
         x="288"
         y="28"
         inkscape:label="96x96" />
    </g>
    <g
       inkscape:groupmode="layer"
       id="layer4"
       inkscape:label="Shadow"
       style="display:inline"
       sodipodi:insensitive="true">
      <rect
         ry="50"
         y="47"
         x="34"
         height="220"
         width="220"
         id="rect4114"
         style="opacity:0.1;color:#bebebe;fill:#000000;fill-opacity:1;fill-rule:nonzero;stroke:none;stroke-width:0;marker:none;visibility:visible;display:inline;overflow:visible;enable-background:accumulate" />
      <rect
         style="opacity:0.1;color:#bebebe;fill:#000000;fill-opacity:1;fill-rule:nonzero;stroke:none;stroke-width:0;marker:none;visibility:visible;display:inline;overflow:visible;enable-background:accumulate"
         id="rect4120"
         width="30"
         height="30"
         x="417"
         y="54"
         ry="7" />
      <rect
         transform="scale(1,-1)"
         ry="9"
         y="-266"
         x="291"
         height="42"
         width="42"
         id="rect4122"
         style="opacity:0.1;color:#bebebe;fill:#000000;fill-opacity:1;fill-rule:nonzero;stroke:none;stroke-width:0;marker:none;visibility:visible;display:inline;overflow:visible;enable-background:accumulate" />
      <rect
         style="opacity:0.1;color:#bebebe;fill:#000000;fill-opacity:1;fill-rule:nonzero;stroke:none;stroke-width:0;marker:none;visibility:visible;display:inline;overflow:visible;enable-background:accumulate"
         id="rect4124"
         width="88"
         height="88"
         x="292"
         y="33"
         ry="18" />
      <rect
         ry="12.5"
         y="143"
         x="290"
         height="60"
         width="60"
         id="rect4126"
         style="opacity:0.1;color:#bebebe;fill:#000000;fill-opacity:1;fill-rule:nonzero;stroke:none;stroke-width:0;marker:none;visibility:visible;display:inline;overflow:visible;enable-background:accumulate" />
      <path
         id="path4268"
         d="m 422,101 c -2.77,0 -5,2.23 -5,5 l 0,12 c 0,2.77 2.23,5 5,5 l 12,0 c 2.77,0 5,-2.23 5,-5 l 0,-12 c 0,-2.77 -2.23,-5 -5,-5 z"
         style="opacity:0.1;color:#bebebe;fill:#000000;fill-opacity:1;fill-rule:nonzero;stroke:none;stroke-width:0;marker:none;visibility:visible;display:inline;overflow:visible;enable-background:accumulate"
         inkscape:connector-curvature="0"
         sodipodi:nodetypes="sssssssss" />
      <path
         id="path4270"
         d="m 419,140 c -1.662,0 -3,1.338 -3,3 l 0,10 c 0,1.662 1.338,3 3,3 l 10,0 c 1.662,0 3,-1.338 3,-3 l 0,-10 c 0,-1.662 -1.338,-3 -3,-3 z"
         style="opacity:0.1;color:#bebebe;fill:#000000;fill-opacity:1;fill-rule:nonzero;stroke:none;stroke-width:0;marker:none;visibility:visible;display:inline;overflow:visible;enable-background:accumulate"
         inkscape:connector-curvature="0"
         sodipodi:nodetypes="sssssssss" />
    </g>
    <g
       inkscape:groupmode="layer"
       id="layer2"
       inkscape:label="Background"
       style="display:inline">
      <path
         style="color:#bebebe;fill:url(#linearGradient4254);fill-opacity:1.0;fill-rule:nonzero;stroke:none;stroke-width:2;marker:none;visibility:visible;display:inline;overflow:visible;enable-background:accumulate"
         d="M 84 46.5 C 56.568735 46.5 34.5 68.568732 34.5 96 L 34.5 216 C 34.5 243.43127 56.568735 265.5 84 265.5 L 204 265.5 C 231.43127 265.5 253.5 243.43127 253.5 216 L 253.5 96 C 253.5 68.568732 231.43127 46.5 204 46.5 L 84 46.5 z "
         id="path4200" />
      <path
         style="color:#bebebe;fill:url(#linearGradient4256);fill-opacity:1.0;fill-rule:nonzero;stroke:none;stroke-width:2;marker:none;visibility:visible;display:inline;overflow:visible;enable-background:accumulate"
         d="M 419 140.5 C 417.6156 140.5 416.5 141.6156 416.5 143 L 416.5 153 C 416.5 154.3844 417.6156 155.5 419 155.5 L 429 155.5 C 430.3844 155.5 431.5 154.3844 431.5 153 L 431.5 143 C 431.5 141.6156 430.3844 140.5 429 140.5 L 419 140.5 z "
         id="path4202" />
      <path
         style="color:#bebebe;fill:url(#linearGradient3870);fill-opacity:1.0;fill-rule:nonzero;stroke:none;stroke-width:2;marker:none;visibility:visible;display:inline;overflow:visible;enable-background:accumulate"
         d="M 422 101.5 C 419.50301 101.5 417.5 103.50301 417.5 106 L 417.5 118 C 417.5 120.49699 419.50301 122.5 422 122.5 L 434 122.5 C 436.49699 122.5 438.5 120.49699 438.5 118 L 438.5 106 C 438.5 103.50301 436.49699 101.5 434 101.5 L 422 101.5 z "
         id="path4204" />
      <path
         style="color:#bebebe;fill:url(#linearGradient4260);fill-opacity:1.0;fill-rule:nonzero;stroke:none;stroke-width:2;marker:none;visibility:visible;display:inline;overflow:visible;enable-background:accumulate"
         d="M 424 53.5 C 420.39346 53.5 417.5 56.393464 417.5 60 L 417.5 76 C 417.5 79.606536 420.39346 82.5 424 82.5 L 440 82.5 C 443.60654 82.5 446.5 79.606536 446.5 76 L 446.5 60 C 446.5 56.393464 443.60654 53.5 440 53.5 L 424 53.5 z "
         id="path4206" />
      <path
         style="color:#bebebe;fill:url(#linearGradient4262);fill-opacity:1.0;fill-rule:nonzero;stroke:none;stroke-width:2;marker:none;visibility:visible;display:inline;overflow:visible;enable-background:accumulate"
         d="M 300 223.5 C 295.28469 223.5 291.5 227.28469 291.5 232 L 291.5 256 C 291.5 260.71531 295.28469 264.5 300 264.5 L 324 264.5 C 328.71531 264.5 332.5 260.71531 332.5 256 L 332.5 232 C 332.5 227.28469 328.71531 223.5 324 223.5 L 300 223.5 z "
         id="path4208" />
      <path
         style="color:#bebebe;fill:url(#linearGradient4264);fill-opacity:1.0;fill-rule:nonzero;stroke:none;stroke-width:2;marker:none;visibility:visible;display:inline;overflow:visible;enable-background:accumulate"
         d="M 310 32.5 C 300.29745 32.5 292.5 40.297452 292.5 50 L 292.5 102 C 292.5 111.70255 300.29745 119.5 310 119.5 L 362 119.5 C 371.70255 119.5 379.5 111.70255 379.5 102 L 379.5 50 C 379.5 40.297452 371.70255 32.5 362 32.5 L 310 32.5 z "
         id="path4210" />
      <path
         style="color:#bebebe;fill:url(#linearGradient4266);fill-opacity:1.0;fill-rule:nonzero;stroke:none;stroke-width:2;marker:none;visibility:visible;display:inline;overflow:visible;enable-background:accumulate"
         d="M 302.5 142.5 C 295.84498 142.5 290.5 147.84498 290.5 154.5 L 290.5 189.5 C 290.5 196.15502 295.84498 201.5 302.5 201.5 L 337.5 201.5 C 344.15502 201.5 349.5 196.15502 349.5 189.5 L 349.5 154.5 C 349.5 147.84498 344.15502 142.5 337.5 142.5 L 302.5 142.5 z "
         id="path4212" />
    </g>
    <g
       inkscape:groupmode="layer"
       id="layer6"
       inkscape:label="Symbols"
       style="display:inline">
      <g
         style="display:inline;enable-background:new"
         id="g4416"
         transform="matrix(2.4999999,0,0,2.4999999,-45.999856,-191.50013)">
        <path
           style="opacity:0.1;fill:#000000;fill-opacity:1;stroke:none"
           id="path4418"
           inkscape:connector-curvature="0"
           d="M 49.777382,174.9193 C 46.214412,159.47975 43.843602,152.06829 49.645364,143.24842 57.761475,130.91036 81.844095,131.37183 105.86117,103 92.137125,137.31013 97.679545,177.03069 49.77732,174.9193 z" />
        <path
           style="opacity:0.1;fill:#000000;fill-opacity:1;stroke:none;display:inline;enable-background:new"
           id="path4420"
           inkscape:connector-curvature="0"
           d="M 52.00649,171.99824 C 53.32998,172.58647 100.8286,112 100.8286,112 c 0,0 -49.851494,56.02778 -48.82211,59.99824 z" />
        <path
           clip-path="url(#clipPath4381)"
           style="opacity:0.1;fill:none;stroke:#000000;stroke-width:0.80000001;stroke-miterlimit:4;stroke-opacity:1;stroke-dasharray:none"
           id="path4422"
           inkscape:connector-curvature="0"
           d="M 49.777382,174.9193 C 46.214412,159.47975 43.843602,152.06829 49.645364,143.24842 57.761475,130.91036 81.844095,131.37183 105.86117,103 92.137125,137.31013 97.679545,177.03069 49.77732,174.9193 z" />
        <path
           d="M 49.777382,174.9193 C 46.214412,159.47975 43.843602,152.06829 49.645364,143.24842 57.761475,130.91036 81.844095,131.37183 105.86117,103 92.137125,137.31013 97.679545,177.03069 49.77732,174.9193 z"
           inkscape:connector-curvature="0"
           id="path4424"
           style="opacity:0.1;fill:none;stroke:#000000;stroke-width:0.40000001;stroke-opacity:1"
           clip-path="url(#clipPath4381)" />
      </g>
      <g
         transform="matrix(0.91666664,0,0,0.91666664,266.33372,-51.416895)"
         id="g4814"
         style="display:inline;enable-background:new">
        <path
           d="M 49.777382,174.9193 C 46.214412,159.47975 43.843602,152.06829 49.645364,143.24842 57.761475,130.91036 81.844095,131.37183 105.86117,103 92.137125,137.31013 97.679545,177.03069 49.77732,174.9193 z"
           inkscape:connector-curvature="0"
           id="path4816"
           style="opacity:0.1;fill:#000000;fill-opacity:1;stroke:none" />
        <path
           d="M 52.00649,171.99824 C 53.32998,172.58647 100.8286,112 100.8286,112 c 0,0 -49.851494,56.02778 -48.82211,59.99824 z"
           inkscape:connector-curvature="0"
           id="path4818"
           style="opacity:0.1;fill:#000000;fill-opacity:1;stroke:none;display:inline;enable-background:new" />
        <path
           d="M 49.777382,174.9193 C 46.214412,159.47975 43.843602,152.06829 49.645364,143.24842 57.761475,130.91036 81.844095,131.37183 105.86117,103 92.137125,137.31013 97.679545,177.03069 49.77732,174.9193 z"
           inkscape:connector-curvature="0"
           id="path4820"
           style="opacity:0.1;fill:none;stroke:#000000;stroke-width:2.18181825;stroke-miterlimit:4;stroke-opacity:1;stroke-dasharray:none"
           clip-path="url(#clipPath4381)" />
        <path
           clip-path="url(#clipPath4381)"
           style="opacity:0.1;fill:none;stroke:#000000;stroke-width:1.09090912;stroke-opacity:1"
           id="path4822"
           inkscape:connector-curvature="0"
           d="M 49.777382,174.9193 C 46.214412,159.47975 43.843602,152.06829 49.645364,143.24842 57.761475,130.91036 81.844095,131.37183 105.86117,103 92.137125,137.31013 97.679545,177.03069 49.77732,174.9193 z" />
      </g>
      <g
         style="display:inline;enable-background:new"
         id="g4824"
         transform="matrix(0.61111109,0,0,0.61111109,273.55596,87.055446)">
        <path
           style="opacity:0.1;fill:#000000;fill-opacity:1;stroke:none"
           id="path4826"
           inkscape:connector-curvature="0"
           d="M 49.777382,174.9193 C 46.214412,159.47975 43.843602,152.06829 49.645364,143.24842 57.761475,130.91036 81.844095,131.37183 105.86117,103 92.137125,137.31013 97.679545,177.03069 49.77732,174.9193 z" />
        <path
           style="opacity:0.1;fill:#000000;fill-opacity:1;stroke:none;display:inline;enable-background:new"
           id="path4828"
           inkscape:connector-curvature="0"
           d="M 52.00649,171.99824 C 53.32998,172.58647 100.8286,112 100.8286,112 c 0,0 -49.851494,56.02778 -48.82211,59.99824 z" />
        <path
           clip-path="url(#clipPath4381)"
           style="opacity:0.1;fill:none;stroke:#000000;stroke-width:3.27272749;stroke-miterlimit:4;stroke-opacity:1;stroke-dasharray:none"
           id="path4830"
           inkscape:connector-curvature="0"
           d="M 49.777382,174.9193 C 46.214412,159.47975 43.843602,152.06829 49.645364,143.24842 57.761475,130.91036 81.844095,131.37183 105.86117,103 92.137125,137.31013 97.679545,177.03069 49.77732,174.9193 z" />
        <path
           d="M 49.777382,174.9193 C 46.214412,159.47975 43.843602,152.06829 49.645364,143.24842 57.761475,130.91036 81.844095,131.37183 105.86117,103 92.137125,137.31013 97.679545,177.03069 49.77732,174.9193 z"
           inkscape:connector-curvature="0"
           id="path4832"
           style="opacity:0.1;fill:none;stroke:#000000;stroke-width:1.63636374;stroke-opacity:1"
           clip-path="url(#clipPath4381)" />
      </g>
      <g
         transform="matrix(0.44444443,0,0,0.44444443,278.22262,182.22219)"
         id="g4834"
         style="display:inline;enable-background:new">
        <path
           d="M 49.777382,174.9193 C 46.214412,159.47975 43.843602,152.06829 49.645364,143.24842 57.761475,130.91036 81.844095,131.37183 105.86117,103 92.137125,137.31013 97.679545,177.03069 49.77732,174.9193 z"
           inkscape:connector-curvature="0"
           id="path4836"
           style="opacity:0.1;fill:#000000;fill-opacity:1;stroke:none" />
        <path
           d="M 52.00649,171.99824 C 53.32998,172.58647 100.8286,112 100.8286,112 c 0,0 -49.851494,56.02778 -48.82211,59.99824 z"
           inkscape:connector-curvature="0"
           id="path4838"
           style="opacity:0.1;fill:#000000;fill-opacity:1;stroke:none;display:inline;enable-background:new" />
        <path
           d="M 49.777382,174.9193 C 46.214412,159.47975 43.843602,152.06829 49.645364,143.24842 57.761475,130.91036 81.844095,131.37183 105.86117,103 92.137125,137.31013 97.679545,177.03069 49.77732,174.9193 z"
           inkscape:connector-curvature="0"
           id="path4840"
           style="opacity:0.1;fill:none;stroke:#000000;stroke-width:4.50000048;stroke-miterlimit:4;stroke-opacity:1;stroke-dasharray:none"
           clip-path="url(#clipPath4381)" />
        <path
           clip-path="url(#clipPath4381)"
           style="opacity:0.1;fill:none;stroke:#000000;stroke-width:2.25000024;stroke-opacity:1"
           id="path4842"
           inkscape:connector-curvature="0"
           d="M 49.777382,174.9193 C 46.214412,159.47975 43.843602,152.06829 49.645364,143.24842 57.761475,130.91036 81.844095,131.37183 105.86117,103 92.137125,137.31013 97.679545,177.03069 49.77732,174.9193 z" />
      </g>
      <g
         style="display:inline;enable-background:new"
         id="g4844"
         transform="matrix(0.30555555,0,0,0.30555555,408.77828,25.527536)">
        <path
           style="opacity:0.1;fill:#000000;fill-opacity:1;stroke:none"
           id="path4846"
           inkscape:connector-curvature="0"
           d="M 49.777382,174.9193 C 46.214412,159.47975 43.843602,152.06829 49.645364,143.24842 57.761475,130.91036 81.844095,131.37183 105.86117,103 92.137125,137.31013 97.679545,177.03069 49.77732,174.9193 z" />
        <path
           style="opacity:0.1;fill:#000000;fill-opacity:1;stroke:none;display:inline;enable-background:new"
           id="path4848"
           inkscape:connector-curvature="0"
           d="M 52.00649,171.99824 C 53.32998,172.58647 100.8286,112 100.8286,112 c 0,0 -49.851494,56.02778 -48.82211,59.99824 z" />
        <path
           clip-path="url(#clipPath4381)"
           style="opacity:0.1;fill:none;stroke:#000000;stroke-width:6.54545498;stroke-miterlimit:4;stroke-opacity:1;stroke-dasharray:none"
           id="path4850"
           inkscape:connector-curvature="0"
           d="M 49.777382,174.9193 C 46.214412,159.47975 43.843602,152.06829 49.645364,143.24842 57.761475,130.91036 81.844095,131.37183 105.86117,103 92.137125,137.31013 97.679545,177.03069 49.77732,174.9193 z" />
        <path
           d="M 49.777382,174.9193 C 46.214412,159.47975 43.843602,152.06829 49.645364,143.24842 57.761475,130.91036 81.844095,131.37183 105.86117,103 92.137125,137.31013 97.679545,177.03069 49.77732,174.9193 z"
           inkscape:connector-curvature="0"
           id="path4852"
           style="opacity:0.1;fill:none;stroke:#000000;stroke-width:3.27272749;stroke-opacity:1"
           clip-path="url(#clipPath4381)" />
      </g>
      <g
         transform="matrix(0.24999999,0,0,0.24999999,408.53471,77.250016)"
         id="g4854"
         style="display:inline;enable-background:new">
        <path
           d="M 49.777382,174.9193 C 46.214412,159.47975 43.843602,152.06829 49.645364,143.24842 57.761475,130.91036 81.844095,131.37183 105.86117,103 92.137125,137.31013 97.679545,177.03069 49.77732,174.9193 z"
           inkscape:connector-curvature="0"
           id="path4856"
           style="opacity:0.1;fill:#000000;fill-opacity:1;stroke:none" />
        <path
           d="M 52.00649,171.99824 C 53.32998,172.58647 100.8286,112 100.8286,112 c 0,0 -49.851494,56.02778 -48.82211,59.99824 z"
           inkscape:connector-curvature="0"
           id="path4858"
           style="opacity:0.1;fill:#000000;fill-opacity:1;stroke:none;display:inline;enable-background:new" />
        <path
           d="M 49.777382,174.9193 C 46.214412,159.47975 43.843602,152.06829 49.645364,143.24842 57.761475,130.91036 81.844095,131.37183 105.86117,103 92.137125,137.31013 97.679545,177.03069 49.77732,174.9193 z"
           inkscape:connector-curvature="0"
           id="path4860"
           style="opacity:0.1;fill:none;stroke:#000000;stroke-width:8.00000095;stroke-miterlimit:4;stroke-opacity:1;stroke-dasharray:none"
           clip-path="url(#clipPath4381)" />
        <path
           clip-path="url(#clipPath4381)"
           style="opacity:0.1;fill:none;stroke:#000000;stroke-width:4.00000048;stroke-opacity:1"
           id="path4862"
           inkscape:connector-curvature="0"
           d="M 49.777382,174.9193 C 46.214412,159.47975 43.843602,152.06829 49.645364,143.24842 57.761475,130.91036 81.844095,131.37183 105.86117,103 92.137125,137.31013 97.679545,177.03069 49.77732,174.9193 z" />
      </g>
      <g
         style="display:inline;enable-background:new"
         id="g4864"
         transform="matrix(0.19444444,0,0,0.19444444,409.2227,120.97208)">
        <path
           style="opacity:0.1;fill:#000000;fill-opacity:1;stroke:none"
           id="path4866"
           inkscape:connector-curvature="0"
           d="M 49.777382,174.9193 C 46.214412,159.47975 43.843602,152.06829 49.645364,143.24842 57.761475,130.91036 81.844095,131.37183 105.86117,103 92.137125,137.31013 97.679545,177.03069 49.77732,174.9193 z" />
        <path
           style="opacity:0.1;fill:#000000;fill-opacity:1;stroke:none;display:inline;enable-background:new"
           id="path4868"
           inkscape:connector-curvature="0"
           d="M 52.00649,171.99824 C 53.32998,172.58647 100.8286,112 100.8286,112 c 0,0 -49.851494,56.02778 -48.82211,59.99824 z" />
        <path
           clip-path="url(#clipPath4381)"
           style="opacity:0.1;fill:none;stroke:#000000;stroke-width:10.2857151;stroke-miterlimit:4;stroke-opacity:1;stroke-dasharray:none"
           id="path4870"
           inkscape:connector-curvature="0"
           d="M 49.777382,174.9193 C 46.214412,159.47975 43.843602,152.06829 49.645364,143.24842 57.761475,130.91036 81.844095,131.37183 105.86117,103 92.137125,137.31013 97.679545,177.03069 49.77732,174.9193 z" />
        <path
           d="M 49.777382,174.9193 C 46.214412,159.47975 43.843602,152.06829 49.645364,143.24842 57.761475,130.91036 81.844095,131.37183 105.86117,103 92.137125,137.31013 97.679545,177.03069 49.77732,174.9193 z"
           inkscape:connector-curvature="0"
           id="path4872"
           style="opacity:0.1;fill:none;stroke:#000000;stroke-width:5.14285755;stroke-opacity:1"
           clip-path="url(#clipPath4381)" />
      </g>
      <g
         style="opacity:0.2;fill:#000000;fill-opacity:1;display:inline;enable-background:new"
         id="g4490"
         transform="matrix(1.0000012,0,0,1.0000012,6.9509301,-20.324314)">
        <path
           sodipodi:nodetypes="cccccccccccccccsc"
           d="m 169.20081,209.42257 c 0,-11.26761 0.0413,-47.09858 0.0413,-47.09858 l -9.02067,0 -0.0413,-16 c 13.53105,0 9.02067,0 15.78615,-27.04226 l 18.04143,0 0,27.04226 18.04134,0 0.0413,16 -18.04134,0 -0.0413,40.33802 c -9e-5,4.19604 0.87209,7.35917 2.61636,9.48944 1.74417,2.13027 4.03748,3.19542 6.87999,3.19541 3.61519,0.35253 8.54499,-1.41725 8.54499,-1.41725 l 0,15.77465 c -0.45223,0.32276 -22.2248,6.95655 -33.82758,0 -11.27586,-6.76057 -9.02067,-20.28169 -9.02067,-20.28169 z"
           style="font-size:88px;font-style:normal;font-variant:normal;font-weight:bold;font-stretch:normal;line-height:125%;letter-spacing:0px;word-spacing:0px;fill:#000000;fill-opacity:1;stroke:none;display:inline;enable-background:new;font-family:Liberation Serif;-inkscape-font-specification:Liberation Serif Bold"
           id="path4492"
           inkscape:connector-curvature="0" />
        <path
           sodipodi:nodetypes="ccsscccsscccccccccccccccccccccccscscc"
           inkscape:connector-curvature="0"
           id="path4494"
           d="m 106.26735,99.00004 c -15.242325,1.35e-4 -26.626859,5.77924 -34.109462,17.32394 -7.482603,11.47969 -11.205388,28.06893 -11.205388,49.78874 0,22.1765 3.722875,39.09419 11.205388,50.7042 5.233615,8.12051 12.229927,13.38529 20.990372,15.81921 0,0 1.779864,-0.0942 1.924673,1.8062 3.01501,24.50967 18.330777,24.55771 35.789917,24.55771 0,0 2.25519,0 2.25519,-2.25353 l 0,-13.52113 c 0,-2.25351 -2.25519,-2.25351 -2.25519,-2.25351 -8.72305,0 -10.98373,0.57341 -13.31955,-8.16901 2.95452,-0.73167 5.69816,-1.72805 8.24548,-3.02819 5.75038,-3.00032 10.49438,-7.35877 14.23577,-13.09858 3.74121,-5.80501 6.51443,-12.92919 8.31595,-21.40845 1.87047,-8.47921 2.81888,-18.1971 2.81888,-29.15492 0,-21.98072 -3.79569,-38.65076 -11.41672,-50.00002 -7.6213,-11.41424 -18.78722,-17.112534 -33.47531,-17.11266 z m -0.14094,10.98592 c 3.19506,1.3e-4 5.64153,1.12482 7.68171,3.45069 1.20323,1.3229 2.26139,3.06215 3.24179,5.14086 0.55407,1.53126 1.10634,3.15551 1.55047,5 1.19856,4.97844 2.04899,11.01535 2.53708,18.169 0.4871,7.14201 0.70463,15.27994 0.70472,24.36621 -9e-5,9.15146 -0.21771,17.37647 -0.70472,24.64787 -0.488,7.21831 -1.33995,13.34585 -2.53708,18.45072 -0.45033,1.89531 -0.97887,3.62108 -1.55047,5.21126 -0.0943,0.20575 -0.18526,0.43498 -0.28189,0.6338 -0.8968,1.84518 -1.87883,3.39837 -2.9599,4.64789 -2.0471,2.45351 -4.50086,3.59157 -7.68171,3.59155 -3.18094,2e-5 -5.63469,-1.13806 -7.681613,-3.59155 -2.001977,-2.4917 -3.648808,-6.13111 -4.86274,-10.98592 -1.218066,-4.93507 -2.044493,-10.97018 -2.537077,-18.09859 -0.493663,-7.20774 -0.775281,-15.39588 -0.775191,-24.50703 -9e-5,-9.04567 0.281618,-17.07851 0.775191,-24.15493 0.492494,-7.06235 1.320629,-13.01621 2.537077,-17.8169 1.212854,-4.78662 2.874965,-8.35077 4.86274,-10.70424 2.040093,-2.32585 4.486563,-3.45057 7.681613,-3.45069 z"
           style="font-size:88px;font-style:normal;font-variant:normal;font-weight:bold;font-stretch:normal;line-height:125%;letter-spacing:0px;word-spacing:0px;fill:#000000;fill-opacity:1;stroke:none;display:inline;enable-background:new;font-family:Liberation Serif;-inkscape-font-specification:Liberation Serif Bold" />
      </g>
      <g
         style="opacity:0.2;fill:#000000;fill-opacity:1;display:inline;enable-background:new"
         transform="matrix(0.37500046,0,0,0.37500047,284.4664,10.128216)"
         id="g4496">
        <path
           inkscape:connector-curvature="0"
           id="path4498"
           style="font-size:88px;font-style:normal;font-variant:normal;font-weight:bold;font-stretch:normal;line-height:125%;letter-spacing:0px;word-spacing:0px;fill:#000000;fill-opacity:1;stroke:none;display:inline;enable-background:new;font-family:Liberation Serif;-inkscape-font-specification:Liberation Serif Bold"
           d="m 169.38241,209.42257 c 0,-11.26761 0.0413,-47.09858 0.0413,-47.09858 l -9.20227,0 -0.0413,-16 c 13.53105,0 9.02067,0.37559 15.78615,-26.66667 l 17.45742,0 0,26.66667 18.62535,0 0.0413,16 -18.62535,0 -0.0413,40.33802 c -9e-5,4.19604 0.87209,7.35917 2.61636,9.48944 1.74417,2.13027 4.03748,3.19542 6.87999,3.19541 3.61519,0.35253 9.129,-1.41725 9.129,-1.41725 l 0,15.77465 c -0.45223,0.32276 -22.2248,6.95655 -33.82758,0 -11.27586,-6.76057 -8.83907,-20.28169 -8.83907,-20.28169 z"
           sodipodi:nodetypes="cccccccccccccccsc" />
        <path
           style="font-size:88px;font-style:normal;font-variant:normal;font-weight:bold;font-stretch:normal;line-height:125%;letter-spacing:0px;word-spacing:0px;fill:#000000;fill-opacity:1;stroke:none;display:inline;enable-background:new;font-family:Liberation Serif;-inkscape-font-specification:Liberation Serif Bold"
           d="m 106.26735,99.00004 c -15.242325,1.35e-4 -26.626859,5.77924 -34.109462,17.32394 -7.482603,11.47969 -11.205388,28.06893 -11.205388,49.78874 0,22.1765 3.722875,39.09419 11.205388,50.7042 5.233615,8.12051 12.229927,13.38529 20.990372,15.81921 0,0 1.779864,-0.0942 1.924673,1.8062 3.01501,24.50967 18.330777,24.55771 35.789917,24.55771 0,0 2.25519,0 2.25519,-2.25353 l 0,-13.52113 c 0,-2.25351 -2.25519,-2.25351 -2.25519,-2.25351 -8.72305,0 -10.98373,0.57341 -13.31955,-8.16901 2.95452,-0.73167 5.69816,-1.72805 8.24548,-3.02819 5.75038,-3.00032 10.49438,-7.35877 14.23577,-13.09858 3.74121,-5.80501 6.51443,-12.92919 8.31595,-21.40845 1.87047,-8.47921 2.81888,-18.1971 2.81888,-29.15492 0,-21.98072 -3.79569,-38.65076 -11.41672,-50.00002 -7.6213,-11.41424 -18.78722,-17.112534 -33.47531,-17.11266 z m -0.14094,10.98592 c 3.19506,1.3e-4 5.64153,1.12482 7.68171,3.45069 1.20323,1.3229 2.26139,3.06215 3.24179,5.14086 0.55407,1.53126 1.10634,3.15551 1.55047,5 1.19856,4.97844 2.04899,11.01535 2.53708,18.169 0.4871,7.14201 0.70463,15.27994 0.70472,24.36621 -9e-5,9.15146 -0.21771,17.37647 -0.70472,24.64787 -0.488,7.21831 -1.33995,13.34585 -2.53708,18.45072 -0.45033,1.89531 -0.97887,3.62108 -1.55047,5.21126 -0.0943,0.20575 -0.18526,0.43498 -0.28189,0.6338 -0.8968,1.84518 -1.87883,3.39837 -2.9599,4.64789 -2.0471,2.45351 -4.50086,3.59157 -7.68171,3.59155 -3.18094,2e-5 -5.63469,-1.13806 -7.681613,-3.59155 -2.001977,-2.4917 -3.648808,-6.13111 -4.86274,-10.98592 -1.218066,-4.93507 -2.044493,-10.97018 -2.537077,-18.09859 -0.493663,-7.20774 -0.775281,-15.39588 -0.775191,-24.50703 -9e-5,-9.04567 0.281618,-17.07851 0.775191,-24.15493 0.492494,-7.06235 1.320629,-13.01621 2.537077,-17.8169 1.212854,-4.78662 2.874965,-8.35077 4.86274,-10.70424 2.040093,-2.32585 4.486563,-3.45057 7.681613,-3.45069 z"
           id="path4500"
           inkscape:connector-curvature="0"
           sodipodi:nodetypes="ccsscccsscccccccccccccccccccccccscscc" />
      </g>
      <g
         id="g4502"
         transform="matrix(0.2500003,0,0,0.2500003,285.8699,128.24985)"
         style="opacity:0.2;fill:#000000;fill-opacity:1;display:inline;enable-background:new">
        <path
           sodipodi:nodetypes="cccccccccccccccsc"
           d="m 169.38241,209.42257 c 0,-11.26761 0.0413,-47.09858 0.0413,-47.09858 l -9.20227,0 -0.0413,-16 c 13.53105,0 9.02067,0.37559 15.78615,-26.66667 l 17.45742,0 0,26.66667 18.62535,0 0.0413,16 -18.62535,0 -0.0413,40.33802 c -9e-5,4.19604 0.87209,7.35917 2.61636,9.48944 1.74417,2.13027 4.03748,3.19542 6.87999,3.19541 3.61519,0.35253 9.129,-1.41725 9.129,-1.41725 l 0,15.77465 c -0.45223,0.32276 -22.2248,6.95655 -33.82758,0 -11.27586,-6.76057 -8.83907,-20.28169 -8.83907,-20.28169 z"
           style="font-size:88px;font-style:normal;font-variant:normal;font-weight:bold;font-stretch:normal;line-height:125%;letter-spacing:0px;word-spacing:0px;fill:#000000;fill-opacity:1;stroke:none;display:inline;enable-background:new;font-family:Liberation Serif;-inkscape-font-specification:Liberation Serif Bold"
           id="path4504"
           inkscape:connector-curvature="0" />
        <path
           sodipodi:nodetypes="ccsscccsscccccccccccccccccccccccscscc"
           inkscape:connector-curvature="0"
           id="path4506"
           d="m 106.26735,99.00004 c -15.242325,1.35e-4 -26.626859,5.77924 -34.109462,17.32394 -7.482603,11.47969 -11.205388,28.06893 -11.205388,49.78874 0,22.1765 3.722875,39.09419 11.205388,50.7042 5.233615,8.12051 12.229927,13.38529 20.990372,15.81921 0,0 1.779864,-0.0942 1.924673,1.8062 3.01501,24.50967 18.330777,24.55771 35.789917,24.55771 0,0 2.25519,0 2.25519,-2.25353 l 0,-13.52113 c 0,-2.25351 -2.25519,-2.25351 -2.25519,-2.25351 -8.72305,0 -10.98373,0.57341 -13.31955,-8.16901 2.95452,-0.73167 5.69816,-1.72805 8.24548,-3.02819 5.75038,-3.00032 10.49438,-7.35877 14.23577,-13.09858 3.74121,-5.80501 6.51443,-12.92919 8.31595,-21.40845 1.87047,-8.47921 2.81888,-18.1971 2.81888,-29.15492 0,-21.98072 -3.79569,-38.65076 -11.41672,-50.00002 -7.6213,-11.41424 -18.78722,-17.112534 -33.47531,-17.11266 z m -0.14094,10.98592 c 3.19506,1.3e-4 5.64153,1.12482 7.68171,3.45069 1.20323,1.3229 2.26139,3.06215 3.24179,5.14086 0.55407,1.53126 1.10634,3.15551 1.55047,5 1.19856,4.97844 2.04899,11.01535 2.53708,18.169 0.4871,7.14201 0.70463,15.27994 0.70472,24.36621 -9e-5,9.15146 -0.21771,17.37647 -0.70472,24.64787 -0.488,7.21831 -1.33995,13.34585 -2.53708,18.45072 -0.45033,1.89531 -0.97887,3.62108 -1.55047,5.21126 -0.0943,0.20575 -0.18526,0.43498 -0.28189,0.6338 -0.8968,1.84518 -1.87883,3.39837 -2.9599,4.64789 -2.0471,2.45351 -4.50086,3.59157 -7.68171,3.59155 -3.18094,2e-5 -5.63469,-1.13806 -7.681613,-3.59155 -2.001977,-2.4917 -3.648808,-6.13111 -4.86274,-10.98592 -1.218066,-4.93507 -2.044493,-10.97018 -2.537077,-18.09859 -0.493663,-7.20774 -0.775281,-15.39588 -0.775191,-24.50703 -9e-5,-9.04567 0.281618,-17.07851 0.775191,-24.15493 0.492494,-7.06235 1.320629,-13.01621 2.537077,-17.8169 1.212854,-4.78662 2.874965,-8.35077 4.86274,-10.70424 2.040093,-2.32585 4.486563,-3.45057 7.681613,-3.45069 z"
           style="font-size:88px;font-style:normal;font-variant:normal;font-weight:bold;font-stretch:normal;line-height:125%;letter-spacing:0px;word-spacing:0px;fill:#000000;fill-opacity:1;stroke:none;display:inline;enable-background:new;font-family:Liberation Serif;-inkscape-font-specification:Liberation Serif Bold" />
      </g>
      <g
         style="opacity:0.2;fill:#000000;fill-opacity:1;display:inline;enable-background:new"
         transform="matrix(0.17500021,0,0,0.17500021,288.109,213.67495)"
         id="g4508">
        <path
           inkscape:connector-curvature="0"
           id="path4510"
           style="font-size:88px;font-style:normal;font-variant:normal;font-weight:bold;font-stretch:normal;line-height:125%;letter-spacing:0px;word-spacing:0px;fill:#000000;fill-opacity:1;stroke:none;display:inline;enable-background:new;font-family:Liberation Serif;-inkscape-font-specification:Liberation Serif Bold"
           d="m 169.38241,209.42257 c 0,-11.26761 0.0413,-47.09858 0.0413,-47.09858 l -9.20227,0 -0.0413,-16 c 13.53105,0 9.02067,0.37559 15.78615,-26.66667 l 17.45742,0 0,26.66667 18.62535,0 0.0413,16 -18.62535,0 -0.0413,40.33802 c -9e-5,4.19604 0.87209,7.35917 2.61636,9.48944 1.74417,2.13027 4.03748,3.19542 6.87999,3.19541 3.61519,0.35253 9.129,-1.41725 9.129,-1.41725 l 0,15.77465 c -0.45223,0.32276 -22.2248,6.95655 -33.82758,0 -11.27586,-6.76057 -8.83907,-20.28169 -8.83907,-20.28169 z"
           sodipodi:nodetypes="cccccccccccccccsc" />
        <path
           style="font-size:88px;font-style:normal;font-variant:normal;font-weight:bold;font-stretch:normal;line-height:125%;letter-spacing:0px;word-spacing:0px;fill:#000000;fill-opacity:1;stroke:none;display:inline;enable-background:new;font-family:Liberation Serif;-inkscape-font-specification:Liberation Serif Bold"
           d="m 106.26735,99.00004 c -15.242325,1.35e-4 -26.626859,5.77924 -34.109462,17.32394 -7.482603,11.47969 -11.205388,28.06893 -11.205388,49.78874 0,22.1765 3.722875,39.09419 11.205388,50.7042 5.233615,8.12051 12.229927,13.38529 20.990372,15.81921 0,0 1.779864,-0.0942 1.924673,1.8062 3.01501,24.50967 18.330777,24.55771 35.789917,24.55771 0,0 2.25519,0 2.25519,-2.25353 l 0,-13.52113 c 0,-2.25351 -2.25519,-2.25351 -2.25519,-2.25351 -8.72305,0 -10.98373,0.57341 -13.31955,-8.16901 2.95452,-0.73167 5.69816,-1.72805 8.24548,-3.02819 5.75038,-3.00032 10.49438,-7.35877 14.23577,-13.09858 3.74121,-5.80501 6.51443,-12.92919 8.31595,-21.40845 1.87047,-8.47921 2.81888,-18.1971 2.81888,-29.15492 0,-21.98072 -3.79569,-38.65076 -11.41672,-50.00002 -7.6213,-11.41424 -18.78722,-17.112534 -33.47531,-17.11266 z m -0.14094,10.98592 c 3.19506,1.3e-4 5.64153,1.12482 7.68171,3.45069 1.20323,1.3229 2.26139,3.06215 3.24179,5.14086 0.55407,1.53126 1.10634,3.15551 1.55047,5 1.19856,4.97844 2.04899,11.01535 2.53708,18.169 0.4871,7.14201 0.70463,15.27994 0.70472,24.36621 -9e-5,9.15146 -0.21771,17.37647 -0.70472,24.64787 -0.488,7.21831 -1.33995,13.34585 -2.53708,18.45072 -0.45033,1.89531 -0.97887,3.62108 -1.55047,5.21126 -0.0943,0.20575 -0.18526,0.43498 -0.28189,0.6338 -0.8968,1.84518 -1.87883,3.39837 -2.9599,4.64789 -2.0471,2.45351 -4.50086,3.59157 -7.68171,3.59155 -3.18094,2e-5 -5.63469,-1.13806 -7.681613,-3.59155 -2.001977,-2.4917 -3.648808,-6.13111 -4.86274,-10.98592 -1.218066,-4.93507 -2.044493,-10.97018 -2.537077,-18.09859 -0.493663,-7.20774 -0.775281,-15.39588 -0.775191,-24.50703 -9e-5,-9.04567 0.281618,-17.07851 0.775191,-24.15493 0.492494,-7.06235 1.320629,-13.01621 2.537077,-17.8169 1.212854,-4.78662 2.874965,-8.35077 4.86274,-10.70424 2.040093,-2.32585 4.486563,-3.45057 7.681613,-3.45069 z"
           id="path4512"
           inkscape:connector-curvature="0"
           sodipodi:nodetypes="ccsscccsscccccccccccccccccccccccscscc" />
      </g>
      <g
         id="g4514"
         transform="matrix(0.12500015,0,0,0.12500015,414.9353,46.624755)"
         style="opacity:0.2;fill:#000000;fill-opacity:1;display:inline;enable-background:new">
        <path
           sodipodi:nodetypes="cccccccccccccccsc"
           d="m 168.43884,210.09862 c 0,-11.26761 0.0413,-47.09858 0.0413,-47.09858 l -9.20227,0 -0.0413,-16 c 13.53105,0 9.02067,0.37559 15.78615,-26.66667 l 17.45742,0 0,26.66667 16.0413,0 0.0413,16 -16.0413,0 -0.0413,40.33802 c -9e-5,4.19604 0.87209,7.35917 2.61636,9.48944 1.74417,2.13027 4.03748,3.19542 6.87999,3.19541 3.61519,0.35253 6.54495,-1.41725 6.54495,-1.41725 l 0,15.77465 c -0.45223,0.32276 -19.64075,6.95655 -31.24353,0 -11.27586,-6.76057 -8.83907,-20.28169 -8.83907,-20.28169 z"
           style="font-size:88px;font-style:normal;font-variant:normal;font-weight:bold;font-stretch:normal;line-height:125%;letter-spacing:0px;word-spacing:0px;fill:#000000;fill-opacity:1;stroke:none;display:inline;enable-background:new;font-family:Liberation Serif;-inkscape-font-specification:Liberation Serif Bold"
           id="path4516"
           inkscape:connector-curvature="0" />
        <path
           sodipodi:nodetypes="ccsscccsscccccccccccccccccccccccscscc"
           inkscape:connector-curvature="0"
           id="path4518"
           d="m 106.26735,99.00004 c -15.242325,1.35e-4 -26.626859,5.77924 -34.109462,17.32394 -7.482603,11.47969 -11.205388,28.06893 -11.205388,49.78874 0,22.1765 3.722875,39.09419 11.205388,50.7042 5.233615,8.12051 12.229927,13.38529 20.990372,15.81921 0,0 1.779864,-0.0942 1.924673,1.8062 3.01501,24.50967 18.330777,24.55771 35.789917,24.55771 0,0 2.25519,0 2.25519,-2.25353 l 0,-13.52113 c 0,-2.25351 -2.25519,-2.25351 -2.25519,-2.25351 -8.72305,0 -10.98373,0.57341 -13.31955,-8.16901 2.95452,-0.73167 5.69816,-1.72805 8.24548,-3.02819 5.75038,-3.00032 10.49438,-7.35877 14.23577,-13.09858 3.74121,-5.80501 6.51443,-12.92919 8.31595,-21.40845 1.87047,-8.47921 2.81888,-18.1971 2.81888,-29.15492 0,-21.98072 -3.79569,-38.65076 -11.41672,-50.00002 -7.6213,-11.41424 -18.78722,-17.112534 -33.47531,-17.11266 z m -0.14094,10.98592 c 3.19506,1.3e-4 5.64153,1.12482 7.68171,3.45069 1.20323,1.3229 2.26139,3.06215 3.24179,5.14086 0.55407,1.53126 1.10634,3.15551 1.55047,5 1.19856,4.97844 2.04899,11.01535 2.53708,18.169 0.4871,7.14201 0.70463,15.27994 0.70472,24.36621 -9e-5,9.15146 -0.21771,17.37647 -0.70472,24.64787 -0.488,7.21831 -1.33995,13.34585 -2.53708,18.45072 -0.45033,1.89531 -0.97887,3.62108 -1.55047,5.21126 -0.0943,0.20575 -0.18526,0.43498 -0.28189,0.6338 -0.8968,1.84518 -1.87883,3.39837 -2.9599,4.64789 -2.0471,2.45351 -4.50086,3.59157 -7.68171,3.59155 -3.18094,2e-5 -5.63469,-1.13806 -7.681613,-3.59155 -2.001977,-2.4917 -3.648808,-6.13111 -4.86274,-10.98592 -1.218066,-4.93507 -2.044493,-10.97018 -2.537077,-18.09859 -0.493663,-7.20774 -0.775281,-15.39588 -0.775191,-24.50703 -9e-5,-9.04567 0.281618,-17.07851 0.775191,-24.15493 0.492494,-7.06235 1.320629,-13.01621 2.537077,-17.8169 1.212854,-4.78662 2.874965,-8.35077 4.86274,-10.70424 2.040093,-2.32585 4.486563,-3.45057 7.681613,-3.45069 z"
           style="font-size:88px;font-style:normal;font-variant:normal;font-weight:bold;font-stretch:normal;line-height:125%;letter-spacing:0px;word-spacing:0px;fill:#000000;fill-opacity:1;stroke:none;display:inline;enable-background:new;font-family:Liberation Serif;-inkscape-font-specification:Liberation Serif Bold" />
      </g>
      <g
         id="g4520"
         transform="matrix(1.0000012,0,0,1.0000012,-0.24161989,0.67097561)"
         style="opacity:0.2;fill:#000000;fill-opacity:1;display:inline;enable-background:new">
        <path
           inkscape:connector-curvature="0"
           id="path4522"
           style="font-size:88px;font-style:normal;font-variant:normal;font-weight:bold;font-stretch:normal;line-height:125%;letter-spacing:0px;word-spacing:0px;fill:#000000;fill-opacity:1;stroke:none;display:inline;enable-background:new;font-family:Liberation Serif;-inkscape-font-specification:Liberation Serif Bold"
           d="m 431.2892,115.21118 c 0,-1.05044 0,-4.41183 0,-4.41183 l -0.8321,0 0,-1.47062 c 1.2481,0 0.8321,0 1.4562,-2.52104 l 1.6641,0 0,2.52104 1.6642,0 0,1.47062 -1.6642,0 0,3.78157 c 0,0.39118 0.08,0.68607 0.2414,0.88466 0.1609,0.1986 0.3724,0.2979 0.6346,0.2979 0.3335,0.0329 0.7882,-0.13213 0.7882,-0.13213 l 0,1.47062 c -0.042,0.0301 -2.05,0.64853 -3.1203,0 -1.0401,-0.63027 -0.8321,-1.89079 -0.8321,-1.89079 z"
           sodipodi:nodetypes="cccccccccccccccsc" />
        <path
           style="font-size:88px;font-style:normal;font-variant:normal;font-weight:bold;font-stretch:normal;line-height:125%;letter-spacing:0px;word-spacing:0px;fill:#000000;fill-opacity:1;stroke:none;display:inline;enable-background:new;font-family:Liberation Serif;-inkscape-font-specification:Liberation Serif Bold"
           d="m 425.4841,104.9169 c -1.406,1e-5 -2.4561,0.53878 -3.1463,1.61505 -0.6903,1.0702 -1.0336,2.61676 -1.0336,4.64162 0,2.06743 0.3433,3.6446 1.0336,4.72696 0.4827,0.75704 1.1281,1.24786 1.9362,1.47476 0,0 0.1641,-0.009 0.1775,0.16839 0.2781,2.28494 1.6909,2.28942 3.3013,2.28942 0,0 0.2081,0 0.2081,-0.21009 l 0,-1.26052 c 0,-0.21009 -0.2081,-0.21009 -0.2081,-0.21009 -0.8046,0 -1.0131,0.0535 -1.2286,-0.76156 0.2725,-0.0682 0.5256,-0.1611 0.7606,-0.28231 0.5304,-0.27971 0.968,-0.68603 1.3131,-1.22113 0.3451,-0.54118 0.6009,-1.20534 0.7671,-1.99583 0.1725,-0.79049 0.26,-1.69645 0.26,-2.718 0,-2.04919 -0.3501,-3.60327 -1.0531,-4.66132 -0.703,-1.06411 -1.733,-1.59534 -3.0878,-1.59535 z m -0.013,1.02418 c 0.2947,1e-5 0.5204,0.10486 0.7086,0.32169 0.111,0.12333 0.2086,0.28547 0.299,0.47926 0.051,0.14276 0.102,0.29418 0.143,0.46614 0.1106,0.46412 0.189,1.02692 0.234,1.69382 0.045,0.66583 0.065,1.4245 0.065,2.27158 0,0.85315 -0.02,1.61994 -0.065,2.29782 -0.045,0.67294 -0.1236,1.24419 -0.234,1.72009 -0.042,0.1767 -0.09,0.33759 -0.143,0.48583 -0.01,0.0192 -0.017,0.0405 -0.026,0.0591 -0.083,0.17202 -0.1733,0.31682 -0.273,0.4333 -0.1889,0.22873 -0.4152,0.33483 -0.7086,0.33483 -0.2934,0 -0.5198,-0.1061 -0.7086,-0.33483 -0.1846,-0.23229 -0.3366,-0.57158 -0.4485,-1.02417 -0.1124,-0.46008 -0.1886,-1.02271 -0.2341,-1.68727 -0.046,-0.67195 -0.072,-1.4353 -0.072,-2.28469 0,-0.8433 0.026,-1.59217 0.072,-2.25188 0.045,-0.6584 0.1219,-1.21345 0.2341,-1.661 0.1118,-0.44624 0.2652,-0.77851 0.4485,-0.99792 0.1882,-0.21683 0.4139,-0.32168 0.7086,-0.32169 z"
           id="path4524"
           inkscape:connector-curvature="0"
           sodipodi:nodetypes="ccsscccsscccccccccccccccccccccccscscc" />
      </g>
      <g
         transform="matrix(0.80449542,0,0,0.80449544,79.1895,59.045415)"
         id="g4526"
         style="opacity:0.2;fill:#000000;fill-opacity:1;display:inline;enable-background:new">
        <path
           sodipodi:nodetypes="cccccccccccccccsc"
           d="m 431.2892,115.21118 c 0,-1.05044 0,-4.41183 0,-4.41183 l -0.8321,0 0,-1.47062 c 1.2481,0 0.8321,0 1.4562,-2.52104 l 1.6641,0 0,2.52104 1.6642,0 0,1.47062 -1.6642,0 0,3.78157 c 0,0.39118 0.08,0.68607 0.2414,0.88466 0.1609,0.1986 0.3724,0.2979 0.6346,0.2979 0.3335,0.0329 0.7882,-0.13213 0.7882,-0.13213 l 0,1.47062 c -0.042,0.0301 -2.05,0.64853 -3.1203,0 -1.0401,-0.63027 -0.8321,-1.89079 -0.8321,-1.89079 z"
           style="font-size:88px;font-style:normal;font-variant:normal;font-weight:bold;font-stretch:normal;line-height:125%;letter-spacing:0px;word-spacing:0px;fill:#000000;fill-opacity:1;stroke:none;display:inline;enable-background:new;font-family:Liberation Serif;-inkscape-font-specification:Liberation Serif Bold"
           id="path4528"
           inkscape:connector-curvature="0" />
        <path
           sodipodi:nodetypes="ccsscccsscccccccccccccccccccccccscscc"
           inkscape:connector-curvature="0"
           id="path4530"
           d="m 425.4841,104.9169 c -1.406,1e-5 -2.4561,0.53878 -3.1463,1.61505 -0.6903,1.0702 -1.0336,2.61676 -1.0336,4.64162 0,2.06743 0.3433,3.6446 1.0336,4.72696 0.4827,0.75704 1.1281,1.24786 1.9362,1.47476 0,0 0.1641,-0.009 0.1775,0.16839 0.2781,2.28494 1.6909,2.28942 3.3013,2.28942 0,0 0.2081,0 0.2081,-0.21009 l 0,-1.26052 c 0,-0.21009 -0.2081,-0.21009 -0.2081,-0.21009 -0.8046,0 -1.0131,0.0535 -1.2286,-0.76156 0.2725,-0.0682 0.5256,-0.1611 0.7606,-0.28231 0.5304,-0.27971 0.968,-0.68603 1.3131,-1.22113 0.3451,-0.54118 0.6009,-1.20534 0.7671,-1.99583 0.1725,-0.79049 0.26,-1.69645 0.26,-2.718 0,-2.04919 -0.3501,-3.60327 -1.0531,-4.66132 -0.703,-1.06411 -1.733,-1.59534 -3.0878,-1.59535 z m -0.013,1.02418 c 0.2947,1e-5 0.5204,0.10486 0.7086,0.32169 0.111,0.12333 0.2086,0.28547 0.299,0.47926 0.051,0.14276 0.102,0.29418 0.143,0.46614 0.1106,0.46412 0.189,1.02692 0.234,1.69382 0.045,0.66583 0.065,1.4245 0.065,2.27158 0,0.85315 -0.02,1.61994 -0.065,2.29782 -0.045,0.67294 -0.1236,1.24419 -0.234,1.72009 -0.042,0.1767 -0.09,0.33759 -0.143,0.48583 -0.01,0.0192 -0.017,0.0405 -0.026,0.0591 -0.083,0.17202 -0.1733,0.31682 -0.273,0.4333 -0.1889,0.22873 -0.4152,0.33483 -0.7086,0.33483 -0.2934,0 -0.5198,-0.1061 -0.7086,-0.33483 -0.1846,-0.23229 -0.3366,-0.57158 -0.4485,-1.02417 -0.1124,-0.46008 -0.1886,-1.02271 -0.2341,-1.68727 -0.046,-0.67195 -0.072,-1.4353 -0.072,-2.28469 0,-0.8433 0.026,-1.59217 0.072,-2.25188 0.045,-0.6584 0.1219,-1.21345 0.2341,-1.661 0.1118,-0.44624 0.2652,-0.77851 0.4485,-0.99792 0.1882,-0.21683 0.4139,-0.32168 0.7086,-0.32169 z"
           style="font-size:88px;font-style:normal;font-variant:normal;font-weight:bold;font-stretch:normal;line-height:125%;letter-spacing:0px;word-spacing:0px;fill:#000000;fill-opacity:1;stroke:none;display:inline;enable-background:new;font-family:Liberation Serif;-inkscape-font-specification:Liberation Serif Bold" />
      </g>
      <g
         transform="matrix(1.0000012,0,0,1.0000012,6.9509301,-21.324344)"
         id="g4290"
         style="display:inline;enable-background:new">
        <path
           inkscape:connector-curvature="0"
           id="path4292"
           style="font-size:88px;font-style:normal;font-variant:normal;font-weight:bold;font-stretch:normal;line-height:125%;letter-spacing:0px;word-spacing:0px;fill:#ffffff;fill-opacity:1;stroke:none;display:inline;enable-background:new;font-family:Liberation Serif;-inkscape-font-specification:Liberation Serif Bold"
           d="m 169.20081,209.42257 c 0,-11.26761 0.0413,-47.09858 0.0413,-47.09858 l -9.02067,0 -0.0413,-16 c 13.53105,0 9.02067,0 15.78615,-27.04226 l 18.04143,0 0,27.04226 18.04134,0 0.0413,16 -18.04134,0 -0.0413,40.33802 c -9e-5,4.19604 0.87209,7.35917 2.61636,9.48944 1.74417,2.13027 4.03748,3.19542 6.87999,3.19541 3.61519,0.35253 8.54499,-1.41725 8.54499,-1.41725 l 0,15.77465 c -0.45223,0.32276 -22.2248,6.95655 -33.82758,0 -11.27586,-6.76057 -9.02067,-20.28169 -9.02067,-20.28169 z"
           sodipodi:nodetypes="cccccccccccccccsc" />
        <path
           style="font-size:88px;font-style:normal;font-variant:normal;font-weight:bold;font-stretch:normal;line-height:125%;letter-spacing:0px;word-spacing:0px;fill:#ffffff;fill-opacity:1;stroke:none;display:inline;enable-background:new;font-family:Liberation Serif;-inkscape-font-specification:Liberation Serif Bold"
           d="m 106.26735,99.00004 c -15.242325,1.35e-4 -26.626859,5.77924 -34.109462,17.32394 -7.482603,11.47969 -11.205388,28.06893 -11.205388,49.78874 0,22.1765 3.722875,39.09419 11.205388,50.7042 5.233615,8.12051 12.229927,13.38529 20.990372,15.81921 0,0 1.779864,-0.0942 1.924673,1.8062 3.01501,24.50967 18.330777,24.55771 35.789917,24.55771 0,0 2.25519,0 2.25519,-2.25353 l 0,-13.52113 c 0,-2.25351 -2.25519,-2.25351 -2.25519,-2.25351 -8.72305,0 -10.98373,0.57341 -13.31955,-8.16901 2.95452,-0.73167 5.69816,-1.72805 8.24548,-3.02819 5.75038,-3.00032 10.49438,-7.35877 14.23577,-13.09858 3.74121,-5.80501 6.51443,-12.92919 8.31595,-21.40845 1.87047,-8.47921 2.81888,-18.1971 2.81888,-29.15492 0,-21.98072 -3.79569,-38.65076 -11.41672,-50.00002 -7.6213,-11.41424 -18.78722,-17.112534 -33.47531,-17.11266 z m -0.14094,10.98592 c 3.19506,1.3e-4 5.64153,1.12482 7.68171,3.45069 1.20323,1.3229 2.26139,3.06215 3.24179,5.14086 0.55407,1.53126 1.10634,3.15551 1.55047,5 1.19856,4.97844 2.04899,11.01535 2.53708,18.169 0.4871,7.14201 0.70463,15.27994 0.70472,24.36621 -9e-5,9.15146 -0.21771,17.37647 -0.70472,24.64787 -0.488,7.21831 -1.33995,13.34585 -2.53708,18.45072 -0.45033,1.89531 -0.97887,3.62108 -1.55047,5.21126 -0.0943,0.20575 -0.18526,0.43498 -0.28189,0.6338 -0.8968,1.84518 -1.87883,3.39837 -2.9599,4.64789 -2.0471,2.45351 -4.50086,3.59157 -7.68171,3.59155 -3.18094,2e-5 -5.63469,-1.13806 -7.681613,-3.59155 -2.001977,-2.4917 -3.648808,-6.13111 -4.86274,-10.98592 -1.218066,-4.93507 -2.044493,-10.97018 -2.537077,-18.09859 -0.493663,-7.20774 -0.775281,-15.39588 -0.775191,-24.50703 -9e-5,-9.04567 0.281618,-17.07851 0.775191,-24.15493 0.492494,-7.06235 1.320629,-13.01621 2.537077,-17.8169 1.212854,-4.78662 2.874965,-8.35077 4.86274,-10.70424 2.040093,-2.32585 4.486563,-3.45057 7.681613,-3.45069 z"
           id="path4294-1"
           inkscape:connector-curvature="0"
           sodipodi:nodetypes="ccsscccsscccccccccccccccccccccccscscc" />
      </g>
      <g
         id="g4296"
         transform="matrix(0.37500046,0,0,0.37500047,284.4664,9.1281856)"
         style="display:inline;enable-background:new">
        <path
           sodipodi:nodetypes="cccccccccccccccsc"
           d="m 169.38241,209.42257 c 0,-11.26761 0.0413,-47.09858 0.0413,-47.09858 l -9.20227,0 -0.0413,-16 c 13.53105,0 9.02067,0.37559 15.78615,-26.66667 l 17.45742,0 0,26.66667 18.62535,0 0.0413,16 -18.62535,0 -0.0413,40.33802 c -9e-5,4.19604 0.87209,7.35917 2.61636,9.48944 1.74417,2.13027 4.03748,3.19542 6.87999,3.19541 3.61519,0.35253 9.129,-1.41725 9.129,-1.41725 l 0,15.77465 c -0.45223,0.32276 -22.2248,6.95655 -33.82758,0 -11.27586,-6.76057 -8.83907,-20.28169 -8.83907,-20.28169 z"
           style="font-size:88px;font-style:normal;font-variant:normal;font-weight:bold;font-stretch:normal;line-height:125%;letter-spacing:0px;word-spacing:0px;fill:#ffffff;fill-opacity:1;stroke:none;display:inline;enable-background:new;font-family:Liberation Serif;-inkscape-font-specification:Liberation Serif Bold"
           id="path4298-8"
           inkscape:connector-curvature="0" />
        <path
           sodipodi:nodetypes="ccsscccsscccccccccccccccccccccccscscc"
           inkscape:connector-curvature="0"
           id="path4300-8"
           d="m 106.26735,99.00004 c -15.242325,1.35e-4 -26.626859,5.77924 -34.109462,17.32394 -7.482603,11.47969 -11.205388,28.06893 -11.205388,49.78874 0,22.1765 3.722875,39.09419 11.205388,50.7042 5.233615,8.12051 12.229927,13.38529 20.990372,15.81921 0,0 1.779864,-0.0942 1.924673,1.8062 3.01501,24.50967 18.330777,24.55771 35.789917,24.55771 0,0 2.25519,0 2.25519,-2.25353 l 0,-13.52113 c 0,-2.25351 -2.25519,-2.25351 -2.25519,-2.25351 -8.72305,0 -10.98373,0.57341 -13.31955,-8.16901 2.95452,-0.73167 5.69816,-1.72805 8.24548,-3.02819 5.75038,-3.00032 10.49438,-7.35877 14.23577,-13.09858 3.74121,-5.80501 6.51443,-12.92919 8.31595,-21.40845 1.87047,-8.47921 2.81888,-18.1971 2.81888,-29.15492 0,-21.98072 -3.79569,-38.65076 -11.41672,-50.00002 -7.6213,-11.41424 -18.78722,-17.112534 -33.47531,-17.11266 z m -0.14094,10.98592 c 3.19506,1.3e-4 5.64153,1.12482 7.68171,3.45069 1.20323,1.3229 2.26139,3.06215 3.24179,5.14086 0.55407,1.53126 1.10634,3.15551 1.55047,5 1.19856,4.97844 2.04899,11.01535 2.53708,18.169 0.4871,7.14201 0.70463,15.27994 0.70472,24.36621 -9e-5,9.15146 -0.21771,17.37647 -0.70472,24.64787 -0.488,7.21831 -1.33995,13.34585 -2.53708,18.45072 -0.45033,1.89531 -0.97887,3.62108 -1.55047,5.21126 -0.0943,0.20575 -0.18526,0.43498 -0.28189,0.6338 -0.8968,1.84518 -1.87883,3.39837 -2.9599,4.64789 -2.0471,2.45351 -4.50086,3.59157 -7.68171,3.59155 -3.18094,2e-5 -5.63469,-1.13806 -7.681613,-3.59155 -2.001977,-2.4917 -3.648808,-6.13111 -4.86274,-10.98592 -1.218066,-4.93507 -2.044493,-10.97018 -2.537077,-18.09859 -0.493663,-7.20774 -0.775281,-15.39588 -0.775191,-24.50703 -9e-5,-9.04567 0.281618,-17.07851 0.775191,-24.15493 0.492494,-7.06235 1.320629,-13.01621 2.537077,-17.8169 1.212854,-4.78662 2.874965,-8.35077 4.86274,-10.70424 2.040093,-2.32585 4.486563,-3.45057 7.681613,-3.45069 z"
           style="font-size:88px;font-style:normal;font-variant:normal;font-weight:bold;font-stretch:normal;line-height:125%;letter-spacing:0px;word-spacing:0px;fill:#ffffff;fill-opacity:1;stroke:none;display:inline;enable-background:new;font-family:Liberation Serif;-inkscape-font-specification:Liberation Serif Bold" />
      </g>
      <g
         style="display:inline;enable-background:new"
         transform="matrix(0.2500003,0,0,0.2500003,285.8699,127.24982)"
         id="g4302">
        <path
           inkscape:connector-curvature="0"
           id="path4304-6"
           style="font-size:88px;font-style:normal;font-variant:normal;font-weight:bold;font-stretch:normal;line-height:125%;letter-spacing:0px;word-spacing:0px;fill:#ffffff;fill-opacity:1;stroke:none;display:inline;enable-background:new;font-family:Liberation Serif;-inkscape-font-specification:Liberation Serif Bold"
           d="m 169.38241,209.42257 c 0,-11.26761 0.0413,-47.09858 0.0413,-47.09858 l -9.20227,0 -0.0413,-16 c 13.53105,0 9.02067,0.37559 15.78615,-26.66667 l 17.45742,0 0,26.66667 18.62535,0 0.0413,16 -18.62535,0 -0.0413,40.33802 c -9e-5,4.19604 0.87209,7.35917 2.61636,9.48944 1.74417,2.13027 4.03748,3.19542 6.87999,3.19541 3.61519,0.35253 9.129,-1.41725 9.129,-1.41725 l 0,15.77465 c -0.45223,0.32276 -22.2248,6.95655 -33.82758,0 -11.27586,-6.76057 -8.83907,-20.28169 -8.83907,-20.28169 z"
           sodipodi:nodetypes="cccccccccccccccsc" />
        <path
           style="font-size:88px;font-style:normal;font-variant:normal;font-weight:bold;font-stretch:normal;line-height:125%;letter-spacing:0px;word-spacing:0px;fill:#ffffff;fill-opacity:1;stroke:none;display:inline;enable-background:new;font-family:Liberation Serif;-inkscape-font-specification:Liberation Serif Bold"
           d="m 106.26735,99.00004 c -15.242325,1.35e-4 -26.626859,5.77924 -34.109462,17.32394 -7.482603,11.47969 -11.205388,28.06893 -11.205388,49.78874 0,22.1765 3.722875,39.09419 11.205388,50.7042 5.233615,8.12051 12.229927,13.38529 20.990372,15.81921 0,0 1.779864,-0.0942 1.924673,1.8062 3.01501,24.50967 18.330777,24.55771 35.789917,24.55771 0,0 2.25519,0 2.25519,-2.25353 l 0,-13.52113 c 0,-2.25351 -2.25519,-2.25351 -2.25519,-2.25351 -8.72305,0 -10.98373,0.57341 -13.31955,-8.16901 2.95452,-0.73167 5.69816,-1.72805 8.24548,-3.02819 5.75038,-3.00032 10.49438,-7.35877 14.23577,-13.09858 3.74121,-5.80501 6.51443,-12.92919 8.31595,-21.40845 1.87047,-8.47921 2.81888,-18.1971 2.81888,-29.15492 0,-21.98072 -3.79569,-38.65076 -11.41672,-50.00002 -7.6213,-11.41424 -18.78722,-17.112534 -33.47531,-17.11266 z m -0.14094,10.98592 c 3.19506,1.3e-4 5.64153,1.12482 7.68171,3.45069 1.20323,1.3229 2.26139,3.06215 3.24179,5.14086 0.55407,1.53126 1.10634,3.15551 1.55047,5 1.19856,4.97844 2.04899,11.01535 2.53708,18.169 0.4871,7.14201 0.70463,15.27994 0.70472,24.36621 -9e-5,9.15146 -0.21771,17.37647 -0.70472,24.64787 -0.488,7.21831 -1.33995,13.34585 -2.53708,18.45072 -0.45033,1.89531 -0.97887,3.62108 -1.55047,5.21126 -0.0943,0.20575 -0.18526,0.43498 -0.28189,0.6338 -0.8968,1.84518 -1.87883,3.39837 -2.9599,4.64789 -2.0471,2.45351 -4.50086,3.59157 -7.68171,3.59155 -3.18094,2e-5 -5.63469,-1.13806 -7.681613,-3.59155 -2.001977,-2.4917 -3.648808,-6.13111 -4.86274,-10.98592 -1.218066,-4.93507 -2.044493,-10.97018 -2.537077,-18.09859 -0.493663,-7.20774 -0.775281,-15.39588 -0.775191,-24.50703 -9e-5,-9.04567 0.281618,-17.07851 0.775191,-24.15493 0.492494,-7.06235 1.320629,-13.01621 2.537077,-17.8169 1.212854,-4.78662 2.874965,-8.35077 4.86274,-10.70424 2.040093,-2.32585 4.486563,-3.45057 7.681613,-3.45069 z"
           id="path4306"
           inkscape:connector-curvature="0"
           sodipodi:nodetypes="ccsscccsscccccccccccccccccccccccscscc" />
      </g>
      <g
         id="g4308"
         transform="matrix(0.17500021,0,0,0.17500021,288.109,212.67491)"
         style="display:inline;enable-background:new">
        <path
           sodipodi:nodetypes="cccccccccccccccsc"
           d="m 169.38241,209.42257 c 0,-11.26761 0.0413,-47.09858 0.0413,-47.09858 l -9.20227,0 -0.0413,-16 c 13.53105,0 9.02067,0.37559 15.78615,-26.66667 l 17.45742,0 0,26.66667 18.62535,0 0.0413,16 -18.62535,0 -0.0413,40.33802 c -9e-5,4.19604 0.87209,7.35917 2.61636,9.48944 1.74417,2.13027 4.03748,3.19542 6.87999,3.19541 3.61519,0.35253 9.129,-1.41725 9.129,-1.41725 l 0,15.77465 c -0.45223,0.32276 -22.2248,6.95655 -33.82758,0 -11.27586,-6.76057 -8.83907,-20.28169 -8.83907,-20.28169 z"
           style="font-size:88px;font-style:normal;font-variant:normal;font-weight:bold;font-stretch:normal;line-height:125%;letter-spacing:0px;word-spacing:0px;fill:#ffffff;fill-opacity:1;stroke:none;display:inline;enable-background:new;font-family:Liberation Serif;-inkscape-font-specification:Liberation Serif Bold"
           id="path4310"
           inkscape:connector-curvature="0" />
        <path
           sodipodi:nodetypes="ccsscccsscccccccccccccccccccccccscscc"
           inkscape:connector-curvature="0"
           id="path4312"
           d="m 106.26735,99.00004 c -15.242325,1.35e-4 -26.626859,5.77924 -34.109462,17.32394 -7.482603,11.47969 -11.205388,28.06893 -11.205388,49.78874 0,22.1765 3.722875,39.09419 11.205388,50.7042 5.233615,8.12051 12.229927,13.38529 20.990372,15.81921 0,0 1.779864,-0.0942 1.924673,1.8062 3.01501,24.50967 18.330777,24.55771 35.789917,24.55771 0,0 2.25519,0 2.25519,-2.25353 l 0,-13.52113 c 0,-2.25351 -2.25519,-2.25351 -2.25519,-2.25351 -8.72305,0 -10.98373,0.57341 -13.31955,-8.16901 2.95452,-0.73167 5.69816,-1.72805 8.24548,-3.02819 5.75038,-3.00032 10.49438,-7.35877 14.23577,-13.09858 3.74121,-5.80501 6.51443,-12.92919 8.31595,-21.40845 1.87047,-8.47921 2.81888,-18.1971 2.81888,-29.15492 0,-21.98072 -3.79569,-38.65076 -11.41672,-50.00002 -7.6213,-11.41424 -18.78722,-17.112534 -33.47531,-17.11266 z m -0.14094,10.98592 c 3.19506,1.3e-4 5.64153,1.12482 7.68171,3.45069 1.20323,1.3229 2.26139,3.06215 3.24179,5.14086 0.55407,1.53126 1.10634,3.15551 1.55047,5 1.19856,4.97844 2.04899,11.01535 2.53708,18.169 0.4871,7.14201 0.70463,15.27994 0.70472,24.36621 -9e-5,9.15146 -0.21771,17.37647 -0.70472,24.64787 -0.488,7.21831 -1.33995,13.34585 -2.53708,18.45072 -0.45033,1.89531 -0.97887,3.62108 -1.55047,5.21126 -0.0943,0.20575 -0.18526,0.43498 -0.28189,0.6338 -0.8968,1.84518 -1.87883,3.39837 -2.9599,4.64789 -2.0471,2.45351 -4.50086,3.59157 -7.68171,3.59155 -3.18094,2e-5 -5.63469,-1.13806 -7.681613,-3.59155 -2.001977,-2.4917 -3.648808,-6.13111 -4.86274,-10.98592 -1.218066,-4.93507 -2.044493,-10.97018 -2.537077,-18.09859 -0.493663,-7.20774 -0.775281,-15.39588 -0.775191,-24.50703 -9e-5,-9.04567 0.281618,-17.07851 0.775191,-24.15493 0.492494,-7.06235 1.320629,-13.01621 2.537077,-17.8169 1.212854,-4.78662 2.874965,-8.35077 4.86274,-10.70424 2.040093,-2.32585 4.486563,-3.45057 7.681613,-3.45069 z"
           style="font-size:88px;font-style:normal;font-variant:normal;font-weight:bold;font-stretch:normal;line-height:125%;letter-spacing:0px;word-spacing:0px;fill:#ffffff;fill-opacity:1;stroke:none;display:inline;enable-background:new;font-family:Liberation Serif;-inkscape-font-specification:Liberation Serif Bold" />
      </g>
      <g
         style="display:inline;enable-background:new"
         transform="matrix(0.12500015,0,0,0.12500015,414.9353,45.624725)"
         id="g4314">
        <path
           inkscape:connector-curvature="0"
           id="path4316"
           style="font-size:88px;font-style:normal;font-variant:normal;font-weight:bold;font-stretch:normal;line-height:125%;letter-spacing:0px;word-spacing:0px;fill:#ffffff;fill-opacity:1;stroke:none;display:inline;enable-background:new;font-family:Liberation Serif;-inkscape-font-specification:Liberation Serif Bold"
           d="m 168.43884,210.09862 c 0,-11.26761 0.0413,-47.09858 0.0413,-47.09858 l -9.20227,0 -0.0413,-16 c 13.53105,0 9.02067,0.37559 15.78615,-26.66667 l 17.45742,0 0,26.66667 16.0413,0 0.0413,16 -16.0413,0 -0.0413,40.33802 c -9e-5,4.19604 0.87209,7.35917 2.61636,9.48944 1.74417,2.13027 4.03748,3.19542 6.87999,3.19541 3.61519,0.35253 6.54495,-1.41725 6.54495,-1.41725 l 0,15.77465 c -0.45223,0.32276 -19.64075,6.95655 -31.24353,0 -11.27586,-6.76057 -8.83907,-20.28169 -8.83907,-20.28169 z"
           sodipodi:nodetypes="cccccccccccccccsc" />
        <path
           style="font-size:88px;font-style:normal;font-variant:normal;font-weight:bold;font-stretch:normal;line-height:125%;letter-spacing:0px;word-spacing:0px;fill:#ffffff;fill-opacity:1;stroke:none;display:inline;enable-background:new;font-family:Liberation Serif;-inkscape-font-specification:Liberation Serif Bold"
           d="m 106.26735,99.00004 c -15.242325,1.35e-4 -26.626859,5.77924 -34.109462,17.32394 -7.482603,11.47969 -11.205388,28.06893 -11.205388,49.78874 0,22.1765 3.722875,39.09419 11.205388,50.7042 5.233615,8.12051 12.229927,13.38529 20.990372,15.81921 0,0 1.779864,-0.0942 1.924673,1.8062 3.01501,24.50967 18.330777,24.55771 35.789917,24.55771 0,0 2.25519,0 2.25519,-2.25353 l 0,-13.52113 c 0,-2.25351 -2.25519,-2.25351 -2.25519,-2.25351 -8.72305,0 -10.98373,0.57341 -13.31955,-8.16901 2.95452,-0.73167 5.69816,-1.72805 8.24548,-3.02819 5.75038,-3.00032 10.49438,-7.35877 14.23577,-13.09858 3.74121,-5.80501 6.51443,-12.92919 8.31595,-21.40845 1.87047,-8.47921 2.81888,-18.1971 2.81888,-29.15492 0,-21.98072 -3.79569,-38.65076 -11.41672,-50.00002 -7.6213,-11.41424 -18.78722,-17.112534 -33.47531,-17.11266 z m -0.14094,10.98592 c 3.19506,1.3e-4 5.64153,1.12482 7.68171,3.45069 1.20323,1.3229 2.26139,3.06215 3.24179,5.14086 0.55407,1.53126 1.10634,3.15551 1.55047,5 1.19856,4.97844 2.04899,11.01535 2.53708,18.169 0.4871,7.14201 0.70463,15.27994 0.70472,24.36621 -9e-5,9.15146 -0.21771,17.37647 -0.70472,24.64787 -0.488,7.21831 -1.33995,13.34585 -2.53708,18.45072 -0.45033,1.89531 -0.97887,3.62108 -1.55047,5.21126 -0.0943,0.20575 -0.18526,0.43498 -0.28189,0.6338 -0.8968,1.84518 -1.87883,3.39837 -2.9599,4.64789 -2.0471,2.45351 -4.50086,3.59157 -7.68171,3.59155 -3.18094,2e-5 -5.63469,-1.13806 -7.681613,-3.59155 -2.001977,-2.4917 -3.648808,-6.13111 -4.86274,-10.98592 -1.218066,-4.93507 -2.044493,-10.97018 -2.537077,-18.09859 -0.493663,-7.20774 -0.775281,-15.39588 -0.775191,-24.50703 -9e-5,-9.04567 0.281618,-17.07851 0.775191,-24.15493 0.492494,-7.06235 1.320629,-13.01621 2.537077,-17.8169 1.212854,-4.78662 2.874965,-8.35077 4.86274,-10.70424 2.040093,-2.32585 4.486563,-3.45057 7.681613,-3.45069 z"
           id="path4318"
           inkscape:connector-curvature="0"
           sodipodi:nodetypes="ccsscccsscccccccccccccccccccccccscscc" />
      </g>
      <g
         style="display:inline;enable-background:new"
         transform="matrix(1.0000012,0,0,1.0000012,-0.24161989,-0.32905439)"
         id="g4320">
        <path
           sodipodi:nodetypes="cccccccccccccccsc"
           d="m 431.2892,115.21118 c 0,-1.05044 0,-4.41183 0,-4.41183 l -0.8321,0 0,-1.47062 c 1.2481,0 0.8321,0 1.4562,-2.52104 l 1.6641,0 0,2.52104 1.6642,0 0,1.47062 -1.6642,0 0,3.78157 c 0,0.39118 0.08,0.68607 0.2414,0.88466 0.1609,0.1986 0.3724,0.2979 0.6346,0.2979 0.3335,0.0329 0.7882,-0.13213 0.7882,-0.13213 l 0,1.47062 c -0.042,0.0301 -2.05,0.64853 -3.1203,0 -1.0401,-0.63027 -0.8321,-1.89079 -0.8321,-1.89079 z"
           style="font-size:88px;font-style:normal;font-variant:normal;font-weight:bold;font-stretch:normal;line-height:125%;letter-spacing:0px;word-spacing:0px;fill:#ffffff;fill-opacity:1;stroke:none;display:inline;enable-background:new;font-family:Liberation Serif;-inkscape-font-specification:Liberation Serif Bold"
           id="path4322"
           inkscape:connector-curvature="0" />
        <path
           sodipodi:nodetypes="ccsscccsscccccccccccccccccccccccscscc"
           inkscape:connector-curvature="0"
           id="path4324"
           d="m 425.4841,104.9169 c -1.406,1e-5 -2.4561,0.53878 -3.1463,1.61505 -0.6903,1.0702 -1.0336,2.61676 -1.0336,4.64162 0,2.06743 0.3433,3.6446 1.0336,4.72696 0.4827,0.75704 1.1281,1.24786 1.9362,1.47476 0,0 0.1641,-0.009 0.1775,0.16839 0.2781,2.28494 1.6909,2.28942 3.3013,2.28942 0,0 0.2081,0 0.2081,-0.21009 l 0,-1.26052 c 0,-0.21009 -0.2081,-0.21009 -0.2081,-0.21009 -0.8046,0 -1.0131,0.0535 -1.2286,-0.76156 0.2725,-0.0682 0.5256,-0.1611 0.7606,-0.28231 0.5304,-0.27971 0.968,-0.68603 1.3131,-1.22113 0.3451,-0.54118 0.6009,-1.20534 0.7671,-1.99583 0.1725,-0.79049 0.26,-1.69645 0.26,-2.718 0,-2.04919 -0.3501,-3.60327 -1.0531,-4.66132 -0.703,-1.06411 -1.733,-1.59534 -3.0878,-1.59535 z m -0.013,1.02418 c 0.2947,1e-5 0.5204,0.10486 0.7086,0.32169 0.111,0.12333 0.2086,0.28547 0.299,0.47926 0.051,0.14276 0.102,0.29418 0.143,0.46614 0.1106,0.46412 0.189,1.02692 0.234,1.69382 0.045,0.66583 0.065,1.4245 0.065,2.27158 0,0.85315 -0.02,1.61994 -0.065,2.29782 -0.045,0.67294 -0.1236,1.24419 -0.234,1.72009 -0.042,0.1767 -0.09,0.33759 -0.143,0.48583 -0.01,0.0192 -0.017,0.0405 -0.026,0.0591 -0.083,0.17202 -0.1733,0.31682 -0.273,0.4333 -0.1889,0.22873 -0.4152,0.33483 -0.7086,0.33483 -0.2934,0 -0.5198,-0.1061 -0.7086,-0.33483 -0.1846,-0.23229 -0.3366,-0.57158 -0.4485,-1.02417 -0.1124,-0.46008 -0.1886,-1.02271 -0.2341,-1.68727 -0.046,-0.67195 -0.072,-1.4353 -0.072,-2.28469 0,-0.8433 0.026,-1.59217 0.072,-2.25188 0.045,-0.6584 0.1219,-1.21345 0.2341,-1.661 0.1118,-0.44624 0.2652,-0.77851 0.4485,-0.99792 0.1882,-0.21683 0.4139,-0.32168 0.7086,-0.32169 z"
           style="font-size:88px;font-style:normal;font-variant:normal;font-weight:bold;font-stretch:normal;line-height:125%;letter-spacing:0px;word-spacing:0px;fill:#ffffff;fill-opacity:1;stroke:none;display:inline;enable-background:new;font-family:Liberation Serif;-inkscape-font-specification:Liberation Serif Bold" />
      </g>
      <g
         style="display:inline;enable-background:new"
         id="g4326"
         transform="matrix(0.80449542,0,0,0.80449544,79.1895,58.045385)">
        <path
           inkscape:connector-curvature="0"
           id="path4328"
           style="font-size:88px;font-style:normal;font-variant:normal;font-weight:bold;font-stretch:normal;line-height:125%;letter-spacing:0px;word-spacing:0px;fill:#ffffff;fill-opacity:1;stroke:none;display:inline;enable-background:new;font-family:Liberation Serif;-inkscape-font-specification:Liberation Serif Bold"
           d="m 431.2892,115.21118 c 0,-1.05044 0,-4.41183 0,-4.41183 l -0.8321,0 0,-1.47062 c 1.2481,0 0.8321,0 1.4562,-2.52104 l 1.6641,0 0,2.52104 1.6642,0 0,1.47062 -1.6642,0 0,3.78157 c 0,0.39118 0.08,0.68607 0.2414,0.88466 0.1609,0.1986 0.3724,0.2979 0.6346,0.2979 0.3335,0.0329 0.7882,-0.13213 0.7882,-0.13213 l 0,1.47062 c -0.042,0.0301 -2.05,0.64853 -3.1203,0 -1.0401,-0.63027 -0.8321,-1.89079 -0.8321,-1.89079 z"
           sodipodi:nodetypes="cccccccccccccccsc" />
        <path
           style="font-size:88px;font-style:normal;font-variant:normal;font-weight:bold;font-stretch:normal;line-height:125%;letter-spacing:0px;word-spacing:0px;fill:#ffffff;fill-opacity:1;stroke:none;display:inline;enable-background:new;font-family:Liberation Serif;-inkscape-font-specification:Liberation Serif Bold"
           d="m 425.4841,104.9169 c -1.406,1e-5 -2.4561,0.53878 -3.1463,1.61505 -0.6903,1.0702 -1.0336,2.61676 -1.0336,4.64162 0,2.06743 0.3433,3.6446 1.0336,4.72696 0.4827,0.75704 1.1281,1.24786 1.9362,1.47476 0,0 0.1641,-0.009 0.1775,0.16839 0.2781,2.28494 1.6909,2.28942 3.3013,2.28942 0,0 0.2081,0 0.2081,-0.21009 l 0,-1.26052 c 0,-0.21009 -0.2081,-0.21009 -0.2081,-0.21009 -0.8046,0 -1.0131,0.0535 -1.2286,-0.76156 0.2725,-0.0682 0.5256,-0.1611 0.7606,-0.28231 0.5304,-0.27971 0.968,-0.68603 1.3131,-1.22113 0.3451,-0.54118 0.6009,-1.20534 0.7671,-1.99583 0.1725,-0.79049 0.26,-1.69645 0.26,-2.718 0,-2.04919 -0.3501,-3.60327 -1.0531,-4.66132 -0.703,-1.06411 -1.733,-1.59534 -3.0878,-1.59535 z m -0.013,1.02418 c 0.2947,1e-5 0.5204,0.10486 0.7086,0.32169 0.111,0.12333 0.2086,0.28547 0.299,0.47926 0.051,0.14276 0.102,0.29418 0.143,0.46614 0.1106,0.46412 0.189,1.02692 0.234,1.69382 0.045,0.66583 0.065,1.4245 0.065,2.27158 0,0.85315 -0.02,1.61994 -0.065,2.29782 -0.045,0.67294 -0.1236,1.24419 -0.234,1.72009 -0.042,0.1767 -0.09,0.33759 -0.143,0.48583 -0.01,0.0192 -0.017,0.0405 -0.026,0.0591 -0.083,0.17202 -0.1733,0.31682 -0.273,0.4333 -0.1889,0.22873 -0.4152,0.33483 -0.7086,0.33483 -0.2934,0 -0.5198,-0.1061 -0.7086,-0.33483 -0.1846,-0.23229 -0.3366,-0.57158 -0.4485,-1.02417 -0.1124,-0.46008 -0.1886,-1.02271 -0.2341,-1.68727 -0.046,-0.67195 -0.072,-1.4353 -0.072,-2.28469 0,-0.8433 0.026,-1.59217 0.072,-2.25188 0.045,-0.6584 0.1219,-1.21345 0.2341,-1.661 0.1118,-0.44624 0.2652,-0.77851 0.4485,-0.99792 0.1882,-0.21683 0.4139,-0.32168 0.7086,-0.32169 z"
           id="path4330"
           inkscape:connector-curvature="0"
           sodipodi:nodetypes="ccsscccsscccccccccccccccccccccccscscc" />
      </g>
    </g>
    <g
       inkscape:groupmode="layer"
       id="layer5"
       inkscape:label="Highlights"
       style="display:inline"
       sodipodi:insensitive="true">
      <path
         style="opacity:0.12999998;color:#bebebe;fill:#ffffff;fill-opacity:1;fill-rule:nonzero;stroke:none;stroke-width:0;marker:none;visibility:visible;display:inline;overflow:visible;enable-background:accumulate"
         d="M 84,47 C 56.836703,47 35,68.836703 35,96 l 0,1 C 35,69.836703 56.836703,48 84,48 l 120,0 c 27.1633,0 49,21.836703 49,49 l 0,-1 C 253,68.836703 231.1633,47 204,47 L 84,47 z"
         id="rect3894"
         inkscape:connector-curvature="0" />
      <path
         style="opacity:0.12999998;color:#bebebe;fill:#ffffff;fill-opacity:1;fill-rule:nonzero;stroke:none;stroke-width:0;marker:none;visibility:visible;display:inline;overflow:visible;enable-background:accumulate"
         d="m 419,141 c -1.1253,0 -2,0.8747 -2,2 l 0,1 c 0,-1.1253 0.8747,-2 2,-2 l 10,0 c 1.1253,0 2,0.8747 2,2 l 0,-1 c 0,-1.1253 -0.8747,-2 -2,-2 l -10,0 z"
         id="rect3896"
         inkscape:connector-curvature="0" />
      <path
         style="opacity:0.12999998;color:#bebebe;fill:#ffffff;fill-opacity:1;fill-rule:nonzero;stroke:none;stroke-width:0;marker:none;visibility:visible;display:inline;overflow:visible;enable-background:accumulate"
         d="m 422,102 c -2.2333,0 -4,1.7667 -4,4 l 0,1 c 0,-2.2333 1.7667,-4 4,-4 l 12,0 c 2.2333,0 4,1.7667 4,4 l 0,-1 c 0,-2.2333 -1.7667,-4 -4,-4 l -12,0 z"
         id="rect3898"
         inkscape:connector-curvature="0" />
      <path
         style="opacity:0.12999998;color:#bebebe;fill:#ffffff;fill-opacity:1;fill-rule:nonzero;stroke:none;stroke-width:0;marker:none;visibility:visible;display:inline;overflow:visible;enable-background:accumulate"
         d="m 424,54 c -3.3413,0 -6,2.658703 -6,6 l 0,1 c 0,-3.341297 2.6587,-6 6,-6 l 16,0 c 3.3413,0 6,2.658703 6,6 l 0,-1 c 0,-3.341297 -2.6587,-6 -6,-6 l -16,0 z"
         id="rect3900"
         inkscape:connector-curvature="0" />
      <path
         style="opacity:0.12999998;color:#bebebe;fill:#ffffff;fill-opacity:1;fill-rule:nonzero;stroke:none;stroke-width:0;marker:none;visibility:visible;display:inline;overflow:visible;enable-background:accumulate"
         d="m 300,224 c -4.4493,0 -8,3.5507 -8,8 l 0,1 c 0,-4.4493 3.5507,-8 8,-8 l 24,0 c 4.4493,0 8,3.5507 8,8 l 0,-1 c 0,-4.4493 -3.5507,-8 -8,-8 l -24,0 z"
         id="rect3902"
         inkscape:connector-curvature="0" />
      <path
         style="opacity:0.12999998;color:#bebebe;fill:#ffffff;fill-opacity:1;fill-rule:nonzero;stroke:none;stroke-width:0;marker:none;visibility:visible;display:inline;overflow:visible;enable-background:accumulate"
         d="m 310,33 c -9.4353,0 -17,7.564703 -17,17 l 0,1 c 0,-9.435297 7.5647,-17 17,-17 l 52,0 c 9.4353,0 17,7.564703 17,17 l 0,-1 c 0,-9.435297 -7.5647,-17 -17,-17 l -52,0 z"
         id="rect3904"
         inkscape:connector-curvature="0" />
      <path
         style="opacity:0.12999998;color:#bebebe;fill:#ffffff;fill-opacity:1;fill-rule:nonzero;stroke:none;stroke-width:0;marker:none;visibility:visible;display:inline;overflow:visible;enable-background:accumulate"
         d="m 302.5,143 c -6.3883,0 -11.5,5.1117 -11.5,11.5 l 0,1 c 0,-6.3883 5.1117,-11.5 11.5,-11.5 l 35,0 c 6.3883,0 11.5,5.1117 11.5,11.5 l 0,-1 c 0,-6.3883 -5.1117,-11.5 -11.5,-11.5 l -35,0 z"
         id="rect3906"
         inkscape:connector-curvature="0" />
      <path
         id="path4085"
         d="m 204,266 c 27.1633,0 49,-21.8367 49,-49 l 0,-1 c 0,27.1633 -21.8367,49 -49,49 L 84,265 C 56.8367,265 35,243.1633 35,216 l 0,1 c 0,27.1633 21.8367,49 49,49 l 120,0 z"
         style="opacity:0.5;color:#bebebe;fill:#000000;fill-opacity:1;fill-rule:nonzero;stroke:none;stroke-width:0;marker:none;visibility:visible;display:inline;overflow:visible;enable-background:accumulate"
         inkscape:connector-curvature="0" />
      <path
         id="path4087"
         d="m 429,156 c 1.1253,0 2,-0.8747 2,-2 l 0,-1 c 0,1.1253 -0.8747,2 -2,2 l -10,0 c -1.1253,0 -2,-0.8747 -2,-2 l 0,1 c 0,1.1253 0.8747,2 2,2 l 10,0 z"
         style="opacity:0.3;color:#bebebe;fill:#000000;fill-opacity:1;fill-rule:nonzero;stroke:none;stroke-width:0;marker:none;visibility:visible;display:inline;overflow:visible;enable-background:accumulate"
         inkscape:connector-curvature="0" />
      <path
         id="path4089"
         d="m 434,123 c 2.2333,0 4,-1.7667 4,-4 l 0,-1 c 0,2.2333 -1.7667,4 -4,4 l -12,0 c -2.2333,0 -4,-1.7667 -4,-4 l 0,1 c 0,2.2333 1.7667,4 4,4 l 12,0 z"
         style="opacity:0.3;color:#bebebe;fill:#000000;fill-opacity:1;fill-rule:nonzero;stroke:none;stroke-width:0;marker:none;visibility:visible;display:inline;overflow:visible;enable-background:accumulate"
         inkscape:connector-curvature="0" />
      <path
         id="path4091"
         d="m 440,83 c 3.3413,0 6,-2.6587 6,-6 l 0,-1 c 0,3.3413 -2.6587,6 -6,6 l -16,0 c -3.3413,0 -6,-2.6587 -6,-6 l 0,1 c 0,3.3413 2.6587,6 6,6 l 16,0 z"
         style="opacity:0.5;color:#bebebe;fill:#000000;fill-opacity:1;fill-rule:nonzero;stroke:none;stroke-width:0;marker:none;visibility:visible;display:inline;overflow:visible;enable-background:accumulate"
         inkscape:connector-curvature="0" />
      <path
         id="path4093"
         d="m 324,265 c 4.4493,0 8,-3.5507 8,-8 l 0,-1 c 0,4.4493 -3.5507,8 -8,8 l -24,0 c -4.4493,0 -8,-3.5507 -8,-8 l 0,1 c 0,4.4493 3.5507,8 8,8 l 24,0 z"
         style="opacity:0.5;color:#bebebe;fill:#000000;fill-opacity:1;fill-rule:nonzero;stroke:none;stroke-width:0;marker:none;visibility:visible;display:inline;overflow:visible;enable-background:accumulate"
         inkscape:connector-curvature="0" />
      <path
         id="path4095"
         d="m 362,120 c 9.4353,0 17,-7.5647 17,-17 l 0,-1 c 0,9.4353 -7.5647,17 -17,17 l -52,0 c -9.4353,0 -17,-7.5647 -17,-17 l 0,1 c 0,9.4353 7.5647,17 17,17 l 52,0 z"
         style="opacity:0.5;color:#bebebe;fill:#000000;fill-opacity:1;fill-rule:nonzero;stroke:none;stroke-width:0;marker:none;visibility:visible;display:inline;overflow:visible;enable-background:accumulate"
         inkscape:connector-curvature="0" />
      <path
         id="path4097"
         d="m 337.5,202 c 6.3883,0 11.5,-5.1117 11.5,-11.5 l 0,-1 c 0,6.3883 -5.1117,11.5 -11.5,11.5 l -35,0 c -6.3883,0 -11.5,-5.1117 -11.5,-11.5 l 0,1 c 0,6.3883 5.1117,11.5 11.5,11.5 l 35,0 z"
         style="opacity:0.5;color:#bebebe;fill:#000000;fill-opacity:1;fill-rule:nonzero;stroke:none;stroke-width:0;marker:none;visibility:visible;display:inline;overflow:visible;enable-background:accumulate"
         inkscape:connector-curvature="0" />
      <path
         inkscape:connector-curvature="0"
         id="path4280"
         d="M 84,265 C 56.836703,265 35,243.1633 35,216 l 0,-1 c 0,27.1633 21.836703,49 49,49 l 120,0 c 27.1633,0 49,-21.8367 49,-49 l 0,1 c 0,27.1633 -21.8367,49 -49,49 l -120,0 z"
         style="opacity:0.1;color:#bebebe;fill:#ffffff;fill-opacity:1;fill-rule:nonzero;stroke:none;stroke-width:0;marker:none;visibility:visible;display:inline;overflow:visible;enable-background:accumulate" />
      <path
         style="opacity:0.1;color:#bebebe;fill:#ffffff;fill-opacity:1;fill-rule:nonzero;stroke:none;stroke-width:0;marker:none;visibility:visible;display:inline;overflow:visible;enable-background:accumulate"
         d="m 300,264 c -4.4493,0 -8,-3.5507 -8,-8 l 0,-1 c 0,4.4493 3.5507,8 8,8 l 24,0 c 4.4493,0 8,-3.5507 8,-8 l 0,1 c 0,4.4493 -3.5507,8 -8,8 l -24,0 z"
         id="path4294"
         inkscape:connector-curvature="0" />
      <path
         style="opacity:0.1;color:#bebebe;fill:#ffffff;fill-opacity:1;fill-rule:nonzero;stroke:none;stroke-width:0;marker:none;visibility:visible;display:inline;overflow:visible;enable-background:accumulate"
         d="m 302.5,201 c -6.3883,0 -11.5,-5.1117 -11.5,-11.5 l 0,-1 c 0,6.3883 5.1117,11.5 11.5,11.5 l 35,0 c 6.3883,0 11.5,-5.1117 11.5,-11.5 l 0,1 c 0,6.3883 -5.1117,11.5 -11.5,11.5 l -35,0 z"
         id="path4296"
         inkscape:connector-curvature="0" />
      <path
         style="opacity:0.1;color:#bebebe;fill:#ffffff;fill-opacity:1;fill-rule:nonzero;stroke:none;stroke-width:0;marker:none;visibility:visible;display:inline;overflow:visible;enable-background:accumulate"
         d="m 310,119 c -9.4353,0 -17,-7.5647 -17,-17 l 0,-1 c 0,9.4353 7.5647,17 17,17 l 52,0 c 9.4353,0 17,-7.5647 17,-17 l 0,1 c 0,9.4353 -7.5647,17 -17,17 l -52,0 z"
         id="path4298"
         inkscape:connector-curvature="0" />
      <path
         style="opacity:0.1;color:#bebebe;fill:#ffffff;fill-opacity:1;fill-rule:nonzero;stroke:none;stroke-width:0;marker:none;visibility:visible;display:inline;overflow:visible;enable-background:accumulate"
         d="m 424,82 c -3.3413,0 -6,-2.658703 -6,-6 l 0,-1 c 0,3.341297 2.6587,6 6,6 l 16,0 c 3.3413,0 6,-2.658703 6,-6 l 0,1 c 0,3.341297 -2.6587,6 -6,6 l -16,0 z"
         id="path4300"
         inkscape:connector-curvature="0" />
      <path
         style="opacity:0.1;color:#bebebe;fill:#ffffff;fill-opacity:1;fill-rule:nonzero;stroke:none;stroke-width:0;marker:none;visibility:visible;display:inline;overflow:visible;enable-background:accumulate"
         d="m 422,122 c -2.2333,0 -4,-1.7667 -4,-4 l 0,-1 c 0,2.2333 1.7667,4 4,4 l 12,0 c 2.2333,0 4,-1.7667 4,-4 l 0,1 c 0,2.2333 -1.7667,4 -4,4 l -12,0 z"
         id="path4302"
         inkscape:connector-curvature="0" />
      <path
         style="opacity:0.1;color:#bebebe;fill:#ffffff;fill-opacity:1;fill-rule:nonzero;stroke:none;stroke-width:0;marker:none;visibility:visible;display:inline;overflow:visible;enable-background:accumulate"
         d="m 419,154.5 c -1.1253,0 -2,-0.8747 -2,-2 l 0,-1 c 0,1.1253 0.8747,2 2,2 l 10,0 c 1.1253,0 2,-0.8747 2,-2 l 0,1 c 0,1.1253 -0.8747,2 -2,2 l -10,0 z"
         id="path4304"
         inkscape:connector-curvature="0" />
    </g>
    <g
       inkscape:groupmode="layer"
       id="layer3"
       inkscape:label="Border"
       style="display:inline"
       sodipodi:insensitive="true">
      <path
         style="opacity:0.41000001;color:#bebebe;fill:#000000;fill-opacity:1;fill-rule:nonzero;stroke:none;stroke-width:0;marker:none;visibility:visible;display:inline;overflow:visible;enable-background:accumulate"
         d="m 422,101 c -2.77,0 -5,2.23 -5,5 l 0,12 c 0,2.77 2.23,5 5,5 l 12,0 c 2.77,0 5,-2.23 5,-5 l 0,-12 c 0,-2.77 -2.23,-5 -5,-5 l -12,0 z m 0,1 12,0 c 2.2333,0 4,1.7667 4,4 l 0,12 c 0,2.2333 -1.7667,4 -4,4 l -12,0 c -2.2333,0 -4,-1.7667 -4,-4 l 0,-12 c 0,-2.2333 1.7667,-4 4,-4 z"
         id="rect4099"
         inkscape:connector-curvature="0" />
      <path
         style="opacity:0.41000001;color:#bebebe;fill:#000000;fill-opacity:1;fill-rule:nonzero;stroke:none;stroke-width:0;marker:none;visibility:visible;display:inline;overflow:visible;enable-background:accumulate"
         d="m 424,53 c -3.878,0 -7,3.122 -7,7 l 0,16 c 0,3.878 3.122,7 7,7 l 16,0 c 3.878,0 7,-3.122 7,-7 l 0,-16 c 0,-3.878 -3.122,-7 -7,-7 l -16,0 z m 0,1 16,0 c 3.3413,0 6,2.658703 6,6 l 0,16 c 0,3.341297 -2.6587,6 -6,6 l -16,0 c -3.3413,0 -6,-2.658703 -6,-6 l 0,-16 c 0,-3.341297 2.6587,-6 6,-6 z"
         id="rect4151"
         inkscape:connector-curvature="0" />
      <path
         style="opacity:0.41000001;color:#bebebe;fill:#000000;fill-opacity:1;fill-rule:nonzero;stroke:none;stroke-width:0;marker:none;visibility:visible;display:inline;overflow:visible;enable-background:accumulate"
         d="m 419,140 c -1.662,0 -3,1.338 -3,3 l 0,10 c 0,1.662 1.338,3 3,3 l 10,0 c 1.662,0 3,-1.338 3,-3 l 0,-10 c 0,-1.662 -1.338,-3 -3,-3 l -10,0 z m 0,1 10,0 c 1.1253,0 2,0.8747 2,2 l 0,10 c 0,1.1253 -0.8747,2 -2,2 l -10,0 c -1.1253,0 -2,-0.8747 -2,-2 l 0,-10 c 0,-1.1253 0.8747,-2 2,-2 z"
         id="rect4095"
         inkscape:connector-curvature="0" />
      <path
         style="opacity:0.41000001;color:#bebebe;fill:#000000;fill-opacity:1;fill-rule:nonzero;stroke:none;stroke-width:0;marker:none;visibility:visible;display:inline;overflow:visible;enable-background:accumulate"
         d="m 300,223 c -4.986,0 -9,4.014 -9,9 l 0,24 c 0,4.986 4.014,9 9,9 l 24,0 c 4.986,0 9,-4.014 9,-9 l 0,-24 c 0,-4.986 -4.014,-9 -9,-9 l -24,0 z m 0,1 24,0 c 4.4493,0 8,3.5507 8,8 l 0,24 c 0,4.4493 -3.5507,8 -8,8 l -24,0 c -4.4493,0 -8,-3.5507 -8,-8 l 0,-24 c 0,-4.4493 3.5507,-8 8,-8 z"
         id="rect4783"
         inkscape:connector-curvature="0" />
      <path
         style="opacity:0.41000001;color:#bebebe;fill:#000000;fill-opacity:1;fill-rule:nonzero;stroke:none;stroke-width:0;marker:none;visibility:visible;display:inline;overflow:visible;enable-background:accumulate"
         d="m 302.5,142 c -6.925,0 -12.5,5.575 -12.5,12.5 l 0,35 c 0,6.925 5.575,12.5 12.5,12.5 l 35,0 c 6.925,0 12.5,-5.575 12.5,-12.5 l 0,-35 c 0,-6.925 -5.575,-12.5 -12.5,-12.5 l -35,0 z m 0,1 35,0 c 6.3883,0 11.5,5.1117 11.5,11.5 l 0,35 c 0,6.3883 -5.1117,11.5 -11.5,11.5 l -35,0 c -6.3883,0 -11.5,-5.1117 -11.5,-11.5 l 0,-35 c 0,-6.3883 5.1117,-11.5 11.5,-11.5 z"
         id="rect4515"
         inkscape:connector-curvature="0" />
      <path
         style="opacity:0.41000001;color:#bebebe;fill:#000000;fill-opacity:1;fill-rule:nonzero;stroke:none;stroke-width:0;marker:none;visibility:visible;display:inline;overflow:visible;enable-background:accumulate"
         d="m 310,32 c -9.972,0 -18,8.028 -18,18 l 0,52 c 0,9.972 8.028,18 18,18 l 52,0 c 9.972,0 18,-8.028 18,-18 l 0,-52 c 0,-9.972 -8.028,-18 -18,-18 l -52,0 z m 0,1 52,0 c 9.4353,0 17,7.564703 17,17 l 0,52 c 0,9.4353 -7.5647,17 -17,17 l -52,0 c -9.4353,0 -17,-7.5647 -17,-17 l 0,-52 c 0,-9.435297 7.5647,-17 17,-17 z"
         id="rect4511"
         inkscape:connector-curvature="0" />
      <path
         style="opacity:0.41000001;color:#bebebe;fill:#000000;fill-opacity:1;fill-rule:nonzero;stroke:none;stroke-width:0;marker:none;visibility:visible;display:inline;overflow:visible;enable-background:accumulate"
         d="M 84,46 C 56.3,46 34,68.3 34,96 l 0,120 c 0,27.7 22.3,50 50,50 l 120,0 c 27.7,0 50,-22.3 50,-50 L 254,96 C 254,68.3 231.7,46 204,46 L 84,46 z m 0,1 120,0 c 27.1633,0 49,21.836703 49,49 l 0,120 c 0,27.1633 -21.8367,49 -49,49 L 84,265 C 56.836703,265 35,243.1633 35,216 L 35,96 C 35,68.836703 56.836703,47 84,47 z"
         id="rect4040"
         inkscape:connector-curvature="0" />
    </g>
  </g>
</svg>
