<?xml version="1.0" encoding="UTF-8" standalone="no"?>
<!-- Created with Inkscape (http://www.inkscape.org/) -->

<svg
   xmlns:dc="http://purl.org/dc/elements/1.1/"
   xmlns:cc="http://creativecommons.org/ns#"
   xmlns:rdf="http://www.w3.org/1999/02/22-rdf-syntax-ns#"
   xmlns:svg="http://www.w3.org/2000/svg"
   xmlns="http://www.w3.org/2000/svg"
   xmlns:xlink="http://www.w3.org/1999/xlink"
   xmlns:sodipodi="http://sodipodi.sourceforge.net/DTD/sodipodi-0.dtd"
   xmlns:inkscape="http://www.inkscape.org/namespaces/inkscape"
   inkscape:export-ydpi="90.000000"
   inkscape:export-xdpi="90.000000"
   width="480"
   height="300"
   id="svg11300"
   sodipodi:version="0.32"
   inkscape:version="0.48.4 r9939"
   sodipodi:docname="web-sunrise-calendar.svg"
   inkscape:output_extension="org.inkscape.output.svg.inkscape"
   version="1.0"
   style="display:inline;enable-background:new"
   inkscape:export-filename="/home/sam/moka-next-template.png">
  <sodipodi:namedview
     stroke="#ef2929"
     fill="#f57900"
     id="base"
     pagecolor="#777777"
     bordercolor="#666666"
     borderopacity="0.25490196"
     inkscape:pageopacity="0"
     inkscape:pageshadow="2"
     inkscape:zoom="1"
     inkscape:cx="320.93617"
     inkscape:cy="233.53816"
     inkscape:current-layer="layer7"
     showgrid="false"
     inkscape:grid-bbox="true"
     inkscape:document-units="px"
     inkscape:showpageshadow="false"
     inkscape:window-width="1364"
     inkscape:window-height="700"
     inkscape:window-x="0"
     inkscape:window-y="28"
     width="400px"
     height="300px"
     inkscape:snap-nodes="true"
     inkscape:snap-bbox="true"
     gridtolerance="10000"
     inkscape:object-nodes="true"
     inkscape:snap-grids="true"
     showguides="true"
     inkscape:guide-bbox="true"
     inkscape:window-maximized="1"
     inkscape:bbox-nodes="true"
     inkscape:bbox-paths="true"
     inkscape:snap-bbox-edge-midpoints="true"
     inkscape:snap-bbox-midpoints="true">
    <inkscape:grid
       spacingy="1px"
       spacingx="1px"
       id="grid5883"
       type="xygrid"
       enabled="true"
       visible="true"
       empspacing="4"
       snapvisiblegridlinesonly="true"
       dotted="false"
       color="#000000"
       opacity="0.1254902"
       empcolor="#203ef3"
       empopacity="0.36470588" />
    <inkscape:grid
       type="xygrid"
       id="grid11592"
       empspacing="8"
       visible="true"
       enabled="false"
       spacingx="0.5px"
       spacingy="0.5px"
       color="#ff0000"
       opacity="0.1254902"
       empcolor="#ff0000"
       empopacity="0.25098039"
       snapvisiblegridlinesonly="true"
       dotted="true" />
  </sodipodi:namedview>
  <defs
     id="defs3">
    <linearGradient
       inkscape:collect="always"
       xlink:href="#outerBackgroundGradient-2"
       id="linearGradient4254"
       x1="35"
       y1="156"
       x2="253"
       y2="156"
       gradientUnits="userSpaceOnUse"
       gradientTransform="matrix(0,-1,1,0,-12,300)" />
    <linearGradient
       inkscape:collect="always"
       xlink:href="#outerBackgroundGradient-2"
       id="linearGradient4256"
       x1="417"
       y1="148"
       x2="431"
       y2="148"
       gradientUnits="userSpaceOnUse"
       gradientTransform="matrix(0,-1,1,0,276,572)" />
    <linearGradient
       inkscape:collect="always"
       xlink:href="#outerBackgroundGradient-2"
       id="linearGradient4260"
       x1="418"
       y1="68"
       x2="446"
       y2="68"
       gradientUnits="userSpaceOnUse"
       gradientTransform="matrix(0,-1,1,0,364,500)" />
    <linearGradient
       inkscape:collect="always"
       xlink:href="#outerBackgroundGradient-2"
       id="linearGradient4262"
       x1="292"
       y1="244"
       x2="332"
       y2="244"
       gradientUnits="userSpaceOnUse"
       gradientTransform="matrix(0,-1,1,0,68,556)" />
    <linearGradient
       inkscape:collect="always"
       xlink:href="#outerBackgroundGradient-2"
       id="linearGradient4264"
       x1="293"
       y1="76"
       x2="379"
       y2="76"
       gradientUnits="userSpaceOnUse"
       gradientTransform="matrix(0,-1,1,0,260,412)" />
    <linearGradient
       inkscape:collect="always"
       xlink:href="#outerBackgroundGradient-2"
       id="linearGradient4266"
       x1="291"
       y1="172"
       x2="349"
       y2="172"
       gradientUnits="userSpaceOnUse"
       gradientTransform="matrix(0,-1,1,0,148,492)" />
    <linearGradient
       inkscape:collect="always"
       xlink:href="#outerBackgroundGradient-2"
       id="linearGradient3870"
       gradientUnits="userSpaceOnUse"
       gradientTransform="matrix(0,-1,1,0,316,540)"
       x1="418"
       y1="112"
       x2="438"
       y2="112" />
    <linearGradient
       id="linearGradient3919">
      <stop
         style="stop-color:#e7edf2;stop-opacity:1;"
         offset="0"
         id="stop3921" />
      <stop
         style="stop-color:#b8c9d6;stop-opacity:1;"
         offset="1"
         id="stop3923" />
    </linearGradient>
    <linearGradient
       id="outerBackgroundGradient-4">
      <stop
         style="stop-color:#7fb000;stop-opacity:1;"
         offset="0"
         id="stop3864-8-6-6" />
      <stop
         style="stop-color:#b4d500;stop-opacity:1;"
         offset="1"
         id="stop3866-9-1-9" />
    </linearGradient>
    <linearGradient
       inkscape:collect="always"
       xlink:href="#outerBackgroundGradient"
       id="linearGradient3876"
       gradientUnits="userSpaceOnUse"
       gradientTransform="translate(0,-4)"
       x1="272"
       y1="288"
       x2="272"
       y2="32" />
    <linearGradient
       id="outerBackgroundGradient">
      <stop
         style="stop-color:#fe4e69;stop-opacity:1"
         offset="0"
         id="stop3864-8-6" />
      <stop
         style="stop-color:#ff763b;stop-opacity:1"
         offset="1"
         id="stop3866-9-1" />
    </linearGradient>
    <linearGradient
       inkscape:collect="always"
       xlink:href="#outerBackgroundGradient-2"
       id="linearGradient3876-9"
       gradientUnits="userSpaceOnUse"
       gradientTransform="translate(0,-4)"
       x1="272"
       y1="288"
       x2="272"
       y2="32" />
    <linearGradient
       id="outerBackgroundGradient-2">
      <stop
         style="stop-color:#435d4a;stop-opacity:1;"
         offset="0"
         id="stop3864-8-6-67" />
      <stop
         style="stop-color:#4a8259;stop-opacity:1;"
         offset="1"
         id="stop3866-9-1-1" />
    </linearGradient>
    <linearGradient
       y2="32"
       x2="272"
       y1="288"
       x1="272"
       gradientTransform="translate(323,-89)"
       gradientUnits="userSpaceOnUse"
       id="linearGradient3618"
       xlink:href="#outerBackgroundGradient-2"
       inkscape:collect="always" />
  </defs>
  <metadata
     id="metadata4">
    <rdf:RDF>
      <cc:Work
         rdf:about="">
        <dc:format>image/svg+xml</dc:format>
        <dc:type
           rdf:resource="http://purl.org/dc/dcmitype/StillImage" />
        <dc:creator>
          <cc:Agent>
            <dc:title>Sam Hewitt</dc:title>
          </cc:Agent>
        </dc:creator>
        <dc:source />
        <cc:license
           rdf:resource="" />
        <dc:title></dc:title>
        <dc:subject>
          <rdf:Bag />
        </dc:subject>
        <dc:date />
        <dc:rights>
          <cc:Agent>
            <dc:title />
          </cc:Agent>
        </dc:rights>
        <dc:publisher>
          <cc:Agent>
            <dc:title />
          </cc:Agent>
        </dc:publisher>
        <dc:identifier />
        <dc:relation />
        <dc:language />
        <dc:coverage />
        <dc:description />
        <dc:contributor>
          <cc:Agent>
            <dc:title />
          </cc:Agent>
        </dc:contributor>
      </cc:Work>
      <cc:Work
         rdf:about="">
        <dc:format>image/svg+xml</dc:format>
        <dc:type
           rdf:resource="http://purl.org/dc/dcmitype/StillImage" />
      </cc:Work>
    </rdf:RDF>
  </metadata>
  <g
     style="display:inline"
     inkscape:groupmode="layer"
     inkscape:label="Icon"
     id="layer1">
    <g
       style="display:none"
       inkscape:label="Baseplate"
       id="layer7"
       inkscape:groupmode="layer">
      <text
         y="19.745117"
         xml:space="preserve"
         x="15.006836"
         style="font-size:18px;font-style:normal;font-variant:normal;font-weight:normal;font-stretch:normal;fill:#000000;fill-opacity:1;stroke:none;display:inline;enable-background:new;font-family:DejaVu Sans;-inkscape-font-specification:DejaVu Sans"
         inkscape:label="context"
         id="context"><tspan
           style="font-style:normal;font-variant:normal;font-weight:normal;font-stretch:normal;font-family:DejaVu Sans;-inkscape-font-specification:DejaVu Sans"
           y="19.745117"
           x="15.006836"
           sodipodi:role="line"
           id="tspan3933">web</tspan></text>
      <text
         y="19.745117"
         xml:space="preserve"
         x="122.48828"
         style="font-size:18px;font-style:normal;font-variant:normal;font-weight:bold;font-stretch:normal;text-align:start;line-height:125%;writing-mode:lr-tb;text-anchor:start;fill:#000000;fill-opacity:1;stroke:none;display:inline;enable-background:new;font-family:DejaVu Sans;-inkscape-font-specification:DejaVu Sans Bold"
         sodipodi:linespacing="125%"
         inkscape:label="icon-name"
         id="icon-name"><tspan
           style="font-size:18px;font-style:normal;font-variant:normal;font-weight:bold;font-stretch:normal;font-family:DejaVu Sans;-inkscape-font-specification:DejaVu Sans Bold"
           y="19.745117"
           x="122.48828"
           sodipodi:role="line"
           id="tspan3937">web-deviantart</tspan></text>
      <rect
         style="fill:#eeeeec;fill-opacity:1;fill-rule:nonzero;stroke:none;stroke-width:2;marker:none;visibility:visible;display:inline;overflow:visible;enable-background:accumulate"
         id="rect16x16"
         width="16"
         height="16"
         x="416"
         y="140"
         inkscape:label="16x16" />
      <rect
         style="fill:#d4d4d4;fill-opacity:1;fill-rule:nonzero;stroke:none;stroke-width:2;marker:none;visibility:visible;display:inline;overflow:visible;enable-background:accumulate"
         id="rect24x24"
         width="24"
         height="24"
         x="416"
         y="100"
         inkscape:label="24x24" />
      <rect
         style="fill:#eeeeec;fill-opacity:1;fill-rule:nonzero;stroke:none;stroke-width:2;marker:none;visibility:visible;display:inline;overflow:visible;enable-background:accumulate"
         id="rect32x32"
         width="32"
         height="32"
         x="416"
         y="52"
         inkscape:label="32x32" />
      <rect
         inkscape:label="22x22"
         y="101"
         x="417"
         height="22"
         width="22"
         id="rect22x22"
         style="fill:#eeeeec;fill-opacity:1;fill-rule:nonzero;stroke:none;stroke-width:2;marker:none;visibility:visible;display:inline;overflow:visible;enable-background:accumulate" />
      <rect
         inkscape:label="48x48"
         y="220"
         x="288"
         height="48"
         width="48"
         id="rect48x48"
         style="fill:#eeeeec;fill-opacity:1;fill-rule:nonzero;stroke:none;stroke-width:2;marker:none;visibility:visible;display:inline;overflow:visible;enable-background:accumulate" />
      <rect
         style="fill:#eeeeec;fill-opacity:1;fill-rule:nonzero;stroke:none;stroke-width:2;marker:none;visibility:visible;display:inline;overflow:visible;enable-background:accumulate"
         id="rect256x256"
         width="256"
         height="256"
         x="16"
         y="28"
         inkscape:label="256x256" />
      <rect
         style="fill:#eeeeec;fill-opacity:1;fill-rule:nonzero;stroke:none;stroke-width:2;marker:none;visibility:visible;display:inline;overflow:visible;enable-background:accumulate"
         id="rect64x64"
         width="64"
         height="64"
         x="288"
         y="140"
         inkscape:label="64x64" />
      <rect
         style="fill:#eeeeec;fill-opacity:1;fill-rule:nonzero;stroke:none;stroke-width:2;marker:none;visibility:visible;display:inline;overflow:visible;enable-background:accumulate"
         id="rect96x96"
         width="96"
         height="96"
         x="288"
         y="28"
         inkscape:label="96x96" />
    </g>
    <g
       inkscape:groupmode="layer"
       id="layer4"
       inkscape:label="Shadow"
       style="display:inline"
       sodipodi:insensitive="true">
      <rect
         ry="50"
         y="47"
         x="34"
         height="220"
         width="220"
         id="rect4114"
         style="opacity:0.1;color:#bebebe;fill:#000000;fill-opacity:1;fill-rule:nonzero;stroke:none;stroke-width:0;marker:none;visibility:visible;display:inline;overflow:visible;enable-background:accumulate" />
      <rect
         style="opacity:0.1;color:#bebebe;fill:#000000;fill-opacity:1;fill-rule:nonzero;stroke:none;stroke-width:0;marker:none;visibility:visible;display:inline;overflow:visible;enable-background:accumulate"
         id="rect4120"
         width="30"
         height="30"
         x="417"
         y="54"
         ry="7" />
      <rect
         transform="scale(1,-1)"
         ry="9"
         y="-266"
         x="291"
         height="42"
         width="42"
         id="rect4122"
         style="opacity:0.1;color:#bebebe;fill:#000000;fill-opacity:1;fill-rule:nonzero;stroke:none;stroke-width:0;marker:none;visibility:visible;display:inline;overflow:visible;enable-background:accumulate" />
      <rect
         style="opacity:0.1;color:#bebebe;fill:#000000;fill-opacity:1;fill-rule:nonzero;stroke:none;stroke-width:0;marker:none;visibility:visible;display:inline;overflow:visible;enable-background:accumulate"
         id="rect4124"
         width="88"
         height="88"
         x="292"
         y="33"
         ry="18" />
      <rect
         ry="12.5"
         y="143"
         x="290"
         height="60"
         width="60"
         id="rect4126"
         style="opacity:0.1;color:#bebebe;fill:#000000;fill-opacity:1;fill-rule:nonzero;stroke:none;stroke-width:0;marker:none;visibility:visible;display:inline;overflow:visible;enable-background:accumulate" />
      <path
         id="path4268"
         d="m 422,101 c -2.77,0 -5,2.23 -5,5 l 0,12 c 0,2.77 2.23,5 5,5 l 12,0 c 2.77,0 5,-2.23 5,-5 l 0,-12 c 0,-2.77 -2.23,-5 -5,-5 z"
         style="opacity:0.1;color:#bebebe;fill:#000000;fill-opacity:1;fill-rule:nonzero;stroke:none;stroke-width:0;marker:none;visibility:visible;display:inline;overflow:visible;enable-background:accumulate"
         inkscape:connector-curvature="0"
         sodipodi:nodetypes="sssssssss" />
      <path
         id="path4270"
         d="m 419,140 c -1.662,0 -3,1.338 -3,3 l 0,10 c 0,1.662 1.338,3 3,3 l 10,0 c 1.662,0 3,-1.338 3,-3 l 0,-10 c 0,-1.662 -1.338,-3 -3,-3 z"
         style="opacity:0.1;color:#bebebe;fill:#000000;fill-opacity:1;fill-rule:nonzero;stroke:none;stroke-width:0;marker:none;visibility:visible;display:inline;overflow:visible;enable-background:accumulate"
         inkscape:connector-curvature="0"
         sodipodi:nodetypes="sssssssss" />
    </g>
    <g
       inkscape:groupmode="layer"
       id="layer2"
       inkscape:label="Background"
       style="display:inline">
      <path
         style="color:#bebebe;fill:url(#linearGradient4254);fill-opacity:1.0;fill-rule:nonzero;stroke:none;stroke-width:2;marker:none;visibility:visible;display:inline;overflow:visible;enable-background:accumulate"
         d="M 84 46.5 C 56.568735 46.5 34.5 68.568732 34.5 96 L 34.5 216 C 34.5 243.43127 56.568735 265.5 84 265.5 L 204 265.5 C 231.43127 265.5 253.5 243.43127 253.5 216 L 253.5 96 C 253.5 68.568732 231.43127 46.5 204 46.5 L 84 46.5 z "
         id="path4200" />
      <path
         style="color:#bebebe;fill:url(#linearGradient4256);fill-opacity:1.0;fill-rule:nonzero;stroke:none;stroke-width:2;marker:none;visibility:visible;display:inline;overflow:visible;enable-background:accumulate"
         d="M 419 140.5 C 417.6156 140.5 416.5 141.6156 416.5 143 L 416.5 153 C 416.5 154.3844 417.6156 155.5 419 155.5 L 429 155.5 C 430.3844 155.5 431.5 154.3844 431.5 153 L 431.5 143 C 431.5 141.6156 430.3844 140.5 429 140.5 L 419 140.5 z "
         id="path4202" />
      <path
         style="color:#bebebe;fill:url(#linearGradient3870);fill-opacity:1.0;fill-rule:nonzero;stroke:none;stroke-width:2;marker:none;visibility:visible;display:inline;overflow:visible;enable-background:accumulate"
         d="M 422 101.5 C 419.50301 101.5 417.5 103.50301 417.5 106 L 417.5 118 C 417.5 120.49699 419.50301 122.5 422 122.5 L 434 122.5 C 436.49699 122.5 438.5 120.49699 438.5 118 L 438.5 106 C 438.5 103.50301 436.49699 101.5 434 101.5 L 422 101.5 z "
         id="path4204" />
      <path
         style="color:#bebebe;fill:url(#linearGradient4260);fill-opacity:1.0;fill-rule:nonzero;stroke:none;stroke-width:2;marker:none;visibility:visible;display:inline;overflow:visible;enable-background:accumulate"
         d="M 424 53.5 C 420.39346 53.5 417.5 56.393464 417.5 60 L 417.5 76 C 417.5 79.606536 420.39346 82.5 424 82.5 L 440 82.5 C 443.60654 82.5 446.5 79.606536 446.5 76 L 446.5 60 C 446.5 56.393464 443.60654 53.5 440 53.5 L 424 53.5 z "
         id="path4206" />
      <path
         style="color:#bebebe;fill:url(#linearGradient4262);fill-opacity:1.0;fill-rule:nonzero;stroke:none;stroke-width:2;marker:none;visibility:visible;display:inline;overflow:visible;enable-background:accumulate"
         d="M 300 223.5 C 295.28469 223.5 291.5 227.28469 291.5 232 L 291.5 256 C 291.5 260.71531 295.28469 264.5 300 264.5 L 324 264.5 C 328.71531 264.5 332.5 260.71531 332.5 256 L 332.5 232 C 332.5 227.28469 328.71531 223.5 324 223.5 L 300 223.5 z "
         id="path4208" />
      <path
         style="color:#bebebe;fill:url(#linearGradient4264);fill-opacity:1.0;fill-rule:nonzero;stroke:none;stroke-width:2;marker:none;visibility:visible;display:inline;overflow:visible;enable-background:accumulate"
         d="M 310 32.5 C 300.29745 32.5 292.5 40.297452 292.5 50 L 292.5 102 C 292.5 111.70255 300.29745 119.5 310 119.5 L 362 119.5 C 371.70255 119.5 379.5 111.70255 379.5 102 L 379.5 50 C 379.5 40.297452 371.70255 32.5 362 32.5 L 310 32.5 z "
         id="path4210" />
      <path
         style="color:#bebebe;fill:url(#linearGradient4266);fill-opacity:1.0;fill-rule:nonzero;stroke:none;stroke-width:2;marker:none;visibility:visible;display:inline;overflow:visible;enable-background:accumulate"
         d="M 302.5 142.5 C 295.84498 142.5 290.5 147.84498 290.5 154.5 L 290.5 189.5 C 290.5 196.15502 295.84498 201.5 302.5 201.5 L 337.5 201.5 C 344.15502 201.5 349.5 196.15502 349.5 189.5 L 349.5 154.5 C 349.5 147.84498 344.15502 142.5 337.5 142.5 L 302.5 142.5 z "
         id="path4212" />
    </g>
    <g
       inkscape:groupmode="layer"
       id="layer6"
       inkscape:label="Symbols"
       style="display:inline">
      <path
         style="fill:#000000;fill-opacity:1;fill-rule:evenodd;stroke:none;display:inline;enable-background:new;opacity:0.2"
         d="m 320.04918,71.947276 4.72558,9.882108 -10.56647,2.561617 c -0.95365,-4.351755 -0.19482,-9.208815 5.84089,-12.443725 z m 29.8901,-6.427024 c -7.40737,-1.736161 -15.42954,-1.663567 -23.64529,-0.422988 -0.29625,0.0442 -0.59088,0.09206 -0.88397,0.141127 l -2.73109,-5.058413 c -2.65826,0.35485 -5.15653,0.907617 -7.46941,1.646125 l 2.60123,5.440041 c -4.24878,1.64572 -7.73558,3.990445 -10.25124,6.81185 -4.14898,4.720839 -5.78857,10.655204 -3.7957,16.434289 0.40081,1.165953 0.94257,2.271689 1.61113,3.307743 l 1.73944,-0.478426 9.69357,-2.661421 10.78348,-2.962413 8.6719,-2.381022 -3.0039,-5.563617 -5.57294,-10.321076 c 0.29467,-0.05679 0.59409,-0.113955 0.89983,-0.169513 13.87097,-2.474264 21.45759,1.34845 25.61286,5.41648 l -10.56782,2.561608 -4.41035,-7.044925 c -2.52212,-0.147211 -5.43234,0.0037 -8.80326,0.578313 l 4.73032,8.522869 2.12103,3.827374 0.92384,1.663401 19.45502,-5.341855 9.89014,-2.716859 1.54312,-0.422988 c -0.33296,-0.792081 -0.81921,-1.565177 -1.46404,-2.312893 -3.19694,-3.700839 -10.12738,-7.002011 -17.6779,-8.491194"
         id="path4699"
         inkscape:connector-curvature="0" />
      <path
         style="font-size:medium;font-style:normal;font-variant:normal;font-weight:normal;font-stretch:normal;text-indent:0;text-align:start;text-decoration:none;line-height:normal;letter-spacing:normal;word-spacing:normal;text-transform:none;direction:ltr;block-progression:tb;writing-mode:lr-tb;text-anchor:start;baseline-shift:baseline;color:#bebebe;fill:#000000;fill-opacity:1;stroke:none;stroke-width:4.00000047999999975;marker:none;visibility:visible;display:inline;overflow:visible;enable-background:accumulate;font-family:Sans;-inkscape-font-specification:Sans;opacity:0.2"
         d="m 310,41 c -5.50542,0 -10,4.49458 -10,10 l 0,52 c 0,5.50542 4.49458,10 10,10 l 52,0 c 5.50542,0 10,-4.49458 10,-10 l 0,-52 c 0,-5.50542 -4.49458,-10 -10,-10 l -52,0 z m 0,4 52,0 c 3.35862,0 6,2.64139 6,6 l 0,52 c 0,3.3586 -2.64138,6 -6,6 l -52,0 c -3.35862,0 -6,-2.6414 -6,-6 l 0,-52 c 0,-3.35861 2.64138,-6 6,-6 z"
         id="path4701"
         inkscape:connector-curvature="0" />
      <path
         inkscape:connector-curvature="0"
         id="path4703"
         d="m 104.25704,144.41071 11.77418,24.6221 -26.32725,6.38249 c -2.376088,-10.84277 -0.48541,-22.94454 14.55307,-31.00459 z m 74.4737,-16.01347 c -18.45609,-4.32579 -38.444,-4.14492 -58.91422,-1.05391 -0.73814,0.11013 -1.47224,0.22937 -2.2025,0.35163 l -6.80474,-12.60346 c -6.62328,0.88414 -12.847923,2.2614 -18.610668,4.10146 l 6.481187,13.55432 c -10.586195,4.10045 -19.273836,9.94252 -25.541819,16.97229 -10.337525,11.76237 -14.422705,26.54834 -9.457302,40.94741 0.99864,2.90507 2.348499,5.66011 4.01425,8.24152 l 4.333964,-1.19204 24.15235,-6.63115 26.867938,-7.3811 21.60679,-5.93252 -7.48448,-13.86222 -13.88546,-25.71582 c 0.7342,-0.1415 1.48023,-0.28393 2.24201,-0.42236 34.5607,-6.16484 53.46339,3.35978 63.81658,13.49562 l -26.3306,6.38246 -10.98877,-17.55302 c -6.28405,-0.36679 -13.53511,0.009 -21.93406,1.44091 l 11.786,21.23544 5.28473,9.53623 2.30181,4.1445 48.47384,-13.30968 24.64211,-6.76928 3.8448,-1.05391 c -0.82958,-1.97354 -2.04113,-3.89977 -3.64776,-5.76277 -7.96547,-9.22095 -25.23323,-17.4461 -44.04598,-21.15652"
         style="fill:#000000;fill-opacity:1;fill-rule:evenodd;stroke:none;display:inline;enable-background:new;opacity:0.2" />
      <path
         style="font-size:medium;font-style:normal;font-variant:normal;font-weight:normal;font-stretch:normal;text-indent:0;text-align:start;text-decoration:none;line-height:normal;letter-spacing:normal;word-spacing:normal;text-transform:none;direction:ltr;block-progression:tb;writing-mode:lr-tb;text-anchor:start;baseline-shift:baseline;color:#bebebe;fill:#000000;fill-opacity:1;stroke:none;stroke-width:10.00000095000000044;marker:none;visibility:visible;display:inline;overflow:visible;enable-background:accumulate;font-family:Sans;-inkscape-font-specification:Sans;opacity:0.2"
         d="M 81.90625,67 C 66.538544,67 54,79.538543 54,94.90625 l 0,124.1875 C 54,234.46145 66.538542,247 81.90625,247 l 124.1875,0 C 221.46146,247 234,234.46146 234,219.09375 l 0,-124.1875 C 234,79.538541 221.46145,67 206.09375,67 l -124.1875,0 z m 0,10 124.1875,0 C 216.09443,77 224,84.905573 224,94.90625 l 0,124.1875 C 224,229.09442 216.09442,237 206.09375,237 l -124.1875,0 C 71.905574,237 64,229.09443 64,219.09375 L 64,94.90625 C 64,84.905571 71.905572,77 81.90625,77 z"
         id="path4705"
         inkscape:connector-curvature="0" />
      <path
         style="fill:#000000;fill-opacity:1;fill-rule:evenodd;stroke:none;display:inline;enable-background:new;opacity:0.2"
         d="m 308.42788,169.82331 3.42836,7.16937 -7.66587,1.85842 c -0.69186,-3.15715 -0.14134,-6.6809 4.23751,-9.02779 z m 21.68496,-4.66274 c -5.37398,-1.25957 -11.19398,-1.2069 -17.15442,-0.30687 -0.21492,0.0321 -0.42868,0.0668 -0.64131,0.10238 l -1.98138,-3.66982 c -1.92854,0.25744 -3.74101,0.65846 -5.41898,1.19424 l 1.88717,3.9467 c -3.08245,1.19395 -5.61208,2.89502 -7.43717,4.94192 -3.01004,3.42492 -4.19955,7.73024 -2.75374,11.92291 0.29078,0.84589 0.68383,1.64809 1.16885,2.39973 l 1.26195,-0.34709 7.03259,-1.93083 7.8233,-2.1492 6.29138,-1.72741 -2.1793,-4.03635 -4.04312,-7.48783 c 0.21378,-0.0412 0.43101,-0.0827 0.65282,-0.12298 10.06325,-1.79505 15.56726,0.97829 18.58186,3.9296 l -7.66684,1.85842 -3.19966,-5.11102 c -1.82977,-0.1068 -3.9411,0.003 -6.38668,0.41956 l 3.4318,6.18325 1.53879,2.77672 0.67023,1.20678 14.11442,-3.87546 7.1752,-1.97105 L 344.00011,173 c -0.24155,-0.57465 -0.59433,-1.13552 -1.06214,-1.67798 -2.31935,-2.68492 -7.34731,-5.07989 -12.82513,-6.16028"
         id="path4707"
         inkscape:connector-curvature="0" />
      <path
         style="font-size:medium;font-style:normal;font-variant:normal;font-weight:normal;font-stretch:normal;text-indent:0;text-align:start;text-decoration:none;line-height:normal;letter-spacing:normal;word-spacing:normal;text-transform:none;direction:ltr;block-progression:tb;writing-mode:lr-tb;text-anchor:start;baseline-shift:baseline;color:#bebebe;fill:#000000;fill-opacity:1;stroke:none;stroke-width:3;marker:none;visibility:visible;display:inline;overflow:visible;enable-background:accumulate;font-family:Sans;-inkscape-font-specification:Sans;opacity:0.2"
         d="m 302.5,147 c -4.68305,0 -8.5,3.81695 -8.5,8.5 l 0,35 c 0,4.68305 3.81695,8.5 8.5,8.5 l 35,0 c 4.68305,0 8.5,-3.81695 8.5,-8.5 l 0,-35 c 0,-4.68305 -3.81695,-8.5 -8.5,-8.5 l -35,0 z m 0,3 35,0 c 3.07295,0 5.5,2.42705 5.5,5.5 l 0,35 c 0,3.07295 -2.42705,5.5 -5.5,5.5 l -35,0 c -3.07295,0 -5.5,-2.42705 -5.5,-5.5 l 0,-35 c 0,-3.07295 2.42705,-5.5 5.5,-5.5 z"
         id="path4709"
         inkscape:connector-curvature="0" />
      <path
         inkscape:connector-curvature="0"
         id="path4711"
         d="m 304.06549,242.53913 2.37348,4.96341 -5.30714,1.2866 c -0.47898,-2.18572 -0.0978,-4.62524 2.93366,-6.25001 z m 15.01267,-3.22805 c -3.72045,-0.87201 -7.74968,-0.83555 -11.87614,-0.21245 -0.14879,0.0222 -0.29677,0.0462 -0.44398,0.0709 l -1.37173,-2.54065 c -1.33514,0.17823 -2.58992,0.45586 -3.7516,0.82679 l 1.3065,2.73232 c -2.134,0.82659 -3.88528,2.00425 -5.14881,3.42134 -2.08387,2.3711 -2.90737,5.3517 -1.90643,8.25432 0.20131,0.58561 0.47342,1.14098 0.8092,1.66135 l 0.87366,-0.24029 4.86871,-1.33674 5.41613,-1.4879 4.35558,-1.1959 -1.50875,-2.79439 -2.79908,-5.18389 c 0.148,-0.0285 0.29839,-0.0572 0.45195,-0.0851 6.96687,-1.24273 10.77734,0.67728 12.86437,2.72049 l -5.30781,1.2866 -2.21516,-3.5384 c -1.26676,-0.0739 -2.72845,0.002 -4.42154,0.29047 l 2.37586,4.28071 1.06531,1.92235 0.46401,0.83546 9.77152,-2.68301 4.96744,-1.36458 0.77505,-0.21245 c -0.16723,-0.39783 -0.41145,-0.78613 -0.73533,-1.16168 -1.6057,-1.85879 -5.0866,-3.51684 -8.87893,-4.2648"
         style="fill:#000000;fill-opacity:1;fill-rule:evenodd;stroke:none;display:inline;enable-background:new;opacity:0.2" />
      <path
         style="font-size:medium;font-style:normal;font-variant:normal;font-weight:normal;font-stretch:normal;text-indent:0;text-align:start;text-decoration:none;line-height:normal;letter-spacing:normal;word-spacing:normal;text-transform:none;direction:ltr;block-progression:tb;writing-mode:lr-tb;text-anchor:start;baseline-shift:baseline;color:#bebebe;fill:#000000;fill-opacity:1;stroke:none;stroke-width:2;marker:none;visibility:visible;display:inline;overflow:visible;enable-background:accumulate;font-family:Sans;-inkscape-font-specification:Sans;opacity:0.2"
         d="m 300,227 c -3.3067,0 -6,2.69329 -6,6 l 0,24 c 0,3.30671 2.6933,6 6,6 l 24,0 c 3.3067,0 6,-2.6933 6,-6 l 0,-24 c 0,-3.3067 -2.6933,-6 -6,-6 l -24,0 z m 0,2 24,0 c 2.2333,0 4,1.7667 4,4 l 0,24 c 0,2.2333 -1.7667,4 -4,4 l -24,0 c -2.2333,0 -4,-1.76671 -4,-4 l 0,-24 c 0,-2.23329 1.7667,-4 4,-4 z"
         id="path4713"
         inkscape:connector-curvature="0" />
      <path
         inkscape:connector-curvature="0"
         id="path4715"
         d="m 426.69618,67.319895 1.57133,3.28596 -3.51353,0.851779 c -0.3171,-1.447028 -0.0648,-3.06208 1.9422,-4.137739 z m 9.93894,-2.137089 c -2.46308,-0.577302 -5.13058,-0.553163 -7.86245,-0.140651 -0.0985,0.01469 -0.19647,0.03061 -0.29393,0.04692 l -0.90814,-1.682003 c -0.88391,0.117993 -1.71462,0.301797 -2.4837,0.547362 l 0.86496,1.808902 c -1.41279,0.547229 -2.5722,1.326887 -3.40871,2.26505 -1.3796,1.569755 -1.92479,3.543027 -1.26213,5.464667 0.13328,0.387697 0.31343,0.755373 0.53573,1.099877 l 0.57839,-0.159084 3.22328,-0.884966 3.58567,-0.98505 2.88355,-0.791728 -0.99884,-1.849993 -1.8531,-3.431923 c 0.098,-0.01888 0.19754,-0.03789 0.29921,-0.05637 4.61232,-0.822733 7.135,0.448381 8.51669,1.801067 l -3.51397,0.851776 -1.46651,-2.342551 c -0.83865,-0.04895 -1.80634,0.0012 -2.92723,0.192298 l 1.57291,2.833991 0.70527,1.272664 0.3072,0.553107 6.46911,-1.776253 3.28863,-0.903399 0.5131,-0.140639 c -0.1107,-0.26338 -0.27239,-0.520447 -0.48681,-0.769075 -1.06303,-1.230588 -3.36751,-2.328281 -5.87818,-2.823459"
         style="fill:#000000;fill-opacity:1;fill-rule:evenodd;stroke:none;display:inline;enable-background:new;opacity:0.2" />
      <path
         style="font-size:medium;font-style:normal;font-variant:normal;font-weight:normal;font-stretch:normal;text-indent:0;text-align:start;text-decoration:none;line-height:normal;letter-spacing:normal;word-spacing:normal;text-transform:none;direction:ltr;block-progression:tb;writing-mode:lr-tb;text-anchor:start;baseline-shift:baseline;color:#bebebe;fill:#000000;fill-opacity:1;stroke:none;stroke-width:2;marker:none;visibility:visible;display:inline;overflow:visible;enable-background:accumulate;font-family:Sans;-inkscape-font-specification:Sans;opacity:0.2"
         d="m 424,57 c -2.1987,0 -4,1.801297 -4,4 l 0,16 c 0,2.198703 1.8013,4 4,4 l 16,0 c 2.1987,0 4,-1.801297 4,-4 l 0,-16 c 0,-2.198703 -1.8013,-4 -4,-4 l -16,0 z m 0,2 16,0 c 1.1253,0 2,0.874703 2,2 l 0,16 c 0,1.125297 -0.8747,2 -2,2 l -16,0 c -1.1253,0 -2,-0.874703 -2,-2 l 0,-16 c 0,-1.125297 0.8747,-2 2,-2 z"
         id="path4717"
         inkscape:connector-curvature="0" />
      <path
         style="fill:#000000;fill-opacity:1;fill-rule:evenodd;stroke:none;display:inline;enable-background:new;opacity:0.2"
         d="m 420.90615,148.01994 0.91661,1.91681 -2.04955,0.49687 c -0.18498,-0.8441 -0.0378,-1.78621 1.13294,-2.41368 z m 5.79772,-1.24664 c -1.4368,-0.33676 -2.99284,-0.32267 -4.58643,-0.082 -0.0575,0.009 -0.11461,0.0179 -0.17146,0.0274 l -0.52975,-0.98117 c -0.51561,0.0688 -1.00019,0.17605 -1.44882,0.31929 l 0.50456,1.0552 c -0.82413,0.31921 -1.50045,0.77401 -1.98842,1.32128 -0.80476,0.91569 -1.12279,2.06676 -0.73624,3.18772 0.0777,0.22615 0.18284,0.44063 0.31251,0.64159 l 0.3374,-0.0928 1.88024,-0.51623 2.09164,-0.57461 1.68207,-0.46184 -0.58265,-1.07916 -1.08098,-2.00196 c 0.0572,-0.011 0.11523,-0.0221 0.17454,-0.0329 2.69052,-0.47993 4.16208,0.26156 4.96807,1.05062 l -2.04982,0.49687 -0.85546,-1.36649 c -0.48921,-0.0285 -1.0537,7e-4 -1.70755,0.11218 l 0.91753,1.65316 0.41141,0.74239 0.1792,0.32264 3.77364,-1.03615 1.91837,-0.52698 0.29931,-0.082 c -0.0646,-0.15364 -0.15889,-0.30359 -0.28397,-0.44862 -0.6201,-0.71785 -1.96438,-1.35817 -3.42894,-1.64702"
         id="path4719"
         inkscape:connector-curvature="0" />
      <path
         style="font-size:medium;font-style:normal;font-variant:normal;font-weight:normal;font-stretch:normal;text-indent:0;text-align:start;text-decoration:none;line-height:normal;letter-spacing:normal;word-spacing:normal;text-transform:none;direction:ltr;block-progression:tb;writing-mode:lr-tb;text-anchor:start;baseline-shift:baseline;color:#bebebe;fill:#000000;fill-opacity:1;stroke:none;stroke-width:1;marker:none;visibility:visible;display:inline;overflow:visible;enable-background:accumulate;font-family:Sans;-inkscape-font-specification:Sans;opacity:0.2"
         d="m 419,142 c -1.09936,0 -2,0.90065 -2,2 l 0,10 c 0,1.09935 0.90064,2 2,2 l 10,0 c 1.09936,0 2,-0.90065 2,-2 l 0,-10 c 0,-1.09935 -0.90064,-2 -2,-2 l -10,0 z m 0,1 10,0 c 0.56266,0 1,0.43735 1,1 l 0,10 c 0,0.56265 -0.43734,1 -1,1 l -10,0 c -0.56266,0 -1,-0.43735 -1,-1 l 0,-10 c 0,-0.56265 0.43734,-1 1,-1 z"
         id="path4721"
         inkscape:connector-curvature="0" />
      <path
         style="fill:#000000;fill-opacity:1;fill-rule:evenodd;stroke:none;display:inline;enable-background:new;opacity:0.2"
         d="m 424.02217,111.73992 1.1785,2.46447 -2.63515,0.63884 c -0.23783,-1.08527 -0.0486,-2.29656 1.45665,-3.10331 z m 7.4542,-1.60281 c -1.84731,-0.43298 -3.84793,-0.41488 -5.89683,-0.10549 -0.0739,0.011 -0.14736,0.023 -0.22045,0.0352 l -0.68111,-1.2615 c -0.66293,0.0885 -1.28596,0.22634 -1.86277,0.41052 l 0.64872,1.35667 c -1.05959,0.41043 -1.92915,0.99517 -2.55653,1.69879 -1.0347,1.17732 -1.4436,2.65727 -0.9466,4.0985 0.1,0.29077 0.23507,0.56653 0.4018,0.82491 l 0.43379,-0.11931 2.41746,-0.66373 2.68925,-0.73879 2.16266,-0.59379 -0.74913,-1.3875 -1.38982,-2.57394 c 0.0735,-0.0142 0.14815,-0.0284 0.22441,-0.0423 3.45923,-0.61705 5.35124,0.33629 6.38751,1.3508 l -2.63548,0.63884 -1.09988,-1.75692 c -0.62898,-0.0367 -1.35475,9e-4 -2.19542,0.14423 l 1.17968,2.12549 0.52896,0.9545 0.2304,0.41483 4.85183,-1.33219 2.46647,-0.67755 0.38482,-0.10548 c -0.083,-0.19754 -0.20429,-0.39034 -0.3651,-0.57681 -0.79728,-0.92294 -2.52564,-1.74621 -4.40864,-2.11759"
         id="path4723"
         inkscape:connector-curvature="0" />
      <path
         style="font-size:medium;font-style:normal;font-variant:normal;font-weight:normal;font-stretch:normal;text-indent:0;text-align:start;text-decoration:none;line-height:normal;letter-spacing:normal;word-spacing:normal;text-transform:none;direction:ltr;block-progression:tb;writing-mode:lr-tb;text-anchor:start;baseline-shift:baseline;color:#bebebe;fill:#000000;fill-opacity:1;stroke:none;stroke-width:1;marker:none;visibility:visible;display:inline;overflow:visible;enable-background:accumulate;font-family:Sans;-inkscape-font-specification:Sans;opacity:0.2"
         d="m 422,104 c -1.65335,0 -3,1.34665 -3,3 l 0,12 c 0,1.65335 1.34665,3 3,3 l 12,0 c 1.65335,0 3,-1.34665 3,-3 l 0,-12 c 0,-1.65335 -1.34665,-3 -3,-3 l -12,0 z m 0,1 12,0 c 1.11665,0 2,0.88335 2,2 l 0,12 c 0,1.11665 -0.88335,2 -2,2 l -12,0 c -1.11665,0 -2,-0.88335 -2,-2 l 0,-12 c 0,-1.11665 0.88335,-2 2,-2 z"
         id="path4725"
         inkscape:connector-curvature="0" />
      <g
         transform="matrix(0.91891963,0,0,0.91891963,12.5404,-1.1892469)"
         style="display:inline;enable-background:new"
         id="g4072">
        <path
           style="fill:#c8da2f;fill-opacity:1;fill-rule:evenodd;stroke:none;display:inline;enable-background:new"
           d="m 334.64165,78.50145 5.14254,10.75405 -11.4988,2.78764 c -1.03779,-4.73573 -0.21201,-10.02135 6.35626,-13.54169 z m 32.52744,-6.99411 c -8.06096,-1.88935 -16.79096,-1.81035 -25.73162,-0.46031 -0.32239,0.0481 -0.64302,0.10018 -0.96197,0.15358 l -2.97207,-5.50474 c -2.89281,0.38616 -5.61151,0.9877 -8.12847,1.79137 l 2.83075,5.92004 c -4.62367,1.79093 -8.41812,4.34254 -11.15575,7.41289 -4.51506,5.13738 -6.29932,11.59536 -4.13061,17.88436 0.43617,1.26883 1.02574,2.47213 1.75328,3.5996 l 1.89292,-0.52064 10.54888,-2.89625 11.73495,-3.2238 9.43707,-2.59111 -3.26895,-6.05452 -6.06467,-11.23175 c 0.32067,-0.0618 0.64651,-0.12401 0.97923,-0.18447 15.09487,-2.69258 23.35089,1.46743 27.87279,5.8944 l -11.50026,2.78763 -4.7995,-7.66653 c -2.74465,-0.1602 -5.91165,0.004 -9.58001,0.62934 l 5.1477,9.27488 2.30818,4.16508 1.00535,1.81017 21.17163,-5.81319 10.76279,-2.95658 L 388,83.26648 c -0.36233,-0.86197 -0.89149,-1.70328 -1.59321,-2.51697 -3.47903,-4.02738 -11.02097,-7.61983 -19.2377,-9.24041"
           id="path14"
           inkscape:connector-curvature="0" />
        <rect
           transform="translate(0,-4)"
           ry="8.705904"
           y="51"
           x="315"
           height="74"
           width="74"
           id="rect4056"
           style="color:#bebebe;fill:none;stroke:#c8da2f;stroke-width:4.35293818;stroke-linecap:round;stroke-linejoin:round;stroke-miterlimit:4;stroke-opacity:1;stroke-dasharray:none;marker:none;visibility:visible;display:inline;overflow:visible;enable-background:accumulate" />
      </g>
      <g
         style="display:inline;enable-background:new"
         id="g4062"
         transform="matrix(2.2895654,0,0,2.2895654,-661.9269,-36.323493)">
        <path
           inkscape:connector-curvature="0"
           id="path4058"
           d="m 334.64165,78.50145 5.14254,10.75405 -11.4988,2.78764 c -1.03779,-4.73573 -0.21201,-10.02135 6.35626,-13.54169 z m 32.52744,-6.99411 c -8.06096,-1.88935 -16.79096,-1.81035 -25.73162,-0.46031 -0.32239,0.0481 -0.64302,0.10018 -0.96197,0.15358 l -2.97207,-5.50474 c -2.89281,0.38616 -5.61151,0.9877 -8.12847,1.79137 l 2.83075,5.92004 c -4.62367,1.79093 -8.41812,4.34254 -11.15575,7.41289 -4.51506,5.13738 -6.29932,11.59536 -4.13061,17.88436 0.43617,1.26883 1.02574,2.47213 1.75328,3.5996 l 1.89292,-0.52064 10.54888,-2.89625 11.73495,-3.2238 9.43707,-2.59111 -3.26895,-6.05452 -6.06467,-11.23175 c 0.32067,-0.0618 0.64651,-0.12401 0.97923,-0.18447 15.09487,-2.69258 23.35089,1.46743 27.87279,5.8944 l -11.50026,2.78763 -4.7995,-7.66653 c -2.74465,-0.1602 -5.91165,0.004 -9.58001,0.62934 l 5.1477,9.27488 2.30818,4.16508 1.00535,1.81017 21.17163,-5.81319 10.76279,-2.95658 L 388,83.26648 c -0.36233,-0.86197 -0.89149,-1.70328 -1.59321,-2.51697 -3.47903,-4.02738 -11.02097,-7.61983 -19.2377,-9.24041"
           style="fill:#c8da2f;fill-opacity:1;fill-rule:evenodd;stroke:none;display:inline;enable-background:new" />
        <rect
           style="color:#bebebe;fill:none;stroke:#c8da2f;stroke-width:4.36764145;stroke-linecap:round;stroke-linejoin:round;stroke-miterlimit:4;stroke-opacity:1;stroke-dasharray:none;marker:none;visibility:visible;display:inline;overflow:visible;enable-background:accumulate"
           id="rect4060"
           width="74.25"
           height="74.25"
           x="314.875"
           y="50.875"
           transform="translate(0,-4)"
           ry="10" />
      </g>
      <g
         style="display:inline;enable-background:new"
         transform="matrix(0.66666667,0,0,0.66666667,85.333442,116.48901)"
         id="g4066">
        <path
           style="fill:#c8da2f;fill-opacity:1;fill-rule:evenodd;stroke:none;display:inline;enable-background:new"
           d="m 334.64165,78.50145 5.14254,10.75405 -11.4988,2.78764 c -1.03779,-4.73573 -0.21201,-10.02135 6.35626,-13.54169 z m 32.52744,-6.99411 c -8.06096,-1.88935 -16.79096,-1.81035 -25.73162,-0.46031 -0.32239,0.0481 -0.64302,0.10018 -0.96197,0.15358 l -2.97207,-5.50474 c -2.89281,0.38616 -5.61151,0.9877 -8.12847,1.79137 l 2.83075,5.92004 c -4.62367,1.79093 -8.41812,4.34254 -11.15575,7.41289 -4.51506,5.13738 -6.29932,11.59536 -4.13061,17.88436 0.43617,1.26883 1.02574,2.47213 1.75328,3.5996 l 1.89292,-0.52064 10.54888,-2.89625 11.73495,-3.2238 9.43707,-2.59111 -3.26895,-6.05452 -6.06467,-11.23175 c 0.32067,-0.0618 0.64651,-0.12401 0.97923,-0.18447 15.09487,-2.69258 23.35089,1.46743 27.87279,5.8944 l -11.50026,2.78763 -4.7995,-7.66653 c -2.74465,-0.1602 -5.91165,0.004 -9.58001,0.62934 l 5.1477,9.27488 2.30818,4.16508 1.00535,1.81017 21.17163,-5.81319 10.76279,-2.95658 L 388,83.26648 c -0.36233,-0.86197 -0.89149,-1.70328 -1.59321,-2.51697 -3.47903,-4.02738 -11.02097,-7.61983 -19.2377,-9.24041"
           id="path4068"
           inkscape:connector-curvature="0" />
        <rect
           ry="10.500001"
           transform="translate(0,-4)"
           y="50.516483"
           x="315.25"
           height="73.5"
           width="73.5"
           id="rect4070"
           style="color:#bebebe;fill:none;stroke:#c8da2f;stroke-width:4.5;stroke-linecap:round;stroke-linejoin:round;stroke-miterlimit:4;stroke-opacity:1;stroke-dasharray:none;marker:none;visibility:visible;display:inline;overflow:visible;enable-background:accumulate" />
      </g>
      <g
         style="display:inline;enable-background:new"
         id="g4076"
         transform="matrix(0.46153846,0,0,0.46153846,149.6155,205.30769)">
        <path
           inkscape:connector-curvature="0"
           id="path4078"
           d="m 334.64165,78.50145 5.14254,10.75405 -11.4988,2.78764 c -1.03779,-4.73573 -0.21201,-10.02135 6.35626,-13.54169 z m 32.52744,-6.99411 c -8.06096,-1.88935 -16.79096,-1.81035 -25.73162,-0.46031 -0.32239,0.0481 -0.64302,0.10018 -0.96197,0.15358 l -2.97207,-5.50474 c -2.89281,0.38616 -5.61151,0.9877 -8.12847,1.79137 l 2.83075,5.92004 c -4.62367,1.79093 -8.41812,4.34254 -11.15575,7.41289 -4.51506,5.13738 -6.29932,11.59536 -4.13061,17.88436 0.43617,1.26883 1.02574,2.47213 1.75328,3.5996 l 1.89292,-0.52064 10.54888,-2.89625 11.73495,-3.2238 9.43707,-2.59111 -3.26895,-6.05452 -6.06467,-11.23175 c 0.32067,-0.0618 0.64651,-0.12401 0.97923,-0.18447 15.09487,-2.69258 23.35089,1.46743 27.87279,5.8944 l -11.50026,2.78763 -4.7995,-7.66653 c -2.74465,-0.1602 -5.91165,0.004 -9.58001,0.62934 l 5.1477,9.27488 2.30818,4.16508 1.00535,1.81017 21.17163,-5.81319 10.76279,-2.95658 L 388,83.26648 c -0.36233,-0.86197 -0.89149,-1.70328 -1.59321,-2.51697 -3.47903,-4.02738 -11.02097,-7.61983 -19.2377,-9.24041"
           style="fill:#c8da2f;fill-opacity:1;fill-rule:evenodd;stroke:none;display:inline;enable-background:new" />
        <rect
           style="color:#bebebe;fill:none;stroke:#c8da2f;stroke-width:4.33333349;stroke-linecap:round;stroke-linejoin:round;stroke-miterlimit:4;stroke-opacity:1;stroke-dasharray:none;marker:none;visibility:visible;display:inline;overflow:visible;enable-background:accumulate"
           id="rect4080"
           width="73.666656"
           height="73.666672"
           x="315"
           y="51"
           ry="10.833339"
           transform="translate(0,-4)" />
      </g>
      <g
         transform="translate(-15.999891,16.000001)"
         style="display:inline;enable-background:new"
         id="g4140">
        <path
           inkscape:connector-curvature="0"
           id="path4134"
           d="m 442.69607,50.319894 1.57133,3.28596 -3.51353,0.851779 c -0.3171,-1.447028 -0.0648,-3.06208 1.9422,-4.137739 z m 9.93894,-2.137089 c -2.46308,-0.577302 -5.13058,-0.553163 -7.86245,-0.140651 -0.0985,0.01469 -0.19647,0.03061 -0.29393,0.04692 l -0.90814,-1.682003 c -0.88391,0.117993 -1.71462,0.301797 -2.4837,0.547362 l 0.86496,1.808902 c -1.41279,0.547229 -2.5722,1.326887 -3.40871,2.26505 -1.3796,1.569755 -1.92479,3.543027 -1.26213,5.464667 0.13328,0.387697 0.31343,0.755373 0.53573,1.099877 l 0.57839,-0.159084 3.22328,-0.884966 3.58567,-0.98505 2.88355,-0.791728 -0.99884,-1.849993 -1.8531,-3.431923 c 0.098,-0.01888 0.19754,-0.03789 0.29921,-0.05637 4.61232,-0.822733 7.135,0.448381 8.51669,1.801067 l -3.51397,0.851776 -1.46651,-2.342551 c -0.83865,-0.04895 -1.80634,0.0012 -2.92723,0.192298 l 1.57291,2.833991 0.70527,1.272664 0.3072,0.553107 6.46911,-1.776253 3.28863,-0.903399 L 459,51.775876 c -0.1107,-0.26338 -0.27239,-0.520447 -0.48681,-0.769075 -1.06303,-1.230588 -3.36751,-2.328281 -5.87818,-2.823459"
           style="fill:#c8da2f;fill-opacity:1;fill-rule:evenodd;stroke:none;display:inline;enable-background:new" />
        <rect
           style="color:#bebebe;fill:none;stroke:#c8da2f;stroke-width:2;stroke-linecap:round;stroke-linejoin:miter;stroke-miterlimit:4;stroke-opacity:1;stroke-dasharray:none;marker:none;visibility:visible;display:inline;overflow:visible;enable-background:accumulate"
           id="rect4136"
           width="22.000002"
           height="22"
           x="437"
           y="41"
           ry="3" />
      </g>
      <g
         style="display:inline;enable-background:new"
         id="g4144"
         transform="matrix(0.58333329,0,0,0.58333329,162.6668,117.66667)">
        <path
           style="fill:#c8da2f;fill-opacity:1;fill-rule:evenodd;stroke:none;display:inline;enable-background:new"
           d="m 442.69607,50.319894 1.57133,3.28596 -3.51353,0.851779 c -0.3171,-1.447028 -0.0648,-3.06208 1.9422,-4.137739 z m 9.93894,-2.137089 c -2.46308,-0.577302 -5.13058,-0.553163 -7.86245,-0.140651 -0.0985,0.01469 -0.19647,0.03061 -0.29393,0.04692 l -0.90814,-1.682003 c -0.88391,0.117993 -1.71462,0.301797 -2.4837,0.547362 l 0.86496,1.808902 c -1.41279,0.547229 -2.5722,1.326887 -3.40871,2.26505 -1.3796,1.569755 -1.92479,3.543027 -1.26213,5.464667 0.13328,0.387697 0.31343,0.755373 0.53573,1.099877 l 0.57839,-0.159084 3.22328,-0.884966 3.58567,-0.98505 2.88355,-0.791728 -0.99884,-1.849993 -1.8531,-3.431923 c 0.098,-0.01888 0.19754,-0.03789 0.29921,-0.05637 4.61232,-0.822733 7.135,0.448381 8.51669,1.801067 l -3.51397,0.851776 -1.46651,-2.342551 c -0.83865,-0.04895 -1.80634,0.0012 -2.92723,0.192298 l 1.57291,2.833991 0.70527,1.272664 0.3072,0.553107 6.46911,-1.776253 3.28863,-0.903399 L 459,51.775876 c -0.1107,-0.26338 -0.27239,-0.520447 -0.48681,-0.769075 -1.06303,-1.230588 -3.36751,-2.328281 -5.87818,-2.823459"
           id="path4146"
           inkscape:connector-curvature="0" />
        <rect
           ry="2.5714293"
           y="40.85714"
           x="436.85715"
           height="22.285713"
           width="22.285717"
           id="rect4148"
           style="color:#bebebe;fill:none;stroke:#c8da2f;stroke-width:1.71428585;stroke-linecap:round;stroke-linejoin:miter;stroke-miterlimit:4;stroke-opacity:1;stroke-dasharray:none;marker:none;visibility:visible;display:inline;overflow:visible;enable-background:accumulate" />
      </g>
      <g
         style="display:inline;enable-background:new"
         id="g4150"
         transform="matrix(0.74999994,0,0,0.74999994,92.000142,73.000005)">
        <path
           style="fill:#c8da2f;fill-opacity:1;fill-rule:evenodd;stroke:none;display:inline;enable-background:new"
           d="m 442.69607,50.319894 1.57133,3.28596 -3.51353,0.851779 c -0.3171,-1.447028 -0.0648,-3.06208 1.9422,-4.137739 z m 9.93894,-2.137089 c -2.46308,-0.577302 -5.13058,-0.553163 -7.86245,-0.140651 -0.0985,0.01469 -0.19647,0.03061 -0.29393,0.04692 l -0.90814,-1.682003 c -0.88391,0.117993 -1.71462,0.301797 -2.4837,0.547362 l 0.86496,1.808902 c -1.41279,0.547229 -2.5722,1.326887 -3.40871,2.26505 -1.3796,1.569755 -1.92479,3.543027 -1.26213,5.464667 0.13328,0.387697 0.31343,0.755373 0.53573,1.099877 l 0.57839,-0.159084 3.22328,-0.884966 3.58567,-0.98505 2.88355,-0.791728 -0.99884,-1.849993 -1.8531,-3.431923 c 0.098,-0.01888 0.19754,-0.03789 0.29921,-0.05637 4.61232,-0.822733 7.135,0.448381 8.51669,1.801067 l -3.51397,0.851776 -1.46651,-2.342551 c -0.83865,-0.04895 -1.80634,0.0012 -2.92723,0.192298 l 1.57291,2.833991 0.70527,1.272664 0.3072,0.553107 6.46911,-1.776253 3.28863,-0.903399 L 459,51.775876 c -0.1107,-0.26338 -0.27239,-0.520447 -0.48681,-0.769075 -1.06303,-1.230588 -3.36751,-2.328281 -5.87818,-2.823459"
           id="path4152"
           inkscape:connector-curvature="0" />
        <rect
           ry="3.333334"
           y="40.666664"
           x="436.66666"
           height="22.66667"
           width="22.666674"
           id="rect4155"
           style="color:#bebebe;fill:none;stroke:#c8da2f;stroke-width:1.33333349;stroke-linecap:round;stroke-linejoin:miter;stroke-miterlimit:4;stroke-opacity:1;stroke-dasharray:none;marker:none;visibility:visible;display:inline;overflow:visible;enable-background:accumulate" />
      </g>
      <path
         style="fill:#ffffff;fill-opacity:1;fill-rule:evenodd;stroke:none;display:inline;enable-background:new;opacity:0.6"
         d="M 322.6875 59.1875 C 320.02924 59.54235 317.53163 60.073992 315.21875 60.8125 L 315.625 61.6875 C 317.82317 61.012558 320.18441 60.521636 322.6875 60.1875 L 325.40625 65.25 C 325.69934 65.200933 325.985 65.13795 326.28125 65.09375 C 334.497 63.853171 342.53013 63.795089 349.9375 65.53125 C 357.48802 67.020433 364.42806 70.299161 367.625 74 C 368.023 74.461505 368.34658 74.958161 368.625 75.4375 L 369.09375 75.3125 C 368.76079 74.520419 368.26983 73.747716 367.625 73 C 364.42806 69.299161 357.48802 66.020433 349.9375 64.53125 C 342.53013 62.795089 334.497 62.853171 326.28125 64.09375 C 325.985 64.13795 325.69934 64.200933 325.40625 64.25 L 322.6875 59.1875 z M 317.40625 66.4375 C 313.34271 68.073526 309.99683 70.332304 307.5625 73.0625 C 304.46602 76.585773 302.77167 80.787626 302.9375 85.09375 C 303.05282 81.145807 304.71008 77.308077 307.5625 74.0625 C 310.07816 71.241095 313.56372 68.92697 317.8125 67.28125 L 317.40625 66.4375 z M 337.25 69.15625 C 335.20947 69.163524 332.93444 69.35029 330.40625 69.78125 L 330.9375 70.71875 C 334.08103 70.217632 336.83191 70.079435 339.21875 70.21875 L 343.625 77.25 L 354.1875 74.6875 C 353.91277 74.418535 353.61806 74.171321 353.3125 73.90625 L 343.625 76.25 L 339.21875 69.21875 C 338.58822 69.181947 337.93018 69.153825 337.25 69.15625 z M 328.1875 69.34375 C 328.02134 69.375056 327.85049 69.406088 327.6875 69.4375 L 333.25 79.78125 L 335.78125 84.46875 L 336.25 84.34375 L 333.25 78.78125 L 328.1875 69.34375 z M 324.34375 80.9375 L 314.21875 83.40625 C 314.05092 82.640389 313.91732 81.848066 313.875 81.0625 C 313.84366 82.18036 313.98034 83.318311 314.21875 84.40625 L 324.78125 81.84375 L 324.34375 80.9375 z "
         id="path4582" />
      <path
         style="font-size:medium;font-style:normal;font-variant:normal;font-weight:normal;font-stretch:normal;text-indent:0;text-align:start;text-decoration:none;line-height:normal;letter-spacing:normal;word-spacing:normal;text-transform:none;direction:ltr;block-progression:tb;writing-mode:lr-tb;text-anchor:start;baseline-shift:baseline;color:#bebebe;fill:#ffffff;fill-opacity:1;stroke:none;stroke-width:4.00000047999999975;marker:none;visibility:visible;display:inline;overflow:visible;enable-background:accumulate;font-family:Sans;-inkscape-font-specification:Sans;opacity:0.6"
         d="M 310 40 C 304.49458 40 300 44.49458 300 50 L 300 51 C 300 45.49458 304.49458 41 310 41 L 362 41 C 367.50542 41 372 45.49458 372 51 L 372 50 C 372 44.49458 367.50542 40 362 40 L 310 40 z M 304 102 L 304 103 C 304 106.3586 306.64138 109 310 109 L 362 109 C 365.35862 109 368 106.3586 368 103 L 368 102 C 368 105.3586 365.35862 108 362 108 L 310 108 C 306.64138 108 304 105.3586 304 102 z "
         id="rect4584" />
      <path
         style="fill:#ffffff;fill-opacity:1;fill-rule:evenodd;stroke:none;display:inline;enable-background:new;opacity:0.6"
         d="M 110.8125 114.09375 C 104.18922 114.97789 97.950245 116.34744 92.1875 118.1875 L 92.59375 119.0625 C 98.243391 117.28629 104.3433 115.95732 110.8125 115.09375 L 117.625 127.6875 C 118.35526 127.56524 119.07436 127.45388 119.8125 127.34375 C 140.28272 124.25274 160.26266 124.08046 178.71875 128.40625 C 197.5315 132.11667 214.81578 140.34155 222.78125 149.5625 C 224.14759 151.14687 225.19708 152.77146 226 154.4375 L 226.4375 154.3125 C 225.60792 152.33896 224.38788 150.4255 222.78125 148.5625 C 214.81578 139.34155 197.5315 131.11667 178.71875 127.40625 C 160.26266 123.08046 140.28272 123.25274 119.8125 126.34375 C 119.07436 126.45388 118.35526 126.56524 117.625 126.6875 L 110.8125 114.09375 z M 98.28125 131.90625 C 87.879236 135.99811 79.312484 141.77926 73.125 148.71875 C 65.815135 157.03615 61.661666 166.86475 61.59375 177 C 61.9205 167.21922 66.055826 157.76228 73.125 149.71875 C 79.392983 142.68898 88.101305 136.85045 98.6875 132.75 L 98.28125 131.90625 z M 123.78125 138.09375 C 123.61668 138.12527 123.4446 138.15602 123.28125 138.1875 L 137.15625 163.90625 L 144.1875 176.90625 L 144.65625 176.78125 L 137.15625 162.90625 L 123.78125 138.09375 z M 147.125 138.96875 C 142.04085 138.98682 136.39296 139.45732 130.09375 140.53125 L 130.59375 141.46875 C 138.77849 140.10718 145.87365 139.73434 152.03125 140.09375 L 163 157.65625 L 189.34375 151.28125 C 189.07665 151.01975 188.77861 150.76042 188.5 150.5 L 163 156.65625 L 152.03125 139.09375 C 150.46024 139.00205 148.81972 138.96273 147.125 138.96875 z M 115.59375 168.125 L 89.71875 174.40625 C 89.273234 172.37323 88.961968 170.30535 88.875 168.21875 C 88.897119 170.63996 89.202305 173.04957 89.71875 175.40625 L 116.03125 169.03125 L 115.59375 168.125 z "
         id="path4588" />
      <path
         style="font-size:medium;font-style:normal;font-variant:normal;font-weight:normal;font-stretch:normal;text-indent:0;text-align:start;text-decoration:none;line-height:normal;letter-spacing:normal;word-spacing:normal;text-transform:none;direction:ltr;block-progression:tb;writing-mode:lr-tb;text-anchor:start;baseline-shift:baseline;color:#bebebe;fill:#ffffff;fill-opacity:1;stroke:none;stroke-width:10.00000095000000044;marker:none;visibility:visible;display:inline;overflow:visible;enable-background:accumulate;font-family:Sans;-inkscape-font-specification:Sans;opacity:0.6"
         d="M 81.90625 66 C 66.538544 66 54 78.538543 54 93.90625 L 54 94.90625 C 54 79.538543 66.538544 67 81.90625 67 L 206.09375 67 C 221.46145 67 234 79.538541 234 94.90625 L 234 93.90625 C 234 78.538541 221.46145 66 206.09375 66 L 81.90625 66 z M 64 218.09375 L 64 219.09375 C 64 229.09443 71.905574 237 81.90625 237 L 206.09375 237 C 216.09442 237 224 229.09442 224 219.09375 L 224 218.09375 C 224 228.09442 216.09442 236 206.09375 236 L 81.90625 236 C 71.905574 236 64 228.09443 64 218.09375 z "
         id="rect4590" />
      <path
         style="fill:#ffffff;fill-opacity:1;fill-rule:evenodd;stroke:none;display:inline;enable-background:new;opacity:0.6"
         d="M 310.34375 160.28125 C 308.41521 160.53869 306.58422 160.93297 304.90625 161.46875 L 305.3125 162.34375 C 306.87652 161.87041 308.5687 161.5182 310.34375 161.28125 L 312.3125 164.96875 C 312.52513 164.93317 312.75383 164.87585 312.96875 164.84375 C 318.92919 163.94372 324.75102 163.89668 330.125 165.15625 C 335.60282 166.23664 340.61815 168.62758 342.9375 171.3125 C 343.16167 171.57244 343.35949 171.85712 343.53125 172.125 L 344 172 C 343.75845 171.42535 343.40531 170.85496 342.9375 170.3125 C 340.61815 167.62758 335.60282 165.23664 330.125 164.15625 C 324.75102 162.89668 318.92919 162.94372 312.96875 163.84375 C 312.75383 163.87585 312.52513 163.93317 312.3125 163.96875 L 310.34375 160.28125 z M 306.40625 165.59375 C 303.50878 166.77735 301.11864 168.41944 299.375 170.375 C 297.11747 172.94369 295.86569 176.01605 296 179.15625 C 296.13129 176.36099 297.35231 173.67649 299.375 171.375 C 301.20009 169.3281 303.73005 167.63145 306.8125 166.4375 L 306.40625 165.59375 z M 320.90625 167.53125 C 319.42587 167.5366 317.77168 167.68758 315.9375 168 L 316.4375 168.90625 C 318.66712 168.55884 320.64297 168.46323 322.34375 168.5625 L 325.53125 173.6875 L 333.21875 171.8125 C 332.94832 171.54775 332.62449 171.28997 332.3125 171.03125 L 325.53125 172.6875 L 322.34375 167.5625 C 321.88631 167.5358 321.39971 167.52947 320.90625 167.53125 z M 314.46875 167.90625 C 314.30146 167.9373 314.13154 167.96863 313.96875 168 L 318 175.5 L 319.71875 178.65625 L 320.1875 178.53125 L 318 174.5 L 314.46875 167.90625 z M 303.96875 176.09375 C 303.90395 177.01805 303.99017 177.94328 304.1875 178.84375 L 311.84375 177 L 311.40625 176.09375 L 304.1875 177.84375 C 304.06109 177.26692 303.99644 176.68564 303.96875 176.09375 z "
         id="path4594" />
      <path
         style="font-size:medium;font-style:normal;font-variant:normal;font-weight:normal;font-stretch:normal;text-indent:0;text-align:start;text-decoration:none;line-height:normal;letter-spacing:normal;word-spacing:normal;text-transform:none;direction:ltr;block-progression:tb;writing-mode:lr-tb;text-anchor:start;baseline-shift:baseline;color:#bebebe;fill:#ffffff;fill-opacity:1;stroke:none;stroke-width:3;marker:none;visibility:visible;display:inline;overflow:visible;enable-background:accumulate;font-family:Sans;-inkscape-font-specification:Sans;opacity:0.6"
         d="M 302.5 146 C 297.81695 146 294 149.81695 294 154.5 L 294 155.5 C 294 150.81695 297.81695 147 302.5 147 L 337.5 147 C 342.18305 147 346 150.81695 346 155.5 L 346 154.5 C 346 149.81695 342.18305 146 337.5 146 L 302.5 146 z M 297 189.5 L 297 190.5 C 297 193.57295 299.42705 196 302.5 196 L 337.5 196 C 340.57295 196 343 193.57295 343 190.5 L 343 189.5 C 343 192.57295 340.57295 195 337.5 195 L 302.5 195 C 299.42705 195 297 192.57295 297 189.5 z "
         id="rect4596" />
      <path
         style="fill:#ffffff;fill-opacity:1;fill-rule:evenodd;stroke:none;display:inline;enable-background:new;opacity:0.6"
         d="M 305.375 235.625 C 304.03986 235.80323 302.78668 236.09782 301.625 236.46875 L 302.0625 237.34375 C 303.10326 237.03762 304.2014 236.78167 305.375 236.625 L 306.75 239.15625 C 306.89721 239.13155 307.03871 239.11595 307.1875 239.09375 C 311.31396 238.47065 315.3733 238.44049 319.09375 239.3125 C 322.88608 240.06046 326.36305 241.70371 327.96875 243.5625 C 328.05461 243.66206 328.11279 243.77371 328.1875 243.875 L 328.6875 243.75 C 328.52027 243.35217 328.29263 242.93805 327.96875 242.5625 C 326.36305 240.70371 322.88608 239.06046 319.09375 238.3125 C 315.3733 237.44049 311.31396 237.47065 307.1875 238.09375 C 307.03871 238.11595 306.89721 238.13155 306.75 238.15625 L 305.375 235.625 z M 302.53125 239.375 C 300.5875 240.18972 298.96058 241.27109 297.78125 242.59375 C 296.17343 244.42318 295.34815 246.63566 295.5 248.875 C 295.62083 246.98561 296.4119 245.15184 297.78125 243.59375 C 299.04478 242.17666 300.8035 241.01409 302.9375 240.1875 L 302.53125 239.375 z M 311.9375 240.8125 C 311.11996 240.83542 310.24741 240.89812 309.3125 241.03125 L 309.78125 241.875 C 311.25737 241.65498 312.55132 241.58997 313.6875 241.65625 L 315.90625 245.21875 L 321.21875 243.90625 C 320.94875 243.64192 320.64329 243.37863 320.3125 243.125 L 315.90625 244.21875 L 313.8125 240.875 C 313.22349 240.83136 312.5986 240.79396 311.9375 240.8125 z M 308.34375 241.1875 C 308.19019 241.2154 308.05425 241.25275 307.90625 241.28125 L 310.6875 246.46875 L 311.75 248.375 L 312.21875 248.25 L 310.6875 245.46875 L 308.375 241.1875 C 308.36462 241.18934 308.35415 241.18565 308.34375 241.1875 z M 306 246.59375 L 301.125 247.78125 C 301.06513 247.50804 301.0295 247.24781 301 246.96875 C 300.9658 247.58237 300.99406 248.18373 301.125 248.78125 L 306.4375 247.5 L 306 246.59375 z "
         id="path4600" />
      <path
         style="font-size:medium;font-style:normal;font-variant:normal;font-weight:normal;font-stretch:normal;text-indent:0;text-align:start;text-decoration:none;line-height:normal;letter-spacing:normal;word-spacing:normal;text-transform:none;direction:ltr;block-progression:tb;writing-mode:lr-tb;text-anchor:start;baseline-shift:baseline;color:#bebebe;fill:#ffffff;fill-opacity:1;stroke:none;stroke-width:2;marker:none;visibility:visible;display:inline;overflow:visible;enable-background:accumulate;font-family:Sans;-inkscape-font-specification:Sans;opacity:0.6"
         d="M 300 226 C 296.6933 226 294 228.69329 294 232 L 294 233 C 294 229.69329 296.6933 227 300 227 L 324 227 C 327.3067 227 330 229.6933 330 233 L 330 232 C 330 228.6933 327.3067 226 324 226 L 300 226 z M 296 256 L 296 257 C 296 259.23329 297.7667 261 300 261 L 324 261 C 326.2333 261 328 259.2333 328 257 L 328 256 C 328 258.2333 326.2333 260 324 260 L 300 260 C 297.7667 260 296 258.23329 296 256 z "
         id="rect4602" />
      <path
         style="fill:#ffffff;fill-opacity:1;fill-rule:evenodd;stroke:none;display:inline;enable-background:new;opacity:0.6"
         d="M 427.5625 62.40625 C 426.67859 62.524243 425.86283 62.723185 425.09375 62.96875 L 425.5 63.84375 C 426.15423 63.658075 426.83052 63.503962 427.5625 63.40625 L 428.46875 65.09375 C 428.56621 65.07744 428.68275 65.04594 428.78125 65.03125 C 431.51312 64.618738 434.16192 64.610198 436.625 65.1875 C 439.09084 65.673836 441.35023 66.733695 442.4375 67.9375 L 442.5 67.90625 L 443 67.78125 C 442.8893 67.51787 442.71442 67.248628 442.5 67 C 441.43697 65.769412 439.13567 64.682678 436.625 64.1875 C 434.16192 63.610198 431.51312 63.618738 428.78125 64.03125 C 428.68275 64.04594 428.56621 64.07744 428.46875 64.09375 L 427.5625 62.40625 z M 425.5625 64.9375 C 424.32783 65.472127 423.2884 66.182096 422.53125 67.03125 C 421.43661 68.276769 420.88873 69.786262 421.03125 71.3125 C 421.15641 70.138066 421.67628 69.004066 422.53125 68.03125 C 423.36776 67.093087 424.52471 66.297229 425.9375 65.75 L 425.5625 64.9375 z M 432.625 66.1875 C 431.95412 66.169294 431.17866 66.209104 430.375 66.3125 L 430.65625 66.875 C 431.55701 66.7515 432.35811 66.708887 433.0625 66.75 L 434.53125 69.09375 L 438.0625 68.25 C 437.79625 67.989336 437.45153 67.740207 437.09375 67.5 L 434.53125 68.09375 L 433.375 66.25 C 433.12892 66.226524 432.89057 66.194707 432.625 66.1875 z M 429.75 66.40625 C 429.67349 66.41893 429.60895 66.423641 429.53125 66.4375 C 429.42958 66.45598 429.348 66.48112 429.25 66.5 L 431.09375 69.9375 L 431.625 70.90625 L 432.09375 70.78125 L 431.09375 68.9375 L 429.75 66.40625 z M 427.84375 69.6875 L 424.75 70.46875 C 424.71715 70.318833 424.70681 70.152738 424.6875 70 C 424.62835 70.483711 424.64645 70.99624 424.75 71.46875 L 428.28125 70.59375 L 427.84375 69.6875 z "
         id="path4606" />
      <path
         style="font-size:medium;font-style:normal;font-variant:normal;font-weight:normal;font-stretch:normal;text-indent:0;text-align:start;text-decoration:none;line-height:normal;letter-spacing:normal;word-spacing:normal;text-transform:none;direction:ltr;block-progression:tb;writing-mode:lr-tb;text-anchor:start;baseline-shift:baseline;color:#bebebe;fill:#ffffff;fill-opacity:1;stroke:none;stroke-width:2;marker:none;visibility:visible;display:inline;overflow:visible;enable-background:accumulate;font-family:Sans;-inkscape-font-specification:Sans;opacity:0.6"
         d="M 424 56 C 421.8013 56 420 57.801297 420 60 L 420 61 C 420 58.801297 421.8013 57 424 57 L 440 57 C 442.1987 57 444 58.801297 444 61 L 444 60 C 444 57.801297 442.1987 56 440 56 L 424 56 z M 422 76 L 422 77 C 422 78.125297 422.8747 79 424 79 L 440 79 C 441.1253 79 442 78.125297 442 77 L 442 76 C 442 77.125297 441.1253 78 440 78 L 424 78 C 422.8747 78 422 77.125297 422 76 z "
         id="rect4608" />
      <path
         style="fill:#ffffff;fill-opacity:1;fill-rule:evenodd;stroke:none;display:inline;enable-background:new;opacity:0.6"
         d="M 421.40625 144.75 C 420.89064 144.8188 420.41738 144.91926 419.96875 145.0625 L 420.375 145.9375 C 420.70464 145.85217 421.04433 145.79829 421.40625 145.75 L 421.9375 146.71875 C 421.99435 146.70925 422.0675 146.6965 422.125 146.6875 C 422.22978 146.67168 422.33306 146.67008 422.4375 146.65625 L 422.375 146.53125 C 422.4322 146.52025 422.50319 146.5108 422.5625 146.5 C 424.11515 146.22304 425.24663 146.37653 426.09375 146.6875 C 426.29712 146.72101 426.51973 146.7346 426.71875 146.78125 C 427.93229 147.02059 429.01394 147.49637 429.71875 148.0625 L 430.125 147.9375 L 430.40625 147.875 C 430.34165 147.72136 430.25008 147.55128 430.125 147.40625 C 429.5049 146.6884 428.18331 146.0701 426.71875 145.78125 C 425.28195 145.44449 423.71859 145.44683 422.125 145.6875 C 422.0675 145.6965 421.99435 145.70925 421.9375 145.71875 L 421.40625 144.75 z M 420.0625 146.28125 C 419.41994 146.5836 418.87434 146.98262 418.46875 147.4375 C 417.77228 148.22998 417.45115 149.18327 417.625 150.15625 C 417.7309 149.53947 418.01607 148.95258 418.46875 148.4375 C 418.95672 147.89023 419.64462 147.44421 420.46875 147.125 L 420.0625 146.28125 z M 424.375 147.34375 C 424.0401 147.33466 423.64125 147.36418 423.25 147.40625 L 423.4375 147.71875 C 423.87025 147.67094 424.27464 147.66709 424.625 147.6875 L 425.46875 149.0625 L 427.53125 148.5625 C 427.2555 148.29254 426.89123 148.02431 426.4375 147.8125 L 425.46875 148.0625 L 425.0625 147.40625 C 424.83943 147.37484 424.62804 147.35062 424.375 147.34375 z M 422.875 147.46875 C 422.76754 147.48454 422.67412 147.48009 422.5625 147.5 C 422.50319 147.5108 422.4322 147.52025 422.375 147.53125 L 423.46875 149.53125 L 423.59375 149.75 L 423.96875 149.65625 L 423.84375 149.4375 L 422.90625 147.78125 C 422.9602 147.77205 423.00976 147.78934 423.0625 147.78125 L 422.875 147.46875 z M 421.375 149.03125 L 419.78125 149.4375 C 419.77689 149.41758 419.78524 149.39502 419.78125 149.375 C 419.69574 149.72786 419.70488 150.08902 419.78125 150.4375 L 421.8125 149.9375 L 421.375 149.03125 z "
         id="path4612" />
      <path
         style="font-size:medium;font-style:normal;font-variant:normal;font-weight:normal;font-stretch:normal;text-indent:0;text-align:start;text-decoration:none;line-height:normal;letter-spacing:normal;word-spacing:normal;text-transform:none;direction:ltr;block-progression:tb;writing-mode:lr-tb;text-anchor:start;baseline-shift:baseline;color:#bebebe;fill:#ffffff;fill-opacity:1;stroke:none;stroke-width:1;marker:none;visibility:visible;display:inline;overflow:visible;enable-background:accumulate;font-family:Sans;-inkscape-font-specification:Sans;opacity:0.6"
         d="M 419 141 C 417.90064 141 417 141.90065 417 143 L 417 144 C 417 142.90065 417.90064 142 419 142 L 429 142 C 430.09936 142 431 142.90065 431 144 L 431 143 C 431 141.90065 430.09936 141 429 141 L 419 141 z M 418 153 L 418 154 C 418 154.56265 418.43734 155 419 155 L 429 155 C 429.56266 155 430 154.56265 430 154 L 430 153 C 430 153.56265 429.56266 154 429 154 L 419 154 C 418.43734 154 418 153.56265 418 153 z "
         id="rect4614" />
      <path
         style="fill:#ffffff;fill-opacity:1;fill-rule:evenodd;stroke:none;display:inline;enable-background:new;opacity:0.6"
         d="M 424.6875 107.8125 C 424.02457 107.901 423.38931 108.03457 422.8125 108.21875 L 423.25 109.09375 C 423.7039 108.97127 424.18499 108.87958 424.6875 108.8125 L 425.34375 110.0625 C 425.41684 110.0503 425.51985 110.04225 425.59375 110.03125 C 427.64265 109.72186 429.62144 109.69202 431.46875 110.125 C 433.18057 110.46262 434.75214 111.18008 435.625 112 L 435.875 111.9375 L 436.25 111.84375 C 436.167 111.64621 436.03581 111.43647 435.875 111.25 C 435.07772 110.32706 433.35175 109.49638 431.46875 109.125 C 429.62144 108.69202 427.64265 108.72186 425.59375 109.03125 C 425.51985 109.04225 425.41684 109.0503 425.34375 109.0625 L 424.6875 107.8125 z M 423.0625 109.75 C 422.19194 110.14476 421.44857 110.67303 420.90625 111.28125 C 420.03717 112.27013 419.60135 113.47389 419.78125 114.6875 C 419.88252 113.82046 420.27432 113.00028 420.90625 112.28125 C 421.53363 111.57763 422.40916 110.97293 423.46875 110.5625 L 423.0625 109.75 z M 428.46875 110.875 C 427.9893 110.86199 427.44467 110.89936 426.875 110.96875 L 427.125 111.375 C 427.73815 111.2993 428.32439 111.28402 428.8125 111.3125 L 429.90625 113.0625 L 432.53125 112.4375 C 432.26441 112.17626 431.95497 111.88361 431.5625 111.65625 L 429.90625 112.0625 L 429.21875 110.9375 C 428.97418 110.90785 428.74031 110.88237 428.46875 110.875 z M 426.4375 111.03125 C 426.34051 111.04644 426.25582 111.04474 426.15625 111.0625 C 426.07999 111.0764 426.011 111.1108 425.9375 111.125 L 427.3125 113.6875 L 427.59375 114.21875 L 428.0625 114.09375 L 427.78125 113.5625 L 427.3125 112.6875 L 426.59375 111.4375 C 426.60469 111.43563 426.6141 111.43933 426.625 111.4375 L 426.4375 111.03125 z M 424.78125 113.3125 L 422.5625 113.84375 C 422.54652 113.77082 422.5431 113.6989 422.53125 113.625 C 422.46059 114.02954 422.47555 114.44697 422.5625 114.84375 L 425.1875 114.21875 L 424.78125 113.3125 z "
         id="path4618" />
      <path
         style="font-size:medium;font-style:normal;font-variant:normal;font-weight:normal;font-stretch:normal;text-indent:0;text-align:start;text-decoration:none;line-height:normal;letter-spacing:normal;word-spacing:normal;text-transform:none;direction:ltr;block-progression:tb;writing-mode:lr-tb;text-anchor:start;baseline-shift:baseline;color:#bebebe;fill:#ffffff;fill-opacity:1;stroke:none;stroke-width:1;marker:none;visibility:visible;display:inline;overflow:visible;enable-background:accumulate;font-family:Sans;-inkscape-font-specification:Sans;opacity:0.6"
         d="M 422 103 C 420.34665 103 419 104.34665 419 106 L 419 107 C 419 105.51029 420.10542 104.2935 421.53125 104.0625 C 421.68313 104.02645 421.83599 104 422 104 L 434 104 C 434.16364 104 434.31213 104.03713 434.46875 104.0625 C 435.89458 104.2935 437 105.51029 437 107 L 437 106 C 437 104.34665 435.65335 103 434 103 L 422 103 z M 420 118 L 420 119 C 420 119.95264 420.64904 120.72809 421.53125 120.9375 C 421.68313 120.97355 421.83599 121 422 121 L 434 121 C 434.16364 121 434.31213 120.96287 434.46875 120.9375 C 435.35096 120.72809 436 119.95264 436 119 L 436 118 C 436 119.11665 435.11665 120 434 120 L 422 120 C 420.88335 120 420 119.11665 420 118 z "
         id="rect4620" />
    </g>
    <g
       inkscape:groupmode="layer"
       id="layer5"
       inkscape:label="Highlights"
       style="display:inline"
       sodipodi:insensitive="true">
      <path
         style="opacity:0.12999998;color:#bebebe;fill:#ffffff;fill-opacity:1;fill-rule:nonzero;stroke:none;stroke-width:0;marker:none;visibility:visible;display:inline;overflow:visible;enable-background:accumulate"
         d="M 84,47 C 56.836703,47 35,68.836703 35,96 l 0,1 C 35,69.836703 56.836703,48 84,48 l 120,0 c 27.1633,0 49,21.836703 49,49 l 0,-1 C 253,68.836703 231.1633,47 204,47 L 84,47 z"
         id="rect3894"
         inkscape:connector-curvature="0" />
      <path
         style="opacity:0.12999998;color:#bebebe;fill:#ffffff;fill-opacity:1;fill-rule:nonzero;stroke:none;stroke-width:0;marker:none;visibility:visible;display:inline;overflow:visible;enable-background:accumulate"
         d="m 419,141 c -1.1253,0 -2,0.8747 -2,2 l 0,1 c 0,-1.1253 0.8747,-2 2,-2 l 10,0 c 1.1253,0 2,0.8747 2,2 l 0,-1 c 0,-1.1253 -0.8747,-2 -2,-2 l -10,0 z"
         id="rect3896"
         inkscape:connector-curvature="0" />
      <path
         style="opacity:0.12999998;color:#bebebe;fill:#ffffff;fill-opacity:1;fill-rule:nonzero;stroke:none;stroke-width:0;marker:none;visibility:visible;display:inline;overflow:visible;enable-background:accumulate"
         d="m 422,102 c -2.2333,0 -4,1.7667 -4,4 l 0,1 c 0,-2.2333 1.7667,-4 4,-4 l 12,0 c 2.2333,0 4,1.7667 4,4 l 0,-1 c 0,-2.2333 -1.7667,-4 -4,-4 l -12,0 z"
         id="rect3898"
         inkscape:connector-curvature="0" />
      <path
         style="opacity:0.12999998;color:#bebebe;fill:#ffffff;fill-opacity:1;fill-rule:nonzero;stroke:none;stroke-width:0;marker:none;visibility:visible;display:inline;overflow:visible;enable-background:accumulate"
         d="m 424,54 c -3.3413,0 -6,2.658703 -6,6 l 0,1 c 0,-3.341297 2.6587,-6 6,-6 l 16,0 c 3.3413,0 6,2.658703 6,6 l 0,-1 c 0,-3.341297 -2.6587,-6 -6,-6 l -16,0 z"
         id="rect3900"
         inkscape:connector-curvature="0" />
      <path
         style="opacity:0.12999998;color:#bebebe;fill:#ffffff;fill-opacity:1;fill-rule:nonzero;stroke:none;stroke-width:0;marker:none;visibility:visible;display:inline;overflow:visible;enable-background:accumulate"
         d="m 300,224 c -4.4493,0 -8,3.5507 -8,8 l 0,1 c 0,-4.4493 3.5507,-8 8,-8 l 24,0 c 4.4493,0 8,3.5507 8,8 l 0,-1 c 0,-4.4493 -3.5507,-8 -8,-8 l -24,0 z"
         id="rect3902"
         inkscape:connector-curvature="0" />
      <path
         style="opacity:0.12999998;color:#bebebe;fill:#ffffff;fill-opacity:1;fill-rule:nonzero;stroke:none;stroke-width:0;marker:none;visibility:visible;display:inline;overflow:visible;enable-background:accumulate"
         d="m 310,33 c -9.4353,0 -17,7.564703 -17,17 l 0,1 c 0,-9.435297 7.5647,-17 17,-17 l 52,0 c 9.4353,0 17,7.564703 17,17 l 0,-1 c 0,-9.435297 -7.5647,-17 -17,-17 l -52,0 z"
         id="rect3904"
         inkscape:connector-curvature="0" />
      <path
         style="opacity:0.12999998;color:#bebebe;fill:#ffffff;fill-opacity:1;fill-rule:nonzero;stroke:none;stroke-width:0;marker:none;visibility:visible;display:inline;overflow:visible;enable-background:accumulate"
         d="m 302.5,143 c -6.3883,0 -11.5,5.1117 -11.5,11.5 l 0,1 c 0,-6.3883 5.1117,-11.5 11.5,-11.5 l 35,0 c 6.3883,0 11.5,5.1117 11.5,11.5 l 0,-1 c 0,-6.3883 -5.1117,-11.5 -11.5,-11.5 l -35,0 z"
         id="rect3906"
         inkscape:connector-curvature="0" />
      <path
         id="path4085"
         d="m 204,266 c 27.1633,0 49,-21.8367 49,-49 l 0,-1 c 0,27.1633 -21.8367,49 -49,49 L 84,265 C 56.8367,265 35,243.1633 35,216 l 0,1 c 0,27.1633 21.8367,49 49,49 l 120,0 z"
         style="opacity:0.5;color:#bebebe;fill:#000000;fill-opacity:1;fill-rule:nonzero;stroke:none;stroke-width:0;marker:none;visibility:visible;display:inline;overflow:visible;enable-background:accumulate"
         inkscape:connector-curvature="0" />
      <path
         id="path4087"
         d="m 429,156 c 1.1253,0 2,-0.8747 2,-2 l 0,-1 c 0,1.1253 -0.8747,2 -2,2 l -10,0 c -1.1253,0 -2,-0.8747 -2,-2 l 0,1 c 0,1.1253 0.8747,2 2,2 l 10,0 z"
         style="opacity:0.3;color:#bebebe;fill:#000000;fill-opacity:1;fill-rule:nonzero;stroke:none;stroke-width:0;marker:none;visibility:visible;display:inline;overflow:visible;enable-background:accumulate"
         inkscape:connector-curvature="0" />
      <path
         id="path4089"
         d="m 434,123 c 2.2333,0 4,-1.7667 4,-4 l 0,-1 c 0,2.2333 -1.7667,4 -4,4 l -12,0 c -2.2333,0 -4,-1.7667 -4,-4 l 0,1 c 0,2.2333 1.7667,4 4,4 l 12,0 z"
         style="opacity:0.3;color:#bebebe;fill:#000000;fill-opacity:1;fill-rule:nonzero;stroke:none;stroke-width:0;marker:none;visibility:visible;display:inline;overflow:visible;enable-background:accumulate"
         inkscape:connector-curvature="0" />
      <path
         id="path4091"
         d="m 440,83 c 3.3413,0 6,-2.6587 6,-6 l 0,-1 c 0,3.3413 -2.6587,6 -6,6 l -16,0 c -3.3413,0 -6,-2.6587 -6,-6 l 0,1 c 0,3.3413 2.6587,6 6,6 l 16,0 z"
         style="opacity:0.5;color:#bebebe;fill:#000000;fill-opacity:1;fill-rule:nonzero;stroke:none;stroke-width:0;marker:none;visibility:visible;display:inline;overflow:visible;enable-background:accumulate"
         inkscape:connector-curvature="0" />
      <path
         id="path4093"
         d="m 324,265 c 4.4493,0 8,-3.5507 8,-8 l 0,-1 c 0,4.4493 -3.5507,8 -8,8 l -24,0 c -4.4493,0 -8,-3.5507 -8,-8 l 0,1 c 0,4.4493 3.5507,8 8,8 l 24,0 z"
         style="opacity:0.5;color:#bebebe;fill:#000000;fill-opacity:1;fill-rule:nonzero;stroke:none;stroke-width:0;marker:none;visibility:visible;display:inline;overflow:visible;enable-background:accumulate"
         inkscape:connector-curvature="0" />
      <path
         id="path4095"
         d="m 362,120 c 9.4353,0 17,-7.5647 17,-17 l 0,-1 c 0,9.4353 -7.5647,17 -17,17 l -52,0 c -9.4353,0 -17,-7.5647 -17,-17 l 0,1 c 0,9.4353 7.5647,17 17,17 l 52,0 z"
         style="opacity:0.5;color:#bebebe;fill:#000000;fill-opacity:1;fill-rule:nonzero;stroke:none;stroke-width:0;marker:none;visibility:visible;display:inline;overflow:visible;enable-background:accumulate"
         inkscape:connector-curvature="0" />
      <path
         id="path4097"
         d="m 337.5,202 c 6.3883,0 11.5,-5.1117 11.5,-11.5 l 0,-1 c 0,6.3883 -5.1117,11.5 -11.5,11.5 l -35,0 c -6.3883,0 -11.5,-5.1117 -11.5,-11.5 l 0,1 c 0,6.3883 5.1117,11.5 11.5,11.5 l 35,0 z"
         style="opacity:0.5;color:#bebebe;fill:#000000;fill-opacity:1;fill-rule:nonzero;stroke:none;stroke-width:0;marker:none;visibility:visible;display:inline;overflow:visible;enable-background:accumulate"
         inkscape:connector-curvature="0" />
      <path
         inkscape:connector-curvature="0"
         id="path4280"
         d="M 84,265 C 56.836703,265 35,243.1633 35,216 l 0,-1 c 0,27.1633 21.836703,49 49,49 l 120,0 c 27.1633,0 49,-21.8367 49,-49 l 0,1 c 0,27.1633 -21.8367,49 -49,49 l -120,0 z"
         style="opacity:0.1;color:#bebebe;fill:#ffffff;fill-opacity:1;fill-rule:nonzero;stroke:none;stroke-width:0;marker:none;visibility:visible;display:inline;overflow:visible;enable-background:accumulate" />
      <path
         style="opacity:0.1;color:#bebebe;fill:#ffffff;fill-opacity:1;fill-rule:nonzero;stroke:none;stroke-width:0;marker:none;visibility:visible;display:inline;overflow:visible;enable-background:accumulate"
         d="m 300,264 c -4.4493,0 -8,-3.5507 -8,-8 l 0,-1 c 0,4.4493 3.5507,8 8,8 l 24,0 c 4.4493,0 8,-3.5507 8,-8 l 0,1 c 0,4.4493 -3.5507,8 -8,8 l -24,0 z"
         id="path4294"
         inkscape:connector-curvature="0" />
      <path
         style="opacity:0.1;color:#bebebe;fill:#ffffff;fill-opacity:1;fill-rule:nonzero;stroke:none;stroke-width:0;marker:none;visibility:visible;display:inline;overflow:visible;enable-background:accumulate"
         d="m 302.5,201 c -6.3883,0 -11.5,-5.1117 -11.5,-11.5 l 0,-1 c 0,6.3883 5.1117,11.5 11.5,11.5 l 35,0 c 6.3883,0 11.5,-5.1117 11.5,-11.5 l 0,1 c 0,6.3883 -5.1117,11.5 -11.5,11.5 l -35,0 z"
         id="path4296"
         inkscape:connector-curvature="0" />
      <path
         style="opacity:0.1;color:#bebebe;fill:#ffffff;fill-opacity:1;fill-rule:nonzero;stroke:none;stroke-width:0;marker:none;visibility:visible;display:inline;overflow:visible;enable-background:accumulate"
         d="m 310,119 c -9.4353,0 -17,-7.5647 -17,-17 l 0,-1 c 0,9.4353 7.5647,17 17,17 l 52,0 c 9.4353,0 17,-7.5647 17,-17 l 0,1 c 0,9.4353 -7.5647,17 -17,17 l -52,0 z"
         id="path4298"
         inkscape:connector-curvature="0" />
      <path
         style="opacity:0.1;color:#bebebe;fill:#ffffff;fill-opacity:1;fill-rule:nonzero;stroke:none;stroke-width:0;marker:none;visibility:visible;display:inline;overflow:visible;enable-background:accumulate"
         d="m 424,82 c -3.3413,0 -6,-2.658703 -6,-6 l 0,-1 c 0,3.341297 2.6587,6 6,6 l 16,0 c 3.3413,0 6,-2.658703 6,-6 l 0,1 c 0,3.341297 -2.6587,6 -6,6 l -16,0 z"
         id="path4300"
         inkscape:connector-curvature="0" />
      <path
         style="opacity:0.1;color:#bebebe;fill:#ffffff;fill-opacity:1;fill-rule:nonzero;stroke:none;stroke-width:0;marker:none;visibility:visible;display:inline;overflow:visible;enable-background:accumulate"
         d="m 422,122 c -2.2333,0 -4,-1.7667 -4,-4 l 0,-1 c 0,2.2333 1.7667,4 4,4 l 12,0 c 2.2333,0 4,-1.7667 4,-4 l 0,1 c 0,2.2333 -1.7667,4 -4,4 l -12,0 z"
         id="path4302"
         inkscape:connector-curvature="0" />
      <path
         style="opacity:0.1;color:#bebebe;fill:#ffffff;fill-opacity:1;fill-rule:nonzero;stroke:none;stroke-width:0;marker:none;visibility:visible;display:inline;overflow:visible;enable-background:accumulate"
         d="m 419,154.5 c -1.1253,0 -2,-0.8747 -2,-2 l 0,-1 c 0,1.1253 0.8747,2 2,2 l 10,0 c 1.1253,0 2,-0.8747 2,-2 l 0,1 c 0,1.1253 -0.8747,2 -2,2 l -10,0 z"
         id="path4304"
         inkscape:connector-curvature="0" />
    </g>
    <g
       inkscape:groupmode="layer"
       id="layer3"
       inkscape:label="Border"
       style="display:inline"
       sodipodi:insensitive="true">
      <path
         style="opacity:0.41000001;color:#bebebe;fill:#000000;fill-opacity:1;fill-rule:nonzero;stroke:none;stroke-width:0;marker:none;visibility:visible;display:inline;overflow:visible;enable-background:accumulate"
         d="m 422,101 c -2.77,0 -5,2.23 -5,5 l 0,12 c 0,2.77 2.23,5 5,5 l 12,0 c 2.77,0 5,-2.23 5,-5 l 0,-12 c 0,-2.77 -2.23,-5 -5,-5 l -12,0 z m 0,1 12,0 c 2.2333,0 4,1.7667 4,4 l 0,12 c 0,2.2333 -1.7667,4 -4,4 l -12,0 c -2.2333,0 -4,-1.7667 -4,-4 l 0,-12 c 0,-2.2333 1.7667,-4 4,-4 z"
         id="rect4099"
         inkscape:connector-curvature="0" />
      <path
         style="opacity:0.41000001;color:#bebebe;fill:#000000;fill-opacity:1;fill-rule:nonzero;stroke:none;stroke-width:0;marker:none;visibility:visible;display:inline;overflow:visible;enable-background:accumulate"
         d="m 424,53 c -3.878,0 -7,3.122 -7,7 l 0,16 c 0,3.878 3.122,7 7,7 l 16,0 c 3.878,0 7,-3.122 7,-7 l 0,-16 c 0,-3.878 -3.122,-7 -7,-7 l -16,0 z m 0,1 16,0 c 3.3413,0 6,2.658703 6,6 l 0,16 c 0,3.341297 -2.6587,6 -6,6 l -16,0 c -3.3413,0 -6,-2.658703 -6,-6 l 0,-16 c 0,-3.341297 2.6587,-6 6,-6 z"
         id="rect4151"
         inkscape:connector-curvature="0" />
      <path
         style="opacity:0.41000001;color:#bebebe;fill:#000000;fill-opacity:1;fill-rule:nonzero;stroke:none;stroke-width:0;marker:none;visibility:visible;display:inline;overflow:visible;enable-background:accumulate"
         d="m 419,140 c -1.662,0 -3,1.338 -3,3 l 0,10 c 0,1.662 1.338,3 3,3 l 10,0 c 1.662,0 3,-1.338 3,-3 l 0,-10 c 0,-1.662 -1.338,-3 -3,-3 l -10,0 z m 0,1 10,0 c 1.1253,0 2,0.8747 2,2 l 0,10 c 0,1.1253 -0.8747,2 -2,2 l -10,0 c -1.1253,0 -2,-0.8747 -2,-2 l 0,-10 c 0,-1.1253 0.8747,-2 2,-2 z"
         id="rect4095"
         inkscape:connector-curvature="0" />
      <path
         style="opacity:0.41000001;color:#bebebe;fill:#000000;fill-opacity:1;fill-rule:nonzero;stroke:none;stroke-width:0;marker:none;visibility:visible;display:inline;overflow:visible;enable-background:accumulate"
         d="m 300,223 c -4.986,0 -9,4.014 -9,9 l 0,24 c 0,4.986 4.014,9 9,9 l 24,0 c 4.986,0 9,-4.014 9,-9 l 0,-24 c 0,-4.986 -4.014,-9 -9,-9 l -24,0 z m 0,1 24,0 c 4.4493,0 8,3.5507 8,8 l 0,24 c 0,4.4493 -3.5507,8 -8,8 l -24,0 c -4.4493,0 -8,-3.5507 -8,-8 l 0,-24 c 0,-4.4493 3.5507,-8 8,-8 z"
         id="rect4783"
         inkscape:connector-curvature="0" />
      <path
         style="opacity:0.41000001;color:#bebebe;fill:#000000;fill-opacity:1;fill-rule:nonzero;stroke:none;stroke-width:0;marker:none;visibility:visible;display:inline;overflow:visible;enable-background:accumulate"
         d="m 302.5,142 c -6.925,0 -12.5,5.575 -12.5,12.5 l 0,35 c 0,6.925 5.575,12.5 12.5,12.5 l 35,0 c 6.925,0 12.5,-5.575 12.5,-12.5 l 0,-35 c 0,-6.925 -5.575,-12.5 -12.5,-12.5 l -35,0 z m 0,1 35,0 c 6.3883,0 11.5,5.1117 11.5,11.5 l 0,35 c 0,6.3883 -5.1117,11.5 -11.5,11.5 l -35,0 c -6.3883,0 -11.5,-5.1117 -11.5,-11.5 l 0,-35 c 0,-6.3883 5.1117,-11.5 11.5,-11.5 z"
         id="rect4515"
         inkscape:connector-curvature="0" />
      <path
         style="opacity:0.41000001;color:#bebebe;fill:#000000;fill-opacity:1;fill-rule:nonzero;stroke:none;stroke-width:0;marker:none;visibility:visible;display:inline;overflow:visible;enable-background:accumulate"
         d="m 310,32 c -9.972,0 -18,8.028 -18,18 l 0,52 c 0,9.972 8.028,18 18,18 l 52,0 c 9.972,0 18,-8.028 18,-18 l 0,-52 c 0,-9.972 -8.028,-18 -18,-18 l -52,0 z m 0,1 52,0 c 9.4353,0 17,7.564703 17,17 l 0,52 c 0,9.4353 -7.5647,17 -17,17 l -52,0 c -9.4353,0 -17,-7.5647 -17,-17 l 0,-52 c 0,-9.435297 7.5647,-17 17,-17 z"
         id="rect4511"
         inkscape:connector-curvature="0" />
      <path
         style="opacity:0.41000001;color:#bebebe;fill:#000000;fill-opacity:1;fill-rule:nonzero;stroke:none;stroke-width:0;marker:none;visibility:visible;display:inline;overflow:visible;enable-background:accumulate"
         d="M 84,46 C 56.3,46 34,68.3 34,96 l 0,120 c 0,27.7 22.3,50 50,50 l 120,0 c 27.7,0 50,-22.3 50,-50 L 254,96 C 254,68.3 231.7,46 204,46 L 84,46 z m 0,1 120,0 c 27.1633,0 49,21.836703 49,49 l 0,120 c 0,27.1633 -21.8367,49 -49,49 L 84,265 C 56.836703,265 35,243.1633 35,216 L 35,96 C 35,68.836703 56.836703,47 84,47 z"
         id="rect4040"
         inkscape:connector-curvature="0" />
    </g>
  </g>
</svg>
