<?xml version="1.0" encoding="UTF-8" standalone="no"?>
<!-- Created with Inkscape (http://www.inkscape.org/) -->

<svg
   xmlns:dc="http://purl.org/dc/elements/1.1/"
   xmlns:cc="http://creativecommons.org/ns#"
   xmlns:rdf="http://www.w3.org/1999/02/22-rdf-syntax-ns#"
   xmlns:svg="http://www.w3.org/2000/svg"
   xmlns="http://www.w3.org/2000/svg"
   xmlns:xlink="http://www.w3.org/1999/xlink"
   xmlns:sodipodi="http://sodipodi.sourceforge.net/DTD/sodipodi-0.dtd"
   xmlns:inkscape="http://www.inkscape.org/namespaces/inkscape"
   inkscape:export-ydpi="90.000000"
   inkscape:export-xdpi="90.000000"
   width="480"
   height="300"
   id="svg11300"
   sodipodi:version="0.32"
   inkscape:version="0.48.4 r9939"
   sodipodi:docname="web-yahoo.svg"
   inkscape:output_extension="org.inkscape.output.svg.inkscape"
   version="1.0"
   style="display:inline;enable-background:new"
   inkscape:export-filename="/home/sam/moka2-template.png">
  <sodipodi:namedview
     stroke="#ef2929"
     fill="#f57900"
     id="base"
     pagecolor="#ffffff"
     bordercolor="#666666"
     borderopacity="0.25490196"
     inkscape:pageopacity="0"
     inkscape:pageshadow="2"
     inkscape:zoom="1"
     inkscape:cx="119.1246"
     inkscape:cy="68.674783"
     inkscape:current-layer="layer2"
     showgrid="false"
     inkscape:grid-bbox="true"
     inkscape:document-units="px"
     inkscape:showpageshadow="false"
     inkscape:window-width="1366"
     inkscape:window-height="702"
     inkscape:window-x="0"
     inkscape:window-y="27"
     width="400px"
     height="300px"
     inkscape:snap-nodes="true"
     inkscape:snap-bbox="true"
     gridtolerance="10000"
     inkscape:object-nodes="true"
     inkscape:snap-grids="true"
     showguides="true"
     inkscape:guide-bbox="true"
     inkscape:window-maximized="1"
     inkscape:bbox-nodes="true"
     inkscape:bbox-paths="true"
     inkscape:snap-bbox-edge-midpoints="true"
     inkscape:snap-bbox-midpoints="true">
    <inkscape:grid
       spacingy="1px"
       spacingx="1px"
       id="grid5883"
       type="xygrid"
       enabled="true"
       visible="true"
       empspacing="4"
       snapvisiblegridlinesonly="true"
       dotted="false"
       color="#000000"
       opacity="0.1254902"
       empcolor="#203ef3"
       empopacity="0.36470588" />
    <inkscape:grid
       type="xygrid"
       id="grid11592"
       empspacing="8"
       visible="true"
       enabled="false"
       spacingx="0.5px"
       spacingy="0.5px"
       color="#ff0000"
       opacity="0.1254902"
       empcolor="#ff0000"
       empopacity="0.25098039"
       snapvisiblegridlinesonly="true"
       dotted="true" />
  </sodipodi:namedview>
  <defs
     id="defs3">
    <linearGradient
       id="outerBackgroundGradient">
      <stop
         style="stop-color:#5500bd;stop-opacity:1;"
         offset="0"
         id="stop3864-8-6" />
      <stop
         style="stop-color:#6c26c1;stop-opacity:1;"
         offset="1"
         id="stop3866-9-1" />
    </linearGradient>
    <linearGradient
       inkscape:collect="always"
       xlink:href="#outerBackgroundGradient"
       id="linearGradient4097"
       gradientUnits="userSpaceOnUse"
       x1="264"
       y1="280.00003"
       x2="264"
       y2="40.00005"
       gradientTransform="matrix(0.06666667,0,0,0.06666667,414.4,137.33333)" />
    <linearGradient
       inkscape:collect="always"
       xlink:href="#outerBackgroundGradient"
       id="linearGradient4101"
       gradientUnits="userSpaceOnUse"
       gradientTransform="matrix(0.0875,0,0,0.0875,414.9,97.5)"
       x1="286.85715"
       y1="302.85715"
       x2="286.85715"
       y2="28.571428" />
    <linearGradient
       inkscape:collect="always"
       xlink:href="#outerBackgroundGradient"
       id="linearGradient4153"
       gradientUnits="userSpaceOnUse"
       gradientTransform="matrix(0.11931818,0,0,0.11931818,414.13636,48.22727)"
       x1="283.80957"
       y1="299.80954"
       x2="283.80957"
       y2="31.61907" />
    <linearGradient
       inkscape:collect="always"
       xlink:href="#outerBackgroundGradient"
       id="linearGradient4869"
       gradientUnits="userSpaceOnUse"
       gradientTransform="matrix(0.175,0,0,-0.175,286.79999,-215.99997)"
       x1="281.14291"
       y1="297.14304"
       x2="281.14291"
       y2="22.857315" />
    <clipPath
       clipPathUnits="userSpaceOnUse"
       id="clipPath4891">
      <rect
         ry="9"
         y="223"
         x="307"
         height="42"
         width="42"
         id="rect4893"
         style="color:#bebebe;fill:url(#linearGradient4895);fill-opacity:1;fill-rule:nonzero;stroke:none;stroke-width:0;marker:none;visibility:visible;display:inline;overflow:visible;enable-background:accumulate"
         transform="matrix(0,1,-1,0,0,0)" />
    </clipPath>
    <linearGradient
       inkscape:collect="always"
       xlink:href="#outerBackgroundGradient"
       id="linearGradient4895"
       gradientUnits="userSpaceOnUse"
       gradientTransform="matrix(0.175,0,0,0.175,302.79999,215.99997)"
       x1="144.00006"
       y1="280.00018"
       x2="144.00006"
       y2="40.000172" />
    <clipPath
       clipPathUnits="userSpaceOnUse"
       id="clipPath4044">
      <rect
         ry="4"
         y="85"
         x="433"
         height="22"
         width="22"
         id="rect4046"
         style="color:#bebebe;fill:url(#linearGradient4048);fill-opacity:1;fill-rule:nonzero;stroke:none;stroke-width:0;marker:none;visibility:visible;display:inline;overflow:visible;enable-background:accumulate" />
    </clipPath>
    <linearGradient
       inkscape:collect="always"
       xlink:href="#outerBackgroundGradient"
       id="linearGradient4048"
       gradientUnits="userSpaceOnUse"
       gradientTransform="matrix(0.0875,0,0,0.0875,430.9,81.499996)"
       x1="149.71428"
       y1="291.42862"
       x2="149.71428"
       y2="40.000046" />
    <clipPath
       clipPathUnits="userSpaceOnUse"
       id="clipPath4089">
      <rect
         style="color:#bebebe;fill:url(#linearGradient4093);fill-opacity:1;fill-rule:nonzero;stroke:none;stroke-width:0;marker:none;visibility:visible;display:inline;overflow:visible;enable-background:accumulate"
         id="rect4091"
         width="30"
         height="30"
         x="433"
         y="37"
         ry="6" />
    </clipPath>
    <linearGradient
       inkscape:collect="always"
       xlink:href="#outerBackgroundGradient"
       id="linearGradient4093"
       gradientUnits="userSpaceOnUse"
       gradientTransform="matrix(0.11931818,0,0,0.11931818,430.13636,32.227267)"
       x1="149.71432"
       y1="291.42862"
       x2="149.71432"
       y2="40.00005" />
    <clipPath
       clipPathUnits="userSpaceOnUse"
       id="clipPath3855">
      <rect
         style="color:#bebebe;fill:url(#linearGradient3859);fill-opacity:1;fill-rule:nonzero;stroke:none;stroke-width:0;marker:none;visibility:visible;display:inline;overflow:visible;enable-background:accumulate"
         id="rect3857"
         width="16"
         height="16"
         x="304"
         y="212"
         ry="3"
         transform="matrix(0,1,-1,0,0,0)" />
    </clipPath>
    <linearGradient
       inkscape:collect="always"
       xlink:href="#outerBackgroundGradient"
       id="linearGradient3859"
       gradientUnits="userSpaceOnUse"
       gradientTransform="matrix(0.06666667,0,0,0.06666667,302.4,209.33333)"
       x1="144"
       y1="280.00003"
       x2="144"
       y2="40.00005" />
    <clipPath
       clipPathUnits="userSpaceOnUse"
       id="clipPath3862">
      <rect
         ry="50"
         y="46"
         x="34"
         height="220"
         width="220"
         id="rect3864"
         style="color:#bebebe;fill:url(#linearGradient3866);fill-opacity:1;fill-rule:nonzero;stroke:none;stroke-width:0;marker:none;visibility:visible;display:inline;overflow:visible;enable-background:accumulate" />
    </clipPath>
    <linearGradient
       inkscape:collect="always"
       xlink:href="#outerBackgroundGradient"
       id="linearGradient3866"
       gradientUnits="userSpaceOnUse"
       gradientTransform="translate(0,-4)"
       x1="144"
       y1="280"
       x2="144"
       y2="40" />
    <linearGradient
       inkscape:collect="always"
       xlink:href="#outerBackgroundGradient"
       id="linearGradient3876"
       gradientUnits="userSpaceOnUse"
       gradientTransform="translate(0,-4)"
       x1="272"
       y1="288"
       x2="272"
       y2="32" />
    <clipPath
       clipPathUnits="userSpaceOnUse"
       id="clipPath4187">
      <rect
         ry="12.5"
         y="142"
         x="290"
         height="60"
         width="60"
         id="rect4189"
         style="color:#bebebe;fill:url(#linearGradient4191);fill-opacity:1;fill-rule:nonzero;stroke:none;stroke-width:0;marker:none;visibility:visible;display:inline;overflow:visible;enable-background:accumulate" />
    </clipPath>
    <linearGradient
       inkscape:collect="always"
       xlink:href="#outerBackgroundGradient"
       id="linearGradient4191"
       gradientUnits="userSpaceOnUse"
       x1="352"
       y1="204"
       x2="352"
       y2="140" />
    <linearGradient
       inkscape:collect="always"
       xlink:href="#outerBackgroundGradient"
       id="linearGradient4197"
       gradientUnits="userSpaceOnUse"
       x1="384"
       y1="124"
       x2="384"
       y2="28" />
    <linearGradient
       inkscape:collect="always"
       xlink:href="#outerBackgroundGradient"
       id="linearGradient4199"
       gradientUnits="userSpaceOnUse"
       x1="352"
       y1="204"
       x2="352"
       y2="140" />
    <clipPath
       clipPathUnits="userSpaceOnUse"
       id="clipPath4346">
      <rect
         style="color:#bebebe;fill:url(#linearGradient4350);fill-opacity:1;fill-rule:nonzero;stroke:none;stroke-width:0;marker:none;visibility:visible;display:inline;overflow:visible;enable-background:accumulate"
         id="rect4348"
         width="88"
         height="88"
         x="292"
         y="32"
         ry="18" />
    </clipPath>
    <linearGradient
       inkscape:collect="always"
       xlink:href="#outerBackgroundGradient"
       id="linearGradient4350"
       gradientUnits="userSpaceOnUse"
       x1="384"
       y1="124"
       x2="384"
       y2="28" />
    <clipPath
       clipPathUnits="userSpaceOnUse"
       id="clipPath3871">
      <rect
         ry="5"
         y="101"
         x="417"
         height="22"
         width="22"
         id="rect3873"
         style="color:#bebebe;fill:url(#linearGradient3875);fill-opacity:1;fill-rule:nonzero;stroke:none;stroke-width:0;marker:none;visibility:visible;display:inline;overflow:visible;enable-background:accumulate" />
    </clipPath>
    <linearGradient
       inkscape:collect="always"
       xlink:href="#outerBackgroundGradient"
       id="linearGradient3875"
       gradientUnits="userSpaceOnUse"
       gradientTransform="matrix(0.0875,0,0,0.0875,414.9,97.5)"
       x1="286.85715"
       y1="302.85715"
       x2="286.85715"
       y2="28.571428" />
    <clipPath
       clipPathUnits="userSpaceOnUse"
       id="clipPath3881">
      <rect
         style="color:#bebebe;fill:url(#linearGradient3885);fill-opacity:1;fill-rule:nonzero;stroke:none;stroke-width:0;marker:none;visibility:visible;display:inline;overflow:visible;enable-background:accumulate"
         id="rect3883"
         width="30"
         height="30"
         x="417"
         y="53"
         ry="7" />
    </clipPath>
    <linearGradient
       inkscape:collect="always"
       xlink:href="#outerBackgroundGradient"
       id="linearGradient3885"
       gradientUnits="userSpaceOnUse"
       gradientTransform="matrix(0.11931818,0,0,0.11931818,414.13636,48.22727)"
       x1="283.80957"
       y1="299.80954"
       x2="283.80957"
       y2="31.61907" />
  </defs>
  <metadata
     id="metadata4">
    <rdf:RDF>
      <cc:Work
         rdf:about="">
        <dc:format>image/svg+xml</dc:format>
        <dc:type
           rdf:resource="http://purl.org/dc/dcmitype/StillImage" />
        <dc:creator>
          <cc:Agent>
            <dc:title>Sam Hewitt</dc:title>
          </cc:Agent>
        </dc:creator>
        <dc:source />
        <cc:license
           rdf:resource="" />
        <dc:title />
        <dc:subject>
          <rdf:Bag />
        </dc:subject>
        <dc:date />
        <dc:rights>
          <cc:Agent>
            <dc:title />
          </cc:Agent>
        </dc:rights>
        <dc:publisher>
          <cc:Agent>
            <dc:title />
          </cc:Agent>
        </dc:publisher>
        <dc:identifier />
        <dc:relation />
        <dc:language />
        <dc:coverage />
        <dc:description />
        <dc:contributor>
          <cc:Agent>
            <dc:title />
          </cc:Agent>
        </dc:contributor>
      </cc:Work>
      <cc:Work
         rdf:about="">
        <dc:format>image/svg+xml</dc:format>
        <dc:type
           rdf:resource="http://purl.org/dc/dcmitype/StillImage" />
      </cc:Work>
    </rdf:RDF>
  </metadata>
  <g
     style="display:inline"
     inkscape:groupmode="layer"
     inkscape:label="Icon"
     id="layer1">
    <g
       style="display:none"
       inkscape:label="Baseplate"
       id="layer7"
       inkscape:groupmode="layer">
      <text
         y="19.745117"
         xml:space="preserve"
         x="15.006836"
         style="font-size:18px;font-style:normal;font-variant:normal;font-weight:normal;font-stretch:normal;fill:#000000;fill-opacity:1;stroke:none;display:inline;enable-background:new;font-family:DejaVu Sans;-inkscape-font-specification:DejaVu Sans"
         inkscape:label="context"
         id="context"><tspan
           style="font-style:normal;font-variant:normal;font-weight:normal;font-stretch:normal;font-family:DejaVu Sans;-inkscape-font-specification:DejaVu Sans"
           y="19.745117"
           x="15.006836"
           sodipodi:role="line"
           id="tspan3933">web</tspan></text>
      <text
         y="19.745117"
         xml:space="preserve"
         x="122.48828"
         style="font-size:18px;font-style:normal;font-variant:normal;font-weight:bold;font-stretch:normal;text-align:start;line-height:125%;writing-mode:lr-tb;text-anchor:start;fill:#000000;fill-opacity:1;stroke:none;display:inline;enable-background:new;font-family:DejaVu Sans;-inkscape-font-specification:DejaVu Sans Bold"
         sodipodi:linespacing="125%"
         inkscape:label="icon-name"
         id="icon-name"><tspan
           style="font-size:18px;font-style:normal;font-variant:normal;font-weight:bold;font-stretch:normal;font-family:DejaVu Sans;-inkscape-font-specification:DejaVu Sans Bold"
           y="19.745117"
           x="122.48828"
           sodipodi:role="line"
           id="tspan3937">web-yahoo</tspan></text>
      <rect
         style="fill:#eeeeec;fill-opacity:1;fill-rule:nonzero;stroke:none;stroke-width:2;marker:none;visibility:visible;display:inline;overflow:visible;enable-background:accumulate"
         id="rect16x16"
         width="16"
         height="16"
         x="416"
         y="140"
         inkscape:label="16x16" />
      <rect
         style="fill:#d4d4d4;fill-opacity:1;fill-rule:nonzero;stroke:none;stroke-width:2;marker:none;visibility:visible;display:inline;overflow:visible;enable-background:accumulate"
         id="rect24x24"
         width="24"
         height="24"
         x="416"
         y="100"
         inkscape:label="24x24" />
      <rect
         style="fill:#eeeeec;fill-opacity:1;fill-rule:nonzero;stroke:none;stroke-width:2;marker:none;visibility:visible;display:inline;overflow:visible;enable-background:accumulate"
         id="rect32x32"
         width="32"
         height="32"
         x="416"
         y="52"
         inkscape:label="32x32" />
      <rect
         inkscape:label="22x22"
         y="101"
         x="417"
         height="22"
         width="22"
         id="rect22x22"
         style="fill:#eeeeec;fill-opacity:1;fill-rule:nonzero;stroke:none;stroke-width:2;marker:none;visibility:visible;display:inline;overflow:visible;enable-background:accumulate" />
      <rect
         inkscape:label="48x48"
         y="220"
         x="288"
         height="48"
         width="48"
         id="rect48x48"
         style="fill:#eeeeec;fill-opacity:1;fill-rule:nonzero;stroke:none;stroke-width:2;marker:none;visibility:visible;display:inline;overflow:visible;enable-background:accumulate" />
      <rect
         style="fill:#eeeeec;fill-opacity:1;fill-rule:nonzero;stroke:none;stroke-width:2;marker:none;visibility:visible;display:inline;overflow:visible;enable-background:accumulate"
         id="rect256x256"
         width="256"
         height="256"
         x="16"
         y="28"
         inkscape:label="256x256" />
      <rect
         style="fill:#eeeeec;fill-opacity:1;fill-rule:nonzero;stroke:none;stroke-width:2;marker:none;visibility:visible;display:inline;overflow:visible;enable-background:accumulate"
         id="rect64x64"
         width="64"
         height="64"
         x="288"
         y="140"
         inkscape:label="64x64" />
      <rect
         style="fill:#eeeeec;fill-opacity:1;fill-rule:nonzero;stroke:none;stroke-width:2;marker:none;visibility:visible;display:inline;overflow:visible;enable-background:accumulate"
         id="rect96x96"
         width="96"
         height="96"
         x="288"
         y="28"
         inkscape:label="96x96" />
    </g>
    <g
       inkscape:groupmode="layer"
       id="layer4"
       inkscape:label="Shadow"
       style="display:inline"
       sodipodi:insensitive="true">
      <rect
         style="opacity:0.0;color:#bebebe;fill:#000000;fill-opacity:1;stroke:#000000;stroke-width:1;stroke-miterlimit:4;stroke-opacity:1;stroke-dasharray:none;marker:none;visibility:visible;display:inline;overflow:visible;enable-background:accumulate"
         id="rect4156"
         width="42"
         height="42"
         x="-266.5"
         y="291"
         ry="9"
         transform="matrix(0,-1,1,0,0,0)" />
      <rect
         transform="matrix(0,-1,1,0,0,0)"
         ry="9"
         y="291"
         x="-266.5"
         height="42"
         width="40"
         id="rect4183"
         style="opacity:0.1;color:#bebebe;fill:#000000;fill-opacity:1;stroke:none;stroke-width:1;marker:none;visibility:visible;display:inline;overflow:visible;enable-background:accumulate" />
      <rect
         ry="9"
         y="237"
         x="291"
         height="29"
         width="42"
         id="rect4144"
         style="opacity:0.1;color:#bebebe;fill:#000000;fill-opacity:1;fill-rule:nonzero;stroke:none;stroke-width:0;marker:none;visibility:visible;display:inline;overflow:visible;enable-background:accumulate" />
      <rect
         style="opacity:0.0;color:#bebebe;fill:#000000;fill-opacity:1;fill-rule:nonzero;stroke:#000000;stroke-width:1;stroke-miterlimit:4;stroke-opacity:1;stroke-dasharray:none;marker:none;visibility:visible;display:inline;overflow:visible;enable-background:accumulate"
         id="rect4340"
         width="88"
         height="88"
         x="292"
         y="33.5"
         ry="18" />
      <rect
         ry="18"
         y="52.5"
         x="292"
         height="69"
         width="88"
         id="rect4338"
         style="opacity:0.1;color:#bebebe;fill:#000000;fill-opacity:1;fill-rule:nonzero;stroke:none;stroke-width:0;marker:none;visibility:visible;display:inline;overflow:visible;enable-background:accumulate" />
      <rect
         style="opacity:0.1;color:#bebebe;fill:#000000;fill-opacity:1;fill-rule:nonzero;stroke:none;stroke-width:0;marker:none;visibility:visible;display:inline;overflow:visible;enable-background:accumulate"
         id="rect4335"
         width="88"
         height="76.5"
         x="292"
         y="44.5"
         ry="18" />
      <rect
         style="opacity:0.0;color:#bebebe;fill:#000000;fill-opacity:1;fill-rule:nonzero;stroke:#000000;stroke-width:1;stroke-miterlimit:4;stroke-opacity:1;stroke-dasharray:none;marker:none;visibility:visible;display:inline;overflow:visible;enable-background:accumulate"
         id="rect4214"
         width="60"
         height="60"
         x="290"
         y="143.5"
         ry="12.5" />
      <rect
         ry="12.5"
         y="151.5"
         x="290"
         height="52"
         width="60"
         id="rect4206"
         style="opacity:0.1;color:#bebebe;fill:#000000;fill-opacity:1;fill-rule:nonzero;stroke:none;stroke-width:0;marker:none;visibility:visible;display:inline;overflow:visible;enable-background:accumulate" />
      <rect
         style="opacity:0.1;color:#bebebe;fill:#000000;fill-opacity:1;fill-rule:nonzero;stroke:none;stroke-width:0;marker:none;visibility:visible;display:inline;overflow:visible;enable-background:accumulate"
         id="rect4212"
         width="60"
         height="54.5"
         x="290"
         y="148.5"
         ry="12.5" />
      <rect
         style="opacity:0.2;color:#bebebe;fill:#000000;fill-opacity:1;fill-rule:nonzero;stroke:none;stroke-width:0;marker:none;visibility:visible;display:inline;overflow:visible;enable-background:accumulate"
         id="rect4058"
         width="30"
         height="30"
         x="417"
         y="54"
         ry="7" />
      <rect
         ry="50"
         y="48"
         x="34"
         height="220"
         width="220"
         id="rect3872"
         style="opacity:0.0;color:#bebebe;fill:#000000;fill-opacity:1;fill-rule:nonzero;stroke:#000000;stroke-width:2;stroke-miterlimit:4;stroke-opacity:1;stroke-dasharray:none;marker:none;visibility:visible;display:inline;overflow:visible;enable-background:accumulate" />
      <rect
         style="opacity:0.1;color:#bebebe;fill:#000000;fill-opacity:1;fill-rule:nonzero;stroke:none;stroke-width:0;marker:none;visibility:visible;display:inline;overflow:visible;enable-background:accumulate"
         id="rect3870"
         width="220"
         height="220"
         x="34"
         y="48"
         ry="50" />
      <rect
         ry="50"
         y="47"
         x="34"
         height="220"
         width="220"
         id="rect3868"
         style="opacity:0.1;color:#bebebe;fill:#000000;fill-opacity:1;fill-rule:nonzero;stroke:none;stroke-width:0;marker:none;visibility:visible;display:inline;overflow:visible;enable-background:accumulate" />
    </g>
    <g
       inkscape:groupmode="layer"
       id="layer2"
       inkscape:label="Background"
       style="display:inline">
      <rect
         style="color:#bebebe;fill:url(#linearGradient3876);fill-opacity:1;fill-rule:nonzero;stroke:none;stroke-width:0;marker:none;visibility:visible;display:inline;overflow:visible;enable-background:accumulate"
         id="rect4040"
         width="220"
         height="220"
         x="34"
         y="46"
         ry="50" />
      <rect
         ry="3"
         y="140"
         x="416"
         height="16"
         width="16"
         id="rect4095"
         style="color:#bebebe;fill:url(#linearGradient4097);fill-opacity:1;fill-rule:nonzero;stroke:none;stroke-width:0;marker:none;visibility:visible;display:inline;overflow:visible;enable-background:accumulate" />
      <rect
         style="color:#bebebe;fill:url(#linearGradient4101);fill-opacity:1;fill-rule:nonzero;stroke:none;stroke-width:0;marker:none;visibility:visible;display:inline;overflow:visible;enable-background:accumulate"
         id="rect4099"
         width="22"
         height="22"
         x="417"
         y="101"
         ry="5" />
      <rect
         ry="7"
         y="53"
         x="417"
         height="30"
         width="30"
         id="rect4151"
         style="color:#bebebe;fill:url(#linearGradient4153);fill-opacity:1;fill-rule:nonzero;stroke:none;stroke-width:0;marker:none;visibility:visible;display:inline;overflow:visible;enable-background:accumulate" />
      <rect
         style="color:#bebebe;fill:url(#linearGradient4869);fill-opacity:1;fill-rule:nonzero;stroke:none;stroke-width:0;marker:none;visibility:visible;display:inline;overflow:visible;enable-background:accumulate"
         id="rect4783"
         width="42"
         height="42"
         x="291"
         y="-265"
         ry="9"
         transform="scale(1,-1)" />
      <rect
         ry="18"
         y="32"
         x="292"
         height="88"
         width="88"
         id="rect4511"
         style="color:#bebebe;fill:url(#linearGradient4197);fill-opacity:1;fill-rule:nonzero;stroke:none;stroke-width:0;marker:none;visibility:visible;display:inline;overflow:visible;enable-background:accumulate" />
      <rect
         style="color:#bebebe;fill:url(#linearGradient4199);fill-opacity:1;fill-rule:nonzero;stroke:none;stroke-width:0;marker:none;visibility:visible;display:inline;overflow:visible;enable-background:accumulate"
         id="rect4515"
         width="60"
         height="60"
         x="290"
         y="142"
         ry="12.5" />
    </g>
    <g
       inkscape:groupmode="layer"
       id="layer6"
       inkscape:label="Symbols"
       style="display:inline">
      <path
         id="path3856"
         d="m 63.999567,137.43381 c 4.00313,6.0321 10.420445,17.5197 12.602674,21.29142 l -0.295305,15.72581 c 0,0 1.406454,-0.23523 2.347361,-0.23523 1.042795,0 2.342356,0.23523 2.342356,0.23523 L 80.70136,158.72523 c 4.071965,-7.14413 10.791782,-18.79779 12.637702,-21.29141 -1.75935,0.3991 -3.344566,0.41236 -4.919946,0 -1.388305,2.58589 -6.510881,10.95325 -9.769824,16.31141 -3.305252,-5.47426 -7.215673,-11.79377 -9.764819,-16.31141 -2.021211,0.43107 -2.867832,0.45851 -4.884906,0 z m 157.443303,0.38539 c -1.17249,0 -2.33235,0.6894 -2.33235,2.44747 -0.69553,8.82096 -1.42174,17.66362 -2.61263,26.08123 l 0.005,0 c 0.71567,-0.12341 1.27256,0.0584 1.81182,0.27527 l 0.005,0 c 1.35229,-8.54769 4.56337,-21.34633 5.38542,-24.9701 0.11793,-0.50937 0.2953,-1.11355 0.2953,-1.54155 0,-1.29322 -0.81998,-2.0471 -2.04707,-2.25227 0,0 -0.30502,-0.04 -0.5105,-0.04 z m -26.53168,1.36138 c -10.31762,0 -18.2083,5.85904 -18.2083,16.75185 0,8.97464 5.24961,16.87196 18.2934,16.87196 11.04297,0 18.25335,-6.06832 18.25335,-16.7118 0,-10.03678 -6.72589,-16.91201 -18.33844,-16.91201 z m -35.77096,1.76678 c -10.36057,0 -15.79588,6.56951 -15.79588,15.08516 0,9.32075 5.93414,15.00509 15.78087,15.00509 10.64561,0 15.84592,-6.40879 15.84592,-14.91 0,-9.47836 -6.21051,-15.18026 -15.83092,-15.18026 z m 35.78098,0.0551 c 7.74794,0 13.45353,4.70914 13.45353,15.09017 0,11.28474 -6.89926,14.94503 -13.43851,14.94503 -6.98656,0 -13.35343,-4.10313 -13.35343,-15.17025 0,-11.47092 7.054,-14.86495 13.33841,-14.86495 z m -96.111628,0.32533 c -3.9331,9.86947 -8.46256,21.0078 -12.537621,29.31447 l 0.01497,-0.005 c 1.86377,-0.46263 3.638705,-0.31825 4.814839,0 1.03876,-2.62496 2.22514,-5.60198 3.40843,-8.59363 l 0.005,0.005 c 4.00446,-0.11417 8.00762,-0.12976 12.01208,0 1.13879,2.86415 2.27975,5.73027 3.39342,8.59865 1.78247,-0.46537 3.55848,-0.33986 4.86988,-0.0103 -2.93662,-5.48306 -8.83258,-19.82651 -12.57763,-29.30447 l -0.025,0.0103 0.025,-0.015 c -1.21754,0.42526 -2.20736,0.4007 -3.40341,0 z m 17.737828,0.015 c 0.4253,9.78459 0.38827,19.54741 0,29.29946 1.58608,-0.38221 3.21244,-0.39912 4.87989,0 l 0.005,0 c -0.2406,-4.54655 -0.36983,-9.0896 -0.3854,-13.62871 l 0.005,0 c 5.4621,-0.0763 10.92438,-0.0784 16.38649,-0.005 -0.0155,4.54077 -0.14471,9.0855 -0.38539,13.63371 l 0.015,-0.005 c 1.66379,-0.39653 3.28715,-0.37639 4.8699,0.005 -0.3883,-9.75204 -0.42533,-19.51486 0,-29.29946 -1.6571,0.39684 -3.28535,0.38592 -4.88491,0 0.23675,4.55548 0.36341,9.11075 0.38038,13.67375 -5.46617,0.12721 -10.92682,0.13749 -16.38146,0 0.017,-4.563 0.14365,-9.11827 0.38038,-13.67375 -1.59956,0.38592 -3.22781,0.39684 -4.88492,0 z m 42.34257,1.38139 c 0.0902,-0.002 0.17978,0 0.27028,0 6.33558,0 10.98603,4.31099 10.98603,13.32839 0,9.00601 -4.64654,13.3234 -10.97602,13.3234 -6.9061,0 -10.96103,-4.95107 -10.96103,-13.29837 0,-9.44053 5.00057,-13.23706 10.68074,-13.35342 z m -58.3837,3.66368 c 1.61899,4.5128 3.40626,9.05832 5.21524,13.61869 l -0.015,-0.005 c -3.46344,0.12 -6.927018,0.12175 -10.390438,0 2.11782,-5.37165 4.12834,-10.55803 5.190188,-13.61368 z m 115.84147,23.49862 c -1.53634,0 -2.30231,1.17218 -2.30231,2.43245 0,1.48585 1.18532,2.24726 2.65267,2.24726 1.06125,0 2.22223,-0.64221 2.22223,-2.3924 0,-1.40476 -1.10204,-2.28731 -2.57259,-2.28731 z"
         style="display:inline;enable-background:new;fill:none;fill-opacity:1;stroke:#000000;stroke-opacity:1;opacity:0.05"
         inkscape:connector-curvature="0" />
      <path
         sodipodi:nodetypes="cccsccccccccccccccscccsssss"
         inkscape:connector-curvature="0"
         style="display:inline;enable-background:new;fill:none;fill-opacity:1;stroke:#000000;stroke-opacity:1;opacity:0.05"
         d="m 310.00007,51.109908 c 5.36672,8.08681 13.97,23.487471 16.89555,28.543978 l -0.39589,21.082544 c 0,0 1.88554,-0.31526 3.14695,-0.31526 1.398,0 3.14025,0.31526 3.14025,0.31526 l -0.39588,-21.082544 c 5.45902,-9.577666 14.46783,-25.200957 16.94251,-28.543978 -2.35866,0.535054 -4.48382,0.552831 -6.59582,0 -1.86124,3.466718 -8.72873,14.684289 -13.09776,21.86762 -4.43113,-7.338976 -9.67357,-15.81111 -13.09105,-21.86762 -2.70969,0.577922 -3.8447,0.614679 -6.54886,0 z m 48.5725,0.516659 c -1.57188,0 -3.12683,0.924213 -3.12683,3.28114 -0.93243,11.825686 -1.90602,23.680459 -3.50257,34.96537 l 0.006,0 c 0.95944,-0.165426 1.70604,0.07833 2.42898,0.369042 l 0.006,0 c 1.81293,-11.459308 6.11783,-28.617591 7.21989,-33.475748 0.15795,-0.682866 0.39589,-1.492872 0.39589,-2.066634 0,-1.733765 -1.09929,-2.74443 -2.74436,-3.01948 0,0 -0.40889,-0.05362 -0.6844,-0.05362 z m -6.8307,42.989746 c -2.05965,0 -3.0865,1.571459 -3.0865,3.261019 0,1.99198 1.58907,3.012758 3.55626,3.012758 1.42273,0 2.97918,-0.86097 2.97918,-3.207338 0,-1.883263 -1.47743,-3.066438 -3.44894,-3.066438 z"
         id="path3858" />
      <path
         id="path3860"
         d="m 302.00015,154.76835 c 3.71543,5.59858 9.67156,16.2606 11.69695,19.76127 l -0.27408,14.59565 c 0,0 1.30538,-0.21826 2.17867,-0.21826 0.96784,0 2.17402,0.21826 2.17402,0.21826 l -0.27407,-14.59565 c 3.77933,-6.63071 10.01622,-17.44686 11.72946,-19.76127 -1.63292,0.37042 -3.10419,0.38273 -4.56635,0 -1.28855,2.40004 -6.04298,10.16608 -9.0677,15.13917 -3.06772,-5.08085 -6.69711,-10.94619 -9.06306,-15.13917 -1.87595,0.4001 -2.66172,0.42555 -4.53384,0 z m 33.62721,0.35769 c -1.08823,0 -2.16474,0.63984 -2.16474,2.27156 -0.64553,8.18704 -1.31955,16.39421 -2.42486,24.20686 l 0.004,0 c 0.66423,-0.11452 1.18111,0.0542 1.68161,0.2555 l 0.004,0 c 1.25511,-7.93339 4.23543,-19.81224 4.9984,-23.17558 0.10935,-0.47276 0.27408,-1.03353 0.27408,-1.43076 0,-1.2003 -0.76105,-1.89999 -1.89995,-2.09041 0,0 -0.28308,-0.0371 -0.47381,-0.0371 z m -4.72896,29.76221 c -1.42592,0 -2.13682,1.08794 -2.13682,2.25764 0,1.37907 1.10013,2.08576 2.46204,2.08576 0.98497,0 2.06251,-0.59606 2.06251,-2.22047 0,-1.3038 -1.02284,-2.12293 -2.38773,-2.12293 z"
         style="display:inline;enable-background:new;fill:none;fill-opacity:1;stroke:#000000;stroke-opacity:1;opacity:0.05"
         inkscape:connector-curvature="0"
         sodipodi:nodetypes="cccsccccccccccccccscccsssss" />
      <path
         sodipodi:nodetypes="cccsccccccccccccccscccsssss"
         inkscape:connector-curvature="0"
         style="display:inline;enable-background:new;fill:none;fill-opacity:1;stroke:#000000;stroke-opacity:1;opacity:0.05"
         d="m 298.99989,231.55481 c 2.68339,4.04345 6.98507,11.74387 8.44787,14.27215 l -0.19795,10.54139 c 0,0 0.94278,-0.15762 1.5735,-0.15762 0.699,0 1.57013,0.15762 1.57013,0.15762 l -0.19794,-10.54139 c 2.72954,-4.78889 7.234,-12.60062 8.47135,-14.27215 -1.17934,0.26753 -2.24193,0.27642 -3.29795,0 -0.93062,1.73338 -4.36441,7.34223 -6.54894,10.93394 -2.2156,-3.66954 -4.83685,-7.90565 -6.5456,-10.93394 -1.35487,0.28896 -1.92237,0.30735 -3.27447,0 z m 24.28652,0.25834 c -0.78595,0 -1.56344,0.46211 -1.56344,1.64058 -0.46622,5.91291 -0.95301,11.84036 -1.7513,17.48288 l 0.003,0 c 0.47973,-0.0827 0.85303,0.0391 1.21451,0.18453 l 0.003,0 c 0.90647,-5.72972 3.05894,-14.30896 3.60998,-16.73806 0.079,-0.34144 0.19795,-0.74645 0.19795,-1.03334 0,-0.86689 -0.54965,-1.37222 -1.3722,-1.50975 0,0 -0.20445,-0.0268 -0.3422,-0.0268 z m -3.41539,21.4951 c -1.02984,0 -1.54327,0.78574 -1.54327,1.63054 0,0.996 0.79455,1.5064 1.77816,1.5064 0.71137,0 1.4896,-0.43049 1.4896,-1.6037 0,-0.94164 -0.73873,-1.53324 -1.72449,-1.53324 z"
         id="path3862" />
      <path
         id="path3864"
         d="m 422.9998,59.383909 c 1.85777,2.799375 4.83593,8.130553 5.84866,9.88094 l -0.13705,7.29805 c 0,0 0.65271,-0.109128 1.08937,-0.109128 0.48394,0 1.08704,0.109128 1.08704,0.109128 l -0.13703,-7.29805 c 1.88972,-3.315457 5.00826,-8.723702 5.86491,-9.88094 -0.81649,0.185217 -1.55214,0.191371 -2.28324,0 -0.64431,1.200058 -3.0216,5.083194 -4.534,7.569815 -1.5339,-2.540499 -3.34866,-5.47326 -4.53167,-7.569815 -0.938,0.200057 -1.33091,0.21278 -2.26699,0 z m 16.81412,0.178849 c -0.54413,0 -1.0824,0.319931 -1.0824,1.135818 -0.32277,4.093644 -0.6598,8.197358 -1.21247,12.103805 l 0.002,0 c 0.33213,-0.05727 0.59057,0.02712 0.84083,0.12775 l 0.002,0 c 0.62757,-3.966818 2.11778,-9.906423 2.49927,-11.58815 0.0546,-0.236384 0.13705,-0.516781 0.13705,-0.715397 0,-0.60017 -0.38053,-0.950027 -0.95001,-1.04524 0,0 -0.14153,-0.01856 -0.23691,-0.01856 z m -2.36455,14.881567 c -0.71298,0 -1.06844,0.543985 -1.06844,1.128853 0,0.689553 0.55009,1.042913 1.23106,1.042913 0.49249,0 1.03128,-0.298035 1.03128,-1.11027 0,-0.651921 -0.51143,-1.061495 -1.1939,-1.061495 z"
         style="fill:none;fill-opacity:1;stroke:#000000;display:inline;enable-background:new;stroke-opacity:1;opacity:0.05"
         inkscape:connector-curvature="0"
         sodipodi:nodetypes="cccsccccccccccccccscccsssss" />
      <path
         sodipodi:nodetypes="cccsccccccccccccccscccsssss"
         inkscape:connector-curvature="0"
         style="fill:none;fill-opacity:1;stroke:#000000;display:inline;enable-background:new;stroke-opacity:1;opacity:0.05"
         d="m 420.99955,105.29874 c 1.4449,2.17724 3.7612,6.32363 4.54886,7.68501 l -0.1066,5.67614 c 0,0 0.50766,-0.0849 0.84727,-0.0849 0.37639,0 0.84546,0.0849 0.84546,0.0849 l -0.10658,-5.67614 c 1.46975,-2.57864 3.89523,-6.78495 4.5615,-7.68501 -0.63503,0.14405 -1.20719,0.14885 -1.77581,0 -0.50112,0.93336 -2.35009,3.95351 -3.52637,5.88751 -1.19301,-1.9759 -2.60446,-4.25688 -3.52455,-5.88751 -0.72954,0.15561 -1.03513,0.1655 -1.76318,0 z m 13.07736,0.1391 c -0.4232,0 -0.84185,0.24883 -0.84185,0.8834 -0.25104,3.18387 -0.51317,6.37558 -0.94301,9.41386 l 0.002,0 c 0.25832,-0.0445 0.45933,0.0211 0.65397,0.0994 l 0.002,0 c 0.4881,-3.08524 1.64713,-7.70483 1.94384,-9.01281 0.0425,-0.18385 0.10659,-0.40193 0.10659,-0.55641 0,-0.46678 -0.29596,-0.73889 -0.73888,-0.81294 0,0 -0.11008,-0.0144 -0.18426,-0.0144 z m -1.83906,11.5743 c -0.55452,0 -0.83099,0.42309 -0.83099,0.87797 0,0.53631 0.42784,0.81114 0.95747,0.81114 0.38304,0 0.80209,-0.2318 0.80209,-0.86352 0,-0.50704 -0.39777,-0.82559 -0.92857,-0.82559 z"
         id="path3866" />
      <path
         id="path3868"
         d="m 418.99967,143.21391 c 1.03196,1.555 2.68626,4.51637 3.24881,5.48867 l -0.0762,4.05392 c 0,0 0.36257,-0.0607 0.60512,-0.0607 0.26882,0 0.60382,0.0607 0.60382,0.0607 l -0.0761,-4.05392 c 1.0497,-1.84167 2.78199,-4.84584 3.25784,-5.48867 -0.45354,0.10289 -0.86218,0.10632 -1.26829,0 -0.3579,0.66662 -1.67844,2.82361 -2.51854,4.20489 -0.85205,-1.4112 -1.86011,-3.04027 -2.51724,-4.20489 -0.52103,0.11114 -0.73931,0.11821 -1.25926,0 z m 9.3399,0.0994 c -0.30225,0 -0.60125,0.17772 -0.60125,0.63093 -0.1793,2.27393 -0.36652,4.55347 -0.67351,6.72342 l 0.002,0 c 0.18449,-0.0317 0.32805,0.0151 0.46706,0.071 l 0.002,0 c 0.34861,-2.20348 1.17639,-5.5028 1.3883,-6.43697 0.0303,-0.13131 0.0762,-0.28706 0.0762,-0.3974 0,-0.33336 -0.21138,-0.5277 -0.52771,-0.58059 0,0 -0.0786,-0.0103 -0.1316,-0.0103 z m -1.31347,8.26641 c -0.39603,0 -0.59349,0.30217 -0.59349,0.62705 0,0.38304 0.30556,0.57932 0.68383,0.57932 0.27357,0 0.57286,-0.16555 0.57286,-0.61673 0,-0.36213 -0.28409,-0.58964 -0.66319,-0.58964 z"
         style="fill:none;fill-opacity:1;stroke:#000000;display:inline;enable-background:new;stroke-opacity:1;opacity:0.05"
         inkscape:connector-curvature="0"
         sodipodi:nodetypes="cccsccccccccccccccscccsssss" />
      <path
         inkscape:connector-curvature="0"
         style="display:inline;enable-background:new;fill:#ffffff;fill-opacity:1;stroke:none"
         d="m 63.999567,137.43381 c 4.00313,6.0321 10.420445,17.5197 12.602674,21.29142 l -0.295305,15.72581 c 0,0 1.406454,-0.23523 2.347361,-0.23523 1.042795,0 2.342356,0.23523 2.342356,0.23523 L 80.70136,158.72523 c 4.071965,-7.14413 10.791782,-18.79779 12.637702,-21.29141 -1.75935,0.3991 -3.344566,0.41236 -4.919946,0 -1.388305,2.58589 -6.510881,10.95325 -9.769824,16.31141 -3.305252,-5.47426 -7.215673,-11.79377 -9.764819,-16.31141 -2.021211,0.43107 -2.867832,0.45851 -4.884906,0 z m 157.443303,0.38539 c -1.17249,0 -2.33235,0.6894 -2.33235,2.44747 -0.69553,8.82096 -1.42174,17.66362 -2.61263,26.08123 l 0.005,0 c 0.71567,-0.12341 1.27256,0.0584 1.81182,0.27527 l 0.005,0 c 1.35229,-8.54769 4.56337,-21.34633 5.38542,-24.9701 0.11793,-0.50937 0.2953,-1.11355 0.2953,-1.54155 0,-1.29322 -0.81998,-2.0471 -2.04707,-2.25227 0,0 -0.30502,-0.04 -0.5105,-0.04 z m -26.53168,1.36138 c -10.31762,0 -18.2083,5.85904 -18.2083,16.75185 0,8.97464 5.24961,16.87196 18.2934,16.87196 11.04297,0 18.25335,-6.06832 18.25335,-16.7118 0,-10.03678 -6.72589,-16.91201 -18.33844,-16.91201 z m -35.77096,1.76678 c -10.36057,0 -15.79588,6.56951 -15.79588,15.08516 0,9.32075 5.93414,15.00509 15.78087,15.00509 10.64561,0 15.84592,-6.40879 15.84592,-14.91 0,-9.47836 -6.21051,-15.18026 -15.83092,-15.18026 z m 35.78098,0.0551 c 7.74794,0 13.45353,4.70914 13.45353,15.09017 0,11.28474 -6.89926,14.94503 -13.43851,14.94503 -6.98656,0 -13.35343,-4.10313 -13.35343,-15.17025 0,-11.47092 7.054,-14.86495 13.33841,-14.86495 z m -96.111628,0.32533 c -3.9331,9.86947 -8.46256,21.0078 -12.537621,29.31447 l 0.01497,-0.005 c 1.86377,-0.46263 3.638705,-0.31825 4.814839,0 1.03876,-2.62496 2.22514,-5.60198 3.40843,-8.59363 l 0.005,0.005 c 4.00446,-0.11417 8.00762,-0.12976 12.01208,0 1.13879,2.86415 2.27975,5.73027 3.39342,8.59865 1.78247,-0.46537 3.55848,-0.33986 4.86988,-0.0103 -2.93662,-5.48306 -8.83258,-19.82651 -12.57763,-29.30447 l -0.025,0.0103 0.025,-0.015 c -1.21754,0.42526 -2.20736,0.4007 -3.40341,0 z m 17.737828,0.015 c 0.4253,9.78459 0.38827,19.54741 0,29.29946 1.58608,-0.38221 3.21244,-0.39912 4.87989,0 l 0.005,0 c -0.2406,-4.54655 -0.36983,-9.0896 -0.3854,-13.62871 l 0.005,0 c 5.4621,-0.0763 10.92438,-0.0784 16.38649,-0.005 -0.0155,4.54077 -0.14471,9.0855 -0.38539,13.63371 l 0.015,-0.005 c 1.66379,-0.39653 3.28715,-0.37639 4.8699,0.005 -0.3883,-9.75204 -0.42533,-19.51486 0,-29.29946 -1.6571,0.39684 -3.28535,0.38592 -4.88491,0 0.23675,4.55548 0.36341,9.11075 0.38038,13.67375 -5.46617,0.12721 -10.92682,0.13749 -16.38146,0 0.017,-4.563 0.14365,-9.11827 0.38038,-13.67375 -1.59956,0.38592 -3.22781,0.39684 -4.88492,0 z m 42.34257,1.38139 c 0.0902,-0.002 0.17978,0 0.27028,0 6.33558,0 10.98603,4.31099 10.98603,13.32839 0,9.00601 -4.64654,13.3234 -10.97602,13.3234 -6.9061,0 -10.96103,-4.95107 -10.96103,-13.29837 0,-9.44053 5.00057,-13.23706 10.68074,-13.35342 z m -58.3837,3.66368 c 1.61899,4.5128 3.40626,9.05832 5.21524,13.61869 l -0.015,-0.005 c -3.46344,0.12 -6.927018,0.12175 -10.390438,0 2.11782,-5.37165 4.12834,-10.55803 5.190188,-13.61368 z m 115.84147,23.49862 c -1.53634,0 -2.30231,1.17218 -2.30231,2.43245 0,1.48585 1.18532,2.24726 2.65267,2.24726 1.06125,0 2.22223,-0.64221 2.22223,-2.3924 0,-1.40476 -1.10204,-2.28731 -2.57259,-2.28731 z"
         id="path3223" />
      <path
         id="path3840"
         d="m 310.00007,51.109908 c 5.36672,8.08681 13.97,23.487471 16.89555,28.543978 l -0.39589,21.082544 c 0,0 1.88554,-0.31526 3.14695,-0.31526 1.398,0 3.14025,0.31526 3.14025,0.31526 l -0.39588,-21.082544 c 5.45902,-9.577666 14.46783,-25.200957 16.94251,-28.543978 -2.35866,0.535054 -4.48382,0.552831 -6.59582,0 -1.86124,3.466718 -8.72873,14.684289 -13.09776,21.86762 -4.43113,-7.338976 -9.67357,-15.81111 -13.09105,-21.86762 -2.70969,0.577922 -3.8447,0.614679 -6.54886,0 z m 48.5725,0.516659 c -1.57188,0 -3.12683,0.924213 -3.12683,3.28114 -0.93243,11.825686 -1.90602,23.680459 -3.50257,34.96537 l 0.006,0 c 0.95944,-0.165426 1.70604,0.07833 2.42898,0.369042 l 0.006,0 c 1.81293,-11.459308 6.11783,-28.617591 7.21989,-33.475748 0.15795,-0.682866 0.39589,-1.492872 0.39589,-2.066634 0,-1.733765 -1.09929,-2.74443 -2.74436,-3.01948 0,0 -0.40889,-0.05362 -0.6844,-0.05362 z m -6.8307,42.989746 c -2.05965,0 -3.0865,1.571459 -3.0865,3.261019 0,1.99198 1.58907,3.012758 3.55626,3.012758 1.42273,0 2.97918,-0.86097 2.97918,-3.207338 0,-1.883263 -1.47743,-3.066438 -3.44894,-3.066438 z"
         style="display:inline;enable-background:new;fill:#ffffff;fill-opacity:1;stroke:none"
         inkscape:connector-curvature="0"
         sodipodi:nodetypes="cccsccccccccccccccscccsssss" />
      <path
         sodipodi:nodetypes="cccsccccccccccccccscccsssss"
         inkscape:connector-curvature="0"
         style="display:inline;enable-background:new;fill:#ffffff;fill-opacity:1;stroke:none"
         d="m 302.00015,154.76835 c 3.71543,5.59858 9.67156,16.2606 11.69695,19.76127 l -0.27408,14.59565 c 0,0 1.30538,-0.21826 2.17867,-0.21826 0.96784,0 2.17402,0.21826 2.17402,0.21826 l -0.27407,-14.59565 c 3.77933,-6.63071 10.01622,-17.44686 11.72946,-19.76127 -1.63292,0.37042 -3.10419,0.38273 -4.56635,0 -1.28855,2.40004 -6.04298,10.16608 -9.0677,15.13917 -3.06772,-5.08085 -6.69711,-10.94619 -9.06306,-15.13917 -1.87595,0.4001 -2.66172,0.42555 -4.53384,0 z m 33.62721,0.35769 c -1.08823,0 -2.16474,0.63984 -2.16474,2.27156 -0.64553,8.18704 -1.31955,16.39421 -2.42486,24.20686 l 0.004,0 c 0.66423,-0.11452 1.18111,0.0542 1.68161,0.2555 l 0.004,0 c 1.25511,-7.93339 4.23543,-19.81224 4.9984,-23.17558 0.10935,-0.47276 0.27408,-1.03353 0.27408,-1.43076 0,-1.2003 -0.76105,-1.89999 -1.89995,-2.09041 0,0 -0.28308,-0.0371 -0.47381,-0.0371 z m -4.72896,29.76221 c -1.42592,0 -2.13682,1.08794 -2.13682,2.25764 0,1.37907 1.10013,2.08576 2.46204,2.08576 0.98497,0 2.06251,-0.59606 2.06251,-2.22047 0,-1.3038 -1.02284,-2.12293 -2.38773,-2.12293 z"
         id="path3842" />
      <path
         id="path3844"
         d="m 298.99989,231.55481 c 2.68339,4.04345 6.98507,11.74387 8.44787,14.27215 l -0.19795,10.54139 c 0,0 0.94278,-0.15762 1.5735,-0.15762 0.699,0 1.57013,0.15762 1.57013,0.15762 l -0.19794,-10.54139 c 2.72954,-4.78889 7.234,-12.60062 8.47135,-14.27215 -1.17934,0.26753 -2.24193,0.27642 -3.29795,0 -0.93062,1.73338 -4.36441,7.34223 -6.54894,10.93394 -2.2156,-3.66954 -4.83685,-7.90565 -6.5456,-10.93394 -1.35487,0.28896 -1.92237,0.30735 -3.27447,0 z m 24.28652,0.25834 c -0.78595,0 -1.56344,0.46211 -1.56344,1.64058 -0.46622,5.91291 -0.95301,11.84036 -1.7513,17.48288 l 0.003,0 c 0.47973,-0.0827 0.85303,0.0391 1.21451,0.18453 l 0.003,0 c 0.90647,-5.72972 3.05894,-14.30896 3.60998,-16.73806 0.079,-0.34144 0.19795,-0.74645 0.19795,-1.03334 0,-0.86689 -0.54965,-1.37222 -1.3722,-1.50975 0,0 -0.20445,-0.0268 -0.3422,-0.0268 z m -3.41539,21.4951 c -1.02984,0 -1.54327,0.78574 -1.54327,1.63054 0,0.996 0.79455,1.5064 1.77816,1.5064 0.71137,0 1.4896,-0.43049 1.4896,-1.6037 0,-0.94164 -0.73873,-1.53324 -1.72449,-1.53324 z"
         style="display:inline;enable-background:new;fill:#ffffff;fill-opacity:1;stroke:none"
         inkscape:connector-curvature="0"
         sodipodi:nodetypes="cccsccccccccccccccscccsssss" />
      <path
         sodipodi:nodetypes="cccsccccccccccccccscccsssss"
         inkscape:connector-curvature="0"
         style="fill:#ffffff;fill-opacity:1;stroke:none;display:inline;enable-background:new"
         d="m 422.9998,59.383909 c 1.85777,2.799375 4.83593,8.130553 5.84866,9.88094 l -0.13705,7.29805 c 0,0 0.65271,-0.109128 1.08937,-0.109128 0.48394,0 1.08704,0.109128 1.08704,0.109128 l -0.13703,-7.29805 c 1.88972,-3.315457 5.00826,-8.723702 5.86491,-9.88094 -0.81649,0.185217 -1.55214,0.191371 -2.28324,0 -0.64431,1.200058 -3.0216,5.083194 -4.534,7.569815 -1.5339,-2.540499 -3.34866,-5.47326 -4.53167,-7.569815 -0.938,0.200057 -1.33091,0.21278 -2.26699,0 z m 16.81412,0.178849 c -0.54413,0 -1.0824,0.319931 -1.0824,1.135818 -0.32277,4.093644 -0.6598,8.197358 -1.21247,12.103805 l 0.002,0 c 0.33213,-0.05727 0.59057,0.02712 0.84083,0.12775 l 0.002,0 c 0.62757,-3.966818 2.11778,-9.906423 2.49927,-11.58815 0.0546,-0.236384 0.13705,-0.516781 0.13705,-0.715397 0,-0.60017 -0.38053,-0.950027 -0.95001,-1.04524 0,0 -0.14153,-0.01856 -0.23691,-0.01856 z m -2.36455,14.881567 c -0.71298,0 -1.06844,0.543985 -1.06844,1.128853 0,0.689553 0.55009,1.042913 1.23106,1.042913 0.49249,0 1.03128,-0.298035 1.03128,-1.11027 0,-0.651921 -0.51143,-1.061495 -1.1939,-1.061495 z"
         id="path3850" />
      <path
         id="path3852"
         d="m 420.99955,105.29874 c 1.4449,2.17724 3.7612,6.32363 4.54886,7.68501 l -0.1066,5.67614 c 0,0 0.50766,-0.0849 0.84727,-0.0849 0.37639,0 0.84546,0.0849 0.84546,0.0849 l -0.10658,-5.67614 c 1.46975,-2.57864 3.89523,-6.78495 4.5615,-7.68501 -0.63503,0.14405 -1.20719,0.14885 -1.77581,0 -0.50112,0.93336 -2.35009,3.95351 -3.52637,5.88751 -1.19301,-1.9759 -2.60446,-4.25688 -3.52455,-5.88751 -0.72954,0.15561 -1.03513,0.1655 -1.76318,0 z m 13.07736,0.1391 c -0.4232,0 -0.84185,0.24883 -0.84185,0.8834 -0.25104,3.18387 -0.51317,6.37558 -0.94301,9.41386 l 0.002,0 c 0.25832,-0.0445 0.45933,0.0211 0.65397,0.0994 l 0.002,0 c 0.4881,-3.08524 1.64713,-7.70483 1.94384,-9.01281 0.0425,-0.18385 0.10659,-0.40193 0.10659,-0.55641 0,-0.46678 -0.29596,-0.73889 -0.73888,-0.81294 0,0 -0.11008,-0.0144 -0.18426,-0.0144 z m -1.83906,11.5743 c -0.55452,0 -0.83099,0.42309 -0.83099,0.87797 0,0.53631 0.42784,0.81114 0.95747,0.81114 0.38304,0 0.80209,-0.2318 0.80209,-0.86352 0,-0.50704 -0.39777,-0.82559 -0.92857,-0.82559 z"
         style="fill:#ffffff;fill-opacity:1;stroke:none;display:inline;enable-background:new"
         inkscape:connector-curvature="0"
         sodipodi:nodetypes="cccsccccccccccccccscccsssss" />
      <path
         sodipodi:nodetypes="cccsccccccccccccccscccsssss"
         inkscape:connector-curvature="0"
         style="fill:#ffffff;fill-opacity:1;stroke:none;display:inline;enable-background:new"
         d="m 418.99967,143.21391 c 1.03196,1.555 2.68626,4.51637 3.24881,5.48867 l -0.0762,4.05392 c 0,0 0.36257,-0.0607 0.60512,-0.0607 0.26882,0 0.60382,0.0607 0.60382,0.0607 l -0.0761,-4.05392 c 1.0497,-1.84167 2.78199,-4.84584 3.25784,-5.48867 -0.45354,0.10289 -0.86218,0.10632 -1.26829,0 -0.3579,0.66662 -1.67844,2.82361 -2.51854,4.20489 -0.85205,-1.4112 -1.86011,-3.04027 -2.51724,-4.20489 -0.52103,0.11114 -0.73931,0.11821 -1.25926,0 z m 9.3399,0.0994 c -0.30225,0 -0.60125,0.17772 -0.60125,0.63093 -0.1793,2.27393 -0.36652,4.55347 -0.67351,6.72342 l 0.002,0 c 0.18449,-0.0317 0.32805,0.0151 0.46706,0.071 l 0.002,0 c 0.34861,-2.20348 1.17639,-5.5028 1.3883,-6.43697 0.0303,-0.13131 0.0762,-0.28706 0.0762,-0.3974 0,-0.33336 -0.21138,-0.5277 -0.52771,-0.58059 0,0 -0.0786,-0.0103 -0.1316,-0.0103 z m -1.31347,8.26641 c -0.39603,0 -0.59349,0.30217 -0.59349,0.62705 0,0.38304 0.30556,0.57932 0.68383,0.57932 0.27357,0 0.57286,-0.16555 0.57286,-0.61673 0,-0.36213 -0.28409,-0.58964 -0.66319,-0.58964 z"
         id="path3854" />
    </g>
    <g
       inkscape:groupmode="layer"
       id="layer5"
       inkscape:label="Highlights"
       style="display:inline"
       sodipodi:insensitive="true">
      <rect
         ry="9"
         y="307"
         x="-265"
         height="42"
         width="42"
         id="rect4884"
         style="opacity:0.20;color:#bebebe;fill:none;stroke:#000000;stroke-width:2;stroke-miterlimit:4;stroke-opacity:1;stroke-dasharray:none;marker:none;visibility:visible;display:inline;overflow:visible;enable-background:accumulate"
         transform="matrix(0,1,1,0,-16,488)"
         clip-path="url(#clipPath4891)" />
      <rect
         style="opacity:0.20;color:#bebebe;fill:none;stroke:#000000;stroke-width:2;stroke-miterlimit:4;stroke-opacity:1;stroke-dasharray:none;marker:none;visibility:visible;display:inline;overflow:visible;enable-background:accumulate"
         id="rect5311"
         width="16"
         height="16"
         x="-228"
         y="304"
         ry="3"
         clip-path="url(#clipPath3855)"
         transform="matrix(0,-1,1,0,112,-72)" />
      <rect
         ry="50"
         y="46"
         x="34"
         height="220"
         width="220"
         id="rect3858"
         style="opacity:0.20;color:#bebebe;fill:none;stroke:#000000;stroke-width:2;stroke-miterlimit:4;stroke-opacity:1;stroke-dasharray:none;marker:none;visibility:visible;display:inline;overflow:visible;enable-background:accumulate"
         clip-path="url(#clipPath3862)" />
      <rect
         ry="12.5"
         y="142"
         x="290"
         height="60"
         width="60"
         id="rect4175"
         style="opacity:0.20;color:#bebebe;fill:none;stroke:#000000;stroke-width:2;stroke-miterlimit:4;stroke-opacity:1;stroke-dasharray:none;marker:none;visibility:visible;display:inline;overflow:visible;enable-background:accumulate"
         clip-path="url(#clipPath4187)" />
      <rect
         style="opacity:0.20;color:#bebebe;fill:none;stroke:#000000;stroke-width:2;stroke-miterlimit:4;stroke-opacity:1;stroke-dasharray:none;marker:none;visibility:visible;display:inline;overflow:visible;enable-background:accumulate"
         id="rect4342"
         width="88"
         height="88"
         x="292"
         y="32"
         ry="18"
         clip-path="url(#clipPath4346)" />
      <rect
         ry="5"
         y="101"
         x="417"
         height="22"
         width="22"
         id="rect3866"
         style="opacity:0.20;color:#bebebe;fill:none;stroke:#000000;stroke-width:2;stroke-miterlimit:4;stroke-opacity:1;stroke-dasharray:none;marker:none;visibility:visible;display:inline;overflow:visible;enable-background:accumulate"
         clip-path="url(#clipPath3871)" />
      <rect
         style="opacity:0.20;color:#bebebe;fill:none;stroke:#000000;stroke-width:2;stroke-miterlimit:4;stroke-opacity:1;stroke-dasharray:none;marker:none;visibility:visible;display:inline;overflow:visible;enable-background:accumulate"
         id="rect3877"
         width="30"
         height="30"
         x="417"
         y="53"
         ry="7"
         clip-path="url(#clipPath3881)" />
    </g>
  </g>
</svg>
