<?xml version="1.0" encoding="UTF-8" standalone="no"?>
<!-- Created with Inkscape (http://www.inkscape.org/) -->

<svg
   xmlns:dc="http://purl.org/dc/elements/1.1/"
   xmlns:cc="http://creativecommons.org/ns#"
   xmlns:rdf="http://www.w3.org/1999/02/22-rdf-syntax-ns#"
   xmlns:svg="http://www.w3.org/2000/svg"
   xmlns="http://www.w3.org/2000/svg"
   xmlns:xlink="http://www.w3.org/1999/xlink"
   xmlns:sodipodi="http://sodipodi.sourceforge.net/DTD/sodipodi-0.dtd"
   xmlns:inkscape="http://www.inkscape.org/namespaces/inkscape"
   inkscape:export-ydpi="90.000000"
   inkscape:export-xdpi="90.000000"
   width="480"
   height="300"
   id="svg11300"
   sodipodi:version="0.32"
   inkscape:version="0.48+devel r"
   sodipodi:docname="web-onenote.svg"
   inkscape:output_extension="org.inkscape.output.svg.inkscape"
   version="1.0"
   style="display:inline;enable-background:new"
   inkscape:export-filename="/home/sam/moka2-template.png">
  <sodipodi:namedview
     stroke="#ef2929"
     fill="#f57900"
     id="base"
     pagecolor="#ffffff"
     bordercolor="#666666"
     borderopacity="0.25490196"
     inkscape:pageopacity="0"
     inkscape:pageshadow="2"
     inkscape:zoom="1"
     inkscape:cx="315.28374"
     inkscape:cy="53.043152"
     inkscape:current-layer="layer7"
     showgrid="false"
     inkscape:grid-bbox="true"
     inkscape:document-units="px"
     inkscape:showpageshadow="false"
     inkscape:window-width="1358"
     inkscape:window-height="701"
     inkscape:window-x="0"
     inkscape:window-y="27"
     width="400px"
     height="300px"
     inkscape:snap-nodes="true"
     inkscape:snap-bbox="true"
     gridtolerance="10000"
     inkscape:object-nodes="true"
     inkscape:snap-grids="true"
     showguides="false"
     inkscape:guide-bbox="true"
     inkscape:window-maximized="1"
     inkscape:bbox-nodes="true"
     inkscape:bbox-paths="true"
     inkscape:snap-bbox-edge-midpoints="true"
     inkscape:snap-bbox-midpoints="true">
    <inkscape:grid
       spacingy="1px"
       spacingx="1px"
       id="grid5883"
       type="xygrid"
       enabled="true"
       visible="true"
       empspacing="4"
       snapvisiblegridlinesonly="true"
       dotted="false"
       color="#000000"
       opacity="0.1254902"
       empcolor="#203ef3"
       empopacity="0.36470588" />
    <inkscape:grid
       type="xygrid"
       id="grid11592"
       empspacing="8"
       visible="true"
       enabled="false"
       spacingx="0.5px"
       spacingy="0.5px"
       color="#ff0000"
       opacity="0.1254902"
       empcolor="#ff0000"
       empopacity="0.25098039"
       snapvisiblegridlinesonly="true"
       dotted="true" />
  </sodipodi:namedview>
  <defs
     id="defs3">
    <linearGradient
       id="outerBackgroundGradient">
      <stop
         style="stop-color:#7b3576;stop-opacity:1"
         offset="0"
         id="stop3864-8-6" />
      <stop
         style="stop-color:#9c4495;stop-opacity:1"
         offset="1"
         id="stop3866-9-1" />
    </linearGradient>
    <linearGradient
       inkscape:collect="always"
       xlink:href="#outerBackgroundGradient"
       id="linearGradient4097"
       gradientUnits="userSpaceOnUse"
       x1="264"
       y1="280.00003"
       x2="264"
       y2="40.00005"
       gradientTransform="matrix(0.06666667,0,0,0.06666667,414.4,137.33333)" />
    <linearGradient
       inkscape:collect="always"
       xlink:href="#outerBackgroundGradient"
       id="linearGradient4101"
       gradientUnits="userSpaceOnUse"
       gradientTransform="matrix(0.0875,0,0,0.0875,414.9,97.5)"
       x1="286.85715"
       y1="302.85715"
       x2="286.85715"
       y2="28.571428" />
    <linearGradient
       inkscape:collect="always"
       xlink:href="#outerBackgroundGradient"
       id="linearGradient4153"
       gradientUnits="userSpaceOnUse"
       gradientTransform="matrix(0.11931818,0,0,0.11931818,414.13636,48.22727)"
       x1="283.80957"
       y1="299.80954"
       x2="283.80957"
       y2="31.61907" />
    <linearGradient
       inkscape:collect="always"
       xlink:href="#outerBackgroundGradient"
       id="linearGradient4869"
       gradientUnits="userSpaceOnUse"
       gradientTransform="matrix(0.175,0,0,-0.175,286.79999,-215.99997)"
       x1="281.14291"
       y1="297.14304"
       x2="281.14291"
       y2="22.857315" />
    <clipPath
       clipPathUnits="userSpaceOnUse"
       id="clipPath4891">
      <rect
         ry="9"
         y="223"
         x="307"
         height="42"
         width="42"
         id="rect4893"
         style="color:#bebebe;fill:url(#linearGradient4895);fill-opacity:1;fill-rule:nonzero;stroke:none;stroke-width:0;marker:none;visibility:visible;display:inline;overflow:visible;enable-background:accumulate"
         transform="matrix(0,1,-1,0,0,0)" />
    </clipPath>
    <linearGradient
       inkscape:collect="always"
       xlink:href="#outerBackgroundGradient"
       id="linearGradient4895"
       gradientUnits="userSpaceOnUse"
       gradientTransform="matrix(0.175,0,0,0.175,302.79999,215.99997)"
       x1="144.00006"
       y1="280.00018"
       x2="144.00006"
       y2="40.000172" />
    <clipPath
       clipPathUnits="userSpaceOnUse"
       id="clipPath4044">
      <rect
         ry="4"
         y="85"
         x="433"
         height="22"
         width="22"
         id="rect4046"
         style="color:#bebebe;fill:url(#linearGradient4048);fill-opacity:1;fill-rule:nonzero;stroke:none;stroke-width:0;marker:none;visibility:visible;display:inline;overflow:visible;enable-background:accumulate" />
    </clipPath>
    <linearGradient
       inkscape:collect="always"
       xlink:href="#outerBackgroundGradient"
       id="linearGradient4048"
       gradientUnits="userSpaceOnUse"
       gradientTransform="matrix(0.0875,0,0,0.0875,430.9,81.499996)"
       x1="149.71428"
       y1="291.42862"
       x2="149.71428"
       y2="40.000046" />
    <clipPath
       clipPathUnits="userSpaceOnUse"
       id="clipPath4089">
      <rect
         style="color:#bebebe;fill:url(#linearGradient4093);fill-opacity:1;fill-rule:nonzero;stroke:none;stroke-width:0;marker:none;visibility:visible;display:inline;overflow:visible;enable-background:accumulate"
         id="rect4091"
         width="30"
         height="30"
         x="433"
         y="37"
         ry="6" />
    </clipPath>
    <linearGradient
       inkscape:collect="always"
       xlink:href="#outerBackgroundGradient"
       id="linearGradient4093"
       gradientUnits="userSpaceOnUse"
       gradientTransform="matrix(0.11931818,0,0,0.11931818,430.13636,32.227267)"
       x1="149.71432"
       y1="291.42862"
       x2="149.71432"
       y2="40.00005" />
    <clipPath
       clipPathUnits="userSpaceOnUse"
       id="clipPath3855">
      <rect
         style="color:#bebebe;fill:url(#linearGradient3859);fill-opacity:1;fill-rule:nonzero;stroke:none;stroke-width:0;marker:none;visibility:visible;display:inline;overflow:visible;enable-background:accumulate"
         id="rect3857"
         width="16"
         height="16"
         x="304"
         y="212"
         ry="3"
         transform="matrix(0,1,-1,0,0,0)" />
    </clipPath>
    <linearGradient
       inkscape:collect="always"
       xlink:href="#outerBackgroundGradient"
       id="linearGradient3859"
       gradientUnits="userSpaceOnUse"
       gradientTransform="matrix(0.06666667,0,0,0.06666667,302.4,209.33333)"
       x1="144"
       y1="280.00003"
       x2="144"
       y2="40.00005" />
    <clipPath
       clipPathUnits="userSpaceOnUse"
       id="clipPath3862">
      <rect
         ry="50"
         y="46"
         x="34"
         height="220"
         width="220"
         id="rect3864"
         style="color:#bebebe;fill:url(#linearGradient3866);fill-opacity:1;fill-rule:nonzero;stroke:none;stroke-width:0;marker:none;visibility:visible;display:inline;overflow:visible;enable-background:accumulate" />
    </clipPath>
    <linearGradient
       inkscape:collect="always"
       xlink:href="#outerBackgroundGradient"
       id="linearGradient3866"
       gradientUnits="userSpaceOnUse"
       gradientTransform="translate(0,-4)"
       x1="144"
       y1="280"
       x2="144"
       y2="40" />
    <linearGradient
       inkscape:collect="always"
       xlink:href="#outerBackgroundGradient"
       id="linearGradient3876"
       gradientUnits="userSpaceOnUse"
       gradientTransform="translate(0,-4)"
       x1="272"
       y1="288"
       x2="272"
       y2="32" />
    <clipPath
       clipPathUnits="userSpaceOnUse"
       id="clipPath4187">
      <rect
         ry="12.5"
         y="142"
         x="290"
         height="60"
         width="60"
         id="rect4189"
         style="color:#bebebe;fill:url(#linearGradient4191);fill-opacity:1;fill-rule:nonzero;stroke:none;stroke-width:0;marker:none;visibility:visible;display:inline;overflow:visible;enable-background:accumulate" />
    </clipPath>
    <linearGradient
       inkscape:collect="always"
       xlink:href="#outerBackgroundGradient"
       id="linearGradient4191"
       gradientUnits="userSpaceOnUse"
       x1="352"
       y1="204"
       x2="352"
       y2="140" />
    <linearGradient
       inkscape:collect="always"
       xlink:href="#outerBackgroundGradient"
       id="linearGradient4197"
       gradientUnits="userSpaceOnUse"
       x1="384"
       y1="124"
       x2="384"
       y2="28" />
    <linearGradient
       inkscape:collect="always"
       xlink:href="#outerBackgroundGradient"
       id="linearGradient4199"
       gradientUnits="userSpaceOnUse"
       x1="352"
       y1="204"
       x2="352"
       y2="140" />
    <clipPath
       clipPathUnits="userSpaceOnUse"
       id="clipPath4346">
      <rect
         style="color:#bebebe;fill:url(#linearGradient4350);fill-opacity:1;fill-rule:nonzero;stroke:none;stroke-width:0;marker:none;visibility:visible;display:inline;overflow:visible;enable-background:accumulate"
         id="rect4348"
         width="88"
         height="88"
         x="292"
         y="32"
         ry="18" />
    </clipPath>
    <linearGradient
       inkscape:collect="always"
       xlink:href="#outerBackgroundGradient"
       id="linearGradient4350"
       gradientUnits="userSpaceOnUse"
       x1="384"
       y1="124"
       x2="384"
       y2="28" />
    <clipPath
       clipPathUnits="userSpaceOnUse"
       id="clipPath3871">
      <rect
         ry="5"
         y="101"
         x="417"
         height="22"
         width="22"
         id="rect3873"
         style="color:#bebebe;fill:url(#linearGradient3875);fill-opacity:1;fill-rule:nonzero;stroke:none;stroke-width:0;marker:none;visibility:visible;display:inline;overflow:visible;enable-background:accumulate" />
    </clipPath>
    <linearGradient
       inkscape:collect="always"
       xlink:href="#outerBackgroundGradient"
       id="linearGradient3875"
       gradientUnits="userSpaceOnUse"
       gradientTransform="matrix(0.0875,0,0,0.0875,414.9,97.5)"
       x1="286.85715"
       y1="302.85715"
       x2="286.85715"
       y2="28.571428" />
    <clipPath
       clipPathUnits="userSpaceOnUse"
       id="clipPath3881">
      <rect
         style="color:#bebebe;fill:url(#linearGradient3885);fill-opacity:1;fill-rule:nonzero;stroke:none;stroke-width:0;marker:none;visibility:visible;display:inline;overflow:visible;enable-background:accumulate"
         id="rect3883"
         width="30"
         height="30"
         x="417"
         y="53"
         ry="7" />
    </clipPath>
    <linearGradient
       inkscape:collect="always"
       xlink:href="#outerBackgroundGradient"
       id="linearGradient3885"
       gradientUnits="userSpaceOnUse"
       gradientTransform="matrix(0.11931818,0,0,0.11931818,414.13636,48.22727)"
       x1="283.80957"
       y1="299.80954"
       x2="283.80957"
       y2="31.61907" />
  </defs>
  <metadata
     id="metadata4">
    <rdf:RDF>
      <cc:Work
         rdf:about="">
        <dc:format>image/svg+xml</dc:format>
        <dc:type
           rdf:resource="http://purl.org/dc/dcmitype/StillImage" />
        <dc:creator>
          <cc:Agent>
            <dc:title>Sam Hewitt</dc:title>
          </cc:Agent>
        </dc:creator>
        <dc:source />
        <cc:license
           rdf:resource="" />
        <dc:title></dc:title>
        <dc:subject>
          <rdf:Bag />
        </dc:subject>
        <dc:date />
        <dc:rights>
          <cc:Agent>
            <dc:title />
          </cc:Agent>
        </dc:rights>
        <dc:publisher>
          <cc:Agent>
            <dc:title />
          </cc:Agent>
        </dc:publisher>
        <dc:identifier />
        <dc:relation />
        <dc:language />
        <dc:coverage />
        <dc:description />
        <dc:contributor>
          <cc:Agent>
            <dc:title />
          </cc:Agent>
        </dc:contributor>
      </cc:Work>
      <cc:Work
         rdf:about="">
        <dc:format>image/svg+xml</dc:format>
        <dc:type
           rdf:resource="http://purl.org/dc/dcmitype/StillImage" />
      </cc:Work>
    </rdf:RDF>
  </metadata>
  <g
     style="display:inline"
     inkscape:groupmode="layer"
     inkscape:label="Icon"
     id="layer1">
    <g
       style="display:none"
       inkscape:label="Baseplate"
       id="layer7"
       inkscape:groupmode="layer">
      <text
         y="19.745117"
         xml:space="preserve"
         x="15.006836"
         style="font-style:normal;font-variant:normal;font-weight:normal;font-stretch:normal;font-size:18px;font-family:DejaVu Sans;-inkscape-font-specification:DejaVu Sans;display:inline;fill:#000000;fill-opacity:1;stroke:none;enable-background:new"
         inkscape:label="context"
         id="context"><tspan
           style="font-style:normal;font-variant:normal;font-weight:normal;font-stretch:normal;font-family:DejaVu Sans;-inkscape-font-specification:DejaVu Sans"
           y="19.745117"
           x="15.006836"
           sodipodi:role="line"
           id="tspan3933">web</tspan></text>
      <text
         y="19.745117"
         xml:space="preserve"
         x="122.48828"
         style="font-style:normal;font-variant:normal;font-weight:bold;font-stretch:normal;font-size:18px;line-height:125%;font-family:DejaVu Sans;-inkscape-font-specification:DejaVu Sans Bold;text-align:start;writing-mode:lr-tb;text-anchor:start;display:inline;fill:#000000;fill-opacity:1;stroke:none;enable-background:new"
         sodipodi:linespacing="125%"
         inkscape:label="icon-name"
         id="icon-name"><tspan
           style="font-style:normal;font-variant:normal;font-weight:bold;font-stretch:normal;font-size:18px;font-family:DejaVu Sans;-inkscape-font-specification:DejaVu Sans Bold"
           y="19.745117"
           x="122.48828"
           sodipodi:role="line"
           id="tspan3937">web-onenote</tspan></text>
      <rect
         style="display:inline;overflow:visible;visibility:visible;fill:#eeeeec;fill-opacity:1;fill-rule:nonzero;stroke:none;stroke-width:2;marker:none;enable-background:accumulate"
         id="rect16x16"
         width="16"
         height="16"
         x="416"
         y="140"
         inkscape:label="16x16" />
      <rect
         style="display:inline;overflow:visible;visibility:visible;fill:#d4d4d4;fill-opacity:1;fill-rule:nonzero;stroke:none;stroke-width:2;marker:none;enable-background:accumulate"
         id="rect24x24"
         width="24"
         height="24"
         x="416"
         y="100"
         inkscape:label="24x24" />
      <rect
         style="display:inline;overflow:visible;visibility:visible;fill:#eeeeec;fill-opacity:1;fill-rule:nonzero;stroke:none;stroke-width:2;marker:none;enable-background:accumulate"
         id="rect32x32"
         width="32"
         height="32"
         x="416"
         y="52"
         inkscape:label="32x32" />
      <rect
         inkscape:label="22x22"
         y="101"
         x="417"
         height="22"
         width="22"
         id="rect22x22"
         style="display:inline;overflow:visible;visibility:visible;fill:#eeeeec;fill-opacity:1;fill-rule:nonzero;stroke:none;stroke-width:2;marker:none;enable-background:accumulate" />
      <rect
         inkscape:label="48x48"
         y="220"
         x="288"
         height="48"
         width="48"
         id="rect48x48"
         style="display:inline;overflow:visible;visibility:visible;fill:#eeeeec;fill-opacity:1;fill-rule:nonzero;stroke:none;stroke-width:2;marker:none;enable-background:accumulate" />
      <rect
         style="display:inline;overflow:visible;visibility:visible;fill:#eeeeec;fill-opacity:1;fill-rule:nonzero;stroke:none;stroke-width:2;marker:none;enable-background:accumulate"
         id="rect256x256"
         width="256"
         height="256"
         x="16"
         y="28"
         inkscape:label="256x256" />
      <rect
         style="display:inline;overflow:visible;visibility:visible;fill:#eeeeec;fill-opacity:1;fill-rule:nonzero;stroke:none;stroke-width:2;marker:none;enable-background:accumulate"
         id="rect64x64"
         width="64"
         height="64"
         x="288"
         y="140"
         inkscape:label="64x64" />
      <rect
         style="display:inline;overflow:visible;visibility:visible;fill:#eeeeec;fill-opacity:1;fill-rule:nonzero;stroke:none;stroke-width:2;marker:none;enable-background:accumulate"
         id="rect96x96"
         width="96"
         height="96"
         x="288"
         y="28"
         inkscape:label="96x96" />
    </g>
    <g
       inkscape:groupmode="layer"
       id="layer4"
       inkscape:label="Shadow"
       style="display:inline"
       sodipodi:insensitive="true">
      <rect
         style="opacity:0.0;color:#bebebe;fill:#000000;fill-opacity:1;stroke:#000000;stroke-width:1;stroke-miterlimit:4;stroke-opacity:1;stroke-dasharray:none;marker:none;visibility:visible;display:inline;overflow:visible;enable-background:accumulate"
         id="rect4156"
         width="42"
         height="42"
         x="-266.5"
         y="291"
         ry="9"
         transform="matrix(0,-1,1,0,0,0)" />
      <rect
         transform="matrix(0,-1,1,0,0,0)"
         ry="9"
         y="291"
         x="-266.5"
         height="42"
         width="40"
         id="rect4183"
         style="opacity:0.1;color:#bebebe;fill:#000000;fill-opacity:1;stroke:none;stroke-width:1;marker:none;visibility:visible;display:inline;overflow:visible;enable-background:accumulate" />
      <rect
         ry="9"
         y="237"
         x="291"
         height="29"
         width="42"
         id="rect4144"
         style="opacity:0.1;color:#bebebe;fill:#000000;fill-opacity:1;fill-rule:nonzero;stroke:none;stroke-width:0;marker:none;visibility:visible;display:inline;overflow:visible;enable-background:accumulate" />
      <rect
         style="opacity:0.0;color:#bebebe;fill:#000000;fill-opacity:1;fill-rule:nonzero;stroke:#000000;stroke-width:1;stroke-miterlimit:4;stroke-opacity:1;stroke-dasharray:none;marker:none;visibility:visible;display:inline;overflow:visible;enable-background:accumulate"
         id="rect4340"
         width="88"
         height="88"
         x="292"
         y="33.5"
         ry="18" />
      <rect
         ry="18"
         y="52.5"
         x="292"
         height="69"
         width="88"
         id="rect4338"
         style="opacity:0.1;color:#bebebe;fill:#000000;fill-opacity:1;fill-rule:nonzero;stroke:none;stroke-width:0;marker:none;visibility:visible;display:inline;overflow:visible;enable-background:accumulate" />
      <rect
         style="opacity:0.1;color:#bebebe;fill:#000000;fill-opacity:1;fill-rule:nonzero;stroke:none;stroke-width:0;marker:none;visibility:visible;display:inline;overflow:visible;enable-background:accumulate"
         id="rect4335"
         width="88"
         height="76.5"
         x="292"
         y="44.5"
         ry="18" />
      <rect
         style="opacity:0.0;color:#bebebe;fill:#000000;fill-opacity:1;fill-rule:nonzero;stroke:#000000;stroke-width:1;stroke-miterlimit:4;stroke-opacity:1;stroke-dasharray:none;marker:none;visibility:visible;display:inline;overflow:visible;enable-background:accumulate"
         id="rect4214"
         width="60"
         height="60"
         x="290"
         y="143.5"
         ry="12.5" />
      <rect
         ry="12.5"
         y="151.5"
         x="290"
         height="52"
         width="60"
         id="rect4206"
         style="opacity:0.1;color:#bebebe;fill:#000000;fill-opacity:1;fill-rule:nonzero;stroke:none;stroke-width:0;marker:none;visibility:visible;display:inline;overflow:visible;enable-background:accumulate" />
      <rect
         style="opacity:0.1;color:#bebebe;fill:#000000;fill-opacity:1;fill-rule:nonzero;stroke:none;stroke-width:0;marker:none;visibility:visible;display:inline;overflow:visible;enable-background:accumulate"
         id="rect4212"
         width="60"
         height="54.5"
         x="290"
         y="148.5"
         ry="12.5" />
      <rect
         style="opacity:0.2;color:#bebebe;fill:#000000;fill-opacity:1;fill-rule:nonzero;stroke:none;stroke-width:0;marker:none;visibility:visible;display:inline;overflow:visible;enable-background:accumulate"
         id="rect4058"
         width="30"
         height="30"
         x="417"
         y="54"
         ry="7" />
      <rect
         ry="50"
         y="48"
         x="34"
         height="220"
         width="220"
         id="rect3872"
         style="opacity:0.0;color:#bebebe;fill:#000000;fill-opacity:1;fill-rule:nonzero;stroke:#000000;stroke-width:2;stroke-miterlimit:4;stroke-opacity:1;stroke-dasharray:none;marker:none;visibility:visible;display:inline;overflow:visible;enable-background:accumulate" />
      <rect
         style="opacity:0.1;color:#bebebe;fill:#000000;fill-opacity:1;fill-rule:nonzero;stroke:none;stroke-width:0;marker:none;visibility:visible;display:inline;overflow:visible;enable-background:accumulate"
         id="rect3870"
         width="220"
         height="220"
         x="34"
         y="48"
         ry="50" />
      <rect
         ry="50"
         y="47"
         x="34"
         height="220"
         width="220"
         id="rect3868"
         style="opacity:0.1;color:#bebebe;fill:#000000;fill-opacity:1;fill-rule:nonzero;stroke:none;stroke-width:0;marker:none;visibility:visible;display:inline;overflow:visible;enable-background:accumulate" />
    </g>
    <g
       inkscape:groupmode="layer"
       id="layer2"
       inkscape:label="Background"
       style="display:inline">
      <rect
         style="color:#bebebe;fill:url(#linearGradient3876);fill-opacity:1;fill-rule:nonzero;stroke:none;stroke-width:0;marker:none;visibility:visible;display:inline;overflow:visible;enable-background:accumulate"
         id="rect4040"
         width="220"
         height="220"
         x="34"
         y="46"
         ry="50" />
      <rect
         ry="3"
         y="140"
         x="416"
         height="16"
         width="16"
         id="rect4095"
         style="color:#bebebe;fill:url(#linearGradient4097);fill-opacity:1;fill-rule:nonzero;stroke:none;stroke-width:0;marker:none;visibility:visible;display:inline;overflow:visible;enable-background:accumulate" />
      <rect
         style="color:#bebebe;fill:url(#linearGradient4101);fill-opacity:1;fill-rule:nonzero;stroke:none;stroke-width:0;marker:none;visibility:visible;display:inline;overflow:visible;enable-background:accumulate"
         id="rect4099"
         width="22"
         height="22"
         x="417"
         y="101"
         ry="5" />
      <rect
         ry="7"
         y="53"
         x="417"
         height="30"
         width="30"
         id="rect4151"
         style="color:#bebebe;fill:url(#linearGradient4153);fill-opacity:1;fill-rule:nonzero;stroke:none;stroke-width:0;marker:none;visibility:visible;display:inline;overflow:visible;enable-background:accumulate" />
      <rect
         style="color:#bebebe;fill:url(#linearGradient4869);fill-opacity:1;fill-rule:nonzero;stroke:none;stroke-width:0;marker:none;visibility:visible;display:inline;overflow:visible;enable-background:accumulate"
         id="rect4783"
         width="42"
         height="42"
         x="291"
         y="-265"
         ry="9"
         transform="scale(1,-1)" />
      <rect
         ry="18"
         y="32"
         x="292"
         height="88"
         width="88"
         id="rect4511"
         style="color:#bebebe;fill:url(#linearGradient4197);fill-opacity:1;fill-rule:nonzero;stroke:none;stroke-width:0;marker:none;visibility:visible;display:inline;overflow:visible;enable-background:accumulate" />
      <rect
         style="color:#bebebe;fill:url(#linearGradient4199);fill-opacity:1;fill-rule:nonzero;stroke:none;stroke-width:0;marker:none;visibility:visible;display:inline;overflow:visible;enable-background:accumulate"
         id="rect4515"
         width="60"
         height="60"
         x="290"
         y="142"
         ry="12.5" />
    </g>
    <g
       inkscape:groupmode="layer"
       id="layer6"
       inkscape:label="Symbols"
       style="display:inline">
      <path
         sodipodi:nodetypes="cccccccccccccccccccccccccccccccsssscccccccccccccccccccscccccccccc"
         inkscape:connector-curvature="0"
         style="display:inline;opacity:0.2;fill:#000000;fill-opacity:1;enable-background:new"
         d="m 321.99961,153.99955 -22.0004,4.00078 0,32.00234 22.0004,3.99688 2.00039,0 0,-40 z m 3.00061,3.00029 0,4.00078 7.00546,7.8e-4 0,0.99922 -7.00546,-7.8e-4 0,5.00196 7.00546,7.8e-4 0,0.99804 -7.00546,-7.8e-4 0,5.00312 7.00546,7.8e-4 0,0.99805 -7.00546,-7.8e-4 0,5.00313 7.00546,7.8e-4 0,0.99805 -7.00546,-7.8e-4 0,5.00312 7.00546,7.8e-4 -0.005,0.99375 -7.00546,-7.8e-4 0.005,5.00742 11.00624,7.8e-4 0,-22.0043 2.00039,0 c 1.10822,0 2.00039,-0.89217 2.00039,-2.00038 l 0,-6.00118 c 0,-1.10822 -0.89217,-2.00039 -2.00039,-2.00039 l -2.00039,0 0,-2.00039 z m -6.9975,8.62698 0,17.37839 -3.1256,-0.50009 -5.87615,-10.50206 0,10.00196 -3.00059,-0.37508 0,-15.12795 3.00059,-0.25005 5.93865,11.06467 -0.0625,-11.43975 z m 20.00413,5.37653 -1.00663,-0.004 0,8 1.00663,0.005 c 0,0 2.2656,0.12134 2.00039,-2.0004 l 0,-4.00078 c 0,-2.00039 -2.00039,-2.00039 -2.00039,-2.00039 z m 0,10.00196 -1.00663,-0.005 0,8 1.00663,0.007 c 0,0 2.08879,0.0329 2.00039,-2.00039 l 0,-4.00078 c -0.17683,-1.85652 -2.00039,-2.00039 -2.00039,-2.00039 z"
         id="path4375" />
      <path
         id="path4377"
         d="m 432.99805,58.99955 -10.99805,2 0,15.998047 10.99805,1.998047 1,0 0,-19.996094 -1,0 z m 2.00195,2 0,2 3,0 0,1 -3,0 0,2 3,0 0,1 -3,0 0,2 3,0 0,1 -3,0 0,2 3,0 0,1 -3,0 0,2 3,0 0,1 -3,0 0,2 5,0 0,-11 1,0 c 0.554,0 1,-0.446 1,-1 l 0,-3 c 0,-0.554 -0.446,-1 -1,-1 l -1,0 0,-1 -5,0 z m -4,3.8125 0,8.6875 -1.5625,-0.25 -2.9375,-5.25 0,5 -1.5,-0.1875 0,-7.5625 1.5,-0.125 2.96875,5.53125 -0.0312,-5.71875 1.5625,-0.125 z m 10,3.1875 0,4 c 0,0 1.13258,0.06066 1,-1 l 0,-2 c 0,-1 -1,-1 -1,-1 z m 0,5 0,4 c 0,0 1.04419,0.01647 1,-1 l 0,-2 c -0.0884,-0.928078 -1,-1 -1,-1 z"
         style="display:inline;opacity:0.2;fill:#000000;fill-opacity:1;enable-background:new"
         inkscape:connector-curvature="0" />
      <path
         sodipodi:nodetypes="cccccccccccccccccccccccccccccccssssccccccccccccccccccscccccc"
         inkscape:connector-curvature="0"
         style="display:inline;opacity:0.2;fill:#000000;fill-opacity:1;enable-background:new"
         d="m 424.4966,143.99773 -5.5021,1.00056 0,8.0035 5.5021,0.99958 0.50028,0 0,-10.00364 z m 1.5034,1.00182 0,1.00056 0.99898,-0.001 0,0.50028 -0.99898,0.001 0,1.00056 0.99898,-10e-4 0,0.50028 -0.99898,0.001 0,1.00056 0.99898,-0.001 0,0.50028 -0.99898,0.001 0,1.00056 0.99898,-0.001 0,0.50028 -0.99898,0.001 0,1.00056 0.99898,-0.001 0,0.50028 -0.99898,0.001 0,1.00056 1.99954,-0.001 0,-5.50308 0.50028,0 c 0.27716,0 0.50028,-0.22313 0.50028,-0.50028 l 0,-1.50084 c 0,-0.27716 -0.22312,-0.50028 -0.50028,-0.50028 l -0.50028,0 0,-0.50028 z m -2.50298,1.90605 0,4.34619 -0.78169,-0.12507 -1.46957,-2.62647 0,2.5014 -0.75042,-0.0938 0,-3.78337 0.75042,-0.0625 1.48521,2.76717 -0.0156,-2.86097 0.78169,-0.0625 z m 5.0028,1.59465 0,2.00112 c 0,0 0.56661,0.0303 0.50028,-0.50028 l 0,-1.00056 c 0,-0.50028 -0.50028,-0.50028 -0.50028,-0.50028 z m 0,2.5014 0,2.00112 c 0,0 0.52239,0.008 0.50028,-0.50028 l 0,-1.00056 c -0.0442,-0.4643 -0.50028,-0.50028 -0.50028,-0.50028 z"
         id="path4379" />
      <path
         id="path4381"
         d="m 428.30078,105.99955 -7.30664,1.40039 0,11.20117 7.30664,1.39844 0.69922,0 0,-14 -0.69922,0 z m 1.69922,1 0,2 3,0 0,1 -3,0 0,2 3,0 0,1 -3,0 0,2 3,0 0,1 -3,0 0,3 4,0 0,-8 1,0 0,-3 -1,0 0,-1 -4,0 z m -2.70312,3.07031 0,6.08203 -1.09571,-0.17578 -2.05664,-3.67578 0,3.50195 -1.04883,-0.13281 0,-5.29492 1.04883,-0.0859 2.08008,3.8711 -0.0234,-4.00391 1.09571,-0.0859 z"
         style="display:inline;opacity:0.2;fill:#000000;fill-opacity:1;enable-background:new"
         inkscape:connector-curvature="0" />
      <path
         sodipodi:nodetypes="ccccccccccccccccccccccccccccccccccccccccccccccccccccccc"
         inkscape:connector-curvature="0"
         id="path4383"
         d="M 311.60742,231.20072 297,233.99955 l 0,22.39453 14.60742,2.79492 2.3985,0 0,-27.98828 z m 3.39663,2 -0.002,3 6.99797,0 -0.002,0.99609 -6.99797,0 0.002,5 6.99797,0 -0.004,1 -6.99796,0 0.004,4.99805 6.99797,0 -0.002,1.00195 -6.99798,0 0,4.99805 6.99798,0 0,1 -6.99798,0 0.004,1.99414 8.99601,0 0,-15.99219 1,-0.002 c 0,0 1,0 1,-1 l 0,-4 c 0,0 -1e-5,-0.99995 -1,-1 l -1,0.004 0,-1.99805 z m -5.40444,6.13672 0,12.16015 -2.18945,-0.35156 -4.11133,-7.34961 0,7.00196 -2.09766,-0.26563 0,-10.58594 2.09766,-0.17187 4.1582,7.74023 -0.0469,-8.00586 z m 15.40045,2.85742 0,6 c 0,0 1.0625,-0.25 1,-1 l 0,-4 c 0,-0.75 -1,-1 -1,-1 z m 0,7 0,6 c 0,0 1,0 1,-1 l 0,-4 c -0.125,-0.8125 -1,-1 -1,-1 z"
         style="display:inline;opacity:0.2;fill:#000000;fill-opacity:1;enable-background:new" />
      <path
         style="display:inline;opacity:0.2;fill:#000000;fill-opacity:1;enable-background:new"
         d="m 336.21213,49.01127 -29.21484,5.59766 0,44.78906 29.21484,5.58984 4.797,0 0,-55.97656 z m 6.79326,4 -0.004,6 13.99594,0 -0.004,1.99218 -13.99594,0 0.004,10 13.99594,0 -0.008,2 -13.99592,0 0.008,9.9961 13.99594,0 -0.004,2.0039 -13.99596,0 0,9.9961 13.99596,0 0,2 -13.99596,0 0.008,3.98828 17.99202,0 0,-31.98438 2,-0.004 c 0,0 2,0 2,-2 l 0,-8 c 0,0 -2e-5,-1.9999 -2,-2 l -2,0.008 0,-3.9961 z m -10.80888,12.27344 0,24.3203 -4.3789,-0.70312 -8.22266,-14.69922 0,14.00392 -4.19532,-0.53126 0,-21.17188 4.19532,-0.34374 8.3164,15.48046 -0.0938,-16.01172 z m 30.8009,5.71484 0,12 c 0,0 2.125,-0.5 2,-2 l 0,-8 c 0,-1.5 -2,-2 -2,-2 z m 0,14 0,12 c 0,0 2,0 2,-2 l 0,-8 c -0.25,-1.625 -2,-2 -2,-2 z"
         id="path4385"
         inkscape:connector-curvature="0"
         sodipodi:nodetypes="ccccccccccccccccccccccccccccccccccccccccccccccccccccccc" />
      <path
         id="path4387"
         d="m 151.94236,76.99955 -88.001602,16.00312 0,128.00936 88.001602,15.98752 8.00156,0 0,-160 z m 12.00244,12.00116 0,16.00312 28.02184,0.003 0,3.99688 -28.02184,-0.003 0,20.00784 28.02184,0.003 0,3.99216 -28.02184,-0.003 0,20.01248 28.02184,0.003 0,3.9922 -28.02184,-0.003 0,20.01252 28.02184,0.003 0,3.9922 -28.02184,-0.003 0,20.01248 28.02184,0.003 -0.02,3.975 -28.02184,-0.003 0.02,20.02968 44.02496,0.003 0,-88.0172 8.00156,0 c 4.43288,0 8.00156,-3.56868 8.00156,-8.00152 l 0,-24.00472 c 0,-4.43288 -3.56868,-8.00156 -8.00156,-8.00156 l -8.00156,0 0,-8.00156 z m -27.99,34.50792 0,69.51356 -12.5024,-2.00036 -23.504602,-42.00824 0,40.00784 -12.00236,-1.50032 0,-60.5118 12.00236,-1.0002 23.754602,44.25868 -0.25,-45.759 z m 80.01652,21.50612 -4.02652,-0.016 0,32 4.02652,0.02 c 0,0 9.0624,0.48536 8.00156,-8.0016 l 0,-16.00312 c 0,-8.00156 -8.00156,-8.00156 -8.00156,-8.00156 z m 0,40.00784 -4.02652,-0.02 0,32 4.02652,0.028 c 0,0 8.35516,0.1316 8.00156,-8.00156 l 0,-16.00312 c -0.70732,-7.42608 -8.00156,-8.00156 -8.00156,-8.00156 z"
         style="display:inline;opacity:0.2;fill:#000000;fill-opacity:1;enable-background:new"
         inkscape:connector-curvature="0"
         sodipodi:nodetypes="cccccccccccccccccccccccccccccccsssscccccccccccccccccccscccccccccc" />
      <path
         id="path4297"
         d="m 321.99961,153 -22.0004,4.00078 0,32.00234 22.0004,3.99688 2.00039,0 0,-40 z m 3.00061,3.00029 0,4.00078 7.00546,7.8e-4 0,0.99922 -7.00546,-7.8e-4 0,5.00196 7.00546,7.8e-4 0,0.99804 -7.00546,-7.8e-4 0,5.00312 7.00546,7.8e-4 0,0.99805 -7.00546,-7.8e-4 0,5.00313 7.00546,7.8e-4 0,0.99805 -7.00546,-7.8e-4 0,5.00312 7.00546,7.8e-4 -0.005,0.99375 -7.00546,-7.8e-4 0.005,5.00742 11.00624,7.8e-4 0,-22.0043 2.00039,0 c 1.10822,0 2.00039,-0.89217 2.00039,-2.00038 l 0,-6.00118 c 0,-1.10822 -0.89217,-2.00039 -2.00039,-2.00039 l -2.00039,0 0,-2.00039 z m -6.9975,8.62698 0,17.37839 -3.1256,-0.50009 -5.87615,-10.50206 0,10.00196 -3.00059,-0.37508 0,-15.12795 3.00059,-0.25005 5.93865,11.06467 -0.0625,-11.43975 z m 20.00413,5.37653 -1.00663,-0.004 0,8 1.00663,0.005 c 0,0 2.2656,0.12134 2.00039,-2.0004 l 0,-4.00078 c 0,-2.00039 -2.00039,-2.00039 -2.00039,-2.00039 z m 0,10.00196 -1.00663,-0.005 0,8 1.00663,0.007 c 0,0 2.08879,0.0329 2.00039,-2.00039 l 0,-4.00078 c -0.17683,-1.85652 -2.00039,-2.00039 -2.00039,-2.00039 z"
         style="display:inline;fill:#ffffff;fill-opacity:1;enable-background:new"
         inkscape:connector-curvature="0"
         sodipodi:nodetypes="cccccccccccccccccccccccccccccccsssscccccccccccccccccccscccccccccc" />
      <path
         style="display:inline;fill:#ffffff;fill-opacity:1;enable-background:new"
         d="M 432.99805 58 L 422 60 L 422 75.998047 L 432.99805 77.996094 L 433.99805 77.996094 L 433.99805 58 L 432.99805 58 z M 435 60 L 435 62 L 438 62 L 438 63 L 435 63 L 435 65 L 438 65 L 438 66 L 435 66 L 435 68 L 438 68 L 438 69 L 435 69 L 435 71 L 438 71 L 438 72 L 435 72 L 435 74 L 438 74 L 438 75 L 435 75 L 435 77 L 440 77 L 440 66 L 441 66 C 441.554 66 442 65.554 442 65 L 442 62 C 442 61.446 441.554 61 441 61 L 440 61 L 440 60 L 435 60 z M 431 63.8125 L 431 72.5 L 429.4375 72.25 L 426.5 67 L 426.5 72 L 425 71.8125 L 425 64.25 L 426.5 64.125 L 429.46875 69.65625 L 429.4375 63.9375 L 431 63.8125 z M 441 67 L 441 71 C 441 71 442.13258 71.06066 442 70 L 442 68 C 442 67 441 67 441 67 z M 441 72 L 441 76 C 441 76 442.04419 76.01647 442 75 L 442 73 C 441.9116 72.071922 441 72 441 72 z "
         id="path7689" />
      <path
         id="path4339"
         d="m 424.4966,142.99818 -5.5021,1.00056 0,8.0035 5.5021,0.99958 0.50028,0 0,-10.00364 z M 426,144 l 0,1.00056 0.99898,-0.001 0,0.50028 -0.99898,0.001 0,1.00056 0.99898,-0.001 0,0.50028 -0.99898,0.001 0,1.00056 0.99898,-0.001 0,0.50028 -0.99898,0.001 0,1.00056 0.99898,-0.001 0,0.50028 -0.99898,0.001 0,1.00056 0.99898,-0.001 0,0.50028 -0.99898,0.001 0,1.00056 1.99954,-0.001 0,-5.50308 0.50028,0 c 0.27716,0 0.50028,-0.22313 0.50028,-0.50028 l 0,-1.50084 c 0,-0.27716 -0.22312,-0.50028 -0.50028,-0.50028 l -0.50028,0 0,-0.50028 z m -2.50298,1.90605 0,4.34619 -0.78169,-0.12507 -1.46957,-2.62647 0,2.5014 -0.75042,-0.0938 0,-3.78337 0.75042,-0.0625 1.48521,2.76717 -0.0156,-2.86097 0.78169,-0.0625 z m 5.0028,1.59465 0,2.00112 c 0,0 0.56661,0.0303 0.50028,-0.50028 l 0,-1.00056 c 0,-0.50028 -0.50028,-0.50028 -0.50028,-0.50028 z m 0,2.5014 0,2.00112 c 0,0 0.52239,0.008 0.50028,-0.50028 l 0,-1.00056 c -0.0442,-0.4643 -0.50028,-0.50028 -0.50028,-0.50028 z"
         style="display:inline;fill:#ffffff;fill-opacity:1;enable-background:new"
         inkscape:connector-curvature="0"
         sodipodi:nodetypes="cccccccccccccccccccccccccccccccssssccccccccccccccccccscccccc" />
      <path
         style="display:inline;fill:#ffffff;fill-opacity:1;enable-background:new"
         d="M 428.30078 105 L 420.99414 106.40039 L 420.99414 117.60156 L 428.30078 119 L 429 119 L 429 105 L 428.30078 105 z M 430 106 L 430 108 L 433 108 L 433 109 L 430 109 L 430 111 L 433 111 L 433 112 L 430 112 L 430 114 L 433 114 L 433 115 L 430 115 L 430 118 L 434 118 L 434 110 L 435 110 L 435 107 L 434 107 L 434 106 L 430 106 z M 427.29688 109.07031 L 427.29688 115.15234 L 426.20117 114.97656 L 424.14453 111.30078 L 424.14453 114.80273 L 423.0957 114.66992 L 423.0957 109.375 L 424.14453 109.28906 L 426.22461 113.16016 L 426.20117 109.15625 L 427.29688 109.07031 z "
         id="path4341" />
      <path
         style="display:inline;fill:#ffffff;fill-opacity:1;enable-background:new"
         d="M 311.60742,230.20117 297,233 l 0,22.39453 14.60742,2.79492 2.3985,0 0,-27.98828 z m 3.39663,2 -0.002,3 6.99797,0 -0.002,0.99609 -6.99797,0 0.002,5 6.99797,0 -0.004,1 -6.99796,0 0.004,4.99805 6.99797,0 -0.002,1.00195 -6.99798,0 0,4.99805 6.99798,0 0,1 -6.99798,0 0.004,1.99414 8.99601,0 0,-15.99219 1,-0.002 c 0,0 1,0 1,-1 l 0,-4 c 0,0 -1e-5,-0.99995 -1,-1 l -1,0.004 0,-1.99805 z m -5.40444,6.13672 0,12.16015 -2.18945,-0.35156 -4.11133,-7.34961 0,7.00196 -2.09766,-0.26563 0,-10.58594 2.09766,-0.17187 4.1582,7.74023 -0.0469,-8.00586 z m 15.40045,2.85742 0,6 c 0,0 1.0625,-0.25 1,-1 l 0,-4 c 0,-0.75 -1,-1 -1,-1 z m 0,7 0,6 c 0,0 1,0 1,-1 l 0,-4 c -0.125,-0.8125 -1,-1 -1,-1 z"
         id="path4361"
         inkscape:connector-curvature="0"
         sodipodi:nodetypes="ccccccccccccccccccccccccccccccccccccccccccccccccccccccc" />
      <path
         sodipodi:nodetypes="ccccccccccccccccccccccccccccccccccccccccccccccccccccccc"
         inkscape:connector-curvature="0"
         id="path4371"
         d="m 336.21213,48.01172 -29.21484,5.59766 0,44.78906 29.21484,5.58984 4.797,0 0,-55.97656 z m 6.79326,4 -0.004,6 13.99594,0 -0.004,1.99218 -13.99594,0 0.004,10 13.99594,0 -0.008,2 -13.99592,0 0.008,9.9961 13.99594,0 -0.004,2.0039 -13.99596,0 0,9.9961 13.99596,0 0,2 -13.99596,0 0.008,3.98828 17.99202,0 0,-31.98438 2,-0.004 c 0,0 2,0 2,-2 l 0,-8 c 0,0 -2e-5,-1.9999 -2,-2 l -2,0.008 0,-3.9961 z m -10.80888,12.27344 0,24.3203 -4.3789,-0.70312 -8.22266,-14.69922 0,14.00392 -4.19532,-0.53126 0,-21.17188 4.19532,-0.34374 8.3164,15.48046 -0.0938,-16.01172 z M 362.99741,70 l 0,12 c 0,0 2.125,-0.5 2,-2 l 0,-8 c 0,-1.5 -2,-2 -2,-2 z m 0,14 0,12 c 0,0 2,0 2,-2 l 0,-8 c -0.25,-1.625 -2,-2 -2,-2 z"
         style="display:inline;fill:#ffffff;fill-opacity:1;enable-background:new" />
      <path
         sodipodi:nodetypes="cccccccccccccccccccccccccccccccsssscccccccccccccccccccscccccccccc"
         inkscape:connector-curvature="0"
         style="display:inline;fill:#ffffff;fill-opacity:1;enable-background:new"
         d="m 151.94236,76 -88.001602,16.00312 0,128.00936 L 151.94236,236 l 8.00156,0 0,-160 z m 12.00244,12.00116 0,16.00312 28.02184,0.003 0,3.99688 -28.02184,-0.003 0,20.00784 28.02184,0.003 0,3.99216 -28.02184,-0.003 0,20.01248 28.02184,0.003 0,3.9922 -28.02184,-0.003 0,20.01252 28.02184,0.003 0,3.9922 -28.02184,-0.003 0,20.01248 28.02184,0.003 -0.02,3.975 -28.02184,-0.003 0.02,20.02968 44.02496,0.003 0,-88.0172 8.00156,0 c 4.43288,0 8.00156,-3.56868 8.00156,-8.00152 l 0,-24.00472 c 0,-4.43288 -3.56868,-8.00156 -8.00156,-8.00156 l -8.00156,0 0,-8.00156 z m -27.99,34.50792 0,69.51356 -12.5024,-2.00036 -23.504602,-42.00824 0,40.00784 -12.00236,-1.50032 0,-60.5118 12.00236,-1.0002 23.754602,44.25868 -0.25,-45.759 z m 80.01652,21.50612 -4.02652,-0.016 0,32 4.02652,0.02 c 0,0 9.0624,0.48536 8.00156,-8.0016 l 0,-16.00312 c 0,-8.00156 -8.00156,-8.00156 -8.00156,-8.00156 z m 0,40.00784 -4.02652,-0.02 0,32 4.02652,0.028 c 0,0 8.35516,0.1316 8.00156,-8.00156 l 0,-16.00312 c -0.70732,-7.42608 -8.00156,-8.00156 -8.00156,-8.00156 z"
         id="path4373" />
    </g>
    <g
       inkscape:groupmode="layer"
       id="layer5"
       inkscape:label="Highlights"
       style="display:inline"
       sodipodi:insensitive="true">
      <rect
         ry="9"
         y="307"
         x="-265"
         height="42"
         width="42"
         id="rect4884"
         style="opacity:0.20;color:#bebebe;fill:none;stroke:#000000;stroke-width:2;stroke-miterlimit:4;stroke-opacity:1;stroke-dasharray:none;marker:none;visibility:visible;display:inline;overflow:visible;enable-background:accumulate"
         transform="matrix(0,1,1,0,-16,488)"
         clip-path="url(#clipPath4891)" />
      <rect
         style="opacity:0.20;color:#bebebe;fill:none;stroke:#000000;stroke-width:2;stroke-miterlimit:4;stroke-opacity:1;stroke-dasharray:none;marker:none;visibility:visible;display:inline;overflow:visible;enable-background:accumulate"
         id="rect5311"
         width="16"
         height="16"
         x="-228"
         y="304"
         ry="3"
         clip-path="url(#clipPath3855)"
         transform="matrix(0,-1,1,0,112,-72)" />
      <rect
         ry="50"
         y="46"
         x="34"
         height="220"
         width="220"
         id="rect3858"
         style="opacity:0.20;color:#bebebe;fill:none;stroke:#000000;stroke-width:2;stroke-miterlimit:4;stroke-opacity:1;stroke-dasharray:none;marker:none;visibility:visible;display:inline;overflow:visible;enable-background:accumulate"
         clip-path="url(#clipPath3862)" />
      <rect
         ry="12.5"
         y="142"
         x="290"
         height="60"
         width="60"
         id="rect4175"
         style="opacity:0.20;color:#bebebe;fill:none;stroke:#000000;stroke-width:2;stroke-miterlimit:4;stroke-opacity:1;stroke-dasharray:none;marker:none;visibility:visible;display:inline;overflow:visible;enable-background:accumulate"
         clip-path="url(#clipPath4187)" />
      <rect
         style="opacity:0.20;color:#bebebe;fill:none;stroke:#000000;stroke-width:2;stroke-miterlimit:4;stroke-opacity:1;stroke-dasharray:none;marker:none;visibility:visible;display:inline;overflow:visible;enable-background:accumulate"
         id="rect4342"
         width="88"
         height="88"
         x="292"
         y="32"
         ry="18"
         clip-path="url(#clipPath4346)" />
      <rect
         ry="5"
         y="101"
         x="417"
         height="22"
         width="22"
         id="rect3866"
         style="opacity:0.20;color:#bebebe;fill:none;stroke:#000000;stroke-width:2;stroke-miterlimit:4;stroke-opacity:1;stroke-dasharray:none;marker:none;visibility:visible;display:inline;overflow:visible;enable-background:accumulate"
         clip-path="url(#clipPath3871)" />
      <rect
         style="opacity:0.20;color:#bebebe;fill:none;stroke:#000000;stroke-width:2;stroke-miterlimit:4;stroke-opacity:1;stroke-dasharray:none;marker:none;visibility:visible;display:inline;overflow:visible;enable-background:accumulate"
         id="rect3877"
         width="30"
         height="30"
         x="417"
         y="53"
         ry="7"
         clip-path="url(#clipPath3881)" />
    </g>
  </g>
</svg>
