<?xml version="1.0" encoding="UTF-8" standalone="no"?>
<!-- Created with Inkscape (http://www.inkscape.org/) -->

<svg
   xmlns:dc="http://purl.org/dc/elements/1.1/"
   xmlns:cc="http://creativecommons.org/ns#"
   xmlns:rdf="http://www.w3.org/1999/02/22-rdf-syntax-ns#"
   xmlns:svg="http://www.w3.org/2000/svg"
   xmlns="http://www.w3.org/2000/svg"
   xmlns:xlink="http://www.w3.org/1999/xlink"
   xmlns:sodipodi="http://sodipodi.sourceforge.net/DTD/sodipodi-0.dtd"
   xmlns:inkscape="http://www.inkscape.org/namespaces/inkscape"
   inkscape:export-ydpi="90.000000"
   inkscape:export-xdpi="90.000000"
   width="480"
   height="300"
   id="svg11300"
   sodipodi:version="0.32"
   inkscape:version="0.48.4 r9939"
   sodipodi:docname="web-ebay.svg"
   inkscape:output_extension="org.inkscape.output.svg.inkscape"
   version="1.0"
   style="display:inline;enable-background:new"
   inkscape:export-filename="/home/sam/moka-next-template.png">
  <sodipodi:namedview
     stroke="#ef2929"
     fill="#f57900"
     id="base"
     pagecolor="#777777"
     bordercolor="#666666"
     borderopacity="0.25490196"
     inkscape:pageopacity="0"
     inkscape:pageshadow="2"
     inkscape:zoom="1"
     inkscape:cx="147.65027"
     inkscape:cy="67.664413"
     inkscape:current-layer="layer7"
     showgrid="false"
     inkscape:grid-bbox="true"
     inkscape:document-units="px"
     inkscape:showpageshadow="false"
     inkscape:window-width="1364"
     inkscape:window-height="700"
     inkscape:window-x="0"
     inkscape:window-y="28"
     width="400px"
     height="300px"
     inkscape:snap-nodes="true"
     inkscape:snap-bbox="true"
     gridtolerance="10000"
     inkscape:object-nodes="true"
     inkscape:snap-grids="true"
     showguides="true"
     inkscape:guide-bbox="true"
     inkscape:window-maximized="1"
     inkscape:bbox-nodes="true"
     inkscape:bbox-paths="true"
     inkscape:snap-bbox-edge-midpoints="true"
     inkscape:snap-bbox-midpoints="true">
    <inkscape:grid
       spacingy="1px"
       spacingx="1px"
       id="grid5883"
       type="xygrid"
       enabled="true"
       visible="true"
       empspacing="4"
       snapvisiblegridlinesonly="true"
       dotted="false"
       color="#000000"
       opacity="0.1254902"
       empcolor="#203ef3"
       empopacity="0.36470588" />
    <inkscape:grid
       type="xygrid"
       id="grid11592"
       empspacing="8"
       visible="true"
       enabled="false"
       spacingx="0.5px"
       spacingy="0.5px"
       color="#ff0000"
       opacity="0.1254902"
       empcolor="#ff0000"
       empopacity="0.25098039"
       snapvisiblegridlinesonly="true"
       dotted="true" />
  </sodipodi:namedview>
  <defs
     id="defs3">
    <linearGradient
       id="outerBackgroundGradient">
      <stop
         style="stop-color:#7469b3;stop-opacity:1;"
         offset="0"
         id="stop3864-8-6" />
      <stop
         style="stop-color:#a6afe2;stop-opacity:1;"
         offset="1"
         id="stop3866-9-1" />
    </linearGradient>
    <linearGradient
       inkscape:collect="always"
       xlink:href="#outerBackgroundGradient"
       id="linearGradient4097"
       gradientUnits="userSpaceOnUse"
       x1="264"
       y1="280.00003"
       x2="264"
       y2="40.00005"
       gradientTransform="matrix(0.06666667,0,0,0.06666667,414.4,137.33333)" />
    <linearGradient
       inkscape:collect="always"
       xlink:href="#outerBackgroundGradient"
       id="linearGradient4101"
       gradientUnits="userSpaceOnUse"
       gradientTransform="matrix(0.0875,0,0,0.0875,414.9,97.5)"
       x1="286.85715"
       y1="302.85715"
       x2="286.85715"
       y2="28.571428" />
    <linearGradient
       inkscape:collect="always"
       xlink:href="#outerBackgroundGradient"
       id="linearGradient4153"
       gradientUnits="userSpaceOnUse"
       gradientTransform="matrix(0.11931818,0,0,0.11931818,414.13636,48.22727)"
       x1="283.80957"
       y1="299.80954"
       x2="283.80957"
       y2="31.61907" />
    <linearGradient
       inkscape:collect="always"
       xlink:href="#outerBackgroundGradient"
       id="linearGradient4869"
       gradientUnits="userSpaceOnUse"
       gradientTransform="matrix(0.175,0,0,-0.175,286.79999,-215.99997)"
       x1="281.14291"
       y1="297.14304"
       x2="281.14291"
       y2="22.857315" />
    <clipPath
       clipPathUnits="userSpaceOnUse"
       id="clipPath4891">
      <rect
         ry="9"
         y="223"
         x="307"
         height="42"
         width="42"
         id="rect4893"
         style="color:#bebebe;fill:url(#linearGradient4895);fill-opacity:1;fill-rule:nonzero;stroke:none;stroke-width:0;marker:none;visibility:visible;display:inline;overflow:visible;enable-background:accumulate"
         transform="matrix(0,1,-1,0,0,0)" />
    </clipPath>
    <linearGradient
       inkscape:collect="always"
       xlink:href="#outerBackgroundGradient"
       id="linearGradient4895"
       gradientUnits="userSpaceOnUse"
       gradientTransform="matrix(0.175,0,0,0.175,302.79999,215.99997)"
       x1="144.00006"
       y1="280.00018"
       x2="144.00006"
       y2="40.000172" />
    <clipPath
       clipPathUnits="userSpaceOnUse"
       id="clipPath4044">
      <rect
         ry="4"
         y="85"
         x="433"
         height="22"
         width="22"
         id="rect4046"
         style="color:#bebebe;fill:url(#linearGradient4048);fill-opacity:1;fill-rule:nonzero;stroke:none;stroke-width:0;marker:none;visibility:visible;display:inline;overflow:visible;enable-background:accumulate" />
    </clipPath>
    <linearGradient
       inkscape:collect="always"
       xlink:href="#outerBackgroundGradient"
       id="linearGradient4048"
       gradientUnits="userSpaceOnUse"
       gradientTransform="matrix(0.0875,0,0,0.0875,430.9,81.499996)"
       x1="149.71428"
       y1="291.42862"
       x2="149.71428"
       y2="40.000046" />
    <clipPath
       clipPathUnits="userSpaceOnUse"
       id="clipPath4089">
      <rect
         style="color:#bebebe;fill:url(#linearGradient4093);fill-opacity:1;fill-rule:nonzero;stroke:none;stroke-width:0;marker:none;visibility:visible;display:inline;overflow:visible;enable-background:accumulate"
         id="rect4091"
         width="30"
         height="30"
         x="433"
         y="37"
         ry="6" />
    </clipPath>
    <linearGradient
       inkscape:collect="always"
       xlink:href="#outerBackgroundGradient"
       id="linearGradient4093"
       gradientUnits="userSpaceOnUse"
       gradientTransform="matrix(0.11931818,0,0,0.11931818,430.13636,32.227267)"
       x1="149.71432"
       y1="291.42862"
       x2="149.71432"
       y2="40.00005" />
    <clipPath
       clipPathUnits="userSpaceOnUse"
       id="clipPath3855">
      <rect
         style="color:#bebebe;fill:url(#linearGradient3859);fill-opacity:1;fill-rule:nonzero;stroke:none;stroke-width:0;marker:none;visibility:visible;display:inline;overflow:visible;enable-background:accumulate"
         id="rect3857"
         width="16"
         height="16"
         x="304"
         y="212"
         ry="3"
         transform="matrix(0,1,-1,0,0,0)" />
    </clipPath>
    <linearGradient
       inkscape:collect="always"
       xlink:href="#outerBackgroundGradient"
       id="linearGradient3859"
       gradientUnits="userSpaceOnUse"
       gradientTransform="matrix(0.06666667,0,0,0.06666667,302.4,209.33333)"
       x1="144"
       y1="280.00003"
       x2="144"
       y2="40.00005" />
    <clipPath
       clipPathUnits="userSpaceOnUse"
       id="clipPath3862">
      <rect
         ry="50"
         y="46"
         x="34"
         height="220"
         width="220"
         id="rect3864"
         style="color:#bebebe;fill:url(#linearGradient3866);fill-opacity:1;fill-rule:nonzero;stroke:none;stroke-width:0;marker:none;visibility:visible;display:inline;overflow:visible;enable-background:accumulate" />
    </clipPath>
    <linearGradient
       inkscape:collect="always"
       xlink:href="#outerBackgroundGradient"
       id="linearGradient3866"
       gradientUnits="userSpaceOnUse"
       gradientTransform="translate(0,-4)"
       x1="144"
       y1="280"
       x2="144"
       y2="40" />
    <linearGradient
       inkscape:collect="always"
       xlink:href="#outerBackgroundGradient"
       id="linearGradient3876"
       gradientUnits="userSpaceOnUse"
       gradientTransform="translate(0,-4)"
       x1="272"
       y1="288"
       x2="272"
       y2="32" />
    <clipPath
       clipPathUnits="userSpaceOnUse"
       id="clipPath4187">
      <rect
         ry="12.5"
         y="142"
         x="290"
         height="60"
         width="60"
         id="rect4189"
         style="color:#bebebe;fill:url(#linearGradient4191);fill-opacity:1;fill-rule:nonzero;stroke:none;stroke-width:0;marker:none;visibility:visible;display:inline;overflow:visible;enable-background:accumulate" />
    </clipPath>
    <linearGradient
       inkscape:collect="always"
       xlink:href="#outerBackgroundGradient"
       id="linearGradient4191"
       gradientUnits="userSpaceOnUse"
       x1="352"
       y1="204"
       x2="352"
       y2="140" />
    <linearGradient
       inkscape:collect="always"
       xlink:href="#outerBackgroundGradient"
       id="linearGradient4197"
       gradientUnits="userSpaceOnUse"
       x1="384"
       y1="124"
       x2="384"
       y2="28" />
    <linearGradient
       inkscape:collect="always"
       xlink:href="#outerBackgroundGradient"
       id="linearGradient4199"
       gradientUnits="userSpaceOnUse"
       x1="352"
       y1="204"
       x2="352"
       y2="140" />
    <clipPath
       clipPathUnits="userSpaceOnUse"
       id="clipPath4346">
      <rect
         style="color:#bebebe;fill:url(#linearGradient4350);fill-opacity:1;fill-rule:nonzero;stroke:none;stroke-width:0;marker:none;visibility:visible;display:inline;overflow:visible;enable-background:accumulate"
         id="rect4348"
         width="88"
         height="88"
         x="292"
         y="32"
         ry="18" />
    </clipPath>
    <linearGradient
       inkscape:collect="always"
       xlink:href="#outerBackgroundGradient"
       id="linearGradient4350"
       gradientUnits="userSpaceOnUse"
       x1="384"
       y1="124"
       x2="384"
       y2="28" />
    <clipPath
       clipPathUnits="userSpaceOnUse"
       id="clipPath3871">
      <rect
         ry="5"
         y="101"
         x="417"
         height="22"
         width="22"
         id="rect3873"
         style="color:#bebebe;fill:url(#linearGradient3875);fill-opacity:1;fill-rule:nonzero;stroke:none;stroke-width:0;marker:none;visibility:visible;display:inline;overflow:visible;enable-background:accumulate" />
    </clipPath>
    <linearGradient
       inkscape:collect="always"
       xlink:href="#outerBackgroundGradient"
       id="linearGradient3875"
       gradientUnits="userSpaceOnUse"
       gradientTransform="matrix(0.0875,0,0,0.0875,414.9,97.5)"
       x1="286.85715"
       y1="302.85715"
       x2="286.85715"
       y2="28.571428" />
    <clipPath
       clipPathUnits="userSpaceOnUse"
       id="clipPath3881">
      <rect
         style="color:#bebebe;fill:url(#linearGradient3885);fill-opacity:1;fill-rule:nonzero;stroke:none;stroke-width:0;marker:none;visibility:visible;display:inline;overflow:visible;enable-background:accumulate"
         id="rect3883"
         width="30"
         height="30"
         x="417"
         y="53"
         ry="7" />
    </clipPath>
    <linearGradient
       inkscape:collect="always"
       xlink:href="#outerBackgroundGradient"
       id="linearGradient3885"
       gradientUnits="userSpaceOnUse"
       gradientTransform="matrix(0.11931818,0,0,0.11931818,414.13636,48.22727)"
       x1="283.80957"
       y1="299.80954"
       x2="283.80957"
       y2="31.61907" />
    <linearGradient
       inkscape:collect="always"
       xlink:href="#outerBackgroundGradient"
       id="linearGradient4235"
       gradientUnits="userSpaceOnUse"
       x1="384"
       y1="124"
       x2="384"
       y2="28" />
    <linearGradient
       inkscape:collect="always"
       xlink:href="#outerBackgroundGradient-9"
       id="linearGradient4254"
       x1="35"
       y1="156"
       x2="253"
       y2="156"
       gradientUnits="userSpaceOnUse"
       gradientTransform="matrix(0,-1,1,0,-12,300)" />
    <linearGradient
       inkscape:collect="always"
       xlink:href="#outerBackgroundGradient-9"
       id="linearGradient4256"
       x1="417"
       y1="148"
       x2="431"
       y2="148"
       gradientUnits="userSpaceOnUse"
       gradientTransform="matrix(0,-1,1,0,276,572)" />
    <linearGradient
       inkscape:collect="always"
       xlink:href="#outerBackgroundGradient"
       id="linearGradient4258"
       x1="418"
       y1="112"
       x2="438"
       y2="112"
       gradientUnits="userSpaceOnUse"
       gradientTransform="matrix(0,-1,1,0,316,540)" />
    <linearGradient
       inkscape:collect="always"
       xlink:href="#outerBackgroundGradient-9"
       id="linearGradient4260"
       x1="418"
       y1="68"
       x2="446"
       y2="68"
       gradientUnits="userSpaceOnUse"
       gradientTransform="matrix(0,-1,1,0,364,500)" />
    <linearGradient
       inkscape:collect="always"
       xlink:href="#outerBackgroundGradient-9"
       id="linearGradient4262"
       x1="292"
       y1="244"
       x2="332"
       y2="244"
       gradientUnits="userSpaceOnUse"
       gradientTransform="matrix(0,-1,1,0,68,556)" />
    <linearGradient
       inkscape:collect="always"
       xlink:href="#outerBackgroundGradient-9"
       id="linearGradient4264"
       x1="293"
       y1="76"
       x2="379"
       y2="76"
       gradientUnits="userSpaceOnUse"
       gradientTransform="matrix(0,-1,1,0,260,412)" />
    <linearGradient
       inkscape:collect="always"
       xlink:href="#outerBackgroundGradient-9"
       id="linearGradient4266"
       x1="291"
       y1="172"
       x2="349"
       y2="172"
       gradientUnits="userSpaceOnUse"
       gradientTransform="matrix(0,-1,1,0,148,492)" />
    <linearGradient
       inkscape:collect="always"
       xlink:href="#outerBackgroundGradient-9"
       id="linearGradient3870"
       gradientUnits="userSpaceOnUse"
       gradientTransform="matrix(0,-1,1,0,316,540)"
       x1="418"
       y1="112"
       x2="438"
       y2="112" />
    <linearGradient
       inkscape:collect="always"
       xlink:href="#outerBackgroundGradient-8"
       id="linearGradient3876-7"
       gradientUnits="userSpaceOnUse"
       gradientTransform="translate(0,-4)"
       x1="272"
       y1="288"
       x2="272"
       y2="32" />
    <linearGradient
       id="outerBackgroundGradient-8">
      <stop
         style="stop-color:#f2f2f2;stop-opacity:1;"
         offset="0"
         id="stop3864-8-6-1" />
      <stop
         style="stop-color:#ffffff;stop-opacity:1;"
         offset="1"
         id="stop3866-9-1-2" />
    </linearGradient>
    <linearGradient
       inkscape:collect="always"
       xlink:href="#outerBackgroundGradient-9"
       id="linearGradient3876-77"
       gradientUnits="userSpaceOnUse"
       gradientTransform="translate(0,-4)"
       x1="272"
       y1="288"
       x2="272"
       y2="32" />
    <linearGradient
       id="outerBackgroundGradient-9">
      <stop
         style="stop-color:#61b737;stop-opacity:1;"
         offset="0"
         id="stop3864-8-6-4" />
      <stop
         style="stop-color:#6dd03d;stop-opacity:1;"
         offset="1"
         id="stop3866-9-1-7" />
    </linearGradient>
    <linearGradient
       y2="32"
       x2="272"
       y1="288"
       x1="272"
       gradientTransform="translate(-1.0004883e-6,-4)"
       gradientUnits="userSpaceOnUse"
       id="linearGradient4839"
       xlink:href="#outerBackgroundGradient-9"
       inkscape:collect="always" />
  </defs>
  <metadata
     id="metadata4">
    <rdf:RDF>
      <cc:Work
         rdf:about="">
        <dc:format>image/svg+xml</dc:format>
        <dc:type
           rdf:resource="http://purl.org/dc/dcmitype/StillImage" />
        <dc:creator>
          <cc:Agent>
            <dc:title>Sam Hewitt</dc:title>
          </cc:Agent>
        </dc:creator>
        <dc:source />
        <cc:license
           rdf:resource="" />
        <dc:title></dc:title>
        <dc:subject>
          <rdf:Bag />
        </dc:subject>
        <dc:date />
        <dc:rights>
          <cc:Agent>
            <dc:title />
          </cc:Agent>
        </dc:rights>
        <dc:publisher>
          <cc:Agent>
            <dc:title />
          </cc:Agent>
        </dc:publisher>
        <dc:identifier />
        <dc:relation />
        <dc:language />
        <dc:coverage />
        <dc:description />
        <dc:contributor>
          <cc:Agent>
            <dc:title />
          </cc:Agent>
        </dc:contributor>
      </cc:Work>
      <cc:Work
         rdf:about="">
        <dc:format>image/svg+xml</dc:format>
        <dc:type
           rdf:resource="http://purl.org/dc/dcmitype/StillImage" />
      </cc:Work>
    </rdf:RDF>
  </metadata>
  <g
     style="display:inline"
     inkscape:groupmode="layer"
     inkscape:label="Icon"
     id="layer1">
    <g
       style="display:none"
       inkscape:label="Baseplate"
       id="layer7"
       inkscape:groupmode="layer">
      <text
         y="19.745117"
         xml:space="preserve"
         x="15.006836"
         style="font-size:18px;font-style:normal;font-variant:normal;font-weight:normal;font-stretch:normal;fill:#000000;fill-opacity:1;stroke:none;display:inline;enable-background:new;font-family:DejaVu Sans;-inkscape-font-specification:DejaVu Sans"
         inkscape:label="context"
         id="context"><tspan
           style="font-style:normal;font-variant:normal;font-weight:normal;font-stretch:normal;font-family:DejaVu Sans;-inkscape-font-specification:DejaVu Sans"
           y="19.745117"
           x="15.006836"
           sodipodi:role="line"
           id="tspan3933">web</tspan></text>
      <text
         y="19.745117"
         xml:space="preserve"
         x="122.48828"
         style="font-size:18px;font-style:normal;font-variant:normal;font-weight:bold;font-stretch:normal;text-align:start;line-height:125%;writing-mode:lr-tb;text-anchor:start;fill:#000000;fill-opacity:1;stroke:none;display:inline;enable-background:new;font-family:DejaVu Sans;-inkscape-font-specification:DejaVu Sans Bold"
         sodipodi:linespacing="125%"
         inkscape:label="icon-name"
         id="icon-name"><tspan
           style="font-size:18px;font-style:normal;font-variant:normal;font-weight:bold;font-stretch:normal;font-family:DejaVu Sans;-inkscape-font-specification:DejaVu Sans Bold"
           y="19.745117"
           x="122.48828"
           sodipodi:role="line"
           id="tspan3937">web-evernote</tspan></text>
      <rect
         style="fill:#eeeeec;fill-opacity:1;fill-rule:nonzero;stroke:none;stroke-width:2;marker:none;visibility:visible;display:inline;overflow:visible;enable-background:accumulate"
         id="rect16x16"
         width="16"
         height="16"
         x="416"
         y="140"
         inkscape:label="16x16" />
      <rect
         style="fill:#d4d4d4;fill-opacity:1;fill-rule:nonzero;stroke:none;stroke-width:2;marker:none;visibility:visible;display:inline;overflow:visible;enable-background:accumulate"
         id="rect24x24"
         width="24"
         height="24"
         x="416"
         y="100"
         inkscape:label="24x24" />
      <rect
         style="fill:#eeeeec;fill-opacity:1;fill-rule:nonzero;stroke:none;stroke-width:2;marker:none;visibility:visible;display:inline;overflow:visible;enable-background:accumulate"
         id="rect32x32"
         width="32"
         height="32"
         x="416"
         y="52"
         inkscape:label="32x32" />
      <rect
         inkscape:label="22x22"
         y="101"
         x="417"
         height="22"
         width="22"
         id="rect22x22"
         style="fill:#eeeeec;fill-opacity:1;fill-rule:nonzero;stroke:none;stroke-width:2;marker:none;visibility:visible;display:inline;overflow:visible;enable-background:accumulate" />
      <rect
         inkscape:label="48x48"
         y="220"
         x="288"
         height="48"
         width="48"
         id="rect48x48"
         style="fill:#eeeeec;fill-opacity:1;fill-rule:nonzero;stroke:none;stroke-width:2;marker:none;visibility:visible;display:inline;overflow:visible;enable-background:accumulate" />
      <rect
         style="fill:#eeeeec;fill-opacity:1;fill-rule:nonzero;stroke:none;stroke-width:2;marker:none;visibility:visible;display:inline;overflow:visible;enable-background:accumulate"
         id="rect256x256"
         width="256"
         height="256"
         x="16"
         y="28"
         inkscape:label="256x256" />
      <rect
         style="fill:#eeeeec;fill-opacity:1;fill-rule:nonzero;stroke:none;stroke-width:2;marker:none;visibility:visible;display:inline;overflow:visible;enable-background:accumulate"
         id="rect64x64"
         width="64"
         height="64"
         x="288"
         y="140"
         inkscape:label="64x64" />
      <rect
         style="fill:#eeeeec;fill-opacity:1;fill-rule:nonzero;stroke:none;stroke-width:2;marker:none;visibility:visible;display:inline;overflow:visible;enable-background:accumulate"
         id="rect96x96"
         width="96"
         height="96"
         x="288"
         y="28"
         inkscape:label="96x96" />
    </g>
    <g
       inkscape:groupmode="layer"
       id="layer4"
       inkscape:label="Shadow"
       style="display:inline"
       sodipodi:insensitive="true">
      <rect
         ry="50"
         y="47"
         x="34"
         height="220"
         width="220"
         id="rect4114"
         style="opacity:0.1;color:#bebebe;fill:#000000;fill-opacity:1;fill-rule:nonzero;stroke:none;stroke-width:0;marker:none;visibility:visible;display:inline;overflow:visible;enable-background:accumulate" />
      <rect
         style="opacity:0.1;color:#bebebe;fill:#000000;fill-opacity:1;fill-rule:nonzero;stroke:none;stroke-width:0;marker:none;visibility:visible;display:inline;overflow:visible;enable-background:accumulate"
         id="rect4120"
         width="30"
         height="30"
         x="417"
         y="54"
         ry="7" />
      <rect
         transform="scale(1,-1)"
         ry="9"
         y="-266"
         x="291"
         height="42"
         width="42"
         id="rect4122"
         style="opacity:0.1;color:#bebebe;fill:#000000;fill-opacity:1;fill-rule:nonzero;stroke:none;stroke-width:0;marker:none;visibility:visible;display:inline;overflow:visible;enable-background:accumulate" />
      <rect
         style="opacity:0.1;color:#bebebe;fill:#000000;fill-opacity:1;fill-rule:nonzero;stroke:none;stroke-width:0;marker:none;visibility:visible;display:inline;overflow:visible;enable-background:accumulate"
         id="rect4124"
         width="88"
         height="88"
         x="292"
         y="33"
         ry="18" />
      <rect
         ry="12.5"
         y="143"
         x="290"
         height="60"
         width="60"
         id="rect4126"
         style="opacity:0.1;color:#bebebe;fill:#000000;fill-opacity:1;fill-rule:nonzero;stroke:none;stroke-width:0;marker:none;visibility:visible;display:inline;overflow:visible;enable-background:accumulate" />
      <path
         id="path4268"
         d="m 422,101 c -2.77,0 -5,2.23 -5,5 l 0,12 c 0,2.77 2.23,5 5,5 l 12,0 c 2.77,0 5,-2.23 5,-5 l 0,-12 c 0,-2.77 -2.23,-5 -5,-5 z"
         style="opacity:0.1;color:#bebebe;fill:#000000;fill-opacity:1;fill-rule:nonzero;stroke:none;stroke-width:0;marker:none;visibility:visible;display:inline;overflow:visible;enable-background:accumulate"
         inkscape:connector-curvature="0"
         sodipodi:nodetypes="sssssssss" />
      <path
         id="path4270"
         d="m 419,140 c -1.662,0 -3,1.338 -3,3 l 0,10 c 0,1.662 1.338,3 3,3 l 10,0 c 1.662,0 3,-1.338 3,-3 l 0,-10 c 0,-1.662 -1.338,-3 -3,-3 z"
         style="opacity:0.1;color:#bebebe;fill:#000000;fill-opacity:1;fill-rule:nonzero;stroke:none;stroke-width:0;marker:none;visibility:visible;display:inline;overflow:visible;enable-background:accumulate"
         inkscape:connector-curvature="0"
         sodipodi:nodetypes="sssssssss" />
    </g>
    <g
       inkscape:groupmode="layer"
       id="layer2"
       inkscape:label="Background"
       style="display:inline">
      <path
         style="color:#bebebe;fill:url(#linearGradient4254);fill-opacity:1.0;fill-rule:nonzero;stroke:none;stroke-width:2;marker:none;visibility:visible;display:inline;overflow:visible;enable-background:accumulate"
         d="M 84 46.5 C 56.568735 46.5 34.5 68.568732 34.5 96 L 34.5 216 C 34.5 243.43127 56.568735 265.5 84 265.5 L 204 265.5 C 231.43127 265.5 253.5 243.43127 253.5 216 L 253.5 96 C 253.5 68.568732 231.43127 46.5 204 46.5 L 84 46.5 z "
         id="path4200" />
      <path
         style="color:#bebebe;fill:url(#linearGradient4256);fill-opacity:1.0;fill-rule:nonzero;stroke:none;stroke-width:2;marker:none;visibility:visible;display:inline;overflow:visible;enable-background:accumulate"
         d="M 419 140.5 C 417.6156 140.5 416.5 141.6156 416.5 143 L 416.5 153 C 416.5 154.3844 417.6156 155.5 419 155.5 L 429 155.5 C 430.3844 155.5 431.5 154.3844 431.5 153 L 431.5 143 C 431.5 141.6156 430.3844 140.5 429 140.5 L 419 140.5 z "
         id="path4202" />
      <path
         style="color:#bebebe;fill:url(#linearGradient3870);fill-opacity:1.0;fill-rule:nonzero;stroke:none;stroke-width:2;marker:none;visibility:visible;display:inline;overflow:visible;enable-background:accumulate"
         d="M 422 101.5 C 419.50301 101.5 417.5 103.50301 417.5 106 L 417.5 118 C 417.5 120.49699 419.50301 122.5 422 122.5 L 434 122.5 C 436.49699 122.5 438.5 120.49699 438.5 118 L 438.5 106 C 438.5 103.50301 436.49699 101.5 434 101.5 L 422 101.5 z "
         id="path4204" />
      <path
         style="color:#bebebe;fill:url(#linearGradient4260);fill-opacity:1.0;fill-rule:nonzero;stroke:none;stroke-width:2;marker:none;visibility:visible;display:inline;overflow:visible;enable-background:accumulate"
         d="M 424 53.5 C 420.39346 53.5 417.5 56.393464 417.5 60 L 417.5 76 C 417.5 79.606536 420.39346 82.5 424 82.5 L 440 82.5 C 443.60654 82.5 446.5 79.606536 446.5 76 L 446.5 60 C 446.5 56.393464 443.60654 53.5 440 53.5 L 424 53.5 z "
         id="path4206" />
      <path
         style="color:#bebebe;fill:url(#linearGradient4262);fill-opacity:1.0;fill-rule:nonzero;stroke:none;stroke-width:2;marker:none;visibility:visible;display:inline;overflow:visible;enable-background:accumulate"
         d="M 300 223.5 C 295.28469 223.5 291.5 227.28469 291.5 232 L 291.5 256 C 291.5 260.71531 295.28469 264.5 300 264.5 L 324 264.5 C 328.71531 264.5 332.5 260.71531 332.5 256 L 332.5 232 C 332.5 227.28469 328.71531 223.5 324 223.5 L 300 223.5 z "
         id="path4208" />
      <path
         style="color:#bebebe;fill:url(#linearGradient4264);fill-opacity:1.0;fill-rule:nonzero;stroke:none;stroke-width:2;marker:none;visibility:visible;display:inline;overflow:visible;enable-background:accumulate"
         d="M 310 32.5 C 300.29745 32.5 292.5 40.297452 292.5 50 L 292.5 102 C 292.5 111.70255 300.29745 119.5 310 119.5 L 362 119.5 C 371.70255 119.5 379.5 111.70255 379.5 102 L 379.5 50 C 379.5 40.297452 371.70255 32.5 362 32.5 L 310 32.5 z "
         id="path4210" />
      <path
         style="color:#bebebe;fill:url(#linearGradient4266);fill-opacity:1.0;fill-rule:nonzero;stroke:none;stroke-width:2;marker:none;visibility:visible;display:inline;overflow:visible;enable-background:accumulate"
         d="M 302.5 142.5 C 295.84498 142.5 290.5 147.84498 290.5 154.5 L 290.5 189.5 C 290.5 196.15502 295.84498 201.5 302.5 201.5 L 337.5 201.5 C 344.15502 201.5 349.5 196.15502 349.5 189.5 L 349.5 154.5 C 349.5 147.84498 344.15502 142.5 337.5 142.5 L 302.5 142.5 z "
         id="path4212" />
    </g>
    <g
       inkscape:groupmode="layer"
       id="layer6"
       inkscape:label="Symbols"
       style="display:inline">
      <path
         inkscape:connector-curvature="0"
         id="path13824"
         d="m 133.51216,87.317605 c -0.68421,-0.0013 -1.35362,0.01396 -1.9942,0.03439 -3.07477,0.09816 -5.5544,0.443084 -6.75048,0.779356 -2.53428,0.710687 -5.37261,2.168055 -6.93386,4.412448 -1.04705,1.49916 -1.67951,3.425515 -1.68476,6.10867 0,1.518611 0.0179,5.050551 0.0573,8.228951 0.0382,3.18828 0.0573,6.08926 0.0573,6.10868 -0.002,2.8386 -2.28134,5.1309 -5.12303,5.13448 l -13.019619,0 c -2.78061,0 -4.886832,0.47514 -6.509798,1.21487 -1.625413,0.74044 -2.804262,1.71871 -3.678957,2.89961 -1.741006,2.34505 -2.047231,5.21848 -2.040044,8.17164 0,0 0.01593,2.45788 0.595965,7.12869 0.481883,3.61412 4.426889,28.84757 8.137262,36.52598 1.438685,2.9877 2.365402,4.25328 5.191804,5.57 6.297347,2.70488 20.672877,5.67128 27.414527,6.53273 6.72946,0.86423 10.99533,2.69328 13.51243,-2.60163 0.0104,-0.0206 0.45266,-1.29565 1.13463,-3.20904 2.18531,-6.64396 2.53287,-12.54728 2.53287,-16.81318 0,-0.43374 0.60742,-0.45369 0.60742,0 0,3.01173 -0.5517,13.65605 7.47253,16.51519 3.16772,1.1271 9.72354,2.1145 16.40058,2.8996 6.03739,0.69603 10.42944,3.0835 10.42944,18.62401 0,9.45483 -2.01889,10.76181 -12.36634,10.76181 -8.38786,0 -11.56407,0.22218 -11.56407,-6.46396 0,-5.40353 5.3355,-4.83652 9.28336,-4.83652 1.76329,0 0.48135,-1.33078 0.48135,-4.66459 0,-3.31629 2.06977,-5.21165 0.11463,-5.26056 -13.65137,-0.3767 -21.69553,-0.0119 -21.69553,17.12261 0,15.55013 5.94222,18.44063 25.31717,18.44063 15.19105,0 20.54612,-0.49564 26.81859,-20.02222 1.24163,-3.85463 4.26911,-15.61641 6.08574,-35.36842 1.14879,-12.48846 -1.11819,-50.18631 -2.88815,-59.69997 -1.03532,-5.56042 -4.32151,-8.3549 -7.30062,-9.43234 -3.21412,-1.16554 -9.71326,-2.355296 -17.90196,-3.323664 -6.58798,-0.778395 -14.37078,-0.683744 -19.04806,-0.538671 -0.56132,-3.857598 -3.24006,-7.375603 -6.25766,-8.595685 -4.39689,-1.77563 -10.09821,-2.371297 -14.88774,-2.383879 z m -19.86178,3.770667 c -0.05,0.0079 -0.0993,0.04203 -0.14892,0.09157 L 88.17283,116.37095 c -0.04938,0.041 -0.07784,0.0946 -0.09178,0.14892 0.523773,-0.26008 1.239672,-0.62006 1.34093,-0.66473 2.205411,-0.99841 4.878751,-1.54722 8.079964,-1.54722 l 0.01199,0 11.564066,0 c 1.827,0 2.8194,-1.17571 2.8194,-2.81938 0,-0.007 -0.16047,-9.74248 -0.16047,-12.85917 l 0,-0.03439 c 0,-2.559742 0.53436,-4.788575 1.46699,-6.658803 l 0.44699,-0.848118 z m 60.55953,54.118478 c 0.17262,0.001 0.35237,0.007 0.5272,0.0119 6.19279,0.21378 7.02644,6.06208 7.04847,10.03977 -2.61115,-1.16816 -5.81983,-1.92735 -9.34064,-2.05149 -1.87675,-0.0657 -3.68039,0.0841 -5.36373,0.35528 0.44411,-3.59871 1.8396,-7.9745 6.62442,-8.34356 0.15947,-0.0119 0.33168,-0.014 0.50428,-0.0119 z"
         style="opacity:0.1;fill:#ffffff;fill-opacity:1;display:inline;enable-background:new" />
      <path
         style="opacity:0.1;fill:#ffffff;fill-opacity:1;display:inline;enable-background:new"
         d="m 331.48476,47.000037 c -0.29457,-5.6e-4 -0.58277,0.006 -0.85856,0.0148 -1.32376,0.0423 -2.3913,0.19076 -2.90624,0.33553 -1.09107,0.30597 -2.31304,0.9334 -2.9852,1.89967 -0.45078,0.64542 -0.72307,1.47477 -0.72533,2.62993 0,0.6538 0.008,2.17439 0.0247,3.54277 0.0164,1.37263 0.0247,2.62157 0.0247,2.62993 -8.6e-4,1.22209 -0.98217,2.20898 -2.20559,2.21052 l -5.60526,0 c -1.19712,0 -2.1039,0.20456 -2.80263,0.52303 -0.69978,0.31878 -1.2073,0.73995 -1.58388,1.24835 -0.74954,1.0096 -0.88138,2.24669 -0.87829,3.51809 0,0 0.007,1.05818 0.25658,3.06908 0.20746,1.55596 1.90588,12.41958 3.50329,15.72532 0.61939,1.28628 1.01836,1.83114 2.2352,2.39802 2.71116,1.16452 8.90017,2.44163 11.80262,2.8125 2.89719,0.37207 4.73376,1.15952 5.81743,-1.12006 0.004,-0.009 0.19488,-0.55781 0.48848,-1.38157 0.94083,-2.86039 1.09047,-5.40191 1.09047,-7.23849 0,-0.18673 0.26151,-0.19532 0.26151,0 0,1.29663 -0.23752,5.87926 3.2171,7.11019 1.36378,0.48525 4.18622,0.91035 7.06085,1.24835 2.59924,0.29966 4.49013,1.32752 4.49013,8.01809 0,4.070543 -0.86918,4.633223 -5.32401,4.633223 -3.61118,0 -4.97862,0.0957 -4.97862,-2.782893 0,-2.32635 2.29707,-2.08224 3.99672,-2.08224 0.75914,0 0.20723,-0.57293 0.20723,-2.00822 0,-1.42774 0.89109,-2.24374 0.0493,-2.2648 -5.87725,-0.16218 -9.34045,-0.005 -9.34045,7.3717 0,6.694713 2.55827,7.939143 10.89965,7.939143 6.54012,0 8.84561,-0.21338 11.54606,-8.620053 0.53455,-1.65951 1.83796,-6.72324 2.62006,-15.22697 0.49458,-5.37658 -0.48141,-21.60642 -1.24342,-25.70229 -0.44573,-2.39389 -1.86051,-3.59698 -3.14309,-4.06085 -1.38376,-0.50179 -4.1818,-1.01401 -7.70723,-1.43092 -2.83629,-0.33511 -6.18697,-0.29436 -8.20066,-0.23191 -0.24166,-1.66079 -1.39492,-3.17537 -2.69407,-3.70065 -1.89297,-0.76445 -4.34753,-1.0209 -6.40954,-1.02632 z m -8.55099,1.62336 c -0.0215,0.003 -0.0427,0.0181 -0.0641,0.0394 l -10.90459,10.84541 c -0.0213,0.0177 -0.0335,0.0407 -0.0395,0.0641 0.22549,-0.11197 0.53371,-0.26695 0.5773,-0.28618 0.94948,-0.42984 2.10042,-0.66612 3.47862,-0.66612 l 0.005,0 4.97861,0 c 0.78657,0 1.21382,-0.50617 1.21382,-1.21381 0,-0.003 -0.0691,-4.19437 -0.0691,-5.53618 l 0,-0.0148 c 0,-1.10203 0.23006,-2.0616 0.63158,-2.86678 l 0.19244,-0.36513 z m 26.07236,23.29932 c 0.0743,4.3e-4 0.1517,0.003 0.22697,0.005 2.66615,0.092 3.02505,2.60988 3.03454,4.32237 -1.12417,-0.50292 -2.50558,-0.82977 -4.02138,-0.88322 -0.80798,-0.0283 -1.58449,0.0362 -2.30921,0.15296 0.1912,-1.54933 0.79199,-3.43322 2.85197,-3.59211 0.0687,-0.005 0.1428,-0.006 0.21711,-0.005 z"
         id="path13826"
         inkscape:connector-curvature="0" />
      <path
         inkscape:connector-curvature="0"
         id="path13828"
         d="m 316.98972,152.50002 c -0.19638,-3.7e-4 -0.38851,0.004 -0.57237,0.01 -0.88251,0.0282 -1.5942,0.12718 -1.93749,0.22369 -0.72738,0.20398 -1.54203,0.62227 -1.99014,1.26645 -0.30052,0.43028 -0.48204,0.98318 -0.48355,1.75328 0,0.43587 0.005,1.4496 0.0165,2.36185 0.0109,0.91509 0.0165,1.74771 0.0165,1.75329 -5.7e-4,0.81472 -0.65478,1.47265 -1.47039,1.47368 l -3.73684,0 c -0.79808,0 -1.4026,0.13637 -1.86842,0.34868 -0.46652,0.21252 -0.80487,0.4933 -1.05592,0.83224 -0.49969,0.67306 -0.58759,1.49779 -0.58553,2.34539 0,0 0.005,0.70545 0.17106,2.04605 0.1383,1.03731 1.27058,8.27972 2.33552,10.48355 0.41293,0.85752 0.67891,1.22076 1.49014,1.59868 1.80744,0.77635 5.93344,1.62775 7.86841,1.875 1.93146,0.24805 3.15584,0.77301 3.87829,-0.74671 0.003,-0.006 0.12992,-0.37187 0.32565,-0.92104 0.62722,-1.90693 0.72698,-3.60128 0.72698,-4.82566 0,-0.12449 0.17434,-0.13022 0.17434,0 0,0.86442 -0.15835,3.9195 2.14473,4.74012 0.90919,0.3235 2.79082,0.6069 4.70724,0.83224 1.73282,0.19977 2.99342,0.88501 2.99342,5.34539 0,2.71369 -0.57946,3.08881 -3.54934,3.08881 -2.40746,0 -3.31908,0.0638 -3.31908,-1.85526 0,-1.5509 1.53138,-1.38816 2.66448,-1.38816 0.50609,0 0.13815,-0.38195 0.13815,-1.33881 0,-0.95183 0.59406,-1.49583 0.0329,-1.50987 -3.91817,-0.10812 -6.22697,-0.003 -6.22697,4.91447 0,4.46314 1.70551,5.29276 7.26643,5.29276 4.36008,0 5.89708,-0.14225 7.69738,-5.7467 0.35636,-1.10634 1.2253,-4.48216 1.7467,-10.15131 0.32972,-3.58439 -0.32094,-14.40428 -0.82894,-17.13486 -0.29716,-1.59593 -1.24034,-2.39799 -2.0954,-2.70724 -0.9225,-0.33452 -2.78786,-0.676 -5.13815,-0.95394 -1.89086,-0.22341 -4.12465,-0.19624 -5.46711,-0.15461 -0.1611,-1.10719 -0.92994,-2.11691 -1.79604,-2.4671 -1.26198,-0.50963 -2.89836,-0.6806 -4.27303,-0.68421 z m -5.70066,1.08224 c -0.0143,0.002 -0.0285,0.0121 -0.0427,0.0263 l -7.26973,7.23028 c -0.0142,0.0118 -0.0223,0.0271 -0.0263,0.0427 0.15033,-0.0746 0.35581,-0.17797 0.38487,-0.19079 0.63298,-0.28656 1.40028,-0.44408 2.31908,-0.44408 l 0.003,0 3.31907,0 c 0.52438,0 0.80922,-0.33745 0.80922,-0.80921 0,-0.002 -0.0461,-2.79624 -0.0461,-3.69078 l 0,-0.01 c 0,-0.73469 0.15337,-1.3744 0.42105,-1.91119 l 0.1283,-0.24342 z m 17.38158,15.53288 c 0.0495,2.9e-4 0.10113,0.002 0.15131,0.003 1.77743,0.0613 2.0167,1.73992 2.02303,2.88158 -0.74945,-0.33528 -1.67039,-0.55318 -2.68092,-0.58881 -0.53866,-0.0189 -1.05633,0.0241 -1.53948,0.10197 0.12747,-1.03288 0.528,-2.28881 1.90132,-2.39474 0.0458,-0.003 0.0952,-0.004 0.14474,-0.003 z"
         style="opacity:0.1;fill:#ffffff;fill-opacity:1;display:inline;enable-background:new" />
      <path
         style="opacity:0.1;fill:#ffffff;fill-opacity:1;display:inline;enable-background:new"
         d="m 309.89292,231.00002 c -0.13746,-2.6e-4 -0.27195,0.003 -0.40065,0.007 -0.61776,0.0197 -1.11594,0.089 -1.35624,0.15658 -0.50917,0.14278 -1.07942,0.43559 -1.3931,0.88651 -0.21036,0.30119 -0.33742,0.68822 -0.33848,1.22729 0,0.30511 0.003,1.01472 0.0115,1.65329 0.008,0.64056 0.0115,1.22339 0.0115,1.2273 -4e-4,0.5703 -0.45835,1.03085 -1.02927,1.03157 l -2.61578,0 c -0.55865,0 -0.98182,0.0955 -1.30789,0.24408 -0.32656,0.14876 -0.56341,0.34531 -0.73914,0.58256 -0.34978,0.47114 -0.41131,1.04845 -0.40987,1.64177 0,0 0.003,0.49382 0.11974,1.43223 0.0968,0.72612 0.8894,5.79579 1.63486,7.33846 0.28905,0.60026 0.47524,0.85453 1.04309,1.11908 1.26521,0.54344 4.1534,1.13942 5.50787,1.31249 1.35202,0.17364 2.20908,0.54111 2.7148,-0.52269 0.002,-0.004 0.0909,-0.26031 0.22795,-0.64473 0.43905,-1.33485 0.50889,-2.52089 0.50889,-3.37795 0,-0.0871 0.12203,-0.0911 0.12203,0 0,0.60509 -0.11084,2.74364 1.50131,3.31807 0.63643,0.22645 1.95357,0.42483 3.29506,0.58257 1.21297,0.13984 2.09538,0.6195 2.09538,3.74176 0,1.89958 -0.40562,2.16216 -2.48453,2.16216 -1.68521,0 -2.32334,0.0447 -2.32334,-1.29868 0,-1.08563 1.07196,-0.97171 1.86513,-0.97171 0.35426,0 0.0967,-0.26736 0.0967,-0.93716 0,-0.66628 0.41584,-1.04708 0.023,-1.05691 -2.74271,-0.0757 -4.35886,-0.002 -4.35886,3.44012 0,3.12419 1.19385,3.70492 5.08648,3.70492 3.05205,0 4.12794,-0.0996 5.38815,-4.02268 0.24945,-0.77443 0.8577,-3.1375 1.22268,-7.10589 0.23081,-2.50907 -0.22465,-10.08296 -0.58025,-11.99436 -0.20801,-1.11715 -0.86824,-1.67859 -1.46678,-1.89506 -0.64575,-0.23417 -1.95149,-0.4732 -3.59669,-0.66776 -1.3236,-0.15639 -2.88725,-0.13737 -3.82697,-0.10823 -0.11276,-0.77503 -0.65095,-1.48183 -1.25722,-1.72696 -0.88338,-0.35674 -2.02884,-0.47642 -2.99111,-0.47895 z m -3.99045,0.75756 c -0.01,0.001 -0.0199,0.008 -0.0299,0.0184 l -5.08879,5.06118 c -0.01,0.008 -0.0156,0.019 -0.0184,0.0299 0.10523,-0.0522 0.24907,-0.12458 0.26941,-0.13355 0.44308,-0.20059 0.98019,-0.31086 1.62335,-0.31086 l 0.002,0 2.32334,0 c 0.36706,0 0.56645,-0.23621 0.56645,-0.56644 0,-0.001 -0.0323,-1.95736 -0.0323,-2.58354 l 0,-0.007 c 0,-0.51428 0.10736,-0.96208 0.29474,-1.33783 l 0.0898,-0.17039 z m 12.16707,10.87298 c 0.0346,2e-4 0.0708,0.001 0.10592,0.002 1.24419,0.0429 1.41168,1.21794 1.41611,2.0171 -0.52461,-0.23469 -1.16927,-0.38722 -1.87663,-0.41217 -0.37707,-0.0132 -0.73943,0.0169 -1.07764,0.0714 0.0892,-0.72301 0.3696,-1.60216 1.33092,-1.67631 0.0321,-0.002 0.0666,-0.003 0.10132,-0.002 z"
         id="path13830"
         inkscape:connector-curvature="0" />
      <path
         inkscape:connector-curvature="0"
         id="path13832"
         d="m 430.49537,59.000037 c -0.0982,-1.87e-4 -0.19426,0.002 -0.28619,0.0049 -0.44125,0.0141 -0.7971,0.06359 -0.96875,0.111844 -0.36369,0.10199 -0.77101,0.311133 -0.99506,0.633223 -0.15026,0.21514 -0.24103,0.49159 -0.24178,0.876644 0,0.217933 0.003,0.724796 0.008,1.180923 0.005,0.457543 0.008,0.873857 0.008,0.876643 -2.9e-4,0.407364 -0.32739,0.736327 -0.7352,0.73684 l -1.86842,0 c -0.39904,0 -0.7013,0.06819 -0.93421,0.174344 -0.23326,0.10626 -0.40243,0.24665 -0.52796,0.416116 -0.24985,0.336534 -0.29379,0.748897 -0.29276,1.172697 0,0 0.002,0.352727 0.0855,1.023027 0.0692,0.518653 0.6353,4.13986 1.16777,5.241774 0.20646,0.42876 0.33945,0.61038 0.74506,0.79934 0.90372,0.388173 2.96673,0.813881 3.93421,0.937501 0.96573,0.12402 1.57792,0.38651 1.93914,-0.373355 0.001,-0.003 0.065,-0.185936 0.16283,-0.460523 0.31361,-0.953463 0.36349,-1.800637 0.36349,-2.41283 0,-0.06224 0.0872,-0.06511 0.0872,0 0,0.43221 -0.0792,1.959753 1.07237,2.370063 0.45459,0.16175 1.3954,0.30345 2.35361,0.416117 0.86642,0.09989 1.49671,0.442508 1.49671,2.672698 0,1.35685 -0.28972,1.54441 -1.77467,1.54441 -1.20372,0 -1.65954,0.0319 -1.65954,-0.92763 0,-0.77545 0.76569,-0.69408 1.33224,-0.69408 0.25305,0 0.0691,-0.19098 0.0691,-0.66941 0,-0.47591 0.29703,-0.74791 0.0164,-0.75493 -1.95908,-0.0541 -3.11348,-0.002 -3.11348,2.45723 0,2.23157 0.85276,2.64638 3.63322,2.64638 2.18004,0 2.94853,-0.0711 3.84868,-2.87335 0.17819,-0.55317 0.61266,-2.24108 0.87336,-5.075658 0.16486,-1.792194 -0.16047,-7.202141 -0.41448,-8.567431 -0.14857,-0.797963 -0.62017,-1.198993 -1.04769,-1.353616 -0.46126,-0.167264 -1.39394,-0.338004 -2.56908,-0.476974 -0.94543,-0.111703 -2.06232,-0.09812 -2.73355,-0.0773 -0.0806,-0.553597 -0.46498,-1.058457 -0.89803,-1.23355 -0.63099,-0.254817 -1.44917,-0.3403 -2.13651,-0.342107 z m -2.85033,0.54112 c -0.007,0.001 -0.0142,0.006 -0.0214,0.01313 l -3.63486,3.615137 c -0.007,0.0059 -0.0112,0.01357 -0.0132,0.02137 0.0752,-0.03732 0.1779,-0.08898 0.19243,-0.09539 0.3165,-0.14328 0.70014,-0.22204 1.15954,-0.22204 l 0.002,0 1.65954,0 c 0.26219,0 0.4046,-0.168724 0.4046,-0.404604 0,-0.001 -0.023,-1.398123 -0.023,-1.845393 l 0,-0.0049 c 0,-0.367344 0.0767,-0.6872 0.21053,-0.955594 l 0.0641,-0.12171 z m 8.69078,7.766441 c 0.0248,1.43e-4 0.0506,0.001 0.0757,0.0017 0.88872,0.03067 1.00835,0.86996 1.01151,1.44079 -0.37472,-0.16764 -0.83519,-0.27659 -1.34046,-0.294406 -0.26932,-0.0094 -0.52816,0.01207 -0.76973,0.05099 0.0637,-0.516443 0.26399,-1.144406 0.95065,-1.19737 0.0229,-0.0017 0.0476,-0.002 0.0724,-0.0017 z"
         style="opacity:0.1;fill:#ffffff;fill-opacity:1;display:inline;enable-background:new" />
      <path
         style="opacity:0.1;fill:#ffffff;fill-opacity:1;display:inline;enable-background:new"
         d="m 426.87146,105.50068 c -0.0736,-1.4e-4 -0.14569,10e-4 -0.21463,0.003 -0.33095,0.0107 -0.59783,0.0477 -0.72657,0.0839 -0.27277,0.0765 -0.57826,0.23336 -0.7463,0.47492 -0.11269,0.16136 -0.18077,0.36869 -0.18134,0.65748 0,0.16345 0.002,0.5436 0.006,0.8857 0.004,0.34316 0.006,0.65539 0.006,0.65749 -2.1e-4,0.30552 -0.24554,0.55225 -0.5514,0.55262 l -1.40131,0 c -0.29928,0 -0.52598,0.0511 -0.70066,0.13076 -0.17495,0.0797 -0.30182,0.18498 -0.39597,0.31209 -0.18739,0.25239 -0.22035,0.56167 -0.21958,0.87952 0,0 10e-4,0.26455 0.0642,0.76728 0.0519,0.38898 0.47649,3.10489 0.87583,3.93133 0.15485,0.32156 0.25459,0.45779 0.5588,0.5995 0.67779,0.29113 2.22505,0.61043 2.95067,0.70313 0.72429,0.093 1.18343,0.28989 1.45434,-0.28001 7.5e-4,-0.002 0.0487,-0.13944 0.12214,-0.34539 0.2352,-0.7151 0.27261,-1.35048 0.27261,-1.80963 0,-0.0467 0.0654,-0.0489 0.0654,0 0,0.32417 -0.0594,1.46982 0.80428,1.77756 0.34094,0.1213 1.04655,0.22758 1.76521,0.31208 0.64981,0.0749 1.12252,0.33189 1.12252,2.00453 0,1.01764 -0.21728,1.15831 -1.331,1.15831 -0.90279,0 -1.24465,0.0239 -1.24465,-0.69572 0,-0.58159 0.57427,-0.52057 0.99917,-0.52057 0.1898,0 0.0519,-0.14324 0.0519,-0.50206 0,-0.35693 0.22278,-0.56092 0.0123,-0.5662 -1.4693,-0.0406 -2.3351,-0.001 -2.3351,1.84293 0,1.67368 0.63957,1.98479 2.72491,1.98479 1.63503,0 2.21141,-0.0534 2.88652,-2.15502 0.13364,-0.41487 0.45949,-1.6808 0.65501,-3.80674 0.12365,-1.34416 -0.12035,-5.40162 -0.31085,-6.42558 -0.11143,-0.59847 -0.46513,-0.89924 -0.78577,-1.01522 -0.34595,-0.12545 -1.04546,-0.2535 -1.92681,-0.35773 -0.70908,-0.0838 -1.54675,-0.0736 -2.05017,-0.058 -0.0604,-0.4152 -0.34874,-0.79385 -0.67352,-0.92516 -0.47325,-0.19113 -1.08688,-0.25522 -1.60239,-0.25659 z m -2.13774,0.40585 c -0.005,7.5e-4 -0.0107,0.004 -0.0161,0.01 l -2.72616,2.71135 c -0.005,0.004 -0.009,0.0107 -0.01,0.0161 0.0564,-0.028 0.13342,-0.0667 0.14432,-0.0716 0.23737,-0.10746 0.52511,-0.16652 0.86966,-0.16652 l 0.001,0 1.24466,0 c 0.19663,0 0.30345,-0.12655 0.30345,-0.30346 0,-7.5e-4 -0.0172,-1.04859 -0.0172,-1.38404 l 0,-0.003 c 0,-0.27551 0.0575,-0.5154 0.15789,-0.7167 l 0.0481,-0.0913 z m 6.51809,5.82483 c 0.0186,1.2e-4 0.0379,7.5e-4 0.0568,0.001 0.66653,0.023 0.75625,0.65246 0.75862,1.08059 -0.28103,-0.12574 -0.62639,-0.20745 -1.00534,-0.2208 -0.20199,-0.008 -0.39612,0.009 -0.5773,0.0382 0.0478,-0.38733 0.19799,-0.85832 0.71299,-0.89803 0.0172,-0.001 0.0357,-0.001 0.0543,-0.001 z"
         id="path13834"
         inkscape:connector-curvature="0" />
      <path
         inkscape:connector-curvature="0"
         id="path13836"
         d="m 423.09673,142.99998 c -0.0589,-1.1e-4 -0.11655,8.6e-4 -0.17171,0.003 -0.26475,0.009 -0.47826,0.0381 -0.58126,0.0671 -0.21821,0.0612 -0.4626,0.18669 -0.59703,0.37994 -0.0901,0.12909 -0.14462,0.29495 -0.14507,0.52599 0,0.13076 0.002,0.43488 0.005,0.70856 0.003,0.27452 0.005,0.52431 0.005,0.52598 -1.7e-4,0.24442 -0.19643,0.4418 -0.44112,0.44211 l -1.12105,0 c -0.23942,0 -0.42078,0.0409 -0.56052,0.1046 -0.13996,0.0638 -0.24146,0.14799 -0.31678,0.24967 -0.14991,0.20192 -0.17628,0.44934 -0.17566,0.70362 0,0 8.6e-4,0.21164 0.0513,0.61382 0.0415,0.31119 0.38119,2.48392 0.70066,3.14507 0.12389,0.25725 0.20368,0.36623 0.44705,0.4796 0.54223,0.2329 1.78004,0.48833 2.36053,0.5625 0.57944,0.0744 0.94675,0.23191 1.16348,-0.22401 6e-4,-0.002 0.039,-0.11156 0.0977,-0.27632 0.18816,-0.57207 0.21809,-1.08038 0.21809,-1.4477 0,-0.0374 0.0523,-0.0391 0.0523,0 0,0.25933 -0.0475,1.17586 0.64342,1.42205 0.27275,0.097 0.83724,0.18206 1.41217,0.24966 0.51985,0.0599 0.89802,0.26551 0.89802,1.60363 0,0.81411 -0.17383,0.92664 -1.0648,0.92664 -0.72223,0 -0.99572,0.0191 -0.99572,-0.55657 0,-0.46528 0.45941,-0.41645 0.79934,-0.41645 0.15183,0 0.0415,-0.1146 0.0415,-0.40165 0,-0.28554 0.17823,-0.44874 0.01,-0.45296 -1.17544,-0.0325 -1.86808,-8.6e-4 -1.86808,1.47434 0,1.33894 0.51165,1.58783 2.17993,1.58783 1.30802,0 1.76912,-0.0427 2.30921,-1.72402 0.10691,-0.3319 0.3676,-1.34464 0.52402,-3.04539 0.0989,-1.07532 -0.0963,-4.32129 -0.24869,-5.14046 -0.0891,-0.47879 -0.3721,-0.7194 -0.62862,-0.81218 -0.27675,-0.10035 -0.83636,-0.2028 -1.54144,-0.28618 -0.56727,-0.067 -1.2374,-0.0589 -1.64014,-0.0464 -0.0483,-0.33216 -0.27899,-0.63507 -0.53882,-0.74012 -0.3786,-0.1529 -0.8695,-0.20418 -1.2819,-0.20527 z m -1.7102,0.32468 c -0.004,6e-4 -0.009,0.003 -0.0129,0.008 l -2.18093,2.16908 c -0.004,0.003 -0.007,0.009 -0.008,0.0129 0.0451,-0.0224 0.10674,-0.0534 0.11545,-0.0573 0.1899,-0.086 0.42009,-0.13322 0.69573,-0.13322 l 8.6e-4,0 0.99572,0 c 0.15732,0 0.24276,-0.10124 0.24276,-0.24277 0,-6e-4 -0.0138,-0.83887 -0.0138,-1.10723 l 0,-0.003 c 0,-0.22041 0.046,-0.41232 0.12632,-0.57336 l 0.0385,-0.073 z m 5.21448,4.65986 c 0.0149,9e-5 0.0303,6e-4 0.0454,8.6e-4 0.53323,0.0184 0.605,0.52198 0.6069,0.86447 -0.22483,-0.10058 -0.50111,-0.16595 -0.80428,-0.17664 -0.16159,-0.006 -0.31689,0.007 -0.46184,0.0306 0.0382,-0.30986 0.1584,-0.68664 0.5704,-0.71842 0.0137,-8.6e-4 0.0285,-8.6e-4 0.0435,-8.6e-4 z"
         style="opacity:0.1;fill:#ffffff;fill-opacity:1;display:inline;enable-background:new" />
      <path
         style="fill:#212121;fill-opacity:1;display:inline;enable-background:new"
         d="m 133.51216,86.317605 c -0.68421,-0.0013 -1.35362,0.01396 -1.9942,0.03439 -3.07477,0.09816 -5.5544,0.443084 -6.75048,0.779356 -2.53428,0.710687 -5.37261,2.168055 -6.93386,4.412448 -1.04705,1.49916 -1.67951,3.425515 -1.68476,6.10867 0,1.518607 0.0179,5.050551 0.0573,8.228951 0.0382,3.18828 0.0573,6.08926 0.0573,6.10868 -0.002,2.8386 -2.28134,5.1309 -5.12303,5.13448 l -13.019619,0 c -2.78061,0 -4.886832,0.47514 -6.509798,1.21487 -1.625413,0.74044 -2.804262,1.71871 -3.678957,2.89961 -1.741006,2.34505 -2.047231,5.21848 -2.040044,8.17164 0,0 0.01593,2.45788 0.595965,7.12869 0.481883,3.61412 4.426889,28.84757 8.137262,36.52598 1.438685,2.9877 2.365402,4.25328 5.191804,5.57 6.297347,2.70488 20.672877,5.67128 27.414527,6.53273 6.72946,0.86423 10.99533,2.69328 13.51243,-2.60163 0.0104,-0.0206 0.45266,-1.29565 1.13463,-3.20904 2.18531,-6.64396 2.53287,-12.54728 2.53287,-16.81318 0,-0.43374 0.60742,-0.45369 0.60742,0 0,3.01173 -0.5517,13.65605 7.47253,16.51519 3.16772,1.1271 9.72354,2.1145 16.40058,2.8996 6.03739,0.69603 10.42944,3.0835 10.42944,18.62401 0,9.45483 -2.01889,10.76181 -12.36634,10.76181 -8.38786,0 -11.56407,0.22218 -11.56407,-6.46396 0,-5.40353 5.3355,-4.83652 9.28336,-4.83652 1.76329,0 0.48135,-1.33078 0.48135,-4.66459 0,-3.31629 2.06977,-5.21165 0.11463,-5.26056 -13.65137,-0.3767 -21.69553,-0.0119 -21.69553,17.12261 0,15.55013 5.94222,18.44063 25.31717,18.44063 15.19105,0 20.54612,-0.49564 26.81859,-20.02222 1.24163,-3.85463 4.26911,-15.61641 6.08574,-35.36842 1.14879,-12.48846 -1.11819,-50.18631 -2.88815,-59.69997 -1.03532,-5.56042 -4.32151,-8.3549 -7.30062,-9.43234 -3.21412,-1.165543 -9.71326,-2.355296 -17.90196,-3.323664 -6.58798,-0.778395 -14.37078,-0.683744 -19.04806,-0.538671 -0.56132,-3.857598 -3.24006,-7.375603 -6.25766,-8.595685 -4.39689,-1.77563 -10.09821,-2.371297 -14.88774,-2.383879 z m -19.86178,3.770667 c -0.05,0.0079 -0.0993,0.04203 -0.14892,0.09157 L 88.17283,115.37095 c -0.04938,0.041 -0.07784,0.0946 -0.09178,0.14892 0.523773,-0.26008 1.239672,-0.62006 1.34093,-0.66473 2.205411,-0.99841 4.878751,-1.54722 8.079964,-1.54722 l 0.01199,0 11.564066,0 c 1.827,0 2.8194,-1.17571 2.8194,-2.81938 0,-0.007 -0.16047,-9.74248 -0.16047,-12.85917 l 0,-0.03439 c 0,-2.559742 0.53436,-4.788575 1.46699,-6.658803 l 0.44699,-0.848118 z m 60.55953,54.118478 c 0.17262,0.001 0.35237,0.007 0.5272,0.0119 6.19279,0.21378 7.02644,6.06208 7.04847,10.03977 -2.61115,-1.16816 -5.81983,-1.92735 -9.34064,-2.05149 -1.87675,-0.0657 -3.68039,0.0841 -5.36373,0.35528 0.44411,-3.59871 1.8396,-7.9745 6.62442,-8.34356 0.15947,-0.0119 0.33168,-0.014 0.50428,-0.0119 z"
         id="path4185"
         inkscape:connector-curvature="0" />
      <path
         inkscape:connector-curvature="0"
         id="path3882"
         d="m 331.48476,46.000037 c -0.29457,-5.6e-4 -0.58277,0.006 -0.85856,0.0148 -1.32376,0.0423 -2.3913,0.19076 -2.90624,0.33553 -1.09107,0.30597 -2.31304,0.9334 -2.9852,1.89967 -0.45078,0.64542 -0.72307,1.47477 -0.72533,2.62993 0,0.6538 0.008,2.17439 0.0247,3.54277 0.0164,1.37263 0.0247,2.62157 0.0247,2.62993 -8.6e-4,1.22209 -0.98217,2.20898 -2.20559,2.21052 l -5.60526,0 c -1.19712,0 -2.1039,0.20456 -2.80263,0.52303 -0.69978,0.31878 -1.2073,0.73995 -1.58388,1.24835 -0.74954,1.0096 -0.88138,2.24669 -0.87829,3.51809 0,0 0.007,1.05818 0.25658,3.06908 0.20746,1.55596 1.90588,12.41958 3.50329,15.72532 0.61939,1.28628 1.01836,1.83114 2.2352,2.39802 2.71116,1.16452 8.90017,2.44163 11.80262,2.8125 2.89719,0.37207 4.73376,1.15952 5.81743,-1.12006 0.004,-0.009 0.19488,-0.55781 0.48848,-1.38157 0.94083,-2.86039 1.09047,-5.40191 1.09047,-7.23849 0,-0.18673 0.26151,-0.19532 0.26151,0 0,1.29663 -0.23752,5.87926 3.2171,7.11019 1.36378,0.48525 4.18622,0.91035 7.06085,1.24835 2.59924,0.29966 4.49013,1.32752 4.49013,8.01809 0,4.07054 -0.86918,4.63322 -5.32401,4.63322 -3.61118,0 -4.97862,0.0957 -4.97862,-2.78289 0,-2.32635 2.29707,-2.08224 3.99672,-2.08224 0.75914,0 0.20723,-0.57293 0.20723,-2.00822 0,-1.42774 0.89109,-2.24374 0.0493,-2.2648 -5.87725,-0.16218 -9.34045,-0.005 -9.34045,7.3717 0,6.694713 2.55827,7.939143 10.89965,7.939143 6.54012,0 8.84561,-0.21338 11.54606,-8.620053 0.53455,-1.65951 1.83796,-6.72324 2.62006,-15.22697 0.49458,-5.37658 -0.48141,-21.60642 -1.24342,-25.70229 -0.44573,-2.39389 -1.86051,-3.59698 -3.14309,-4.06085 -1.38376,-0.50179 -4.1818,-1.01401 -7.70723,-1.43092 -2.83629,-0.33511 -6.18697,-0.29436 -8.20066,-0.23191 -0.24166,-1.66079 -1.39492,-3.17537 -2.69407,-3.70065 -1.89297,-0.76445 -4.34753,-1.0209 -6.40954,-1.02632 z m -8.55099,1.62336 c -0.0215,0.003 -0.0427,0.0181 -0.0641,0.0394 l -10.90459,10.84541 c -0.0213,0.0177 -0.0335,0.0407 -0.0395,0.0641 0.22549,-0.11197 0.53371,-0.26695 0.5773,-0.28618 0.94948,-0.42984 2.10042,-0.66612 3.47862,-0.66612 l 0.005,0 4.97861,0 c 0.78657,0 1.21382,-0.50617 1.21382,-1.21381 0,-0.003 -0.0691,-4.19437 -0.0691,-5.53618 l 0,-0.0148 c 0,-1.10203 0.23006,-2.0616 0.63158,-2.86678 l 0.19244,-0.36513 z m 26.07236,23.29932 c 0.0743,4.3e-4 0.1517,0.003 0.22697,0.005 2.66615,0.092 3.02505,2.60988 3.03454,4.32237 -1.12417,-0.50292 -2.50558,-0.82977 -4.02138,-0.88322 -0.80798,-0.0283 -1.58449,0.0362 -2.30921,0.15296 0.1912,-1.54933 0.79199,-3.43322 2.85197,-3.59211 0.0687,-0.005 0.1428,-0.006 0.21711,-0.005 z"
         style="fill:#212121;fill-opacity:1;display:inline;enable-background:new" />
      <path
         style="fill:#212121;fill-opacity:1;display:inline;enable-background:new"
         d="m 316.98972,151.50002 c -0.19638,-3.7e-4 -0.38851,0.004 -0.57237,0.01 -0.88251,0.0282 -1.5942,0.12718 -1.93749,0.22369 -0.72738,0.20398 -1.54203,0.62227 -1.99014,1.26645 -0.30052,0.43028 -0.48204,0.98318 -0.48355,1.75328 0,0.43587 0.005,1.4496 0.0165,2.36185 0.0109,0.91509 0.0165,1.74771 0.0165,1.75329 -5.7e-4,0.81472 -0.65478,1.47265 -1.47039,1.47368 l -3.73684,0 c -0.79808,0 -1.4026,0.13637 -1.86842,0.34868 -0.46652,0.21252 -0.80487,0.4933 -1.05592,0.83224 -0.49969,0.67306 -0.58759,1.49779 -0.58553,2.34539 0,0 0.005,0.70545 0.17106,2.04605 0.1383,1.03731 1.27058,8.27972 2.33552,10.48355 0.41293,0.85752 0.67891,1.22076 1.49014,1.59868 1.80744,0.77635 5.93344,1.62775 7.86841,1.875 1.93146,0.24805 3.15584,0.77301 3.87829,-0.74671 0.003,-0.006 0.12992,-0.37187 0.32565,-0.92104 0.62722,-1.90693 0.72698,-3.60128 0.72698,-4.82566 0,-0.12449 0.17434,-0.13022 0.17434,0 0,0.86442 -0.15835,3.9195 2.14473,4.74012 0.90919,0.3235 2.79082,0.6069 4.70724,0.83224 1.73282,0.19977 2.99342,0.88501 2.99342,5.34539 0,2.71369 -0.57946,3.08881 -3.54934,3.08881 -2.40746,0 -3.31908,0.0638 -3.31908,-1.85526 0,-1.5509 1.53138,-1.38816 2.66448,-1.38816 0.50609,0 0.13815,-0.38195 0.13815,-1.33881 0,-0.95183 0.59406,-1.49583 0.0329,-1.50987 -3.91817,-0.10812 -6.22697,-0.003 -6.22697,4.91447 0,4.46314 1.70551,5.29276 7.26643,5.29276 4.36008,0 5.89708,-0.14225 7.69738,-5.7467 0.35636,-1.10634 1.2253,-4.48216 1.7467,-10.15131 0.32972,-3.58439 -0.32094,-14.40428 -0.82894,-17.13486 -0.29716,-1.59593 -1.24034,-2.39799 -2.0954,-2.70724 -0.9225,-0.33452 -2.78786,-0.676 -5.13815,-0.95394 -1.89086,-0.22341 -4.12465,-0.19624 -5.46711,-0.15461 -0.1611,-1.10719 -0.92994,-2.11691 -1.79604,-2.4671 -1.26198,-0.50963 -2.89836,-0.6806 -4.27303,-0.68421 z m -5.70066,1.08224 c -0.0143,0.002 -0.0285,0.0121 -0.0427,0.0263 l -7.26973,7.23028 c -0.0142,0.0118 -0.0223,0.0271 -0.0263,0.0427 0.15033,-0.0746 0.35581,-0.17797 0.38487,-0.19079 0.63298,-0.28656 1.40028,-0.44408 2.31908,-0.44408 l 0.003,0 3.31907,0 c 0.52438,0 0.80922,-0.33745 0.80922,-0.80921 0,-0.002 -0.0461,-2.79624 -0.0461,-3.69078 l 0,-0.01 c 0,-0.73469 0.15337,-1.3744 0.42105,-1.91119 l 0.1283,-0.24342 z m 17.38158,15.53288 c 0.0495,2.9e-4 0.10113,0.002 0.15131,0.003 1.77743,0.0613 2.0167,1.73992 2.02303,2.88158 -0.74945,-0.33528 -1.67039,-0.55318 -2.68092,-0.58881 -0.53866,-0.0189 -1.05633,0.0241 -1.53948,0.10197 0.12747,-1.03288 0.528,-2.28881 1.90132,-2.39474 0.0458,-0.003 0.0952,-0.004 0.14474,-0.003 z"
         id="path3884"
         inkscape:connector-curvature="0" />
      <path
         inkscape:connector-curvature="0"
         id="path3886"
         d="m 309.89292,230.00002 c -0.13746,-2.6e-4 -0.27195,0.003 -0.40065,0.007 -0.61776,0.0197 -1.11594,0.089 -1.35624,0.15658 -0.50917,0.14278 -1.07942,0.43559 -1.3931,0.88651 -0.21036,0.30119 -0.33742,0.68822 -0.33848,1.22729 0,0.30511 0.003,1.01472 0.0115,1.65329 0.008,0.64056 0.0115,1.22339 0.0115,1.2273 -4e-4,0.5703 -0.45835,1.03085 -1.02927,1.03157 l -2.61578,0 c -0.55865,0 -0.98182,0.0955 -1.30789,0.24408 -0.32656,0.14876 -0.56341,0.34531 -0.73914,0.58256 -0.34978,0.47114 -0.41131,1.04845 -0.40987,1.64177 0,0 0.003,0.49382 0.11974,1.43223 0.0968,0.72612 0.8894,5.79579 1.63486,7.33846 0.28905,0.60026 0.47524,0.85453 1.04309,1.11908 1.26521,0.54344 4.1534,1.13942 5.50787,1.31249 1.35202,0.17364 2.20908,0.54111 2.7148,-0.52269 0.002,-0.004 0.0909,-0.26031 0.22795,-0.64473 0.43905,-1.33485 0.50889,-2.52089 0.50889,-3.37795 0,-0.0871 0.12203,-0.0911 0.12203,0 0,0.60509 -0.11084,2.74364 1.50131,3.31807 0.63643,0.22645 1.95357,0.42483 3.29506,0.58257 1.21297,0.13984 2.09538,0.6195 2.09538,3.74176 0,1.89958 -0.40562,2.16216 -2.48453,2.16216 -1.68521,0 -2.32334,0.0447 -2.32334,-1.29868 0,-1.08563 1.07196,-0.97171 1.86513,-0.97171 0.35426,0 0.0967,-0.26736 0.0967,-0.93716 0,-0.66628 0.41584,-1.04708 0.023,-1.05691 -2.74271,-0.0757 -4.35886,-0.002 -4.35886,3.44012 0,3.12419 1.19385,3.70492 5.08648,3.70492 3.05205,0 4.12794,-0.0996 5.38815,-4.02268 0.24945,-0.77443 0.8577,-3.1375 1.22268,-7.10589 0.23081,-2.50907 -0.22465,-10.08296 -0.58025,-11.99436 -0.20801,-1.11715 -0.86824,-1.67859 -1.46678,-1.89506 -0.64575,-0.23417 -1.95149,-0.4732 -3.59669,-0.66776 -1.3236,-0.15639 -2.88725,-0.13737 -3.82697,-0.10823 -0.11276,-0.77503 -0.65095,-1.48183 -1.25722,-1.72696 -0.88338,-0.35674 -2.02884,-0.47642 -2.99111,-0.47895 z m -3.99045,0.75756 c -0.01,0.001 -0.0199,0.008 -0.0299,0.0184 l -5.08879,5.06118 c -0.01,0.008 -0.0156,0.019 -0.0184,0.0299 0.10523,-0.0522 0.24907,-0.12458 0.26941,-0.13355 0.44308,-0.20059 0.98019,-0.31086 1.62335,-0.31086 l 0.002,0 2.32334,0 c 0.36706,0 0.56645,-0.23621 0.56645,-0.56644 0,-0.001 -0.0323,-1.95736 -0.0323,-2.58354 l 0,-0.007 c 0,-0.51428 0.10736,-0.96208 0.29474,-1.33783 l 0.0898,-0.17039 z m 12.16707,10.87298 c 0.0346,2e-4 0.0708,0.001 0.10592,0.002 1.24419,0.0429 1.41168,1.21794 1.41611,2.0171 -0.52461,-0.23469 -1.16927,-0.38722 -1.87663,-0.41217 -0.37707,-0.0132 -0.73943,0.0169 -1.07764,0.0714 0.0892,-0.72301 0.3696,-1.60216 1.33092,-1.67631 0.0321,-0.002 0.0666,-0.003 0.10132,-0.002 z"
         style="fill:#212121;fill-opacity:1;display:inline;enable-background:new" />
      <path
         style="fill:#212121;fill-opacity:1;display:inline;enable-background:new"
         d="m 430.49537,58.000037 c -0.0982,-1.87e-4 -0.19426,0.002 -0.28619,0.0049 -0.44125,0.0141 -0.7971,0.06359 -0.96875,0.111844 -0.36369,0.10199 -0.77101,0.311133 -0.99506,0.633223 -0.15026,0.21514 -0.24103,0.49159 -0.24178,0.876644 0,0.217933 0.003,0.724796 0.008,1.180923 0.005,0.457543 0.008,0.873857 0.008,0.876643 -2.9e-4,0.407364 -0.32739,0.736327 -0.7352,0.73684 l -1.86842,0 c -0.39904,0 -0.7013,0.06819 -0.93421,0.174344 -0.23326,0.10626 -0.40243,0.24665 -0.52796,0.416116 -0.24985,0.336534 -0.29379,0.748897 -0.29276,1.172697 0,0 0.002,0.352727 0.0855,1.023027 0.0692,0.518653 0.6353,4.13986 1.16777,5.241774 0.20646,0.42876 0.33945,0.61038 0.74506,0.79934 0.90372,0.388173 2.96673,0.813881 3.93421,0.937501 0.96573,0.12402 1.57792,0.38651 1.93914,-0.373355 0.001,-0.003 0.065,-0.185936 0.16283,-0.460523 0.31361,-0.953463 0.36349,-1.800637 0.36349,-2.41283 0,-0.06224 0.0872,-0.06511 0.0872,0 0,0.43221 -0.0792,1.959753 1.07237,2.370063 0.45459,0.16175 1.3954,0.30345 2.35361,0.416117 0.86642,0.09989 1.49671,0.442508 1.49671,2.672698 0,1.35685 -0.28972,1.54441 -1.77467,1.54441 -1.20372,0 -1.65954,0.0319 -1.65954,-0.92763 0,-0.77545 0.76569,-0.69408 1.33224,-0.69408 0.25305,0 0.0691,-0.19098 0.0691,-0.66941 0,-0.47591 0.29703,-0.74791 0.0164,-0.75493 -1.95908,-0.0541 -3.11348,-0.002 -3.11348,2.45723 0,2.23157 0.85276,2.64638 3.63322,2.64638 2.18004,0 2.94853,-0.0711 3.84868,-2.87335 0.17819,-0.55317 0.61266,-2.24108 0.87336,-5.075658 0.16486,-1.792194 -0.16047,-7.202141 -0.41448,-8.567431 -0.14857,-0.797963 -0.62017,-1.198993 -1.04769,-1.353616 -0.46126,-0.167264 -1.39394,-0.338004 -2.56908,-0.476974 -0.94543,-0.111703 -2.06232,-0.09812 -2.73355,-0.0773 -0.0806,-0.553597 -0.46498,-1.058457 -0.89803,-1.23355 -0.63099,-0.254817 -1.44917,-0.3403 -2.13651,-0.342107 z m -2.85033,0.54112 c -0.007,0.001 -0.0142,0.006 -0.0214,0.01313 l -3.63486,3.615137 c -0.007,0.0059 -0.0112,0.01357 -0.0132,0.02137 0.0752,-0.03732 0.1779,-0.08898 0.19243,-0.09539 0.3165,-0.14328 0.70014,-0.22204 1.15954,-0.22204 l 0.002,0 1.65954,0 c 0.26219,0 0.4046,-0.168724 0.4046,-0.404604 0,-0.001 -0.023,-1.398123 -0.023,-1.845393 l 0,-0.0049 c 0,-0.367344 0.0767,-0.6872 0.21053,-0.955594 l 0.0641,-0.12171 z m 8.69078,7.766441 c 0.0248,1.43e-4 0.0506,0.001 0.0757,0.0017 0.88872,0.03067 1.00835,0.86996 1.01151,1.44079 -0.37472,-0.16764 -0.83519,-0.27659 -1.34046,-0.294406 -0.26932,-0.0094 -0.52816,0.01207 -0.76973,0.05099 0.0637,-0.516443 0.26399,-1.144406 0.95065,-1.19737 0.0229,-0.0017 0.0476,-0.002 0.0724,-0.0017 z"
         id="path3888"
         inkscape:connector-curvature="0" />
      <path
         inkscape:connector-curvature="0"
         id="path3890"
         d="m 426.87146,104.50068 c -0.0736,-1.4e-4 -0.14569,10e-4 -0.21463,0.003 -0.33095,0.0107 -0.59783,0.0477 -0.72657,0.0839 -0.27277,0.0765 -0.57826,0.23336 -0.7463,0.47492 -0.11269,0.16136 -0.18077,0.36869 -0.18134,0.65748 0,0.16345 0.002,0.5436 0.006,0.8857 0.004,0.34316 0.006,0.65539 0.006,0.65749 -2.1e-4,0.30552 -0.24554,0.55225 -0.5514,0.55262 l -1.40131,0 c -0.29928,0 -0.52598,0.0511 -0.70066,0.13076 -0.17495,0.0797 -0.30182,0.18498 -0.39597,0.31209 -0.18739,0.25239 -0.22035,0.56167 -0.21958,0.87952 0,0 10e-4,0.26455 0.0642,0.76728 0.0519,0.38898 0.47649,3.10489 0.87583,3.93133 0.15485,0.32156 0.25459,0.45779 0.5588,0.5995 0.67779,0.29113 2.22505,0.61043 2.95067,0.70313 0.72429,0.093 1.18343,0.28989 1.45434,-0.28001 7.5e-4,-0.002 0.0487,-0.13944 0.12214,-0.34539 0.2352,-0.7151 0.27261,-1.35048 0.27261,-1.80963 0,-0.0467 0.0654,-0.0489 0.0654,0 0,0.32417 -0.0594,1.46982 0.80428,1.77756 0.34094,0.1213 1.04655,0.22758 1.76521,0.31208 0.64981,0.0749 1.12252,0.33189 1.12252,2.00453 0,1.01764 -0.21728,1.15831 -1.331,1.15831 -0.90279,0 -1.24465,0.0239 -1.24465,-0.69572 0,-0.58159 0.57427,-0.52057 0.99917,-0.52057 0.1898,0 0.0519,-0.14324 0.0519,-0.50206 0,-0.35693 0.22278,-0.56092 0.0123,-0.5662 -1.4693,-0.0406 -2.3351,-0.001 -2.3351,1.84293 0,1.67368 0.63957,1.98479 2.72491,1.98479 1.63503,0 2.21141,-0.0534 2.88652,-2.15502 0.13364,-0.41487 0.45949,-1.6808 0.65501,-3.80674 0.12365,-1.34416 -0.12035,-5.40162 -0.31085,-6.42558 -0.11143,-0.59847 -0.46513,-0.89924 -0.78577,-1.01522 -0.34595,-0.12545 -1.04546,-0.2535 -1.92681,-0.35773 -0.70908,-0.0838 -1.54675,-0.0736 -2.05017,-0.058 -0.0604,-0.4152 -0.34874,-0.79385 -0.67352,-0.92516 -0.47325,-0.19113 -1.08688,-0.25522 -1.60239,-0.25659 z m -2.13774,0.40585 c -0.005,7.5e-4 -0.0107,0.004 -0.0161,0.01 l -2.72616,2.71135 c -0.005,0.004 -0.009,0.0107 -0.01,0.0161 0.0564,-0.028 0.13342,-0.0667 0.14432,-0.0716 0.23737,-0.10746 0.52511,-0.16652 0.86966,-0.16652 l 0.001,0 1.24466,0 c 0.19663,0 0.30345,-0.12655 0.30345,-0.30346 0,-7.5e-4 -0.0172,-1.04859 -0.0172,-1.38404 l 0,-0.003 c 0,-0.27551 0.0575,-0.5154 0.15789,-0.7167 l 0.0481,-0.0913 z m 6.51809,5.82483 c 0.0186,1.2e-4 0.0379,7.5e-4 0.0568,0.001 0.66653,0.023 0.75625,0.65246 0.75862,1.08059 -0.28103,-0.12574 -0.62639,-0.20745 -1.00534,-0.2208 -0.20199,-0.008 -0.39612,0.009 -0.5773,0.0382 0.0478,-0.38733 0.19799,-0.85832 0.71299,-0.89803 0.0172,-0.001 0.0357,-0.001 0.0543,-0.001 z"
         style="fill:#212121;fill-opacity:1;display:inline;enable-background:new" />
      <path
         style="fill:#212121;fill-opacity:1;display:inline;enable-background:new"
         d="m 423.09673,141.99998 c -0.0589,-1.1e-4 -0.11655,8.6e-4 -0.17171,0.003 -0.26475,0.009 -0.47826,0.0381 -0.58126,0.0671 -0.21821,0.0612 -0.4626,0.18669 -0.59703,0.37994 -0.0901,0.12909 -0.14462,0.29495 -0.14507,0.52599 0,0.13076 0.002,0.43488 0.005,0.70856 0.003,0.27452 0.005,0.52431 0.005,0.52598 -1.7e-4,0.24442 -0.19643,0.4418 -0.44112,0.44211 l -1.12105,0 c -0.23942,0 -0.42078,0.0409 -0.56052,0.1046 -0.13996,0.0638 -0.24146,0.14799 -0.31678,0.24967 -0.14991,0.20192 -0.17628,0.44934 -0.17566,0.70362 0,0 8.6e-4,0.21164 0.0513,0.61382 0.0415,0.31119 0.38119,2.48392 0.70066,3.14507 0.12389,0.25725 0.20368,0.36623 0.44705,0.4796 0.54223,0.2329 1.78004,0.48833 2.36053,0.5625 0.57944,0.0744 0.94675,0.23191 1.16348,-0.22401 6e-4,-0.002 0.039,-0.11156 0.0977,-0.27632 0.18816,-0.57207 0.21809,-1.08038 0.21809,-1.4477 0,-0.0374 0.0523,-0.0391 0.0523,0 0,0.25933 -0.0475,1.17586 0.64342,1.42205 0.27275,0.097 0.83724,0.18206 1.41217,0.24966 0.51985,0.0599 0.89802,0.26551 0.89802,1.60363 0,0.81411 -0.17383,0.92664 -1.0648,0.92664 -0.72223,0 -0.99572,0.0191 -0.99572,-0.55657 0,-0.46528 0.45941,-0.41645 0.79934,-0.41645 0.15183,0 0.0415,-0.1146 0.0415,-0.40165 0,-0.28554 0.17823,-0.44874 0.01,-0.45296 -1.17544,-0.0325 -1.86808,-8.6e-4 -1.86808,1.47434 0,1.33894 0.51165,1.58783 2.17993,1.58783 1.30802,0 1.76912,-0.0427 2.30921,-1.72402 0.10691,-0.3319 0.3676,-1.34464 0.52402,-3.04539 0.0989,-1.07532 -0.0963,-4.32129 -0.24869,-5.14046 -0.0891,-0.47879 -0.3721,-0.7194 -0.62862,-0.81218 -0.27675,-0.10035 -0.83636,-0.2028 -1.54144,-0.28618 -0.56727,-0.067 -1.2374,-0.0589 -1.64014,-0.0464 -0.0483,-0.33216 -0.27899,-0.63507 -0.53882,-0.74012 -0.3786,-0.1529 -0.8695,-0.20418 -1.2819,-0.20527 z m -1.7102,0.32468 c -0.004,6e-4 -0.009,0.003 -0.0129,0.008 l -2.18093,2.16908 c -0.004,0.003 -0.007,0.009 -0.008,0.0129 0.0451,-0.0224 0.10674,-0.0534 0.11545,-0.0573 0.1899,-0.086 0.42009,-0.13322 0.69573,-0.13322 l 8.6e-4,0 0.99572,0 c 0.15732,0 0.24276,-0.10124 0.24276,-0.24277 0,-6e-4 -0.0138,-0.83887 -0.0138,-1.10723 l 0,-0.003 c 0,-0.22041 0.046,-0.41232 0.12632,-0.57336 l 0.0385,-0.073 z m 5.21448,4.65986 c 0.0149,9e-5 0.0303,6e-4 0.0454,8.6e-4 0.53323,0.0184 0.605,0.52198 0.6069,0.86447 -0.22483,-0.10058 -0.50111,-0.16595 -0.80428,-0.17664 -0.16159,-0.006 -0.31689,0.007 -0.46184,0.0306 0.0382,-0.30986 0.1584,-0.68664 0.5704,-0.71842 0.0137,-8.6e-4 0.0285,-8.6e-4 0.0435,-8.6e-4 z"
         id="path3892"
         inkscape:connector-curvature="0" />
    </g>
    <g
       inkscape:groupmode="layer"
       id="layer5"
       inkscape:label="Highlights"
       style="display:inline"
       sodipodi:insensitive="true">
      <path
         style="opacity:0.12999998;color:#bebebe;fill:#ffffff;fill-opacity:1;fill-rule:nonzero;stroke:none;stroke-width:0;marker:none;visibility:visible;display:inline;overflow:visible;enable-background:accumulate"
         d="M 84,47 C 56.836703,47 35,68.836703 35,96 l 0,1 C 35,69.836703 56.836703,48 84,48 l 120,0 c 27.1633,0 49,21.836703 49,49 l 0,-1 C 253,68.836703 231.1633,47 204,47 L 84,47 z"
         id="rect3894"
         inkscape:connector-curvature="0" />
      <path
         style="opacity:0.12999998;color:#bebebe;fill:#ffffff;fill-opacity:1;fill-rule:nonzero;stroke:none;stroke-width:0;marker:none;visibility:visible;display:inline;overflow:visible;enable-background:accumulate"
         d="m 419,141 c -1.1253,0 -2,0.8747 -2,2 l 0,1 c 0,-1.1253 0.8747,-2 2,-2 l 10,0 c 1.1253,0 2,0.8747 2,2 l 0,-1 c 0,-1.1253 -0.8747,-2 -2,-2 l -10,0 z"
         id="rect3896"
         inkscape:connector-curvature="0" />
      <path
         style="opacity:0.12999998;color:#bebebe;fill:#ffffff;fill-opacity:1;fill-rule:nonzero;stroke:none;stroke-width:0;marker:none;visibility:visible;display:inline;overflow:visible;enable-background:accumulate"
         d="m 422,102 c -2.2333,0 -4,1.7667 -4,4 l 0,1 c 0,-2.2333 1.7667,-4 4,-4 l 12,0 c 2.2333,0 4,1.7667 4,4 l 0,-1 c 0,-2.2333 -1.7667,-4 -4,-4 l -12,0 z"
         id="rect3898"
         inkscape:connector-curvature="0" />
      <path
         style="opacity:0.12999998;color:#bebebe;fill:#ffffff;fill-opacity:1;fill-rule:nonzero;stroke:none;stroke-width:0;marker:none;visibility:visible;display:inline;overflow:visible;enable-background:accumulate"
         d="m 424,54 c -3.3413,0 -6,2.658703 -6,6 l 0,1 c 0,-3.341297 2.6587,-6 6,-6 l 16,0 c 3.3413,0 6,2.658703 6,6 l 0,-1 c 0,-3.341297 -2.6587,-6 -6,-6 l -16,0 z"
         id="rect3900"
         inkscape:connector-curvature="0" />
      <path
         style="opacity:0.12999998;color:#bebebe;fill:#ffffff;fill-opacity:1;fill-rule:nonzero;stroke:none;stroke-width:0;marker:none;visibility:visible;display:inline;overflow:visible;enable-background:accumulate"
         d="m 300,224 c -4.4493,0 -8,3.5507 -8,8 l 0,1 c 0,-4.4493 3.5507,-8 8,-8 l 24,0 c 4.4493,0 8,3.5507 8,8 l 0,-1 c 0,-4.4493 -3.5507,-8 -8,-8 l -24,0 z"
         id="rect3902"
         inkscape:connector-curvature="0" />
      <path
         style="opacity:0.12999998;color:#bebebe;fill:#ffffff;fill-opacity:1;fill-rule:nonzero;stroke:none;stroke-width:0;marker:none;visibility:visible;display:inline;overflow:visible;enable-background:accumulate"
         d="m 310,33 c -9.4353,0 -17,7.564703 -17,17 l 0,1 c 0,-9.435297 7.5647,-17 17,-17 l 52,0 c 9.4353,0 17,7.564703 17,17 l 0,-1 c 0,-9.435297 -7.5647,-17 -17,-17 l -52,0 z"
         id="rect3904"
         inkscape:connector-curvature="0" />
      <path
         style="opacity:0.12999998;color:#bebebe;fill:#ffffff;fill-opacity:1;fill-rule:nonzero;stroke:none;stroke-width:0;marker:none;visibility:visible;display:inline;overflow:visible;enable-background:accumulate"
         d="m 302.5,143 c -6.3883,0 -11.5,5.1117 -11.5,11.5 l 0,1 c 0,-6.3883 5.1117,-11.5 11.5,-11.5 l 35,0 c 6.3883,0 11.5,5.1117 11.5,11.5 l 0,-1 c 0,-6.3883 -5.1117,-11.5 -11.5,-11.5 l -35,0 z"
         id="rect3906"
         inkscape:connector-curvature="0" />
      <path
         id="path4085"
         d="m 204,266 c 27.1633,0 49,-21.8367 49,-49 l 0,-1 c 0,27.1633 -21.8367,49 -49,49 L 84,265 C 56.8367,265 35,243.1633 35,216 l 0,1 c 0,27.1633 21.8367,49 49,49 l 120,0 z"
         style="opacity:0.5;color:#bebebe;fill:#000000;fill-opacity:1;fill-rule:nonzero;stroke:none;stroke-width:0;marker:none;visibility:visible;display:inline;overflow:visible;enable-background:accumulate"
         inkscape:connector-curvature="0" />
      <path
         id="path4087"
         d="m 429,156 c 1.1253,0 2,-0.8747 2,-2 l 0,-1 c 0,1.1253 -0.8747,2 -2,2 l -10,0 c -1.1253,0 -2,-0.8747 -2,-2 l 0,1 c 0,1.1253 0.8747,2 2,2 l 10,0 z"
         style="opacity:0.3;color:#bebebe;fill:#000000;fill-opacity:1;fill-rule:nonzero;stroke:none;stroke-width:0;marker:none;visibility:visible;display:inline;overflow:visible;enable-background:accumulate"
         inkscape:connector-curvature="0" />
      <path
         id="path4089"
         d="m 434,123 c 2.2333,0 4,-1.7667 4,-4 l 0,-1 c 0,2.2333 -1.7667,4 -4,4 l -12,0 c -2.2333,0 -4,-1.7667 -4,-4 l 0,1 c 0,2.2333 1.7667,4 4,4 l 12,0 z"
         style="opacity:0.3;color:#bebebe;fill:#000000;fill-opacity:1;fill-rule:nonzero;stroke:none;stroke-width:0;marker:none;visibility:visible;display:inline;overflow:visible;enable-background:accumulate"
         inkscape:connector-curvature="0" />
      <path
         id="path4091"
         d="m 440,83 c 3.3413,0 6,-2.6587 6,-6 l 0,-1 c 0,3.3413 -2.6587,6 -6,6 l -16,0 c -3.3413,0 -6,-2.6587 -6,-6 l 0,1 c 0,3.3413 2.6587,6 6,6 l 16,0 z"
         style="opacity:0.5;color:#bebebe;fill:#000000;fill-opacity:1;fill-rule:nonzero;stroke:none;stroke-width:0;marker:none;visibility:visible;display:inline;overflow:visible;enable-background:accumulate"
         inkscape:connector-curvature="0" />
      <path
         id="path4093"
         d="m 324,265 c 4.4493,0 8,-3.5507 8,-8 l 0,-1 c 0,4.4493 -3.5507,8 -8,8 l -24,0 c -4.4493,0 -8,-3.5507 -8,-8 l 0,1 c 0,4.4493 3.5507,8 8,8 l 24,0 z"
         style="opacity:0.5;color:#bebebe;fill:#000000;fill-opacity:1;fill-rule:nonzero;stroke:none;stroke-width:0;marker:none;visibility:visible;display:inline;overflow:visible;enable-background:accumulate"
         inkscape:connector-curvature="0" />
      <path
         id="path4095"
         d="m 362,120 c 9.4353,0 17,-7.5647 17,-17 l 0,-1 c 0,9.4353 -7.5647,17 -17,17 l -52,0 c -9.4353,0 -17,-7.5647 -17,-17 l 0,1 c 0,9.4353 7.5647,17 17,17 l 52,0 z"
         style="opacity:0.5;color:#bebebe;fill:#000000;fill-opacity:1;fill-rule:nonzero;stroke:none;stroke-width:0;marker:none;visibility:visible;display:inline;overflow:visible;enable-background:accumulate"
         inkscape:connector-curvature="0" />
      <path
         id="path4097"
         d="m 337.5,202 c 6.3883,0 11.5,-5.1117 11.5,-11.5 l 0,-1 c 0,6.3883 -5.1117,11.5 -11.5,11.5 l -35,0 c -6.3883,0 -11.5,-5.1117 -11.5,-11.5 l 0,1 c 0,6.3883 5.1117,11.5 11.5,11.5 l 35,0 z"
         style="opacity:0.5;color:#bebebe;fill:#000000;fill-opacity:1;fill-rule:nonzero;stroke:none;stroke-width:0;marker:none;visibility:visible;display:inline;overflow:visible;enable-background:accumulate"
         inkscape:connector-curvature="0" />
      <path
         inkscape:connector-curvature="0"
         id="path4280"
         d="M 84,265 C 56.836703,265 35,243.1633 35,216 l 0,-1 c 0,27.1633 21.836703,49 49,49 l 120,0 c 27.1633,0 49,-21.8367 49,-49 l 0,1 c 0,27.1633 -21.8367,49 -49,49 l -120,0 z"
         style="opacity:0.1;color:#bebebe;fill:#ffffff;fill-opacity:1;fill-rule:nonzero;stroke:none;stroke-width:0;marker:none;visibility:visible;display:inline;overflow:visible;enable-background:accumulate" />
      <path
         style="opacity:0.1;color:#bebebe;fill:#ffffff;fill-opacity:1;fill-rule:nonzero;stroke:none;stroke-width:0;marker:none;visibility:visible;display:inline;overflow:visible;enable-background:accumulate"
         d="m 300,264 c -4.4493,0 -8,-3.5507 -8,-8 l 0,-1 c 0,4.4493 3.5507,8 8,8 l 24,0 c 4.4493,0 8,-3.5507 8,-8 l 0,1 c 0,4.4493 -3.5507,8 -8,8 l -24,0 z"
         id="path4294"
         inkscape:connector-curvature="0" />
      <path
         style="opacity:0.1;color:#bebebe;fill:#ffffff;fill-opacity:1;fill-rule:nonzero;stroke:none;stroke-width:0;marker:none;visibility:visible;display:inline;overflow:visible;enable-background:accumulate"
         d="m 302.5,201 c -6.3883,0 -11.5,-5.1117 -11.5,-11.5 l 0,-1 c 0,6.3883 5.1117,11.5 11.5,11.5 l 35,0 c 6.3883,0 11.5,-5.1117 11.5,-11.5 l 0,1 c 0,6.3883 -5.1117,11.5 -11.5,11.5 l -35,0 z"
         id="path4296"
         inkscape:connector-curvature="0" />
      <path
         style="opacity:0.1;color:#bebebe;fill:#ffffff;fill-opacity:1;fill-rule:nonzero;stroke:none;stroke-width:0;marker:none;visibility:visible;display:inline;overflow:visible;enable-background:accumulate"
         d="m 310,119 c -9.4353,0 -17,-7.5647 -17,-17 l 0,-1 c 0,9.4353 7.5647,17 17,17 l 52,0 c 9.4353,0 17,-7.5647 17,-17 l 0,1 c 0,9.4353 -7.5647,17 -17,17 l -52,0 z"
         id="path4298"
         inkscape:connector-curvature="0" />
      <path
         style="opacity:0.1;color:#bebebe;fill:#ffffff;fill-opacity:1;fill-rule:nonzero;stroke:none;stroke-width:0;marker:none;visibility:visible;display:inline;overflow:visible;enable-background:accumulate"
         d="m 424,82 c -3.3413,0 -6,-2.658703 -6,-6 l 0,-1 c 0,3.341297 2.6587,6 6,6 l 16,0 c 3.3413,0 6,-2.658703 6,-6 l 0,1 c 0,3.341297 -2.6587,6 -6,6 l -16,0 z"
         id="path4300"
         inkscape:connector-curvature="0" />
      <path
         style="opacity:0.1;color:#bebebe;fill:#ffffff;fill-opacity:1;fill-rule:nonzero;stroke:none;stroke-width:0;marker:none;visibility:visible;display:inline;overflow:visible;enable-background:accumulate"
         d="m 422,122 c -2.2333,0 -4,-1.7667 -4,-4 l 0,-1 c 0,2.2333 1.7667,4 4,4 l 12,0 c 2.2333,0 4,-1.7667 4,-4 l 0,1 c 0,2.2333 -1.7667,4 -4,4 l -12,0 z"
         id="path4302"
         inkscape:connector-curvature="0" />
      <path
         style="opacity:0.1;color:#bebebe;fill:#ffffff;fill-opacity:1;fill-rule:nonzero;stroke:none;stroke-width:0;marker:none;visibility:visible;display:inline;overflow:visible;enable-background:accumulate"
         d="m 419,154.5 c -1.1253,0 -2,-0.8747 -2,-2 l 0,-1 c 0,1.1253 0.8747,2 2,2 l 10,0 c 1.1253,0 2,-0.8747 2,-2 l 0,1 c 0,1.1253 -0.8747,2 -2,2 l -10,0 z"
         id="path4304"
         inkscape:connector-curvature="0" />
    </g>
    <g
       inkscape:groupmode="layer"
       id="layer3"
       inkscape:label="Border"
       style="display:inline"
       sodipodi:insensitive="true">
      <path
         style="opacity:0.41000001;color:#bebebe;fill:#000000;fill-opacity:1;fill-rule:nonzero;stroke:none;stroke-width:0;marker:none;visibility:visible;display:inline;overflow:visible;enable-background:accumulate"
         d="m 422,101 c -2.77,0 -5,2.23 -5,5 l 0,12 c 0,2.77 2.23,5 5,5 l 12,0 c 2.77,0 5,-2.23 5,-5 l 0,-12 c 0,-2.77 -2.23,-5 -5,-5 l -12,0 z m 0,1 12,0 c 2.2333,0 4,1.7667 4,4 l 0,12 c 0,2.2333 -1.7667,4 -4,4 l -12,0 c -2.2333,0 -4,-1.7667 -4,-4 l 0,-12 c 0,-2.2333 1.7667,-4 4,-4 z"
         id="rect4099"
         inkscape:connector-curvature="0" />
      <path
         style="opacity:0.41000001;color:#bebebe;fill:#000000;fill-opacity:1;fill-rule:nonzero;stroke:none;stroke-width:0;marker:none;visibility:visible;display:inline;overflow:visible;enable-background:accumulate"
         d="m 424,53 c -3.878,0 -7,3.122 -7,7 l 0,16 c 0,3.878 3.122,7 7,7 l 16,0 c 3.878,0 7,-3.122 7,-7 l 0,-16 c 0,-3.878 -3.122,-7 -7,-7 l -16,0 z m 0,1 16,0 c 3.3413,0 6,2.658703 6,6 l 0,16 c 0,3.341297 -2.6587,6 -6,6 l -16,0 c -3.3413,0 -6,-2.658703 -6,-6 l 0,-16 c 0,-3.341297 2.6587,-6 6,-6 z"
         id="rect4151"
         inkscape:connector-curvature="0" />
      <path
         style="opacity:0.41000001;color:#bebebe;fill:#000000;fill-opacity:1;fill-rule:nonzero;stroke:none;stroke-width:0;marker:none;visibility:visible;display:inline;overflow:visible;enable-background:accumulate"
         d="m 419,140 c -1.662,0 -3,1.338 -3,3 l 0,10 c 0,1.662 1.338,3 3,3 l 10,0 c 1.662,0 3,-1.338 3,-3 l 0,-10 c 0,-1.662 -1.338,-3 -3,-3 l -10,0 z m 0,1 10,0 c 1.1253,0 2,0.8747 2,2 l 0,10 c 0,1.1253 -0.8747,2 -2,2 l -10,0 c -1.1253,0 -2,-0.8747 -2,-2 l 0,-10 c 0,-1.1253 0.8747,-2 2,-2 z"
         id="rect4095"
         inkscape:connector-curvature="0" />
      <path
         style="opacity:0.41000001;color:#bebebe;fill:#000000;fill-opacity:1;fill-rule:nonzero;stroke:none;stroke-width:0;marker:none;visibility:visible;display:inline;overflow:visible;enable-background:accumulate"
         d="m 300,223 c -4.986,0 -9,4.014 -9,9 l 0,24 c 0,4.986 4.014,9 9,9 l 24,0 c 4.986,0 9,-4.014 9,-9 l 0,-24 c 0,-4.986 -4.014,-9 -9,-9 l -24,0 z m 0,1 24,0 c 4.4493,0 8,3.5507 8,8 l 0,24 c 0,4.4493 -3.5507,8 -8,8 l -24,0 c -4.4493,0 -8,-3.5507 -8,-8 l 0,-24 c 0,-4.4493 3.5507,-8 8,-8 z"
         id="rect4783"
         inkscape:connector-curvature="0" />
      <path
         style="opacity:0.41000001;color:#bebebe;fill:#000000;fill-opacity:1;fill-rule:nonzero;stroke:none;stroke-width:0;marker:none;visibility:visible;display:inline;overflow:visible;enable-background:accumulate"
         d="m 302.5,142 c -6.925,0 -12.5,5.575 -12.5,12.5 l 0,35 c 0,6.925 5.575,12.5 12.5,12.5 l 35,0 c 6.925,0 12.5,-5.575 12.5,-12.5 l 0,-35 c 0,-6.925 -5.575,-12.5 -12.5,-12.5 l -35,0 z m 0,1 35,0 c 6.3883,0 11.5,5.1117 11.5,11.5 l 0,35 c 0,6.3883 -5.1117,11.5 -11.5,11.5 l -35,0 c -6.3883,0 -11.5,-5.1117 -11.5,-11.5 l 0,-35 c 0,-6.3883 5.1117,-11.5 11.5,-11.5 z"
         id="rect4515"
         inkscape:connector-curvature="0" />
      <path
         style="opacity:0.41000001;color:#bebebe;fill:#000000;fill-opacity:1;fill-rule:nonzero;stroke:none;stroke-width:0;marker:none;visibility:visible;display:inline;overflow:visible;enable-background:accumulate"
         d="m 310,32 c -9.972,0 -18,8.028 -18,18 l 0,52 c 0,9.972 8.028,18 18,18 l 52,0 c 9.972,0 18,-8.028 18,-18 l 0,-52 c 0,-9.972 -8.028,-18 -18,-18 l -52,0 z m 0,1 52,0 c 9.4353,0 17,7.564703 17,17 l 0,52 c 0,9.4353 -7.5647,17 -17,17 l -52,0 c -9.4353,0 -17,-7.5647 -17,-17 l 0,-52 c 0,-9.435297 7.5647,-17 17,-17 z"
         id="rect4511"
         inkscape:connector-curvature="0" />
      <path
         style="opacity:0.41000001;color:#bebebe;fill:#000000;fill-opacity:1;fill-rule:nonzero;stroke:none;stroke-width:0;marker:none;visibility:visible;display:inline;overflow:visible;enable-background:accumulate"
         d="M 84,46 C 56.3,46 34,68.3 34,96 l 0,120 c 0,27.7 22.3,50 50,50 l 120,0 c 27.7,0 50,-22.3 50,-50 L 254,96 C 254,68.3 231.7,46 204,46 L 84,46 z m 0,1 120,0 c 27.1633,0 49,21.836703 49,49 l 0,120 c 0,27.1633 -21.8367,49 -49,49 L 84,265 C 56.836703,265 35,243.1633 35,216 L 35,96 C 35,68.836703 56.836703,47 84,47 z"
         id="rect4040"
         inkscape:connector-curvature="0" />
    </g>
  </g>
</svg>
