<?xml version="1.0" encoding="UTF-8" standalone="no"?>
<!-- Created with Inkscape (http://www.inkscape.org/) -->

<svg
   xmlns:dc="http://purl.org/dc/elements/1.1/"
   xmlns:cc="http://creativecommons.org/ns#"
   xmlns:rdf="http://www.w3.org/1999/02/22-rdf-syntax-ns#"
   xmlns:svg="http://www.w3.org/2000/svg"
   xmlns="http://www.w3.org/2000/svg"
   xmlns:xlink="http://www.w3.org/1999/xlink"
   xmlns:sodipodi="http://sodipodi.sourceforge.net/DTD/sodipodi-0.dtd"
   xmlns:inkscape="http://www.inkscape.org/namespaces/inkscape"
   inkscape:export-ydpi="90.000000"
   inkscape:export-xdpi="90.000000"
   width="480"
   height="300"
   id="svg11300"
   sodipodi:version="0.32"
   inkscape:version="0.48.4 r9939"
   sodipodi:docname="web-google-earth.svg"
   inkscape:output_extension="org.inkscape.output.svg.inkscape"
   version="1.0"
   style="display:inline;enable-background:new"
   inkscape:export-filename="/home/sam/moka2-template.png">
  <sodipodi:namedview
     stroke="#ef2929"
     fill="#f57900"
     id="base"
     pagecolor="#ffffff"
     bordercolor="#666666"
     borderopacity="0.25490196"
     inkscape:pageopacity="0"
     inkscape:pageshadow="2"
     inkscape:zoom="1"
     inkscape:cx="254.93409"
     inkscape:cy="159.25087"
     inkscape:current-layer="layer7"
     showgrid="false"
     inkscape:grid-bbox="true"
     inkscape:document-units="px"
     inkscape:showpageshadow="false"
     inkscape:window-width="1364"
     inkscape:window-height="701"
     inkscape:window-x="0"
     inkscape:window-y="27"
     width="400px"
     height="300px"
     inkscape:snap-nodes="true"
     inkscape:snap-bbox="true"
     gridtolerance="10000"
     inkscape:object-nodes="true"
     inkscape:snap-grids="true"
     showguides="true"
     inkscape:guide-bbox="true"
     inkscape:window-maximized="1"
     inkscape:bbox-nodes="true"
     inkscape:bbox-paths="true"
     inkscape:snap-bbox-edge-midpoints="true"
     inkscape:snap-bbox-midpoints="true">
    <inkscape:grid
       spacingy="1px"
       spacingx="1px"
       id="grid5883"
       type="xygrid"
       enabled="true"
       visible="true"
       empspacing="4"
       snapvisiblegridlinesonly="true"
       dotted="false"
       color="#000000"
       opacity="0.1254902"
       empcolor="#203ef3"
       empopacity="0.36470588" />
    <inkscape:grid
       type="xygrid"
       id="grid11592"
       empspacing="8"
       visible="true"
       enabled="false"
       spacingx="0.5px"
       spacingy="0.5px"
       color="#ff0000"
       opacity="0.1254902"
       empcolor="#ff0000"
       empopacity="0.25098039"
       snapvisiblegridlinesonly="true"
       dotted="true" />
  </sodipodi:namedview>
  <defs
     id="defs3">
    <linearGradient
       id="outerBackgroundGradient">
      <stop
         style="stop-color:#8285e1;stop-opacity:1;"
         offset="0"
         id="stop3864-8-6" />
      <stop
         style="stop-color:#b8baf3;stop-opacity:1;"
         offset="1"
         id="stop3866-9-1" />
    </linearGradient>
    <linearGradient
       inkscape:collect="always"
       xlink:href="#outerBackgroundGradient"
       id="linearGradient4097"
       gradientUnits="userSpaceOnUse"
       x1="264"
       y1="280.00003"
       x2="264"
       y2="40.00005"
       gradientTransform="matrix(0.06666667,0,0,0.06666667,414.4,137.33333)" />
    <linearGradient
       inkscape:collect="always"
       xlink:href="#outerBackgroundGradient"
       id="linearGradient4101"
       gradientUnits="userSpaceOnUse"
       gradientTransform="matrix(0.0875,0,0,0.0875,414.9,97.5)"
       x1="286.85715"
       y1="302.85715"
       x2="286.85715"
       y2="28.571428" />
    <linearGradient
       inkscape:collect="always"
       xlink:href="#outerBackgroundGradient"
       id="linearGradient4153"
       gradientUnits="userSpaceOnUse"
       gradientTransform="matrix(0.11931818,0,0,0.11931818,414.13636,48.22727)"
       x1="283.80957"
       y1="299.80954"
       x2="283.80957"
       y2="31.61907" />
    <linearGradient
       inkscape:collect="always"
       xlink:href="#outerBackgroundGradient"
       id="linearGradient4869"
       gradientUnits="userSpaceOnUse"
       gradientTransform="matrix(0.175,0,0,-0.175,286.79999,-215.99997)"
       x1="281.14291"
       y1="297.14304"
       x2="281.14291"
       y2="22.857315" />
    <clipPath
       clipPathUnits="userSpaceOnUse"
       id="clipPath4891">
      <rect
         ry="9"
         y="223"
         x="307"
         height="42"
         width="42"
         id="rect4893"
         style="color:#bebebe;fill:url(#linearGradient4895);fill-opacity:1;fill-rule:nonzero;stroke:none;stroke-width:0;marker:none;visibility:visible;display:inline;overflow:visible;enable-background:accumulate"
         transform="matrix(0,1,-1,0,0,0)" />
    </clipPath>
    <linearGradient
       inkscape:collect="always"
       xlink:href="#outerBackgroundGradient"
       id="linearGradient4895"
       gradientUnits="userSpaceOnUse"
       gradientTransform="matrix(0.175,0,0,0.175,302.79999,215.99997)"
       x1="144.00006"
       y1="280.00018"
       x2="144.00006"
       y2="40.000172" />
    <clipPath
       clipPathUnits="userSpaceOnUse"
       id="clipPath4044">
      <rect
         ry="4"
         y="85"
         x="433"
         height="22"
         width="22"
         id="rect4046"
         style="color:#bebebe;fill:url(#linearGradient4048);fill-opacity:1;fill-rule:nonzero;stroke:none;stroke-width:0;marker:none;visibility:visible;display:inline;overflow:visible;enable-background:accumulate" />
    </clipPath>
    <linearGradient
       inkscape:collect="always"
       xlink:href="#outerBackgroundGradient"
       id="linearGradient4048"
       gradientUnits="userSpaceOnUse"
       gradientTransform="matrix(0.0875,0,0,0.0875,430.9,81.499996)"
       x1="149.71428"
       y1="291.42862"
       x2="149.71428"
       y2="40.000046" />
    <clipPath
       clipPathUnits="userSpaceOnUse"
       id="clipPath4089">
      <rect
         style="color:#bebebe;fill:url(#linearGradient4093);fill-opacity:1;fill-rule:nonzero;stroke:none;stroke-width:0;marker:none;visibility:visible;display:inline;overflow:visible;enable-background:accumulate"
         id="rect4091"
         width="30"
         height="30"
         x="433"
         y="37"
         ry="6" />
    </clipPath>
    <linearGradient
       inkscape:collect="always"
       xlink:href="#outerBackgroundGradient"
       id="linearGradient4093"
       gradientUnits="userSpaceOnUse"
       gradientTransform="matrix(0.11931818,0,0,0.11931818,430.13636,32.227267)"
       x1="149.71432"
       y1="291.42862"
       x2="149.71432"
       y2="40.00005" />
    <clipPath
       clipPathUnits="userSpaceOnUse"
       id="clipPath3855">
      <rect
         style="color:#bebebe;fill:url(#linearGradient3859);fill-opacity:1;fill-rule:nonzero;stroke:none;stroke-width:0;marker:none;visibility:visible;display:inline;overflow:visible;enable-background:accumulate"
         id="rect3857"
         width="16"
         height="16"
         x="304"
         y="212"
         ry="3"
         transform="matrix(0,1,-1,0,0,0)" />
    </clipPath>
    <linearGradient
       inkscape:collect="always"
       xlink:href="#outerBackgroundGradient"
       id="linearGradient3859"
       gradientUnits="userSpaceOnUse"
       gradientTransform="matrix(0.06666667,0,0,0.06666667,302.4,209.33333)"
       x1="144"
       y1="280.00003"
       x2="144"
       y2="40.00005" />
    <clipPath
       clipPathUnits="userSpaceOnUse"
       id="clipPath3862">
      <rect
         ry="50"
         y="46"
         x="34"
         height="220"
         width="220"
         id="rect3864"
         style="color:#bebebe;fill:url(#linearGradient3866);fill-opacity:1;fill-rule:nonzero;stroke:none;stroke-width:0;marker:none;visibility:visible;display:inline;overflow:visible;enable-background:accumulate" />
    </clipPath>
    <linearGradient
       inkscape:collect="always"
       xlink:href="#outerBackgroundGradient"
       id="linearGradient3866"
       gradientUnits="userSpaceOnUse"
       gradientTransform="translate(0,-4)"
       x1="144"
       y1="280"
       x2="144"
       y2="40" />
    <linearGradient
       inkscape:collect="always"
       xlink:href="#outerBackgroundGradient"
       id="linearGradient3876"
       gradientUnits="userSpaceOnUse"
       gradientTransform="translate(0,-4)"
       x1="272"
       y1="288"
       x2="272"
       y2="32" />
    <clipPath
       clipPathUnits="userSpaceOnUse"
       id="clipPath4187">
      <rect
         ry="12.5"
         y="142"
         x="290"
         height="60"
         width="60"
         id="rect4189"
         style="color:#bebebe;fill:url(#linearGradient4191);fill-opacity:1;fill-rule:nonzero;stroke:none;stroke-width:0;marker:none;visibility:visible;display:inline;overflow:visible;enable-background:accumulate" />
    </clipPath>
    <linearGradient
       inkscape:collect="always"
       xlink:href="#outerBackgroundGradient"
       id="linearGradient4191"
       gradientUnits="userSpaceOnUse"
       x1="352"
       y1="204"
       x2="352"
       y2="140" />
    <linearGradient
       inkscape:collect="always"
       xlink:href="#outerBackgroundGradient"
       id="linearGradient4197"
       gradientUnits="userSpaceOnUse"
       x1="384"
       y1="124"
       x2="384"
       y2="28" />
    <linearGradient
       inkscape:collect="always"
       xlink:href="#outerBackgroundGradient"
       id="linearGradient4199"
       gradientUnits="userSpaceOnUse"
       x1="352"
       y1="204"
       x2="352"
       y2="140" />
    <clipPath
       clipPathUnits="userSpaceOnUse"
       id="clipPath4346">
      <rect
         style="color:#bebebe;fill:url(#linearGradient4350);fill-opacity:1;fill-rule:nonzero;stroke:none;stroke-width:0;marker:none;visibility:visible;display:inline;overflow:visible;enable-background:accumulate"
         id="rect4348"
         width="88"
         height="88"
         x="292"
         y="32"
         ry="18" />
    </clipPath>
    <linearGradient
       inkscape:collect="always"
       xlink:href="#outerBackgroundGradient"
       id="linearGradient4350"
       gradientUnits="userSpaceOnUse"
       x1="384"
       y1="124"
       x2="384"
       y2="28" />
    <clipPath
       clipPathUnits="userSpaceOnUse"
       id="clipPath3871">
      <rect
         ry="5"
         y="101"
         x="417"
         height="22"
         width="22"
         id="rect3873"
         style="color:#bebebe;fill:url(#linearGradient3875);fill-opacity:1;fill-rule:nonzero;stroke:none;stroke-width:0;marker:none;visibility:visible;display:inline;overflow:visible;enable-background:accumulate" />
    </clipPath>
    <linearGradient
       inkscape:collect="always"
       xlink:href="#outerBackgroundGradient"
       id="linearGradient3875"
       gradientUnits="userSpaceOnUse"
       gradientTransform="matrix(0.0875,0,0,0.0875,414.9,97.5)"
       x1="286.85715"
       y1="302.85715"
       x2="286.85715"
       y2="28.571428" />
    <clipPath
       clipPathUnits="userSpaceOnUse"
       id="clipPath3881">
      <rect
         style="color:#bebebe;fill:url(#linearGradient3885);fill-opacity:1;fill-rule:nonzero;stroke:none;stroke-width:0;marker:none;visibility:visible;display:inline;overflow:visible;enable-background:accumulate"
         id="rect3883"
         width="30"
         height="30"
         x="417"
         y="53"
         ry="7" />
    </clipPath>
    <linearGradient
       inkscape:collect="always"
       xlink:href="#outerBackgroundGradient"
       id="linearGradient3885"
       gradientUnits="userSpaceOnUse"
       gradientTransform="matrix(0.11931818,0,0,0.11931818,414.13636,48.22727)"
       x1="283.80957"
       y1="299.80954"
       x2="283.80957"
       y2="31.61907" />
    <linearGradient
       inkscape:collect="always"
       xlink:href="#linearGradient4043"
       id="linearGradient4049"
       x1="-125.25"
       y1="-46"
       x2="-125.25"
       y2="14"
       gradientUnits="userSpaceOnUse" />
    <linearGradient
       id="linearGradient4043">
      <stop
         style="stop-color:#7a9ee4;stop-opacity:1;"
         offset="0"
         id="stop4045" />
      <stop
         style="stop-color:#4765ac;stop-opacity:1;"
         offset="1"
         id="stop4047" />
    </linearGradient>
    <linearGradient
       inkscape:collect="always"
       xlink:href="#linearGradient4091"
       id="linearGradient4133"
       gradientUnits="userSpaceOnUse"
       gradientTransform="translate(0,4)"
       x1="136"
       y1="80"
       x2="181"
       y2="232" />
    <linearGradient
       id="linearGradient4091">
      <stop
         style="stop-color:#ffffff;stop-opacity:1;"
         offset="0"
         id="stop4093" />
      <stop
         style="stop-color:#e7e7e7;stop-opacity:1;"
         offset="1"
         id="stop4095" />
    </linearGradient>
    <clipPath
       clipPathUnits="userSpaceOnUse"
       id="clipPath4057">
      <path
         transform="matrix(3.7209302,0,0,4,730.04651,220)"
         d="m -136,-16 a 21.5,20 0 1 1 -43,0 21.5,20 0 1 1 43,0 z"
         sodipodi:ry="20"
         sodipodi:rx="21.5"
         sodipodi:cy="-16"
         sodipodi:cx="-157.5"
         id="path4059"
         style="color:#000000;fill:url(#linearGradient4061);fill-opacity:1;fill-rule:nonzero;stroke:none;stroke-width:2;marker:none;visibility:visible;display:inline;overflow:visible;enable-background:accumulate"
         sodipodi:type="arc" />
    </clipPath>
    <linearGradient
       y2="232"
       x2="181"
       y1="80"
       x1="136"
       gradientTransform="translate(0,4)"
       gradientUnits="userSpaceOnUse"
       id="linearGradient3357"
       xlink:href="#linearGradient4091"
       inkscape:collect="always" />
    <clipPath
       clipPathUnits="userSpaceOnUse"
       id="clipPath3104">
      <rect
         style="color:#bebebe;fill:url(#linearGradient3108);fill-opacity:1;fill-rule:nonzero;stroke:none;stroke-width:0;marker:none;visibility:visible;display:inline;overflow:visible;enable-background:accumulate"
         id="rect3106"
         width="125.71429"
         height="125.71429"
         x="81.14286"
         y="92"
         ry="28.571428" />
    </clipPath>
    <linearGradient
       inkscape:collect="always"
       xlink:href="#outerBackgroundGradient"
       id="linearGradient3108"
       gradientUnits="userSpaceOnUse"
       gradientTransform="matrix(0.57142857,0,0,0.57142857,61.714286,63.428571)"
       x1="272"
       y1="288"
       x2="272"
       y2="32" />
    <linearGradient
       inkscape:collect="always"
       xlink:href="#linearGradient4043"
       id="linearGradient3110"
       gradientUnits="userSpaceOnUse"
       x1="-125.25"
       y1="-46"
       x2="-125.25"
       y2="14" />
    <linearGradient
       inkscape:collect="always"
       xlink:href="#linearGradient4091"
       id="linearGradient3112"
       gradientUnits="userSpaceOnUse"
       gradientTransform="translate(0,4)"
       x1="136"
       y1="80"
       x2="181"
       y2="232" />
    <clipPath
       clipPathUnits="userSpaceOnUse"
       id="clipPath3122">
      <rect
         ry="26.181818"
         y="92"
         x="80"
         height="128"
         width="128"
         id="rect3124"
         style="color:#bebebe;fill:url(#linearGradient3126);fill-opacity:1;fill-rule:nonzero;stroke:none;stroke-width:0;marker:none;visibility:visible;display:inline;overflow:visible;enable-background:accumulate" />
    </clipPath>
    <linearGradient
       inkscape:collect="always"
       xlink:href="#outerBackgroundGradient"
       id="linearGradient3126"
       gradientUnits="userSpaceOnUse"
       x1="384"
       y1="124"
       x2="384"
       y2="28"
       gradientTransform="matrix(1.4545455,0,0,1.4545455,-344.72728,45.454543)" />
    <linearGradient
       inkscape:collect="always"
       xlink:href="#linearGradient4043"
       id="linearGradient3128"
       gradientUnits="userSpaceOnUse"
       x1="-125.25"
       y1="-46"
       x2="-125.25"
       y2="14" />
    <linearGradient
       inkscape:collect="always"
       xlink:href="#linearGradient4091"
       id="linearGradient3130"
       gradientUnits="userSpaceOnUse"
       gradientTransform="translate(0,4)"
       x1="136"
       y1="80"
       x2="181"
       y2="232" />
    <clipPath
       clipPathUnits="userSpaceOnUse"
       id="clipPath3138">
      <rect
         style="color:#bebebe;fill:url(#linearGradient3142);fill-opacity:1;fill-rule:nonzero;stroke:none;stroke-width:0;marker:none;visibility:visible;display:inline;overflow:visible;enable-background:accumulate"
         id="rect3140"
         width="126.3158"
         height="126.3158"
         x="80.84211"
         y="92.842102"
         ry="26.31579" />
    </clipPath>
    <linearGradient
       inkscape:collect="always"
       xlink:href="#outerBackgroundGradient"
       id="linearGradient3142"
       gradientUnits="userSpaceOnUse"
       x1="352"
       y1="204"
       x2="352"
       y2="140"
       gradientTransform="matrix(2.1052632,0,0,2.1052632,-529.68422,-206.10527)" />
    <linearGradient
       inkscape:collect="always"
       xlink:href="#linearGradient4043"
       id="linearGradient3144"
       gradientUnits="userSpaceOnUse"
       x1="-125.25"
       y1="-46"
       x2="-125.25"
       y2="14" />
    <linearGradient
       inkscape:collect="always"
       xlink:href="#linearGradient4091"
       id="linearGradient3146"
       gradientUnits="userSpaceOnUse"
       gradientTransform="translate(0,4)"
       x1="136"
       y1="80"
       x2="181"
       y2="232" />
    <linearGradient
       inkscape:collect="always"
       xlink:href="#linearGradient4043"
       id="linearGradient3154"
       gradientUnits="userSpaceOnUse"
       x1="-125.25"
       y1="-46"
       x2="-125.25"
       y2="14" />
    <linearGradient
       inkscape:collect="always"
       xlink:href="#linearGradient4091"
       id="linearGradient3156"
       gradientUnits="userSpaceOnUse"
       gradientTransform="translate(0,4)"
       x1="136"
       y1="80"
       x2="181"
       y2="232" />
    <clipPath
       clipPathUnits="userSpaceOnUse"
       id="clipPath3158">
      <rect
         style="color:#bebebe;fill:url(#linearGradient3162);fill-opacity:1;fill-rule:nonzero;stroke:none;stroke-width:0;marker:none;visibility:visible;display:inline;overflow:visible;enable-background:accumulate"
         id="rect3160"
         width="124.44444"
         height="124.44444"
         x="81.777779"
         y="-218.22223"
         ry="26.666666"
         transform="scale(1,-1)" />
    </clipPath>
    <linearGradient
       inkscape:collect="always"
       xlink:href="#outerBackgroundGradient"
       id="linearGradient3162"
       gradientUnits="userSpaceOnUse"
       gradientTransform="matrix(0.51851852,0,0,-0.51851852,69.333304,-73.036948)"
       x1="281.14291"
       y1="297.14304"
       x2="281.14291"
       y2="22.857315" />
    <linearGradient
       inkscape:collect="always"
       xlink:href="#linearGradient4043"
       id="linearGradient3170"
       gradientUnits="userSpaceOnUse"
       x1="-125.25"
       y1="-46"
       x2="-125.25"
       y2="14" />
    <linearGradient
       inkscape:collect="always"
       xlink:href="#linearGradient4091"
       id="linearGradient3172"
       gradientUnits="userSpaceOnUse"
       gradientTransform="translate(0,4)"
       x1="136"
       y1="80"
       x2="181"
       y2="232" />
    <clipPath
       clipPathUnits="userSpaceOnUse"
       id="clipPath3174">
      <rect
         ry="28"
         y="96"
         x="84"
         height="120"
         width="120"
         id="rect3176"
         style="color:#bebebe;fill:url(#linearGradient3178);fill-opacity:1;fill-rule:nonzero;stroke:none;stroke-width:0;marker:none;visibility:visible;display:inline;overflow:visible;enable-background:accumulate" />
    </clipPath>
    <linearGradient
       inkscape:collect="always"
       xlink:href="#outerBackgroundGradient"
       id="linearGradient3178"
       gradientUnits="userSpaceOnUse"
       gradientTransform="matrix(0.47727272,0,0,0.47727272,72.54544,76.90908)"
       x1="283.80957"
       y1="299.80954"
       x2="283.80957"
       y2="31.61907" />
    <linearGradient
       inkscape:collect="always"
       xlink:href="#linearGradient4043"
       id="linearGradient3186"
       gradientUnits="userSpaceOnUse"
       x1="-125.25"
       y1="-46"
       x2="-125.25"
       y2="14" />
    <linearGradient
       inkscape:collect="always"
       xlink:href="#linearGradient4091"
       id="linearGradient3188"
       gradientUnits="userSpaceOnUse"
       gradientTransform="translate(0,4)"
       x1="136"
       y1="80"
       x2="181"
       y2="232" />
    <clipPath
       clipPathUnits="userSpaceOnUse"
       id="clipPath3190">
      <rect
         style="color:#bebebe;fill:url(#linearGradient3194);fill-opacity:1;fill-rule:nonzero;stroke:none;stroke-width:0;marker:none;visibility:visible;display:inline;overflow:visible;enable-background:accumulate"
         id="rect3192"
         width="117.33334"
         height="117.33334"
         x="85.333336"
         y="97.333336"
         ry="26.666666" />
    </clipPath>
    <linearGradient
       inkscape:collect="always"
       xlink:href="#outerBackgroundGradient"
       id="linearGradient3194"
       gradientUnits="userSpaceOnUse"
       gradientTransform="matrix(0.46666667,0,0,0.46666667,74.133333,78.666667)"
       x1="286.85715"
       y1="302.85715"
       x2="286.85715"
       y2="28.571428" />
    <clipPath
       clipPathUnits="userSpaceOnUse"
       id="clipPath3196">
      <rect
         ry="22.857143"
         y="95.047623"
         x="83.047623"
         height="121.90476"
         width="121.90476"
         id="rect3198"
         style="color:#bebebe;fill:url(#linearGradient3200);fill-opacity:1;fill-rule:nonzero;stroke:none;stroke-width:0;marker:none;visibility:visible;display:inline;overflow:visible;enable-background:accumulate" />
    </clipPath>
    <linearGradient
       inkscape:collect="always"
       xlink:href="#outerBackgroundGradient"
       id="linearGradient3200"
       gradientUnits="userSpaceOnUse"
       gradientTransform="matrix(0.50793653,0,0,0.50793653,70.857143,74.730133)"
       x1="264"
       y1="280.00003"
       x2="264"
       y2="40.00005" />
  </defs>
  <metadata
     id="metadata4">
    <rdf:RDF>
      <cc:Work
         rdf:about="">
        <dc:format>image/svg+xml</dc:format>
        <dc:type
           rdf:resource="http://purl.org/dc/dcmitype/StillImage" />
        <dc:creator>
          <cc:Agent>
            <dc:title>Sam Hewitt</dc:title>
          </cc:Agent>
        </dc:creator>
        <dc:source />
        <cc:license
           rdf:resource="" />
        <dc:title />
        <dc:subject>
          <rdf:Bag />
        </dc:subject>
        <dc:date />
        <dc:rights>
          <cc:Agent>
            <dc:title />
          </cc:Agent>
        </dc:rights>
        <dc:publisher>
          <cc:Agent>
            <dc:title />
          </cc:Agent>
        </dc:publisher>
        <dc:identifier />
        <dc:relation />
        <dc:language />
        <dc:coverage />
        <dc:description />
        <dc:contributor>
          <cc:Agent>
            <dc:title />
          </cc:Agent>
        </dc:contributor>
      </cc:Work>
      <cc:Work
         rdf:about="">
        <dc:format>image/svg+xml</dc:format>
        <dc:type
           rdf:resource="http://purl.org/dc/dcmitype/StillImage" />
      </cc:Work>
    </rdf:RDF>
  </metadata>
  <g
     style="display:inline"
     inkscape:groupmode="layer"
     inkscape:label="Icon"
     id="layer1">
    <g
       style="display:none"
       inkscape:label="Baseplate"
       id="layer7"
       inkscape:groupmode="layer">
      <text
         y="19.745117"
         xml:space="preserve"
         x="15.006836"
         style="font-size:18px;font-style:normal;font-variant:normal;font-weight:normal;font-stretch:normal;fill:#000000;fill-opacity:1;stroke:none;display:inline;enable-background:new;font-family:DejaVu Sans;-inkscape-font-specification:DejaVu Sans"
         inkscape:label="context"
         id="context"><tspan
           style="font-style:normal;font-variant:normal;font-weight:normal;font-stretch:normal;font-family:DejaVu Sans;-inkscape-font-specification:DejaVu Sans"
           y="19.745117"
           x="15.006836"
           sodipodi:role="line"
           id="tspan3933">web</tspan></text>
      <text
         y="19.745117"
         xml:space="preserve"
         x="122.48828"
         style="font-size:18px;font-style:normal;font-variant:normal;font-weight:bold;font-stretch:normal;text-align:start;line-height:125%;writing-mode:lr-tb;text-anchor:start;fill:#000000;fill-opacity:1;stroke:none;display:inline;enable-background:new;font-family:DejaVu Sans;-inkscape-font-specification:DejaVu Sans Bold"
         sodipodi:linespacing="125%"
         inkscape:label="icon-name"
         id="icon-name"><tspan
           style="font-size:18px;font-style:normal;font-variant:normal;font-weight:bold;font-stretch:normal;font-family:DejaVu Sans;-inkscape-font-specification:DejaVu Sans Bold"
           y="19.745117"
           x="122.48828"
           sodipodi:role="line"
           id="tspan3937">web-google-earth</tspan></text>
      <rect
         style="fill:#eeeeec;fill-opacity:1;fill-rule:nonzero;stroke:none;stroke-width:2;marker:none;visibility:visible;display:inline;overflow:visible;enable-background:accumulate"
         id="rect16x16"
         width="16"
         height="16"
         x="416"
         y="140"
         inkscape:label="16x16" />
      <rect
         style="fill:#d4d4d4;fill-opacity:1;fill-rule:nonzero;stroke:none;stroke-width:2;marker:none;visibility:visible;display:inline;overflow:visible;enable-background:accumulate"
         id="rect24x24"
         width="24"
         height="24"
         x="416"
         y="100"
         inkscape:label="24x24" />
      <rect
         style="fill:#eeeeec;fill-opacity:1;fill-rule:nonzero;stroke:none;stroke-width:2;marker:none;visibility:visible;display:inline;overflow:visible;enable-background:accumulate"
         id="rect32x32"
         width="32"
         height="32"
         x="416"
         y="52"
         inkscape:label="32x32" />
      <rect
         inkscape:label="22x22"
         y="101"
         x="417"
         height="22"
         width="22"
         id="rect22x22"
         style="fill:#eeeeec;fill-opacity:1;fill-rule:nonzero;stroke:none;stroke-width:2;marker:none;visibility:visible;display:inline;overflow:visible;enable-background:accumulate" />
      <rect
         inkscape:label="48x48"
         y="220"
         x="288"
         height="48"
         width="48"
         id="rect48x48"
         style="fill:#eeeeec;fill-opacity:1;fill-rule:nonzero;stroke:none;stroke-width:2;marker:none;visibility:visible;display:inline;overflow:visible;enable-background:accumulate" />
      <rect
         style="fill:#eeeeec;fill-opacity:1;fill-rule:nonzero;stroke:none;stroke-width:2;marker:none;visibility:visible;display:inline;overflow:visible;enable-background:accumulate"
         id="rect256x256"
         width="256"
         height="256"
         x="16"
         y="28"
         inkscape:label="256x256" />
      <rect
         style="fill:#eeeeec;fill-opacity:1;fill-rule:nonzero;stroke:none;stroke-width:2;marker:none;visibility:visible;display:inline;overflow:visible;enable-background:accumulate"
         id="rect64x64"
         width="64"
         height="64"
         x="288"
         y="140"
         inkscape:label="64x64" />
      <rect
         style="fill:#eeeeec;fill-opacity:1;fill-rule:nonzero;stroke:none;stroke-width:2;marker:none;visibility:visible;display:inline;overflow:visible;enable-background:accumulate"
         id="rect96x96"
         width="96"
         height="96"
         x="288"
         y="28"
         inkscape:label="96x96" />
    </g>
    <g
       inkscape:groupmode="layer"
       id="layer4"
       inkscape:label="Shadow"
       style="display:inline"
       sodipodi:insensitive="true">
      <rect
         style="opacity:0.0;color:#bebebe;fill:#000000;fill-opacity:1;stroke:#000000;stroke-width:1;stroke-miterlimit:4;stroke-opacity:1;stroke-dasharray:none;marker:none;visibility:visible;display:inline;overflow:visible;enable-background:accumulate"
         id="rect4156"
         width="42"
         height="42"
         x="-266.5"
         y="291"
         ry="9"
         transform="matrix(0,-1,1,0,0,0)" />
      <rect
         transform="matrix(0,-1,1,0,0,0)"
         ry="9"
         y="291"
         x="-266.5"
         height="42"
         width="40"
         id="rect4183"
         style="opacity:0.1;color:#bebebe;fill:#000000;fill-opacity:1;stroke:none;stroke-width:1;marker:none;visibility:visible;display:inline;overflow:visible;enable-background:accumulate" />
      <rect
         ry="9"
         y="237"
         x="291"
         height="29"
         width="42"
         id="rect4144"
         style="opacity:0.1;color:#bebebe;fill:#000000;fill-opacity:1;fill-rule:nonzero;stroke:none;stroke-width:0;marker:none;visibility:visible;display:inline;overflow:visible;enable-background:accumulate" />
      <rect
         style="opacity:0.0;color:#bebebe;fill:#000000;fill-opacity:1;fill-rule:nonzero;stroke:#000000;stroke-width:1;stroke-miterlimit:4;stroke-opacity:1;stroke-dasharray:none;marker:none;visibility:visible;display:inline;overflow:visible;enable-background:accumulate"
         id="rect4340"
         width="88"
         height="88"
         x="292"
         y="33.5"
         ry="18" />
      <rect
         ry="18"
         y="52.5"
         x="292"
         height="69"
         width="88"
         id="rect4338"
         style="opacity:0.1;color:#bebebe;fill:#000000;fill-opacity:1;fill-rule:nonzero;stroke:none;stroke-width:0;marker:none;visibility:visible;display:inline;overflow:visible;enable-background:accumulate" />
      <rect
         style="opacity:0.1;color:#bebebe;fill:#000000;fill-opacity:1;fill-rule:nonzero;stroke:none;stroke-width:0;marker:none;visibility:visible;display:inline;overflow:visible;enable-background:accumulate"
         id="rect4335"
         width="88"
         height="76.5"
         x="292"
         y="44.5"
         ry="18" />
      <rect
         style="opacity:0.0;color:#bebebe;fill:#000000;fill-opacity:1;fill-rule:nonzero;stroke:#000000;stroke-width:1;stroke-miterlimit:4;stroke-opacity:1;stroke-dasharray:none;marker:none;visibility:visible;display:inline;overflow:visible;enable-background:accumulate"
         id="rect4214"
         width="60"
         height="60"
         x="290"
         y="143.5"
         ry="12.5" />
      <rect
         ry="12.5"
         y="151.5"
         x="290"
         height="52"
         width="60"
         id="rect4206"
         style="opacity:0.1;color:#bebebe;fill:#000000;fill-opacity:1;fill-rule:nonzero;stroke:none;stroke-width:0;marker:none;visibility:visible;display:inline;overflow:visible;enable-background:accumulate" />
      <rect
         style="opacity:0.1;color:#bebebe;fill:#000000;fill-opacity:1;fill-rule:nonzero;stroke:none;stroke-width:0;marker:none;visibility:visible;display:inline;overflow:visible;enable-background:accumulate"
         id="rect4212"
         width="60"
         height="54.5"
         x="290"
         y="148.5"
         ry="12.5" />
      <rect
         style="opacity:0.2;color:#bebebe;fill:#000000;fill-opacity:1;fill-rule:nonzero;stroke:none;stroke-width:0;marker:none;visibility:visible;display:inline;overflow:visible;enable-background:accumulate"
         id="rect4058"
         width="30"
         height="30"
         x="417"
         y="54"
         ry="7" />
      <rect
         ry="50"
         y="48"
         x="34"
         height="220"
         width="220"
         id="rect3872"
         style="opacity:0.0;color:#bebebe;fill:#000000;fill-opacity:1;fill-rule:nonzero;stroke:#000000;stroke-width:2;stroke-miterlimit:4;stroke-opacity:1;stroke-dasharray:none;marker:none;visibility:visible;display:inline;overflow:visible;enable-background:accumulate" />
      <rect
         style="opacity:0.1;color:#bebebe;fill:#000000;fill-opacity:1;fill-rule:nonzero;stroke:none;stroke-width:0;marker:none;visibility:visible;display:inline;overflow:visible;enable-background:accumulate"
         id="rect3870"
         width="220"
         height="220"
         x="34"
         y="48"
         ry="50" />
      <rect
         ry="50"
         y="47"
         x="34"
         height="220"
         width="220"
         id="rect3868"
         style="opacity:0.1;color:#bebebe;fill:#000000;fill-opacity:1;fill-rule:nonzero;stroke:none;stroke-width:0;marker:none;visibility:visible;display:inline;overflow:visible;enable-background:accumulate" />
    </g>
    <g
       inkscape:groupmode="layer"
       id="layer2"
       inkscape:label="Background"
       style="display:inline">
      <g
         transform="matrix(0.13125,0,0,0.13125,405.1,127.525)"
         style="display:inline;enable-background:new"
         id="g3180"
         clip-path="url(#clipPath3196)">
        <path
           transform="matrix(3.7209302,0,0,4,730.04651,220)"
           d="m -136,-16 c 0,11.045695 -9.62588,20 -21.5,20 -11.87412,0 -21.5,-8.954305 -21.5,-20 0,-11.045695 9.62588,-20 21.5,-20 11.87412,0 21.5,8.954305 21.5,20 z"
           sodipodi:ry="20"
           sodipodi:rx="21.5"
           sodipodi:cy="-16"
           sodipodi:cx="-157.5"
           id="path3182"
           style="color:#000000;fill:url(#linearGradient3186);fill-opacity:1;fill-rule:nonzero;stroke:none;stroke-width:2;marker:none;visibility:visible;display:inline;overflow:visible;enable-background:accumulate"
           sodipodi:type="arc" />
        <path
           transform="translate(-3.5e-6,0)"
           inkscape:connector-curvature="0"
           id="path3184"
           d="m 167.75,47.75 c -10.71725,0.33979 -83.508202,-1.80591 -86.5,16.5 0,0 -27,29.59375 13,29.59375 91,-35.5 73,95.40625 175,10.90625 l 0,-13.5 c -72.9728,9.24359 -62.76281,-44.72816 -101.5,-43.5 z M 95,114 c -10.717249,0.33979 -42.008202,9.69409 -45,28 0,0 -27,29.5625 13,29.5625 C 83,100.5625 177,225 239,169 l -1,0 C 165.0272,178.24359 133.73719,112.77184 95,114 z m -2.1875,77.96875 c -0.597028,-0.002 -1.207231,0.0121 -1.8125,0.0312 -10.717249,0.33979 -15.008202,16.69409 -18,35 0,0 5,22.5625 45,22.5625 -24,-64 49,13 111,-43 l -1,0 c -75.7701,27.80233 -97.57471,-14.43811 -135.1875,-14.5937 z"
           clip-path="url(#clipPath4057)"
           style="fill:url(#linearGradient3188);fill-opacity:1;stroke:none;display:inline;enable-background:new" />
      </g>
      <g
         id="g3132"
         style="display:inline;enable-background:new"
         transform="matrix(0.1875,0,0,0.1875,401,82.75)"
         clip-path="url(#clipPath3190)">
        <path
           sodipodi:type="arc"
           style="color:#000000;fill:url(#linearGradient3170);fill-opacity:1;fill-rule:nonzero;stroke:none;stroke-width:2;marker:none;visibility:visible;display:inline;overflow:visible;enable-background:accumulate"
           id="path3134"
           sodipodi:cx="-157.5"
           sodipodi:cy="-16"
           sodipodi:rx="21.5"
           sodipodi:ry="20"
           d="m -136,-16 c 0,11.045695 -9.62588,20 -21.5,20 -11.87412,0 -21.5,-8.954305 -21.5,-20 0,-11.045695 9.62588,-20 21.5,-20 11.87412,0 21.5,8.954305 21.5,20 z"
           transform="matrix(3.7209302,0,0,4,730.04651,220)" />
        <path
           style="fill:url(#linearGradient3172);fill-opacity:1;stroke:none;display:inline;enable-background:new"
           clip-path="url(#clipPath4057)"
           d="m 167.75,47.75 c -10.71725,0.33979 -83.508202,-1.80591 -86.5,16.5 0,0 -27,29.59375 13,29.59375 91,-35.5 73,95.40625 175,10.90625 l 0,-13.5 c -72.9728,9.24359 -62.76281,-44.72816 -101.5,-43.5 z M 95,114 c -10.717249,0.33979 -42.008202,9.69409 -45,28 0,0 -27,29.5625 13,29.5625 C 83,100.5625 177,225 239,169 l -1,0 C 165.0272,178.24359 133.73719,112.77184 95,114 z m -2.1875,77.96875 c -0.597028,-0.002 -1.207231,0.0121 -1.8125,0.0312 -10.717249,0.33979 -15.008202,16.69409 -18,35 0,0 5,22.5625 45,22.5625 -24,-64 49,13 111,-43 l -1,0 c -75.7701,27.80233 -97.57471,-14.43811 -135.1875,-14.5937 z"
           id="path3136"
           inkscape:connector-curvature="0"
           transform="translate(-3.5e-6,0)" />
      </g>
      <g
         transform="matrix(0.25,0,0,0.25,396,29)"
         style="display:inline;enable-background:new"
         id="g3164"
         clip-path="url(#clipPath3174)">
        <path
           transform="matrix(3.7209302,0,0,4,730.04651,220)"
           d="m -136,-16 c 0,11.045695 -9.62588,20 -21.5,20 -11.87412,0 -21.5,-8.954305 -21.5,-20 0,-11.045695 9.62588,-20 21.5,-20 11.87412,0 21.5,8.954305 21.5,20 z"
           sodipodi:ry="20"
           sodipodi:rx="21.5"
           sodipodi:cy="-16"
           sodipodi:cx="-157.5"
           id="path3166"
           style="color:#000000;fill:url(#linearGradient3154);fill-opacity:1;fill-rule:nonzero;stroke:none;stroke-width:2;marker:none;visibility:visible;display:inline;overflow:visible;enable-background:accumulate"
           sodipodi:type="arc" />
        <path
           transform="translate(-3.5e-6,0)"
           inkscape:connector-curvature="0"
           id="path3168"
           d="m 167.75,47.75 c -10.71725,0.33979 -83.508202,-1.80591 -86.5,16.5 0,0 -27,29.59375 13,29.59375 91,-35.5 73,95.40625 175,10.90625 l 0,-13.5 c -72.9728,9.24359 -62.76281,-44.72816 -101.5,-43.5 z M 95,114 c -10.717249,0.33979 -42.008202,9.69409 -45,28 0,0 -27,29.5625 13,29.5625 C 83,100.5625 177,225 239,169 l -1,0 C 165.0272,178.24359 133.73719,112.77184 95,114 z m -2.1875,77.96875 c -0.597028,-0.002 -1.207231,0.0121 -1.8125,0.0312 -10.717249,0.33979 -15.008202,16.69409 -18,35 0,0 5,22.5625 45,22.5625 -24,-64 49,13 111,-43 l -1,0 c -75.7701,27.80233 -97.57471,-14.43811 -135.1875,-14.5937 z"
           clip-path="url(#clipPath4057)"
           style="fill:url(#linearGradient3156);fill-opacity:1;stroke:none;display:inline;enable-background:new" />
      </g>
      <g
         transform="matrix(0.3375,0,0,0.3375,263.4,191.35)"
         style="display:inline;enable-background:new"
         id="g3148"
         clip-path="url(#clipPath3158)">
        <path
           transform="matrix(3.7209302,0,0,4,730.04651,220)"
           d="m -136,-16 c 0,11.045695 -9.62588,20 -21.5,20 -11.87412,0 -21.5,-8.954305 -21.5,-20 0,-11.045695 9.62588,-20 21.5,-20 11.87412,0 21.5,8.954305 21.5,20 z"
           sodipodi:ry="20"
           sodipodi:rx="21.5"
           sodipodi:cy="-16"
           sodipodi:cx="-157.5"
           id="path3150"
           style="color:#000000;fill:url(#linearGradient3144);fill-opacity:1;fill-rule:nonzero;stroke:none;stroke-width:2;marker:none;visibility:visible;display:inline;overflow:visible;enable-background:accumulate"
           sodipodi:type="arc" />
        <path
           transform="translate(-3.5e-6,0)"
           inkscape:connector-curvature="0"
           id="path3152"
           d="m 167.75,47.75 c -10.71725,0.33979 -83.508202,-1.80591 -86.5,16.5 0,0 -27,29.59375 13,29.59375 91,-35.5 73,95.40625 175,10.90625 l 0,-13.5 c -72.9728,9.24359 -62.76281,-44.72816 -101.5,-43.5 z M 95,114 c -10.717249,0.33979 -42.008202,9.69409 -45,28 0,0 -27,29.5625 13,29.5625 C 83,100.5625 177,225 239,169 l -1,0 C 165.0272,178.24359 133.73719,112.77184 95,114 z m -2.1875,77.96875 c -0.597028,-0.002 -1.207231,0.0121 -1.8125,0.0312 -10.717249,0.33979 -15.008202,16.69409 -18,35 0,0 5,22.5625 45,22.5625 -24,-64 49,13 111,-43 l -1,0 c -75.7701,27.80233 -97.57471,-14.43811 -135.1875,-14.5937 z"
           clip-path="url(#clipPath4057)"
           style="fill:url(#linearGradient3146);fill-opacity:1;stroke:none;display:inline;enable-background:new" />
      </g>
      <g
         transform="matrix(0.47499999,0,0,0.47499999,251.6,97.900002)"
         style="display:inline;enable-background:new"
         id="g3116"
         clip-path="url(#clipPath3138)">
        <path
           transform="matrix(3.7209302,0,0,4,730.04651,220)"
           d="m -136,-16 c 0,11.045695 -9.62588,20 -21.5,20 -11.87412,0 -21.5,-8.954305 -21.5,-20 0,-11.045695 9.62588,-20 21.5,-20 11.87412,0 21.5,8.954305 21.5,20 z"
           sodipodi:ry="20"
           sodipodi:rx="21.5"
           sodipodi:cy="-16"
           sodipodi:cx="-157.5"
           id="path3118"
           style="color:#000000;fill:url(#linearGradient3128);fill-opacity:1;fill-rule:nonzero;stroke:none;stroke-width:2;marker:none;visibility:visible;display:inline;overflow:visible;enable-background:accumulate"
           sodipodi:type="arc" />
        <path
           transform="translate(-3.5e-6,0)"
           inkscape:connector-curvature="0"
           id="path3120"
           d="m 167.75,47.75 c -10.71725,0.33979 -83.508202,-1.80591 -86.5,16.5 0,0 -27,29.59375 13,29.59375 91,-35.5 73,95.40625 175,10.90625 l 0,-13.5 c -72.9728,9.24359 -62.76281,-44.72816 -101.5,-43.5 z M 95,114 c -10.717249,0.33979 -42.008202,9.69409 -45,28 0,0 -27,29.5625 13,29.5625 C 83,100.5625 177,225 239,169 l -1,0 C 165.0272,178.24359 133.73719,112.77184 95,114 z m -2.1875,77.96875 c -0.597028,-0.002 -1.207231,0.0121 -1.8125,0.0312 -10.717249,0.33979 -15.008202,16.69409 -18,35 0,0 5,22.5625 45,22.5625 -24,-64 49,13 111,-43 l -1,0 c -75.7701,27.80233 -97.57471,-14.43811 -135.1875,-14.5937 z"
           clip-path="url(#clipPath4057)"
           style="fill:url(#linearGradient3130);fill-opacity:1;stroke:none;display:inline;enable-background:new" />
      </g>
      <g
         id="g3098"
         style="display:inline;enable-background:new"
         transform="matrix(0.68749999,0,0,0.68749999,237,-31.249998)"
         clip-path="url(#clipPath3122)">
        <path
           sodipodi:type="arc"
           style="color:#000000;fill:url(#linearGradient3110);fill-opacity:1;fill-rule:nonzero;stroke:none;stroke-width:2;marker:none;visibility:visible;display:inline;overflow:visible;enable-background:accumulate"
           id="path3100"
           sodipodi:cx="-157.5"
           sodipodi:cy="-16"
           sodipodi:rx="21.5"
           sodipodi:ry="20"
           d="m -136,-16 c 0,11.045695 -9.62588,20 -21.5,20 -11.87412,0 -21.5,-8.954305 -21.5,-20 0,-11.045695 9.62588,-20 21.5,-20 11.87412,0 21.5,8.954305 21.5,20 z"
           transform="matrix(3.7209302,0,0,4,730.04651,220)" />
        <path
           style="fill:url(#linearGradient3112);fill-opacity:1;stroke:none;display:inline;enable-background:new"
           clip-path="url(#clipPath4057)"
           d="m 167.75,47.75 c -10.71725,0.33979 -83.508202,-1.80591 -86.5,16.5 0,0 -27,29.59375 13,29.59375 91,-35.5 73,95.40625 175,10.90625 l 0,-13.5 c -72.9728,9.24359 -62.76281,-44.72816 -101.5,-43.5 z M 95,114 c -10.717249,0.33979 -42.008202,9.69409 -45,28 0,0 -27,29.5625 13,29.5625 C 83,100.5625 177,225 239,169 l -1,0 C 165.0272,178.24359 133.73719,112.77184 95,114 z m -2.1875,77.96875 c -0.597028,-0.002 -1.207231,0.0121 -1.8125,0.0312 -10.717249,0.33979 -15.008202,16.69409 -18,35 0,0 5,22.5625 45,22.5625 -24,-64 49,13 111,-43 l -1,0 c -75.7701,27.80233 -97.57471,-14.43811 -135.1875,-14.5937 z"
           id="path3102"
           inkscape:connector-curvature="0"
           transform="translate(-3.5e-6,0)" />
      </g>
      <g
         transform="matrix(1.75,0,0,1.75,-108,-115)"
         style="display:inline;enable-background:new"
         id="g3330"
         clip-path="url(#clipPath3104)">
        <path
           transform="matrix(3.7209302,0,0,4,730.04651,220)"
           d="m -136,-16 c 0,11.045695 -9.62588,20 -21.5,20 -11.87412,0 -21.5,-8.954305 -21.5,-20 0,-11.045695 9.62588,-20 21.5,-20 11.87412,0 21.5,8.954305 21.5,20 z"
           sodipodi:ry="20"
           sodipodi:rx="21.5"
           sodipodi:cy="-16"
           sodipodi:cx="-157.5"
           id="path4041"
           style="color:#000000;fill:url(#linearGradient4049);fill-opacity:1;fill-rule:nonzero;stroke:none;stroke-width:2;marker:none;visibility:visible;display:inline;overflow:visible;enable-background:accumulate"
           sodipodi:type="arc" />
        <path
           transform="translate(-3.5e-6,0)"
           inkscape:connector-curvature="0"
           id="path4053"
           d="m 167.75,47.75 c -10.71725,0.33979 -83.508202,-1.80591 -86.5,16.5 0,0 -27,29.59375 13,29.59375 91,-35.5 73,95.40625 175,10.90625 l 0,-13.5 c -72.9728,9.24359 -62.76281,-44.72816 -101.5,-43.5 z M 95,114 c -10.717249,0.33979 -42.008202,9.69409 -45,28 0,0 -27,29.5625 13,29.5625 C 83,100.5625 177,225 239,169 l -1,0 C 165.0272,178.24359 133.73719,112.77184 95,114 z m -2.1875,77.96875 c -0.597028,-0.002 -1.207231,0.0121 -1.8125,0.0312 -10.717249,0.33979 -15.008202,16.69409 -18,35 0,0 5,22.5625 45,22.5625 -24,-64 49,13 111,-43 l -1,0 c -75.7701,27.80233 -97.57471,-14.43811 -135.1875,-14.5937 z"
           clip-path="url(#clipPath4057)"
           style="fill:url(#linearGradient3357);fill-opacity:1;stroke:none;display:inline;enable-background:new" />
      </g>
    </g>
    <g
       inkscape:groupmode="layer"
       id="layer6"
       inkscape:label="Symbols"
       style="display:inline" />
    <g
       inkscape:groupmode="layer"
       id="layer5"
       inkscape:label="Highlights"
       style="display:inline"
       sodipodi:insensitive="true">
      <rect
         ry="9"
         y="307"
         x="-265"
         height="42"
         width="42"
         id="rect4884"
         style="opacity:0.20;color:#bebebe;fill:none;stroke:#000000;stroke-width:2;stroke-miterlimit:4;stroke-opacity:1;stroke-dasharray:none;marker:none;visibility:visible;display:inline;overflow:visible;enable-background:accumulate"
         transform="matrix(0,1,1,0,-16,488)"
         clip-path="url(#clipPath4891)" />
      <rect
         style="opacity:0.20;color:#bebebe;fill:none;stroke:#000000;stroke-width:2;stroke-miterlimit:4;stroke-opacity:1;stroke-dasharray:none;marker:none;visibility:visible;display:inline;overflow:visible;enable-background:accumulate"
         id="rect5311"
         width="16"
         height="16"
         x="-228"
         y="304"
         ry="3"
         clip-path="url(#clipPath3855)"
         transform="matrix(0,-1,1,0,112,-72)" />
      <rect
         ry="50"
         y="46"
         x="34"
         height="220"
         width="220"
         id="rect3858"
         style="opacity:0.20;color:#bebebe;fill:none;stroke:#000000;stroke-width:2;stroke-miterlimit:4;stroke-opacity:1;stroke-dasharray:none;marker:none;visibility:visible;display:inline;overflow:visible;enable-background:accumulate"
         clip-path="url(#clipPath3862)" />
      <rect
         ry="12.5"
         y="142"
         x="290"
         height="60"
         width="60"
         id="rect4175"
         style="opacity:0.20;color:#bebebe;fill:none;stroke:#000000;stroke-width:2;stroke-miterlimit:4;stroke-opacity:1;stroke-dasharray:none;marker:none;visibility:visible;display:inline;overflow:visible;enable-background:accumulate"
         clip-path="url(#clipPath4187)" />
      <rect
         style="opacity:0.20;color:#bebebe;fill:none;stroke:#000000;stroke-width:2;stroke-miterlimit:4;stroke-opacity:1;stroke-dasharray:none;marker:none;visibility:visible;display:inline;overflow:visible;enable-background:accumulate"
         id="rect4342"
         width="88"
         height="88"
         x="292"
         y="32"
         ry="18"
         clip-path="url(#clipPath4346)" />
      <rect
         ry="5"
         y="101"
         x="417"
         height="22"
         width="22"
         id="rect3866"
         style="opacity:0.20;color:#bebebe;fill:none;stroke:#000000;stroke-width:2;stroke-miterlimit:4;stroke-opacity:1;stroke-dasharray:none;marker:none;visibility:visible;display:inline;overflow:visible;enable-background:accumulate"
         clip-path="url(#clipPath3871)" />
      <rect
         style="opacity:0.20;color:#bebebe;fill:none;stroke:#000000;stroke-width:2;stroke-miterlimit:4;stroke-opacity:1;stroke-dasharray:none;marker:none;visibility:visible;display:inline;overflow:visible;enable-background:accumulate"
         id="rect3877"
         width="30"
         height="30"
         x="417"
         y="53"
         ry="7"
         clip-path="url(#clipPath3881)" />
    </g>
  </g>
</svg>
