<?xml version="1.0" encoding="UTF-8" standalone="no"?>
<!-- Created with Inkscape (http://www.inkscape.org/) -->

<svg
   xmlns:dc="http://purl.org/dc/elements/1.1/"
   xmlns:cc="http://creativecommons.org/ns#"
   xmlns:rdf="http://www.w3.org/1999/02/22-rdf-syntax-ns#"
   xmlns:svg="http://www.w3.org/2000/svg"
   xmlns="http://www.w3.org/2000/svg"
   xmlns:xlink="http://www.w3.org/1999/xlink"
   xmlns:sodipodi="http://sodipodi.sourceforge.net/DTD/sodipodi-0.dtd"
   xmlns:inkscape="http://www.inkscape.org/namespaces/inkscape"
   inkscape:export-ydpi="90.000000"
   inkscape:export-xdpi="90.000000"
   width="480"
   height="300"
   id="svg11300"
   sodipodi:version="0.32"
   inkscape:version="0.48.4 r9939"
   sodipodi:docname="web-icq.svg"
   inkscape:output_extension="org.inkscape.output.svg.inkscape"
   version="1.0"
   style="display:inline;enable-background:new"
   inkscape:export-filename="/home/sam/moka-next-template.png">
  <sodipodi:namedview
     stroke="#ef2929"
     fill="#f57900"
     id="base"
     pagecolor="#777777"
     bordercolor="#666666"
     borderopacity="0.25490196"
     inkscape:pageopacity="0"
     inkscape:pageshadow="2"
     inkscape:zoom="1"
     inkscape:cx="424.4653"
     inkscape:cy="225.69514"
     inkscape:current-layer="layer7"
     showgrid="false"
     inkscape:grid-bbox="true"
     inkscape:document-units="px"
     inkscape:showpageshadow="false"
     inkscape:window-width="1364"
     inkscape:window-height="700"
     inkscape:window-x="0"
     inkscape:window-y="28"
     width="400px"
     height="300px"
     inkscape:snap-nodes="true"
     inkscape:snap-bbox="true"
     gridtolerance="10000"
     inkscape:object-nodes="true"
     inkscape:snap-grids="true"
     showguides="true"
     inkscape:guide-bbox="true"
     inkscape:window-maximized="1"
     inkscape:bbox-nodes="true"
     inkscape:bbox-paths="true"
     inkscape:snap-bbox-edge-midpoints="true"
     inkscape:snap-bbox-midpoints="true">
    <inkscape:grid
       spacingy="1px"
       spacingx="1px"
       id="grid5883"
       type="xygrid"
       enabled="true"
       visible="true"
       empspacing="4"
       snapvisiblegridlinesonly="true"
       dotted="false"
       color="#000000"
       opacity="0.1254902"
       empcolor="#203ef3"
       empopacity="0.36470588" />
    <inkscape:grid
       type="xygrid"
       id="grid11592"
       empspacing="8"
       visible="true"
       enabled="false"
       spacingx="0.5px"
       spacingy="0.5px"
       color="#ff0000"
       opacity="0.1254902"
       empcolor="#ff0000"
       empopacity="0.25098039"
       snapvisiblegridlinesonly="true"
       dotted="true" />
  </sodipodi:namedview>
  <defs
     id="defs3">
    <linearGradient
       inkscape:collect="always"
       xlink:href="#outerBackgroundGradient-0"
       id="linearGradient4256"
       x1="417"
       y1="148"
       x2="431"
       y2="148"
       gradientUnits="userSpaceOnUse"
       gradientTransform="matrix(0,-1,1,0,276,572)" />
    <linearGradient
       inkscape:collect="always"
       xlink:href="#outerBackgroundGradient-0"
       id="linearGradient4260"
       x1="418"
       y1="68"
       x2="446"
       y2="68"
       gradientUnits="userSpaceOnUse"
       gradientTransform="matrix(0,-1,1,0,364,500)" />
    <linearGradient
       inkscape:collect="always"
       xlink:href="#outerBackgroundGradient-0"
       id="linearGradient4262"
       x1="292"
       y1="244"
       x2="332"
       y2="244"
       gradientUnits="userSpaceOnUse"
       gradientTransform="matrix(0,-1,1,0,68,556)" />
    <linearGradient
       inkscape:collect="always"
       xlink:href="#outerBackgroundGradient-0"
       id="linearGradient4264"
       x1="293"
       y1="76"
       x2="379"
       y2="76"
       gradientUnits="userSpaceOnUse"
       gradientTransform="matrix(0,-1,1,0,260,412)" />
    <linearGradient
       inkscape:collect="always"
       xlink:href="#outerBackgroundGradient-0"
       id="linearGradient4266"
       x1="291"
       y1="172"
       x2="349"
       y2="172"
       gradientUnits="userSpaceOnUse"
       gradientTransform="matrix(0,-1,1,0,148,492)" />
    <linearGradient
       inkscape:collect="always"
       xlink:href="#outerBackgroundGradient-0"
       id="linearGradient3870"
       gradientUnits="userSpaceOnUse"
       x1="418"
       y1="112"
       x2="438"
       y2="112"
       gradientTransform="matrix(0,-1,1,0,316,540)" />
    <linearGradient
       id="outerBackgroundGradient-48">
      <stop
         style="stop-color:#006699;stop-opacity:1;"
         offset="0"
         id="stop3864-8-6-47" />
      <stop
         style="stop-color:#3194c5;stop-opacity:1;"
         offset="1"
         id="stop3866-9-1-24" />
    </linearGradient>
    <linearGradient
       inkscape:collect="always"
       xlink:href="#outerBackgroundGradient"
       id="linearGradient3876"
       gradientUnits="userSpaceOnUse"
       gradientTransform="translate(0,-4)"
       x1="272"
       y1="288"
       x2="272"
       y2="32" />
    <linearGradient
       id="outerBackgroundGradient">
      <stop
         style="stop-color:#d10200;stop-opacity:1;"
         offset="0"
         id="stop3864-8-6" />
      <stop
         style="stop-color:#f83230;stop-opacity:1;"
         offset="1"
         id="stop3866-9-1" />
    </linearGradient>
    <linearGradient
       inkscape:collect="always"
       xlink:href="#outerBackgroundGradient-2"
       id="linearGradient3876-3"
       gradientUnits="userSpaceOnUse"
       gradientTransform="translate(0,-4)"
       x1="272"
       y1="288"
       x2="272"
       y2="32" />
    <linearGradient
       id="outerBackgroundGradient-2">
      <stop
         style="stop-color:#d12127;stop-opacity:1;"
         offset="0"
         id="stop3864-8-6-2" />
      <stop
         style="stop-color:#dc3036;stop-opacity:1;"
         offset="1"
         id="stop3866-9-1-8" />
    </linearGradient>
    <linearGradient
       inkscape:collect="always"
       xlink:href="#outerBackgroundGradient-3"
       id="linearGradient3876-4"
       gradientUnits="userSpaceOnUse"
       gradientTransform="translate(0,-4)"
       x1="272"
       y1="288"
       x2="272"
       y2="32" />
    <linearGradient
       id="outerBackgroundGradient-3">
      <stop
         style="stop-color:#423423;stop-opacity:1;"
         offset="0"
         id="stop3864-8-6-1" />
      <stop
         style="stop-color:#4a3f33;stop-opacity:1;"
         offset="1"
         id="stop3866-9-1-0" />
    </linearGradient>
    <linearGradient
       inkscape:collect="always"
       xlink:href="#outerBackgroundGradient-7"
       id="linearGradient3876-33"
       gradientUnits="userSpaceOnUse"
       gradientTransform="translate(0,-4)"
       x1="272"
       y1="288"
       x2="272"
       y2="32" />
    <linearGradient
       id="outerBackgroundGradient-7">
      <stop
         style="stop-color:#252f3d;stop-opacity:1"
         offset="0"
         id="stop3864-8-6-7" />
      <stop
         style="stop-color:#4c5767;stop-opacity:1"
         offset="1"
         id="stop3866-9-1-6" />
    </linearGradient>
    <linearGradient
       inkscape:collect="always"
       xlink:href="#outerBackgroundGradient-6"
       id="linearGradient3876-8"
       gradientUnits="userSpaceOnUse"
       gradientTransform="translate(0,-4)"
       x1="272"
       y1="288"
       x2="272"
       y2="32" />
    <linearGradient
       id="outerBackgroundGradient-6">
      <stop
         style="stop-color:#00a5f7;stop-opacity:1;"
         offset="0"
         id="stop3864-8-6-22" />
      <stop
         style="stop-color:#00bffa;stop-opacity:1;"
         offset="1"
         id="stop3866-9-1-82" />
    </linearGradient>
    <linearGradient
       inkscape:collect="always"
       xlink:href="#outerBackgroundGradient-68"
       id="linearGradient3876-6"
       gradientUnits="userSpaceOnUse"
       gradientTransform="translate(0,-4)"
       x1="272"
       y1="288"
       x2="272"
       y2="32" />
    <linearGradient
       id="outerBackgroundGradient-68">
      <stop
         style="stop-color:#58923a;stop-opacity:1"
         offset="0"
         id="stop3864-8-6-10" />
      <stop
         style="stop-color:#81df44;stop-opacity:1"
         offset="1"
         id="stop3866-9-1-1" />
    </linearGradient>
    <linearGradient
       inkscape:collect="always"
       xlink:href="#outerBackgroundGradient-31"
       id="linearGradient3876-5"
       gradientUnits="userSpaceOnUse"
       gradientTransform="translate(0,-4)"
       x1="272"
       y1="288"
       x2="272"
       y2="32" />
    <linearGradient
       id="outerBackgroundGradient-31">
      <stop
         style="stop-color:#7d0100;stop-opacity:1"
         offset="0"
         id="stop3864-8-6-4" />
      <stop
         style="stop-color:#ac3130;stop-opacity:1"
         offset="1"
         id="stop3866-9-1-3" />
    </linearGradient>
    <linearGradient
       y2="32"
       x2="272"
       y1="288"
       x1="272"
       gradientTransform="translate(0,-4)"
       gradientUnits="userSpaceOnUse"
       id="linearGradient6237"
       xlink:href="#outerBackgroundGradient-31"
       inkscape:collect="always" />
    <linearGradient
       inkscape:collect="always"
       xlink:href="#outerBackgroundGradient-5"
       id="linearGradient3876-9"
       gradientUnits="userSpaceOnUse"
       gradientTransform="translate(0,-4)"
       x1="272"
       y1="288"
       x2="272"
       y2="32" />
    <linearGradient
       id="outerBackgroundGradient-5">
      <stop
         style="stop-color:#62b732;stop-opacity:1"
         offset="0"
         id="stop3864-8-6-74" />
      <stop
         style="stop-color:#87e651;stop-opacity:1"
         offset="1"
         id="stop3866-9-1-80" />
    </linearGradient>
    <linearGradient
       inkscape:collect="always"
       xlink:href="#outerBackgroundGradient-0"
       id="linearGradient7128"
       gradientUnits="userSpaceOnUse"
       gradientTransform="matrix(0,-1,1,0,-12,300)"
       x1="35"
       y1="156"
       x2="253"
       y2="156" />
    <linearGradient
       inkscape:collect="always"
       xlink:href="#outerBackgroundGradient-0"
       id="linearGradient3876-7"
       gradientUnits="userSpaceOnUse"
       gradientTransform="translate(0,-4)"
       x1="272"
       y1="288"
       x2="272"
       y2="32" />
    <linearGradient
       id="outerBackgroundGradient-0">
      <stop
         style="stop-color:#65ad45;stop-opacity:1"
         offset="0"
         id="stop3864-8-6-8" />
      <stop
         style="stop-color:#a3cc39;stop-opacity:1"
         offset="1"
         id="stop3866-9-1-9" />
    </linearGradient>
    <linearGradient
       y2="32"
       x2="272"
       y1="288"
       x1="272"
       gradientTransform="translate(0,-4)"
       gradientUnits="userSpaceOnUse"
       id="linearGradient6341"
       xlink:href="#outerBackgroundGradient-0"
       inkscape:collect="always" />
  </defs>
  <metadata
     id="metadata4">
    <rdf:RDF>
      <cc:Work
         rdf:about="">
        <dc:format>image/svg+xml</dc:format>
        <dc:type
           rdf:resource="http://purl.org/dc/dcmitype/StillImage" />
        <dc:creator>
          <cc:Agent>
            <dc:title>Sam Hewitt</dc:title>
          </cc:Agent>
        </dc:creator>
        <dc:source />
        <cc:license
           rdf:resource="" />
        <dc:title></dc:title>
        <dc:subject>
          <rdf:Bag />
        </dc:subject>
        <dc:date />
        <dc:rights>
          <cc:Agent>
            <dc:title />
          </cc:Agent>
        </dc:rights>
        <dc:publisher>
          <cc:Agent>
            <dc:title />
          </cc:Agent>
        </dc:publisher>
        <dc:identifier />
        <dc:relation />
        <dc:language />
        <dc:coverage />
        <dc:description />
        <dc:contributor>
          <cc:Agent>
            <dc:title />
          </cc:Agent>
        </dc:contributor>
      </cc:Work>
      <cc:Work
         rdf:about="">
        <dc:format>image/svg+xml</dc:format>
        <dc:type
           rdf:resource="http://purl.org/dc/dcmitype/StillImage" />
      </cc:Work>
    </rdf:RDF>
  </metadata>
  <g
     style="display:inline"
     inkscape:groupmode="layer"
     inkscape:label="Icon"
     id="layer1">
    <g
       style="display:none"
       inkscape:label="Baseplate"
       id="layer7"
       inkscape:groupmode="layer">
      <text
         y="19.745117"
         xml:space="preserve"
         x="15.006836"
         style="font-size:18px;font-style:normal;font-variant:normal;font-weight:normal;font-stretch:normal;fill:#000000;fill-opacity:1;stroke:none;display:inline;enable-background:new;font-family:DejaVu Sans;-inkscape-font-specification:DejaVu Sans"
         inkscape:label="context"
         id="context"><tspan
           style="font-style:normal;font-variant:normal;font-weight:normal;font-stretch:normal;font-family:DejaVu Sans;-inkscape-font-specification:DejaVu Sans"
           y="19.745117"
           x="15.006836"
           sodipodi:role="line"
           id="tspan3933">web</tspan></text>
      <text
         y="19.745117"
         xml:space="preserve"
         x="122.48828"
         style="font-size:18px;font-style:normal;font-variant:normal;font-weight:bold;font-stretch:normal;text-align:start;line-height:125%;writing-mode:lr-tb;text-anchor:start;fill:#000000;fill-opacity:1;stroke:none;display:inline;enable-background:new;font-family:DejaVu Sans;-inkscape-font-specification:DejaVu Sans Bold"
         sodipodi:linespacing="125%"
         inkscape:label="icon-name"
         id="icon-name"><tspan
           style="font-size:18px;font-style:normal;font-variant:normal;font-weight:bold;font-stretch:normal;opacity:0.98999999;font-family:DejaVu Sans;-inkscape-font-specification:DejaVu Sans Bold"
           y="19.745117"
           x="122.48828"
           sodipodi:role="line"
           id="tspan3937">web-hulu</tspan></text>
      <rect
         style="fill:#eeeeec;fill-opacity:1;fill-rule:nonzero;stroke:none;stroke-width:2;marker:none;visibility:visible;display:inline;overflow:visible;enable-background:accumulate"
         id="rect16x16"
         width="16"
         height="16"
         x="416"
         y="140"
         inkscape:label="16x16" />
      <rect
         style="fill:#d4d4d4;fill-opacity:1;fill-rule:nonzero;stroke:none;stroke-width:2;marker:none;visibility:visible;display:inline;overflow:visible;enable-background:accumulate"
         id="rect24x24"
         width="24"
         height="24"
         x="416"
         y="100"
         inkscape:label="24x24" />
      <rect
         style="fill:#eeeeec;fill-opacity:1;fill-rule:nonzero;stroke:none;stroke-width:2;marker:none;visibility:visible;display:inline;overflow:visible;enable-background:accumulate"
         id="rect32x32"
         width="32"
         height="32"
         x="416"
         y="52"
         inkscape:label="32x32" />
      <rect
         inkscape:label="22x22"
         y="101"
         x="417"
         height="22"
         width="22"
         id="rect22x22"
         style="fill:#eeeeec;fill-opacity:1;fill-rule:nonzero;stroke:none;stroke-width:2;marker:none;visibility:visible;display:inline;overflow:visible;enable-background:accumulate" />
      <rect
         inkscape:label="48x48"
         y="220"
         x="288"
         height="48"
         width="48"
         id="rect48x48"
         style="fill:#eeeeec;fill-opacity:1;fill-rule:nonzero;stroke:none;stroke-width:2;marker:none;visibility:visible;display:inline;overflow:visible;enable-background:accumulate" />
      <rect
         style="fill:#eeeeec;fill-opacity:1;fill-rule:nonzero;stroke:none;stroke-width:2;marker:none;visibility:visible;display:inline;overflow:visible;enable-background:accumulate"
         id="rect256x256"
         width="256"
         height="256"
         x="16"
         y="28"
         inkscape:label="256x256" />
      <rect
         style="fill:#eeeeec;fill-opacity:1;fill-rule:nonzero;stroke:none;stroke-width:2;marker:none;visibility:visible;display:inline;overflow:visible;enable-background:accumulate"
         id="rect64x64"
         width="64"
         height="64"
         x="288"
         y="140"
         inkscape:label="64x64" />
      <rect
         style="fill:#eeeeec;fill-opacity:1;fill-rule:nonzero;stroke:none;stroke-width:2;marker:none;visibility:visible;display:inline;overflow:visible;enable-background:accumulate"
         id="rect96x96"
         width="96"
         height="96"
         x="288"
         y="28"
         inkscape:label="96x96" />
    </g>
    <g
       inkscape:groupmode="layer"
       id="layer4"
       inkscape:label="Shadow"
       style="display:inline"
       sodipodi:insensitive="true">
      <rect
         ry="50"
         y="47"
         x="34"
         height="220"
         width="220"
         id="rect4114"
         style="opacity:0.1;color:#bebebe;fill:#000000;fill-opacity:1;fill-rule:nonzero;stroke:none;stroke-width:0;marker:none;visibility:visible;display:inline;overflow:visible;enable-background:accumulate" />
      <rect
         style="opacity:0.1;color:#bebebe;fill:#000000;fill-opacity:1;fill-rule:nonzero;stroke:none;stroke-width:0;marker:none;visibility:visible;display:inline;overflow:visible;enable-background:accumulate"
         id="rect4120"
         width="30"
         height="30"
         x="417"
         y="54"
         ry="7" />
      <rect
         transform="scale(1,-1)"
         ry="9"
         y="-266"
         x="291"
         height="42"
         width="42"
         id="rect4122"
         style="opacity:0.1;color:#bebebe;fill:#000000;fill-opacity:1;fill-rule:nonzero;stroke:none;stroke-width:0;marker:none;visibility:visible;display:inline;overflow:visible;enable-background:accumulate" />
      <rect
         style="opacity:0.1;color:#bebebe;fill:#000000;fill-opacity:1;fill-rule:nonzero;stroke:none;stroke-width:0;marker:none;visibility:visible;display:inline;overflow:visible;enable-background:accumulate"
         id="rect4124"
         width="88"
         height="88"
         x="292"
         y="33"
         ry="18" />
      <rect
         ry="12.5"
         y="143"
         x="290"
         height="60"
         width="60"
         id="rect4126"
         style="opacity:0.1;color:#bebebe;fill:#000000;fill-opacity:1;fill-rule:nonzero;stroke:none;stroke-width:0;marker:none;visibility:visible;display:inline;overflow:visible;enable-background:accumulate" />
      <path
         id="path4268"
         d="m 422,101 c -2.77,0 -5,2.23 -5,5 l 0,12 c 0,2.77 2.23,5 5,5 l 12,0 c 2.77,0 5,-2.23 5,-5 l 0,-12 c 0,-2.77 -2.23,-5 -5,-5 z"
         style="opacity:0.1;color:#bebebe;fill:#000000;fill-opacity:1;fill-rule:nonzero;stroke:none;stroke-width:0;marker:none;visibility:visible;display:inline;overflow:visible;enable-background:accumulate"
         inkscape:connector-curvature="0"
         sodipodi:nodetypes="sssssssss" />
      <path
         id="path4270"
         d="m 419,140 c -1.662,0 -3,1.338 -3,3 l 0,10 c 0,1.662 1.338,3 3,3 l 10,0 c 1.662,0 3,-1.338 3,-3 l 0,-10 c 0,-1.662 -1.338,-3 -3,-3 z"
         style="opacity:0.1;color:#bebebe;fill:#000000;fill-opacity:1;fill-rule:nonzero;stroke:none;stroke-width:0;marker:none;visibility:visible;display:inline;overflow:visible;enable-background:accumulate"
         inkscape:connector-curvature="0"
         sodipodi:nodetypes="sssssssss" />
    </g>
    <g
       inkscape:groupmode="layer"
       id="layer2"
       inkscape:label="Background"
       style="display:inline">
      <path
         style="color:#bebebe;fill:url(#linearGradient7128);fill-opacity:1.0;fill-rule:nonzero;stroke:none;stroke-width:2;marker:none;visibility:visible;display:inline;overflow:visible;enable-background:accumulate"
         d="M 84,46.5 C 56.56874,46.5 34.5,68.56873 34.5,96 l 0,120 c 0,27.43127 22.06874,49.5 49.5,49.5 l 120,0 c 27.43127,0 49.5,-22.06873 49.5,-49.5 l 0,-120 C 253.5,68.56873 231.43127,46.5 204,46.5 l -120,0 z"
         id="path4200"
         inkscape:connector-curvature="0" />
      <path
         style="color:#bebebe;fill:url(#linearGradient4256);fill-opacity:1.0;fill-rule:nonzero;stroke:none;stroke-width:2;marker:none;visibility:visible;display:inline;overflow:visible;enable-background:accumulate"
         d="m 419,140.5 c -1.3844,0 -2.5,1.1156 -2.5,2.5 l 0,10 c 0,1.3844 1.1156,2.5 2.5,2.5 l 10,0 c 1.3844,0 2.5,-1.1156 2.5,-2.5 l 0,-10 c 0,-1.3844 -1.1156,-2.5 -2.5,-2.5 l -10,0 z"
         id="path4202"
         inkscape:connector-curvature="0" />
      <path
         style="color:#bebebe;fill:url(#linearGradient3870);fill-opacity:1.0;fill-rule:nonzero;stroke:none;stroke-width:2;marker:none;visibility:visible;display:inline;overflow:visible;enable-background:accumulate"
         d="m 422,101.5 c -2.49699,0 -4.5,2.00301 -4.5,4.5 l 0,12 c 0,2.49699 2.00301,4.5 4.5,4.5 l 12,0 c 2.49699,0 4.5,-2.00301 4.5,-4.5 l 0,-12 c 0,-2.49699 -2.00301,-4.5 -4.5,-4.5 l -12,0 z"
         id="path4204"
         inkscape:connector-curvature="0" />
      <path
         style="color:#bebebe;fill:url(#linearGradient4260);fill-opacity:1.0;fill-rule:nonzero;stroke:none;stroke-width:2;marker:none;visibility:visible;display:inline;overflow:visible;enable-background:accumulate"
         d="m 424,53.5 c -3.60654,0 -6.5,2.89346 -6.5,6.5 l 0,16 c 0,3.60654 2.89346,6.5 6.5,6.5 l 16,0 c 3.60654,0 6.5,-2.89346 6.5,-6.5 l 0,-16 c 0,-3.60654 -2.89346,-6.5 -6.5,-6.5 l -16,0 z"
         id="path4206"
         inkscape:connector-curvature="0" />
      <path
         style="color:#bebebe;fill:url(#linearGradient4262);fill-opacity:1.0;fill-rule:nonzero;stroke:none;stroke-width:2;marker:none;visibility:visible;display:inline;overflow:visible;enable-background:accumulate"
         d="m 300,223.5 c -4.71531,0 -8.5,3.78469 -8.5,8.5 l 0,24 c 0,4.71531 3.78469,8.5 8.5,8.5 l 24,0 c 4.71531,0 8.5,-3.78469 8.5,-8.5 l 0,-24 c 0,-4.71531 -3.78469,-8.5 -8.5,-8.5 l -24,0 z"
         id="path4208"
         inkscape:connector-curvature="0" />
      <path
         style="color:#bebebe;fill:url(#linearGradient4264);fill-opacity:1.0;fill-rule:nonzero;stroke:none;stroke-width:2;marker:none;visibility:visible;display:inline;overflow:visible;enable-background:accumulate"
         d="m 310,32.5 c -9.70255,0 -17.5,7.79745 -17.5,17.5 l 0,52 c 0,9.70255 7.79745,17.5 17.5,17.5 l 52,0 c 9.70255,0 17.5,-7.79745 17.5,-17.5 l 0,-52 c 0,-9.70255 -7.79745,-17.5 -17.5,-17.5 l -52,0 z"
         id="path4210"
         inkscape:connector-curvature="0" />
      <path
         style="color:#bebebe;fill:url(#linearGradient4266);fill-opacity:1.0;fill-rule:nonzero;stroke:none;stroke-width:2;marker:none;visibility:visible;display:inline;overflow:visible;enable-background:accumulate"
         d="m 302.5,142.5 c -6.65502,0 -12,5.34498 -12,12 l 0,35 c 0,6.65502 5.34498,12 12,12 l 35,0 c 6.65502,0 12,-5.34498 12,-12 l 0,-35 c 0,-6.65502 -5.34498,-12 -12,-12 l -35,0 z"
         id="path4212"
         inkscape:connector-curvature="0" />
    </g>
    <g
       inkscape:groupmode="layer"
       id="layer6"
       inkscape:label="Symbols"
       style="display:inline">
      <path
         sodipodi:nodetypes="ccccsssccccscccccccc"
         inkscape:connector-curvature="0"
         id="path3127"
         d="m 318,52 0,50 12.00781,0 0,-20.22461 c 0.0704,-0.84326 0.35245,-1.68605 0.98438,-2.24805 0.63193,-0.562 1.33329,-0.91211 2.3164,-0.91211 l 6.45508,0 c 0.84223,0 1.61417,0.35269 2.2461,0.91211 0.63192,0.562 0.91197,1.40479 0.98242,2.24805 l 0,20.22461 12.00781,0 0,-21.76953 c 0,-3.0203 -0.67326,-5.10369 -1.86719,-7 -1.26283,-1.82585 -2.87739,-3.15921 -4.91406,-4.00195 -2.10711,-0.91267 -4.4249,-1.33555 -6.95313,-1.26563 l -7.22656,0 -3.01953,0.35352 c -0.70237,0.2103 -1.05273,0.34961 -1.05273,0.34961 L 330.00781,52 z"
         style="opacity:0.2;fill:#000000;fill-opacity:1;display:inline;enable-background:new" />
      <path
         style="opacity:0.2;fill:#000000;fill-opacity:1;display:inline;enable-background:new"
         d="m 303,233 0,25 6.00391,0 0,-10.11231 c 0.0352,-0.42162 0.17622,-0.84302 0.49218,-1.12402 0.31597,-0.281 0.66665,-0.45606 1.1582,-0.45606 l 3.73146,0 c 0.42111,0 0.80708,0.17635 1.12304,0.45606 0.31596,0.281 0.45599,0.7024 0.49121,1.12402 L 316,258 l 6.00391,0 0,-10.88477 c 0,-1.51015 -0.33663,-2.55184 -0.93359,-3.5 -0.63142,-0.91292 -1.4387,-1.5796 -2.45704,-2.00097 -1.05355,-0.45634 -2.21245,-0.66778 -3.47656,-0.63282 l -4.11719,0 -1.50976,0.17676 c -0.35119,0.10515 -0.52637,0.17481 -0.52637,0.17481 L 309.0039,233 z"
         id="path3129"
         inkscape:connector-curvature="0"
         sodipodi:nodetypes="ccccsssccccscccccccc" />
      <path
         sodipodi:nodetypes="ccccsssccccscccccccc"
         inkscape:connector-curvature="0"
         id="path3131"
         d="M 424,107.00001 424,119 l 2.99985,-6e-5 0,-4.85391 c 0.0169,-0.20238 0.0846,-0.40465 0.23624,-0.53953 0.15167,-0.13488 0.32,-0.21892 0.55594,-0.21891 l 1.43313,6e-5 c 0.20213,1e-5 0.3874,0.0846 0.53906,0.21891 0.15166,0.13488 0.21887,0.33715 0.23578,0.53953 l 0,4.85391 3,0 0,-5.22469 c 0,-0.72487 -0.16159,-1.22488 -0.44813,-1.68 -0.30308,-0.4382 -0.69057,-0.75821 -1.17938,-0.96047 -0.5057,-0.21904 -1.18009,-0.32053 -1.78686,-0.30375 l -1.61829,-6e-5 -0.72468,0.0849 c -0.16857,0.0505 -0.25266,0.0839 -0.25266,0.0839 L 427,107 z"
         style="opacity:0.2;fill:#000000;fill-opacity:1;display:inline;enable-background:new" />
      <path
         style="opacity:0.2;fill:#000000;fill-opacity:1;display:inline;enable-background:new"
         d="M 307,155.00003 307,191 l 8.99955,-1.8e-4 0,-14.56173 c 0.0507,-0.60714 0.2538,-1.21395 0.70872,-1.61859 0.45501,-0.40464 0.96,-0.65676 1.66782,-0.65673 l 4.29939,1.8e-4 c 0.60639,3e-5 1.1622,0.2538 1.61718,0.65673 0.45498,0.40464 0.65661,1.01145 0.70734,1.61859 L 325,191 l 9,0 0,-15.67407 c 0,-2.17461 -0.48477,-3.67464 -1.34439,-5.04 -0.90924,-1.3146 -2.07171,-2.27463 -3.53814,-2.88141 -1.5171,-0.65712 -3.54027,-0.96159 -5.36058,-0.91125 l -4.85487,-1.8e-4 -2.17404,0.2547 c -0.50571,0.1515 -0.75798,0.2517 -0.75798,0.2517 L 316,155 z"
         id="path3133"
         inkscape:connector-curvature="0"
         sodipodi:nodetypes="ccccsssccccscccccccc" />
      <path
         sodipodi:nodetypes="ccccsssccccscccccccc"
         inkscape:connector-curvature="0"
         id="path3135"
         d="M 90,85.00012 90,229 l 35.9982,-7.2e-4 0,-58.24692 c 0.2028,-2.42856 1.0152,-4.8558 2.83488,-6.47436 1.82004,-1.61856 3.84,-2.62704 6.67128,-2.62692 l 17.19756,7.2e-4 c 2.42556,1.2e-4 4.6488,1.0152 6.46872,2.62692 1.81992,1.61856 2.62644,4.0458 2.82936,6.47436 L 162,229 l 36,0 0,-62.69628 c 0,-8.69844 -1.93908,-14.69856 -5.37756,-20.16 -3.63696,-5.2584 -8.28684,-9.09852 -14.15256,-11.52564 -6.0684,-2.62848 -14.16108,-3.84636 -21.44232,-3.645 l -19.41948,-7.2e-4 -8.69616,1.0188 c -2.02284,0.606 -3.03192,1.0068 -3.03192,1.0068 L 126,85 z"
         style="opacity:0.2;fill:#000000;fill-opacity:1;display:inline;enable-background:new" />
      <path
         style="opacity:0.2;fill:#000000;fill-opacity:1;display:inline;enable-background:new"
         d="m 426,60 0,18 4,0 0,-7.28086 c 0.0254,-0.303573 0.12688,-0.606978 0.35438,-0.809298 0.22749,-0.20232 0.47998,-0.328359 0.83391,-0.328359 l 2.32382,0 c 0.3032,0 0.90673,0.126968 1.13422,0.328359 0.22749,0.20232 0.32831,0.505725 0.35367,0.809298 L 435,78 l 4,0 0,-7.837031 c 0,-1.087308 -0.24237,-1.837328 -0.67219,-2.52 -0.45462,-0.657306 -1.03586,-1.137315 -1.76906,-1.440702 -0.75856,-0.328561 -1.27015,-0.480798 -2.18032,-0.455627 l -2.92718,0 -1.08703,0.127268 c -0.25286,0.07571 -0.37898,0.125859 -0.37898,0.125859 L 430,60 z"
         id="path3137"
         inkscape:connector-curvature="0"
         sodipodi:nodetypes="ccccsssccccscccccccc" />
      <path
         sodipodi:nodetypes="ccccsssccccscccccccc"
         inkscape:connector-curvature="0"
         id="path3139"
         d="m 421,145 0,9 2,0 0,-3.64043 c 0.0127,-0.15179 0.0634,-0.30349 0.17719,-0.40465 0.11374,-0.10116 0.23999,-0.16418 0.41696,-0.16418 l 1.1619,0 c 0.1516,0 0.45337,0.0635 0.56712,0.16418 0.11374,0.10116 0.16415,0.25286 0.17683,0.40465 l 0,3.64043 2,0 0,-3.91852 c 0,-0.54365 -0.12118,-0.91866 -0.3361,-1.26 -0.22731,-0.32865 -0.51792,-0.56865 -0.88453,-0.72035 -0.37928,-0.16428 -0.63507,-0.2404 -1.09016,-0.22781 l -1.46359,0 -0.54351,0.0636 c -0.12643,0.0378 -0.18949,0.0629 -0.18949,0.0629 L 423,145 z"
         style="opacity:0.2;fill:#000000;fill-opacity:1;display:inline;enable-background:new" />
      <path
         style="fill:#ffffff;fill-opacity:1;display:inline;enable-background:new"
         d="m 318,51 0,50 12.00781,0 0,-20.22461 c 0.0704,-0.84326 0.35245,-1.68605 0.98438,-2.24805 0.63193,-0.562 1.33329,-0.91211 2.3164,-0.91211 l 6.45508,0 c 0.84223,0 1.61417,0.35269 2.2461,0.91211 0.63192,0.562 0.91197,1.40479 0.98242,2.24805 l 0,20.22461 12.00781,0 0,-21.76953 c 0,-3.0203 -0.67326,-5.10369 -1.86719,-7 -1.26283,-1.82585 -2.87739,-3.15921 -4.91406,-4.00195 -2.10711,-0.91267 -4.4249,-1.33555 -6.95313,-1.26563 l -7.22656,0 -3.01953,0.35352 c -0.70237,0.2103 -1.05273,0.34961 -1.05273,0.34961 L 330.00781,51 z"
         id="path10"
         inkscape:connector-curvature="0"
         sodipodi:nodetypes="ccccsssccccscccccccc" />
      <path
         sodipodi:nodetypes="ccccsssccccscccccccc"
         inkscape:connector-curvature="0"
         id="path3072"
         d="m 303,232 0,25 6.00391,0 0,-10.11231 c 0.0352,-0.42162 0.17622,-0.84302 0.49218,-1.12402 0.31597,-0.281 0.66665,-0.45606 1.1582,-0.45606 l 3.73146,0 c 0.42111,0 0.80708,0.17635 1.12304,0.45606 0.31596,0.281 0.45599,0.7024 0.49121,1.12402 L 316,257 l 6.00391,0 0,-10.88477 c 0,-1.51015 -0.33663,-2.55184 -0.93359,-3.5 -0.63142,-0.91292 -1.4387,-1.5796 -2.45704,-2.00097 -1.05355,-0.45634 -2.21245,-0.66778 -3.47656,-0.63282 l -4.11719,0 -1.50976,0.17676 c -0.35119,0.10515 -0.52637,0.17481 -0.52637,0.17481 L 309.0039,232 z"
         style="fill:#ffffff;fill-opacity:1;display:inline;enable-background:new" />
      <path
         style="fill:#ffffff;fill-opacity:1;display:inline;enable-background:new"
         d="M 424,106.00001 424,118 l 2.99985,-6e-5 0,-4.85391 c 0.0169,-0.20238 0.0846,-0.40465 0.23624,-0.53953 0.15167,-0.13488 0.32,-0.21892 0.55594,-0.21891 l 1.43313,6e-5 c 0.20213,1e-5 0.3874,0.0846 0.53906,0.21891 0.15166,0.13488 0.21887,0.33715 0.23578,0.53953 l 0,4.85391 3,0 0,-5.22469 c 0,-0.72487 -0.16159,-1.22488 -0.44813,-1.68 -0.30308,-0.4382 -0.69057,-0.75821 -1.17938,-0.96047 -0.5057,-0.21904 -1.18009,-0.32053 -1.78686,-0.30375 l -1.61829,-6e-5 -0.72468,0.0849 c -0.16857,0.0505 -0.25266,0.0839 -0.25266,0.0839 L 427,106 z"
         id="path3074"
         inkscape:connector-curvature="0"
         sodipodi:nodetypes="ccccsssccccscccccccc" />
      <path
         sodipodi:nodetypes="ccccsssccccscccccccc"
         inkscape:connector-curvature="0"
         id="path3094"
         d="M 307,154.00003 307,190 l 8.99955,-1.8e-4 0,-14.56173 c 0.0507,-0.60714 0.2538,-1.21395 0.70872,-1.61859 0.45501,-0.40464 0.96,-0.65676 1.66782,-0.65673 l 4.29939,1.8e-4 c 0.60639,3e-5 1.1622,0.2538 1.61718,0.65673 0.45498,0.40464 0.65661,1.01145 0.70734,1.61859 L 325,190 l 9,0 0,-15.67407 c 0,-2.17461 -0.48477,-3.67464 -1.34439,-5.04 -0.90924,-1.3146 -2.07171,-2.27463 -3.53814,-2.88141 -1.5171,-0.65712 -3.54027,-0.96159 -5.36058,-0.91125 l -4.85487,-1.8e-4 -2.17404,0.2547 c -0.50571,0.1515 -0.75798,0.2517 -0.75798,0.2517 L 316,154 z"
         style="fill:#ffffff;fill-opacity:1;display:inline;enable-background:new" />
      <path
         style="fill:#ffffff;fill-opacity:1;display:inline;enable-background:new"
         d="M 90,84.00012 90,228 l 35.9982,-7.2e-4 0,-58.24692 c 0.2028,-2.42856 1.0152,-4.8558 2.83488,-6.47436 1.82004,-1.61856 3.84,-2.62704 6.67128,-2.62692 l 17.19756,7.2e-4 c 2.42556,1.2e-4 4.6488,1.0152 6.46872,2.62692 1.81992,1.61856 2.62644,4.0458 2.82936,6.47436 L 162,228 l 36,0 0,-62.69628 c 0,-8.69844 -1.93908,-14.69856 -5.37756,-20.16 -3.63696,-5.2584 -8.28684,-9.09852 -14.15256,-11.52564 -6.0684,-2.62848 -14.16108,-3.84636 -21.44232,-3.645 l -19.41948,-7.2e-4 -8.69616,1.0188 c -2.02284,0.606 -3.03192,1.0068 -3.03192,1.0068 L 126,84 z"
         id="path3096"
         inkscape:connector-curvature="0"
         sodipodi:nodetypes="ccccsssccccscccccccc" />
      <path
         sodipodi:nodetypes="ccccsssccccscccccccc"
         inkscape:connector-curvature="0"
         id="path3098"
         d="m 426,59 0,18 4,0 0,-7.28086 c 0.0254,-0.303573 0.12688,-0.606978 0.35438,-0.809298 0.22749,-0.20232 0.47998,-0.328359 0.83391,-0.328359 l 2.32382,0 c 0.3032,0 0.90673,0.126968 1.13422,0.328359 0.22749,0.20232 0.32831,0.505725 0.35367,0.809298 L 435,77 l 4,0 0,-7.837031 c 0,-1.087308 -0.24237,-1.837328 -0.67219,-2.52 -0.45462,-0.657306 -1.03586,-1.137315 -1.76906,-1.440702 -0.75856,-0.328561 -1.27015,-0.480798 -2.18032,-0.455627 l -2.92718,0 -1.08703,0.127268 c -0.25286,0.07571 -0.37898,0.125859 -0.37898,0.125859 L 430,59 z"
         style="fill:#ffffff;fill-opacity:1;display:inline;enable-background:new" />
      <path
         style="fill:#ffffff;fill-opacity:1;display:inline;enable-background:new"
         d="m 421,144 0,9 2,0 0,-3.64043 c 0.0127,-0.15179 0.0634,-0.30349 0.17719,-0.40465 0.11374,-0.10116 0.23999,-0.16418 0.41696,-0.16418 l 1.1619,0 c 0.1516,0 0.45337,0.0635 0.56712,0.16418 0.11374,0.10116 0.16415,0.25286 0.17683,0.40465 l 0,3.64043 2,0 0,-3.91852 c 0,-0.54365 -0.12118,-0.91866 -0.3361,-1.26 -0.22731,-0.32865 -0.51792,-0.56865 -0.88453,-0.72035 -0.37928,-0.16428 -0.63507,-0.2404 -1.09016,-0.22781 l -1.46359,0 -0.54351,0.0636 c -0.12643,0.0378 -0.18949,0.0629 -0.18949,0.0629 L 423,144 z"
         id="path3100"
         inkscape:connector-curvature="0"
         sodipodi:nodetypes="ccccsssccccscccccccc" />
    </g>
    <g
       inkscape:groupmode="layer"
       id="layer5"
       inkscape:label="Highlights"
       style="display:inline"
       sodipodi:insensitive="true">
      <path
         style="opacity:0.12999998;color:#bebebe;fill:#ffffff;fill-opacity:1;fill-rule:nonzero;stroke:none;stroke-width:0;marker:none;visibility:visible;display:inline;overflow:visible;enable-background:accumulate"
         d="M 84,47 C 56.836703,47 35,68.836703 35,96 l 0,1 C 35,69.836703 56.836703,48 84,48 l 120,0 c 27.1633,0 49,21.836703 49,49 l 0,-1 C 253,68.836703 231.1633,47 204,47 L 84,47 z"
         id="rect3894"
         inkscape:connector-curvature="0" />
      <path
         style="opacity:0.12999998;color:#bebebe;fill:#ffffff;fill-opacity:1;fill-rule:nonzero;stroke:none;stroke-width:0;marker:none;visibility:visible;display:inline;overflow:visible;enable-background:accumulate"
         d="m 419,141 c -1.1253,0 -2,0.8747 -2,2 l 0,1 c 0,-1.1253 0.8747,-2 2,-2 l 10,0 c 1.1253,0 2,0.8747 2,2 l 0,-1 c 0,-1.1253 -0.8747,-2 -2,-2 l -10,0 z"
         id="rect3896"
         inkscape:connector-curvature="0" />
      <path
         style="opacity:0.12999998;color:#bebebe;fill:#ffffff;fill-opacity:1;fill-rule:nonzero;stroke:none;stroke-width:0;marker:none;visibility:visible;display:inline;overflow:visible;enable-background:accumulate"
         d="m 422,102 c -2.2333,0 -4,1.7667 -4,4 l 0,1 c 0,-2.2333 1.7667,-4 4,-4 l 12,0 c 2.2333,0 4,1.7667 4,4 l 0,-1 c 0,-2.2333 -1.7667,-4 -4,-4 l -12,0 z"
         id="rect3898"
         inkscape:connector-curvature="0" />
      <path
         style="opacity:0.12999998;color:#bebebe;fill:#ffffff;fill-opacity:1;fill-rule:nonzero;stroke:none;stroke-width:0;marker:none;visibility:visible;display:inline;overflow:visible;enable-background:accumulate"
         d="m 424,54 c -3.3413,0 -6,2.658703 -6,6 l 0,1 c 0,-3.341297 2.6587,-6 6,-6 l 16,0 c 3.3413,0 6,2.658703 6,6 l 0,-1 c 0,-3.341297 -2.6587,-6 -6,-6 l -16,0 z"
         id="rect3900"
         inkscape:connector-curvature="0" />
      <path
         style="opacity:0.12999998;color:#bebebe;fill:#ffffff;fill-opacity:1;fill-rule:nonzero;stroke:none;stroke-width:0;marker:none;visibility:visible;display:inline;overflow:visible;enable-background:accumulate"
         d="m 300,224 c -4.4493,0 -8,3.5507 -8,8 l 0,1 c 0,-4.4493 3.5507,-8 8,-8 l 24,0 c 4.4493,0 8,3.5507 8,8 l 0,-1 c 0,-4.4493 -3.5507,-8 -8,-8 l -24,0 z"
         id="rect3902"
         inkscape:connector-curvature="0" />
      <path
         style="opacity:0.12999998;color:#bebebe;fill:#ffffff;fill-opacity:1;fill-rule:nonzero;stroke:none;stroke-width:0;marker:none;visibility:visible;display:inline;overflow:visible;enable-background:accumulate"
         d="m 310,33 c -9.4353,0 -17,7.564703 -17,17 l 0,1 c 0,-9.435297 7.5647,-17 17,-17 l 52,0 c 9.4353,0 17,7.564703 17,17 l 0,-1 c 0,-9.435297 -7.5647,-17 -17,-17 l -52,0 z"
         id="rect3904"
         inkscape:connector-curvature="0" />
      <path
         style="opacity:0.12999998;color:#bebebe;fill:#ffffff;fill-opacity:1;fill-rule:nonzero;stroke:none;stroke-width:0;marker:none;visibility:visible;display:inline;overflow:visible;enable-background:accumulate"
         d="m 302.5,143 c -6.3883,0 -11.5,5.1117 -11.5,11.5 l 0,1 c 0,-6.3883 5.1117,-11.5 11.5,-11.5 l 35,0 c 6.3883,0 11.5,5.1117 11.5,11.5 l 0,-1 c 0,-6.3883 -5.1117,-11.5 -11.5,-11.5 l -35,0 z"
         id="rect3906"
         inkscape:connector-curvature="0" />
      <path
         id="path4085"
         d="m 204,266 c 27.1633,0 49,-21.8367 49,-49 l 0,-1 c 0,27.1633 -21.8367,49 -49,49 L 84,265 C 56.8367,265 35,243.1633 35,216 l 0,1 c 0,27.1633 21.8367,49 49,49 l 120,0 z"
         style="opacity:0.5;color:#bebebe;fill:#000000;fill-opacity:1;fill-rule:nonzero;stroke:none;stroke-width:0;marker:none;visibility:visible;display:inline;overflow:visible;enable-background:accumulate"
         inkscape:connector-curvature="0" />
      <path
         id="path4087"
         d="m 429,156 c 1.1253,0 2,-0.8747 2,-2 l 0,-1 c 0,1.1253 -0.8747,2 -2,2 l -10,0 c -1.1253,0 -2,-0.8747 -2,-2 l 0,1 c 0,1.1253 0.8747,2 2,2 l 10,0 z"
         style="opacity:0.3;color:#bebebe;fill:#000000;fill-opacity:1;fill-rule:nonzero;stroke:none;stroke-width:0;marker:none;visibility:visible;display:inline;overflow:visible;enable-background:accumulate"
         inkscape:connector-curvature="0" />
      <path
         id="path4089"
         d="m 434,123 c 2.2333,0 4,-1.7667 4,-4 l 0,-1 c 0,2.2333 -1.7667,4 -4,4 l -12,0 c -2.2333,0 -4,-1.7667 -4,-4 l 0,1 c 0,2.2333 1.7667,4 4,4 l 12,0 z"
         style="opacity:0.3;color:#bebebe;fill:#000000;fill-opacity:1;fill-rule:nonzero;stroke:none;stroke-width:0;marker:none;visibility:visible;display:inline;overflow:visible;enable-background:accumulate"
         inkscape:connector-curvature="0" />
      <path
         id="path4091"
         d="m 440,83 c 3.3413,0 6,-2.6587 6,-6 l 0,-1 c 0,3.3413 -2.6587,6 -6,6 l -16,0 c -3.3413,0 -6,-2.6587 -6,-6 l 0,1 c 0,3.3413 2.6587,6 6,6 l 16,0 z"
         style="opacity:0.5;color:#bebebe;fill:#000000;fill-opacity:1;fill-rule:nonzero;stroke:none;stroke-width:0;marker:none;visibility:visible;display:inline;overflow:visible;enable-background:accumulate"
         inkscape:connector-curvature="0" />
      <path
         id="path4093"
         d="m 324,265 c 4.4493,0 8,-3.5507 8,-8 l 0,-1 c 0,4.4493 -3.5507,8 -8,8 l -24,0 c -4.4493,0 -8,-3.5507 -8,-8 l 0,1 c 0,4.4493 3.5507,8 8,8 l 24,0 z"
         style="opacity:0.5;color:#bebebe;fill:#000000;fill-opacity:1;fill-rule:nonzero;stroke:none;stroke-width:0;marker:none;visibility:visible;display:inline;overflow:visible;enable-background:accumulate"
         inkscape:connector-curvature="0" />
      <path
         id="path4095"
         d="m 362,120 c 9.4353,0 17,-7.5647 17,-17 l 0,-1 c 0,9.4353 -7.5647,17 -17,17 l -52,0 c -9.4353,0 -17,-7.5647 -17,-17 l 0,1 c 0,9.4353 7.5647,17 17,17 l 52,0 z"
         style="opacity:0.5;color:#bebebe;fill:#000000;fill-opacity:1;fill-rule:nonzero;stroke:none;stroke-width:0;marker:none;visibility:visible;display:inline;overflow:visible;enable-background:accumulate"
         inkscape:connector-curvature="0" />
      <path
         id="path4097"
         d="m 337.5,202 c 6.3883,0 11.5,-5.1117 11.5,-11.5 l 0,-1 c 0,6.3883 -5.1117,11.5 -11.5,11.5 l -35,0 c -6.3883,0 -11.5,-5.1117 -11.5,-11.5 l 0,1 c 0,6.3883 5.1117,11.5 11.5,11.5 l 35,0 z"
         style="opacity:0.5;color:#bebebe;fill:#000000;fill-opacity:1;fill-rule:nonzero;stroke:none;stroke-width:0;marker:none;visibility:visible;display:inline;overflow:visible;enable-background:accumulate"
         inkscape:connector-curvature="0" />
      <path
         inkscape:connector-curvature="0"
         id="path4280"
         d="M 84,265 C 56.836703,265 35,243.1633 35,216 l 0,-1 c 0,27.1633 21.836703,49 49,49 l 120,0 c 27.1633,0 49,-21.8367 49,-49 l 0,1 c 0,27.1633 -21.8367,49 -49,49 l -120,0 z"
         style="opacity:0.1;color:#bebebe;fill:#ffffff;fill-opacity:1;fill-rule:nonzero;stroke:none;stroke-width:0;marker:none;visibility:visible;display:inline;overflow:visible;enable-background:accumulate" />
      <path
         style="opacity:0.1;color:#bebebe;fill:#ffffff;fill-opacity:1;fill-rule:nonzero;stroke:none;stroke-width:0;marker:none;visibility:visible;display:inline;overflow:visible;enable-background:accumulate"
         d="m 300,264 c -4.4493,0 -8,-3.5507 -8,-8 l 0,-1 c 0,4.4493 3.5507,8 8,8 l 24,0 c 4.4493,0 8,-3.5507 8,-8 l 0,1 c 0,4.4493 -3.5507,8 -8,8 l -24,0 z"
         id="path4294"
         inkscape:connector-curvature="0" />
      <path
         style="opacity:0.1;color:#bebebe;fill:#ffffff;fill-opacity:1;fill-rule:nonzero;stroke:none;stroke-width:0;marker:none;visibility:visible;display:inline;overflow:visible;enable-background:accumulate"
         d="m 302.5,201 c -6.3883,0 -11.5,-5.1117 -11.5,-11.5 l 0,-1 c 0,6.3883 5.1117,11.5 11.5,11.5 l 35,0 c 6.3883,0 11.5,-5.1117 11.5,-11.5 l 0,1 c 0,6.3883 -5.1117,11.5 -11.5,11.5 l -35,0 z"
         id="path4296"
         inkscape:connector-curvature="0" />
      <path
         style="opacity:0.1;color:#bebebe;fill:#ffffff;fill-opacity:1;fill-rule:nonzero;stroke:none;stroke-width:0;marker:none;visibility:visible;display:inline;overflow:visible;enable-background:accumulate"
         d="m 310,119 c -9.4353,0 -17,-7.5647 -17,-17 l 0,-1 c 0,9.4353 7.5647,17 17,17 l 52,0 c 9.4353,0 17,-7.5647 17,-17 l 0,1 c 0,9.4353 -7.5647,17 -17,17 l -52,0 z"
         id="path4298"
         inkscape:connector-curvature="0" />
      <path
         style="opacity:0.1;color:#bebebe;fill:#ffffff;fill-opacity:1;fill-rule:nonzero;stroke:none;stroke-width:0;marker:none;visibility:visible;display:inline;overflow:visible;enable-background:accumulate"
         d="m 424,82 c -3.3413,0 -6,-2.658703 -6,-6 l 0,-1 c 0,3.341297 2.6587,6 6,6 l 16,0 c 3.3413,0 6,-2.658703 6,-6 l 0,1 c 0,3.341297 -2.6587,6 -6,6 l -16,0 z"
         id="path4300"
         inkscape:connector-curvature="0" />
      <path
         style="opacity:0.1;color:#bebebe;fill:#ffffff;fill-opacity:1;fill-rule:nonzero;stroke:none;stroke-width:0;marker:none;visibility:visible;display:inline;overflow:visible;enable-background:accumulate"
         d="m 422,122 c -2.2333,0 -4,-1.7667 -4,-4 l 0,-1 c 0,2.2333 1.7667,4 4,4 l 12,0 c 2.2333,0 4,-1.7667 4,-4 l 0,1 c 0,2.2333 -1.7667,4 -4,4 l -12,0 z"
         id="path4302"
         inkscape:connector-curvature="0" />
      <path
         style="opacity:0.1;color:#bebebe;fill:#ffffff;fill-opacity:1;fill-rule:nonzero;stroke:none;stroke-width:0;marker:none;visibility:visible;display:inline;overflow:visible;enable-background:accumulate"
         d="m 419,154.5 c -1.1253,0 -2,-0.8747 -2,-2 l 0,-1 c 0,1.1253 0.8747,2 2,2 l 10,0 c 1.1253,0 2,-0.8747 2,-2 l 0,1 c 0,1.1253 -0.8747,2 -2,2 l -10,0 z"
         id="path4304"
         inkscape:connector-curvature="0" />
    </g>
    <g
       inkscape:groupmode="layer"
       id="layer3"
       inkscape:label="Border"
       style="display:inline"
       sodipodi:insensitive="true">
      <path
         style="opacity:0.41000001;color:#bebebe;fill:#000000;fill-opacity:1;fill-rule:nonzero;stroke:none;stroke-width:0;marker:none;visibility:visible;display:inline;overflow:visible;enable-background:accumulate"
         d="m 422,101 c -2.77,0 -5,2.23 -5,5 l 0,12 c 0,2.77 2.23,5 5,5 l 12,0 c 2.77,0 5,-2.23 5,-5 l 0,-12 c 0,-2.77 -2.23,-5 -5,-5 l -12,0 z m 0,1 12,0 c 2.2333,0 4,1.7667 4,4 l 0,12 c 0,2.2333 -1.7667,4 -4,4 l -12,0 c -2.2333,0 -4,-1.7667 -4,-4 l 0,-12 c 0,-2.2333 1.7667,-4 4,-4 z"
         id="rect4099"
         inkscape:connector-curvature="0" />
      <path
         style="opacity:0.41000001;color:#bebebe;fill:#000000;fill-opacity:1;fill-rule:nonzero;stroke:none;stroke-width:0;marker:none;visibility:visible;display:inline;overflow:visible;enable-background:accumulate"
         d="m 424,53 c -3.878,0 -7,3.122 -7,7 l 0,16 c 0,3.878 3.122,7 7,7 l 16,0 c 3.878,0 7,-3.122 7,-7 l 0,-16 c 0,-3.878 -3.122,-7 -7,-7 l -16,0 z m 0,1 16,0 c 3.3413,0 6,2.658703 6,6 l 0,16 c 0,3.341297 -2.6587,6 -6,6 l -16,0 c -3.3413,0 -6,-2.658703 -6,-6 l 0,-16 c 0,-3.341297 2.6587,-6 6,-6 z"
         id="rect4151"
         inkscape:connector-curvature="0" />
      <path
         style="opacity:0.41000001;color:#bebebe;fill:#000000;fill-opacity:1;fill-rule:nonzero;stroke:none;stroke-width:0;marker:none;visibility:visible;display:inline;overflow:visible;enable-background:accumulate"
         d="m 419,140 c -1.662,0 -3,1.338 -3,3 l 0,10 c 0,1.662 1.338,3 3,3 l 10,0 c 1.662,0 3,-1.338 3,-3 l 0,-10 c 0,-1.662 -1.338,-3 -3,-3 l -10,0 z m 0,1 10,0 c 1.1253,0 2,0.8747 2,2 l 0,10 c 0,1.1253 -0.8747,2 -2,2 l -10,0 c -1.1253,0 -2,-0.8747 -2,-2 l 0,-10 c 0,-1.1253 0.8747,-2 2,-2 z"
         id="rect4095"
         inkscape:connector-curvature="0" />
      <path
         style="opacity:0.41000001;color:#bebebe;fill:#000000;fill-opacity:1;fill-rule:nonzero;stroke:none;stroke-width:0;marker:none;visibility:visible;display:inline;overflow:visible;enable-background:accumulate"
         d="m 300,223 c -4.986,0 -9,4.014 -9,9 l 0,24 c 0,4.986 4.014,9 9,9 l 24,0 c 4.986,0 9,-4.014 9,-9 l 0,-24 c 0,-4.986 -4.014,-9 -9,-9 l -24,0 z m 0,1 24,0 c 4.4493,0 8,3.5507 8,8 l 0,24 c 0,4.4493 -3.5507,8 -8,8 l -24,0 c -4.4493,0 -8,-3.5507 -8,-8 l 0,-24 c 0,-4.4493 3.5507,-8 8,-8 z"
         id="rect4783"
         inkscape:connector-curvature="0" />
      <path
         style="opacity:0.41000001;color:#bebebe;fill:#000000;fill-opacity:1;fill-rule:nonzero;stroke:none;stroke-width:0;marker:none;visibility:visible;display:inline;overflow:visible;enable-background:accumulate"
         d="m 302.5,142 c -6.925,0 -12.5,5.575 -12.5,12.5 l 0,35 c 0,6.925 5.575,12.5 12.5,12.5 l 35,0 c 6.925,0 12.5,-5.575 12.5,-12.5 l 0,-35 c 0,-6.925 -5.575,-12.5 -12.5,-12.5 l -35,0 z m 0,1 35,0 c 6.3883,0 11.5,5.1117 11.5,11.5 l 0,35 c 0,6.3883 -5.1117,11.5 -11.5,11.5 l -35,0 c -6.3883,0 -11.5,-5.1117 -11.5,-11.5 l 0,-35 c 0,-6.3883 5.1117,-11.5 11.5,-11.5 z"
         id="rect4515"
         inkscape:connector-curvature="0" />
      <path
         style="opacity:0.41000001;color:#bebebe;fill:#000000;fill-opacity:1;fill-rule:nonzero;stroke:none;stroke-width:0;marker:none;visibility:visible;display:inline;overflow:visible;enable-background:accumulate"
         d="m 310,32 c -9.972,0 -18,8.028 -18,18 l 0,52 c 0,9.972 8.028,18 18,18 l 52,0 c 9.972,0 18,-8.028 18,-18 l 0,-52 c 0,-9.972 -8.028,-18 -18,-18 l -52,0 z m 0,1 52,0 c 9.4353,0 17,7.564703 17,17 l 0,52 c 0,9.4353 -7.5647,17 -17,17 l -52,0 c -9.4353,0 -17,-7.5647 -17,-17 l 0,-52 c 0,-9.435297 7.5647,-17 17,-17 z"
         id="rect4511"
         inkscape:connector-curvature="0" />
      <path
         style="opacity:0.41000001;color:#bebebe;fill:#000000;fill-opacity:1;fill-rule:nonzero;stroke:none;stroke-width:0;marker:none;visibility:visible;display:inline;overflow:visible;enable-background:accumulate"
         d="M 84,46 C 56.3,46 34,68.3 34,96 l 0,120 c 0,27.7 22.3,50 50,50 l 120,0 c 27.7,0 50,-22.3 50,-50 L 254,96 C 254,68.3 231.7,46 204,46 L 84,46 z m 0,1 120,0 c 27.1633,0 49,21.836703 49,49 l 0,120 c 0,27.1633 -21.8367,49 -49,49 L 84,265 C 56.836703,265 35,243.1633 35,216 L 35,96 C 35,68.836703 56.836703,47 84,47 z"
         id="rect4040"
         inkscape:connector-curvature="0" />
    </g>
  </g>
</svg>
