<?xml version="1.0" encoding="UTF-8" standalone="no"?>
<!-- Created with Inkscape (http://www.inkscape.org/) -->

<svg
   xmlns:dc="http://purl.org/dc/elements/1.1/"
   xmlns:cc="http://creativecommons.org/ns#"
   xmlns:rdf="http://www.w3.org/1999/02/22-rdf-syntax-ns#"
   xmlns:svg="http://www.w3.org/2000/svg"
   xmlns="http://www.w3.org/2000/svg"
   xmlns:xlink="http://www.w3.org/1999/xlink"
   xmlns:sodipodi="http://sodipodi.sourceforge.net/DTD/sodipodi-0.dtd"
   xmlns:inkscape="http://www.inkscape.org/namespaces/inkscape"
   inkscape:export-ydpi="90.000000"
   inkscape:export-xdpi="90.000000"
   width="480"
   height="300"
   id="svg11300"
   sodipodi:version="0.32"
   inkscape:version="0.48.4 r9939"
   sodipodi:docname="web-blogger.svg"
   inkscape:output_extension="org.inkscape.output.svg.inkscape"
   version="1.0"
   style="display:inline;enable-background:new"
   inkscape:export-filename="/home/sam/moka2-template.png">
  <sodipodi:namedview
     stroke="#ef2929"
     fill="#f57900"
     id="base"
     pagecolor="#ffffff"
     bordercolor="#666666"
     borderopacity="0.25490196"
     inkscape:pageopacity="0"
     inkscape:pageshadow="2"
     inkscape:zoom="1"
     inkscape:cx="259.1842"
     inkscape:cy="161.66885"
     inkscape:current-layer="layer2"
     showgrid="false"
     inkscape:grid-bbox="true"
     inkscape:document-units="px"
     inkscape:showpageshadow="false"
     inkscape:window-width="1364"
     inkscape:window-height="701"
     inkscape:window-x="0"
     inkscape:window-y="27"
     width="400px"
     height="300px"
     inkscape:snap-nodes="true"
     inkscape:snap-bbox="true"
     gridtolerance="10000"
     inkscape:object-nodes="true"
     inkscape:snap-grids="true"
     showguides="true"
     inkscape:guide-bbox="true"
     inkscape:window-maximized="1"
     inkscape:bbox-nodes="true"
     inkscape:bbox-paths="true"
     inkscape:snap-bbox-edge-midpoints="true"
     inkscape:snap-bbox-midpoints="true">
    <inkscape:grid
       spacingy="1px"
       spacingx="1px"
       id="grid5883"
       type="xygrid"
       enabled="true"
       visible="true"
       empspacing="4"
       snapvisiblegridlinesonly="true"
       dotted="false"
       color="#000000"
       opacity="0.1254902"
       empcolor="#203ef3"
       empopacity="0.36470588" />
    <inkscape:grid
       type="xygrid"
       id="grid11592"
       empspacing="8"
       visible="true"
       enabled="false"
       spacingx="0.5px"
       spacingy="0.5px"
       color="#ff0000"
       opacity="0.1254902"
       empcolor="#ff0000"
       empopacity="0.25098039"
       snapvisiblegridlinesonly="true"
       dotted="true" />
  </sodipodi:namedview>
  <defs
     id="defs3">
    <linearGradient
       id="outerBackgroundGradient">
      <stop
         style="stop-color:#ff7e00;stop-opacity:1"
         offset="0"
         id="stop3864-8-6" />
      <stop
         style="stop-color:#ff8b1b;stop-opacity:1"
         offset="1"
         id="stop3866-9-1" />
    </linearGradient>
    <linearGradient
       inkscape:collect="always"
       xlink:href="#outerBackgroundGradient"
       id="linearGradient4097"
       gradientUnits="userSpaceOnUse"
       x1="264"
       y1="280.00003"
       x2="264"
       y2="40.00005"
       gradientTransform="matrix(0.06666667,0,0,0.06666667,414.4,137.33333)" />
    <linearGradient
       inkscape:collect="always"
       xlink:href="#outerBackgroundGradient"
       id="linearGradient4101"
       gradientUnits="userSpaceOnUse"
       gradientTransform="matrix(0.0875,0,0,0.0875,414.9,97.5)"
       x1="286.85715"
       y1="302.85715"
       x2="286.85715"
       y2="28.571428" />
    <linearGradient
       inkscape:collect="always"
       xlink:href="#outerBackgroundGradient"
       id="linearGradient4153"
       gradientUnits="userSpaceOnUse"
       gradientTransform="matrix(0.11931818,0,0,0.11931818,414.13636,48.22727)"
       x1="283.80957"
       y1="299.80954"
       x2="283.80957"
       y2="31.61907" />
    <linearGradient
       inkscape:collect="always"
       xlink:href="#outerBackgroundGradient"
       id="linearGradient4869"
       gradientUnits="userSpaceOnUse"
       gradientTransform="matrix(0.175,0,0,-0.175,286.79999,-215.99997)"
       x1="281.14291"
       y1="297.14304"
       x2="281.14291"
       y2="22.857315" />
    <clipPath
       clipPathUnits="userSpaceOnUse"
       id="clipPath4891">
      <rect
         ry="9"
         y="223"
         x="307"
         height="42"
         width="42"
         id="rect4893"
         style="color:#bebebe;fill:url(#linearGradient4895);fill-opacity:1;fill-rule:nonzero;stroke:none;stroke-width:0;marker:none;visibility:visible;display:inline;overflow:visible;enable-background:accumulate"
         transform="matrix(0,1,-1,0,0,0)" />
    </clipPath>
    <linearGradient
       inkscape:collect="always"
       xlink:href="#outerBackgroundGradient"
       id="linearGradient4895"
       gradientUnits="userSpaceOnUse"
       gradientTransform="matrix(0.175,0,0,0.175,302.79999,215.99997)"
       x1="144.00006"
       y1="280.00018"
       x2="144.00006"
       y2="40.000172" />
    <clipPath
       clipPathUnits="userSpaceOnUse"
       id="clipPath4044">
      <rect
         ry="4"
         y="85"
         x="433"
         height="22"
         width="22"
         id="rect4046"
         style="color:#bebebe;fill:url(#linearGradient4048);fill-opacity:1;fill-rule:nonzero;stroke:none;stroke-width:0;marker:none;visibility:visible;display:inline;overflow:visible;enable-background:accumulate" />
    </clipPath>
    <linearGradient
       inkscape:collect="always"
       xlink:href="#outerBackgroundGradient"
       id="linearGradient4048"
       gradientUnits="userSpaceOnUse"
       gradientTransform="matrix(0.0875,0,0,0.0875,430.9,81.499996)"
       x1="149.71428"
       y1="291.42862"
       x2="149.71428"
       y2="40.000046" />
    <clipPath
       clipPathUnits="userSpaceOnUse"
       id="clipPath4089">
      <rect
         style="color:#bebebe;fill:url(#linearGradient4093);fill-opacity:1;fill-rule:nonzero;stroke:none;stroke-width:0;marker:none;visibility:visible;display:inline;overflow:visible;enable-background:accumulate"
         id="rect4091"
         width="30"
         height="30"
         x="433"
         y="37"
         ry="6" />
    </clipPath>
    <linearGradient
       inkscape:collect="always"
       xlink:href="#outerBackgroundGradient"
       id="linearGradient4093"
       gradientUnits="userSpaceOnUse"
       gradientTransform="matrix(0.11931818,0,0,0.11931818,430.13636,32.227267)"
       x1="149.71432"
       y1="291.42862"
       x2="149.71432"
       y2="40.00005" />
    <clipPath
       clipPathUnits="userSpaceOnUse"
       id="clipPath3855">
      <rect
         style="color:#bebebe;fill:url(#linearGradient3859);fill-opacity:1;fill-rule:nonzero;stroke:none;stroke-width:0;marker:none;visibility:visible;display:inline;overflow:visible;enable-background:accumulate"
         id="rect3857"
         width="16"
         height="16"
         x="304"
         y="212"
         ry="3"
         transform="matrix(0,1,-1,0,0,0)" />
    </clipPath>
    <linearGradient
       inkscape:collect="always"
       xlink:href="#outerBackgroundGradient"
       id="linearGradient3859"
       gradientUnits="userSpaceOnUse"
       gradientTransform="matrix(0.06666667,0,0,0.06666667,302.4,209.33333)"
       x1="144"
       y1="280.00003"
       x2="144"
       y2="40.00005" />
    <clipPath
       clipPathUnits="userSpaceOnUse"
       id="clipPath3862">
      <rect
         ry="50"
         y="46"
         x="34"
         height="220"
         width="220"
         id="rect3864"
         style="color:#bebebe;fill:url(#linearGradient3866);fill-opacity:1;fill-rule:nonzero;stroke:none;stroke-width:0;marker:none;visibility:visible;display:inline;overflow:visible;enable-background:accumulate" />
    </clipPath>
    <linearGradient
       inkscape:collect="always"
       xlink:href="#outerBackgroundGradient"
       id="linearGradient3866"
       gradientUnits="userSpaceOnUse"
       gradientTransform="translate(0,-4)"
       x1="144"
       y1="280"
       x2="144"
       y2="40" />
    <linearGradient
       inkscape:collect="always"
       xlink:href="#outerBackgroundGradient"
       id="linearGradient3876"
       gradientUnits="userSpaceOnUse"
       gradientTransform="translate(0,-4)"
       x1="272"
       y1="288"
       x2="272"
       y2="32" />
    <clipPath
       clipPathUnits="userSpaceOnUse"
       id="clipPath4187">
      <rect
         ry="12.5"
         y="142"
         x="290"
         height="60"
         width="60"
         id="rect4189"
         style="color:#bebebe;fill:url(#linearGradient4191);fill-opacity:1;fill-rule:nonzero;stroke:none;stroke-width:0;marker:none;visibility:visible;display:inline;overflow:visible;enable-background:accumulate" />
    </clipPath>
    <linearGradient
       inkscape:collect="always"
       xlink:href="#outerBackgroundGradient"
       id="linearGradient4191"
       gradientUnits="userSpaceOnUse"
       x1="352"
       y1="204"
       x2="352"
       y2="140" />
    <linearGradient
       inkscape:collect="always"
       xlink:href="#outerBackgroundGradient"
       id="linearGradient4197"
       gradientUnits="userSpaceOnUse"
       x1="384"
       y1="124"
       x2="384"
       y2="28" />
    <linearGradient
       inkscape:collect="always"
       xlink:href="#outerBackgroundGradient"
       id="linearGradient4199"
       gradientUnits="userSpaceOnUse"
       x1="352"
       y1="204"
       x2="352"
       y2="140" />
    <clipPath
       clipPathUnits="userSpaceOnUse"
       id="clipPath4346">
      <rect
         style="color:#bebebe;fill:url(#linearGradient4350);fill-opacity:1;fill-rule:nonzero;stroke:none;stroke-width:0;marker:none;visibility:visible;display:inline;overflow:visible;enable-background:accumulate"
         id="rect4348"
         width="88"
         height="88"
         x="292"
         y="32"
         ry="18" />
    </clipPath>
    <linearGradient
       inkscape:collect="always"
       xlink:href="#outerBackgroundGradient"
       id="linearGradient4350"
       gradientUnits="userSpaceOnUse"
       x1="384"
       y1="124"
       x2="384"
       y2="28" />
    <clipPath
       clipPathUnits="userSpaceOnUse"
       id="clipPath3871">
      <rect
         ry="5"
         y="101"
         x="417"
         height="22"
         width="22"
         id="rect3873"
         style="color:#bebebe;fill:url(#linearGradient3875);fill-opacity:1;fill-rule:nonzero;stroke:none;stroke-width:0;marker:none;visibility:visible;display:inline;overflow:visible;enable-background:accumulate" />
    </clipPath>
    <linearGradient
       inkscape:collect="always"
       xlink:href="#outerBackgroundGradient"
       id="linearGradient3875"
       gradientUnits="userSpaceOnUse"
       gradientTransform="matrix(0.0875,0,0,0.0875,414.9,97.5)"
       x1="286.85715"
       y1="302.85715"
       x2="286.85715"
       y2="28.571428" />
    <clipPath
       clipPathUnits="userSpaceOnUse"
       id="clipPath3881">
      <rect
         style="color:#bebebe;fill:url(#linearGradient3885);fill-opacity:1;fill-rule:nonzero;stroke:none;stroke-width:0;marker:none;visibility:visible;display:inline;overflow:visible;enable-background:accumulate"
         id="rect3883"
         width="30"
         height="30"
         x="417"
         y="53"
         ry="7" />
    </clipPath>
    <linearGradient
       inkscape:collect="always"
       xlink:href="#outerBackgroundGradient"
       id="linearGradient3885"
       gradientUnits="userSpaceOnUse"
       gradientTransform="matrix(0.11931818,0,0,0.11931818,414.13636,48.22727)"
       x1="283.80957"
       y1="299.80954"
       x2="283.80957"
       y2="31.61907" />
  </defs>
  <metadata
     id="metadata4">
    <rdf:RDF>
      <cc:Work
         rdf:about="">
        <dc:format>image/svg+xml</dc:format>
        <dc:type
           rdf:resource="http://purl.org/dc/dcmitype/StillImage" />
        <dc:creator>
          <cc:Agent>
            <dc:title>Sam Hewitt</dc:title>
          </cc:Agent>
        </dc:creator>
        <dc:source />
        <cc:license
           rdf:resource="" />
        <dc:title />
        <dc:subject>
          <rdf:Bag />
        </dc:subject>
        <dc:date />
        <dc:rights>
          <cc:Agent>
            <dc:title />
          </cc:Agent>
        </dc:rights>
        <dc:publisher>
          <cc:Agent>
            <dc:title />
          </cc:Agent>
        </dc:publisher>
        <dc:identifier />
        <dc:relation />
        <dc:language />
        <dc:coverage />
        <dc:description />
        <dc:contributor>
          <cc:Agent>
            <dc:title />
          </cc:Agent>
        </dc:contributor>
      </cc:Work>
      <cc:Work
         rdf:about="">
        <dc:format>image/svg+xml</dc:format>
        <dc:type
           rdf:resource="http://purl.org/dc/dcmitype/StillImage" />
      </cc:Work>
    </rdf:RDF>
  </metadata>
  <g
     style="display:inline"
     inkscape:groupmode="layer"
     inkscape:label="Icon"
     id="layer1">
    <g
       style="display:none"
       inkscape:label="Baseplate"
       id="layer7"
       inkscape:groupmode="layer">
      <text
         y="19.745117"
         xml:space="preserve"
         x="15.006836"
         style="font-size:18px;font-style:normal;font-variant:normal;font-weight:normal;font-stretch:normal;fill:#000000;fill-opacity:1;stroke:none;display:inline;enable-background:new;font-family:DejaVu Sans;-inkscape-font-specification:DejaVu Sans"
         inkscape:label="context"
         id="context"><tspan
           style="font-style:normal;font-variant:normal;font-weight:normal;font-stretch:normal;font-family:DejaVu Sans;-inkscape-font-specification:DejaVu Sans"
           y="19.745117"
           x="15.006836"
           sodipodi:role="line"
           id="tspan3933">web</tspan></text>
      <text
         y="19.745117"
         xml:space="preserve"
         x="122.48828"
         style="font-size:18px;font-style:normal;font-variant:normal;font-weight:bold;font-stretch:normal;text-align:start;line-height:125%;writing-mode:lr-tb;text-anchor:start;fill:#000000;fill-opacity:1;stroke:none;display:inline;enable-background:new;font-family:DejaVu Sans;-inkscape-font-specification:DejaVu Sans Bold"
         sodipodi:linespacing="125%"
         inkscape:label="icon-name"
         id="icon-name"><tspan
           style="font-size:18px;font-style:normal;font-variant:normal;font-weight:bold;font-stretch:normal;font-family:DejaVu Sans;-inkscape-font-specification:DejaVu Sans Bold"
           y="19.745117"
           x="122.48828"
           sodipodi:role="line"
           id="tspan3937">web-blogger</tspan></text>
      <rect
         style="fill:#eeeeec;fill-opacity:1;fill-rule:nonzero;stroke:none;stroke-width:2;marker:none;visibility:visible;display:inline;overflow:visible;enable-background:accumulate"
         id="rect16x16"
         width="16"
         height="16"
         x="416"
         y="140"
         inkscape:label="16x16" />
      <rect
         style="fill:#d4d4d4;fill-opacity:1;fill-rule:nonzero;stroke:none;stroke-width:2;marker:none;visibility:visible;display:inline;overflow:visible;enable-background:accumulate"
         id="rect24x24"
         width="24"
         height="24"
         x="416"
         y="100"
         inkscape:label="24x24" />
      <rect
         style="fill:#eeeeec;fill-opacity:1;fill-rule:nonzero;stroke:none;stroke-width:2;marker:none;visibility:visible;display:inline;overflow:visible;enable-background:accumulate"
         id="rect32x32"
         width="32"
         height="32"
         x="416"
         y="52"
         inkscape:label="32x32" />
      <rect
         inkscape:label="22x22"
         y="101"
         x="417"
         height="22"
         width="22"
         id="rect22x22"
         style="fill:#eeeeec;fill-opacity:1;fill-rule:nonzero;stroke:none;stroke-width:2;marker:none;visibility:visible;display:inline;overflow:visible;enable-background:accumulate" />
      <rect
         inkscape:label="48x48"
         y="220"
         x="288"
         height="48"
         width="48"
         id="rect48x48"
         style="fill:#eeeeec;fill-opacity:1;fill-rule:nonzero;stroke:none;stroke-width:2;marker:none;visibility:visible;display:inline;overflow:visible;enable-background:accumulate" />
      <rect
         style="fill:#eeeeec;fill-opacity:1;fill-rule:nonzero;stroke:none;stroke-width:2;marker:none;visibility:visible;display:inline;overflow:visible;enable-background:accumulate"
         id="rect256x256"
         width="256"
         height="256"
         x="16"
         y="28"
         inkscape:label="256x256" />
      <rect
         style="fill:#eeeeec;fill-opacity:1;fill-rule:nonzero;stroke:none;stroke-width:2;marker:none;visibility:visible;display:inline;overflow:visible;enable-background:accumulate"
         id="rect64x64"
         width="64"
         height="64"
         x="288"
         y="140"
         inkscape:label="64x64" />
      <rect
         style="fill:#eeeeec;fill-opacity:1;fill-rule:nonzero;stroke:none;stroke-width:2;marker:none;visibility:visible;display:inline;overflow:visible;enable-background:accumulate"
         id="rect96x96"
         width="96"
         height="96"
         x="288"
         y="28"
         inkscape:label="96x96" />
    </g>
    <g
       inkscape:groupmode="layer"
       id="layer4"
       inkscape:label="Shadow"
       style="display:inline"
       sodipodi:insensitive="true">
      <rect
         style="opacity:0.0;color:#bebebe;fill:#000000;fill-opacity:1;stroke:#000000;stroke-width:1;stroke-miterlimit:4;stroke-opacity:1;stroke-dasharray:none;marker:none;visibility:visible;display:inline;overflow:visible;enable-background:accumulate"
         id="rect4156"
         width="42"
         height="42"
         x="-266.5"
         y="291"
         ry="9"
         transform="matrix(0,-1,1,0,0,0)" />
      <rect
         transform="matrix(0,-1,1,0,0,0)"
         ry="9"
         y="291"
         x="-266.5"
         height="42"
         width="40"
         id="rect4183"
         style="opacity:0.1;color:#bebebe;fill:#000000;fill-opacity:1;stroke:none;stroke-width:1;marker:none;visibility:visible;display:inline;overflow:visible;enable-background:accumulate" />
      <rect
         ry="9"
         y="237"
         x="291"
         height="29"
         width="42"
         id="rect4144"
         style="opacity:0.1;color:#bebebe;fill:#000000;fill-opacity:1;fill-rule:nonzero;stroke:none;stroke-width:0;marker:none;visibility:visible;display:inline;overflow:visible;enable-background:accumulate" />
      <rect
         style="opacity:0.0;color:#bebebe;fill:#000000;fill-opacity:1;fill-rule:nonzero;stroke:#000000;stroke-width:1;stroke-miterlimit:4;stroke-opacity:1;stroke-dasharray:none;marker:none;visibility:visible;display:inline;overflow:visible;enable-background:accumulate"
         id="rect4340"
         width="88"
         height="88"
         x="292"
         y="33.5"
         ry="18" />
      <rect
         ry="18"
         y="52.5"
         x="292"
         height="69"
         width="88"
         id="rect4338"
         style="opacity:0.1;color:#bebebe;fill:#000000;fill-opacity:1;fill-rule:nonzero;stroke:none;stroke-width:0;marker:none;visibility:visible;display:inline;overflow:visible;enable-background:accumulate" />
      <rect
         style="opacity:0.1;color:#bebebe;fill:#000000;fill-opacity:1;fill-rule:nonzero;stroke:none;stroke-width:0;marker:none;visibility:visible;display:inline;overflow:visible;enable-background:accumulate"
         id="rect4335"
         width="88"
         height="76.5"
         x="292"
         y="44.5"
         ry="18" />
      <rect
         style="opacity:0.0;color:#bebebe;fill:#000000;fill-opacity:1;fill-rule:nonzero;stroke:#000000;stroke-width:1;stroke-miterlimit:4;stroke-opacity:1;stroke-dasharray:none;marker:none;visibility:visible;display:inline;overflow:visible;enable-background:accumulate"
         id="rect4214"
         width="60"
         height="60"
         x="290"
         y="143.5"
         ry="12.5" />
      <rect
         ry="12.5"
         y="151.5"
         x="290"
         height="52"
         width="60"
         id="rect4206"
         style="opacity:0.1;color:#bebebe;fill:#000000;fill-opacity:1;fill-rule:nonzero;stroke:none;stroke-width:0;marker:none;visibility:visible;display:inline;overflow:visible;enable-background:accumulate" />
      <rect
         style="opacity:0.1;color:#bebebe;fill:#000000;fill-opacity:1;fill-rule:nonzero;stroke:none;stroke-width:0;marker:none;visibility:visible;display:inline;overflow:visible;enable-background:accumulate"
         id="rect4212"
         width="60"
         height="54.5"
         x="290"
         y="148.5"
         ry="12.5" />
      <rect
         style="opacity:0.2;color:#bebebe;fill:#000000;fill-opacity:1;fill-rule:nonzero;stroke:none;stroke-width:0;marker:none;visibility:visible;display:inline;overflow:visible;enable-background:accumulate"
         id="rect4058"
         width="30"
         height="30"
         x="417"
         y="54"
         ry="7" />
      <rect
         ry="50"
         y="48"
         x="34"
         height="220"
         width="220"
         id="rect3872"
         style="opacity:0.0;color:#bebebe;fill:#000000;fill-opacity:1;fill-rule:nonzero;stroke:#000000;stroke-width:2;stroke-miterlimit:4;stroke-opacity:1;stroke-dasharray:none;marker:none;visibility:visible;display:inline;overflow:visible;enable-background:accumulate" />
      <rect
         style="opacity:0.1;color:#bebebe;fill:#000000;fill-opacity:1;fill-rule:nonzero;stroke:none;stroke-width:0;marker:none;visibility:visible;display:inline;overflow:visible;enable-background:accumulate"
         id="rect3870"
         width="220"
         height="220"
         x="34"
         y="48"
         ry="50" />
      <rect
         ry="50"
         y="47"
         x="34"
         height="220"
         width="220"
         id="rect3868"
         style="opacity:0.1;color:#bebebe;fill:#000000;fill-opacity:1;fill-rule:nonzero;stroke:none;stroke-width:0;marker:none;visibility:visible;display:inline;overflow:visible;enable-background:accumulate" />
    </g>
    <g
       inkscape:groupmode="layer"
       id="layer2"
       inkscape:label="Background"
       style="display:inline">
      <rect
         style="color:#bebebe;fill:url(#linearGradient3876);fill-opacity:1;fill-rule:nonzero;stroke:none;stroke-width:0;marker:none;visibility:visible;display:inline;overflow:visible;enable-background:accumulate"
         id="rect4040"
         width="220"
         height="220"
         x="34"
         y="46"
         ry="50" />
      <rect
         ry="3"
         y="140"
         x="416"
         height="16"
         width="16"
         id="rect4095"
         style="color:#bebebe;fill:url(#linearGradient4097);fill-opacity:1;fill-rule:nonzero;stroke:none;stroke-width:0;marker:none;visibility:visible;display:inline;overflow:visible;enable-background:accumulate" />
      <rect
         style="color:#bebebe;fill:url(#linearGradient4101);fill-opacity:1;fill-rule:nonzero;stroke:none;stroke-width:0;marker:none;visibility:visible;display:inline;overflow:visible;enable-background:accumulate"
         id="rect4099"
         width="22"
         height="22"
         x="417"
         y="101"
         ry="5" />
      <rect
         ry="7"
         y="53"
         x="417"
         height="30"
         width="30"
         id="rect4151"
         style="color:#bebebe;fill:url(#linearGradient4153);fill-opacity:1;fill-rule:nonzero;stroke:none;stroke-width:0;marker:none;visibility:visible;display:inline;overflow:visible;enable-background:accumulate" />
      <rect
         style="color:#bebebe;fill:url(#linearGradient4869);fill-opacity:1;fill-rule:nonzero;stroke:none;stroke-width:0;marker:none;visibility:visible;display:inline;overflow:visible;enable-background:accumulate"
         id="rect4783"
         width="42"
         height="42"
         x="291"
         y="-265"
         ry="9"
         transform="scale(1,-1)" />
      <rect
         ry="18"
         y="32"
         x="292"
         height="88"
         width="88"
         id="rect4511"
         style="color:#bebebe;fill:url(#linearGradient4197);fill-opacity:1;fill-rule:nonzero;stroke:none;stroke-width:0;marker:none;visibility:visible;display:inline;overflow:visible;enable-background:accumulate" />
      <rect
         style="color:#bebebe;fill:url(#linearGradient4199);fill-opacity:1;fill-rule:nonzero;stroke:none;stroke-width:0;marker:none;visibility:visible;display:inline;overflow:visible;enable-background:accumulate"
         id="rect4515"
         width="60"
         height="60"
         x="290"
         y="142"
         ry="12.5" />
    </g>
    <g
       inkscape:groupmode="layer"
       id="layer6"
       inkscape:label="Symbols"
       style="display:inline">
      <path
         inkscape:connector-curvature="0"
         style="opacity:0.2;fill:#000000;fill-opacity:1;display:inline;enable-background:new"
         d="m 334.74461,47.009936 c -1.30818,-0.01 -2.92638,-3.5e-4 -4.98443,0.01761 -7.65939,0.06671 -7.66024,0.06701 -9.44151,0.546889 -3.62899,0.977484 -7.29633,3.267379 -9.65048,6.027396 -2.59776,3.045623 -4.07329,6.535925 -4.50785,10.666135 -0.20765,1.9735 -0.21512,13.94377 -0.0137,21.64669 0.11899,4.5509 0.19383,5.54667 0.50782,6.71101 1.65745,6.14622 6.06936,11.014374 11.90637,13.138794 1.39456,0.50754 3.60514,1.01333 4.9649,1.13673 1.66653,0.1512 23.15344,0.10568 24.94165,-0.0527 1.07785,-0.0955 2.57104,-0.33349 3.31839,-0.52931 6.64093,-1.74004 11.81727,-6.915014 13.6427,-13.638794 l 0.48243,-1.77738 0.0644,-8.99813 c 0.0687,-9.57825 0.0479,-9.87262 -0.78907,-10.86729 -0.88047,-1.04639 -1.55598,-1.24696 -4.1973,-1.24806 -2.59288,-10e-4 -3.50293,-0.17126 -4.3555,-0.81446 -1.07663,-0.81224 -1.35692,-1.51962 -1.52346,-3.84184 -0.59299,-8.269052 -5.73562,-14.90327 -13.4181,-17.310726 -1.88507,-0.590712 -3.0228,-0.783595 -6.94733,-0.812506 z m -9.74423,14.990391 11.0001,0 c 2.21603,0 4.00004,1.78402 4.00004,4.00004 0,2.21603 -1.78401,4.00004 -4.00004,4.00004 l -11.0001,0 c -2.21603,0 -4.00004,-1.78401 -4.00004,-4.00004 0,-2.21602 1.78401,-4.00004 4.00004,-4.00004 z m 0,22.00022 22.00021,0 c 2.21603,0 4.00005,1.78401 4.00005,4.00004 0,2.21602 -1.78402,4.00004 -4.00005,4.00004 l -22.00021,0 c -2.21603,0 -4.00004,-1.78402 -4.00004,-4.00004 0,-2.21603 1.78401,-4.00004 4.00004,-4.00004 z"
         id="path3861" />
      <path
         id="path3863"
         d="m 319.16302,153.00667 c -0.87212,-0.007 -1.95092,-2.4e-4 -3.32295,0.0117 -5.10626,0.0445 -5.10683,0.0447 -6.29434,0.36459 -2.41932,0.65165 -4.86422,2.17825 -6.43365,4.01826 -1.73184,2.03041 -2.71552,4.35728 -3.00523,7.11075 -0.13843,1.31567 -0.14341,9.29585 -0.009,14.43112 0.0793,3.03394 0.12922,3.69778 0.33854,4.47401 1.10497,4.09748 4.04624,7.34292 7.93758,8.75919 0.9297,0.33836 2.40342,0.67556 3.30993,0.75782 1.11102,0.1008 15.43562,0.0705 16.62776,-0.0351 0.71857,-0.0637 1.71403,-0.22233 2.21226,-0.35287 4.42728,-1.16003 7.87817,-4.61001 9.09513,-9.09253 l 0.32162,-1.18492 0.0429,-5.99875 c 0.0458,-6.3855 0.0319,-6.58175 -0.52605,-7.24486 -0.58698,-0.69759 -1.03732,-0.8313 -2.79819,-0.83204 -1.72859,-6.6e-4 -2.33529,-0.11417 -2.90367,-0.54297 -0.71775,-0.54149 -0.90461,-1.01308 -1.01564,-2.56123 -0.39533,-5.5127 -3.82374,-9.93551 -8.9454,-11.54048 -1.25671,-0.3938 -2.01519,-0.52239 -4.63155,-0.54167 z m -6.49615,9.99359 7.3334,0 c 1.47735,0 2.66669,1.18934 2.66669,2.66669 0,1.47735 -1.18934,2.66669 -2.66669,2.66669 l -7.3334,0 c -1.47735,0 -2.66669,-1.18934 -2.66669,-2.66669 0,-1.47735 1.18934,-2.66669 2.66669,-2.66669 z m 0,14.6668 14.6668,0 c 1.47735,0 2.6667,1.18934 2.6667,2.66669 0,1.47735 -1.18935,2.6667 -2.6667,2.6667 l -14.6668,0 c -1.47735,0 -2.66669,-1.18935 -2.66669,-2.6667 0,-1.47735 1.18934,-2.66669 2.66669,-2.66669 z"
         style="opacity:0.2;fill:#000000;fill-opacity:1;display:inline;enable-background:new"
         inkscape:connector-curvature="0" />
      <path
         inkscape:connector-curvature="0"
         style="opacity:0.2;fill:#000000;fill-opacity:1;display:inline;enable-background:new"
         d="m 311.41395,231.00476 c -0.61048,-0.005 -1.36564,-1.6e-4 -2.32606,0.008 -3.57438,0.0311 -3.57478,0.0313 -4.40603,0.25522 -1.69352,0.45615 -3.40495,1.52477 -4.50355,2.81277 -1.21228,1.42129 -1.90086,3.05009 -2.10365,4.97752 -0.0969,0.92097 -0.10039,6.50708 -0.006,10.10176 0.0555,2.12376 0.0904,2.58845 0.23697,3.13181 0.77348,2.86823 2.83237,5.14003 5.5563,6.13142 0.65079,0.23685 1.68239,0.47289 2.31695,0.53047 0.77771,0.0706 10.80491,0.0494 11.63941,-0.0246 0.50299,-0.0446 1.19981,-0.15563 1.54857,-0.24701 3.0991,-0.81202 5.51471,-3.227 6.36658,-6.36476 l 0.22514,-0.82944 0.03,-4.19912 c 0.0321,-4.46984 0.0223,-4.60721 -0.36824,-5.07139 -0.41088,-0.48831 -0.72612,-0.58191 -1.95873,-0.58243 -1.21001,-4.6e-4 -1.6347,-0.0799 -2.03256,-0.38008 -0.50243,-0.37904 -0.63323,-0.70915 -0.71095,-1.79285 -0.27673,-3.85889 -2.67661,-6.95485 -6.26177,-8.07832 -0.87969,-0.27566 -1.41063,-0.36568 -3.24208,-0.37917 z m -4.5473,6.9955 5.13337,0 c 1.03415,0 1.86668,0.83254 1.86668,1.86668 0,1.03415 -0.83253,1.86668 -1.86668,1.86668 l -5.13337,0 c -1.03414,0 -1.86668,-0.83253 -1.86668,-1.86668 0,-1.03414 0.83254,-1.86668 1.86668,-1.86668 z m 0,10.26674 10.26674,0 c 1.03415,0 1.86669,0.83254 1.86669,1.86668 0,1.03415 -0.83254,1.86669 -1.86669,1.86669 l -10.26674,0 c -1.03414,0 -1.86668,-0.83254 -1.86668,-1.86669 0,-1.03414 0.83254,-1.86668 1.86668,-1.86668 z"
         id="path3865" />
      <path
         id="path3867"
         d="m 141.07077,87.023399 c -3.05242,-0.02333 -6.82822,-8.16e-4 -11.63033,0.04109 -17.8719,0.155657 -17.87388,0.156357 -22.03018,1.276074 -8.467644,2.280794 -17.024764,7.623875 -22.517781,14.063917 -6.061439,7.10645 -9.504342,15.25048 -10.518316,24.88763 -0.484516,4.60482 -0.501946,32.53544 -0.03197,50.50892 0.277643,10.61875 0.45227,12.94222 1.184913,15.65901 3.867383,14.34117 14.161839,25.70021 27.781514,30.65719 3.25398,1.18426 8.412,2.36443 11.58477,2.65237 3.88857,0.3528 54.02467,0.24658 58.19716,-0.12297 2.51497,-0.22283 5.99908,-0.77814 7.74289,-1.23506 15.49551,-4.06009 27.57362,-16.13504 31.83296,-31.82385 l 1.12567,-4.14722 0.15026,-20.99562 c 0.1603,-22.34924 0.11177,-23.0361 -1.84116,-25.357 -2.05443,-2.44158 -3.63062,-2.90957 -9.7937,-2.91214 -6.05004,-0.002 -8.17349,-0.39961 -10.16282,-1.90041 -2.51214,-1.89522 -3.16615,-3.54578 -3.55474,-8.96429 -1.38364,-19.29443 -13.38311,-34.774263 -31.30889,-40.391659 -4.39849,-1.378327 -7.05319,-1.828387 -16.21042,-1.895846 z m -22.73652,34.977551 25.66689,0 c 5.17072,0 9.33341,4.16272 9.33341,9.33343 0,5.17072 -4.16269,9.33341 -9.33341,9.33341 l -25.66689,0 c -5.17074,0 -9.33343,-4.16269 -9.33343,-9.33341 0,-5.17071 4.16269,-9.33343 9.33343,-9.33343 z m 0,51.33382 51.3338,0 c 5.17072,0 9.33343,4.16269 9.33343,9.33343 0,5.1707 -4.16271,9.33341 -9.33343,9.33341 l -51.3338,0 c -5.17074,0 -9.33343,-4.16271 -9.33343,-9.33341 0,-5.17074 4.16269,-9.33343 9.33343,-9.33343 z"
         style="opacity:0.2;fill:#000000;fill-opacity:1;display:inline;enable-background:new"
         inkscape:connector-curvature="0" />
      <path
         id="path3869"
         d="m 431.58176,59.003208 c -0.43606,-0.0033 -0.97546,-1.16e-4 -1.66147,0.0059 -2.55313,0.02224 -2.55342,0.02234 -3.14717,0.182297 -1.20966,0.325827 -2.43211,1.089125 -3.21683,2.009131 -0.86592,1.015207 -1.35776,2.17864 -1.50261,3.555376 -0.0692,0.657833 -0.0717,4.647922 -0.005,7.21556 0.0397,1.516971 0.0646,1.848891 0.16927,2.237001 0.55249,2.04874 2.02312,3.67146 3.96879,4.3796 0.46486,0.16918 1.20171,0.33778 1.65497,0.37891 0.55551,0.0504 7.71781,0.0352 8.31388,-0.0176 0.35928,-0.0318 0.85701,-0.11116 1.10613,-0.17643 2.21364,-0.58002 3.93909,-2.30501 4.54756,-4.54627 l 0.16081,-0.59246 0.0215,-2.999373 c 0.0229,-3.192749 0.016,-3.290872 -0.26302,-3.622429 -0.29349,-0.348796 -0.51866,-0.415653 -1.3991,-0.416019 -0.8643,-3.34e-4 -1.16765,-0.05709 -1.45184,-0.271487 -0.35887,-0.270747 -0.4523,-0.50654 -0.50782,-1.280613 -0.19766,-2.756349 -1.91187,-4.967754 -4.47269,-5.770239 -0.62836,-0.196904 -1.0076,-0.261198 -2.31578,-0.270835 z m -3.24807,4.996795 3.6667,0 c 0.73867,0 1.33334,0.594673 1.33334,1.333346 0,0.738676 -0.59467,1.333346 -1.33334,1.333346 l -3.6667,0 c -0.73868,0 -1.33335,-0.59467 -1.33335,-1.333346 0,-0.738673 0.59467,-1.333346 1.33335,-1.333346 z m 0,7.333403 7.3334,0 c 0.73867,0 1.33335,0.59467 1.33335,1.333346 0,0.738671 -0.59468,1.333351 -1.33335,1.333351 l -7.3334,0 c -0.73868,0 -1.33335,-0.59468 -1.33335,-1.333351 0,-0.738676 0.59467,-1.333346 1.33335,-1.333346 z"
         style="opacity:0.2;fill:#000000;fill-opacity:1;display:inline;enable-background:new"
         inkscape:connector-curvature="0" />
      <path
         inkscape:connector-curvature="0"
         style="opacity:0.2;fill:#000000;fill-opacity:1;display:inline;enable-background:new"
         d="m 427.70755,106.00229 c -0.30525,-0.003 -0.68283,-8e-5 -1.16305,0.004 -1.78722,0.0156 -1.78742,0.0157 -2.20305,0.12761 -0.84678,0.22808 -1.7025,0.7624 -2.25182,1.40641 -0.60615,0.71066 -0.95045,1.52507 -1.05184,2.48881 -0.0485,0.46049 -0.0502,3.25359 -0.004,5.05097 0.0278,1.0619 0.0452,1.29424 0.11849,1.56592 0.38675,1.43414 1.4162,2.57007 2.7782,3.06577 0.3254,0.11843 0.8412,0.23645 1.15849,0.26525 0.38886,0.0353 5.40255,0.0247 5.8198,-0.0123 0.25151,-0.0222 0.59992,-0.0778 0.77431,-0.12351 1.54958,-0.40601 2.75741,-1.61353 3.18335,-3.18244 l 0.11257,-0.41473 0.015,-2.09959 c 0.016,-2.23496 0.0112,-2.30365 -0.18412,-2.53574 -0.20545,-0.24416 -0.36307,-0.29096 -0.97939,-0.29122 -0.60502,-2.3e-4 -0.81737,-0.04 -1.01631,-0.19004 -0.25121,-0.18953 -0.31661,-0.35458 -0.35547,-0.89644 -0.13837,-1.92948 -1.33833,-3.47748 -3.13093,-4.03923 -0.43986,-0.13784 -0.70534,-0.18285 -1.62108,-0.1896 z m -2.27368,3.4978 2.56673,0 c 0.51707,0 0.93335,0.41628 0.93335,0.93336 0,0.51709 -0.41628,0.93336 -0.93335,0.93336 l -2.56673,0 c -0.51709,0 -0.93336,-0.41627 -0.93336,-0.93336 0,-0.51708 0.41627,-0.93336 0.93336,-0.93336 z m 0,5.13347 5.13346,0 c 0.51707,0 0.93336,0.41627 0.93336,0.93335 0,0.51708 -0.41629,0.93336 -0.93336,0.93336 l -5.13346,0 c -0.51709,0 -0.93336,-0.41628 -0.93336,-0.93336 0,-0.51708 0.41627,-0.93335 0.93336,-0.93335 z"
         id="path3871" />
      <path
         id="path3873"
         d="m 423.79065,144.00211 c -0.21803,-0.002 -0.48773,-6e-5 -0.83074,0.002 -1.27659,0.0112 -1.27673,0.0113 -1.57361,0.0912 -0.60484,0.16291 -1.21606,0.54456 -1.60843,1.00457 -0.43297,0.50761 -0.67889,1.08933 -0.75131,1.77771 -0.0347,0.32892 -0.0358,2.32399 -0.002,3.60783 0.0198,0.7585 0.0322,0.92445 0.0846,1.11851 0.27625,1.02439 1.01157,1.83576 1.98442,2.18983 0.23243,0.0846 0.60086,0.16889 0.82749,0.18947 0.27776,0.0252 3.85896,0.0177 4.15699,-0.009 0.17965,-0.0158 0.42852,-0.0556 0.55308,-0.0882 1.10684,-0.29 1.96957,-1.15252 2.27381,-2.27316 l 0.0804,-0.29624 0.0107,-1.4997 c 0.0114,-1.5964 0.008,-1.64546 -0.13152,-1.81124 -0.14675,-0.17439 -0.25934,-0.20783 -0.69956,-0.20801 -0.43216,-1.7e-4 -0.58384,-0.0286 -0.72593,-0.13574 -0.17944,-0.13538 -0.22615,-0.25328 -0.25391,-0.64031 -0.0988,-1.3782 -0.95595,-2.48392 -2.23637,-2.88516 -0.31418,-0.0985 -0.50382,-0.13061 -1.15791,-0.13543 z m -1.62405,2.49842 1.83338,0 c 0.36933,0 0.66667,0.29735 0.66667,0.66669 0,0.36935 -0.29734,0.66668 -0.66667,0.66668 l -1.83338,0 c -0.36935,0 -0.66668,-0.29733 -0.66668,-0.66668 0,-0.36934 0.29733,-0.66669 0.66668,-0.66669 z m 0,3.66676 3.66675,0 c 0.36933,0 0.66668,0.29734 0.66668,0.66668 0,0.36934 -0.29735,0.66668 -0.66668,0.66668 l -3.66675,0 c -0.36935,0 -0.66668,-0.29734 -0.66668,-0.66668 0,-0.36934 0.29733,-0.66668 0.66668,-0.66668 z"
         style="opacity:0.2;fill:#000000;fill-opacity:1;display:inline;enable-background:new"
         inkscape:connector-curvature="0" />
      <path
         id="path6314"
         d="m 334.74461,46.010072 c -1.30818,-0.01 -2.92638,-3.5e-4 -4.98443,0.01761 -7.65939,0.06671 -7.66024,0.06701 -9.44151,0.546889 -3.62899,0.977484 -7.29633,3.267379 -9.65048,6.027396 -2.59776,3.045623 -4.07329,6.535925 -4.50785,10.666135 -0.20765,1.9735 -0.21512,13.94377 -0.0137,21.64669 0.11899,4.5509 0.19383,5.54667 0.50782,6.71101 1.65745,6.14622 6.06936,11.014378 11.90637,13.138798 1.39456,0.50754 3.60514,1.01333 4.9649,1.13673 1.66653,0.1512 23.15344,0.10568 24.94165,-0.0527 1.07785,-0.0955 2.57104,-0.33349 3.31839,-0.52931 6.64093,-1.74004 11.81727,-6.915018 13.6427,-13.638798 l 0.48243,-1.77738 0.0644,-8.99813 c 0.0687,-9.57825 0.0479,-9.87262 -0.78907,-10.86729 -0.88047,-1.04639 -1.55598,-1.24696 -4.1973,-1.24806 -2.59288,-0.001 -3.50293,-0.17126 -4.3555,-0.81446 -1.07663,-0.81224 -1.35692,-1.51962 -1.52346,-3.84184 -0.59299,-8.269052 -5.73562,-14.90327 -13.4181,-17.310726 -1.88507,-0.590712 -3.0228,-0.783595 -6.94733,-0.812506 z m -9.74423,14.990391 11.0001,0 c 2.21603,0 4.00004,1.78402 4.00004,4.00004 0,2.21603 -1.78401,4.00004 -4.00004,4.00004 l -11.0001,0 c -2.21603,0 -4.00004,-1.78401 -4.00004,-4.00004 0,-2.21602 1.78401,-4.00004 4.00004,-4.00004 z m 0,22.00022 22.00021,0 c 2.21603,0 4.00005,1.78401 4.00005,4.00004 0,2.21602 -1.78402,4.00004 -4.00005,4.00004 l -22.00021,0 c -2.21603,0 -4.00004,-1.78402 -4.00004,-4.00004 0,-2.21603 1.78401,-4.00004 4.00004,-4.00004 z"
         style="display:inline;enable-background:new;fill:#ffffff;fill-opacity:1"
         inkscape:connector-curvature="0" />
      <path
         inkscape:connector-curvature="0"
         style="fill:#ffffff;fill-opacity:1;display:inline;enable-background:new"
         d="m 319.16302,152.00681 c -0.87212,-0.007 -1.95092,-2.4e-4 -3.32295,0.0117 -5.10626,0.0445 -5.10683,0.0447 -6.29434,0.36459 -2.41932,0.65165 -4.86422,2.17825 -6.43365,4.01826 -1.73184,2.03041 -2.71552,4.35728 -3.00523,7.11075 -0.13843,1.31567 -0.14341,9.29585 -0.009,14.43112 0.0793,3.03394 0.12922,3.69778 0.33854,4.47401 1.10497,4.09748 4.04624,7.34292 7.93758,8.75919 0.9297,0.33836 2.40342,0.67556 3.30993,0.75782 1.11102,0.1008 15.43562,0.0705 16.62776,-0.0351 0.71857,-0.0637 1.71403,-0.22233 2.21226,-0.35287 4.42728,-1.16003 7.87817,-4.61001 9.09513,-9.09253 l 0.32162,-1.18492 0.0429,-5.99875 c 0.0458,-6.3855 0.0319,-6.58175 -0.52605,-7.24486 -0.58698,-0.69759 -1.03732,-0.8313 -2.79819,-0.83204 -1.72859,-6.6e-4 -2.33529,-0.11417 -2.90367,-0.54297 -0.71775,-0.54149 -0.90461,-1.01308 -1.01564,-2.56123 -0.39533,-5.5127 -3.82374,-9.93551 -8.9454,-11.54048 -1.25671,-0.3938 -2.01519,-0.52239 -4.63155,-0.54167 z m -6.49615,9.99359 7.3334,0 c 1.47735,0 2.66669,1.18934 2.66669,2.66669 0,1.47735 -1.18934,2.66669 -2.66669,2.66669 l -7.3334,0 c -1.47735,0 -2.66669,-1.18934 -2.66669,-2.66669 0,-1.47735 1.18934,-2.66669 2.66669,-2.66669 z m 0,14.6668 14.6668,0 c 1.47735,0 2.6667,1.18934 2.6667,2.66669 0,1.47735 -1.18935,2.6667 -2.6667,2.6667 l -14.6668,0 c -1.47735,0 -2.66669,-1.18935 -2.66669,-2.6667 0,-1.47735 1.18934,-2.66669 2.66669,-2.66669 z"
         id="path3841" />
      <path
         id="path3843"
         d="m 311.41395,230.0049 c -0.61048,-0.005 -1.36564,-1.6e-4 -2.32606,0.008 -3.57438,0.0311 -3.57478,0.0313 -4.40603,0.25522 -1.69352,0.45615 -3.40495,1.52477 -4.50355,2.81277 -1.21228,1.42129 -1.90086,3.05009 -2.10365,4.97752 -0.0969,0.92097 -0.10039,6.50708 -0.006,10.10176 0.0555,2.12376 0.0904,2.58845 0.23697,3.13181 0.77348,2.86823 2.83237,5.14003 5.5563,6.13142 0.65079,0.23685 1.68239,0.47289 2.31695,0.53047 0.77771,0.0706 10.80491,0.0494 11.63941,-0.0246 0.50299,-0.0446 1.19981,-0.15563 1.54857,-0.24701 3.0991,-0.81202 5.51471,-3.227 6.36658,-6.36476 l 0.22514,-0.82944 0.03,-4.19912 c 0.0321,-4.46984 0.0223,-4.60721 -0.36824,-5.07139 -0.41088,-0.48831 -0.72612,-0.58191 -1.95873,-0.58243 -1.21001,-4.6e-4 -1.6347,-0.0799 -2.03256,-0.38008 -0.50243,-0.37904 -0.63323,-0.70915 -0.71095,-1.79285 -0.27673,-3.85889 -2.67661,-6.95485 -6.26177,-8.07832 -0.87969,-0.27566 -1.41063,-0.36568 -3.24208,-0.37917 z m -4.5473,6.9955 5.13337,0 c 1.03415,0 1.86668,0.83254 1.86668,1.86668 0,1.03415 -0.83253,1.86668 -1.86668,1.86668 l -5.13337,0 c -1.03414,0 -1.86668,-0.83253 -1.86668,-1.86668 0,-1.03414 0.83254,-1.86668 1.86668,-1.86668 z m 0,10.26674 10.26674,0 c 1.03415,0 1.86669,0.83254 1.86669,1.86668 0,1.03415 -0.83254,1.86669 -1.86669,1.86669 l -10.26674,0 c -1.03414,0 -1.86668,-0.83254 -1.86668,-1.86669 0,-1.03414 0.83254,-1.86668 1.86668,-1.86668 z"
         style="fill:#ffffff;fill-opacity:1;display:inline;enable-background:new"
         inkscape:connector-curvature="0" />
      <path
         inkscape:connector-curvature="0"
         style="fill:#ffffff;fill-opacity:1;display:inline;enable-background:new"
         d="m 141.07077,86.023535 c -3.05242,-0.02333 -6.82822,-8.16e-4 -11.63033,0.04109 -17.8719,0.155657 -17.87388,0.156357 -22.03018,1.276074 -8.467644,2.280794 -17.024764,7.623875 -22.517781,14.063921 -6.061439,7.10645 -9.504342,15.25048 -10.518316,24.88763 -0.484516,4.60482 -0.501946,32.53544 -0.03197,50.50892 0.277643,10.61875 0.45227,12.94222 1.184913,15.65901 3.867383,14.34117 14.161839,25.70021 27.781514,30.65719 3.25398,1.18426 8.412,2.36443 11.58477,2.65237 3.88857,0.3528 54.02467,0.24658 58.19716,-0.12297 2.51497,-0.22283 5.99908,-0.77814 7.74289,-1.23506 15.49551,-4.06009 27.57362,-16.13504 31.83296,-31.82385 l 1.12567,-4.14722 0.15026,-20.99562 c 0.1603,-22.34924 0.11177,-23.0361 -1.84116,-25.357 -2.05443,-2.44158 -3.63062,-2.90957 -9.7937,-2.91214 -6.05004,-0.002 -8.17349,-0.39961 -10.16282,-1.90041 -2.51214,-1.89522 -3.16615,-3.54578 -3.55474,-8.96429 C 187.20627,109.01675 175.2068,93.536913 157.28102,87.919517 152.88253,86.54119 150.22783,86.09113 141.0706,86.023671 z m -22.73652,34.977555 25.66689,0 c 5.17072,0 9.33341,4.16272 9.33341,9.33343 0,5.17072 -4.16269,9.33341 -9.33341,9.33341 l -25.66689,0 c -5.17074,0 -9.33343,-4.16269 -9.33343,-9.33341 0,-5.17071 4.16269,-9.33343 9.33343,-9.33343 z m 0,51.33382 51.3338,0 c 5.17072,0 9.33343,4.16269 9.33343,9.33343 0,5.1707 -4.16271,9.33341 -9.33343,9.33341 l -51.3338,0 c -5.17074,0 -9.33343,-4.16271 -9.33343,-9.33341 0,-5.17074 4.16269,-9.33343 9.33343,-9.33343 z"
         id="path3845" />
      <path
         inkscape:connector-curvature="0"
         style="fill:#ffffff;fill-opacity:1;display:inline;enable-background:new"
         d="m 431.58176,58.003344 c -0.43606,-0.0033 -0.97546,-1.16e-4 -1.66147,0.0059 -2.55313,0.02224 -2.55342,0.02234 -3.14717,0.182297 -1.20966,0.325827 -2.43211,1.089125 -3.21683,2.009131 -0.86592,1.015207 -1.35776,2.17864 -1.50261,3.555376 -0.0692,0.657833 -0.0717,4.647922 -0.005,7.21556 0.0397,1.516971 0.0646,1.848891 0.16927,2.237001 0.55249,2.04874 2.02312,3.67146 3.96879,4.3796 0.46486,0.16918 1.20171,0.33778 1.65497,0.37891 0.55551,0.0504 7.71781,0.0352 8.31388,-0.0176 0.35928,-0.0318 0.85701,-0.11116 1.10613,-0.17643 2.21364,-0.58002 3.93909,-2.30501 4.54756,-4.54627 l 0.16081,-0.59246 0.0215,-2.999373 c 0.0229,-3.192749 0.016,-3.290872 -0.26302,-3.622429 -0.29349,-0.348796 -0.51866,-0.415653 -1.3991,-0.416019 -0.8643,-3.34e-4 -1.16765,-0.05709 -1.45184,-0.271487 -0.35887,-0.270747 -0.4523,-0.50654 -0.50782,-1.280613 -0.19766,-2.756349 -1.91187,-4.967754 -4.47269,-5.770239 -0.62836,-0.196904 -1.0076,-0.261198 -2.31578,-0.270835 z m -3.24807,4.996795 3.6667,0 c 0.73867,0 1.33334,0.594673 1.33334,1.333346 0,0.738676 -0.59467,1.333346 -1.33334,1.333346 l -3.6667,0 c -0.73868,0 -1.33335,-0.59467 -1.33335,-1.333346 0,-0.738673 0.59467,-1.333346 1.33335,-1.333346 z m 0,7.333403 7.3334,0 c 0.73867,0 1.33335,0.59467 1.33335,1.333346 0,0.738671 -0.59468,1.333351 -1.33335,1.333351 l -7.3334,0 c -0.73868,0 -1.33335,-0.59468 -1.33335,-1.333351 0,-0.738676 0.59467,-1.333346 1.33335,-1.333346 z"
         id="path3847" />
      <path
         id="path3849"
         d="m 427.70755,105.00243 c -0.30525,-0.003 -0.68283,-8e-5 -1.16305,0.004 -1.78722,0.0156 -1.78742,0.0157 -2.20305,0.12761 -0.84678,0.22808 -1.7025,0.7624 -2.25182,1.40641 -0.60615,0.71066 -0.95045,1.52507 -1.05184,2.48881 -0.0485,0.46049 -0.0502,3.25359 -0.004,5.05097 0.0278,1.0619 0.0452,1.29424 0.11849,1.56592 0.38675,1.43414 1.4162,2.57007 2.7782,3.06577 0.3254,0.11843 0.8412,0.23645 1.15849,0.26525 0.38886,0.0353 5.40255,0.0247 5.8198,-0.0123 0.25151,-0.0222 0.59992,-0.0778 0.77431,-0.12351 1.54958,-0.40601 2.75741,-1.61353 3.18335,-3.18244 l 0.11257,-0.41473 0.015,-2.09959 c 0.016,-2.23496 0.0112,-2.30365 -0.18412,-2.53574 -0.20545,-0.24416 -0.36307,-0.29096 -0.97939,-0.29122 -0.60502,-2.3e-4 -0.81737,-0.04 -1.01631,-0.19004 -0.25121,-0.18953 -0.31661,-0.35458 -0.35547,-0.89644 -0.13837,-1.92948 -1.33833,-3.47748 -3.13093,-4.03923 -0.43986,-0.13784 -0.70534,-0.18285 -1.62108,-0.1896 z m -2.27368,3.4978 2.56673,0 c 0.51707,0 0.93335,0.41628 0.93335,0.93336 0,0.51709 -0.41628,0.93336 -0.93335,0.93336 l -2.56673,0 c -0.51709,0 -0.93336,-0.41627 -0.93336,-0.93336 0,-0.51708 0.41627,-0.93336 0.93336,-0.93336 z m 0,5.13347 5.13346,0 c 0.51707,0 0.93336,0.41627 0.93336,0.93335 0,0.51708 -0.41629,0.93336 -0.93336,0.93336 l -5.13346,0 c -0.51709,0 -0.93336,-0.41628 -0.93336,-0.93336 0,-0.51708 0.41627,-0.93335 0.93336,-0.93335 z"
         style="fill:#ffffff;fill-opacity:1;display:inline;enable-background:new"
         inkscape:connector-curvature="0" />
      <path
         inkscape:connector-curvature="0"
         style="fill:#ffffff;fill-opacity:1;display:inline;enable-background:new"
         d="m 423.79065,143.00225 c -0.21803,-0.002 -0.48773,-6e-5 -0.83074,0.002 -1.27659,0.0112 -1.27673,0.0113 -1.57361,0.0912 -0.60484,0.16291 -1.21606,0.54456 -1.60843,1.00457 -0.43297,0.50761 -0.67889,1.08933 -0.75131,1.77771 -0.0347,0.32892 -0.0358,2.32399 -0.002,3.60783 0.0198,0.7585 0.0322,0.92445 0.0846,1.11851 0.27625,1.02439 1.01157,1.83576 1.98442,2.18983 0.23243,0.0846 0.60086,0.16889 0.82749,0.18947 0.27776,0.0252 3.85896,0.0177 4.15699,-0.009 0.17965,-0.0158 0.42852,-0.0556 0.55308,-0.0882 1.10684,-0.29 1.96957,-1.15252 2.27381,-2.27316 l 0.0804,-0.29624 0.0107,-1.4997 c 0.0114,-1.5964 0.008,-1.64546 -0.13152,-1.81124 -0.14675,-0.17439 -0.25934,-0.20783 -0.69956,-0.20801 -0.43216,-1.7e-4 -0.58384,-0.0286 -0.72593,-0.13574 -0.17944,-0.13538 -0.22615,-0.25328 -0.25391,-0.64031 -0.0988,-1.3782 -0.95595,-2.48392 -2.23637,-2.88516 -0.31418,-0.0985 -0.50382,-0.13061 -1.15791,-0.13543 z m -1.62405,2.49842 1.83338,0 c 0.36933,0 0.66667,0.29735 0.66667,0.66669 0,0.36935 -0.29734,0.66668 -0.66667,0.66668 l -1.83338,0 c -0.36935,0 -0.66668,-0.29733 -0.66668,-0.66668 0,-0.36934 0.29733,-0.66669 0.66668,-0.66669 z m 0,3.66676 3.66675,0 c 0.36933,0 0.66668,0.29734 0.66668,0.66668 0,0.36934 -0.29735,0.66668 -0.66668,0.66668 l -3.66675,0 c -0.36935,0 -0.66668,-0.29734 -0.66668,-0.66668 0,-0.36934 0.29733,-0.66668 0.66668,-0.66668 z"
         id="path3859" />
    </g>
    <g
       inkscape:groupmode="layer"
       id="layer5"
       inkscape:label="Highlights"
       style="display:inline"
       sodipodi:insensitive="true">
      <rect
         ry="9"
         y="307"
         x="-265"
         height="42"
         width="42"
         id="rect4884"
         style="opacity:0.20;color:#bebebe;fill:none;stroke:#000000;stroke-width:2;stroke-miterlimit:4;stroke-opacity:1;stroke-dasharray:none;marker:none;visibility:visible;display:inline;overflow:visible;enable-background:accumulate"
         transform="matrix(0,1,1,0,-16,488)"
         clip-path="url(#clipPath4891)" />
      <rect
         style="opacity:0.20;color:#bebebe;fill:none;stroke:#000000;stroke-width:2;stroke-miterlimit:4;stroke-opacity:1;stroke-dasharray:none;marker:none;visibility:visible;display:inline;overflow:visible;enable-background:accumulate"
         id="rect5311"
         width="16"
         height="16"
         x="-228"
         y="304"
         ry="3"
         clip-path="url(#clipPath3855)"
         transform="matrix(0,-1,1,0,112,-72)" />
      <rect
         ry="50"
         y="46"
         x="34"
         height="220"
         width="220"
         id="rect3858"
         style="opacity:0.20;color:#bebebe;fill:none;stroke:#000000;stroke-width:2;stroke-miterlimit:4;stroke-opacity:1;stroke-dasharray:none;marker:none;visibility:visible;display:inline;overflow:visible;enable-background:accumulate"
         clip-path="url(#clipPath3862)" />
      <rect
         ry="12.5"
         y="142"
         x="290"
         height="60"
         width="60"
         id="rect4175"
         style="opacity:0.20;color:#bebebe;fill:none;stroke:#000000;stroke-width:2;stroke-miterlimit:4;stroke-opacity:1;stroke-dasharray:none;marker:none;visibility:visible;display:inline;overflow:visible;enable-background:accumulate"
         clip-path="url(#clipPath4187)" />
      <rect
         style="opacity:0.20;color:#bebebe;fill:none;stroke:#000000;stroke-width:2;stroke-miterlimit:4;stroke-opacity:1;stroke-dasharray:none;marker:none;visibility:visible;display:inline;overflow:visible;enable-background:accumulate"
         id="rect4342"
         width="88"
         height="88"
         x="292"
         y="32"
         ry="18"
         clip-path="url(#clipPath4346)" />
      <rect
         ry="5"
         y="101"
         x="417"
         height="22"
         width="22"
         id="rect3866"
         style="opacity:0.20;color:#bebebe;fill:none;stroke:#000000;stroke-width:2;stroke-miterlimit:4;stroke-opacity:1;stroke-dasharray:none;marker:none;visibility:visible;display:inline;overflow:visible;enable-background:accumulate"
         clip-path="url(#clipPath3871)" />
      <rect
         style="opacity:0.20;color:#bebebe;fill:none;stroke:#000000;stroke-width:2;stroke-miterlimit:4;stroke-opacity:1;stroke-dasharray:none;marker:none;visibility:visible;display:inline;overflow:visible;enable-background:accumulate"
         id="rect3877"
         width="30"
         height="30"
         x="417"
         y="53"
         ry="7"
         clip-path="url(#clipPath3881)" />
    </g>
  </g>
</svg>
