<?xml version="1.0" encoding="UTF-8" standalone="no"?>
<!-- Created with Inkscape (http://www.inkscape.org/) -->

<svg
   xmlns:dc="http://purl.org/dc/elements/1.1/"
   xmlns:cc="http://creativecommons.org/ns#"
   xmlns:rdf="http://www.w3.org/1999/02/22-rdf-syntax-ns#"
   xmlns:svg="http://www.w3.org/2000/svg"
   xmlns="http://www.w3.org/2000/svg"
   xmlns:xlink="http://www.w3.org/1999/xlink"
   xmlns:sodipodi="http://sodipodi.sourceforge.net/DTD/sodipodi-0.dtd"
   xmlns:inkscape="http://www.inkscape.org/namespaces/inkscape"
   inkscape:export-ydpi="90.000000"
   inkscape:export-xdpi="90.000000"
   width="480"
   height="300"
   id="svg11300"
   sodipodi:version="0.32"
   inkscape:version="0.48.4 r9939"
   sodipodi:docname="system-software-install.svg"
   inkscape:output_extension="org.inkscape.output.svg.inkscape"
   version="1.0"
   style="display:inline;enable-background:new"
   inkscape:export-filename="/home/sam/moka-next-template.png">
  <sodipodi:namedview
     stroke="#ef2929"
     fill="#f57900"
     id="base"
     pagecolor="#777777"
     bordercolor="#666666"
     borderopacity="0.25490196"
     inkscape:pageopacity="0"
     inkscape:pageshadow="2"
     inkscape:zoom="1"
     inkscape:cx="420.50313"
     inkscape:cy="157.64729"
     inkscape:current-layer="layer7"
     showgrid="false"
     inkscape:grid-bbox="true"
     inkscape:document-units="px"
     inkscape:showpageshadow="false"
     inkscape:window-width="1364"
     inkscape:window-height="700"
     inkscape:window-x="0"
     inkscape:window-y="28"
     width="400px"
     height="300px"
     inkscape:snap-nodes="true"
     inkscape:snap-bbox="true"
     gridtolerance="10000"
     inkscape:object-nodes="true"
     inkscape:snap-grids="true"
     showguides="true"
     inkscape:guide-bbox="true"
     inkscape:window-maximized="1"
     inkscape:bbox-nodes="true"
     inkscape:bbox-paths="true"
     inkscape:snap-bbox-edge-midpoints="true"
     inkscape:snap-bbox-midpoints="true">
    <inkscape:grid
       spacingy="1px"
       spacingx="1px"
       id="grid5883"
       type="xygrid"
       enabled="true"
       visible="true"
       empspacing="4"
       snapvisiblegridlinesonly="true"
       dotted="false"
       color="#000000"
       opacity="0.1254902"
       empcolor="#203ef3"
       empopacity="0.36470588" />
    <inkscape:grid
       type="xygrid"
       id="grid11592"
       empspacing="8"
       visible="true"
       enabled="false"
       spacingx="0.5px"
       spacingy="0.5px"
       color="#ff0000"
       opacity="0.1254902"
       empcolor="#ff0000"
       empopacity="0.25098039"
       snapvisiblegridlinesonly="true"
       dotted="true" />
  </sodipodi:namedview>
  <defs
     id="defs3">
    <linearGradient
       inkscape:collect="always"
       xlink:href="#outerBackgroundGradient-7"
       id="linearGradient4254"
       x1="35"
       y1="156"
       x2="253"
       y2="156"
       gradientUnits="userSpaceOnUse"
       gradientTransform="matrix(0,-1,1,0,-12,300)" />
    <linearGradient
       inkscape:collect="always"
       xlink:href="#outerBackgroundGradient-7"
       id="linearGradient4256"
       x1="417"
       y1="148"
       x2="431"
       y2="148"
       gradientUnits="userSpaceOnUse"
       gradientTransform="matrix(0,-1,1,0,276,572)" />
    <linearGradient
       inkscape:collect="always"
       xlink:href="#outerBackgroundGradient-7"
       id="linearGradient4260"
       x1="418"
       y1="68"
       x2="446"
       y2="68"
       gradientUnits="userSpaceOnUse"
       gradientTransform="matrix(0,-1,1,0,364,500)" />
    <linearGradient
       inkscape:collect="always"
       xlink:href="#outerBackgroundGradient-7"
       id="linearGradient4262"
       x1="292"
       y1="244"
       x2="332"
       y2="244"
       gradientUnits="userSpaceOnUse"
       gradientTransform="matrix(0,-1,1,0,68,556)" />
    <linearGradient
       inkscape:collect="always"
       xlink:href="#outerBackgroundGradient-7"
       id="linearGradient4264"
       x1="293"
       y1="76"
       x2="379"
       y2="76"
       gradientUnits="userSpaceOnUse"
       gradientTransform="matrix(0,-1,1,0,260,412)" />
    <linearGradient
       inkscape:collect="always"
       xlink:href="#outerBackgroundGradient-7"
       id="linearGradient4266"
       x1="291"
       y1="172"
       x2="349"
       y2="172"
       gradientUnits="userSpaceOnUse"
       gradientTransform="matrix(0,-1,1,0,148,492)" />
    <linearGradient
       inkscape:collect="always"
       xlink:href="#outerBackgroundGradient-7"
       id="linearGradient3870"
       gradientUnits="userSpaceOnUse"
       gradientTransform="matrix(0,-1,1,0,316,540)"
       x1="418"
       y1="112"
       x2="438"
       y2="112" />
    <linearGradient
       id="outerBackgroundGradient-7">
      <stop
         style="stop-color:#3283e4;stop-opacity:1"
         offset="0"
         id="stop3864-8-6-8" />
      <stop
         style="stop-color:#25bdf0;stop-opacity:1"
         offset="1"
         id="stop3866-9-1-8" />
    </linearGradient>
  </defs>
  <metadata
     id="metadata4">
    <rdf:RDF>
      <cc:Work
         rdf:about="">
        <dc:format>image/svg+xml</dc:format>
        <dc:type
           rdf:resource="http://purl.org/dc/dcmitype/StillImage" />
        <dc:creator>
          <cc:Agent>
            <dc:title>Sam Hewitt</dc:title>
          </cc:Agent>
        </dc:creator>
        <dc:source />
        <cc:license
           rdf:resource="" />
        <dc:title />
        <dc:subject>
          <rdf:Bag />
        </dc:subject>
        <dc:date />
        <dc:rights>
          <cc:Agent>
            <dc:title />
          </cc:Agent>
        </dc:rights>
        <dc:publisher>
          <cc:Agent>
            <dc:title />
          </cc:Agent>
        </dc:publisher>
        <dc:identifier />
        <dc:relation />
        <dc:language />
        <dc:coverage />
        <dc:description />
        <dc:contributor>
          <cc:Agent>
            <dc:title />
          </cc:Agent>
        </dc:contributor>
      </cc:Work>
      <cc:Work
         rdf:about="">
        <dc:format>image/svg+xml</dc:format>
        <dc:type
           rdf:resource="http://purl.org/dc/dcmitype/StillImage" />
      </cc:Work>
    </rdf:RDF>
  </metadata>
  <g
     style="display:inline"
     inkscape:groupmode="layer"
     inkscape:label="Icon"
     id="layer1">
    <g
       style="display:none"
       inkscape:label="Baseplate"
       id="layer7"
       inkscape:groupmode="layer">
      <text
         y="19.745117"
         xml:space="preserve"
         x="15.006836"
         style="font-style:normal;font-variant:normal;font-weight:normal;font-stretch:normal;line-height:0%;font-family:'DejaVu Sans';-inkscape-font-specification:'DejaVu Sans';display:inline;fill:#000000;fill-opacity:1;stroke:none;enable-background:new"
         inkscape:label="context"
         id="context"><tspan
           style="font-style:normal;font-variant:normal;font-weight:normal;font-stretch:normal;font-size:18px;line-height:1.25;font-family:'DejaVu Sans';-inkscape-font-specification:'DejaVu Sans'"
           y="19.745117"
           x="15.006836"
           sodipodi:role="line"
           id="tspan3933">apps</tspan></text>
      <text
         y="19.745117"
         xml:space="preserve"
         x="122.48828"
         style="font-style:normal;font-variant:normal;font-weight:bold;font-stretch:normal;line-height:0%;font-family:'DejaVu Sans';-inkscape-font-specification:'DejaVu Sans Bold';text-align:start;writing-mode:lr-tb;text-anchor:start;display:inline;fill:#000000;fill-opacity:1;stroke:none;enable-background:new"
         inkscape:label="icon-name"
         id="icon-name"><tspan
           style="font-style:normal;font-variant:normal;font-weight:bold;font-stretch:normal;font-size:18px;line-height:1.25;font-family:'DejaVu Sans';-inkscape-font-specification:'DejaVu Sans Bold'"
           y="19.745117"
           x="122.48828"
           sodipodi:role="line"
           id="tspan3937">system-software-install</tspan></text>
      <rect
         style="fill:#eeeeec;fill-opacity:1;fill-rule:nonzero;stroke:none;stroke-width:2;marker:none;visibility:visible;display:inline;overflow:visible;enable-background:accumulate"
         id="rect16x16"
         width="16"
         height="16"
         x="416"
         y="140"
         inkscape:label="16x16" />
      <rect
         style="fill:#d4d4d4;fill-opacity:1;fill-rule:nonzero;stroke:none;stroke-width:2;marker:none;visibility:visible;display:inline;overflow:visible;enable-background:accumulate"
         id="rect24x24"
         width="24"
         height="24"
         x="416"
         y="100"
         inkscape:label="24x24" />
      <rect
         style="fill:#eeeeec;fill-opacity:1;fill-rule:nonzero;stroke:none;stroke-width:2;marker:none;visibility:visible;display:inline;overflow:visible;enable-background:accumulate"
         id="rect32x32"
         width="32"
         height="32"
         x="416"
         y="52"
         inkscape:label="32x32" />
      <rect
         inkscape:label="22x22"
         y="101"
         x="417"
         height="22"
         width="22"
         id="rect22x22"
         style="fill:#eeeeec;fill-opacity:1;fill-rule:nonzero;stroke:none;stroke-width:2;marker:none;visibility:visible;display:inline;overflow:visible;enable-background:accumulate" />
      <rect
         inkscape:label="48x48"
         y="220"
         x="288"
         height="48"
         width="48"
         id="rect48x48"
         style="fill:#eeeeec;fill-opacity:1;fill-rule:nonzero;stroke:none;stroke-width:2;marker:none;visibility:visible;display:inline;overflow:visible;enable-background:accumulate" />
      <rect
         style="fill:#eeeeec;fill-opacity:1;fill-rule:nonzero;stroke:none;stroke-width:2;marker:none;visibility:visible;display:inline;overflow:visible;enable-background:accumulate"
         id="rect256x256"
         width="256"
         height="256"
         x="16"
         y="28"
         inkscape:label="256x256" />
      <rect
         style="fill:#eeeeec;fill-opacity:1;fill-rule:nonzero;stroke:none;stroke-width:2;marker:none;visibility:visible;display:inline;overflow:visible;enable-background:accumulate"
         id="rect64x64"
         width="64"
         height="64"
         x="288"
         y="140"
         inkscape:label="64x64" />
      <rect
         style="fill:#eeeeec;fill-opacity:1;fill-rule:nonzero;stroke:none;stroke-width:2;marker:none;visibility:visible;display:inline;overflow:visible;enable-background:accumulate"
         id="rect96x96"
         width="96"
         height="96"
         x="288"
         y="28"
         inkscape:label="96x96" />
    </g>
    <g
       inkscape:groupmode="layer"
       id="layer4"
       inkscape:label="Shadow"
       style="display:inline"
       sodipodi:insensitive="true">
      <rect
         ry="50"
         y="47"
         x="34"
         height="220"
         width="220"
         id="rect4114"
         style="opacity:0.1;color:#bebebe;fill:#000000;fill-opacity:1;fill-rule:nonzero;stroke:none;stroke-width:0;marker:none;visibility:visible;display:inline;overflow:visible;enable-background:accumulate" />
      <rect
         style="opacity:0.1;color:#bebebe;fill:#000000;fill-opacity:1;fill-rule:nonzero;stroke:none;stroke-width:0;marker:none;visibility:visible;display:inline;overflow:visible;enable-background:accumulate"
         id="rect4120"
         width="30"
         height="30"
         x="417"
         y="54"
         ry="7" />
      <rect
         transform="scale(1,-1)"
         ry="9"
         y="-266"
         x="291"
         height="42"
         width="42"
         id="rect4122"
         style="opacity:0.1;color:#bebebe;fill:#000000;fill-opacity:1;fill-rule:nonzero;stroke:none;stroke-width:0;marker:none;visibility:visible;display:inline;overflow:visible;enable-background:accumulate" />
      <rect
         style="opacity:0.1;color:#bebebe;fill:#000000;fill-opacity:1;fill-rule:nonzero;stroke:none;stroke-width:0;marker:none;visibility:visible;display:inline;overflow:visible;enable-background:accumulate"
         id="rect4124"
         width="88"
         height="88"
         x="292"
         y="33"
         ry="18" />
      <rect
         ry="12.5"
         y="143"
         x="290"
         height="60"
         width="60"
         id="rect4126"
         style="opacity:0.1;color:#bebebe;fill:#000000;fill-opacity:1;fill-rule:nonzero;stroke:none;stroke-width:0;marker:none;visibility:visible;display:inline;overflow:visible;enable-background:accumulate" />
      <path
         id="path4268"
         d="m 422,101 c -2.77,0 -5,2.23 -5,5 l 0,12 c 0,2.77 2.23,5 5,5 l 12,0 c 2.77,0 5,-2.23 5,-5 l 0,-12 c 0,-2.77 -2.23,-5 -5,-5 z"
         style="opacity:0.1;color:#bebebe;fill:#000000;fill-opacity:1;fill-rule:nonzero;stroke:none;stroke-width:0;marker:none;visibility:visible;display:inline;overflow:visible;enable-background:accumulate"
         inkscape:connector-curvature="0"
         sodipodi:nodetypes="sssssssss" />
      <path
         id="path4270"
         d="m 419,140 c -1.662,0 -3,1.338 -3,3 l 0,10 c 0,1.662 1.338,3 3,3 l 10,0 c 1.662,0 3,-1.338 3,-3 l 0,-10 c 0,-1.662 -1.338,-3 -3,-3 z"
         style="opacity:0.1;color:#bebebe;fill:#000000;fill-opacity:1;fill-rule:nonzero;stroke:none;stroke-width:0;marker:none;visibility:visible;display:inline;overflow:visible;enable-background:accumulate"
         inkscape:connector-curvature="0"
         sodipodi:nodetypes="sssssssss" />
    </g>
    <g
       inkscape:groupmode="layer"
       id="layer2"
       inkscape:label="Background"
       style="display:inline">
      <path
         style="color:#bebebe;fill:url(#linearGradient4254);fill-opacity:1.0;fill-rule:nonzero;stroke:none;stroke-width:2;marker:none;visibility:visible;display:inline;overflow:visible;enable-background:accumulate"
         d="M 84 46.5 C 56.568735 46.5 34.5 68.568732 34.5 96 L 34.5 216 C 34.5 243.43127 56.568735 265.5 84 265.5 L 204 265.5 C 231.43127 265.5 253.5 243.43127 253.5 216 L 253.5 96 C 253.5 68.568732 231.43127 46.5 204 46.5 L 84 46.5 z "
         id="path4200" />
      <path
         style="color:#bebebe;fill:url(#linearGradient4256);fill-opacity:1.0;fill-rule:nonzero;stroke:none;stroke-width:2;marker:none;visibility:visible;display:inline;overflow:visible;enable-background:accumulate"
         d="M 419 140.5 C 417.6156 140.5 416.5 141.6156 416.5 143 L 416.5 153 C 416.5 154.3844 417.6156 155.5 419 155.5 L 429 155.5 C 430.3844 155.5 431.5 154.3844 431.5 153 L 431.5 143 C 431.5 141.6156 430.3844 140.5 429 140.5 L 419 140.5 z "
         id="path4202" />
      <path
         style="color:#bebebe;fill:url(#linearGradient3870);fill-opacity:1.0;fill-rule:nonzero;stroke:none;stroke-width:2;marker:none;visibility:visible;display:inline;overflow:visible;enable-background:accumulate"
         d="M 422 101.5 C 419.50301 101.5 417.5 103.50301 417.5 106 L 417.5 118 C 417.5 120.49699 419.50301 122.5 422 122.5 L 434 122.5 C 436.49699 122.5 438.5 120.49699 438.5 118 L 438.5 106 C 438.5 103.50301 436.49699 101.5 434 101.5 L 422 101.5 z "
         id="path4204" />
      <path
         style="color:#bebebe;fill:url(#linearGradient4260);fill-opacity:1.0;fill-rule:nonzero;stroke:none;stroke-width:2;marker:none;visibility:visible;display:inline;overflow:visible;enable-background:accumulate"
         d="M 424 53.5 C 420.39346 53.5 417.5 56.393464 417.5 60 L 417.5 76 C 417.5 79.606536 420.39346 82.5 424 82.5 L 440 82.5 C 443.60654 82.5 446.5 79.606536 446.5 76 L 446.5 60 C 446.5 56.393464 443.60654 53.5 440 53.5 L 424 53.5 z "
         id="path4206" />
      <path
         style="color:#bebebe;fill:url(#linearGradient4262);fill-opacity:1.0;fill-rule:nonzero;stroke:none;stroke-width:2;marker:none;visibility:visible;display:inline;overflow:visible;enable-background:accumulate"
         d="M 300 223.5 C 295.28469 223.5 291.5 227.28469 291.5 232 L 291.5 256 C 291.5 260.71531 295.28469 264.5 300 264.5 L 324 264.5 C 328.71531 264.5 332.5 260.71531 332.5 256 L 332.5 232 C 332.5 227.28469 328.71531 223.5 324 223.5 L 300 223.5 z "
         id="path4208" />
      <path
         style="color:#bebebe;fill:url(#linearGradient4264);fill-opacity:1.0;fill-rule:nonzero;stroke:none;stroke-width:2;marker:none;visibility:visible;display:inline;overflow:visible;enable-background:accumulate"
         d="M 310 32.5 C 300.29745 32.5 292.5 40.297452 292.5 50 L 292.5 102 C 292.5 111.70255 300.29745 119.5 310 119.5 L 362 119.5 C 371.70255 119.5 379.5 111.70255 379.5 102 L 379.5 50 C 379.5 40.297452 371.70255 32.5 362 32.5 L 310 32.5 z "
         id="path4210" />
      <path
         style="color:#bebebe;fill:url(#linearGradient4266);fill-opacity:1.0;fill-rule:nonzero;stroke:none;stroke-width:2;marker:none;visibility:visible;display:inline;overflow:visible;enable-background:accumulate"
         d="M 302.5 142.5 C 295.84498 142.5 290.5 147.84498 290.5 154.5 L 290.5 189.5 C 290.5 196.15502 295.84498 201.5 302.5 201.5 L 337.5 201.5 C 344.15502 201.5 349.5 196.15502 349.5 189.5 L 349.5 154.5 C 349.5 147.84498 344.15502 142.5 337.5 142.5 L 302.5 142.5 z "
         id="path4212" />
    </g>
    <g
       inkscape:groupmode="layer"
       id="layer6"
       inkscape:label="Symbols"
       style="display:inline">
      <path
         inkscape:connector-curvature="0"
         style="font-size:medium;font-style:normal;font-variant:normal;font-weight:normal;font-stretch:normal;text-indent:0;text-align:start;text-decoration:none;line-height:normal;letter-spacing:normal;word-spacing:normal;text-transform:none;direction:ltr;block-progression:tb;writing-mode:lr-tb;text-anchor:start;baseline-shift:baseline;opacity:0.2;color:#000000;fill:#000000;fill-opacity:1;stroke:none;stroke-width:1.99999976;marker:none;visibility:visible;display:inline;overflow:visible;enable-background:accumulate;font-family:Sans;-inkscape-font-specification:Sans"
         d="m 132,81 0,111.125 -27.25,-27.25 C 102.40268,162.61564 98.766,161.00052 96,161 l -12,0 0,12 c 4e-5,1.04344 0.11768,2.00564 0.25,2.875 0.006,0.0409 -0.006,0.0842 0,0.125 0.13224,0.81832 0.23924,1.5482 0.5,2.25 0.5888,2.01548 1.48248,3.813 2.625,5 L 144,237.875 200.625,183.25 c 1.14252,-1.187 2.0362,-2.98452 2.625,-5 0.26076,-0.7018 0.36776,-1.43168 0.5,-2.25 0.006,-0.0408 -0.006,-0.0841 0,-0.125 0.13232,-0.86936 0.24996,-1.83156 0.25,-2.875 l 0,-12 -12,0 c -2.766,5.2e-4 -6.40268,1.61564 -8.75,3.875 L 156,192.125 156,81 l -12,0 -12,0 z"
         id="path3886" />
      <path
         id="path3882"
         d="m 317,154.00025 0,27.78125 -6.8125,-6.8125 c -0.58683,-0.56484 -1.496,-0.96862 -2.1875,-0.96875 l -3,0 0,3 c 10e-6,0.26086 0.0294,0.50141 0.0625,0.71875 0.002,0.0102 -0.002,0.0211 0,0.0312 0.0331,0.20458 0.0598,0.38705 0.125,0.5625 0.1472,0.50387 0.37062,0.95325 0.65625,1.25 L 320,193.219 334.15625,179.56275 c 0.28563,-0.29675 0.50905,-0.74613 0.65625,-1.25 0.0652,-0.17545 0.0919,-0.35792 0.125,-0.5625 0.002,-0.0102 -0.002,-0.021 0,-0.0312 0.0331,-0.21734 0.0625,-0.45789 0.0625,-0.71875 l 0,-3 -3,0 c -0.6915,1.3e-4 -1.60067,0.40391 -2.1875,0.96875 l -6.8125,6.8125 0,-27.78125 -3,0 -3,0 z"
         style="font-size:medium;font-style:normal;font-variant:normal;font-weight:normal;font-stretch:normal;text-indent:0;text-align:start;text-decoration:none;line-height:normal;letter-spacing:normal;word-spacing:normal;text-transform:none;direction:ltr;block-progression:tb;writing-mode:lr-tb;text-anchor:start;baseline-shift:baseline;opacity:0.2;color:#000000;fill:#000000;fill-opacity:1;stroke:none;stroke-width:1.99999976;marker:none;visibility:visible;display:inline;overflow:visible;enable-background:accumulate;font-family:Sans;-inkscape-font-specification:Sans"
         inkscape:connector-curvature="0" />
      <path
         inkscape:connector-curvature="0"
         id="path3868"
         d="m 427,105.9998 0,9.59375 -2.25,-2.25 c -0.20675,-0.199 -0.57226,-0.34372 -0.75,-0.34375 l -1,0 0,1 c 2e-5,0.14627 0.0337,0.28057 0.0625,0.40625 0.007,0.0252 -0.009,0.0706 0,0.0937 0.0557,0.19363 0.1427,0.35816 0.21875,0.4375 L 428,119.406 l 4.71875,-4.46875 c 0.0761,-0.0793 0.16304,-0.24387 0.21875,-0.4375 0.003,-0.0101 -0.003,-0.021 0,-0.0312 0.0149,-0.0408 0.0219,-0.10806 0.0312,-0.15625 0.0161,-0.0961 0.0312,-0.20669 0.0312,-0.3125 l 0,-1 -1,0 c -0.17774,3e-5 -0.54325,0.14475 -0.75,0.34375 l -2.25,2.25 0,-9.59375 -1,0 -1,0 z"
         style="font-size:medium;font-style:normal;font-variant:normal;font-weight:normal;font-stretch:normal;text-indent:0;text-align:start;text-decoration:none;line-height:normal;letter-spacing:normal;word-spacing:normal;text-transform:none;direction:ltr;block-progression:tb;writing-mode:lr-tb;text-anchor:start;baseline-shift:baseline;opacity:0.2;color:#000000;fill:#000000;fill-opacity:1;stroke:none;stroke-width:1.99999976;marker:none;visibility:visible;display:inline;overflow:visible;enable-background:accumulate;font-family:Sans;-inkscape-font-specification:Sans" />
      <path
         id="path3863"
         d="m 331,48.9995 0,1 0,35.9375 -7.28125,-7.28125 -0.0312,0 c -0.53837,-0.518189 -1.20043,-0.905797 -1.84375,-1.1875 C 321.20038,77.186547 320.62677,76.999606 320,76.9995 l -4,0 -1,0 0,1 0,4 c 2e-5,0.959398 0.11144,1.681918 0.375,2.34375 l -0.0312,0 c 0.0118,0.03998 0.0506,0.0544 0.0625,0.09375 0.23797,0.786445 0.49197,1.470023 1,2 l 0,0.03125 0.0312,0 18.875,17.9375 0.6875,0.65625 0.6875,-0.65625 18.875,-17.9375 0.0312,0 0,-0.03125 c 0.50803,-0.529977 0.76203,-1.213555 1,-2 0.0119,-0.03935 0.0507,-0.05377 0.0625,-0.09375 l -0.0312,0 c 0.26353,-0.661797 0.37498,-1.384338 0.375,-2.34375 l 0,-4 0,-1 -1,0 -4,0 c -0.62677,1.06e-4 -1.20043,0.187047 -1.84375,0.46875 -0.64332,0.281703 -1.30538,0.669311 -1.84375,1.1875 l -0.0312,0 L 341,85.937 l 0,-35.9375 0,-1 -1,0 -4,0 -4,0 -1,0 z"
         style="font-size:medium;font-style:normal;font-variant:normal;font-weight:normal;font-stretch:normal;text-indent:0;text-align:start;text-decoration:none;line-height:normal;letter-spacing:normal;word-spacing:normal;text-transform:none;direction:ltr;block-progression:tb;writing-mode:lr-tb;text-anchor:start;baseline-shift:baseline;opacity:0.2;color:#000000;fill:#000000;fill-opacity:1;stroke:none;stroke-width:1.99999976;marker:none;visibility:visible;display:inline;overflow:visible;enable-background:accumulate;font-family:Sans;-inkscape-font-specification:Sans"
         inkscape:connector-curvature="0" />
      <path
         style="font-size:medium;font-style:normal;font-variant:normal;font-weight:normal;font-stretch:normal;text-indent:0;text-align:start;text-decoration:none;line-height:normal;letter-spacing:normal;word-spacing:normal;text-transform:none;direction:ltr;block-progression:tb;writing-mode:lr-tb;text-anchor:start;baseline-shift:baseline;color:#000000;fill:#ffffff;fill-opacity:1;stroke:none;stroke-width:1.99999976;marker:none;visibility:visible;display:inline;overflow:visible;enable-background:accumulate;font-family:Sans;-inkscape-font-specification:Sans"
         d="m 331,48 0,1 0,35.9375 -7.28125,-7.28125 -0.0312,0 c -0.53837,-0.518189 -1.20043,-0.905797 -1.84375,-1.1875 C 321.20038,76.187047 320.62677,76.000106 320,76 l -4,0 -1,0 0,1 0,4 c 2e-5,0.959398 0.11144,1.681918 0.375,2.34375 l -0.0312,0 c 0.0118,0.03998 0.0506,0.0544 0.0625,0.09375 0.23797,0.786445 0.49197,1.470023 1,2 l 0,0.03125 0.0312,0 18.875,17.9375 0.6875,0.65625 0.6875,-0.65625 18.875,-17.9375 0.0312,0 0,-0.03125 c 0.50803,-0.529977 0.76203,-1.213555 1,-2 0.0119,-0.03935 0.0507,-0.05377 0.0625,-0.09375 l -0.0312,0 C 356.88853,82.681953 356.99998,81.959412 357,81 l 0,-4 0,-1 -1,0 -4,0 c -0.62677,1.06e-4 -1.20043,0.187047 -1.84375,0.46875 -0.64332,0.281703 -1.30538,0.669311 -1.84375,1.1875 l -0.0312,0 L 341,84.9375 341,49 l 0,-1 -1,0 -4,0 -4,0 -1,0 z"
         id="path3852"
         inkscape:connector-curvature="0" />
      <path
         inkscape:connector-curvature="0"
         id="path3082"
         d="m 310,232.00025 0,17.15625 -0.28125,-0.25 -3.21875,-3.21875 c -0.4135,-0.398 -1.14452,-0.68744 -1.5,-0.6875 l -2,0 0,2 c 10e-6,0.46511 0.0479,0.77566 0.15625,1.03125 0.11117,0.37722 0.25691,0.68796 0.40625,0.84375 L 312,256.844 l 8.4375,-7.96875 c 0.14934,-0.15579 0.29508,-0.46653 0.40625,-0.84375 0.10834,-0.25559 0.15624,-0.56614 0.15625,-1.03125 l 0,-2 -2,0 c -0.35548,6e-5 -1.0865,0.2895 -1.5,0.6875 l -3.21875,3.21875 -0.28125,0.25 0,-17.15625 -2,0 -2,0 z"
         style="font-size:medium;font-style:normal;font-variant:normal;font-weight:normal;font-stretch:normal;text-indent:0;text-align:start;text-decoration:none;line-height:normal;letter-spacing:normal;word-spacing:normal;text-transform:none;direction:ltr;block-progression:tb;writing-mode:lr-tb;text-anchor:start;baseline-shift:baseline;opacity:0.2;color:#000000;fill:#000000;fill-opacity:1;stroke:none;stroke-width:1.99999976;marker:none;visibility:visible;display:inline;overflow:visible;enable-background:accumulate;font-family:Sans;-inkscape-font-specification:Sans" />
      <path
         sodipodi:nodetypes="ccccccccccscccccc"
         inkscape:connector-curvature="0"
         id="path4541"
         d="m 420,149.99985 c 4e-5,0.30943 0.0905,0.61463 0.28125,0.8125 L 424,154.4061 l 3.71875,-3.65625 c 0.19101,-0.19771 0.28124,-0.44055 0.28125,-0.75 l 0,-1 -1,0 c -0.25688,5e-5 -0.52871,0.12958 -0.71875,0.3125 L 425,150.5936 l 0,-6.59374 -1,0 -1,0 0,6.62499 -1.28125,-1.21875 C 421.52851,149.22337 421.2569,148.99986 421,148.99985 l -1,0 z"
         style="font-size:medium;font-style:normal;font-variant:normal;font-weight:normal;font-stretch:normal;text-indent:0;text-align:start;text-decoration:none;line-height:normal;letter-spacing:normal;word-spacing:normal;text-transform:none;direction:ltr;block-progression:tb;writing-mode:lr-tb;text-anchor:start;baseline-shift:baseline;opacity:0.2;color:#000000;fill:#000000;fill-opacity:1;stroke:none;stroke-width:1.99999976;marker:none;visibility:visible;display:inline;overflow:visible;enable-background:accumulate;font-family:Sans;-inkscape-font-specification:Sans" />
      <path
         style="font-size:medium;font-style:normal;font-variant:normal;font-weight:normal;font-stretch:normal;text-indent:0;text-align:start;text-decoration:none;line-height:normal;letter-spacing:normal;word-spacing:normal;text-transform:none;direction:ltr;block-progression:tb;writing-mode:lr-tb;text-anchor:start;baseline-shift:baseline;opacity:0.2;color:#000000;fill:#000000;fill-opacity:1;stroke:none;stroke-width:1.99999976;marker:none;visibility:visible;display:inline;overflow:visible;enable-background:accumulate;font-family:Sans;-inkscape-font-specification:Sans"
         d="m 424,70.99984 c 8e-5,0.61886 0.181,1.22926 0.5625,1.625 l 7.4375,7.1875 7.4375,-7.3125 c 0.38202,-0.39542 0.56248,-0.8811 0.5625,-1.5 l 0,-2 -2,0 c -0.51376,10e-5 -1.05742,0.25916 -1.4375,0.625 l -2.5625,2.5625 0,-13.18748 -2,0 -2,0 0,13.24998 -2.5625,-2.4375 C 427.05702,69.44688 426.5138,68.99986 426,68.99984 l -2,0 z"
         id="path4543"
         inkscape:connector-curvature="0"
         sodipodi:nodetypes="ccccccccccscccccc" />
      <path
         style="font-size:medium;font-style:normal;font-variant:normal;font-weight:normal;font-stretch:normal;text-indent:0;text-align:start;text-decoration:none;line-height:normal;letter-spacing:normal;word-spacing:normal;text-transform:none;direction:ltr;block-progression:tb;writing-mode:lr-tb;text-anchor:start;baseline-shift:baseline;color:#000000;fill:#ffffff;fill-opacity:1;stroke:none;stroke-width:1.99999976;marker:none;visibility:visible;display:inline;overflow:visible;enable-background:accumulate;font-family:Sans;-inkscape-font-specification:Sans"
         d="m 420,148.99999 c 4e-5,0.30943 0.0905,0.61463 0.28125,0.8125 l 3.71875,3.59375 3.71875,-3.65625 c 0.19101,-0.19771 0.28124,-0.44055 0.28125,-0.75 l 0,-1 -1,0 c -0.25688,5e-5 -0.52871,0.12958 -0.71875,0.3125 L 425,149.59374 425,143 l -1,0 -1,0 0,6.62499 -1.28125,-1.21875 C 421.52851,148.22351 421.2569,148 421,147.99999 l -1,0 z"
         id="path16181-9"
         inkscape:connector-curvature="0"
         sodipodi:nodetypes="ccccccccccscccccc" />
      <path
         sodipodi:nodetypes="ccccccccccscccccc"
         inkscape:connector-curvature="0"
         id="path4519"
         d="m 424,69.99998 c 8e-5,0.61886 0.181,1.22926 0.5625,1.625 l 7.4375,7.1875 7.4375,-7.3125 c 0.38202,-0.39542 0.56248,-0.8811 0.5625,-1.5 l 0,-2 -2,0 c -0.51376,1e-4 -1.05742,0.25916 -1.4375,0.625 L 434,71.18748 434,58 l -2,0 -2,0 0,13.24998 -2.5625,-2.4375 C 427.05702,68.44702 426.5138,68 426,67.99998 l -2,0 z"
         style="font-size:medium;font-style:normal;font-variant:normal;font-weight:normal;font-stretch:normal;text-indent:0;text-align:start;text-decoration:none;line-height:normal;letter-spacing:normal;word-spacing:normal;text-transform:none;direction:ltr;block-progression:tb;writing-mode:lr-tb;text-anchor:start;baseline-shift:baseline;color:#000000;fill:#ffffff;fill-opacity:1;stroke:none;stroke-width:1.99999976;marker:none;visibility:visible;display:inline;overflow:visible;enable-background:accumulate;font-family:Sans;-inkscape-font-specification:Sans" />
      <path
         inkscape:connector-curvature="0"
         style="font-size:medium;font-style:normal;font-variant:normal;font-weight:normal;font-stretch:normal;text-indent:0;text-align:start;text-decoration:none;line-height:normal;letter-spacing:normal;word-spacing:normal;text-transform:none;direction:ltr;block-progression:tb;writing-mode:lr-tb;text-anchor:start;baseline-shift:baseline;color:#000000;fill:#ffffff;fill-opacity:1;stroke:none;stroke-width:1.99999976;marker:none;visibility:visible;display:inline;overflow:visible;enable-background:accumulate;font-family:Sans;-inkscape-font-specification:Sans"
         d="m 317,153 0,27.78125 -6.8125,-6.8125 C 309.60067,173.40391 308.6915,173.00013 308,173 l -3,0 0,3 c 10e-6,0.26086 0.0294,0.50141 0.0625,0.71875 0.002,0.0102 -0.002,0.0211 0,0.0312 0.0331,0.20458 0.0598,0.38705 0.125,0.5625 0.1472,0.50387 0.37062,0.95325 0.65625,1.25 L 320,192.21875 334.15625,178.5625 c 0.28563,-0.29675 0.50905,-0.74613 0.65625,-1.25 0.0652,-0.17545 0.0919,-0.35792 0.125,-0.5625 0.002,-0.0102 -0.002,-0.021 0,-0.0312 0.0331,-0.21734 0.0625,-0.45789 0.0625,-0.71875 l 0,-3 -3,0 c -0.6915,1.3e-4 -1.60067,0.40391 -2.1875,0.96875 L 323,180.78125 323,153 l -3,0 -3,0 z"
         id="path4521" />
      <path
         style="font-size:medium;font-style:normal;font-variant:normal;font-weight:normal;font-stretch:normal;text-indent:0;text-align:start;text-decoration:none;line-height:normal;letter-spacing:normal;word-spacing:normal;text-transform:none;direction:ltr;block-progression:tb;writing-mode:lr-tb;text-anchor:start;baseline-shift:baseline;color:#000000;fill:#ffffff;fill-opacity:1;stroke:none;stroke-width:1.99999976;marker:none;visibility:visible;display:inline;overflow:visible;enable-background:accumulate;font-family:Sans;-inkscape-font-specification:Sans"
         d="m 427,105 0,9.59375 -2.25,-2.25 C 424.54325,112.14475 424.17774,112.00003 424,112 l -1,0 0,1 c 2e-5,0.14627 0.0337,0.28057 0.0625,0.40625 0.007,0.0252 -0.009,0.0706 0,0.0937 0.0557,0.19363 0.1427,0.35816 0.21875,0.4375 L 428,118.4062 l 4.71875,-4.46875 c 0.0761,-0.0793 0.16304,-0.24387 0.21875,-0.4375 0.003,-0.0101 -0.003,-0.021 0,-0.0312 0.0149,-0.0408 0.0219,-0.10806 0.0312,-0.15625 0.0161,-0.0961 0.0312,-0.20669 0.0312,-0.3125 l 0,-1 -1,0 c -0.17774,3e-5 -0.54325,0.14475 -0.75,0.34375 l -2.25,2.25 0,-9.59375 -1,0 -1,0 z"
         id="path4534"
         inkscape:connector-curvature="0" />
      <path
         style="font-size:medium;font-style:normal;font-variant:normal;font-weight:normal;font-stretch:normal;text-indent:0;text-align:start;text-decoration:none;line-height:normal;letter-spacing:normal;word-spacing:normal;text-transform:none;direction:ltr;block-progression:tb;writing-mode:lr-tb;text-anchor:start;baseline-shift:baseline;color:#000000;fill:#ffffff;fill-opacity:1;stroke:none;stroke-width:1.99999976;marker:none;visibility:visible;display:inline;overflow:visible;enable-background:accumulate;font-family:Sans;-inkscape-font-specification:Sans"
         d="m 310,231 0,17.15625 -0.28125,-0.25 L 306.5,244.6875 c -0.4135,-0.398 -1.14452,-0.68744 -1.5,-0.6875 l -2,0 0,2 c 10e-6,0.46511 0.0479,0.77566 0.15625,1.03125 0.11117,0.37722 0.25691,0.68796 0.40625,0.84375 l 8.4375,7.96875 8.4375,-7.96875 c 0.14934,-0.15579 0.29508,-0.46653 0.40625,-0.84375 C 320.95209,246.77566 320.99999,246.46511 321,246 l 0,-2 -2,0 c -0.35548,6e-5 -1.0865,0.2895 -1.5,0.6875 l -3.21875,3.21875 -0.28125,0.25 0,-17.15625 -2,0 -2,0 z"
         id="path4537"
         inkscape:connector-curvature="0" />
      <path
         id="path3884"
         d="m 132,80 0,111.125 -27.25,-27.25 C 102.40268,161.61564 98.766,160.00052 96,160 l -12,0 0,12 c 4e-5,1.04344 0.11768,2.00564 0.25,2.875 0.006,0.0409 -0.006,0.0842 0,0.125 0.13224,0.81832 0.23924,1.5482 0.5,2.25 0.5888,2.01548 1.48248,3.813 2.625,5 L 144,236.875 200.625,182.25 c 1.14252,-1.187 2.0362,-2.98452 2.625,-5 0.26076,-0.7018 0.36776,-1.43168 0.5,-2.25 0.006,-0.0408 -0.006,-0.0841 0,-0.125 0.13232,-0.86936 0.24996,-1.83156 0.25,-2.875 l 0,-12 -12,0 c -2.766,5.2e-4 -6.40268,1.61564 -8.75,3.875 L 156,191.125 156,80 l -12,0 -12,0 z"
         style="font-size:medium;font-style:normal;font-variant:normal;font-weight:normal;font-stretch:normal;text-indent:0;text-align:start;text-decoration:none;line-height:normal;letter-spacing:normal;word-spacing:normal;text-transform:none;direction:ltr;block-progression:tb;writing-mode:lr-tb;text-anchor:start;baseline-shift:baseline;color:#000000;fill:#ffffff;fill-opacity:1;stroke:none;stroke-width:1.99999976;marker:none;visibility:visible;display:inline;overflow:visible;enable-background:accumulate;font-family:Sans;-inkscape-font-specification:Sans"
         inkscape:connector-curvature="0" />
    </g>
    <g
       inkscape:groupmode="layer"
       id="layer5"
       inkscape:label="Highlights"
       style="display:inline"
       sodipodi:insensitive="true">
      <path
         style="opacity:0.12999998;color:#bebebe;fill:#ffffff;fill-opacity:1;fill-rule:nonzero;stroke:none;stroke-width:0;marker:none;visibility:visible;display:inline;overflow:visible;enable-background:accumulate"
         d="M 84,47 C 56.836703,47 35,68.836703 35,96 l 0,1 C 35,69.836703 56.836703,48 84,48 l 120,0 c 27.1633,0 49,21.836703 49,49 l 0,-1 C 253,68.836703 231.1633,47 204,47 L 84,47 z"
         id="rect3894"
         inkscape:connector-curvature="0" />
      <path
         style="opacity:0.12999998;color:#bebebe;fill:#ffffff;fill-opacity:1;fill-rule:nonzero;stroke:none;stroke-width:0;marker:none;visibility:visible;display:inline;overflow:visible;enable-background:accumulate"
         d="m 419,141 c -1.1253,0 -2,0.8747 -2,2 l 0,1 c 0,-1.1253 0.8747,-2 2,-2 l 10,0 c 1.1253,0 2,0.8747 2,2 l 0,-1 c 0,-1.1253 -0.8747,-2 -2,-2 l -10,0 z"
         id="rect3896"
         inkscape:connector-curvature="0" />
      <path
         style="opacity:0.12999998;color:#bebebe;fill:#ffffff;fill-opacity:1;fill-rule:nonzero;stroke:none;stroke-width:0;marker:none;visibility:visible;display:inline;overflow:visible;enable-background:accumulate"
         d="m 422,102 c -2.2333,0 -4,1.7667 -4,4 l 0,1 c 0,-2.2333 1.7667,-4 4,-4 l 12,0 c 2.2333,0 4,1.7667 4,4 l 0,-1 c 0,-2.2333 -1.7667,-4 -4,-4 l -12,0 z"
         id="rect3898"
         inkscape:connector-curvature="0" />
      <path
         style="opacity:0.12999998;color:#bebebe;fill:#ffffff;fill-opacity:1;fill-rule:nonzero;stroke:none;stroke-width:0;marker:none;visibility:visible;display:inline;overflow:visible;enable-background:accumulate"
         d="m 424,54 c -3.3413,0 -6,2.658703 -6,6 l 0,1 c 0,-3.341297 2.6587,-6 6,-6 l 16,0 c 3.3413,0 6,2.658703 6,6 l 0,-1 c 0,-3.341297 -2.6587,-6 -6,-6 l -16,0 z"
         id="rect3900"
         inkscape:connector-curvature="0" />
      <path
         style="opacity:0.12999998;color:#bebebe;fill:#ffffff;fill-opacity:1;fill-rule:nonzero;stroke:none;stroke-width:0;marker:none;visibility:visible;display:inline;overflow:visible;enable-background:accumulate"
         d="m 300,224 c -4.4493,0 -8,3.5507 -8,8 l 0,1 c 0,-4.4493 3.5507,-8 8,-8 l 24,0 c 4.4493,0 8,3.5507 8,8 l 0,-1 c 0,-4.4493 -3.5507,-8 -8,-8 l -24,0 z"
         id="rect3902"
         inkscape:connector-curvature="0" />
      <path
         style="opacity:0.12999998;color:#bebebe;fill:#ffffff;fill-opacity:1;fill-rule:nonzero;stroke:none;stroke-width:0;marker:none;visibility:visible;display:inline;overflow:visible;enable-background:accumulate"
         d="m 310,33 c -9.4353,0 -17,7.564703 -17,17 l 0,1 c 0,-9.435297 7.5647,-17 17,-17 l 52,0 c 9.4353,0 17,7.564703 17,17 l 0,-1 c 0,-9.435297 -7.5647,-17 -17,-17 l -52,0 z"
         id="rect3904"
         inkscape:connector-curvature="0" />
      <path
         style="opacity:0.12999998;color:#bebebe;fill:#ffffff;fill-opacity:1;fill-rule:nonzero;stroke:none;stroke-width:0;marker:none;visibility:visible;display:inline;overflow:visible;enable-background:accumulate"
         d="m 302.5,143 c -6.3883,0 -11.5,5.1117 -11.5,11.5 l 0,1 c 0,-6.3883 5.1117,-11.5 11.5,-11.5 l 35,0 c 6.3883,0 11.5,5.1117 11.5,11.5 l 0,-1 c 0,-6.3883 -5.1117,-11.5 -11.5,-11.5 l -35,0 z"
         id="rect3906"
         inkscape:connector-curvature="0" />
      <path
         id="path4085"
         d="m 204,266 c 27.1633,0 49,-21.8367 49,-49 l 0,-1 c 0,27.1633 -21.8367,49 -49,49 L 84,265 C 56.8367,265 35,243.1633 35,216 l 0,1 c 0,27.1633 21.8367,49 49,49 l 120,0 z"
         style="opacity:0.5;color:#bebebe;fill:#000000;fill-opacity:1;fill-rule:nonzero;stroke:none;stroke-width:0;marker:none;visibility:visible;display:inline;overflow:visible;enable-background:accumulate"
         inkscape:connector-curvature="0" />
      <path
         id="path4087"
         d="m 429,156 c 1.1253,0 2,-0.8747 2,-2 l 0,-1 c 0,1.1253 -0.8747,2 -2,2 l -10,0 c -1.1253,0 -2,-0.8747 -2,-2 l 0,1 c 0,1.1253 0.8747,2 2,2 l 10,0 z"
         style="opacity:0.3;color:#bebebe;fill:#000000;fill-opacity:1;fill-rule:nonzero;stroke:none;stroke-width:0;marker:none;visibility:visible;display:inline;overflow:visible;enable-background:accumulate"
         inkscape:connector-curvature="0" />
      <path
         id="path4089"
         d="m 434,123 c 2.2333,0 4,-1.7667 4,-4 l 0,-1 c 0,2.2333 -1.7667,4 -4,4 l -12,0 c -2.2333,0 -4,-1.7667 -4,-4 l 0,1 c 0,2.2333 1.7667,4 4,4 l 12,0 z"
         style="opacity:0.3;color:#bebebe;fill:#000000;fill-opacity:1;fill-rule:nonzero;stroke:none;stroke-width:0;marker:none;visibility:visible;display:inline;overflow:visible;enable-background:accumulate"
         inkscape:connector-curvature="0" />
      <path
         id="path4091"
         d="m 440,83 c 3.3413,0 6,-2.6587 6,-6 l 0,-1 c 0,3.3413 -2.6587,6 -6,6 l -16,0 c -3.3413,0 -6,-2.6587 -6,-6 l 0,1 c 0,3.3413 2.6587,6 6,6 l 16,0 z"
         style="opacity:0.5;color:#bebebe;fill:#000000;fill-opacity:1;fill-rule:nonzero;stroke:none;stroke-width:0;marker:none;visibility:visible;display:inline;overflow:visible;enable-background:accumulate"
         inkscape:connector-curvature="0" />
      <path
         id="path4093"
         d="m 324,265 c 4.4493,0 8,-3.5507 8,-8 l 0,-1 c 0,4.4493 -3.5507,8 -8,8 l -24,0 c -4.4493,0 -8,-3.5507 -8,-8 l 0,1 c 0,4.4493 3.5507,8 8,8 l 24,0 z"
         style="opacity:0.5;color:#bebebe;fill:#000000;fill-opacity:1;fill-rule:nonzero;stroke:none;stroke-width:0;marker:none;visibility:visible;display:inline;overflow:visible;enable-background:accumulate"
         inkscape:connector-curvature="0" />
      <path
         id="path4095"
         d="m 362,120 c 9.4353,0 17,-7.5647 17,-17 l 0,-1 c 0,9.4353 -7.5647,17 -17,17 l -52,0 c -9.4353,0 -17,-7.5647 -17,-17 l 0,1 c 0,9.4353 7.5647,17 17,17 l 52,0 z"
         style="opacity:0.5;color:#bebebe;fill:#000000;fill-opacity:1;fill-rule:nonzero;stroke:none;stroke-width:0;marker:none;visibility:visible;display:inline;overflow:visible;enable-background:accumulate"
         inkscape:connector-curvature="0" />
      <path
         id="path4097"
         d="m 337.5,202 c 6.3883,0 11.5,-5.1117 11.5,-11.5 l 0,-1 c 0,6.3883 -5.1117,11.5 -11.5,11.5 l -35,0 c -6.3883,0 -11.5,-5.1117 -11.5,-11.5 l 0,1 c 0,6.3883 5.1117,11.5 11.5,11.5 l 35,0 z"
         style="opacity:0.5;color:#bebebe;fill:#000000;fill-opacity:1;fill-rule:nonzero;stroke:none;stroke-width:0;marker:none;visibility:visible;display:inline;overflow:visible;enable-background:accumulate"
         inkscape:connector-curvature="0" />
      <path
         inkscape:connector-curvature="0"
         id="path4280"
         d="M 84,265 C 56.836703,265 35,243.1633 35,216 l 0,-1 c 0,27.1633 21.836703,49 49,49 l 120,0 c 27.1633,0 49,-21.8367 49,-49 l 0,1 c 0,27.1633 -21.8367,49 -49,49 l -120,0 z"
         style="opacity:0.1;color:#bebebe;fill:#ffffff;fill-opacity:1;fill-rule:nonzero;stroke:none;stroke-width:0;marker:none;visibility:visible;display:inline;overflow:visible;enable-background:accumulate" />
      <path
         style="opacity:0.1;color:#bebebe;fill:#ffffff;fill-opacity:1;fill-rule:nonzero;stroke:none;stroke-width:0;marker:none;visibility:visible;display:inline;overflow:visible;enable-background:accumulate"
         d="m 300,264 c -4.4493,0 -8,-3.5507 -8,-8 l 0,-1 c 0,4.4493 3.5507,8 8,8 l 24,0 c 4.4493,0 8,-3.5507 8,-8 l 0,1 c 0,4.4493 -3.5507,8 -8,8 l -24,0 z"
         id="path4294"
         inkscape:connector-curvature="0" />
      <path
         style="opacity:0.1;color:#bebebe;fill:#ffffff;fill-opacity:1;fill-rule:nonzero;stroke:none;stroke-width:0;marker:none;visibility:visible;display:inline;overflow:visible;enable-background:accumulate"
         d="m 302.5,201 c -6.3883,0 -11.5,-5.1117 -11.5,-11.5 l 0,-1 c 0,6.3883 5.1117,11.5 11.5,11.5 l 35,0 c 6.3883,0 11.5,-5.1117 11.5,-11.5 l 0,1 c 0,6.3883 -5.1117,11.5 -11.5,11.5 l -35,0 z"
         id="path4296"
         inkscape:connector-curvature="0" />
      <path
         style="opacity:0.1;color:#bebebe;fill:#ffffff;fill-opacity:1;fill-rule:nonzero;stroke:none;stroke-width:0;marker:none;visibility:visible;display:inline;overflow:visible;enable-background:accumulate"
         d="m 310,119 c -9.4353,0 -17,-7.5647 -17,-17 l 0,-1 c 0,9.4353 7.5647,17 17,17 l 52,0 c 9.4353,0 17,-7.5647 17,-17 l 0,1 c 0,9.4353 -7.5647,17 -17,17 l -52,0 z"
         id="path4298"
         inkscape:connector-curvature="0" />
      <path
         style="opacity:0.1;color:#bebebe;fill:#ffffff;fill-opacity:1;fill-rule:nonzero;stroke:none;stroke-width:0;marker:none;visibility:visible;display:inline;overflow:visible;enable-background:accumulate"
         d="m 424,82 c -3.3413,0 -6,-2.658703 -6,-6 l 0,-1 c 0,3.341297 2.6587,6 6,6 l 16,0 c 3.3413,0 6,-2.658703 6,-6 l 0,1 c 0,3.341297 -2.6587,6 -6,6 l -16,0 z"
         id="path4300"
         inkscape:connector-curvature="0" />
      <path
         style="opacity:0.1;color:#bebebe;fill:#ffffff;fill-opacity:1;fill-rule:nonzero;stroke:none;stroke-width:0;marker:none;visibility:visible;display:inline;overflow:visible;enable-background:accumulate"
         d="m 422,122 c -2.2333,0 -4,-1.7667 -4,-4 l 0,-1 c 0,2.2333 1.7667,4 4,4 l 12,0 c 2.2333,0 4,-1.7667 4,-4 l 0,1 c 0,2.2333 -1.7667,4 -4,4 l -12,0 z"
         id="path4302"
         inkscape:connector-curvature="0" />
      <path
         style="opacity:0.1;color:#bebebe;fill:#ffffff;fill-opacity:1;fill-rule:nonzero;stroke:none;stroke-width:0;marker:none;visibility:visible;display:inline;overflow:visible;enable-background:accumulate"
         d="m 419,154.5 c -1.1253,0 -2,-0.8747 -2,-2 l 0,-1 c 0,1.1253 0.8747,2 2,2 l 10,0 c 1.1253,0 2,-0.8747 2,-2 l 0,1 c 0,1.1253 -0.8747,2 -2,2 l -10,0 z"
         id="path4304"
         inkscape:connector-curvature="0" />
    </g>
    <g
       inkscape:groupmode="layer"
       id="layer3"
       inkscape:label="Border"
       style="display:inline"
       sodipodi:insensitive="true">
      <path
         style="opacity:0.41000001;color:#bebebe;fill:#000000;fill-opacity:1;fill-rule:nonzero;stroke:none;stroke-width:0;marker:none;visibility:visible;display:inline;overflow:visible;enable-background:accumulate"
         d="m 422,101 c -2.77,0 -5,2.23 -5,5 l 0,12 c 0,2.77 2.23,5 5,5 l 12,0 c 2.77,0 5,-2.23 5,-5 l 0,-12 c 0,-2.77 -2.23,-5 -5,-5 l -12,0 z m 0,1 12,0 c 2.2333,0 4,1.7667 4,4 l 0,12 c 0,2.2333 -1.7667,4 -4,4 l -12,0 c -2.2333,0 -4,-1.7667 -4,-4 l 0,-12 c 0,-2.2333 1.7667,-4 4,-4 z"
         id="rect4099"
         inkscape:connector-curvature="0" />
      <path
         style="opacity:0.41000001;color:#bebebe;fill:#000000;fill-opacity:1;fill-rule:nonzero;stroke:none;stroke-width:0;marker:none;visibility:visible;display:inline;overflow:visible;enable-background:accumulate"
         d="m 424,53 c -3.878,0 -7,3.122 -7,7 l 0,16 c 0,3.878 3.122,7 7,7 l 16,0 c 3.878,0 7,-3.122 7,-7 l 0,-16 c 0,-3.878 -3.122,-7 -7,-7 l -16,0 z m 0,1 16,0 c 3.3413,0 6,2.658703 6,6 l 0,16 c 0,3.341297 -2.6587,6 -6,6 l -16,0 c -3.3413,0 -6,-2.658703 -6,-6 l 0,-16 c 0,-3.341297 2.6587,-6 6,-6 z"
         id="rect4151"
         inkscape:connector-curvature="0" />
      <path
         style="opacity:0.41000001;color:#bebebe;fill:#000000;fill-opacity:1;fill-rule:nonzero;stroke:none;stroke-width:0;marker:none;visibility:visible;display:inline;overflow:visible;enable-background:accumulate"
         d="m 419,140 c -1.662,0 -3,1.338 -3,3 l 0,10 c 0,1.662 1.338,3 3,3 l 10,0 c 1.662,0 3,-1.338 3,-3 l 0,-10 c 0,-1.662 -1.338,-3 -3,-3 l -10,0 z m 0,1 10,0 c 1.1253,0 2,0.8747 2,2 l 0,10 c 0,1.1253 -0.8747,2 -2,2 l -10,0 c -1.1253,0 -2,-0.8747 -2,-2 l 0,-10 c 0,-1.1253 0.8747,-2 2,-2 z"
         id="rect4095"
         inkscape:connector-curvature="0" />
      <path
         style="opacity:0.41000001;color:#bebebe;fill:#000000;fill-opacity:1;fill-rule:nonzero;stroke:none;stroke-width:0;marker:none;visibility:visible;display:inline;overflow:visible;enable-background:accumulate"
         d="m 300,223 c -4.986,0 -9,4.014 -9,9 l 0,24 c 0,4.986 4.014,9 9,9 l 24,0 c 4.986,0 9,-4.014 9,-9 l 0,-24 c 0,-4.986 -4.014,-9 -9,-9 l -24,0 z m 0,1 24,0 c 4.4493,0 8,3.5507 8,8 l 0,24 c 0,4.4493 -3.5507,8 -8,8 l -24,0 c -4.4493,0 -8,-3.5507 -8,-8 l 0,-24 c 0,-4.4493 3.5507,-8 8,-8 z"
         id="rect4783"
         inkscape:connector-curvature="0" />
      <path
         style="opacity:0.41000001;color:#bebebe;fill:#000000;fill-opacity:1;fill-rule:nonzero;stroke:none;stroke-width:0;marker:none;visibility:visible;display:inline;overflow:visible;enable-background:accumulate"
         d="m 302.5,142 c -6.925,0 -12.5,5.575 -12.5,12.5 l 0,35 c 0,6.925 5.575,12.5 12.5,12.5 l 35,0 c 6.925,0 12.5,-5.575 12.5,-12.5 l 0,-35 c 0,-6.925 -5.575,-12.5 -12.5,-12.5 l -35,0 z m 0,1 35,0 c 6.3883,0 11.5,5.1117 11.5,11.5 l 0,35 c 0,6.3883 -5.1117,11.5 -11.5,11.5 l -35,0 c -6.3883,0 -11.5,-5.1117 -11.5,-11.5 l 0,-35 c 0,-6.3883 5.1117,-11.5 11.5,-11.5 z"
         id="rect4515"
         inkscape:connector-curvature="0" />
      <path
         style="opacity:0.41000001;color:#bebebe;fill:#000000;fill-opacity:1;fill-rule:nonzero;stroke:none;stroke-width:0;marker:none;visibility:visible;display:inline;overflow:visible;enable-background:accumulate"
         d="m 310,32 c -9.972,0 -18,8.028 -18,18 l 0,52 c 0,9.972 8.028,18 18,18 l 52,0 c 9.972,0 18,-8.028 18,-18 l 0,-52 c 0,-9.972 -8.028,-18 -18,-18 l -52,0 z m 0,1 52,0 c 9.4353,0 17,7.564703 17,17 l 0,52 c 0,9.4353 -7.5647,17 -17,17 l -52,0 c -9.4353,0 -17,-7.5647 -17,-17 l 0,-52 c 0,-9.435297 7.5647,-17 17,-17 z"
         id="rect4511"
         inkscape:connector-curvature="0" />
      <path
         style="opacity:0.41000001;color:#bebebe;fill:#000000;fill-opacity:1;fill-rule:nonzero;stroke:none;stroke-width:0;marker:none;visibility:visible;display:inline;overflow:visible;enable-background:accumulate"
         d="M 84,46 C 56.3,46 34,68.3 34,96 l 0,120 c 0,27.7 22.3,50 50,50 l 120,0 c 27.7,0 50,-22.3 50,-50 L 254,96 C 254,68.3 231.7,46 204,46 L 84,46 z m 0,1 120,0 c 27.1633,0 49,21.836703 49,49 l 0,120 c 0,27.1633 -21.8367,49 -49,49 L 84,265 C 56.836703,265 35,243.1633 35,216 L 35,96 C 35,68.836703 56.836703,47 84,47 z"
         id="rect4040"
         inkscape:connector-curvature="0" />
    </g>
  </g>
</svg>
