<?xml version="1.0" encoding="UTF-8" standalone="no"?>
<!-- Created with Inkscape (http://www.inkscape.org/) -->

<svg
   xmlns:dc="http://purl.org/dc/elements/1.1/"
   xmlns:cc="http://creativecommons.org/ns#"
   xmlns:rdf="http://www.w3.org/1999/02/22-rdf-syntax-ns#"
   xmlns:svg="http://www.w3.org/2000/svg"
   xmlns="http://www.w3.org/2000/svg"
   xmlns:xlink="http://www.w3.org/1999/xlink"
   xmlns:sodipodi="http://sodipodi.sourceforge.net/DTD/sodipodi-0.dtd"
   xmlns:inkscape="http://www.inkscape.org/namespaces/inkscape"
   inkscape:export-ydpi="90.000000"
   inkscape:export-xdpi="90.000000"
   width="480"
   height="300"
   id="svg11300"
   sodipodi:version="0.32"
   inkscape:version="0.48.4 r9939"
   sodipodi:docname="mendeley.svg"
   inkscape:output_extension="org.inkscape.output.svg.inkscape"
   version="1.0"
   style="display:inline;enable-background:new"
   inkscape:export-filename="/home/sam/moka-next-template.png">
  <sodipodi:namedview
     stroke="#ef2929"
     fill="#f57900"
     id="base"
     pagecolor="#777777"
     bordercolor="#666666"
     borderopacity="0.25490196"
     inkscape:pageopacity="0"
     inkscape:pageshadow="2"
     inkscape:zoom="1"
     inkscape:cx="419.88586"
     inkscape:cy="145.06164"
     inkscape:current-layer="layer7"
     showgrid="false"
     inkscape:grid-bbox="true"
     inkscape:document-units="px"
     inkscape:showpageshadow="false"
     inkscape:window-width="1364"
     inkscape:window-height="700"
     inkscape:window-x="0"
     inkscape:window-y="28"
     width="400px"
     height="300px"
     inkscape:snap-nodes="true"
     inkscape:snap-bbox="true"
     gridtolerance="10000"
     inkscape:object-nodes="true"
     inkscape:snap-grids="true"
     showguides="true"
     inkscape:guide-bbox="true"
     inkscape:window-maximized="1"
     inkscape:bbox-nodes="true"
     inkscape:bbox-paths="true"
     inkscape:snap-bbox-edge-midpoints="true"
     inkscape:snap-bbox-midpoints="true">
    <inkscape:grid
       spacingy="1px"
       spacingx="1px"
       id="grid5883"
       type="xygrid"
       enabled="true"
       visible="true"
       empspacing="4"
       snapvisiblegridlinesonly="true"
       dotted="false"
       color="#000000"
       opacity="0.1254902"
       empcolor="#203ef3"
       empopacity="0.36470588" />
    <inkscape:grid
       type="xygrid"
       id="grid11592"
       empspacing="8"
       visible="true"
       enabled="false"
       spacingx="0.5px"
       spacingy="0.5px"
       color="#ff0000"
       opacity="0.1254902"
       empcolor="#ff0000"
       empopacity="0.25098039"
       snapvisiblegridlinesonly="true"
       dotted="true" />
  </sodipodi:namedview>
  <defs
     id="defs3">
    <linearGradient
       inkscape:collect="always"
       xlink:href="#linearGradient4349"
       id="linearGradient4254"
       x1="35"
       y1="156"
       x2="253"
       y2="156"
       gradientUnits="userSpaceOnUse"
       gradientTransform="matrix(0,-1,1,0,-12,300)" />
    <linearGradient
       inkscape:collect="always"
       xlink:href="#linearGradient4349"
       id="linearGradient4256"
       x1="417"
       y1="148"
       x2="431"
       y2="148"
       gradientUnits="userSpaceOnUse"
       gradientTransform="matrix(0,-1,1,0,276,572)" />
    <linearGradient
       inkscape:collect="always"
       xlink:href="#linearGradient4349"
       id="linearGradient4260"
       x1="418"
       y1="68"
       x2="446"
       y2="68"
       gradientUnits="userSpaceOnUse"
       gradientTransform="matrix(0,-1,1,0,364,500)" />
    <linearGradient
       inkscape:collect="always"
       xlink:href="#linearGradient4349"
       id="linearGradient4262"
       x1="292"
       y1="244"
       x2="332"
       y2="244"
       gradientUnits="userSpaceOnUse"
       gradientTransform="matrix(0,-1,1,0,68,556)" />
    <linearGradient
       inkscape:collect="always"
       xlink:href="#linearGradient4349"
       id="linearGradient4264"
       x1="293"
       y1="76"
       x2="379"
       y2="76"
       gradientUnits="userSpaceOnUse"
       gradientTransform="matrix(0,-1,1,0,260,412)" />
    <linearGradient
       inkscape:collect="always"
       xlink:href="#linearGradient4349"
       id="linearGradient4266"
       x1="291"
       y1="172"
       x2="349"
       y2="172"
       gradientUnits="userSpaceOnUse"
       gradientTransform="matrix(0,-1,1,0,148,492)" />
    <linearGradient
       inkscape:collect="always"
       xlink:href="#linearGradient4349"
       id="linearGradient3870"
       gradientUnits="userSpaceOnUse"
       gradientTransform="matrix(0,-1,1,0,316,540)"
       x1="418"
       y1="112"
       x2="438"
       y2="112" />
    <linearGradient
       id="linearGradient4349">
      <stop
         style="stop-color:#ae0c1b;stop-opacity:1;"
         offset="0"
         id="stop4351" />
      <stop
         style="stop-color:#c50b1b;stop-opacity:1;"
         offset="1"
         id="stop4353" />
    </linearGradient>
  </defs>
  <metadata
     id="metadata4">
    <rdf:RDF>
      <cc:Work
         rdf:about="">
        <dc:format>image/svg+xml</dc:format>
        <dc:type
           rdf:resource="http://purl.org/dc/dcmitype/StillImage" />
        <dc:creator>
          <cc:Agent>
            <dc:title>Sam Hewitt</dc:title>
          </cc:Agent>
        </dc:creator>
        <dc:source />
        <cc:license
           rdf:resource="" />
        <dc:title />
        <dc:subject>
          <rdf:Bag />
        </dc:subject>
        <dc:date />
        <dc:rights>
          <cc:Agent>
            <dc:title />
          </cc:Agent>
        </dc:rights>
        <dc:publisher>
          <cc:Agent>
            <dc:title />
          </cc:Agent>
        </dc:publisher>
        <dc:identifier />
        <dc:relation />
        <dc:language />
        <dc:coverage />
        <dc:description />
        <dc:contributor>
          <cc:Agent>
            <dc:title />
          </cc:Agent>
        </dc:contributor>
      </cc:Work>
      <cc:Work
         rdf:about="">
        <dc:format>image/svg+xml</dc:format>
        <dc:type
           rdf:resource="http://purl.org/dc/dcmitype/StillImage" />
      </cc:Work>
    </rdf:RDF>
  </metadata>
  <g
     style="display:inline"
     inkscape:groupmode="layer"
     inkscape:label="Icon"
     id="layer1">
    <g
       style="display:none"
       inkscape:label="Baseplate"
       id="layer7"
       inkscape:groupmode="layer">
      <text
         y="19.745117"
         xml:space="preserve"
         x="15.006836"
         style="font-style:normal;font-variant:normal;font-weight:normal;font-stretch:normal;line-height:0%;font-family:'DejaVu Sans';-inkscape-font-specification:'DejaVu Sans';display:inline;fill:#000000;fill-opacity:1;stroke:none;enable-background:new"
         inkscape:label="context"
         id="context"><tspan
           style="font-style:normal;font-variant:normal;font-weight:normal;font-stretch:normal;font-size:18px;line-height:1.25;font-family:'DejaVu Sans';-inkscape-font-specification:'DejaVu Sans'"
           y="19.745117"
           x="15.006836"
           sodipodi:role="line"
           id="tspan3933">apps</tspan></text>
      <text
         y="19.745117"
         xml:space="preserve"
         x="122.48828"
         style="font-style:normal;font-variant:normal;font-weight:bold;font-stretch:normal;line-height:0%;font-family:'DejaVu Sans';-inkscape-font-specification:'DejaVu Sans Bold';text-align:start;writing-mode:lr-tb;text-anchor:start;display:inline;fill:#000000;fill-opacity:1;stroke:none;enable-background:new"
         inkscape:label="icon-name"
         id="icon-name"><tspan
           style="font-style:normal;font-variant:normal;font-weight:bold;font-stretch:normal;font-size:18px;line-height:1.25;font-family:'DejaVu Sans';-inkscape-font-specification:'DejaVu Sans Bold'"
           y="19.745117"
           x="122.48828"
           sodipodi:role="line"
           id="tspan3937">mendeley</tspan></text>
      <rect
         style="fill:#eeeeec;fill-opacity:1;fill-rule:nonzero;stroke:none;stroke-width:2;marker:none;visibility:visible;display:inline;overflow:visible;enable-background:accumulate"
         id="rect16x16"
         width="16"
         height="16"
         x="416"
         y="140"
         inkscape:label="16x16" />
      <rect
         style="fill:#d4d4d4;fill-opacity:1;fill-rule:nonzero;stroke:none;stroke-width:2;marker:none;visibility:visible;display:inline;overflow:visible;enable-background:accumulate"
         id="rect24x24"
         width="24"
         height="24"
         x="416"
         y="100"
         inkscape:label="24x24" />
      <rect
         style="fill:#eeeeec;fill-opacity:1;fill-rule:nonzero;stroke:none;stroke-width:2;marker:none;visibility:visible;display:inline;overflow:visible;enable-background:accumulate"
         id="rect32x32"
         width="32"
         height="32"
         x="416"
         y="52"
         inkscape:label="32x32" />
      <rect
         inkscape:label="22x22"
         y="101"
         x="417"
         height="22"
         width="22"
         id="rect22x22"
         style="fill:#eeeeec;fill-opacity:1;fill-rule:nonzero;stroke:none;stroke-width:2;marker:none;visibility:visible;display:inline;overflow:visible;enable-background:accumulate" />
      <rect
         inkscape:label="48x48"
         y="220"
         x="288"
         height="48"
         width="48"
         id="rect48x48"
         style="fill:#eeeeec;fill-opacity:1;fill-rule:nonzero;stroke:none;stroke-width:2;marker:none;visibility:visible;display:inline;overflow:visible;enable-background:accumulate" />
      <rect
         style="fill:#eeeeec;fill-opacity:1;fill-rule:nonzero;stroke:none;stroke-width:2;marker:none;visibility:visible;display:inline;overflow:visible;enable-background:accumulate"
         id="rect256x256"
         width="256"
         height="256"
         x="16"
         y="28"
         inkscape:label="256x256" />
      <rect
         style="fill:#eeeeec;fill-opacity:1;fill-rule:nonzero;stroke:none;stroke-width:2;marker:none;visibility:visible;display:inline;overflow:visible;enable-background:accumulate"
         id="rect64x64"
         width="64"
         height="64"
         x="288"
         y="140"
         inkscape:label="64x64" />
      <rect
         style="fill:#eeeeec;fill-opacity:1;fill-rule:nonzero;stroke:none;stroke-width:2;marker:none;visibility:visible;display:inline;overflow:visible;enable-background:accumulate"
         id="rect96x96"
         width="96"
         height="96"
         x="288"
         y="28"
         inkscape:label="96x96" />
    </g>
    <g
       inkscape:groupmode="layer"
       id="layer4"
       inkscape:label="Shadow"
       style="display:inline"
       sodipodi:insensitive="true">
      <rect
         ry="50"
         y="47"
         x="34"
         height="220"
         width="220"
         id="rect4114"
         style="opacity:0.1;color:#bebebe;fill:#000000;fill-opacity:1;fill-rule:nonzero;stroke:none;stroke-width:0;marker:none;visibility:visible;display:inline;overflow:visible;enable-background:accumulate" />
      <rect
         style="opacity:0.1;color:#bebebe;fill:#000000;fill-opacity:1;fill-rule:nonzero;stroke:none;stroke-width:0;marker:none;visibility:visible;display:inline;overflow:visible;enable-background:accumulate"
         id="rect4120"
         width="30"
         height="30"
         x="417"
         y="54"
         ry="7" />
      <rect
         transform="scale(1,-1)"
         ry="9"
         y="-266"
         x="291"
         height="42"
         width="42"
         id="rect4122"
         style="opacity:0.1;color:#bebebe;fill:#000000;fill-opacity:1;fill-rule:nonzero;stroke:none;stroke-width:0;marker:none;visibility:visible;display:inline;overflow:visible;enable-background:accumulate" />
      <rect
         style="opacity:0.1;color:#bebebe;fill:#000000;fill-opacity:1;fill-rule:nonzero;stroke:none;stroke-width:0;marker:none;visibility:visible;display:inline;overflow:visible;enable-background:accumulate"
         id="rect4124"
         width="88"
         height="88"
         x="292"
         y="33"
         ry="18" />
      <rect
         ry="12.5"
         y="143"
         x="290"
         height="60"
         width="60"
         id="rect4126"
         style="opacity:0.1;color:#bebebe;fill:#000000;fill-opacity:1;fill-rule:nonzero;stroke:none;stroke-width:0;marker:none;visibility:visible;display:inline;overflow:visible;enable-background:accumulate" />
      <path
         id="path4268"
         d="m 422,101 c -2.77,0 -5,2.23 -5,5 l 0,12 c 0,2.77 2.23,5 5,5 l 12,0 c 2.77,0 5,-2.23 5,-5 l 0,-12 c 0,-2.77 -2.23,-5 -5,-5 z"
         style="opacity:0.1;color:#bebebe;fill:#000000;fill-opacity:1;fill-rule:nonzero;stroke:none;stroke-width:0;marker:none;visibility:visible;display:inline;overflow:visible;enable-background:accumulate"
         inkscape:connector-curvature="0"
         sodipodi:nodetypes="sssssssss" />
      <path
         id="path4270"
         d="m 419,140 c -1.662,0 -3,1.338 -3,3 l 0,10 c 0,1.662 1.338,3 3,3 l 10,0 c 1.662,0 3,-1.338 3,-3 l 0,-10 c 0,-1.662 -1.338,-3 -3,-3 z"
         style="opacity:0.1;color:#bebebe;fill:#000000;fill-opacity:1;fill-rule:nonzero;stroke:none;stroke-width:0;marker:none;visibility:visible;display:inline;overflow:visible;enable-background:accumulate"
         inkscape:connector-curvature="0"
         sodipodi:nodetypes="sssssssss" />
    </g>
    <g
       inkscape:groupmode="layer"
       id="layer2"
       inkscape:label="Background"
       style="display:inline">
      <path
         style="color:#bebebe;fill:url(#linearGradient4254);fill-opacity:1.0;fill-rule:nonzero;stroke:none;stroke-width:2;marker:none;visibility:visible;display:inline;overflow:visible;enable-background:accumulate"
         d="M 84 46.5 C 56.568735 46.5 34.5 68.568732 34.5 96 L 34.5 216 C 34.5 243.43127 56.568735 265.5 84 265.5 L 204 265.5 C 231.43127 265.5 253.5 243.43127 253.5 216 L 253.5 96 C 253.5 68.568732 231.43127 46.5 204 46.5 L 84 46.5 z "
         id="path4200" />
      <path
         style="color:#bebebe;fill:url(#linearGradient4256);fill-opacity:1.0;fill-rule:nonzero;stroke:none;stroke-width:2;marker:none;visibility:visible;display:inline;overflow:visible;enable-background:accumulate"
         d="M 419 140.5 C 417.6156 140.5 416.5 141.6156 416.5 143 L 416.5 153 C 416.5 154.3844 417.6156 155.5 419 155.5 L 429 155.5 C 430.3844 155.5 431.5 154.3844 431.5 153 L 431.5 143 C 431.5 141.6156 430.3844 140.5 429 140.5 L 419 140.5 z "
         id="path4202" />
      <path
         style="color:#bebebe;fill:url(#linearGradient3870);fill-opacity:1.0;fill-rule:nonzero;stroke:none;stroke-width:2;marker:none;visibility:visible;display:inline;overflow:visible;enable-background:accumulate"
         d="M 422 101.5 C 419.50301 101.5 417.5 103.50301 417.5 106 L 417.5 118 C 417.5 120.49699 419.50301 122.5 422 122.5 L 434 122.5 C 436.49699 122.5 438.5 120.49699 438.5 118 L 438.5 106 C 438.5 103.50301 436.49699 101.5 434 101.5 L 422 101.5 z "
         id="path4204" />
      <path
         style="color:#bebebe;fill:url(#linearGradient4260);fill-opacity:1.0;fill-rule:nonzero;stroke:none;stroke-width:2;marker:none;visibility:visible;display:inline;overflow:visible;enable-background:accumulate"
         d="M 424 53.5 C 420.39346 53.5 417.5 56.393464 417.5 60 L 417.5 76 C 417.5 79.606536 420.39346 82.5 424 82.5 L 440 82.5 C 443.60654 82.5 446.5 79.606536 446.5 76 L 446.5 60 C 446.5 56.393464 443.60654 53.5 440 53.5 L 424 53.5 z "
         id="path4206" />
      <path
         style="color:#bebebe;fill:url(#linearGradient4262);fill-opacity:1.0;fill-rule:nonzero;stroke:none;stroke-width:2;marker:none;visibility:visible;display:inline;overflow:visible;enable-background:accumulate"
         d="M 300 223.5 C 295.28469 223.5 291.5 227.28469 291.5 232 L 291.5 256 C 291.5 260.71531 295.28469 264.5 300 264.5 L 324 264.5 C 328.71531 264.5 332.5 260.71531 332.5 256 L 332.5 232 C 332.5 227.28469 328.71531 223.5 324 223.5 L 300 223.5 z "
         id="path4208" />
      <path
         style="color:#bebebe;fill:url(#linearGradient4264);fill-opacity:1.0;fill-rule:nonzero;stroke:none;stroke-width:2;marker:none;visibility:visible;display:inline;overflow:visible;enable-background:accumulate"
         d="M 310 32.5 C 300.29745 32.5 292.5 40.297452 292.5 50 L 292.5 102 C 292.5 111.70255 300.29745 119.5 310 119.5 L 362 119.5 C 371.70255 119.5 379.5 111.70255 379.5 102 L 379.5 50 C 379.5 40.297452 371.70255 32.5 362 32.5 L 310 32.5 z "
         id="path4210" />
      <path
         style="color:#bebebe;fill:url(#linearGradient4266);fill-opacity:1.0;fill-rule:nonzero;stroke:none;stroke-width:2;marker:none;visibility:visible;display:inline;overflow:visible;enable-background:accumulate"
         d="M 302.5 142.5 C 295.84498 142.5 290.5 147.84498 290.5 154.5 L 290.5 189.5 C 290.5 196.15502 295.84498 201.5 302.5 201.5 L 337.5 201.5 C 344.15502 201.5 349.5 196.15502 349.5 189.5 L 349.5 154.5 C 349.5 147.84498 344.15502 142.5 337.5 142.5 L 302.5 142.5 z "
         id="path4212" />
    </g>
    <g
       inkscape:groupmode="layer"
       id="layer6"
       inkscape:label="Symbols"
       style="display:inline">
      <path
         inkscape:connector-curvature="0"
         id="path3883"
         d="m 305.31654,236.00053 c -0.71048,0.0111 -1.43512,0.19071 -2.13908,0.53863 -2.09873,1.03724 -2.95942,3.26731 -2.30836,5.92479 0.31124,1.27049 0.41888,2.98732 0.23083,3.67799 -0.26651,0.97885 -1.08426,1.49142 -2.4007,1.49274 -1.30044,0.001 -2.57914,0.99997 -2.83159,2.21603 -0.25825,1.24401 0.037,2.37111 0.8464,3.18555 0.95175,0.95765 2.27229,1.22763 3.41638,0.69251 1.65645,-0.77477 2.19916,-2.39343 1.49274,-4.41668 -0.34053,-0.97531 -0.35609,-1.10624 -0.18466,-1.72357 0.72565,-2.61325 6.68674,-2.80452 7.66376,-0.24622 0.23096,0.60475 0.19284,1.0185 -0.23083,2.07753 -0.25935,0.64825 -0.29088,0.87406 -0.24623,1.56967 0.0815,1.27069 0.69062,2.16109 1.89285,2.70848 0.73157,0.3331 2.25243,0.33162 2.9701,0 1.76387,-0.81506 2.426,-2.58243 1.64663,-4.37049 -0.66943,-1.53583 -0.33114,-2.55624 1.07724,-3.26249 1.77163,-0.88841 4.33104,-0.68568 5.61701,0.44628 0.92013,0.80993 1.05766,1.51105 0.56941,2.90855 -0.64805,1.85481 -0.12879,3.45923 1.36962,4.26277 0.64688,0.3469 2.07757,0.34706 2.72387,0 0.5853,-0.3143 1.24608,-1.00526 1.46196,-1.52352 0.62971,-1.51175 0.1148,-3.41403 -1.1234,-4.13966 -0.4277,-0.25065 -0.75048,-0.32711 -1.61586,-0.40012 -0.70368,-0.0594 -1.19618,-0.17054 -1.43118,-0.30778 -0.46973,-0.27434 -0.84449,-0.95394 -0.93873,-1.70819 -0.0858,-0.68655 0.10555,-2.39808 0.36933,-3.30866 0.27269,-0.94132 0.16379,-2.70676 -0.21544,-3.53949 -1.16199,-2.55152 -4.44444,-3.55061 -6.7712,-2.04675 -0.36495,0.23587 -0.83307,0.6548 -1.04646,0.92335 -0.74811,0.94146 -1.95304,2.14783 -2.32375,2.32376 -0.93282,0.44265 -1.89036,0.0799 -2.93932,-1.10802 -1.5856,-1.79567 -1.81768,-2.0223 -2.52381,-2.36992 -0.6634,-0.3266 -1.36704,-0.48815 -2.07753,-0.47707 z m 6.70965,5.23229 c 2.14775,-0.003 3.60769,1.95995 3.00087,4.04733 -0.26464,0.91033 -1.13287,1.79207 -2.00059,2.04676 -0.74238,0.21788 -1.35488,0.22866 -2.04674,0.0154 -1.20286,-0.3708 -2.10123,-1.65255 -2.09292,-3.00087 0.006,-0.90246 0.20726,-1.41623 0.83101,-2.09292 0.65141,-0.70669 1.35649,-1.01412 2.30837,-1.01568 z"
         style="opacity:0.2;color:#000000;fill:#000000;fill-opacity:1;fill-rule:nonzero;stroke:none;stroke-width:12;marker:none;visibility:visible;display:inline;overflow:visible;enable-background:accumulate" />
      <path
         style="opacity:0.2;color:#000000;fill:#000000;fill-opacity:1;fill-rule:nonzero;stroke:none;stroke-width:12;marker:none;visibility:visible;display:inline;overflow:visible;enable-background:accumulate"
         d="m 311.83133,162.00065 c -0.86836,0.0136 -1.75403,0.23309 -2.61443,0.65833 -2.56511,1.26774 -3.61706,3.99337 -2.82132,7.24139 0.3804,1.55283 0.51196,3.65118 0.28213,4.49533 -0.32574,1.19637 -1.32521,1.82285 -2.93419,1.82446 -1.58943,0.002 -3.15229,1.22218 -3.46084,2.70848 -0.31563,1.52046 0.0453,2.89803 1.0345,3.89345 1.16324,1.17046 2.77724,1.50044 4.17557,0.8464 2.02454,-0.94694 2.68786,-2.92531 1.82445,-5.39816 -0.41619,-1.19205 -0.43521,-1.35207 -0.22569,-2.10659 0.8869,-3.19397 8.17268,-3.42775 9.36682,-0.30093 0.28228,0.73913 0.23569,1.24483 -0.28213,2.5392 -0.31699,0.7923 -0.35552,1.06829 -0.30095,1.91848 0.0996,1.55307 0.84409,2.64134 2.31349,3.31036 0.89413,0.40713 2.75297,0.40532 3.63011,0 2.15585,-0.99618 2.96512,-3.1563 2.01256,-5.3417 -0.8182,-1.87712 -0.40473,-3.12429 1.31662,-3.98749 2.16532,-1.08583 5.29349,-0.83806 6.86523,0.54545 1.1246,0.98992 1.29269,1.84685 0.69594,3.5549 -0.79206,2.26699 -0.15741,4.22795 1.67398,5.21005 0.79064,0.42399 2.53925,0.42418 3.32918,0 0.71536,-0.38414 1.52298,-1.22865 1.78683,-1.86208 0.76965,-1.84769 0.14032,-4.17271 -1.37304,-5.05958 -0.52274,-0.30635 -0.91725,-0.3998 -1.97494,-0.48904 -0.86005,-0.0726 -1.462,-0.20843 -1.74922,-0.37617 -0.57411,-0.33531 -1.03215,-1.16593 -1.14733,-2.0878 -0.10487,-0.83911 0.129,-2.93098 0.4514,-4.04391 0.33329,-1.1505 0.20019,-3.30826 -0.26331,-4.32604 -1.42021,-3.11852 -5.4321,-4.33963 -8.27591,-2.50158 -0.44605,0.28829 -1.01819,0.80031 -1.279,1.12854 -0.91436,1.15068 -2.38706,2.62512 -2.84015,2.84015 -1.14011,0.54101 -2.31044,0.0977 -3.5925,-1.35425 -1.93795,-2.1947 -2.2216,-2.4717 -3.08465,-2.89656 -0.81082,-0.39919 -1.67083,-0.59664 -2.53921,-0.58309 z m 8.20068,6.39502 c 2.62504,-0.004 4.4094,2.39548 3.66773,4.94673 -0.32344,1.11263 -1.38461,2.1903 -2.44516,2.5016 -0.90735,0.2663 -1.65597,0.27947 -2.50158,0.0189 -1.47015,-0.4532 -2.56816,-2.01978 -2.558,-3.66773 0.007,-1.103 0.25332,-1.73094 1.01567,-2.55801 0.79617,-0.86373 1.65794,-1.23948 2.82134,-1.24139 z"
         id="path3885"
         inkscape:connector-curvature="0" />
      <path
         inkscape:connector-curvature="0"
         id="path3887"
         d="m 323.37568,60.001008 c -1.34201,0.02093 -2.71077,0.36023 -4.04048,1.017419 -3.96426,1.959229 -5.59,6.171564 -4.36021,11.191229 0.58788,2.399837 0.7912,5.642736 0.436,6.947338 -0.50341,1.848931 -2.04804,2.817123 -4.53465,2.81962 -2.4564,0.0032 -4.87172,1.888828 -5.34857,4.185837 -0.4878,2.349793 0.07,4.478767 1.59877,6.017151 1.79773,1.808888 4.2921,2.318868 6.45316,1.308068 3.12883,-1.463449 4.15396,-4.520931 2.8196,-8.342616 -0.64321,-1.842259 -0.67261,-2.089566 -0.3488,-3.255639 1.37067,-4.936132 12.63052,-5.297424 14.476,-0.465078 0.43626,1.142305 0.36426,1.923837 -0.43601,3.924228 -0.48989,1.224467 -0.54944,1.650998 -0.46511,2.964928 0.15393,2.400198 1.3045,4.082062 3.57539,5.116017 1.38185,0.62919 4.25459,0.62639 5.61018,0 3.33177,-1.539557 4.58246,-4.877932 3.11032,-8.255365 -1.2645,-2.901008 -0.62549,-4.828458 2.03478,-6.162491 3.3464,-1.678102 8.18085,-1.295187 10.6099,0.842977 1.73801,1.529873 1.9978,2.854216 1.07555,5.493934 -1.2241,3.50353 -0.24327,6.5341 2.58706,8.051895 1.22189,0.65526 3.92429,0.65555 5.14509,0 1.10556,-0.593675 2.3537,-1.898819 2.76147,-2.877764 1.18946,-2.855522 0.21685,-6.448738 -2.12197,-7.819353 -0.80788,-0.47345 -1.41758,-0.617876 -3.05218,-0.755788 -1.32918,-0.1122 -2.25946,-0.322118 -2.70334,-0.581358 -0.88727,-0.518202 -1.59515,-1.801883 -1.77315,-3.2266 -0.16208,-1.296803 0.19936,-4.529693 0.69761,-6.249669 0.51509,-1.778041 0.30939,-5.112772 -0.40693,-6.685708 -2.19487,-4.819522 -8.39507,-6.706692 -12.79004,-3.866077 -0.68935,0.445539 -1.57357,1.236846 -1.97664,1.744116 -1.4131,1.778317 -3.68909,4.056997 -4.38932,4.389315 -1.762,0.836114 -3.57068,0.151003 -5.55206,-2.092934 -2.995,-3.391808 -3.43338,-3.8199 -4.76719,-4.476493 -1.25308,-0.616931 -2.58218,-0.922081 -3.92423,-0.901139 z m 12.67378,9.883207 c 4.05689,-0.0053 6.81454,3.702101 5.66832,7.644954 -0.49986,1.719508 -2.13985,3.384998 -3.77889,3.866098 -1.40226,0.41156 -2.55923,0.431917 -3.86607,0.02922 -2.27205,-0.7004 -3.96898,-3.121477 -3.95329,-5.668311 0.0114,-1.704643 0.3915,-2.675088 1.56969,-3.953287 1.23043,-1.334851 2.56227,-1.91556 4.36024,-1.918514 z"
         style="opacity:0.2;color:#000000;fill:#000000;fill-opacity:1;fill-rule:nonzero;stroke:none;stroke-width:12;marker:none;visibility:visible;display:inline;overflow:visible;enable-background:accumulate" />
      <path
         style="opacity:0.2;color:#000000;fill:#000000;fill-opacity:1;fill-rule:nonzero;stroke:none;stroke-width:12;marker:none;visibility:visible;display:inline;overflow:visible;enable-background:accumulate"
         d="m 111.32529,113.00261 c -3.47345,0.0542 -7.01612,0.93236 -10.45772,2.63332 -10.260438,5.07095 -14.468238,15.97346 -11.285248,28.96554 1.52157,6.21134 2.04781,14.60472 1.12848,17.98134 -1.30296,4.78547 -5.30082,7.29138 -11.73675,7.29784 -6.35774,0.008 -12.60916,4.88873 -13.84336,10.83393 -1.26253,6.08182 0.18118,11.5921 4.13799,15.5738 4.65296,4.68182 11.10897,6.00177 16.7023,3.38558 8.09815,-3.78774 10.75142,-11.70122 7.29779,-21.59264 -1.66477,-4.7682 -1.74088,-5.40829 -0.90277,-8.42636 3.54761,-12.77587 32.690748,-13.71098 37.467278,-1.20373 1.12915,2.95655 0.9428,4.97934 -1.12849,10.15682 -1.26795,3.16921 -1.42208,4.27317 -1.20382,7.67393 0.39842,6.21228 3.37636,10.56534 9.25395,13.24145 3.57656,1.62849 11.01188,1.62126 14.52048,0 8.6234,-3.98473 11.86048,-12.62523 8.05024,-21.36682 -3.27283,-7.50849 -1.61892,-12.49718 5.26648,-15.94997 8.66128,-4.34333 21.17396,-3.35225 27.46092,2.18182 4.49837,3.95967 5.17077,7.38738 2.78377,14.21959 -3.16825,9.06796 -0.62964,16.91179 6.69592,20.84019 3.16254,1.69598 10.15699,1.69673 13.31671,0 2.86145,-1.53656 6.09193,-4.91458 7.14733,-7.44832 3.0786,-7.39076 0.56127,-16.69085 -5.49216,-20.23832 -2.09097,-1.2254 -3.66903,-1.59921 -7.89976,-1.95616 -3.44023,-0.2904 -5.84801,-0.83372 -6.99688,-1.50469 -2.29645,-1.34123 -4.12861,-4.6637 -4.58933,-8.3512 -0.4195,-3.35643 0.516,-11.72391 1.80558,-16.17562 1.33318,-4.60198 0.80078,-13.23305 -1.05323,-17.30418 -5.68084,-12.47406 -21.72842,-17.3585 -33.10363,-10.00632 -1.7842,1.15316 -4.07276,3.20125 -5.116,4.51419 -3.65744,4.6027 -9.54824,10.50046 -11.3606,11.36057 -4.56047,2.16406 -9.24176,0.39084 -14.37004,-5.417 -7.75176,-8.7788 -8.8864,-9.8868 -12.3386,-11.58622 -3.24328,-1.59676 -6.68329,-2.38656 -10.15683,-2.33236 z m 32.80271,25.58007 c 10.5002,-0.0137 17.63764,9.58191 14.67096,19.78694 -1.29376,4.45049 -5.53844,8.76117 -9.78067,10.00637 -3.62937,1.06521 -6.62389,1.1179 -10.00629,0.0756 -5.8806,-1.8128 -10.27265,-8.07912 -10.23204,-14.67092 0.0295,-4.41202 1.01328,-6.92376 4.06272,-10.23204 3.18464,-3.45491 6.63176,-4.95792 11.28532,-4.96557 z"
         id="path3889"
         inkscape:connector-curvature="0" />
      <path
         style="opacity:0.2;color:#000000;fill:#000000;fill-opacity:1;fill-rule:nonzero;stroke:none;stroke-width:12;marker:none;visibility:visible;display:inline;overflow:visible;enable-background:accumulate"
         d="m 427.46834,62.897999 c -0.48173,0.0075 -0.97306,0.129309 -1.45038,0.365215 -1.42302,0.70329 -2.0066,2.21536 -1.56515,4.017231 0.21103,0.861452 0.28401,2.025531 0.15651,2.493834 -0.18071,0.663697 -0.73517,1.011242 -1.62777,1.012138 -0.88176,0.0011 -1.74877,0.678018 -1.91994,1.502559 -0.1751,0.843487 0.0251,1.607709 0.5739,2.159931 0.64532,0.649322 1.54071,0.832385 2.31644,0.469546 1.12314,-0.525322 1.49112,-1.622843 1.01214,-2.994685 -0.23089,-0.661302 -0.24145,-0.750076 -0.12521,-1.168652 0.49202,-1.771886 4.53388,-1.901577 5.19634,-0.166946 0.1566,0.410045 0.13076,0.690586 -0.15651,1.408651 -0.17585,0.439538 -0.19723,0.592646 -0.16696,1.064298 0.0553,0.861581 0.46827,1.465307 1.28343,1.836456 0.49604,0.225857 1.52724,0.224853 2.01385,0 1.19598,-0.552641 1.64493,-1.750993 1.11649,-2.963364 -0.45391,-1.041353 -0.22453,-1.733236 0.7304,-2.212103 1.20124,-0.602376 2.93662,-0.464924 3.80856,0.302597 0.62388,0.549167 0.71714,1.024556 0.38608,1.972116 -0.4394,1.257636 -0.0873,2.345497 0.92866,2.890327 0.43861,0.235216 1.40867,0.235319 1.84689,0 0.39686,-0.213106 0.84489,-0.681604 0.99127,-1.033008 0.42697,-1.025025 0.0778,-2.314855 -0.76171,-2.806855 -0.29,-0.16995 -0.50886,-0.221794 -1.09562,-0.271299 -0.47712,-0.04028 -0.81106,-0.115628 -0.97039,-0.208686 -0.3185,-0.186015 -0.5726,-0.646808 -0.6365,-1.158228 -0.0582,-0.465504 0.0716,-1.62599 0.25042,-2.243397 0.1849,-0.63825 0.11106,-1.835293 -0.14608,-2.399918 -0.78787,-1.730028 -3.01351,-2.407451 -4.59114,-1.387777 -0.24745,0.159932 -0.56485,0.443981 -0.70954,0.626072 -0.50725,0.638349 -1.32424,1.45631 -1.5756,1.5756 -0.63249,0.300133 -1.28174,0.0542 -1.99298,-0.751285 -1.07509,-1.217532 -1.23246,-1.371201 -1.71124,-1.606893 -0.44981,-0.221455 -0.92691,-0.330993 -1.40866,-0.323475 z m 4.54942,3.5477 c 1.45627,-0.0019 2.44616,1.328916 2.03471,2.744252 -0.17943,0.617239 -0.76813,1.215087 -1.35648,1.387784 -0.50336,0.147735 -0.91867,0.155042 -1.38777,0.01049 -0.81558,-0.251417 -1.42472,-1.120493 -1.41909,-2.034711 0.004,-0.611903 0.14054,-0.960256 0.56346,-1.419082 0.44168,-0.479161 0.91976,-0.687614 1.56517,-0.688674 z"
         id="path3891"
         inkscape:connector-curvature="0" />
      <path
         inkscape:connector-curvature="0"
         id="path3893"
         d="m 424.70427,108.56218 c -0.35035,0.005 -0.70768,0.094 -1.05483,0.26561 -1.03492,0.51149 -1.45934,1.61117 -1.13829,2.92163 0.15348,0.62651 0.20656,1.47311 0.11383,1.81369 -0.13143,0.48269 -0.53467,0.73545 -1.18383,0.7361 -0.64128,8e-4 -1.27184,0.49311 -1.39632,1.09277 -0.12735,0.61345 0.0183,1.16925 0.41738,1.57086 0.46932,0.47224 1.12051,0.60537 1.68468,0.34149 0.81683,-0.38205 1.08445,-1.18025 0.7361,-2.17795 -0.16792,-0.48095 -0.1756,-0.54551 -0.0911,-0.84993 0.35783,-1.28864 3.29737,-1.38297 3.77916,-0.12142 0.11389,0.29822 0.0951,0.50225 -0.11383,1.02448 -0.12789,0.31966 -0.14344,0.43101 -0.12142,0.77403 0.0402,0.62661 0.34056,1.06568 0.9334,1.33561 0.36076,0.16426 1.11072,0.16353 1.46462,0 0.8698,-0.40192 1.19631,-1.27345 0.81199,-2.15518 -0.33011,-0.75734 -0.16329,-1.26053 0.5312,-1.6088 0.87363,-0.43809 2.13573,-0.33813 2.76986,0.22007 0.45373,0.3994 0.52156,0.74513 0.28079,1.43427 -0.31956,0.91464 -0.0635,1.70581 0.67539,2.10205 0.31899,0.17107 1.02449,0.17115 1.34319,0 0.28863,-0.15498 0.61447,-0.49571 0.72092,-0.75127 0.31053,-0.74548 0.0566,-1.68354 -0.55397,-2.04135 -0.21091,-0.1236 -0.37008,-0.16131 -0.79681,-0.19731 -0.347,-0.0293 -0.58986,-0.0841 -0.70574,-0.15177 -0.23164,-0.13529 -0.41644,-0.47041 -0.46291,-0.84235 -0.0423,-0.33855 0.0521,-1.18254 0.18213,-1.63156 0.13447,-0.46418 0.0808,-1.33476 -0.10624,-1.7454 -0.573,-1.2582 -2.19165,-1.75087 -3.33902,-1.00929 -0.17996,0.11631 -0.4108,0.32289 -0.51602,0.45532 -0.36891,0.46426 -0.96309,1.05914 -1.1459,1.1459 -0.45999,0.21827 -0.93217,0.0394 -1.44944,-0.54639 -0.78188,-0.88548 -0.89633,-0.99724 -1.24453,-1.16865 -0.32714,-0.16106 -0.67412,-0.24073 -1.02448,-0.23526 z m 3.30867,2.58015 c 1.0591,-0.001 1.77902,0.96648 1.47978,1.99582 -0.13049,0.4489 -0.55864,0.8837 -0.98653,1.0093 -0.36608,0.10744 -0.66812,0.11275 -1.00928,0.008 -0.59315,-0.18285 -1.03616,-0.81491 -1.03207,-1.47979 0.003,-0.44502 0.10221,-0.69837 0.40979,-1.03206 0.32122,-0.34848 0.66892,-0.50009 1.13831,-0.50086 z"
         style="opacity:0.2;color:#000000;fill:#000000;fill-opacity:1;fill-rule:nonzero;stroke:none;stroke-width:12;marker:none;visibility:visible;display:inline;overflow:visible;enable-background:accumulate" />
      <path
         style="opacity:0.2;color:#000000;fill:#000000;fill-opacity:1;fill-rule:nonzero;stroke:none;stroke-width:12;marker:none;visibility:visible;display:inline;overflow:visible;enable-background:accumulate"
         d="m 421.52818,145.67165 c -0.26276,0.003 -0.53076,0.0705 -0.79112,0.1992 -0.77619,0.38362 -1.0945,1.20838 -0.85371,2.19123 0.1151,0.46988 0.15492,1.10483 0.0854,1.36027 -0.0986,0.36202 -0.40101,0.55158 -0.88788,0.55207 -0.48096,6e-4 -0.95388,0.36983 -1.04724,0.81958 -0.0955,0.46009 0.0137,0.87694 0.31304,1.17815 0.35198,0.35418 0.84038,0.45402 1.26351,0.25612 0.61262,-0.28654 0.81333,-0.88519 0.55208,-1.63347 -0.12594,-0.36071 -0.1317,-0.40913 -0.0683,-0.63744 0.26838,-0.96649 2.47304,-1.03724 2.83438,-0.0911 0.0854,0.22367 0.0713,0.37668 -0.0854,0.76836 -0.0959,0.23975 -0.10758,0.32326 -0.0911,0.58052 0.0302,0.46996 0.25542,0.79927 0.70005,1.00172 0.27058,0.12318 0.83304,0.12264 1.09847,0 0.65235,-0.30145 0.89723,-0.9551 0.60899,-1.61639 -0.24758,-0.56801 -0.12247,-0.94541 0.3984,-1.20661 0.65523,-0.32857 1.6018,-0.2536 2.07741,0.16506 0.34029,0.29954 0.39116,0.55885 0.21059,1.0757 -0.23968,0.68598 -0.0477,1.27936 0.50654,1.57654 0.23924,0.1283 0.76837,0.12836 1.00739,0 0.21647,-0.11623 0.46085,-0.37178 0.5407,-0.56345 0.23289,-0.55912 0.0424,-1.26266 -0.41549,-1.53101 -0.15817,-0.0927 -0.27756,-0.12099 -0.5976,-0.14799 -0.26025,-0.0219 -0.4424,-0.0631 -0.52931,-0.11383 -0.17373,-0.10147 -0.31233,-0.35281 -0.34718,-0.63176 -0.0317,-0.25391 0.0391,-0.88691 0.13659,-1.22368 0.10086,-0.34813 0.0606,-1.00107 -0.0797,-1.30905 -0.42975,-0.94365 -1.64373,-1.31315 -2.50427,-0.75697 -0.13497,0.0872 -0.3081,0.24217 -0.38702,0.3415 -0.27667,0.34819 -0.72231,0.79435 -0.85942,0.85942 -0.34499,0.1637 -0.69913,0.0296 -1.08708,-0.40979 -0.58641,-0.66412 -0.67225,-0.74794 -0.9334,-0.87649 -0.24536,-0.1208 -0.50559,-0.18055 -0.76836,-0.17644 z m 2.48152,1.93511 c 0.79432,-7.5e-4 1.33426,0.72486 1.10983,1.49687 -0.0979,0.33667 -0.41898,0.66277 -0.7399,0.75697 -0.27456,0.0806 -0.50109,0.0846 -0.75696,0.006 -0.44487,-0.13713 -0.77712,-0.61118 -0.77406,-1.10984 0.003,-0.33376 0.0766,-0.52378 0.30735,-0.77404 0.24091,-0.26137 0.50169,-0.37507 0.85374,-0.37565 z"
         id="path3895"
         inkscape:connector-curvature="0" />
      <path
         style="color:#000000;fill:#ffffff;fill-opacity:1;fill-rule:nonzero;stroke:none;stroke-width:12;marker:none;visibility:visible;display:inline;overflow:visible;enable-background:accumulate"
         d="m 305.31654,235.00053 c -0.71048,0.0111 -1.43512,0.19071 -2.13908,0.53863 -2.09873,1.03724 -2.95942,3.26731 -2.30836,5.92479 0.31124,1.27049 0.41888,2.98732 0.23083,3.67799 -0.26651,0.97885 -1.08426,1.49142 -2.4007,1.49274 -1.30044,0.001 -2.57914,0.99997 -2.83159,2.21603 -0.25825,1.24401 0.037,2.37111 0.8464,3.18555 0.95175,0.95765 2.27229,1.22763 3.41638,0.69251 1.65645,-0.77477 2.19916,-2.39343 1.49274,-4.41668 -0.34053,-0.97531 -0.35609,-1.10624 -0.18466,-1.72357 0.72565,-2.61325 6.68674,-2.80452 7.66376,-0.24622 0.23096,0.60475 0.19284,1.0185 -0.23083,2.07753 -0.25935,0.64825 -0.29088,0.87406 -0.24623,1.56967 0.0815,1.27069 0.69062,2.16109 1.89285,2.70848 0.73157,0.3331 2.25243,0.33162 2.9701,0 1.76387,-0.81506 2.426,-2.58243 1.64663,-4.37049 -0.66943,-1.53583 -0.33114,-2.55624 1.07724,-3.26249 1.77163,-0.88841 4.33104,-0.68568 5.61701,0.44628 0.92013,0.80993 1.05766,1.51105 0.56941,2.90855 -0.64805,1.85481 -0.12879,3.45923 1.36962,4.26277 0.64688,0.3469 2.07757,0.34706 2.72387,0 0.5853,-0.3143 1.24608,-1.00526 1.46196,-1.52352 0.62971,-1.51175 0.1148,-3.41403 -1.1234,-4.13966 -0.4277,-0.25065 -0.75048,-0.32711 -1.61586,-0.40012 -0.70368,-0.0594 -1.19618,-0.17054 -1.43118,-0.30778 -0.46973,-0.27434 -0.84449,-0.95394 -0.93873,-1.70819 -0.0858,-0.68655 0.10555,-2.39808 0.36933,-3.30866 0.27269,-0.94132 0.16379,-2.70676 -0.21544,-3.53949 -1.16199,-2.55152 -4.44444,-3.55061 -6.7712,-2.04675 -0.36495,0.23587 -0.83307,0.6548 -1.04646,0.92335 -0.74811,0.94146 -1.95304,2.14783 -2.32375,2.32376 -0.93282,0.44265 -1.89036,0.0799 -2.93932,-1.10802 -1.5856,-1.79567 -1.81768,-2.0223 -2.52381,-2.36992 -0.6634,-0.3266 -1.36704,-0.48815 -2.07753,-0.47707 z m 6.70965,5.23229 c 2.14775,-0.003 3.60769,1.95995 3.00087,4.04733 -0.26464,0.91033 -1.13287,1.79207 -2.00059,2.04676 -0.74238,0.21788 -1.35488,0.22866 -2.04674,0.0154 -1.20286,-0.3708 -2.10123,-1.65255 -2.09292,-3.00087 0.006,-0.90246 0.20726,-1.41623 0.83101,-2.09292 0.65141,-0.70669 1.35649,-1.01412 2.30837,-1.01568 z"
         id="path4399"
         inkscape:connector-curvature="0" />
      <path
         inkscape:connector-curvature="0"
         id="path3853"
         d="m 311.83133,161.00065 c -0.86836,0.0136 -1.75403,0.23309 -2.61443,0.65833 -2.56511,1.26774 -3.61706,3.99337 -2.82132,7.24139 0.3804,1.55283 0.51196,3.65118 0.28213,4.49533 -0.32574,1.19637 -1.32521,1.82285 -2.93419,1.82446 -1.58943,0.002 -3.15229,1.22218 -3.46084,2.70848 -0.31563,1.52046 0.0453,2.89803 1.0345,3.89345 1.16324,1.17046 2.77724,1.50044 4.17557,0.8464 2.02454,-0.94694 2.68786,-2.92531 1.82445,-5.39816 -0.41619,-1.19205 -0.43521,-1.35207 -0.22569,-2.10659 0.8869,-3.19397 8.17268,-3.42775 9.36682,-0.30093 0.28228,0.73913 0.23569,1.24483 -0.28213,2.5392 -0.31699,0.7923 -0.35552,1.06829 -0.30095,1.91848 0.0996,1.55307 0.84409,2.64134 2.31349,3.31036 0.89413,0.40713 2.75297,0.40532 3.63011,0 2.15585,-0.99618 2.96512,-3.1563 2.01256,-5.3417 -0.8182,-1.87712 -0.40473,-3.12429 1.31662,-3.98749 2.16532,-1.08583 5.29349,-0.83806 6.86523,0.54545 1.1246,0.98992 1.29269,1.84685 0.69594,3.5549 -0.79206,2.26699 -0.15741,4.22795 1.67398,5.21005 0.79064,0.42399 2.53925,0.42418 3.32918,0 0.71536,-0.38414 1.52298,-1.22865 1.78683,-1.86208 0.76965,-1.84769 0.14032,-4.17271 -1.37304,-5.05958 -0.52274,-0.30635 -0.91725,-0.3998 -1.97494,-0.48904 -0.86005,-0.0726 -1.462,-0.20843 -1.74922,-0.37617 -0.57411,-0.33531 -1.03215,-1.16593 -1.14733,-2.0878 -0.10487,-0.83911 0.129,-2.93098 0.4514,-4.04391 0.33329,-1.1505 0.20019,-3.30826 -0.26331,-4.32604 -1.42021,-3.11852 -5.4321,-4.33963 -8.27591,-2.50158 -0.44605,0.28829 -1.01819,0.80031 -1.279,1.12854 -0.91436,1.15068 -2.38706,2.62512 -2.84015,2.84015 -1.14011,0.54101 -2.31044,0.0977 -3.5925,-1.35425 -1.93795,-2.1947 -2.2216,-2.4717 -3.08465,-2.89656 -0.81082,-0.39919 -1.67083,-0.59664 -2.53921,-0.58309 z m 8.20068,6.39502 c 2.62504,-0.004 4.4094,2.39548 3.66773,4.94673 -0.32344,1.11263 -1.38461,2.1903 -2.44516,2.5016 -0.90735,0.2663 -1.65597,0.27947 -2.50158,0.0189 -1.47015,-0.4532 -2.56816,-2.01978 -2.558,-3.66773 0.007,-1.103 0.25332,-1.73094 1.01567,-2.55801 0.79617,-0.86373 1.65794,-1.23948 2.82134,-1.24139 z"
         style="color:#000000;fill:#ffffff;fill-opacity:1;fill-rule:nonzero;stroke:none;stroke-width:12;marker:none;visibility:visible;display:inline;overflow:visible;enable-background:accumulate" />
      <path
         style="color:#000000;fill:#ffffff;fill-opacity:1;fill-rule:nonzero;stroke:none;stroke-width:12;marker:none;visibility:visible;display:inline;overflow:visible;enable-background:accumulate"
         d="m 323.37568,59.001009 c -1.34201,0.02093 -2.71077,0.36023 -4.04048,1.017419 -3.96426,1.959229 -5.59,6.171564 -4.36021,11.191229 0.58788,2.399837 0.7912,5.642736 0.436,6.947338 -0.50341,1.848931 -2.04804,2.817123 -4.53465,2.81962 -2.4564,0.0032 -4.87172,1.888828 -5.34857,4.185837 -0.4878,2.349793 0.07,4.478767 1.59877,6.017151 1.79773,1.808885 4.2921,2.318867 6.45316,1.308065 3.12883,-1.463446 4.15396,-4.520928 2.8196,-8.342613 -0.64321,-1.842259 -0.67261,-2.089566 -0.3488,-3.255639 1.37067,-4.936132 12.63052,-5.297424 14.476,-0.465078 0.43626,1.142305 0.36426,1.923837 -0.43601,3.924228 -0.48989,1.224467 -0.54944,1.650998 -0.46511,2.964928 0.15393,2.400198 1.3045,4.082062 3.57539,5.116012 1.38185,0.629194 4.25459,0.626394 5.61018,0 3.33177,-1.539552 4.58246,-4.877927 3.11032,-8.25536 -1.2645,-2.901008 -0.62549,-4.828458 2.03478,-6.162491 3.3464,-1.678102 8.18085,-1.295187 10.6099,0.842977 1.73801,1.529873 1.9978,2.854216 1.07555,5.493934 -1.2241,3.50353 -0.24327,6.5341 2.58706,8.051892 1.22189,0.655262 3.92429,0.655552 5.14509,0 1.10556,-0.593672 2.3537,-1.898816 2.76147,-2.877761 1.18946,-2.855522 0.21685,-6.448738 -2.12197,-7.819353 -0.80788,-0.47345 -1.41758,-0.617876 -3.05218,-0.755788 -1.32918,-0.1122 -2.25946,-0.322118 -2.70334,-0.581358 -0.88727,-0.518202 -1.59515,-1.801883 -1.77315,-3.2266 -0.16208,-1.296803 0.19936,-4.529693 0.69761,-6.249669 0.51509,-1.778041 0.30939,-5.112772 -0.40693,-6.685708 -2.19487,-4.819522 -8.39507,-6.706692 -12.79004,-3.866077 -0.68935,0.445539 -1.57357,1.236846 -1.97664,1.744116 -1.4131,1.778317 -3.68909,4.056997 -4.38932,4.389315 -1.762,0.836114 -3.57068,0.151003 -5.55206,-2.092934 -2.995,-3.391808 -3.43338,-3.8199 -4.76719,-4.476493 -1.25308,-0.616931 -2.58218,-0.922081 -3.92423,-0.901139 z m 12.67378,9.883207 c 4.05689,-0.0053 6.81454,3.702101 5.66832,7.644954 -0.49986,1.719508 -2.13985,3.384998 -3.77889,3.866098 -1.40226,0.41156 -2.55923,0.431917 -3.86607,0.02922 -2.27205,-0.7004 -3.96898,-3.121477 -3.95329,-5.668311 0.0114,-1.704643 0.3915,-2.675088 1.56969,-3.953287 1.23043,-1.334851 2.56227,-1.91556 4.36024,-1.918514 z"
         id="path3857"
         inkscape:connector-curvature="0" />
      <path
         inkscape:connector-curvature="0"
         id="path3862"
         d="m 111.32529,112.00261 c -3.47345,0.0542 -7.01612,0.93236 -10.45772,2.63332 -10.260438,5.07095 -14.468238,15.97346 -11.285248,28.96554 1.52157,6.21134 2.04781,14.60472 1.12848,17.98134 -1.30296,4.78547 -5.30082,7.29138 -11.73675,7.29784 -6.35774,0.008 -12.60916,4.88873 -13.84336,10.83393 -1.26253,6.08182 0.18118,11.5921 4.13799,15.5738 4.65296,4.68182 11.10897,6.00177 16.7023,3.38558 8.09815,-3.78774 10.75142,-11.70122 7.29779,-21.59264 -1.66477,-4.7682 -1.74088,-5.40829 -0.90277,-8.42636 3.54761,-12.77587 32.690748,-13.71098 37.467278,-1.20373 1.12915,2.95655 0.9428,4.97934 -1.12849,10.15682 -1.26795,3.16921 -1.42208,4.27317 -1.20382,7.67393 0.39842,6.21228 3.37636,10.56534 9.25395,13.24145 3.57656,1.62849 11.01188,1.62126 14.52048,0 8.6234,-3.98473 11.86048,-12.62523 8.05024,-21.36682 -3.27283,-7.50849 -1.61892,-12.49718 5.26648,-15.94997 8.66128,-4.34333 21.17396,-3.35225 27.46092,2.18182 4.49837,3.95967 5.17077,7.38738 2.78377,14.21959 -3.16825,9.06796 -0.62964,16.91179 6.69592,20.84019 3.16254,1.69598 10.15699,1.69673 13.31671,0 2.86145,-1.53656 6.09193,-4.91458 7.14733,-7.44832 3.0786,-7.39076 0.56127,-16.69085 -5.49216,-20.23832 -2.09097,-1.2254 -3.66903,-1.59921 -7.89976,-1.95616 -3.44023,-0.2904 -5.84801,-0.83372 -6.99688,-1.50469 -2.29645,-1.34123 -4.12861,-4.6637 -4.58933,-8.3512 -0.4195,-3.35643 0.516,-11.72391 1.80558,-16.17562 1.33318,-4.60198 0.80078,-13.23305 -1.05323,-17.30418 -5.68084,-12.47406 -21.72842,-17.3585 -33.10363,-10.00632 -1.7842,1.15316 -4.07276,3.20125 -5.116,4.51419 -3.65744,4.6027 -9.54824,10.50046 -11.3606,11.36057 -4.56047,2.16406 -9.24176,0.39084 -14.37004,-5.417 -7.75176,-8.7788 -8.8864,-9.8868 -12.3386,-11.58622 -3.24328,-1.59676 -6.68329,-2.38656 -10.15683,-2.33236 z m 32.80271,25.58007 c 10.5002,-0.0137 17.63764,9.58191 14.67096,19.78694 -1.29376,4.45049 -5.53844,8.76117 -9.78067,10.00637 -3.62937,1.06521 -6.62389,1.1179 -10.00629,0.0756 -5.8806,-1.8128 -10.27265,-8.07912 -10.23204,-14.67092 0.0295,-4.41202 1.01328,-6.92376 4.06272,-10.23204 3.18464,-3.45491 6.63176,-4.95792 11.28532,-4.96557 z"
         style="color:#000000;fill:#ffffff;fill-opacity:1;fill-rule:nonzero;stroke:none;stroke-width:12;marker:none;visibility:visible;display:inline;overflow:visible;enable-background:accumulate" />
      <path
         inkscape:connector-curvature="0"
         id="path3866"
         d="m 427.46834,61.898 c -0.48173,0.0075 -0.97306,0.129309 -1.45038,0.365215 -1.42302,0.70329 -2.0066,2.21536 -1.56515,4.017231 0.21103,0.861452 0.28401,2.025531 0.15651,2.493834 -0.18071,0.663697 -0.73517,1.011242 -1.62777,1.012138 -0.88176,0.0011 -1.74877,0.678018 -1.91994,1.502559 -0.1751,0.843487 0.0251,1.607709 0.5739,2.159931 0.64532,0.649322 1.54071,0.832385 2.31644,0.469546 1.12314,-0.525322 1.49112,-1.622843 1.01214,-2.994685 -0.23089,-0.661302 -0.24145,-0.750076 -0.12521,-1.168652 0.49202,-1.771886 4.53388,-1.901577 5.19634,-0.166946 0.1566,0.410045 0.13076,0.690586 -0.15651,1.408651 -0.17585,0.439538 -0.19723,0.592646 -0.16696,1.064298 0.0553,0.861581 0.46827,1.465307 1.28343,1.836456 0.49604,0.225857 1.52724,0.224853 2.01385,0 1.19598,-0.552641 1.64493,-1.750993 1.11649,-2.963364 -0.45391,-1.041353 -0.22453,-1.733236 0.7304,-2.212103 1.20124,-0.602376 2.93662,-0.464924 3.80856,0.302597 0.62388,0.549167 0.71714,1.024556 0.38608,1.972116 -0.4394,1.257636 -0.0873,2.345497 0.92866,2.890327 0.43861,0.235216 1.40867,0.235319 1.84689,0 0.39686,-0.213106 0.84489,-0.681604 0.99127,-1.033008 0.42697,-1.025025 0.0778,-2.314855 -0.76171,-2.806855 -0.29,-0.16995 -0.50886,-0.221794 -1.09562,-0.271299 -0.47712,-0.04028 -0.81106,-0.115628 -0.97039,-0.208686 -0.3185,-0.186015 -0.5726,-0.646808 -0.6365,-1.158228 -0.0582,-0.465504 0.0716,-1.62599 0.25042,-2.243397 0.1849,-0.63825 0.11106,-1.835293 -0.14608,-2.399918 -0.78787,-1.730028 -3.01351,-2.407451 -4.59114,-1.387777 -0.24745,0.159932 -0.56485,0.443981 -0.70954,0.626072 -0.50725,0.638349 -1.32424,1.45631 -1.5756,1.5756 -0.63249,0.300133 -1.28174,0.0542 -1.99298,-0.751285 -1.07509,-1.217532 -1.23246,-1.371201 -1.71124,-1.606893 -0.44981,-0.221455 -0.92691,-0.330993 -1.40866,-0.323475 z m 4.54942,3.5477 c 1.45627,-0.0019 2.44616,1.328916 2.03471,2.744252 -0.17943,0.617239 -0.76813,1.215087 -1.35648,1.387784 -0.50336,0.147735 -0.91867,0.155042 -1.38777,0.01049 -0.81558,-0.251417 -1.42472,-1.120493 -1.41909,-2.034711 0.004,-0.611903 0.14054,-0.960256 0.56346,-1.419082 0.44168,-0.479161 0.91976,-0.687614 1.56517,-0.688674 z"
         style="color:#000000;fill:#ffffff;fill-opacity:1;fill-rule:nonzero;stroke:none;stroke-width:12;marker:none;visibility:visible;display:inline;overflow:visible;enable-background:accumulate" />
      <path
         style="color:#000000;fill:#ffffff;fill-opacity:1;fill-rule:nonzero;stroke:none;stroke-width:12;marker:none;visibility:visible;display:inline;overflow:visible;enable-background:accumulate"
         d="m 424.70427,107.56218 c -0.35035,0.005 -0.70768,0.094 -1.05483,0.26561 -1.03492,0.51149 -1.45934,1.61117 -1.13829,2.92163 0.15348,0.62651 0.20656,1.47311 0.11383,1.81369 -0.13143,0.48269 -0.53467,0.73545 -1.18383,0.7361 -0.64128,8e-4 -1.27184,0.49311 -1.39632,1.09277 -0.12735,0.61345 0.0183,1.16925 0.41738,1.57086 0.46932,0.47224 1.12051,0.60537 1.68468,0.34149 0.81683,-0.38205 1.08445,-1.18025 0.7361,-2.17795 -0.16792,-0.48095 -0.1756,-0.54551 -0.0911,-0.84993 0.35783,-1.28864 3.29737,-1.38297 3.77916,-0.12142 0.11389,0.29822 0.0951,0.50225 -0.11383,1.02448 -0.12789,0.31966 -0.14344,0.43101 -0.12142,0.77403 0.0402,0.62661 0.34056,1.06568 0.9334,1.33561 0.36076,0.16426 1.11072,0.16353 1.46462,0 0.8698,-0.40192 1.19631,-1.27345 0.81199,-2.15518 -0.33011,-0.75734 -0.16329,-1.26053 0.5312,-1.6088 0.87363,-0.43809 2.13573,-0.33813 2.76986,0.22007 0.45373,0.3994 0.52156,0.74513 0.28079,1.43427 -0.31956,0.91464 -0.0635,1.70581 0.67539,2.10205 0.31899,0.17107 1.02449,0.17115 1.34319,0 0.28863,-0.15498 0.61447,-0.49571 0.72092,-0.75127 0.31053,-0.74548 0.0566,-1.68354 -0.55397,-2.04135 -0.21091,-0.1236 -0.37008,-0.16131 -0.79681,-0.19731 -0.347,-0.0293 -0.58986,-0.0841 -0.70574,-0.15177 -0.23164,-0.13529 -0.41644,-0.47041 -0.46291,-0.84235 -0.0423,-0.33855 0.0521,-1.18254 0.18213,-1.63156 0.13447,-0.46418 0.0808,-1.33476 -0.10624,-1.7454 -0.573,-1.2582 -2.19165,-1.75087 -3.33902,-1.00929 -0.17996,0.11631 -0.4108,0.32289 -0.51602,0.45532 -0.36891,0.46426 -0.96309,1.05914 -1.1459,1.1459 -0.45999,0.21827 -0.93217,0.0394 -1.44944,-0.54639 -0.78188,-0.88548 -0.89633,-0.99724 -1.24453,-1.16865 -0.32714,-0.16106 -0.67412,-0.24073 -1.02448,-0.23526 z m 3.30867,2.58015 c 1.0591,-0.001 1.77902,0.96648 1.47978,1.99582 -0.13049,0.4489 -0.55864,0.8837 -0.98653,1.0093 -0.36608,0.10744 -0.66812,0.11275 -1.00928,0.008 -0.59315,-0.18285 -1.03616,-0.81491 -1.03207,-1.47979 0.003,-0.44502 0.10221,-0.69837 0.40979,-1.03206 0.32122,-0.34848 0.66892,-0.50009 1.13831,-0.50086 z"
         id="path3870"
         inkscape:connector-curvature="0" />
      <path
         inkscape:connector-curvature="0"
         id="path3874"
         d="m 421.52818,144.67165 c -0.26276,0.003 -0.53076,0.0705 -0.79112,0.1992 -0.77619,0.38362 -1.0945,1.20838 -0.85371,2.19123 0.1151,0.46988 0.15492,1.10483 0.0854,1.36027 -0.0986,0.36202 -0.40101,0.55158 -0.88788,0.55207 -0.48096,6e-4 -0.95388,0.36983 -1.04724,0.81958 -0.0955,0.46009 0.0137,0.87694 0.31304,1.17815 0.35198,0.35418 0.84038,0.45402 1.26351,0.25612 0.61262,-0.28654 0.81333,-0.88519 0.55208,-1.63347 -0.12594,-0.36071 -0.1317,-0.40913 -0.0683,-0.63744 0.26838,-0.96649 2.47304,-1.03724 2.83438,-0.0911 0.0854,0.22367 0.0713,0.37668 -0.0854,0.76836 -0.0959,0.23975 -0.10758,0.32326 -0.0911,0.58052 0.0302,0.46996 0.25542,0.79927 0.70005,1.00172 0.27058,0.12318 0.83304,0.12264 1.09847,0 0.65235,-0.30145 0.89723,-0.9551 0.60899,-1.61639 -0.24758,-0.56801 -0.12247,-0.94541 0.3984,-1.20661 0.65523,-0.32857 1.6018,-0.2536 2.07741,0.16506 0.34029,0.29954 0.39116,0.55885 0.21059,1.0757 -0.23968,0.68598 -0.0477,1.27936 0.50654,1.57654 0.23924,0.1283 0.76837,0.12836 1.00739,0 0.21647,-0.11623 0.46085,-0.37178 0.5407,-0.56345 0.23289,-0.55912 0.0424,-1.26266 -0.41549,-1.53101 -0.15817,-0.0927 -0.27756,-0.12099 -0.5976,-0.14799 -0.26025,-0.0219 -0.4424,-0.0631 -0.52931,-0.11383 -0.17373,-0.10147 -0.31233,-0.35281 -0.34718,-0.63176 -0.0317,-0.25391 0.0391,-0.88691 0.13659,-1.22368 0.10086,-0.34813 0.0606,-1.00107 -0.0797,-1.30905 -0.42975,-0.94365 -1.64373,-1.31315 -2.50427,-0.75697 -0.13497,0.0872 -0.3081,0.24217 -0.38702,0.3415 -0.27667,0.34819 -0.72231,0.79435 -0.85942,0.85942 -0.34499,0.1637 -0.69913,0.0296 -1.08708,-0.40979 -0.58641,-0.66412 -0.67225,-0.74794 -0.9334,-0.87649 -0.24536,-0.1208 -0.50559,-0.18055 -0.76836,-0.17644 z m 2.48152,1.93511 c 0.79432,-7.5e-4 1.33426,0.72486 1.10983,1.49687 -0.0979,0.33667 -0.41898,0.66277 -0.7399,0.75697 -0.27456,0.0806 -0.50109,0.0846 -0.75696,0.006 -0.44487,-0.13713 -0.77712,-0.61118 -0.77406,-1.10984 0.003,-0.33376 0.0766,-0.52378 0.30735,-0.77404 0.24091,-0.26137 0.50169,-0.37507 0.85374,-0.37565 z"
         style="color:#000000;fill:#ffffff;fill-opacity:1;fill-rule:nonzero;stroke:none;stroke-width:12;marker:none;visibility:visible;display:inline;overflow:visible;enable-background:accumulate" />
    </g>
    <g
       inkscape:groupmode="layer"
       id="layer5"
       inkscape:label="Highlights"
       style="display:inline"
       sodipodi:insensitive="true">
      <path
         style="opacity:0.12999998;color:#bebebe;fill:#ffffff;fill-opacity:1;fill-rule:nonzero;stroke:none;stroke-width:0;marker:none;visibility:visible;display:inline;overflow:visible;enable-background:accumulate"
         d="M 84,47 C 56.836703,47 35,68.836703 35,96 l 0,1 C 35,69.836703 56.836703,48 84,48 l 120,0 c 27.1633,0 49,21.836703 49,49 l 0,-1 C 253,68.836703 231.1633,47 204,47 L 84,47 z"
         id="rect3894"
         inkscape:connector-curvature="0" />
      <path
         style="opacity:0.12999998;color:#bebebe;fill:#ffffff;fill-opacity:1;fill-rule:nonzero;stroke:none;stroke-width:0;marker:none;visibility:visible;display:inline;overflow:visible;enable-background:accumulate"
         d="m 419,141 c -1.1253,0 -2,0.8747 -2,2 l 0,1 c 0,-1.1253 0.8747,-2 2,-2 l 10,0 c 1.1253,0 2,0.8747 2,2 l 0,-1 c 0,-1.1253 -0.8747,-2 -2,-2 l -10,0 z"
         id="rect3896"
         inkscape:connector-curvature="0" />
      <path
         style="opacity:0.12999998;color:#bebebe;fill:#ffffff;fill-opacity:1;fill-rule:nonzero;stroke:none;stroke-width:0;marker:none;visibility:visible;display:inline;overflow:visible;enable-background:accumulate"
         d="m 422,102 c -2.2333,0 -4,1.7667 -4,4 l 0,1 c 0,-2.2333 1.7667,-4 4,-4 l 12,0 c 2.2333,0 4,1.7667 4,4 l 0,-1 c 0,-2.2333 -1.7667,-4 -4,-4 l -12,0 z"
         id="rect3898"
         inkscape:connector-curvature="0" />
      <path
         style="opacity:0.12999998;color:#bebebe;fill:#ffffff;fill-opacity:1;fill-rule:nonzero;stroke:none;stroke-width:0;marker:none;visibility:visible;display:inline;overflow:visible;enable-background:accumulate"
         d="m 424,54 c -3.3413,0 -6,2.658703 -6,6 l 0,1 c 0,-3.341297 2.6587,-6 6,-6 l 16,0 c 3.3413,0 6,2.658703 6,6 l 0,-1 c 0,-3.341297 -2.6587,-6 -6,-6 l -16,0 z"
         id="rect3900"
         inkscape:connector-curvature="0" />
      <path
         style="opacity:0.12999998;color:#bebebe;fill:#ffffff;fill-opacity:1;fill-rule:nonzero;stroke:none;stroke-width:0;marker:none;visibility:visible;display:inline;overflow:visible;enable-background:accumulate"
         d="m 300,224 c -4.4493,0 -8,3.5507 -8,8 l 0,1 c 0,-4.4493 3.5507,-8 8,-8 l 24,0 c 4.4493,0 8,3.5507 8,8 l 0,-1 c 0,-4.4493 -3.5507,-8 -8,-8 l -24,0 z"
         id="rect3902"
         inkscape:connector-curvature="0" />
      <path
         style="opacity:0.12999998;color:#bebebe;fill:#ffffff;fill-opacity:1;fill-rule:nonzero;stroke:none;stroke-width:0;marker:none;visibility:visible;display:inline;overflow:visible;enable-background:accumulate"
         d="m 310,33 c -9.4353,0 -17,7.564703 -17,17 l 0,1 c 0,-9.435297 7.5647,-17 17,-17 l 52,0 c 9.4353,0 17,7.564703 17,17 l 0,-1 c 0,-9.435297 -7.5647,-17 -17,-17 l -52,0 z"
         id="rect3904"
         inkscape:connector-curvature="0" />
      <path
         style="opacity:0.12999998;color:#bebebe;fill:#ffffff;fill-opacity:1;fill-rule:nonzero;stroke:none;stroke-width:0;marker:none;visibility:visible;display:inline;overflow:visible;enable-background:accumulate"
         d="m 302.5,143 c -6.3883,0 -11.5,5.1117 -11.5,11.5 l 0,1 c 0,-6.3883 5.1117,-11.5 11.5,-11.5 l 35,0 c 6.3883,0 11.5,5.1117 11.5,11.5 l 0,-1 c 0,-6.3883 -5.1117,-11.5 -11.5,-11.5 l -35,0 z"
         id="rect3906"
         inkscape:connector-curvature="0" />
      <path
         id="path4085"
         d="m 204,266 c 27.1633,0 49,-21.8367 49,-49 l 0,-1 c 0,27.1633 -21.8367,49 -49,49 L 84,265 C 56.8367,265 35,243.1633 35,216 l 0,1 c 0,27.1633 21.8367,49 49,49 l 120,0 z"
         style="opacity:0.5;color:#bebebe;fill:#000000;fill-opacity:1;fill-rule:nonzero;stroke:none;stroke-width:0;marker:none;visibility:visible;display:inline;overflow:visible;enable-background:accumulate"
         inkscape:connector-curvature="0" />
      <path
         id="path4087"
         d="m 429,156 c 1.1253,0 2,-0.8747 2,-2 l 0,-1 c 0,1.1253 -0.8747,2 -2,2 l -10,0 c -1.1253,0 -2,-0.8747 -2,-2 l 0,1 c 0,1.1253 0.8747,2 2,2 l 10,0 z"
         style="opacity:0.3;color:#bebebe;fill:#000000;fill-opacity:1;fill-rule:nonzero;stroke:none;stroke-width:0;marker:none;visibility:visible;display:inline;overflow:visible;enable-background:accumulate"
         inkscape:connector-curvature="0" />
      <path
         id="path4089"
         d="m 434,123 c 2.2333,0 4,-1.7667 4,-4 l 0,-1 c 0,2.2333 -1.7667,4 -4,4 l -12,0 c -2.2333,0 -4,-1.7667 -4,-4 l 0,1 c 0,2.2333 1.7667,4 4,4 l 12,0 z"
         style="opacity:0.3;color:#bebebe;fill:#000000;fill-opacity:1;fill-rule:nonzero;stroke:none;stroke-width:0;marker:none;visibility:visible;display:inline;overflow:visible;enable-background:accumulate"
         inkscape:connector-curvature="0" />
      <path
         id="path4091"
         d="m 440,83 c 3.3413,0 6,-2.6587 6,-6 l 0,-1 c 0,3.3413 -2.6587,6 -6,6 l -16,0 c -3.3413,0 -6,-2.6587 -6,-6 l 0,1 c 0,3.3413 2.6587,6 6,6 l 16,0 z"
         style="opacity:0.5;color:#bebebe;fill:#000000;fill-opacity:1;fill-rule:nonzero;stroke:none;stroke-width:0;marker:none;visibility:visible;display:inline;overflow:visible;enable-background:accumulate"
         inkscape:connector-curvature="0" />
      <path
         id="path4093"
         d="m 324,265 c 4.4493,0 8,-3.5507 8,-8 l 0,-1 c 0,4.4493 -3.5507,8 -8,8 l -24,0 c -4.4493,0 -8,-3.5507 -8,-8 l 0,1 c 0,4.4493 3.5507,8 8,8 l 24,0 z"
         style="opacity:0.5;color:#bebebe;fill:#000000;fill-opacity:1;fill-rule:nonzero;stroke:none;stroke-width:0;marker:none;visibility:visible;display:inline;overflow:visible;enable-background:accumulate"
         inkscape:connector-curvature="0" />
      <path
         id="path4095"
         d="m 362,120 c 9.4353,0 17,-7.5647 17,-17 l 0,-1 c 0,9.4353 -7.5647,17 -17,17 l -52,0 c -9.4353,0 -17,-7.5647 -17,-17 l 0,1 c 0,9.4353 7.5647,17 17,17 l 52,0 z"
         style="opacity:0.5;color:#bebebe;fill:#000000;fill-opacity:1;fill-rule:nonzero;stroke:none;stroke-width:0;marker:none;visibility:visible;display:inline;overflow:visible;enable-background:accumulate"
         inkscape:connector-curvature="0" />
      <path
         id="path4097"
         d="m 337.5,202 c 6.3883,0 11.5,-5.1117 11.5,-11.5 l 0,-1 c 0,6.3883 -5.1117,11.5 -11.5,11.5 l -35,0 c -6.3883,0 -11.5,-5.1117 -11.5,-11.5 l 0,1 c 0,6.3883 5.1117,11.5 11.5,11.5 l 35,0 z"
         style="opacity:0.5;color:#bebebe;fill:#000000;fill-opacity:1;fill-rule:nonzero;stroke:none;stroke-width:0;marker:none;visibility:visible;display:inline;overflow:visible;enable-background:accumulate"
         inkscape:connector-curvature="0" />
      <path
         inkscape:connector-curvature="0"
         id="path4280"
         d="M 84,265 C 56.836703,265 35,243.1633 35,216 l 0,-1 c 0,27.1633 21.836703,49 49,49 l 120,0 c 27.1633,0 49,-21.8367 49,-49 l 0,1 c 0,27.1633 -21.8367,49 -49,49 l -120,0 z"
         style="opacity:0.1;color:#bebebe;fill:#ffffff;fill-opacity:1;fill-rule:nonzero;stroke:none;stroke-width:0;marker:none;visibility:visible;display:inline;overflow:visible;enable-background:accumulate" />
      <path
         style="opacity:0.1;color:#bebebe;fill:#ffffff;fill-opacity:1;fill-rule:nonzero;stroke:none;stroke-width:0;marker:none;visibility:visible;display:inline;overflow:visible;enable-background:accumulate"
         d="m 300,264 c -4.4493,0 -8,-3.5507 -8,-8 l 0,-1 c 0,4.4493 3.5507,8 8,8 l 24,0 c 4.4493,0 8,-3.5507 8,-8 l 0,1 c 0,4.4493 -3.5507,8 -8,8 l -24,0 z"
         id="path4294"
         inkscape:connector-curvature="0" />
      <path
         style="opacity:0.1;color:#bebebe;fill:#ffffff;fill-opacity:1;fill-rule:nonzero;stroke:none;stroke-width:0;marker:none;visibility:visible;display:inline;overflow:visible;enable-background:accumulate"
         d="m 302.5,201 c -6.3883,0 -11.5,-5.1117 -11.5,-11.5 l 0,-1 c 0,6.3883 5.1117,11.5 11.5,11.5 l 35,0 c 6.3883,0 11.5,-5.1117 11.5,-11.5 l 0,1 c 0,6.3883 -5.1117,11.5 -11.5,11.5 l -35,0 z"
         id="path4296"
         inkscape:connector-curvature="0" />
      <path
         style="opacity:0.1;color:#bebebe;fill:#ffffff;fill-opacity:1;fill-rule:nonzero;stroke:none;stroke-width:0;marker:none;visibility:visible;display:inline;overflow:visible;enable-background:accumulate"
         d="m 310,119 c -9.4353,0 -17,-7.5647 -17,-17 l 0,-1 c 0,9.4353 7.5647,17 17,17 l 52,0 c 9.4353,0 17,-7.5647 17,-17 l 0,1 c 0,9.4353 -7.5647,17 -17,17 l -52,0 z"
         id="path4298"
         inkscape:connector-curvature="0" />
      <path
         style="opacity:0.1;color:#bebebe;fill:#ffffff;fill-opacity:1;fill-rule:nonzero;stroke:none;stroke-width:0;marker:none;visibility:visible;display:inline;overflow:visible;enable-background:accumulate"
         d="m 424,82 c -3.3413,0 -6,-2.658703 -6,-6 l 0,-1 c 0,3.341297 2.6587,6 6,6 l 16,0 c 3.3413,0 6,-2.658703 6,-6 l 0,1 c 0,3.341297 -2.6587,6 -6,6 l -16,0 z"
         id="path4300"
         inkscape:connector-curvature="0" />
      <path
         style="opacity:0.1;color:#bebebe;fill:#ffffff;fill-opacity:1;fill-rule:nonzero;stroke:none;stroke-width:0;marker:none;visibility:visible;display:inline;overflow:visible;enable-background:accumulate"
         d="m 422,122 c -2.2333,0 -4,-1.7667 -4,-4 l 0,-1 c 0,2.2333 1.7667,4 4,4 l 12,0 c 2.2333,0 4,-1.7667 4,-4 l 0,1 c 0,2.2333 -1.7667,4 -4,4 l -12,0 z"
         id="path4302"
         inkscape:connector-curvature="0" />
      <path
         style="opacity:0.1;color:#bebebe;fill:#ffffff;fill-opacity:1;fill-rule:nonzero;stroke:none;stroke-width:0;marker:none;visibility:visible;display:inline;overflow:visible;enable-background:accumulate"
         d="m 419,154.5 c -1.1253,0 -2,-0.8747 -2,-2 l 0,-1 c 0,1.1253 0.8747,2 2,2 l 10,0 c 1.1253,0 2,-0.8747 2,-2 l 0,1 c 0,1.1253 -0.8747,2 -2,2 l -10,0 z"
         id="path4304"
         inkscape:connector-curvature="0" />
    </g>
    <g
       inkscape:groupmode="layer"
       id="layer3"
       inkscape:label="Border"
       style="display:inline"
       sodipodi:insensitive="true">
      <path
         style="opacity:0.41000001;color:#bebebe;fill:#000000;fill-opacity:1;fill-rule:nonzero;stroke:none;stroke-width:0;marker:none;visibility:visible;display:inline;overflow:visible;enable-background:accumulate"
         d="m 422,101 c -2.77,0 -5,2.23 -5,5 l 0,12 c 0,2.77 2.23,5 5,5 l 12,0 c 2.77,0 5,-2.23 5,-5 l 0,-12 c 0,-2.77 -2.23,-5 -5,-5 l -12,0 z m 0,1 12,0 c 2.2333,0 4,1.7667 4,4 l 0,12 c 0,2.2333 -1.7667,4 -4,4 l -12,0 c -2.2333,0 -4,-1.7667 -4,-4 l 0,-12 c 0,-2.2333 1.7667,-4 4,-4 z"
         id="rect4099"
         inkscape:connector-curvature="0" />
      <path
         style="opacity:0.41000001;color:#bebebe;fill:#000000;fill-opacity:1;fill-rule:nonzero;stroke:none;stroke-width:0;marker:none;visibility:visible;display:inline;overflow:visible;enable-background:accumulate"
         d="m 424,53 c -3.878,0 -7,3.122 -7,7 l 0,16 c 0,3.878 3.122,7 7,7 l 16,0 c 3.878,0 7,-3.122 7,-7 l 0,-16 c 0,-3.878 -3.122,-7 -7,-7 l -16,0 z m 0,1 16,0 c 3.3413,0 6,2.658703 6,6 l 0,16 c 0,3.341297 -2.6587,6 -6,6 l -16,0 c -3.3413,0 -6,-2.658703 -6,-6 l 0,-16 c 0,-3.341297 2.6587,-6 6,-6 z"
         id="rect4151"
         inkscape:connector-curvature="0" />
      <path
         style="opacity:0.41000001;color:#bebebe;fill:#000000;fill-opacity:1;fill-rule:nonzero;stroke:none;stroke-width:0;marker:none;visibility:visible;display:inline;overflow:visible;enable-background:accumulate"
         d="m 419,140 c -1.662,0 -3,1.338 -3,3 l 0,10 c 0,1.662 1.338,3 3,3 l 10,0 c 1.662,0 3,-1.338 3,-3 l 0,-10 c 0,-1.662 -1.338,-3 -3,-3 l -10,0 z m 0,1 10,0 c 1.1253,0 2,0.8747 2,2 l 0,10 c 0,1.1253 -0.8747,2 -2,2 l -10,0 c -1.1253,0 -2,-0.8747 -2,-2 l 0,-10 c 0,-1.1253 0.8747,-2 2,-2 z"
         id="rect4095"
         inkscape:connector-curvature="0" />
      <path
         style="opacity:0.41000001;color:#bebebe;fill:#000000;fill-opacity:1;fill-rule:nonzero;stroke:none;stroke-width:0;marker:none;visibility:visible;display:inline;overflow:visible;enable-background:accumulate"
         d="m 300,223 c -4.986,0 -9,4.014 -9,9 l 0,24 c 0,4.986 4.014,9 9,9 l 24,0 c 4.986,0 9,-4.014 9,-9 l 0,-24 c 0,-4.986 -4.014,-9 -9,-9 l -24,0 z m 0,1 24,0 c 4.4493,0 8,3.5507 8,8 l 0,24 c 0,4.4493 -3.5507,8 -8,8 l -24,0 c -4.4493,0 -8,-3.5507 -8,-8 l 0,-24 c 0,-4.4493 3.5507,-8 8,-8 z"
         id="rect4783"
         inkscape:connector-curvature="0" />
      <path
         style="opacity:0.41000001;color:#bebebe;fill:#000000;fill-opacity:1;fill-rule:nonzero;stroke:none;stroke-width:0;marker:none;visibility:visible;display:inline;overflow:visible;enable-background:accumulate"
         d="m 302.5,142 c -6.925,0 -12.5,5.575 -12.5,12.5 l 0,35 c 0,6.925 5.575,12.5 12.5,12.5 l 35,0 c 6.925,0 12.5,-5.575 12.5,-12.5 l 0,-35 c 0,-6.925 -5.575,-12.5 -12.5,-12.5 l -35,0 z m 0,1 35,0 c 6.3883,0 11.5,5.1117 11.5,11.5 l 0,35 c 0,6.3883 -5.1117,11.5 -11.5,11.5 l -35,0 c -6.3883,0 -11.5,-5.1117 -11.5,-11.5 l 0,-35 c 0,-6.3883 5.1117,-11.5 11.5,-11.5 z"
         id="rect4515"
         inkscape:connector-curvature="0" />
      <path
         style="opacity:0.41000001;color:#bebebe;fill:#000000;fill-opacity:1;fill-rule:nonzero;stroke:none;stroke-width:0;marker:none;visibility:visible;display:inline;overflow:visible;enable-background:accumulate"
         d="m 310,32 c -9.972,0 -18,8.028 -18,18 l 0,52 c 0,9.972 8.028,18 18,18 l 52,0 c 9.972,0 18,-8.028 18,-18 l 0,-52 c 0,-9.972 -8.028,-18 -18,-18 l -52,0 z m 0,1 52,0 c 9.4353,0 17,7.564703 17,17 l 0,52 c 0,9.4353 -7.5647,17 -17,17 l -52,0 c -9.4353,0 -17,-7.5647 -17,-17 l 0,-52 c 0,-9.435297 7.5647,-17 17,-17 z"
         id="rect4511"
         inkscape:connector-curvature="0" />
      <path
         style="opacity:0.41000001;color:#bebebe;fill:#000000;fill-opacity:1;fill-rule:nonzero;stroke:none;stroke-width:0;marker:none;visibility:visible;display:inline;overflow:visible;enable-background:accumulate"
         d="M 84,46 C 56.3,46 34,68.3 34,96 l 0,120 c 0,27.7 22.3,50 50,50 l 120,0 c 27.7,0 50,-22.3 50,-50 L 254,96 C 254,68.3 231.7,46 204,46 L 84,46 z m 0,1 120,0 c 27.1633,0 49,21.836703 49,49 l 0,120 c 0,27.1633 -21.8367,49 -49,49 L 84,265 C 56.836703,265 35,243.1633 35,216 L 35,96 C 35,68.836703 56.836703,47 84,47 z"
         id="rect4040"
         inkscape:connector-curvature="0" />
    </g>
  </g>
</svg>
